G04 #@! TF.GenerationSoftware,KiCad,Pcbnew,6.0.1-79c1e3a40b~116~ubuntu20.04.1*
G04 #@! TF.CreationDate,2022-07-08T20:10:07+02:00*
G04 #@! TF.ProjectId,microcontroller_mini,6d696372-6f63-46f6-9e74-726f6c6c6572,rev?*
G04 #@! TF.SameCoordinates,Original*
G04 #@! TF.FileFunction,Legend,Top*
G04 #@! TF.FilePolarity,Positive*
%FSLAX46Y46*%
G04 Gerber Fmt 4.6, Leading zero omitted, Abs format (unit mm)*
G04 Created by KiCad (PCBNEW 6.0.1-79c1e3a40b~116~ubuntu20.04.1) date 2022-07-08 20:10:07*
%MOMM*%
%LPD*%
G01*
G04 APERTURE LIST*
G04 Aperture macros list*
%AMRoundRect*
0 Rectangle with rounded corners*
0 $1 Rounding radius*
0 $2 $3 $4 $5 $6 $7 $8 $9 X,Y pos of 4 corners*
0 Add a 4 corners polygon primitive as box body*
4,1,4,$2,$3,$4,$5,$6,$7,$8,$9,$2,$3,0*
0 Add four circle primitives for the rounded corners*
1,1,$1+$1,$2,$3*
1,1,$1+$1,$4,$5*
1,1,$1+$1,$6,$7*
1,1,$1+$1,$8,$9*
0 Add four rect primitives between the rounded corners*
20,1,$1+$1,$2,$3,$4,$5,0*
20,1,$1+$1,$4,$5,$6,$7,0*
20,1,$1+$1,$6,$7,$8,$9,0*
20,1,$1+$1,$8,$9,$2,$3,0*%
%AMFreePoly0*
4,1,9,3.862500,-0.866500,0.737500,-0.866500,0.737500,-0.450000,-0.737500,-0.450000,-0.737500,0.450000,0.737500,0.450000,0.737500,0.866500,3.862500,0.866500,3.862500,-0.866500,3.862500,-0.866500,$1*%
%AMFreePoly1*
4,1,6,0.500000,-0.750000,-0.650000,-0.750000,-0.150000,0.000000,-0.650000,0.750000,0.500000,0.750000,0.500000,-0.750000,0.500000,-0.750000,$1*%
%AMFreePoly2*
4,1,6,1.000000,0.000000,0.500000,-0.750000,-0.500000,-0.750000,-0.500000,0.750000,0.500000,0.750000,1.000000,0.000000,1.000000,0.000000,$1*%
G04 Aperture macros list end*
%ADD10C,0.150000*%
%ADD11C,0.120000*%
%ADD12R,0.600000X0.700000*%
%ADD13RoundRect,0.135000X0.185000X-0.135000X0.185000X0.135000X-0.185000X0.135000X-0.185000X-0.135000X0*%
%ADD14R,0.800000X0.900000*%
%ADD15RoundRect,0.225000X0.335876X0.017678X0.017678X0.335876X-0.335876X-0.017678X-0.017678X-0.335876X0*%
%ADD16RoundRect,0.135000X-0.226274X-0.035355X-0.035355X-0.226274X0.226274X0.035355X0.035355X0.226274X0*%
%ADD17O,2.400000X1.600000*%
%ADD18R,1.000000X1.600000*%
%ADD19R,1.600000X1.000000*%
%ADD20O,1.600000X2.400000*%
%ADD21RoundRect,0.150000X0.150000X-0.512500X0.150000X0.512500X-0.150000X0.512500X-0.150000X-0.512500X0*%
%ADD22R,0.900000X1.300000*%
%ADD23FreePoly0,270.000000*%
%ADD24RoundRect,0.135000X0.226274X0.035355X0.035355X0.226274X-0.226274X-0.035355X-0.035355X-0.226274X0*%
%ADD25RoundRect,0.225000X0.017678X-0.335876X0.335876X-0.017678X-0.017678X0.335876X-0.335876X0.017678X0*%
%ADD26RoundRect,0.140000X-0.219203X-0.021213X-0.021213X-0.219203X0.219203X0.021213X0.021213X0.219203X0*%
%ADD27RoundRect,0.243750X0.456250X-0.243750X0.456250X0.243750X-0.456250X0.243750X-0.456250X-0.243750X0*%
%ADD28RoundRect,0.135000X0.135000X0.185000X-0.135000X0.185000X-0.135000X-0.185000X0.135000X-0.185000X0*%
%ADD29R,0.900000X1.000000*%
%ADD30C,1.500000*%
%ADD31RoundRect,0.250000X0.250000X0.475000X-0.250000X0.475000X-0.250000X-0.475000X0.250000X-0.475000X0*%
%ADD32R,0.740000X2.400000*%
%ADD33RoundRect,0.243750X-0.456250X0.243750X-0.456250X-0.243750X0.456250X-0.243750X0.456250X0.243750X0*%
%ADD34RoundRect,0.140000X0.021213X-0.219203X0.219203X-0.021213X-0.021213X0.219203X-0.219203X0.021213X0*%
%ADD35RoundRect,0.140000X-0.021213X0.219203X-0.219203X0.021213X0.021213X-0.219203X0.219203X-0.021213X0*%
%ADD36RoundRect,0.135000X-0.135000X-0.185000X0.135000X-0.185000X0.135000X0.185000X-0.135000X0.185000X0*%
%ADD37RoundRect,0.140000X0.140000X0.170000X-0.140000X0.170000X-0.140000X-0.170000X0.140000X-0.170000X0*%
%ADD38RoundRect,0.140000X0.219203X0.021213X0.021213X0.219203X-0.219203X-0.021213X-0.021213X-0.219203X0*%
%ADD39RoundRect,0.140000X-0.140000X-0.170000X0.140000X-0.170000X0.140000X0.170000X-0.140000X0.170000X0*%
%ADD40RoundRect,0.250000X-0.250000X-0.475000X0.250000X-0.475000X0.250000X0.475000X-0.250000X0.475000X0*%
%ADD41RoundRect,0.135000X-0.185000X0.135000X-0.185000X-0.135000X0.185000X-0.135000X0.185000X0.135000X0*%
%ADD42RoundRect,0.075000X0.548008X0.441942X0.441942X0.548008X-0.548008X-0.441942X-0.441942X-0.548008X0*%
%ADD43RoundRect,0.075000X0.548008X-0.441942X-0.441942X0.548008X-0.548008X0.441942X0.441942X-0.548008X0*%
%ADD44FreePoly1,90.000000*%
%ADD45FreePoly2,90.000000*%
%ADD46O,1.000000X1.600000*%
%ADD47O,1.000000X2.100000*%
%ADD48R,0.600000X1.450000*%
%ADD49R,0.300000X1.450000*%
%ADD50C,0.650000*%
G04 APERTURE END LIST*
D10*
X88366666Y-82816666D02*
X88700000Y-82816666D01*
X88300000Y-83016666D02*
X88533333Y-82316666D01*
X88766666Y-83016666D01*
X89366666Y-83016666D02*
X88966666Y-83016666D01*
X89166666Y-83016666D02*
X89166666Y-82316666D01*
X89100000Y-82416666D01*
X89033333Y-82483333D01*
X88966666Y-82516666D01*
X89600000Y-82316666D02*
X90033333Y-82316666D01*
X89800000Y-82583333D01*
X89900000Y-82583333D01*
X89966666Y-82616666D01*
X90000000Y-82650000D01*
X90033333Y-82716666D01*
X90033333Y-82883333D01*
X90000000Y-82950000D01*
X89966666Y-82983333D01*
X89900000Y-83016666D01*
X89700000Y-83016666D01*
X89633333Y-82983333D01*
X89600000Y-82950000D01*
X104833333Y-87920000D02*
X104800000Y-87953333D01*
X104700000Y-87986666D01*
X104633333Y-87986666D01*
X104533333Y-87953333D01*
X104466666Y-87886666D01*
X104433333Y-87820000D01*
X104400000Y-87686666D01*
X104400000Y-87586666D01*
X104433333Y-87453333D01*
X104466666Y-87386666D01*
X104533333Y-87320000D01*
X104633333Y-87286666D01*
X104700000Y-87286666D01*
X104800000Y-87320000D01*
X104833333Y-87353333D01*
X105100000Y-87353333D02*
X105133333Y-87320000D01*
X105200000Y-87286666D01*
X105366666Y-87286666D01*
X105433333Y-87320000D01*
X105466666Y-87353333D01*
X105500000Y-87420000D01*
X105500000Y-87486666D01*
X105466666Y-87586666D01*
X105066666Y-87986666D01*
X105500000Y-87986666D01*
X86120000Y-98090000D02*
X86086666Y-98123333D01*
X85986666Y-98156666D01*
X85920000Y-98156666D01*
X85820000Y-98123333D01*
X85753333Y-98056666D01*
X85720000Y-97990000D01*
X85686666Y-97856666D01*
X85686666Y-97756666D01*
X85720000Y-97623333D01*
X85753333Y-97556666D01*
X85820000Y-97490000D01*
X85920000Y-97456666D01*
X85986666Y-97456666D01*
X86086666Y-97490000D01*
X86120000Y-97523333D01*
X86786666Y-98156666D02*
X86386666Y-98156666D01*
X86586666Y-98156666D02*
X86586666Y-97456666D01*
X86520000Y-97556666D01*
X86453333Y-97623333D01*
X86386666Y-97656666D01*
X87053333Y-97523333D02*
X87086666Y-97490000D01*
X87153333Y-97456666D01*
X87320000Y-97456666D01*
X87386666Y-97490000D01*
X87420000Y-97523333D01*
X87453333Y-97590000D01*
X87453333Y-97656666D01*
X87420000Y-97756666D01*
X87020000Y-98156666D01*
X87453333Y-98156666D01*
X104620000Y-72556666D02*
X104953333Y-72556666D01*
X104553333Y-72756666D02*
X104786666Y-72056666D01*
X105020000Y-72756666D01*
X105586666Y-72056666D02*
X105253333Y-72056666D01*
X105220000Y-72390000D01*
X105253333Y-72356666D01*
X105320000Y-72323333D01*
X105486666Y-72323333D01*
X105553333Y-72356666D01*
X105586666Y-72390000D01*
X105620000Y-72456666D01*
X105620000Y-72623333D01*
X105586666Y-72690000D01*
X105553333Y-72723333D01*
X105486666Y-72756666D01*
X105320000Y-72756666D01*
X105253333Y-72723333D01*
X105220000Y-72690000D01*
X88366666Y-87816666D02*
X88700000Y-87816666D01*
X88300000Y-88016666D02*
X88533333Y-87316666D01*
X88766666Y-88016666D01*
X89366666Y-88016666D02*
X88966666Y-88016666D01*
X89166666Y-88016666D02*
X89166666Y-87316666D01*
X89100000Y-87416666D01*
X89033333Y-87483333D01*
X88966666Y-87516666D01*
X90000000Y-87316666D02*
X89666666Y-87316666D01*
X89633333Y-87650000D01*
X89666666Y-87616666D01*
X89733333Y-87583333D01*
X89900000Y-87583333D01*
X89966666Y-87616666D01*
X90000000Y-87650000D01*
X90033333Y-87716666D01*
X90033333Y-87883333D01*
X90000000Y-87950000D01*
X89966666Y-87983333D01*
X89900000Y-88016666D01*
X89733333Y-88016666D01*
X89666666Y-87983333D01*
X89633333Y-87950000D01*
X85963333Y-64760000D02*
X86063333Y-64793333D01*
X86096666Y-64826666D01*
X86130000Y-64893333D01*
X86130000Y-64993333D01*
X86096666Y-65060000D01*
X86063333Y-65093333D01*
X85996666Y-65126666D01*
X85730000Y-65126666D01*
X85730000Y-64426666D01*
X85963333Y-64426666D01*
X86030000Y-64460000D01*
X86063333Y-64493333D01*
X86096666Y-64560000D01*
X86096666Y-64626666D01*
X86063333Y-64693333D01*
X86030000Y-64726666D01*
X85963333Y-64760000D01*
X85730000Y-64760000D01*
X86796666Y-65126666D02*
X86396666Y-65126666D01*
X86596666Y-65126666D02*
X86596666Y-64426666D01*
X86530000Y-64526666D01*
X86463333Y-64593333D01*
X86396666Y-64626666D01*
X87430000Y-64426666D02*
X87096666Y-64426666D01*
X87063333Y-64760000D01*
X87096666Y-64726666D01*
X87163333Y-64693333D01*
X87330000Y-64693333D01*
X87396666Y-64726666D01*
X87430000Y-64760000D01*
X87463333Y-64826666D01*
X87463333Y-64993333D01*
X87430000Y-65060000D01*
X87396666Y-65093333D01*
X87330000Y-65126666D01*
X87163333Y-65126666D01*
X87096666Y-65093333D01*
X87063333Y-65060000D01*
X86026666Y-94950000D02*
X85960000Y-94916666D01*
X85860000Y-94916666D01*
X85760000Y-94950000D01*
X85693333Y-95016666D01*
X85660000Y-95083333D01*
X85626666Y-95216666D01*
X85626666Y-95316666D01*
X85660000Y-95450000D01*
X85693333Y-95516666D01*
X85760000Y-95583333D01*
X85860000Y-95616666D01*
X85926666Y-95616666D01*
X86026666Y-95583333D01*
X86060000Y-95550000D01*
X86060000Y-95316666D01*
X85926666Y-95316666D01*
X86360000Y-95616666D02*
X86360000Y-94916666D01*
X86760000Y-95616666D01*
X86760000Y-94916666D01*
X87093333Y-95616666D02*
X87093333Y-94916666D01*
X87260000Y-94916666D01*
X87360000Y-94950000D01*
X87426666Y-95016666D01*
X87460000Y-95083333D01*
X87493333Y-95216666D01*
X87493333Y-95316666D01*
X87460000Y-95450000D01*
X87426666Y-95516666D01*
X87360000Y-95583333D01*
X87260000Y-95616666D01*
X87093333Y-95616666D01*
X86096666Y-56840000D02*
X86030000Y-56806666D01*
X85930000Y-56806666D01*
X85830000Y-56840000D01*
X85763333Y-56906666D01*
X85730000Y-56973333D01*
X85696666Y-57106666D01*
X85696666Y-57206666D01*
X85730000Y-57340000D01*
X85763333Y-57406666D01*
X85830000Y-57473333D01*
X85930000Y-57506666D01*
X85996666Y-57506666D01*
X86096666Y-57473333D01*
X86130000Y-57440000D01*
X86130000Y-57206666D01*
X85996666Y-57206666D01*
X86430000Y-57506666D02*
X86430000Y-56806666D01*
X86830000Y-57506666D01*
X86830000Y-56806666D01*
X87163333Y-57506666D02*
X87163333Y-56806666D01*
X87330000Y-56806666D01*
X87430000Y-56840000D01*
X87496666Y-56906666D01*
X87530000Y-56973333D01*
X87563333Y-57106666D01*
X87563333Y-57206666D01*
X87530000Y-57340000D01*
X87496666Y-57406666D01*
X87430000Y-57473333D01*
X87330000Y-57506666D01*
X87163333Y-57506666D01*
X104733333Y-65070000D02*
X104700000Y-65103333D01*
X104600000Y-65136666D01*
X104533333Y-65136666D01*
X104433333Y-65103333D01*
X104366666Y-65036666D01*
X104333333Y-64970000D01*
X104300000Y-64836666D01*
X104300000Y-64736666D01*
X104333333Y-64603333D01*
X104366666Y-64536666D01*
X104433333Y-64470000D01*
X104533333Y-64436666D01*
X104600000Y-64436666D01*
X104700000Y-64470000D01*
X104733333Y-64503333D01*
X105333333Y-64670000D02*
X105333333Y-65136666D01*
X105166666Y-64403333D02*
X105000000Y-64903333D01*
X105433333Y-64903333D01*
X92800000Y-99683333D02*
X92766666Y-99750000D01*
X92766666Y-99850000D01*
X92800000Y-99950000D01*
X92866666Y-100016666D01*
X92933333Y-100050000D01*
X93066666Y-100083333D01*
X93166666Y-100083333D01*
X93300000Y-100050000D01*
X93366666Y-100016666D01*
X93433333Y-99950000D01*
X93466666Y-99850000D01*
X93466666Y-99783333D01*
X93433333Y-99683333D01*
X93400000Y-99650000D01*
X93166666Y-99650000D01*
X93166666Y-99783333D01*
X93466666Y-99350000D02*
X92766666Y-99350000D01*
X93466666Y-98950000D01*
X92766666Y-98950000D01*
X93466666Y-98616666D02*
X92766666Y-98616666D01*
X92766666Y-98450000D01*
X92800000Y-98350000D01*
X92866666Y-98283333D01*
X92933333Y-98250000D01*
X93066666Y-98216666D01*
X93166666Y-98216666D01*
X93300000Y-98250000D01*
X93366666Y-98283333D01*
X93433333Y-98350000D01*
X93466666Y-98450000D01*
X93466666Y-98616666D01*
X86023333Y-52070000D02*
X86123333Y-52103333D01*
X86156666Y-52136666D01*
X86190000Y-52203333D01*
X86190000Y-52303333D01*
X86156666Y-52370000D01*
X86123333Y-52403333D01*
X86056666Y-52436666D01*
X85790000Y-52436666D01*
X85790000Y-51736666D01*
X86023333Y-51736666D01*
X86090000Y-51770000D01*
X86123333Y-51803333D01*
X86156666Y-51870000D01*
X86156666Y-51936666D01*
X86123333Y-52003333D01*
X86090000Y-52036666D01*
X86023333Y-52070000D01*
X85790000Y-52070000D01*
X86856666Y-52436666D02*
X86456666Y-52436666D01*
X86656666Y-52436666D02*
X86656666Y-51736666D01*
X86590000Y-51836666D01*
X86523333Y-51903333D01*
X86456666Y-51936666D01*
X87523333Y-52436666D02*
X87123333Y-52436666D01*
X87323333Y-52436666D02*
X87323333Y-51736666D01*
X87256666Y-51836666D01*
X87190000Y-51903333D01*
X87123333Y-51936666D01*
X103650000Y-54276666D02*
X103883333Y-54976666D01*
X104116666Y-54276666D01*
X104583333Y-54610000D02*
X104683333Y-54643333D01*
X104716666Y-54676666D01*
X104750000Y-54743333D01*
X104750000Y-54843333D01*
X104716666Y-54910000D01*
X104683333Y-54943333D01*
X104616666Y-54976666D01*
X104350000Y-54976666D01*
X104350000Y-54276666D01*
X104583333Y-54276666D01*
X104650000Y-54310000D01*
X104683333Y-54343333D01*
X104716666Y-54410000D01*
X104716666Y-54476666D01*
X104683333Y-54543333D01*
X104650000Y-54576666D01*
X104583333Y-54610000D01*
X104350000Y-54610000D01*
X105016666Y-54776666D02*
X105350000Y-54776666D01*
X104950000Y-54976666D02*
X105183333Y-54276666D01*
X105416666Y-54976666D01*
X105550000Y-54276666D02*
X105950000Y-54276666D01*
X105750000Y-54976666D02*
X105750000Y-54276666D01*
X85890000Y-80166666D02*
X86223333Y-80166666D01*
X85823333Y-80366666D02*
X86056666Y-79666666D01*
X86290000Y-80366666D01*
X86623333Y-79966666D02*
X86556666Y-79933333D01*
X86523333Y-79900000D01*
X86490000Y-79833333D01*
X86490000Y-79800000D01*
X86523333Y-79733333D01*
X86556666Y-79700000D01*
X86623333Y-79666666D01*
X86756666Y-79666666D01*
X86823333Y-79700000D01*
X86856666Y-79733333D01*
X86890000Y-79800000D01*
X86890000Y-79833333D01*
X86856666Y-79900000D01*
X86823333Y-79933333D01*
X86756666Y-79966666D01*
X86623333Y-79966666D01*
X86556666Y-80000000D01*
X86523333Y-80033333D01*
X86490000Y-80100000D01*
X86490000Y-80233333D01*
X86523333Y-80300000D01*
X86556666Y-80333333D01*
X86623333Y-80366666D01*
X86756666Y-80366666D01*
X86823333Y-80333333D01*
X86856666Y-80300000D01*
X86890000Y-80233333D01*
X86890000Y-80100000D01*
X86856666Y-80033333D01*
X86823333Y-80000000D01*
X86756666Y-79966666D01*
X104366666Y-56840000D02*
X104300000Y-56806666D01*
X104200000Y-56806666D01*
X104100000Y-56840000D01*
X104033333Y-56906666D01*
X104000000Y-56973333D01*
X103966666Y-57106666D01*
X103966666Y-57206666D01*
X104000000Y-57340000D01*
X104033333Y-57406666D01*
X104100000Y-57473333D01*
X104200000Y-57506666D01*
X104266666Y-57506666D01*
X104366666Y-57473333D01*
X104400000Y-57440000D01*
X104400000Y-57206666D01*
X104266666Y-57206666D01*
X104700000Y-57506666D02*
X104700000Y-56806666D01*
X105100000Y-57506666D01*
X105100000Y-56806666D01*
X105433333Y-57506666D02*
X105433333Y-56806666D01*
X105600000Y-56806666D01*
X105700000Y-56840000D01*
X105766666Y-56906666D01*
X105800000Y-56973333D01*
X105833333Y-57106666D01*
X105833333Y-57206666D01*
X105800000Y-57340000D01*
X105766666Y-57406666D01*
X105700000Y-57473333D01*
X105600000Y-57506666D01*
X105433333Y-57506666D01*
X104490000Y-80166666D02*
X104823333Y-80166666D01*
X104423333Y-80366666D02*
X104656666Y-79666666D01*
X104890000Y-80366666D01*
X105256666Y-79666666D02*
X105323333Y-79666666D01*
X105390000Y-79700000D01*
X105423333Y-79733333D01*
X105456666Y-79800000D01*
X105490000Y-79933333D01*
X105490000Y-80100000D01*
X105456666Y-80233333D01*
X105423333Y-80300000D01*
X105390000Y-80333333D01*
X105323333Y-80366666D01*
X105256666Y-80366666D01*
X105190000Y-80333333D01*
X105156666Y-80300000D01*
X105123333Y-80233333D01*
X105090000Y-80100000D01*
X105090000Y-79933333D01*
X105123333Y-79800000D01*
X105156666Y-79733333D01*
X105190000Y-79700000D01*
X105256666Y-79666666D01*
X104366666Y-82250000D02*
X104300000Y-82216666D01*
X104200000Y-82216666D01*
X104100000Y-82250000D01*
X104033333Y-82316666D01*
X104000000Y-82383333D01*
X103966666Y-82516666D01*
X103966666Y-82616666D01*
X104000000Y-82750000D01*
X104033333Y-82816666D01*
X104100000Y-82883333D01*
X104200000Y-82916666D01*
X104266666Y-82916666D01*
X104366666Y-82883333D01*
X104400000Y-82850000D01*
X104400000Y-82616666D01*
X104266666Y-82616666D01*
X104700000Y-82916666D02*
X104700000Y-82216666D01*
X105100000Y-82916666D01*
X105100000Y-82216666D01*
X105433333Y-82916666D02*
X105433333Y-82216666D01*
X105600000Y-82216666D01*
X105700000Y-82250000D01*
X105766666Y-82316666D01*
X105800000Y-82383333D01*
X105833333Y-82516666D01*
X105833333Y-82616666D01*
X105800000Y-82750000D01*
X105766666Y-82816666D01*
X105700000Y-82883333D01*
X105600000Y-82916666D01*
X105433333Y-82916666D01*
X86016666Y-82250000D02*
X85950000Y-82216666D01*
X85850000Y-82216666D01*
X85750000Y-82250000D01*
X85683333Y-82316666D01*
X85650000Y-82383333D01*
X85616666Y-82516666D01*
X85616666Y-82616666D01*
X85650000Y-82750000D01*
X85683333Y-82816666D01*
X85750000Y-82883333D01*
X85850000Y-82916666D01*
X85916666Y-82916666D01*
X86016666Y-82883333D01*
X86050000Y-82850000D01*
X86050000Y-82616666D01*
X85916666Y-82616666D01*
X86350000Y-82916666D02*
X86350000Y-82216666D01*
X86750000Y-82916666D01*
X86750000Y-82216666D01*
X87083333Y-82916666D02*
X87083333Y-82216666D01*
X87250000Y-82216666D01*
X87350000Y-82250000D01*
X87416666Y-82316666D01*
X87450000Y-82383333D01*
X87483333Y-82516666D01*
X87483333Y-82616666D01*
X87450000Y-82750000D01*
X87416666Y-82816666D01*
X87350000Y-82883333D01*
X87250000Y-82916666D01*
X87083333Y-82916666D01*
X88916666Y-62250000D02*
X89016666Y-62283333D01*
X89050000Y-62316666D01*
X89083333Y-62383333D01*
X89083333Y-62483333D01*
X89050000Y-62550000D01*
X89016666Y-62583333D01*
X88950000Y-62616666D01*
X88683333Y-62616666D01*
X88683333Y-61916666D01*
X88916666Y-61916666D01*
X88983333Y-61950000D01*
X89016666Y-61983333D01*
X89050000Y-62050000D01*
X89050000Y-62116666D01*
X89016666Y-62183333D01*
X88983333Y-62216666D01*
X88916666Y-62250000D01*
X88683333Y-62250000D01*
X89350000Y-61983333D02*
X89383333Y-61950000D01*
X89450000Y-61916666D01*
X89616666Y-61916666D01*
X89683333Y-61950000D01*
X89716666Y-61983333D01*
X89750000Y-62050000D01*
X89750000Y-62116666D01*
X89716666Y-62216666D01*
X89316666Y-62616666D01*
X89750000Y-62616666D01*
X88366666Y-85216666D02*
X88700000Y-85216666D01*
X88300000Y-85416666D02*
X88533333Y-84716666D01*
X88766666Y-85416666D01*
X89366666Y-85416666D02*
X88966666Y-85416666D01*
X89166666Y-85416666D02*
X89166666Y-84716666D01*
X89100000Y-84816666D01*
X89033333Y-84883333D01*
X88966666Y-84916666D01*
X89966666Y-84950000D02*
X89966666Y-85416666D01*
X89800000Y-84683333D02*
X89633333Y-85183333D01*
X90066666Y-85183333D01*
X88700000Y-70216666D02*
X89033333Y-70216666D01*
X88633333Y-70416666D02*
X88866666Y-69716666D01*
X89100000Y-70416666D01*
X89633333Y-69950000D02*
X89633333Y-70416666D01*
X89466666Y-69683333D02*
X89300000Y-70183333D01*
X89733333Y-70183333D01*
X86026666Y-69550800D02*
X85960000Y-69517466D01*
X85860000Y-69517466D01*
X85760000Y-69550800D01*
X85693333Y-69617466D01*
X85660000Y-69684133D01*
X85626666Y-69817466D01*
X85626666Y-69917466D01*
X85660000Y-70050800D01*
X85693333Y-70117466D01*
X85760000Y-70184133D01*
X85860000Y-70217466D01*
X85926666Y-70217466D01*
X86026666Y-70184133D01*
X86060000Y-70150800D01*
X86060000Y-69917466D01*
X85926666Y-69917466D01*
X86360000Y-70217466D02*
X86360000Y-69517466D01*
X86760000Y-70217466D01*
X86760000Y-69517466D01*
X87093333Y-70217466D02*
X87093333Y-69517466D01*
X87260000Y-69517466D01*
X87360000Y-69550800D01*
X87426666Y-69617466D01*
X87460000Y-69684133D01*
X87493333Y-69817466D01*
X87493333Y-69917466D01*
X87460000Y-70050800D01*
X87426666Y-70117466D01*
X87360000Y-70184133D01*
X87260000Y-70217466D01*
X87093333Y-70217466D01*
X104610000Y-75096666D02*
X104943333Y-75096666D01*
X104543333Y-75296666D02*
X104776666Y-74596666D01*
X105010000Y-75296666D01*
X105543333Y-74830000D02*
X105543333Y-75296666D01*
X105376666Y-74563333D02*
X105210000Y-75063333D01*
X105643333Y-75063333D01*
X86233333Y-75220000D02*
X86200000Y-75253333D01*
X86100000Y-75286666D01*
X86033333Y-75286666D01*
X85933333Y-75253333D01*
X85866666Y-75186666D01*
X85833333Y-75120000D01*
X85800000Y-74986666D01*
X85800000Y-74886666D01*
X85833333Y-74753333D01*
X85866666Y-74686666D01*
X85933333Y-74620000D01*
X86033333Y-74586666D01*
X86100000Y-74586666D01*
X86200000Y-74620000D01*
X86233333Y-74653333D01*
X86633333Y-74886666D02*
X86566666Y-74853333D01*
X86533333Y-74820000D01*
X86500000Y-74753333D01*
X86500000Y-74720000D01*
X86533333Y-74653333D01*
X86566666Y-74620000D01*
X86633333Y-74586666D01*
X86766666Y-74586666D01*
X86833333Y-74620000D01*
X86866666Y-74653333D01*
X86900000Y-74720000D01*
X86900000Y-74753333D01*
X86866666Y-74820000D01*
X86833333Y-74853333D01*
X86766666Y-74886666D01*
X86633333Y-74886666D01*
X86566666Y-74920000D01*
X86533333Y-74953333D01*
X86500000Y-75020000D01*
X86500000Y-75153333D01*
X86533333Y-75220000D01*
X86566666Y-75253333D01*
X86633333Y-75286666D01*
X86766666Y-75286666D01*
X86833333Y-75253333D01*
X86866666Y-75220000D01*
X86900000Y-75153333D01*
X86900000Y-75020000D01*
X86866666Y-74953333D01*
X86833333Y-74920000D01*
X86766666Y-74886666D01*
X89083333Y-65150000D02*
X89050000Y-65183333D01*
X88950000Y-65216666D01*
X88883333Y-65216666D01*
X88783333Y-65183333D01*
X88716666Y-65116666D01*
X88683333Y-65050000D01*
X88650000Y-64916666D01*
X88650000Y-64816666D01*
X88683333Y-64683333D01*
X88716666Y-64616666D01*
X88783333Y-64550000D01*
X88883333Y-64516666D01*
X88950000Y-64516666D01*
X89050000Y-64550000D01*
X89083333Y-64583333D01*
X89716666Y-64516666D02*
X89383333Y-64516666D01*
X89350000Y-64850000D01*
X89383333Y-64816666D01*
X89450000Y-64783333D01*
X89616666Y-64783333D01*
X89683333Y-64816666D01*
X89716666Y-64850000D01*
X89750000Y-64916666D01*
X89750000Y-65083333D01*
X89716666Y-65150000D01*
X89683333Y-65183333D01*
X89616666Y-65216666D01*
X89450000Y-65216666D01*
X89383333Y-65183333D01*
X89350000Y-65150000D01*
X85963333Y-62220000D02*
X86063333Y-62253333D01*
X86096666Y-62286666D01*
X86130000Y-62353333D01*
X86130000Y-62453333D01*
X86096666Y-62520000D01*
X86063333Y-62553333D01*
X85996666Y-62586666D01*
X85730000Y-62586666D01*
X85730000Y-61886666D01*
X85963333Y-61886666D01*
X86030000Y-61920000D01*
X86063333Y-61953333D01*
X86096666Y-62020000D01*
X86096666Y-62086666D01*
X86063333Y-62153333D01*
X86030000Y-62186666D01*
X85963333Y-62220000D01*
X85730000Y-62220000D01*
X86796666Y-62586666D02*
X86396666Y-62586666D01*
X86596666Y-62586666D02*
X86596666Y-61886666D01*
X86530000Y-61986666D01*
X86463333Y-62053333D01*
X86396666Y-62086666D01*
X87396666Y-62120000D02*
X87396666Y-62586666D01*
X87230000Y-61853333D02*
X87063333Y-62353333D01*
X87496666Y-62353333D01*
X90716666Y-97200000D02*
X90716666Y-96866666D01*
X90916666Y-97266666D02*
X90216666Y-97033333D01*
X90916666Y-96800000D01*
X90216666Y-96633333D02*
X90216666Y-96200000D01*
X90483333Y-96433333D01*
X90483333Y-96333333D01*
X90516666Y-96266666D01*
X90550000Y-96233333D01*
X90616666Y-96200000D01*
X90783333Y-96200000D01*
X90850000Y-96233333D01*
X90883333Y-96266666D01*
X90916666Y-96333333D01*
X90916666Y-96533333D01*
X90883333Y-96600000D01*
X90850000Y-96633333D01*
X86060000Y-92990000D02*
X86026666Y-93023333D01*
X85926666Y-93056666D01*
X85860000Y-93056666D01*
X85760000Y-93023333D01*
X85693333Y-92956666D01*
X85660000Y-92890000D01*
X85626666Y-92756666D01*
X85626666Y-92656666D01*
X85660000Y-92523333D01*
X85693333Y-92456666D01*
X85760000Y-92390000D01*
X85860000Y-92356666D01*
X85926666Y-92356666D01*
X86026666Y-92390000D01*
X86060000Y-92423333D01*
X86726666Y-93056666D02*
X86326666Y-93056666D01*
X86526666Y-93056666D02*
X86526666Y-92356666D01*
X86460000Y-92456666D01*
X86393333Y-92523333D01*
X86326666Y-92556666D01*
X87393333Y-93056666D02*
X86993333Y-93056666D01*
X87193333Y-93056666D02*
X87193333Y-92356666D01*
X87126666Y-92456666D01*
X87060000Y-92523333D01*
X86993333Y-92556666D01*
X86253333Y-67600000D02*
X86220000Y-67633333D01*
X86120000Y-67666666D01*
X86053333Y-67666666D01*
X85953333Y-67633333D01*
X85886666Y-67566666D01*
X85853333Y-67500000D01*
X85820000Y-67366666D01*
X85820000Y-67266666D01*
X85853333Y-67133333D01*
X85886666Y-67066666D01*
X85953333Y-67000000D01*
X86053333Y-66966666D01*
X86120000Y-66966666D01*
X86220000Y-67000000D01*
X86253333Y-67033333D01*
X86853333Y-66966666D02*
X86720000Y-66966666D01*
X86653333Y-67000000D01*
X86620000Y-67033333D01*
X86553333Y-67133333D01*
X86520000Y-67266666D01*
X86520000Y-67533333D01*
X86553333Y-67600000D01*
X86586666Y-67633333D01*
X86653333Y-67666666D01*
X86786666Y-67666666D01*
X86853333Y-67633333D01*
X86886666Y-67600000D01*
X86920000Y-67533333D01*
X86920000Y-67366666D01*
X86886666Y-67300000D01*
X86853333Y-67266666D01*
X86786666Y-67233333D01*
X86653333Y-67233333D01*
X86586666Y-67266666D01*
X86553333Y-67300000D01*
X86520000Y-67366666D01*
X104783333Y-90450000D02*
X104750000Y-90483333D01*
X104650000Y-90516666D01*
X104583333Y-90516666D01*
X104483333Y-90483333D01*
X104416666Y-90416666D01*
X104383333Y-90350000D01*
X104350000Y-90216666D01*
X104350000Y-90116666D01*
X104383333Y-89983333D01*
X104416666Y-89916666D01*
X104483333Y-89850000D01*
X104583333Y-89816666D01*
X104650000Y-89816666D01*
X104750000Y-89850000D01*
X104783333Y-89883333D01*
X105450000Y-90516666D02*
X105050000Y-90516666D01*
X105250000Y-90516666D02*
X105250000Y-89816666D01*
X105183333Y-89916666D01*
X105116666Y-89983333D01*
X105050000Y-90016666D01*
X104566666Y-59690000D02*
X104666666Y-59723333D01*
X104700000Y-59756666D01*
X104733333Y-59823333D01*
X104733333Y-59923333D01*
X104700000Y-59990000D01*
X104666666Y-60023333D01*
X104600000Y-60056666D01*
X104333333Y-60056666D01*
X104333333Y-59356666D01*
X104566666Y-59356666D01*
X104633333Y-59390000D01*
X104666666Y-59423333D01*
X104700000Y-59490000D01*
X104700000Y-59556666D01*
X104666666Y-59623333D01*
X104633333Y-59656666D01*
X104566666Y-59690000D01*
X104333333Y-59690000D01*
X105400000Y-60056666D02*
X105000000Y-60056666D01*
X105200000Y-60056666D02*
X105200000Y-59356666D01*
X105133333Y-59456666D01*
X105066666Y-59523333D01*
X105000000Y-59556666D01*
X88700000Y-95416666D02*
X89033333Y-95416666D01*
X88633333Y-95616666D02*
X88866666Y-94916666D01*
X89100000Y-95616666D01*
X89300000Y-94983333D02*
X89333333Y-94950000D01*
X89400000Y-94916666D01*
X89566666Y-94916666D01*
X89633333Y-94950000D01*
X89666666Y-94983333D01*
X89700000Y-95050000D01*
X89700000Y-95116666D01*
X89666666Y-95216666D01*
X89266666Y-95616666D01*
X89700000Y-95616666D01*
X86213333Y-72690000D02*
X86180000Y-72723333D01*
X86080000Y-72756666D01*
X86013333Y-72756666D01*
X85913333Y-72723333D01*
X85846666Y-72656666D01*
X85813333Y-72590000D01*
X85780000Y-72456666D01*
X85780000Y-72356666D01*
X85813333Y-72223333D01*
X85846666Y-72156666D01*
X85913333Y-72090000D01*
X86013333Y-72056666D01*
X86080000Y-72056666D01*
X86180000Y-72090000D01*
X86213333Y-72123333D01*
X86446666Y-72056666D02*
X86913333Y-72056666D01*
X86613333Y-72756666D01*
X103250000Y-97883333D02*
X103283333Y-97783333D01*
X103316666Y-97750000D01*
X103383333Y-97716666D01*
X103483333Y-97716666D01*
X103550000Y-97750000D01*
X103583333Y-97783333D01*
X103616666Y-97850000D01*
X103616666Y-98116666D01*
X102916666Y-98116666D01*
X102916666Y-97883333D01*
X102950000Y-97816666D01*
X102983333Y-97783333D01*
X103050000Y-97750000D01*
X103116666Y-97750000D01*
X103183333Y-97783333D01*
X103216666Y-97816666D01*
X103250000Y-97883333D01*
X103250000Y-98116666D01*
X103616666Y-97383333D02*
X103616666Y-97250000D01*
X103583333Y-97183333D01*
X103550000Y-97150000D01*
X103450000Y-97083333D01*
X103316666Y-97050000D01*
X103050000Y-97050000D01*
X102983333Y-97083333D01*
X102950000Y-97116666D01*
X102916666Y-97183333D01*
X102916666Y-97316666D01*
X102950000Y-97383333D01*
X102983333Y-97416666D01*
X103050000Y-97450000D01*
X103216666Y-97450000D01*
X103283333Y-97416666D01*
X103316666Y-97383333D01*
X103350000Y-97316666D01*
X103350000Y-97183333D01*
X103316666Y-97116666D01*
X103283333Y-97083333D01*
X103216666Y-97050000D01*
X86000000Y-90460000D02*
X85966666Y-90493333D01*
X85866666Y-90526666D01*
X85800000Y-90526666D01*
X85700000Y-90493333D01*
X85633333Y-90426666D01*
X85600000Y-90360000D01*
X85566666Y-90226666D01*
X85566666Y-90126666D01*
X85600000Y-89993333D01*
X85633333Y-89926666D01*
X85700000Y-89860000D01*
X85800000Y-89826666D01*
X85866666Y-89826666D01*
X85966666Y-89860000D01*
X86000000Y-89893333D01*
X86666666Y-90526666D02*
X86266666Y-90526666D01*
X86466666Y-90526666D02*
X86466666Y-89826666D01*
X86400000Y-89926666D01*
X86333333Y-89993333D01*
X86266666Y-90026666D01*
X87100000Y-89826666D02*
X87166666Y-89826666D01*
X87233333Y-89860000D01*
X87266666Y-89893333D01*
X87300000Y-89960000D01*
X87333333Y-90093333D01*
X87333333Y-90260000D01*
X87300000Y-90393333D01*
X87266666Y-90460000D01*
X87233333Y-90493333D01*
X87166666Y-90526666D01*
X87100000Y-90526666D01*
X87033333Y-90493333D01*
X87000000Y-90460000D01*
X86966666Y-90393333D01*
X86933333Y-90260000D01*
X86933333Y-90093333D01*
X86966666Y-89960000D01*
X87000000Y-89893333D01*
X87033333Y-89860000D01*
X87100000Y-89826666D01*
X88150000Y-99383333D02*
X88183333Y-99283333D01*
X88216666Y-99250000D01*
X88283333Y-99216666D01*
X88383333Y-99216666D01*
X88450000Y-99250000D01*
X88483333Y-99283333D01*
X88516666Y-99350000D01*
X88516666Y-99616666D01*
X87816666Y-99616666D01*
X87816666Y-99383333D01*
X87850000Y-99316666D01*
X87883333Y-99283333D01*
X87950000Y-99250000D01*
X88016666Y-99250000D01*
X88083333Y-99283333D01*
X88116666Y-99316666D01*
X88150000Y-99383333D01*
X88150000Y-99616666D01*
X88050000Y-98616666D02*
X88516666Y-98616666D01*
X87783333Y-98783333D02*
X88283333Y-98950000D01*
X88283333Y-98516666D01*
X98180000Y-99433333D02*
X98213333Y-99333333D01*
X98246666Y-99300000D01*
X98313333Y-99266666D01*
X98413333Y-99266666D01*
X98480000Y-99300000D01*
X98513333Y-99333333D01*
X98546666Y-99400000D01*
X98546666Y-99666666D01*
X97846666Y-99666666D01*
X97846666Y-99433333D01*
X97880000Y-99366666D01*
X97913333Y-99333333D01*
X97980000Y-99300000D01*
X98046666Y-99300000D01*
X98113333Y-99333333D01*
X98146666Y-99366666D01*
X98180000Y-99433333D01*
X98180000Y-99666666D01*
X97846666Y-99033333D02*
X97846666Y-98566666D01*
X98546666Y-98866666D01*
X100420000Y-99583333D02*
X100386666Y-99650000D01*
X100386666Y-99750000D01*
X100420000Y-99850000D01*
X100486666Y-99916666D01*
X100553333Y-99950000D01*
X100686666Y-99983333D01*
X100786666Y-99983333D01*
X100920000Y-99950000D01*
X100986666Y-99916666D01*
X101053333Y-99850000D01*
X101086666Y-99750000D01*
X101086666Y-99683333D01*
X101053333Y-99583333D01*
X101020000Y-99550000D01*
X100786666Y-99550000D01*
X100786666Y-99683333D01*
X101086666Y-99250000D02*
X100386666Y-99250000D01*
X101086666Y-98850000D01*
X100386666Y-98850000D01*
X101086666Y-98516666D02*
X100386666Y-98516666D01*
X100386666Y-98350000D01*
X100420000Y-98250000D01*
X100486666Y-98183333D01*
X100553333Y-98150000D01*
X100686666Y-98116666D01*
X100786666Y-98116666D01*
X100920000Y-98150000D01*
X100986666Y-98183333D01*
X101053333Y-98250000D01*
X101086666Y-98350000D01*
X101086666Y-98516666D01*
X104376666Y-94950000D02*
X104310000Y-94916666D01*
X104210000Y-94916666D01*
X104110000Y-94950000D01*
X104043333Y-95016666D01*
X104010000Y-95083333D01*
X103976666Y-95216666D01*
X103976666Y-95316666D01*
X104010000Y-95450000D01*
X104043333Y-95516666D01*
X104110000Y-95583333D01*
X104210000Y-95616666D01*
X104276666Y-95616666D01*
X104376666Y-95583333D01*
X104410000Y-95550000D01*
X104410000Y-95316666D01*
X104276666Y-95316666D01*
X104710000Y-95616666D02*
X104710000Y-94916666D01*
X105110000Y-95616666D01*
X105110000Y-94916666D01*
X105443333Y-95616666D02*
X105443333Y-94916666D01*
X105610000Y-94916666D01*
X105710000Y-94950000D01*
X105776666Y-95016666D01*
X105810000Y-95083333D01*
X105843333Y-95216666D01*
X105843333Y-95316666D01*
X105810000Y-95450000D01*
X105776666Y-95516666D01*
X105710000Y-95583333D01*
X105610000Y-95616666D01*
X105443333Y-95616666D01*
X85656666Y-87786666D02*
X85990000Y-87786666D01*
X85590000Y-87986666D02*
X85823333Y-87286666D01*
X86056666Y-87986666D01*
X86656666Y-87986666D02*
X86256666Y-87986666D01*
X86456666Y-87986666D02*
X86456666Y-87286666D01*
X86390000Y-87386666D01*
X86323333Y-87453333D01*
X86256666Y-87486666D01*
X87090000Y-87286666D02*
X87156666Y-87286666D01*
X87223333Y-87320000D01*
X87256666Y-87353333D01*
X87290000Y-87420000D01*
X87323333Y-87553333D01*
X87323333Y-87720000D01*
X87290000Y-87853333D01*
X87256666Y-87920000D01*
X87223333Y-87953333D01*
X87156666Y-87986666D01*
X87090000Y-87986666D01*
X87023333Y-87953333D01*
X86990000Y-87920000D01*
X86956666Y-87853333D01*
X86923333Y-87720000D01*
X86923333Y-87553333D01*
X86956666Y-87420000D01*
X86990000Y-87353333D01*
X87023333Y-87320000D01*
X87090000Y-87286666D01*
X90517857Y-56939285D02*
X90160714Y-56939285D01*
X90160714Y-56189285D01*
X90767857Y-56546428D02*
X91017857Y-56546428D01*
X91125000Y-56939285D02*
X90767857Y-56939285D01*
X90767857Y-56189285D01*
X91125000Y-56189285D01*
X91446428Y-56939285D02*
X91446428Y-56189285D01*
X91625000Y-56189285D01*
X91732142Y-56225000D01*
X91803571Y-56296428D01*
X91839285Y-56367857D01*
X91875000Y-56510714D01*
X91875000Y-56617857D01*
X91839285Y-56760714D01*
X91803571Y-56832142D01*
X91732142Y-56903571D01*
X91625000Y-56939285D01*
X91446428Y-56939285D01*
X90560000Y-99483333D02*
X90593333Y-99383333D01*
X90626666Y-99350000D01*
X90693333Y-99316666D01*
X90793333Y-99316666D01*
X90860000Y-99350000D01*
X90893333Y-99383333D01*
X90926666Y-99450000D01*
X90926666Y-99716666D01*
X90226666Y-99716666D01*
X90226666Y-99483333D01*
X90260000Y-99416666D01*
X90293333Y-99383333D01*
X90360000Y-99350000D01*
X90426666Y-99350000D01*
X90493333Y-99383333D01*
X90526666Y-99416666D01*
X90560000Y-99483333D01*
X90560000Y-99716666D01*
X90226666Y-98683333D02*
X90226666Y-99016666D01*
X90560000Y-99050000D01*
X90526666Y-99016666D01*
X90493333Y-98950000D01*
X90493333Y-98783333D01*
X90526666Y-98716666D01*
X90560000Y-98683333D01*
X90626666Y-98650000D01*
X90793333Y-98650000D01*
X90860000Y-98683333D01*
X90893333Y-98716666D01*
X90926666Y-98783333D01*
X90926666Y-98950000D01*
X90893333Y-99016666D01*
X90860000Y-99050000D01*
X88683333Y-90416666D02*
X88683333Y-89716666D01*
X88850000Y-89716666D01*
X88950000Y-89750000D01*
X89016666Y-89816666D01*
X89050000Y-89883333D01*
X89083333Y-90016666D01*
X89083333Y-90116666D01*
X89050000Y-90250000D01*
X89016666Y-90316666D01*
X88950000Y-90383333D01*
X88850000Y-90416666D01*
X88683333Y-90416666D01*
X89350000Y-89783333D02*
X89383333Y-89750000D01*
X89450000Y-89716666D01*
X89616666Y-89716666D01*
X89683333Y-89750000D01*
X89716666Y-89783333D01*
X89750000Y-89850000D01*
X89750000Y-89916666D01*
X89716666Y-90016666D01*
X89316666Y-90416666D01*
X89750000Y-90416666D01*
X103816666Y-61896666D02*
X104250000Y-61896666D01*
X104016666Y-62163333D01*
X104116666Y-62163333D01*
X104183333Y-62196666D01*
X104216666Y-62230000D01*
X104250000Y-62296666D01*
X104250000Y-62463333D01*
X104216666Y-62530000D01*
X104183333Y-62563333D01*
X104116666Y-62596666D01*
X103916666Y-62596666D01*
X103850000Y-62563333D01*
X103816666Y-62530000D01*
X104550000Y-62530000D02*
X104583333Y-62563333D01*
X104550000Y-62596666D01*
X104516666Y-62563333D01*
X104550000Y-62530000D01*
X104550000Y-62596666D01*
X104816666Y-61896666D02*
X105250000Y-61896666D01*
X105016666Y-62163333D01*
X105116666Y-62163333D01*
X105183333Y-62196666D01*
X105216666Y-62230000D01*
X105250000Y-62296666D01*
X105250000Y-62463333D01*
X105216666Y-62530000D01*
X105183333Y-62563333D01*
X105116666Y-62596666D01*
X104916666Y-62596666D01*
X104850000Y-62563333D01*
X104816666Y-62530000D01*
X105450000Y-61896666D02*
X105683333Y-62596666D01*
X105916666Y-61896666D01*
X88700000Y-67416666D02*
X89033333Y-67416666D01*
X88633333Y-67616666D02*
X88866666Y-66916666D01*
X89100000Y-67616666D01*
X89266666Y-66916666D02*
X89733333Y-66916666D01*
X89433333Y-67616666D01*
X85963333Y-59680000D02*
X86063333Y-59713333D01*
X86096666Y-59746666D01*
X86130000Y-59813333D01*
X86130000Y-59913333D01*
X86096666Y-59980000D01*
X86063333Y-60013333D01*
X85996666Y-60046666D01*
X85730000Y-60046666D01*
X85730000Y-59346666D01*
X85963333Y-59346666D01*
X86030000Y-59380000D01*
X86063333Y-59413333D01*
X86096666Y-59480000D01*
X86096666Y-59546666D01*
X86063333Y-59613333D01*
X86030000Y-59646666D01*
X85963333Y-59680000D01*
X85730000Y-59680000D01*
X86796666Y-60046666D02*
X86396666Y-60046666D01*
X86596666Y-60046666D02*
X86596666Y-59346666D01*
X86530000Y-59446666D01*
X86463333Y-59513333D01*
X86396666Y-59546666D01*
X87030000Y-59346666D02*
X87463333Y-59346666D01*
X87230000Y-59613333D01*
X87330000Y-59613333D01*
X87396666Y-59646666D01*
X87430000Y-59680000D01*
X87463333Y-59746666D01*
X87463333Y-59913333D01*
X87430000Y-59980000D01*
X87396666Y-60013333D01*
X87330000Y-60046666D01*
X87130000Y-60046666D01*
X87063333Y-60013333D01*
X87030000Y-59980000D01*
X85840000Y-85266666D02*
X86173333Y-85266666D01*
X85773333Y-85466666D02*
X86006666Y-84766666D01*
X86240000Y-85466666D01*
X86506666Y-85466666D02*
X86640000Y-85466666D01*
X86706666Y-85433333D01*
X86740000Y-85400000D01*
X86806666Y-85300000D01*
X86840000Y-85166666D01*
X86840000Y-84900000D01*
X86806666Y-84833333D01*
X86773333Y-84800000D01*
X86706666Y-84766666D01*
X86573333Y-84766666D01*
X86506666Y-84800000D01*
X86473333Y-84833333D01*
X86440000Y-84900000D01*
X86440000Y-85066666D01*
X86473333Y-85133333D01*
X86506666Y-85166666D01*
X86573333Y-85200000D01*
X86706666Y-85200000D01*
X86773333Y-85166666D01*
X86806666Y-85133333D01*
X86840000Y-85066666D01*
X104400000Y-98080000D02*
X104366666Y-98113333D01*
X104266666Y-98146666D01*
X104200000Y-98146666D01*
X104100000Y-98113333D01*
X104033333Y-98046666D01*
X104000000Y-97980000D01*
X103966666Y-97846666D01*
X103966666Y-97746666D01*
X104000000Y-97613333D01*
X104033333Y-97546666D01*
X104100000Y-97480000D01*
X104200000Y-97446666D01*
X104266666Y-97446666D01*
X104366666Y-97480000D01*
X104400000Y-97513333D01*
X105066666Y-98146666D02*
X104666666Y-98146666D01*
X104866666Y-98146666D02*
X104866666Y-97446666D01*
X104800000Y-97546666D01*
X104733333Y-97613333D01*
X104666666Y-97646666D01*
X105300000Y-97446666D02*
X105733333Y-97446666D01*
X105500000Y-97713333D01*
X105600000Y-97713333D01*
X105666666Y-97746666D01*
X105700000Y-97780000D01*
X105733333Y-97846666D01*
X105733333Y-98013333D01*
X105700000Y-98080000D01*
X105666666Y-98113333D01*
X105600000Y-98146666D01*
X105400000Y-98146666D01*
X105333333Y-98113333D01*
X105300000Y-98080000D01*
X88916666Y-92650000D02*
X89016666Y-92683333D01*
X89050000Y-92716666D01*
X89083333Y-92783333D01*
X89083333Y-92883333D01*
X89050000Y-92950000D01*
X89016666Y-92983333D01*
X88950000Y-93016666D01*
X88683333Y-93016666D01*
X88683333Y-92316666D01*
X88916666Y-92316666D01*
X88983333Y-92350000D01*
X89016666Y-92383333D01*
X89050000Y-92450000D01*
X89050000Y-92516666D01*
X89016666Y-92583333D01*
X88983333Y-92616666D01*
X88916666Y-92650000D01*
X88683333Y-92650000D01*
X89316666Y-92316666D02*
X89750000Y-92316666D01*
X89516666Y-92583333D01*
X89616666Y-92583333D01*
X89683333Y-92616666D01*
X89716666Y-92650000D01*
X89750000Y-92716666D01*
X89750000Y-92883333D01*
X89716666Y-92950000D01*
X89683333Y-92983333D01*
X89616666Y-93016666D01*
X89416666Y-93016666D01*
X89350000Y-92983333D01*
X89316666Y-92950000D01*
X104183333Y-51726666D02*
X104416666Y-52426666D01*
X104650000Y-51726666D01*
X104883333Y-52426666D02*
X104883333Y-51726666D01*
X105216666Y-52426666D02*
X105216666Y-51726666D01*
X105616666Y-52426666D01*
X105616666Y-51726666D01*
X102200000Y-97183333D02*
X102233333Y-97083333D01*
X102266666Y-97050000D01*
X102333333Y-97016666D01*
X102433333Y-97016666D01*
X102500000Y-97050000D01*
X102533333Y-97083333D01*
X102566666Y-97150000D01*
X102566666Y-97416666D01*
X101866666Y-97416666D01*
X101866666Y-97183333D01*
X101900000Y-97116666D01*
X101933333Y-97083333D01*
X102000000Y-97050000D01*
X102066666Y-97050000D01*
X102133333Y-97083333D01*
X102166666Y-97116666D01*
X102200000Y-97183333D01*
X102200000Y-97416666D01*
X102166666Y-96616666D02*
X102133333Y-96683333D01*
X102100000Y-96716666D01*
X102033333Y-96750000D01*
X102000000Y-96750000D01*
X101933333Y-96716666D01*
X101900000Y-96683333D01*
X101866666Y-96616666D01*
X101866666Y-96483333D01*
X101900000Y-96416666D01*
X101933333Y-96383333D01*
X102000000Y-96350000D01*
X102033333Y-96350000D01*
X102100000Y-96383333D01*
X102133333Y-96416666D01*
X102166666Y-96483333D01*
X102166666Y-96616666D01*
X102200000Y-96683333D01*
X102233333Y-96716666D01*
X102300000Y-96750000D01*
X102433333Y-96750000D01*
X102500000Y-96716666D01*
X102533333Y-96683333D01*
X102566666Y-96616666D01*
X102566666Y-96483333D01*
X102533333Y-96416666D01*
X102500000Y-96383333D01*
X102433333Y-96350000D01*
X102300000Y-96350000D01*
X102233333Y-96383333D01*
X102200000Y-96416666D01*
X102166666Y-96483333D01*
X86263333Y-77760000D02*
X86230000Y-77793333D01*
X86130000Y-77826666D01*
X86063333Y-77826666D01*
X85963333Y-77793333D01*
X85896666Y-77726666D01*
X85863333Y-77660000D01*
X85830000Y-77526666D01*
X85830000Y-77426666D01*
X85863333Y-77293333D01*
X85896666Y-77226666D01*
X85963333Y-77160000D01*
X86063333Y-77126666D01*
X86130000Y-77126666D01*
X86230000Y-77160000D01*
X86263333Y-77193333D01*
X86596666Y-77826666D02*
X86730000Y-77826666D01*
X86796666Y-77793333D01*
X86830000Y-77760000D01*
X86896666Y-77660000D01*
X86930000Y-77526666D01*
X86930000Y-77260000D01*
X86896666Y-77193333D01*
X86863333Y-77160000D01*
X86796666Y-77126666D01*
X86663333Y-77126666D01*
X86596666Y-77160000D01*
X86563333Y-77193333D01*
X86530000Y-77260000D01*
X86530000Y-77426666D01*
X86563333Y-77493333D01*
X86596666Y-77526666D01*
X86663333Y-77560000D01*
X86796666Y-77560000D01*
X86863333Y-77526666D01*
X86896666Y-77493333D01*
X86930000Y-77426666D01*
X104833333Y-85400000D02*
X104800000Y-85433333D01*
X104700000Y-85466666D01*
X104633333Y-85466666D01*
X104533333Y-85433333D01*
X104466666Y-85366666D01*
X104433333Y-85300000D01*
X104400000Y-85166666D01*
X104400000Y-85066666D01*
X104433333Y-84933333D01*
X104466666Y-84866666D01*
X104533333Y-84800000D01*
X104633333Y-84766666D01*
X104700000Y-84766666D01*
X104800000Y-84800000D01*
X104833333Y-84833333D01*
X105066666Y-84766666D02*
X105500000Y-84766666D01*
X105266666Y-85033333D01*
X105366666Y-85033333D01*
X105433333Y-85066666D01*
X105466666Y-85100000D01*
X105500000Y-85166666D01*
X105500000Y-85333333D01*
X105466666Y-85400000D01*
X105433333Y-85433333D01*
X105366666Y-85466666D01*
X105166666Y-85466666D01*
X105100000Y-85433333D01*
X105066666Y-85400000D01*
X95640000Y-99433333D02*
X95673333Y-99333333D01*
X95706666Y-99300000D01*
X95773333Y-99266666D01*
X95873333Y-99266666D01*
X95940000Y-99300000D01*
X95973333Y-99333333D01*
X96006666Y-99400000D01*
X96006666Y-99666666D01*
X95306666Y-99666666D01*
X95306666Y-99433333D01*
X95340000Y-99366666D01*
X95373333Y-99333333D01*
X95440000Y-99300000D01*
X95506666Y-99300000D01*
X95573333Y-99333333D01*
X95606666Y-99366666D01*
X95640000Y-99433333D01*
X95640000Y-99666666D01*
X95306666Y-98666666D02*
X95306666Y-98800000D01*
X95340000Y-98866666D01*
X95373333Y-98900000D01*
X95473333Y-98966666D01*
X95606666Y-99000000D01*
X95873333Y-99000000D01*
X95940000Y-98966666D01*
X95973333Y-98933333D01*
X96006666Y-98866666D01*
X96006666Y-98733333D01*
X95973333Y-98666666D01*
X95940000Y-98633333D01*
X95873333Y-98600000D01*
X95706666Y-98600000D01*
X95640000Y-98633333D01*
X95606666Y-98666666D01*
X95573333Y-98733333D01*
X95573333Y-98866666D01*
X95606666Y-98933333D01*
X95640000Y-98966666D01*
X95706666Y-99000000D01*
X86003333Y-54600000D02*
X86103333Y-54633333D01*
X86136666Y-54666666D01*
X86170000Y-54733333D01*
X86170000Y-54833333D01*
X86136666Y-54900000D01*
X86103333Y-54933333D01*
X86036666Y-54966666D01*
X85770000Y-54966666D01*
X85770000Y-54266666D01*
X86003333Y-54266666D01*
X86070000Y-54300000D01*
X86103333Y-54333333D01*
X86136666Y-54400000D01*
X86136666Y-54466666D01*
X86103333Y-54533333D01*
X86070000Y-54566666D01*
X86003333Y-54600000D01*
X85770000Y-54600000D01*
X86836666Y-54966666D02*
X86436666Y-54966666D01*
X86636666Y-54966666D02*
X86636666Y-54266666D01*
X86570000Y-54366666D01*
X86503333Y-54433333D01*
X86436666Y-54466666D01*
X87103333Y-54333333D02*
X87136666Y-54300000D01*
X87203333Y-54266666D01*
X87370000Y-54266666D01*
X87436666Y-54300000D01*
X87470000Y-54333333D01*
X87503333Y-54400000D01*
X87503333Y-54466666D01*
X87470000Y-54566666D01*
X87070000Y-54966666D01*
X87503333Y-54966666D01*
X88583333Y-59650000D02*
X88683333Y-59683333D01*
X88716666Y-59716666D01*
X88750000Y-59783333D01*
X88750000Y-59883333D01*
X88716666Y-59950000D01*
X88683333Y-59983333D01*
X88616666Y-60016666D01*
X88350000Y-60016666D01*
X88350000Y-59316666D01*
X88583333Y-59316666D01*
X88650000Y-59350000D01*
X88683333Y-59383333D01*
X88716666Y-59450000D01*
X88716666Y-59516666D01*
X88683333Y-59583333D01*
X88650000Y-59616666D01*
X88583333Y-59650000D01*
X88350000Y-59650000D01*
X89416666Y-60016666D02*
X89016666Y-60016666D01*
X89216666Y-60016666D02*
X89216666Y-59316666D01*
X89150000Y-59416666D01*
X89083333Y-59483333D01*
X89016666Y-59516666D01*
X89850000Y-59316666D02*
X89916666Y-59316666D01*
X89983333Y-59350000D01*
X90016666Y-59383333D01*
X90050000Y-59450000D01*
X90083333Y-59583333D01*
X90083333Y-59750000D01*
X90050000Y-59883333D01*
X90016666Y-59950000D01*
X89983333Y-59983333D01*
X89916666Y-60016666D01*
X89850000Y-60016666D01*
X89783333Y-59983333D01*
X89750000Y-59950000D01*
X89716666Y-59883333D01*
X89683333Y-59750000D01*
X89683333Y-59583333D01*
X89716666Y-59450000D01*
X89750000Y-59383333D01*
X89783333Y-59350000D01*
X89850000Y-59316666D01*
X104560000Y-77626666D02*
X104893333Y-77626666D01*
X104493333Y-77826666D02*
X104726666Y-77126666D01*
X104960000Y-77826666D01*
X105560000Y-77826666D02*
X105160000Y-77826666D01*
X105360000Y-77826666D02*
X105360000Y-77126666D01*
X105293333Y-77226666D01*
X105226666Y-77293333D01*
X105160000Y-77326666D01*
X104350000Y-67466666D02*
X104683333Y-67466666D01*
X104283333Y-67666666D02*
X104516666Y-66966666D01*
X104750000Y-67666666D01*
X105283333Y-66966666D02*
X105150000Y-66966666D01*
X105083333Y-67000000D01*
X105050000Y-67033333D01*
X104983333Y-67133333D01*
X104950000Y-67266666D01*
X104950000Y-67533333D01*
X104983333Y-67600000D01*
X105016666Y-67633333D01*
X105083333Y-67666666D01*
X105216666Y-67666666D01*
X105283333Y-67633333D01*
X105316666Y-67600000D01*
X105350000Y-67533333D01*
X105350000Y-67366666D01*
X105316666Y-67300000D01*
X105283333Y-67266666D01*
X105216666Y-67233333D01*
X105083333Y-67233333D01*
X105016666Y-67266666D01*
X104983333Y-67300000D01*
X104950000Y-67366666D01*
X104366666Y-69540000D02*
X104300000Y-69506666D01*
X104200000Y-69506666D01*
X104100000Y-69540000D01*
X104033333Y-69606666D01*
X104000000Y-69673333D01*
X103966666Y-69806666D01*
X103966666Y-69906666D01*
X104000000Y-70040000D01*
X104033333Y-70106666D01*
X104100000Y-70173333D01*
X104200000Y-70206666D01*
X104266666Y-70206666D01*
X104366666Y-70173333D01*
X104400000Y-70140000D01*
X104400000Y-69906666D01*
X104266666Y-69906666D01*
X104700000Y-70206666D02*
X104700000Y-69506666D01*
X105100000Y-70206666D01*
X105100000Y-69506666D01*
X105433333Y-70206666D02*
X105433333Y-69506666D01*
X105600000Y-69506666D01*
X105700000Y-69540000D01*
X105766666Y-69606666D01*
X105800000Y-69673333D01*
X105833333Y-69806666D01*
X105833333Y-69906666D01*
X105800000Y-70040000D01*
X105766666Y-70106666D01*
X105700000Y-70173333D01*
X105600000Y-70206666D01*
X105433333Y-70206666D01*
X104733333Y-93000000D02*
X104700000Y-93033333D01*
X104600000Y-93066666D01*
X104533333Y-93066666D01*
X104433333Y-93033333D01*
X104366666Y-92966666D01*
X104333333Y-92900000D01*
X104300000Y-92766666D01*
X104300000Y-92666666D01*
X104333333Y-92533333D01*
X104366666Y-92466666D01*
X104433333Y-92400000D01*
X104533333Y-92366666D01*
X104600000Y-92366666D01*
X104700000Y-92400000D01*
X104733333Y-92433333D01*
X105166666Y-92366666D02*
X105233333Y-92366666D01*
X105300000Y-92400000D01*
X105333333Y-92433333D01*
X105366666Y-92500000D01*
X105400000Y-92633333D01*
X105400000Y-92800000D01*
X105366666Y-92933333D01*
X105333333Y-93000000D01*
X105300000Y-93033333D01*
X105233333Y-93066666D01*
X105166666Y-93066666D01*
X105100000Y-93033333D01*
X105066666Y-93000000D01*
X105033333Y-92933333D01*
X105000000Y-92800000D01*
X105000000Y-92633333D01*
X105033333Y-92500000D01*
X105066666Y-92433333D01*
X105100000Y-92400000D01*
X105166666Y-92366666D01*
G36*
X93137560Y-94634842D02*
G01*
X93037475Y-94581345D01*
X92984842Y-94538150D01*
X93359231Y-94538150D01*
X93468769Y-94586569D01*
X93554097Y-94606214D01*
X93664031Y-94612763D01*
X93775421Y-94604384D01*
X93866173Y-94579249D01*
X93936287Y-94537356D01*
X94003558Y-94446273D01*
X94025981Y-94323838D01*
X94019234Y-94249820D01*
X93998994Y-94189694D01*
X93929937Y-94100794D01*
X93837862Y-94043644D01*
X93741819Y-94004750D01*
X93680700Y-93980937D01*
X93625137Y-93951569D01*
X93584656Y-93913469D01*
X93568781Y-93863462D01*
X93586067Y-93800844D01*
X93637926Y-93763274D01*
X93724356Y-93750750D01*
X93836275Y-93766625D01*
X93924381Y-93804725D01*
X93937014Y-93771387D01*
X94129169Y-93771387D01*
X94387931Y-93771387D01*
X94387931Y-94592125D01*
X94584781Y-94592125D01*
X94995944Y-94592125D01*
X95613481Y-94592125D01*
X95762706Y-94592125D01*
X96386594Y-94592125D01*
X96543756Y-94592125D01*
X96719969Y-94592125D01*
X96719969Y-93939662D01*
X96778971Y-94048583D01*
X96835327Y-94157326D01*
X96889038Y-94265894D01*
X96940102Y-94374461D01*
X96988521Y-94483205D01*
X97034294Y-94592125D01*
X97191456Y-94592125D01*
X97335919Y-94592125D01*
X97531181Y-94592125D01*
X97531181Y-94142863D01*
X97614525Y-94232556D01*
X97657189Y-94287722D01*
X97697869Y-94346856D01*
X97735770Y-94408769D01*
X97770100Y-94472269D01*
X97820106Y-94592125D01*
X98040769Y-94592125D01*
X98014972Y-94521283D01*
X97982031Y-94448456D01*
X97943336Y-94375431D01*
X97900275Y-94303994D01*
X97853642Y-94235533D01*
X97804231Y-94171438D01*
X97753828Y-94113097D01*
X97704219Y-94061900D01*
X97752439Y-94003559D01*
X97798675Y-93942837D01*
X97842530Y-93881520D01*
X97883606Y-93821394D01*
X97921111Y-93763053D01*
X97954250Y-93707094D01*
X98007431Y-93609462D01*
X97786769Y-93609462D01*
X97739144Y-93704712D01*
X97676438Y-93811075D01*
X97604206Y-93919025D01*
X97531181Y-94017450D01*
X97531181Y-93609462D01*
X97335919Y-93609462D01*
X97335919Y-94592125D01*
X97191456Y-94592125D01*
X97191456Y-93609462D01*
X97015244Y-93609462D01*
X97015244Y-94214300D01*
X96987264Y-94152388D01*
X96954125Y-94080950D01*
X96916819Y-94003559D01*
X96876338Y-93923787D01*
X96833673Y-93842627D01*
X96789819Y-93761069D01*
X96745369Y-93682289D01*
X96700919Y-93609462D01*
X96543756Y-93609462D01*
X96543756Y-94592125D01*
X96386594Y-94592125D01*
X96386594Y-94430200D01*
X96173869Y-94430200D01*
X96173869Y-93771387D01*
X96386594Y-93771387D01*
X96386594Y-93609462D01*
X95762706Y-93609462D01*
X95762706Y-93771387D01*
X95977019Y-93771387D01*
X95977019Y-94430200D01*
X95762706Y-94430200D01*
X95762706Y-94592125D01*
X95613481Y-94592125D01*
X95613481Y-94430200D01*
X95192794Y-94430200D01*
X95192794Y-93609462D01*
X94995944Y-93609462D01*
X94995944Y-94592125D01*
X94584781Y-94592125D01*
X94584781Y-93771387D01*
X94843544Y-93771387D01*
X94843544Y-93609462D01*
X94129169Y-93609462D01*
X94129169Y-93771387D01*
X93937014Y-93771387D01*
X93981531Y-93653912D01*
X93868025Y-93607875D01*
X93794802Y-93592397D01*
X93710069Y-93587237D01*
X93612790Y-93595881D01*
X93530505Y-93621810D01*
X93463212Y-93665025D01*
X93395942Y-93757894D01*
X93373519Y-93880925D01*
X93398919Y-93997606D01*
X93463212Y-94076187D01*
X93549731Y-94128575D01*
X93641806Y-94165088D01*
X93708481Y-94192869D01*
X93768806Y-94226206D01*
X93813256Y-94268275D01*
X93830719Y-94322250D01*
X93823575Y-94369081D01*
X93797381Y-94410356D01*
X93745787Y-94438931D01*
X93664031Y-94449250D01*
X93584855Y-94443694D01*
X93518775Y-94427025D01*
X93416381Y-94379400D01*
X93359231Y-94538150D01*
X92984842Y-94538150D01*
X92949749Y-94509350D01*
X92877754Y-94421624D01*
X92824257Y-94321539D01*
X92791314Y-94212939D01*
X92780191Y-94100000D01*
X92791314Y-93987061D01*
X92824257Y-93878461D01*
X92877754Y-93778376D01*
X92949749Y-93690650D01*
X93037475Y-93618655D01*
X93137560Y-93565158D01*
X93246160Y-93532215D01*
X93359099Y-93521092D01*
X98040901Y-93521092D01*
X98153840Y-93532215D01*
X98262440Y-93565158D01*
X98362525Y-93618655D01*
X98450251Y-93690650D01*
X98522246Y-93778376D01*
X98575743Y-93878461D01*
X98608686Y-93987061D01*
X98619809Y-94100000D01*
X98608686Y-94212939D01*
X98575743Y-94321539D01*
X98522246Y-94421624D01*
X98450251Y-94509350D01*
X98362525Y-94581345D01*
X98262440Y-94634842D01*
X98153840Y-94667785D01*
X98040901Y-94678908D01*
X93359099Y-94678908D01*
X93246160Y-94667785D01*
X93137560Y-94634842D01*
G37*
G36*
X91432215Y-87759010D02*
G01*
X91465158Y-87650410D01*
X91518655Y-87550325D01*
X91590650Y-87462599D01*
X91678376Y-87390604D01*
X91778461Y-87337107D01*
X91887061Y-87304164D01*
X92000000Y-87293041D01*
X92112939Y-87304164D01*
X92221539Y-87337107D01*
X92321624Y-87390604D01*
X92409350Y-87462599D01*
X92481345Y-87550325D01*
X92534842Y-87650410D01*
X92567785Y-87759010D01*
X92578908Y-87871949D01*
X92578908Y-90128051D01*
X92567785Y-90240990D01*
X92534842Y-90349590D01*
X92481345Y-90449675D01*
X92409350Y-90537401D01*
X92321624Y-90609396D01*
X92221539Y-90662893D01*
X92112939Y-90695836D01*
X92000000Y-90706959D01*
X91887061Y-90695836D01*
X91778461Y-90662893D01*
X91678376Y-90609396D01*
X91590650Y-90537401D01*
X91518655Y-90449675D01*
X91465158Y-90349590D01*
X91432215Y-90240990D01*
X91421092Y-90128051D01*
X91421092Y-89873919D01*
X91498350Y-89873919D01*
X91499938Y-89929481D01*
X91503906Y-89996156D01*
X91511844Y-90065212D01*
X91523750Y-90127919D01*
X92492125Y-90127919D01*
X92492125Y-89932656D01*
X92130175Y-89932656D01*
X92130175Y-89831056D01*
X92220067Y-89777280D01*
X92308769Y-89727075D01*
X92398661Y-89681633D01*
X92492125Y-89642144D01*
X92492125Y-89437356D01*
X92388144Y-89482600D01*
X92278606Y-89537369D01*
X92173831Y-89596106D01*
X92082550Y-89653256D01*
X92037703Y-89583803D01*
X91976187Y-89537369D01*
X91902369Y-89511175D01*
X91820612Y-89502444D01*
X91743420Y-89508992D01*
X91676944Y-89528637D01*
X91576137Y-89604044D01*
X91541609Y-89658019D01*
X91517400Y-89721519D01*
X91503112Y-89793750D01*
X91498350Y-89873919D01*
X91421092Y-89873919D01*
X91421092Y-89005556D01*
X91487237Y-89005556D01*
X91495881Y-89102835D01*
X91521810Y-89185120D01*
X91565025Y-89252412D01*
X91657894Y-89319683D01*
X91780925Y-89342106D01*
X91897606Y-89316706D01*
X91976187Y-89252412D01*
X92028575Y-89165894D01*
X92065088Y-89073819D01*
X92092869Y-89007144D01*
X92126206Y-88946819D01*
X92168275Y-88902369D01*
X92222250Y-88884906D01*
X92269081Y-88892050D01*
X92310356Y-88918244D01*
X92338931Y-88969837D01*
X92349250Y-89051594D01*
X92343694Y-89130770D01*
X92327025Y-89196850D01*
X92279400Y-89299244D01*
X92438150Y-89356394D01*
X92486569Y-89246856D01*
X92506214Y-89161528D01*
X92512763Y-89051594D01*
X92504384Y-88940204D01*
X92479249Y-88849452D01*
X92437356Y-88779337D01*
X92346273Y-88712067D01*
X92223838Y-88689644D01*
X92149820Y-88696391D01*
X92089694Y-88716631D01*
X92000794Y-88785687D01*
X91943644Y-88877762D01*
X91904750Y-88973806D01*
X91880937Y-89034925D01*
X91851569Y-89090487D01*
X91813469Y-89130969D01*
X91763462Y-89146844D01*
X91700844Y-89129558D01*
X91663274Y-89077699D01*
X91650750Y-88991269D01*
X91666625Y-88879350D01*
X91704725Y-88791244D01*
X91553912Y-88734094D01*
X91507875Y-88847600D01*
X91492397Y-88920823D01*
X91487237Y-89005556D01*
X91421092Y-89005556D01*
X91421092Y-88586456D01*
X91509462Y-88586456D01*
X91671387Y-88586456D01*
X91671387Y-88327694D01*
X92492125Y-88327694D01*
X92492125Y-88130844D01*
X91671387Y-88130844D01*
X91671387Y-87872081D01*
X91509462Y-87872081D01*
X91509462Y-88586456D01*
X91421092Y-88586456D01*
X91421092Y-87871949D01*
X91432215Y-87759010D01*
G37*
G36*
X91929356Y-89745331D02*
G01*
X91958527Y-89803672D01*
X91968250Y-89889794D01*
X91968250Y-89932656D01*
X91672975Y-89932656D01*
X91669006Y-89900906D01*
X91668212Y-89873919D01*
X91677341Y-89803672D01*
X91704725Y-89748506D01*
X91751556Y-89712787D01*
X91819025Y-89700881D01*
X91929356Y-89745331D01*
G37*
G36*
X91432215Y-83262135D02*
G01*
X91465158Y-83153535D01*
X91518655Y-83053450D01*
X91590650Y-82965724D01*
X91678376Y-82893729D01*
X91778461Y-82840232D01*
X91887061Y-82807289D01*
X92000000Y-82796166D01*
X92112939Y-82807289D01*
X92221539Y-82840232D01*
X92321624Y-82893729D01*
X92409350Y-82965724D01*
X92481345Y-83053450D01*
X92534842Y-83153535D01*
X92567785Y-83262135D01*
X92578908Y-83375074D01*
X92578908Y-86424926D01*
X92567785Y-86537865D01*
X92534842Y-86646465D01*
X92481345Y-86746550D01*
X92409350Y-86834276D01*
X92321624Y-86906271D01*
X92221539Y-86959768D01*
X92112939Y-86992711D01*
X92000000Y-87003834D01*
X91887061Y-86992711D01*
X91778461Y-86959768D01*
X91678376Y-86906271D01*
X91590650Y-86834276D01*
X91518655Y-86746550D01*
X91465158Y-86646465D01*
X91432215Y-86537865D01*
X91421092Y-86424926D01*
X91421092Y-86170794D01*
X91498350Y-86170794D01*
X91505494Y-86302556D01*
X91522162Y-86424794D01*
X92476250Y-86424794D01*
X92488752Y-86356134D01*
X92497681Y-86286681D01*
X92503039Y-86218022D01*
X92504825Y-86151744D01*
X92501055Y-86073361D01*
X92489744Y-86000137D01*
X92469503Y-85934256D01*
X92438944Y-85877900D01*
X92343694Y-85796144D01*
X92276820Y-85773522D01*
X92195263Y-85765981D01*
X92128588Y-85774911D01*
X92065088Y-85801700D01*
X92009525Y-85853492D01*
X91966662Y-85937431D01*
X91880937Y-85846150D01*
X91822994Y-85820552D01*
X91757112Y-85812019D01*
X91665037Y-85826306D01*
X91581694Y-85880281D01*
X91521369Y-85989819D01*
X91504105Y-86069987D01*
X91498350Y-86170794D01*
X91421092Y-86170794D01*
X91421092Y-85319894D01*
X91487237Y-85319894D01*
X91501613Y-85422905D01*
X91544740Y-85509688D01*
X91616619Y-85580244D01*
X91689098Y-85621221D01*
X91777155Y-85650491D01*
X91880789Y-85668052D01*
X92000000Y-85673906D01*
X92119211Y-85668201D01*
X92222845Y-85651086D01*
X92310902Y-85622561D01*
X92383381Y-85582625D01*
X92455260Y-85512687D01*
X92498387Y-85424581D01*
X92512763Y-85318306D01*
X92498387Y-85214590D01*
X92455260Y-85127806D01*
X92383381Y-85057956D01*
X92310902Y-85017673D01*
X92222845Y-84988900D01*
X92119211Y-84971636D01*
X92000000Y-84965881D01*
X91880789Y-84971537D01*
X91777155Y-84988503D01*
X91689098Y-85016780D01*
X91616619Y-85056369D01*
X91544740Y-85125866D01*
X91501613Y-85213708D01*
X91487237Y-85319894D01*
X91421092Y-85319894D01*
X91421092Y-84526144D01*
X91487237Y-84526144D01*
X91501613Y-84629155D01*
X91544740Y-84715938D01*
X91616619Y-84786494D01*
X91689098Y-84827471D01*
X91777155Y-84856741D01*
X91880789Y-84874302D01*
X92000000Y-84880156D01*
X92119211Y-84874451D01*
X92222845Y-84857336D01*
X92310902Y-84828811D01*
X92383381Y-84788875D01*
X92455260Y-84718937D01*
X92498387Y-84630831D01*
X92512763Y-84524556D01*
X92498387Y-84420840D01*
X92455260Y-84334056D01*
X92383381Y-84264206D01*
X92310902Y-84223923D01*
X92222845Y-84195150D01*
X92119211Y-84177886D01*
X92000000Y-84172131D01*
X91880789Y-84177787D01*
X91777155Y-84194753D01*
X91689098Y-84223030D01*
X91616619Y-84262619D01*
X91544740Y-84332116D01*
X91501613Y-84419958D01*
X91487237Y-84526144D01*
X91421092Y-84526144D01*
X91421092Y-84089581D01*
X91509462Y-84089581D01*
X91671387Y-84089581D01*
X91671387Y-83830819D01*
X92492125Y-83830819D01*
X92492125Y-83633969D01*
X91671387Y-83633969D01*
X91671387Y-83375206D01*
X91509462Y-83375206D01*
X91509462Y-84089581D01*
X91421092Y-84089581D01*
X91421092Y-83375074D01*
X91432215Y-83262135D01*
G37*
G36*
X92069056Y-85165708D02*
G01*
X92133350Y-85169875D01*
X92242094Y-85192100D01*
X92315913Y-85239725D01*
X92342900Y-85319894D01*
X92315913Y-85400856D01*
X92242888Y-85447687D01*
X92134144Y-85469912D01*
X92069255Y-85474080D01*
X92000000Y-85475469D01*
X91930944Y-85474080D01*
X91866650Y-85469912D01*
X91757906Y-85447687D01*
X91684087Y-85400856D01*
X91657100Y-85319894D01*
X91684087Y-85238931D01*
X91757112Y-85192100D01*
X91865856Y-85169875D01*
X91930745Y-85165708D01*
X92000000Y-85164319D01*
X92069056Y-85165708D01*
G37*
G36*
X92069056Y-84371958D02*
G01*
X92133350Y-84376125D01*
X92242094Y-84398350D01*
X92315913Y-84445975D01*
X92342900Y-84526144D01*
X92315913Y-84607106D01*
X92242888Y-84653937D01*
X92134144Y-84676162D01*
X92069255Y-84680330D01*
X92000000Y-84681719D01*
X91930944Y-84680330D01*
X91866650Y-84676162D01*
X91757906Y-84653937D01*
X91684087Y-84607106D01*
X91657100Y-84526144D01*
X91684087Y-84445181D01*
X91757112Y-84398350D01*
X91865856Y-84376125D01*
X91930745Y-84371958D01*
X92000000Y-84370569D01*
X92069056Y-84371958D01*
G37*
G36*
X92265906Y-85973944D02*
G01*
X92308769Y-86014425D01*
X92329406Y-86070781D01*
X92334963Y-86135869D01*
X92333375Y-86184287D01*
X92328613Y-86229531D01*
X92061913Y-86229531D01*
X92061913Y-86124756D01*
X92092869Y-86003312D01*
X92195263Y-85958069D01*
X92265906Y-85973944D01*
G37*
G36*
X91867444Y-86040619D02*
G01*
X91899987Y-86153331D01*
X91899987Y-86229531D01*
X91674562Y-86229531D01*
X91669800Y-86186669D01*
X91668212Y-86140631D01*
X91672181Y-86088244D01*
X91688056Y-86043794D01*
X91721394Y-86013631D01*
X91777750Y-86002519D01*
X91867444Y-86040619D01*
G37*
G36*
X102551719Y-84510184D02*
G01*
X102454285Y-84459607D01*
X102372617Y-84391094D01*
X102308345Y-84305970D01*
X102263101Y-84205559D01*
X102240707Y-84108377D01*
X102238263Y-84055365D01*
X102434965Y-84055365D01*
X102452139Y-84122083D01*
X102488898Y-84181945D01*
X102492776Y-84186351D01*
X102526540Y-84213465D01*
X102574379Y-84239907D01*
X102625369Y-84259903D01*
X102639000Y-84263627D01*
X102674083Y-84272059D01*
X102674083Y-83799548D01*
X102638514Y-83799548D01*
X102605764Y-83805313D01*
X102564176Y-83819881D01*
X102546023Y-83828253D01*
X102492906Y-83868237D01*
X102456154Y-83923027D01*
X102436572Y-83987208D01*
X102434965Y-84055365D01*
X102238263Y-84055365D01*
X102235508Y-83995612D01*
X102251569Y-83889585D01*
X102287374Y-83793177D01*
X102341407Y-83709272D01*
X102412154Y-83640749D01*
X102498097Y-83590491D01*
X102517180Y-83582809D01*
X102570713Y-83566989D01*
X102632427Y-83555184D01*
X102695196Y-83548045D01*
X102751898Y-83546222D01*
X102795409Y-83550364D01*
X102812059Y-83555897D01*
X102820295Y-83560892D01*
X102826723Y-83567968D01*
X102831569Y-83580058D01*
X102835056Y-83600093D01*
X102837407Y-83631006D01*
X102838846Y-83675729D01*
X102839597Y-83737193D01*
X102839884Y-83818330D01*
X102839929Y-83921193D01*
X102839929Y-84271573D01*
X102877723Y-84271573D01*
X102931415Y-84263473D01*
X102991758Y-84242256D01*
X103048303Y-84212543D01*
X103090605Y-84178956D01*
X103092957Y-84176357D01*
X103135466Y-84109212D01*
X103156377Y-84030746D01*
X103155578Y-83943403D01*
X103132955Y-83849624D01*
X103110581Y-83794927D01*
X103085301Y-83737713D01*
X103073113Y-83696790D01*
X103074784Y-83666108D01*
X103091084Y-83639615D01*
X103122781Y-83611262D01*
X103135131Y-83601699D01*
X103200699Y-83551696D01*
X103238617Y-83595889D01*
X103278610Y-83652933D01*
X103316167Y-83724789D01*
X103346355Y-83800876D01*
X103362719Y-83861943D01*
X103371635Y-83933738D01*
X103374124Y-84013760D01*
X103370359Y-84091755D01*
X103360517Y-84157475D01*
X103357485Y-84169513D01*
X103315709Y-84275865D01*
X103254684Y-84366145D01*
X103175596Y-84439556D01*
X103079635Y-84495301D01*
X102967988Y-84532581D01*
X102841843Y-84550600D01*
X102787356Y-84552235D01*
X102674083Y-84542436D01*
X102663286Y-84541502D01*
X102551719Y-84510184D01*
G37*
G36*
X102455194Y-82592496D02*
G01*
X102497898Y-82628627D01*
X102518095Y-82661320D01*
X102516935Y-82696696D01*
X102495568Y-82740874D01*
X102485911Y-82755972D01*
X102459094Y-82815272D01*
X102448745Y-82881744D01*
X102455045Y-82946877D01*
X102478176Y-83002159D01*
X102480607Y-83005689D01*
X102527202Y-83050558D01*
X102593287Y-83085135D01*
X102674553Y-83108328D01*
X102766691Y-83119042D01*
X102865393Y-83116185D01*
X102899518Y-83111952D01*
X102995917Y-83089803D01*
X103069988Y-83055337D01*
X103121761Y-83008529D01*
X103151265Y-82949352D01*
X103158864Y-82891047D01*
X103154883Y-82837945D01*
X103140105Y-82794530D01*
X103110283Y-82749731D01*
X103099561Y-82736515D01*
X103073756Y-82694805D01*
X103071060Y-82656833D01*
X103092108Y-82619373D01*
X103129327Y-82585380D01*
X103165057Y-82559653D01*
X103188455Y-82548778D01*
X103205963Y-82550322D01*
X103212762Y-82553875D01*
X103238297Y-82577431D01*
X103269276Y-82617128D01*
X103300920Y-82665730D01*
X103328447Y-82716002D01*
X103344611Y-82753441D01*
X103359068Y-82810283D01*
X103368034Y-82879509D01*
X103371110Y-82951860D01*
X103367896Y-83018072D01*
X103358206Y-83068240D01*
X103313898Y-83164367D01*
X103249743Y-83245520D01*
X103167130Y-83310866D01*
X103067449Y-83359574D01*
X102952088Y-83390812D01*
X102822438Y-83403748D01*
X102797331Y-83404069D01*
X102689751Y-83396112D01*
X102586007Y-83373529D01*
X102491380Y-83338252D01*
X102411146Y-83292210D01*
X102354675Y-83242113D01*
X102296324Y-83158096D01*
X102256902Y-83063496D01*
X102236507Y-82962891D01*
X102235237Y-82860858D01*
X102253189Y-82761975D01*
X102290461Y-82670819D01*
X102340901Y-82598839D01*
X102389394Y-82544194D01*
X102455194Y-82592496D01*
G37*
G36*
X102283502Y-88820619D02*
G01*
X102345688Y-88822355D01*
X102394855Y-88826232D01*
X102437243Y-88832837D01*
X102479090Y-88842758D01*
X102499160Y-88848388D01*
X102666641Y-88909490D01*
X102819036Y-88990865D01*
X102955374Y-89091534D01*
X103074683Y-89210514D01*
X103175992Y-89346826D01*
X103258329Y-89499487D01*
X103320722Y-89667517D01*
X103325072Y-89682466D01*
X103341909Y-89761735D01*
X103353087Y-89856281D01*
X103358253Y-89957064D01*
X103357057Y-90055048D01*
X103349145Y-90141192D01*
X103344048Y-90170179D01*
X103295775Y-90342749D01*
X103226360Y-90501548D01*
X103136809Y-90645478D01*
X103028124Y-90773443D01*
X102901309Y-90884346D01*
X102757366Y-90977092D01*
X102597301Y-91050583D01*
X102511915Y-91079649D01*
X102462966Y-91093638D01*
X102419693Y-91103264D01*
X102375124Y-91109344D01*
X102322285Y-91112691D01*
X102254202Y-91114120D01*
X102214816Y-91114362D01*
X102069447Y-91108805D01*
X101940257Y-91089999D01*
X101820740Y-91056382D01*
X101704393Y-91006387D01*
X101653490Y-90979337D01*
X101551230Y-90913335D01*
X101451733Y-90832786D01*
X101358778Y-90741947D01*
X101276147Y-90645077D01*
X101207618Y-90546432D01*
X101156973Y-90450269D01*
X101137592Y-90398318D01*
X101128717Y-90369614D01*
X101470590Y-90369614D01*
X101511252Y-90432366D01*
X101577434Y-90516606D01*
X101662404Y-90597631D01*
X101759488Y-90670523D01*
X101862015Y-90730367D01*
X101963314Y-90772246D01*
X101978804Y-90776906D01*
X102044109Y-90789809D01*
X102125224Y-90797535D01*
X102212937Y-90799882D01*
X102298032Y-90796647D01*
X102371296Y-90787626D01*
X102380663Y-90785769D01*
X102510951Y-90745815D01*
X102634354Y-90683831D01*
X102747032Y-90602785D01*
X102845144Y-90505641D01*
X102924849Y-90395365D01*
X102952856Y-90343941D01*
X103008127Y-90204866D01*
X103038040Y-90064013D01*
X103042596Y-89922430D01*
X103021794Y-89781166D01*
X102975635Y-89641270D01*
X102952794Y-89591412D01*
X102921996Y-89533768D01*
X102888985Y-89484033D01*
X102847921Y-89434417D01*
X102792966Y-89377130D01*
X102789907Y-89374082D01*
X102684754Y-89281763D01*
X102577122Y-89213138D01*
X102463189Y-89166736D01*
X102339135Y-89141088D01*
X102201141Y-89134723D01*
X102170165Y-89135694D01*
X102054845Y-89145791D01*
X101955417Y-89166709D01*
X101863737Y-89200712D01*
X101782698Y-89243435D01*
X101715956Y-89289480D01*
X101645922Y-89348671D01*
X101580036Y-89413925D01*
X101525740Y-89478157D01*
X101505424Y-89507420D01*
X101468508Y-89565851D01*
X101299472Y-89565874D01*
X101225084Y-89564923D01*
X101170949Y-89562141D01*
X101138915Y-89557672D01*
X101130437Y-89552821D01*
X101136897Y-89530379D01*
X101154203Y-89492271D01*
X101179236Y-89444188D01*
X101208881Y-89391822D01*
X101240022Y-89340862D01*
X101269542Y-89297000D01*
X101273469Y-89291613D01*
X101387313Y-89157956D01*
X101516382Y-89044771D01*
X101660605Y-88952108D01*
X101819914Y-88880014D01*
X101892203Y-88855606D01*
X101938944Y-88842059D01*
X101980148Y-88832556D01*
X102022249Y-88826366D01*
X102071677Y-88822760D01*
X102134866Y-88821007D01*
X102202059Y-88820437D01*
X102283502Y-88820619D01*
G37*
G36*
X102279900Y-87018424D02*
G01*
X102281793Y-87018913D01*
X102299773Y-87024184D01*
X102339454Y-87036204D01*
X102398170Y-87054151D01*
X102473255Y-87077207D01*
X102562043Y-87104552D01*
X102661867Y-87135366D01*
X102770063Y-87168831D01*
X102836581Y-87189436D01*
X103362666Y-87352487D01*
X103362824Y-87475309D01*
X103361860Y-87537483D01*
X103358371Y-87578661D01*
X103351746Y-87603292D01*
X103343812Y-87614043D01*
X103327160Y-87621499D01*
X103289147Y-87635028D01*
X103232924Y-87653616D01*
X103161643Y-87676255D01*
X103078455Y-87701933D01*
X102986511Y-87729640D01*
X102945276Y-87741864D01*
X102565911Y-87853775D01*
X102623186Y-87868937D01*
X102686037Y-87886201D01*
X102760333Y-87907617D01*
X102842420Y-87932031D01*
X102928646Y-87958287D01*
X103015355Y-87985228D01*
X103098896Y-88011700D01*
X103175613Y-88036546D01*
X103241853Y-88058611D01*
X103293962Y-88076738D01*
X103328286Y-88089772D01*
X103340658Y-88095900D01*
X103351602Y-88110117D01*
X103358388Y-88132987D01*
X103361887Y-88169910D01*
X103362973Y-88226289D01*
X103362983Y-88234185D01*
X103362983Y-88352863D01*
X103276871Y-88378713D01*
X103245050Y-88388403D01*
X103192200Y-88404660D01*
X103121648Y-88426454D01*
X103036721Y-88452754D01*
X102940747Y-88482530D01*
X102837053Y-88514751D01*
X102728967Y-88548387D01*
X102725113Y-88549588D01*
X102259467Y-88694612D01*
X102255805Y-88566566D01*
X102254714Y-88506165D01*
X102256031Y-88465827D01*
X102260446Y-88440160D01*
X102268648Y-88423771D01*
X102274942Y-88416835D01*
X102294604Y-88407147D01*
X102337310Y-88392718D01*
X102401140Y-88374090D01*
X102484177Y-88351806D01*
X102584502Y-88326410D01*
X102654947Y-88309242D01*
X102747641Y-88286857D01*
X102833007Y-88266066D01*
X102907673Y-88247704D01*
X102968269Y-88232605D01*
X103011425Y-88221605D01*
X103033771Y-88215539D01*
X103035378Y-88215015D01*
X103029309Y-88209630D01*
X103001381Y-88198164D01*
X102954290Y-88181466D01*
X102890735Y-88160384D01*
X102813412Y-88135763D01*
X102725019Y-88108453D01*
X102628252Y-88079300D01*
X102525809Y-88049153D01*
X102420387Y-88018857D01*
X102333253Y-87994400D01*
X102295942Y-87980836D01*
X102272195Y-87961530D01*
X102259107Y-87931059D01*
X102253774Y-87883999D01*
X102253089Y-87844713D01*
X102254372Y-87790342D01*
X102258962Y-87755489D01*
X102267969Y-87734251D01*
X102275414Y-87726054D01*
X102292938Y-87717843D01*
X102331870Y-87703920D01*
X102389002Y-87685292D01*
X102461127Y-87662965D01*
X102545039Y-87637945D01*
X102637529Y-87611238D01*
X102676690Y-87600173D01*
X102770214Y-87573803D01*
X102855168Y-87549633D01*
X102928620Y-87528515D01*
X102987635Y-87511300D01*
X103029281Y-87498841D01*
X103050623Y-87491988D01*
X103052817Y-87490956D01*
X103040205Y-87487160D01*
X103006231Y-87477976D01*
X102954263Y-87464285D01*
X102887672Y-87446971D01*
X102809827Y-87426916D01*
X102744032Y-87410083D01*
X102621475Y-87378676D01*
X102521433Y-87352647D01*
X102441636Y-87331301D01*
X102379819Y-87313944D01*
X102333713Y-87299880D01*
X102301050Y-87288415D01*
X102279563Y-87278854D01*
X102266985Y-87270501D01*
X102261048Y-87262662D01*
X102260774Y-87261990D01*
X102257335Y-87240763D01*
X102254690Y-87201099D01*
X102253243Y-87150071D01*
X102253089Y-87126701D01*
X102253349Y-87072307D01*
X102254943Y-87038855D01*
X102259087Y-87021773D01*
X102267000Y-87016487D01*
X102279900Y-87018424D01*
G37*
G36*
X103362983Y-86172426D02*
G01*
X102972621Y-86172426D01*
X102859545Y-86172588D01*
X102769079Y-86173166D01*
X102698319Y-86174300D01*
X102644364Y-86176129D01*
X102604309Y-86178793D01*
X102575250Y-86182430D01*
X102554286Y-86187182D01*
X102538512Y-86193186D01*
X102538307Y-86193283D01*
X102493923Y-86225957D01*
X102467289Y-86274485D01*
X102457333Y-86340954D01*
X102457207Y-86350806D01*
X102466563Y-86429474D01*
X102496568Y-86498298D01*
X102526574Y-86539202D01*
X102561534Y-86580663D01*
X103362983Y-86580663D01*
X103362983Y-86861326D01*
X102253089Y-86861326D01*
X102253089Y-86754451D01*
X102254440Y-86694900D01*
X102260402Y-86655759D01*
X102273838Y-86631978D01*
X102297611Y-86618514D01*
X102334582Y-86610318D01*
X102334873Y-86610270D01*
X102364751Y-86603991D01*
X102380113Y-86597965D01*
X102380663Y-86596969D01*
X102373062Y-86584820D01*
X102353526Y-86559864D01*
X102336114Y-86539053D01*
X102282601Y-86457173D01*
X102250765Y-86362261D01*
X102240891Y-86258060D01*
X102249092Y-86162020D01*
X102273675Y-86083775D01*
X102316548Y-86020106D01*
X102379618Y-85967797D01*
X102429639Y-85939690D01*
X102513990Y-85898142D01*
X102938487Y-85894314D01*
X103362983Y-85890487D01*
X103362983Y-86172426D01*
G37*
G36*
X102112757Y-85049774D02*
G01*
X103362983Y-85049774D01*
X103362983Y-85343195D01*
X102112757Y-85343195D01*
X102112757Y-85738674D01*
X101870092Y-85738674D01*
X101873419Y-85193295D01*
X101876745Y-84647916D01*
X102112757Y-84640580D01*
X102112757Y-85049774D01*
G37*
G36*
X103362983Y-81681819D02*
G01*
X102979851Y-81681819D01*
X102861725Y-81682008D01*
X102766271Y-81682846D01*
X102690646Y-81684737D01*
X102632007Y-81688084D01*
X102587513Y-81693291D01*
X102554321Y-81700763D01*
X102529588Y-81710903D01*
X102510472Y-81724114D01*
X102494132Y-81740802D01*
X102484864Y-81752159D01*
X102466032Y-81785860D01*
X102457998Y-81829697D01*
X102457207Y-81856174D01*
X102465664Y-81934739D01*
X102493134Y-82002051D01*
X102526574Y-82048594D01*
X102561534Y-82090056D01*
X103362983Y-82090056D01*
X103362983Y-82370719D01*
X101755550Y-82370719D01*
X101755550Y-82090056D01*
X102055349Y-82090056D01*
X102139750Y-82089762D01*
X102214958Y-82088938D01*
X102277450Y-82087669D01*
X102323702Y-82086040D01*
X102350192Y-82084135D01*
X102355148Y-82082826D01*
X102348105Y-82069050D01*
X102330528Y-82043493D01*
X102323637Y-82034283D01*
X102273620Y-81952037D01*
X102246189Y-81863782D01*
X102239118Y-81781013D01*
X102246919Y-81681329D01*
X102271991Y-81599167D01*
X102315752Y-81532054D01*
X102379622Y-81477515D01*
X102429638Y-81449082D01*
X102513989Y-81407534D01*
X103362983Y-81399594D01*
X103362983Y-81681819D01*
G37*
G36*
X102291361Y-90127223D02*
G01*
X100772467Y-90127223D01*
X100776037Y-89964566D01*
X100779608Y-89801909D01*
X101535484Y-89798619D01*
X102291361Y-89795328D01*
X102291361Y-90127223D01*
G37*
G36*
X91502567Y-65351619D02*
G01*
X91553169Y-65387337D01*
X91581148Y-65446472D01*
X91590475Y-65528625D01*
X91590475Y-65608000D01*
X91272975Y-65608000D01*
X91269006Y-65559581D01*
X91268212Y-65511162D01*
X91277142Y-65441114D01*
X91303931Y-65386544D01*
X91352152Y-65351420D01*
X91425375Y-65339712D01*
X91502567Y-65351619D01*
G37*
G36*
X92031870Y-67298650D02*
G01*
X91966438Y-67337868D01*
X91897477Y-67370484D01*
X91825652Y-67396184D01*
X91751653Y-67414720D01*
X91676193Y-67425913D01*
X91600000Y-67429656D01*
X91523807Y-67425913D01*
X91448347Y-67414720D01*
X91374348Y-67396184D01*
X91302523Y-67370484D01*
X91233562Y-67337868D01*
X91168130Y-67298650D01*
X91106857Y-67253207D01*
X91050333Y-67201977D01*
X90999104Y-67145453D01*
X90953661Y-67084181D01*
X90914442Y-67018749D01*
X90881826Y-66949788D01*
X90856126Y-66877962D01*
X90837591Y-66803963D01*
X90826397Y-66728504D01*
X90822654Y-66652310D01*
X90822654Y-66268400D01*
X91087237Y-66268400D01*
X91095881Y-66365678D01*
X91121810Y-66447964D01*
X91165025Y-66515256D01*
X91257894Y-66582527D01*
X91380925Y-66604950D01*
X91497606Y-66579550D01*
X91576187Y-66515256D01*
X91628575Y-66428737D01*
X91665088Y-66336662D01*
X91692869Y-66269987D01*
X91726206Y-66209662D01*
X91768275Y-66165212D01*
X91822250Y-66147750D01*
X91869081Y-66154894D01*
X91910356Y-66181087D01*
X91938931Y-66232681D01*
X91949250Y-66314437D01*
X91943694Y-66393614D01*
X91927025Y-66459694D01*
X91879400Y-66562087D01*
X92038150Y-66619237D01*
X92086569Y-66509700D01*
X92106214Y-66424372D01*
X92112763Y-66314437D01*
X92104384Y-66203048D01*
X92079249Y-66112296D01*
X92037356Y-66042181D01*
X91946273Y-65974911D01*
X91823838Y-65952487D01*
X91749820Y-65959234D01*
X91689694Y-65979475D01*
X91600794Y-66048531D01*
X91543644Y-66140606D01*
X91504750Y-66236650D01*
X91480937Y-66297769D01*
X91451569Y-66353331D01*
X91413469Y-66393812D01*
X91363462Y-66409687D01*
X91300844Y-66392401D01*
X91263274Y-66340543D01*
X91250750Y-66254112D01*
X91266625Y-66142194D01*
X91304725Y-66054087D01*
X91153912Y-65996937D01*
X91107875Y-66110444D01*
X91092397Y-66183667D01*
X91087237Y-66268400D01*
X90822654Y-66268400D01*
X90822654Y-65533387D01*
X91098350Y-65533387D01*
X91099938Y-65595300D01*
X91103906Y-65666737D01*
X91111050Y-65738969D01*
X91122162Y-65803262D01*
X92092125Y-65803262D01*
X92092125Y-65608000D01*
X91760338Y-65608000D01*
X91760338Y-65538150D01*
X91751606Y-65420763D01*
X91725413Y-65322603D01*
X91681756Y-65243669D01*
X91618521Y-65185901D01*
X91533590Y-65151241D01*
X91426962Y-65139687D01*
X91321394Y-65151153D01*
X91237521Y-65185549D01*
X91175344Y-65242875D01*
X91132569Y-65321015D01*
X91106905Y-65417853D01*
X91098350Y-65533387D01*
X90822654Y-65533387D01*
X90822654Y-65009512D01*
X91109462Y-65009512D01*
X91271387Y-65009512D01*
X91271387Y-64795200D01*
X91930200Y-64795200D01*
X91930200Y-65009512D01*
X92092125Y-65009512D01*
X92092125Y-64385625D01*
X91930200Y-64385625D01*
X91930200Y-64598350D01*
X91271387Y-64598350D01*
X91271387Y-64385625D01*
X91109462Y-64385625D01*
X91109462Y-65009512D01*
X90822654Y-65009512D01*
X90822654Y-64228462D01*
X91109462Y-64228462D01*
X92092125Y-64228462D01*
X92092125Y-64052250D01*
X91439662Y-64052250D01*
X91548583Y-63993248D01*
X91657326Y-63936892D01*
X91765894Y-63883181D01*
X91874461Y-63832117D01*
X91983205Y-63783698D01*
X92092125Y-63737925D01*
X92092125Y-63580762D01*
X91109462Y-63580762D01*
X91109462Y-63756975D01*
X91714300Y-63756975D01*
X91652388Y-63784955D01*
X91580950Y-63818094D01*
X91503559Y-63855400D01*
X91423787Y-63895881D01*
X91342627Y-63938545D01*
X91261069Y-63982400D01*
X91182289Y-64026850D01*
X91109462Y-64071300D01*
X91109462Y-64228462D01*
X90822654Y-64228462D01*
X90822654Y-63547690D01*
X90826397Y-63471496D01*
X90837591Y-63396037D01*
X90856126Y-63322038D01*
X90881826Y-63250212D01*
X90914442Y-63181251D01*
X90953661Y-63115819D01*
X90999104Y-63054547D01*
X91050334Y-62998023D01*
X91106857Y-62946793D01*
X91168130Y-62901350D01*
X91233562Y-62862132D01*
X91302523Y-62829516D01*
X91374348Y-62803816D01*
X91448347Y-62785280D01*
X91523807Y-62774087D01*
X91600000Y-62770344D01*
X91676193Y-62774087D01*
X91751653Y-62785280D01*
X91825652Y-62803816D01*
X91897477Y-62829516D01*
X91966438Y-62862132D01*
X92031870Y-62901350D01*
X92093143Y-62946793D01*
X92149666Y-62998023D01*
X92200896Y-63054547D01*
X92246339Y-63115819D01*
X92285558Y-63181251D01*
X92318174Y-63250212D01*
X92343874Y-63322038D01*
X92362409Y-63396037D01*
X92373603Y-63471496D01*
X92377346Y-63547690D01*
X92377346Y-66652310D01*
X92373603Y-66728504D01*
X92362409Y-66803963D01*
X92343874Y-66877962D01*
X92318174Y-66949788D01*
X92285558Y-67018749D01*
X92246339Y-67084181D01*
X92200896Y-67145453D01*
X92149667Y-67201977D01*
X92093143Y-67253207D01*
X92031870Y-67298650D01*
G37*
D11*
X97100000Y-57200000D02*
X95250000Y-57200000D01*
X97100000Y-58400000D02*
X95250000Y-58400000D01*
X95250000Y-57200000D02*
X95250000Y-58400000D01*
X95320000Y-64543641D02*
X95320000Y-64236359D01*
X96080000Y-64543641D02*
X96080000Y-64236359D01*
X98680000Y-83490000D02*
X98680000Y-86190000D01*
X100980000Y-83490000D02*
X98680000Y-83490000D01*
X99038781Y-64960030D02*
X98839970Y-64761219D01*
X99760030Y-64238781D02*
X99561219Y-64039970D01*
X101221038Y-65932659D02*
X101438319Y-66149940D01*
X100683637Y-66470060D02*
X100900918Y-66687341D01*
X85160978Y-100310000D02*
X106160978Y-100310000D01*
X106160978Y-100310000D02*
X106160978Y-49310000D01*
X106160978Y-49310000D02*
X85160978Y-49310000D01*
X85160978Y-49310000D02*
X85160978Y-100310000D01*
X94810000Y-59937500D02*
X94810000Y-59137500D01*
X94810000Y-59937500D02*
X94810000Y-60737500D01*
X91690000Y-59937500D02*
X91690000Y-61737500D01*
X91690000Y-59937500D02*
X91690000Y-59137500D01*
X103360000Y-59890000D02*
X103130000Y-59890000D01*
X103360000Y-59890000D02*
X103360000Y-62610000D01*
X98640000Y-62610000D02*
X98640000Y-59890000D01*
X103130000Y-58750000D02*
X103130000Y-59890000D01*
X103360000Y-62610000D02*
X102050000Y-62610000D01*
X99950000Y-62610000D02*
X98640000Y-62610000D01*
X98640000Y-59890000D02*
X98870000Y-59890000D01*
X100100918Y-81887341D02*
X99883637Y-81670060D01*
X100638319Y-81349940D02*
X100421038Y-81132659D01*
X101922197Y-68970030D02*
X102121008Y-68771219D01*
X101200948Y-68248781D02*
X101399759Y-68049970D01*
X100730168Y-80888307D02*
X100882671Y-81040810D01*
X101239285Y-80379190D02*
X101391788Y-80531693D01*
X98310000Y-60321078D02*
X98310000Y-59803922D01*
X96890000Y-60321078D02*
X96890000Y-59803922D01*
X102453641Y-50890000D02*
X102146359Y-50890000D01*
X102453641Y-50130000D02*
X102146359Y-50130000D01*
X96839970Y-65438781D02*
X97038781Y-65239970D01*
X97561219Y-66160030D02*
X97760030Y-65961219D01*
X97350000Y-83650000D02*
X92950000Y-83650000D01*
X97350000Y-85150000D02*
X97350000Y-85250000D01*
X92950000Y-86750000D02*
X97350000Y-86750000D01*
X92950000Y-85150000D02*
X92950000Y-85250000D01*
X97011252Y-63297500D02*
X96488748Y-63297500D01*
X97011252Y-61827500D02*
X96488748Y-61827500D01*
X91360000Y-97190000D02*
X91360000Y-95865000D01*
X100305000Y-95865000D02*
X100305000Y-92335000D01*
X100240000Y-92335000D02*
X100305000Y-92335000D01*
X91295000Y-95865000D02*
X91360000Y-95865000D01*
X91295000Y-92335000D02*
X91360000Y-92335000D01*
X100240000Y-95865000D02*
X100305000Y-95865000D01*
X91295000Y-95865000D02*
X91295000Y-92335000D01*
X96510000Y-59803922D02*
X96510000Y-60321078D01*
X95090000Y-59803922D02*
X95090000Y-60321078D01*
X97869190Y-66121693D02*
X98021693Y-65969190D01*
X98378307Y-66630810D02*
X98530810Y-66478307D01*
X103230810Y-77978307D02*
X103078307Y-78130810D01*
X102721693Y-77469190D02*
X102569190Y-77621693D01*
X88897337Y-50890000D02*
X89204619Y-50890000D01*
X88897337Y-50130000D02*
X89204619Y-50130000D01*
X100317836Y-86380000D02*
X100102164Y-86380000D01*
X100317836Y-87100000D02*
X100102164Y-87100000D01*
X99699874Y-67480221D02*
X99852377Y-67327718D01*
X99190757Y-66971104D02*
X99343260Y-66818601D01*
X89960000Y-51125000D02*
X88040000Y-51125000D01*
X88040000Y-51125000D02*
X88040000Y-53810000D01*
X89960000Y-53810000D02*
X89960000Y-51125000D01*
X93091788Y-82331693D02*
X92939285Y-82179190D01*
X92582671Y-82840810D02*
X92430168Y-82688307D01*
X101340000Y-51115000D02*
X101340000Y-53800000D01*
X103260000Y-53800000D02*
X103260000Y-51115000D01*
X103260000Y-51115000D02*
X101340000Y-51115000D01*
X97350000Y-86850000D02*
X92950000Y-86850000D01*
X97350000Y-88450000D02*
X97350000Y-88350000D01*
X92950000Y-89950000D02*
X97350000Y-89950000D01*
X92950000Y-88450000D02*
X92950000Y-88350000D01*
X99323142Y-82530000D02*
X99538814Y-82530000D01*
X99323142Y-83250000D02*
X99538814Y-83250000D01*
X100499874Y-68280221D02*
X100652377Y-68127718D01*
X99990757Y-67771104D02*
X100143260Y-67618601D01*
X101538748Y-56765000D02*
X102061252Y-56765000D01*
X101538748Y-58235000D02*
X102061252Y-58235000D01*
X101640978Y-96356359D02*
X101640978Y-96663641D01*
X100880978Y-96356359D02*
X100880978Y-96663641D01*
X89006098Y-75481751D02*
X88334347Y-74810000D01*
X95560978Y-67583369D02*
X94889227Y-68255120D01*
X88334347Y-74810000D02*
X89006098Y-74138249D01*
X94889227Y-81364880D02*
X95560978Y-82036631D01*
X102115858Y-74138249D02*
X102787609Y-74810000D01*
X96232729Y-81364880D02*
X97180253Y-82312403D01*
X95560978Y-82036631D02*
X96232729Y-81364880D01*
X102787609Y-74810000D02*
X102115858Y-75481751D01*
X96232729Y-68255120D02*
X95560978Y-67583369D01*
X89966978Y-57290000D02*
X87966978Y-57290000D01*
X87966978Y-54490000D02*
X89966978Y-54490000D01*
X89966978Y-54490000D02*
X89966978Y-57290000D01*
X87966978Y-57290000D02*
X87966978Y-54490000D01*
X87939285Y-72440810D02*
X88091788Y-72288307D01*
X87430168Y-71931693D02*
X87582671Y-71779190D01*
X100300000Y-53740000D02*
X100300000Y-51740000D01*
X100300000Y-47940000D02*
X90900000Y-47940000D01*
X90900000Y-49840000D02*
X90900000Y-47940000D01*
X100300000Y-49840000D02*
X100300000Y-47940000D01*
X90900000Y-53740000D02*
X90900000Y-51740000D01*
%LPC*%
D12*
X97100000Y-57800000D03*
X95700000Y-57800000D03*
D13*
X95700000Y-63880000D03*
X95700000Y-64900000D03*
D14*
X100380000Y-84140000D03*
X100380000Y-85540000D03*
X99280000Y-85540000D03*
X99280000Y-84140000D03*
D15*
X98751992Y-63951992D03*
X99848008Y-65048008D03*
D16*
X101421602Y-66670624D03*
X100700354Y-65949376D03*
D17*
X104860978Y-50810000D03*
D18*
X105660978Y-50810000D03*
D17*
X104860978Y-53350000D03*
D18*
X105660978Y-53350000D03*
X105660978Y-55890000D03*
D17*
X104860978Y-55890000D03*
D18*
X105660978Y-58430000D03*
D17*
X104860978Y-58430000D03*
D18*
X105660978Y-60970000D03*
D17*
X104860978Y-60970000D03*
X104860978Y-63510000D03*
D18*
X105660978Y-63510000D03*
X105660978Y-66050000D03*
D17*
X104860978Y-66050000D03*
X104860978Y-68590000D03*
D18*
X105660978Y-68590000D03*
X105660978Y-71130000D03*
D17*
X104860978Y-71130000D03*
X104860978Y-73670000D03*
D18*
X105660978Y-73670000D03*
D17*
X104860978Y-76210000D03*
D18*
X105660978Y-76210000D03*
D17*
X104860978Y-78750000D03*
D18*
X105660978Y-78750000D03*
D17*
X104860978Y-81290000D03*
D18*
X105660978Y-81290000D03*
X105660978Y-83830000D03*
D17*
X104860978Y-83830000D03*
D18*
X105660978Y-86370000D03*
D17*
X104860978Y-86370000D03*
X104860978Y-88910000D03*
D18*
X105660978Y-88910000D03*
X105660978Y-91450000D03*
D17*
X104860978Y-91450000D03*
X104860978Y-93990000D03*
D18*
X105660978Y-93990000D03*
D17*
X104860978Y-96530000D03*
D18*
X105660978Y-96530000D03*
X105660978Y-99070000D03*
D17*
X104860978Y-99070000D03*
D19*
X102010978Y-99810000D03*
D20*
X102010978Y-99010000D03*
X99470978Y-99010000D03*
D19*
X99470978Y-99810000D03*
X96930978Y-99810000D03*
D20*
X96930978Y-99010000D03*
D19*
X94390978Y-99810000D03*
D20*
X94390978Y-99010000D03*
D19*
X91850978Y-99810000D03*
D20*
X91850978Y-99010000D03*
D19*
X89310978Y-99810000D03*
D20*
X89310978Y-99010000D03*
D17*
X86460978Y-99070000D03*
D18*
X85660978Y-99070000D03*
D17*
X86460978Y-96530000D03*
D18*
X85660978Y-96530000D03*
X85660978Y-93990000D03*
D17*
X86460978Y-93990000D03*
X86460978Y-91450000D03*
D18*
X85660978Y-91450000D03*
D17*
X86460978Y-88910000D03*
D18*
X85660978Y-88910000D03*
D17*
X86460978Y-86370000D03*
D18*
X85660978Y-86370000D03*
D17*
X86460978Y-83830000D03*
D18*
X85660978Y-83830000D03*
D17*
X86460978Y-81290000D03*
D18*
X85660978Y-81290000D03*
X85660978Y-78750000D03*
D17*
X86460978Y-78750000D03*
X86460978Y-76210000D03*
D18*
X85660978Y-76210000D03*
X85660978Y-73670000D03*
D17*
X86460978Y-73670000D03*
D18*
X85660978Y-71130000D03*
D17*
X86460978Y-71130000D03*
D18*
X85660978Y-68590000D03*
D17*
X86460978Y-68590000D03*
D18*
X85660978Y-66050000D03*
D17*
X86460978Y-66050000D03*
D18*
X85660978Y-63510000D03*
D17*
X86460978Y-63510000D03*
D18*
X85660978Y-60970000D03*
D17*
X86460978Y-60970000D03*
D18*
X85660978Y-58430000D03*
D17*
X86460978Y-58430000D03*
X86460978Y-55890000D03*
D18*
X85660978Y-55890000D03*
D17*
X86460978Y-53350000D03*
D18*
X85660978Y-53350000D03*
X85660978Y-50810000D03*
D17*
X86460978Y-50810000D03*
D21*
X92300000Y-58800000D03*
X93250000Y-58800000D03*
X94200000Y-58800000D03*
X94200000Y-61075000D03*
X93250000Y-61075000D03*
X92300000Y-61075000D03*
D22*
X99500000Y-59300000D03*
D23*
X101000000Y-59387500D03*
D22*
X102500000Y-59300000D03*
D24*
X99900354Y-81149376D03*
X100621602Y-81870624D03*
D25*
X102208986Y-67961992D03*
X101112970Y-69058008D03*
D26*
X101400389Y-81049411D03*
X100721567Y-80370589D03*
D27*
X97600000Y-59125000D03*
X97600000Y-61000000D03*
D28*
X101790000Y-50510000D03*
X102810000Y-50510000D03*
D25*
X97848008Y-65151992D03*
X96751992Y-66248008D03*
D29*
X93100000Y-86000000D03*
X93100000Y-84400000D03*
X97200000Y-84400000D03*
X97200000Y-86000000D03*
D30*
X89400000Y-96530000D03*
X89400000Y-93990000D03*
X89400000Y-91450000D03*
X89400000Y-88910000D03*
X89400000Y-86370000D03*
X89400000Y-83830000D03*
X89400000Y-81290000D03*
D31*
X95800000Y-62562500D03*
X97700000Y-62562500D03*
D32*
X99610000Y-92150000D03*
X99610000Y-96050000D03*
X98340000Y-92150000D03*
X98340000Y-96050000D03*
X97070000Y-92150000D03*
X97070000Y-96050000D03*
X95800000Y-92150000D03*
X95800000Y-96050000D03*
X94530000Y-92150000D03*
X94530000Y-96050000D03*
X93260000Y-92150000D03*
X93260000Y-96050000D03*
X91990000Y-92150000D03*
X91990000Y-96050000D03*
D33*
X95800000Y-61000000D03*
X95800000Y-59125000D03*
D34*
X98539411Y-65960589D03*
X97860589Y-66639411D03*
D35*
X102560589Y-78139411D03*
X103239411Y-77460589D03*
D36*
X89560978Y-50510000D03*
X88540978Y-50510000D03*
D37*
X99730000Y-86740000D03*
X100690000Y-86740000D03*
D34*
X99860978Y-66810000D03*
X99182156Y-67488822D03*
D33*
X89000000Y-53747500D03*
X89000000Y-51872500D03*
D38*
X92421567Y-82170589D03*
X93100389Y-82849411D03*
D33*
X102300000Y-53737500D03*
X102300000Y-51862500D03*
D29*
X93100000Y-87600000D03*
X93100000Y-89200000D03*
X97200000Y-89200000D03*
X97200000Y-87600000D03*
D39*
X99910978Y-82890000D03*
X98950978Y-82890000D03*
D34*
X100660978Y-67610000D03*
X99982156Y-68288822D03*
D40*
X102750000Y-57500000D03*
X100850000Y-57500000D03*
D41*
X101260978Y-97020000D03*
X101260978Y-96000000D03*
D42*
X94199797Y-81474481D03*
X93846244Y-81120928D03*
X93492691Y-80767375D03*
X93139137Y-80413821D03*
X92785584Y-80060268D03*
X92432030Y-79706714D03*
X92078477Y-79353161D03*
X91724924Y-78999608D03*
X91371370Y-78646054D03*
X91017817Y-78292501D03*
X90664264Y-77938948D03*
X90310710Y-77585394D03*
X89957157Y-77231841D03*
X89603603Y-76878287D03*
X89250050Y-76524734D03*
X88896497Y-76171181D03*
D43*
X88896497Y-73448819D03*
X89250050Y-73095266D03*
X89603603Y-72741713D03*
X89957157Y-72388159D03*
X90310710Y-72034606D03*
X90664264Y-71681052D03*
X91017817Y-71327499D03*
X91371370Y-70973946D03*
X91724924Y-70620392D03*
X92078477Y-70266839D03*
X92432030Y-69913286D03*
X92785584Y-69559732D03*
X93139137Y-69206179D03*
X93492691Y-68852625D03*
X93846244Y-68499072D03*
X94199797Y-68145519D03*
D42*
X96922159Y-68145519D03*
X97275712Y-68499072D03*
X97629265Y-68852625D03*
X97982819Y-69206179D03*
X98336372Y-69559732D03*
X98689926Y-69913286D03*
X99043479Y-70266839D03*
X99397032Y-70620392D03*
X99750586Y-70973946D03*
X100104139Y-71327499D03*
X100457692Y-71681052D03*
X100811246Y-72034606D03*
X101164799Y-72388159D03*
X101518353Y-72741713D03*
X101871906Y-73095266D03*
X102225459Y-73448819D03*
D43*
X102225459Y-76171181D03*
X101871906Y-76524734D03*
X101518353Y-76878287D03*
X101164799Y-77231841D03*
X100811246Y-77585394D03*
X100457692Y-77938948D03*
X100104139Y-78292501D03*
X99750586Y-78646054D03*
X99397032Y-78999608D03*
X99043479Y-79353161D03*
X98689926Y-79706714D03*
X98336372Y-80060268D03*
X97982819Y-80413821D03*
X97629265Y-80767375D03*
X97275712Y-81120928D03*
X96922159Y-81474481D03*
D44*
X88966978Y-55165000D03*
D45*
X88966978Y-56615000D03*
D34*
X88100389Y-71770589D03*
X87421567Y-72449411D03*
D30*
X89300000Y-58430000D03*
X89300000Y-60970000D03*
X89300000Y-63510000D03*
X89300000Y-66050000D03*
X89400000Y-68590000D03*
D46*
X91280000Y-50790000D03*
D47*
X99920000Y-54970000D03*
D46*
X99920000Y-50790000D03*
D47*
X91280000Y-54970000D03*
D48*
X98850000Y-55885000D03*
X98050000Y-55885000D03*
D49*
X97350000Y-55885000D03*
X96350000Y-55885000D03*
X94850000Y-55885000D03*
X93850000Y-55885000D03*
D48*
X93150000Y-55885000D03*
X92350000Y-55885000D03*
X92350000Y-55885000D03*
X93150000Y-55885000D03*
D49*
X94350000Y-55885000D03*
X95350000Y-55885000D03*
X95850000Y-55885000D03*
X96850000Y-55885000D03*
D48*
X98050000Y-55885000D03*
X98850000Y-55885000D03*
D50*
X98490000Y-54440000D03*
X92710000Y-54440000D03*
M02*
