G04 #@! TF.GenerationSoftware,KiCad,Pcbnew,6.0.1-79c1e3a40b~116~ubuntu20.04.1*
G04 #@! TF.CreationDate,2022-07-08T20:10:08+02:00*
G04 #@! TF.ProjectId,microcontroller_mini,6d696372-6f63-46f6-9e74-726f6c6c6572,rev?*
G04 #@! TF.SameCoordinates,Original*
G04 #@! TF.FileFunction,Soldermask,Bot*
G04 #@! TF.FilePolarity,Negative*
%FSLAX46Y46*%
G04 Gerber Fmt 4.6, Leading zero omitted, Abs format (unit mm)*
G04 Created by KiCad (PCBNEW 6.0.1-79c1e3a40b~116~ubuntu20.04.1) date 2022-07-08 20:10:08*
%MOMM*%
%LPD*%
G01*
G04 APERTURE LIST*
%ADD10O,2.400000X1.600000*%
%ADD11R,1.000000X1.600000*%
%ADD12R,1.600000X1.000000*%
%ADD13O,1.600000X2.400000*%
%ADD14C,1.500000*%
%ADD15O,1.000000X1.600000*%
%ADD16O,1.000000X2.100000*%
%ADD17C,0.650000*%
G04 APERTURE END LIST*
D10*
X104860978Y-50810000D03*
D11*
X105660978Y-50810000D03*
D10*
X104860978Y-53350000D03*
D11*
X105660978Y-53350000D03*
X105660978Y-55890000D03*
D10*
X104860978Y-55890000D03*
D11*
X105660978Y-58430000D03*
D10*
X104860978Y-58430000D03*
D11*
X105660978Y-60970000D03*
D10*
X104860978Y-60970000D03*
X104860978Y-63510000D03*
D11*
X105660978Y-63510000D03*
X105660978Y-66050000D03*
D10*
X104860978Y-66050000D03*
X104860978Y-68590000D03*
D11*
X105660978Y-68590000D03*
X105660978Y-71130000D03*
D10*
X104860978Y-71130000D03*
X104860978Y-73670000D03*
D11*
X105660978Y-73670000D03*
D10*
X104860978Y-76210000D03*
D11*
X105660978Y-76210000D03*
D10*
X104860978Y-78750000D03*
D11*
X105660978Y-78750000D03*
D10*
X104860978Y-81290000D03*
D11*
X105660978Y-81290000D03*
X105660978Y-83830000D03*
D10*
X104860978Y-83830000D03*
D11*
X105660978Y-86370000D03*
D10*
X104860978Y-86370000D03*
X104860978Y-88910000D03*
D11*
X105660978Y-88910000D03*
X105660978Y-91450000D03*
D10*
X104860978Y-91450000D03*
X104860978Y-93990000D03*
D11*
X105660978Y-93990000D03*
D10*
X104860978Y-96530000D03*
D11*
X105660978Y-96530000D03*
X105660978Y-99070000D03*
D10*
X104860978Y-99070000D03*
D12*
X102010978Y-99810000D03*
D13*
X102010978Y-99010000D03*
X99470978Y-99010000D03*
D12*
X99470978Y-99810000D03*
X96930978Y-99810000D03*
D13*
X96930978Y-99010000D03*
D12*
X94390978Y-99810000D03*
D13*
X94390978Y-99010000D03*
D12*
X91850978Y-99810000D03*
D13*
X91850978Y-99010000D03*
D12*
X89310978Y-99810000D03*
D13*
X89310978Y-99010000D03*
D10*
X86460978Y-99070000D03*
D11*
X85660978Y-99070000D03*
D10*
X86460978Y-96530000D03*
D11*
X85660978Y-96530000D03*
X85660978Y-93990000D03*
D10*
X86460978Y-93990000D03*
X86460978Y-91450000D03*
D11*
X85660978Y-91450000D03*
D10*
X86460978Y-88910000D03*
D11*
X85660978Y-88910000D03*
D10*
X86460978Y-86370000D03*
D11*
X85660978Y-86370000D03*
D10*
X86460978Y-83830000D03*
D11*
X85660978Y-83830000D03*
D10*
X86460978Y-81290000D03*
D11*
X85660978Y-81290000D03*
X85660978Y-78750000D03*
D10*
X86460978Y-78750000D03*
X86460978Y-76210000D03*
D11*
X85660978Y-76210000D03*
X85660978Y-73670000D03*
D10*
X86460978Y-73670000D03*
D11*
X85660978Y-71130000D03*
D10*
X86460978Y-71130000D03*
D11*
X85660978Y-68590000D03*
D10*
X86460978Y-68590000D03*
D11*
X85660978Y-66050000D03*
D10*
X86460978Y-66050000D03*
D11*
X85660978Y-63510000D03*
D10*
X86460978Y-63510000D03*
D11*
X85660978Y-60970000D03*
D10*
X86460978Y-60970000D03*
D11*
X85660978Y-58430000D03*
D10*
X86460978Y-58430000D03*
X86460978Y-55890000D03*
D11*
X85660978Y-55890000D03*
D10*
X86460978Y-53350000D03*
D11*
X85660978Y-53350000D03*
X85660978Y-50810000D03*
D10*
X86460978Y-50810000D03*
D14*
X89400000Y-96530000D03*
X89400000Y-93990000D03*
X89400000Y-91450000D03*
X89400000Y-88910000D03*
X89400000Y-86370000D03*
X89400000Y-83830000D03*
X89400000Y-81290000D03*
X89300000Y-58430000D03*
X89300000Y-60970000D03*
X89300000Y-63510000D03*
X89300000Y-66050000D03*
X89400000Y-68590000D03*
D15*
X91280000Y-50790000D03*
D16*
X99920000Y-54970000D03*
D15*
X99920000Y-50790000D03*
D16*
X91280000Y-54970000D03*
D17*
X98490000Y-54440000D03*
X92710000Y-54440000D03*
M02*
