G04 #@! TF.GenerationSoftware,KiCad,Pcbnew,6.0.1-79c1e3a40b~116~ubuntu20.04.1*
G04 #@! TF.CreationDate,2022-02-11T17:49:30+01:00*
G04 #@! TF.ProjectId,Feeder,46656564-6572-42e6-9b69-6361645f7063,rev?*
G04 #@! TF.SameCoordinates,Original*
G04 #@! TF.FileFunction,Legend,Top*
G04 #@! TF.FilePolarity,Positive*
%FSLAX46Y46*%
G04 Gerber Fmt 4.6, Leading zero omitted, Abs format (unit mm)*
G04 Created by KiCad (PCBNEW 6.0.1-79c1e3a40b~116~ubuntu20.04.1) date 2022-02-11 17:49:30*
%MOMM*%
%LPD*%
G01*
G04 APERTURE LIST*
G04 Aperture macros list*
%AMRoundRect*
0 Rectangle with rounded corners*
0 $1 Rounding radius*
0 $2 $3 $4 $5 $6 $7 $8 $9 X,Y pos of 4 corners*
0 Add a 4 corners polygon primitive as box body*
4,1,4,$2,$3,$4,$5,$6,$7,$8,$9,$2,$3,0*
0 Add four circle primitives for the rounded corners*
1,1,$1+$1,$2,$3*
1,1,$1+$1,$4,$5*
1,1,$1+$1,$6,$7*
1,1,$1+$1,$8,$9*
0 Add four rect primitives between the rounded corners*
20,1,$1+$1,$2,$3,$4,$5,0*
20,1,$1+$1,$4,$5,$6,$7,0*
20,1,$1+$1,$6,$7,$8,$9,0*
20,1,$1+$1,$8,$9,$2,$3,0*%
G04 Aperture macros list end*
%ADD10C,0.150000*%
%ADD11C,0.120000*%
%ADD12C,2.000000*%
%ADD13RoundRect,0.250000X0.250000X0.475000X-0.250000X0.475000X-0.250000X-0.475000X0.250000X-0.475000X0*%
%ADD14RoundRect,0.305000X-0.305000X-0.965000X0.305000X-0.965000X0.305000X0.965000X-0.305000X0.965000X0*%
%ADD15RoundRect,0.250000X-0.325000X-1.100000X0.325000X-1.100000X0.325000X1.100000X-0.325000X1.100000X0*%
%ADD16RoundRect,0.250000X-1.750000X-1.000000X1.750000X-1.000000X1.750000X1.000000X-1.750000X1.000000X0*%
%ADD17RoundRect,0.250000X-0.450000X0.262500X-0.450000X-0.262500X0.450000X-0.262500X0.450000X0.262500X0*%
%ADD18RoundRect,0.250000X-0.262500X-0.450000X0.262500X-0.450000X0.262500X0.450000X-0.262500X0.450000X0*%
%ADD19RoundRect,0.250000X0.450000X-0.262500X0.450000X0.262500X-0.450000X0.262500X-0.450000X-0.262500X0*%
%ADD20R,0.600000X0.450000*%
%ADD21RoundRect,0.250000X-0.475000X0.250000X-0.475000X-0.250000X0.475000X-0.250000X0.475000X0.250000X0*%
%ADD22RoundRect,0.249999X1.450001X-0.450001X1.450001X0.450001X-1.450001X0.450001X-1.450001X-0.450001X0*%
%ADD23R,1.800000X2.500000*%
%ADD24RoundRect,0.250000X0.262500X0.450000X-0.262500X0.450000X-0.262500X-0.450000X0.262500X-0.450000X0*%
%ADD25RoundRect,0.250000X-0.250000X-0.475000X0.250000X-0.475000X0.250000X0.475000X-0.250000X0.475000X0*%
%ADD26R,1.400000X0.300000*%
%ADD27C,1.000000*%
%ADD28RoundRect,0.750000X-0.750000X-0.750000X0.750000X-0.750000X0.750000X0.750000X-0.750000X0.750000X0*%
%ADD29RoundRect,0.150000X-0.150000X0.587500X-0.150000X-0.587500X0.150000X-0.587500X0.150000X0.587500X0*%
%ADD30R,2.300000X2.500000*%
%ADD31RoundRect,0.250000X0.325000X1.100000X-0.325000X1.100000X-0.325000X-1.100000X0.325000X-1.100000X0*%
%ADD32RoundRect,0.250000X-1.500000X-1.000000X1.500000X-1.000000X1.500000X1.000000X-1.500000X1.000000X0*%
%ADD33R,0.640000X2.000000*%
%ADD34RoundRect,0.250000X-1.075000X0.312500X-1.075000X-0.312500X1.075000X-0.312500X1.075000X0.312500X0*%
%ADD35R,2.200000X1.200000*%
%ADD36R,6.400000X5.800000*%
G04 APERTURE END LIST*
D10*
X48200000Y-42600000D02*
X85400000Y-42600000D01*
X48200000Y-44400000D02*
X85400000Y-44400000D01*
X76059404Y-23647380D02*
X75487976Y-23647380D01*
X75773690Y-23647380D02*
X75773690Y-22647380D01*
X75678452Y-22790238D01*
X75583214Y-22885476D01*
X75487976Y-22933095D01*
X77011785Y-23647380D02*
X76440357Y-23647380D01*
X76726071Y-23647380D02*
X76726071Y-22647380D01*
X76630833Y-22790238D01*
X76535595Y-22885476D01*
X76440357Y-22933095D01*
X77440357Y-23266428D02*
X78202261Y-23266428D01*
X79202261Y-23647380D02*
X78630833Y-23647380D01*
X78916547Y-23647380D02*
X78916547Y-22647380D01*
X78821309Y-22790238D01*
X78726071Y-22885476D01*
X78630833Y-22933095D01*
X79583214Y-22742619D02*
X79630833Y-22695000D01*
X79726071Y-22647380D01*
X79964166Y-22647380D01*
X80059404Y-22695000D01*
X80107023Y-22742619D01*
X80154642Y-22837857D01*
X80154642Y-22933095D01*
X80107023Y-23075952D01*
X79535595Y-23647380D01*
X80154642Y-23647380D01*
X80773690Y-22647380D02*
X80868928Y-22647380D01*
X80964166Y-22695000D01*
X81011785Y-22742619D01*
X81059404Y-22837857D01*
X81107023Y-23028333D01*
X81107023Y-23266428D01*
X81059404Y-23456904D01*
X81011785Y-23552142D01*
X80964166Y-23599761D01*
X80868928Y-23647380D01*
X80773690Y-23647380D01*
X80678452Y-23599761D01*
X80630833Y-23552142D01*
X80583214Y-23456904D01*
X80535595Y-23266428D01*
X80535595Y-23028333D01*
X80583214Y-22837857D01*
X80630833Y-22742619D01*
X80678452Y-22695000D01*
X80773690Y-22647380D01*
X81392738Y-22647380D02*
X81726071Y-23647380D01*
X82059404Y-22647380D01*
X82392738Y-23647380D02*
X82392738Y-22647380D01*
X82868928Y-23647380D02*
X82868928Y-22647380D01*
X83440357Y-23647380D01*
X83440357Y-22647380D01*
X75583214Y-25257380D02*
X75773690Y-25257380D01*
X75868928Y-25209761D01*
X75916547Y-25162142D01*
X76011785Y-25019285D01*
X76059404Y-24828809D01*
X76059404Y-24447857D01*
X76011785Y-24352619D01*
X75964166Y-24305000D01*
X75868928Y-24257380D01*
X75678452Y-24257380D01*
X75583214Y-24305000D01*
X75535595Y-24352619D01*
X75487976Y-24447857D01*
X75487976Y-24685952D01*
X75535595Y-24781190D01*
X75583214Y-24828809D01*
X75678452Y-24876428D01*
X75868928Y-24876428D01*
X75964166Y-24828809D01*
X76011785Y-24781190D01*
X76059404Y-24685952D01*
X76345119Y-24257380D02*
X76678452Y-25257380D01*
X77011785Y-24257380D01*
X77535595Y-24257380D02*
X77726071Y-24257380D01*
X77821309Y-24305000D01*
X77916547Y-24400238D01*
X77964166Y-24590714D01*
X77964166Y-24924047D01*
X77916547Y-25114523D01*
X77821309Y-25209761D01*
X77726071Y-25257380D01*
X77535595Y-25257380D01*
X77440357Y-25209761D01*
X77345119Y-25114523D01*
X77297500Y-24924047D01*
X77297500Y-24590714D01*
X77345119Y-24400238D01*
X77440357Y-24305000D01*
X77535595Y-24257380D01*
X78392738Y-24257380D02*
X78392738Y-25066904D01*
X78440357Y-25162142D01*
X78487976Y-25209761D01*
X78583214Y-25257380D01*
X78773690Y-25257380D01*
X78868928Y-25209761D01*
X78916547Y-25162142D01*
X78964166Y-25066904D01*
X78964166Y-24257380D01*
X79297500Y-24257380D02*
X79868928Y-24257380D01*
X79583214Y-25257380D02*
X79583214Y-24257380D01*
X80821309Y-24781190D02*
X80773690Y-24733571D01*
X80678452Y-24685952D01*
X80583214Y-24685952D01*
X80487976Y-24733571D01*
X80440357Y-24781190D01*
X80392738Y-24876428D01*
X80392738Y-24971666D01*
X80440357Y-25066904D01*
X80487976Y-25114523D01*
X80583214Y-25162142D01*
X80678452Y-25162142D01*
X80773690Y-25114523D01*
X80821309Y-25066904D01*
X80821309Y-24685952D02*
X80821309Y-25066904D01*
X80868928Y-25114523D01*
X80916547Y-25114523D01*
X81011785Y-25066904D01*
X81059404Y-24971666D01*
X81059404Y-24733571D01*
X80964166Y-24590714D01*
X80821309Y-24495476D01*
X80630833Y-24447857D01*
X80440357Y-24495476D01*
X80297500Y-24590714D01*
X80202261Y-24733571D01*
X80154642Y-24924047D01*
X80202261Y-25114523D01*
X80297500Y-25257380D01*
X80440357Y-25352619D01*
X80630833Y-25400238D01*
X80821309Y-25352619D01*
X80964166Y-25257380D01*
X81678452Y-24257380D02*
X81773690Y-24257380D01*
X81868928Y-24305000D01*
X81916547Y-24352619D01*
X81964166Y-24447857D01*
X82011785Y-24638333D01*
X82011785Y-24876428D01*
X81964166Y-25066904D01*
X81916547Y-25162142D01*
X81868928Y-25209761D01*
X81773690Y-25257380D01*
X81678452Y-25257380D01*
X81583214Y-25209761D01*
X81535595Y-25162142D01*
X81487976Y-25066904D01*
X81440357Y-24876428D01*
X81440357Y-24638333D01*
X81487976Y-24447857D01*
X81535595Y-24352619D01*
X81583214Y-24305000D01*
X81678452Y-24257380D01*
X82440357Y-25162142D02*
X82487976Y-25209761D01*
X82440357Y-25257380D01*
X82392738Y-25209761D01*
X82440357Y-25162142D01*
X82440357Y-25257380D01*
X83392738Y-24257380D02*
X82916547Y-24257380D01*
X82868928Y-24733571D01*
X82916547Y-24685952D01*
X83011785Y-24638333D01*
X83249880Y-24638333D01*
X83345119Y-24685952D01*
X83392738Y-24733571D01*
X83440357Y-24828809D01*
X83440357Y-25066904D01*
X83392738Y-25162142D01*
X83345119Y-25209761D01*
X83249880Y-25257380D01*
X83011785Y-25257380D01*
X82916547Y-25209761D01*
X82868928Y-25162142D01*
X83821309Y-24971666D02*
X84297500Y-24971666D01*
X83726071Y-25257380D02*
X84059404Y-24257380D01*
X84392738Y-25257380D01*
X70907023Y-75157142D02*
X70859404Y-75204761D01*
X70716547Y-75252380D01*
X70621309Y-75252380D01*
X70478452Y-75204761D01*
X70383214Y-75109523D01*
X70335595Y-75014285D01*
X70287976Y-74823809D01*
X70287976Y-74680952D01*
X70335595Y-74490476D01*
X70383214Y-74395238D01*
X70478452Y-74300000D01*
X70621309Y-74252380D01*
X70716547Y-74252380D01*
X70859404Y-74300000D01*
X70907023Y-74347619D01*
X71335595Y-74728571D02*
X71668928Y-74728571D01*
X71811785Y-75252380D02*
X71335595Y-75252380D01*
X71335595Y-74252380D01*
X71811785Y-74252380D01*
X72811785Y-75252380D02*
X72478452Y-74776190D01*
X72240357Y-75252380D02*
X72240357Y-74252380D01*
X72621309Y-74252380D01*
X72716547Y-74300000D01*
X72764166Y-74347619D01*
X72811785Y-74442857D01*
X72811785Y-74585714D01*
X72764166Y-74680952D01*
X72716547Y-74728571D01*
X72621309Y-74776190D01*
X72240357Y-74776190D01*
X73240357Y-75252380D02*
X73240357Y-74252380D01*
X73811785Y-75252380D01*
X73811785Y-74252380D01*
X74287976Y-74871428D02*
X75049880Y-74871428D01*
X75716547Y-74252380D02*
X75907023Y-74252380D01*
X76002261Y-74300000D01*
X76097500Y-74395238D01*
X76145119Y-74585714D01*
X76145119Y-74919047D01*
X76097500Y-75109523D01*
X76002261Y-75204761D01*
X75907023Y-75252380D01*
X75716547Y-75252380D01*
X75621309Y-75204761D01*
X75526071Y-75109523D01*
X75478452Y-74919047D01*
X75478452Y-74585714D01*
X75526071Y-74395238D01*
X75621309Y-74300000D01*
X75716547Y-74252380D01*
X76573690Y-75252380D02*
X76573690Y-74252380D01*
X76573690Y-74728571D02*
X77145119Y-74728571D01*
X77145119Y-75252380D02*
X77145119Y-74252380D01*
X78097500Y-75252380D02*
X77621309Y-75252380D01*
X77621309Y-74252380D01*
X78430833Y-74871428D02*
X79192738Y-74871428D01*
X79621309Y-75204761D02*
X79764166Y-75252380D01*
X80002261Y-75252380D01*
X80097500Y-75204761D01*
X80145119Y-75157142D01*
X80192738Y-75061904D01*
X80192738Y-74966666D01*
X80145119Y-74871428D01*
X80097500Y-74823809D01*
X80002261Y-74776190D01*
X79811785Y-74728571D01*
X79716547Y-74680952D01*
X79668928Y-74633333D01*
X79621309Y-74538095D01*
X79621309Y-74442857D01*
X79668928Y-74347619D01*
X79716547Y-74300000D01*
X79811785Y-74252380D01*
X80049880Y-74252380D01*
X80192738Y-74300000D01*
X80621309Y-74871428D02*
X81383214Y-74871428D01*
X81716547Y-74252380D02*
X82049880Y-75252380D01*
X82383214Y-74252380D01*
X82668928Y-74347619D02*
X82716547Y-74300000D01*
X82811785Y-74252380D01*
X83049880Y-74252380D01*
X83145119Y-74300000D01*
X83192738Y-74347619D01*
X83240357Y-74442857D01*
X83240357Y-74538095D01*
X83192738Y-74680952D01*
X82621309Y-75252380D01*
X83240357Y-75252380D01*
X70668928Y-71523571D02*
X70335595Y-71523571D01*
X70335595Y-72047380D02*
X70335595Y-71047380D01*
X70811785Y-71047380D01*
X71573690Y-71999761D02*
X71478452Y-72047380D01*
X71287976Y-72047380D01*
X71192738Y-71999761D01*
X71145119Y-71904523D01*
X71145119Y-71523571D01*
X71192738Y-71428333D01*
X71287976Y-71380714D01*
X71478452Y-71380714D01*
X71573690Y-71428333D01*
X71621309Y-71523571D01*
X71621309Y-71618809D01*
X71145119Y-71714047D01*
X72430833Y-71999761D02*
X72335595Y-72047380D01*
X72145119Y-72047380D01*
X72049880Y-71999761D01*
X72002261Y-71904523D01*
X72002261Y-71523571D01*
X72049880Y-71428333D01*
X72145119Y-71380714D01*
X72335595Y-71380714D01*
X72430833Y-71428333D01*
X72478452Y-71523571D01*
X72478452Y-71618809D01*
X72002261Y-71714047D01*
X73335595Y-72047380D02*
X73335595Y-71047380D01*
X73335595Y-71999761D02*
X73240357Y-72047380D01*
X73049880Y-72047380D01*
X72954642Y-71999761D01*
X72907023Y-71952142D01*
X72859404Y-71856904D01*
X72859404Y-71571190D01*
X72907023Y-71475952D01*
X72954642Y-71428333D01*
X73049880Y-71380714D01*
X73240357Y-71380714D01*
X73335595Y-71428333D01*
X74192738Y-71999761D02*
X74097500Y-72047380D01*
X73907023Y-72047380D01*
X73811785Y-71999761D01*
X73764166Y-71904523D01*
X73764166Y-71523571D01*
X73811785Y-71428333D01*
X73907023Y-71380714D01*
X74097500Y-71380714D01*
X74192738Y-71428333D01*
X74240357Y-71523571D01*
X74240357Y-71618809D01*
X73764166Y-71714047D01*
X74668928Y-72047380D02*
X74668928Y-71380714D01*
X74668928Y-71571190D02*
X74716547Y-71475952D01*
X74764166Y-71428333D01*
X74859404Y-71380714D01*
X74954642Y-71380714D01*
X75907023Y-71047380D02*
X76240357Y-72047380D01*
X76573690Y-71047380D01*
X77430833Y-72047380D02*
X76859404Y-72047380D01*
X77145119Y-72047380D02*
X77145119Y-71047380D01*
X77049880Y-71190238D01*
X76954642Y-71285476D01*
X76859404Y-71333095D01*
X77859404Y-71952142D02*
X77907023Y-71999761D01*
X77859404Y-72047380D01*
X77811785Y-71999761D01*
X77859404Y-71952142D01*
X77859404Y-72047380D01*
X78526071Y-71047380D02*
X78621309Y-71047380D01*
X78716547Y-71095000D01*
X78764166Y-71142619D01*
X78811785Y-71237857D01*
X78859404Y-71428333D01*
X78859404Y-71666428D01*
X78811785Y-71856904D01*
X78764166Y-71952142D01*
X78716547Y-71999761D01*
X78621309Y-72047380D01*
X78526071Y-72047380D01*
X78430833Y-71999761D01*
X78383214Y-71952142D01*
X78335595Y-71856904D01*
X78287976Y-71666428D01*
X78287976Y-71428333D01*
X78335595Y-71237857D01*
X78383214Y-71142619D01*
X78430833Y-71095000D01*
X78526071Y-71047380D01*
X70335595Y-73657380D02*
X70335595Y-72657380D01*
X70335595Y-73038333D02*
X70430833Y-72990714D01*
X70621309Y-72990714D01*
X70716547Y-73038333D01*
X70764166Y-73085952D01*
X70811785Y-73181190D01*
X70811785Y-73466904D01*
X70764166Y-73562142D01*
X70716547Y-73609761D01*
X70621309Y-73657380D01*
X70430833Y-73657380D01*
X70335595Y-73609761D01*
X71145119Y-72990714D02*
X71383214Y-73657380D01*
X71621309Y-72990714D02*
X71383214Y-73657380D01*
X71287976Y-73895476D01*
X71240357Y-73943095D01*
X71145119Y-73990714D01*
X72954642Y-72657380D02*
X73145119Y-72657380D01*
X73240357Y-72705000D01*
X73335595Y-72800238D01*
X73383214Y-72990714D01*
X73383214Y-73324047D01*
X73335595Y-73514523D01*
X73240357Y-73609761D01*
X73145119Y-73657380D01*
X72954642Y-73657380D01*
X72859404Y-73609761D01*
X72764166Y-73514523D01*
X72716547Y-73324047D01*
X72716547Y-72990714D01*
X72764166Y-72800238D01*
X72859404Y-72705000D01*
X72954642Y-72657380D01*
X73716547Y-72990714D02*
X73907023Y-73657380D01*
X74097500Y-73181190D01*
X74287976Y-73657380D01*
X74478452Y-72990714D01*
X74859404Y-72990714D02*
X74859404Y-73657380D01*
X74859404Y-73085952D02*
X74907023Y-73038333D01*
X75002261Y-72990714D01*
X75145119Y-72990714D01*
X75240357Y-73038333D01*
X75287976Y-73133571D01*
X75287976Y-73657380D01*
X75621309Y-72657380D02*
X76192738Y-72657380D01*
X75907023Y-73657380D02*
X75907023Y-72657380D01*
X76907023Y-73609761D02*
X76811785Y-73657380D01*
X76621309Y-73657380D01*
X76526071Y-73609761D01*
X76478452Y-73514523D01*
X76478452Y-73133571D01*
X76526071Y-73038333D01*
X76621309Y-72990714D01*
X76811785Y-72990714D01*
X76907023Y-73038333D01*
X76954642Y-73133571D01*
X76954642Y-73228809D01*
X76478452Y-73324047D01*
X77811785Y-73609761D02*
X77716547Y-73657380D01*
X77526071Y-73657380D01*
X77430833Y-73609761D01*
X77383214Y-73562142D01*
X77335595Y-73466904D01*
X77335595Y-73181190D01*
X77383214Y-73085952D01*
X77430833Y-73038333D01*
X77526071Y-72990714D01*
X77716547Y-72990714D01*
X77811785Y-73038333D01*
X78240357Y-73657380D02*
X78240357Y-72657380D01*
X78668928Y-73657380D02*
X78668928Y-73133571D01*
X78621309Y-73038333D01*
X78526071Y-72990714D01*
X78383214Y-72990714D01*
X78287976Y-73038333D01*
X78240357Y-73085952D01*
X79764166Y-72657380D02*
X80335595Y-72657380D01*
X80049880Y-73657380D02*
X80049880Y-72657380D01*
X81049880Y-73609761D02*
X80954642Y-73657380D01*
X80764166Y-73657380D01*
X80668928Y-73609761D01*
X80621309Y-73514523D01*
X80621309Y-73133571D01*
X80668928Y-73038333D01*
X80764166Y-72990714D01*
X80954642Y-72990714D01*
X81049880Y-73038333D01*
X81097500Y-73133571D01*
X81097500Y-73228809D01*
X80621309Y-73324047D01*
X81954642Y-73657380D02*
X81954642Y-73133571D01*
X81907023Y-73038333D01*
X81811785Y-72990714D01*
X81621309Y-72990714D01*
X81526071Y-73038333D01*
X81954642Y-73609761D02*
X81859404Y-73657380D01*
X81621309Y-73657380D01*
X81526071Y-73609761D01*
X81478452Y-73514523D01*
X81478452Y-73419285D01*
X81526071Y-73324047D01*
X81621309Y-73276428D01*
X81859404Y-73276428D01*
X81954642Y-73228809D01*
X82430833Y-73657380D02*
X82430833Y-72990714D01*
X82430833Y-73085952D02*
X82478452Y-73038333D01*
X82573690Y-72990714D01*
X82716547Y-72990714D01*
X82811785Y-73038333D01*
X82859404Y-73133571D01*
X82859404Y-73657380D01*
X82859404Y-73133571D02*
X82907023Y-73038333D01*
X83002261Y-72990714D01*
X83145119Y-72990714D01*
X83240357Y-73038333D01*
X83287976Y-73133571D01*
X83287976Y-73657380D01*
X58638095Y-22652380D02*
X58971428Y-23652380D01*
X59304761Y-22652380D01*
X59828571Y-22652380D02*
X60019047Y-22652380D01*
X60114285Y-22700000D01*
X60209523Y-22795238D01*
X60257142Y-22985714D01*
X60257142Y-23319047D01*
X60209523Y-23509523D01*
X60114285Y-23604761D01*
X60019047Y-23652380D01*
X59828571Y-23652380D01*
X59733333Y-23604761D01*
X59638095Y-23509523D01*
X59590476Y-23319047D01*
X59590476Y-22985714D01*
X59638095Y-22795238D01*
X59733333Y-22700000D01*
X59828571Y-22652380D01*
X60685714Y-22652380D02*
X60685714Y-23461904D01*
X60733333Y-23557142D01*
X60780952Y-23604761D01*
X60876190Y-23652380D01*
X61066666Y-23652380D01*
X61161904Y-23604761D01*
X61209523Y-23557142D01*
X61257142Y-23461904D01*
X61257142Y-22652380D01*
X61590476Y-22652380D02*
X62161904Y-22652380D01*
X61876190Y-23652380D02*
X61876190Y-22652380D01*
X84557142Y-65642857D02*
X84604761Y-65690476D01*
X84652380Y-65833333D01*
X84652380Y-65928571D01*
X84604761Y-66071428D01*
X84509523Y-66166666D01*
X84414285Y-66214285D01*
X84223809Y-66261904D01*
X84080952Y-66261904D01*
X83890476Y-66214285D01*
X83795238Y-66166666D01*
X83700000Y-66071428D01*
X83652380Y-65928571D01*
X83652380Y-65833333D01*
X83700000Y-65690476D01*
X83747619Y-65642857D01*
X83747619Y-65261904D02*
X83700000Y-65214285D01*
X83652380Y-65119047D01*
X83652380Y-64880952D01*
X83700000Y-64785714D01*
X83747619Y-64738095D01*
X83842857Y-64690476D01*
X83938095Y-64690476D01*
X84080952Y-64738095D01*
X84652380Y-65309523D01*
X84652380Y-64690476D01*
X83747619Y-64309523D02*
X83700000Y-64261904D01*
X83652380Y-64166666D01*
X83652380Y-63928571D01*
X83700000Y-63833333D01*
X83747619Y-63785714D01*
X83842857Y-63738095D01*
X83938095Y-63738095D01*
X84080952Y-63785714D01*
X84652380Y-64357142D01*
X84652380Y-63738095D01*
X54638095Y-43052380D02*
X55209523Y-43052380D01*
X54923809Y-44052380D02*
X54923809Y-43052380D01*
X56066666Y-44052380D02*
X55495238Y-44052380D01*
X55780952Y-44052380D02*
X55780952Y-43052380D01*
X55685714Y-43195238D01*
X55590476Y-43290476D01*
X55495238Y-43338095D01*
X62757142Y-63242857D02*
X62804761Y-63290476D01*
X62852380Y-63433333D01*
X62852380Y-63528571D01*
X62804761Y-63671428D01*
X62709523Y-63766666D01*
X62614285Y-63814285D01*
X62423809Y-63861904D01*
X62280952Y-63861904D01*
X62090476Y-63814285D01*
X61995238Y-63766666D01*
X61900000Y-63671428D01*
X61852380Y-63528571D01*
X61852380Y-63433333D01*
X61900000Y-63290476D01*
X61947619Y-63242857D01*
X61947619Y-62861904D02*
X61900000Y-62814285D01*
X61852380Y-62719047D01*
X61852380Y-62480952D01*
X61900000Y-62385714D01*
X61947619Y-62338095D01*
X62042857Y-62290476D01*
X62138095Y-62290476D01*
X62280952Y-62338095D01*
X62852380Y-62909523D01*
X62852380Y-62290476D01*
X61852380Y-61671428D02*
X61852380Y-61576190D01*
X61900000Y-61480952D01*
X61947619Y-61433333D01*
X62042857Y-61385714D01*
X62233333Y-61338095D01*
X62471428Y-61338095D01*
X62661904Y-61385714D01*
X62757142Y-61433333D01*
X62804761Y-61480952D01*
X62852380Y-61576190D01*
X62852380Y-61671428D01*
X62804761Y-61766666D01*
X62757142Y-61814285D01*
X62661904Y-61861904D01*
X62471428Y-61909523D01*
X62233333Y-61909523D01*
X62042857Y-61861904D01*
X61947619Y-61814285D01*
X61900000Y-61766666D01*
X61852380Y-61671428D01*
X67033333Y-71357142D02*
X66985714Y-71404761D01*
X66842857Y-71452380D01*
X66747619Y-71452380D01*
X66604761Y-71404761D01*
X66509523Y-71309523D01*
X66461904Y-71214285D01*
X66414285Y-71023809D01*
X66414285Y-70880952D01*
X66461904Y-70690476D01*
X66509523Y-70595238D01*
X66604761Y-70500000D01*
X66747619Y-70452380D01*
X66842857Y-70452380D01*
X66985714Y-70500000D01*
X67033333Y-70547619D01*
X67890476Y-70452380D02*
X67700000Y-70452380D01*
X67604761Y-70500000D01*
X67557142Y-70547619D01*
X67461904Y-70690476D01*
X67414285Y-70880952D01*
X67414285Y-71261904D01*
X67461904Y-71357142D01*
X67509523Y-71404761D01*
X67604761Y-71452380D01*
X67795238Y-71452380D01*
X67890476Y-71404761D01*
X67938095Y-71357142D01*
X67985714Y-71261904D01*
X67985714Y-71023809D01*
X67938095Y-70928571D01*
X67890476Y-70880952D01*
X67795238Y-70833333D01*
X67604761Y-70833333D01*
X67509523Y-70880952D01*
X67461904Y-70928571D01*
X67414285Y-71023809D01*
X61757142Y-58252380D02*
X61423809Y-57776190D01*
X61185714Y-58252380D02*
X61185714Y-57252380D01*
X61566666Y-57252380D01*
X61661904Y-57300000D01*
X61709523Y-57347619D01*
X61757142Y-57442857D01*
X61757142Y-57585714D01*
X61709523Y-57680952D01*
X61661904Y-57728571D01*
X61566666Y-57776190D01*
X61185714Y-57776190D01*
X62709523Y-58252380D02*
X62138095Y-58252380D01*
X62423809Y-58252380D02*
X62423809Y-57252380D01*
X62328571Y-57395238D01*
X62233333Y-57490476D01*
X62138095Y-57538095D01*
X63280952Y-57680952D02*
X63185714Y-57633333D01*
X63138095Y-57585714D01*
X63090476Y-57490476D01*
X63090476Y-57442857D01*
X63138095Y-57347619D01*
X63185714Y-57300000D01*
X63280952Y-57252380D01*
X63471428Y-57252380D01*
X63566666Y-57300000D01*
X63614285Y-57347619D01*
X63661904Y-57442857D01*
X63661904Y-57490476D01*
X63614285Y-57585714D01*
X63566666Y-57633333D01*
X63471428Y-57680952D01*
X63280952Y-57680952D01*
X63185714Y-57728571D01*
X63138095Y-57776190D01*
X63090476Y-57871428D01*
X63090476Y-58061904D01*
X63138095Y-58157142D01*
X63185714Y-58204761D01*
X63280952Y-58252380D01*
X63471428Y-58252380D01*
X63566666Y-58204761D01*
X63614285Y-58157142D01*
X63661904Y-58061904D01*
X63661904Y-57871428D01*
X63614285Y-57776190D01*
X63566666Y-57728571D01*
X63471428Y-57680952D01*
X82638095Y-50500000D02*
X82542857Y-50452380D01*
X82400000Y-50452380D01*
X82257142Y-50500000D01*
X82161904Y-50595238D01*
X82114285Y-50690476D01*
X82066666Y-50880952D01*
X82066666Y-51023809D01*
X82114285Y-51214285D01*
X82161904Y-51309523D01*
X82257142Y-51404761D01*
X82400000Y-51452380D01*
X82495238Y-51452380D01*
X82638095Y-51404761D01*
X82685714Y-51357142D01*
X82685714Y-51023809D01*
X82495238Y-51023809D01*
X83114285Y-51452380D02*
X83114285Y-50452380D01*
X83685714Y-51452380D01*
X83685714Y-50452380D01*
X84161904Y-51452380D02*
X84161904Y-50452380D01*
X84400000Y-50452380D01*
X84542857Y-50500000D01*
X84638095Y-50595238D01*
X84685714Y-50690476D01*
X84733333Y-50880952D01*
X84733333Y-51023809D01*
X84685714Y-51214285D01*
X84638095Y-51309523D01*
X84542857Y-51404761D01*
X84400000Y-51452380D01*
X84161904Y-51452380D01*
X76545833Y-69852380D02*
X76212500Y-69376190D01*
X75974404Y-69852380D02*
X75974404Y-68852380D01*
X76355357Y-68852380D01*
X76450595Y-68900000D01*
X76498214Y-68947619D01*
X76545833Y-69042857D01*
X76545833Y-69185714D01*
X76498214Y-69280952D01*
X76450595Y-69328571D01*
X76355357Y-69376190D01*
X75974404Y-69376190D01*
X77402976Y-68852380D02*
X77212500Y-68852380D01*
X77117261Y-68900000D01*
X77069642Y-68947619D01*
X76974404Y-69090476D01*
X76926785Y-69280952D01*
X76926785Y-69661904D01*
X76974404Y-69757142D01*
X77022023Y-69804761D01*
X77117261Y-69852380D01*
X77307738Y-69852380D01*
X77402976Y-69804761D01*
X77450595Y-69757142D01*
X77498214Y-69661904D01*
X77498214Y-69423809D01*
X77450595Y-69328571D01*
X77402976Y-69280952D01*
X77307738Y-69233333D01*
X77117261Y-69233333D01*
X77022023Y-69280952D01*
X76974404Y-69328571D01*
X76926785Y-69423809D01*
X84652380Y-62366666D02*
X84176190Y-62700000D01*
X84652380Y-62938095D02*
X83652380Y-62938095D01*
X83652380Y-62557142D01*
X83700000Y-62461904D01*
X83747619Y-62414285D01*
X83842857Y-62366666D01*
X83985714Y-62366666D01*
X84080952Y-62414285D01*
X84128571Y-62461904D01*
X84176190Y-62557142D01*
X84176190Y-62938095D01*
X83985714Y-61509523D02*
X84652380Y-61509523D01*
X83604761Y-61747619D02*
X84319047Y-61985714D01*
X84319047Y-61366666D01*
X82833333Y-54452380D02*
X82500000Y-53976190D01*
X82261904Y-54452380D02*
X82261904Y-53452380D01*
X82642857Y-53452380D01*
X82738095Y-53500000D01*
X82785714Y-53547619D01*
X82833333Y-53642857D01*
X82833333Y-53785714D01*
X82785714Y-53880952D01*
X82738095Y-53928571D01*
X82642857Y-53976190D01*
X82261904Y-53976190D01*
X83738095Y-53452380D02*
X83261904Y-53452380D01*
X83214285Y-53928571D01*
X83261904Y-53880952D01*
X83357142Y-53833333D01*
X83595238Y-53833333D01*
X83690476Y-53880952D01*
X83738095Y-53928571D01*
X83785714Y-54023809D01*
X83785714Y-54261904D01*
X83738095Y-54357142D01*
X83690476Y-54404761D01*
X83595238Y-54452380D01*
X83357142Y-54452380D01*
X83261904Y-54404761D01*
X83214285Y-54357142D01*
X71011904Y-49452380D02*
X71011904Y-48452380D01*
X71250000Y-48452380D01*
X71392857Y-48500000D01*
X71488095Y-48595238D01*
X71535714Y-48690476D01*
X71583333Y-48880952D01*
X71583333Y-49023809D01*
X71535714Y-49214285D01*
X71488095Y-49309523D01*
X71392857Y-49404761D01*
X71250000Y-49452380D01*
X71011904Y-49452380D01*
X72154761Y-48880952D02*
X72059523Y-48833333D01*
X72011904Y-48785714D01*
X71964285Y-48690476D01*
X71964285Y-48642857D01*
X72011904Y-48547619D01*
X72059523Y-48500000D01*
X72154761Y-48452380D01*
X72345238Y-48452380D01*
X72440476Y-48500000D01*
X72488095Y-48547619D01*
X72535714Y-48642857D01*
X72535714Y-48690476D01*
X72488095Y-48785714D01*
X72440476Y-48833333D01*
X72345238Y-48880952D01*
X72154761Y-48880952D01*
X72059523Y-48928571D01*
X72011904Y-48976190D01*
X71964285Y-49071428D01*
X71964285Y-49261904D01*
X72011904Y-49357142D01*
X72059523Y-49404761D01*
X72154761Y-49452380D01*
X72345238Y-49452380D01*
X72440476Y-49404761D01*
X72488095Y-49357142D01*
X72535714Y-49261904D01*
X72535714Y-49071428D01*
X72488095Y-48976190D01*
X72440476Y-48928571D01*
X72345238Y-48880952D01*
X73157142Y-34652380D02*
X72823809Y-34176190D01*
X72585714Y-34652380D02*
X72585714Y-33652380D01*
X72966666Y-33652380D01*
X73061904Y-33700000D01*
X73109523Y-33747619D01*
X73157142Y-33842857D01*
X73157142Y-33985714D01*
X73109523Y-34080952D01*
X73061904Y-34128571D01*
X72966666Y-34176190D01*
X72585714Y-34176190D01*
X74109523Y-34652380D02*
X73538095Y-34652380D01*
X73823809Y-34652380D02*
X73823809Y-33652380D01*
X73728571Y-33795238D01*
X73633333Y-33890476D01*
X73538095Y-33938095D01*
X74442857Y-33652380D02*
X75061904Y-33652380D01*
X74728571Y-34033333D01*
X74871428Y-34033333D01*
X74966666Y-34080952D01*
X75014285Y-34128571D01*
X75061904Y-34223809D01*
X75061904Y-34461904D01*
X75014285Y-34557142D01*
X74966666Y-34604761D01*
X74871428Y-34652380D01*
X74585714Y-34652380D01*
X74490476Y-34604761D01*
X74442857Y-34557142D01*
X78361904Y-38302000D02*
X78266666Y-38254380D01*
X78123809Y-38254380D01*
X77980952Y-38302000D01*
X77885714Y-38397238D01*
X77838095Y-38492476D01*
X77790476Y-38682952D01*
X77790476Y-38825809D01*
X77838095Y-39016285D01*
X77885714Y-39111523D01*
X77980952Y-39206761D01*
X78123809Y-39254380D01*
X78219047Y-39254380D01*
X78361904Y-39206761D01*
X78409523Y-39159142D01*
X78409523Y-38825809D01*
X78219047Y-38825809D01*
X78838095Y-39254380D02*
X78838095Y-38254380D01*
X79409523Y-39254380D01*
X79409523Y-38254380D01*
X79885714Y-39254380D02*
X79885714Y-38254380D01*
X80123809Y-38254380D01*
X80266666Y-38302000D01*
X80361904Y-38397238D01*
X80409523Y-38492476D01*
X80457142Y-38682952D01*
X80457142Y-38825809D01*
X80409523Y-39016285D01*
X80361904Y-39111523D01*
X80266666Y-39206761D01*
X80123809Y-39254380D01*
X79885714Y-39254380D01*
X80838095Y-38349619D02*
X80885714Y-38302000D01*
X80980952Y-38254380D01*
X81219047Y-38254380D01*
X81314285Y-38302000D01*
X81361904Y-38349619D01*
X81409523Y-38444857D01*
X81409523Y-38540095D01*
X81361904Y-38682952D01*
X80790476Y-39254380D01*
X81409523Y-39254380D01*
X82138095Y-37252380D02*
X82709523Y-37252380D01*
X82423809Y-38252380D02*
X82423809Y-37252380D01*
X83042857Y-38252380D02*
X83042857Y-37252380D01*
X83423809Y-37252380D01*
X83519047Y-37300000D01*
X83566666Y-37347619D01*
X83614285Y-37442857D01*
X83614285Y-37585714D01*
X83566666Y-37680952D01*
X83519047Y-37728571D01*
X83423809Y-37776190D01*
X83042857Y-37776190D01*
X84566666Y-38252380D02*
X83995238Y-38252380D01*
X84280952Y-38252380D02*
X84280952Y-37252380D01*
X84185714Y-37395238D01*
X84090476Y-37490476D01*
X83995238Y-37538095D01*
X84557142Y-59966666D02*
X84604761Y-60014285D01*
X84652380Y-60157142D01*
X84652380Y-60252380D01*
X84604761Y-60395238D01*
X84509523Y-60490476D01*
X84414285Y-60538095D01*
X84223809Y-60585714D01*
X84080952Y-60585714D01*
X83890476Y-60538095D01*
X83795238Y-60490476D01*
X83700000Y-60395238D01*
X83652380Y-60252380D01*
X83652380Y-60157142D01*
X83700000Y-60014285D01*
X83747619Y-59966666D01*
X83652380Y-59633333D02*
X83652380Y-58966666D01*
X84652380Y-59395238D01*
X56157142Y-60957142D02*
X56109523Y-61004761D01*
X55966666Y-61052380D01*
X55871428Y-61052380D01*
X55728571Y-61004761D01*
X55633333Y-60909523D01*
X55585714Y-60814285D01*
X55538095Y-60623809D01*
X55538095Y-60480952D01*
X55585714Y-60290476D01*
X55633333Y-60195238D01*
X55728571Y-60100000D01*
X55871428Y-60052380D01*
X55966666Y-60052380D01*
X56109523Y-60100000D01*
X56157142Y-60147619D01*
X57109523Y-61052380D02*
X56538095Y-61052380D01*
X56823809Y-61052380D02*
X56823809Y-60052380D01*
X56728571Y-60195238D01*
X56633333Y-60290476D01*
X56538095Y-60338095D01*
X57966666Y-60385714D02*
X57966666Y-61052380D01*
X57728571Y-60004761D02*
X57490476Y-60719047D01*
X58109523Y-60719047D01*
X81714285Y-47957142D02*
X81666666Y-48004761D01*
X81523809Y-48052380D01*
X81428571Y-48052380D01*
X81285714Y-48004761D01*
X81190476Y-47909523D01*
X81142857Y-47814285D01*
X81095238Y-47623809D01*
X81095238Y-47480952D01*
X81142857Y-47290476D01*
X81190476Y-47195238D01*
X81285714Y-47100000D01*
X81428571Y-47052380D01*
X81523809Y-47052380D01*
X81666666Y-47100000D01*
X81714285Y-47147619D01*
X82333333Y-47052380D02*
X82523809Y-47052380D01*
X82619047Y-47100000D01*
X82714285Y-47195238D01*
X82761904Y-47385714D01*
X82761904Y-47719047D01*
X82714285Y-47909523D01*
X82619047Y-48004761D01*
X82523809Y-48052380D01*
X82333333Y-48052380D01*
X82238095Y-48004761D01*
X82142857Y-47909523D01*
X82095238Y-47719047D01*
X82095238Y-47385714D01*
X82142857Y-47195238D01*
X82238095Y-47100000D01*
X82333333Y-47052380D01*
X83190476Y-48052380D02*
X83190476Y-47052380D01*
X83523809Y-47766666D01*
X83857142Y-47052380D01*
X83857142Y-48052380D01*
X84333333Y-48052380D02*
X84333333Y-47052380D01*
X84714285Y-47052380D01*
X84809523Y-47100000D01*
X84857142Y-47147619D01*
X84904761Y-47242857D01*
X84904761Y-47385714D01*
X84857142Y-47480952D01*
X84809523Y-47528571D01*
X84714285Y-47576190D01*
X84333333Y-47576190D01*
X70957142Y-43882142D02*
X70909523Y-43929761D01*
X70766666Y-43977380D01*
X70671428Y-43977380D01*
X70528571Y-43929761D01*
X70433333Y-43834523D01*
X70385714Y-43739285D01*
X70338095Y-43548809D01*
X70338095Y-43405952D01*
X70385714Y-43215476D01*
X70433333Y-43120238D01*
X70528571Y-43025000D01*
X70671428Y-42977380D01*
X70766666Y-42977380D01*
X70909523Y-43025000D01*
X70957142Y-43072619D01*
X71338095Y-43072619D02*
X71385714Y-43025000D01*
X71480952Y-42977380D01*
X71719047Y-42977380D01*
X71814285Y-43025000D01*
X71861904Y-43072619D01*
X71909523Y-43167857D01*
X71909523Y-43263095D01*
X71861904Y-43405952D01*
X71290476Y-43977380D01*
X71909523Y-43977380D01*
X72861904Y-43977380D02*
X72290476Y-43977380D01*
X72576190Y-43977380D02*
X72576190Y-42977380D01*
X72480952Y-43120238D01*
X72385714Y-43215476D01*
X72290476Y-43263095D01*
X49461904Y-65852380D02*
X49461904Y-64852380D01*
X49700000Y-64852380D01*
X49842857Y-64900000D01*
X49938095Y-64995238D01*
X49985714Y-65090476D01*
X50033333Y-65280952D01*
X50033333Y-65423809D01*
X49985714Y-65614285D01*
X49938095Y-65709523D01*
X49842857Y-65804761D01*
X49700000Y-65852380D01*
X49461904Y-65852380D01*
X50890476Y-65185714D02*
X50890476Y-65852380D01*
X50652380Y-64804761D02*
X50414285Y-65519047D01*
X51033333Y-65519047D01*
X53433333Y-65852380D02*
X53100000Y-65376190D01*
X52861904Y-65852380D02*
X52861904Y-64852380D01*
X53242857Y-64852380D01*
X53338095Y-64900000D01*
X53385714Y-64947619D01*
X53433333Y-65042857D01*
X53433333Y-65185714D01*
X53385714Y-65280952D01*
X53338095Y-65328571D01*
X53242857Y-65376190D01*
X52861904Y-65376190D01*
X54004761Y-65280952D02*
X53909523Y-65233333D01*
X53861904Y-65185714D01*
X53814285Y-65090476D01*
X53814285Y-65042857D01*
X53861904Y-64947619D01*
X53909523Y-64900000D01*
X54004761Y-64852380D01*
X54195238Y-64852380D01*
X54290476Y-64900000D01*
X54338095Y-64947619D01*
X54385714Y-65042857D01*
X54385714Y-65090476D01*
X54338095Y-65185714D01*
X54290476Y-65233333D01*
X54195238Y-65280952D01*
X54004761Y-65280952D01*
X53909523Y-65328571D01*
X53861904Y-65376190D01*
X53814285Y-65471428D01*
X53814285Y-65661904D01*
X53861904Y-65757142D01*
X53909523Y-65804761D01*
X54004761Y-65852380D01*
X54195238Y-65852380D01*
X54290476Y-65804761D01*
X54338095Y-65757142D01*
X54385714Y-65661904D01*
X54385714Y-65471428D01*
X54338095Y-65376190D01*
X54290476Y-65328571D01*
X54195238Y-65280952D01*
X71157142Y-59452380D02*
X70823809Y-58976190D01*
X70585714Y-59452380D02*
X70585714Y-58452380D01*
X70966666Y-58452380D01*
X71061904Y-58500000D01*
X71109523Y-58547619D01*
X71157142Y-58642857D01*
X71157142Y-58785714D01*
X71109523Y-58880952D01*
X71061904Y-58928571D01*
X70966666Y-58976190D01*
X70585714Y-58976190D01*
X72109523Y-59452380D02*
X71538095Y-59452380D01*
X71823809Y-59452380D02*
X71823809Y-58452380D01*
X71728571Y-58595238D01*
X71633333Y-58690476D01*
X71538095Y-58738095D01*
X72966666Y-58452380D02*
X72776190Y-58452380D01*
X72680952Y-58500000D01*
X72633333Y-58547619D01*
X72538095Y-58690476D01*
X72490476Y-58880952D01*
X72490476Y-59261904D01*
X72538095Y-59357142D01*
X72585714Y-59404761D01*
X72680952Y-59452380D01*
X72871428Y-59452380D01*
X72966666Y-59404761D01*
X73014285Y-59357142D01*
X73061904Y-59261904D01*
X73061904Y-59023809D01*
X73014285Y-58928571D01*
X72966666Y-58880952D01*
X72871428Y-58833333D01*
X72680952Y-58833333D01*
X72585714Y-58880952D01*
X72538095Y-58928571D01*
X72490476Y-59023809D01*
X58557142Y-63242857D02*
X58604761Y-63290476D01*
X58652380Y-63433333D01*
X58652380Y-63528571D01*
X58604761Y-63671428D01*
X58509523Y-63766666D01*
X58414285Y-63814285D01*
X58223809Y-63861904D01*
X58080952Y-63861904D01*
X57890476Y-63814285D01*
X57795238Y-63766666D01*
X57700000Y-63671428D01*
X57652380Y-63528571D01*
X57652380Y-63433333D01*
X57700000Y-63290476D01*
X57747619Y-63242857D01*
X58652380Y-62290476D02*
X58652380Y-62861904D01*
X58652380Y-62576190D02*
X57652380Y-62576190D01*
X57795238Y-62671428D01*
X57890476Y-62766666D01*
X57938095Y-62861904D01*
X58652380Y-61814285D02*
X58652380Y-61623809D01*
X58604761Y-61528571D01*
X58557142Y-61480952D01*
X58414285Y-61385714D01*
X58223809Y-61338095D01*
X57842857Y-61338095D01*
X57747619Y-61385714D01*
X57700000Y-61433333D01*
X57652380Y-61528571D01*
X57652380Y-61719047D01*
X57700000Y-61814285D01*
X57747619Y-61861904D01*
X57842857Y-61909523D01*
X58080952Y-61909523D01*
X58176190Y-61861904D01*
X58223809Y-61814285D01*
X58271428Y-61719047D01*
X58271428Y-61528571D01*
X58223809Y-61433333D01*
X58176190Y-61385714D01*
X58080952Y-61338095D01*
X78557142Y-32852380D02*
X78223809Y-32376190D01*
X77985714Y-32852380D02*
X77985714Y-31852380D01*
X78366666Y-31852380D01*
X78461904Y-31900000D01*
X78509523Y-31947619D01*
X78557142Y-32042857D01*
X78557142Y-32185714D01*
X78509523Y-32280952D01*
X78461904Y-32328571D01*
X78366666Y-32376190D01*
X77985714Y-32376190D01*
X79509523Y-32852380D02*
X78938095Y-32852380D01*
X79223809Y-32852380D02*
X79223809Y-31852380D01*
X79128571Y-31995238D01*
X79033333Y-32090476D01*
X78938095Y-32138095D01*
X80366666Y-32185714D02*
X80366666Y-32852380D01*
X80128571Y-31804761D02*
X79890476Y-32519047D01*
X80509523Y-32519047D01*
X72757142Y-57557142D02*
X72709523Y-57604761D01*
X72566666Y-57652380D01*
X72471428Y-57652380D01*
X72328571Y-57604761D01*
X72233333Y-57509523D01*
X72185714Y-57414285D01*
X72138095Y-57223809D01*
X72138095Y-57080952D01*
X72185714Y-56890476D01*
X72233333Y-56795238D01*
X72328571Y-56700000D01*
X72471428Y-56652380D01*
X72566666Y-56652380D01*
X72709523Y-56700000D01*
X72757142Y-56747619D01*
X73709523Y-57652380D02*
X73138095Y-57652380D01*
X73423809Y-57652380D02*
X73423809Y-56652380D01*
X73328571Y-56795238D01*
X73233333Y-56890476D01*
X73138095Y-56938095D01*
X74280952Y-57080952D02*
X74185714Y-57033333D01*
X74138095Y-56985714D01*
X74090476Y-56890476D01*
X74090476Y-56842857D01*
X74138095Y-56747619D01*
X74185714Y-56700000D01*
X74280952Y-56652380D01*
X74471428Y-56652380D01*
X74566666Y-56700000D01*
X74614285Y-56747619D01*
X74661904Y-56842857D01*
X74661904Y-56890476D01*
X74614285Y-56985714D01*
X74566666Y-57033333D01*
X74471428Y-57080952D01*
X74280952Y-57080952D01*
X74185714Y-57128571D01*
X74138095Y-57176190D01*
X74090476Y-57271428D01*
X74090476Y-57461904D01*
X74138095Y-57557142D01*
X74185714Y-57604761D01*
X74280952Y-57652380D01*
X74471428Y-57652380D01*
X74566666Y-57604761D01*
X74614285Y-57557142D01*
X74661904Y-57461904D01*
X74661904Y-57271428D01*
X74614285Y-57176190D01*
X74566666Y-57128571D01*
X74471428Y-57080952D01*
X77038095Y-57852380D02*
X77038095Y-58661904D01*
X77085714Y-58757142D01*
X77133333Y-58804761D01*
X77228571Y-58852380D01*
X77419047Y-58852380D01*
X77514285Y-58804761D01*
X77561904Y-58757142D01*
X77609523Y-58661904D01*
X77609523Y-57852380D01*
X78038095Y-57947619D02*
X78085714Y-57900000D01*
X78180952Y-57852380D01*
X78419047Y-57852380D01*
X78514285Y-57900000D01*
X78561904Y-57947619D01*
X78609523Y-58042857D01*
X78609523Y-58138095D01*
X78561904Y-58280952D01*
X77990476Y-58852380D01*
X78609523Y-58852380D01*
X69738095Y-36252380D02*
X70309523Y-36252380D01*
X70023809Y-37252380D02*
X70023809Y-36252380D01*
X70642857Y-37252380D02*
X70642857Y-36252380D01*
X71023809Y-36252380D01*
X71119047Y-36300000D01*
X71166666Y-36347619D01*
X71214285Y-36442857D01*
X71214285Y-36585714D01*
X71166666Y-36680952D01*
X71119047Y-36728571D01*
X71023809Y-36776190D01*
X70642857Y-36776190D01*
X72071428Y-36252380D02*
X71880952Y-36252380D01*
X71785714Y-36300000D01*
X71738095Y-36347619D01*
X71642857Y-36490476D01*
X71595238Y-36680952D01*
X71595238Y-37061904D01*
X71642857Y-37157142D01*
X71690476Y-37204761D01*
X71785714Y-37252380D01*
X71976190Y-37252380D01*
X72071428Y-37204761D01*
X72119047Y-37157142D01*
X72166666Y-37061904D01*
X72166666Y-36823809D01*
X72119047Y-36728571D01*
X72071428Y-36680952D01*
X71976190Y-36633333D01*
X71785714Y-36633333D01*
X71690476Y-36680952D01*
X71642857Y-36728571D01*
X71595238Y-36823809D01*
X78357142Y-37852380D02*
X78023809Y-37376190D01*
X77785714Y-37852380D02*
X77785714Y-36852380D01*
X78166666Y-36852380D01*
X78261904Y-36900000D01*
X78309523Y-36947619D01*
X78357142Y-37042857D01*
X78357142Y-37185714D01*
X78309523Y-37280952D01*
X78261904Y-37328571D01*
X78166666Y-37376190D01*
X77785714Y-37376190D01*
X79309523Y-37852380D02*
X78738095Y-37852380D01*
X79023809Y-37852380D02*
X79023809Y-36852380D01*
X78928571Y-36995238D01*
X78833333Y-37090476D01*
X78738095Y-37138095D01*
X79690476Y-36947619D02*
X79738095Y-36900000D01*
X79833333Y-36852380D01*
X80071428Y-36852380D01*
X80166666Y-36900000D01*
X80214285Y-36947619D01*
X80261904Y-37042857D01*
X80261904Y-37138095D01*
X80214285Y-37280952D01*
X79642857Y-37852380D01*
X80261904Y-37852380D01*
X71157142Y-62357142D02*
X71109523Y-62404761D01*
X70966666Y-62452380D01*
X70871428Y-62452380D01*
X70728571Y-62404761D01*
X70633333Y-62309523D01*
X70585714Y-62214285D01*
X70538095Y-62023809D01*
X70538095Y-61880952D01*
X70585714Y-61690476D01*
X70633333Y-61595238D01*
X70728571Y-61500000D01*
X70871428Y-61452380D01*
X70966666Y-61452380D01*
X71109523Y-61500000D01*
X71157142Y-61547619D01*
X72109523Y-62452380D02*
X71538095Y-62452380D01*
X71823809Y-62452380D02*
X71823809Y-61452380D01*
X71728571Y-61595238D01*
X71633333Y-61690476D01*
X71538095Y-61738095D01*
X72490476Y-61547619D02*
X72538095Y-61500000D01*
X72633333Y-61452380D01*
X72871428Y-61452380D01*
X72966666Y-61500000D01*
X73014285Y-61547619D01*
X73061904Y-61642857D01*
X73061904Y-61738095D01*
X73014285Y-61880952D01*
X72442857Y-62452380D01*
X73061904Y-62452380D01*
X72438095Y-28452380D02*
X72438095Y-29261904D01*
X72485714Y-29357142D01*
X72533333Y-29404761D01*
X72628571Y-29452380D01*
X72819047Y-29452380D01*
X72914285Y-29404761D01*
X72961904Y-29357142D01*
X73009523Y-29261904D01*
X73009523Y-28452380D01*
X73914285Y-28785714D02*
X73914285Y-29452380D01*
X73676190Y-28404761D02*
X73438095Y-29119047D01*
X74057142Y-29119047D01*
X72833333Y-52957142D02*
X72785714Y-53004761D01*
X72642857Y-53052380D01*
X72547619Y-53052380D01*
X72404761Y-53004761D01*
X72309523Y-52909523D01*
X72261904Y-52814285D01*
X72214285Y-52623809D01*
X72214285Y-52480952D01*
X72261904Y-52290476D01*
X72309523Y-52195238D01*
X72404761Y-52100000D01*
X72547619Y-52052380D01*
X72642857Y-52052380D01*
X72785714Y-52100000D01*
X72833333Y-52147619D01*
X73214285Y-53004761D02*
X73357142Y-53052380D01*
X73595238Y-53052380D01*
X73690476Y-53004761D01*
X73738095Y-52957142D01*
X73785714Y-52861904D01*
X73785714Y-52766666D01*
X73738095Y-52671428D01*
X73690476Y-52623809D01*
X73595238Y-52576190D01*
X73404761Y-52528571D01*
X73309523Y-52480952D01*
X73261904Y-52433333D01*
X73214285Y-52338095D01*
X73214285Y-52242857D01*
X73261904Y-52147619D01*
X73309523Y-52100000D01*
X73404761Y-52052380D01*
X73642857Y-52052380D01*
X73785714Y-52100000D01*
X80757142Y-34252380D02*
X80423809Y-33776190D01*
X80185714Y-34252380D02*
X80185714Y-33252380D01*
X80566666Y-33252380D01*
X80661904Y-33300000D01*
X80709523Y-33347619D01*
X80757142Y-33442857D01*
X80757142Y-33585714D01*
X80709523Y-33680952D01*
X80661904Y-33728571D01*
X80566666Y-33776190D01*
X80185714Y-33776190D01*
X81709523Y-34252380D02*
X81138095Y-34252380D01*
X81423809Y-34252380D02*
X81423809Y-33252380D01*
X81328571Y-33395238D01*
X81233333Y-33490476D01*
X81138095Y-33538095D01*
X82661904Y-34252380D02*
X82090476Y-34252380D01*
X82376190Y-34252380D02*
X82376190Y-33252380D01*
X82280952Y-33395238D01*
X82185714Y-33490476D01*
X82090476Y-33538095D01*
X65566666Y-68102380D02*
X65566666Y-67102380D01*
X65900000Y-67816666D01*
X66233333Y-67102380D01*
X66233333Y-68102380D01*
X66900000Y-67102380D02*
X67090476Y-67102380D01*
X67185714Y-67150000D01*
X67280952Y-67245238D01*
X67328571Y-67435714D01*
X67328571Y-67769047D01*
X67280952Y-67959523D01*
X67185714Y-68054761D01*
X67090476Y-68102380D01*
X66900000Y-68102380D01*
X66804761Y-68054761D01*
X66709523Y-67959523D01*
X66661904Y-67769047D01*
X66661904Y-67435714D01*
X66709523Y-67245238D01*
X66804761Y-67150000D01*
X66900000Y-67102380D01*
X67709523Y-68054761D02*
X67852380Y-68102380D01*
X68090476Y-68102380D01*
X68185714Y-68054761D01*
X68233333Y-68007142D01*
X68280952Y-67911904D01*
X68280952Y-67816666D01*
X68233333Y-67721428D01*
X68185714Y-67673809D01*
X68090476Y-67626190D01*
X67900000Y-67578571D01*
X67804761Y-67530952D01*
X67757142Y-67483333D01*
X67709523Y-67388095D01*
X67709523Y-67292857D01*
X67757142Y-67197619D01*
X67804761Y-67150000D01*
X67900000Y-67102380D01*
X68138095Y-67102380D01*
X68280952Y-67150000D01*
X69233333Y-67150000D02*
X69138095Y-67102380D01*
X68995238Y-67102380D01*
X68852380Y-67150000D01*
X68757142Y-67245238D01*
X68709523Y-67340476D01*
X68661904Y-67530952D01*
X68661904Y-67673809D01*
X68709523Y-67864285D01*
X68757142Y-67959523D01*
X68852380Y-68054761D01*
X68995238Y-68102380D01*
X69090476Y-68102380D01*
X69233333Y-68054761D01*
X69280952Y-68007142D01*
X69280952Y-67673809D01*
X69090476Y-67673809D01*
X80433333Y-57157142D02*
X80385714Y-57204761D01*
X80242857Y-57252380D01*
X80147619Y-57252380D01*
X80004761Y-57204761D01*
X79909523Y-57109523D01*
X79861904Y-57014285D01*
X79814285Y-56823809D01*
X79814285Y-56680952D01*
X79861904Y-56490476D01*
X79909523Y-56395238D01*
X80004761Y-56300000D01*
X80147619Y-56252380D01*
X80242857Y-56252380D01*
X80385714Y-56300000D01*
X80433333Y-56347619D01*
X81004761Y-56680952D02*
X80909523Y-56633333D01*
X80861904Y-56585714D01*
X80814285Y-56490476D01*
X80814285Y-56442857D01*
X80861904Y-56347619D01*
X80909523Y-56300000D01*
X81004761Y-56252380D01*
X81195238Y-56252380D01*
X81290476Y-56300000D01*
X81338095Y-56347619D01*
X81385714Y-56442857D01*
X81385714Y-56490476D01*
X81338095Y-56585714D01*
X81290476Y-56633333D01*
X81195238Y-56680952D01*
X81004761Y-56680952D01*
X80909523Y-56728571D01*
X80861904Y-56776190D01*
X80814285Y-56871428D01*
X80814285Y-57061904D01*
X80861904Y-57157142D01*
X80909523Y-57204761D01*
X81004761Y-57252380D01*
X81195238Y-57252380D01*
X81290476Y-57204761D01*
X81338095Y-57157142D01*
X81385714Y-57061904D01*
X81385714Y-56871428D01*
X81338095Y-56776190D01*
X81290476Y-56728571D01*
X81195238Y-56680952D01*
X70638095Y-67150000D02*
X70542857Y-67102380D01*
X70400000Y-67102380D01*
X70257142Y-67150000D01*
X70161904Y-67245238D01*
X70114285Y-67340476D01*
X70066666Y-67530952D01*
X70066666Y-67673809D01*
X70114285Y-67864285D01*
X70161904Y-67959523D01*
X70257142Y-68054761D01*
X70400000Y-68102380D01*
X70495238Y-68102380D01*
X70638095Y-68054761D01*
X70685714Y-68007142D01*
X70685714Y-67673809D01*
X70495238Y-67673809D01*
X71114285Y-68102380D02*
X71114285Y-67102380D01*
X71685714Y-68102380D01*
X71685714Y-67102380D01*
X72161904Y-68102380D02*
X72161904Y-67102380D01*
X72400000Y-67102380D01*
X72542857Y-67150000D01*
X72638095Y-67245238D01*
X72685714Y-67340476D01*
X72733333Y-67530952D01*
X72733333Y-67673809D01*
X72685714Y-67864285D01*
X72638095Y-67959523D01*
X72542857Y-68054761D01*
X72400000Y-68102380D01*
X72161904Y-68102380D01*
X80957142Y-29052380D02*
X80623809Y-28576190D01*
X80385714Y-29052380D02*
X80385714Y-28052380D01*
X80766666Y-28052380D01*
X80861904Y-28100000D01*
X80909523Y-28147619D01*
X80957142Y-28242857D01*
X80957142Y-28385714D01*
X80909523Y-28480952D01*
X80861904Y-28528571D01*
X80766666Y-28576190D01*
X80385714Y-28576190D01*
X81909523Y-29052380D02*
X81338095Y-29052380D01*
X81623809Y-29052380D02*
X81623809Y-28052380D01*
X81528571Y-28195238D01*
X81433333Y-28290476D01*
X81338095Y-28338095D01*
X82814285Y-28052380D02*
X82338095Y-28052380D01*
X82290476Y-28528571D01*
X82338095Y-28480952D01*
X82433333Y-28433333D01*
X82671428Y-28433333D01*
X82766666Y-28480952D01*
X82814285Y-28528571D01*
X82861904Y-28623809D01*
X82861904Y-28861904D01*
X82814285Y-28957142D01*
X82766666Y-29004761D01*
X82671428Y-29052380D01*
X82433333Y-29052380D01*
X82338095Y-29004761D01*
X82290476Y-28957142D01*
X52461904Y-38852380D02*
X52461904Y-37852380D01*
X52700000Y-37852380D01*
X52842857Y-37900000D01*
X52938095Y-37995238D01*
X52985714Y-38090476D01*
X53033333Y-38280952D01*
X53033333Y-38423809D01*
X52985714Y-38614285D01*
X52938095Y-38709523D01*
X52842857Y-38804761D01*
X52700000Y-38852380D01*
X52461904Y-38852380D01*
X53890476Y-37852380D02*
X53700000Y-37852380D01*
X53604761Y-37900000D01*
X53557142Y-37947619D01*
X53461904Y-38090476D01*
X53414285Y-38280952D01*
X53414285Y-38661904D01*
X53461904Y-38757142D01*
X53509523Y-38804761D01*
X53604761Y-38852380D01*
X53795238Y-38852380D01*
X53890476Y-38804761D01*
X53938095Y-38757142D01*
X53985714Y-38661904D01*
X53985714Y-38423809D01*
X53938095Y-38328571D01*
X53890476Y-38280952D01*
X53795238Y-38233333D01*
X53604761Y-38233333D01*
X53509523Y-38280952D01*
X53461904Y-38328571D01*
X53414285Y-38423809D01*
X65190476Y-53852380D02*
X65190476Y-52852380D01*
X65523809Y-53566666D01*
X65857142Y-52852380D01*
X65857142Y-53852380D01*
X66523809Y-52852380D02*
X66714285Y-52852380D01*
X66809523Y-52900000D01*
X66904761Y-52995238D01*
X66952380Y-53185714D01*
X66952380Y-53519047D01*
X66904761Y-53709523D01*
X66809523Y-53804761D01*
X66714285Y-53852380D01*
X66523809Y-53852380D01*
X66428571Y-53804761D01*
X66333333Y-53709523D01*
X66285714Y-53519047D01*
X66285714Y-53185714D01*
X66333333Y-52995238D01*
X66428571Y-52900000D01*
X66523809Y-52852380D01*
X67333333Y-53804761D02*
X67476190Y-53852380D01*
X67714285Y-53852380D01*
X67809523Y-53804761D01*
X67857142Y-53757142D01*
X67904761Y-53661904D01*
X67904761Y-53566666D01*
X67857142Y-53471428D01*
X67809523Y-53423809D01*
X67714285Y-53376190D01*
X67523809Y-53328571D01*
X67428571Y-53280952D01*
X67380952Y-53233333D01*
X67333333Y-53138095D01*
X67333333Y-53042857D01*
X67380952Y-52947619D01*
X67428571Y-52900000D01*
X67523809Y-52852380D01*
X67761904Y-52852380D01*
X67904761Y-52900000D01*
X68285714Y-53804761D02*
X68428571Y-53852380D01*
X68666666Y-53852380D01*
X68761904Y-53804761D01*
X68809523Y-53757142D01*
X68857142Y-53661904D01*
X68857142Y-53566666D01*
X68809523Y-53471428D01*
X68761904Y-53423809D01*
X68666666Y-53376190D01*
X68476190Y-53328571D01*
X68380952Y-53280952D01*
X68333333Y-53233333D01*
X68285714Y-53138095D01*
X68285714Y-53042857D01*
X68333333Y-52947619D01*
X68380952Y-52900000D01*
X68476190Y-52852380D01*
X68714285Y-52852380D01*
X68857142Y-52900000D01*
X82833333Y-52957142D02*
X82785714Y-53004761D01*
X82642857Y-53052380D01*
X82547619Y-53052380D01*
X82404761Y-53004761D01*
X82309523Y-52909523D01*
X82261904Y-52814285D01*
X82214285Y-52623809D01*
X82214285Y-52480952D01*
X82261904Y-52290476D01*
X82309523Y-52195238D01*
X82404761Y-52100000D01*
X82547619Y-52052380D01*
X82642857Y-52052380D01*
X82785714Y-52100000D01*
X82833333Y-52147619D01*
X83309523Y-53052380D02*
X83500000Y-53052380D01*
X83595238Y-53004761D01*
X83642857Y-52957142D01*
X83738095Y-52814285D01*
X83785714Y-52623809D01*
X83785714Y-52242857D01*
X83738095Y-52147619D01*
X83690476Y-52100000D01*
X83595238Y-52052380D01*
X83404761Y-52052380D01*
X83309523Y-52100000D01*
X83261904Y-52147619D01*
X83214285Y-52242857D01*
X83214285Y-52480952D01*
X83261904Y-52576190D01*
X83309523Y-52623809D01*
X83404761Y-52671428D01*
X83595238Y-52671428D01*
X83690476Y-52623809D01*
X83738095Y-52576190D01*
X83785714Y-52480952D01*
X79757142Y-68452380D02*
X79757142Y-67452380D01*
X80328571Y-68452380D01*
X80328571Y-67452380D01*
X80661904Y-67452380D02*
X81233333Y-67452380D01*
X80947619Y-68452380D02*
X80947619Y-67452380D01*
X82138095Y-68357142D02*
X82090476Y-68404761D01*
X81947619Y-68452380D01*
X81852380Y-68452380D01*
X81709523Y-68404761D01*
X81614285Y-68309523D01*
X81566666Y-68214285D01*
X81519047Y-68023809D01*
X81519047Y-67880952D01*
X81566666Y-67690476D01*
X81614285Y-67595238D01*
X81709523Y-67500000D01*
X81852380Y-67452380D01*
X81947619Y-67452380D01*
X82090476Y-67500000D01*
X82138095Y-67547619D01*
X83090476Y-68452380D02*
X82519047Y-68452380D01*
X82804761Y-68452380D02*
X82804761Y-67452380D01*
X82709523Y-67595238D01*
X82614285Y-67690476D01*
X82519047Y-67738095D01*
X69861904Y-63852380D02*
X69861904Y-62852380D01*
X70100000Y-62852380D01*
X70242857Y-62900000D01*
X70338095Y-62995238D01*
X70385714Y-63090476D01*
X70433333Y-63280952D01*
X70433333Y-63423809D01*
X70385714Y-63614285D01*
X70338095Y-63709523D01*
X70242857Y-63804761D01*
X70100000Y-63852380D01*
X69861904Y-63852380D01*
X70766666Y-62852380D02*
X71433333Y-62852380D01*
X71004761Y-63852380D01*
X51557142Y-25957142D02*
X51509523Y-26004761D01*
X51366666Y-26052380D01*
X51271428Y-26052380D01*
X51128571Y-26004761D01*
X51033333Y-25909523D01*
X50985714Y-25814285D01*
X50938095Y-25623809D01*
X50938095Y-25480952D01*
X50985714Y-25290476D01*
X51033333Y-25195238D01*
X51128571Y-25100000D01*
X51271428Y-25052380D01*
X51366666Y-25052380D01*
X51509523Y-25100000D01*
X51557142Y-25147619D01*
X52509523Y-26052380D02*
X51938095Y-26052380D01*
X52223809Y-26052380D02*
X52223809Y-25052380D01*
X52128571Y-25195238D01*
X52033333Y-25290476D01*
X51938095Y-25338095D01*
X53366666Y-25052380D02*
X53176190Y-25052380D01*
X53080952Y-25100000D01*
X53033333Y-25147619D01*
X52938095Y-25290476D01*
X52890476Y-25480952D01*
X52890476Y-25861904D01*
X52938095Y-25957142D01*
X52985714Y-26004761D01*
X53080952Y-26052380D01*
X53271428Y-26052380D01*
X53366666Y-26004761D01*
X53414285Y-25957142D01*
X53461904Y-25861904D01*
X53461904Y-25623809D01*
X53414285Y-25528571D01*
X53366666Y-25480952D01*
X53271428Y-25433333D01*
X53080952Y-25433333D01*
X52985714Y-25480952D01*
X52938095Y-25528571D01*
X52890476Y-25623809D01*
X49566666Y-50652380D02*
X49566666Y-49652380D01*
X49900000Y-50366666D01*
X50233333Y-49652380D01*
X50233333Y-50652380D01*
X50900000Y-49652380D02*
X51090476Y-49652380D01*
X51185714Y-49700000D01*
X51280952Y-49795238D01*
X51328571Y-49985714D01*
X51328571Y-50319047D01*
X51280952Y-50509523D01*
X51185714Y-50604761D01*
X51090476Y-50652380D01*
X50900000Y-50652380D01*
X50804761Y-50604761D01*
X50709523Y-50509523D01*
X50661904Y-50319047D01*
X50661904Y-49985714D01*
X50709523Y-49795238D01*
X50804761Y-49700000D01*
X50900000Y-49652380D01*
X51709523Y-50604761D02*
X51852380Y-50652380D01*
X52090476Y-50652380D01*
X52185714Y-50604761D01*
X52233333Y-50557142D01*
X52280952Y-50461904D01*
X52280952Y-50366666D01*
X52233333Y-50271428D01*
X52185714Y-50223809D01*
X52090476Y-50176190D01*
X51900000Y-50128571D01*
X51804761Y-50080952D01*
X51757142Y-50033333D01*
X51709523Y-49938095D01*
X51709523Y-49842857D01*
X51757142Y-49747619D01*
X51804761Y-49700000D01*
X51900000Y-49652380D01*
X52138095Y-49652380D01*
X52280952Y-49700000D01*
X52709523Y-50652380D02*
X52709523Y-49652380D01*
X52947619Y-49652380D01*
X53090476Y-49700000D01*
X53185714Y-49795238D01*
X53233333Y-49890476D01*
X53280952Y-50080952D01*
X53280952Y-50223809D01*
X53233333Y-50414285D01*
X53185714Y-50509523D01*
X53090476Y-50604761D01*
X52947619Y-50652380D01*
X52709523Y-50652380D01*
X50504761Y-66852380D02*
X50838095Y-67852380D01*
X51171428Y-66852380D01*
X51504761Y-67852380D02*
X51504761Y-66852380D01*
X51980952Y-67852380D02*
X51980952Y-66852380D01*
X52552380Y-67852380D01*
X52552380Y-66852380D01*
X66157142Y-31957142D02*
X66109523Y-32004761D01*
X65966666Y-32052380D01*
X65871428Y-32052380D01*
X65728571Y-32004761D01*
X65633333Y-31909523D01*
X65585714Y-31814285D01*
X65538095Y-31623809D01*
X65538095Y-31480952D01*
X65585714Y-31290476D01*
X65633333Y-31195238D01*
X65728571Y-31100000D01*
X65871428Y-31052380D01*
X65966666Y-31052380D01*
X66109523Y-31100000D01*
X66157142Y-31147619D01*
X67109523Y-32052380D02*
X66538095Y-32052380D01*
X66823809Y-32052380D02*
X66823809Y-31052380D01*
X66728571Y-31195238D01*
X66633333Y-31290476D01*
X66538095Y-31338095D01*
X67442857Y-31052380D02*
X68109523Y-31052380D01*
X67680952Y-32052380D01*
X70761904Y-22700000D02*
X70666666Y-22652380D01*
X70523809Y-22652380D01*
X70380952Y-22700000D01*
X70285714Y-22795238D01*
X70238095Y-22890476D01*
X70190476Y-23080952D01*
X70190476Y-23223809D01*
X70238095Y-23414285D01*
X70285714Y-23509523D01*
X70380952Y-23604761D01*
X70523809Y-23652380D01*
X70619047Y-23652380D01*
X70761904Y-23604761D01*
X70809523Y-23557142D01*
X70809523Y-23223809D01*
X70619047Y-23223809D01*
X71238095Y-23652380D02*
X71238095Y-22652380D01*
X71809523Y-23652380D01*
X71809523Y-22652380D01*
X72285714Y-23652380D02*
X72285714Y-22652380D01*
X72523809Y-22652380D01*
X72666666Y-22700000D01*
X72761904Y-22795238D01*
X72809523Y-22890476D01*
X72857142Y-23080952D01*
X72857142Y-23223809D01*
X72809523Y-23414285D01*
X72761904Y-23509523D01*
X72666666Y-23604761D01*
X72523809Y-23652380D01*
X72285714Y-23652380D01*
X73238095Y-22747619D02*
X73285714Y-22700000D01*
X73380952Y-22652380D01*
X73619047Y-22652380D01*
X73714285Y-22700000D01*
X73761904Y-22747619D01*
X73809523Y-22842857D01*
X73809523Y-22938095D01*
X73761904Y-23080952D01*
X73190476Y-23652380D01*
X73809523Y-23652380D01*
X78038095Y-42952380D02*
X78038095Y-43761904D01*
X78085714Y-43857142D01*
X78133333Y-43904761D01*
X78228571Y-43952380D01*
X78419047Y-43952380D01*
X78514285Y-43904761D01*
X78561904Y-43857142D01*
X78609523Y-43761904D01*
X78609523Y-42952380D01*
X78990476Y-42952380D02*
X79609523Y-42952380D01*
X79276190Y-43333333D01*
X79419047Y-43333333D01*
X79514285Y-43380952D01*
X79561904Y-43428571D01*
X79609523Y-43523809D01*
X79609523Y-43761904D01*
X79561904Y-43857142D01*
X79514285Y-43904761D01*
X79419047Y-43952380D01*
X79133333Y-43952380D01*
X79038095Y-43904761D01*
X78990476Y-43857142D01*
X76061904Y-64252380D02*
X76061904Y-63252380D01*
X76300000Y-63252380D01*
X76442857Y-63300000D01*
X76538095Y-63395238D01*
X76585714Y-63490476D01*
X76633333Y-63680952D01*
X76633333Y-63823809D01*
X76585714Y-64014285D01*
X76538095Y-64109523D01*
X76442857Y-64204761D01*
X76300000Y-64252380D01*
X76061904Y-64252380D01*
X77585714Y-64252380D02*
X77014285Y-64252380D01*
X77300000Y-64252380D02*
X77300000Y-63252380D01*
X77204761Y-63395238D01*
X77109523Y-63490476D01*
X77014285Y-63538095D01*
X65633333Y-55252380D02*
X65300000Y-54776190D01*
X65061904Y-55252380D02*
X65061904Y-54252380D01*
X65442857Y-54252380D01*
X65538095Y-54300000D01*
X65585714Y-54347619D01*
X65633333Y-54442857D01*
X65633333Y-54585714D01*
X65585714Y-54680952D01*
X65538095Y-54728571D01*
X65442857Y-54776190D01*
X65061904Y-54776190D01*
X66109523Y-55252380D02*
X66300000Y-55252380D01*
X66395238Y-55204761D01*
X66442857Y-55157142D01*
X66538095Y-55014285D01*
X66585714Y-54823809D01*
X66585714Y-54442857D01*
X66538095Y-54347619D01*
X66490476Y-54300000D01*
X66395238Y-54252380D01*
X66204761Y-54252380D01*
X66109523Y-54300000D01*
X66061904Y-54347619D01*
X66014285Y-54442857D01*
X66014285Y-54680952D01*
X66061904Y-54776190D01*
X66109523Y-54823809D01*
X66204761Y-54871428D01*
X66395238Y-54871428D01*
X66490476Y-54823809D01*
X66538095Y-54776190D01*
X66585714Y-54680952D01*
X75357142Y-49452380D02*
X75023809Y-48976190D01*
X74785714Y-49452380D02*
X74785714Y-48452380D01*
X75166666Y-48452380D01*
X75261904Y-48500000D01*
X75309523Y-48547619D01*
X75357142Y-48642857D01*
X75357142Y-48785714D01*
X75309523Y-48880952D01*
X75261904Y-48928571D01*
X75166666Y-48976190D01*
X74785714Y-48976190D01*
X75738095Y-48547619D02*
X75785714Y-48500000D01*
X75880952Y-48452380D01*
X76119047Y-48452380D01*
X76214285Y-48500000D01*
X76261904Y-48547619D01*
X76309523Y-48642857D01*
X76309523Y-48738095D01*
X76261904Y-48880952D01*
X75690476Y-49452380D01*
X76309523Y-49452380D01*
X76928571Y-48452380D02*
X77023809Y-48452380D01*
X77119047Y-48500000D01*
X77166666Y-48547619D01*
X77214285Y-48642857D01*
X77261904Y-48833333D01*
X77261904Y-49071428D01*
X77214285Y-49261904D01*
X77166666Y-49357142D01*
X77119047Y-49404761D01*
X77023809Y-49452380D01*
X76928571Y-49452380D01*
X76833333Y-49404761D01*
X76785714Y-49357142D01*
X76738095Y-49261904D01*
X76690476Y-49071428D01*
X76690476Y-48833333D01*
X76738095Y-48642857D01*
X76785714Y-48547619D01*
X76833333Y-48500000D01*
X76928571Y-48452380D01*
X64557142Y-59652380D02*
X64223809Y-59176190D01*
X63985714Y-59652380D02*
X63985714Y-58652380D01*
X64366666Y-58652380D01*
X64461904Y-58700000D01*
X64509523Y-58747619D01*
X64557142Y-58842857D01*
X64557142Y-58985714D01*
X64509523Y-59080952D01*
X64461904Y-59128571D01*
X64366666Y-59176190D01*
X63985714Y-59176190D01*
X65509523Y-59652380D02*
X64938095Y-59652380D01*
X65223809Y-59652380D02*
X65223809Y-58652380D01*
X65128571Y-58795238D01*
X65033333Y-58890476D01*
X64938095Y-58938095D01*
X65842857Y-58652380D02*
X66509523Y-58652380D01*
X66080952Y-59652380D01*
X61904761Y-56747619D02*
X61809523Y-56700000D01*
X61714285Y-56604761D01*
X61571428Y-56461904D01*
X61476190Y-56414285D01*
X61380952Y-56414285D01*
X61428571Y-56652380D02*
X61333333Y-56604761D01*
X61238095Y-56509523D01*
X61190476Y-56319047D01*
X61190476Y-55985714D01*
X61238095Y-55795238D01*
X61333333Y-55700000D01*
X61428571Y-55652380D01*
X61619047Y-55652380D01*
X61714285Y-55700000D01*
X61809523Y-55795238D01*
X61857142Y-55985714D01*
X61857142Y-56319047D01*
X61809523Y-56509523D01*
X61714285Y-56604761D01*
X61619047Y-56652380D01*
X61428571Y-56652380D01*
X62809523Y-56652380D02*
X62238095Y-56652380D01*
X62523809Y-56652380D02*
X62523809Y-55652380D01*
X62428571Y-55795238D01*
X62333333Y-55890476D01*
X62238095Y-55938095D01*
X70633333Y-57652380D02*
X70300000Y-57176190D01*
X70061904Y-57652380D02*
X70061904Y-56652380D01*
X70442857Y-56652380D01*
X70538095Y-56700000D01*
X70585714Y-56747619D01*
X70633333Y-56842857D01*
X70633333Y-56985714D01*
X70585714Y-57080952D01*
X70538095Y-57128571D01*
X70442857Y-57176190D01*
X70061904Y-57176190D01*
X70966666Y-56652380D02*
X71633333Y-56652380D01*
X71204761Y-57652380D01*
X73461904Y-65852380D02*
X73461904Y-64852380D01*
X73700000Y-64852380D01*
X73842857Y-64900000D01*
X73938095Y-64995238D01*
X73985714Y-65090476D01*
X74033333Y-65280952D01*
X74033333Y-65423809D01*
X73985714Y-65614285D01*
X73938095Y-65709523D01*
X73842857Y-65804761D01*
X73700000Y-65852380D01*
X73461904Y-65852380D01*
X74938095Y-64852380D02*
X74461904Y-64852380D01*
X74414285Y-65328571D01*
X74461904Y-65280952D01*
X74557142Y-65233333D01*
X74795238Y-65233333D01*
X74890476Y-65280952D01*
X74938095Y-65328571D01*
X74985714Y-65423809D01*
X74985714Y-65661904D01*
X74938095Y-65757142D01*
X74890476Y-65804761D01*
X74795238Y-65852380D01*
X74557142Y-65852380D01*
X74461904Y-65804761D01*
X74414285Y-65757142D01*
X50438095Y-44900000D02*
X50342857Y-44852380D01*
X50200000Y-44852380D01*
X50057142Y-44900000D01*
X49961904Y-44995238D01*
X49914285Y-45090476D01*
X49866666Y-45280952D01*
X49866666Y-45423809D01*
X49914285Y-45614285D01*
X49961904Y-45709523D01*
X50057142Y-45804761D01*
X50200000Y-45852380D01*
X50295238Y-45852380D01*
X50438095Y-45804761D01*
X50485714Y-45757142D01*
X50485714Y-45423809D01*
X50295238Y-45423809D01*
X50914285Y-45852380D02*
X50914285Y-44852380D01*
X51485714Y-45852380D01*
X51485714Y-44852380D01*
X51961904Y-45852380D02*
X51961904Y-44852380D01*
X52200000Y-44852380D01*
X52342857Y-44900000D01*
X52438095Y-44995238D01*
X52485714Y-45090476D01*
X52533333Y-45280952D01*
X52533333Y-45423809D01*
X52485714Y-45614285D01*
X52438095Y-45709523D01*
X52342857Y-45804761D01*
X52200000Y-45852380D01*
X51961904Y-45852380D01*
X72157142Y-32357142D02*
X72109523Y-32404761D01*
X71966666Y-32452380D01*
X71871428Y-32452380D01*
X71728571Y-32404761D01*
X71633333Y-32309523D01*
X71585714Y-32214285D01*
X71538095Y-32023809D01*
X71538095Y-31880952D01*
X71585714Y-31690476D01*
X71633333Y-31595238D01*
X71728571Y-31500000D01*
X71871428Y-31452380D01*
X71966666Y-31452380D01*
X72109523Y-31500000D01*
X72157142Y-31547619D01*
X73109523Y-32452380D02*
X72538095Y-32452380D01*
X72823809Y-32452380D02*
X72823809Y-31452380D01*
X72728571Y-31595238D01*
X72633333Y-31690476D01*
X72538095Y-31738095D01*
X74014285Y-31452380D02*
X73538095Y-31452380D01*
X73490476Y-31928571D01*
X73538095Y-31880952D01*
X73633333Y-31833333D01*
X73871428Y-31833333D01*
X73966666Y-31880952D01*
X74014285Y-31928571D01*
X74061904Y-32023809D01*
X74061904Y-32261904D01*
X74014285Y-32357142D01*
X73966666Y-32404761D01*
X73871428Y-32452380D01*
X73633333Y-32452380D01*
X73538095Y-32404761D01*
X73490476Y-32357142D01*
D11*
X58000000Y-23200000D02*
G75*
G03*
X58000000Y-23200000I-1200000J0D01*
G01*
X81461252Y-63665000D02*
X80938748Y-63665000D01*
X81461252Y-65135000D02*
X80938748Y-65135000D01*
X56500000Y-42500000D02*
X69500000Y-42500000D01*
X56500000Y-44500000D02*
X69500000Y-44500000D01*
X56500000Y-50100000D02*
X69500000Y-50100000D01*
X69500000Y-50100000D02*
X69500000Y-36700000D01*
X69500000Y-36700000D02*
X56500000Y-36700000D01*
X56500000Y-36700000D02*
X56500000Y-50100000D01*
X61688748Y-63960000D02*
X63111252Y-63960000D01*
X61688748Y-61240000D02*
X63111252Y-61240000D01*
X53250000Y-67440000D02*
X54500000Y-67440000D01*
X53875000Y-66815000D02*
X53875000Y-68065000D01*
X65260000Y-64940000D02*
X65260000Y-68690000D01*
X65260000Y-75460000D02*
X65260000Y-71710000D01*
X54740000Y-74395563D02*
X55804437Y-75460000D01*
X54740000Y-66004437D02*
X54740000Y-68690000D01*
X55804437Y-64940000D02*
X65260000Y-64940000D01*
X55804437Y-75460000D02*
X65260000Y-75460000D01*
X54740000Y-74395563D02*
X54740000Y-71710000D01*
X54740000Y-66004437D02*
X55804437Y-64940000D01*
X64265000Y-56772936D02*
X64265000Y-57227064D01*
X65735000Y-56772936D02*
X65735000Y-57227064D01*
X82200000Y-49400000D02*
G75*
G03*
X82200000Y-49400000I-1200000J0D01*
G01*
X76572936Y-68335000D02*
X77027064Y-68335000D01*
X76572936Y-66865000D02*
X77027064Y-66865000D01*
X80972936Y-63335000D02*
X81427064Y-63335000D01*
X80972936Y-61865000D02*
X81427064Y-61865000D01*
X83060489Y-56739075D02*
X83060489Y-56284947D01*
X81590489Y-56739075D02*
X81590489Y-56284947D01*
X73250000Y-51450000D02*
X73250000Y-49750000D01*
X73250000Y-49750000D02*
X70700000Y-49750000D01*
X73250000Y-51450000D02*
X70700000Y-51450000D01*
X73772936Y-35065000D02*
X74227064Y-35065000D01*
X73772936Y-36535000D02*
X74227064Y-36535000D01*
X81000000Y-40800000D02*
G75*
G03*
X81000000Y-40800000I-1200000J0D01*
G01*
X82400000Y-36000000D02*
G75*
G03*
X82400000Y-36000000I-1200000J0D01*
G01*
X83010489Y-59738259D02*
X83010489Y-60260763D01*
X81540489Y-59738259D02*
X81540489Y-60260763D01*
X54211252Y-60865000D02*
X53688748Y-60865000D01*
X54211252Y-62335000D02*
X53688748Y-62335000D01*
X82200000Y-45800000D02*
G75*
G03*
X82200000Y-45800000I-1200000J0D01*
G01*
X73510000Y-44686252D02*
X73510000Y-42363748D01*
X70090000Y-44686252D02*
X70090000Y-42363748D01*
X48750000Y-64000000D02*
X48750000Y-58600000D01*
X48750000Y-64000000D02*
X52050000Y-64000000D01*
X52050000Y-64000000D02*
X52050000Y-58600000D01*
X53722936Y-64335000D02*
X54177064Y-64335000D01*
X53722936Y-62865000D02*
X54177064Y-62865000D01*
X70139564Y-61366250D02*
X69685436Y-61366250D01*
X70139564Y-59896250D02*
X69685436Y-59896250D01*
X57376248Y-63960000D02*
X58798752Y-63960000D01*
X57376248Y-61240000D02*
X58798752Y-61240000D01*
X77535000Y-35227064D02*
X77535000Y-34772936D01*
X76065000Y-35227064D02*
X76065000Y-34772936D01*
X75514237Y-56334511D02*
X76036741Y-56334511D01*
X75514237Y-54864511D02*
X76036741Y-54864511D01*
D10*
X79450489Y-56924511D02*
X79450489Y-57224511D01*
X79450489Y-60049511D02*
X80675489Y-60049511D01*
X76100489Y-56924511D02*
X76100489Y-57224511D01*
X79450489Y-56924511D02*
X76100489Y-56924511D01*
X79450489Y-60274511D02*
X79450489Y-60049511D01*
X76100489Y-60274511D02*
X76100489Y-59974511D01*
X79450489Y-60274511D02*
X76100489Y-60274511D01*
D11*
X74000000Y-38600000D02*
G75*
G03*
X74000000Y-38600000I-1200000J0D01*
G01*
X76139564Y-37065000D02*
X75685436Y-37065000D01*
X76139564Y-38535000D02*
X75685436Y-38535000D01*
X74735000Y-61138748D02*
X74735000Y-61661252D01*
X73265000Y-61138748D02*
X73265000Y-61661252D01*
X77560000Y-28800000D02*
X77560000Y-27125000D01*
X74440000Y-28800000D02*
X74440000Y-29450000D01*
X77560000Y-28800000D02*
X77560000Y-29450000D01*
X74440000Y-28800000D02*
X74440000Y-28150000D01*
X76600000Y-53000000D02*
G75*
G03*
X76600000Y-53000000I-1200000J0D01*
G01*
X78065000Y-35227064D02*
X78065000Y-34772936D01*
X79535000Y-35227064D02*
X79535000Y-34772936D01*
X68600000Y-65600000D02*
G75*
G03*
X68600000Y-65600000I-1200000J0D01*
G01*
X79661252Y-56335000D02*
X79138748Y-56335000D01*
X79661252Y-54865000D02*
X79138748Y-54865000D01*
X72000000Y-65600000D02*
G75*
G03*
X72000000Y-65600000I-1200000J0D01*
G01*
X79935000Y-28372936D02*
X79935000Y-28827064D01*
X78465000Y-28372936D02*
X78465000Y-28827064D01*
X51050000Y-30050000D02*
X51050000Y-35750000D01*
X55350000Y-30050000D02*
X51050000Y-30050000D01*
X55350000Y-30050000D02*
X55350000Y-35750000D01*
X71800000Y-53000000D02*
G75*
G03*
X71800000Y-53000000I-1200000J0D01*
G01*
X78563748Y-51240000D02*
X79986252Y-51240000D01*
X78563748Y-53960000D02*
X79986252Y-53960000D01*
X80972936Y-65465000D02*
X81427064Y-65465000D01*
X80972936Y-66935000D02*
X81427064Y-66935000D01*
X69300000Y-63650000D02*
X69300000Y-61950000D01*
X69300000Y-61950000D02*
X66750000Y-61950000D01*
X69300000Y-63650000D02*
X66750000Y-63650000D01*
X52311252Y-26440000D02*
X50888748Y-26440000D01*
X52311252Y-29160000D02*
X50888748Y-29160000D01*
X52600000Y-52200000D02*
G75*
G03*
X52600000Y-52200000I-1200000J0D01*
G01*
X52800000Y-69600000D02*
G75*
G03*
X52800000Y-69600000I-1200000J0D01*
G01*
X65060000Y-24740000D02*
X65060000Y-27490000D01*
X55800000Y-25990000D02*
X55800000Y-26990000D01*
X65060000Y-33260000D02*
X65060000Y-30510000D01*
X56540000Y-32195563D02*
X56540000Y-30510000D01*
X57604437Y-33260000D02*
X65060000Y-33260000D01*
X55300000Y-26490000D02*
X56300000Y-26490000D01*
X56540000Y-25804437D02*
X56540000Y-27490000D01*
X57604437Y-24740000D02*
X65060000Y-24740000D01*
X56540000Y-32195563D02*
X57604437Y-33260000D01*
X56540000Y-25804437D02*
X57604437Y-24740000D01*
X73400000Y-26200000D02*
G75*
G03*
X73400000Y-26200000I-1200000J0D01*
G01*
X74750000Y-45900000D02*
X74600000Y-45900000D01*
X74600000Y-45900000D02*
X74600000Y-41100000D01*
X77250000Y-41100000D02*
X77250000Y-39400000D01*
X77250000Y-41100000D02*
X77400000Y-41100000D01*
X77400000Y-45900000D02*
X77250000Y-45900000D01*
X77400000Y-41100000D02*
X77400000Y-45900000D01*
X74600000Y-41100000D02*
X74750000Y-41100000D01*
X75500000Y-61150000D02*
X78050000Y-61150000D01*
X75500000Y-62850000D02*
X78050000Y-62850000D01*
X75500000Y-61150000D02*
X75500000Y-62850000D01*
X69755000Y-55276263D02*
X69755000Y-56723737D01*
X67045000Y-55276263D02*
X67045000Y-56723737D01*
X75539564Y-49865000D02*
X75085436Y-49865000D01*
X75539564Y-51335000D02*
X75085436Y-51335000D01*
X66814564Y-59896250D02*
X66360436Y-59896250D01*
X66814564Y-61366250D02*
X66360436Y-61366250D01*
X59570000Y-53550000D02*
X61070000Y-53550000D01*
X59570000Y-60450000D02*
X61070000Y-60450000D01*
X61070000Y-60450000D02*
X61070000Y-60180000D01*
X61070000Y-60180000D02*
X63900000Y-60180000D01*
X61070000Y-53550000D02*
X61070000Y-53820000D01*
X61070000Y-53820000D02*
X62170000Y-53820000D01*
X72427064Y-54865000D02*
X71972936Y-54865000D01*
X72427064Y-56335000D02*
X71972936Y-56335000D01*
X75500000Y-64550000D02*
X78050000Y-64550000D01*
X75500000Y-64550000D02*
X75500000Y-66250000D01*
X75500000Y-66250000D02*
X78050000Y-66250000D01*
X52600000Y-47400000D02*
G75*
G03*
X52600000Y-47400000I-1200000J0D01*
G01*
X75738748Y-31265000D02*
X76261252Y-31265000D01*
X75738748Y-32735000D02*
X76261252Y-32735000D01*
%LPC*%
D12*
X56800000Y-23200000D03*
D13*
X82150000Y-64400000D03*
X80250000Y-64400000D03*
D14*
X68000000Y-51300000D03*
X65500000Y-51300000D03*
X63000000Y-51300000D03*
X60500000Y-51300000D03*
X58000000Y-51300000D03*
X58000000Y-35700000D03*
X60500000Y-35700000D03*
X63000000Y-35700000D03*
X65500000Y-35700000D03*
X68000000Y-35700000D03*
D15*
X60925000Y-62600000D03*
X63875000Y-62600000D03*
D16*
X56000000Y-70200000D03*
X64000000Y-70200000D03*
D17*
X65000000Y-56087500D03*
X65000000Y-57912500D03*
D12*
X81000000Y-49400000D03*
D18*
X75887500Y-67600000D03*
X77712500Y-67600000D03*
X80287500Y-62600000D03*
X82112500Y-62600000D03*
D19*
X82325489Y-57424511D03*
X82325489Y-55599511D03*
D20*
X72800000Y-50600000D03*
X70700000Y-50600000D03*
D18*
X73087500Y-35800000D03*
X74912500Y-35800000D03*
D12*
X79800000Y-40800000D03*
X81200000Y-36000000D03*
D21*
X82275489Y-59049511D03*
X82275489Y-60949511D03*
D13*
X54900000Y-61600000D03*
X53000000Y-61600000D03*
D12*
X81000000Y-45800000D03*
D22*
X71800000Y-45575000D03*
X71800000Y-41475000D03*
D23*
X50400000Y-62600000D03*
X50400000Y-58600000D03*
D18*
X53037500Y-63600000D03*
X54862500Y-63600000D03*
D24*
X70825000Y-60631250D03*
X69000000Y-60631250D03*
D15*
X56612500Y-62600000D03*
X59562500Y-62600000D03*
D19*
X76800000Y-35912500D03*
X76800000Y-34087500D03*
D25*
X74825489Y-55599511D03*
X76725489Y-55599511D03*
D26*
X79975489Y-59599511D03*
X79975489Y-59099511D03*
X79975489Y-58599511D03*
X79975489Y-58099511D03*
X79975489Y-57599511D03*
X75575489Y-57599511D03*
X75575489Y-58099511D03*
X75575489Y-58599511D03*
X75575489Y-59099511D03*
X75575489Y-59599511D03*
D12*
X72800000Y-38600000D03*
D24*
X76825000Y-37800000D03*
X75000000Y-37800000D03*
D21*
X74000000Y-60450000D03*
X74000000Y-62350000D03*
D27*
X52550000Y-23950000D03*
X52550000Y-22450000D03*
X54050000Y-22450000D03*
X54000000Y-23950000D03*
D28*
X53300000Y-23200000D03*
D29*
X76950000Y-27862500D03*
X75050000Y-27862500D03*
X76000000Y-29737500D03*
D12*
X75400000Y-53000000D03*
D19*
X78800000Y-35912500D03*
X78800000Y-34087500D03*
D12*
X67400000Y-65600000D03*
D13*
X80350000Y-55600000D03*
X78450000Y-55600000D03*
D12*
X70800000Y-65600000D03*
D17*
X79200000Y-27687500D03*
X79200000Y-29512500D03*
D27*
X51650000Y-73050000D03*
X51650000Y-74550000D03*
X53150000Y-73050000D03*
D28*
X52400000Y-73800000D03*
D27*
X53100000Y-74550000D03*
D30*
X53200000Y-31450000D03*
X53200000Y-35750000D03*
D12*
X70600000Y-53000000D03*
D15*
X77800000Y-52600000D03*
X80750000Y-52600000D03*
D27*
X68350000Y-22450000D03*
X66850000Y-23950000D03*
X68300000Y-23950000D03*
D28*
X67600000Y-23200000D03*
D27*
X66850000Y-22450000D03*
D18*
X80287500Y-66200000D03*
X82112500Y-66200000D03*
D20*
X68850000Y-62800000D03*
X66750000Y-62800000D03*
D31*
X53075000Y-27800000D03*
X50125000Y-27800000D03*
D27*
X66650000Y-73050000D03*
X68150000Y-73050000D03*
X68100000Y-74550000D03*
X66650000Y-74550000D03*
D28*
X67400000Y-73800000D03*
D12*
X51400000Y-52200000D03*
X51600000Y-69600000D03*
D32*
X57550000Y-29000000D03*
X64050000Y-29000000D03*
D12*
X72200000Y-26200000D03*
D33*
X76635000Y-40350000D03*
X75365000Y-40350000D03*
X75365000Y-46650000D03*
X76635000Y-46650000D03*
D20*
X75950000Y-62000000D03*
X78050000Y-62000000D03*
D34*
X68400000Y-54537500D03*
X68400000Y-57462500D03*
D24*
X76225000Y-50600000D03*
X74400000Y-50600000D03*
X67500000Y-60631250D03*
X65675000Y-60631250D03*
D35*
X62800000Y-59280000D03*
D36*
X56500000Y-57000000D03*
D35*
X62800000Y-54720000D03*
D24*
X73112500Y-55600000D03*
X71287500Y-55600000D03*
D20*
X75950000Y-65400000D03*
X78050000Y-65400000D03*
D12*
X51400000Y-47400000D03*
D25*
X75050000Y-32000000D03*
X76950000Y-32000000D03*
M02*
