G04 #@! TF.GenerationSoftware,KiCad,Pcbnew,6.0.1-79c1e3a40b~116~ubuntu20.04.1*
G04 #@! TF.CreationDate,2022-02-11T17:49:30+01:00*
G04 #@! TF.ProjectId,Feeder,46656564-6572-42e6-9b69-6361645f7063,rev?*
G04 #@! TF.SameCoordinates,Original*
G04 #@! TF.FileFunction,Copper,L2,Bot*
G04 #@! TF.FilePolarity,Positive*
%FSLAX46Y46*%
G04 Gerber Fmt 4.6, Leading zero omitted, Abs format (unit mm)*
G04 Created by KiCad (PCBNEW 6.0.1-79c1e3a40b~116~ubuntu20.04.1) date 2022-02-11 17:49:30*
%MOMM*%
%LPD*%
G01*
G04 APERTURE LIST*
G04 Aperture macros list*
%AMRoundRect*
0 Rectangle with rounded corners*
0 $1 Rounding radius*
0 $2 $3 $4 $5 $6 $7 $8 $9 X,Y pos of 4 corners*
0 Add a 4 corners polygon primitive as box body*
4,1,4,$2,$3,$4,$5,$6,$7,$8,$9,$2,$3,0*
0 Add four circle primitives for the rounded corners*
1,1,$1+$1,$2,$3*
1,1,$1+$1,$4,$5*
1,1,$1+$1,$6,$7*
1,1,$1+$1,$8,$9*
0 Add four rect primitives between the rounded corners*
20,1,$1+$1,$2,$3,$4,$5,0*
20,1,$1+$1,$4,$5,$6,$7,0*
20,1,$1+$1,$6,$7,$8,$9,0*
20,1,$1+$1,$8,$9,$2,$3,0*%
G04 Aperture macros list end*
G04 #@! TA.AperFunction,ComponentPad*
%ADD10C,2.000000*%
G04 #@! TD*
G04 #@! TA.AperFunction,ComponentPad*
%ADD11C,1.000000*%
G04 #@! TD*
G04 #@! TA.AperFunction,SMDPad,CuDef*
%ADD12RoundRect,0.750000X-0.750000X-0.750000X0.750000X-0.750000X0.750000X0.750000X-0.750000X0.750000X0*%
G04 #@! TD*
G04 #@! TA.AperFunction,ViaPad*
%ADD13C,0.800000*%
G04 #@! TD*
G04 APERTURE END LIST*
D10*
X56800000Y-23200000D03*
X81000000Y-49400000D03*
X79800000Y-40800000D03*
X81200000Y-36000000D03*
X81000000Y-45800000D03*
X72800000Y-38600000D03*
D11*
X52550000Y-23950000D03*
D12*
X53300000Y-23200000D03*
D11*
X52550000Y-22450000D03*
X54050000Y-22450000D03*
X54000000Y-23950000D03*
D10*
X75400000Y-53000000D03*
X67400000Y-65600000D03*
X70800000Y-65600000D03*
D12*
X52400000Y-73800000D03*
D11*
X51650000Y-73050000D03*
X51650000Y-74550000D03*
X53150000Y-73050000D03*
X53100000Y-74550000D03*
D10*
X70600000Y-53000000D03*
D11*
X68350000Y-22450000D03*
X66850000Y-23950000D03*
D12*
X67600000Y-23200000D03*
D11*
X68300000Y-23950000D03*
X66850000Y-22450000D03*
D12*
X67400000Y-73800000D03*
D11*
X66650000Y-73050000D03*
X68150000Y-73050000D03*
X68100000Y-74550000D03*
X66650000Y-74550000D03*
D10*
X51400000Y-52200000D03*
X51600000Y-69600000D03*
X72200000Y-26200000D03*
X51400000Y-47400000D03*
D13*
X69400000Y-33600000D03*
X66800000Y-33600000D03*
X68000000Y-33600000D03*
X69400000Y-35600000D03*
X61400000Y-29000000D03*
X50200000Y-25800000D03*
X50200000Y-29800000D03*
X66600000Y-69800000D03*
X68800000Y-58600000D03*
X65800000Y-70600000D03*
X69800000Y-58600000D03*
X83400000Y-55600000D03*
X83200000Y-62600000D03*
X66800000Y-58600000D03*
X64800000Y-64000000D03*
X74000000Y-63500000D03*
X81600000Y-53800000D03*
X74000000Y-48500000D03*
X81600000Y-51600000D03*
X64800000Y-62000000D03*
X73800000Y-57875011D03*
X69200000Y-51400000D03*
X83200000Y-64400000D03*
X69200000Y-50400000D03*
X76775489Y-54600000D03*
X64800000Y-63000000D03*
X78600000Y-61200000D03*
X83275489Y-61049511D03*
X65800000Y-69200000D03*
X67800000Y-58600000D03*
X83200000Y-66200000D03*
X71800000Y-47000000D03*
X62500000Y-49500000D03*
X63000000Y-48500000D03*
X57200000Y-63200000D03*
X57200000Y-64600000D03*
X63500000Y-49500000D03*
X57200000Y-61600000D03*
X76000000Y-28200000D03*
X66600000Y-29000000D03*
X64000000Y-26800000D03*
X64000000Y-31200000D03*
X80400000Y-29600000D03*
G04 #@! TA.AperFunction,Conductor*
G36*
X51499101Y-21528002D02*
G01*
X51545594Y-21581658D01*
X51555698Y-21651932D01*
X51534445Y-21705910D01*
X51497035Y-21759737D01*
X51452409Y-21823945D01*
X51358890Y-22028206D01*
X51303022Y-22245800D01*
X51302587Y-22251151D01*
X51294728Y-22347775D01*
X51291500Y-22387458D01*
X51291500Y-24012542D01*
X51291706Y-24015070D01*
X51291707Y-24015092D01*
X51296351Y-24072186D01*
X51303022Y-24154200D01*
X51358890Y-24371794D01*
X51452409Y-24576055D01*
X51580620Y-24760527D01*
X51739473Y-24919380D01*
X51923945Y-25047591D01*
X52128206Y-25141110D01*
X52133638Y-25142505D01*
X52133639Y-25142505D01*
X52338673Y-25195148D01*
X52345800Y-25196978D01*
X52399705Y-25201362D01*
X52484908Y-25208293D01*
X52484918Y-25208293D01*
X52487458Y-25208500D01*
X54112542Y-25208500D01*
X54115082Y-25208293D01*
X54115092Y-25208293D01*
X54200295Y-25201362D01*
X54254200Y-25196978D01*
X54261328Y-25195148D01*
X54466361Y-25142505D01*
X54466362Y-25142505D01*
X54471794Y-25141110D01*
X54676055Y-25047591D01*
X54860527Y-24919380D01*
X55019380Y-24760527D01*
X55147591Y-24576055D01*
X55241110Y-24371794D01*
X55296978Y-24154200D01*
X55303006Y-24080089D01*
X55328464Y-24013814D01*
X55385713Y-23971824D01*
X55456574Y-23967451D01*
X55518552Y-24002082D01*
X55536023Y-24024469D01*
X55573235Y-24085193D01*
X55573242Y-24085202D01*
X55575824Y-24089416D01*
X55730031Y-24269969D01*
X55910584Y-24424176D01*
X55914792Y-24426755D01*
X55914798Y-24426759D01*
X56108817Y-24545654D01*
X56113037Y-24548240D01*
X56117607Y-24550133D01*
X56117611Y-24550135D01*
X56327833Y-24637211D01*
X56332406Y-24639105D01*
X56412609Y-24658360D01*
X56558476Y-24693380D01*
X56558482Y-24693381D01*
X56563289Y-24694535D01*
X56800000Y-24713165D01*
X57036711Y-24694535D01*
X57041518Y-24693381D01*
X57041524Y-24693380D01*
X57187391Y-24658360D01*
X57267594Y-24639105D01*
X57272167Y-24637211D01*
X57482389Y-24550135D01*
X57482393Y-24550133D01*
X57486963Y-24548240D01*
X57491183Y-24545654D01*
X57685202Y-24426759D01*
X57685208Y-24426755D01*
X57689416Y-24424176D01*
X57869969Y-24269969D01*
X58024176Y-24089416D01*
X58026755Y-24085208D01*
X58026759Y-24085202D01*
X58072867Y-24009961D01*
X65592001Y-24009961D01*
X65592209Y-24015071D01*
X65603082Y-24148767D01*
X65604852Y-24159320D01*
X65657967Y-24366185D01*
X65661701Y-24376731D01*
X65750510Y-24570705D01*
X65756046Y-24580412D01*
X65877803Y-24755597D01*
X65884976Y-24764176D01*
X66035824Y-24915024D01*
X66044403Y-24922197D01*
X66219588Y-25043954D01*
X66229295Y-25049490D01*
X66423269Y-25138299D01*
X66433815Y-25142033D01*
X66640679Y-25195147D01*
X66651234Y-25196918D01*
X66784930Y-25207793D01*
X66790036Y-25208000D01*
X67327885Y-25208000D01*
X67343124Y-25203525D01*
X67344329Y-25202135D01*
X67346000Y-25194452D01*
X67346000Y-25189884D01*
X67854000Y-25189884D01*
X67858475Y-25205123D01*
X67859865Y-25206328D01*
X67867548Y-25207999D01*
X68409961Y-25207999D01*
X68415071Y-25207791D01*
X68548767Y-25196918D01*
X68559320Y-25195148D01*
X68766185Y-25142033D01*
X68776731Y-25138299D01*
X68970705Y-25049490D01*
X68980412Y-25043954D01*
X69089854Y-24967890D01*
X71332093Y-24967890D01*
X71335876Y-24976666D01*
X72187188Y-25827978D01*
X72201132Y-25835592D01*
X72202965Y-25835461D01*
X72209580Y-25831210D01*
X73061080Y-24979710D01*
X73067840Y-24967330D01*
X73062113Y-24959680D01*
X72890958Y-24854795D01*
X72882163Y-24850313D01*
X72672012Y-24763266D01*
X72662627Y-24760217D01*
X72441446Y-24707115D01*
X72431699Y-24705572D01*
X72204930Y-24687725D01*
X72195070Y-24687725D01*
X71968301Y-24705572D01*
X71958554Y-24707115D01*
X71737373Y-24760217D01*
X71727988Y-24763266D01*
X71517837Y-24850313D01*
X71509042Y-24854795D01*
X71341555Y-24957432D01*
X71332093Y-24967890D01*
X69089854Y-24967890D01*
X69155597Y-24922197D01*
X69164176Y-24915024D01*
X69315024Y-24764176D01*
X69322197Y-24755597D01*
X69443954Y-24580412D01*
X69449490Y-24570705D01*
X69538299Y-24376731D01*
X69542033Y-24366185D01*
X69595147Y-24159321D01*
X69596918Y-24148766D01*
X69607793Y-24015070D01*
X69608000Y-24009964D01*
X69608000Y-23472115D01*
X69603525Y-23456876D01*
X69602135Y-23455671D01*
X69594452Y-23454000D01*
X69173325Y-23454000D01*
X69147680Y-23461530D01*
X67866812Y-24742398D01*
X67854000Y-24765860D01*
X67854000Y-25189884D01*
X67346000Y-25189884D01*
X67346000Y-24823325D01*
X67338470Y-24797680D01*
X66491922Y-23951132D01*
X67214408Y-23951132D01*
X67214539Y-23952965D01*
X67218790Y-23959580D01*
X67333188Y-24073978D01*
X67343277Y-24079487D01*
X67346000Y-24072186D01*
X67346000Y-24018675D01*
X67854000Y-24018675D01*
X67857237Y-24029700D01*
X67864328Y-24026462D01*
X67927978Y-23962812D01*
X67935592Y-23948868D01*
X67935461Y-23947035D01*
X67931210Y-23940420D01*
X67866812Y-23876022D01*
X67856723Y-23870513D01*
X67854000Y-23877814D01*
X67854000Y-24018675D01*
X67346000Y-24018675D01*
X67346000Y-23831325D01*
X67342763Y-23820300D01*
X67335672Y-23823538D01*
X67222022Y-23937188D01*
X67214408Y-23951132D01*
X66491922Y-23951132D01*
X66007602Y-23466812D01*
X65990068Y-23457237D01*
X66720300Y-23457237D01*
X66723538Y-23464328D01*
X66837188Y-23577978D01*
X66851132Y-23585592D01*
X66852965Y-23585461D01*
X66859580Y-23581210D01*
X66973978Y-23466812D01*
X66979206Y-23457237D01*
X68170300Y-23457237D01*
X68173538Y-23464328D01*
X68287188Y-23577978D01*
X68301132Y-23585592D01*
X68302965Y-23585461D01*
X68309580Y-23581210D01*
X68423978Y-23466812D01*
X68429487Y-23456723D01*
X68422186Y-23454000D01*
X68181325Y-23454000D01*
X68170300Y-23457237D01*
X66979206Y-23457237D01*
X66979487Y-23456723D01*
X66972186Y-23454000D01*
X66731325Y-23454000D01*
X66720300Y-23457237D01*
X65990068Y-23457237D01*
X65984140Y-23454000D01*
X65610116Y-23454000D01*
X65594877Y-23458475D01*
X65593672Y-23459865D01*
X65592001Y-23467548D01*
X65592001Y-24009961D01*
X58072867Y-24009961D01*
X58145654Y-23891183D01*
X58148240Y-23886963D01*
X58174512Y-23823538D01*
X58237211Y-23672167D01*
X58237212Y-23672165D01*
X58239105Y-23667594D01*
X58260620Y-23577978D01*
X58293380Y-23441524D01*
X58293381Y-23441518D01*
X58294535Y-23436711D01*
X58313165Y-23200000D01*
X58294535Y-22963289D01*
X58290385Y-22946000D01*
X58240260Y-22737218D01*
X58239105Y-22732406D01*
X58148240Y-22513037D01*
X58117462Y-22462812D01*
X58026759Y-22314798D01*
X58026755Y-22314792D01*
X58024176Y-22310584D01*
X57869969Y-22130031D01*
X57689416Y-21975824D01*
X57685208Y-21973245D01*
X57685202Y-21973241D01*
X57491183Y-21854346D01*
X57486963Y-21851760D01*
X57482393Y-21849867D01*
X57482389Y-21849865D01*
X57272167Y-21762789D01*
X57272165Y-21762788D01*
X57267594Y-21760895D01*
X57262780Y-21759739D01*
X57262773Y-21759737D01*
X57249366Y-21756518D01*
X57187797Y-21721166D01*
X57155115Y-21658140D01*
X57161696Y-21587449D01*
X57205450Y-21531537D01*
X57278781Y-21508000D01*
X65731589Y-21508000D01*
X65799710Y-21528002D01*
X65846203Y-21581658D01*
X65856307Y-21651932D01*
X65835054Y-21705910D01*
X65756046Y-21819588D01*
X65750510Y-21829295D01*
X65661701Y-22023269D01*
X65657967Y-22033815D01*
X65604853Y-22240679D01*
X65603082Y-22251234D01*
X65592207Y-22384930D01*
X65592000Y-22390036D01*
X65592000Y-22927885D01*
X65596475Y-22943124D01*
X65597865Y-22944329D01*
X65605548Y-22946000D01*
X65976675Y-22946000D01*
X65985949Y-22943277D01*
X66720513Y-22943277D01*
X66727814Y-22946000D01*
X66968675Y-22946000D01*
X66977949Y-22943277D01*
X68220513Y-22943277D01*
X68227814Y-22946000D01*
X68468675Y-22946000D01*
X68479700Y-22942763D01*
X68476462Y-22935672D01*
X68362812Y-22822022D01*
X68348868Y-22814408D01*
X68347035Y-22814539D01*
X68340420Y-22818790D01*
X68226022Y-22933188D01*
X68220513Y-22943277D01*
X66977949Y-22943277D01*
X66979700Y-22942763D01*
X66976462Y-22935672D01*
X66862812Y-22822022D01*
X66848868Y-22814408D01*
X66847035Y-22814539D01*
X66840420Y-22818790D01*
X66726022Y-22933188D01*
X66720513Y-22943277D01*
X65985949Y-22943277D01*
X66002320Y-22938470D01*
X66489658Y-22451132D01*
X67214408Y-22451132D01*
X67214539Y-22452965D01*
X67218790Y-22459580D01*
X67587188Y-22827978D01*
X67601132Y-22835592D01*
X67602965Y-22835461D01*
X67609580Y-22831210D01*
X67977978Y-22462812D01*
X67985592Y-22448868D01*
X67985461Y-22447035D01*
X67981210Y-22440420D01*
X67612812Y-22072022D01*
X67598868Y-22064408D01*
X67597035Y-22064539D01*
X67590420Y-22068790D01*
X67222022Y-22437188D01*
X67214408Y-22451132D01*
X66489658Y-22451132D01*
X67322348Y-21618442D01*
X67384660Y-21584416D01*
X67455475Y-21589481D01*
X67500538Y-21618442D01*
X67587188Y-21705092D01*
X67601132Y-21712706D01*
X67602965Y-21712575D01*
X67609580Y-21708324D01*
X67699462Y-21618442D01*
X67761774Y-21584416D01*
X67832589Y-21589481D01*
X67877652Y-21618442D01*
X69192398Y-22933188D01*
X69215860Y-22946000D01*
X69589884Y-22946000D01*
X69605123Y-22941525D01*
X69606328Y-22940135D01*
X69607999Y-22932452D01*
X69607999Y-22390039D01*
X69607791Y-22384929D01*
X69596918Y-22251233D01*
X69595148Y-22240680D01*
X69542033Y-22033815D01*
X69538299Y-22023269D01*
X69449490Y-21829295D01*
X69443954Y-21819588D01*
X69364946Y-21705910D01*
X69342493Y-21638557D01*
X69360019Y-21569757D01*
X69411958Y-21521354D01*
X69468411Y-21508000D01*
X84866000Y-21508000D01*
X84934121Y-21528002D01*
X84980614Y-21581658D01*
X84992000Y-21634000D01*
X84992000Y-42374000D01*
X84971998Y-42442121D01*
X84918342Y-42488614D01*
X84866000Y-42500000D01*
X80243317Y-42500000D01*
X80175196Y-42479998D01*
X80128703Y-42426342D01*
X80118599Y-42356068D01*
X80148093Y-42291488D01*
X80213903Y-42251481D01*
X80262627Y-42239783D01*
X80272012Y-42236734D01*
X80482163Y-42149687D01*
X80490958Y-42145205D01*
X80658445Y-42042568D01*
X80667907Y-42032110D01*
X80664124Y-42023334D01*
X79812812Y-41172022D01*
X79798868Y-41164408D01*
X79797035Y-41164539D01*
X79790420Y-41168790D01*
X78938920Y-42020290D01*
X78932160Y-42032670D01*
X78937887Y-42040320D01*
X79109042Y-42145205D01*
X79117837Y-42149687D01*
X79327988Y-42236734D01*
X79337373Y-42239783D01*
X79386097Y-42251481D01*
X79447667Y-42286833D01*
X79480349Y-42349860D01*
X79473768Y-42420551D01*
X79430014Y-42476463D01*
X79356683Y-42500000D01*
X69526000Y-42500000D01*
X69457879Y-42479998D01*
X69411386Y-42426342D01*
X69400000Y-42374000D01*
X69400000Y-40804930D01*
X78287725Y-40804930D01*
X78305572Y-41031699D01*
X78307115Y-41041446D01*
X78360217Y-41262627D01*
X78363266Y-41272012D01*
X78450313Y-41482163D01*
X78454795Y-41490958D01*
X78557432Y-41658445D01*
X78567890Y-41667907D01*
X78576666Y-41664124D01*
X79427978Y-40812812D01*
X79434356Y-40801132D01*
X80164408Y-40801132D01*
X80164539Y-40802965D01*
X80168790Y-40809580D01*
X81020290Y-41661080D01*
X81032670Y-41667840D01*
X81040320Y-41662113D01*
X81145205Y-41490958D01*
X81149687Y-41482163D01*
X81236734Y-41272012D01*
X81239783Y-41262627D01*
X81292885Y-41041446D01*
X81294428Y-41031699D01*
X81312275Y-40804930D01*
X81312275Y-40795070D01*
X81294428Y-40568301D01*
X81292885Y-40558554D01*
X81239783Y-40337373D01*
X81236734Y-40327988D01*
X81149687Y-40117837D01*
X81145205Y-40109042D01*
X81042568Y-39941555D01*
X81032110Y-39932093D01*
X81023334Y-39935876D01*
X80172022Y-40787188D01*
X80164408Y-40801132D01*
X79434356Y-40801132D01*
X79435592Y-40798868D01*
X79435461Y-40797035D01*
X79431210Y-40790420D01*
X78579710Y-39938920D01*
X78567330Y-39932160D01*
X78559680Y-39937887D01*
X78454795Y-40109042D01*
X78450313Y-40117837D01*
X78363266Y-40327988D01*
X78360217Y-40337373D01*
X78307115Y-40558554D01*
X78305572Y-40568301D01*
X78287725Y-40795070D01*
X78287725Y-40804930D01*
X69400000Y-40804930D01*
X69400000Y-38600000D01*
X71286835Y-38600000D01*
X71305465Y-38836711D01*
X71360895Y-39067594D01*
X71451760Y-39286963D01*
X71454346Y-39291183D01*
X71573241Y-39485202D01*
X71573245Y-39485208D01*
X71575824Y-39489416D01*
X71730031Y-39669969D01*
X71910584Y-39824176D01*
X71914792Y-39826755D01*
X71914798Y-39826759D01*
X72097828Y-39938920D01*
X72113037Y-39948240D01*
X72117607Y-39950133D01*
X72117611Y-39950135D01*
X72327833Y-40037211D01*
X72332406Y-40039105D01*
X72412609Y-40058360D01*
X72558476Y-40093380D01*
X72558482Y-40093381D01*
X72563289Y-40094535D01*
X72800000Y-40113165D01*
X73036711Y-40094535D01*
X73041518Y-40093381D01*
X73041524Y-40093380D01*
X73187391Y-40058360D01*
X73267594Y-40039105D01*
X73272167Y-40037211D01*
X73482389Y-39950135D01*
X73482393Y-39950133D01*
X73486963Y-39948240D01*
X73502172Y-39938920D01*
X73685202Y-39826759D01*
X73685208Y-39826755D01*
X73689416Y-39824176D01*
X73869969Y-39669969D01*
X73957153Y-39567890D01*
X78932093Y-39567890D01*
X78935876Y-39576666D01*
X79787188Y-40427978D01*
X79801132Y-40435592D01*
X79802965Y-40435461D01*
X79809580Y-40431210D01*
X80661080Y-39579710D01*
X80667840Y-39567330D01*
X80662113Y-39559680D01*
X80490958Y-39454795D01*
X80482163Y-39450313D01*
X80272012Y-39363266D01*
X80262627Y-39360217D01*
X80041446Y-39307115D01*
X80031699Y-39305572D01*
X79804930Y-39287725D01*
X79795070Y-39287725D01*
X79568301Y-39305572D01*
X79558554Y-39307115D01*
X79337373Y-39360217D01*
X79327988Y-39363266D01*
X79117837Y-39450313D01*
X79109042Y-39454795D01*
X78941555Y-39557432D01*
X78932093Y-39567890D01*
X73957153Y-39567890D01*
X74024176Y-39489416D01*
X74026755Y-39485208D01*
X74026759Y-39485202D01*
X74145654Y-39291183D01*
X74148240Y-39286963D01*
X74239105Y-39067594D01*
X74294535Y-38836711D01*
X74313165Y-38600000D01*
X74294535Y-38363289D01*
X74239105Y-38132406D01*
X74148240Y-37913037D01*
X74145654Y-37908817D01*
X74026759Y-37714798D01*
X74026755Y-37714792D01*
X74024176Y-37710584D01*
X73869969Y-37530031D01*
X73689416Y-37375824D01*
X73685208Y-37373245D01*
X73685202Y-37373241D01*
X73491183Y-37254346D01*
X73486963Y-37251760D01*
X73482393Y-37249867D01*
X73482389Y-37249865D01*
X73272167Y-37162789D01*
X73272165Y-37162788D01*
X73267594Y-37160895D01*
X73187391Y-37141640D01*
X73041524Y-37106620D01*
X73041518Y-37106619D01*
X73036711Y-37105465D01*
X72800000Y-37086835D01*
X72563289Y-37105465D01*
X72558482Y-37106619D01*
X72558476Y-37106620D01*
X72412609Y-37141640D01*
X72332406Y-37160895D01*
X72327835Y-37162788D01*
X72327833Y-37162789D01*
X72117611Y-37249865D01*
X72117607Y-37249867D01*
X72113037Y-37251760D01*
X72108817Y-37254346D01*
X71914798Y-37373241D01*
X71914792Y-37373245D01*
X71910584Y-37375824D01*
X71730031Y-37530031D01*
X71575824Y-37710584D01*
X71573245Y-37714792D01*
X71573241Y-37714798D01*
X71454346Y-37908817D01*
X71451760Y-37913037D01*
X71360895Y-38132406D01*
X71305465Y-38363289D01*
X71286835Y-38600000D01*
X69400000Y-38600000D01*
X69400000Y-36800000D01*
X56600000Y-36800000D01*
X56600000Y-42374000D01*
X56579998Y-42442121D01*
X56526342Y-42488614D01*
X56474000Y-42500000D01*
X48834000Y-42500000D01*
X48765879Y-42479998D01*
X48719386Y-42426342D01*
X48708000Y-42374000D01*
X48708000Y-36000000D01*
X79686835Y-36000000D01*
X79705465Y-36236711D01*
X79760895Y-36467594D01*
X79851760Y-36686963D01*
X79854346Y-36691183D01*
X79973241Y-36885202D01*
X79973245Y-36885208D01*
X79975824Y-36889416D01*
X80130031Y-37069969D01*
X80310584Y-37224176D01*
X80314792Y-37226755D01*
X80314798Y-37226759D01*
X80508817Y-37345654D01*
X80513037Y-37348240D01*
X80517607Y-37350133D01*
X80517611Y-37350135D01*
X80727833Y-37437211D01*
X80732406Y-37439105D01*
X80812609Y-37458360D01*
X80958476Y-37493380D01*
X80958482Y-37493381D01*
X80963289Y-37494535D01*
X81200000Y-37513165D01*
X81436711Y-37494535D01*
X81441518Y-37493381D01*
X81441524Y-37493380D01*
X81587391Y-37458360D01*
X81667594Y-37439105D01*
X81672167Y-37437211D01*
X81882389Y-37350135D01*
X81882393Y-37350133D01*
X81886963Y-37348240D01*
X81891183Y-37345654D01*
X82085202Y-37226759D01*
X82085208Y-37226755D01*
X82089416Y-37224176D01*
X82269969Y-37069969D01*
X82424176Y-36889416D01*
X82426755Y-36885208D01*
X82426759Y-36885202D01*
X82545654Y-36691183D01*
X82548240Y-36686963D01*
X82639105Y-36467594D01*
X82694535Y-36236711D01*
X82713165Y-36000000D01*
X82694535Y-35763289D01*
X82639105Y-35532406D01*
X82548240Y-35313037D01*
X82545654Y-35308817D01*
X82426759Y-35114798D01*
X82426755Y-35114792D01*
X82424176Y-35110584D01*
X82269969Y-34930031D01*
X82089416Y-34775824D01*
X82085208Y-34773245D01*
X82085202Y-34773241D01*
X81891183Y-34654346D01*
X81886963Y-34651760D01*
X81882393Y-34649867D01*
X81882389Y-34649865D01*
X81672167Y-34562789D01*
X81672165Y-34562788D01*
X81667594Y-34560895D01*
X81587391Y-34541640D01*
X81441524Y-34506620D01*
X81441518Y-34506619D01*
X81436711Y-34505465D01*
X81200000Y-34486835D01*
X80963289Y-34505465D01*
X80958482Y-34506619D01*
X80958476Y-34506620D01*
X80812609Y-34541640D01*
X80732406Y-34560895D01*
X80727835Y-34562788D01*
X80727833Y-34562789D01*
X80517611Y-34649865D01*
X80517607Y-34649867D01*
X80513037Y-34651760D01*
X80508817Y-34654346D01*
X80314798Y-34773241D01*
X80314792Y-34773245D01*
X80310584Y-34775824D01*
X80130031Y-34930031D01*
X79975824Y-35110584D01*
X79973245Y-35114792D01*
X79973241Y-35114798D01*
X79854346Y-35308817D01*
X79851760Y-35313037D01*
X79760895Y-35532406D01*
X79705465Y-35763289D01*
X79686835Y-36000000D01*
X48708000Y-36000000D01*
X48708000Y-27432670D01*
X71332160Y-27432670D01*
X71337887Y-27440320D01*
X71509042Y-27545205D01*
X71517837Y-27549687D01*
X71727988Y-27636734D01*
X71737373Y-27639783D01*
X71958554Y-27692885D01*
X71968301Y-27694428D01*
X72195070Y-27712275D01*
X72204930Y-27712275D01*
X72431699Y-27694428D01*
X72441446Y-27692885D01*
X72662627Y-27639783D01*
X72672012Y-27636734D01*
X72882163Y-27549687D01*
X72890958Y-27545205D01*
X73058445Y-27442568D01*
X73067907Y-27432110D01*
X73064124Y-27423334D01*
X72212812Y-26572022D01*
X72198868Y-26564408D01*
X72197035Y-26564539D01*
X72190420Y-26568790D01*
X71338920Y-27420290D01*
X71332160Y-27432670D01*
X48708000Y-27432670D01*
X48708000Y-26204930D01*
X70687725Y-26204930D01*
X70705572Y-26431699D01*
X70707115Y-26441446D01*
X70760217Y-26662627D01*
X70763266Y-26672012D01*
X70850313Y-26882163D01*
X70854795Y-26890958D01*
X70957432Y-27058445D01*
X70967890Y-27067907D01*
X70976666Y-27064124D01*
X71827978Y-26212812D01*
X71834356Y-26201132D01*
X72564408Y-26201132D01*
X72564539Y-26202965D01*
X72568790Y-26209580D01*
X73420290Y-27061080D01*
X73432670Y-27067840D01*
X73440320Y-27062113D01*
X73545205Y-26890958D01*
X73549687Y-26882163D01*
X73636734Y-26672012D01*
X73639783Y-26662627D01*
X73692885Y-26441446D01*
X73694428Y-26431699D01*
X73712275Y-26204930D01*
X73712275Y-26195070D01*
X73694428Y-25968301D01*
X73692885Y-25958554D01*
X73639783Y-25737373D01*
X73636734Y-25727988D01*
X73549687Y-25517837D01*
X73545205Y-25509042D01*
X73442568Y-25341555D01*
X73432110Y-25332093D01*
X73423334Y-25335876D01*
X72572022Y-26187188D01*
X72564408Y-26201132D01*
X71834356Y-26201132D01*
X71835592Y-26198868D01*
X71835461Y-26197035D01*
X71831210Y-26190420D01*
X70979710Y-25338920D01*
X70967330Y-25332160D01*
X70959680Y-25337887D01*
X70854795Y-25509042D01*
X70850313Y-25517837D01*
X70763266Y-25727988D01*
X70760217Y-25737373D01*
X70707115Y-25958554D01*
X70705572Y-25968301D01*
X70687725Y-26195070D01*
X70687725Y-26204930D01*
X48708000Y-26204930D01*
X48708000Y-21634000D01*
X48728002Y-21565879D01*
X48781658Y-21519386D01*
X48834000Y-21508000D01*
X51430980Y-21508000D01*
X51499101Y-21528002D01*
G37*
G04 #@! TD.AperFunction*
G04 #@! TA.AperFunction,Conductor*
G36*
X56542121Y-44520002D02*
G01*
X56588614Y-44573658D01*
X56600000Y-44626000D01*
X56600000Y-48889615D01*
X56579998Y-48957736D01*
X56526342Y-49004229D01*
X56487469Y-49014893D01*
X56450944Y-49018820D01*
X56413440Y-49022852D01*
X56410156Y-49023566D01*
X56410152Y-49023567D01*
X56362527Y-49033927D01*
X56362521Y-49033928D01*
X56361098Y-49034238D01*
X56269905Y-49058635D01*
X56265616Y-49060499D01*
X56265613Y-49060500D01*
X56195411Y-49091010D01*
X56084335Y-49139283D01*
X55918799Y-49255635D01*
X55865143Y-49302128D01*
X55749370Y-49420598D01*
X55636861Y-49588771D01*
X55634450Y-49594688D01*
X55561713Y-49773192D01*
X55561710Y-49773201D01*
X55560509Y-49776148D01*
X55559609Y-49779212D01*
X55559609Y-49779213D01*
X55548033Y-49818639D01*
X55540507Y-49844269D01*
X55520470Y-49924701D01*
X55519432Y-49934909D01*
X55503975Y-50086915D01*
X55500000Y-50126000D01*
X55500000Y-66447810D01*
X55505728Y-66554688D01*
X55508607Y-66581471D01*
X55546698Y-66767369D01*
X55625206Y-66953854D01*
X55659232Y-67016166D01*
X55701933Y-67087198D01*
X55829798Y-67244012D01*
X56755988Y-68170202D01*
X56835602Y-68241717D01*
X56836908Y-68242770D01*
X56836918Y-68242778D01*
X56842311Y-68247124D01*
X56856576Y-68258620D01*
X57014961Y-68363139D01*
X57039824Y-68373270D01*
X57199382Y-68438287D01*
X57199391Y-68438290D01*
X57202338Y-68439491D01*
X57205402Y-68440391D01*
X57205403Y-68440391D01*
X57269215Y-68459128D01*
X57269227Y-68459131D01*
X57270459Y-68459493D01*
X57350891Y-68479530D01*
X57450924Y-68489702D01*
X57549011Y-68499677D01*
X57549016Y-68499677D01*
X57552190Y-68500000D01*
X58947810Y-68500000D01*
X59014268Y-68496438D01*
X59052994Y-68494363D01*
X59053002Y-68494362D01*
X59054688Y-68494272D01*
X59062335Y-68493450D01*
X59078487Y-68491714D01*
X59078492Y-68491713D01*
X59081471Y-68491393D01*
X59267369Y-68453302D01*
X59453854Y-68374794D01*
X59488708Y-68355761D01*
X59515035Y-68341386D01*
X59515050Y-68341377D01*
X59516166Y-68340768D01*
X59582233Y-68301052D01*
X59583346Y-68300383D01*
X59583350Y-68300380D01*
X59587198Y-68298067D01*
X59744012Y-68170202D01*
X60670202Y-67244012D01*
X60741717Y-67164398D01*
X60758620Y-67143424D01*
X60842598Y-67016166D01*
X60859726Y-66990211D01*
X60863139Y-66985039D01*
X60925226Y-66832670D01*
X60938287Y-66800618D01*
X60938290Y-66800609D01*
X60939491Y-66797662D01*
X60959493Y-66729541D01*
X60979530Y-66649109D01*
X60996198Y-66485202D01*
X60999677Y-66450989D01*
X60999677Y-66450984D01*
X61000000Y-66447810D01*
X61000000Y-65600000D01*
X65886835Y-65600000D01*
X65905465Y-65836711D01*
X65960895Y-66067594D01*
X65962788Y-66072165D01*
X65962789Y-66072167D01*
X66049772Y-66282163D01*
X66051760Y-66286963D01*
X66054346Y-66291183D01*
X66173241Y-66485202D01*
X66173245Y-66485208D01*
X66175824Y-66489416D01*
X66330031Y-66669969D01*
X66510584Y-66824176D01*
X66514792Y-66826755D01*
X66514798Y-66826759D01*
X66708084Y-66945205D01*
X66713037Y-66948240D01*
X66717607Y-66950133D01*
X66717611Y-66950135D01*
X66927833Y-67037211D01*
X66932406Y-67039105D01*
X67012609Y-67058360D01*
X67158476Y-67093380D01*
X67158482Y-67093381D01*
X67163289Y-67094535D01*
X67400000Y-67113165D01*
X67636711Y-67094535D01*
X67641518Y-67093381D01*
X67641524Y-67093380D01*
X67787391Y-67058360D01*
X67867594Y-67039105D01*
X67872167Y-67037211D01*
X68082389Y-66950135D01*
X68082393Y-66950133D01*
X68086963Y-66948240D01*
X68091916Y-66945205D01*
X68275556Y-66832670D01*
X69932160Y-66832670D01*
X69937887Y-66840320D01*
X70109042Y-66945205D01*
X70117837Y-66949687D01*
X70327988Y-67036734D01*
X70337373Y-67039783D01*
X70558554Y-67092885D01*
X70568301Y-67094428D01*
X70795070Y-67112275D01*
X70804930Y-67112275D01*
X71031699Y-67094428D01*
X71041446Y-67092885D01*
X71262627Y-67039783D01*
X71272012Y-67036734D01*
X71482163Y-66949687D01*
X71490958Y-66945205D01*
X71658445Y-66842568D01*
X71667907Y-66832110D01*
X71664124Y-66823334D01*
X70812812Y-65972022D01*
X70798868Y-65964408D01*
X70797035Y-65964539D01*
X70790420Y-65968790D01*
X69938920Y-66820290D01*
X69932160Y-66832670D01*
X68275556Y-66832670D01*
X68285202Y-66826759D01*
X68285208Y-66826755D01*
X68289416Y-66824176D01*
X68469969Y-66669969D01*
X68624176Y-66489416D01*
X68626755Y-66485208D01*
X68626759Y-66485202D01*
X68745654Y-66291183D01*
X68748240Y-66286963D01*
X68750229Y-66282163D01*
X68837211Y-66072167D01*
X68837212Y-66072165D01*
X68839105Y-66067594D01*
X68894535Y-65836711D01*
X68912777Y-65604930D01*
X69287725Y-65604930D01*
X69305572Y-65831699D01*
X69307115Y-65841446D01*
X69360217Y-66062627D01*
X69363266Y-66072012D01*
X69450313Y-66282163D01*
X69454795Y-66290958D01*
X69557432Y-66458445D01*
X69567890Y-66467907D01*
X69576666Y-66464124D01*
X70427978Y-65612812D01*
X70434356Y-65601132D01*
X71164408Y-65601132D01*
X71164539Y-65602965D01*
X71168790Y-65609580D01*
X72020290Y-66461080D01*
X72032670Y-66467840D01*
X72040320Y-66462113D01*
X72145205Y-66290958D01*
X72149687Y-66282163D01*
X72236734Y-66072012D01*
X72239783Y-66062627D01*
X72292885Y-65841446D01*
X72294428Y-65831699D01*
X72312275Y-65604930D01*
X72312275Y-65595070D01*
X72294428Y-65368301D01*
X72292885Y-65358554D01*
X72239783Y-65137373D01*
X72236734Y-65127988D01*
X72149687Y-64917837D01*
X72145205Y-64909042D01*
X72042568Y-64741555D01*
X72032110Y-64732093D01*
X72023334Y-64735876D01*
X71172022Y-65587188D01*
X71164408Y-65601132D01*
X70434356Y-65601132D01*
X70435592Y-65598868D01*
X70435461Y-65597035D01*
X70431210Y-65590420D01*
X69579710Y-64738920D01*
X69567330Y-64732160D01*
X69559680Y-64737887D01*
X69454795Y-64909042D01*
X69450313Y-64917837D01*
X69363266Y-65127988D01*
X69360217Y-65137373D01*
X69307115Y-65358554D01*
X69305572Y-65368301D01*
X69287725Y-65595070D01*
X69287725Y-65604930D01*
X68912777Y-65604930D01*
X68913165Y-65600000D01*
X68894535Y-65363289D01*
X68839105Y-65132406D01*
X68837211Y-65127833D01*
X68750135Y-64917611D01*
X68750133Y-64917607D01*
X68748240Y-64913037D01*
X68745654Y-64908817D01*
X68626759Y-64714798D01*
X68626755Y-64714792D01*
X68624176Y-64710584D01*
X68469969Y-64530031D01*
X68289416Y-64375824D01*
X68285208Y-64373245D01*
X68285202Y-64373241D01*
X68276470Y-64367890D01*
X69932093Y-64367890D01*
X69935876Y-64376666D01*
X70787188Y-65227978D01*
X70801132Y-65235592D01*
X70802965Y-65235461D01*
X70809580Y-65231210D01*
X71661080Y-64379710D01*
X71667840Y-64367330D01*
X71662113Y-64359680D01*
X71490958Y-64254795D01*
X71482163Y-64250313D01*
X71272012Y-64163266D01*
X71262627Y-64160217D01*
X71041446Y-64107115D01*
X71031699Y-64105572D01*
X70804930Y-64087725D01*
X70795070Y-64087725D01*
X70568301Y-64105572D01*
X70558554Y-64107115D01*
X70337373Y-64160217D01*
X70327988Y-64163266D01*
X70117837Y-64250313D01*
X70109042Y-64254795D01*
X69941555Y-64357432D01*
X69932093Y-64367890D01*
X68276470Y-64367890D01*
X68091183Y-64254346D01*
X68086963Y-64251760D01*
X68082393Y-64249867D01*
X68082389Y-64249865D01*
X67872167Y-64162789D01*
X67872165Y-64162788D01*
X67867594Y-64160895D01*
X67787391Y-64141640D01*
X67641524Y-64106620D01*
X67641518Y-64106619D01*
X67636711Y-64105465D01*
X67400000Y-64086835D01*
X67163289Y-64105465D01*
X67158482Y-64106619D01*
X67158476Y-64106620D01*
X67012609Y-64141640D01*
X66932406Y-64160895D01*
X66927835Y-64162788D01*
X66927833Y-64162789D01*
X66717611Y-64249865D01*
X66717607Y-64249867D01*
X66713037Y-64251760D01*
X66708817Y-64254346D01*
X66514798Y-64373241D01*
X66514792Y-64373245D01*
X66510584Y-64375824D01*
X66330031Y-64530031D01*
X66175824Y-64710584D01*
X66173245Y-64714792D01*
X66173241Y-64714798D01*
X66054346Y-64908817D01*
X66051760Y-64913037D01*
X66049867Y-64917607D01*
X66049865Y-64917611D01*
X65962789Y-65127833D01*
X65960895Y-65132406D01*
X65905465Y-65363289D01*
X65886835Y-65600000D01*
X61000000Y-65600000D01*
X61000000Y-54126000D01*
X61020002Y-54057879D01*
X61073658Y-54011386D01*
X61126000Y-54000000D01*
X62947810Y-54000000D01*
X63014268Y-53996438D01*
X63052994Y-53994363D01*
X63053002Y-53994362D01*
X63054688Y-53994272D01*
X63062335Y-53993450D01*
X63078487Y-53991714D01*
X63078492Y-53991713D01*
X63081471Y-53991393D01*
X63267369Y-53953302D01*
X63453854Y-53874794D01*
X63488708Y-53855761D01*
X63515035Y-53841386D01*
X63515050Y-53841377D01*
X63516166Y-53840768D01*
X63517279Y-53840099D01*
X63583346Y-53800383D01*
X63583350Y-53800380D01*
X63587198Y-53798067D01*
X63744012Y-53670202D01*
X64414214Y-53000000D01*
X69086835Y-53000000D01*
X69105465Y-53236711D01*
X69160895Y-53467594D01*
X69162788Y-53472165D01*
X69162789Y-53472167D01*
X69245837Y-53672663D01*
X69251760Y-53686963D01*
X69254346Y-53691183D01*
X69373241Y-53885202D01*
X69373245Y-53885208D01*
X69375824Y-53889416D01*
X69530031Y-54069969D01*
X69710584Y-54224176D01*
X69714792Y-54226755D01*
X69714798Y-54226759D01*
X69908817Y-54345654D01*
X69913037Y-54348240D01*
X69917607Y-54350133D01*
X69917611Y-54350135D01*
X70127833Y-54437211D01*
X70132406Y-54439105D01*
X70212609Y-54458360D01*
X70358476Y-54493380D01*
X70358482Y-54493381D01*
X70363289Y-54494535D01*
X70600000Y-54513165D01*
X70836711Y-54494535D01*
X70841518Y-54493381D01*
X70841524Y-54493380D01*
X70987391Y-54458360D01*
X71067594Y-54439105D01*
X71072167Y-54437211D01*
X71282389Y-54350135D01*
X71282393Y-54350133D01*
X71286963Y-54348240D01*
X71291183Y-54345654D01*
X71485202Y-54226759D01*
X71485208Y-54226755D01*
X71489416Y-54224176D01*
X71669969Y-54069969D01*
X71824176Y-53889416D01*
X71826755Y-53885208D01*
X71826759Y-53885202D01*
X71945654Y-53691183D01*
X71948240Y-53686963D01*
X71954164Y-53672663D01*
X72037211Y-53472167D01*
X72037212Y-53472165D01*
X72039105Y-53467594D01*
X72094535Y-53236711D01*
X72113165Y-53000000D01*
X73886835Y-53000000D01*
X73905465Y-53236711D01*
X73960895Y-53467594D01*
X73962788Y-53472165D01*
X73962789Y-53472167D01*
X74045837Y-53672663D01*
X74051760Y-53686963D01*
X74054346Y-53691183D01*
X74173241Y-53885202D01*
X74173245Y-53885208D01*
X74175824Y-53889416D01*
X74330031Y-54069969D01*
X74510584Y-54224176D01*
X74514792Y-54226755D01*
X74514798Y-54226759D01*
X74708817Y-54345654D01*
X74713037Y-54348240D01*
X74717607Y-54350133D01*
X74717611Y-54350135D01*
X74927833Y-54437211D01*
X74932406Y-54439105D01*
X75012609Y-54458360D01*
X75158476Y-54493380D01*
X75158482Y-54493381D01*
X75163289Y-54494535D01*
X75400000Y-54513165D01*
X75636711Y-54494535D01*
X75641518Y-54493381D01*
X75641524Y-54493380D01*
X75787391Y-54458360D01*
X75867594Y-54439105D01*
X75872167Y-54437211D01*
X76082389Y-54350135D01*
X76082393Y-54350133D01*
X76086963Y-54348240D01*
X76091183Y-54345654D01*
X76285202Y-54226759D01*
X76285208Y-54226755D01*
X76289416Y-54224176D01*
X76469969Y-54069969D01*
X76624176Y-53889416D01*
X76626755Y-53885208D01*
X76626759Y-53885202D01*
X76745654Y-53691183D01*
X76748240Y-53686963D01*
X76754164Y-53672663D01*
X76837211Y-53472167D01*
X76837212Y-53472165D01*
X76839105Y-53467594D01*
X76894535Y-53236711D01*
X76913165Y-53000000D01*
X76894535Y-52763289D01*
X76870794Y-52664398D01*
X76840260Y-52537218D01*
X76839105Y-52532406D01*
X76829846Y-52510052D01*
X76750135Y-52317611D01*
X76750133Y-52317607D01*
X76748240Y-52313037D01*
X76697836Y-52230785D01*
X76626759Y-52114798D01*
X76626755Y-52114792D01*
X76624176Y-52110584D01*
X76469969Y-51930031D01*
X76289416Y-51775824D01*
X76285208Y-51773245D01*
X76285202Y-51773241D01*
X76091183Y-51654346D01*
X76086963Y-51651760D01*
X76082393Y-51649867D01*
X76082389Y-51649865D01*
X75872167Y-51562789D01*
X75872165Y-51562788D01*
X75867594Y-51560895D01*
X75787391Y-51541640D01*
X75641524Y-51506620D01*
X75641518Y-51506619D01*
X75636711Y-51505465D01*
X75400000Y-51486835D01*
X75163289Y-51505465D01*
X75158482Y-51506619D01*
X75158476Y-51506620D01*
X75012609Y-51541640D01*
X74932406Y-51560895D01*
X74927835Y-51562788D01*
X74927833Y-51562789D01*
X74717611Y-51649865D01*
X74717607Y-51649867D01*
X74713037Y-51651760D01*
X74708817Y-51654346D01*
X74514798Y-51773241D01*
X74514792Y-51773245D01*
X74510584Y-51775824D01*
X74330031Y-51930031D01*
X74175824Y-52110584D01*
X74173245Y-52114792D01*
X74173241Y-52114798D01*
X74102164Y-52230785D01*
X74051760Y-52313037D01*
X74049867Y-52317607D01*
X74049865Y-52317611D01*
X73970154Y-52510052D01*
X73960895Y-52532406D01*
X73959740Y-52537218D01*
X73929207Y-52664398D01*
X73905465Y-52763289D01*
X73886835Y-53000000D01*
X72113165Y-53000000D01*
X72094535Y-52763289D01*
X72070794Y-52664398D01*
X72040260Y-52537218D01*
X72039105Y-52532406D01*
X72029846Y-52510052D01*
X71950135Y-52317611D01*
X71950133Y-52317607D01*
X71948240Y-52313037D01*
X71897836Y-52230785D01*
X71826759Y-52114798D01*
X71826755Y-52114792D01*
X71824176Y-52110584D01*
X71669969Y-51930031D01*
X71489416Y-51775824D01*
X71485208Y-51773245D01*
X71485202Y-51773241D01*
X71291183Y-51654346D01*
X71286963Y-51651760D01*
X71282393Y-51649867D01*
X71282389Y-51649865D01*
X71072167Y-51562789D01*
X71072165Y-51562788D01*
X71067594Y-51560895D01*
X70987391Y-51541640D01*
X70841524Y-51506620D01*
X70841518Y-51506619D01*
X70836711Y-51505465D01*
X70600000Y-51486835D01*
X70363289Y-51505465D01*
X70358482Y-51506619D01*
X70358476Y-51506620D01*
X70212609Y-51541640D01*
X70132406Y-51560895D01*
X70127835Y-51562788D01*
X70127833Y-51562789D01*
X69917611Y-51649865D01*
X69917607Y-51649867D01*
X69913037Y-51651760D01*
X69908817Y-51654346D01*
X69714798Y-51773241D01*
X69714792Y-51773245D01*
X69710584Y-51775824D01*
X69530031Y-51930031D01*
X69375824Y-52110584D01*
X69373245Y-52114792D01*
X69373241Y-52114798D01*
X69302164Y-52230785D01*
X69251760Y-52313037D01*
X69249867Y-52317607D01*
X69249865Y-52317611D01*
X69170154Y-52510052D01*
X69160895Y-52532406D01*
X69159740Y-52537218D01*
X69129207Y-52664398D01*
X69105465Y-52763289D01*
X69086835Y-53000000D01*
X64414214Y-53000000D01*
X64670202Y-52744012D01*
X64741717Y-52664398D01*
X64758620Y-52643424D01*
X64863139Y-52485039D01*
X64892251Y-52413594D01*
X64938287Y-52300618D01*
X64938290Y-52300609D01*
X64939491Y-52297662D01*
X64959493Y-52229541D01*
X64979530Y-52149109D01*
X65000000Y-51947810D01*
X65000000Y-50632670D01*
X80132160Y-50632670D01*
X80137887Y-50640320D01*
X80309042Y-50745205D01*
X80317837Y-50749687D01*
X80527988Y-50836734D01*
X80537373Y-50839783D01*
X80758554Y-50892885D01*
X80768301Y-50894428D01*
X80995070Y-50912275D01*
X81004930Y-50912275D01*
X81231699Y-50894428D01*
X81241446Y-50892885D01*
X81462627Y-50839783D01*
X81472012Y-50836734D01*
X81682163Y-50749687D01*
X81690958Y-50745205D01*
X81858445Y-50642568D01*
X81867907Y-50632110D01*
X81864124Y-50623334D01*
X81012812Y-49772022D01*
X80998868Y-49764408D01*
X80997035Y-49764539D01*
X80990420Y-49768790D01*
X80138920Y-50620290D01*
X80132160Y-50632670D01*
X65000000Y-50632670D01*
X65000000Y-50126000D01*
X65020002Y-50057879D01*
X65073658Y-50011386D01*
X65126000Y-50000000D01*
X69400000Y-50000000D01*
X69400000Y-49404930D01*
X79487725Y-49404930D01*
X79505572Y-49631699D01*
X79507115Y-49641446D01*
X79560217Y-49862627D01*
X79563266Y-49872012D01*
X79650313Y-50082163D01*
X79654795Y-50090958D01*
X79757432Y-50258445D01*
X79767890Y-50267907D01*
X79776666Y-50264124D01*
X80627978Y-49412812D01*
X80634356Y-49401132D01*
X81364408Y-49401132D01*
X81364539Y-49402965D01*
X81368790Y-49409580D01*
X82220290Y-50261080D01*
X82232670Y-50267840D01*
X82240320Y-50262113D01*
X82345205Y-50090958D01*
X82349687Y-50082163D01*
X82436734Y-49872012D01*
X82439783Y-49862627D01*
X82492885Y-49641446D01*
X82494428Y-49631699D01*
X82512275Y-49404930D01*
X82512275Y-49395070D01*
X82494428Y-49168301D01*
X82492885Y-49158554D01*
X82439783Y-48937373D01*
X82436734Y-48927988D01*
X82349687Y-48717837D01*
X82345205Y-48709042D01*
X82242568Y-48541555D01*
X82232110Y-48532093D01*
X82223334Y-48535876D01*
X81372022Y-49387188D01*
X81364408Y-49401132D01*
X80634356Y-49401132D01*
X80635592Y-49398868D01*
X80635461Y-49397035D01*
X80631210Y-49390420D01*
X79779710Y-48538920D01*
X79767330Y-48532160D01*
X79759680Y-48537887D01*
X79654795Y-48709042D01*
X79650313Y-48717837D01*
X79563266Y-48927988D01*
X79560217Y-48937373D01*
X79507115Y-49158554D01*
X79505572Y-49168301D01*
X79487725Y-49395070D01*
X79487725Y-49404930D01*
X69400000Y-49404930D01*
X69400000Y-48167890D01*
X80132093Y-48167890D01*
X80135876Y-48176666D01*
X80987188Y-49027978D01*
X81001132Y-49035592D01*
X81002965Y-49035461D01*
X81009580Y-49031210D01*
X81861080Y-48179710D01*
X81867840Y-48167330D01*
X81862113Y-48159680D01*
X81690958Y-48054795D01*
X81682163Y-48050313D01*
X81472012Y-47963266D01*
X81462627Y-47960217D01*
X81241446Y-47907115D01*
X81231699Y-47905572D01*
X81004930Y-47887725D01*
X80995070Y-47887725D01*
X80768301Y-47905572D01*
X80758554Y-47907115D01*
X80537373Y-47960217D01*
X80527988Y-47963266D01*
X80317837Y-48050313D01*
X80309042Y-48054795D01*
X80141555Y-48157432D01*
X80132093Y-48167890D01*
X69400000Y-48167890D01*
X69400000Y-44626000D01*
X69420002Y-44557879D01*
X69473658Y-44511386D01*
X69526000Y-44500000D01*
X79857824Y-44500000D01*
X79925945Y-44520002D01*
X79972438Y-44573658D01*
X79982542Y-44643932D01*
X79953048Y-44708512D01*
X79939656Y-44721810D01*
X79933788Y-44726822D01*
X79930031Y-44730031D01*
X79775824Y-44910584D01*
X79773245Y-44914792D01*
X79773241Y-44914798D01*
X79654346Y-45108817D01*
X79651760Y-45113037D01*
X79560895Y-45332406D01*
X79505465Y-45563289D01*
X79486835Y-45800000D01*
X79505465Y-46036711D01*
X79506619Y-46041518D01*
X79506620Y-46041524D01*
X79534447Y-46157432D01*
X79560895Y-46267594D01*
X79651760Y-46486963D01*
X79654346Y-46491183D01*
X79773241Y-46685202D01*
X79773245Y-46685208D01*
X79775824Y-46689416D01*
X79930031Y-46869969D01*
X80110584Y-47024176D01*
X80114792Y-47026755D01*
X80114798Y-47026759D01*
X80308817Y-47145654D01*
X80313037Y-47148240D01*
X80317607Y-47150133D01*
X80317611Y-47150135D01*
X80527833Y-47237211D01*
X80532406Y-47239105D01*
X80612609Y-47258360D01*
X80758476Y-47293380D01*
X80758482Y-47293381D01*
X80763289Y-47294535D01*
X81000000Y-47313165D01*
X81236711Y-47294535D01*
X81241518Y-47293381D01*
X81241524Y-47293380D01*
X81387391Y-47258360D01*
X81467594Y-47239105D01*
X81472167Y-47237211D01*
X81682389Y-47150135D01*
X81682393Y-47150133D01*
X81686963Y-47148240D01*
X81691183Y-47145654D01*
X81885202Y-47026759D01*
X81885208Y-47026755D01*
X81889416Y-47024176D01*
X82069969Y-46869969D01*
X82224176Y-46689416D01*
X82226755Y-46685208D01*
X82226759Y-46685202D01*
X82345654Y-46491183D01*
X82348240Y-46486963D01*
X82439105Y-46267594D01*
X82465553Y-46157432D01*
X82493380Y-46041524D01*
X82493381Y-46041518D01*
X82494535Y-46036711D01*
X82513165Y-45800000D01*
X82494535Y-45563289D01*
X82439105Y-45332406D01*
X82348240Y-45113037D01*
X82345654Y-45108817D01*
X82226759Y-44914798D01*
X82226755Y-44914792D01*
X82224176Y-44910584D01*
X82069969Y-44730031D01*
X82066212Y-44726822D01*
X82060344Y-44721810D01*
X82021536Y-44662358D01*
X82021030Y-44591363D01*
X82058988Y-44531365D01*
X82123357Y-44501413D01*
X82142176Y-44500000D01*
X84866000Y-44500000D01*
X84934121Y-44520002D01*
X84980614Y-44573658D01*
X84992000Y-44626000D01*
X84992000Y-75566000D01*
X84971998Y-75634121D01*
X84918342Y-75680614D01*
X84866000Y-75692000D01*
X69091390Y-75692000D01*
X69023269Y-75671998D01*
X68976776Y-75618342D01*
X68966672Y-75548068D01*
X68996166Y-75483488D01*
X69002295Y-75476905D01*
X69115024Y-75364176D01*
X69122197Y-75355597D01*
X69243954Y-75180412D01*
X69249490Y-75170705D01*
X69338299Y-74976731D01*
X69342033Y-74966185D01*
X69395147Y-74759321D01*
X69396918Y-74748766D01*
X69407793Y-74615070D01*
X69408000Y-74609964D01*
X69408000Y-74072115D01*
X69403525Y-74056876D01*
X69402135Y-74055671D01*
X69394452Y-74054000D01*
X68973325Y-74054000D01*
X68947680Y-74061530D01*
X67627652Y-75381558D01*
X67565340Y-75415584D01*
X67494525Y-75410519D01*
X67449462Y-75381558D01*
X67387812Y-75319908D01*
X67373868Y-75312294D01*
X67372035Y-75312425D01*
X67365420Y-75316676D01*
X67300538Y-75381558D01*
X67238226Y-75415584D01*
X67167411Y-75410519D01*
X67122348Y-75381558D01*
X66291922Y-74551132D01*
X67014408Y-74551132D01*
X67014539Y-74552965D01*
X67018790Y-74559580D01*
X67362188Y-74902978D01*
X67376132Y-74910592D01*
X67377965Y-74910461D01*
X67384580Y-74906210D01*
X67727978Y-74562812D01*
X67735592Y-74548868D01*
X67735461Y-74547035D01*
X67731210Y-74540420D01*
X67387812Y-74197022D01*
X67373868Y-74189408D01*
X67372035Y-74189539D01*
X67365420Y-74193790D01*
X67022022Y-74537188D01*
X67014408Y-74551132D01*
X66291922Y-74551132D01*
X65807602Y-74066812D01*
X65790068Y-74057237D01*
X66520300Y-74057237D01*
X66523538Y-74064328D01*
X66637188Y-74177978D01*
X66651132Y-74185592D01*
X66652965Y-74185461D01*
X66659580Y-74181210D01*
X66773978Y-74066812D01*
X66779206Y-74057237D01*
X67970300Y-74057237D01*
X67973538Y-74064328D01*
X68087188Y-74177978D01*
X68101132Y-74185592D01*
X68102965Y-74185461D01*
X68109580Y-74181210D01*
X68223978Y-74066812D01*
X68229487Y-74056723D01*
X68222186Y-74054000D01*
X67981325Y-74054000D01*
X67970300Y-74057237D01*
X66779206Y-74057237D01*
X66779487Y-74056723D01*
X66772186Y-74054000D01*
X66531325Y-74054000D01*
X66520300Y-74057237D01*
X65790068Y-74057237D01*
X65784140Y-74054000D01*
X65410116Y-74054000D01*
X65394877Y-74058475D01*
X65393672Y-74059865D01*
X65392001Y-74067548D01*
X65392001Y-74609961D01*
X65392209Y-74615071D01*
X65403082Y-74748767D01*
X65404852Y-74759320D01*
X65457967Y-74966185D01*
X65461701Y-74976731D01*
X65550510Y-75170705D01*
X65556046Y-75180412D01*
X65677803Y-75355597D01*
X65684976Y-75364176D01*
X65797705Y-75476905D01*
X65831731Y-75539217D01*
X65826666Y-75610032D01*
X65784119Y-75666868D01*
X65717599Y-75691679D01*
X65708610Y-75692000D01*
X54732537Y-75692000D01*
X54664416Y-75671998D01*
X54617923Y-75618342D01*
X54607819Y-75548068D01*
X54630320Y-75493246D01*
X54630144Y-75493135D01*
X54630781Y-75492123D01*
X54631183Y-75491144D01*
X54632640Y-75489172D01*
X54632645Y-75489163D01*
X54635414Y-75485415D01*
X54639930Y-75476905D01*
X54755172Y-75259708D01*
X54755173Y-75259706D01*
X54757361Y-75255582D01*
X54796796Y-75143912D01*
X54842441Y-75014659D01*
X54842442Y-75014655D01*
X54843998Y-75010249D01*
X54852524Y-74966185D01*
X54892626Y-74758908D01*
X54893420Y-74754805D01*
X54900500Y-74633849D01*
X54900499Y-73527885D01*
X65392000Y-73527885D01*
X65396475Y-73543124D01*
X65397865Y-73544329D01*
X65405548Y-73546000D01*
X65776675Y-73546000D01*
X65785949Y-73543277D01*
X66520513Y-73543277D01*
X66527814Y-73546000D01*
X66768675Y-73546000D01*
X66777949Y-73543277D01*
X68020513Y-73543277D01*
X68027814Y-73546000D01*
X68268675Y-73546000D01*
X68279700Y-73542763D01*
X68276462Y-73535672D01*
X68162812Y-73422022D01*
X68148868Y-73414408D01*
X68147035Y-73414539D01*
X68140420Y-73418790D01*
X68026022Y-73533188D01*
X68020513Y-73543277D01*
X66777949Y-73543277D01*
X66779700Y-73542763D01*
X66776462Y-73535672D01*
X66662812Y-73422022D01*
X66648868Y-73414408D01*
X66647035Y-73414539D01*
X66640420Y-73418790D01*
X66526022Y-73533188D01*
X66520513Y-73543277D01*
X65785949Y-73543277D01*
X65802320Y-73538470D01*
X66289658Y-73051132D01*
X67014408Y-73051132D01*
X67014539Y-73052965D01*
X67018790Y-73059580D01*
X67133188Y-73173978D01*
X67143277Y-73179487D01*
X67146000Y-73172186D01*
X67146000Y-73168675D01*
X67654000Y-73168675D01*
X67657237Y-73179700D01*
X67664328Y-73176462D01*
X67777978Y-73062812D01*
X67785592Y-73048868D01*
X67785461Y-73047035D01*
X67781210Y-73040420D01*
X67666812Y-72926022D01*
X67656723Y-72920513D01*
X67654000Y-72927814D01*
X67654000Y-73168675D01*
X67146000Y-73168675D01*
X67146000Y-72931325D01*
X67142763Y-72920300D01*
X67135672Y-72923538D01*
X67022022Y-73037188D01*
X67014408Y-73051132D01*
X66289658Y-73051132D01*
X67133188Y-72207602D01*
X67146000Y-72184140D01*
X67146000Y-72176675D01*
X67654000Y-72176675D01*
X67661530Y-72202320D01*
X68992398Y-73533188D01*
X69015860Y-73546000D01*
X69389884Y-73546000D01*
X69405123Y-73541525D01*
X69406328Y-73540135D01*
X69407999Y-73532452D01*
X69407999Y-72990039D01*
X69407791Y-72984929D01*
X69396918Y-72851233D01*
X69395148Y-72840680D01*
X69342033Y-72633815D01*
X69338299Y-72623269D01*
X69249490Y-72429295D01*
X69243954Y-72419588D01*
X69122197Y-72244403D01*
X69115024Y-72235824D01*
X68964176Y-72084976D01*
X68955597Y-72077803D01*
X68780412Y-71956046D01*
X68770705Y-71950510D01*
X68576731Y-71861701D01*
X68566185Y-71857967D01*
X68359321Y-71804853D01*
X68348766Y-71803082D01*
X68215070Y-71792207D01*
X68209964Y-71792000D01*
X67672115Y-71792000D01*
X67656876Y-71796475D01*
X67655671Y-71797865D01*
X67654000Y-71805548D01*
X67654000Y-72176675D01*
X67146000Y-72176675D01*
X67146000Y-71810116D01*
X67141525Y-71794877D01*
X67140135Y-71793672D01*
X67132452Y-71792001D01*
X66590039Y-71792001D01*
X66584929Y-71792209D01*
X66451233Y-71803082D01*
X66440680Y-71804852D01*
X66233815Y-71857967D01*
X66223269Y-71861701D01*
X66029295Y-71950510D01*
X66019588Y-71956046D01*
X65844403Y-72077803D01*
X65835824Y-72084976D01*
X65684976Y-72235824D01*
X65677803Y-72244403D01*
X65556046Y-72419588D01*
X65550510Y-72429295D01*
X65461701Y-72623269D01*
X65457967Y-72633815D01*
X65404853Y-72840679D01*
X65403082Y-72851234D01*
X65392207Y-72984930D01*
X65392000Y-72990036D01*
X65392000Y-73527885D01*
X54900499Y-73527885D01*
X54900499Y-72966152D01*
X54893060Y-72842153D01*
X54843192Y-72586795D01*
X54756128Y-72341613D01*
X54633779Y-72111994D01*
X54630995Y-72108238D01*
X54481614Y-71906728D01*
X54481610Y-71906723D01*
X54478835Y-71902980D01*
X54475537Y-71899687D01*
X54475532Y-71899682D01*
X54298008Y-71722468D01*
X54298006Y-71722467D01*
X54294699Y-71719165D01*
X54085415Y-71564586D01*
X53963596Y-71499950D01*
X53859708Y-71444828D01*
X53859706Y-71444827D01*
X53855582Y-71442639D01*
X53671777Y-71377730D01*
X53614659Y-71357559D01*
X53614655Y-71357558D01*
X53610249Y-71356002D01*
X53605665Y-71355115D01*
X53605661Y-71355114D01*
X53442425Y-71323532D01*
X53354805Y-71306580D01*
X53233849Y-71299500D01*
X53030659Y-71299500D01*
X52962538Y-71279498D01*
X52916045Y-71225842D01*
X52905941Y-71155568D01*
X52935435Y-71090988D01*
X52946594Y-71079643D01*
X52963123Y-71064839D01*
X53040281Y-70995730D01*
X53222573Y-70778868D01*
X53372489Y-70538485D01*
X53487040Y-70279376D01*
X53563939Y-70006712D01*
X53601652Y-69725933D01*
X53605610Y-69600000D01*
X53585601Y-69317407D01*
X53572204Y-69255177D01*
X53526911Y-69044800D01*
X53526911Y-69044798D01*
X53525975Y-69040453D01*
X53427920Y-68774663D01*
X53293393Y-68525340D01*
X53125078Y-68297460D01*
X53088471Y-68260273D01*
X53027476Y-68198313D01*
X52926334Y-68095570D01*
X52922794Y-68092869D01*
X52922788Y-68092863D01*
X52704667Y-67926398D01*
X52704663Y-67926395D01*
X52701126Y-67923696D01*
X52637179Y-67887884D01*
X52457837Y-67787448D01*
X52457832Y-67787445D01*
X52453947Y-67785270D01*
X52449789Y-67783662D01*
X52449784Y-67783659D01*
X52193885Y-67684659D01*
X52193879Y-67684657D01*
X52189730Y-67683052D01*
X52185398Y-67682048D01*
X52185395Y-67682047D01*
X52110141Y-67664604D01*
X51913747Y-67619082D01*
X51631503Y-67594637D01*
X51627068Y-67594881D01*
X51627064Y-67594881D01*
X51353073Y-67609960D01*
X51353066Y-67609961D01*
X51348630Y-67610205D01*
X51210743Y-67637632D01*
X51075146Y-67664604D01*
X51075141Y-67664605D01*
X51070774Y-67665474D01*
X51066571Y-67666950D01*
X50807684Y-67757864D01*
X50807681Y-67757865D01*
X50803476Y-67759342D01*
X50799523Y-67761395D01*
X50799517Y-67761398D01*
X50657135Y-67835360D01*
X50552072Y-67889936D01*
X50548457Y-67892519D01*
X50548451Y-67892523D01*
X50501048Y-67926398D01*
X50321576Y-68054651D01*
X50318349Y-68057729D01*
X50318347Y-68057731D01*
X50126655Y-68240596D01*
X50116588Y-68250199D01*
X49941199Y-68472680D01*
X49910612Y-68525340D01*
X49801141Y-68713807D01*
X49801138Y-68713813D01*
X49798907Y-68717654D01*
X49692552Y-68980232D01*
X49691481Y-68984545D01*
X49691479Y-68984550D01*
X49677593Y-69040453D01*
X49624255Y-69255177D01*
X49623801Y-69259605D01*
X49623801Y-69259607D01*
X49617879Y-69317407D01*
X49595380Y-69537002D01*
X49606502Y-69820084D01*
X49657400Y-70098775D01*
X49747058Y-70367514D01*
X49873687Y-70620939D01*
X50034761Y-70853993D01*
X50227065Y-71062027D01*
X50230519Y-71064839D01*
X50443307Y-71238075D01*
X50443311Y-71238078D01*
X50446764Y-71240889D01*
X50555471Y-71306336D01*
X50674055Y-71377730D01*
X50722099Y-71430002D01*
X50734255Y-71499950D01*
X50706665Y-71565366D01*
X50684102Y-71586897D01*
X50506728Y-71718386D01*
X50506723Y-71718390D01*
X50502980Y-71721165D01*
X50499687Y-71724463D01*
X50499682Y-71724468D01*
X50418744Y-71805548D01*
X50319165Y-71905301D01*
X50164586Y-72114585D01*
X50162396Y-72118712D01*
X50162395Y-72118714D01*
X50131642Y-72176675D01*
X50042639Y-72344418D01*
X50012666Y-72429295D01*
X49958603Y-72582387D01*
X49956002Y-72589751D01*
X49955115Y-72594335D01*
X49955114Y-72594339D01*
X49923532Y-72757575D01*
X49906580Y-72845195D01*
X49899500Y-72966151D01*
X49899501Y-74633848D01*
X49906940Y-74757847D01*
X49956808Y-75013205D01*
X50043872Y-75258387D01*
X50166221Y-75488006D01*
X50169006Y-75491762D01*
X50171506Y-75495718D01*
X50170414Y-75496409D01*
X50192912Y-75557594D01*
X50177499Y-75626898D01*
X50127065Y-75676866D01*
X50067193Y-75692000D01*
X48834000Y-75692000D01*
X48765879Y-75671998D01*
X48719386Y-75618342D01*
X48708000Y-75566000D01*
X48708000Y-52765430D01*
X48728002Y-52697309D01*
X48781658Y-52650816D01*
X48851932Y-52640712D01*
X48916512Y-52670206D01*
X48954896Y-52729932D01*
X48957768Y-52741820D01*
X48973269Y-52823079D01*
X49070497Y-53122315D01*
X49072184Y-53125901D01*
X49072186Y-53125905D01*
X49202775Y-53403421D01*
X49202779Y-53403428D01*
X49204463Y-53407007D01*
X49373053Y-53672663D01*
X49375578Y-53675715D01*
X49511569Y-53840099D01*
X49573610Y-53915094D01*
X49802970Y-54130478D01*
X49806172Y-54132805D01*
X49806174Y-54132806D01*
X50054307Y-54313085D01*
X50054312Y-54313088D01*
X50057516Y-54315416D01*
X50333234Y-54466994D01*
X50399878Y-54493380D01*
X50622092Y-54581361D01*
X50622095Y-54581362D01*
X50625775Y-54582819D01*
X50629609Y-54583803D01*
X50629617Y-54583806D01*
X50818074Y-54632193D01*
X50930527Y-54661066D01*
X50934455Y-54661562D01*
X50934459Y-54661563D01*
X51058375Y-54677217D01*
X51242682Y-54700500D01*
X51557318Y-54700500D01*
X51741625Y-54677217D01*
X51865541Y-54661563D01*
X51865545Y-54661562D01*
X51869473Y-54661066D01*
X51981926Y-54632193D01*
X52170383Y-54583806D01*
X52170391Y-54583803D01*
X52174225Y-54582819D01*
X52177905Y-54581362D01*
X52177908Y-54581361D01*
X52400122Y-54493380D01*
X52466766Y-54466994D01*
X52742484Y-54315416D01*
X52745688Y-54313088D01*
X52745693Y-54313085D01*
X52993826Y-54132806D01*
X52993828Y-54132805D01*
X52997030Y-54130478D01*
X53226390Y-53915094D01*
X53288432Y-53840099D01*
X53424422Y-53675715D01*
X53426947Y-53672663D01*
X53595537Y-53407007D01*
X53597221Y-53403428D01*
X53597225Y-53403421D01*
X53727814Y-53125905D01*
X53727816Y-53125901D01*
X53729503Y-53122315D01*
X53826731Y-52823079D01*
X53885688Y-52514015D01*
X53905444Y-52200000D01*
X53885688Y-51885985D01*
X53826731Y-51576921D01*
X53729503Y-51277685D01*
X53727814Y-51274095D01*
X53597225Y-50996579D01*
X53597221Y-50996572D01*
X53595537Y-50992993D01*
X53426947Y-50727337D01*
X53226390Y-50484906D01*
X52997030Y-50269522D01*
X52993826Y-50267194D01*
X52745693Y-50086915D01*
X52745688Y-50086912D01*
X52742484Y-50084584D01*
X52577959Y-49994135D01*
X52470228Y-49934909D01*
X52470225Y-49934907D01*
X52466766Y-49933006D01*
X52239500Y-49843025D01*
X52177908Y-49818639D01*
X52177905Y-49818638D01*
X52174225Y-49817181D01*
X52170391Y-49816197D01*
X52170383Y-49816194D01*
X51968688Y-49764408D01*
X51869473Y-49738934D01*
X51865545Y-49738438D01*
X51865541Y-49738437D01*
X51741625Y-49722783D01*
X51557318Y-49699500D01*
X51242682Y-49699500D01*
X51058375Y-49722783D01*
X50934459Y-49738437D01*
X50934455Y-49738438D01*
X50930527Y-49738934D01*
X50831312Y-49764408D01*
X50629617Y-49816194D01*
X50629609Y-49816197D01*
X50625775Y-49817181D01*
X50622095Y-49818638D01*
X50622092Y-49818639D01*
X50560500Y-49843025D01*
X50333234Y-49933006D01*
X50329775Y-49934907D01*
X50329772Y-49934909D01*
X50222041Y-49994135D01*
X50057516Y-50084584D01*
X50054312Y-50086912D01*
X50054307Y-50086915D01*
X49806174Y-50267194D01*
X49802970Y-50269522D01*
X49573610Y-50484906D01*
X49373053Y-50727337D01*
X49204463Y-50992993D01*
X49202779Y-50996572D01*
X49202775Y-50996579D01*
X49072186Y-51274095D01*
X49070497Y-51277685D01*
X48973269Y-51576921D01*
X48972525Y-51580822D01*
X48957768Y-51658180D01*
X48925356Y-51721346D01*
X48863939Y-51756961D01*
X48793016Y-51753718D01*
X48735106Y-51712646D01*
X48708594Y-51646786D01*
X48708000Y-51634570D01*
X48708000Y-48632670D01*
X50532160Y-48632670D01*
X50537887Y-48640320D01*
X50709042Y-48745205D01*
X50717837Y-48749687D01*
X50927988Y-48836734D01*
X50937373Y-48839783D01*
X51158554Y-48892885D01*
X51168301Y-48894428D01*
X51395070Y-48912275D01*
X51404930Y-48912275D01*
X51631699Y-48894428D01*
X51641446Y-48892885D01*
X51862627Y-48839783D01*
X51872012Y-48836734D01*
X52082163Y-48749687D01*
X52090958Y-48745205D01*
X52258445Y-48642568D01*
X52267907Y-48632110D01*
X52264124Y-48623334D01*
X51412812Y-47772022D01*
X51398868Y-47764408D01*
X51397035Y-47764539D01*
X51390420Y-47768790D01*
X50538920Y-48620290D01*
X50532160Y-48632670D01*
X48708000Y-48632670D01*
X48708000Y-47404930D01*
X49887725Y-47404930D01*
X49905572Y-47631699D01*
X49907115Y-47641446D01*
X49960217Y-47862627D01*
X49963266Y-47872012D01*
X50050313Y-48082163D01*
X50054795Y-48090958D01*
X50157432Y-48258445D01*
X50167890Y-48267907D01*
X50176666Y-48264124D01*
X51027978Y-47412812D01*
X51034356Y-47401132D01*
X51764408Y-47401132D01*
X51764539Y-47402965D01*
X51768790Y-47409580D01*
X52620290Y-48261080D01*
X52632670Y-48267840D01*
X52640320Y-48262113D01*
X52745205Y-48090958D01*
X52749687Y-48082163D01*
X52836734Y-47872012D01*
X52839783Y-47862627D01*
X52892885Y-47641446D01*
X52894428Y-47631699D01*
X52912275Y-47404930D01*
X52912275Y-47395070D01*
X52894428Y-47168301D01*
X52892885Y-47158554D01*
X52839783Y-46937373D01*
X52836734Y-46927988D01*
X52749687Y-46717837D01*
X52745205Y-46709042D01*
X52642568Y-46541555D01*
X52632110Y-46532093D01*
X52623334Y-46535876D01*
X51772022Y-47387188D01*
X51764408Y-47401132D01*
X51034356Y-47401132D01*
X51035592Y-47398868D01*
X51035461Y-47397035D01*
X51031210Y-47390420D01*
X50179710Y-46538920D01*
X50167330Y-46532160D01*
X50159680Y-46537887D01*
X50054795Y-46709042D01*
X50050313Y-46717837D01*
X49963266Y-46927988D01*
X49960217Y-46937373D01*
X49907115Y-47158554D01*
X49905572Y-47168301D01*
X49887725Y-47395070D01*
X49887725Y-47404930D01*
X48708000Y-47404930D01*
X48708000Y-46167890D01*
X50532093Y-46167890D01*
X50535876Y-46176666D01*
X51387188Y-47027978D01*
X51401132Y-47035592D01*
X51402965Y-47035461D01*
X51409580Y-47031210D01*
X52261080Y-46179710D01*
X52267840Y-46167330D01*
X52262113Y-46159680D01*
X52090958Y-46054795D01*
X52082163Y-46050313D01*
X51872012Y-45963266D01*
X51862627Y-45960217D01*
X51641446Y-45907115D01*
X51631699Y-45905572D01*
X51404930Y-45887725D01*
X51395070Y-45887725D01*
X51168301Y-45905572D01*
X51158554Y-45907115D01*
X50937373Y-45960217D01*
X50927988Y-45963266D01*
X50717837Y-46050313D01*
X50709042Y-46054795D01*
X50541555Y-46157432D01*
X50532093Y-46167890D01*
X48708000Y-46167890D01*
X48708000Y-44626000D01*
X48728002Y-44557879D01*
X48781658Y-44511386D01*
X48834000Y-44500000D01*
X56474000Y-44500000D01*
X56542121Y-44520002D01*
G37*
G04 #@! TD.AperFunction*
G04 #@! TA.AperFunction,Conductor*
G36*
X63015931Y-48020002D02*
G01*
X63036905Y-48036905D01*
X63963095Y-48963095D01*
X63997121Y-49025407D01*
X64000000Y-49052190D01*
X64000000Y-51947810D01*
X63979998Y-52015931D01*
X63963095Y-52036905D01*
X63036905Y-52963095D01*
X62974593Y-52997121D01*
X62947810Y-53000000D01*
X60000000Y-53000000D01*
X60000000Y-66447810D01*
X59979998Y-66515931D01*
X59963095Y-66536905D01*
X59036905Y-67463095D01*
X58974593Y-67497121D01*
X58947810Y-67500000D01*
X57552190Y-67500000D01*
X57484069Y-67479998D01*
X57463095Y-67463095D01*
X56536905Y-66536905D01*
X56502879Y-66474593D01*
X56500000Y-66447810D01*
X56500000Y-50126000D01*
X56520002Y-50057879D01*
X56573658Y-50011386D01*
X56626000Y-50000000D01*
X61200000Y-50000000D01*
X61200000Y-48126000D01*
X61220002Y-48057879D01*
X61273658Y-48011386D01*
X61326000Y-48000000D01*
X62947810Y-48000000D01*
X63015931Y-48020002D01*
G37*
G04 #@! TD.AperFunction*
G04 #@! TA.AperFunction,Conductor*
G36*
X51499101Y-21528002D02*
G01*
X51545594Y-21581658D01*
X51555698Y-21651932D01*
X51534445Y-21705910D01*
X51497035Y-21759737D01*
X51452409Y-21823945D01*
X51358890Y-22028206D01*
X51303022Y-22245800D01*
X51302587Y-22251151D01*
X51294728Y-22347775D01*
X51291500Y-22387458D01*
X51291500Y-24012542D01*
X51291706Y-24015070D01*
X51291707Y-24015092D01*
X51296351Y-24072186D01*
X51303022Y-24154200D01*
X51358890Y-24371794D01*
X51452409Y-24576055D01*
X51580620Y-24760527D01*
X51739473Y-24919380D01*
X51923945Y-25047591D01*
X52128206Y-25141110D01*
X52133638Y-25142505D01*
X52133639Y-25142505D01*
X52338673Y-25195148D01*
X52345800Y-25196978D01*
X52399705Y-25201362D01*
X52484908Y-25208293D01*
X52484918Y-25208293D01*
X52487458Y-25208500D01*
X54112542Y-25208500D01*
X54115082Y-25208293D01*
X54115092Y-25208293D01*
X54200295Y-25201362D01*
X54254200Y-25196978D01*
X54261328Y-25195148D01*
X54466361Y-25142505D01*
X54466362Y-25142505D01*
X54471794Y-25141110D01*
X54676055Y-25047591D01*
X54860527Y-24919380D01*
X55019380Y-24760527D01*
X55147591Y-24576055D01*
X55241110Y-24371794D01*
X55296978Y-24154200D01*
X55303006Y-24080089D01*
X55328464Y-24013814D01*
X55385713Y-23971824D01*
X55456574Y-23967451D01*
X55518552Y-24002082D01*
X55536023Y-24024469D01*
X55573235Y-24085193D01*
X55573242Y-24085202D01*
X55575824Y-24089416D01*
X55730031Y-24269969D01*
X55910584Y-24424176D01*
X55914792Y-24426755D01*
X55914798Y-24426759D01*
X56108817Y-24545654D01*
X56113037Y-24548240D01*
X56117607Y-24550133D01*
X56117611Y-24550135D01*
X56327833Y-24637211D01*
X56332406Y-24639105D01*
X56412609Y-24658360D01*
X56558476Y-24693380D01*
X56558482Y-24693381D01*
X56563289Y-24694535D01*
X56800000Y-24713165D01*
X57036711Y-24694535D01*
X57041518Y-24693381D01*
X57041524Y-24693380D01*
X57187391Y-24658360D01*
X57267594Y-24639105D01*
X57272167Y-24637211D01*
X57482389Y-24550135D01*
X57482393Y-24550133D01*
X57486963Y-24548240D01*
X57491183Y-24545654D01*
X57685202Y-24426759D01*
X57685208Y-24426755D01*
X57689416Y-24424176D01*
X57869969Y-24269969D01*
X58024176Y-24089416D01*
X58026755Y-24085208D01*
X58026759Y-24085202D01*
X58072867Y-24009961D01*
X65592001Y-24009961D01*
X65592209Y-24015071D01*
X65603082Y-24148767D01*
X65604852Y-24159320D01*
X65657967Y-24366185D01*
X65661701Y-24376731D01*
X65750510Y-24570705D01*
X65756046Y-24580412D01*
X65877803Y-24755597D01*
X65884976Y-24764176D01*
X66035824Y-24915024D01*
X66044403Y-24922197D01*
X66219588Y-25043954D01*
X66229295Y-25049490D01*
X66423269Y-25138299D01*
X66433815Y-25142033D01*
X66640679Y-25195147D01*
X66651234Y-25196918D01*
X66784930Y-25207793D01*
X66790036Y-25208000D01*
X67327885Y-25208000D01*
X67343124Y-25203525D01*
X67344329Y-25202135D01*
X67346000Y-25194452D01*
X67346000Y-25189884D01*
X67854000Y-25189884D01*
X67858475Y-25205123D01*
X67859865Y-25206328D01*
X67867548Y-25207999D01*
X68409961Y-25207999D01*
X68415071Y-25207791D01*
X68548767Y-25196918D01*
X68559320Y-25195148D01*
X68766185Y-25142033D01*
X68776731Y-25138299D01*
X68970705Y-25049490D01*
X68980412Y-25043954D01*
X69089854Y-24967890D01*
X71332093Y-24967890D01*
X71335876Y-24976666D01*
X72187188Y-25827978D01*
X72201132Y-25835592D01*
X72202965Y-25835461D01*
X72209580Y-25831210D01*
X73061080Y-24979710D01*
X73067840Y-24967330D01*
X73062113Y-24959680D01*
X72890958Y-24854795D01*
X72882163Y-24850313D01*
X72672012Y-24763266D01*
X72662627Y-24760217D01*
X72441446Y-24707115D01*
X72431699Y-24705572D01*
X72204930Y-24687725D01*
X72195070Y-24687725D01*
X71968301Y-24705572D01*
X71958554Y-24707115D01*
X71737373Y-24760217D01*
X71727988Y-24763266D01*
X71517837Y-24850313D01*
X71509042Y-24854795D01*
X71341555Y-24957432D01*
X71332093Y-24967890D01*
X69089854Y-24967890D01*
X69155597Y-24922197D01*
X69164176Y-24915024D01*
X69315024Y-24764176D01*
X69322197Y-24755597D01*
X69443954Y-24580412D01*
X69449490Y-24570705D01*
X69538299Y-24376731D01*
X69542033Y-24366185D01*
X69595147Y-24159321D01*
X69596918Y-24148766D01*
X69607793Y-24015070D01*
X69608000Y-24009964D01*
X69608000Y-23472115D01*
X69603525Y-23456876D01*
X69602135Y-23455671D01*
X69594452Y-23454000D01*
X69173325Y-23454000D01*
X69147680Y-23461530D01*
X67866812Y-24742398D01*
X67854000Y-24765860D01*
X67854000Y-25189884D01*
X67346000Y-25189884D01*
X67346000Y-24823325D01*
X67338470Y-24797680D01*
X66491922Y-23951132D01*
X67214408Y-23951132D01*
X67214539Y-23952965D01*
X67218790Y-23959580D01*
X67333188Y-24073978D01*
X67343277Y-24079487D01*
X67346000Y-24072186D01*
X67346000Y-24018675D01*
X67854000Y-24018675D01*
X67857237Y-24029700D01*
X67864328Y-24026462D01*
X67927978Y-23962812D01*
X67935592Y-23948868D01*
X67935461Y-23947035D01*
X67931210Y-23940420D01*
X67866812Y-23876022D01*
X67856723Y-23870513D01*
X67854000Y-23877814D01*
X67854000Y-24018675D01*
X67346000Y-24018675D01*
X67346000Y-23831325D01*
X67342763Y-23820300D01*
X67335672Y-23823538D01*
X67222022Y-23937188D01*
X67214408Y-23951132D01*
X66491922Y-23951132D01*
X66007602Y-23466812D01*
X65990068Y-23457237D01*
X66720300Y-23457237D01*
X66723538Y-23464328D01*
X66837188Y-23577978D01*
X66851132Y-23585592D01*
X66852965Y-23585461D01*
X66859580Y-23581210D01*
X66973978Y-23466812D01*
X66979206Y-23457237D01*
X68170300Y-23457237D01*
X68173538Y-23464328D01*
X68287188Y-23577978D01*
X68301132Y-23585592D01*
X68302965Y-23585461D01*
X68309580Y-23581210D01*
X68423978Y-23466812D01*
X68429487Y-23456723D01*
X68422186Y-23454000D01*
X68181325Y-23454000D01*
X68170300Y-23457237D01*
X66979206Y-23457237D01*
X66979487Y-23456723D01*
X66972186Y-23454000D01*
X66731325Y-23454000D01*
X66720300Y-23457237D01*
X65990068Y-23457237D01*
X65984140Y-23454000D01*
X65610116Y-23454000D01*
X65594877Y-23458475D01*
X65593672Y-23459865D01*
X65592001Y-23467548D01*
X65592001Y-24009961D01*
X58072867Y-24009961D01*
X58145654Y-23891183D01*
X58148240Y-23886963D01*
X58174512Y-23823538D01*
X58237211Y-23672167D01*
X58237212Y-23672165D01*
X58239105Y-23667594D01*
X58260620Y-23577978D01*
X58293380Y-23441524D01*
X58293381Y-23441518D01*
X58294535Y-23436711D01*
X58313165Y-23200000D01*
X58294535Y-22963289D01*
X58290385Y-22946000D01*
X58240260Y-22737218D01*
X58239105Y-22732406D01*
X58148240Y-22513037D01*
X58117462Y-22462812D01*
X58026759Y-22314798D01*
X58026755Y-22314792D01*
X58024176Y-22310584D01*
X57869969Y-22130031D01*
X57689416Y-21975824D01*
X57685208Y-21973245D01*
X57685202Y-21973241D01*
X57491183Y-21854346D01*
X57486963Y-21851760D01*
X57482393Y-21849867D01*
X57482389Y-21849865D01*
X57272167Y-21762789D01*
X57272165Y-21762788D01*
X57267594Y-21760895D01*
X57262780Y-21759739D01*
X57262773Y-21759737D01*
X57249366Y-21756518D01*
X57187797Y-21721166D01*
X57155115Y-21658140D01*
X57161696Y-21587449D01*
X57205450Y-21531537D01*
X57278781Y-21508000D01*
X65731589Y-21508000D01*
X65799710Y-21528002D01*
X65846203Y-21581658D01*
X65856307Y-21651932D01*
X65835054Y-21705910D01*
X65756046Y-21819588D01*
X65750510Y-21829295D01*
X65661701Y-22023269D01*
X65657967Y-22033815D01*
X65604853Y-22240679D01*
X65603082Y-22251234D01*
X65592207Y-22384930D01*
X65592000Y-22390036D01*
X65592000Y-22927885D01*
X65596475Y-22943124D01*
X65597865Y-22944329D01*
X65605548Y-22946000D01*
X65976675Y-22946000D01*
X65985949Y-22943277D01*
X66720513Y-22943277D01*
X66727814Y-22946000D01*
X66968675Y-22946000D01*
X66977949Y-22943277D01*
X68220513Y-22943277D01*
X68227814Y-22946000D01*
X68468675Y-22946000D01*
X68479700Y-22942763D01*
X68476462Y-22935672D01*
X68362812Y-22822022D01*
X68348868Y-22814408D01*
X68347035Y-22814539D01*
X68340420Y-22818790D01*
X68226022Y-22933188D01*
X68220513Y-22943277D01*
X66977949Y-22943277D01*
X66979700Y-22942763D01*
X66976462Y-22935672D01*
X66862812Y-22822022D01*
X66848868Y-22814408D01*
X66847035Y-22814539D01*
X66840420Y-22818790D01*
X66726022Y-22933188D01*
X66720513Y-22943277D01*
X65985949Y-22943277D01*
X66002320Y-22938470D01*
X66489658Y-22451132D01*
X67214408Y-22451132D01*
X67214539Y-22452965D01*
X67218790Y-22459580D01*
X67587188Y-22827978D01*
X67601132Y-22835592D01*
X67602965Y-22835461D01*
X67609580Y-22831210D01*
X67977978Y-22462812D01*
X67985592Y-22448868D01*
X67985461Y-22447035D01*
X67981210Y-22440420D01*
X67612812Y-22072022D01*
X67598868Y-22064408D01*
X67597035Y-22064539D01*
X67590420Y-22068790D01*
X67222022Y-22437188D01*
X67214408Y-22451132D01*
X66489658Y-22451132D01*
X67322348Y-21618442D01*
X67384660Y-21584416D01*
X67455475Y-21589481D01*
X67500538Y-21618442D01*
X67587188Y-21705092D01*
X67601132Y-21712706D01*
X67602965Y-21712575D01*
X67609580Y-21708324D01*
X67699462Y-21618442D01*
X67761774Y-21584416D01*
X67832589Y-21589481D01*
X67877652Y-21618442D01*
X69192398Y-22933188D01*
X69215860Y-22946000D01*
X69589884Y-22946000D01*
X69605123Y-22941525D01*
X69606328Y-22940135D01*
X69607999Y-22932452D01*
X69607999Y-22390039D01*
X69607791Y-22384929D01*
X69596918Y-22251233D01*
X69595148Y-22240680D01*
X69542033Y-22033815D01*
X69538299Y-22023269D01*
X69449490Y-21829295D01*
X69443954Y-21819588D01*
X69364946Y-21705910D01*
X69342493Y-21638557D01*
X69360019Y-21569757D01*
X69411958Y-21521354D01*
X69468411Y-21508000D01*
X84866000Y-21508000D01*
X84934121Y-21528002D01*
X84980614Y-21581658D01*
X84992000Y-21634000D01*
X84992000Y-42374000D01*
X84971998Y-42442121D01*
X84918342Y-42488614D01*
X84866000Y-42500000D01*
X80243317Y-42500000D01*
X80175196Y-42479998D01*
X80128703Y-42426342D01*
X80118599Y-42356068D01*
X80148093Y-42291488D01*
X80213903Y-42251481D01*
X80262627Y-42239783D01*
X80272012Y-42236734D01*
X80482163Y-42149687D01*
X80490958Y-42145205D01*
X80658445Y-42042568D01*
X80667907Y-42032110D01*
X80664124Y-42023334D01*
X79812812Y-41172022D01*
X79798868Y-41164408D01*
X79797035Y-41164539D01*
X79790420Y-41168790D01*
X78938920Y-42020290D01*
X78932160Y-42032670D01*
X78937887Y-42040320D01*
X79109042Y-42145205D01*
X79117837Y-42149687D01*
X79327988Y-42236734D01*
X79337373Y-42239783D01*
X79386097Y-42251481D01*
X79447667Y-42286833D01*
X79480349Y-42349860D01*
X79473768Y-42420551D01*
X79430014Y-42476463D01*
X79356683Y-42500000D01*
X69526000Y-42500000D01*
X69457879Y-42479998D01*
X69411386Y-42426342D01*
X69400000Y-42374000D01*
X69400000Y-40804930D01*
X78287725Y-40804930D01*
X78305572Y-41031699D01*
X78307115Y-41041446D01*
X78360217Y-41262627D01*
X78363266Y-41272012D01*
X78450313Y-41482163D01*
X78454795Y-41490958D01*
X78557432Y-41658445D01*
X78567890Y-41667907D01*
X78576666Y-41664124D01*
X79427978Y-40812812D01*
X79434356Y-40801132D01*
X80164408Y-40801132D01*
X80164539Y-40802965D01*
X80168790Y-40809580D01*
X81020290Y-41661080D01*
X81032670Y-41667840D01*
X81040320Y-41662113D01*
X81145205Y-41490958D01*
X81149687Y-41482163D01*
X81236734Y-41272012D01*
X81239783Y-41262627D01*
X81292885Y-41041446D01*
X81294428Y-41031699D01*
X81312275Y-40804930D01*
X81312275Y-40795070D01*
X81294428Y-40568301D01*
X81292885Y-40558554D01*
X81239783Y-40337373D01*
X81236734Y-40327988D01*
X81149687Y-40117837D01*
X81145205Y-40109042D01*
X81042568Y-39941555D01*
X81032110Y-39932093D01*
X81023334Y-39935876D01*
X80172022Y-40787188D01*
X80164408Y-40801132D01*
X79434356Y-40801132D01*
X79435592Y-40798868D01*
X79435461Y-40797035D01*
X79431210Y-40790420D01*
X78579710Y-39938920D01*
X78567330Y-39932160D01*
X78559680Y-39937887D01*
X78454795Y-40109042D01*
X78450313Y-40117837D01*
X78363266Y-40327988D01*
X78360217Y-40337373D01*
X78307115Y-40558554D01*
X78305572Y-40568301D01*
X78287725Y-40795070D01*
X78287725Y-40804930D01*
X69400000Y-40804930D01*
X69400000Y-38600000D01*
X71286835Y-38600000D01*
X71305465Y-38836711D01*
X71360895Y-39067594D01*
X71451760Y-39286963D01*
X71454346Y-39291183D01*
X71573241Y-39485202D01*
X71573245Y-39485208D01*
X71575824Y-39489416D01*
X71730031Y-39669969D01*
X71910584Y-39824176D01*
X71914792Y-39826755D01*
X71914798Y-39826759D01*
X72097828Y-39938920D01*
X72113037Y-39948240D01*
X72117607Y-39950133D01*
X72117611Y-39950135D01*
X72327833Y-40037211D01*
X72332406Y-40039105D01*
X72412609Y-40058360D01*
X72558476Y-40093380D01*
X72558482Y-40093381D01*
X72563289Y-40094535D01*
X72800000Y-40113165D01*
X73036711Y-40094535D01*
X73041518Y-40093381D01*
X73041524Y-40093380D01*
X73187391Y-40058360D01*
X73267594Y-40039105D01*
X73272167Y-40037211D01*
X73482389Y-39950135D01*
X73482393Y-39950133D01*
X73486963Y-39948240D01*
X73502172Y-39938920D01*
X73685202Y-39826759D01*
X73685208Y-39826755D01*
X73689416Y-39824176D01*
X73869969Y-39669969D01*
X73957153Y-39567890D01*
X78932093Y-39567890D01*
X78935876Y-39576666D01*
X79787188Y-40427978D01*
X79801132Y-40435592D01*
X79802965Y-40435461D01*
X79809580Y-40431210D01*
X80661080Y-39579710D01*
X80667840Y-39567330D01*
X80662113Y-39559680D01*
X80490958Y-39454795D01*
X80482163Y-39450313D01*
X80272012Y-39363266D01*
X80262627Y-39360217D01*
X80041446Y-39307115D01*
X80031699Y-39305572D01*
X79804930Y-39287725D01*
X79795070Y-39287725D01*
X79568301Y-39305572D01*
X79558554Y-39307115D01*
X79337373Y-39360217D01*
X79327988Y-39363266D01*
X79117837Y-39450313D01*
X79109042Y-39454795D01*
X78941555Y-39557432D01*
X78932093Y-39567890D01*
X73957153Y-39567890D01*
X74024176Y-39489416D01*
X74026755Y-39485208D01*
X74026759Y-39485202D01*
X74145654Y-39291183D01*
X74148240Y-39286963D01*
X74239105Y-39067594D01*
X74294535Y-38836711D01*
X74313165Y-38600000D01*
X74294535Y-38363289D01*
X74239105Y-38132406D01*
X74148240Y-37913037D01*
X74145654Y-37908817D01*
X74026759Y-37714798D01*
X74026755Y-37714792D01*
X74024176Y-37710584D01*
X73869969Y-37530031D01*
X73689416Y-37375824D01*
X73685208Y-37373245D01*
X73685202Y-37373241D01*
X73491183Y-37254346D01*
X73486963Y-37251760D01*
X73482393Y-37249867D01*
X73482389Y-37249865D01*
X73272167Y-37162789D01*
X73272165Y-37162788D01*
X73267594Y-37160895D01*
X73187391Y-37141640D01*
X73041524Y-37106620D01*
X73041518Y-37106619D01*
X73036711Y-37105465D01*
X72800000Y-37086835D01*
X72563289Y-37105465D01*
X72558482Y-37106619D01*
X72558476Y-37106620D01*
X72412609Y-37141640D01*
X72332406Y-37160895D01*
X72327835Y-37162788D01*
X72327833Y-37162789D01*
X72117611Y-37249865D01*
X72117607Y-37249867D01*
X72113037Y-37251760D01*
X72108817Y-37254346D01*
X71914798Y-37373241D01*
X71914792Y-37373245D01*
X71910584Y-37375824D01*
X71730031Y-37530031D01*
X71575824Y-37710584D01*
X71573245Y-37714792D01*
X71573241Y-37714798D01*
X71454346Y-37908817D01*
X71451760Y-37913037D01*
X71360895Y-38132406D01*
X71305465Y-38363289D01*
X71286835Y-38600000D01*
X69400000Y-38600000D01*
X69400000Y-36800000D01*
X56600000Y-36800000D01*
X56600000Y-42374000D01*
X56579998Y-42442121D01*
X56526342Y-42488614D01*
X56474000Y-42500000D01*
X48834000Y-42500000D01*
X48765879Y-42479998D01*
X48719386Y-42426342D01*
X48708000Y-42374000D01*
X48708000Y-36000000D01*
X79686835Y-36000000D01*
X79705465Y-36236711D01*
X79760895Y-36467594D01*
X79851760Y-36686963D01*
X79854346Y-36691183D01*
X79973241Y-36885202D01*
X79973245Y-36885208D01*
X79975824Y-36889416D01*
X80130031Y-37069969D01*
X80310584Y-37224176D01*
X80314792Y-37226755D01*
X80314798Y-37226759D01*
X80508817Y-37345654D01*
X80513037Y-37348240D01*
X80517607Y-37350133D01*
X80517611Y-37350135D01*
X80727833Y-37437211D01*
X80732406Y-37439105D01*
X80812609Y-37458360D01*
X80958476Y-37493380D01*
X80958482Y-37493381D01*
X80963289Y-37494535D01*
X81200000Y-37513165D01*
X81436711Y-37494535D01*
X81441518Y-37493381D01*
X81441524Y-37493380D01*
X81587391Y-37458360D01*
X81667594Y-37439105D01*
X81672167Y-37437211D01*
X81882389Y-37350135D01*
X81882393Y-37350133D01*
X81886963Y-37348240D01*
X81891183Y-37345654D01*
X82085202Y-37226759D01*
X82085208Y-37226755D01*
X82089416Y-37224176D01*
X82269969Y-37069969D01*
X82424176Y-36889416D01*
X82426755Y-36885208D01*
X82426759Y-36885202D01*
X82545654Y-36691183D01*
X82548240Y-36686963D01*
X82639105Y-36467594D01*
X82694535Y-36236711D01*
X82713165Y-36000000D01*
X82694535Y-35763289D01*
X82639105Y-35532406D01*
X82548240Y-35313037D01*
X82545654Y-35308817D01*
X82426759Y-35114798D01*
X82426755Y-35114792D01*
X82424176Y-35110584D01*
X82269969Y-34930031D01*
X82089416Y-34775824D01*
X82085208Y-34773245D01*
X82085202Y-34773241D01*
X81891183Y-34654346D01*
X81886963Y-34651760D01*
X81882393Y-34649867D01*
X81882389Y-34649865D01*
X81672167Y-34562789D01*
X81672165Y-34562788D01*
X81667594Y-34560895D01*
X81587391Y-34541640D01*
X81441524Y-34506620D01*
X81441518Y-34506619D01*
X81436711Y-34505465D01*
X81200000Y-34486835D01*
X80963289Y-34505465D01*
X80958482Y-34506619D01*
X80958476Y-34506620D01*
X80812609Y-34541640D01*
X80732406Y-34560895D01*
X80727835Y-34562788D01*
X80727833Y-34562789D01*
X80517611Y-34649865D01*
X80517607Y-34649867D01*
X80513037Y-34651760D01*
X80508817Y-34654346D01*
X80314798Y-34773241D01*
X80314792Y-34773245D01*
X80310584Y-34775824D01*
X80130031Y-34930031D01*
X79975824Y-35110584D01*
X79973245Y-35114792D01*
X79973241Y-35114798D01*
X79854346Y-35308817D01*
X79851760Y-35313037D01*
X79760895Y-35532406D01*
X79705465Y-35763289D01*
X79686835Y-36000000D01*
X48708000Y-36000000D01*
X48708000Y-27432670D01*
X71332160Y-27432670D01*
X71337887Y-27440320D01*
X71509042Y-27545205D01*
X71517837Y-27549687D01*
X71727988Y-27636734D01*
X71737373Y-27639783D01*
X71958554Y-27692885D01*
X71968301Y-27694428D01*
X72195070Y-27712275D01*
X72204930Y-27712275D01*
X72431699Y-27694428D01*
X72441446Y-27692885D01*
X72662627Y-27639783D01*
X72672012Y-27636734D01*
X72882163Y-27549687D01*
X72890958Y-27545205D01*
X73058445Y-27442568D01*
X73067907Y-27432110D01*
X73064124Y-27423334D01*
X72212812Y-26572022D01*
X72198868Y-26564408D01*
X72197035Y-26564539D01*
X72190420Y-26568790D01*
X71338920Y-27420290D01*
X71332160Y-27432670D01*
X48708000Y-27432670D01*
X48708000Y-26204930D01*
X70687725Y-26204930D01*
X70705572Y-26431699D01*
X70707115Y-26441446D01*
X70760217Y-26662627D01*
X70763266Y-26672012D01*
X70850313Y-26882163D01*
X70854795Y-26890958D01*
X70957432Y-27058445D01*
X70967890Y-27067907D01*
X70976666Y-27064124D01*
X71827978Y-26212812D01*
X71834356Y-26201132D01*
X72564408Y-26201132D01*
X72564539Y-26202965D01*
X72568790Y-26209580D01*
X73420290Y-27061080D01*
X73432670Y-27067840D01*
X73440320Y-27062113D01*
X73545205Y-26890958D01*
X73549687Y-26882163D01*
X73636734Y-26672012D01*
X73639783Y-26662627D01*
X73692885Y-26441446D01*
X73694428Y-26431699D01*
X73712275Y-26204930D01*
X73712275Y-26195070D01*
X73694428Y-25968301D01*
X73692885Y-25958554D01*
X73639783Y-25737373D01*
X73636734Y-25727988D01*
X73549687Y-25517837D01*
X73545205Y-25509042D01*
X73442568Y-25341555D01*
X73432110Y-25332093D01*
X73423334Y-25335876D01*
X72572022Y-26187188D01*
X72564408Y-26201132D01*
X71834356Y-26201132D01*
X71835592Y-26198868D01*
X71835461Y-26197035D01*
X71831210Y-26190420D01*
X70979710Y-25338920D01*
X70967330Y-25332160D01*
X70959680Y-25337887D01*
X70854795Y-25509042D01*
X70850313Y-25517837D01*
X70763266Y-25727988D01*
X70760217Y-25737373D01*
X70707115Y-25958554D01*
X70705572Y-25968301D01*
X70687725Y-26195070D01*
X70687725Y-26204930D01*
X48708000Y-26204930D01*
X48708000Y-21634000D01*
X48728002Y-21565879D01*
X48781658Y-21519386D01*
X48834000Y-21508000D01*
X51430980Y-21508000D01*
X51499101Y-21528002D01*
G37*
G04 #@! TD.AperFunction*
M02*
