G04 #@! TF.GenerationSoftware,KiCad,Pcbnew,5.1.6-c6e7f7d~86~ubuntu20.04.1*
G04 #@! TF.CreationDate,2020-09-04T11:15:15+02:00*
G04 #@! TF.ProjectId,Power,506f7765-722e-46b6-9963-61645f706362,rev?*
G04 #@! TF.SameCoordinates,Original*
G04 #@! TF.FileFunction,Soldermask,Top*
G04 #@! TF.FilePolarity,Negative*
%FSLAX46Y46*%
G04 Gerber Fmt 4.6, Leading zero omitted, Abs format (unit mm)*
G04 Created by KiCad (PCBNEW 5.1.6-c6e7f7d~86~ubuntu20.04.1) date 2020-09-04 11:15:15*
%MOMM*%
%LPD*%
G01*
G04 APERTURE LIST*
%ADD10C,2.500000*%
%ADD11O,1.800000X1.800000*%
%ADD12R,1.800000X1.800000*%
%ADD13C,2.600000*%
%ADD14R,1.300000X1.000000*%
%ADD15R,6.500000X5.900000*%
%ADD16R,2.300000X1.300000*%
%ADD17R,5.100000X5.100000*%
%ADD18C,2.100000*%
%ADD19C,0.900000*%
%ADD20C,6.500000*%
%ADD21C,1.903400*%
%ADD22R,1.400000X1.400000*%
%ADD23C,1.400000*%
G04 APERTURE END LIST*
D10*
X115500000Y-130500000D03*
X88000000Y-130500000D03*
X50000000Y-123000000D03*
X77500000Y-123000000D03*
X87500000Y-54000000D03*
X60000000Y-54000000D03*
D11*
X54500000Y-47040000D03*
D12*
X54500000Y-44500000D03*
D11*
X83540000Y-103000000D03*
D12*
X81000000Y-103000000D03*
X130000000Y-90000000D03*
D11*
X130040000Y-103000000D03*
D12*
X127500000Y-103000000D03*
D11*
X130000000Y-92540000D03*
X130000000Y-95080000D03*
D12*
X81000000Y-87000000D03*
D11*
X81000000Y-89540000D03*
X81000000Y-92080000D03*
X81000000Y-94620000D03*
X130000000Y-83540000D03*
D12*
X130000000Y-81000000D03*
D11*
X62460000Y-58000000D03*
D12*
X65000000Y-58000000D03*
D11*
X50960000Y-58000000D03*
D12*
X53500000Y-58000000D03*
D11*
X95540000Y-91500000D03*
D12*
X93000000Y-91500000D03*
D11*
X109040000Y-91500000D03*
D12*
X106500000Y-91500000D03*
X107500000Y-49500000D03*
D11*
X107500000Y-52040000D03*
X95920000Y-56000000D03*
D12*
X101000000Y-56000000D03*
D11*
X98460000Y-56000000D03*
D13*
X102000000Y-63000000D03*
X80000000Y-74000000D03*
X46000000Y-85000000D03*
G36*
G01*
X78018750Y-93962500D02*
X78981250Y-93962500D01*
G75*
G02*
X79250000Y-94231250I0J-268750D01*
G01*
X79250000Y-94768750D01*
G75*
G02*
X78981250Y-95037500I-268750J0D01*
G01*
X78018750Y-95037500D01*
G75*
G02*
X77750000Y-94768750I0J268750D01*
G01*
X77750000Y-94231250D01*
G75*
G02*
X78018750Y-93962500I268750J0D01*
G01*
G37*
G36*
G01*
X78018750Y-92087500D02*
X78981250Y-92087500D01*
G75*
G02*
X79250000Y-92356250I0J-268750D01*
G01*
X79250000Y-92893750D01*
G75*
G02*
X78981250Y-93162500I-268750J0D01*
G01*
X78018750Y-93162500D01*
G75*
G02*
X77750000Y-92893750I0J268750D01*
G01*
X77750000Y-92356250D01*
G75*
G02*
X78018750Y-92087500I268750J0D01*
G01*
G37*
G36*
G01*
X76600000Y-89018750D02*
X76600000Y-89981250D01*
G75*
G02*
X76331250Y-90250000I-268750J0D01*
G01*
X75793750Y-90250000D01*
G75*
G02*
X75525000Y-89981250I0J268750D01*
G01*
X75525000Y-89018750D01*
G75*
G02*
X75793750Y-88750000I268750J0D01*
G01*
X76331250Y-88750000D01*
G75*
G02*
X76600000Y-89018750I0J-268750D01*
G01*
G37*
G36*
G01*
X78475000Y-89018750D02*
X78475000Y-89981250D01*
G75*
G02*
X78206250Y-90250000I-268750J0D01*
G01*
X77668750Y-90250000D01*
G75*
G02*
X77400000Y-89981250I0J268750D01*
G01*
X77400000Y-89018750D01*
G75*
G02*
X77668750Y-88750000I268750J0D01*
G01*
X78206250Y-88750000D01*
G75*
G02*
X78475000Y-89018750I0J-268750D01*
G01*
G37*
G36*
G01*
X101018750Y-52400000D02*
X101981250Y-52400000D01*
G75*
G02*
X102250000Y-52668750I0J-268750D01*
G01*
X102250000Y-53206250D01*
G75*
G02*
X101981250Y-53475000I-268750J0D01*
G01*
X101018750Y-53475000D01*
G75*
G02*
X100750000Y-53206250I0J268750D01*
G01*
X100750000Y-52668750D01*
G75*
G02*
X101018750Y-52400000I268750J0D01*
G01*
G37*
G36*
G01*
X101018750Y-50525000D02*
X101981250Y-50525000D01*
G75*
G02*
X102250000Y-50793750I0J-268750D01*
G01*
X102250000Y-51331250D01*
G75*
G02*
X101981250Y-51600000I-268750J0D01*
G01*
X101018750Y-51600000D01*
G75*
G02*
X100750000Y-51331250I0J268750D01*
G01*
X100750000Y-50793750D01*
G75*
G02*
X101018750Y-50525000I268750J0D01*
G01*
G37*
G36*
G01*
X96462500Y-53981250D02*
X96462500Y-53018750D01*
G75*
G02*
X96731250Y-52750000I268750J0D01*
G01*
X97268750Y-52750000D01*
G75*
G02*
X97537500Y-53018750I0J-268750D01*
G01*
X97537500Y-53981250D01*
G75*
G02*
X97268750Y-54250000I-268750J0D01*
G01*
X96731250Y-54250000D01*
G75*
G02*
X96462500Y-53981250I0J268750D01*
G01*
G37*
G36*
G01*
X94587500Y-53981250D02*
X94587500Y-53018750D01*
G75*
G02*
X94856250Y-52750000I268750J0D01*
G01*
X95393750Y-52750000D01*
G75*
G02*
X95662500Y-53018750I0J-268750D01*
G01*
X95662500Y-53981250D01*
G75*
G02*
X95393750Y-54250000I-268750J0D01*
G01*
X94856250Y-54250000D01*
G75*
G02*
X94587500Y-53981250I0J268750D01*
G01*
G37*
G36*
G01*
X67105000Y-51515000D02*
X64895000Y-51515000D01*
G75*
G02*
X64625000Y-51245000I0J270000D01*
G01*
X64625000Y-50435000D01*
G75*
G02*
X64895000Y-50165000I270000J0D01*
G01*
X67105000Y-50165000D01*
G75*
G02*
X67375000Y-50435000I0J-270000D01*
G01*
X67375000Y-51245000D01*
G75*
G02*
X67105000Y-51515000I-270000J0D01*
G01*
G37*
G36*
G01*
X67105000Y-54315000D02*
X64895000Y-54315000D01*
G75*
G02*
X64625000Y-54045000I0J270000D01*
G01*
X64625000Y-53235000D01*
G75*
G02*
X64895000Y-52965000I270000J0D01*
G01*
X67105000Y-52965000D01*
G75*
G02*
X67375000Y-53235000I0J-270000D01*
G01*
X67375000Y-54045000D01*
G75*
G02*
X67105000Y-54315000I-270000J0D01*
G01*
G37*
G36*
G01*
X126018750Y-94900000D02*
X126981250Y-94900000D01*
G75*
G02*
X127250000Y-95168750I0J-268750D01*
G01*
X127250000Y-95706250D01*
G75*
G02*
X126981250Y-95975000I-268750J0D01*
G01*
X126018750Y-95975000D01*
G75*
G02*
X125750000Y-95706250I0J268750D01*
G01*
X125750000Y-95168750D01*
G75*
G02*
X126018750Y-94900000I268750J0D01*
G01*
G37*
G36*
G01*
X126018750Y-93025000D02*
X126981250Y-93025000D01*
G75*
G02*
X127250000Y-93293750I0J-268750D01*
G01*
X127250000Y-93831250D01*
G75*
G02*
X126981250Y-94100000I-268750J0D01*
G01*
X126018750Y-94100000D01*
G75*
G02*
X125750000Y-93831250I0J268750D01*
G01*
X125750000Y-93293750D01*
G75*
G02*
X126018750Y-93025000I268750J0D01*
G01*
G37*
G36*
G01*
X126462500Y-89981250D02*
X126462500Y-89018750D01*
G75*
G02*
X126731250Y-88750000I268750J0D01*
G01*
X127268750Y-88750000D01*
G75*
G02*
X127537500Y-89018750I0J-268750D01*
G01*
X127537500Y-89981250D01*
G75*
G02*
X127268750Y-90250000I-268750J0D01*
G01*
X126731250Y-90250000D01*
G75*
G02*
X126462500Y-89981250I0J268750D01*
G01*
G37*
G36*
G01*
X124587500Y-89981250D02*
X124587500Y-89018750D01*
G75*
G02*
X124856250Y-88750000I268750J0D01*
G01*
X125393750Y-88750000D01*
G75*
G02*
X125662500Y-89018750I0J-268750D01*
G01*
X125662500Y-89981250D01*
G75*
G02*
X125393750Y-90250000I-268750J0D01*
G01*
X124856250Y-90250000D01*
G75*
G02*
X124587500Y-89981250I0J268750D01*
G01*
G37*
D14*
X65755000Y-64515000D03*
X65755000Y-61215000D03*
X51785000Y-64515000D03*
X51785000Y-61215000D03*
X90845000Y-84710000D03*
X90845000Y-88010000D03*
X106410000Y-85345000D03*
X106410000Y-88645000D03*
D15*
X69760000Y-79010000D03*
D16*
X63460000Y-81290000D03*
X63460000Y-76730000D03*
D15*
X89340000Y-69215000D03*
D16*
X95640000Y-66935000D03*
X95640000Y-71495000D03*
D15*
X56425000Y-79010000D03*
D16*
X50125000Y-81290000D03*
X50125000Y-76730000D03*
D15*
X101405000Y-69215000D03*
D16*
X107705000Y-66935000D03*
X107705000Y-71495000D03*
D17*
X60365000Y-89045000D03*
X51365000Y-89045000D03*
X55865000Y-106045000D03*
X111000000Y-104500000D03*
X102000000Y-104500000D03*
X106500000Y-121500000D03*
D15*
X69760000Y-69215000D03*
D16*
X63460000Y-71495000D03*
X63460000Y-66935000D03*
D15*
X56425000Y-69215000D03*
D16*
X50125000Y-71495000D03*
X50125000Y-66935000D03*
D15*
X89380000Y-79135000D03*
D16*
X95680000Y-76855000D03*
X95680000Y-81415000D03*
D15*
X101530000Y-79135000D03*
D16*
X107830000Y-76855000D03*
X107830000Y-81415000D03*
G36*
G01*
X62733750Y-62327500D02*
X63696250Y-62327500D01*
G75*
G02*
X63965000Y-62596250I0J-268750D01*
G01*
X63965000Y-63133750D01*
G75*
G02*
X63696250Y-63402500I-268750J0D01*
G01*
X62733750Y-63402500D01*
G75*
G02*
X62465000Y-63133750I0J268750D01*
G01*
X62465000Y-62596250D01*
G75*
G02*
X62733750Y-62327500I268750J0D01*
G01*
G37*
G36*
G01*
X62733750Y-60452500D02*
X63696250Y-60452500D01*
G75*
G02*
X63965000Y-60721250I0J-268750D01*
G01*
X63965000Y-61258750D01*
G75*
G02*
X63696250Y-61527500I-268750J0D01*
G01*
X62733750Y-61527500D01*
G75*
G02*
X62465000Y-61258750I0J268750D01*
G01*
X62465000Y-60721250D01*
G75*
G02*
X62733750Y-60452500I268750J0D01*
G01*
G37*
G36*
G01*
X93866250Y-87562500D02*
X92903750Y-87562500D01*
G75*
G02*
X92635000Y-87293750I0J268750D01*
G01*
X92635000Y-86756250D01*
G75*
G02*
X92903750Y-86487500I268750J0D01*
G01*
X93866250Y-86487500D01*
G75*
G02*
X94135000Y-86756250I0J-268750D01*
G01*
X94135000Y-87293750D01*
G75*
G02*
X93866250Y-87562500I-268750J0D01*
G01*
G37*
G36*
G01*
X93866250Y-89437500D02*
X92903750Y-89437500D01*
G75*
G02*
X92635000Y-89168750I0J268750D01*
G01*
X92635000Y-88631250D01*
G75*
G02*
X92903750Y-88362500I268750J0D01*
G01*
X93866250Y-88362500D01*
G75*
G02*
X94135000Y-88631250I0J-268750D01*
G01*
X94135000Y-89168750D01*
G75*
G02*
X93866250Y-89437500I-268750J0D01*
G01*
G37*
G36*
G01*
X68981250Y-63162500D02*
X68018750Y-63162500D01*
G75*
G02*
X67750000Y-62893750I0J268750D01*
G01*
X67750000Y-62356250D01*
G75*
G02*
X68018750Y-62087500I268750J0D01*
G01*
X68981250Y-62087500D01*
G75*
G02*
X69250000Y-62356250I0J-268750D01*
G01*
X69250000Y-62893750D01*
G75*
G02*
X68981250Y-63162500I-268750J0D01*
G01*
G37*
G36*
G01*
X68981250Y-65037500D02*
X68018750Y-65037500D01*
G75*
G02*
X67750000Y-64768750I0J268750D01*
G01*
X67750000Y-64231250D01*
G75*
G02*
X68018750Y-63962500I268750J0D01*
G01*
X68981250Y-63962500D01*
G75*
G02*
X69250000Y-64231250I0J-268750D01*
G01*
X69250000Y-64768750D01*
G75*
G02*
X68981250Y-65037500I-268750J0D01*
G01*
G37*
G36*
G01*
X54806250Y-63100000D02*
X53843750Y-63100000D01*
G75*
G02*
X53575000Y-62831250I0J268750D01*
G01*
X53575000Y-62293750D01*
G75*
G02*
X53843750Y-62025000I268750J0D01*
G01*
X54806250Y-62025000D01*
G75*
G02*
X55075000Y-62293750I0J-268750D01*
G01*
X55075000Y-62831250D01*
G75*
G02*
X54806250Y-63100000I-268750J0D01*
G01*
G37*
G36*
G01*
X54806250Y-64975000D02*
X53843750Y-64975000D01*
G75*
G02*
X53575000Y-64706250I0J268750D01*
G01*
X53575000Y-64168750D01*
G75*
G02*
X53843750Y-63900000I268750J0D01*
G01*
X54806250Y-63900000D01*
G75*
G02*
X55075000Y-64168750I0J-268750D01*
G01*
X55075000Y-64706250D01*
G75*
G02*
X54806250Y-64975000I-268750J0D01*
G01*
G37*
G36*
G01*
X88786250Y-85325000D02*
X87823750Y-85325000D01*
G75*
G02*
X87555000Y-85056250I0J268750D01*
G01*
X87555000Y-84518750D01*
G75*
G02*
X87823750Y-84250000I268750J0D01*
G01*
X88786250Y-84250000D01*
G75*
G02*
X89055000Y-84518750I0J-268750D01*
G01*
X89055000Y-85056250D01*
G75*
G02*
X88786250Y-85325000I-268750J0D01*
G01*
G37*
G36*
G01*
X88786250Y-87200000D02*
X87823750Y-87200000D01*
G75*
G02*
X87555000Y-86931250I0J268750D01*
G01*
X87555000Y-86393750D01*
G75*
G02*
X87823750Y-86125000I268750J0D01*
G01*
X88786250Y-86125000D01*
G75*
G02*
X89055000Y-86393750I0J-268750D01*
G01*
X89055000Y-86931250D01*
G75*
G02*
X88786250Y-87200000I-268750J0D01*
G01*
G37*
G36*
G01*
X104351250Y-85627500D02*
X103388750Y-85627500D01*
G75*
G02*
X103120000Y-85358750I0J268750D01*
G01*
X103120000Y-84821250D01*
G75*
G02*
X103388750Y-84552500I268750J0D01*
G01*
X104351250Y-84552500D01*
G75*
G02*
X104620000Y-84821250I0J-268750D01*
G01*
X104620000Y-85358750D01*
G75*
G02*
X104351250Y-85627500I-268750J0D01*
G01*
G37*
G36*
G01*
X104351250Y-87502500D02*
X103388750Y-87502500D01*
G75*
G02*
X103120000Y-87233750I0J268750D01*
G01*
X103120000Y-86696250D01*
G75*
G02*
X103388750Y-86427500I268750J0D01*
G01*
X104351250Y-86427500D01*
G75*
G02*
X104620000Y-86696250I0J-268750D01*
G01*
X104620000Y-87233750D01*
G75*
G02*
X104351250Y-87502500I-268750J0D01*
G01*
G37*
G36*
G01*
X48763750Y-61995000D02*
X49726250Y-61995000D01*
G75*
G02*
X49995000Y-62263750I0J-268750D01*
G01*
X49995000Y-62801250D01*
G75*
G02*
X49726250Y-63070000I-268750J0D01*
G01*
X48763750Y-63070000D01*
G75*
G02*
X48495000Y-62801250I0J268750D01*
G01*
X48495000Y-62263750D01*
G75*
G02*
X48763750Y-61995000I268750J0D01*
G01*
G37*
G36*
G01*
X48763750Y-60120000D02*
X49726250Y-60120000D01*
G75*
G02*
X49995000Y-60388750I0J-268750D01*
G01*
X49995000Y-60926250D01*
G75*
G02*
X49726250Y-61195000I-268750J0D01*
G01*
X48763750Y-61195000D01*
G75*
G02*
X48495000Y-60926250I0J268750D01*
G01*
X48495000Y-60388750D01*
G75*
G02*
X48763750Y-60120000I268750J0D01*
G01*
G37*
G36*
G01*
X109431250Y-87562500D02*
X108468750Y-87562500D01*
G75*
G02*
X108200000Y-87293750I0J268750D01*
G01*
X108200000Y-86756250D01*
G75*
G02*
X108468750Y-86487500I268750J0D01*
G01*
X109431250Y-86487500D01*
G75*
G02*
X109700000Y-86756250I0J-268750D01*
G01*
X109700000Y-87293750D01*
G75*
G02*
X109431250Y-87562500I-268750J0D01*
G01*
G37*
G36*
G01*
X109431250Y-89437500D02*
X108468750Y-89437500D01*
G75*
G02*
X108200000Y-89168750I0J268750D01*
G01*
X108200000Y-88631250D01*
G75*
G02*
X108468750Y-88362500I268750J0D01*
G01*
X109431250Y-88362500D01*
G75*
G02*
X109700000Y-88631250I0J-268750D01*
G01*
X109700000Y-89168750D01*
G75*
G02*
X109431250Y-89437500I-268750J0D01*
G01*
G37*
G36*
G01*
X62647500Y-65251250D02*
X62647500Y-64288750D01*
G75*
G02*
X62916250Y-64020000I268750J0D01*
G01*
X63453750Y-64020000D01*
G75*
G02*
X63722500Y-64288750I0J-268750D01*
G01*
X63722500Y-65251250D01*
G75*
G02*
X63453750Y-65520000I-268750J0D01*
G01*
X62916250Y-65520000D01*
G75*
G02*
X62647500Y-65251250I0J268750D01*
G01*
G37*
G36*
G01*
X60772500Y-65251250D02*
X60772500Y-64288750D01*
G75*
G02*
X61041250Y-64020000I268750J0D01*
G01*
X61578750Y-64020000D01*
G75*
G02*
X61847500Y-64288750I0J-268750D01*
G01*
X61847500Y-65251250D01*
G75*
G02*
X61578750Y-65520000I-268750J0D01*
G01*
X61041250Y-65520000D01*
G75*
G02*
X60772500Y-65251250I0J268750D01*
G01*
G37*
G36*
G01*
X93952500Y-84608750D02*
X93952500Y-85571250D01*
G75*
G02*
X93683750Y-85840000I-268750J0D01*
G01*
X93146250Y-85840000D01*
G75*
G02*
X92877500Y-85571250I0J268750D01*
G01*
X92877500Y-84608750D01*
G75*
G02*
X93146250Y-84340000I268750J0D01*
G01*
X93683750Y-84340000D01*
G75*
G02*
X93952500Y-84608750I0J-268750D01*
G01*
G37*
G36*
G01*
X95827500Y-84608750D02*
X95827500Y-85571250D01*
G75*
G02*
X95558750Y-85840000I-268750J0D01*
G01*
X95021250Y-85840000D01*
G75*
G02*
X94752500Y-85571250I0J268750D01*
G01*
X94752500Y-84608750D01*
G75*
G02*
X95021250Y-84340000I268750J0D01*
G01*
X95558750Y-84340000D01*
G75*
G02*
X95827500Y-84608750I0J-268750D01*
G01*
G37*
G36*
G01*
X48677500Y-65251250D02*
X48677500Y-64288750D01*
G75*
G02*
X48946250Y-64020000I268750J0D01*
G01*
X49483750Y-64020000D01*
G75*
G02*
X49752500Y-64288750I0J-268750D01*
G01*
X49752500Y-65251250D01*
G75*
G02*
X49483750Y-65520000I-268750J0D01*
G01*
X48946250Y-65520000D01*
G75*
G02*
X48677500Y-65251250I0J268750D01*
G01*
G37*
G36*
G01*
X46802500Y-65251250D02*
X46802500Y-64288750D01*
G75*
G02*
X47071250Y-64020000I268750J0D01*
G01*
X47608750Y-64020000D01*
G75*
G02*
X47877500Y-64288750I0J-268750D01*
G01*
X47877500Y-65251250D01*
G75*
G02*
X47608750Y-65520000I-268750J0D01*
G01*
X47071250Y-65520000D01*
G75*
G02*
X46802500Y-65251250I0J268750D01*
G01*
G37*
G36*
G01*
X109487500Y-84608750D02*
X109487500Y-85571250D01*
G75*
G02*
X109218750Y-85840000I-268750J0D01*
G01*
X108681250Y-85840000D01*
G75*
G02*
X108412500Y-85571250I0J268750D01*
G01*
X108412500Y-84608750D01*
G75*
G02*
X108681250Y-84340000I268750J0D01*
G01*
X109218750Y-84340000D01*
G75*
G02*
X109487500Y-84608750I0J-268750D01*
G01*
G37*
G36*
G01*
X111362500Y-84608750D02*
X111362500Y-85571250D01*
G75*
G02*
X111093750Y-85840000I-268750J0D01*
G01*
X110556250Y-85840000D01*
G75*
G02*
X110287500Y-85571250I0J268750D01*
G01*
X110287500Y-84608750D01*
G75*
G02*
X110556250Y-84340000I268750J0D01*
G01*
X111093750Y-84340000D01*
G75*
G02*
X111362500Y-84608750I0J-268750D01*
G01*
G37*
G36*
G01*
X99595000Y-49925000D02*
X99945000Y-49925000D01*
G75*
G02*
X100120000Y-50100000I0J-175000D01*
G01*
X100120000Y-51800000D01*
G75*
G02*
X99945000Y-51975000I-175000J0D01*
G01*
X99595000Y-51975000D01*
G75*
G02*
X99420000Y-51800000I0J175000D01*
G01*
X99420000Y-50100000D01*
G75*
G02*
X99595000Y-49925000I175000J0D01*
G01*
G37*
G36*
G01*
X98325000Y-49925000D02*
X98675000Y-49925000D01*
G75*
G02*
X98850000Y-50100000I0J-175000D01*
G01*
X98850000Y-51800000D01*
G75*
G02*
X98675000Y-51975000I-175000J0D01*
G01*
X98325000Y-51975000D01*
G75*
G02*
X98150000Y-51800000I0J175000D01*
G01*
X98150000Y-50100000D01*
G75*
G02*
X98325000Y-49925000I175000J0D01*
G01*
G37*
G36*
G01*
X97055000Y-49925000D02*
X97405000Y-49925000D01*
G75*
G02*
X97580000Y-50100000I0J-175000D01*
G01*
X97580000Y-51800000D01*
G75*
G02*
X97405000Y-51975000I-175000J0D01*
G01*
X97055000Y-51975000D01*
G75*
G02*
X96880000Y-51800000I0J175000D01*
G01*
X96880000Y-50100000D01*
G75*
G02*
X97055000Y-49925000I175000J0D01*
G01*
G37*
G36*
G01*
X95785000Y-49925000D02*
X96135000Y-49925000D01*
G75*
G02*
X96310000Y-50100000I0J-175000D01*
G01*
X96310000Y-51800000D01*
G75*
G02*
X96135000Y-51975000I-175000J0D01*
G01*
X95785000Y-51975000D01*
G75*
G02*
X95610000Y-51800000I0J175000D01*
G01*
X95610000Y-50100000D01*
G75*
G02*
X95785000Y-49925000I175000J0D01*
G01*
G37*
G36*
G01*
X95785000Y-44975000D02*
X96135000Y-44975000D01*
G75*
G02*
X96310000Y-45150000I0J-175000D01*
G01*
X96310000Y-46850000D01*
G75*
G02*
X96135000Y-47025000I-175000J0D01*
G01*
X95785000Y-47025000D01*
G75*
G02*
X95610000Y-46850000I0J175000D01*
G01*
X95610000Y-45150000D01*
G75*
G02*
X95785000Y-44975000I175000J0D01*
G01*
G37*
G36*
G01*
X97055000Y-44975000D02*
X97405000Y-44975000D01*
G75*
G02*
X97580000Y-45150000I0J-175000D01*
G01*
X97580000Y-46850000D01*
G75*
G02*
X97405000Y-47025000I-175000J0D01*
G01*
X97055000Y-47025000D01*
G75*
G02*
X96880000Y-46850000I0J175000D01*
G01*
X96880000Y-45150000D01*
G75*
G02*
X97055000Y-44975000I175000J0D01*
G01*
G37*
G36*
G01*
X98325000Y-44975000D02*
X98675000Y-44975000D01*
G75*
G02*
X98850000Y-45150000I0J-175000D01*
G01*
X98850000Y-46850000D01*
G75*
G02*
X98675000Y-47025000I-175000J0D01*
G01*
X98325000Y-47025000D01*
G75*
G02*
X98150000Y-46850000I0J175000D01*
G01*
X98150000Y-45150000D01*
G75*
G02*
X98325000Y-44975000I175000J0D01*
G01*
G37*
G36*
G01*
X99595000Y-44975000D02*
X99945000Y-44975000D01*
G75*
G02*
X100120000Y-45150000I0J-175000D01*
G01*
X100120000Y-46850000D01*
G75*
G02*
X99945000Y-47025000I-175000J0D01*
G01*
X99595000Y-47025000D01*
G75*
G02*
X99420000Y-46850000I0J175000D01*
G01*
X99420000Y-45150000D01*
G75*
G02*
X99595000Y-44975000I175000J0D01*
G01*
G37*
D18*
X51060000Y-116810000D03*
X61060000Y-119810000D03*
X51060000Y-110810000D03*
X61060000Y-113810000D03*
X101135000Y-132175000D03*
X111135000Y-135175000D03*
X101135000Y-126175000D03*
X111135000Y-129175000D03*
G36*
G01*
X74975000Y-91270000D02*
X74975000Y-90920000D01*
G75*
G02*
X75150000Y-90745000I175000J0D01*
G01*
X76850000Y-90745000D01*
G75*
G02*
X77025000Y-90920000I0J-175000D01*
G01*
X77025000Y-91270000D01*
G75*
G02*
X76850000Y-91445000I-175000J0D01*
G01*
X75150000Y-91445000D01*
G75*
G02*
X74975000Y-91270000I0J175000D01*
G01*
G37*
G36*
G01*
X74975000Y-92540000D02*
X74975000Y-92190000D01*
G75*
G02*
X75150000Y-92015000I175000J0D01*
G01*
X76850000Y-92015000D01*
G75*
G02*
X77025000Y-92190000I0J-175000D01*
G01*
X77025000Y-92540000D01*
G75*
G02*
X76850000Y-92715000I-175000J0D01*
G01*
X75150000Y-92715000D01*
G75*
G02*
X74975000Y-92540000I0J175000D01*
G01*
G37*
G36*
G01*
X74975000Y-93810000D02*
X74975000Y-93460000D01*
G75*
G02*
X75150000Y-93285000I175000J0D01*
G01*
X76850000Y-93285000D01*
G75*
G02*
X77025000Y-93460000I0J-175000D01*
G01*
X77025000Y-93810000D01*
G75*
G02*
X76850000Y-93985000I-175000J0D01*
G01*
X75150000Y-93985000D01*
G75*
G02*
X74975000Y-93810000I0J175000D01*
G01*
G37*
G36*
G01*
X74975000Y-95080000D02*
X74975000Y-94730000D01*
G75*
G02*
X75150000Y-94555000I175000J0D01*
G01*
X76850000Y-94555000D01*
G75*
G02*
X77025000Y-94730000I0J-175000D01*
G01*
X77025000Y-95080000D01*
G75*
G02*
X76850000Y-95255000I-175000J0D01*
G01*
X75150000Y-95255000D01*
G75*
G02*
X74975000Y-95080000I0J175000D01*
G01*
G37*
G36*
G01*
X70025000Y-95080000D02*
X70025000Y-94730000D01*
G75*
G02*
X70200000Y-94555000I175000J0D01*
G01*
X71900000Y-94555000D01*
G75*
G02*
X72075000Y-94730000I0J-175000D01*
G01*
X72075000Y-95080000D01*
G75*
G02*
X71900000Y-95255000I-175000J0D01*
G01*
X70200000Y-95255000D01*
G75*
G02*
X70025000Y-95080000I0J175000D01*
G01*
G37*
G36*
G01*
X70025000Y-93810000D02*
X70025000Y-93460000D01*
G75*
G02*
X70200000Y-93285000I175000J0D01*
G01*
X71900000Y-93285000D01*
G75*
G02*
X72075000Y-93460000I0J-175000D01*
G01*
X72075000Y-93810000D01*
G75*
G02*
X71900000Y-93985000I-175000J0D01*
G01*
X70200000Y-93985000D01*
G75*
G02*
X70025000Y-93810000I0J175000D01*
G01*
G37*
G36*
G01*
X70025000Y-92540000D02*
X70025000Y-92190000D01*
G75*
G02*
X70200000Y-92015000I175000J0D01*
G01*
X71900000Y-92015000D01*
G75*
G02*
X72075000Y-92190000I0J-175000D01*
G01*
X72075000Y-92540000D01*
G75*
G02*
X71900000Y-92715000I-175000J0D01*
G01*
X70200000Y-92715000D01*
G75*
G02*
X70025000Y-92540000I0J175000D01*
G01*
G37*
G36*
G01*
X70025000Y-91270000D02*
X70025000Y-90920000D01*
G75*
G02*
X70200000Y-90745000I175000J0D01*
G01*
X71900000Y-90745000D01*
G75*
G02*
X72075000Y-90920000I0J-175000D01*
G01*
X72075000Y-91270000D01*
G75*
G02*
X71900000Y-91445000I-175000J0D01*
G01*
X70200000Y-91445000D01*
G75*
G02*
X70025000Y-91270000I0J175000D01*
G01*
G37*
G36*
G01*
X123885000Y-91475000D02*
X123885000Y-91125000D01*
G75*
G02*
X124060000Y-90950000I175000J0D01*
G01*
X125760000Y-90950000D01*
G75*
G02*
X125935000Y-91125000I0J-175000D01*
G01*
X125935000Y-91475000D01*
G75*
G02*
X125760000Y-91650000I-175000J0D01*
G01*
X124060000Y-91650000D01*
G75*
G02*
X123885000Y-91475000I0J175000D01*
G01*
G37*
G36*
G01*
X123885000Y-92745000D02*
X123885000Y-92395000D01*
G75*
G02*
X124060000Y-92220000I175000J0D01*
G01*
X125760000Y-92220000D01*
G75*
G02*
X125935000Y-92395000I0J-175000D01*
G01*
X125935000Y-92745000D01*
G75*
G02*
X125760000Y-92920000I-175000J0D01*
G01*
X124060000Y-92920000D01*
G75*
G02*
X123885000Y-92745000I0J175000D01*
G01*
G37*
G36*
G01*
X123885000Y-94015000D02*
X123885000Y-93665000D01*
G75*
G02*
X124060000Y-93490000I175000J0D01*
G01*
X125760000Y-93490000D01*
G75*
G02*
X125935000Y-93665000I0J-175000D01*
G01*
X125935000Y-94015000D01*
G75*
G02*
X125760000Y-94190000I-175000J0D01*
G01*
X124060000Y-94190000D01*
G75*
G02*
X123885000Y-94015000I0J175000D01*
G01*
G37*
G36*
G01*
X123885000Y-95285000D02*
X123885000Y-94935000D01*
G75*
G02*
X124060000Y-94760000I175000J0D01*
G01*
X125760000Y-94760000D01*
G75*
G02*
X125935000Y-94935000I0J-175000D01*
G01*
X125935000Y-95285000D01*
G75*
G02*
X125760000Y-95460000I-175000J0D01*
G01*
X124060000Y-95460000D01*
G75*
G02*
X123885000Y-95285000I0J175000D01*
G01*
G37*
G36*
G01*
X118935000Y-95285000D02*
X118935000Y-94935000D01*
G75*
G02*
X119110000Y-94760000I175000J0D01*
G01*
X120810000Y-94760000D01*
G75*
G02*
X120985000Y-94935000I0J-175000D01*
G01*
X120985000Y-95285000D01*
G75*
G02*
X120810000Y-95460000I-175000J0D01*
G01*
X119110000Y-95460000D01*
G75*
G02*
X118935000Y-95285000I0J175000D01*
G01*
G37*
G36*
G01*
X118935000Y-94015000D02*
X118935000Y-93665000D01*
G75*
G02*
X119110000Y-93490000I175000J0D01*
G01*
X120810000Y-93490000D01*
G75*
G02*
X120985000Y-93665000I0J-175000D01*
G01*
X120985000Y-94015000D01*
G75*
G02*
X120810000Y-94190000I-175000J0D01*
G01*
X119110000Y-94190000D01*
G75*
G02*
X118935000Y-94015000I0J175000D01*
G01*
G37*
G36*
G01*
X118935000Y-92745000D02*
X118935000Y-92395000D01*
G75*
G02*
X119110000Y-92220000I175000J0D01*
G01*
X120810000Y-92220000D01*
G75*
G02*
X120985000Y-92395000I0J-175000D01*
G01*
X120985000Y-92745000D01*
G75*
G02*
X120810000Y-92920000I-175000J0D01*
G01*
X119110000Y-92920000D01*
G75*
G02*
X118935000Y-92745000I0J175000D01*
G01*
G37*
G36*
G01*
X118935000Y-91475000D02*
X118935000Y-91125000D01*
G75*
G02*
X119110000Y-90950000I175000J0D01*
G01*
X120810000Y-90950000D01*
G75*
G02*
X120985000Y-91125000I0J-175000D01*
G01*
X120985000Y-91475000D01*
G75*
G02*
X120810000Y-91650000I-175000J0D01*
G01*
X119110000Y-91650000D01*
G75*
G02*
X118935000Y-91475000I0J175000D01*
G01*
G37*
D15*
X117175000Y-82025000D03*
D16*
X123475000Y-79745000D03*
X123475000Y-84305000D03*
G36*
G01*
X78962500Y-100981250D02*
X78962500Y-100018750D01*
G75*
G02*
X79231250Y-99750000I268750J0D01*
G01*
X79768750Y-99750000D01*
G75*
G02*
X80037500Y-100018750I0J-268750D01*
G01*
X80037500Y-100981250D01*
G75*
G02*
X79768750Y-101250000I-268750J0D01*
G01*
X79231250Y-101250000D01*
G75*
G02*
X78962500Y-100981250I0J268750D01*
G01*
G37*
G36*
G01*
X77087500Y-100981250D02*
X77087500Y-100018750D01*
G75*
G02*
X77356250Y-99750000I268750J0D01*
G01*
X77893750Y-99750000D01*
G75*
G02*
X78162500Y-100018750I0J-268750D01*
G01*
X78162500Y-100981250D01*
G75*
G02*
X77893750Y-101250000I-268750J0D01*
G01*
X77356250Y-101250000D01*
G75*
G02*
X77087500Y-100981250I0J268750D01*
G01*
G37*
G36*
G01*
X82337500Y-100981250D02*
X82337500Y-100018750D01*
G75*
G02*
X82606250Y-99750000I268750J0D01*
G01*
X83143750Y-99750000D01*
G75*
G02*
X83412500Y-100018750I0J-268750D01*
G01*
X83412500Y-100981250D01*
G75*
G02*
X83143750Y-101250000I-268750J0D01*
G01*
X82606250Y-101250000D01*
G75*
G02*
X82337500Y-100981250I0J268750D01*
G01*
G37*
G36*
G01*
X80462500Y-100981250D02*
X80462500Y-100018750D01*
G75*
G02*
X80731250Y-99750000I268750J0D01*
G01*
X81268750Y-99750000D01*
G75*
G02*
X81537500Y-100018750I0J-268750D01*
G01*
X81537500Y-100981250D01*
G75*
G02*
X81268750Y-101250000I-268750J0D01*
G01*
X80731250Y-101250000D01*
G75*
G02*
X80462500Y-100981250I0J268750D01*
G01*
G37*
G36*
G01*
X124962500Y-100981250D02*
X124962500Y-100018750D01*
G75*
G02*
X125231250Y-99750000I268750J0D01*
G01*
X125768750Y-99750000D01*
G75*
G02*
X126037500Y-100018750I0J-268750D01*
G01*
X126037500Y-100981250D01*
G75*
G02*
X125768750Y-101250000I-268750J0D01*
G01*
X125231250Y-101250000D01*
G75*
G02*
X124962500Y-100981250I0J268750D01*
G01*
G37*
G36*
G01*
X123087500Y-100981250D02*
X123087500Y-100018750D01*
G75*
G02*
X123356250Y-99750000I268750J0D01*
G01*
X123893750Y-99750000D01*
G75*
G02*
X124162500Y-100018750I0J-268750D01*
G01*
X124162500Y-100981250D01*
G75*
G02*
X123893750Y-101250000I-268750J0D01*
G01*
X123356250Y-101250000D01*
G75*
G02*
X123087500Y-100981250I0J268750D01*
G01*
G37*
G36*
G01*
X128837500Y-100981250D02*
X128837500Y-100018750D01*
G75*
G02*
X129106250Y-99750000I268750J0D01*
G01*
X129643750Y-99750000D01*
G75*
G02*
X129912500Y-100018750I0J-268750D01*
G01*
X129912500Y-100981250D01*
G75*
G02*
X129643750Y-101250000I-268750J0D01*
G01*
X129106250Y-101250000D01*
G75*
G02*
X128837500Y-100981250I0J268750D01*
G01*
G37*
G36*
G01*
X126962500Y-100981250D02*
X126962500Y-100018750D01*
G75*
G02*
X127231250Y-99750000I268750J0D01*
G01*
X127768750Y-99750000D01*
G75*
G02*
X128037500Y-100018750I0J-268750D01*
G01*
X128037500Y-100981250D01*
G75*
G02*
X127768750Y-101250000I-268750J0D01*
G01*
X127231250Y-101250000D01*
G75*
G02*
X126962500Y-100981250I0J268750D01*
G01*
G37*
G36*
G01*
X110018750Y-47400000D02*
X110981250Y-47400000D01*
G75*
G02*
X111250000Y-47668750I0J-268750D01*
G01*
X111250000Y-48206250D01*
G75*
G02*
X110981250Y-48475000I-268750J0D01*
G01*
X110018750Y-48475000D01*
G75*
G02*
X109750000Y-48206250I0J268750D01*
G01*
X109750000Y-47668750D01*
G75*
G02*
X110018750Y-47400000I268750J0D01*
G01*
G37*
G36*
G01*
X110018750Y-45525000D02*
X110981250Y-45525000D01*
G75*
G02*
X111250000Y-45793750I0J-268750D01*
G01*
X111250000Y-46331250D01*
G75*
G02*
X110981250Y-46600000I-268750J0D01*
G01*
X110018750Y-46600000D01*
G75*
G02*
X109750000Y-46331250I0J268750D01*
G01*
X109750000Y-45793750D01*
G75*
G02*
X110018750Y-45525000I268750J0D01*
G01*
G37*
G36*
G01*
X110018750Y-51337500D02*
X110981250Y-51337500D01*
G75*
G02*
X111250000Y-51606250I0J-268750D01*
G01*
X111250000Y-52143750D01*
G75*
G02*
X110981250Y-52412500I-268750J0D01*
G01*
X110018750Y-52412500D01*
G75*
G02*
X109750000Y-52143750I0J268750D01*
G01*
X109750000Y-51606250D01*
G75*
G02*
X110018750Y-51337500I268750J0D01*
G01*
G37*
G36*
G01*
X110018750Y-49462500D02*
X110981250Y-49462500D01*
G75*
G02*
X111250000Y-49731250I0J-268750D01*
G01*
X111250000Y-50268750D01*
G75*
G02*
X110981250Y-50537500I-268750J0D01*
G01*
X110018750Y-50537500D01*
G75*
G02*
X109750000Y-50268750I0J268750D01*
G01*
X109750000Y-49731250D01*
G75*
G02*
X110018750Y-49462500I268750J0D01*
G01*
G37*
D19*
X48697056Y-45302944D03*
X47000000Y-44600000D03*
X45302944Y-45302944D03*
X44600000Y-47000000D03*
X45302944Y-48697056D03*
X47000000Y-49400000D03*
X48697056Y-48697056D03*
X49400000Y-47000000D03*
D20*
X47000000Y-47000000D03*
D19*
X128697056Y-45302944D03*
X127000000Y-44600000D03*
X125302944Y-45302944D03*
X124600000Y-47000000D03*
X125302944Y-48697056D03*
X127000000Y-49400000D03*
X128697056Y-48697056D03*
X129400000Y-47000000D03*
D20*
X127000000Y-47000000D03*
D19*
X48697056Y-135302944D03*
X47000000Y-134600000D03*
X45302944Y-135302944D03*
X44600000Y-137000000D03*
X45302944Y-138697056D03*
X47000000Y-139400000D03*
X48697056Y-138697056D03*
X49400000Y-137000000D03*
D20*
X47000000Y-137000000D03*
D19*
X128697056Y-135302944D03*
X127000000Y-134600000D03*
X125302944Y-135302944D03*
X124600000Y-137000000D03*
X125302944Y-138697056D03*
X127000000Y-139400000D03*
X128697056Y-138697056D03*
X129400000Y-137000000D03*
D20*
X127000000Y-137000000D03*
D21*
X60000000Y-133699999D03*
X55000000Y-133699999D03*
X60000000Y-125500000D03*
X55000000Y-125500000D03*
X72500000Y-133699999D03*
X67500000Y-133699999D03*
X72500000Y-125500000D03*
X67500000Y-125500000D03*
X123699999Y-56000000D03*
X123699999Y-61000000D03*
X115500000Y-56000000D03*
X115500000Y-61000000D03*
X123699999Y-68500000D03*
X123699999Y-73500000D03*
X115500000Y-68500000D03*
X115500000Y-73500000D03*
D22*
X78500000Y-86500000D03*
D23*
X75960000Y-86500000D03*
X77230000Y-87770000D03*
G36*
G01*
X63731250Y-51537500D02*
X62768750Y-51537500D01*
G75*
G02*
X62500000Y-51268750I0J268750D01*
G01*
X62500000Y-50731250D01*
G75*
G02*
X62768750Y-50462500I268750J0D01*
G01*
X63731250Y-50462500D01*
G75*
G02*
X64000000Y-50731250I0J-268750D01*
G01*
X64000000Y-51268750D01*
G75*
G02*
X63731250Y-51537500I-268750J0D01*
G01*
G37*
G36*
G01*
X63731250Y-53412500D02*
X62768750Y-53412500D01*
G75*
G02*
X62500000Y-53143750I0J268750D01*
G01*
X62500000Y-52606250D01*
G75*
G02*
X62768750Y-52337500I268750J0D01*
G01*
X63731250Y-52337500D01*
G75*
G02*
X64000000Y-52606250I0J-268750D01*
G01*
X64000000Y-53143750D01*
G75*
G02*
X63731250Y-53412500I-268750J0D01*
G01*
G37*
G36*
G01*
X63731250Y-46912500D02*
X62768750Y-46912500D01*
G75*
G02*
X62500000Y-46643750I0J268750D01*
G01*
X62500000Y-46106250D01*
G75*
G02*
X62768750Y-45837500I268750J0D01*
G01*
X63731250Y-45837500D01*
G75*
G02*
X64000000Y-46106250I0J-268750D01*
G01*
X64000000Y-46643750D01*
G75*
G02*
X63731250Y-46912500I-268750J0D01*
G01*
G37*
G36*
G01*
X63731250Y-48787500D02*
X62768750Y-48787500D01*
G75*
G02*
X62500000Y-48518750I0J268750D01*
G01*
X62500000Y-47981250D01*
G75*
G02*
X62768750Y-47712500I268750J0D01*
G01*
X63731250Y-47712500D01*
G75*
G02*
X64000000Y-47981250I0J-268750D01*
G01*
X64000000Y-48518750D01*
G75*
G02*
X63731250Y-48787500I-268750J0D01*
G01*
G37*
G36*
G01*
X72250001Y-109920001D02*
X72250001Y-107710001D01*
G75*
G02*
X72520001Y-107440001I270000J0D01*
G01*
X73330001Y-107440001D01*
G75*
G02*
X73600001Y-107710001I0J-270000D01*
G01*
X73600001Y-109920001D01*
G75*
G02*
X73330001Y-110190001I-270000J0D01*
G01*
X72520001Y-110190001D01*
G75*
G02*
X72250001Y-109920001I0J270000D01*
G01*
G37*
G36*
G01*
X69450001Y-109920001D02*
X69450001Y-107710001D01*
G75*
G02*
X69720001Y-107440001I270000J0D01*
G01*
X70530001Y-107440001D01*
G75*
G02*
X70800001Y-107710001I0J-270000D01*
G01*
X70800001Y-109920001D01*
G75*
G02*
X70530001Y-110190001I-270000J0D01*
G01*
X69720001Y-110190001D01*
G75*
G02*
X69450001Y-109920001I0J270000D01*
G01*
G37*
G36*
G01*
X122969999Y-112395000D02*
X122969999Y-114605000D01*
G75*
G02*
X122699999Y-114875000I-270000J0D01*
G01*
X121889999Y-114875000D01*
G75*
G02*
X121619999Y-114605000I0J270000D01*
G01*
X121619999Y-112395000D01*
G75*
G02*
X121889999Y-112125000I270000J0D01*
G01*
X122699999Y-112125000D01*
G75*
G02*
X122969999Y-112395000I0J-270000D01*
G01*
G37*
G36*
G01*
X125769999Y-112395000D02*
X125769999Y-114605000D01*
G75*
G02*
X125499999Y-114875000I-270000J0D01*
G01*
X124689999Y-114875000D01*
G75*
G02*
X124419999Y-114605000I0J270000D01*
G01*
X124419999Y-112395000D01*
G75*
G02*
X124689999Y-112125000I270000J0D01*
G01*
X125499999Y-112125000D01*
G75*
G02*
X125769999Y-112395000I0J-270000D01*
G01*
G37*
G36*
G01*
X72250001Y-118605000D02*
X72250001Y-116395000D01*
G75*
G02*
X72520001Y-116125000I270000J0D01*
G01*
X73330001Y-116125000D01*
G75*
G02*
X73600001Y-116395000I0J-270000D01*
G01*
X73600001Y-118605000D01*
G75*
G02*
X73330001Y-118875000I-270000J0D01*
G01*
X72520001Y-118875000D01*
G75*
G02*
X72250001Y-118605000I0J270000D01*
G01*
G37*
G36*
G01*
X69450001Y-118605000D02*
X69450001Y-116395000D01*
G75*
G02*
X69720001Y-116125000I270000J0D01*
G01*
X70530001Y-116125000D01*
G75*
G02*
X70800001Y-116395000I0J-270000D01*
G01*
X70800001Y-118605000D01*
G75*
G02*
X70530001Y-118875000I-270000J0D01*
G01*
X69720001Y-118875000D01*
G75*
G02*
X69450001Y-118605000I0J270000D01*
G01*
G37*
G36*
G01*
X122969999Y-108369999D02*
X122969999Y-110579999D01*
G75*
G02*
X122699999Y-110849999I-270000J0D01*
G01*
X121889999Y-110849999D01*
G75*
G02*
X121619999Y-110579999I0J270000D01*
G01*
X121619999Y-108369999D01*
G75*
G02*
X121889999Y-108099999I270000J0D01*
G01*
X122699999Y-108099999D01*
G75*
G02*
X122969999Y-108369999I0J-270000D01*
G01*
G37*
G36*
G01*
X125769999Y-108369999D02*
X125769999Y-110579999D01*
G75*
G02*
X125499999Y-110849999I-270000J0D01*
G01*
X124689999Y-110849999D01*
G75*
G02*
X124419999Y-110579999I0J270000D01*
G01*
X124419999Y-108369999D01*
G75*
G02*
X124689999Y-108099999I270000J0D01*
G01*
X125499999Y-108099999D01*
G75*
G02*
X125769999Y-108369999I0J-270000D01*
G01*
G37*
G36*
G01*
X72250001Y-114105000D02*
X72250001Y-111895000D01*
G75*
G02*
X72520001Y-111625000I270000J0D01*
G01*
X73330001Y-111625000D01*
G75*
G02*
X73600001Y-111895000I0J-270000D01*
G01*
X73600001Y-114105000D01*
G75*
G02*
X73330001Y-114375000I-270000J0D01*
G01*
X72520001Y-114375000D01*
G75*
G02*
X72250001Y-114105000I0J270000D01*
G01*
G37*
G36*
G01*
X69450001Y-114105000D02*
X69450001Y-111895000D01*
G75*
G02*
X69720001Y-111625000I270000J0D01*
G01*
X70530001Y-111625000D01*
G75*
G02*
X70800001Y-111895000I0J-270000D01*
G01*
X70800001Y-114105000D01*
G75*
G02*
X70530001Y-114375000I-270000J0D01*
G01*
X69720001Y-114375000D01*
G75*
G02*
X69450001Y-114105000I0J270000D01*
G01*
G37*
G36*
G01*
X122969999Y-116895000D02*
X122969999Y-119105000D01*
G75*
G02*
X122699999Y-119375000I-270000J0D01*
G01*
X121889999Y-119375000D01*
G75*
G02*
X121619999Y-119105000I0J270000D01*
G01*
X121619999Y-116895000D01*
G75*
G02*
X121889999Y-116625000I270000J0D01*
G01*
X122699999Y-116625000D01*
G75*
G02*
X122969999Y-116895000I0J-270000D01*
G01*
G37*
G36*
G01*
X125769999Y-116895000D02*
X125769999Y-119105000D01*
G75*
G02*
X125499999Y-119375000I-270000J0D01*
G01*
X124689999Y-119375000D01*
G75*
G02*
X124419999Y-119105000I0J270000D01*
G01*
X124419999Y-116895000D01*
G75*
G02*
X124689999Y-116625000I270000J0D01*
G01*
X125499999Y-116625000D01*
G75*
G02*
X125769999Y-116895000I0J-270000D01*
G01*
G37*
G36*
G01*
X67105000Y-46675000D02*
X64895000Y-46675000D01*
G75*
G02*
X64625000Y-46405000I0J270000D01*
G01*
X64625000Y-45595000D01*
G75*
G02*
X64895000Y-45325000I270000J0D01*
G01*
X67105000Y-45325000D01*
G75*
G02*
X67375000Y-45595000I0J-270000D01*
G01*
X67375000Y-46405000D01*
G75*
G02*
X67105000Y-46675000I-270000J0D01*
G01*
G37*
G36*
G01*
X67105000Y-49475000D02*
X64895000Y-49475000D01*
G75*
G02*
X64625000Y-49205000I0J270000D01*
G01*
X64625000Y-48395000D01*
G75*
G02*
X64895000Y-48125000I270000J0D01*
G01*
X67105000Y-48125000D01*
G75*
G02*
X67375000Y-48395000I0J-270000D01*
G01*
X67375000Y-49205000D01*
G75*
G02*
X67105000Y-49475000I-270000J0D01*
G01*
G37*
G36*
G01*
X70905000Y-51515000D02*
X68695000Y-51515000D01*
G75*
G02*
X68425000Y-51245000I0J270000D01*
G01*
X68425000Y-50435000D01*
G75*
G02*
X68695000Y-50165000I270000J0D01*
G01*
X70905000Y-50165000D01*
G75*
G02*
X71175000Y-50435000I0J-270000D01*
G01*
X71175000Y-51245000D01*
G75*
G02*
X70905000Y-51515000I-270000J0D01*
G01*
G37*
G36*
G01*
X70905000Y-54315000D02*
X68695000Y-54315000D01*
G75*
G02*
X68425000Y-54045000I0J270000D01*
G01*
X68425000Y-53235000D01*
G75*
G02*
X68695000Y-52965000I270000J0D01*
G01*
X70905000Y-52965000D01*
G75*
G02*
X71175000Y-53235000I0J-270000D01*
G01*
X71175000Y-54045000D01*
G75*
G02*
X70905000Y-54315000I-270000J0D01*
G01*
G37*
G36*
G01*
X70905000Y-46675000D02*
X68695000Y-46675000D01*
G75*
G02*
X68425000Y-46405000I0J270000D01*
G01*
X68425000Y-45595000D01*
G75*
G02*
X68695000Y-45325000I270000J0D01*
G01*
X70905000Y-45325000D01*
G75*
G02*
X71175000Y-45595000I0J-270000D01*
G01*
X71175000Y-46405000D01*
G75*
G02*
X70905000Y-46675000I-270000J0D01*
G01*
G37*
G36*
G01*
X70905000Y-49475000D02*
X68695000Y-49475000D01*
G75*
G02*
X68425000Y-49205000I0J270000D01*
G01*
X68425000Y-48395000D01*
G75*
G02*
X68695000Y-48125000I270000J0D01*
G01*
X70905000Y-48125000D01*
G75*
G02*
X71175000Y-48395000I0J-270000D01*
G01*
X71175000Y-49205000D01*
G75*
G02*
X70905000Y-49475000I-270000J0D01*
G01*
G37*
G36*
G01*
X74705000Y-51515000D02*
X72495000Y-51515000D01*
G75*
G02*
X72225000Y-51245000I0J270000D01*
G01*
X72225000Y-50435000D01*
G75*
G02*
X72495000Y-50165000I270000J0D01*
G01*
X74705000Y-50165000D01*
G75*
G02*
X74975000Y-50435000I0J-270000D01*
G01*
X74975000Y-51245000D01*
G75*
G02*
X74705000Y-51515000I-270000J0D01*
G01*
G37*
G36*
G01*
X74705000Y-54315000D02*
X72495000Y-54315000D01*
G75*
G02*
X72225000Y-54045000I0J270000D01*
G01*
X72225000Y-53235000D01*
G75*
G02*
X72495000Y-52965000I270000J0D01*
G01*
X74705000Y-52965000D01*
G75*
G02*
X74975000Y-53235000I0J-270000D01*
G01*
X74975000Y-54045000D01*
G75*
G02*
X74705000Y-54315000I-270000J0D01*
G01*
G37*
G36*
G01*
X74705000Y-46675000D02*
X72495000Y-46675000D01*
G75*
G02*
X72225000Y-46405000I0J270000D01*
G01*
X72225000Y-45595000D01*
G75*
G02*
X72495000Y-45325000I270000J0D01*
G01*
X74705000Y-45325000D01*
G75*
G02*
X74975000Y-45595000I0J-270000D01*
G01*
X74975000Y-46405000D01*
G75*
G02*
X74705000Y-46675000I-270000J0D01*
G01*
G37*
G36*
G01*
X74705000Y-49475000D02*
X72495000Y-49475000D01*
G75*
G02*
X72225000Y-49205000I0J270000D01*
G01*
X72225000Y-48395000D01*
G75*
G02*
X72495000Y-48125000I270000J0D01*
G01*
X74705000Y-48125000D01*
G75*
G02*
X74975000Y-48395000I0J-270000D01*
G01*
X74975000Y-49205000D01*
G75*
G02*
X74705000Y-49475000I-270000J0D01*
G01*
G37*
G36*
G01*
X78505000Y-51515000D02*
X76295000Y-51515000D01*
G75*
G02*
X76025000Y-51245000I0J270000D01*
G01*
X76025000Y-50435000D01*
G75*
G02*
X76295000Y-50165000I270000J0D01*
G01*
X78505000Y-50165000D01*
G75*
G02*
X78775000Y-50435000I0J-270000D01*
G01*
X78775000Y-51245000D01*
G75*
G02*
X78505000Y-51515000I-270000J0D01*
G01*
G37*
G36*
G01*
X78505000Y-54315000D02*
X76295000Y-54315000D01*
G75*
G02*
X76025000Y-54045000I0J270000D01*
G01*
X76025000Y-53235000D01*
G75*
G02*
X76295000Y-52965000I270000J0D01*
G01*
X78505000Y-52965000D01*
G75*
G02*
X78775000Y-53235000I0J-270000D01*
G01*
X78775000Y-54045000D01*
G75*
G02*
X78505000Y-54315000I-270000J0D01*
G01*
G37*
G36*
G01*
X78505000Y-46675000D02*
X76295000Y-46675000D01*
G75*
G02*
X76025000Y-46405000I0J270000D01*
G01*
X76025000Y-45595000D01*
G75*
G02*
X76295000Y-45325000I270000J0D01*
G01*
X78505000Y-45325000D01*
G75*
G02*
X78775000Y-45595000I0J-270000D01*
G01*
X78775000Y-46405000D01*
G75*
G02*
X78505000Y-46675000I-270000J0D01*
G01*
G37*
G36*
G01*
X78505000Y-49475000D02*
X76295000Y-49475000D01*
G75*
G02*
X76025000Y-49205000I0J270000D01*
G01*
X76025000Y-48395000D01*
G75*
G02*
X76295000Y-48125000I270000J0D01*
G01*
X78505000Y-48125000D01*
G75*
G02*
X78775000Y-48395000I0J-270000D01*
G01*
X78775000Y-49205000D01*
G75*
G02*
X78505000Y-49475000I-270000J0D01*
G01*
G37*
G36*
G01*
X82305000Y-51515000D02*
X80095000Y-51515000D01*
G75*
G02*
X79825000Y-51245000I0J270000D01*
G01*
X79825000Y-50435000D01*
G75*
G02*
X80095000Y-50165000I270000J0D01*
G01*
X82305000Y-50165000D01*
G75*
G02*
X82575000Y-50435000I0J-270000D01*
G01*
X82575000Y-51245000D01*
G75*
G02*
X82305000Y-51515000I-270000J0D01*
G01*
G37*
G36*
G01*
X82305000Y-54315000D02*
X80095000Y-54315000D01*
G75*
G02*
X79825000Y-54045000I0J270000D01*
G01*
X79825000Y-53235000D01*
G75*
G02*
X80095000Y-52965000I270000J0D01*
G01*
X82305000Y-52965000D01*
G75*
G02*
X82575000Y-53235000I0J-270000D01*
G01*
X82575000Y-54045000D01*
G75*
G02*
X82305000Y-54315000I-270000J0D01*
G01*
G37*
G36*
G01*
X82305000Y-46675000D02*
X80095000Y-46675000D01*
G75*
G02*
X79825000Y-46405000I0J270000D01*
G01*
X79825000Y-45595000D01*
G75*
G02*
X80095000Y-45325000I270000J0D01*
G01*
X82305000Y-45325000D01*
G75*
G02*
X82575000Y-45595000I0J-270000D01*
G01*
X82575000Y-46405000D01*
G75*
G02*
X82305000Y-46675000I-270000J0D01*
G01*
G37*
G36*
G01*
X82305000Y-49475000D02*
X80095000Y-49475000D01*
G75*
G02*
X79825000Y-49205000I0J270000D01*
G01*
X79825000Y-48395000D01*
G75*
G02*
X80095000Y-48125000I270000J0D01*
G01*
X82305000Y-48125000D01*
G75*
G02*
X82575000Y-48395000I0J-270000D01*
G01*
X82575000Y-49205000D01*
G75*
G02*
X82305000Y-49475000I-270000J0D01*
G01*
G37*
G36*
G01*
X86105000Y-51515000D02*
X83895000Y-51515000D01*
G75*
G02*
X83625000Y-51245000I0J270000D01*
G01*
X83625000Y-50435000D01*
G75*
G02*
X83895000Y-50165000I270000J0D01*
G01*
X86105000Y-50165000D01*
G75*
G02*
X86375000Y-50435000I0J-270000D01*
G01*
X86375000Y-51245000D01*
G75*
G02*
X86105000Y-51515000I-270000J0D01*
G01*
G37*
G36*
G01*
X86105000Y-54315000D02*
X83895000Y-54315000D01*
G75*
G02*
X83625000Y-54045000I0J270000D01*
G01*
X83625000Y-53235000D01*
G75*
G02*
X83895000Y-52965000I270000J0D01*
G01*
X86105000Y-52965000D01*
G75*
G02*
X86375000Y-53235000I0J-270000D01*
G01*
X86375000Y-54045000D01*
G75*
G02*
X86105000Y-54315000I-270000J0D01*
G01*
G37*
G36*
G01*
X86105000Y-46675000D02*
X83895000Y-46675000D01*
G75*
G02*
X83625000Y-46405000I0J270000D01*
G01*
X83625000Y-45595000D01*
G75*
G02*
X83895000Y-45325000I270000J0D01*
G01*
X86105000Y-45325000D01*
G75*
G02*
X86375000Y-45595000I0J-270000D01*
G01*
X86375000Y-46405000D01*
G75*
G02*
X86105000Y-46675000I-270000J0D01*
G01*
G37*
G36*
G01*
X86105000Y-49475000D02*
X83895000Y-49475000D01*
G75*
G02*
X83625000Y-49205000I0J270000D01*
G01*
X83625000Y-48395000D01*
G75*
G02*
X83895000Y-48125000I270000J0D01*
G01*
X86105000Y-48125000D01*
G75*
G02*
X86375000Y-48395000I0J-270000D01*
G01*
X86375000Y-49205000D01*
G75*
G02*
X86105000Y-49475000I-270000J0D01*
G01*
G37*
M02*
