G04 #@! TF.GenerationSoftware,KiCad,Pcbnew,5.1.6-c6e7f7d~86~ubuntu20.04.1*
G04 #@! TF.CreationDate,2020-09-07T12:04:47+02:00*
G04 #@! TF.ProjectId,Power,506f7765-722e-46b6-9963-61645f706362,rev?*
G04 #@! TF.SameCoordinates,Original*
G04 #@! TF.FileFunction,Copper,L2,Bot*
G04 #@! TF.FilePolarity,Positive*
%FSLAX46Y46*%
G04 Gerber Fmt 4.6, Leading zero omitted, Abs format (unit mm)*
G04 Created by KiCad (PCBNEW 5.1.6-c6e7f7d~86~ubuntu20.04.1) date 2020-09-07 12:04:47*
%MOMM*%
%LPD*%
G01*
G04 APERTURE LIST*
G04 #@! TA.AperFunction,ComponentPad*
%ADD10C,2.400000*%
G04 #@! TD*
G04 #@! TA.AperFunction,ComponentPad*
%ADD11O,1.700000X1.700000*%
G04 #@! TD*
G04 #@! TA.AperFunction,ComponentPad*
%ADD12R,1.700000X1.700000*%
G04 #@! TD*
G04 #@! TA.AperFunction,ComponentPad*
%ADD13C,2.000000*%
G04 #@! TD*
G04 #@! TA.AperFunction,ComponentPad*
%ADD14C,1.803400*%
G04 #@! TD*
G04 #@! TA.AperFunction,ComponentPad*
%ADD15R,1.300000X1.300000*%
G04 #@! TD*
G04 #@! TA.AperFunction,ComponentPad*
%ADD16C,1.300000*%
G04 #@! TD*
G04 #@! TA.AperFunction,ViaPad*
%ADD17C,0.800000*%
G04 #@! TD*
G04 #@! TA.AperFunction,Conductor*
%ADD18C,1.000000*%
G04 #@! TD*
G04 #@! TA.AperFunction,Conductor*
%ADD19C,0.250000*%
G04 #@! TD*
G04 #@! TA.AperFunction,Conductor*
%ADD20C,0.254000*%
G04 #@! TD*
G04 APERTURE END LIST*
D10*
X115500000Y-130500000D03*
X88000000Y-130500000D03*
X50000000Y-123000000D03*
X77500000Y-123000000D03*
X87500000Y-54000000D03*
X60000000Y-54000000D03*
D11*
X54500000Y-47040000D03*
D12*
X54500000Y-44500000D03*
D11*
X83540000Y-103000000D03*
D12*
X81000000Y-103000000D03*
X130000000Y-90000000D03*
D11*
X130040000Y-103000000D03*
D12*
X127500000Y-103000000D03*
D11*
X130000000Y-92540000D03*
X130000000Y-95080000D03*
D12*
X81000000Y-87000000D03*
D11*
X81000000Y-89540000D03*
X81000000Y-92080000D03*
X81000000Y-94620000D03*
X130000000Y-83540000D03*
D12*
X130000000Y-81000000D03*
D11*
X62460000Y-58000000D03*
D12*
X65000000Y-58000000D03*
D11*
X50960000Y-58000000D03*
D12*
X53500000Y-58000000D03*
D11*
X95540000Y-91500000D03*
D12*
X93000000Y-91500000D03*
D11*
X109040000Y-91500000D03*
D12*
X106500000Y-91500000D03*
X107500000Y-49500000D03*
D11*
X107500000Y-52040000D03*
X95920000Y-56000000D03*
D12*
X101000000Y-56000000D03*
D11*
X98460000Y-56000000D03*
G04 #@! TA.AperFunction,SMDPad,CuDef*
G36*
G01*
X63875000Y-66175000D02*
X63875000Y-68325000D01*
G75*
G02*
X63625000Y-68575000I-250000J0D01*
G01*
X62875000Y-68575000D01*
G75*
G02*
X62625000Y-68325000I0J250000D01*
G01*
X62625000Y-66175000D01*
G75*
G02*
X62875000Y-65925000I250000J0D01*
G01*
X63625000Y-65925000D01*
G75*
G02*
X63875000Y-66175000I0J-250000D01*
G01*
G37*
G04 #@! TD.AperFunction*
G04 #@! TA.AperFunction,SMDPad,CuDef*
G36*
G01*
X66675000Y-66175000D02*
X66675000Y-68325000D01*
G75*
G02*
X66425000Y-68575000I-250000J0D01*
G01*
X65675000Y-68575000D01*
G75*
G02*
X65425000Y-68325000I0J250000D01*
G01*
X65425000Y-66175000D01*
G75*
G02*
X65675000Y-65925000I250000J0D01*
G01*
X66425000Y-65925000D01*
G75*
G02*
X66675000Y-66175000I0J-250000D01*
G01*
G37*
G04 #@! TD.AperFunction*
G04 #@! TA.AperFunction,SMDPad,CuDef*
G36*
G01*
X95175000Y-81575000D02*
X95175000Y-79425000D01*
G75*
G02*
X95425000Y-79175000I250000J0D01*
G01*
X96175000Y-79175000D01*
G75*
G02*
X96425000Y-79425000I0J-250000D01*
G01*
X96425000Y-81575000D01*
G75*
G02*
X96175000Y-81825000I-250000J0D01*
G01*
X95425000Y-81825000D01*
G75*
G02*
X95175000Y-81575000I0J250000D01*
G01*
G37*
G04 #@! TD.AperFunction*
G04 #@! TA.AperFunction,SMDPad,CuDef*
G36*
G01*
X92375000Y-81575000D02*
X92375000Y-79425000D01*
G75*
G02*
X92625000Y-79175000I250000J0D01*
G01*
X93375000Y-79175000D01*
G75*
G02*
X93625000Y-79425000I0J-250000D01*
G01*
X93625000Y-81575000D01*
G75*
G02*
X93375000Y-81825000I-250000J0D01*
G01*
X92625000Y-81825000D01*
G75*
G02*
X92375000Y-81575000I0J250000D01*
G01*
G37*
G04 #@! TD.AperFunction*
G04 #@! TA.AperFunction,SMDPad,CuDef*
G36*
G01*
X63737500Y-62678750D02*
X63737500Y-63591250D01*
G75*
G02*
X63493750Y-63835000I-243750J0D01*
G01*
X63006250Y-63835000D01*
G75*
G02*
X62762500Y-63591250I0J243750D01*
G01*
X62762500Y-62678750D01*
G75*
G02*
X63006250Y-62435000I243750J0D01*
G01*
X63493750Y-62435000D01*
G75*
G02*
X63737500Y-62678750I0J-243750D01*
G01*
G37*
G04 #@! TD.AperFunction*
G04 #@! TA.AperFunction,SMDPad,CuDef*
G36*
G01*
X65612500Y-62678750D02*
X65612500Y-63591250D01*
G75*
G02*
X65368750Y-63835000I-243750J0D01*
G01*
X64881250Y-63835000D01*
G75*
G02*
X64637500Y-63591250I0J243750D01*
G01*
X64637500Y-62678750D01*
G75*
G02*
X64881250Y-62435000I243750J0D01*
G01*
X65368750Y-62435000D01*
G75*
G02*
X65612500Y-62678750I0J-243750D01*
G01*
G37*
G04 #@! TD.AperFunction*
G04 #@! TA.AperFunction,SMDPad,CuDef*
G36*
G01*
X94470000Y-85706250D02*
X94470000Y-84793750D01*
G75*
G02*
X94713750Y-84550000I243750J0D01*
G01*
X95201250Y-84550000D01*
G75*
G02*
X95445000Y-84793750I0J-243750D01*
G01*
X95445000Y-85706250D01*
G75*
G02*
X95201250Y-85950000I-243750J0D01*
G01*
X94713750Y-85950000D01*
G75*
G02*
X94470000Y-85706250I0J243750D01*
G01*
G37*
G04 #@! TD.AperFunction*
G04 #@! TA.AperFunction,SMDPad,CuDef*
G36*
G01*
X92595000Y-85706250D02*
X92595000Y-84793750D01*
G75*
G02*
X92838750Y-84550000I243750J0D01*
G01*
X93326250Y-84550000D01*
G75*
G02*
X93570000Y-84793750I0J-243750D01*
G01*
X93570000Y-85706250D01*
G75*
G02*
X93326250Y-85950000I-243750J0D01*
G01*
X92838750Y-85950000D01*
G75*
G02*
X92595000Y-85706250I0J243750D01*
G01*
G37*
G04 #@! TD.AperFunction*
G04 #@! TA.AperFunction,SMDPad,CuDef*
G36*
G01*
X53875000Y-62678750D02*
X53875000Y-63591250D01*
G75*
G02*
X53631250Y-63835000I-243750J0D01*
G01*
X53143750Y-63835000D01*
G75*
G02*
X52900000Y-63591250I0J243750D01*
G01*
X52900000Y-62678750D01*
G75*
G02*
X53143750Y-62435000I243750J0D01*
G01*
X53631250Y-62435000D01*
G75*
G02*
X53875000Y-62678750I0J-243750D01*
G01*
G37*
G04 #@! TD.AperFunction*
G04 #@! TA.AperFunction,SMDPad,CuDef*
G36*
G01*
X55750000Y-62678750D02*
X55750000Y-63591250D01*
G75*
G02*
X55506250Y-63835000I-243750J0D01*
G01*
X55018750Y-63835000D01*
G75*
G02*
X54775000Y-63591250I0J243750D01*
G01*
X54775000Y-62678750D01*
G75*
G02*
X55018750Y-62435000I243750J0D01*
G01*
X55506250Y-62435000D01*
G75*
G02*
X55750000Y-62678750I0J-243750D01*
G01*
G37*
G04 #@! TD.AperFunction*
G04 #@! TA.AperFunction,SMDPad,CuDef*
G36*
G01*
X107887500Y-85706250D02*
X107887500Y-84793750D01*
G75*
G02*
X108131250Y-84550000I243750J0D01*
G01*
X108618750Y-84550000D01*
G75*
G02*
X108862500Y-84793750I0J-243750D01*
G01*
X108862500Y-85706250D01*
G75*
G02*
X108618750Y-85950000I-243750J0D01*
G01*
X108131250Y-85950000D01*
G75*
G02*
X107887500Y-85706250I0J243750D01*
G01*
G37*
G04 #@! TD.AperFunction*
G04 #@! TA.AperFunction,SMDPad,CuDef*
G36*
G01*
X106012500Y-85706250D02*
X106012500Y-84793750D01*
G75*
G02*
X106256250Y-84550000I243750J0D01*
G01*
X106743750Y-84550000D01*
G75*
G02*
X106987500Y-84793750I0J-243750D01*
G01*
X106987500Y-85706250D01*
G75*
G02*
X106743750Y-85950000I-243750J0D01*
G01*
X106256250Y-85950000D01*
G75*
G02*
X106012500Y-85706250I0J243750D01*
G01*
G37*
G04 #@! TD.AperFunction*
G04 #@! TA.AperFunction,SMDPad,CuDef*
G36*
G01*
X67512500Y-62678750D02*
X67512500Y-63591250D01*
G75*
G02*
X67268750Y-63835000I-243750J0D01*
G01*
X66781250Y-63835000D01*
G75*
G02*
X66537500Y-63591250I0J243750D01*
G01*
X66537500Y-62678750D01*
G75*
G02*
X66781250Y-62435000I243750J0D01*
G01*
X67268750Y-62435000D01*
G75*
G02*
X67512500Y-62678750I0J-243750D01*
G01*
G37*
G04 #@! TD.AperFunction*
G04 #@! TA.AperFunction,SMDPad,CuDef*
G36*
G01*
X69387500Y-62678750D02*
X69387500Y-63591250D01*
G75*
G02*
X69143750Y-63835000I-243750J0D01*
G01*
X68656250Y-63835000D01*
G75*
G02*
X68412500Y-63591250I0J243750D01*
G01*
X68412500Y-62678750D01*
G75*
G02*
X68656250Y-62435000I243750J0D01*
G01*
X69143750Y-62435000D01*
G75*
G02*
X69387500Y-62678750I0J-243750D01*
G01*
G37*
G04 #@! TD.AperFunction*
G04 #@! TA.AperFunction,SMDPad,CuDef*
G36*
G01*
X90150000Y-85706250D02*
X90150000Y-84793750D01*
G75*
G02*
X90393750Y-84550000I243750J0D01*
G01*
X90881250Y-84550000D01*
G75*
G02*
X91125000Y-84793750I0J-243750D01*
G01*
X91125000Y-85706250D01*
G75*
G02*
X90881250Y-85950000I-243750J0D01*
G01*
X90393750Y-85950000D01*
G75*
G02*
X90150000Y-85706250I0J243750D01*
G01*
G37*
G04 #@! TD.AperFunction*
G04 #@! TA.AperFunction,SMDPad,CuDef*
G36*
G01*
X88275000Y-85706250D02*
X88275000Y-84793750D01*
G75*
G02*
X88518750Y-84550000I243750J0D01*
G01*
X89006250Y-84550000D01*
G75*
G02*
X89250000Y-84793750I0J-243750D01*
G01*
X89250000Y-85706250D01*
G75*
G02*
X89006250Y-85950000I-243750J0D01*
G01*
X88518750Y-85950000D01*
G75*
G02*
X88275000Y-85706250I0J243750D01*
G01*
G37*
G04 #@! TD.AperFunction*
G04 #@! TA.AperFunction,SMDPad,CuDef*
G36*
G01*
X57987500Y-62678750D02*
X57987500Y-63591250D01*
G75*
G02*
X57743750Y-63835000I-243750J0D01*
G01*
X57256250Y-63835000D01*
G75*
G02*
X57012500Y-63591250I0J243750D01*
G01*
X57012500Y-62678750D01*
G75*
G02*
X57256250Y-62435000I243750J0D01*
G01*
X57743750Y-62435000D01*
G75*
G02*
X57987500Y-62678750I0J-243750D01*
G01*
G37*
G04 #@! TD.AperFunction*
G04 #@! TA.AperFunction,SMDPad,CuDef*
G36*
G01*
X59862500Y-62678750D02*
X59862500Y-63591250D01*
G75*
G02*
X59618750Y-63835000I-243750J0D01*
G01*
X59131250Y-63835000D01*
G75*
G02*
X58887500Y-63591250I0J243750D01*
G01*
X58887500Y-62678750D01*
G75*
G02*
X59131250Y-62435000I243750J0D01*
G01*
X59618750Y-62435000D01*
G75*
G02*
X59862500Y-62678750I0J-243750D01*
G01*
G37*
G04 #@! TD.AperFunction*
G04 #@! TA.AperFunction,SMDPad,CuDef*
G36*
G01*
X103685000Y-85706250D02*
X103685000Y-84793750D01*
G75*
G02*
X103928750Y-84550000I243750J0D01*
G01*
X104416250Y-84550000D01*
G75*
G02*
X104660000Y-84793750I0J-243750D01*
G01*
X104660000Y-85706250D01*
G75*
G02*
X104416250Y-85950000I-243750J0D01*
G01*
X103928750Y-85950000D01*
G75*
G02*
X103685000Y-85706250I0J243750D01*
G01*
G37*
G04 #@! TD.AperFunction*
G04 #@! TA.AperFunction,SMDPad,CuDef*
G36*
G01*
X101810000Y-85706250D02*
X101810000Y-84793750D01*
G75*
G02*
X102053750Y-84550000I243750J0D01*
G01*
X102541250Y-84550000D01*
G75*
G02*
X102785000Y-84793750I0J-243750D01*
G01*
X102785000Y-85706250D01*
G75*
G02*
X102541250Y-85950000I-243750J0D01*
G01*
X102053750Y-85950000D01*
G75*
G02*
X101810000Y-85706250I0J243750D01*
G01*
G37*
G04 #@! TD.AperFunction*
D13*
X51060000Y-116810000D03*
X61060000Y-119810000D03*
X51060000Y-110810000D03*
X61060000Y-113810000D03*
X101135000Y-132175000D03*
X111135000Y-135175000D03*
X101135000Y-126175000D03*
X111135000Y-129175000D03*
D14*
X60000000Y-133699999D03*
X55000000Y-133699999D03*
X60000000Y-125500000D03*
X55000000Y-125500000D03*
X72500000Y-133699999D03*
X67500000Y-133699999D03*
X72500000Y-125500000D03*
X67500000Y-125500000D03*
X123699999Y-56000000D03*
X123699999Y-61000000D03*
X115500000Y-56000000D03*
X115500000Y-61000000D03*
X123699999Y-68500000D03*
X123699999Y-73500000D03*
X115500000Y-68500000D03*
X115500000Y-73500000D03*
D15*
X78500000Y-86500000D03*
D16*
X75960000Y-86500000D03*
X77230000Y-87770000D03*
D17*
X118500000Y-119000000D03*
X115000000Y-80000000D03*
X117000000Y-80000000D03*
X119000000Y-80000000D03*
X115000000Y-82000000D03*
X117000000Y-82000000D03*
X119000000Y-82000000D03*
X115000000Y-84000000D03*
X117000000Y-84000000D03*
X119000000Y-84000000D03*
X77500000Y-109750000D03*
X79500000Y-109750000D03*
X81500000Y-109750000D03*
X83500000Y-109750000D03*
X77500000Y-111750000D03*
X79500000Y-111750000D03*
X81500000Y-111750000D03*
X83500000Y-111750000D03*
X77500000Y-113750000D03*
X79500000Y-113750000D03*
X81500000Y-113750000D03*
X83500000Y-113750000D03*
X77500000Y-115750000D03*
X79500000Y-115750000D03*
X81500000Y-115750000D03*
X83500000Y-115750000D03*
X77500000Y-117750000D03*
X79500000Y-117750000D03*
X81500000Y-117750000D03*
X83500000Y-117750000D03*
X77500000Y-119750000D03*
X79500000Y-119750000D03*
X81500000Y-119750000D03*
X83500000Y-119750000D03*
X118500000Y-109000000D03*
X118500000Y-111000000D03*
X118500000Y-113000000D03*
X118500000Y-115000000D03*
X118500000Y-117000000D03*
X115000000Y-86000000D03*
X117000000Y-86000000D03*
X119000000Y-86000000D03*
X120500000Y-109000000D03*
X120500000Y-111000000D03*
X120500000Y-113000000D03*
X120500000Y-115000000D03*
X120500000Y-117000000D03*
X118500000Y-107000000D03*
X120500000Y-107000000D03*
X120500000Y-119000000D03*
X109500000Y-72750000D03*
X109500000Y-74750000D03*
X107500000Y-66750000D03*
X43750000Y-80750000D03*
X110825000Y-86425000D03*
X110825000Y-87175000D03*
X45750000Y-80750000D03*
X43750000Y-78750000D03*
X45750000Y-78750000D03*
X43750000Y-76750000D03*
X45750000Y-76750000D03*
X43750000Y-74750000D03*
X45750000Y-74750000D03*
X43750000Y-72750000D03*
X45750000Y-72750000D03*
X43750000Y-70750000D03*
X45750000Y-70750000D03*
X43750000Y-68750000D03*
X45750000Y-68750000D03*
X43750000Y-66750000D03*
X45750000Y-66750000D03*
X43750000Y-64750000D03*
X45750000Y-64750000D03*
X43750000Y-62750000D03*
X45750000Y-62750000D03*
X43750000Y-60750000D03*
X45750000Y-60750000D03*
X43750000Y-58750000D03*
X45750000Y-58750000D03*
X43750000Y-56750000D03*
X45750000Y-56750000D03*
X43750000Y-54750000D03*
X45750000Y-54750000D03*
X43750000Y-52750000D03*
X45750000Y-52750000D03*
X43750000Y-50750000D03*
X109500000Y-66750000D03*
X107500000Y-68750000D03*
X109500000Y-68750000D03*
X107500000Y-70750000D03*
X109500000Y-70750000D03*
X107500000Y-72750000D03*
X107500000Y-74750000D03*
X65000000Y-43500000D03*
X67000000Y-43500000D03*
X69000000Y-43500000D03*
X71000000Y-43500000D03*
X73000000Y-43500000D03*
X75000000Y-43500000D03*
X77000000Y-43500000D03*
X79000000Y-43500000D03*
X81000000Y-43500000D03*
X83000000Y-43500000D03*
X85000000Y-43500000D03*
X67500000Y-66750000D03*
X69500000Y-66750000D03*
X71500000Y-66750000D03*
X73500000Y-66750000D03*
X75500000Y-66750000D03*
X77500000Y-66750000D03*
X79500000Y-66750000D03*
X81500000Y-66750000D03*
X83500000Y-66750000D03*
X85500000Y-66750000D03*
X87500000Y-66750000D03*
X89500000Y-66750000D03*
X91500000Y-66750000D03*
X67500000Y-68750000D03*
X69500000Y-68750000D03*
X71500000Y-68750000D03*
X73500000Y-68750000D03*
X75500000Y-68750000D03*
X77500000Y-68750000D03*
X79500000Y-68750000D03*
X81500000Y-68750000D03*
X83500000Y-68750000D03*
X85500000Y-68750000D03*
X87500000Y-68750000D03*
X89500000Y-68750000D03*
X91500000Y-68750000D03*
X67500000Y-70750000D03*
X69500000Y-70750000D03*
X71500000Y-70750000D03*
X73500000Y-70750000D03*
X75500000Y-70750000D03*
X77500000Y-70750000D03*
X79500000Y-70750000D03*
X81500000Y-70750000D03*
X83500000Y-70750000D03*
X85500000Y-70750000D03*
X87500000Y-70750000D03*
X89500000Y-70750000D03*
X91500000Y-70750000D03*
X67500000Y-72750000D03*
X69500000Y-72750000D03*
X71500000Y-72750000D03*
X73500000Y-72750000D03*
X75500000Y-72750000D03*
X83500000Y-72750000D03*
X85500000Y-72750000D03*
X87500000Y-72750000D03*
X89500000Y-72750000D03*
X91500000Y-72750000D03*
X67500000Y-74750000D03*
X69500000Y-74750000D03*
X71500000Y-74750000D03*
X73500000Y-74750000D03*
X75500000Y-74750000D03*
X83500000Y-74750000D03*
X85500000Y-74750000D03*
X87500000Y-74750000D03*
X89500000Y-74750000D03*
X91500000Y-74750000D03*
X67500000Y-76750000D03*
X69500000Y-76750000D03*
X71500000Y-76750000D03*
X73500000Y-76750000D03*
X75500000Y-76750000D03*
X77500000Y-76750000D03*
X79500000Y-76750000D03*
X81500000Y-76750000D03*
X83500000Y-76750000D03*
X85500000Y-76750000D03*
X87500000Y-76750000D03*
X89500000Y-76750000D03*
X91500000Y-76750000D03*
X67500000Y-78750000D03*
X69500000Y-78750000D03*
X71500000Y-78750000D03*
X73500000Y-78750000D03*
X75500000Y-78750000D03*
X77500000Y-78750000D03*
X79500000Y-78750000D03*
X81500000Y-78750000D03*
X83500000Y-78750000D03*
X85500000Y-78750000D03*
X87500000Y-78750000D03*
X89500000Y-78750000D03*
X91500000Y-78750000D03*
X67500000Y-80750000D03*
X69500000Y-80750000D03*
X71500000Y-80750000D03*
X73500000Y-80750000D03*
X75500000Y-80750000D03*
X77500000Y-80750000D03*
X79500000Y-80750000D03*
X81500000Y-80750000D03*
X83500000Y-80750000D03*
X85500000Y-80750000D03*
X87500000Y-80750000D03*
X89500000Y-80750000D03*
X91500000Y-80750000D03*
X53750000Y-66750000D03*
X55750000Y-66750000D03*
X57750000Y-66750000D03*
X59750000Y-66750000D03*
X53750000Y-68750000D03*
X55750000Y-68750000D03*
X57750000Y-68750000D03*
X59750000Y-68750000D03*
X53750000Y-70750000D03*
X55750000Y-70750000D03*
X57750000Y-70750000D03*
X59750000Y-70750000D03*
X61750000Y-70750000D03*
X63750000Y-70750000D03*
X53750000Y-72750000D03*
X55750000Y-72750000D03*
X57750000Y-72750000D03*
X59750000Y-72750000D03*
X61750000Y-72750000D03*
X63750000Y-72750000D03*
X53750000Y-74750000D03*
X55750000Y-74750000D03*
X57750000Y-74750000D03*
X59750000Y-74750000D03*
X61750000Y-74750000D03*
X63750000Y-74750000D03*
X53750000Y-76750000D03*
X55750000Y-76750000D03*
X57750000Y-76750000D03*
X59750000Y-76750000D03*
X61750000Y-76750000D03*
X63750000Y-76750000D03*
X53750000Y-78750000D03*
X55750000Y-78750000D03*
X57750000Y-78750000D03*
X59750000Y-78750000D03*
X61750000Y-78750000D03*
X63750000Y-78750000D03*
X53750000Y-80750000D03*
X55750000Y-80750000D03*
X57750000Y-80750000D03*
X59750000Y-80750000D03*
X61750000Y-80750000D03*
X63750000Y-80750000D03*
X61000000Y-63250000D03*
X95250000Y-66750000D03*
X96750000Y-85250000D03*
X97750000Y-85250000D03*
X98750000Y-85250000D03*
X97250000Y-66750000D03*
X99250000Y-66750000D03*
X101250000Y-66750000D03*
X103250000Y-66750000D03*
X95250000Y-68750000D03*
X97250000Y-68750000D03*
X99250000Y-68750000D03*
X101250000Y-68750000D03*
X103250000Y-68750000D03*
X95250000Y-70750000D03*
X97250000Y-70750000D03*
X99250000Y-70750000D03*
X101250000Y-70750000D03*
X103250000Y-70750000D03*
X95250000Y-72750000D03*
X97250000Y-72750000D03*
X99250000Y-72750000D03*
X101250000Y-72750000D03*
X103250000Y-72750000D03*
X95250000Y-74750000D03*
X97250000Y-74750000D03*
X99250000Y-74750000D03*
X101250000Y-74750000D03*
X103250000Y-74750000D03*
X95250000Y-76750000D03*
X97250000Y-76750000D03*
X99250000Y-76750000D03*
X101250000Y-76750000D03*
X103250000Y-76750000D03*
X99250000Y-78750000D03*
X101250000Y-78750000D03*
X103250000Y-78750000D03*
X99250000Y-80750000D03*
X101250000Y-80750000D03*
X103250000Y-80750000D03*
X101500000Y-54000000D03*
X127987340Y-89487340D03*
D18*
X130040000Y-103000000D02*
X130040000Y-104460000D01*
X130040000Y-104460000D02*
X129000000Y-105500000D01*
X129000000Y-105500000D02*
X120000000Y-105500000D01*
X110825000Y-86575000D02*
X110825000Y-87175000D01*
X109500000Y-85250000D02*
X110825000Y-86575000D01*
X108375000Y-85250000D02*
X109500000Y-85250000D01*
X53502500Y-63000000D02*
X51250000Y-63000000D01*
X108375000Y-84550000D02*
X108375000Y-85250000D01*
X107075000Y-83250000D02*
X108375000Y-84550000D01*
X96950000Y-83250000D02*
X107075000Y-83250000D01*
X95800000Y-82100000D02*
X96950000Y-83250000D01*
X95800000Y-80500000D02*
X95800000Y-82100000D01*
X53387500Y-63835000D02*
X53387500Y-63135000D01*
X61500000Y-65000000D02*
X54552500Y-65000000D01*
X63250000Y-66750000D02*
X61500000Y-65000000D01*
X54552500Y-65000000D02*
X53387500Y-63835000D01*
X63250000Y-67250000D02*
X63250000Y-66750000D01*
X88762500Y-85250000D02*
X87250000Y-83737500D01*
X87250000Y-81000000D02*
X87500000Y-80750000D01*
X87250000Y-83737500D02*
X87250000Y-81000000D01*
X91750000Y-80500000D02*
X91500000Y-80750000D01*
X93000000Y-80500000D02*
X91750000Y-80500000D01*
X66800000Y-66750000D02*
X66050000Y-67500000D01*
X67500000Y-66750000D02*
X66800000Y-66750000D01*
X71500000Y-64000000D02*
X71500000Y-66750000D01*
X70500000Y-63000000D02*
X71500000Y-64000000D01*
X68900000Y-63000000D02*
X70500000Y-63000000D01*
X67150000Y-63250000D02*
X65250000Y-63250000D01*
X90637500Y-85250000D02*
X93082500Y-85250000D01*
X57487500Y-63250000D02*
X55250000Y-63250000D01*
X106500000Y-85250000D02*
X104172500Y-85250000D01*
X59750000Y-63250000D02*
X59500000Y-63000000D01*
X63250000Y-63250000D02*
X59750000Y-63250000D01*
X102297500Y-85250000D02*
X98250000Y-85250000D01*
X96750000Y-85250000D02*
X94957500Y-85250000D01*
X97500000Y-85250000D02*
X96750000Y-85250000D01*
X98250000Y-85250000D02*
X97500000Y-85250000D01*
D19*
X77230000Y-87770000D02*
X77230000Y-91480000D01*
X77830000Y-92080000D02*
X81000000Y-92080000D01*
X77230000Y-91480000D02*
X77830000Y-92080000D01*
D20*
G36*
X102373000Y-54786322D02*
G01*
X102301185Y-54698815D01*
X102204494Y-54619463D01*
X102094180Y-54560498D01*
X101974482Y-54524188D01*
X101850000Y-54511928D01*
X100150000Y-54511928D01*
X100025518Y-54524188D01*
X99905820Y-54560498D01*
X99795506Y-54619463D01*
X99698815Y-54698815D01*
X99619463Y-54795506D01*
X99560498Y-54905820D01*
X99538487Y-54978380D01*
X99406632Y-54846525D01*
X99163411Y-54684010D01*
X98893158Y-54572068D01*
X98606260Y-54515000D01*
X98313740Y-54515000D01*
X98026842Y-54572068D01*
X97756589Y-54684010D01*
X97513368Y-54846525D01*
X97306525Y-55053368D01*
X97144010Y-55296589D01*
X97032068Y-55566842D01*
X96975000Y-55853740D01*
X96975000Y-56146260D01*
X97032068Y-56433158D01*
X97144010Y-56703411D01*
X97306525Y-56946632D01*
X97513368Y-57153475D01*
X97756589Y-57315990D01*
X97894224Y-57373000D01*
X94127000Y-57373000D01*
X94127000Y-50127000D01*
X102373000Y-50127000D01*
X102373000Y-54786322D01*
G37*
X102373000Y-54786322D02*
X102301185Y-54698815D01*
X102204494Y-54619463D01*
X102094180Y-54560498D01*
X101974482Y-54524188D01*
X101850000Y-54511928D01*
X100150000Y-54511928D01*
X100025518Y-54524188D01*
X99905820Y-54560498D01*
X99795506Y-54619463D01*
X99698815Y-54698815D01*
X99619463Y-54795506D01*
X99560498Y-54905820D01*
X99538487Y-54978380D01*
X99406632Y-54846525D01*
X99163411Y-54684010D01*
X98893158Y-54572068D01*
X98606260Y-54515000D01*
X98313740Y-54515000D01*
X98026842Y-54572068D01*
X97756589Y-54684010D01*
X97513368Y-54846525D01*
X97306525Y-55053368D01*
X97144010Y-55296589D01*
X97032068Y-55566842D01*
X96975000Y-55853740D01*
X96975000Y-56146260D01*
X97032068Y-56433158D01*
X97144010Y-56703411D01*
X97306525Y-56946632D01*
X97513368Y-57153475D01*
X97756589Y-57315990D01*
X97894224Y-57373000D01*
X94127000Y-57373000D01*
X94127000Y-50127000D01*
X102373000Y-50127000D01*
X102373000Y-54786322D01*
G36*
X77224188Y-85725518D02*
G01*
X77211928Y-85850000D01*
X77211928Y-86485000D01*
X77103439Y-86485000D01*
X76855179Y-86534381D01*
X76621324Y-86631247D01*
X76410860Y-86771875D01*
X76231875Y-86950860D01*
X76091247Y-87161324D01*
X75994381Y-87395179D01*
X75945000Y-87643439D01*
X75945000Y-87896561D01*
X75994381Y-88144821D01*
X76091247Y-88378676D01*
X76231875Y-88589140D01*
X76410860Y-88768125D01*
X76470000Y-88807641D01*
X76470001Y-91442668D01*
X76466324Y-91480000D01*
X76470001Y-91517333D01*
X76480998Y-91628986D01*
X76489109Y-91655724D01*
X76524454Y-91772246D01*
X76595026Y-91904276D01*
X76616969Y-91931013D01*
X76690000Y-92020001D01*
X76718998Y-92043799D01*
X77266200Y-92591002D01*
X77289999Y-92620001D01*
X77318997Y-92643799D01*
X77405723Y-92714974D01*
X77533759Y-92783411D01*
X77537753Y-92785546D01*
X77681014Y-92829003D01*
X77792667Y-92840000D01*
X77792676Y-92840000D01*
X77829999Y-92843676D01*
X77867322Y-92840000D01*
X79721822Y-92840000D01*
X79846525Y-93026632D01*
X80053368Y-93233475D01*
X80296589Y-93395990D01*
X80566842Y-93507932D01*
X80853740Y-93565000D01*
X81146260Y-93565000D01*
X81433158Y-93507932D01*
X81703411Y-93395990D01*
X81946632Y-93233475D01*
X82153475Y-93026632D01*
X82315990Y-92783411D01*
X82373000Y-92645776D01*
X82373000Y-95873000D01*
X75127000Y-95873000D01*
X75127000Y-85627000D01*
X77254073Y-85627000D01*
X77224188Y-85725518D01*
G37*
X77224188Y-85725518D02*
X77211928Y-85850000D01*
X77211928Y-86485000D01*
X77103439Y-86485000D01*
X76855179Y-86534381D01*
X76621324Y-86631247D01*
X76410860Y-86771875D01*
X76231875Y-86950860D01*
X76091247Y-87161324D01*
X75994381Y-87395179D01*
X75945000Y-87643439D01*
X75945000Y-87896561D01*
X75994381Y-88144821D01*
X76091247Y-88378676D01*
X76231875Y-88589140D01*
X76410860Y-88768125D01*
X76470000Y-88807641D01*
X76470001Y-91442668D01*
X76466324Y-91480000D01*
X76470001Y-91517333D01*
X76480998Y-91628986D01*
X76489109Y-91655724D01*
X76524454Y-91772246D01*
X76595026Y-91904276D01*
X76616969Y-91931013D01*
X76690000Y-92020001D01*
X76718998Y-92043799D01*
X77266200Y-92591002D01*
X77289999Y-92620001D01*
X77318997Y-92643799D01*
X77405723Y-92714974D01*
X77533759Y-92783411D01*
X77537753Y-92785546D01*
X77681014Y-92829003D01*
X77792667Y-92840000D01*
X77792676Y-92840000D01*
X77829999Y-92843676D01*
X77867322Y-92840000D01*
X79721822Y-92840000D01*
X79846525Y-93026632D01*
X80053368Y-93233475D01*
X80296589Y-93395990D01*
X80566842Y-93507932D01*
X80853740Y-93565000D01*
X81146260Y-93565000D01*
X81433158Y-93507932D01*
X81703411Y-93395990D01*
X81946632Y-93233475D01*
X82153475Y-93026632D01*
X82315990Y-92783411D01*
X82373000Y-92645776D01*
X82373000Y-95873000D01*
X75127000Y-95873000D01*
X75127000Y-85627000D01*
X77254073Y-85627000D01*
X77224188Y-85725518D01*
G36*
X128698815Y-88698815D02*
G01*
X128619463Y-88795506D01*
X128560498Y-88905820D01*
X128524188Y-89025518D01*
X128511928Y-89150000D01*
X128511928Y-90850000D01*
X128524188Y-90974482D01*
X128560498Y-91094180D01*
X128619463Y-91204494D01*
X128698815Y-91301185D01*
X128795506Y-91380537D01*
X128905820Y-91439502D01*
X128978380Y-91461513D01*
X128846525Y-91593368D01*
X128684010Y-91836589D01*
X128572068Y-92106842D01*
X128515000Y-92393740D01*
X128515000Y-92686260D01*
X128572068Y-92973158D01*
X128684010Y-93243411D01*
X128846525Y-93486632D01*
X129053368Y-93693475D01*
X129296589Y-93855990D01*
X129566842Y-93967932D01*
X129853740Y-94025000D01*
X130146260Y-94025000D01*
X130433158Y-93967932D01*
X130703411Y-93855990D01*
X130946632Y-93693475D01*
X131153475Y-93486632D01*
X131315990Y-93243411D01*
X131373000Y-93105776D01*
X131373000Y-96373000D01*
X124127000Y-96373000D01*
X124127000Y-88627000D01*
X128786322Y-88627000D01*
X128698815Y-88698815D01*
G37*
X128698815Y-88698815D02*
X128619463Y-88795506D01*
X128560498Y-88905820D01*
X128524188Y-89025518D01*
X128511928Y-89150000D01*
X128511928Y-90850000D01*
X128524188Y-90974482D01*
X128560498Y-91094180D01*
X128619463Y-91204494D01*
X128698815Y-91301185D01*
X128795506Y-91380537D01*
X128905820Y-91439502D01*
X128978380Y-91461513D01*
X128846525Y-91593368D01*
X128684010Y-91836589D01*
X128572068Y-92106842D01*
X128515000Y-92393740D01*
X128515000Y-92686260D01*
X128572068Y-92973158D01*
X128684010Y-93243411D01*
X128846525Y-93486632D01*
X129053368Y-93693475D01*
X129296589Y-93855990D01*
X129566842Y-93967932D01*
X129853740Y-94025000D01*
X130146260Y-94025000D01*
X130433158Y-93967932D01*
X130703411Y-93855990D01*
X130946632Y-93693475D01*
X131153475Y-93486632D01*
X131315990Y-93243411D01*
X131373000Y-93105776D01*
X131373000Y-96373000D01*
X124127000Y-96373000D01*
X124127000Y-88627000D01*
X128786322Y-88627000D01*
X128698815Y-88698815D01*
G36*
X92373000Y-81873000D02*
G01*
X66627000Y-81873000D01*
X66627000Y-73814344D01*
X78115000Y-73814344D01*
X78115000Y-74185656D01*
X78187439Y-74549834D01*
X78329534Y-74892882D01*
X78535825Y-75201618D01*
X78798382Y-75464175D01*
X79107118Y-75670466D01*
X79450166Y-75812561D01*
X79814344Y-75885000D01*
X80185656Y-75885000D01*
X80549834Y-75812561D01*
X80892882Y-75670466D01*
X81201618Y-75464175D01*
X81464175Y-75201618D01*
X81670466Y-74892882D01*
X81812561Y-74549834D01*
X81885000Y-74185656D01*
X81885000Y-73814344D01*
X81812561Y-73450166D01*
X81670466Y-73107118D01*
X81464175Y-72798382D01*
X81201618Y-72535825D01*
X80892882Y-72329534D01*
X80549834Y-72187439D01*
X80185656Y-72115000D01*
X79814344Y-72115000D01*
X79450166Y-72187439D01*
X79107118Y-72329534D01*
X78798382Y-72535825D01*
X78535825Y-72798382D01*
X78329534Y-73107118D01*
X78187439Y-73450166D01*
X78115000Y-73814344D01*
X66627000Y-73814344D01*
X66627000Y-66127000D01*
X92373000Y-66127000D01*
X92373000Y-81873000D01*
G37*
X92373000Y-81873000D02*
X66627000Y-81873000D01*
X66627000Y-73814344D01*
X78115000Y-73814344D01*
X78115000Y-74185656D01*
X78187439Y-74549834D01*
X78329534Y-74892882D01*
X78535825Y-75201618D01*
X78798382Y-75464175D01*
X79107118Y-75670466D01*
X79450166Y-75812561D01*
X79814344Y-75885000D01*
X80185656Y-75885000D01*
X80549834Y-75812561D01*
X80892882Y-75670466D01*
X81201618Y-75464175D01*
X81464175Y-75201618D01*
X81670466Y-74892882D01*
X81812561Y-74549834D01*
X81885000Y-74185656D01*
X81885000Y-73814344D01*
X81812561Y-73450166D01*
X81670466Y-73107118D01*
X81464175Y-72798382D01*
X81201618Y-72535825D01*
X80892882Y-72329534D01*
X80549834Y-72187439D01*
X80185656Y-72115000D01*
X79814344Y-72115000D01*
X79450166Y-72187439D01*
X79107118Y-72329534D01*
X78798382Y-72535825D01*
X78535825Y-72798382D01*
X78329534Y-73107118D01*
X78187439Y-73450166D01*
X78115000Y-73814344D01*
X66627000Y-73814344D01*
X66627000Y-66127000D01*
X92373000Y-66127000D01*
X92373000Y-81873000D01*
G36*
X54552500Y-66140491D02*
G01*
X54608252Y-66135000D01*
X59873000Y-66135000D01*
X59873000Y-70000000D01*
X59875440Y-70024776D01*
X59882667Y-70048601D01*
X59894403Y-70070557D01*
X59910197Y-70089803D01*
X59929443Y-70105597D01*
X59951399Y-70117333D01*
X59975224Y-70124560D01*
X60000000Y-70127000D01*
X64373000Y-70127000D01*
X64373000Y-81873000D01*
X53127000Y-81873000D01*
X53127000Y-66127000D01*
X54415522Y-66127000D01*
X54552500Y-66140491D01*
G37*
X54552500Y-66140491D02*
X54608252Y-66135000D01*
X59873000Y-66135000D01*
X59873000Y-70000000D01*
X59875440Y-70024776D01*
X59882667Y-70048601D01*
X59894403Y-70070557D01*
X59910197Y-70089803D01*
X59929443Y-70105597D01*
X59951399Y-70117333D01*
X59975224Y-70124560D01*
X60000000Y-70127000D01*
X64373000Y-70127000D01*
X64373000Y-81873000D01*
X53127000Y-81873000D01*
X53127000Y-66127000D01*
X54415522Y-66127000D01*
X54552500Y-66140491D01*
G36*
X104373000Y-81873000D02*
G01*
X98627000Y-81873000D01*
X98627000Y-77500000D01*
X98624560Y-77475224D01*
X98617333Y-77451399D01*
X98605597Y-77429443D01*
X98589803Y-77410197D01*
X98570557Y-77394403D01*
X98548601Y-77382667D01*
X98524776Y-77375440D01*
X98500000Y-77373000D01*
X94627000Y-77373000D01*
X94627000Y-66127000D01*
X104373000Y-66127000D01*
X104373000Y-81873000D01*
G37*
X104373000Y-81873000D02*
X98627000Y-81873000D01*
X98627000Y-77500000D01*
X98624560Y-77475224D01*
X98617333Y-77451399D01*
X98605597Y-77429443D01*
X98589803Y-77410197D01*
X98570557Y-77394403D01*
X98548601Y-77382667D01*
X98524776Y-77375440D01*
X98500000Y-77373000D01*
X94627000Y-77373000D01*
X94627000Y-66127000D01*
X104373000Y-66127000D01*
X104373000Y-81873000D01*
G36*
X83373000Y-53947394D02*
G01*
X82447378Y-54873016D01*
X57999961Y-54880575D01*
X57975185Y-54883023D01*
X57951363Y-54890257D01*
X57929410Y-54902000D01*
X57910540Y-54917432D01*
X56910540Y-55909857D01*
X56894672Y-55929042D01*
X56882853Y-55950953D01*
X56875535Y-55974750D01*
X56873000Y-56000000D01*
X56873000Y-59955452D01*
X55938961Y-61123000D01*
X52625000Y-61123000D01*
X52600224Y-61125440D01*
X52576399Y-61132667D01*
X52554443Y-61144403D01*
X52530602Y-61165041D01*
X51405602Y-62415041D01*
X51390841Y-62435090D01*
X51380275Y-62457633D01*
X51374310Y-62481804D01*
X51373000Y-62500000D01*
X51373000Y-81873000D01*
X42660000Y-81873000D01*
X42660000Y-57150000D01*
X52011928Y-57150000D01*
X52011928Y-58850000D01*
X52024188Y-58974482D01*
X52060498Y-59094180D01*
X52119463Y-59204494D01*
X52198815Y-59301185D01*
X52295506Y-59380537D01*
X52405820Y-59439502D01*
X52525518Y-59475812D01*
X52650000Y-59488072D01*
X54350000Y-59488072D01*
X54474482Y-59475812D01*
X54594180Y-59439502D01*
X54704494Y-59380537D01*
X54801185Y-59301185D01*
X54880537Y-59204494D01*
X54939502Y-59094180D01*
X54975812Y-58974482D01*
X54988072Y-58850000D01*
X54988072Y-57150000D01*
X54975812Y-57025518D01*
X54939502Y-56905820D01*
X54880537Y-56795506D01*
X54801185Y-56698815D01*
X54704494Y-56619463D01*
X54594180Y-56560498D01*
X54474482Y-56524188D01*
X54350000Y-56511928D01*
X52650000Y-56511928D01*
X52525518Y-56524188D01*
X52405820Y-56560498D01*
X52295506Y-56619463D01*
X52198815Y-56698815D01*
X52119463Y-56795506D01*
X52060498Y-56905820D01*
X52024188Y-57025518D01*
X52011928Y-57150000D01*
X42660000Y-57150000D01*
X42660000Y-46779872D01*
X44765000Y-46779872D01*
X44765000Y-47220128D01*
X44850890Y-47651925D01*
X45019369Y-48058669D01*
X45263962Y-48424729D01*
X45575271Y-48736038D01*
X45941331Y-48980631D01*
X46348075Y-49149110D01*
X46779872Y-49235000D01*
X47220128Y-49235000D01*
X47651925Y-49149110D01*
X48058669Y-48980631D01*
X48424729Y-48736038D01*
X48736038Y-48424729D01*
X48980631Y-48058669D01*
X49149110Y-47651925D01*
X49235000Y-47220128D01*
X49235000Y-46779872D01*
X49149110Y-46348075D01*
X48980631Y-45941331D01*
X48736038Y-45575271D01*
X48424729Y-45263962D01*
X48058669Y-45019369D01*
X47651925Y-44850890D01*
X47220128Y-44765000D01*
X46779872Y-44765000D01*
X46348075Y-44850890D01*
X45941331Y-45019369D01*
X45575271Y-45263962D01*
X45263962Y-45575271D01*
X45019369Y-45941331D01*
X44850890Y-46348075D01*
X44765000Y-46779872D01*
X42660000Y-46779872D01*
X42660000Y-42660000D01*
X83373000Y-42660000D01*
X83373000Y-53947394D01*
G37*
X83373000Y-53947394D02*
X82447378Y-54873016D01*
X57999961Y-54880575D01*
X57975185Y-54883023D01*
X57951363Y-54890257D01*
X57929410Y-54902000D01*
X57910540Y-54917432D01*
X56910540Y-55909857D01*
X56894672Y-55929042D01*
X56882853Y-55950953D01*
X56875535Y-55974750D01*
X56873000Y-56000000D01*
X56873000Y-59955452D01*
X55938961Y-61123000D01*
X52625000Y-61123000D01*
X52600224Y-61125440D01*
X52576399Y-61132667D01*
X52554443Y-61144403D01*
X52530602Y-61165041D01*
X51405602Y-62415041D01*
X51390841Y-62435090D01*
X51380275Y-62457633D01*
X51374310Y-62481804D01*
X51373000Y-62500000D01*
X51373000Y-81873000D01*
X42660000Y-81873000D01*
X42660000Y-57150000D01*
X52011928Y-57150000D01*
X52011928Y-58850000D01*
X52024188Y-58974482D01*
X52060498Y-59094180D01*
X52119463Y-59204494D01*
X52198815Y-59301185D01*
X52295506Y-59380537D01*
X52405820Y-59439502D01*
X52525518Y-59475812D01*
X52650000Y-59488072D01*
X54350000Y-59488072D01*
X54474482Y-59475812D01*
X54594180Y-59439502D01*
X54704494Y-59380537D01*
X54801185Y-59301185D01*
X54880537Y-59204494D01*
X54939502Y-59094180D01*
X54975812Y-58974482D01*
X54988072Y-58850000D01*
X54988072Y-57150000D01*
X54975812Y-57025518D01*
X54939502Y-56905820D01*
X54880537Y-56795506D01*
X54801185Y-56698815D01*
X54704494Y-56619463D01*
X54594180Y-56560498D01*
X54474482Y-56524188D01*
X54350000Y-56511928D01*
X52650000Y-56511928D01*
X52525518Y-56524188D01*
X52405820Y-56560498D01*
X52295506Y-56619463D01*
X52198815Y-56698815D01*
X52119463Y-56795506D01*
X52060498Y-56905820D01*
X52024188Y-57025518D01*
X52011928Y-57150000D01*
X42660000Y-57150000D01*
X42660000Y-46779872D01*
X44765000Y-46779872D01*
X44765000Y-47220128D01*
X44850890Y-47651925D01*
X45019369Y-48058669D01*
X45263962Y-48424729D01*
X45575271Y-48736038D01*
X45941331Y-48980631D01*
X46348075Y-49149110D01*
X46779872Y-49235000D01*
X47220128Y-49235000D01*
X47651925Y-49149110D01*
X48058669Y-48980631D01*
X48424729Y-48736038D01*
X48736038Y-48424729D01*
X48980631Y-48058669D01*
X49149110Y-47651925D01*
X49235000Y-47220128D01*
X49235000Y-46779872D01*
X49149110Y-46348075D01*
X48980631Y-45941331D01*
X48736038Y-45575271D01*
X48424729Y-45263962D01*
X48058669Y-45019369D01*
X47651925Y-44850890D01*
X47220128Y-44765000D01*
X46779872Y-44765000D01*
X46348075Y-44850890D01*
X45941331Y-45019369D01*
X45575271Y-45263962D01*
X45263962Y-45575271D01*
X45019369Y-45941331D01*
X44850890Y-46348075D01*
X44765000Y-46779872D01*
X42660000Y-46779872D01*
X42660000Y-42660000D01*
X83373000Y-42660000D01*
X83373000Y-53947394D01*
G36*
X112123000Y-64000000D02*
G01*
X112125440Y-64024776D01*
X112132667Y-64048601D01*
X112144403Y-64070557D01*
X112160197Y-64089803D01*
X112179443Y-64105597D01*
X112201399Y-64117333D01*
X112225224Y-64124560D01*
X112250000Y-64127000D01*
X131873000Y-64127000D01*
X131873000Y-81873000D01*
X122627000Y-81873000D01*
X122627000Y-76500000D01*
X122624560Y-76475224D01*
X122617333Y-76451399D01*
X122605597Y-76429443D01*
X122589803Y-76410197D01*
X122570557Y-76394403D01*
X122548601Y-76382667D01*
X122524776Y-76375440D01*
X122500000Y-76373000D01*
X109500000Y-76373000D01*
X109475224Y-76375440D01*
X109451399Y-76382667D01*
X109429443Y-76394403D01*
X109410197Y-76410197D01*
X109394403Y-76429443D01*
X109382667Y-76451399D01*
X109375440Y-76475224D01*
X109373000Y-76500000D01*
X109373000Y-78373000D01*
X106877000Y-78373000D01*
X106877000Y-62250000D01*
X106874560Y-62225224D01*
X106867333Y-62201399D01*
X106855597Y-62179443D01*
X106839803Y-62160197D01*
X105627000Y-60947394D01*
X105627000Y-48650000D01*
X106011928Y-48650000D01*
X106011928Y-50350000D01*
X106024188Y-50474482D01*
X106060498Y-50594180D01*
X106119463Y-50704494D01*
X106198815Y-50801185D01*
X106295506Y-50880537D01*
X106405820Y-50939502D01*
X106525518Y-50975812D01*
X106650000Y-50988072D01*
X108350000Y-50988072D01*
X108474482Y-50975812D01*
X108594180Y-50939502D01*
X108704494Y-50880537D01*
X108801185Y-50801185D01*
X108880537Y-50704494D01*
X108939502Y-50594180D01*
X108975812Y-50474482D01*
X108988072Y-50350000D01*
X108988072Y-48650000D01*
X108975812Y-48525518D01*
X108939502Y-48405820D01*
X108880537Y-48295506D01*
X108801185Y-48198815D01*
X108704494Y-48119463D01*
X108594180Y-48060498D01*
X108474482Y-48024188D01*
X108350000Y-48011928D01*
X106650000Y-48011928D01*
X106525518Y-48024188D01*
X106405820Y-48060498D01*
X106295506Y-48119463D01*
X106198815Y-48198815D01*
X106119463Y-48295506D01*
X106060498Y-48405820D01*
X106024188Y-48525518D01*
X106011928Y-48650000D01*
X105627000Y-48650000D01*
X105627000Y-47000000D01*
X105624560Y-46975224D01*
X105617333Y-46951399D01*
X105605597Y-46929443D01*
X105589803Y-46910197D01*
X105570557Y-46894403D01*
X105548601Y-46882667D01*
X105524776Y-46875440D01*
X105500000Y-46873000D01*
X82127000Y-46873000D01*
X82127000Y-42660000D01*
X112123000Y-42660000D01*
X112123000Y-64000000D01*
G37*
X112123000Y-64000000D02*
X112125440Y-64024776D01*
X112132667Y-64048601D01*
X112144403Y-64070557D01*
X112160197Y-64089803D01*
X112179443Y-64105597D01*
X112201399Y-64117333D01*
X112225224Y-64124560D01*
X112250000Y-64127000D01*
X131873000Y-64127000D01*
X131873000Y-81873000D01*
X122627000Y-81873000D01*
X122627000Y-76500000D01*
X122624560Y-76475224D01*
X122617333Y-76451399D01*
X122605597Y-76429443D01*
X122589803Y-76410197D01*
X122570557Y-76394403D01*
X122548601Y-76382667D01*
X122524776Y-76375440D01*
X122500000Y-76373000D01*
X109500000Y-76373000D01*
X109475224Y-76375440D01*
X109451399Y-76382667D01*
X109429443Y-76394403D01*
X109410197Y-76410197D01*
X109394403Y-76429443D01*
X109382667Y-76451399D01*
X109375440Y-76475224D01*
X109373000Y-76500000D01*
X109373000Y-78373000D01*
X106877000Y-78373000D01*
X106877000Y-62250000D01*
X106874560Y-62225224D01*
X106867333Y-62201399D01*
X106855597Y-62179443D01*
X106839803Y-62160197D01*
X105627000Y-60947394D01*
X105627000Y-48650000D01*
X106011928Y-48650000D01*
X106011928Y-50350000D01*
X106024188Y-50474482D01*
X106060498Y-50594180D01*
X106119463Y-50704494D01*
X106198815Y-50801185D01*
X106295506Y-50880537D01*
X106405820Y-50939502D01*
X106525518Y-50975812D01*
X106650000Y-50988072D01*
X108350000Y-50988072D01*
X108474482Y-50975812D01*
X108594180Y-50939502D01*
X108704494Y-50880537D01*
X108801185Y-50801185D01*
X108880537Y-50704494D01*
X108939502Y-50594180D01*
X108975812Y-50474482D01*
X108988072Y-50350000D01*
X108988072Y-48650000D01*
X108975812Y-48525518D01*
X108939502Y-48405820D01*
X108880537Y-48295506D01*
X108801185Y-48198815D01*
X108704494Y-48119463D01*
X108594180Y-48060498D01*
X108474482Y-48024188D01*
X108350000Y-48011928D01*
X106650000Y-48011928D01*
X106525518Y-48024188D01*
X106405820Y-48060498D01*
X106295506Y-48119463D01*
X106198815Y-48198815D01*
X106119463Y-48295506D01*
X106060498Y-48405820D01*
X106024188Y-48525518D01*
X106011928Y-48650000D01*
X105627000Y-48650000D01*
X105627000Y-47000000D01*
X105624560Y-46975224D01*
X105617333Y-46951399D01*
X105605597Y-46929443D01*
X105589803Y-46910197D01*
X105570557Y-46894403D01*
X105548601Y-46882667D01*
X105524776Y-46875440D01*
X105500000Y-46873000D01*
X82127000Y-46873000D01*
X82127000Y-42660000D01*
X112123000Y-42660000D01*
X112123000Y-64000000D01*
G36*
X120373000Y-99500000D02*
G01*
X120375440Y-99524776D01*
X120382667Y-99548601D01*
X120394403Y-99570557D01*
X120410197Y-99589803D01*
X122873000Y-102052606D01*
X122873000Y-118947394D01*
X122447394Y-119373000D01*
X118552606Y-119373000D01*
X118127000Y-118947394D01*
X118127000Y-105500000D01*
X118124560Y-105475224D01*
X118117333Y-105451399D01*
X118105597Y-105429443D01*
X118089803Y-105410197D01*
X116589803Y-103910197D01*
X116570557Y-103894403D01*
X116548601Y-103882667D01*
X116524776Y-103875440D01*
X116500000Y-103873000D01*
X97000000Y-103873000D01*
X96975224Y-103875440D01*
X96951399Y-103882667D01*
X96923800Y-103898400D01*
X94923800Y-105398400D01*
X94905443Y-105415218D01*
X94890720Y-105435294D01*
X94880196Y-105457857D01*
X94874276Y-105482039D01*
X94873000Y-105500000D01*
X94873000Y-133447394D01*
X93447394Y-134873000D01*
X66052606Y-134873000D01*
X65127000Y-133947394D01*
X65127000Y-125052606D01*
X66052606Y-124127000D01*
X71500000Y-124127000D01*
X71524776Y-124124560D01*
X71548601Y-124117333D01*
X71570557Y-124105597D01*
X71589803Y-124089803D01*
X72589803Y-123089803D01*
X72605597Y-123070557D01*
X72617333Y-123048601D01*
X72624560Y-123024776D01*
X72627000Y-123000000D01*
X72627000Y-106552606D01*
X73552606Y-105627000D01*
X76950902Y-105627000D01*
X79664571Y-108093972D01*
X79684545Y-108108833D01*
X79707035Y-108119512D01*
X79731176Y-108125597D01*
X79750000Y-108127000D01*
X84000000Y-108127000D01*
X84024776Y-108124560D01*
X84048601Y-108117333D01*
X84076200Y-108101600D01*
X86076200Y-106601600D01*
X86094557Y-106584782D01*
X86109280Y-106564706D01*
X86119804Y-106542143D01*
X86125724Y-106517961D01*
X86127000Y-106500000D01*
X86127000Y-95552606D01*
X87552606Y-94127000D01*
X112500000Y-94127000D01*
X112524776Y-94124560D01*
X112548601Y-94117333D01*
X112570557Y-94105597D01*
X112589803Y-94089803D01*
X114089803Y-92589803D01*
X114105597Y-92570557D01*
X114117333Y-92548601D01*
X114124560Y-92524776D01*
X114127000Y-92499706D01*
X114096045Y-79127000D01*
X120373000Y-79127000D01*
X120373000Y-99500000D01*
G37*
X120373000Y-99500000D02*
X120375440Y-99524776D01*
X120382667Y-99548601D01*
X120394403Y-99570557D01*
X120410197Y-99589803D01*
X122873000Y-102052606D01*
X122873000Y-118947394D01*
X122447394Y-119373000D01*
X118552606Y-119373000D01*
X118127000Y-118947394D01*
X118127000Y-105500000D01*
X118124560Y-105475224D01*
X118117333Y-105451399D01*
X118105597Y-105429443D01*
X118089803Y-105410197D01*
X116589803Y-103910197D01*
X116570557Y-103894403D01*
X116548601Y-103882667D01*
X116524776Y-103875440D01*
X116500000Y-103873000D01*
X97000000Y-103873000D01*
X96975224Y-103875440D01*
X96951399Y-103882667D01*
X96923800Y-103898400D01*
X94923800Y-105398400D01*
X94905443Y-105415218D01*
X94890720Y-105435294D01*
X94880196Y-105457857D01*
X94874276Y-105482039D01*
X94873000Y-105500000D01*
X94873000Y-133447394D01*
X93447394Y-134873000D01*
X66052606Y-134873000D01*
X65127000Y-133947394D01*
X65127000Y-125052606D01*
X66052606Y-124127000D01*
X71500000Y-124127000D01*
X71524776Y-124124560D01*
X71548601Y-124117333D01*
X71570557Y-124105597D01*
X71589803Y-124089803D01*
X72589803Y-123089803D01*
X72605597Y-123070557D01*
X72617333Y-123048601D01*
X72624560Y-123024776D01*
X72627000Y-123000000D01*
X72627000Y-106552606D01*
X73552606Y-105627000D01*
X76950902Y-105627000D01*
X79664571Y-108093972D01*
X79684545Y-108108833D01*
X79707035Y-108119512D01*
X79731176Y-108125597D01*
X79750000Y-108127000D01*
X84000000Y-108127000D01*
X84024776Y-108124560D01*
X84048601Y-108117333D01*
X84076200Y-108101600D01*
X86076200Y-106601600D01*
X86094557Y-106584782D01*
X86109280Y-106564706D01*
X86119804Y-106542143D01*
X86125724Y-106517961D01*
X86127000Y-106500000D01*
X86127000Y-95552606D01*
X87552606Y-94127000D01*
X112500000Y-94127000D01*
X112524776Y-94124560D01*
X112548601Y-94117333D01*
X112570557Y-94105597D01*
X112589803Y-94089803D01*
X114089803Y-92589803D01*
X114105597Y-92570557D01*
X114117333Y-92548601D01*
X114124560Y-92524776D01*
X114127000Y-92499706D01*
X114096045Y-79127000D01*
X120373000Y-79127000D01*
X120373000Y-99500000D01*
M02*
