G04 #@! TF.GenerationSoftware,KiCad,Pcbnew,5.1.6-c6e7f7d~86~ubuntu20.04.1*
G04 #@! TF.CreationDate,2020-09-04T11:15:15+02:00*
G04 #@! TF.ProjectId,Power,506f7765-722e-46b6-9963-61645f706362,rev?*
G04 #@! TF.SameCoordinates,Original*
G04 #@! TF.FileFunction,Legend,Top*
G04 #@! TF.FilePolarity,Positive*
%FSLAX46Y46*%
G04 Gerber Fmt 4.6, Leading zero omitted, Abs format (unit mm)*
G04 Created by KiCad (PCBNEW 5.1.6-c6e7f7d~86~ubuntu20.04.1) date 2020-09-04 11:15:15*
%MOMM*%
%LPD*%
G01*
G04 APERTURE LIST*
%ADD10C,0.150000*%
%ADD11C,0.300000*%
%ADD12C,0.120000*%
%ADD13C,0.010000*%
%ADD14C,0.152400*%
G04 APERTURE END LIST*
D10*
X78976190Y-131952380D02*
X79309523Y-132952380D01*
X79642857Y-131952380D01*
X80166666Y-131952380D02*
X80261904Y-131952380D01*
X80357142Y-132000000D01*
X80404761Y-132047619D01*
X80452380Y-132142857D01*
X80500000Y-132333333D01*
X80500000Y-132571428D01*
X80452380Y-132761904D01*
X80404761Y-132857142D01*
X80357142Y-132904761D01*
X80261904Y-132952380D01*
X80166666Y-132952380D01*
X80071428Y-132904761D01*
X80023809Y-132857142D01*
X79976190Y-132761904D01*
X79928571Y-132571428D01*
X79928571Y-132333333D01*
X79976190Y-132142857D01*
X80023809Y-132047619D01*
X80071428Y-132000000D01*
X80166666Y-131952380D01*
X80928571Y-132857142D02*
X80976190Y-132904761D01*
X80928571Y-132952380D01*
X80880952Y-132904761D01*
X80928571Y-132857142D01*
X80928571Y-132952380D01*
X81452380Y-132952380D02*
X81642857Y-132952380D01*
X81738095Y-132904761D01*
X81785714Y-132857142D01*
X81880952Y-132714285D01*
X81928571Y-132523809D01*
X81928571Y-132142857D01*
X81880952Y-132047619D01*
X81833333Y-132000000D01*
X81738095Y-131952380D01*
X81547619Y-131952380D01*
X81452380Y-132000000D01*
X81404761Y-132047619D01*
X81357142Y-132142857D01*
X81357142Y-132380952D01*
X81404761Y-132476190D01*
X81452380Y-132523809D01*
X81547619Y-132571428D01*
X81738095Y-132571428D01*
X81833333Y-132523809D01*
X81880952Y-132476190D01*
X81928571Y-132380952D01*
X79333333Y-134952380D02*
X79333333Y-133952380D01*
X79571428Y-133952380D01*
X79714285Y-134000000D01*
X79809523Y-134095238D01*
X79857142Y-134190476D01*
X79904761Y-134380952D01*
X79904761Y-134523809D01*
X79857142Y-134714285D01*
X79809523Y-134809523D01*
X79714285Y-134904761D01*
X79571428Y-134952380D01*
X79333333Y-134952380D01*
X80714285Y-134904761D02*
X80619047Y-134952380D01*
X80428571Y-134952380D01*
X80333333Y-134904761D01*
X80285714Y-134809523D01*
X80285714Y-134428571D01*
X80333333Y-134333333D01*
X80428571Y-134285714D01*
X80619047Y-134285714D01*
X80714285Y-134333333D01*
X80761904Y-134428571D01*
X80761904Y-134523809D01*
X80285714Y-134619047D01*
X81142857Y-134904761D02*
X81238095Y-134952380D01*
X81428571Y-134952380D01*
X81523809Y-134904761D01*
X81571428Y-134809523D01*
X81571428Y-134761904D01*
X81523809Y-134666666D01*
X81428571Y-134619047D01*
X81285714Y-134619047D01*
X81190476Y-134571428D01*
X81142857Y-134476190D01*
X81142857Y-134428571D01*
X81190476Y-134333333D01*
X81285714Y-134285714D01*
X81428571Y-134285714D01*
X81523809Y-134333333D01*
X82000000Y-134952380D02*
X82000000Y-134285714D01*
X82000000Y-133952380D02*
X81952380Y-134000000D01*
X82000000Y-134047619D01*
X82047619Y-134000000D01*
X82000000Y-133952380D01*
X82000000Y-134047619D01*
X82904761Y-134285714D02*
X82904761Y-135095238D01*
X82857142Y-135190476D01*
X82809523Y-135238095D01*
X82714285Y-135285714D01*
X82571428Y-135285714D01*
X82476190Y-135238095D01*
X82904761Y-134904761D02*
X82809523Y-134952380D01*
X82619047Y-134952380D01*
X82523809Y-134904761D01*
X82476190Y-134857142D01*
X82428571Y-134761904D01*
X82428571Y-134476190D01*
X82476190Y-134380952D01*
X82523809Y-134333333D01*
X82619047Y-134285714D01*
X82809523Y-134285714D01*
X82904761Y-134333333D01*
X83380952Y-134285714D02*
X83380952Y-134952380D01*
X83380952Y-134380952D02*
X83428571Y-134333333D01*
X83523809Y-134285714D01*
X83666666Y-134285714D01*
X83761904Y-134333333D01*
X83809523Y-134428571D01*
X83809523Y-134952380D01*
X85333333Y-133952380D02*
X85333333Y-134666666D01*
X85285714Y-134809523D01*
X85190476Y-134904761D01*
X85047619Y-134952380D01*
X84952380Y-134952380D01*
X85809523Y-134857142D02*
X85857142Y-134904761D01*
X85809523Y-134952380D01*
X85761904Y-134904761D01*
X85809523Y-134857142D01*
X85809523Y-134952380D01*
X86238095Y-134666666D02*
X86714285Y-134666666D01*
X86142857Y-134952380D02*
X86476190Y-133952380D01*
X86809523Y-134952380D01*
X87285714Y-134952380D02*
X87190476Y-134904761D01*
X87142857Y-134809523D01*
X87142857Y-133952380D01*
X87666666Y-134952380D02*
X87666666Y-134285714D01*
X87666666Y-133952380D02*
X87619047Y-134000000D01*
X87666666Y-134047619D01*
X87714285Y-134000000D01*
X87666666Y-133952380D01*
X87666666Y-134047619D01*
X88142857Y-134285714D02*
X88142857Y-134952380D01*
X88142857Y-134380952D02*
X88190476Y-134333333D01*
X88285714Y-134285714D01*
X88428571Y-134285714D01*
X88523809Y-134333333D01*
X88571428Y-134428571D01*
X88571428Y-134952380D01*
X89428571Y-134904761D02*
X89333333Y-134952380D01*
X89142857Y-134952380D01*
X89047619Y-134904761D01*
X89000000Y-134809523D01*
X89000000Y-134428571D01*
X89047619Y-134333333D01*
X89142857Y-134285714D01*
X89333333Y-134285714D01*
X89428571Y-134333333D01*
X89476190Y-134428571D01*
X89476190Y-134523809D01*
X89000000Y-134619047D01*
X89904761Y-134952380D02*
X89904761Y-134285714D01*
X89904761Y-133952380D02*
X89857142Y-134000000D01*
X89904761Y-134047619D01*
X89952380Y-134000000D01*
X89904761Y-133952380D01*
X89904761Y-134047619D01*
X79142857Y-136952380D02*
X79142857Y-135952380D01*
X79523809Y-135952380D01*
X79619047Y-136000000D01*
X79666666Y-136047619D01*
X79714285Y-136142857D01*
X79714285Y-136285714D01*
X79666666Y-136380952D01*
X79619047Y-136428571D01*
X79523809Y-136476190D01*
X79142857Y-136476190D01*
X80142857Y-136952380D02*
X80142857Y-136285714D01*
X80142857Y-136476190D02*
X80190476Y-136380952D01*
X80238095Y-136333333D01*
X80333333Y-136285714D01*
X80428571Y-136285714D01*
X80904761Y-136952380D02*
X80809523Y-136904761D01*
X80761904Y-136857142D01*
X80714285Y-136761904D01*
X80714285Y-136476190D01*
X80761904Y-136380952D01*
X80809523Y-136333333D01*
X80904761Y-136285714D01*
X81047619Y-136285714D01*
X81142857Y-136333333D01*
X81190476Y-136380952D01*
X81238095Y-136476190D01*
X81238095Y-136761904D01*
X81190476Y-136857142D01*
X81142857Y-136904761D01*
X81047619Y-136952380D01*
X80904761Y-136952380D01*
X81666666Y-136285714D02*
X81666666Y-137285714D01*
X81666666Y-136333333D02*
X81761904Y-136285714D01*
X81952380Y-136285714D01*
X82047619Y-136333333D01*
X82095238Y-136380952D01*
X82142857Y-136476190D01*
X82142857Y-136761904D01*
X82095238Y-136857142D01*
X82047619Y-136904761D01*
X81952380Y-136952380D01*
X81761904Y-136952380D01*
X81666666Y-136904761D01*
X82999999Y-136285714D02*
X82999999Y-136952380D01*
X82571428Y-136285714D02*
X82571428Y-136809523D01*
X82619047Y-136904761D01*
X82714285Y-136952380D01*
X82857142Y-136952380D01*
X82952380Y-136904761D01*
X82999999Y-136857142D01*
X83619047Y-136952380D02*
X83523809Y-136904761D01*
X83476190Y-136809523D01*
X83476190Y-135952380D01*
X83952380Y-136904761D02*
X84047619Y-136952380D01*
X84238095Y-136952380D01*
X84333333Y-136904761D01*
X84380952Y-136809523D01*
X84380952Y-136761904D01*
X84333333Y-136666666D01*
X84238095Y-136619047D01*
X84095238Y-136619047D01*
X83999999Y-136571428D01*
X83952380Y-136476190D01*
X83952380Y-136428571D01*
X83999999Y-136333333D01*
X84095238Y-136285714D01*
X84238095Y-136285714D01*
X84333333Y-136333333D01*
X85190476Y-136904761D02*
X85095238Y-136952380D01*
X84904761Y-136952380D01*
X84809523Y-136904761D01*
X84761904Y-136809523D01*
X84761904Y-136428571D01*
X84809523Y-136333333D01*
X84904761Y-136285714D01*
X85095238Y-136285714D01*
X85190476Y-136333333D01*
X85238095Y-136428571D01*
X85238095Y-136523809D01*
X84761904Y-136619047D01*
X86095238Y-136952380D02*
X86095238Y-135952380D01*
X86095238Y-136904761D02*
X85999999Y-136952380D01*
X85809523Y-136952380D01*
X85714285Y-136904761D01*
X85666666Y-136857142D01*
X85619047Y-136761904D01*
X85619047Y-136476190D01*
X85666666Y-136380952D01*
X85714285Y-136333333D01*
X85809523Y-136285714D01*
X85999999Y-136285714D01*
X86095238Y-136333333D01*
X87333333Y-136952380D02*
X87333333Y-135952380D01*
X87333333Y-136333333D02*
X87428571Y-136285714D01*
X87619047Y-136285714D01*
X87714285Y-136333333D01*
X87761904Y-136380952D01*
X87809523Y-136476190D01*
X87809523Y-136761904D01*
X87761904Y-136857142D01*
X87714285Y-136904761D01*
X87619047Y-136952380D01*
X87428571Y-136952380D01*
X87333333Y-136904761D01*
X88142857Y-136285714D02*
X88380952Y-136952380D01*
X88619047Y-136285714D02*
X88380952Y-136952380D01*
X88285714Y-137190476D01*
X88238095Y-137238095D01*
X88142857Y-137285714D01*
X89952380Y-135952380D02*
X90142857Y-135952380D01*
X90238095Y-136000000D01*
X90333333Y-136095238D01*
X90380952Y-136285714D01*
X90380952Y-136619047D01*
X90333333Y-136809523D01*
X90238095Y-136904761D01*
X90142857Y-136952380D01*
X89952380Y-136952380D01*
X89857142Y-136904761D01*
X89761904Y-136809523D01*
X89714285Y-136619047D01*
X89714285Y-136285714D01*
X89761904Y-136095238D01*
X89857142Y-136000000D01*
X89952380Y-135952380D01*
X90714285Y-136285714D02*
X90904761Y-136952380D01*
X91095238Y-136476190D01*
X91285714Y-136952380D01*
X91476190Y-136285714D01*
X91857142Y-136285714D02*
X91857142Y-136952380D01*
X91857142Y-136380952D02*
X91904761Y-136333333D01*
X91999999Y-136285714D01*
X92142857Y-136285714D01*
X92238095Y-136333333D01*
X92285714Y-136428571D01*
X92285714Y-136952380D01*
X92619047Y-135952380D02*
X93190476Y-135952380D01*
X92904761Y-136952380D02*
X92904761Y-135952380D01*
X93904761Y-136904761D02*
X93809523Y-136952380D01*
X93619047Y-136952380D01*
X93523809Y-136904761D01*
X93476190Y-136809523D01*
X93476190Y-136428571D01*
X93523809Y-136333333D01*
X93619047Y-136285714D01*
X93809523Y-136285714D01*
X93904761Y-136333333D01*
X93952380Y-136428571D01*
X93952380Y-136523809D01*
X93476190Y-136619047D01*
X94809523Y-136904761D02*
X94714285Y-136952380D01*
X94523809Y-136952380D01*
X94428571Y-136904761D01*
X94380952Y-136857142D01*
X94333333Y-136761904D01*
X94333333Y-136476190D01*
X94380952Y-136380952D01*
X94428571Y-136333333D01*
X94523809Y-136285714D01*
X94714285Y-136285714D01*
X94809523Y-136333333D01*
X95238095Y-136952380D02*
X95238095Y-135952380D01*
X95666666Y-136952380D02*
X95666666Y-136428571D01*
X95619047Y-136333333D01*
X95523809Y-136285714D01*
X95380952Y-136285714D01*
X95285714Y-136333333D01*
X95238095Y-136380952D01*
X96761904Y-136285714D02*
X97142857Y-136285714D01*
X96904761Y-135952380D02*
X96904761Y-136809523D01*
X96952380Y-136904761D01*
X97047619Y-136952380D01*
X97142857Y-136952380D01*
X97857142Y-136904761D02*
X97761904Y-136952380D01*
X97571428Y-136952380D01*
X97476190Y-136904761D01*
X97428571Y-136809523D01*
X97428571Y-136428571D01*
X97476190Y-136333333D01*
X97571428Y-136285714D01*
X97761904Y-136285714D01*
X97857142Y-136333333D01*
X97904761Y-136428571D01*
X97904761Y-136523809D01*
X97428571Y-136619047D01*
X98761904Y-136952380D02*
X98761904Y-136428571D01*
X98714285Y-136333333D01*
X98619047Y-136285714D01*
X98428571Y-136285714D01*
X98333333Y-136333333D01*
X98761904Y-136904761D02*
X98666666Y-136952380D01*
X98428571Y-136952380D01*
X98333333Y-136904761D01*
X98285714Y-136809523D01*
X98285714Y-136714285D01*
X98333333Y-136619047D01*
X98428571Y-136571428D01*
X98666666Y-136571428D01*
X98761904Y-136523809D01*
X99238095Y-136952380D02*
X99238095Y-136285714D01*
X99238095Y-136380952D02*
X99285714Y-136333333D01*
X99380952Y-136285714D01*
X99523809Y-136285714D01*
X99619047Y-136333333D01*
X99666666Y-136428571D01*
X99666666Y-136952380D01*
X99666666Y-136428571D02*
X99714285Y-136333333D01*
X99809523Y-136285714D01*
X99952380Y-136285714D01*
X100047619Y-136333333D01*
X100095238Y-136428571D01*
X100095238Y-136952380D01*
D11*
X79071428Y-138178571D02*
X79071428Y-139392857D01*
X79142857Y-139535714D01*
X79214285Y-139607142D01*
X79357142Y-139678571D01*
X79642857Y-139678571D01*
X79785714Y-139607142D01*
X79857142Y-139535714D01*
X79928571Y-139392857D01*
X79928571Y-138178571D01*
X80642857Y-138678571D02*
X80642857Y-139678571D01*
X80642857Y-138821428D02*
X80714285Y-138750000D01*
X80857142Y-138678571D01*
X81071428Y-138678571D01*
X81214285Y-138750000D01*
X81285714Y-138892857D01*
X81285714Y-139678571D01*
X82642857Y-139678571D02*
X82642857Y-138178571D01*
X82642857Y-139607142D02*
X82500000Y-139678571D01*
X82214285Y-139678571D01*
X82071428Y-139607142D01*
X82000000Y-139535714D01*
X81928571Y-139392857D01*
X81928571Y-138964285D01*
X82000000Y-138821428D01*
X82071428Y-138750000D01*
X82214285Y-138678571D01*
X82500000Y-138678571D01*
X82642857Y-138750000D01*
X83928571Y-139607142D02*
X83785714Y-139678571D01*
X83500000Y-139678571D01*
X83357142Y-139607142D01*
X83285714Y-139464285D01*
X83285714Y-138892857D01*
X83357142Y-138750000D01*
X83500000Y-138678571D01*
X83785714Y-138678571D01*
X83928571Y-138750000D01*
X84000000Y-138892857D01*
X84000000Y-139035714D01*
X83285714Y-139178571D01*
X84642857Y-139678571D02*
X84642857Y-138678571D01*
X84642857Y-138964285D02*
X84714285Y-138821428D01*
X84785714Y-138750000D01*
X84928571Y-138678571D01*
X85071428Y-138678571D01*
X87571428Y-139535714D02*
X87500000Y-139607142D01*
X87285714Y-139678571D01*
X87142857Y-139678571D01*
X86928571Y-139607142D01*
X86785714Y-139464285D01*
X86714285Y-139321428D01*
X86642857Y-139035714D01*
X86642857Y-138821428D01*
X86714285Y-138535714D01*
X86785714Y-138392857D01*
X86928571Y-138250000D01*
X87142857Y-138178571D01*
X87285714Y-138178571D01*
X87500000Y-138250000D01*
X87571428Y-138321428D01*
X88214285Y-138892857D02*
X88714285Y-138892857D01*
X88928571Y-139678571D02*
X88214285Y-139678571D01*
X88214285Y-138178571D01*
X88928571Y-138178571D01*
X90428571Y-139678571D02*
X89928571Y-138964285D01*
X89571428Y-139678571D02*
X89571428Y-138178571D01*
X90142857Y-138178571D01*
X90285714Y-138250000D01*
X90357142Y-138321428D01*
X90428571Y-138464285D01*
X90428571Y-138678571D01*
X90357142Y-138821428D01*
X90285714Y-138892857D01*
X90142857Y-138964285D01*
X89571428Y-138964285D01*
X91071428Y-139678571D02*
X91071428Y-138178571D01*
X91928571Y-139678571D01*
X91928571Y-138178571D01*
X92642857Y-139107142D02*
X93785714Y-139107142D01*
X94785714Y-138178571D02*
X95071428Y-138178571D01*
X95214285Y-138250000D01*
X95357142Y-138392857D01*
X95428571Y-138678571D01*
X95428571Y-139178571D01*
X95357142Y-139464285D01*
X95214285Y-139607142D01*
X95071428Y-139678571D01*
X94785714Y-139678571D01*
X94642857Y-139607142D01*
X94500000Y-139464285D01*
X94428571Y-139178571D01*
X94428571Y-138678571D01*
X94500000Y-138392857D01*
X94642857Y-138250000D01*
X94785714Y-138178571D01*
X96071428Y-139678571D02*
X96071428Y-138178571D01*
X96071428Y-138892857D02*
X96928571Y-138892857D01*
X96928571Y-139678571D02*
X96928571Y-138178571D01*
X98357142Y-139678571D02*
X97642857Y-139678571D01*
X97642857Y-138178571D01*
X98857142Y-139107142D02*
X100000000Y-139107142D01*
X100642857Y-139607142D02*
X100857142Y-139678571D01*
X101214285Y-139678571D01*
X101357142Y-139607142D01*
X101428571Y-139535714D01*
X101500000Y-139392857D01*
X101500000Y-139250000D01*
X101428571Y-139107142D01*
X101357142Y-139035714D01*
X101214285Y-138964285D01*
X100928571Y-138892857D01*
X100785714Y-138821428D01*
X100714285Y-138750000D01*
X100642857Y-138607142D01*
X100642857Y-138464285D01*
X100714285Y-138321428D01*
X100785714Y-138250000D01*
X100928571Y-138178571D01*
X101285714Y-138178571D01*
X101500000Y-138250000D01*
X104000000Y-139678571D02*
X103285714Y-139678571D01*
X103285714Y-138178571D01*
X104500000Y-139678571D02*
X104500000Y-138678571D01*
X104500000Y-138178571D02*
X104428571Y-138250000D01*
X104500000Y-138321428D01*
X104571428Y-138250000D01*
X104500000Y-138178571D01*
X104500000Y-138321428D01*
X105857142Y-139607142D02*
X105714285Y-139678571D01*
X105428571Y-139678571D01*
X105285714Y-139607142D01*
X105214285Y-139535714D01*
X105142857Y-139392857D01*
X105142857Y-138964285D01*
X105214285Y-138821428D01*
X105285714Y-138750000D01*
X105428571Y-138678571D01*
X105714285Y-138678571D01*
X105857142Y-138750000D01*
X107071428Y-139607142D02*
X106928571Y-139678571D01*
X106642857Y-139678571D01*
X106500000Y-139607142D01*
X106428571Y-139464285D01*
X106428571Y-138892857D01*
X106500000Y-138750000D01*
X106642857Y-138678571D01*
X106928571Y-138678571D01*
X107071428Y-138750000D01*
X107142857Y-138892857D01*
X107142857Y-139035714D01*
X106428571Y-139178571D01*
X107785714Y-138678571D02*
X107785714Y-139678571D01*
X107785714Y-138821428D02*
X107857142Y-138750000D01*
X108000000Y-138678571D01*
X108214285Y-138678571D01*
X108357142Y-138750000D01*
X108428571Y-138892857D01*
X108428571Y-139678571D01*
X109071428Y-139607142D02*
X109214285Y-139678571D01*
X109500000Y-139678571D01*
X109642857Y-139607142D01*
X109714285Y-139464285D01*
X109714285Y-139392857D01*
X109642857Y-139250000D01*
X109500000Y-139178571D01*
X109285714Y-139178571D01*
X109142857Y-139107142D01*
X109071428Y-138964285D01*
X109071428Y-138892857D01*
X109142857Y-138750000D01*
X109285714Y-138678571D01*
X109500000Y-138678571D01*
X109642857Y-138750000D01*
X110928571Y-139607142D02*
X110785714Y-139678571D01*
X110500000Y-139678571D01*
X110357142Y-139607142D01*
X110285714Y-139464285D01*
X110285714Y-138892857D01*
X110357142Y-138750000D01*
X110500000Y-138678571D01*
X110785714Y-138678571D01*
X110928571Y-138750000D01*
X111000000Y-138892857D01*
X111000000Y-139035714D01*
X110285714Y-139178571D01*
D12*
X75000000Y-96000000D02*
X82500000Y-96000000D01*
X82500000Y-96000000D02*
X82500000Y-85500000D01*
X72000000Y-82500000D02*
X72000000Y-99000000D01*
X82500000Y-85500000D02*
X75000000Y-85500000D01*
X75000000Y-85500000D02*
X75000000Y-96000000D01*
X85500000Y-99000000D02*
X85500000Y-82500000D01*
X72000000Y-82500000D02*
X85500000Y-82500000D01*
X72000000Y-99000000D02*
X85500000Y-99000000D01*
X124000000Y-96500000D02*
X131500000Y-96500000D01*
X131500000Y-96500000D02*
X131500000Y-88500000D01*
X121000000Y-85500000D02*
X121000000Y-99500000D01*
X131500000Y-88500000D02*
X124000000Y-88500000D01*
X124000000Y-88500000D02*
X124000000Y-96500000D01*
X132000000Y-99500000D02*
X132000000Y-85500000D01*
X121000000Y-85500000D02*
X132000000Y-85500000D01*
X121000000Y-99500000D02*
X132000000Y-99500000D01*
X91000000Y-60500000D02*
X105500000Y-60500000D01*
X105500000Y-47000000D02*
X105500000Y-60500000D01*
X102500000Y-57500000D02*
X102500000Y-50000000D01*
X94000000Y-57500000D02*
X102500000Y-57500000D01*
X94000000Y-50000000D02*
X94000000Y-57500000D01*
X102500000Y-50000000D02*
X94000000Y-50000000D01*
X91000000Y-47000000D02*
X91000000Y-60500000D01*
X105500000Y-47000000D02*
X91000000Y-47000000D01*
D13*
G36*
X86209014Y-116952998D02*
G01*
X86367006Y-116953863D01*
X86481347Y-116956205D01*
X86559407Y-116960762D01*
X86608554Y-116968270D01*
X86636159Y-116979466D01*
X86649592Y-116995088D01*
X86656221Y-117015873D01*
X86656865Y-117018563D01*
X86666935Y-117067113D01*
X86685575Y-117162905D01*
X86710845Y-117295743D01*
X86740807Y-117455431D01*
X86773522Y-117631774D01*
X86774664Y-117637967D01*
X86807433Y-117810782D01*
X86838093Y-117963469D01*
X86864664Y-118086871D01*
X86885167Y-118171831D01*
X86897626Y-118209190D01*
X86898220Y-118209852D01*
X86934919Y-118228095D01*
X87010586Y-118258497D01*
X87108878Y-118294493D01*
X87109425Y-118294685D01*
X87233233Y-118341222D01*
X87379196Y-118400504D01*
X87516781Y-118460109D01*
X87523293Y-118463056D01*
X87747390Y-118564765D01*
X88243619Y-118225897D01*
X88395846Y-118122592D01*
X88533741Y-118030237D01*
X88649315Y-117954084D01*
X88734579Y-117899385D01*
X88781544Y-117871393D01*
X88786004Y-117869317D01*
X88820134Y-117878560D01*
X88883881Y-117923156D01*
X88979731Y-118005209D01*
X89110169Y-118126821D01*
X89243328Y-118256205D01*
X89371694Y-118383702D01*
X89486581Y-118500046D01*
X89581073Y-118598052D01*
X89648253Y-118670536D01*
X89681206Y-118710313D01*
X89682432Y-118712361D01*
X89686074Y-118739656D01*
X89672350Y-118784234D01*
X89637869Y-118852112D01*
X89579239Y-118949311D01*
X89493070Y-119081851D01*
X89378200Y-119252476D01*
X89276254Y-119402655D01*
X89185123Y-119537350D01*
X89110073Y-119648740D01*
X89056369Y-119729005D01*
X89029280Y-119770325D01*
X89027574Y-119773130D01*
X89030882Y-119812721D01*
X89055953Y-119889669D01*
X89097798Y-119989432D01*
X89112712Y-120021291D01*
X89177786Y-120163226D01*
X89247212Y-120324273D01*
X89303609Y-120463621D01*
X89344247Y-120567044D01*
X89376526Y-120645642D01*
X89395178Y-120686720D01*
X89397497Y-120689885D01*
X89431803Y-120695128D01*
X89512669Y-120709494D01*
X89629343Y-120730937D01*
X89771075Y-120757413D01*
X89927110Y-120786877D01*
X90086698Y-120817283D01*
X90239085Y-120846588D01*
X90373521Y-120872745D01*
X90479252Y-120893710D01*
X90545526Y-120907439D01*
X90561782Y-120911320D01*
X90578573Y-120920900D01*
X90591249Y-120942536D01*
X90600378Y-120983531D01*
X90606531Y-121051189D01*
X90610280Y-121152812D01*
X90612192Y-121295703D01*
X90612840Y-121487165D01*
X90612874Y-121565645D01*
X90612874Y-122203906D01*
X90459598Y-122234160D01*
X90374322Y-122250564D01*
X90247070Y-122274509D01*
X90093315Y-122303107D01*
X89928534Y-122333467D01*
X89882989Y-122341806D01*
X89730932Y-122371370D01*
X89598468Y-122400442D01*
X89496714Y-122426329D01*
X89436788Y-122446337D01*
X89426805Y-122452301D01*
X89402293Y-122494534D01*
X89367148Y-122576370D01*
X89328173Y-122681683D01*
X89320442Y-122704368D01*
X89269360Y-122845018D01*
X89205954Y-123003714D01*
X89143904Y-123146225D01*
X89143598Y-123146886D01*
X89040267Y-123370440D01*
X89719961Y-124370232D01*
X89283621Y-124807300D01*
X89151649Y-124937381D01*
X89031279Y-125052048D01*
X88929273Y-125145181D01*
X88852391Y-125210658D01*
X88807393Y-125242357D01*
X88800938Y-125244368D01*
X88763040Y-125228529D01*
X88685708Y-125184496D01*
X88577389Y-125117490D01*
X88446532Y-125032734D01*
X88305052Y-124937816D01*
X88161461Y-124840998D01*
X88033435Y-124756751D01*
X87929105Y-124690258D01*
X87856600Y-124646702D01*
X87824158Y-124631264D01*
X87784576Y-124644328D01*
X87709519Y-124678750D01*
X87614468Y-124727380D01*
X87604392Y-124732785D01*
X87476391Y-124796980D01*
X87388618Y-124828463D01*
X87334028Y-124828798D01*
X87305575Y-124799548D01*
X87305410Y-124799138D01*
X87291188Y-124764498D01*
X87257269Y-124682269D01*
X87206284Y-124558814D01*
X87140862Y-124400498D01*
X87063634Y-124213686D01*
X86977229Y-124004742D01*
X86893551Y-123802446D01*
X86801588Y-123579200D01*
X86717150Y-123372392D01*
X86642769Y-123188362D01*
X86580974Y-123033451D01*
X86534297Y-122913996D01*
X86505268Y-122836339D01*
X86496322Y-122807356D01*
X86518756Y-122774110D01*
X86577439Y-122721123D01*
X86655689Y-122662704D01*
X86878534Y-122477952D01*
X87052718Y-122266182D01*
X87176154Y-122031856D01*
X87246754Y-121779434D01*
X87262431Y-121513377D01*
X87251036Y-121390575D01*
X87188950Y-121135793D01*
X87082023Y-120910801D01*
X86936889Y-120717817D01*
X86760178Y-120559061D01*
X86558522Y-120436750D01*
X86338554Y-120353105D01*
X86106906Y-120310344D01*
X85870209Y-120310687D01*
X85635095Y-120356352D01*
X85408196Y-120449559D01*
X85196144Y-120592527D01*
X85107636Y-120673383D01*
X84937889Y-120881007D01*
X84819699Y-121107895D01*
X84752278Y-121347433D01*
X84734840Y-121593007D01*
X84766598Y-121838003D01*
X84846765Y-122075808D01*
X84974555Y-122299807D01*
X85149180Y-122503387D01*
X85344312Y-122662704D01*
X85425591Y-122723602D01*
X85483009Y-122776015D01*
X85503678Y-122807406D01*
X85492856Y-122841639D01*
X85462077Y-122923419D01*
X85413874Y-123046407D01*
X85350778Y-123204263D01*
X85275322Y-123390649D01*
X85190038Y-123599226D01*
X85106219Y-123802496D01*
X85013745Y-124025933D01*
X84928089Y-124232984D01*
X84851882Y-124417286D01*
X84787753Y-124572475D01*
X84738332Y-124692188D01*
X84706248Y-124770061D01*
X84694359Y-124799138D01*
X84666274Y-124828677D01*
X84611949Y-124828591D01*
X84524395Y-124797326D01*
X84396619Y-124733329D01*
X84395608Y-124732785D01*
X84299402Y-124683121D01*
X84221631Y-124646945D01*
X84177777Y-124631408D01*
X84175842Y-124631264D01*
X84142829Y-124647024D01*
X84069946Y-124690850D01*
X83965322Y-124757557D01*
X83837090Y-124841964D01*
X83694948Y-124937816D01*
X83550233Y-125034867D01*
X83419804Y-125119270D01*
X83312110Y-125185801D01*
X83235598Y-125229238D01*
X83199062Y-125244368D01*
X83165418Y-125224482D01*
X83097776Y-125168903D01*
X83002893Y-125083754D01*
X82887530Y-124975153D01*
X82758445Y-124849221D01*
X82716229Y-124807149D01*
X82279739Y-124369931D01*
X82611977Y-123882340D01*
X82712946Y-123732605D01*
X82801562Y-123598220D01*
X82872854Y-123486969D01*
X82921850Y-123406639D01*
X82943578Y-123365014D01*
X82944215Y-123362053D01*
X82932760Y-123322818D01*
X82901949Y-123243895D01*
X82857116Y-123138509D01*
X82825647Y-123067954D01*
X82766808Y-122932876D01*
X82711396Y-122796409D01*
X82668436Y-122681103D01*
X82656766Y-122645977D01*
X82623611Y-122552174D01*
X82591201Y-122479694D01*
X82573399Y-122452301D01*
X82534114Y-122435536D01*
X82448374Y-122411770D01*
X82327303Y-122383697D01*
X82182027Y-122354009D01*
X82117012Y-122341806D01*
X81951913Y-122311468D01*
X81793552Y-122282093D01*
X81657404Y-122256569D01*
X81558943Y-122237785D01*
X81540402Y-122234160D01*
X81387127Y-122203906D01*
X81387127Y-121565645D01*
X81387471Y-121355770D01*
X81388884Y-121196980D01*
X81391936Y-121081973D01*
X81397197Y-121003446D01*
X81405237Y-120954096D01*
X81416627Y-120926619D01*
X81431937Y-120913713D01*
X81438218Y-120911320D01*
X81476104Y-120902833D01*
X81559805Y-120885900D01*
X81678567Y-120862566D01*
X81821639Y-120834875D01*
X81978268Y-120804873D01*
X82137703Y-120774604D01*
X82289191Y-120746115D01*
X82421981Y-120721449D01*
X82525319Y-120702651D01*
X82588455Y-120691767D01*
X82602503Y-120689885D01*
X82615230Y-120664704D01*
X82643400Y-120597622D01*
X82681748Y-120501333D01*
X82696391Y-120463621D01*
X82755452Y-120317921D01*
X82825000Y-120156951D01*
X82887288Y-120021291D01*
X82933121Y-119917561D01*
X82963613Y-119832326D01*
X82973792Y-119780126D01*
X82972169Y-119773130D01*
X82950657Y-119740102D01*
X82901535Y-119666643D01*
X82830077Y-119560577D01*
X82741555Y-119429726D01*
X82641241Y-119281912D01*
X82621406Y-119252734D01*
X82505012Y-119079863D01*
X82419452Y-118948226D01*
X82361316Y-118851761D01*
X82327192Y-118784408D01*
X82313669Y-118740106D01*
X82317336Y-118712794D01*
X82317430Y-118712620D01*
X82346293Y-118676746D01*
X82410133Y-118607391D01*
X82502031Y-118511745D01*
X82615067Y-118396999D01*
X82742321Y-118270341D01*
X82756672Y-118256205D01*
X82917043Y-118100903D01*
X83040805Y-117986870D01*
X83130445Y-117912002D01*
X83188448Y-117874196D01*
X83213996Y-117869317D01*
X83251282Y-117890603D01*
X83328657Y-117939773D01*
X83438133Y-118011575D01*
X83571720Y-118100755D01*
X83721430Y-118202063D01*
X83756382Y-118225897D01*
X84252610Y-118564765D01*
X84476707Y-118463056D01*
X84612989Y-118403783D01*
X84759276Y-118344170D01*
X84885035Y-118296640D01*
X84890575Y-118294685D01*
X84988943Y-118258677D01*
X85064771Y-118228229D01*
X85101718Y-118209905D01*
X85101780Y-118209852D01*
X85113504Y-118176729D01*
X85133432Y-118095267D01*
X85159587Y-117974625D01*
X85189990Y-117823959D01*
X85222663Y-117652428D01*
X85225336Y-117637967D01*
X85258110Y-117461235D01*
X85288198Y-117300810D01*
X85313661Y-117166888D01*
X85332559Y-117069663D01*
X85342953Y-117019332D01*
X85343135Y-117018563D01*
X85349461Y-116997153D01*
X85361761Y-116980988D01*
X85387406Y-116969331D01*
X85433765Y-116961445D01*
X85508208Y-116956593D01*
X85618105Y-116954039D01*
X85770825Y-116953045D01*
X85973738Y-116952874D01*
X86000000Y-116952874D01*
X86209014Y-116952998D01*
G37*
X86209014Y-116952998D02*
X86367006Y-116953863D01*
X86481347Y-116956205D01*
X86559407Y-116960762D01*
X86608554Y-116968270D01*
X86636159Y-116979466D01*
X86649592Y-116995088D01*
X86656221Y-117015873D01*
X86656865Y-117018563D01*
X86666935Y-117067113D01*
X86685575Y-117162905D01*
X86710845Y-117295743D01*
X86740807Y-117455431D01*
X86773522Y-117631774D01*
X86774664Y-117637967D01*
X86807433Y-117810782D01*
X86838093Y-117963469D01*
X86864664Y-118086871D01*
X86885167Y-118171831D01*
X86897626Y-118209190D01*
X86898220Y-118209852D01*
X86934919Y-118228095D01*
X87010586Y-118258497D01*
X87108878Y-118294493D01*
X87109425Y-118294685D01*
X87233233Y-118341222D01*
X87379196Y-118400504D01*
X87516781Y-118460109D01*
X87523293Y-118463056D01*
X87747390Y-118564765D01*
X88243619Y-118225897D01*
X88395846Y-118122592D01*
X88533741Y-118030237D01*
X88649315Y-117954084D01*
X88734579Y-117899385D01*
X88781544Y-117871393D01*
X88786004Y-117869317D01*
X88820134Y-117878560D01*
X88883881Y-117923156D01*
X88979731Y-118005209D01*
X89110169Y-118126821D01*
X89243328Y-118256205D01*
X89371694Y-118383702D01*
X89486581Y-118500046D01*
X89581073Y-118598052D01*
X89648253Y-118670536D01*
X89681206Y-118710313D01*
X89682432Y-118712361D01*
X89686074Y-118739656D01*
X89672350Y-118784234D01*
X89637869Y-118852112D01*
X89579239Y-118949311D01*
X89493070Y-119081851D01*
X89378200Y-119252476D01*
X89276254Y-119402655D01*
X89185123Y-119537350D01*
X89110073Y-119648740D01*
X89056369Y-119729005D01*
X89029280Y-119770325D01*
X89027574Y-119773130D01*
X89030882Y-119812721D01*
X89055953Y-119889669D01*
X89097798Y-119989432D01*
X89112712Y-120021291D01*
X89177786Y-120163226D01*
X89247212Y-120324273D01*
X89303609Y-120463621D01*
X89344247Y-120567044D01*
X89376526Y-120645642D01*
X89395178Y-120686720D01*
X89397497Y-120689885D01*
X89431803Y-120695128D01*
X89512669Y-120709494D01*
X89629343Y-120730937D01*
X89771075Y-120757413D01*
X89927110Y-120786877D01*
X90086698Y-120817283D01*
X90239085Y-120846588D01*
X90373521Y-120872745D01*
X90479252Y-120893710D01*
X90545526Y-120907439D01*
X90561782Y-120911320D01*
X90578573Y-120920900D01*
X90591249Y-120942536D01*
X90600378Y-120983531D01*
X90606531Y-121051189D01*
X90610280Y-121152812D01*
X90612192Y-121295703D01*
X90612840Y-121487165D01*
X90612874Y-121565645D01*
X90612874Y-122203906D01*
X90459598Y-122234160D01*
X90374322Y-122250564D01*
X90247070Y-122274509D01*
X90093315Y-122303107D01*
X89928534Y-122333467D01*
X89882989Y-122341806D01*
X89730932Y-122371370D01*
X89598468Y-122400442D01*
X89496714Y-122426329D01*
X89436788Y-122446337D01*
X89426805Y-122452301D01*
X89402293Y-122494534D01*
X89367148Y-122576370D01*
X89328173Y-122681683D01*
X89320442Y-122704368D01*
X89269360Y-122845018D01*
X89205954Y-123003714D01*
X89143904Y-123146225D01*
X89143598Y-123146886D01*
X89040267Y-123370440D01*
X89719961Y-124370232D01*
X89283621Y-124807300D01*
X89151649Y-124937381D01*
X89031279Y-125052048D01*
X88929273Y-125145181D01*
X88852391Y-125210658D01*
X88807393Y-125242357D01*
X88800938Y-125244368D01*
X88763040Y-125228529D01*
X88685708Y-125184496D01*
X88577389Y-125117490D01*
X88446532Y-125032734D01*
X88305052Y-124937816D01*
X88161461Y-124840998D01*
X88033435Y-124756751D01*
X87929105Y-124690258D01*
X87856600Y-124646702D01*
X87824158Y-124631264D01*
X87784576Y-124644328D01*
X87709519Y-124678750D01*
X87614468Y-124727380D01*
X87604392Y-124732785D01*
X87476391Y-124796980D01*
X87388618Y-124828463D01*
X87334028Y-124828798D01*
X87305575Y-124799548D01*
X87305410Y-124799138D01*
X87291188Y-124764498D01*
X87257269Y-124682269D01*
X87206284Y-124558814D01*
X87140862Y-124400498D01*
X87063634Y-124213686D01*
X86977229Y-124004742D01*
X86893551Y-123802446D01*
X86801588Y-123579200D01*
X86717150Y-123372392D01*
X86642769Y-123188362D01*
X86580974Y-123033451D01*
X86534297Y-122913996D01*
X86505268Y-122836339D01*
X86496322Y-122807356D01*
X86518756Y-122774110D01*
X86577439Y-122721123D01*
X86655689Y-122662704D01*
X86878534Y-122477952D01*
X87052718Y-122266182D01*
X87176154Y-122031856D01*
X87246754Y-121779434D01*
X87262431Y-121513377D01*
X87251036Y-121390575D01*
X87188950Y-121135793D01*
X87082023Y-120910801D01*
X86936889Y-120717817D01*
X86760178Y-120559061D01*
X86558522Y-120436750D01*
X86338554Y-120353105D01*
X86106906Y-120310344D01*
X85870209Y-120310687D01*
X85635095Y-120356352D01*
X85408196Y-120449559D01*
X85196144Y-120592527D01*
X85107636Y-120673383D01*
X84937889Y-120881007D01*
X84819699Y-121107895D01*
X84752278Y-121347433D01*
X84734840Y-121593007D01*
X84766598Y-121838003D01*
X84846765Y-122075808D01*
X84974555Y-122299807D01*
X85149180Y-122503387D01*
X85344312Y-122662704D01*
X85425591Y-122723602D01*
X85483009Y-122776015D01*
X85503678Y-122807406D01*
X85492856Y-122841639D01*
X85462077Y-122923419D01*
X85413874Y-123046407D01*
X85350778Y-123204263D01*
X85275322Y-123390649D01*
X85190038Y-123599226D01*
X85106219Y-123802496D01*
X85013745Y-124025933D01*
X84928089Y-124232984D01*
X84851882Y-124417286D01*
X84787753Y-124572475D01*
X84738332Y-124692188D01*
X84706248Y-124770061D01*
X84694359Y-124799138D01*
X84666274Y-124828677D01*
X84611949Y-124828591D01*
X84524395Y-124797326D01*
X84396619Y-124733329D01*
X84395608Y-124732785D01*
X84299402Y-124683121D01*
X84221631Y-124646945D01*
X84177777Y-124631408D01*
X84175842Y-124631264D01*
X84142829Y-124647024D01*
X84069946Y-124690850D01*
X83965322Y-124757557D01*
X83837090Y-124841964D01*
X83694948Y-124937816D01*
X83550233Y-125034867D01*
X83419804Y-125119270D01*
X83312110Y-125185801D01*
X83235598Y-125229238D01*
X83199062Y-125244368D01*
X83165418Y-125224482D01*
X83097776Y-125168903D01*
X83002893Y-125083754D01*
X82887530Y-124975153D01*
X82758445Y-124849221D01*
X82716229Y-124807149D01*
X82279739Y-124369931D01*
X82611977Y-123882340D01*
X82712946Y-123732605D01*
X82801562Y-123598220D01*
X82872854Y-123486969D01*
X82921850Y-123406639D01*
X82943578Y-123365014D01*
X82944215Y-123362053D01*
X82932760Y-123322818D01*
X82901949Y-123243895D01*
X82857116Y-123138509D01*
X82825647Y-123067954D01*
X82766808Y-122932876D01*
X82711396Y-122796409D01*
X82668436Y-122681103D01*
X82656766Y-122645977D01*
X82623611Y-122552174D01*
X82591201Y-122479694D01*
X82573399Y-122452301D01*
X82534114Y-122435536D01*
X82448374Y-122411770D01*
X82327303Y-122383697D01*
X82182027Y-122354009D01*
X82117012Y-122341806D01*
X81951913Y-122311468D01*
X81793552Y-122282093D01*
X81657404Y-122256569D01*
X81558943Y-122237785D01*
X81540402Y-122234160D01*
X81387127Y-122203906D01*
X81387127Y-121565645D01*
X81387471Y-121355770D01*
X81388884Y-121196980D01*
X81391936Y-121081973D01*
X81397197Y-121003446D01*
X81405237Y-120954096D01*
X81416627Y-120926619D01*
X81431937Y-120913713D01*
X81438218Y-120911320D01*
X81476104Y-120902833D01*
X81559805Y-120885900D01*
X81678567Y-120862566D01*
X81821639Y-120834875D01*
X81978268Y-120804873D01*
X82137703Y-120774604D01*
X82289191Y-120746115D01*
X82421981Y-120721449D01*
X82525319Y-120702651D01*
X82588455Y-120691767D01*
X82602503Y-120689885D01*
X82615230Y-120664704D01*
X82643400Y-120597622D01*
X82681748Y-120501333D01*
X82696391Y-120463621D01*
X82755452Y-120317921D01*
X82825000Y-120156951D01*
X82887288Y-120021291D01*
X82933121Y-119917561D01*
X82963613Y-119832326D01*
X82973792Y-119780126D01*
X82972169Y-119773130D01*
X82950657Y-119740102D01*
X82901535Y-119666643D01*
X82830077Y-119560577D01*
X82741555Y-119429726D01*
X82641241Y-119281912D01*
X82621406Y-119252734D01*
X82505012Y-119079863D01*
X82419452Y-118948226D01*
X82361316Y-118851761D01*
X82327192Y-118784408D01*
X82313669Y-118740106D01*
X82317336Y-118712794D01*
X82317430Y-118712620D01*
X82346293Y-118676746D01*
X82410133Y-118607391D01*
X82502031Y-118511745D01*
X82615067Y-118396999D01*
X82742321Y-118270341D01*
X82756672Y-118256205D01*
X82917043Y-118100903D01*
X83040805Y-117986870D01*
X83130445Y-117912002D01*
X83188448Y-117874196D01*
X83213996Y-117869317D01*
X83251282Y-117890603D01*
X83328657Y-117939773D01*
X83438133Y-118011575D01*
X83571720Y-118100755D01*
X83721430Y-118202063D01*
X83756382Y-118225897D01*
X84252610Y-118564765D01*
X84476707Y-118463056D01*
X84612989Y-118403783D01*
X84759276Y-118344170D01*
X84885035Y-118296640D01*
X84890575Y-118294685D01*
X84988943Y-118258677D01*
X85064771Y-118228229D01*
X85101718Y-118209905D01*
X85101780Y-118209852D01*
X85113504Y-118176729D01*
X85133432Y-118095267D01*
X85159587Y-117974625D01*
X85189990Y-117823959D01*
X85222663Y-117652428D01*
X85225336Y-117637967D01*
X85258110Y-117461235D01*
X85288198Y-117300810D01*
X85313661Y-117166888D01*
X85332559Y-117069663D01*
X85342953Y-117019332D01*
X85343135Y-117018563D01*
X85349461Y-116997153D01*
X85361761Y-116980988D01*
X85387406Y-116969331D01*
X85433765Y-116961445D01*
X85508208Y-116956593D01*
X85618105Y-116954039D01*
X85770825Y-116953045D01*
X85973738Y-116952874D01*
X86000000Y-116952874D01*
X86209014Y-116952998D01*
G36*
X92343439Y-126456540D02*
G01*
X92458950Y-126532034D01*
X92514664Y-126599617D01*
X92558804Y-126722255D01*
X92562309Y-126819298D01*
X92554368Y-126949056D01*
X92255115Y-127080039D01*
X92109611Y-127146958D01*
X92014537Y-127200790D01*
X91965101Y-127247416D01*
X91956511Y-127292720D01*
X91983972Y-127342582D01*
X92014253Y-127375632D01*
X92102363Y-127428633D01*
X92198196Y-127432347D01*
X92286212Y-127391041D01*
X92350869Y-127308983D01*
X92362433Y-127280008D01*
X92417825Y-127189509D01*
X92481553Y-127150940D01*
X92568966Y-127117946D01*
X92568966Y-127243034D01*
X92561238Y-127328156D01*
X92530966Y-127399938D01*
X92467518Y-127482356D01*
X92458088Y-127493066D01*
X92387513Y-127566391D01*
X92326847Y-127605742D01*
X92250950Y-127623845D01*
X92188030Y-127629774D01*
X92075487Y-127631251D01*
X91995370Y-127612535D01*
X91945390Y-127584747D01*
X91866838Y-127523641D01*
X91812463Y-127457554D01*
X91778052Y-127374441D01*
X91759388Y-127262254D01*
X91752256Y-127108946D01*
X91751687Y-127031136D01*
X91753622Y-126937853D01*
X91929899Y-126937853D01*
X91931944Y-126987896D01*
X91937039Y-126996092D01*
X91970666Y-126984958D01*
X92043030Y-126955493D01*
X92139747Y-126913601D01*
X92159973Y-126904597D01*
X92282203Y-126842442D01*
X92349547Y-126787815D01*
X92364348Y-126736649D01*
X92328947Y-126684876D01*
X92299711Y-126662000D01*
X92194216Y-126616250D01*
X92095476Y-126623808D01*
X92012812Y-126679651D01*
X91955548Y-126778753D01*
X91937188Y-126857414D01*
X91929899Y-126937853D01*
X91753622Y-126937853D01*
X91755459Y-126849351D01*
X91769359Y-126714853D01*
X91796894Y-126616916D01*
X91841572Y-126544811D01*
X91906901Y-126487813D01*
X91935383Y-126469393D01*
X92064763Y-126421422D01*
X92206412Y-126418403D01*
X92343439Y-126456540D01*
G37*
X92343439Y-126456540D02*
X92458950Y-126532034D01*
X92514664Y-126599617D01*
X92558804Y-126722255D01*
X92562309Y-126819298D01*
X92554368Y-126949056D01*
X92255115Y-127080039D01*
X92109611Y-127146958D01*
X92014537Y-127200790D01*
X91965101Y-127247416D01*
X91956511Y-127292720D01*
X91983972Y-127342582D01*
X92014253Y-127375632D01*
X92102363Y-127428633D01*
X92198196Y-127432347D01*
X92286212Y-127391041D01*
X92350869Y-127308983D01*
X92362433Y-127280008D01*
X92417825Y-127189509D01*
X92481553Y-127150940D01*
X92568966Y-127117946D01*
X92568966Y-127243034D01*
X92561238Y-127328156D01*
X92530966Y-127399938D01*
X92467518Y-127482356D01*
X92458088Y-127493066D01*
X92387513Y-127566391D01*
X92326847Y-127605742D01*
X92250950Y-127623845D01*
X92188030Y-127629774D01*
X92075487Y-127631251D01*
X91995370Y-127612535D01*
X91945390Y-127584747D01*
X91866838Y-127523641D01*
X91812463Y-127457554D01*
X91778052Y-127374441D01*
X91759388Y-127262254D01*
X91752256Y-127108946D01*
X91751687Y-127031136D01*
X91753622Y-126937853D01*
X91929899Y-126937853D01*
X91931944Y-126987896D01*
X91937039Y-126996092D01*
X91970666Y-126984958D01*
X92043030Y-126955493D01*
X92139747Y-126913601D01*
X92159973Y-126904597D01*
X92282203Y-126842442D01*
X92349547Y-126787815D01*
X92364348Y-126736649D01*
X92328947Y-126684876D01*
X92299711Y-126662000D01*
X92194216Y-126616250D01*
X92095476Y-126623808D01*
X92012812Y-126679651D01*
X91955548Y-126778753D01*
X91937188Y-126857414D01*
X91929899Y-126937853D01*
X91753622Y-126937853D01*
X91755459Y-126849351D01*
X91769359Y-126714853D01*
X91796894Y-126616916D01*
X91841572Y-126544811D01*
X91906901Y-126487813D01*
X91935383Y-126469393D01*
X92064763Y-126421422D01*
X92206412Y-126418403D01*
X92343439Y-126456540D01*
G36*
X91335690Y-126440018D02*
G01*
X91370585Y-126455269D01*
X91453877Y-126521235D01*
X91525103Y-126616618D01*
X91569153Y-126718406D01*
X91576322Y-126768587D01*
X91552285Y-126838647D01*
X91499561Y-126875717D01*
X91443031Y-126898164D01*
X91417146Y-126902300D01*
X91404542Y-126872283D01*
X91379654Y-126806961D01*
X91368735Y-126777445D01*
X91307508Y-126675348D01*
X91218861Y-126624423D01*
X91105193Y-126625989D01*
X91096774Y-126627994D01*
X91036088Y-126656767D01*
X90991474Y-126712859D01*
X90961002Y-126803163D01*
X90942744Y-126934571D01*
X90934771Y-127113974D01*
X90934023Y-127209433D01*
X90933652Y-127359913D01*
X90931223Y-127462495D01*
X90924760Y-127527672D01*
X90912288Y-127565938D01*
X90891833Y-127587785D01*
X90861419Y-127603707D01*
X90859661Y-127604509D01*
X90801091Y-127629272D01*
X90772075Y-127638391D01*
X90767616Y-127610822D01*
X90763799Y-127534620D01*
X90760899Y-127419541D01*
X90759191Y-127275341D01*
X90758851Y-127169814D01*
X90760588Y-126965613D01*
X90767382Y-126810697D01*
X90781607Y-126696024D01*
X90805638Y-126612551D01*
X90841848Y-126551236D01*
X90892612Y-126503034D01*
X90942739Y-126469393D01*
X91063275Y-126424619D01*
X91203557Y-126414521D01*
X91335690Y-126440018D01*
G37*
X91335690Y-126440018D02*
X91370585Y-126455269D01*
X91453877Y-126521235D01*
X91525103Y-126616618D01*
X91569153Y-126718406D01*
X91576322Y-126768587D01*
X91552285Y-126838647D01*
X91499561Y-126875717D01*
X91443031Y-126898164D01*
X91417146Y-126902300D01*
X91404542Y-126872283D01*
X91379654Y-126806961D01*
X91368735Y-126777445D01*
X91307508Y-126675348D01*
X91218861Y-126624423D01*
X91105193Y-126625989D01*
X91096774Y-126627994D01*
X91036088Y-126656767D01*
X90991474Y-126712859D01*
X90961002Y-126803163D01*
X90942744Y-126934571D01*
X90934771Y-127113974D01*
X90934023Y-127209433D01*
X90933652Y-127359913D01*
X90931223Y-127462495D01*
X90924760Y-127527672D01*
X90912288Y-127565938D01*
X90891833Y-127587785D01*
X90861419Y-127603707D01*
X90859661Y-127604509D01*
X90801091Y-127629272D01*
X90772075Y-127638391D01*
X90767616Y-127610822D01*
X90763799Y-127534620D01*
X90760899Y-127419541D01*
X90759191Y-127275341D01*
X90758851Y-127169814D01*
X90760588Y-126965613D01*
X90767382Y-126810697D01*
X90781607Y-126696024D01*
X90805638Y-126612551D01*
X90841848Y-126551236D01*
X90892612Y-126503034D01*
X90942739Y-126469393D01*
X91063275Y-126424619D01*
X91203557Y-126414521D01*
X91335690Y-126440018D01*
G36*
X90314406Y-126435156D02*
G01*
X90398469Y-126473393D01*
X90464450Y-126519726D01*
X90512794Y-126571532D01*
X90546172Y-126638363D01*
X90567253Y-126729769D01*
X90578707Y-126855301D01*
X90583203Y-127024508D01*
X90583678Y-127135933D01*
X90583678Y-127570627D01*
X90509316Y-127604509D01*
X90450746Y-127629272D01*
X90421730Y-127638391D01*
X90416179Y-127611257D01*
X90411775Y-127538094D01*
X90409078Y-127431263D01*
X90408506Y-127346437D01*
X90406046Y-127223887D01*
X90399412Y-127126668D01*
X90389726Y-127067134D01*
X90382032Y-127054483D01*
X90330311Y-127067402D01*
X90249117Y-127100539D01*
X90155102Y-127145461D01*
X90064917Y-127193735D01*
X89995215Y-127236928D01*
X89962648Y-127266608D01*
X89962519Y-127266929D01*
X89965320Y-127321857D01*
X89990439Y-127374292D01*
X90034541Y-127416881D01*
X90098909Y-127431126D01*
X90153921Y-127429466D01*
X90231835Y-127428245D01*
X90272732Y-127446498D01*
X90297295Y-127494726D01*
X90300392Y-127503820D01*
X90311040Y-127572598D01*
X90282565Y-127614360D01*
X90208344Y-127634263D01*
X90128168Y-127637944D01*
X89983890Y-127610658D01*
X89909203Y-127571690D01*
X89816963Y-127480148D01*
X89768043Y-127367782D01*
X89763654Y-127249051D01*
X89805001Y-127138411D01*
X89867197Y-127069080D01*
X89929294Y-127030265D01*
X90026895Y-126981125D01*
X90140632Y-126931292D01*
X90159590Y-126923677D01*
X90284521Y-126868545D01*
X90356539Y-126819954D01*
X90379700Y-126771647D01*
X90358064Y-126717370D01*
X90320920Y-126674943D01*
X90233127Y-126622702D01*
X90136530Y-126618784D01*
X90047944Y-126659041D01*
X89984186Y-126739326D01*
X89975817Y-126760040D01*
X89927096Y-126836225D01*
X89855965Y-126892785D01*
X89766207Y-126939201D01*
X89766207Y-126807584D01*
X89771490Y-126727168D01*
X89794142Y-126663786D01*
X89844367Y-126596163D01*
X89892582Y-126544076D01*
X89967554Y-126470322D01*
X90025806Y-126430702D01*
X90088372Y-126414810D01*
X90159193Y-126412184D01*
X90314406Y-126435156D01*
G37*
X90314406Y-126435156D02*
X90398469Y-126473393D01*
X90464450Y-126519726D01*
X90512794Y-126571532D01*
X90546172Y-126638363D01*
X90567253Y-126729769D01*
X90578707Y-126855301D01*
X90583203Y-127024508D01*
X90583678Y-127135933D01*
X90583678Y-127570627D01*
X90509316Y-127604509D01*
X90450746Y-127629272D01*
X90421730Y-127638391D01*
X90416179Y-127611257D01*
X90411775Y-127538094D01*
X90409078Y-127431263D01*
X90408506Y-127346437D01*
X90406046Y-127223887D01*
X90399412Y-127126668D01*
X90389726Y-127067134D01*
X90382032Y-127054483D01*
X90330311Y-127067402D01*
X90249117Y-127100539D01*
X90155102Y-127145461D01*
X90064917Y-127193735D01*
X89995215Y-127236928D01*
X89962648Y-127266608D01*
X89962519Y-127266929D01*
X89965320Y-127321857D01*
X89990439Y-127374292D01*
X90034541Y-127416881D01*
X90098909Y-127431126D01*
X90153921Y-127429466D01*
X90231835Y-127428245D01*
X90272732Y-127446498D01*
X90297295Y-127494726D01*
X90300392Y-127503820D01*
X90311040Y-127572598D01*
X90282565Y-127614360D01*
X90208344Y-127634263D01*
X90128168Y-127637944D01*
X89983890Y-127610658D01*
X89909203Y-127571690D01*
X89816963Y-127480148D01*
X89768043Y-127367782D01*
X89763654Y-127249051D01*
X89805001Y-127138411D01*
X89867197Y-127069080D01*
X89929294Y-127030265D01*
X90026895Y-126981125D01*
X90140632Y-126931292D01*
X90159590Y-126923677D01*
X90284521Y-126868545D01*
X90356539Y-126819954D01*
X90379700Y-126771647D01*
X90358064Y-126717370D01*
X90320920Y-126674943D01*
X90233127Y-126622702D01*
X90136530Y-126618784D01*
X90047944Y-126659041D01*
X89984186Y-126739326D01*
X89975817Y-126760040D01*
X89927096Y-126836225D01*
X89855965Y-126892785D01*
X89766207Y-126939201D01*
X89766207Y-126807584D01*
X89771490Y-126727168D01*
X89794142Y-126663786D01*
X89844367Y-126596163D01*
X89892582Y-126544076D01*
X89967554Y-126470322D01*
X90025806Y-126430702D01*
X90088372Y-126414810D01*
X90159193Y-126412184D01*
X90314406Y-126435156D01*
G36*
X89580124Y-126439840D02*
G01*
X89584579Y-126516653D01*
X89588071Y-126633391D01*
X89590315Y-126780821D01*
X89591035Y-126935455D01*
X89591035Y-127458727D01*
X89498645Y-127551117D01*
X89434978Y-127608047D01*
X89379089Y-127631107D01*
X89302702Y-127629647D01*
X89272380Y-127625934D01*
X89177610Y-127615126D01*
X89099222Y-127608933D01*
X89080115Y-127608361D01*
X89015699Y-127612102D01*
X88923571Y-127621494D01*
X88887850Y-127625934D01*
X88800114Y-127632801D01*
X88741153Y-127617885D01*
X88682690Y-127571835D01*
X88661585Y-127551117D01*
X88569195Y-127458727D01*
X88569195Y-126479947D01*
X88643558Y-126446066D01*
X88707590Y-126420970D01*
X88745052Y-126412184D01*
X88754657Y-126439950D01*
X88763635Y-126517530D01*
X88771386Y-126636348D01*
X88777314Y-126787828D01*
X88780173Y-126915805D01*
X88788161Y-127419425D01*
X88857848Y-127429278D01*
X88921229Y-127422389D01*
X88952286Y-127400083D01*
X88960967Y-127358379D01*
X88968378Y-127269544D01*
X88973931Y-127144834D01*
X88977036Y-126995507D01*
X88977484Y-126918661D01*
X88977931Y-126476287D01*
X89069874Y-126444235D01*
X89134949Y-126422443D01*
X89170347Y-126412281D01*
X89171368Y-126412184D01*
X89174920Y-126439809D01*
X89178823Y-126516411D01*
X89182751Y-126632579D01*
X89186376Y-126778904D01*
X89188908Y-126915805D01*
X89196897Y-127419425D01*
X89372069Y-127419425D01*
X89380107Y-126959965D01*
X89388146Y-126500505D01*
X89473543Y-126456344D01*
X89536593Y-126426019D01*
X89573910Y-126412258D01*
X89574987Y-126412184D01*
X89580124Y-126439840D01*
G37*
X89580124Y-126439840D02*
X89584579Y-126516653D01*
X89588071Y-126633391D01*
X89590315Y-126780821D01*
X89591035Y-126935455D01*
X89591035Y-127458727D01*
X89498645Y-127551117D01*
X89434978Y-127608047D01*
X89379089Y-127631107D01*
X89302702Y-127629647D01*
X89272380Y-127625934D01*
X89177610Y-127615126D01*
X89099222Y-127608933D01*
X89080115Y-127608361D01*
X89015699Y-127612102D01*
X88923571Y-127621494D01*
X88887850Y-127625934D01*
X88800114Y-127632801D01*
X88741153Y-127617885D01*
X88682690Y-127571835D01*
X88661585Y-127551117D01*
X88569195Y-127458727D01*
X88569195Y-126479947D01*
X88643558Y-126446066D01*
X88707590Y-126420970D01*
X88745052Y-126412184D01*
X88754657Y-126439950D01*
X88763635Y-126517530D01*
X88771386Y-126636348D01*
X88777314Y-126787828D01*
X88780173Y-126915805D01*
X88788161Y-127419425D01*
X88857848Y-127429278D01*
X88921229Y-127422389D01*
X88952286Y-127400083D01*
X88960967Y-127358379D01*
X88968378Y-127269544D01*
X88973931Y-127144834D01*
X88977036Y-126995507D01*
X88977484Y-126918661D01*
X88977931Y-126476287D01*
X89069874Y-126444235D01*
X89134949Y-126422443D01*
X89170347Y-126412281D01*
X89171368Y-126412184D01*
X89174920Y-126439809D01*
X89178823Y-126516411D01*
X89182751Y-126632579D01*
X89186376Y-126778904D01*
X89188908Y-126915805D01*
X89196897Y-127419425D01*
X89372069Y-127419425D01*
X89380107Y-126959965D01*
X89388146Y-126500505D01*
X89473543Y-126456344D01*
X89536593Y-126426019D01*
X89573910Y-126412258D01*
X89574987Y-126412184D01*
X89580124Y-126439840D01*
G36*
X88393914Y-126654455D02*
G01*
X88393543Y-126872661D01*
X88392108Y-127040519D01*
X88389002Y-127166070D01*
X88383622Y-127257355D01*
X88375362Y-127322415D01*
X88363616Y-127369291D01*
X88347781Y-127406024D01*
X88335790Y-127426991D01*
X88236490Y-127540694D01*
X88110588Y-127611965D01*
X87971291Y-127637538D01*
X87831805Y-127614150D01*
X87748743Y-127572119D01*
X87661545Y-127499411D01*
X87602117Y-127410612D01*
X87566261Y-127294320D01*
X87549781Y-127139135D01*
X87547447Y-127025287D01*
X87547761Y-127017106D01*
X87751724Y-127017106D01*
X87752970Y-127147657D01*
X87758678Y-127234080D01*
X87771804Y-127290618D01*
X87795306Y-127331514D01*
X87823386Y-127362362D01*
X87917688Y-127421905D01*
X88018940Y-127426992D01*
X88114636Y-127377279D01*
X88122084Y-127370543D01*
X88153874Y-127335502D01*
X88173808Y-127293811D01*
X88184600Y-127231762D01*
X88188965Y-127135644D01*
X88189655Y-127029379D01*
X88188159Y-126895880D01*
X88181964Y-126806822D01*
X88168514Y-126748293D01*
X88145251Y-126706382D01*
X88126175Y-126684123D01*
X88037563Y-126627985D01*
X87935508Y-126621235D01*
X87838095Y-126664114D01*
X87819296Y-126680032D01*
X87787293Y-126715382D01*
X87767318Y-126757502D01*
X87756593Y-126820251D01*
X87752339Y-126917487D01*
X87751724Y-127017106D01*
X87547761Y-127017106D01*
X87554504Y-126841947D01*
X87578472Y-126704195D01*
X87623548Y-126600632D01*
X87693928Y-126519856D01*
X87748743Y-126478455D01*
X87848376Y-126433728D01*
X87963855Y-126412967D01*
X88071199Y-126418525D01*
X88131264Y-126440943D01*
X88154835Y-126447323D01*
X88170477Y-126423535D01*
X88181395Y-126359788D01*
X88189655Y-126262687D01*
X88198699Y-126154541D01*
X88211261Y-126089475D01*
X88234119Y-126052268D01*
X88274051Y-126027699D01*
X88299138Y-126016819D01*
X88394023Y-125977072D01*
X88393914Y-126654455D01*
G37*
X88393914Y-126654455D02*
X88393543Y-126872661D01*
X88392108Y-127040519D01*
X88389002Y-127166070D01*
X88383622Y-127257355D01*
X88375362Y-127322415D01*
X88363616Y-127369291D01*
X88347781Y-127406024D01*
X88335790Y-127426991D01*
X88236490Y-127540694D01*
X88110588Y-127611965D01*
X87971291Y-127637538D01*
X87831805Y-127614150D01*
X87748743Y-127572119D01*
X87661545Y-127499411D01*
X87602117Y-127410612D01*
X87566261Y-127294320D01*
X87549781Y-127139135D01*
X87547447Y-127025287D01*
X87547761Y-127017106D01*
X87751724Y-127017106D01*
X87752970Y-127147657D01*
X87758678Y-127234080D01*
X87771804Y-127290618D01*
X87795306Y-127331514D01*
X87823386Y-127362362D01*
X87917688Y-127421905D01*
X88018940Y-127426992D01*
X88114636Y-127377279D01*
X88122084Y-127370543D01*
X88153874Y-127335502D01*
X88173808Y-127293811D01*
X88184600Y-127231762D01*
X88188965Y-127135644D01*
X88189655Y-127029379D01*
X88188159Y-126895880D01*
X88181964Y-126806822D01*
X88168514Y-126748293D01*
X88145251Y-126706382D01*
X88126175Y-126684123D01*
X88037563Y-126627985D01*
X87935508Y-126621235D01*
X87838095Y-126664114D01*
X87819296Y-126680032D01*
X87787293Y-126715382D01*
X87767318Y-126757502D01*
X87756593Y-126820251D01*
X87752339Y-126917487D01*
X87751724Y-127017106D01*
X87547761Y-127017106D01*
X87554504Y-126841947D01*
X87578472Y-126704195D01*
X87623548Y-126600632D01*
X87693928Y-126519856D01*
X87748743Y-126478455D01*
X87848376Y-126433728D01*
X87963855Y-126412967D01*
X88071199Y-126418525D01*
X88131264Y-126440943D01*
X88154835Y-126447323D01*
X88170477Y-126423535D01*
X88181395Y-126359788D01*
X88189655Y-126262687D01*
X88198699Y-126154541D01*
X88211261Y-126089475D01*
X88234119Y-126052268D01*
X88274051Y-126027699D01*
X88299138Y-126016819D01*
X88394023Y-125977072D01*
X88393914Y-126654455D01*
G36*
X87065943Y-126421920D02*
G01*
X87198565Y-126470859D01*
X87306010Y-126557419D01*
X87348032Y-126618352D01*
X87393843Y-126730161D01*
X87392891Y-126811006D01*
X87344808Y-126865378D01*
X87327017Y-126874624D01*
X87250204Y-126903450D01*
X87210976Y-126896065D01*
X87197689Y-126847658D01*
X87197012Y-126820920D01*
X87172686Y-126722548D01*
X87109281Y-126653734D01*
X87021154Y-126620498D01*
X86922663Y-126628861D01*
X86842602Y-126672296D01*
X86815561Y-126697072D01*
X86796394Y-126727129D01*
X86783446Y-126772565D01*
X86775064Y-126843476D01*
X86769593Y-126949960D01*
X86765378Y-127102112D01*
X86764287Y-127150287D01*
X86760307Y-127315095D01*
X86755781Y-127431088D01*
X86748995Y-127507833D01*
X86738231Y-127554893D01*
X86721773Y-127581835D01*
X86697906Y-127598223D01*
X86682626Y-127605463D01*
X86617733Y-127630220D01*
X86579534Y-127638391D01*
X86566912Y-127611103D01*
X86559208Y-127528603D01*
X86556380Y-127389941D01*
X86558386Y-127194162D01*
X86559011Y-127163965D01*
X86563421Y-126985349D01*
X86568635Y-126854923D01*
X86576055Y-126762492D01*
X86587082Y-126697858D01*
X86603117Y-126650825D01*
X86625561Y-126611196D01*
X86637302Y-126594215D01*
X86704619Y-126519080D01*
X86779910Y-126460638D01*
X86789128Y-126455536D01*
X86924133Y-126415260D01*
X87065943Y-126421920D01*
G37*
X87065943Y-126421920D02*
X87198565Y-126470859D01*
X87306010Y-126557419D01*
X87348032Y-126618352D01*
X87393843Y-126730161D01*
X87392891Y-126811006D01*
X87344808Y-126865378D01*
X87327017Y-126874624D01*
X87250204Y-126903450D01*
X87210976Y-126896065D01*
X87197689Y-126847658D01*
X87197012Y-126820920D01*
X87172686Y-126722548D01*
X87109281Y-126653734D01*
X87021154Y-126620498D01*
X86922663Y-126628861D01*
X86842602Y-126672296D01*
X86815561Y-126697072D01*
X86796394Y-126727129D01*
X86783446Y-126772565D01*
X86775064Y-126843476D01*
X86769593Y-126949960D01*
X86765378Y-127102112D01*
X86764287Y-127150287D01*
X86760307Y-127315095D01*
X86755781Y-127431088D01*
X86748995Y-127507833D01*
X86738231Y-127554893D01*
X86721773Y-127581835D01*
X86697906Y-127598223D01*
X86682626Y-127605463D01*
X86617733Y-127630220D01*
X86579534Y-127638391D01*
X86566912Y-127611103D01*
X86559208Y-127528603D01*
X86556380Y-127389941D01*
X86558386Y-127194162D01*
X86559011Y-127163965D01*
X86563421Y-126985349D01*
X86568635Y-126854923D01*
X86576055Y-126762492D01*
X86587082Y-126697858D01*
X86603117Y-126650825D01*
X86625561Y-126611196D01*
X86637302Y-126594215D01*
X86704619Y-126519080D01*
X86779910Y-126460638D01*
X86789128Y-126455536D01*
X86924133Y-126415260D01*
X87065943Y-126421920D01*
G36*
X86079944Y-126424360D02*
G01*
X86194343Y-126466842D01*
X86195652Y-126467658D01*
X86266403Y-126519730D01*
X86318636Y-126580584D01*
X86355371Y-126659887D01*
X86379634Y-126767309D01*
X86394445Y-126912517D01*
X86402829Y-127105179D01*
X86403564Y-127132628D01*
X86414120Y-127546521D01*
X86325291Y-127592456D01*
X86261018Y-127623498D01*
X86222210Y-127638206D01*
X86220415Y-127638391D01*
X86213700Y-127611250D01*
X86208365Y-127538041D01*
X86205083Y-127431081D01*
X86204368Y-127344469D01*
X86204351Y-127204162D01*
X86197937Y-127116051D01*
X86175580Y-127074025D01*
X86127732Y-127071975D01*
X86044849Y-127103790D01*
X85919713Y-127162272D01*
X85827697Y-127210845D01*
X85780371Y-127252986D01*
X85766458Y-127298916D01*
X85766437Y-127301189D01*
X85789395Y-127380311D01*
X85857370Y-127423055D01*
X85961398Y-127429246D01*
X86036330Y-127428172D01*
X86075839Y-127449753D01*
X86100478Y-127501591D01*
X86114659Y-127567632D01*
X86094223Y-127605104D01*
X86086528Y-127610467D01*
X86014083Y-127632006D01*
X85912633Y-127635055D01*
X85808157Y-127620778D01*
X85734125Y-127594688D01*
X85631772Y-127507785D01*
X85573591Y-127386816D01*
X85562069Y-127292308D01*
X85570862Y-127207062D01*
X85602680Y-127137476D01*
X85665684Y-127075672D01*
X85768031Y-127013772D01*
X85917882Y-126943897D01*
X85927012Y-126939948D01*
X86061997Y-126877588D01*
X86145294Y-126826446D01*
X86180997Y-126780488D01*
X86173203Y-126733683D01*
X86126007Y-126679998D01*
X86111894Y-126667644D01*
X86017359Y-126619741D01*
X85919406Y-126621758D01*
X85834097Y-126668724D01*
X85777496Y-126755669D01*
X85772237Y-126772734D01*
X85721023Y-126855504D01*
X85656037Y-126895372D01*
X85562069Y-126934882D01*
X85562069Y-126832658D01*
X85590653Y-126684072D01*
X85675495Y-126547784D01*
X85719645Y-126502191D01*
X85820005Y-126443674D01*
X85947635Y-126417184D01*
X86079944Y-126424360D01*
G37*
X86079944Y-126424360D02*
X86194343Y-126466842D01*
X86195652Y-126467658D01*
X86266403Y-126519730D01*
X86318636Y-126580584D01*
X86355371Y-126659887D01*
X86379634Y-126767309D01*
X86394445Y-126912517D01*
X86402829Y-127105179D01*
X86403564Y-127132628D01*
X86414120Y-127546521D01*
X86325291Y-127592456D01*
X86261018Y-127623498D01*
X86222210Y-127638206D01*
X86220415Y-127638391D01*
X86213700Y-127611250D01*
X86208365Y-127538041D01*
X86205083Y-127431081D01*
X86204368Y-127344469D01*
X86204351Y-127204162D01*
X86197937Y-127116051D01*
X86175580Y-127074025D01*
X86127732Y-127071975D01*
X86044849Y-127103790D01*
X85919713Y-127162272D01*
X85827697Y-127210845D01*
X85780371Y-127252986D01*
X85766458Y-127298916D01*
X85766437Y-127301189D01*
X85789395Y-127380311D01*
X85857370Y-127423055D01*
X85961398Y-127429246D01*
X86036330Y-127428172D01*
X86075839Y-127449753D01*
X86100478Y-127501591D01*
X86114659Y-127567632D01*
X86094223Y-127605104D01*
X86086528Y-127610467D01*
X86014083Y-127632006D01*
X85912633Y-127635055D01*
X85808157Y-127620778D01*
X85734125Y-127594688D01*
X85631772Y-127507785D01*
X85573591Y-127386816D01*
X85562069Y-127292308D01*
X85570862Y-127207062D01*
X85602680Y-127137476D01*
X85665684Y-127075672D01*
X85768031Y-127013772D01*
X85917882Y-126943897D01*
X85927012Y-126939948D01*
X86061997Y-126877588D01*
X86145294Y-126826446D01*
X86180997Y-126780488D01*
X86173203Y-126733683D01*
X86126007Y-126679998D01*
X86111894Y-126667644D01*
X86017359Y-126619741D01*
X85919406Y-126621758D01*
X85834097Y-126668724D01*
X85777496Y-126755669D01*
X85772237Y-126772734D01*
X85721023Y-126855504D01*
X85656037Y-126895372D01*
X85562069Y-126934882D01*
X85562069Y-126832658D01*
X85590653Y-126684072D01*
X85675495Y-126547784D01*
X85719645Y-126502191D01*
X85820005Y-126443674D01*
X85947635Y-126417184D01*
X86079944Y-126424360D01*
G36*
X84744598Y-126223857D02*
G01*
X84753154Y-126343188D01*
X84762981Y-126413506D01*
X84776599Y-126444179D01*
X84796527Y-126444571D01*
X84802989Y-126440910D01*
X84888940Y-126414398D01*
X85000745Y-126415946D01*
X85114414Y-126443199D01*
X85185510Y-126478455D01*
X85258405Y-126534778D01*
X85311693Y-126598519D01*
X85348275Y-126679510D01*
X85371050Y-126787586D01*
X85382919Y-126932580D01*
X85386782Y-127124326D01*
X85386851Y-127161109D01*
X85386897Y-127574288D01*
X85294954Y-127606339D01*
X85229652Y-127628144D01*
X85193824Y-127638297D01*
X85192770Y-127638391D01*
X85189242Y-127610860D01*
X85186239Y-127534923D01*
X85183990Y-127420565D01*
X85182724Y-127277769D01*
X85182529Y-127190951D01*
X85182123Y-127019773D01*
X85180032Y-126897088D01*
X85174947Y-126813000D01*
X85165560Y-126757614D01*
X85150561Y-126721032D01*
X85128642Y-126693359D01*
X85114957Y-126680032D01*
X85020949Y-126626328D01*
X84918364Y-126622307D01*
X84825290Y-126667725D01*
X84808078Y-126684123D01*
X84782832Y-126714957D01*
X84765320Y-126751531D01*
X84754142Y-126804415D01*
X84747896Y-126884177D01*
X84745182Y-127001385D01*
X84744598Y-127162991D01*
X84744598Y-127574288D01*
X84652655Y-127606339D01*
X84587353Y-127628144D01*
X84551525Y-127638297D01*
X84550471Y-127638391D01*
X84547775Y-127610448D01*
X84545345Y-127531630D01*
X84543278Y-127409453D01*
X84541671Y-127251432D01*
X84540623Y-127065083D01*
X84540231Y-126857920D01*
X84540230Y-126848706D01*
X84540230Y-126059020D01*
X84635115Y-126018997D01*
X84730000Y-125978973D01*
X84744598Y-126223857D01*
G37*
X84744598Y-126223857D02*
X84753154Y-126343188D01*
X84762981Y-126413506D01*
X84776599Y-126444179D01*
X84796527Y-126444571D01*
X84802989Y-126440910D01*
X84888940Y-126414398D01*
X85000745Y-126415946D01*
X85114414Y-126443199D01*
X85185510Y-126478455D01*
X85258405Y-126534778D01*
X85311693Y-126598519D01*
X85348275Y-126679510D01*
X85371050Y-126787586D01*
X85382919Y-126932580D01*
X85386782Y-127124326D01*
X85386851Y-127161109D01*
X85386897Y-127574288D01*
X85294954Y-127606339D01*
X85229652Y-127628144D01*
X85193824Y-127638297D01*
X85192770Y-127638391D01*
X85189242Y-127610860D01*
X85186239Y-127534923D01*
X85183990Y-127420565D01*
X85182724Y-127277769D01*
X85182529Y-127190951D01*
X85182123Y-127019773D01*
X85180032Y-126897088D01*
X85174947Y-126813000D01*
X85165560Y-126757614D01*
X85150561Y-126721032D01*
X85128642Y-126693359D01*
X85114957Y-126680032D01*
X85020949Y-126626328D01*
X84918364Y-126622307D01*
X84825290Y-126667725D01*
X84808078Y-126684123D01*
X84782832Y-126714957D01*
X84765320Y-126751531D01*
X84754142Y-126804415D01*
X84747896Y-126884177D01*
X84745182Y-127001385D01*
X84744598Y-127162991D01*
X84744598Y-127574288D01*
X84652655Y-127606339D01*
X84587353Y-127628144D01*
X84551525Y-127638297D01*
X84550471Y-127638391D01*
X84547775Y-127610448D01*
X84545345Y-127531630D01*
X84543278Y-127409453D01*
X84541671Y-127251432D01*
X84540623Y-127065083D01*
X84540231Y-126857920D01*
X84540230Y-126848706D01*
X84540230Y-126059020D01*
X84635115Y-126018997D01*
X84730000Y-125978973D01*
X84744598Y-126223857D01*
G36*
X82315552Y-126384676D02*
G01*
X82430658Y-126462111D01*
X82519611Y-126573949D01*
X82572749Y-126716265D01*
X82583497Y-126821015D01*
X82582276Y-126864726D01*
X82572056Y-126898194D01*
X82543961Y-126928179D01*
X82489116Y-126961440D01*
X82398645Y-127004738D01*
X82263672Y-127064833D01*
X82262989Y-127065134D01*
X82138751Y-127122037D01*
X82036873Y-127172565D01*
X81967767Y-127211280D01*
X81941846Y-127232740D01*
X81941839Y-127232913D01*
X81964685Y-127279644D01*
X82018109Y-127331154D01*
X82079442Y-127368261D01*
X82110515Y-127375632D01*
X82195289Y-127350138D01*
X82268293Y-127286291D01*
X82303913Y-127216094D01*
X82338180Y-127164343D01*
X82405303Y-127105409D01*
X82484208Y-127054496D01*
X82553821Y-127026809D01*
X82568377Y-127025287D01*
X82584763Y-127050321D01*
X82585750Y-127114311D01*
X82573708Y-127200593D01*
X82551007Y-127292501D01*
X82520014Y-127373369D01*
X82518448Y-127376509D01*
X82425181Y-127506734D01*
X82304304Y-127595311D01*
X82167027Y-127638786D01*
X82024560Y-127633706D01*
X81888112Y-127576616D01*
X81882045Y-127572602D01*
X81774710Y-127475326D01*
X81704132Y-127348409D01*
X81665074Y-127181526D01*
X81659832Y-127134639D01*
X81650548Y-126913329D01*
X81661678Y-126810124D01*
X81941839Y-126810124D01*
X81945479Y-126874503D01*
X81965389Y-126893291D01*
X82015026Y-126879235D01*
X82093267Y-126846009D01*
X82180726Y-126804359D01*
X82182899Y-126803256D01*
X82257030Y-126764265D01*
X82286781Y-126738244D01*
X82279445Y-126710965D01*
X82248553Y-126675121D01*
X82169960Y-126623251D01*
X82085323Y-126619439D01*
X82009403Y-126657189D01*
X81956965Y-126730001D01*
X81941839Y-126810124D01*
X81661678Y-126810124D01*
X81669644Y-126736261D01*
X81718634Y-126595829D01*
X81786836Y-126497447D01*
X81909935Y-126398030D01*
X82045528Y-126348711D01*
X82183955Y-126345568D01*
X82315552Y-126384676D01*
G37*
X82315552Y-126384676D02*
X82430658Y-126462111D01*
X82519611Y-126573949D01*
X82572749Y-126716265D01*
X82583497Y-126821015D01*
X82582276Y-126864726D01*
X82572056Y-126898194D01*
X82543961Y-126928179D01*
X82489116Y-126961440D01*
X82398645Y-127004738D01*
X82263672Y-127064833D01*
X82262989Y-127065134D01*
X82138751Y-127122037D01*
X82036873Y-127172565D01*
X81967767Y-127211280D01*
X81941846Y-127232740D01*
X81941839Y-127232913D01*
X81964685Y-127279644D01*
X82018109Y-127331154D01*
X82079442Y-127368261D01*
X82110515Y-127375632D01*
X82195289Y-127350138D01*
X82268293Y-127286291D01*
X82303913Y-127216094D01*
X82338180Y-127164343D01*
X82405303Y-127105409D01*
X82484208Y-127054496D01*
X82553821Y-127026809D01*
X82568377Y-127025287D01*
X82584763Y-127050321D01*
X82585750Y-127114311D01*
X82573708Y-127200593D01*
X82551007Y-127292501D01*
X82520014Y-127373369D01*
X82518448Y-127376509D01*
X82425181Y-127506734D01*
X82304304Y-127595311D01*
X82167027Y-127638786D01*
X82024560Y-127633706D01*
X81888112Y-127576616D01*
X81882045Y-127572602D01*
X81774710Y-127475326D01*
X81704132Y-127348409D01*
X81665074Y-127181526D01*
X81659832Y-127134639D01*
X81650548Y-126913329D01*
X81661678Y-126810124D01*
X81941839Y-126810124D01*
X81945479Y-126874503D01*
X81965389Y-126893291D01*
X82015026Y-126879235D01*
X82093267Y-126846009D01*
X82180726Y-126804359D01*
X82182899Y-126803256D01*
X82257030Y-126764265D01*
X82286781Y-126738244D01*
X82279445Y-126710965D01*
X82248553Y-126675121D01*
X82169960Y-126623251D01*
X82085323Y-126619439D01*
X82009403Y-126657189D01*
X81956965Y-126730001D01*
X81941839Y-126810124D01*
X81661678Y-126810124D01*
X81669644Y-126736261D01*
X81718634Y-126595829D01*
X81786836Y-126497447D01*
X81909935Y-126398030D01*
X82045528Y-126348711D01*
X82183955Y-126345568D01*
X82315552Y-126384676D01*
G36*
X80048221Y-126366015D02*
G01*
X80185061Y-126437968D01*
X80286051Y-126553766D01*
X80321925Y-126628213D01*
X80349839Y-126739992D01*
X80364129Y-126881227D01*
X80365484Y-127035371D01*
X80354595Y-127185879D01*
X80332153Y-127316205D01*
X80298850Y-127409803D01*
X80288615Y-127425922D01*
X80167382Y-127546249D01*
X80023387Y-127618317D01*
X79867139Y-127639408D01*
X79709148Y-127606802D01*
X79665180Y-127587253D01*
X79579556Y-127527012D01*
X79504408Y-127447135D01*
X79497306Y-127437004D01*
X79468439Y-127388181D01*
X79449357Y-127335990D01*
X79438084Y-127267285D01*
X79432645Y-127168918D01*
X79431062Y-127027744D01*
X79431035Y-126996092D01*
X79431107Y-126986019D01*
X79722989Y-126986019D01*
X79724687Y-127119256D01*
X79731372Y-127207674D01*
X79745425Y-127264785D01*
X79769229Y-127304102D01*
X79781379Y-127317241D01*
X79851236Y-127367172D01*
X79919059Y-127364895D01*
X79987635Y-127321584D01*
X80028535Y-127275346D01*
X80052758Y-127207857D01*
X80066361Y-127101433D01*
X80067294Y-127089020D01*
X80069616Y-126896147D01*
X80045350Y-126752900D01*
X79994824Y-126660160D01*
X79918368Y-126618807D01*
X79891076Y-126616552D01*
X79819411Y-126627893D01*
X79770390Y-126667184D01*
X79740418Y-126742326D01*
X79725899Y-126861222D01*
X79722989Y-126986019D01*
X79431107Y-126986019D01*
X79432122Y-126845659D01*
X79436688Y-126740549D01*
X79446688Y-126667714D01*
X79464079Y-126614108D01*
X79490816Y-126566681D01*
X79496724Y-126557864D01*
X79596032Y-126439007D01*
X79704242Y-126370008D01*
X79835981Y-126342619D01*
X79880717Y-126341281D01*
X80048221Y-126366015D01*
G37*
X80048221Y-126366015D02*
X80185061Y-126437968D01*
X80286051Y-126553766D01*
X80321925Y-126628213D01*
X80349839Y-126739992D01*
X80364129Y-126881227D01*
X80365484Y-127035371D01*
X80354595Y-127185879D01*
X80332153Y-127316205D01*
X80298850Y-127409803D01*
X80288615Y-127425922D01*
X80167382Y-127546249D01*
X80023387Y-127618317D01*
X79867139Y-127639408D01*
X79709148Y-127606802D01*
X79665180Y-127587253D01*
X79579556Y-127527012D01*
X79504408Y-127447135D01*
X79497306Y-127437004D01*
X79468439Y-127388181D01*
X79449357Y-127335990D01*
X79438084Y-127267285D01*
X79432645Y-127168918D01*
X79431062Y-127027744D01*
X79431035Y-126996092D01*
X79431107Y-126986019D01*
X79722989Y-126986019D01*
X79724687Y-127119256D01*
X79731372Y-127207674D01*
X79745425Y-127264785D01*
X79769229Y-127304102D01*
X79781379Y-127317241D01*
X79851236Y-127367172D01*
X79919059Y-127364895D01*
X79987635Y-127321584D01*
X80028535Y-127275346D01*
X80052758Y-127207857D01*
X80066361Y-127101433D01*
X80067294Y-127089020D01*
X80069616Y-126896147D01*
X80045350Y-126752900D01*
X79994824Y-126660160D01*
X79918368Y-126618807D01*
X79891076Y-126616552D01*
X79819411Y-126627893D01*
X79770390Y-126667184D01*
X79740418Y-126742326D01*
X79725899Y-126861222D01*
X79722989Y-126986019D01*
X79431107Y-126986019D01*
X79432122Y-126845659D01*
X79436688Y-126740549D01*
X79446688Y-126667714D01*
X79464079Y-126614108D01*
X79490816Y-126566681D01*
X79496724Y-126557864D01*
X79596032Y-126439007D01*
X79704242Y-126370008D01*
X79835981Y-126342619D01*
X79880717Y-126341281D01*
X80048221Y-126366015D01*
G36*
X83417429Y-126377719D02*
G01*
X83511123Y-126431914D01*
X83576264Y-126485707D01*
X83623907Y-126542066D01*
X83656728Y-126610987D01*
X83677406Y-126702468D01*
X83688620Y-126826506D01*
X83693049Y-126993098D01*
X83693563Y-127112851D01*
X83693563Y-127553659D01*
X83569483Y-127609283D01*
X83445402Y-127664907D01*
X83430805Y-127182095D01*
X83424773Y-127001779D01*
X83418445Y-126870901D01*
X83410606Y-126780511D01*
X83400037Y-126721664D01*
X83385523Y-126685413D01*
X83365848Y-126662810D01*
X83359535Y-126657917D01*
X83263888Y-126619706D01*
X83167207Y-126634827D01*
X83109655Y-126674943D01*
X83086245Y-126703370D01*
X83070039Y-126740672D01*
X83059741Y-126797223D01*
X83054049Y-126883394D01*
X83051664Y-127009558D01*
X83051264Y-127141042D01*
X83051186Y-127305999D01*
X83048361Y-127422761D01*
X83038907Y-127501510D01*
X83018940Y-127552431D01*
X82984576Y-127585706D01*
X82931932Y-127611520D01*
X82861617Y-127638344D01*
X82784820Y-127667542D01*
X82793962Y-127149346D01*
X82797643Y-126962539D01*
X82801950Y-126824490D01*
X82808123Y-126725568D01*
X82817402Y-126656145D01*
X82831027Y-126606590D01*
X82850239Y-126567273D01*
X82873402Y-126532584D01*
X82985152Y-126421770D01*
X83121513Y-126357689D01*
X83269825Y-126342339D01*
X83417429Y-126377719D01*
G37*
X83417429Y-126377719D02*
X83511123Y-126431914D01*
X83576264Y-126485707D01*
X83623907Y-126542066D01*
X83656728Y-126610987D01*
X83677406Y-126702468D01*
X83688620Y-126826506D01*
X83693049Y-126993098D01*
X83693563Y-127112851D01*
X83693563Y-127553659D01*
X83569483Y-127609283D01*
X83445402Y-127664907D01*
X83430805Y-127182095D01*
X83424773Y-127001779D01*
X83418445Y-126870901D01*
X83410606Y-126780511D01*
X83400037Y-126721664D01*
X83385523Y-126685413D01*
X83365848Y-126662810D01*
X83359535Y-126657917D01*
X83263888Y-126619706D01*
X83167207Y-126634827D01*
X83109655Y-126674943D01*
X83086245Y-126703370D01*
X83070039Y-126740672D01*
X83059741Y-126797223D01*
X83054049Y-126883394D01*
X83051664Y-127009558D01*
X83051264Y-127141042D01*
X83051186Y-127305999D01*
X83048361Y-127422761D01*
X83038907Y-127501510D01*
X83018940Y-127552431D01*
X82984576Y-127585706D01*
X82931932Y-127611520D01*
X82861617Y-127638344D01*
X82784820Y-127667542D01*
X82793962Y-127149346D01*
X82797643Y-126962539D01*
X82801950Y-126824490D01*
X82808123Y-126725568D01*
X82817402Y-126656145D01*
X82831027Y-126606590D01*
X82850239Y-126567273D01*
X82873402Y-126532584D01*
X82985152Y-126421770D01*
X83121513Y-126357689D01*
X83269825Y-126342339D01*
X83417429Y-126377719D01*
G36*
X81171900Y-126361903D02*
G01*
X81283450Y-126417522D01*
X81381908Y-126519931D01*
X81409023Y-126557864D01*
X81438562Y-126607500D01*
X81457728Y-126661412D01*
X81468693Y-126733364D01*
X81473629Y-126837122D01*
X81474713Y-126974101D01*
X81469818Y-127161815D01*
X81452804Y-127302758D01*
X81420177Y-127407908D01*
X81368442Y-127488243D01*
X81294104Y-127554741D01*
X81288642Y-127558678D01*
X81215380Y-127598953D01*
X81127160Y-127618880D01*
X81014962Y-127623793D01*
X80832567Y-127623793D01*
X80832491Y-127800857D01*
X80830793Y-127899470D01*
X80820450Y-127957314D01*
X80793422Y-127992006D01*
X80741668Y-128021164D01*
X80729239Y-128027121D01*
X80671077Y-128055039D01*
X80626044Y-128072672D01*
X80592559Y-128074194D01*
X80569038Y-128053781D01*
X80553900Y-128005607D01*
X80545563Y-127923846D01*
X80542444Y-127802672D01*
X80542960Y-127636260D01*
X80545529Y-127418785D01*
X80546332Y-127353736D01*
X80549222Y-127129502D01*
X80551812Y-126982821D01*
X80832414Y-126982821D01*
X80833991Y-127107326D01*
X80841000Y-127188787D01*
X80856858Y-127242515D01*
X80884981Y-127283823D01*
X80904075Y-127303971D01*
X80982135Y-127362921D01*
X81051247Y-127367720D01*
X81122560Y-127319038D01*
X81124368Y-127317241D01*
X81153383Y-127279618D01*
X81171033Y-127228484D01*
X81179936Y-127149738D01*
X81182709Y-127029276D01*
X81182759Y-127002588D01*
X81176058Y-126836583D01*
X81154248Y-126721505D01*
X81114765Y-126651254D01*
X81055044Y-126619729D01*
X81020528Y-126616552D01*
X80938611Y-126631460D01*
X80882421Y-126680548D01*
X80848598Y-126770362D01*
X80833780Y-126907445D01*
X80832414Y-126982821D01*
X80551812Y-126982821D01*
X80552287Y-126955952D01*
X80556247Y-126825382D01*
X80561826Y-126730087D01*
X80569746Y-126662364D01*
X80580731Y-126614507D01*
X80595501Y-126578813D01*
X80614782Y-126547578D01*
X80623049Y-126535824D01*
X80732712Y-126424797D01*
X80871365Y-126361847D01*
X81031754Y-126344297D01*
X81171900Y-126361903D01*
G37*
X81171900Y-126361903D02*
X81283450Y-126417522D01*
X81381908Y-126519931D01*
X81409023Y-126557864D01*
X81438562Y-126607500D01*
X81457728Y-126661412D01*
X81468693Y-126733364D01*
X81473629Y-126837122D01*
X81474713Y-126974101D01*
X81469818Y-127161815D01*
X81452804Y-127302758D01*
X81420177Y-127407908D01*
X81368442Y-127488243D01*
X81294104Y-127554741D01*
X81288642Y-127558678D01*
X81215380Y-127598953D01*
X81127160Y-127618880D01*
X81014962Y-127623793D01*
X80832567Y-127623793D01*
X80832491Y-127800857D01*
X80830793Y-127899470D01*
X80820450Y-127957314D01*
X80793422Y-127992006D01*
X80741668Y-128021164D01*
X80729239Y-128027121D01*
X80671077Y-128055039D01*
X80626044Y-128072672D01*
X80592559Y-128074194D01*
X80569038Y-128053781D01*
X80553900Y-128005607D01*
X80545563Y-127923846D01*
X80542444Y-127802672D01*
X80542960Y-127636260D01*
X80545529Y-127418785D01*
X80546332Y-127353736D01*
X80549222Y-127129502D01*
X80551812Y-126982821D01*
X80832414Y-126982821D01*
X80833991Y-127107326D01*
X80841000Y-127188787D01*
X80856858Y-127242515D01*
X80884981Y-127283823D01*
X80904075Y-127303971D01*
X80982135Y-127362921D01*
X81051247Y-127367720D01*
X81122560Y-127319038D01*
X81124368Y-127317241D01*
X81153383Y-127279618D01*
X81171033Y-127228484D01*
X81179936Y-127149738D01*
X81182709Y-127029276D01*
X81182759Y-127002588D01*
X81176058Y-126836583D01*
X81154248Y-126721505D01*
X81114765Y-126651254D01*
X81055044Y-126619729D01*
X81020528Y-126616552D01*
X80938611Y-126631460D01*
X80882421Y-126680548D01*
X80848598Y-126770362D01*
X80833780Y-126907445D01*
X80832414Y-126982821D01*
X80551812Y-126982821D01*
X80552287Y-126955952D01*
X80556247Y-126825382D01*
X80561826Y-126730087D01*
X80569746Y-126662364D01*
X80580731Y-126614507D01*
X80595501Y-126578813D01*
X80614782Y-126547578D01*
X80623049Y-126535824D01*
X80732712Y-126424797D01*
X80871365Y-126361847D01*
X81031754Y-126344297D01*
X81171900Y-126361903D01*
D12*
X53170000Y-45770000D02*
X53170000Y-48370000D01*
X55830000Y-45770000D02*
X55830000Y-48370000D01*
X53170000Y-43170000D02*
X54500000Y-43170000D01*
X53170000Y-48370000D02*
X55830000Y-48370000D01*
X53170000Y-45770000D02*
X55830000Y-45770000D01*
X53170000Y-44500000D02*
X53170000Y-43170000D01*
X128670000Y-96410000D02*
X131330000Y-96410000D01*
X128670000Y-91270000D02*
X128670000Y-96410000D01*
X128670000Y-90000000D02*
X128670000Y-88670000D01*
X128770000Y-104330000D02*
X131370000Y-104330000D01*
X82270000Y-101670000D02*
X84870000Y-101670000D01*
X127500000Y-104330000D02*
X126170000Y-104330000D01*
X128770000Y-104330000D02*
X128770000Y-101670000D01*
X82270000Y-104330000D02*
X84870000Y-104330000D01*
X81000000Y-104330000D02*
X79670000Y-104330000D01*
X82270000Y-104330000D02*
X82270000Y-101670000D01*
X84870000Y-104330000D02*
X84870000Y-101670000D01*
X79670000Y-104330000D02*
X79670000Y-103000000D01*
X131330000Y-91270000D02*
X131330000Y-96410000D01*
X128670000Y-88670000D02*
X130000000Y-88670000D01*
X128670000Y-91270000D02*
X131330000Y-91270000D01*
X128770000Y-101670000D02*
X131370000Y-101670000D01*
X131370000Y-104330000D02*
X131370000Y-101670000D01*
X126170000Y-104330000D02*
X126170000Y-103000000D01*
X94590000Y-54670000D02*
X94590000Y-57330000D01*
X101000000Y-54670000D02*
X102330000Y-54670000D01*
X99730000Y-54670000D02*
X99730000Y-57330000D01*
X99730000Y-57330000D02*
X94590000Y-57330000D01*
X99730000Y-54670000D02*
X94590000Y-54670000D01*
X102330000Y-54670000D02*
X102330000Y-56000000D01*
X106170000Y-50770000D02*
X106170000Y-53370000D01*
X108830000Y-50770000D02*
X108830000Y-53370000D01*
X106170000Y-48170000D02*
X107500000Y-48170000D01*
X106170000Y-53370000D02*
X108830000Y-53370000D01*
X106170000Y-49500000D02*
X106170000Y-48170000D01*
X106170000Y-50770000D02*
X108830000Y-50770000D01*
X107770000Y-92830000D02*
X110370000Y-92830000D01*
X107770000Y-90170000D02*
X110370000Y-90170000D01*
X107770000Y-92830000D02*
X107770000Y-90170000D01*
X106500000Y-92830000D02*
X105170000Y-92830000D01*
X105170000Y-92830000D02*
X105170000Y-91500000D01*
X110370000Y-92830000D02*
X110370000Y-90170000D01*
X94270000Y-92830000D02*
X96870000Y-92830000D01*
X94270000Y-90170000D02*
X96870000Y-90170000D01*
X94270000Y-92830000D02*
X94270000Y-90170000D01*
X93000000Y-92830000D02*
X91670000Y-92830000D01*
X91670000Y-92830000D02*
X91670000Y-91500000D01*
X96870000Y-92830000D02*
X96870000Y-90170000D01*
X52230000Y-56670000D02*
X49630000Y-56670000D01*
X52230000Y-59330000D02*
X49630000Y-59330000D01*
X52230000Y-56670000D02*
X52230000Y-59330000D01*
X53500000Y-56670000D02*
X54830000Y-56670000D01*
X54830000Y-56670000D02*
X54830000Y-58000000D01*
X49630000Y-56670000D02*
X49630000Y-59330000D01*
X63730000Y-56670000D02*
X61130000Y-56670000D01*
X63730000Y-59330000D02*
X61130000Y-59330000D01*
X63730000Y-56670000D02*
X63730000Y-59330000D01*
X65000000Y-56670000D02*
X66330000Y-56670000D01*
X66330000Y-56670000D02*
X66330000Y-58000000D01*
X61130000Y-56670000D02*
X61130000Y-59330000D01*
X128670000Y-82270000D02*
X128670000Y-84870000D01*
X131330000Y-82270000D02*
X131330000Y-84870000D01*
X128670000Y-82270000D02*
X131330000Y-82270000D01*
X128670000Y-81000000D02*
X128670000Y-79670000D01*
X128670000Y-79670000D02*
X130000000Y-79670000D01*
X128670000Y-84870000D02*
X131330000Y-84870000D01*
X79670000Y-85670000D02*
X81000000Y-85670000D01*
X79670000Y-87000000D02*
X79670000Y-85670000D01*
X79670000Y-88270000D02*
X82330000Y-88270000D01*
X82330000Y-88270000D02*
X82330000Y-95950000D01*
X79670000Y-88270000D02*
X79670000Y-95950000D01*
X79670000Y-95950000D02*
X82330000Y-95950000D01*
X77790000Y-93303922D02*
X77790000Y-93821078D01*
X79210000Y-93303922D02*
X79210000Y-93821078D01*
X77258578Y-88790000D02*
X76741422Y-88790000D01*
X77258578Y-90210000D02*
X76741422Y-90210000D01*
X100790000Y-51741422D02*
X100790000Y-52258578D01*
X102210000Y-51741422D02*
X102210000Y-52258578D01*
X95803922Y-54210000D02*
X96321078Y-54210000D01*
X95803922Y-52790000D02*
X96321078Y-52790000D01*
X67360000Y-52842064D02*
X67360000Y-51637936D01*
X64640000Y-52842064D02*
X64640000Y-51637936D01*
X125790000Y-94241422D02*
X125790000Y-94758578D01*
X127210000Y-94241422D02*
X127210000Y-94758578D01*
X125803922Y-90210000D02*
X126321078Y-90210000D01*
X125803922Y-88790000D02*
X126321078Y-88790000D01*
X66755000Y-60615000D02*
X66755000Y-64515000D01*
X64755000Y-60615000D02*
X64755000Y-64515000D01*
X66755000Y-60615000D02*
X64755000Y-60615000D01*
X52785000Y-60615000D02*
X52785000Y-64515000D01*
X50785000Y-60615000D02*
X50785000Y-64515000D01*
X52785000Y-60615000D02*
X50785000Y-60615000D01*
X89845000Y-88610000D02*
X89845000Y-84710000D01*
X91845000Y-88610000D02*
X91845000Y-84710000D01*
X89845000Y-88610000D02*
X91845000Y-88610000D01*
X105410000Y-89245000D02*
X105410000Y-85345000D01*
X107410000Y-89245000D02*
X107410000Y-85345000D01*
X105410000Y-89245000D02*
X107410000Y-89245000D01*
X65190000Y-82190000D02*
X64090000Y-82190000D01*
X65190000Y-82460000D02*
X65190000Y-82190000D01*
X66690000Y-82460000D02*
X65190000Y-82460000D01*
X65190000Y-75830000D02*
X62360000Y-75830000D01*
X65190000Y-75560000D02*
X65190000Y-75830000D01*
X66690000Y-75560000D02*
X65190000Y-75560000D01*
X93910000Y-66035000D02*
X95010000Y-66035000D01*
X93910000Y-65765000D02*
X93910000Y-66035000D01*
X92410000Y-65765000D02*
X93910000Y-65765000D01*
X93910000Y-72395000D02*
X96740000Y-72395000D01*
X93910000Y-72665000D02*
X93910000Y-72395000D01*
X92410000Y-72665000D02*
X93910000Y-72665000D01*
X51855000Y-82190000D02*
X50755000Y-82190000D01*
X51855000Y-82460000D02*
X51855000Y-82190000D01*
X53355000Y-82460000D02*
X51855000Y-82460000D01*
X51855000Y-75830000D02*
X49025000Y-75830000D01*
X51855000Y-75560000D02*
X51855000Y-75830000D01*
X53355000Y-75560000D02*
X51855000Y-75560000D01*
X105975000Y-66035000D02*
X107075000Y-66035000D01*
X105975000Y-65765000D02*
X105975000Y-66035000D01*
X104475000Y-65765000D02*
X105975000Y-65765000D01*
X105975000Y-72395000D02*
X108805000Y-72395000D01*
X105975000Y-72665000D02*
X105975000Y-72395000D01*
X104475000Y-72665000D02*
X105975000Y-72665000D01*
X66865000Y-90045000D02*
X66865000Y-105045000D01*
X44865000Y-90045000D02*
X66865000Y-90045000D01*
X44865000Y-105045000D02*
X44865000Y-90045000D01*
X66865000Y-105045000D02*
X44865000Y-105045000D01*
X117500000Y-105500000D02*
X117500000Y-120500000D01*
X95500000Y-105500000D02*
X117500000Y-105500000D01*
X95500000Y-120500000D02*
X95500000Y-105500000D01*
X117500000Y-120500000D02*
X95500000Y-120500000D01*
X65190000Y-72395000D02*
X64090000Y-72395000D01*
X65190000Y-72665000D02*
X65190000Y-72395000D01*
X66690000Y-72665000D02*
X65190000Y-72665000D01*
X65190000Y-66035000D02*
X62360000Y-66035000D01*
X65190000Y-65765000D02*
X65190000Y-66035000D01*
X66690000Y-65765000D02*
X65190000Y-65765000D01*
X51855000Y-72395000D02*
X50755000Y-72395000D01*
X51855000Y-72665000D02*
X51855000Y-72395000D01*
X53355000Y-72665000D02*
X51855000Y-72665000D01*
X51855000Y-66035000D02*
X49025000Y-66035000D01*
X51855000Y-65765000D02*
X51855000Y-66035000D01*
X53355000Y-65765000D02*
X51855000Y-65765000D01*
X93950000Y-75955000D02*
X95050000Y-75955000D01*
X93950000Y-75685000D02*
X93950000Y-75955000D01*
X92450000Y-75685000D02*
X93950000Y-75685000D01*
X93950000Y-82315000D02*
X96780000Y-82315000D01*
X93950000Y-82585000D02*
X93950000Y-82315000D01*
X92450000Y-82585000D02*
X93950000Y-82585000D01*
X106100000Y-75955000D02*
X107200000Y-75955000D01*
X106100000Y-75685000D02*
X106100000Y-75955000D01*
X104600000Y-75685000D02*
X106100000Y-75685000D01*
X106100000Y-82315000D02*
X108930000Y-82315000D01*
X106100000Y-82585000D02*
X106100000Y-82315000D01*
X104600000Y-82585000D02*
X106100000Y-82585000D01*
X62505000Y-61668922D02*
X62505000Y-62186078D01*
X63925000Y-61668922D02*
X63925000Y-62186078D01*
X94095000Y-88221078D02*
X94095000Y-87703922D01*
X92675000Y-88221078D02*
X92675000Y-87703922D01*
X69210000Y-63821078D02*
X69210000Y-63303922D01*
X67790000Y-63821078D02*
X67790000Y-63303922D01*
X55035000Y-63758578D02*
X55035000Y-63241422D01*
X53615000Y-63758578D02*
X53615000Y-63241422D01*
X89015000Y-85983578D02*
X89015000Y-85466422D01*
X87595000Y-85983578D02*
X87595000Y-85466422D01*
X104580000Y-86286078D02*
X104580000Y-85768922D01*
X103160000Y-86286078D02*
X103160000Y-85768922D01*
X48535000Y-61336422D02*
X48535000Y-61853578D01*
X49955000Y-61336422D02*
X49955000Y-61853578D01*
X109660000Y-88221078D02*
X109660000Y-87703922D01*
X108240000Y-88221078D02*
X108240000Y-87703922D01*
X61988922Y-65480000D02*
X62506078Y-65480000D01*
X61988922Y-64060000D02*
X62506078Y-64060000D01*
X94611078Y-84380000D02*
X94093922Y-84380000D01*
X94611078Y-85800000D02*
X94093922Y-85800000D01*
X48018922Y-65480000D02*
X48536078Y-65480000D01*
X48018922Y-64060000D02*
X48536078Y-64060000D01*
X110146078Y-84380000D02*
X109628922Y-84380000D01*
X110146078Y-85800000D02*
X109628922Y-85800000D01*
X100425000Y-48475000D02*
X100425000Y-45025000D01*
X100425000Y-48475000D02*
X100425000Y-50425000D01*
X95305000Y-48475000D02*
X95305000Y-46525000D01*
X95305000Y-48475000D02*
X95305000Y-50425000D01*
X43560000Y-116810000D02*
X67560000Y-116810000D01*
X43560000Y-119810000D02*
X43560000Y-116810000D01*
X67560000Y-119810000D02*
X67560000Y-116810000D01*
X43560000Y-119810000D02*
X67560000Y-119810000D01*
X43560000Y-110810000D02*
X67560000Y-110810000D01*
X43560000Y-113810000D02*
X43560000Y-110810000D01*
X67560000Y-113810000D02*
X67560000Y-110810000D01*
X43560000Y-113810000D02*
X67560000Y-113810000D01*
X93635000Y-132175000D02*
X117635000Y-132175000D01*
X93635000Y-135175000D02*
X93635000Y-132175000D01*
X117635000Y-135175000D02*
X117635000Y-132175000D01*
X93635000Y-135175000D02*
X117635000Y-135175000D01*
X93635000Y-126175000D02*
X117635000Y-126175000D01*
X93635000Y-129175000D02*
X93635000Y-126175000D01*
X117635000Y-129175000D02*
X117635000Y-126175000D01*
X93635000Y-129175000D02*
X117635000Y-129175000D01*
X73525000Y-90440000D02*
X70075000Y-90440000D01*
X73525000Y-90440000D02*
X75475000Y-90440000D01*
X73525000Y-95560000D02*
X71575000Y-95560000D01*
X73525000Y-95560000D02*
X75475000Y-95560000D01*
X122435000Y-90645000D02*
X118985000Y-90645000D01*
X122435000Y-90645000D02*
X124385000Y-90645000D01*
X122435000Y-95765000D02*
X120485000Y-95765000D01*
X122435000Y-95765000D02*
X124385000Y-95765000D01*
X121745000Y-78845000D02*
X122845000Y-78845000D01*
X121745000Y-78575000D02*
X121745000Y-78845000D01*
X120245000Y-78575000D02*
X121745000Y-78575000D01*
X121745000Y-85205000D02*
X124575000Y-85205000D01*
X121745000Y-85475000D02*
X121745000Y-85205000D01*
X120245000Y-85475000D02*
X121745000Y-85475000D01*
X78303922Y-101210000D02*
X78821078Y-101210000D01*
X78303922Y-99790000D02*
X78821078Y-99790000D01*
X81678922Y-101210000D02*
X82196078Y-101210000D01*
X81678922Y-99790000D02*
X82196078Y-99790000D01*
X124303922Y-101210000D02*
X124821078Y-101210000D01*
X124303922Y-99790000D02*
X124821078Y-99790000D01*
X128178922Y-101210000D02*
X128696078Y-101210000D01*
X128178922Y-99790000D02*
X128696078Y-99790000D01*
X109790000Y-46741422D02*
X109790000Y-47258578D01*
X111210000Y-46741422D02*
X111210000Y-47258578D01*
X109790000Y-50678922D02*
X109790000Y-51196078D01*
X111210000Y-50678922D02*
X111210000Y-51196078D01*
D14*
X52172998Y-141929400D02*
X64826998Y-141929400D01*
X64826998Y-141929400D02*
X64826998Y-122473000D01*
X64826998Y-122473000D02*
X52172998Y-122473000D01*
X52172998Y-122473000D02*
X52172998Y-141929400D01*
X50775997Y-125500000D02*
G75*
G03*
X50775997Y-125500000I-381000J0D01*
G01*
X64672998Y-141929400D02*
X77326998Y-141929400D01*
X77326998Y-141929400D02*
X77326998Y-122473000D01*
X77326998Y-122473000D02*
X64672998Y-122473000D01*
X64672998Y-122473000D02*
X64672998Y-141929400D01*
X63275997Y-125500000D02*
G75*
G03*
X63275997Y-125500000I-381000J0D01*
G01*
X131929400Y-63827002D02*
X131929400Y-51173002D01*
X131929400Y-51173002D02*
X112473000Y-51173002D01*
X112473000Y-51173002D02*
X112473000Y-63827002D01*
X112473000Y-63827002D02*
X131929400Y-63827002D01*
X115881000Y-65605003D02*
G75*
G03*
X115881000Y-65605003I-381000J0D01*
G01*
X131929400Y-76327002D02*
X131929400Y-63673002D01*
X131929400Y-63673002D02*
X112473000Y-63673002D01*
X112473000Y-63673002D02*
X112473000Y-76327002D01*
X112473000Y-76327002D02*
X131929400Y-76327002D01*
X115881000Y-78105003D02*
G75*
G03*
X115881000Y-78105003I-381000J0D01*
G01*
D12*
X79030000Y-84650000D02*
X75430000Y-84650000D01*
X75391522Y-84661522D02*
G75*
G03*
X77230000Y-89100000I1838478J-1838478D01*
G01*
X79068478Y-84661522D02*
G75*
G02*
X77230000Y-89100000I-1838478J-1838478D01*
G01*
X63960000Y-52196078D02*
X63960000Y-51678922D01*
X62540000Y-52196078D02*
X62540000Y-51678922D01*
X63960000Y-47571078D02*
X63960000Y-47053922D01*
X62540000Y-47571078D02*
X62540000Y-47053922D01*
X70922937Y-110175001D02*
X72127065Y-110175001D01*
X70922937Y-107455001D02*
X72127065Y-107455001D01*
X124297063Y-112140000D02*
X123092935Y-112140000D01*
X124297063Y-114860000D02*
X123092935Y-114860000D01*
X70922937Y-118860000D02*
X72127065Y-118860000D01*
X70922937Y-116140000D02*
X72127065Y-116140000D01*
X124297063Y-108114999D02*
X123092935Y-108114999D01*
X124297063Y-110834999D02*
X123092935Y-110834999D01*
X70922937Y-114360000D02*
X72127065Y-114360000D01*
X70922937Y-111640000D02*
X72127065Y-111640000D01*
X124297063Y-116640000D02*
X123092935Y-116640000D01*
X124297063Y-119360000D02*
X123092935Y-119360000D01*
X67360000Y-48002064D02*
X67360000Y-46797936D01*
X64640000Y-48002064D02*
X64640000Y-46797936D01*
X71160000Y-52842064D02*
X71160000Y-51637936D01*
X68440000Y-52842064D02*
X68440000Y-51637936D01*
X71160000Y-48002064D02*
X71160000Y-46797936D01*
X68440000Y-48002064D02*
X68440000Y-46797936D01*
X74960000Y-52842064D02*
X74960000Y-51637936D01*
X72240000Y-52842064D02*
X72240000Y-51637936D01*
X74960000Y-48002064D02*
X74960000Y-46797936D01*
X72240000Y-48002064D02*
X72240000Y-46797936D01*
X78760000Y-52842064D02*
X78760000Y-51637936D01*
X76040000Y-52842064D02*
X76040000Y-51637936D01*
X78760000Y-48002064D02*
X78760000Y-46797936D01*
X76040000Y-48002064D02*
X76040000Y-46797936D01*
X82560000Y-52842064D02*
X82560000Y-51637936D01*
X79840000Y-52842064D02*
X79840000Y-51637936D01*
X82560000Y-48002064D02*
X82560000Y-46797936D01*
X79840000Y-48002064D02*
X79840000Y-46797936D01*
X86360000Y-52842064D02*
X86360000Y-51637936D01*
X83640000Y-52842064D02*
X83640000Y-51637936D01*
X86360000Y-48002064D02*
X86360000Y-46797936D01*
X83640000Y-48002064D02*
X83640000Y-46797936D01*
D10*
X51500000Y-46261904D02*
X51452380Y-46357142D01*
X51452380Y-46500000D01*
X51500000Y-46642857D01*
X51595238Y-46738095D01*
X51690476Y-46785714D01*
X51880952Y-46833333D01*
X52023809Y-46833333D01*
X52214285Y-46785714D01*
X52309523Y-46738095D01*
X52404761Y-46642857D01*
X52452380Y-46500000D01*
X52452380Y-46404761D01*
X52404761Y-46261904D01*
X52357142Y-46214285D01*
X52023809Y-46214285D01*
X52023809Y-46404761D01*
X52452380Y-45785714D02*
X51452380Y-45785714D01*
X52452380Y-45214285D01*
X51452380Y-45214285D01*
X52452380Y-44738095D02*
X51452380Y-44738095D01*
X51452380Y-44500000D01*
X51500000Y-44357142D01*
X51595238Y-44261904D01*
X51690476Y-44214285D01*
X51880952Y-44166666D01*
X52023809Y-44166666D01*
X52214285Y-44214285D01*
X52309523Y-44261904D01*
X52404761Y-44357142D01*
X52452380Y-44500000D01*
X52452380Y-44738095D01*
X80714285Y-106071428D02*
X81476190Y-106071428D01*
X81095238Y-106452380D02*
X81095238Y-105690476D01*
X81809523Y-105452380D02*
X82142857Y-106452380D01*
X82476190Y-105452380D01*
X83333333Y-106452380D02*
X82761904Y-106452380D01*
X83047619Y-106452380D02*
X83047619Y-105452380D01*
X82952380Y-105595238D01*
X82857142Y-105690476D01*
X82761904Y-105738095D01*
X128452380Y-97785714D02*
X127452380Y-97785714D01*
X127452380Y-97547619D01*
X127500000Y-97404761D01*
X127595238Y-97309523D01*
X127690476Y-97261904D01*
X127880952Y-97214285D01*
X128023809Y-97214285D01*
X128214285Y-97261904D01*
X128309523Y-97309523D01*
X128404761Y-97404761D01*
X128452380Y-97547619D01*
X128452380Y-97785714D01*
X127500000Y-96261904D02*
X127452380Y-96357142D01*
X127452380Y-96500000D01*
X127500000Y-96642857D01*
X127595238Y-96738095D01*
X127690476Y-96785714D01*
X127880952Y-96833333D01*
X128023809Y-96833333D01*
X128214285Y-96785714D01*
X128309523Y-96738095D01*
X128404761Y-96642857D01*
X128452380Y-96500000D01*
X128452380Y-96404761D01*
X128404761Y-96261904D01*
X128357142Y-96214285D01*
X128023809Y-96214285D01*
X128023809Y-96404761D01*
X128452380Y-95785714D02*
X127452380Y-95785714D01*
X128452380Y-95214285D01*
X127452380Y-95214285D01*
X128452380Y-94738095D02*
X127452380Y-94738095D01*
X127452380Y-94500000D01*
X127500000Y-94357142D01*
X127595238Y-94261904D01*
X127690476Y-94214285D01*
X127880952Y-94166666D01*
X128023809Y-94166666D01*
X128214285Y-94214285D01*
X128309523Y-94261904D01*
X128404761Y-94357142D01*
X128452380Y-94500000D01*
X128452380Y-94738095D01*
X128452380Y-92976190D02*
X127452380Y-92976190D01*
X127547619Y-92547619D02*
X127500000Y-92500000D01*
X127452380Y-92404761D01*
X127452380Y-92166666D01*
X127500000Y-92071428D01*
X127547619Y-92023809D01*
X127642857Y-91976190D01*
X127738095Y-91976190D01*
X127880952Y-92023809D01*
X128452380Y-92595238D01*
X128452380Y-91976190D01*
X128071428Y-90785714D02*
X128071428Y-90023809D01*
X128452380Y-90404761D02*
X127690476Y-90404761D01*
X127452380Y-89071428D02*
X127452380Y-89547619D01*
X127928571Y-89595238D01*
X127880952Y-89547619D01*
X127833333Y-89452380D01*
X127833333Y-89214285D01*
X127880952Y-89119047D01*
X127928571Y-89071428D01*
X128023809Y-89023809D01*
X128261904Y-89023809D01*
X128357142Y-89071428D01*
X128404761Y-89119047D01*
X128452380Y-89214285D01*
X128452380Y-89452380D01*
X128404761Y-89547619D01*
X128357142Y-89595238D01*
X127452380Y-88738095D02*
X128452380Y-88404761D01*
X127452380Y-88071428D01*
X128452380Y-87738095D02*
X127452380Y-87738095D01*
X127452380Y-87500000D01*
X127500000Y-87357142D01*
X127595238Y-87261904D01*
X127690476Y-87214285D01*
X127880952Y-87166666D01*
X128023809Y-87166666D01*
X128214285Y-87214285D01*
X128309523Y-87261904D01*
X128404761Y-87357142D01*
X128452380Y-87500000D01*
X128452380Y-87738095D01*
X127214285Y-106071428D02*
X127976190Y-106071428D01*
X127595238Y-106452380D02*
X127595238Y-105690476D01*
X128309523Y-105452380D02*
X128642857Y-106452380D01*
X128976190Y-105452380D01*
X129261904Y-105547619D02*
X129309523Y-105500000D01*
X129404761Y-105452380D01*
X129642857Y-105452380D01*
X129738095Y-105500000D01*
X129785714Y-105547619D01*
X129833333Y-105642857D01*
X129833333Y-105738095D01*
X129785714Y-105880952D01*
X129214285Y-106452380D01*
X129833333Y-106452380D01*
X84452380Y-97500000D02*
X83452380Y-97500000D01*
X83452380Y-97261904D01*
X83500000Y-97119047D01*
X83595238Y-97023809D01*
X83690476Y-96976190D01*
X83880952Y-96928571D01*
X84023809Y-96928571D01*
X84214285Y-96976190D01*
X84309523Y-97023809D01*
X84404761Y-97119047D01*
X84452380Y-97261904D01*
X84452380Y-97500000D01*
X83500000Y-95976190D02*
X83452380Y-96071428D01*
X83452380Y-96214285D01*
X83500000Y-96357142D01*
X83595238Y-96452380D01*
X83690476Y-96500000D01*
X83880952Y-96547619D01*
X84023809Y-96547619D01*
X84214285Y-96500000D01*
X84309523Y-96452380D01*
X84404761Y-96357142D01*
X84452380Y-96214285D01*
X84452380Y-96119047D01*
X84404761Y-95976190D01*
X84357142Y-95928571D01*
X84023809Y-95928571D01*
X84023809Y-96119047D01*
X84452380Y-95500000D02*
X83452380Y-95500000D01*
X84452380Y-94928571D01*
X83452380Y-94928571D01*
X84452380Y-94452380D02*
X83452380Y-94452380D01*
X83452380Y-94214285D01*
X83500000Y-94071428D01*
X83595238Y-93976190D01*
X83690476Y-93928571D01*
X83880952Y-93880952D01*
X84023809Y-93880952D01*
X84214285Y-93928571D01*
X84309523Y-93976190D01*
X84404761Y-94071428D01*
X84452380Y-94214285D01*
X84452380Y-94452380D01*
X83452380Y-92833333D02*
X83452380Y-92261904D01*
X84452380Y-92547619D02*
X83452380Y-92547619D01*
X83785714Y-91928571D02*
X84785714Y-91928571D01*
X83833333Y-91928571D02*
X83785714Y-91833333D01*
X83785714Y-91642857D01*
X83833333Y-91547619D01*
X83880952Y-91500000D01*
X83976190Y-91452380D01*
X84261904Y-91452380D01*
X84357142Y-91500000D01*
X84404761Y-91547619D01*
X84452380Y-91642857D01*
X84452380Y-91833333D01*
X84404761Y-91928571D01*
X84452380Y-90261904D02*
X83452380Y-90261904D01*
X84452380Y-89261904D02*
X84452380Y-89833333D01*
X84452380Y-89547619D02*
X83452380Y-89547619D01*
X83595238Y-89642857D01*
X83690476Y-89738095D01*
X83738095Y-89833333D01*
X84071428Y-88071428D02*
X84071428Y-87309523D01*
X84452380Y-87690476D02*
X83690476Y-87690476D01*
X83452380Y-86357142D02*
X83452380Y-86833333D01*
X83928571Y-86880952D01*
X83880952Y-86833333D01*
X83833333Y-86738095D01*
X83833333Y-86500000D01*
X83880952Y-86404761D01*
X83928571Y-86357142D01*
X84023809Y-86309523D01*
X84261904Y-86309523D01*
X84357142Y-86357142D01*
X84404761Y-86404761D01*
X84452380Y-86500000D01*
X84452380Y-86738095D01*
X84404761Y-86833333D01*
X84357142Y-86880952D01*
X83452380Y-86023809D02*
X84452380Y-85690476D01*
X83452380Y-85357142D01*
X84452380Y-85023809D02*
X83452380Y-85023809D01*
X83452380Y-84785714D01*
X83500000Y-84642857D01*
X83595238Y-84547619D01*
X83690476Y-84500000D01*
X83880952Y-84452380D01*
X84023809Y-84452380D01*
X84214285Y-84500000D01*
X84309523Y-84547619D01*
X84404761Y-84642857D01*
X84452380Y-84785714D01*
X84452380Y-85023809D01*
X127952380Y-84738095D02*
X126952380Y-84738095D01*
X127952380Y-84166666D01*
X126952380Y-84166666D01*
X127904761Y-83261904D02*
X127952380Y-83357142D01*
X127952380Y-83547619D01*
X127904761Y-83642857D01*
X127857142Y-83690476D01*
X127761904Y-83738095D01*
X127476190Y-83738095D01*
X127380952Y-83690476D01*
X127333333Y-83642857D01*
X127285714Y-83547619D01*
X127285714Y-83357142D01*
X127333333Y-83261904D01*
X127952380Y-82833333D02*
X127285714Y-82833333D01*
X127380952Y-82833333D02*
X127333333Y-82785714D01*
X127285714Y-82690476D01*
X127285714Y-82547619D01*
X127333333Y-82452380D01*
X127428571Y-82404761D01*
X127952380Y-82404761D01*
X127428571Y-82404761D02*
X127333333Y-82357142D01*
X127285714Y-82261904D01*
X127285714Y-82119047D01*
X127333333Y-82023809D01*
X127428571Y-81976190D01*
X127952380Y-81976190D01*
X127952380Y-81071428D02*
X126952380Y-81071428D01*
X127904761Y-81071428D02*
X127952380Y-81166666D01*
X127952380Y-81357142D01*
X127904761Y-81452380D01*
X127857142Y-81500000D01*
X127761904Y-81547619D01*
X127476190Y-81547619D01*
X127380952Y-81500000D01*
X127333333Y-81452380D01*
X127285714Y-81357142D01*
X127285714Y-81166666D01*
X127333333Y-81071428D01*
X127000000Y-79309523D02*
X126952380Y-79404761D01*
X126952380Y-79547619D01*
X127000000Y-79690476D01*
X127095238Y-79785714D01*
X127190476Y-79833333D01*
X127380952Y-79880952D01*
X127523809Y-79880952D01*
X127714285Y-79833333D01*
X127809523Y-79785714D01*
X127904761Y-79690476D01*
X127952380Y-79547619D01*
X127952380Y-79452380D01*
X127904761Y-79309523D01*
X127857142Y-79261904D01*
X127523809Y-79261904D01*
X127523809Y-79452380D01*
X127952380Y-78833333D02*
X126952380Y-78833333D01*
X127952380Y-78261904D01*
X126952380Y-78261904D01*
X127952380Y-77785714D02*
X126952380Y-77785714D01*
X126952380Y-77547619D01*
X127000000Y-77404761D01*
X127095238Y-77309523D01*
X127190476Y-77261904D01*
X127380952Y-77214285D01*
X127523809Y-77214285D01*
X127714285Y-77261904D01*
X127809523Y-77309523D01*
X127904761Y-77404761D01*
X127952380Y-77547619D01*
X127952380Y-77785714D01*
X67333333Y-58404761D02*
X67476190Y-58452380D01*
X67714285Y-58452380D01*
X67809523Y-58404761D01*
X67857142Y-58357142D01*
X67904761Y-58261904D01*
X67904761Y-58166666D01*
X67857142Y-58071428D01*
X67809523Y-58023809D01*
X67714285Y-57976190D01*
X67523809Y-57928571D01*
X67428571Y-57880952D01*
X67380952Y-57833333D01*
X67333333Y-57738095D01*
X67333333Y-57642857D01*
X67380952Y-57547619D01*
X67428571Y-57500000D01*
X67523809Y-57452380D01*
X67761904Y-57452380D01*
X67904761Y-57500000D01*
X68333333Y-58452380D02*
X68333333Y-57452380D01*
X68904761Y-58452380D01*
X68904761Y-57452380D01*
X69904761Y-58452380D02*
X69333333Y-58452380D01*
X69619047Y-58452380D02*
X69619047Y-57452380D01*
X69523809Y-57595238D01*
X69428571Y-57690476D01*
X69333333Y-57738095D01*
X71095238Y-58452380D02*
X71095238Y-57452380D01*
X71095238Y-57928571D02*
X71666666Y-57928571D01*
X71666666Y-58452380D02*
X71666666Y-57452380D01*
X72666666Y-58452380D02*
X72095238Y-58452380D01*
X72380952Y-58452380D02*
X72380952Y-57452380D01*
X72285714Y-57595238D01*
X72190476Y-57690476D01*
X72095238Y-57738095D01*
X49976190Y-55000000D02*
X49880952Y-54952380D01*
X49738095Y-54952380D01*
X49595238Y-55000000D01*
X49500000Y-55095238D01*
X49452380Y-55190476D01*
X49404761Y-55380952D01*
X49404761Y-55523809D01*
X49452380Y-55714285D01*
X49500000Y-55809523D01*
X49595238Y-55904761D01*
X49738095Y-55952380D01*
X49833333Y-55952380D01*
X49976190Y-55904761D01*
X50023809Y-55857142D01*
X50023809Y-55523809D01*
X49833333Y-55523809D01*
X50452380Y-55952380D02*
X50452380Y-54952380D01*
X51023809Y-55952380D01*
X51023809Y-54952380D01*
X51500000Y-55952380D02*
X51500000Y-54952380D01*
X51738095Y-54952380D01*
X51880952Y-55000000D01*
X51976190Y-55095238D01*
X52023809Y-55190476D01*
X52071428Y-55380952D01*
X52071428Y-55523809D01*
X52023809Y-55714285D01*
X51976190Y-55809523D01*
X51880952Y-55904761D01*
X51738095Y-55952380D01*
X51500000Y-55952380D01*
X53738095Y-55952380D02*
X53261904Y-55952380D01*
X53261904Y-54952380D01*
X54595238Y-55952380D02*
X54023809Y-55952380D01*
X54309523Y-55952380D02*
X54309523Y-54952380D01*
X54214285Y-55095238D01*
X54119047Y-55190476D01*
X54023809Y-55238095D01*
X91380952Y-94952380D02*
X91380952Y-93952380D01*
X91380952Y-94428571D02*
X91952380Y-94428571D01*
X91952380Y-94952380D02*
X91952380Y-93952380D01*
X92380952Y-94047619D02*
X92428571Y-94000000D01*
X92523809Y-93952380D01*
X92761904Y-93952380D01*
X92857142Y-94000000D01*
X92904761Y-94047619D01*
X92952380Y-94142857D01*
X92952380Y-94238095D01*
X92904761Y-94380952D01*
X92333333Y-94952380D01*
X92952380Y-94952380D01*
X94095238Y-94904761D02*
X94238095Y-94952380D01*
X94476190Y-94952380D01*
X94571428Y-94904761D01*
X94619047Y-94857142D01*
X94666666Y-94761904D01*
X94666666Y-94666666D01*
X94619047Y-94571428D01*
X94571428Y-94523809D01*
X94476190Y-94476190D01*
X94285714Y-94428571D01*
X94190476Y-94380952D01*
X94142857Y-94333333D01*
X94095238Y-94238095D01*
X94095238Y-94142857D01*
X94142857Y-94047619D01*
X94190476Y-94000000D01*
X94285714Y-93952380D01*
X94523809Y-93952380D01*
X94666666Y-94000000D01*
X95095238Y-94952380D02*
X95095238Y-93952380D01*
X95666666Y-94952380D01*
X95666666Y-93952380D01*
X96095238Y-94047619D02*
X96142857Y-94000000D01*
X96238095Y-93952380D01*
X96476190Y-93952380D01*
X96571428Y-94000000D01*
X96619047Y-94047619D01*
X96666666Y-94142857D01*
X96666666Y-94238095D01*
X96619047Y-94380952D01*
X96047619Y-94952380D01*
X96666666Y-94952380D01*
X105428571Y-94952380D02*
X104952380Y-94952380D01*
X104952380Y-93952380D01*
X105714285Y-94047619D02*
X105761904Y-94000000D01*
X105857142Y-93952380D01*
X106095238Y-93952380D01*
X106190476Y-94000000D01*
X106238095Y-94047619D01*
X106285714Y-94142857D01*
X106285714Y-94238095D01*
X106238095Y-94380952D01*
X105666666Y-94952380D01*
X106285714Y-94952380D01*
X108000000Y-94000000D02*
X107904761Y-93952380D01*
X107761904Y-93952380D01*
X107619047Y-94000000D01*
X107523809Y-94095238D01*
X107476190Y-94190476D01*
X107428571Y-94380952D01*
X107428571Y-94523809D01*
X107476190Y-94714285D01*
X107523809Y-94809523D01*
X107619047Y-94904761D01*
X107761904Y-94952380D01*
X107857142Y-94952380D01*
X108000000Y-94904761D01*
X108047619Y-94857142D01*
X108047619Y-94523809D01*
X107857142Y-94523809D01*
X108476190Y-94952380D02*
X108476190Y-93952380D01*
X109047619Y-94952380D01*
X109047619Y-93952380D01*
X109523809Y-94952380D02*
X109523809Y-93952380D01*
X109761904Y-93952380D01*
X109904761Y-94000000D01*
X110000000Y-94095238D01*
X110047619Y-94190476D01*
X110095238Y-94380952D01*
X110095238Y-94523809D01*
X110047619Y-94714285D01*
X110000000Y-94809523D01*
X109904761Y-94904761D01*
X109761904Y-94952380D01*
X109523809Y-94952380D01*
X103952380Y-53380952D02*
X104952380Y-53047619D01*
X103952380Y-52714285D01*
X104952380Y-52380952D02*
X103952380Y-52380952D01*
X104428571Y-52380952D02*
X104428571Y-51809523D01*
X104952380Y-51809523D02*
X103952380Y-51809523D01*
X104285714Y-50904761D02*
X105095238Y-50904761D01*
X105190476Y-50952380D01*
X105238095Y-51000000D01*
X105285714Y-51095238D01*
X105285714Y-51238095D01*
X105238095Y-51333333D01*
X104904761Y-50904761D02*
X104952380Y-51000000D01*
X104952380Y-51190476D01*
X104904761Y-51285714D01*
X104857142Y-51333333D01*
X104761904Y-51380952D01*
X104476190Y-51380952D01*
X104380952Y-51333333D01*
X104333333Y-51285714D01*
X104285714Y-51190476D01*
X104285714Y-51000000D01*
X104333333Y-50904761D01*
X104952380Y-50428571D02*
X103952380Y-50428571D01*
X104952380Y-50000000D02*
X104428571Y-50000000D01*
X104333333Y-50047619D01*
X104285714Y-50142857D01*
X104285714Y-50285714D01*
X104333333Y-50380952D01*
X104380952Y-50428571D01*
X104571428Y-49523809D02*
X104571428Y-48761904D01*
X104952380Y-49142857D02*
X104190476Y-49142857D01*
X91761904Y-59452380D02*
X91761904Y-58452380D01*
X92000000Y-58452380D01*
X92142857Y-58500000D01*
X92238095Y-58595238D01*
X92285714Y-58690476D01*
X92333333Y-58880952D01*
X92333333Y-59023809D01*
X92285714Y-59214285D01*
X92238095Y-59309523D01*
X92142857Y-59404761D01*
X92000000Y-59452380D01*
X91761904Y-59452380D01*
X93285714Y-58500000D02*
X93190476Y-58452380D01*
X93047619Y-58452380D01*
X92904761Y-58500000D01*
X92809523Y-58595238D01*
X92761904Y-58690476D01*
X92714285Y-58880952D01*
X92714285Y-59023809D01*
X92761904Y-59214285D01*
X92809523Y-59309523D01*
X92904761Y-59404761D01*
X93047619Y-59452380D01*
X93142857Y-59452380D01*
X93285714Y-59404761D01*
X93333333Y-59357142D01*
X93333333Y-59023809D01*
X93142857Y-59023809D01*
X93761904Y-59452380D02*
X93761904Y-58452380D01*
X94333333Y-59452380D01*
X94333333Y-58452380D01*
X94809523Y-59452380D02*
X94809523Y-58452380D01*
X95047619Y-58452380D01*
X95190476Y-58500000D01*
X95285714Y-58595238D01*
X95333333Y-58690476D01*
X95380952Y-58880952D01*
X95380952Y-59023809D01*
X95333333Y-59214285D01*
X95285714Y-59309523D01*
X95190476Y-59404761D01*
X95047619Y-59452380D01*
X94809523Y-59452380D01*
X96571428Y-59452380D02*
X96571428Y-58452380D01*
X97047619Y-59452380D02*
X97047619Y-58452380D01*
X97047619Y-58928571D02*
X97619047Y-58928571D01*
X97619047Y-59452380D02*
X97619047Y-58452380D01*
X98523809Y-58785714D02*
X98523809Y-59595238D01*
X98476190Y-59690476D01*
X98428571Y-59738095D01*
X98333333Y-59785714D01*
X98190476Y-59785714D01*
X98095238Y-59738095D01*
X98523809Y-59404761D02*
X98428571Y-59452380D01*
X98238095Y-59452380D01*
X98142857Y-59404761D01*
X98095238Y-59357142D01*
X98047619Y-59261904D01*
X98047619Y-58976190D01*
X98095238Y-58880952D01*
X98142857Y-58833333D01*
X98238095Y-58785714D01*
X98428571Y-58785714D01*
X98523809Y-58833333D01*
X99000000Y-59452380D02*
X99000000Y-58452380D01*
X99428571Y-59452380D02*
X99428571Y-58928571D01*
X99380952Y-58833333D01*
X99285714Y-58785714D01*
X99142857Y-58785714D01*
X99047619Y-58833333D01*
X99000000Y-58880952D01*
X100666666Y-59071428D02*
X101428571Y-59071428D01*
X101047619Y-59452380D02*
X101047619Y-58690476D01*
X102380952Y-58452380D02*
X101904761Y-58452380D01*
X101857142Y-58928571D01*
X101904761Y-58880952D01*
X102000000Y-58833333D01*
X102238095Y-58833333D01*
X102333333Y-58880952D01*
X102380952Y-58928571D01*
X102428571Y-59023809D01*
X102428571Y-59261904D01*
X102380952Y-59357142D01*
X102333333Y-59404761D01*
X102238095Y-59452380D01*
X102000000Y-59452380D01*
X101904761Y-59404761D01*
X101857142Y-59357142D01*
X102714285Y-58452380D02*
X103047619Y-59452380D01*
X103380952Y-58452380D01*
X103714285Y-59452380D02*
X103714285Y-58452380D01*
X103952380Y-58452380D01*
X104095238Y-58500000D01*
X104190476Y-58595238D01*
X104238095Y-58690476D01*
X104285714Y-58880952D01*
X104285714Y-59023809D01*
X104238095Y-59214285D01*
X104190476Y-59309523D01*
X104095238Y-59404761D01*
X103952380Y-59452380D01*
X103714285Y-59452380D01*
X78333333Y-91607142D02*
X78285714Y-91654761D01*
X78142857Y-91702380D01*
X78047619Y-91702380D01*
X77904761Y-91654761D01*
X77809523Y-91559523D01*
X77761904Y-91464285D01*
X77714285Y-91273809D01*
X77714285Y-91130952D01*
X77761904Y-90940476D01*
X77809523Y-90845238D01*
X77904761Y-90750000D01*
X78047619Y-90702380D01*
X78142857Y-90702380D01*
X78285714Y-90750000D01*
X78333333Y-90797619D01*
X79285714Y-91702380D02*
X78714285Y-91702380D01*
X79000000Y-91702380D02*
X79000000Y-90702380D01*
X78904761Y-90845238D01*
X78809523Y-90940476D01*
X78714285Y-90988095D01*
X73333333Y-89857142D02*
X73285714Y-89904761D01*
X73142857Y-89952380D01*
X73047619Y-89952380D01*
X72904761Y-89904761D01*
X72809523Y-89809523D01*
X72761904Y-89714285D01*
X72714285Y-89523809D01*
X72714285Y-89380952D01*
X72761904Y-89190476D01*
X72809523Y-89095238D01*
X72904761Y-89000000D01*
X73047619Y-88952380D01*
X73142857Y-88952380D01*
X73285714Y-89000000D01*
X73333333Y-89047619D01*
X73714285Y-89047619D02*
X73761904Y-89000000D01*
X73857142Y-88952380D01*
X74095238Y-88952380D01*
X74190476Y-89000000D01*
X74238095Y-89047619D01*
X74285714Y-89142857D01*
X74285714Y-89238095D01*
X74238095Y-89380952D01*
X73666666Y-89952380D01*
X74285714Y-89952380D01*
X101833333Y-48857142D02*
X101785714Y-48904761D01*
X101642857Y-48952380D01*
X101547619Y-48952380D01*
X101404761Y-48904761D01*
X101309523Y-48809523D01*
X101261904Y-48714285D01*
X101214285Y-48523809D01*
X101214285Y-48380952D01*
X101261904Y-48190476D01*
X101309523Y-48095238D01*
X101404761Y-48000000D01*
X101547619Y-47952380D01*
X101642857Y-47952380D01*
X101785714Y-48000000D01*
X101833333Y-48047619D01*
X102690476Y-48285714D02*
X102690476Y-48952380D01*
X102452380Y-47904761D02*
X102214285Y-48619047D01*
X102833333Y-48619047D01*
X98583333Y-53857142D02*
X98535714Y-53904761D01*
X98392857Y-53952380D01*
X98297619Y-53952380D01*
X98154761Y-53904761D01*
X98059523Y-53809523D01*
X98011904Y-53714285D01*
X97964285Y-53523809D01*
X97964285Y-53380952D01*
X98011904Y-53190476D01*
X98059523Y-53095238D01*
X98154761Y-53000000D01*
X98297619Y-52952380D01*
X98392857Y-52952380D01*
X98535714Y-53000000D01*
X98583333Y-53047619D01*
X99488095Y-52952380D02*
X99011904Y-52952380D01*
X98964285Y-53428571D01*
X99011904Y-53380952D01*
X99107142Y-53333333D01*
X99345238Y-53333333D01*
X99440476Y-53380952D01*
X99488095Y-53428571D01*
X99535714Y-53523809D01*
X99535714Y-53761904D01*
X99488095Y-53857142D01*
X99440476Y-53904761D01*
X99345238Y-53952380D01*
X99107142Y-53952380D01*
X99011904Y-53904761D01*
X98964285Y-53857142D01*
X64857142Y-55857142D02*
X64809523Y-55904761D01*
X64666666Y-55952380D01*
X64571428Y-55952380D01*
X64428571Y-55904761D01*
X64333333Y-55809523D01*
X64285714Y-55714285D01*
X64238095Y-55523809D01*
X64238095Y-55380952D01*
X64285714Y-55190476D01*
X64333333Y-55095238D01*
X64428571Y-55000000D01*
X64571428Y-54952380D01*
X64666666Y-54952380D01*
X64809523Y-55000000D01*
X64857142Y-55047619D01*
X65809523Y-55952380D02*
X65238095Y-55952380D01*
X65523809Y-55952380D02*
X65523809Y-54952380D01*
X65428571Y-55095238D01*
X65333333Y-55190476D01*
X65238095Y-55238095D01*
X66142857Y-54952380D02*
X66761904Y-54952380D01*
X66428571Y-55333333D01*
X66571428Y-55333333D01*
X66666666Y-55380952D01*
X66714285Y-55428571D01*
X66761904Y-55523809D01*
X66761904Y-55761904D01*
X66714285Y-55857142D01*
X66666666Y-55904761D01*
X66571428Y-55952380D01*
X66285714Y-55952380D01*
X66190476Y-55904761D01*
X66142857Y-55857142D01*
X124357142Y-97857142D02*
X124309523Y-97904761D01*
X124166666Y-97952380D01*
X124071428Y-97952380D01*
X123928571Y-97904761D01*
X123833333Y-97809523D01*
X123785714Y-97714285D01*
X123738095Y-97523809D01*
X123738095Y-97380952D01*
X123785714Y-97190476D01*
X123833333Y-97095238D01*
X123928571Y-97000000D01*
X124071428Y-96952380D01*
X124166666Y-96952380D01*
X124309523Y-97000000D01*
X124357142Y-97047619D01*
X124738095Y-97047619D02*
X124785714Y-97000000D01*
X124880952Y-96952380D01*
X125119047Y-96952380D01*
X125214285Y-97000000D01*
X125261904Y-97047619D01*
X125309523Y-97142857D01*
X125309523Y-97238095D01*
X125261904Y-97380952D01*
X124690476Y-97952380D01*
X125309523Y-97952380D01*
X125690476Y-97047619D02*
X125738095Y-97000000D01*
X125833333Y-96952380D01*
X126071428Y-96952380D01*
X126166666Y-97000000D01*
X126214285Y-97047619D01*
X126261904Y-97142857D01*
X126261904Y-97238095D01*
X126214285Y-97380952D01*
X125642857Y-97952380D01*
X126261904Y-97952380D01*
X124857142Y-87857142D02*
X124809523Y-87904761D01*
X124666666Y-87952380D01*
X124571428Y-87952380D01*
X124428571Y-87904761D01*
X124333333Y-87809523D01*
X124285714Y-87714285D01*
X124238095Y-87523809D01*
X124238095Y-87380952D01*
X124285714Y-87190476D01*
X124333333Y-87095238D01*
X124428571Y-87000000D01*
X124571428Y-86952380D01*
X124666666Y-86952380D01*
X124809523Y-87000000D01*
X124857142Y-87047619D01*
X125238095Y-87047619D02*
X125285714Y-87000000D01*
X125380952Y-86952380D01*
X125619047Y-86952380D01*
X125714285Y-87000000D01*
X125761904Y-87047619D01*
X125809523Y-87142857D01*
X125809523Y-87238095D01*
X125761904Y-87380952D01*
X125190476Y-87952380D01*
X125809523Y-87952380D01*
X126666666Y-87285714D02*
X126666666Y-87952380D01*
X126428571Y-86904761D02*
X126190476Y-87619047D01*
X126809523Y-87619047D01*
X65011904Y-63202380D02*
X65011904Y-62202380D01*
X65250000Y-62202380D01*
X65392857Y-62250000D01*
X65488095Y-62345238D01*
X65535714Y-62440476D01*
X65583333Y-62630952D01*
X65583333Y-62773809D01*
X65535714Y-62964285D01*
X65488095Y-63059523D01*
X65392857Y-63154761D01*
X65250000Y-63202380D01*
X65011904Y-63202380D01*
X65964285Y-62297619D02*
X66011904Y-62250000D01*
X66107142Y-62202380D01*
X66345238Y-62202380D01*
X66440476Y-62250000D01*
X66488095Y-62297619D01*
X66535714Y-62392857D01*
X66535714Y-62488095D01*
X66488095Y-62630952D01*
X65916666Y-63202380D01*
X66535714Y-63202380D01*
X51011904Y-63202380D02*
X51011904Y-62202380D01*
X51250000Y-62202380D01*
X51392857Y-62250000D01*
X51488095Y-62345238D01*
X51535714Y-62440476D01*
X51583333Y-62630952D01*
X51583333Y-62773809D01*
X51535714Y-62964285D01*
X51488095Y-63059523D01*
X51392857Y-63154761D01*
X51250000Y-63202380D01*
X51011904Y-63202380D01*
X51916666Y-62202380D02*
X52535714Y-62202380D01*
X52202380Y-62583333D01*
X52345238Y-62583333D01*
X52440476Y-62630952D01*
X52488095Y-62678571D01*
X52535714Y-62773809D01*
X52535714Y-63011904D01*
X52488095Y-63107142D01*
X52440476Y-63154761D01*
X52345238Y-63202380D01*
X52059523Y-63202380D01*
X51964285Y-63154761D01*
X51916666Y-63107142D01*
X90011904Y-86952380D02*
X90011904Y-85952380D01*
X90250000Y-85952380D01*
X90392857Y-86000000D01*
X90488095Y-86095238D01*
X90535714Y-86190476D01*
X90583333Y-86380952D01*
X90583333Y-86523809D01*
X90535714Y-86714285D01*
X90488095Y-86809523D01*
X90392857Y-86904761D01*
X90250000Y-86952380D01*
X90011904Y-86952380D01*
X91440476Y-86285714D02*
X91440476Y-86952380D01*
X91202380Y-85904761D02*
X90964285Y-86619047D01*
X91583333Y-86619047D01*
X105761904Y-87452380D02*
X105761904Y-86452380D01*
X106000000Y-86452380D01*
X106142857Y-86500000D01*
X106238095Y-86595238D01*
X106285714Y-86690476D01*
X106333333Y-86880952D01*
X106333333Y-87023809D01*
X106285714Y-87214285D01*
X106238095Y-87309523D01*
X106142857Y-87404761D01*
X106000000Y-87452380D01*
X105761904Y-87452380D01*
X107238095Y-86452380D02*
X106761904Y-86452380D01*
X106714285Y-86928571D01*
X106761904Y-86880952D01*
X106857142Y-86833333D01*
X107095238Y-86833333D01*
X107190476Y-86880952D01*
X107238095Y-86928571D01*
X107285714Y-87023809D01*
X107285714Y-87261904D01*
X107238095Y-87357142D01*
X107190476Y-87404761D01*
X107095238Y-87452380D01*
X106857142Y-87452380D01*
X106761904Y-87404761D01*
X106714285Y-87357142D01*
X69607142Y-74952380D02*
X69607142Y-73952380D01*
X69845238Y-73952380D01*
X69988095Y-74000000D01*
X70083333Y-74095238D01*
X70130952Y-74190476D01*
X70178571Y-74380952D01*
X70178571Y-74523809D01*
X70130952Y-74714285D01*
X70083333Y-74809523D01*
X69988095Y-74904761D01*
X69845238Y-74952380D01*
X69607142Y-74952380D01*
X70369047Y-75047619D02*
X71130952Y-75047619D01*
X71369047Y-74952380D02*
X71369047Y-73952380D01*
X71369047Y-74428571D02*
X71940476Y-74428571D01*
X71940476Y-74952380D02*
X71940476Y-73952380D01*
X72940476Y-74952380D02*
X72369047Y-74952380D01*
X72654761Y-74952380D02*
X72654761Y-73952380D01*
X72559523Y-74095238D01*
X72464285Y-74190476D01*
X72369047Y-74238095D01*
X89357142Y-65202380D02*
X89357142Y-64202380D01*
X89595238Y-64202380D01*
X89738095Y-64250000D01*
X89833333Y-64345238D01*
X89880952Y-64440476D01*
X89928571Y-64630952D01*
X89928571Y-64773809D01*
X89880952Y-64964285D01*
X89833333Y-65059523D01*
X89738095Y-65154761D01*
X89595238Y-65202380D01*
X89357142Y-65202380D01*
X90119047Y-65297619D02*
X90880952Y-65297619D01*
X91119047Y-65202380D02*
X91119047Y-64202380D01*
X91119047Y-64678571D02*
X91690476Y-64678571D01*
X91690476Y-65202380D02*
X91690476Y-64202380D01*
X92119047Y-64297619D02*
X92166666Y-64250000D01*
X92261904Y-64202380D01*
X92500000Y-64202380D01*
X92595238Y-64250000D01*
X92642857Y-64297619D01*
X92690476Y-64392857D01*
X92690476Y-64488095D01*
X92642857Y-64630952D01*
X92071428Y-65202380D01*
X92690476Y-65202380D01*
X55476190Y-74962380D02*
X55476190Y-73962380D01*
X55714285Y-73962380D01*
X55857142Y-74010000D01*
X55952380Y-74105238D01*
X56000000Y-74200476D01*
X56047619Y-74390952D01*
X56047619Y-74533809D01*
X56000000Y-74724285D01*
X55952380Y-74819523D01*
X55857142Y-74914761D01*
X55714285Y-74962380D01*
X55476190Y-74962380D01*
X56238095Y-75057619D02*
X57000000Y-75057619D01*
X57714285Y-74962380D02*
X57238095Y-74962380D01*
X57238095Y-73962380D01*
X58571428Y-74962380D02*
X58000000Y-74962380D01*
X58285714Y-74962380D02*
X58285714Y-73962380D01*
X58190476Y-74105238D01*
X58095238Y-74200476D01*
X58000000Y-74248095D01*
X95976190Y-65202380D02*
X95976190Y-64202380D01*
X96214285Y-64202380D01*
X96357142Y-64250000D01*
X96452380Y-64345238D01*
X96500000Y-64440476D01*
X96547619Y-64630952D01*
X96547619Y-64773809D01*
X96500000Y-64964285D01*
X96452380Y-65059523D01*
X96357142Y-65154761D01*
X96214285Y-65202380D01*
X95976190Y-65202380D01*
X96738095Y-65297619D02*
X97500000Y-65297619D01*
X98214285Y-65202380D02*
X97738095Y-65202380D01*
X97738095Y-64202380D01*
X98500000Y-64297619D02*
X98547619Y-64250000D01*
X98642857Y-64202380D01*
X98880952Y-64202380D01*
X98976190Y-64250000D01*
X99023809Y-64297619D01*
X99071428Y-64392857D01*
X99071428Y-64488095D01*
X99023809Y-64630952D01*
X98452380Y-65202380D01*
X99071428Y-65202380D01*
X56278333Y-97497380D02*
X55802142Y-97497380D01*
X55802142Y-96497380D01*
X57135476Y-97497380D02*
X56564047Y-97497380D01*
X56849761Y-97497380D02*
X56849761Y-96497380D01*
X56754523Y-96640238D01*
X56659285Y-96735476D01*
X56564047Y-96783095D01*
X106333333Y-112952380D02*
X105857142Y-112952380D01*
X105857142Y-111952380D01*
X106619047Y-112047619D02*
X106666666Y-112000000D01*
X106761904Y-111952380D01*
X107000000Y-111952380D01*
X107095238Y-112000000D01*
X107142857Y-112047619D01*
X107190476Y-112142857D01*
X107190476Y-112238095D01*
X107142857Y-112380952D01*
X106571428Y-112952380D01*
X107190476Y-112952380D01*
X71654761Y-65547619D02*
X71559523Y-65500000D01*
X71464285Y-65404761D01*
X71321428Y-65261904D01*
X71226190Y-65214285D01*
X71130952Y-65214285D01*
X71178571Y-65452380D02*
X71083333Y-65404761D01*
X70988095Y-65309523D01*
X70940476Y-65119047D01*
X70940476Y-64785714D01*
X70988095Y-64595238D01*
X71083333Y-64500000D01*
X71178571Y-64452380D01*
X71369047Y-64452380D01*
X71464285Y-64500000D01*
X71559523Y-64595238D01*
X71607142Y-64785714D01*
X71607142Y-65119047D01*
X71559523Y-65309523D01*
X71464285Y-65404761D01*
X71369047Y-65452380D01*
X71178571Y-65452380D01*
X72559523Y-65452380D02*
X71988095Y-65452380D01*
X72273809Y-65452380D02*
X72273809Y-64452380D01*
X72178571Y-64595238D01*
X72083333Y-64690476D01*
X71988095Y-64738095D01*
X56404761Y-65547619D02*
X56309523Y-65500000D01*
X56214285Y-65404761D01*
X56071428Y-65261904D01*
X55976190Y-65214285D01*
X55880952Y-65214285D01*
X55928571Y-65452380D02*
X55833333Y-65404761D01*
X55738095Y-65309523D01*
X55690476Y-65119047D01*
X55690476Y-64785714D01*
X55738095Y-64595238D01*
X55833333Y-64500000D01*
X55928571Y-64452380D01*
X56119047Y-64452380D01*
X56214285Y-64500000D01*
X56309523Y-64595238D01*
X56357142Y-64785714D01*
X56357142Y-65119047D01*
X56309523Y-65309523D01*
X56214285Y-65404761D01*
X56119047Y-65452380D01*
X55928571Y-65452380D01*
X56738095Y-64547619D02*
X56785714Y-64500000D01*
X56880952Y-64452380D01*
X57119047Y-64452380D01*
X57214285Y-64500000D01*
X57261904Y-64547619D01*
X57309523Y-64642857D01*
X57309523Y-64738095D01*
X57261904Y-64880952D01*
X56690476Y-65452380D01*
X57309523Y-65452380D01*
X91404761Y-75297619D02*
X91309523Y-75250000D01*
X91214285Y-75154761D01*
X91071428Y-75011904D01*
X90976190Y-74964285D01*
X90880952Y-74964285D01*
X90928571Y-75202380D02*
X90833333Y-75154761D01*
X90738095Y-75059523D01*
X90690476Y-74869047D01*
X90690476Y-74535714D01*
X90738095Y-74345238D01*
X90833333Y-74250000D01*
X90928571Y-74202380D01*
X91119047Y-74202380D01*
X91214285Y-74250000D01*
X91309523Y-74345238D01*
X91357142Y-74535714D01*
X91357142Y-74869047D01*
X91309523Y-75059523D01*
X91214285Y-75154761D01*
X91119047Y-75202380D01*
X90928571Y-75202380D01*
X92214285Y-74535714D02*
X92214285Y-75202380D01*
X91976190Y-74154761D02*
X91738095Y-74869047D01*
X92357142Y-74869047D01*
X103654761Y-75297619D02*
X103559523Y-75250000D01*
X103464285Y-75154761D01*
X103321428Y-75011904D01*
X103226190Y-74964285D01*
X103130952Y-74964285D01*
X103178571Y-75202380D02*
X103083333Y-75154761D01*
X102988095Y-75059523D01*
X102940476Y-74869047D01*
X102940476Y-74535714D01*
X102988095Y-74345238D01*
X103083333Y-74250000D01*
X103178571Y-74202380D01*
X103369047Y-74202380D01*
X103464285Y-74250000D01*
X103559523Y-74345238D01*
X103607142Y-74535714D01*
X103607142Y-74869047D01*
X103559523Y-75059523D01*
X103464285Y-75154761D01*
X103369047Y-75202380D01*
X103178571Y-75202380D01*
X104511904Y-74202380D02*
X104035714Y-74202380D01*
X103988095Y-74678571D01*
X104035714Y-74630952D01*
X104130952Y-74583333D01*
X104369047Y-74583333D01*
X104464285Y-74630952D01*
X104511904Y-74678571D01*
X104559523Y-74773809D01*
X104559523Y-75011904D01*
X104511904Y-75107142D01*
X104464285Y-75154761D01*
X104369047Y-75202380D01*
X104130952Y-75202380D01*
X104035714Y-75154761D01*
X103988095Y-75107142D01*
X57928571Y-60952380D02*
X57595238Y-60476190D01*
X57357142Y-60952380D02*
X57357142Y-59952380D01*
X57738095Y-59952380D01*
X57833333Y-60000000D01*
X57880952Y-60047619D01*
X57928571Y-60142857D01*
X57928571Y-60285714D01*
X57880952Y-60380952D01*
X57833333Y-60428571D01*
X57738095Y-60476190D01*
X57357142Y-60476190D01*
X58119047Y-61047619D02*
X58880952Y-61047619D01*
X59642857Y-60000000D02*
X59547619Y-59952380D01*
X59404761Y-59952380D01*
X59261904Y-60000000D01*
X59166666Y-60095238D01*
X59119047Y-60190476D01*
X59071428Y-60380952D01*
X59071428Y-60523809D01*
X59119047Y-60714285D01*
X59166666Y-60809523D01*
X59261904Y-60904761D01*
X59404761Y-60952380D01*
X59500000Y-60952380D01*
X59642857Y-60904761D01*
X59690476Y-60857142D01*
X59690476Y-60523809D01*
X59500000Y-60523809D01*
X60119047Y-60952380D02*
X60119047Y-59952380D01*
X60119047Y-60428571D02*
X60690476Y-60428571D01*
X60690476Y-60952380D02*
X60690476Y-59952380D01*
X61690476Y-60952380D02*
X61119047Y-60952380D01*
X61404761Y-60952380D02*
X61404761Y-59952380D01*
X61309523Y-60095238D01*
X61214285Y-60190476D01*
X61119047Y-60238095D01*
X95178571Y-88952380D02*
X94845238Y-88476190D01*
X94607142Y-88952380D02*
X94607142Y-87952380D01*
X94988095Y-87952380D01*
X95083333Y-88000000D01*
X95130952Y-88047619D01*
X95178571Y-88142857D01*
X95178571Y-88285714D01*
X95130952Y-88380952D01*
X95083333Y-88428571D01*
X94988095Y-88476190D01*
X94607142Y-88476190D01*
X95369047Y-89047619D02*
X96130952Y-89047619D01*
X96892857Y-88000000D02*
X96797619Y-87952380D01*
X96654761Y-87952380D01*
X96511904Y-88000000D01*
X96416666Y-88095238D01*
X96369047Y-88190476D01*
X96321428Y-88380952D01*
X96321428Y-88523809D01*
X96369047Y-88714285D01*
X96416666Y-88809523D01*
X96511904Y-88904761D01*
X96654761Y-88952380D01*
X96750000Y-88952380D01*
X96892857Y-88904761D01*
X96940476Y-88857142D01*
X96940476Y-88523809D01*
X96750000Y-88523809D01*
X97369047Y-88952380D02*
X97369047Y-87952380D01*
X97369047Y-88428571D02*
X97940476Y-88428571D01*
X97940476Y-88952380D02*
X97940476Y-87952380D01*
X98369047Y-88047619D02*
X98416666Y-88000000D01*
X98511904Y-87952380D01*
X98750000Y-87952380D01*
X98845238Y-88000000D01*
X98892857Y-88047619D01*
X98940476Y-88142857D01*
X98940476Y-88238095D01*
X98892857Y-88380952D01*
X98321428Y-88952380D01*
X98940476Y-88952380D01*
X68178571Y-61702380D02*
X67845238Y-61226190D01*
X67607142Y-61702380D02*
X67607142Y-60702380D01*
X67988095Y-60702380D01*
X68083333Y-60750000D01*
X68130952Y-60797619D01*
X68178571Y-60892857D01*
X68178571Y-61035714D01*
X68130952Y-61130952D01*
X68083333Y-61178571D01*
X67988095Y-61226190D01*
X67607142Y-61226190D01*
X68369047Y-61797619D02*
X69130952Y-61797619D01*
X69892857Y-60750000D02*
X69797619Y-60702380D01*
X69654761Y-60702380D01*
X69511904Y-60750000D01*
X69416666Y-60845238D01*
X69369047Y-60940476D01*
X69321428Y-61130952D01*
X69321428Y-61273809D01*
X69369047Y-61464285D01*
X69416666Y-61559523D01*
X69511904Y-61654761D01*
X69654761Y-61702380D01*
X69750000Y-61702380D01*
X69892857Y-61654761D01*
X69940476Y-61607142D01*
X69940476Y-61273809D01*
X69750000Y-61273809D01*
X70369047Y-61702380D02*
X70369047Y-60702380D01*
X70369047Y-61178571D02*
X70940476Y-61178571D01*
X70940476Y-61702380D02*
X70940476Y-60702380D01*
X71321428Y-60702380D02*
X71940476Y-60702380D01*
X71607142Y-61083333D01*
X71750000Y-61083333D01*
X71845238Y-61130952D01*
X71892857Y-61178571D01*
X71940476Y-61273809D01*
X71940476Y-61511904D01*
X71892857Y-61607142D01*
X71845238Y-61654761D01*
X71750000Y-61702380D01*
X71464285Y-61702380D01*
X71369047Y-61654761D01*
X71321428Y-61607142D01*
X56178571Y-63952380D02*
X55845238Y-63476190D01*
X55607142Y-63952380D02*
X55607142Y-62952380D01*
X55988095Y-62952380D01*
X56083333Y-63000000D01*
X56130952Y-63047619D01*
X56178571Y-63142857D01*
X56178571Y-63285714D01*
X56130952Y-63380952D01*
X56083333Y-63428571D01*
X55988095Y-63476190D01*
X55607142Y-63476190D01*
X56369047Y-64047619D02*
X57130952Y-64047619D01*
X57892857Y-63000000D02*
X57797619Y-62952380D01*
X57654761Y-62952380D01*
X57511904Y-63000000D01*
X57416666Y-63095238D01*
X57369047Y-63190476D01*
X57321428Y-63380952D01*
X57321428Y-63523809D01*
X57369047Y-63714285D01*
X57416666Y-63809523D01*
X57511904Y-63904761D01*
X57654761Y-63952380D01*
X57750000Y-63952380D01*
X57892857Y-63904761D01*
X57940476Y-63857142D01*
X57940476Y-63523809D01*
X57750000Y-63523809D01*
X58369047Y-63952380D02*
X58369047Y-62952380D01*
X58369047Y-63428571D02*
X58940476Y-63428571D01*
X58940476Y-63952380D02*
X58940476Y-62952380D01*
X59845238Y-63285714D02*
X59845238Y-63952380D01*
X59607142Y-62904761D02*
X59369047Y-63619047D01*
X59988095Y-63619047D01*
X86928571Y-83952380D02*
X86595238Y-83476190D01*
X86357142Y-83952380D02*
X86357142Y-82952380D01*
X86738095Y-82952380D01*
X86833333Y-83000000D01*
X86880952Y-83047619D01*
X86928571Y-83142857D01*
X86928571Y-83285714D01*
X86880952Y-83380952D01*
X86833333Y-83428571D01*
X86738095Y-83476190D01*
X86357142Y-83476190D01*
X87119047Y-84047619D02*
X87880952Y-84047619D01*
X88642857Y-83000000D02*
X88547619Y-82952380D01*
X88404761Y-82952380D01*
X88261904Y-83000000D01*
X88166666Y-83095238D01*
X88119047Y-83190476D01*
X88071428Y-83380952D01*
X88071428Y-83523809D01*
X88119047Y-83714285D01*
X88166666Y-83809523D01*
X88261904Y-83904761D01*
X88404761Y-83952380D01*
X88500000Y-83952380D01*
X88642857Y-83904761D01*
X88690476Y-83857142D01*
X88690476Y-83523809D01*
X88500000Y-83523809D01*
X89119047Y-83952380D02*
X89119047Y-82952380D01*
X89119047Y-83428571D02*
X89690476Y-83428571D01*
X89690476Y-83952380D02*
X89690476Y-82952380D01*
X90642857Y-82952380D02*
X90166666Y-82952380D01*
X90119047Y-83428571D01*
X90166666Y-83380952D01*
X90261904Y-83333333D01*
X90500000Y-83333333D01*
X90595238Y-83380952D01*
X90642857Y-83428571D01*
X90690476Y-83523809D01*
X90690476Y-83761904D01*
X90642857Y-83857142D01*
X90595238Y-83904761D01*
X90500000Y-83952380D01*
X90261904Y-83952380D01*
X90166666Y-83904761D01*
X90119047Y-83857142D01*
X102178571Y-84202380D02*
X101845238Y-83726190D01*
X101607142Y-84202380D02*
X101607142Y-83202380D01*
X101988095Y-83202380D01*
X102083333Y-83250000D01*
X102130952Y-83297619D01*
X102178571Y-83392857D01*
X102178571Y-83535714D01*
X102130952Y-83630952D01*
X102083333Y-83678571D01*
X101988095Y-83726190D01*
X101607142Y-83726190D01*
X102369047Y-84297619D02*
X103130952Y-84297619D01*
X103892857Y-83250000D02*
X103797619Y-83202380D01*
X103654761Y-83202380D01*
X103511904Y-83250000D01*
X103416666Y-83345238D01*
X103369047Y-83440476D01*
X103321428Y-83630952D01*
X103321428Y-83773809D01*
X103369047Y-83964285D01*
X103416666Y-84059523D01*
X103511904Y-84154761D01*
X103654761Y-84202380D01*
X103750000Y-84202380D01*
X103892857Y-84154761D01*
X103940476Y-84107142D01*
X103940476Y-83773809D01*
X103750000Y-83773809D01*
X104369047Y-84202380D02*
X104369047Y-83202380D01*
X104369047Y-83678571D02*
X104940476Y-83678571D01*
X104940476Y-84202380D02*
X104940476Y-83202380D01*
X105845238Y-83202380D02*
X105654761Y-83202380D01*
X105559523Y-83250000D01*
X105511904Y-83297619D01*
X105416666Y-83440476D01*
X105369047Y-83630952D01*
X105369047Y-84011904D01*
X105416666Y-84107142D01*
X105464285Y-84154761D01*
X105559523Y-84202380D01*
X105750000Y-84202380D01*
X105845238Y-84154761D01*
X105892857Y-84107142D01*
X105940476Y-84011904D01*
X105940476Y-83773809D01*
X105892857Y-83678571D01*
X105845238Y-83630952D01*
X105750000Y-83583333D01*
X105559523Y-83583333D01*
X105464285Y-83630952D01*
X105416666Y-83678571D01*
X105369047Y-83773809D01*
X43547619Y-61952380D02*
X43214285Y-61476190D01*
X42976190Y-61952380D02*
X42976190Y-60952380D01*
X43357142Y-60952380D01*
X43452380Y-61000000D01*
X43500000Y-61047619D01*
X43547619Y-61142857D01*
X43547619Y-61285714D01*
X43500000Y-61380952D01*
X43452380Y-61428571D01*
X43357142Y-61476190D01*
X42976190Y-61476190D01*
X43738095Y-62047619D02*
X44500000Y-62047619D01*
X45261904Y-61000000D02*
X45166666Y-60952380D01*
X45023809Y-60952380D01*
X44880952Y-61000000D01*
X44785714Y-61095238D01*
X44738095Y-61190476D01*
X44690476Y-61380952D01*
X44690476Y-61523809D01*
X44738095Y-61714285D01*
X44785714Y-61809523D01*
X44880952Y-61904761D01*
X45023809Y-61952380D01*
X45119047Y-61952380D01*
X45261904Y-61904761D01*
X45309523Y-61857142D01*
X45309523Y-61523809D01*
X45119047Y-61523809D01*
X46214285Y-61952380D02*
X45738095Y-61952380D01*
X45738095Y-60952380D01*
X47071428Y-61952380D02*
X46500000Y-61952380D01*
X46785714Y-61952380D02*
X46785714Y-60952380D01*
X46690476Y-61095238D01*
X46595238Y-61190476D01*
X46500000Y-61238095D01*
X111297619Y-89202380D02*
X110964285Y-88726190D01*
X110726190Y-89202380D02*
X110726190Y-88202380D01*
X111107142Y-88202380D01*
X111202380Y-88250000D01*
X111250000Y-88297619D01*
X111297619Y-88392857D01*
X111297619Y-88535714D01*
X111250000Y-88630952D01*
X111202380Y-88678571D01*
X111107142Y-88726190D01*
X110726190Y-88726190D01*
X111488095Y-89297619D02*
X112250000Y-89297619D01*
X113011904Y-88250000D02*
X112916666Y-88202380D01*
X112773809Y-88202380D01*
X112630952Y-88250000D01*
X112535714Y-88345238D01*
X112488095Y-88440476D01*
X112440476Y-88630952D01*
X112440476Y-88773809D01*
X112488095Y-88964285D01*
X112535714Y-89059523D01*
X112630952Y-89154761D01*
X112773809Y-89202380D01*
X112869047Y-89202380D01*
X113011904Y-89154761D01*
X113059523Y-89107142D01*
X113059523Y-88773809D01*
X112869047Y-88773809D01*
X113964285Y-89202380D02*
X113488095Y-89202380D01*
X113488095Y-88202380D01*
X114250000Y-88297619D02*
X114297619Y-88250000D01*
X114392857Y-88202380D01*
X114630952Y-88202380D01*
X114726190Y-88250000D01*
X114773809Y-88297619D01*
X114821428Y-88392857D01*
X114821428Y-88488095D01*
X114773809Y-88630952D01*
X114202380Y-89202380D01*
X114821428Y-89202380D01*
X57523809Y-62452380D02*
X57190476Y-61976190D01*
X56952380Y-62452380D02*
X56952380Y-61452380D01*
X57333333Y-61452380D01*
X57428571Y-61500000D01*
X57476190Y-61547619D01*
X57523809Y-61642857D01*
X57523809Y-61785714D01*
X57476190Y-61880952D01*
X57428571Y-61928571D01*
X57333333Y-61976190D01*
X56952380Y-61976190D01*
X57714285Y-62547619D02*
X58476190Y-62547619D01*
X58714285Y-61785714D02*
X58714285Y-62785714D01*
X58714285Y-61833333D02*
X58809523Y-61785714D01*
X59000000Y-61785714D01*
X59095238Y-61833333D01*
X59142857Y-61880952D01*
X59190476Y-61976190D01*
X59190476Y-62261904D01*
X59142857Y-62357142D01*
X59095238Y-62404761D01*
X59000000Y-62452380D01*
X58809523Y-62452380D01*
X58714285Y-62404761D01*
X60047619Y-62452380D02*
X60047619Y-61452380D01*
X60047619Y-62404761D02*
X59952380Y-62452380D01*
X59761904Y-62452380D01*
X59666666Y-62404761D01*
X59619047Y-62357142D01*
X59571428Y-62261904D01*
X59571428Y-61976190D01*
X59619047Y-61880952D01*
X59666666Y-61833333D01*
X59761904Y-61785714D01*
X59952380Y-61785714D01*
X60047619Y-61833333D01*
X60523809Y-62452380D02*
X60523809Y-61452380D01*
X60523809Y-61928571D02*
X61095238Y-61928571D01*
X61095238Y-62452380D02*
X61095238Y-61452380D01*
X62095238Y-62452380D02*
X61523809Y-62452380D01*
X61809523Y-62452380D02*
X61809523Y-61452380D01*
X61714285Y-61595238D01*
X61619047Y-61690476D01*
X61523809Y-61738095D01*
X95023809Y-87202380D02*
X94690476Y-86726190D01*
X94452380Y-87202380D02*
X94452380Y-86202380D01*
X94833333Y-86202380D01*
X94928571Y-86250000D01*
X94976190Y-86297619D01*
X95023809Y-86392857D01*
X95023809Y-86535714D01*
X94976190Y-86630952D01*
X94928571Y-86678571D01*
X94833333Y-86726190D01*
X94452380Y-86726190D01*
X95214285Y-87297619D02*
X95976190Y-87297619D01*
X96214285Y-86535714D02*
X96214285Y-87535714D01*
X96214285Y-86583333D02*
X96309523Y-86535714D01*
X96500000Y-86535714D01*
X96595238Y-86583333D01*
X96642857Y-86630952D01*
X96690476Y-86726190D01*
X96690476Y-87011904D01*
X96642857Y-87107142D01*
X96595238Y-87154761D01*
X96500000Y-87202380D01*
X96309523Y-87202380D01*
X96214285Y-87154761D01*
X97547619Y-87202380D02*
X97547619Y-86202380D01*
X97547619Y-87154761D02*
X97452380Y-87202380D01*
X97261904Y-87202380D01*
X97166666Y-87154761D01*
X97119047Y-87107142D01*
X97071428Y-87011904D01*
X97071428Y-86726190D01*
X97119047Y-86630952D01*
X97166666Y-86583333D01*
X97261904Y-86535714D01*
X97452380Y-86535714D01*
X97547619Y-86583333D01*
X98023809Y-87202380D02*
X98023809Y-86202380D01*
X98023809Y-86678571D02*
X98595238Y-86678571D01*
X98595238Y-87202380D02*
X98595238Y-86202380D01*
X99023809Y-86297619D02*
X99071428Y-86250000D01*
X99166666Y-86202380D01*
X99404761Y-86202380D01*
X99500000Y-86250000D01*
X99547619Y-86297619D01*
X99595238Y-86392857D01*
X99595238Y-86488095D01*
X99547619Y-86630952D01*
X98976190Y-87202380D01*
X99595238Y-87202380D01*
X43642857Y-63452380D02*
X43309523Y-62976190D01*
X43071428Y-63452380D02*
X43071428Y-62452380D01*
X43452380Y-62452380D01*
X43547619Y-62500000D01*
X43595238Y-62547619D01*
X43642857Y-62642857D01*
X43642857Y-62785714D01*
X43595238Y-62880952D01*
X43547619Y-62928571D01*
X43452380Y-62976190D01*
X43071428Y-62976190D01*
X43833333Y-63547619D02*
X44595238Y-63547619D01*
X44833333Y-62785714D02*
X44833333Y-63785714D01*
X44833333Y-62833333D02*
X44928571Y-62785714D01*
X45119047Y-62785714D01*
X45214285Y-62833333D01*
X45261904Y-62880952D01*
X45309523Y-62976190D01*
X45309523Y-63261904D01*
X45261904Y-63357142D01*
X45214285Y-63404761D01*
X45119047Y-63452380D01*
X44928571Y-63452380D01*
X44833333Y-63404761D01*
X46166666Y-63452380D02*
X46166666Y-62452380D01*
X46166666Y-63404761D02*
X46071428Y-63452380D01*
X45880952Y-63452380D01*
X45785714Y-63404761D01*
X45738095Y-63357142D01*
X45690476Y-63261904D01*
X45690476Y-62976190D01*
X45738095Y-62880952D01*
X45785714Y-62833333D01*
X45880952Y-62785714D01*
X46071428Y-62785714D01*
X46166666Y-62833333D01*
X47119047Y-63452380D02*
X46642857Y-63452380D01*
X46642857Y-62452380D01*
X47976190Y-63452380D02*
X47404761Y-63452380D01*
X47690476Y-63452380D02*
X47690476Y-62452380D01*
X47595238Y-62595238D01*
X47500000Y-62690476D01*
X47404761Y-62738095D01*
X111142857Y-87612380D02*
X110809523Y-87136190D01*
X110571428Y-87612380D02*
X110571428Y-86612380D01*
X110952380Y-86612380D01*
X111047619Y-86660000D01*
X111095238Y-86707619D01*
X111142857Y-86802857D01*
X111142857Y-86945714D01*
X111095238Y-87040952D01*
X111047619Y-87088571D01*
X110952380Y-87136190D01*
X110571428Y-87136190D01*
X111333333Y-87707619D02*
X112095238Y-87707619D01*
X112333333Y-86945714D02*
X112333333Y-87945714D01*
X112333333Y-86993333D02*
X112428571Y-86945714D01*
X112619047Y-86945714D01*
X112714285Y-86993333D01*
X112761904Y-87040952D01*
X112809523Y-87136190D01*
X112809523Y-87421904D01*
X112761904Y-87517142D01*
X112714285Y-87564761D01*
X112619047Y-87612380D01*
X112428571Y-87612380D01*
X112333333Y-87564761D01*
X113666666Y-87612380D02*
X113666666Y-86612380D01*
X113666666Y-87564761D02*
X113571428Y-87612380D01*
X113380952Y-87612380D01*
X113285714Y-87564761D01*
X113238095Y-87517142D01*
X113190476Y-87421904D01*
X113190476Y-87136190D01*
X113238095Y-87040952D01*
X113285714Y-86993333D01*
X113380952Y-86945714D01*
X113571428Y-86945714D01*
X113666666Y-86993333D01*
X114619047Y-87612380D02*
X114142857Y-87612380D01*
X114142857Y-86612380D01*
X114904761Y-86707619D02*
X114952380Y-86660000D01*
X115047619Y-86612380D01*
X115285714Y-86612380D01*
X115380952Y-86660000D01*
X115428571Y-86707619D01*
X115476190Y-86802857D01*
X115476190Y-86898095D01*
X115428571Y-87040952D01*
X114857142Y-87612380D01*
X115476190Y-87612380D01*
X97078095Y-47962380D02*
X97078095Y-48771904D01*
X97125714Y-48867142D01*
X97173333Y-48914761D01*
X97268571Y-48962380D01*
X97459047Y-48962380D01*
X97554285Y-48914761D01*
X97601904Y-48867142D01*
X97649523Y-48771904D01*
X97649523Y-47962380D01*
X98030476Y-47962380D02*
X98649523Y-47962380D01*
X98316190Y-48343333D01*
X98459047Y-48343333D01*
X98554285Y-48390952D01*
X98601904Y-48438571D01*
X98649523Y-48533809D01*
X98649523Y-48771904D01*
X98601904Y-48867142D01*
X98554285Y-48914761D01*
X98459047Y-48962380D01*
X98173333Y-48962380D01*
X98078095Y-48914761D01*
X98030476Y-48867142D01*
X55726666Y-117738571D02*
X55393333Y-117738571D01*
X55393333Y-118262380D02*
X55393333Y-117262380D01*
X55869523Y-117262380D01*
X56774285Y-118262380D02*
X56202857Y-118262380D01*
X56488571Y-118262380D02*
X56488571Y-117262380D01*
X56393333Y-117405238D01*
X56298095Y-117500476D01*
X56202857Y-117548095D01*
X55726666Y-111738571D02*
X55393333Y-111738571D01*
X55393333Y-112262380D02*
X55393333Y-111262380D01*
X55869523Y-111262380D01*
X56202857Y-111357619D02*
X56250476Y-111310000D01*
X56345714Y-111262380D01*
X56583809Y-111262380D01*
X56679047Y-111310000D01*
X56726666Y-111357619D01*
X56774285Y-111452857D01*
X56774285Y-111548095D01*
X56726666Y-111690952D01*
X56155238Y-112262380D01*
X56774285Y-112262380D01*
X105801666Y-133103571D02*
X105468333Y-133103571D01*
X105468333Y-133627380D02*
X105468333Y-132627380D01*
X105944523Y-132627380D01*
X106230238Y-132627380D02*
X106849285Y-132627380D01*
X106515952Y-133008333D01*
X106658809Y-133008333D01*
X106754047Y-133055952D01*
X106801666Y-133103571D01*
X106849285Y-133198809D01*
X106849285Y-133436904D01*
X106801666Y-133532142D01*
X106754047Y-133579761D01*
X106658809Y-133627380D01*
X106373095Y-133627380D01*
X106277857Y-133579761D01*
X106230238Y-133532142D01*
X105801666Y-127103571D02*
X105468333Y-127103571D01*
X105468333Y-127627380D02*
X105468333Y-126627380D01*
X105944523Y-126627380D01*
X106754047Y-126960714D02*
X106754047Y-127627380D01*
X106515952Y-126579761D02*
X106277857Y-127294047D01*
X106896904Y-127294047D01*
X72763095Y-92107380D02*
X72763095Y-92916904D01*
X72810714Y-93012142D01*
X72858333Y-93059761D01*
X72953571Y-93107380D01*
X73144047Y-93107380D01*
X73239285Y-93059761D01*
X73286904Y-93012142D01*
X73334523Y-92916904D01*
X73334523Y-92107380D01*
X74334523Y-93107380D02*
X73763095Y-93107380D01*
X74048809Y-93107380D02*
X74048809Y-92107380D01*
X73953571Y-92250238D01*
X73858333Y-92345476D01*
X73763095Y-92393095D01*
X121673095Y-92952380D02*
X121673095Y-93761904D01*
X121720714Y-93857142D01*
X121768333Y-93904761D01*
X121863571Y-93952380D01*
X122054047Y-93952380D01*
X122149285Y-93904761D01*
X122196904Y-93857142D01*
X122244523Y-93761904D01*
X122244523Y-92952380D01*
X123149285Y-93285714D02*
X123149285Y-93952380D01*
X122911190Y-92904761D02*
X122673095Y-93619047D01*
X123292142Y-93619047D01*
X112404761Y-83097619D02*
X112309523Y-83050000D01*
X112214285Y-82954761D01*
X112071428Y-82811904D01*
X111976190Y-82764285D01*
X111880952Y-82764285D01*
X111928571Y-83002380D02*
X111833333Y-82954761D01*
X111738095Y-82859523D01*
X111690476Y-82669047D01*
X111690476Y-82335714D01*
X111738095Y-82145238D01*
X111833333Y-82050000D01*
X111928571Y-82002380D01*
X112119047Y-82002380D01*
X112214285Y-82050000D01*
X112309523Y-82145238D01*
X112357142Y-82335714D01*
X112357142Y-82669047D01*
X112309523Y-82859523D01*
X112214285Y-82954761D01*
X112119047Y-83002380D01*
X111928571Y-83002380D01*
X112690476Y-82002380D02*
X113309523Y-82002380D01*
X112976190Y-82383333D01*
X113119047Y-82383333D01*
X113214285Y-82430952D01*
X113261904Y-82478571D01*
X113309523Y-82573809D01*
X113309523Y-82811904D01*
X113261904Y-82907142D01*
X113214285Y-82954761D01*
X113119047Y-83002380D01*
X112833333Y-83002380D01*
X112738095Y-82954761D01*
X112690476Y-82907142D01*
X74952380Y-100952380D02*
X74619047Y-100476190D01*
X74380952Y-100952380D02*
X74380952Y-99952380D01*
X74761904Y-99952380D01*
X74857142Y-100000000D01*
X74904761Y-100047619D01*
X74952380Y-100142857D01*
X74952380Y-100285714D01*
X74904761Y-100380952D01*
X74857142Y-100428571D01*
X74761904Y-100476190D01*
X74380952Y-100476190D01*
X75285714Y-100285714D02*
X75523809Y-100952380D01*
X75761904Y-100285714D01*
X76666666Y-100952380D02*
X76095238Y-100952380D01*
X76380952Y-100952380D02*
X76380952Y-99952380D01*
X76285714Y-100095238D01*
X76190476Y-100190476D01*
X76095238Y-100238095D01*
X84452380Y-100952380D02*
X84119047Y-100476190D01*
X83880952Y-100952380D02*
X83880952Y-99952380D01*
X84261904Y-99952380D01*
X84357142Y-100000000D01*
X84404761Y-100047619D01*
X84452380Y-100142857D01*
X84452380Y-100285714D01*
X84404761Y-100380952D01*
X84357142Y-100428571D01*
X84261904Y-100476190D01*
X83880952Y-100476190D01*
X84785714Y-100285714D02*
X85023809Y-100952380D01*
X85261904Y-100285714D01*
X85595238Y-100047619D02*
X85642857Y-100000000D01*
X85738095Y-99952380D01*
X85976190Y-99952380D01*
X86071428Y-100000000D01*
X86119047Y-100047619D01*
X86166666Y-100142857D01*
X86166666Y-100238095D01*
X86119047Y-100380952D01*
X85547619Y-100952380D01*
X86166666Y-100952380D01*
X120702380Y-100952380D02*
X120369047Y-100476190D01*
X120130952Y-100952380D02*
X120130952Y-99952380D01*
X120511904Y-99952380D01*
X120607142Y-100000000D01*
X120654761Y-100047619D01*
X120702380Y-100142857D01*
X120702380Y-100285714D01*
X120654761Y-100380952D01*
X120607142Y-100428571D01*
X120511904Y-100476190D01*
X120130952Y-100476190D01*
X121035714Y-100285714D02*
X121273809Y-100952380D01*
X121511904Y-100285714D01*
X121797619Y-99952380D02*
X122416666Y-99952380D01*
X122083333Y-100333333D01*
X122226190Y-100333333D01*
X122321428Y-100380952D01*
X122369047Y-100428571D01*
X122416666Y-100523809D01*
X122416666Y-100761904D01*
X122369047Y-100857142D01*
X122321428Y-100904761D01*
X122226190Y-100952380D01*
X121940476Y-100952380D01*
X121845238Y-100904761D01*
X121797619Y-100857142D01*
X123952380Y-102952380D02*
X123619047Y-102476190D01*
X123380952Y-102952380D02*
X123380952Y-101952380D01*
X123761904Y-101952380D01*
X123857142Y-102000000D01*
X123904761Y-102047619D01*
X123952380Y-102142857D01*
X123952380Y-102285714D01*
X123904761Y-102380952D01*
X123857142Y-102428571D01*
X123761904Y-102476190D01*
X123380952Y-102476190D01*
X124285714Y-102285714D02*
X124523809Y-102952380D01*
X124761904Y-102285714D01*
X125571428Y-102285714D02*
X125571428Y-102952380D01*
X125333333Y-101904761D02*
X125095238Y-102619047D01*
X125714285Y-102619047D01*
X112702380Y-48202380D02*
X112369047Y-47726190D01*
X112130952Y-48202380D02*
X112130952Y-47202380D01*
X112511904Y-47202380D01*
X112607142Y-47250000D01*
X112654761Y-47297619D01*
X112702380Y-47392857D01*
X112702380Y-47535714D01*
X112654761Y-47630952D01*
X112607142Y-47678571D01*
X112511904Y-47726190D01*
X112130952Y-47726190D01*
X113035714Y-47535714D02*
X113273809Y-48202380D01*
X113511904Y-47535714D01*
X114369047Y-47202380D02*
X113892857Y-47202380D01*
X113845238Y-47678571D01*
X113892857Y-47630952D01*
X113988095Y-47583333D01*
X114226190Y-47583333D01*
X114321428Y-47630952D01*
X114369047Y-47678571D01*
X114416666Y-47773809D01*
X114416666Y-48011904D01*
X114369047Y-48107142D01*
X114321428Y-48154761D01*
X114226190Y-48202380D01*
X113988095Y-48202380D01*
X113892857Y-48154761D01*
X113845238Y-48107142D01*
X112702380Y-50452380D02*
X112369047Y-49976190D01*
X112130952Y-50452380D02*
X112130952Y-49452380D01*
X112511904Y-49452380D01*
X112607142Y-49500000D01*
X112654761Y-49547619D01*
X112702380Y-49642857D01*
X112702380Y-49785714D01*
X112654761Y-49880952D01*
X112607142Y-49928571D01*
X112511904Y-49976190D01*
X112130952Y-49976190D01*
X113035714Y-49785714D02*
X113273809Y-50452380D01*
X113511904Y-49785714D01*
X114321428Y-49452380D02*
X114130952Y-49452380D01*
X114035714Y-49500000D01*
X113988095Y-49547619D01*
X113892857Y-49690476D01*
X113845238Y-49880952D01*
X113845238Y-50261904D01*
X113892857Y-50357142D01*
X113940476Y-50404761D01*
X114035714Y-50452380D01*
X114226190Y-50452380D01*
X114321428Y-50404761D01*
X114369047Y-50357142D01*
X114416666Y-50261904D01*
X114416666Y-50023809D01*
X114369047Y-49928571D01*
X114321428Y-49880952D01*
X114226190Y-49833333D01*
X114035714Y-49833333D01*
X113940476Y-49880952D01*
X113892857Y-49928571D01*
X113845238Y-50023809D01*
X58166664Y-129052379D02*
X58166664Y-129766665D01*
X58119045Y-129909522D01*
X58023807Y-130004760D01*
X57880950Y-130052379D01*
X57785712Y-130052379D01*
X59166664Y-130052379D02*
X58595236Y-130052379D01*
X58880950Y-130052379D02*
X58880950Y-129052379D01*
X58785712Y-129195237D01*
X58690474Y-129290475D01*
X58595236Y-129338094D01*
X55000000Y-124952380D02*
X55000000Y-125190476D01*
X54761904Y-125095238D02*
X55000000Y-125190476D01*
X55238095Y-125095238D01*
X54857142Y-125380952D02*
X55000000Y-125190476D01*
X55142857Y-125380952D01*
X55000000Y-124952380D02*
X55000000Y-125190476D01*
X54761904Y-125095238D02*
X55000000Y-125190476D01*
X55238095Y-125095238D01*
X54857142Y-125380952D02*
X55000000Y-125190476D01*
X55142857Y-125380952D01*
X70666664Y-129052379D02*
X70666664Y-129766665D01*
X70619045Y-129909522D01*
X70523807Y-130004760D01*
X70380950Y-130052379D01*
X70285712Y-130052379D01*
X71095236Y-129147618D02*
X71142855Y-129099999D01*
X71238093Y-129052379D01*
X71476188Y-129052379D01*
X71571426Y-129099999D01*
X71619045Y-129147618D01*
X71666664Y-129242856D01*
X71666664Y-129338094D01*
X71619045Y-129480951D01*
X71047617Y-130052379D01*
X71666664Y-130052379D01*
X67500000Y-124952380D02*
X67500000Y-125190476D01*
X67261904Y-125095238D02*
X67500000Y-125190476D01*
X67738095Y-125095238D01*
X67357142Y-125380952D02*
X67500000Y-125190476D01*
X67642857Y-125380952D01*
X67500000Y-124952380D02*
X67500000Y-125190476D01*
X67261904Y-125095238D02*
X67500000Y-125190476D01*
X67738095Y-125095238D01*
X67357142Y-125380952D02*
X67500000Y-125190476D01*
X67642857Y-125380952D01*
X119666666Y-56952380D02*
X119666666Y-57666666D01*
X119619047Y-57809523D01*
X119523809Y-57904761D01*
X119380952Y-57952380D01*
X119285714Y-57952380D01*
X120571428Y-57285714D02*
X120571428Y-57952380D01*
X120333333Y-56904761D02*
X120095238Y-57619047D01*
X120714285Y-57619047D01*
X114952380Y-61000000D02*
X115190476Y-61000000D01*
X115095238Y-61238095D02*
X115190476Y-61000000D01*
X115095238Y-60761904D01*
X115380952Y-61142857D02*
X115190476Y-61000000D01*
X115380952Y-60857142D01*
X114952380Y-61000000D02*
X115190476Y-61000000D01*
X115095238Y-61238095D02*
X115190476Y-61000000D01*
X115095238Y-60761904D01*
X115380952Y-61142857D02*
X115190476Y-61000000D01*
X115380952Y-60857142D01*
X119666666Y-69452380D02*
X119666666Y-70166666D01*
X119619047Y-70309523D01*
X119523809Y-70404761D01*
X119380952Y-70452380D01*
X119285714Y-70452380D01*
X120619047Y-69452380D02*
X120142857Y-69452380D01*
X120095238Y-69928571D01*
X120142857Y-69880952D01*
X120238095Y-69833333D01*
X120476190Y-69833333D01*
X120571428Y-69880952D01*
X120619047Y-69928571D01*
X120666666Y-70023809D01*
X120666666Y-70261904D01*
X120619047Y-70357142D01*
X120571428Y-70404761D01*
X120476190Y-70452380D01*
X120238095Y-70452380D01*
X120142857Y-70404761D01*
X120095238Y-70357142D01*
X114952380Y-73500000D02*
X115190476Y-73500000D01*
X115095238Y-73738095D02*
X115190476Y-73500000D01*
X115095238Y-73261904D01*
X115380952Y-73642857D02*
X115190476Y-73500000D01*
X115380952Y-73357142D01*
X114952380Y-73500000D02*
X115190476Y-73500000D01*
X115095238Y-73738095D02*
X115190476Y-73500000D01*
X115095238Y-73261904D01*
X115380952Y-73642857D02*
X115190476Y-73500000D01*
X115380952Y-73357142D01*
X76468095Y-83452380D02*
X76468095Y-84261904D01*
X76515714Y-84357142D01*
X76563333Y-84404761D01*
X76658571Y-84452380D01*
X76849047Y-84452380D01*
X76944285Y-84404761D01*
X76991904Y-84357142D01*
X77039523Y-84261904D01*
X77039523Y-83452380D01*
X77468095Y-83547619D02*
X77515714Y-83500000D01*
X77610952Y-83452380D01*
X77849047Y-83452380D01*
X77944285Y-83500000D01*
X77991904Y-83547619D01*
X78039523Y-83642857D01*
X78039523Y-83738095D01*
X77991904Y-83880952D01*
X77420476Y-84452380D01*
X78039523Y-84452380D01*
X56809523Y-51952380D02*
X56476190Y-51476190D01*
X56238095Y-51952380D02*
X56238095Y-50952380D01*
X56619047Y-50952380D01*
X56714285Y-51000000D01*
X56761904Y-51047619D01*
X56809523Y-51142857D01*
X56809523Y-51285714D01*
X56761904Y-51380952D01*
X56714285Y-51428571D01*
X56619047Y-51476190D01*
X56238095Y-51476190D01*
X57238095Y-51952380D02*
X57238095Y-50952380D01*
X57238095Y-51333333D02*
X57333333Y-51285714D01*
X57523809Y-51285714D01*
X57619047Y-51333333D01*
X57666666Y-51380952D01*
X57714285Y-51476190D01*
X57714285Y-51761904D01*
X57666666Y-51857142D01*
X57619047Y-51904761D01*
X57523809Y-51952380D01*
X57333333Y-51952380D01*
X57238095Y-51904761D01*
X58285714Y-51952380D02*
X58190476Y-51904761D01*
X58142857Y-51809523D01*
X58142857Y-50952380D01*
X59047619Y-51904761D02*
X58952380Y-51952380D01*
X58761904Y-51952380D01*
X58666666Y-51904761D01*
X58619047Y-51809523D01*
X58619047Y-51428571D01*
X58666666Y-51333333D01*
X58761904Y-51285714D01*
X58952380Y-51285714D01*
X59047619Y-51333333D01*
X59095238Y-51428571D01*
X59095238Y-51523809D01*
X58619047Y-51619047D01*
X59904761Y-51904761D02*
X59809523Y-51952380D01*
X59619047Y-51952380D01*
X59523809Y-51904761D01*
X59476190Y-51809523D01*
X59476190Y-51428571D01*
X59523809Y-51333333D01*
X59619047Y-51285714D01*
X59809523Y-51285714D01*
X59904761Y-51333333D01*
X59952380Y-51428571D01*
X59952380Y-51523809D01*
X59476190Y-51619047D01*
X60809523Y-51952380D02*
X60809523Y-50952380D01*
X60809523Y-51904761D02*
X60714285Y-51952380D01*
X60523809Y-51952380D01*
X60428571Y-51904761D01*
X60380952Y-51857142D01*
X60333333Y-51761904D01*
X60333333Y-51476190D01*
X60380952Y-51380952D01*
X60428571Y-51333333D01*
X60523809Y-51285714D01*
X60714285Y-51285714D01*
X60809523Y-51333333D01*
X61809523Y-51952380D02*
X61238095Y-51952380D01*
X61523809Y-51952380D02*
X61523809Y-50952380D01*
X61428571Y-51095238D01*
X61333333Y-51190476D01*
X61238095Y-51238095D01*
X57809523Y-44952380D02*
X57476190Y-44476190D01*
X57238095Y-44952380D02*
X57238095Y-43952380D01*
X57619047Y-43952380D01*
X57714285Y-44000000D01*
X57761904Y-44047619D01*
X57809523Y-44142857D01*
X57809523Y-44285714D01*
X57761904Y-44380952D01*
X57714285Y-44428571D01*
X57619047Y-44476190D01*
X57238095Y-44476190D01*
X58238095Y-44952380D02*
X58238095Y-43952380D01*
X58238095Y-44333333D02*
X58333333Y-44285714D01*
X58523809Y-44285714D01*
X58619047Y-44333333D01*
X58666666Y-44380952D01*
X58714285Y-44476190D01*
X58714285Y-44761904D01*
X58666666Y-44857142D01*
X58619047Y-44904761D01*
X58523809Y-44952380D01*
X58333333Y-44952380D01*
X58238095Y-44904761D01*
X59285714Y-44952380D02*
X59190476Y-44904761D01*
X59142857Y-44809523D01*
X59142857Y-43952380D01*
X60047619Y-44904761D02*
X59952380Y-44952380D01*
X59761904Y-44952380D01*
X59666666Y-44904761D01*
X59619047Y-44809523D01*
X59619047Y-44428571D01*
X59666666Y-44333333D01*
X59761904Y-44285714D01*
X59952380Y-44285714D01*
X60047619Y-44333333D01*
X60095238Y-44428571D01*
X60095238Y-44523809D01*
X59619047Y-44619047D01*
X60904761Y-44904761D02*
X60809523Y-44952380D01*
X60619047Y-44952380D01*
X60523809Y-44904761D01*
X60476190Y-44809523D01*
X60476190Y-44428571D01*
X60523809Y-44333333D01*
X60619047Y-44285714D01*
X60809523Y-44285714D01*
X60904761Y-44333333D01*
X60952380Y-44428571D01*
X60952380Y-44523809D01*
X60476190Y-44619047D01*
X61809523Y-44952380D02*
X61809523Y-43952380D01*
X61809523Y-44904761D02*
X61714285Y-44952380D01*
X61523809Y-44952380D01*
X61428571Y-44904761D01*
X61380952Y-44857142D01*
X61333333Y-44761904D01*
X61333333Y-44476190D01*
X61380952Y-44380952D01*
X61428571Y-44333333D01*
X61523809Y-44285714D01*
X61714285Y-44285714D01*
X61809523Y-44333333D01*
X62238095Y-44047619D02*
X62285714Y-44000000D01*
X62380952Y-43952380D01*
X62619047Y-43952380D01*
X62714285Y-44000000D01*
X62761904Y-44047619D01*
X62809523Y-44142857D01*
X62809523Y-44238095D01*
X62761904Y-44380952D01*
X62190476Y-44952380D01*
X62809523Y-44952380D01*
X75333333Y-109357142D02*
X75285714Y-109404761D01*
X75142857Y-109452380D01*
X75047619Y-109452380D01*
X74904761Y-109404761D01*
X74809523Y-109309523D01*
X74761904Y-109214285D01*
X74714285Y-109023809D01*
X74714285Y-108880952D01*
X74761904Y-108690476D01*
X74809523Y-108595238D01*
X74904761Y-108500000D01*
X75047619Y-108452380D01*
X75142857Y-108452380D01*
X75285714Y-108500000D01*
X75333333Y-108547619D01*
X75666666Y-108452380D02*
X76285714Y-108452380D01*
X75952380Y-108833333D01*
X76095238Y-108833333D01*
X76190476Y-108880952D01*
X76238095Y-108928571D01*
X76285714Y-109023809D01*
X76285714Y-109261904D01*
X76238095Y-109357142D01*
X76190476Y-109404761D01*
X76095238Y-109452380D01*
X75809523Y-109452380D01*
X75714285Y-109404761D01*
X75666666Y-109357142D01*
X127333333Y-113857142D02*
X127285714Y-113904761D01*
X127142857Y-113952380D01*
X127047619Y-113952380D01*
X126904761Y-113904761D01*
X126809523Y-113809523D01*
X126761904Y-113714285D01*
X126714285Y-113523809D01*
X126714285Y-113380952D01*
X126761904Y-113190476D01*
X126809523Y-113095238D01*
X126904761Y-113000000D01*
X127047619Y-112952380D01*
X127142857Y-112952380D01*
X127285714Y-113000000D01*
X127333333Y-113047619D01*
X128190476Y-112952380D02*
X128000000Y-112952380D01*
X127904761Y-113000000D01*
X127857142Y-113047619D01*
X127761904Y-113190476D01*
X127714285Y-113380952D01*
X127714285Y-113761904D01*
X127761904Y-113857142D01*
X127809523Y-113904761D01*
X127904761Y-113952380D01*
X128095238Y-113952380D01*
X128190476Y-113904761D01*
X128238095Y-113857142D01*
X128285714Y-113761904D01*
X128285714Y-113523809D01*
X128238095Y-113428571D01*
X128190476Y-113380952D01*
X128095238Y-113333333D01*
X127904761Y-113333333D01*
X127809523Y-113380952D01*
X127761904Y-113428571D01*
X127714285Y-113523809D01*
X75333333Y-117857142D02*
X75285714Y-117904761D01*
X75142857Y-117952380D01*
X75047619Y-117952380D01*
X74904761Y-117904761D01*
X74809523Y-117809523D01*
X74761904Y-117714285D01*
X74714285Y-117523809D01*
X74714285Y-117380952D01*
X74761904Y-117190476D01*
X74809523Y-117095238D01*
X74904761Y-117000000D01*
X75047619Y-116952380D01*
X75142857Y-116952380D01*
X75285714Y-117000000D01*
X75333333Y-117047619D01*
X75666666Y-116952380D02*
X76333333Y-116952380D01*
X75904761Y-117952380D01*
X127333333Y-109857142D02*
X127285714Y-109904761D01*
X127142857Y-109952380D01*
X127047619Y-109952380D01*
X126904761Y-109904761D01*
X126809523Y-109809523D01*
X126761904Y-109714285D01*
X126714285Y-109523809D01*
X126714285Y-109380952D01*
X126761904Y-109190476D01*
X126809523Y-109095238D01*
X126904761Y-109000000D01*
X127047619Y-108952380D01*
X127142857Y-108952380D01*
X127285714Y-109000000D01*
X127333333Y-109047619D01*
X127904761Y-109380952D02*
X127809523Y-109333333D01*
X127761904Y-109285714D01*
X127714285Y-109190476D01*
X127714285Y-109142857D01*
X127761904Y-109047619D01*
X127809523Y-109000000D01*
X127904761Y-108952380D01*
X128095238Y-108952380D01*
X128190476Y-109000000D01*
X128238095Y-109047619D01*
X128285714Y-109142857D01*
X128285714Y-109190476D01*
X128238095Y-109285714D01*
X128190476Y-109333333D01*
X128095238Y-109380952D01*
X127904761Y-109380952D01*
X127809523Y-109428571D01*
X127761904Y-109476190D01*
X127714285Y-109571428D01*
X127714285Y-109761904D01*
X127761904Y-109857142D01*
X127809523Y-109904761D01*
X127904761Y-109952380D01*
X128095238Y-109952380D01*
X128190476Y-109904761D01*
X128238095Y-109857142D01*
X128285714Y-109761904D01*
X128285714Y-109571428D01*
X128238095Y-109476190D01*
X128190476Y-109428571D01*
X128095238Y-109380952D01*
X75333333Y-113357142D02*
X75285714Y-113404761D01*
X75142857Y-113452380D01*
X75047619Y-113452380D01*
X74904761Y-113404761D01*
X74809523Y-113309523D01*
X74761904Y-113214285D01*
X74714285Y-113023809D01*
X74714285Y-112880952D01*
X74761904Y-112690476D01*
X74809523Y-112595238D01*
X74904761Y-112500000D01*
X75047619Y-112452380D01*
X75142857Y-112452380D01*
X75285714Y-112500000D01*
X75333333Y-112547619D01*
X75809523Y-113452380D02*
X76000000Y-113452380D01*
X76095238Y-113404761D01*
X76142857Y-113357142D01*
X76238095Y-113214285D01*
X76285714Y-113023809D01*
X76285714Y-112642857D01*
X76238095Y-112547619D01*
X76190476Y-112500000D01*
X76095238Y-112452380D01*
X75904761Y-112452380D01*
X75809523Y-112500000D01*
X75761904Y-112547619D01*
X75714285Y-112642857D01*
X75714285Y-112880952D01*
X75761904Y-112976190D01*
X75809523Y-113023809D01*
X75904761Y-113071428D01*
X76095238Y-113071428D01*
X76190476Y-113023809D01*
X76238095Y-112976190D01*
X76285714Y-112880952D01*
X127357142Y-118357142D02*
X127309523Y-118404761D01*
X127166666Y-118452380D01*
X127071428Y-118452380D01*
X126928571Y-118404761D01*
X126833333Y-118309523D01*
X126785714Y-118214285D01*
X126738095Y-118023809D01*
X126738095Y-117880952D01*
X126785714Y-117690476D01*
X126833333Y-117595238D01*
X126928571Y-117500000D01*
X127071428Y-117452380D01*
X127166666Y-117452380D01*
X127309523Y-117500000D01*
X127357142Y-117547619D01*
X128309523Y-118452380D02*
X127738095Y-118452380D01*
X128023809Y-118452380D02*
X128023809Y-117452380D01*
X127928571Y-117595238D01*
X127833333Y-117690476D01*
X127738095Y-117738095D01*
X128928571Y-117452380D02*
X129023809Y-117452380D01*
X129119047Y-117500000D01*
X129166666Y-117547619D01*
X129214285Y-117642857D01*
X129261904Y-117833333D01*
X129261904Y-118071428D01*
X129214285Y-118261904D01*
X129166666Y-118357142D01*
X129119047Y-118404761D01*
X129023809Y-118452380D01*
X128928571Y-118452380D01*
X128833333Y-118404761D01*
X128785714Y-118357142D01*
X128738095Y-118261904D01*
X128690476Y-118071428D01*
X128690476Y-117833333D01*
X128738095Y-117642857D01*
X128785714Y-117547619D01*
X128833333Y-117500000D01*
X128928571Y-117452380D01*
X65357142Y-44357142D02*
X65309523Y-44404761D01*
X65166666Y-44452380D01*
X65071428Y-44452380D01*
X64928571Y-44404761D01*
X64833333Y-44309523D01*
X64785714Y-44214285D01*
X64738095Y-44023809D01*
X64738095Y-43880952D01*
X64785714Y-43690476D01*
X64833333Y-43595238D01*
X64928571Y-43500000D01*
X65071428Y-43452380D01*
X65166666Y-43452380D01*
X65309523Y-43500000D01*
X65357142Y-43547619D01*
X66309523Y-44452380D02*
X65738095Y-44452380D01*
X66023809Y-44452380D02*
X66023809Y-43452380D01*
X65928571Y-43595238D01*
X65833333Y-43690476D01*
X65738095Y-43738095D01*
X67166666Y-43785714D02*
X67166666Y-44452380D01*
X66928571Y-43404761D02*
X66690476Y-44119047D01*
X67309523Y-44119047D01*
X68857142Y-55857142D02*
X68809523Y-55904761D01*
X68666666Y-55952380D01*
X68571428Y-55952380D01*
X68428571Y-55904761D01*
X68333333Y-55809523D01*
X68285714Y-55714285D01*
X68238095Y-55523809D01*
X68238095Y-55380952D01*
X68285714Y-55190476D01*
X68333333Y-55095238D01*
X68428571Y-55000000D01*
X68571428Y-54952380D01*
X68666666Y-54952380D01*
X68809523Y-55000000D01*
X68857142Y-55047619D01*
X69809523Y-55952380D02*
X69238095Y-55952380D01*
X69523809Y-55952380D02*
X69523809Y-54952380D01*
X69428571Y-55095238D01*
X69333333Y-55190476D01*
X69238095Y-55238095D01*
X70714285Y-54952380D02*
X70238095Y-54952380D01*
X70190476Y-55428571D01*
X70238095Y-55380952D01*
X70333333Y-55333333D01*
X70571428Y-55333333D01*
X70666666Y-55380952D01*
X70714285Y-55428571D01*
X70761904Y-55523809D01*
X70761904Y-55761904D01*
X70714285Y-55857142D01*
X70666666Y-55904761D01*
X70571428Y-55952380D01*
X70333333Y-55952380D01*
X70238095Y-55904761D01*
X70190476Y-55857142D01*
X69357142Y-44357142D02*
X69309523Y-44404761D01*
X69166666Y-44452380D01*
X69071428Y-44452380D01*
X68928571Y-44404761D01*
X68833333Y-44309523D01*
X68785714Y-44214285D01*
X68738095Y-44023809D01*
X68738095Y-43880952D01*
X68785714Y-43690476D01*
X68833333Y-43595238D01*
X68928571Y-43500000D01*
X69071428Y-43452380D01*
X69166666Y-43452380D01*
X69309523Y-43500000D01*
X69357142Y-43547619D01*
X70309523Y-44452380D02*
X69738095Y-44452380D01*
X70023809Y-44452380D02*
X70023809Y-43452380D01*
X69928571Y-43595238D01*
X69833333Y-43690476D01*
X69738095Y-43738095D01*
X71166666Y-43452380D02*
X70976190Y-43452380D01*
X70880952Y-43500000D01*
X70833333Y-43547619D01*
X70738095Y-43690476D01*
X70690476Y-43880952D01*
X70690476Y-44261904D01*
X70738095Y-44357142D01*
X70785714Y-44404761D01*
X70880952Y-44452380D01*
X71071428Y-44452380D01*
X71166666Y-44404761D01*
X71214285Y-44357142D01*
X71261904Y-44261904D01*
X71261904Y-44023809D01*
X71214285Y-43928571D01*
X71166666Y-43880952D01*
X71071428Y-43833333D01*
X70880952Y-43833333D01*
X70785714Y-43880952D01*
X70738095Y-43928571D01*
X70690476Y-44023809D01*
X72857142Y-55857142D02*
X72809523Y-55904761D01*
X72666666Y-55952380D01*
X72571428Y-55952380D01*
X72428571Y-55904761D01*
X72333333Y-55809523D01*
X72285714Y-55714285D01*
X72238095Y-55523809D01*
X72238095Y-55380952D01*
X72285714Y-55190476D01*
X72333333Y-55095238D01*
X72428571Y-55000000D01*
X72571428Y-54952380D01*
X72666666Y-54952380D01*
X72809523Y-55000000D01*
X72857142Y-55047619D01*
X73809523Y-55952380D02*
X73238095Y-55952380D01*
X73523809Y-55952380D02*
X73523809Y-54952380D01*
X73428571Y-55095238D01*
X73333333Y-55190476D01*
X73238095Y-55238095D01*
X74142857Y-54952380D02*
X74809523Y-54952380D01*
X74380952Y-55952380D01*
X72857142Y-44357142D02*
X72809523Y-44404761D01*
X72666666Y-44452380D01*
X72571428Y-44452380D01*
X72428571Y-44404761D01*
X72333333Y-44309523D01*
X72285714Y-44214285D01*
X72238095Y-44023809D01*
X72238095Y-43880952D01*
X72285714Y-43690476D01*
X72333333Y-43595238D01*
X72428571Y-43500000D01*
X72571428Y-43452380D01*
X72666666Y-43452380D01*
X72809523Y-43500000D01*
X72857142Y-43547619D01*
X73809523Y-44452380D02*
X73238095Y-44452380D01*
X73523809Y-44452380D02*
X73523809Y-43452380D01*
X73428571Y-43595238D01*
X73333333Y-43690476D01*
X73238095Y-43738095D01*
X74380952Y-43880952D02*
X74285714Y-43833333D01*
X74238095Y-43785714D01*
X74190476Y-43690476D01*
X74190476Y-43642857D01*
X74238095Y-43547619D01*
X74285714Y-43500000D01*
X74380952Y-43452380D01*
X74571428Y-43452380D01*
X74666666Y-43500000D01*
X74714285Y-43547619D01*
X74761904Y-43642857D01*
X74761904Y-43690476D01*
X74714285Y-43785714D01*
X74666666Y-43833333D01*
X74571428Y-43880952D01*
X74380952Y-43880952D01*
X74285714Y-43928571D01*
X74238095Y-43976190D01*
X74190476Y-44071428D01*
X74190476Y-44261904D01*
X74238095Y-44357142D01*
X74285714Y-44404761D01*
X74380952Y-44452380D01*
X74571428Y-44452380D01*
X74666666Y-44404761D01*
X74714285Y-44357142D01*
X74761904Y-44261904D01*
X74761904Y-44071428D01*
X74714285Y-43976190D01*
X74666666Y-43928571D01*
X74571428Y-43880952D01*
X76857142Y-55857142D02*
X76809523Y-55904761D01*
X76666666Y-55952380D01*
X76571428Y-55952380D01*
X76428571Y-55904761D01*
X76333333Y-55809523D01*
X76285714Y-55714285D01*
X76238095Y-55523809D01*
X76238095Y-55380952D01*
X76285714Y-55190476D01*
X76333333Y-55095238D01*
X76428571Y-55000000D01*
X76571428Y-54952380D01*
X76666666Y-54952380D01*
X76809523Y-55000000D01*
X76857142Y-55047619D01*
X77809523Y-55952380D02*
X77238095Y-55952380D01*
X77523809Y-55952380D02*
X77523809Y-54952380D01*
X77428571Y-55095238D01*
X77333333Y-55190476D01*
X77238095Y-55238095D01*
X78285714Y-55952380D02*
X78476190Y-55952380D01*
X78571428Y-55904761D01*
X78619047Y-55857142D01*
X78714285Y-55714285D01*
X78761904Y-55523809D01*
X78761904Y-55142857D01*
X78714285Y-55047619D01*
X78666666Y-55000000D01*
X78571428Y-54952380D01*
X78380952Y-54952380D01*
X78285714Y-55000000D01*
X78238095Y-55047619D01*
X78190476Y-55142857D01*
X78190476Y-55380952D01*
X78238095Y-55476190D01*
X78285714Y-55523809D01*
X78380952Y-55571428D01*
X78571428Y-55571428D01*
X78666666Y-55523809D01*
X78714285Y-55476190D01*
X78761904Y-55380952D01*
X76857142Y-44357142D02*
X76809523Y-44404761D01*
X76666666Y-44452380D01*
X76571428Y-44452380D01*
X76428571Y-44404761D01*
X76333333Y-44309523D01*
X76285714Y-44214285D01*
X76238095Y-44023809D01*
X76238095Y-43880952D01*
X76285714Y-43690476D01*
X76333333Y-43595238D01*
X76428571Y-43500000D01*
X76571428Y-43452380D01*
X76666666Y-43452380D01*
X76809523Y-43500000D01*
X76857142Y-43547619D01*
X77238095Y-43547619D02*
X77285714Y-43500000D01*
X77380952Y-43452380D01*
X77619047Y-43452380D01*
X77714285Y-43500000D01*
X77761904Y-43547619D01*
X77809523Y-43642857D01*
X77809523Y-43738095D01*
X77761904Y-43880952D01*
X77190476Y-44452380D01*
X77809523Y-44452380D01*
X78428571Y-43452380D02*
X78523809Y-43452380D01*
X78619047Y-43500000D01*
X78666666Y-43547619D01*
X78714285Y-43642857D01*
X78761904Y-43833333D01*
X78761904Y-44071428D01*
X78714285Y-44261904D01*
X78666666Y-44357142D01*
X78619047Y-44404761D01*
X78523809Y-44452380D01*
X78428571Y-44452380D01*
X78333333Y-44404761D01*
X78285714Y-44357142D01*
X78238095Y-44261904D01*
X78190476Y-44071428D01*
X78190476Y-43833333D01*
X78238095Y-43642857D01*
X78285714Y-43547619D01*
X78333333Y-43500000D01*
X78428571Y-43452380D01*
X80857142Y-55857142D02*
X80809523Y-55904761D01*
X80666666Y-55952380D01*
X80571428Y-55952380D01*
X80428571Y-55904761D01*
X80333333Y-55809523D01*
X80285714Y-55714285D01*
X80238095Y-55523809D01*
X80238095Y-55380952D01*
X80285714Y-55190476D01*
X80333333Y-55095238D01*
X80428571Y-55000000D01*
X80571428Y-54952380D01*
X80666666Y-54952380D01*
X80809523Y-55000000D01*
X80857142Y-55047619D01*
X81238095Y-55047619D02*
X81285714Y-55000000D01*
X81380952Y-54952380D01*
X81619047Y-54952380D01*
X81714285Y-55000000D01*
X81761904Y-55047619D01*
X81809523Y-55142857D01*
X81809523Y-55238095D01*
X81761904Y-55380952D01*
X81190476Y-55952380D01*
X81809523Y-55952380D01*
X82761904Y-55952380D02*
X82190476Y-55952380D01*
X82476190Y-55952380D02*
X82476190Y-54952380D01*
X82380952Y-55095238D01*
X82285714Y-55190476D01*
X82190476Y-55238095D01*
X80857142Y-44357142D02*
X80809523Y-44404761D01*
X80666666Y-44452380D01*
X80571428Y-44452380D01*
X80428571Y-44404761D01*
X80333333Y-44309523D01*
X80285714Y-44214285D01*
X80238095Y-44023809D01*
X80238095Y-43880952D01*
X80285714Y-43690476D01*
X80333333Y-43595238D01*
X80428571Y-43500000D01*
X80571428Y-43452380D01*
X80666666Y-43452380D01*
X80809523Y-43500000D01*
X80857142Y-43547619D01*
X81238095Y-43547619D02*
X81285714Y-43500000D01*
X81380952Y-43452380D01*
X81619047Y-43452380D01*
X81714285Y-43500000D01*
X81761904Y-43547619D01*
X81809523Y-43642857D01*
X81809523Y-43738095D01*
X81761904Y-43880952D01*
X81190476Y-44452380D01*
X81809523Y-44452380D01*
X82142857Y-43452380D02*
X82761904Y-43452380D01*
X82428571Y-43833333D01*
X82571428Y-43833333D01*
X82666666Y-43880952D01*
X82714285Y-43928571D01*
X82761904Y-44023809D01*
X82761904Y-44261904D01*
X82714285Y-44357142D01*
X82666666Y-44404761D01*
X82571428Y-44452380D01*
X82285714Y-44452380D01*
X82190476Y-44404761D01*
X82142857Y-44357142D01*
X84357142Y-55857142D02*
X84309523Y-55904761D01*
X84166666Y-55952380D01*
X84071428Y-55952380D01*
X83928571Y-55904761D01*
X83833333Y-55809523D01*
X83785714Y-55714285D01*
X83738095Y-55523809D01*
X83738095Y-55380952D01*
X83785714Y-55190476D01*
X83833333Y-55095238D01*
X83928571Y-55000000D01*
X84071428Y-54952380D01*
X84166666Y-54952380D01*
X84309523Y-55000000D01*
X84357142Y-55047619D01*
X84738095Y-55047619D02*
X84785714Y-55000000D01*
X84880952Y-54952380D01*
X85119047Y-54952380D01*
X85214285Y-55000000D01*
X85261904Y-55047619D01*
X85309523Y-55142857D01*
X85309523Y-55238095D01*
X85261904Y-55380952D01*
X84690476Y-55952380D01*
X85309523Y-55952380D01*
X86214285Y-54952380D02*
X85738095Y-54952380D01*
X85690476Y-55428571D01*
X85738095Y-55380952D01*
X85833333Y-55333333D01*
X86071428Y-55333333D01*
X86166666Y-55380952D01*
X86214285Y-55428571D01*
X86261904Y-55523809D01*
X86261904Y-55761904D01*
X86214285Y-55857142D01*
X86166666Y-55904761D01*
X86071428Y-55952380D01*
X85833333Y-55952380D01*
X85738095Y-55904761D01*
X85690476Y-55857142D01*
X84357142Y-44357142D02*
X84309523Y-44404761D01*
X84166666Y-44452380D01*
X84071428Y-44452380D01*
X83928571Y-44404761D01*
X83833333Y-44309523D01*
X83785714Y-44214285D01*
X83738095Y-44023809D01*
X83738095Y-43880952D01*
X83785714Y-43690476D01*
X83833333Y-43595238D01*
X83928571Y-43500000D01*
X84071428Y-43452380D01*
X84166666Y-43452380D01*
X84309523Y-43500000D01*
X84357142Y-43547619D01*
X84738095Y-43547619D02*
X84785714Y-43500000D01*
X84880952Y-43452380D01*
X85119047Y-43452380D01*
X85214285Y-43500000D01*
X85261904Y-43547619D01*
X85309523Y-43642857D01*
X85309523Y-43738095D01*
X85261904Y-43880952D01*
X84690476Y-44452380D01*
X85309523Y-44452380D01*
X86166666Y-43452380D02*
X85976190Y-43452380D01*
X85880952Y-43500000D01*
X85833333Y-43547619D01*
X85738095Y-43690476D01*
X85690476Y-43880952D01*
X85690476Y-44261904D01*
X85738095Y-44357142D01*
X85785714Y-44404761D01*
X85880952Y-44452380D01*
X86071428Y-44452380D01*
X86166666Y-44404761D01*
X86214285Y-44357142D01*
X86261904Y-44261904D01*
X86261904Y-44023809D01*
X86214285Y-43928571D01*
X86166666Y-43880952D01*
X86071428Y-43833333D01*
X85880952Y-43833333D01*
X85785714Y-43880952D01*
X85738095Y-43928571D01*
X85690476Y-44023809D01*
M02*
