M48
INCH,TZ
T1C0.0157
T2C0.0295
T3C0.0394
T4C0.0472
T5C0.0510
%
G90
G05
T1
X17224Y-19980
X17224Y-20768
X17224Y-21555
X17224Y-22343
X17224Y-23130
X17224Y-23917
X17224Y-24705
X17224Y-25492
X17224Y-26280
X17224Y-27067
X17224Y-27854
X17224Y-28642
X17224Y-29429
X17224Y-30217
X17224Y-31004
X17224Y-31791
X18012Y-20768
X18012Y-21555
X18012Y-22343
X18012Y-23130
X18012Y-23917
X18012Y-24705
X18012Y-25492
X18012Y-26280
X18012Y-27067
X18012Y-27854
X18012Y-28642
X18012Y-29429
X18012Y-30217
X18012Y-31004
X18012Y-31791
X21161Y-26280
X21161Y-27067
X21161Y-27854
X21161Y-28642
X21161Y-29429
X21161Y-30217
X21161Y-31004
X21161Y-31791
X21949Y-26280
X21949Y-27067
X21949Y-27854
X21949Y-28642
X21949Y-29429
X21949Y-30217
X21949Y-31004
X21949Y-31791
X22736Y-26280
X22736Y-27067
X22736Y-27854
X22736Y-28642
X22736Y-29429
X22736Y-30217
X22736Y-31004
X22736Y-31791
X23524Y-26280
X23524Y-27067
X23524Y-27854
X23524Y-28642
X23524Y-29429
X23524Y-30217
X23524Y-31004
X23524Y-31791
X24016Y-24902
X24311Y-27854
X24311Y-28642
X24311Y-29429
X24311Y-30217
X24311Y-31004
X24311Y-31791
X25098Y-27854
X25098Y-28642
X25098Y-29429
X25098Y-30217
X25098Y-31004
X25098Y-31791
X25591Y-17126
X26378Y-17126
X26575Y-26280
X26575Y-27067
X26575Y-27854
X26575Y-28642
X26575Y-29429
X26575Y-30217
X26575Y-31004
X26575Y-31791
X27165Y-17126
X27362Y-26280
X27362Y-27067
X27362Y-27854
X27362Y-28642
X27362Y-29429
X27362Y-30217
X27362Y-31004
X27362Y-31791
X27953Y-17126
X28150Y-26280
X28150Y-27067
X28150Y-27854
X28150Y-28642
X28150Y-29429
X28150Y-30217
X28150Y-31004
X28150Y-31791
X28740Y-17126
X28937Y-26280
X28937Y-27067
X28937Y-27854
X28937Y-28642
X28937Y-29429
X28937Y-30217
X28937Y-31004
X28937Y-31791
X29528Y-17126
X29724Y-26280
X29724Y-27067
X29724Y-27854
X29724Y-28642
X29724Y-29429
X29724Y-30217
X29724Y-31004
X29724Y-31791
X30315Y-17126
X30512Y-26280
X30512Y-27067
X30512Y-27854
X30512Y-30217
X30512Y-31004
X30512Y-31791
X30512Y-43209
X30512Y-43996
X30512Y-44783
X30512Y-45571
X30512Y-46358
X30512Y-47146
X31102Y-17126
X31299Y-26280
X31299Y-27067
X31299Y-27854
X31299Y-30217
X31299Y-31004
X31299Y-31791
X31299Y-43209
X31299Y-43996
X31299Y-44783
X31299Y-45571
X31299Y-46358
X31299Y-47146
X31890Y-17126
X32087Y-26280
X32087Y-27067
X32087Y-27854
X32087Y-30217
X32087Y-31004
X32087Y-31791
X32087Y-43209
X32087Y-43996
X32087Y-44783
X32087Y-45571
X32087Y-46358
X32087Y-47146
X32677Y-17126
X32874Y-26280
X32874Y-27067
X32874Y-27854
X32874Y-28642
X32874Y-29429
X32874Y-30217
X32874Y-31004
X32874Y-31791
X32874Y-43209
X32874Y-43996
X32874Y-44783
X32874Y-45571
X32874Y-46358
X32874Y-47146
X33465Y-17126
X33661Y-26280
X33661Y-27067
X33661Y-27854
X33661Y-28642
X33661Y-29429
X33661Y-30217
X33661Y-31004
X33661Y-31791
X34449Y-26280
X34449Y-27067
X34449Y-27854
X34449Y-28642
X34449Y-29429
X34449Y-30217
X34449Y-31004
X34449Y-31791
X35236Y-26280
X35236Y-27067
X35236Y-27854
X35236Y-28642
X35236Y-29429
X35236Y-30217
X35236Y-31004
X35236Y-31791
X36024Y-26280
X36024Y-27067
X36024Y-27854
X36024Y-28642
X36024Y-29429
X36024Y-30217
X36024Y-31004
X36024Y-31791
X37500Y-26280
X37500Y-27067
X37500Y-27854
X37500Y-28642
X37500Y-29429
X37500Y-30217
X38091Y-33563
X38287Y-26280
X38287Y-27067
X38287Y-27854
X38287Y-28642
X38287Y-29429
X38287Y-30217
X38484Y-33563
X38878Y-33563
X39075Y-26280
X39075Y-27067
X39075Y-27854
X39075Y-28642
X39075Y-29429
X39075Y-30217
X39075Y-31004
X39075Y-31791
X39862Y-26280
X39862Y-27067
X39862Y-27854
X39862Y-28642
X39862Y-29429
X39862Y-30217
X39862Y-31004
X39862Y-31791
X39961Y-21260
X40650Y-26280
X40650Y-27067
X40650Y-27854
X40650Y-28642
X40650Y-29429
X40650Y-30217
X40650Y-31004
X40650Y-31791
X42323Y-26280
X42323Y-27067
X42323Y-27854
X42323Y-28642
X42323Y-29429
X43110Y-26280
X43110Y-27067
X43110Y-27854
X43110Y-28642
X43110Y-29429
X43632Y-34026
X43632Y-34321
X45276Y-31496
X45276Y-32283
X45276Y-33071
X45276Y-33858
X46063Y-31496
X46063Y-32283
X46063Y-33071
X46063Y-33858
X46654Y-42126
X46654Y-42913
X46654Y-43701
X46654Y-44488
X46654Y-45276
X46654Y-46063
X46654Y-46850
X46850Y-31496
X46850Y-32283
X46850Y-33071
X46850Y-33858
X47441Y-42126
X47441Y-42913
X47441Y-43701
X47441Y-44488
X47441Y-45276
X47441Y-46063
X47441Y-46850
X50389Y-35231
T2
X29906Y-34055
X30406Y-34555
X30906Y-34055
T3
X20102Y-45988
X24039Y-47169
X39817Y-52037
X43754Y-53219
X20102Y-43626
X24039Y-44807
X20063Y-22835
X21063Y-22835
X21457Y-17520
X21457Y-18520
X24591Y-22835
X25591Y-22835
X31890Y-34252
X31890Y-35252
X31890Y-36252
X31890Y-37252
X31890Y-40551
X32890Y-40551
X36614Y-36024
X37614Y-36024
X37764Y-22047
X38764Y-22047
X39764Y-22047
X41929Y-36024
X42323Y-19488
X42323Y-20488
X42929Y-36024
X50197Y-40551
X51181Y-31890
X51181Y-32890
X51181Y-35433
X51181Y-36433
X51181Y-37433
X51197Y-40551
X39817Y-49675
X43754Y-50856
T4
X23622Y-21260
X34449Y-21260
X19685Y-48425
X30512Y-48425
X34646Y-51378
X45472Y-51378
T5
X45472Y-22047
X45472Y-24016
X48701Y-22047
X48701Y-24016
X45472Y-26969
X45472Y-28937
X48701Y-26969
X48701Y-28937
X21654Y-49409
X21654Y-52638
X23622Y-49409
X23622Y-52638
X26575Y-49409
X26575Y-52638
X28543Y-49409
X28543Y-52638
T0
M30
