G04 #@! TF.GenerationSoftware,KiCad,Pcbnew,5.1.6-c6e7f7d~86~ubuntu20.04.1*
G04 #@! TF.CreationDate,2020-09-04T11:15:15+02:00*
G04 #@! TF.ProjectId,Power,506f7765-722e-46b6-9963-61645f706362,rev?*
G04 #@! TF.SameCoordinates,Original*
G04 #@! TF.FileFunction,Copper,L1,Top*
G04 #@! TF.FilePolarity,Positive*
%FSLAX46Y46*%
G04 Gerber Fmt 4.6, Leading zero omitted, Abs format (unit mm)*
G04 Created by KiCad (PCBNEW 5.1.6-c6e7f7d~86~ubuntu20.04.1) date 2020-09-04 11:15:15*
%MOMM*%
%LPD*%
G01*
G04 APERTURE LIST*
G04 #@! TA.AperFunction,ComponentPad*
%ADD10C,2.400000*%
G04 #@! TD*
G04 #@! TA.AperFunction,ComponentPad*
%ADD11O,1.700000X1.700000*%
G04 #@! TD*
G04 #@! TA.AperFunction,ComponentPad*
%ADD12R,1.700000X1.700000*%
G04 #@! TD*
G04 #@! TA.AperFunction,SMDPad,CuDef*
%ADD13R,1.200000X0.900000*%
G04 #@! TD*
G04 #@! TA.AperFunction,SMDPad,CuDef*
%ADD14R,6.400000X5.800000*%
G04 #@! TD*
G04 #@! TA.AperFunction,SMDPad,CuDef*
%ADD15R,2.200000X1.200000*%
G04 #@! TD*
G04 #@! TA.AperFunction,SMDPad,CuDef*
%ADD16R,5.000000X5.000000*%
G04 #@! TD*
G04 #@! TA.AperFunction,ComponentPad*
%ADD17C,2.000000*%
G04 #@! TD*
G04 #@! TA.AperFunction,ComponentPad*
%ADD18C,0.800000*%
G04 #@! TD*
G04 #@! TA.AperFunction,ComponentPad*
%ADD19C,6.400000*%
G04 #@! TD*
G04 #@! TA.AperFunction,ComponentPad*
%ADD20C,1.803400*%
G04 #@! TD*
G04 #@! TA.AperFunction,ComponentPad*
%ADD21R,1.300000X1.300000*%
G04 #@! TD*
G04 #@! TA.AperFunction,ComponentPad*
%ADD22C,1.300000*%
G04 #@! TD*
G04 #@! TA.AperFunction,ViaPad*
%ADD23C,0.800000*%
G04 #@! TD*
G04 #@! TA.AperFunction,Conductor*
%ADD24C,1.000000*%
G04 #@! TD*
G04 #@! TA.AperFunction,Conductor*
%ADD25C,0.250000*%
G04 #@! TD*
G04 #@! TA.AperFunction,Conductor*
%ADD26C,3.000000*%
G04 #@! TD*
G04 #@! TA.AperFunction,Conductor*
%ADD27C,4.000000*%
G04 #@! TD*
G04 #@! TA.AperFunction,Conductor*
%ADD28C,0.254000*%
G04 #@! TD*
G04 APERTURE END LIST*
D10*
X115500000Y-130500000D03*
X88000000Y-130500000D03*
X50000000Y-123000000D03*
X77500000Y-123000000D03*
X87500000Y-54000000D03*
X60000000Y-54000000D03*
D11*
X54500000Y-47040000D03*
D12*
X54500000Y-44500000D03*
D11*
X83540000Y-103000000D03*
D12*
X81000000Y-103000000D03*
X130000000Y-90000000D03*
D11*
X130040000Y-103000000D03*
D12*
X127500000Y-103000000D03*
D11*
X130000000Y-92540000D03*
X130000000Y-95080000D03*
D12*
X81000000Y-87000000D03*
D11*
X81000000Y-89540000D03*
X81000000Y-92080000D03*
X81000000Y-94620000D03*
X130000000Y-83540000D03*
D12*
X130000000Y-81000000D03*
D11*
X62460000Y-58000000D03*
D12*
X65000000Y-58000000D03*
D11*
X50960000Y-58000000D03*
D12*
X53500000Y-58000000D03*
D11*
X95540000Y-91500000D03*
D12*
X93000000Y-91500000D03*
D11*
X109040000Y-91500000D03*
D12*
X106500000Y-91500000D03*
X107500000Y-49500000D03*
D11*
X107500000Y-52040000D03*
X95920000Y-56000000D03*
D12*
X101000000Y-56000000D03*
D11*
X98460000Y-56000000D03*
G04 #@! TA.AperFunction,SMDPad,CuDef*
G36*
G01*
X78043750Y-94012500D02*
X78956250Y-94012500D01*
G75*
G02*
X79200000Y-94256250I0J-243750D01*
G01*
X79200000Y-94743750D01*
G75*
G02*
X78956250Y-94987500I-243750J0D01*
G01*
X78043750Y-94987500D01*
G75*
G02*
X77800000Y-94743750I0J243750D01*
G01*
X77800000Y-94256250D01*
G75*
G02*
X78043750Y-94012500I243750J0D01*
G01*
G37*
G04 #@! TD.AperFunction*
G04 #@! TA.AperFunction,SMDPad,CuDef*
G36*
G01*
X78043750Y-92137500D02*
X78956250Y-92137500D01*
G75*
G02*
X79200000Y-92381250I0J-243750D01*
G01*
X79200000Y-92868750D01*
G75*
G02*
X78956250Y-93112500I-243750J0D01*
G01*
X78043750Y-93112500D01*
G75*
G02*
X77800000Y-92868750I0J243750D01*
G01*
X77800000Y-92381250D01*
G75*
G02*
X78043750Y-92137500I243750J0D01*
G01*
G37*
G04 #@! TD.AperFunction*
G04 #@! TA.AperFunction,SMDPad,CuDef*
G36*
G01*
X76550000Y-89043750D02*
X76550000Y-89956250D01*
G75*
G02*
X76306250Y-90200000I-243750J0D01*
G01*
X75818750Y-90200000D01*
G75*
G02*
X75575000Y-89956250I0J243750D01*
G01*
X75575000Y-89043750D01*
G75*
G02*
X75818750Y-88800000I243750J0D01*
G01*
X76306250Y-88800000D01*
G75*
G02*
X76550000Y-89043750I0J-243750D01*
G01*
G37*
G04 #@! TD.AperFunction*
G04 #@! TA.AperFunction,SMDPad,CuDef*
G36*
G01*
X78425000Y-89043750D02*
X78425000Y-89956250D01*
G75*
G02*
X78181250Y-90200000I-243750J0D01*
G01*
X77693750Y-90200000D01*
G75*
G02*
X77450000Y-89956250I0J243750D01*
G01*
X77450000Y-89043750D01*
G75*
G02*
X77693750Y-88800000I243750J0D01*
G01*
X78181250Y-88800000D01*
G75*
G02*
X78425000Y-89043750I0J-243750D01*
G01*
G37*
G04 #@! TD.AperFunction*
G04 #@! TA.AperFunction,SMDPad,CuDef*
G36*
G01*
X101043750Y-52450000D02*
X101956250Y-52450000D01*
G75*
G02*
X102200000Y-52693750I0J-243750D01*
G01*
X102200000Y-53181250D01*
G75*
G02*
X101956250Y-53425000I-243750J0D01*
G01*
X101043750Y-53425000D01*
G75*
G02*
X100800000Y-53181250I0J243750D01*
G01*
X100800000Y-52693750D01*
G75*
G02*
X101043750Y-52450000I243750J0D01*
G01*
G37*
G04 #@! TD.AperFunction*
G04 #@! TA.AperFunction,SMDPad,CuDef*
G36*
G01*
X101043750Y-50575000D02*
X101956250Y-50575000D01*
G75*
G02*
X102200000Y-50818750I0J-243750D01*
G01*
X102200000Y-51306250D01*
G75*
G02*
X101956250Y-51550000I-243750J0D01*
G01*
X101043750Y-51550000D01*
G75*
G02*
X100800000Y-51306250I0J243750D01*
G01*
X100800000Y-50818750D01*
G75*
G02*
X101043750Y-50575000I243750J0D01*
G01*
G37*
G04 #@! TD.AperFunction*
G04 #@! TA.AperFunction,SMDPad,CuDef*
G36*
G01*
X96512500Y-53956250D02*
X96512500Y-53043750D01*
G75*
G02*
X96756250Y-52800000I243750J0D01*
G01*
X97243750Y-52800000D01*
G75*
G02*
X97487500Y-53043750I0J-243750D01*
G01*
X97487500Y-53956250D01*
G75*
G02*
X97243750Y-54200000I-243750J0D01*
G01*
X96756250Y-54200000D01*
G75*
G02*
X96512500Y-53956250I0J243750D01*
G01*
G37*
G04 #@! TD.AperFunction*
G04 #@! TA.AperFunction,SMDPad,CuDef*
G36*
G01*
X94637500Y-53956250D02*
X94637500Y-53043750D01*
G75*
G02*
X94881250Y-52800000I243750J0D01*
G01*
X95368750Y-52800000D01*
G75*
G02*
X95612500Y-53043750I0J-243750D01*
G01*
X95612500Y-53956250D01*
G75*
G02*
X95368750Y-54200000I-243750J0D01*
G01*
X94881250Y-54200000D01*
G75*
G02*
X94637500Y-53956250I0J243750D01*
G01*
G37*
G04 #@! TD.AperFunction*
G04 #@! TA.AperFunction,SMDPad,CuDef*
G36*
G01*
X67075000Y-51465000D02*
X64925000Y-51465000D01*
G75*
G02*
X64675000Y-51215000I0J250000D01*
G01*
X64675000Y-50465000D01*
G75*
G02*
X64925000Y-50215000I250000J0D01*
G01*
X67075000Y-50215000D01*
G75*
G02*
X67325000Y-50465000I0J-250000D01*
G01*
X67325000Y-51215000D01*
G75*
G02*
X67075000Y-51465000I-250000J0D01*
G01*
G37*
G04 #@! TD.AperFunction*
G04 #@! TA.AperFunction,SMDPad,CuDef*
G36*
G01*
X67075000Y-54265000D02*
X64925000Y-54265000D01*
G75*
G02*
X64675000Y-54015000I0J250000D01*
G01*
X64675000Y-53265000D01*
G75*
G02*
X64925000Y-53015000I250000J0D01*
G01*
X67075000Y-53015000D01*
G75*
G02*
X67325000Y-53265000I0J-250000D01*
G01*
X67325000Y-54015000D01*
G75*
G02*
X67075000Y-54265000I-250000J0D01*
G01*
G37*
G04 #@! TD.AperFunction*
G04 #@! TA.AperFunction,SMDPad,CuDef*
G36*
G01*
X126043750Y-94950000D02*
X126956250Y-94950000D01*
G75*
G02*
X127200000Y-95193750I0J-243750D01*
G01*
X127200000Y-95681250D01*
G75*
G02*
X126956250Y-95925000I-243750J0D01*
G01*
X126043750Y-95925000D01*
G75*
G02*
X125800000Y-95681250I0J243750D01*
G01*
X125800000Y-95193750D01*
G75*
G02*
X126043750Y-94950000I243750J0D01*
G01*
G37*
G04 #@! TD.AperFunction*
G04 #@! TA.AperFunction,SMDPad,CuDef*
G36*
G01*
X126043750Y-93075000D02*
X126956250Y-93075000D01*
G75*
G02*
X127200000Y-93318750I0J-243750D01*
G01*
X127200000Y-93806250D01*
G75*
G02*
X126956250Y-94050000I-243750J0D01*
G01*
X126043750Y-94050000D01*
G75*
G02*
X125800000Y-93806250I0J243750D01*
G01*
X125800000Y-93318750D01*
G75*
G02*
X126043750Y-93075000I243750J0D01*
G01*
G37*
G04 #@! TD.AperFunction*
G04 #@! TA.AperFunction,SMDPad,CuDef*
G36*
G01*
X126512500Y-89956250D02*
X126512500Y-89043750D01*
G75*
G02*
X126756250Y-88800000I243750J0D01*
G01*
X127243750Y-88800000D01*
G75*
G02*
X127487500Y-89043750I0J-243750D01*
G01*
X127487500Y-89956250D01*
G75*
G02*
X127243750Y-90200000I-243750J0D01*
G01*
X126756250Y-90200000D01*
G75*
G02*
X126512500Y-89956250I0J243750D01*
G01*
G37*
G04 #@! TD.AperFunction*
G04 #@! TA.AperFunction,SMDPad,CuDef*
G36*
G01*
X124637500Y-89956250D02*
X124637500Y-89043750D01*
G75*
G02*
X124881250Y-88800000I243750J0D01*
G01*
X125368750Y-88800000D01*
G75*
G02*
X125612500Y-89043750I0J-243750D01*
G01*
X125612500Y-89956250D01*
G75*
G02*
X125368750Y-90200000I-243750J0D01*
G01*
X124881250Y-90200000D01*
G75*
G02*
X124637500Y-89956250I0J243750D01*
G01*
G37*
G04 #@! TD.AperFunction*
D13*
X65755000Y-64515000D03*
X65755000Y-61215000D03*
X51785000Y-64515000D03*
X51785000Y-61215000D03*
X90845000Y-84710000D03*
X90845000Y-88010000D03*
X106410000Y-85345000D03*
X106410000Y-88645000D03*
D14*
X69760000Y-79010000D03*
D15*
X63460000Y-81290000D03*
X63460000Y-76730000D03*
D14*
X89340000Y-69215000D03*
D15*
X95640000Y-66935000D03*
X95640000Y-71495000D03*
D14*
X56425000Y-79010000D03*
D15*
X50125000Y-81290000D03*
X50125000Y-76730000D03*
D14*
X101405000Y-69215000D03*
D15*
X107705000Y-66935000D03*
X107705000Y-71495000D03*
D16*
X60365000Y-89045000D03*
X51365000Y-89045000D03*
X55865000Y-106045000D03*
X111000000Y-104500000D03*
X102000000Y-104500000D03*
X106500000Y-121500000D03*
D14*
X69760000Y-69215000D03*
D15*
X63460000Y-71495000D03*
X63460000Y-66935000D03*
D14*
X56425000Y-69215000D03*
D15*
X50125000Y-71495000D03*
X50125000Y-66935000D03*
D14*
X89380000Y-79135000D03*
D15*
X95680000Y-76855000D03*
X95680000Y-81415000D03*
D14*
X101530000Y-79135000D03*
D15*
X107830000Y-76855000D03*
X107830000Y-81415000D03*
G04 #@! TA.AperFunction,SMDPad,CuDef*
G36*
G01*
X62758750Y-62377500D02*
X63671250Y-62377500D01*
G75*
G02*
X63915000Y-62621250I0J-243750D01*
G01*
X63915000Y-63108750D01*
G75*
G02*
X63671250Y-63352500I-243750J0D01*
G01*
X62758750Y-63352500D01*
G75*
G02*
X62515000Y-63108750I0J243750D01*
G01*
X62515000Y-62621250D01*
G75*
G02*
X62758750Y-62377500I243750J0D01*
G01*
G37*
G04 #@! TD.AperFunction*
G04 #@! TA.AperFunction,SMDPad,CuDef*
G36*
G01*
X62758750Y-60502500D02*
X63671250Y-60502500D01*
G75*
G02*
X63915000Y-60746250I0J-243750D01*
G01*
X63915000Y-61233750D01*
G75*
G02*
X63671250Y-61477500I-243750J0D01*
G01*
X62758750Y-61477500D01*
G75*
G02*
X62515000Y-61233750I0J243750D01*
G01*
X62515000Y-60746250D01*
G75*
G02*
X62758750Y-60502500I243750J0D01*
G01*
G37*
G04 #@! TD.AperFunction*
G04 #@! TA.AperFunction,SMDPad,CuDef*
G36*
G01*
X93841250Y-87512500D02*
X92928750Y-87512500D01*
G75*
G02*
X92685000Y-87268750I0J243750D01*
G01*
X92685000Y-86781250D01*
G75*
G02*
X92928750Y-86537500I243750J0D01*
G01*
X93841250Y-86537500D01*
G75*
G02*
X94085000Y-86781250I0J-243750D01*
G01*
X94085000Y-87268750D01*
G75*
G02*
X93841250Y-87512500I-243750J0D01*
G01*
G37*
G04 #@! TD.AperFunction*
G04 #@! TA.AperFunction,SMDPad,CuDef*
G36*
G01*
X93841250Y-89387500D02*
X92928750Y-89387500D01*
G75*
G02*
X92685000Y-89143750I0J243750D01*
G01*
X92685000Y-88656250D01*
G75*
G02*
X92928750Y-88412500I243750J0D01*
G01*
X93841250Y-88412500D01*
G75*
G02*
X94085000Y-88656250I0J-243750D01*
G01*
X94085000Y-89143750D01*
G75*
G02*
X93841250Y-89387500I-243750J0D01*
G01*
G37*
G04 #@! TD.AperFunction*
G04 #@! TA.AperFunction,SMDPad,CuDef*
G36*
G01*
X68956250Y-63112500D02*
X68043750Y-63112500D01*
G75*
G02*
X67800000Y-62868750I0J243750D01*
G01*
X67800000Y-62381250D01*
G75*
G02*
X68043750Y-62137500I243750J0D01*
G01*
X68956250Y-62137500D01*
G75*
G02*
X69200000Y-62381250I0J-243750D01*
G01*
X69200000Y-62868750D01*
G75*
G02*
X68956250Y-63112500I-243750J0D01*
G01*
G37*
G04 #@! TD.AperFunction*
G04 #@! TA.AperFunction,SMDPad,CuDef*
G36*
G01*
X68956250Y-64987500D02*
X68043750Y-64987500D01*
G75*
G02*
X67800000Y-64743750I0J243750D01*
G01*
X67800000Y-64256250D01*
G75*
G02*
X68043750Y-64012500I243750J0D01*
G01*
X68956250Y-64012500D01*
G75*
G02*
X69200000Y-64256250I0J-243750D01*
G01*
X69200000Y-64743750D01*
G75*
G02*
X68956250Y-64987500I-243750J0D01*
G01*
G37*
G04 #@! TD.AperFunction*
G04 #@! TA.AperFunction,SMDPad,CuDef*
G36*
G01*
X54781250Y-63050000D02*
X53868750Y-63050000D01*
G75*
G02*
X53625000Y-62806250I0J243750D01*
G01*
X53625000Y-62318750D01*
G75*
G02*
X53868750Y-62075000I243750J0D01*
G01*
X54781250Y-62075000D01*
G75*
G02*
X55025000Y-62318750I0J-243750D01*
G01*
X55025000Y-62806250D01*
G75*
G02*
X54781250Y-63050000I-243750J0D01*
G01*
G37*
G04 #@! TD.AperFunction*
G04 #@! TA.AperFunction,SMDPad,CuDef*
G36*
G01*
X54781250Y-64925000D02*
X53868750Y-64925000D01*
G75*
G02*
X53625000Y-64681250I0J243750D01*
G01*
X53625000Y-64193750D01*
G75*
G02*
X53868750Y-63950000I243750J0D01*
G01*
X54781250Y-63950000D01*
G75*
G02*
X55025000Y-64193750I0J-243750D01*
G01*
X55025000Y-64681250D01*
G75*
G02*
X54781250Y-64925000I-243750J0D01*
G01*
G37*
G04 #@! TD.AperFunction*
G04 #@! TA.AperFunction,SMDPad,CuDef*
G36*
G01*
X88761250Y-85275000D02*
X87848750Y-85275000D01*
G75*
G02*
X87605000Y-85031250I0J243750D01*
G01*
X87605000Y-84543750D01*
G75*
G02*
X87848750Y-84300000I243750J0D01*
G01*
X88761250Y-84300000D01*
G75*
G02*
X89005000Y-84543750I0J-243750D01*
G01*
X89005000Y-85031250D01*
G75*
G02*
X88761250Y-85275000I-243750J0D01*
G01*
G37*
G04 #@! TD.AperFunction*
G04 #@! TA.AperFunction,SMDPad,CuDef*
G36*
G01*
X88761250Y-87150000D02*
X87848750Y-87150000D01*
G75*
G02*
X87605000Y-86906250I0J243750D01*
G01*
X87605000Y-86418750D01*
G75*
G02*
X87848750Y-86175000I243750J0D01*
G01*
X88761250Y-86175000D01*
G75*
G02*
X89005000Y-86418750I0J-243750D01*
G01*
X89005000Y-86906250D01*
G75*
G02*
X88761250Y-87150000I-243750J0D01*
G01*
G37*
G04 #@! TD.AperFunction*
G04 #@! TA.AperFunction,SMDPad,CuDef*
G36*
G01*
X104326250Y-85577500D02*
X103413750Y-85577500D01*
G75*
G02*
X103170000Y-85333750I0J243750D01*
G01*
X103170000Y-84846250D01*
G75*
G02*
X103413750Y-84602500I243750J0D01*
G01*
X104326250Y-84602500D01*
G75*
G02*
X104570000Y-84846250I0J-243750D01*
G01*
X104570000Y-85333750D01*
G75*
G02*
X104326250Y-85577500I-243750J0D01*
G01*
G37*
G04 #@! TD.AperFunction*
G04 #@! TA.AperFunction,SMDPad,CuDef*
G36*
G01*
X104326250Y-87452500D02*
X103413750Y-87452500D01*
G75*
G02*
X103170000Y-87208750I0J243750D01*
G01*
X103170000Y-86721250D01*
G75*
G02*
X103413750Y-86477500I243750J0D01*
G01*
X104326250Y-86477500D01*
G75*
G02*
X104570000Y-86721250I0J-243750D01*
G01*
X104570000Y-87208750D01*
G75*
G02*
X104326250Y-87452500I-243750J0D01*
G01*
G37*
G04 #@! TD.AperFunction*
G04 #@! TA.AperFunction,SMDPad,CuDef*
G36*
G01*
X48788750Y-62045000D02*
X49701250Y-62045000D01*
G75*
G02*
X49945000Y-62288750I0J-243750D01*
G01*
X49945000Y-62776250D01*
G75*
G02*
X49701250Y-63020000I-243750J0D01*
G01*
X48788750Y-63020000D01*
G75*
G02*
X48545000Y-62776250I0J243750D01*
G01*
X48545000Y-62288750D01*
G75*
G02*
X48788750Y-62045000I243750J0D01*
G01*
G37*
G04 #@! TD.AperFunction*
G04 #@! TA.AperFunction,SMDPad,CuDef*
G36*
G01*
X48788750Y-60170000D02*
X49701250Y-60170000D01*
G75*
G02*
X49945000Y-60413750I0J-243750D01*
G01*
X49945000Y-60901250D01*
G75*
G02*
X49701250Y-61145000I-243750J0D01*
G01*
X48788750Y-61145000D01*
G75*
G02*
X48545000Y-60901250I0J243750D01*
G01*
X48545000Y-60413750D01*
G75*
G02*
X48788750Y-60170000I243750J0D01*
G01*
G37*
G04 #@! TD.AperFunction*
G04 #@! TA.AperFunction,SMDPad,CuDef*
G36*
G01*
X109406250Y-87512500D02*
X108493750Y-87512500D01*
G75*
G02*
X108250000Y-87268750I0J243750D01*
G01*
X108250000Y-86781250D01*
G75*
G02*
X108493750Y-86537500I243750J0D01*
G01*
X109406250Y-86537500D01*
G75*
G02*
X109650000Y-86781250I0J-243750D01*
G01*
X109650000Y-87268750D01*
G75*
G02*
X109406250Y-87512500I-243750J0D01*
G01*
G37*
G04 #@! TD.AperFunction*
G04 #@! TA.AperFunction,SMDPad,CuDef*
G36*
G01*
X109406250Y-89387500D02*
X108493750Y-89387500D01*
G75*
G02*
X108250000Y-89143750I0J243750D01*
G01*
X108250000Y-88656250D01*
G75*
G02*
X108493750Y-88412500I243750J0D01*
G01*
X109406250Y-88412500D01*
G75*
G02*
X109650000Y-88656250I0J-243750D01*
G01*
X109650000Y-89143750D01*
G75*
G02*
X109406250Y-89387500I-243750J0D01*
G01*
G37*
G04 #@! TD.AperFunction*
G04 #@! TA.AperFunction,SMDPad,CuDef*
G36*
G01*
X62697500Y-65226250D02*
X62697500Y-64313750D01*
G75*
G02*
X62941250Y-64070000I243750J0D01*
G01*
X63428750Y-64070000D01*
G75*
G02*
X63672500Y-64313750I0J-243750D01*
G01*
X63672500Y-65226250D01*
G75*
G02*
X63428750Y-65470000I-243750J0D01*
G01*
X62941250Y-65470000D01*
G75*
G02*
X62697500Y-65226250I0J243750D01*
G01*
G37*
G04 #@! TD.AperFunction*
G04 #@! TA.AperFunction,SMDPad,CuDef*
G36*
G01*
X60822500Y-65226250D02*
X60822500Y-64313750D01*
G75*
G02*
X61066250Y-64070000I243750J0D01*
G01*
X61553750Y-64070000D01*
G75*
G02*
X61797500Y-64313750I0J-243750D01*
G01*
X61797500Y-65226250D01*
G75*
G02*
X61553750Y-65470000I-243750J0D01*
G01*
X61066250Y-65470000D01*
G75*
G02*
X60822500Y-65226250I0J243750D01*
G01*
G37*
G04 #@! TD.AperFunction*
G04 #@! TA.AperFunction,SMDPad,CuDef*
G36*
G01*
X93902500Y-84633750D02*
X93902500Y-85546250D01*
G75*
G02*
X93658750Y-85790000I-243750J0D01*
G01*
X93171250Y-85790000D01*
G75*
G02*
X92927500Y-85546250I0J243750D01*
G01*
X92927500Y-84633750D01*
G75*
G02*
X93171250Y-84390000I243750J0D01*
G01*
X93658750Y-84390000D01*
G75*
G02*
X93902500Y-84633750I0J-243750D01*
G01*
G37*
G04 #@! TD.AperFunction*
G04 #@! TA.AperFunction,SMDPad,CuDef*
G36*
G01*
X95777500Y-84633750D02*
X95777500Y-85546250D01*
G75*
G02*
X95533750Y-85790000I-243750J0D01*
G01*
X95046250Y-85790000D01*
G75*
G02*
X94802500Y-85546250I0J243750D01*
G01*
X94802500Y-84633750D01*
G75*
G02*
X95046250Y-84390000I243750J0D01*
G01*
X95533750Y-84390000D01*
G75*
G02*
X95777500Y-84633750I0J-243750D01*
G01*
G37*
G04 #@! TD.AperFunction*
G04 #@! TA.AperFunction,SMDPad,CuDef*
G36*
G01*
X48727500Y-65226250D02*
X48727500Y-64313750D01*
G75*
G02*
X48971250Y-64070000I243750J0D01*
G01*
X49458750Y-64070000D01*
G75*
G02*
X49702500Y-64313750I0J-243750D01*
G01*
X49702500Y-65226250D01*
G75*
G02*
X49458750Y-65470000I-243750J0D01*
G01*
X48971250Y-65470000D01*
G75*
G02*
X48727500Y-65226250I0J243750D01*
G01*
G37*
G04 #@! TD.AperFunction*
G04 #@! TA.AperFunction,SMDPad,CuDef*
G36*
G01*
X46852500Y-65226250D02*
X46852500Y-64313750D01*
G75*
G02*
X47096250Y-64070000I243750J0D01*
G01*
X47583750Y-64070000D01*
G75*
G02*
X47827500Y-64313750I0J-243750D01*
G01*
X47827500Y-65226250D01*
G75*
G02*
X47583750Y-65470000I-243750J0D01*
G01*
X47096250Y-65470000D01*
G75*
G02*
X46852500Y-65226250I0J243750D01*
G01*
G37*
G04 #@! TD.AperFunction*
G04 #@! TA.AperFunction,SMDPad,CuDef*
G36*
G01*
X109437500Y-84633750D02*
X109437500Y-85546250D01*
G75*
G02*
X109193750Y-85790000I-243750J0D01*
G01*
X108706250Y-85790000D01*
G75*
G02*
X108462500Y-85546250I0J243750D01*
G01*
X108462500Y-84633750D01*
G75*
G02*
X108706250Y-84390000I243750J0D01*
G01*
X109193750Y-84390000D01*
G75*
G02*
X109437500Y-84633750I0J-243750D01*
G01*
G37*
G04 #@! TD.AperFunction*
G04 #@! TA.AperFunction,SMDPad,CuDef*
G36*
G01*
X111312500Y-84633750D02*
X111312500Y-85546250D01*
G75*
G02*
X111068750Y-85790000I-243750J0D01*
G01*
X110581250Y-85790000D01*
G75*
G02*
X110337500Y-85546250I0J243750D01*
G01*
X110337500Y-84633750D01*
G75*
G02*
X110581250Y-84390000I243750J0D01*
G01*
X111068750Y-84390000D01*
G75*
G02*
X111312500Y-84633750I0J-243750D01*
G01*
G37*
G04 #@! TD.AperFunction*
G04 #@! TA.AperFunction,SMDPad,CuDef*
G36*
G01*
X99620000Y-49975000D02*
X99920000Y-49975000D01*
G75*
G02*
X100070000Y-50125000I0J-150000D01*
G01*
X100070000Y-51775000D01*
G75*
G02*
X99920000Y-51925000I-150000J0D01*
G01*
X99620000Y-51925000D01*
G75*
G02*
X99470000Y-51775000I0J150000D01*
G01*
X99470000Y-50125000D01*
G75*
G02*
X99620000Y-49975000I150000J0D01*
G01*
G37*
G04 #@! TD.AperFunction*
G04 #@! TA.AperFunction,SMDPad,CuDef*
G36*
G01*
X98350000Y-49975000D02*
X98650000Y-49975000D01*
G75*
G02*
X98800000Y-50125000I0J-150000D01*
G01*
X98800000Y-51775000D01*
G75*
G02*
X98650000Y-51925000I-150000J0D01*
G01*
X98350000Y-51925000D01*
G75*
G02*
X98200000Y-51775000I0J150000D01*
G01*
X98200000Y-50125000D01*
G75*
G02*
X98350000Y-49975000I150000J0D01*
G01*
G37*
G04 #@! TD.AperFunction*
G04 #@! TA.AperFunction,SMDPad,CuDef*
G36*
G01*
X97080000Y-49975000D02*
X97380000Y-49975000D01*
G75*
G02*
X97530000Y-50125000I0J-150000D01*
G01*
X97530000Y-51775000D01*
G75*
G02*
X97380000Y-51925000I-150000J0D01*
G01*
X97080000Y-51925000D01*
G75*
G02*
X96930000Y-51775000I0J150000D01*
G01*
X96930000Y-50125000D01*
G75*
G02*
X97080000Y-49975000I150000J0D01*
G01*
G37*
G04 #@! TD.AperFunction*
G04 #@! TA.AperFunction,SMDPad,CuDef*
G36*
G01*
X95810000Y-49975000D02*
X96110000Y-49975000D01*
G75*
G02*
X96260000Y-50125000I0J-150000D01*
G01*
X96260000Y-51775000D01*
G75*
G02*
X96110000Y-51925000I-150000J0D01*
G01*
X95810000Y-51925000D01*
G75*
G02*
X95660000Y-51775000I0J150000D01*
G01*
X95660000Y-50125000D01*
G75*
G02*
X95810000Y-49975000I150000J0D01*
G01*
G37*
G04 #@! TD.AperFunction*
G04 #@! TA.AperFunction,SMDPad,CuDef*
G36*
G01*
X95810000Y-45025000D02*
X96110000Y-45025000D01*
G75*
G02*
X96260000Y-45175000I0J-150000D01*
G01*
X96260000Y-46825000D01*
G75*
G02*
X96110000Y-46975000I-150000J0D01*
G01*
X95810000Y-46975000D01*
G75*
G02*
X95660000Y-46825000I0J150000D01*
G01*
X95660000Y-45175000D01*
G75*
G02*
X95810000Y-45025000I150000J0D01*
G01*
G37*
G04 #@! TD.AperFunction*
G04 #@! TA.AperFunction,SMDPad,CuDef*
G36*
G01*
X97080000Y-45025000D02*
X97380000Y-45025000D01*
G75*
G02*
X97530000Y-45175000I0J-150000D01*
G01*
X97530000Y-46825000D01*
G75*
G02*
X97380000Y-46975000I-150000J0D01*
G01*
X97080000Y-46975000D01*
G75*
G02*
X96930000Y-46825000I0J150000D01*
G01*
X96930000Y-45175000D01*
G75*
G02*
X97080000Y-45025000I150000J0D01*
G01*
G37*
G04 #@! TD.AperFunction*
G04 #@! TA.AperFunction,SMDPad,CuDef*
G36*
G01*
X98350000Y-45025000D02*
X98650000Y-45025000D01*
G75*
G02*
X98800000Y-45175000I0J-150000D01*
G01*
X98800000Y-46825000D01*
G75*
G02*
X98650000Y-46975000I-150000J0D01*
G01*
X98350000Y-46975000D01*
G75*
G02*
X98200000Y-46825000I0J150000D01*
G01*
X98200000Y-45175000D01*
G75*
G02*
X98350000Y-45025000I150000J0D01*
G01*
G37*
G04 #@! TD.AperFunction*
G04 #@! TA.AperFunction,SMDPad,CuDef*
G36*
G01*
X99620000Y-45025000D02*
X99920000Y-45025000D01*
G75*
G02*
X100070000Y-45175000I0J-150000D01*
G01*
X100070000Y-46825000D01*
G75*
G02*
X99920000Y-46975000I-150000J0D01*
G01*
X99620000Y-46975000D01*
G75*
G02*
X99470000Y-46825000I0J150000D01*
G01*
X99470000Y-45175000D01*
G75*
G02*
X99620000Y-45025000I150000J0D01*
G01*
G37*
G04 #@! TD.AperFunction*
D17*
X51060000Y-116810000D03*
X61060000Y-119810000D03*
X51060000Y-110810000D03*
X61060000Y-113810000D03*
X101135000Y-132175000D03*
X111135000Y-135175000D03*
X101135000Y-126175000D03*
X111135000Y-129175000D03*
G04 #@! TA.AperFunction,SMDPad,CuDef*
G36*
G01*
X75025000Y-91245000D02*
X75025000Y-90945000D01*
G75*
G02*
X75175000Y-90795000I150000J0D01*
G01*
X76825000Y-90795000D01*
G75*
G02*
X76975000Y-90945000I0J-150000D01*
G01*
X76975000Y-91245000D01*
G75*
G02*
X76825000Y-91395000I-150000J0D01*
G01*
X75175000Y-91395000D01*
G75*
G02*
X75025000Y-91245000I0J150000D01*
G01*
G37*
G04 #@! TD.AperFunction*
G04 #@! TA.AperFunction,SMDPad,CuDef*
G36*
G01*
X75025000Y-92515000D02*
X75025000Y-92215000D01*
G75*
G02*
X75175000Y-92065000I150000J0D01*
G01*
X76825000Y-92065000D01*
G75*
G02*
X76975000Y-92215000I0J-150000D01*
G01*
X76975000Y-92515000D01*
G75*
G02*
X76825000Y-92665000I-150000J0D01*
G01*
X75175000Y-92665000D01*
G75*
G02*
X75025000Y-92515000I0J150000D01*
G01*
G37*
G04 #@! TD.AperFunction*
G04 #@! TA.AperFunction,SMDPad,CuDef*
G36*
G01*
X75025000Y-93785000D02*
X75025000Y-93485000D01*
G75*
G02*
X75175000Y-93335000I150000J0D01*
G01*
X76825000Y-93335000D01*
G75*
G02*
X76975000Y-93485000I0J-150000D01*
G01*
X76975000Y-93785000D01*
G75*
G02*
X76825000Y-93935000I-150000J0D01*
G01*
X75175000Y-93935000D01*
G75*
G02*
X75025000Y-93785000I0J150000D01*
G01*
G37*
G04 #@! TD.AperFunction*
G04 #@! TA.AperFunction,SMDPad,CuDef*
G36*
G01*
X75025000Y-95055000D02*
X75025000Y-94755000D01*
G75*
G02*
X75175000Y-94605000I150000J0D01*
G01*
X76825000Y-94605000D01*
G75*
G02*
X76975000Y-94755000I0J-150000D01*
G01*
X76975000Y-95055000D01*
G75*
G02*
X76825000Y-95205000I-150000J0D01*
G01*
X75175000Y-95205000D01*
G75*
G02*
X75025000Y-95055000I0J150000D01*
G01*
G37*
G04 #@! TD.AperFunction*
G04 #@! TA.AperFunction,SMDPad,CuDef*
G36*
G01*
X70075000Y-95055000D02*
X70075000Y-94755000D01*
G75*
G02*
X70225000Y-94605000I150000J0D01*
G01*
X71875000Y-94605000D01*
G75*
G02*
X72025000Y-94755000I0J-150000D01*
G01*
X72025000Y-95055000D01*
G75*
G02*
X71875000Y-95205000I-150000J0D01*
G01*
X70225000Y-95205000D01*
G75*
G02*
X70075000Y-95055000I0J150000D01*
G01*
G37*
G04 #@! TD.AperFunction*
G04 #@! TA.AperFunction,SMDPad,CuDef*
G36*
G01*
X70075000Y-93785000D02*
X70075000Y-93485000D01*
G75*
G02*
X70225000Y-93335000I150000J0D01*
G01*
X71875000Y-93335000D01*
G75*
G02*
X72025000Y-93485000I0J-150000D01*
G01*
X72025000Y-93785000D01*
G75*
G02*
X71875000Y-93935000I-150000J0D01*
G01*
X70225000Y-93935000D01*
G75*
G02*
X70075000Y-93785000I0J150000D01*
G01*
G37*
G04 #@! TD.AperFunction*
G04 #@! TA.AperFunction,SMDPad,CuDef*
G36*
G01*
X70075000Y-92515000D02*
X70075000Y-92215000D01*
G75*
G02*
X70225000Y-92065000I150000J0D01*
G01*
X71875000Y-92065000D01*
G75*
G02*
X72025000Y-92215000I0J-150000D01*
G01*
X72025000Y-92515000D01*
G75*
G02*
X71875000Y-92665000I-150000J0D01*
G01*
X70225000Y-92665000D01*
G75*
G02*
X70075000Y-92515000I0J150000D01*
G01*
G37*
G04 #@! TD.AperFunction*
G04 #@! TA.AperFunction,SMDPad,CuDef*
G36*
G01*
X70075000Y-91245000D02*
X70075000Y-90945000D01*
G75*
G02*
X70225000Y-90795000I150000J0D01*
G01*
X71875000Y-90795000D01*
G75*
G02*
X72025000Y-90945000I0J-150000D01*
G01*
X72025000Y-91245000D01*
G75*
G02*
X71875000Y-91395000I-150000J0D01*
G01*
X70225000Y-91395000D01*
G75*
G02*
X70075000Y-91245000I0J150000D01*
G01*
G37*
G04 #@! TD.AperFunction*
G04 #@! TA.AperFunction,SMDPad,CuDef*
G36*
G01*
X123935000Y-91450000D02*
X123935000Y-91150000D01*
G75*
G02*
X124085000Y-91000000I150000J0D01*
G01*
X125735000Y-91000000D01*
G75*
G02*
X125885000Y-91150000I0J-150000D01*
G01*
X125885000Y-91450000D01*
G75*
G02*
X125735000Y-91600000I-150000J0D01*
G01*
X124085000Y-91600000D01*
G75*
G02*
X123935000Y-91450000I0J150000D01*
G01*
G37*
G04 #@! TD.AperFunction*
G04 #@! TA.AperFunction,SMDPad,CuDef*
G36*
G01*
X123935000Y-92720000D02*
X123935000Y-92420000D01*
G75*
G02*
X124085000Y-92270000I150000J0D01*
G01*
X125735000Y-92270000D01*
G75*
G02*
X125885000Y-92420000I0J-150000D01*
G01*
X125885000Y-92720000D01*
G75*
G02*
X125735000Y-92870000I-150000J0D01*
G01*
X124085000Y-92870000D01*
G75*
G02*
X123935000Y-92720000I0J150000D01*
G01*
G37*
G04 #@! TD.AperFunction*
G04 #@! TA.AperFunction,SMDPad,CuDef*
G36*
G01*
X123935000Y-93990000D02*
X123935000Y-93690000D01*
G75*
G02*
X124085000Y-93540000I150000J0D01*
G01*
X125735000Y-93540000D01*
G75*
G02*
X125885000Y-93690000I0J-150000D01*
G01*
X125885000Y-93990000D01*
G75*
G02*
X125735000Y-94140000I-150000J0D01*
G01*
X124085000Y-94140000D01*
G75*
G02*
X123935000Y-93990000I0J150000D01*
G01*
G37*
G04 #@! TD.AperFunction*
G04 #@! TA.AperFunction,SMDPad,CuDef*
G36*
G01*
X123935000Y-95260000D02*
X123935000Y-94960000D01*
G75*
G02*
X124085000Y-94810000I150000J0D01*
G01*
X125735000Y-94810000D01*
G75*
G02*
X125885000Y-94960000I0J-150000D01*
G01*
X125885000Y-95260000D01*
G75*
G02*
X125735000Y-95410000I-150000J0D01*
G01*
X124085000Y-95410000D01*
G75*
G02*
X123935000Y-95260000I0J150000D01*
G01*
G37*
G04 #@! TD.AperFunction*
G04 #@! TA.AperFunction,SMDPad,CuDef*
G36*
G01*
X118985000Y-95260000D02*
X118985000Y-94960000D01*
G75*
G02*
X119135000Y-94810000I150000J0D01*
G01*
X120785000Y-94810000D01*
G75*
G02*
X120935000Y-94960000I0J-150000D01*
G01*
X120935000Y-95260000D01*
G75*
G02*
X120785000Y-95410000I-150000J0D01*
G01*
X119135000Y-95410000D01*
G75*
G02*
X118985000Y-95260000I0J150000D01*
G01*
G37*
G04 #@! TD.AperFunction*
G04 #@! TA.AperFunction,SMDPad,CuDef*
G36*
G01*
X118985000Y-93990000D02*
X118985000Y-93690000D01*
G75*
G02*
X119135000Y-93540000I150000J0D01*
G01*
X120785000Y-93540000D01*
G75*
G02*
X120935000Y-93690000I0J-150000D01*
G01*
X120935000Y-93990000D01*
G75*
G02*
X120785000Y-94140000I-150000J0D01*
G01*
X119135000Y-94140000D01*
G75*
G02*
X118985000Y-93990000I0J150000D01*
G01*
G37*
G04 #@! TD.AperFunction*
G04 #@! TA.AperFunction,SMDPad,CuDef*
G36*
G01*
X118985000Y-92720000D02*
X118985000Y-92420000D01*
G75*
G02*
X119135000Y-92270000I150000J0D01*
G01*
X120785000Y-92270000D01*
G75*
G02*
X120935000Y-92420000I0J-150000D01*
G01*
X120935000Y-92720000D01*
G75*
G02*
X120785000Y-92870000I-150000J0D01*
G01*
X119135000Y-92870000D01*
G75*
G02*
X118985000Y-92720000I0J150000D01*
G01*
G37*
G04 #@! TD.AperFunction*
G04 #@! TA.AperFunction,SMDPad,CuDef*
G36*
G01*
X118985000Y-91450000D02*
X118985000Y-91150000D01*
G75*
G02*
X119135000Y-91000000I150000J0D01*
G01*
X120785000Y-91000000D01*
G75*
G02*
X120935000Y-91150000I0J-150000D01*
G01*
X120935000Y-91450000D01*
G75*
G02*
X120785000Y-91600000I-150000J0D01*
G01*
X119135000Y-91600000D01*
G75*
G02*
X118985000Y-91450000I0J150000D01*
G01*
G37*
G04 #@! TD.AperFunction*
D14*
X117175000Y-82025000D03*
D15*
X123475000Y-79745000D03*
X123475000Y-84305000D03*
G04 #@! TA.AperFunction,SMDPad,CuDef*
G36*
G01*
X79012500Y-100956250D02*
X79012500Y-100043750D01*
G75*
G02*
X79256250Y-99800000I243750J0D01*
G01*
X79743750Y-99800000D01*
G75*
G02*
X79987500Y-100043750I0J-243750D01*
G01*
X79987500Y-100956250D01*
G75*
G02*
X79743750Y-101200000I-243750J0D01*
G01*
X79256250Y-101200000D01*
G75*
G02*
X79012500Y-100956250I0J243750D01*
G01*
G37*
G04 #@! TD.AperFunction*
G04 #@! TA.AperFunction,SMDPad,CuDef*
G36*
G01*
X77137500Y-100956250D02*
X77137500Y-100043750D01*
G75*
G02*
X77381250Y-99800000I243750J0D01*
G01*
X77868750Y-99800000D01*
G75*
G02*
X78112500Y-100043750I0J-243750D01*
G01*
X78112500Y-100956250D01*
G75*
G02*
X77868750Y-101200000I-243750J0D01*
G01*
X77381250Y-101200000D01*
G75*
G02*
X77137500Y-100956250I0J243750D01*
G01*
G37*
G04 #@! TD.AperFunction*
G04 #@! TA.AperFunction,SMDPad,CuDef*
G36*
G01*
X82387500Y-100956250D02*
X82387500Y-100043750D01*
G75*
G02*
X82631250Y-99800000I243750J0D01*
G01*
X83118750Y-99800000D01*
G75*
G02*
X83362500Y-100043750I0J-243750D01*
G01*
X83362500Y-100956250D01*
G75*
G02*
X83118750Y-101200000I-243750J0D01*
G01*
X82631250Y-101200000D01*
G75*
G02*
X82387500Y-100956250I0J243750D01*
G01*
G37*
G04 #@! TD.AperFunction*
G04 #@! TA.AperFunction,SMDPad,CuDef*
G36*
G01*
X80512500Y-100956250D02*
X80512500Y-100043750D01*
G75*
G02*
X80756250Y-99800000I243750J0D01*
G01*
X81243750Y-99800000D01*
G75*
G02*
X81487500Y-100043750I0J-243750D01*
G01*
X81487500Y-100956250D01*
G75*
G02*
X81243750Y-101200000I-243750J0D01*
G01*
X80756250Y-101200000D01*
G75*
G02*
X80512500Y-100956250I0J243750D01*
G01*
G37*
G04 #@! TD.AperFunction*
G04 #@! TA.AperFunction,SMDPad,CuDef*
G36*
G01*
X125012500Y-100956250D02*
X125012500Y-100043750D01*
G75*
G02*
X125256250Y-99800000I243750J0D01*
G01*
X125743750Y-99800000D01*
G75*
G02*
X125987500Y-100043750I0J-243750D01*
G01*
X125987500Y-100956250D01*
G75*
G02*
X125743750Y-101200000I-243750J0D01*
G01*
X125256250Y-101200000D01*
G75*
G02*
X125012500Y-100956250I0J243750D01*
G01*
G37*
G04 #@! TD.AperFunction*
G04 #@! TA.AperFunction,SMDPad,CuDef*
G36*
G01*
X123137500Y-100956250D02*
X123137500Y-100043750D01*
G75*
G02*
X123381250Y-99800000I243750J0D01*
G01*
X123868750Y-99800000D01*
G75*
G02*
X124112500Y-100043750I0J-243750D01*
G01*
X124112500Y-100956250D01*
G75*
G02*
X123868750Y-101200000I-243750J0D01*
G01*
X123381250Y-101200000D01*
G75*
G02*
X123137500Y-100956250I0J243750D01*
G01*
G37*
G04 #@! TD.AperFunction*
G04 #@! TA.AperFunction,SMDPad,CuDef*
G36*
G01*
X128887500Y-100956250D02*
X128887500Y-100043750D01*
G75*
G02*
X129131250Y-99800000I243750J0D01*
G01*
X129618750Y-99800000D01*
G75*
G02*
X129862500Y-100043750I0J-243750D01*
G01*
X129862500Y-100956250D01*
G75*
G02*
X129618750Y-101200000I-243750J0D01*
G01*
X129131250Y-101200000D01*
G75*
G02*
X128887500Y-100956250I0J243750D01*
G01*
G37*
G04 #@! TD.AperFunction*
G04 #@! TA.AperFunction,SMDPad,CuDef*
G36*
G01*
X127012500Y-100956250D02*
X127012500Y-100043750D01*
G75*
G02*
X127256250Y-99800000I243750J0D01*
G01*
X127743750Y-99800000D01*
G75*
G02*
X127987500Y-100043750I0J-243750D01*
G01*
X127987500Y-100956250D01*
G75*
G02*
X127743750Y-101200000I-243750J0D01*
G01*
X127256250Y-101200000D01*
G75*
G02*
X127012500Y-100956250I0J243750D01*
G01*
G37*
G04 #@! TD.AperFunction*
G04 #@! TA.AperFunction,SMDPad,CuDef*
G36*
G01*
X110043750Y-47450000D02*
X110956250Y-47450000D01*
G75*
G02*
X111200000Y-47693750I0J-243750D01*
G01*
X111200000Y-48181250D01*
G75*
G02*
X110956250Y-48425000I-243750J0D01*
G01*
X110043750Y-48425000D01*
G75*
G02*
X109800000Y-48181250I0J243750D01*
G01*
X109800000Y-47693750D01*
G75*
G02*
X110043750Y-47450000I243750J0D01*
G01*
G37*
G04 #@! TD.AperFunction*
G04 #@! TA.AperFunction,SMDPad,CuDef*
G36*
G01*
X110043750Y-45575000D02*
X110956250Y-45575000D01*
G75*
G02*
X111200000Y-45818750I0J-243750D01*
G01*
X111200000Y-46306250D01*
G75*
G02*
X110956250Y-46550000I-243750J0D01*
G01*
X110043750Y-46550000D01*
G75*
G02*
X109800000Y-46306250I0J243750D01*
G01*
X109800000Y-45818750D01*
G75*
G02*
X110043750Y-45575000I243750J0D01*
G01*
G37*
G04 #@! TD.AperFunction*
G04 #@! TA.AperFunction,SMDPad,CuDef*
G36*
G01*
X110043750Y-51387500D02*
X110956250Y-51387500D01*
G75*
G02*
X111200000Y-51631250I0J-243750D01*
G01*
X111200000Y-52118750D01*
G75*
G02*
X110956250Y-52362500I-243750J0D01*
G01*
X110043750Y-52362500D01*
G75*
G02*
X109800000Y-52118750I0J243750D01*
G01*
X109800000Y-51631250D01*
G75*
G02*
X110043750Y-51387500I243750J0D01*
G01*
G37*
G04 #@! TD.AperFunction*
G04 #@! TA.AperFunction,SMDPad,CuDef*
G36*
G01*
X110043750Y-49512500D02*
X110956250Y-49512500D01*
G75*
G02*
X111200000Y-49756250I0J-243750D01*
G01*
X111200000Y-50243750D01*
G75*
G02*
X110956250Y-50487500I-243750J0D01*
G01*
X110043750Y-50487500D01*
G75*
G02*
X109800000Y-50243750I0J243750D01*
G01*
X109800000Y-49756250D01*
G75*
G02*
X110043750Y-49512500I243750J0D01*
G01*
G37*
G04 #@! TD.AperFunction*
D18*
X48697056Y-45302944D03*
X47000000Y-44600000D03*
X45302944Y-45302944D03*
X44600000Y-47000000D03*
X45302944Y-48697056D03*
X47000000Y-49400000D03*
X48697056Y-48697056D03*
X49400000Y-47000000D03*
D19*
X47000000Y-47000000D03*
D18*
X128697056Y-45302944D03*
X127000000Y-44600000D03*
X125302944Y-45302944D03*
X124600000Y-47000000D03*
X125302944Y-48697056D03*
X127000000Y-49400000D03*
X128697056Y-48697056D03*
X129400000Y-47000000D03*
D19*
X127000000Y-47000000D03*
D18*
X48697056Y-135302944D03*
X47000000Y-134600000D03*
X45302944Y-135302944D03*
X44600000Y-137000000D03*
X45302944Y-138697056D03*
X47000000Y-139400000D03*
X48697056Y-138697056D03*
X49400000Y-137000000D03*
D19*
X47000000Y-137000000D03*
D18*
X128697056Y-135302944D03*
X127000000Y-134600000D03*
X125302944Y-135302944D03*
X124600000Y-137000000D03*
X125302944Y-138697056D03*
X127000000Y-139400000D03*
X128697056Y-138697056D03*
X129400000Y-137000000D03*
D19*
X127000000Y-137000000D03*
D20*
X60000000Y-133699999D03*
X55000000Y-133699999D03*
X60000000Y-125500000D03*
X55000000Y-125500000D03*
X72500000Y-133699999D03*
X67500000Y-133699999D03*
X72500000Y-125500000D03*
X67500000Y-125500000D03*
X123699999Y-56000000D03*
X123699999Y-61000000D03*
X115500000Y-56000000D03*
X115500000Y-61000000D03*
X123699999Y-68500000D03*
X123699999Y-73500000D03*
X115500000Y-68500000D03*
X115500000Y-73500000D03*
D21*
X78500000Y-86500000D03*
D22*
X75960000Y-86500000D03*
X77230000Y-87770000D03*
G04 #@! TA.AperFunction,SMDPad,CuDef*
G36*
G01*
X63706250Y-51487500D02*
X62793750Y-51487500D01*
G75*
G02*
X62550000Y-51243750I0J243750D01*
G01*
X62550000Y-50756250D01*
G75*
G02*
X62793750Y-50512500I243750J0D01*
G01*
X63706250Y-50512500D01*
G75*
G02*
X63950000Y-50756250I0J-243750D01*
G01*
X63950000Y-51243750D01*
G75*
G02*
X63706250Y-51487500I-243750J0D01*
G01*
G37*
G04 #@! TD.AperFunction*
G04 #@! TA.AperFunction,SMDPad,CuDef*
G36*
G01*
X63706250Y-53362500D02*
X62793750Y-53362500D01*
G75*
G02*
X62550000Y-53118750I0J243750D01*
G01*
X62550000Y-52631250D01*
G75*
G02*
X62793750Y-52387500I243750J0D01*
G01*
X63706250Y-52387500D01*
G75*
G02*
X63950000Y-52631250I0J-243750D01*
G01*
X63950000Y-53118750D01*
G75*
G02*
X63706250Y-53362500I-243750J0D01*
G01*
G37*
G04 #@! TD.AperFunction*
G04 #@! TA.AperFunction,SMDPad,CuDef*
G36*
G01*
X63706250Y-46862500D02*
X62793750Y-46862500D01*
G75*
G02*
X62550000Y-46618750I0J243750D01*
G01*
X62550000Y-46131250D01*
G75*
G02*
X62793750Y-45887500I243750J0D01*
G01*
X63706250Y-45887500D01*
G75*
G02*
X63950000Y-46131250I0J-243750D01*
G01*
X63950000Y-46618750D01*
G75*
G02*
X63706250Y-46862500I-243750J0D01*
G01*
G37*
G04 #@! TD.AperFunction*
G04 #@! TA.AperFunction,SMDPad,CuDef*
G36*
G01*
X63706250Y-48737500D02*
X62793750Y-48737500D01*
G75*
G02*
X62550000Y-48493750I0J243750D01*
G01*
X62550000Y-48006250D01*
G75*
G02*
X62793750Y-47762500I243750J0D01*
G01*
X63706250Y-47762500D01*
G75*
G02*
X63950000Y-48006250I0J-243750D01*
G01*
X63950000Y-48493750D01*
G75*
G02*
X63706250Y-48737500I-243750J0D01*
G01*
G37*
G04 #@! TD.AperFunction*
G04 #@! TA.AperFunction,SMDPad,CuDef*
G36*
G01*
X72300001Y-109890001D02*
X72300001Y-107740001D01*
G75*
G02*
X72550001Y-107490001I250000J0D01*
G01*
X73300001Y-107490001D01*
G75*
G02*
X73550001Y-107740001I0J-250000D01*
G01*
X73550001Y-109890001D01*
G75*
G02*
X73300001Y-110140001I-250000J0D01*
G01*
X72550001Y-110140001D01*
G75*
G02*
X72300001Y-109890001I0J250000D01*
G01*
G37*
G04 #@! TD.AperFunction*
G04 #@! TA.AperFunction,SMDPad,CuDef*
G36*
G01*
X69500001Y-109890001D02*
X69500001Y-107740001D01*
G75*
G02*
X69750001Y-107490001I250000J0D01*
G01*
X70500001Y-107490001D01*
G75*
G02*
X70750001Y-107740001I0J-250000D01*
G01*
X70750001Y-109890001D01*
G75*
G02*
X70500001Y-110140001I-250000J0D01*
G01*
X69750001Y-110140001D01*
G75*
G02*
X69500001Y-109890001I0J250000D01*
G01*
G37*
G04 #@! TD.AperFunction*
G04 #@! TA.AperFunction,SMDPad,CuDef*
G36*
G01*
X122919999Y-112425000D02*
X122919999Y-114575000D01*
G75*
G02*
X122669999Y-114825000I-250000J0D01*
G01*
X121919999Y-114825000D01*
G75*
G02*
X121669999Y-114575000I0J250000D01*
G01*
X121669999Y-112425000D01*
G75*
G02*
X121919999Y-112175000I250000J0D01*
G01*
X122669999Y-112175000D01*
G75*
G02*
X122919999Y-112425000I0J-250000D01*
G01*
G37*
G04 #@! TD.AperFunction*
G04 #@! TA.AperFunction,SMDPad,CuDef*
G36*
G01*
X125719999Y-112425000D02*
X125719999Y-114575000D01*
G75*
G02*
X125469999Y-114825000I-250000J0D01*
G01*
X124719999Y-114825000D01*
G75*
G02*
X124469999Y-114575000I0J250000D01*
G01*
X124469999Y-112425000D01*
G75*
G02*
X124719999Y-112175000I250000J0D01*
G01*
X125469999Y-112175000D01*
G75*
G02*
X125719999Y-112425000I0J-250000D01*
G01*
G37*
G04 #@! TD.AperFunction*
G04 #@! TA.AperFunction,SMDPad,CuDef*
G36*
G01*
X72300001Y-118575000D02*
X72300001Y-116425000D01*
G75*
G02*
X72550001Y-116175000I250000J0D01*
G01*
X73300001Y-116175000D01*
G75*
G02*
X73550001Y-116425000I0J-250000D01*
G01*
X73550001Y-118575000D01*
G75*
G02*
X73300001Y-118825000I-250000J0D01*
G01*
X72550001Y-118825000D01*
G75*
G02*
X72300001Y-118575000I0J250000D01*
G01*
G37*
G04 #@! TD.AperFunction*
G04 #@! TA.AperFunction,SMDPad,CuDef*
G36*
G01*
X69500001Y-118575000D02*
X69500001Y-116425000D01*
G75*
G02*
X69750001Y-116175000I250000J0D01*
G01*
X70500001Y-116175000D01*
G75*
G02*
X70750001Y-116425000I0J-250000D01*
G01*
X70750001Y-118575000D01*
G75*
G02*
X70500001Y-118825000I-250000J0D01*
G01*
X69750001Y-118825000D01*
G75*
G02*
X69500001Y-118575000I0J250000D01*
G01*
G37*
G04 #@! TD.AperFunction*
G04 #@! TA.AperFunction,SMDPad,CuDef*
G36*
G01*
X122919999Y-108399999D02*
X122919999Y-110549999D01*
G75*
G02*
X122669999Y-110799999I-250000J0D01*
G01*
X121919999Y-110799999D01*
G75*
G02*
X121669999Y-110549999I0J250000D01*
G01*
X121669999Y-108399999D01*
G75*
G02*
X121919999Y-108149999I250000J0D01*
G01*
X122669999Y-108149999D01*
G75*
G02*
X122919999Y-108399999I0J-250000D01*
G01*
G37*
G04 #@! TD.AperFunction*
G04 #@! TA.AperFunction,SMDPad,CuDef*
G36*
G01*
X125719999Y-108399999D02*
X125719999Y-110549999D01*
G75*
G02*
X125469999Y-110799999I-250000J0D01*
G01*
X124719999Y-110799999D01*
G75*
G02*
X124469999Y-110549999I0J250000D01*
G01*
X124469999Y-108399999D01*
G75*
G02*
X124719999Y-108149999I250000J0D01*
G01*
X125469999Y-108149999D01*
G75*
G02*
X125719999Y-108399999I0J-250000D01*
G01*
G37*
G04 #@! TD.AperFunction*
G04 #@! TA.AperFunction,SMDPad,CuDef*
G36*
G01*
X72300001Y-114075000D02*
X72300001Y-111925000D01*
G75*
G02*
X72550001Y-111675000I250000J0D01*
G01*
X73300001Y-111675000D01*
G75*
G02*
X73550001Y-111925000I0J-250000D01*
G01*
X73550001Y-114075000D01*
G75*
G02*
X73300001Y-114325000I-250000J0D01*
G01*
X72550001Y-114325000D01*
G75*
G02*
X72300001Y-114075000I0J250000D01*
G01*
G37*
G04 #@! TD.AperFunction*
G04 #@! TA.AperFunction,SMDPad,CuDef*
G36*
G01*
X69500001Y-114075000D02*
X69500001Y-111925000D01*
G75*
G02*
X69750001Y-111675000I250000J0D01*
G01*
X70500001Y-111675000D01*
G75*
G02*
X70750001Y-111925000I0J-250000D01*
G01*
X70750001Y-114075000D01*
G75*
G02*
X70500001Y-114325000I-250000J0D01*
G01*
X69750001Y-114325000D01*
G75*
G02*
X69500001Y-114075000I0J250000D01*
G01*
G37*
G04 #@! TD.AperFunction*
G04 #@! TA.AperFunction,SMDPad,CuDef*
G36*
G01*
X122919999Y-116925000D02*
X122919999Y-119075000D01*
G75*
G02*
X122669999Y-119325000I-250000J0D01*
G01*
X121919999Y-119325000D01*
G75*
G02*
X121669999Y-119075000I0J250000D01*
G01*
X121669999Y-116925000D01*
G75*
G02*
X121919999Y-116675000I250000J0D01*
G01*
X122669999Y-116675000D01*
G75*
G02*
X122919999Y-116925000I0J-250000D01*
G01*
G37*
G04 #@! TD.AperFunction*
G04 #@! TA.AperFunction,SMDPad,CuDef*
G36*
G01*
X125719999Y-116925000D02*
X125719999Y-119075000D01*
G75*
G02*
X125469999Y-119325000I-250000J0D01*
G01*
X124719999Y-119325000D01*
G75*
G02*
X124469999Y-119075000I0J250000D01*
G01*
X124469999Y-116925000D01*
G75*
G02*
X124719999Y-116675000I250000J0D01*
G01*
X125469999Y-116675000D01*
G75*
G02*
X125719999Y-116925000I0J-250000D01*
G01*
G37*
G04 #@! TD.AperFunction*
G04 #@! TA.AperFunction,SMDPad,CuDef*
G36*
G01*
X67075000Y-46625000D02*
X64925000Y-46625000D01*
G75*
G02*
X64675000Y-46375000I0J250000D01*
G01*
X64675000Y-45625000D01*
G75*
G02*
X64925000Y-45375000I250000J0D01*
G01*
X67075000Y-45375000D01*
G75*
G02*
X67325000Y-45625000I0J-250000D01*
G01*
X67325000Y-46375000D01*
G75*
G02*
X67075000Y-46625000I-250000J0D01*
G01*
G37*
G04 #@! TD.AperFunction*
G04 #@! TA.AperFunction,SMDPad,CuDef*
G36*
G01*
X67075000Y-49425000D02*
X64925000Y-49425000D01*
G75*
G02*
X64675000Y-49175000I0J250000D01*
G01*
X64675000Y-48425000D01*
G75*
G02*
X64925000Y-48175000I250000J0D01*
G01*
X67075000Y-48175000D01*
G75*
G02*
X67325000Y-48425000I0J-250000D01*
G01*
X67325000Y-49175000D01*
G75*
G02*
X67075000Y-49425000I-250000J0D01*
G01*
G37*
G04 #@! TD.AperFunction*
G04 #@! TA.AperFunction,SMDPad,CuDef*
G36*
G01*
X70875000Y-51465000D02*
X68725000Y-51465000D01*
G75*
G02*
X68475000Y-51215000I0J250000D01*
G01*
X68475000Y-50465000D01*
G75*
G02*
X68725000Y-50215000I250000J0D01*
G01*
X70875000Y-50215000D01*
G75*
G02*
X71125000Y-50465000I0J-250000D01*
G01*
X71125000Y-51215000D01*
G75*
G02*
X70875000Y-51465000I-250000J0D01*
G01*
G37*
G04 #@! TD.AperFunction*
G04 #@! TA.AperFunction,SMDPad,CuDef*
G36*
G01*
X70875000Y-54265000D02*
X68725000Y-54265000D01*
G75*
G02*
X68475000Y-54015000I0J250000D01*
G01*
X68475000Y-53265000D01*
G75*
G02*
X68725000Y-53015000I250000J0D01*
G01*
X70875000Y-53015000D01*
G75*
G02*
X71125000Y-53265000I0J-250000D01*
G01*
X71125000Y-54015000D01*
G75*
G02*
X70875000Y-54265000I-250000J0D01*
G01*
G37*
G04 #@! TD.AperFunction*
G04 #@! TA.AperFunction,SMDPad,CuDef*
G36*
G01*
X70875000Y-46625000D02*
X68725000Y-46625000D01*
G75*
G02*
X68475000Y-46375000I0J250000D01*
G01*
X68475000Y-45625000D01*
G75*
G02*
X68725000Y-45375000I250000J0D01*
G01*
X70875000Y-45375000D01*
G75*
G02*
X71125000Y-45625000I0J-250000D01*
G01*
X71125000Y-46375000D01*
G75*
G02*
X70875000Y-46625000I-250000J0D01*
G01*
G37*
G04 #@! TD.AperFunction*
G04 #@! TA.AperFunction,SMDPad,CuDef*
G36*
G01*
X70875000Y-49425000D02*
X68725000Y-49425000D01*
G75*
G02*
X68475000Y-49175000I0J250000D01*
G01*
X68475000Y-48425000D01*
G75*
G02*
X68725000Y-48175000I250000J0D01*
G01*
X70875000Y-48175000D01*
G75*
G02*
X71125000Y-48425000I0J-250000D01*
G01*
X71125000Y-49175000D01*
G75*
G02*
X70875000Y-49425000I-250000J0D01*
G01*
G37*
G04 #@! TD.AperFunction*
G04 #@! TA.AperFunction,SMDPad,CuDef*
G36*
G01*
X74675000Y-51465000D02*
X72525000Y-51465000D01*
G75*
G02*
X72275000Y-51215000I0J250000D01*
G01*
X72275000Y-50465000D01*
G75*
G02*
X72525000Y-50215000I250000J0D01*
G01*
X74675000Y-50215000D01*
G75*
G02*
X74925000Y-50465000I0J-250000D01*
G01*
X74925000Y-51215000D01*
G75*
G02*
X74675000Y-51465000I-250000J0D01*
G01*
G37*
G04 #@! TD.AperFunction*
G04 #@! TA.AperFunction,SMDPad,CuDef*
G36*
G01*
X74675000Y-54265000D02*
X72525000Y-54265000D01*
G75*
G02*
X72275000Y-54015000I0J250000D01*
G01*
X72275000Y-53265000D01*
G75*
G02*
X72525000Y-53015000I250000J0D01*
G01*
X74675000Y-53015000D01*
G75*
G02*
X74925000Y-53265000I0J-250000D01*
G01*
X74925000Y-54015000D01*
G75*
G02*
X74675000Y-54265000I-250000J0D01*
G01*
G37*
G04 #@! TD.AperFunction*
G04 #@! TA.AperFunction,SMDPad,CuDef*
G36*
G01*
X74675000Y-46625000D02*
X72525000Y-46625000D01*
G75*
G02*
X72275000Y-46375000I0J250000D01*
G01*
X72275000Y-45625000D01*
G75*
G02*
X72525000Y-45375000I250000J0D01*
G01*
X74675000Y-45375000D01*
G75*
G02*
X74925000Y-45625000I0J-250000D01*
G01*
X74925000Y-46375000D01*
G75*
G02*
X74675000Y-46625000I-250000J0D01*
G01*
G37*
G04 #@! TD.AperFunction*
G04 #@! TA.AperFunction,SMDPad,CuDef*
G36*
G01*
X74675000Y-49425000D02*
X72525000Y-49425000D01*
G75*
G02*
X72275000Y-49175000I0J250000D01*
G01*
X72275000Y-48425000D01*
G75*
G02*
X72525000Y-48175000I250000J0D01*
G01*
X74675000Y-48175000D01*
G75*
G02*
X74925000Y-48425000I0J-250000D01*
G01*
X74925000Y-49175000D01*
G75*
G02*
X74675000Y-49425000I-250000J0D01*
G01*
G37*
G04 #@! TD.AperFunction*
G04 #@! TA.AperFunction,SMDPad,CuDef*
G36*
G01*
X78475000Y-51465000D02*
X76325000Y-51465000D01*
G75*
G02*
X76075000Y-51215000I0J250000D01*
G01*
X76075000Y-50465000D01*
G75*
G02*
X76325000Y-50215000I250000J0D01*
G01*
X78475000Y-50215000D01*
G75*
G02*
X78725000Y-50465000I0J-250000D01*
G01*
X78725000Y-51215000D01*
G75*
G02*
X78475000Y-51465000I-250000J0D01*
G01*
G37*
G04 #@! TD.AperFunction*
G04 #@! TA.AperFunction,SMDPad,CuDef*
G36*
G01*
X78475000Y-54265000D02*
X76325000Y-54265000D01*
G75*
G02*
X76075000Y-54015000I0J250000D01*
G01*
X76075000Y-53265000D01*
G75*
G02*
X76325000Y-53015000I250000J0D01*
G01*
X78475000Y-53015000D01*
G75*
G02*
X78725000Y-53265000I0J-250000D01*
G01*
X78725000Y-54015000D01*
G75*
G02*
X78475000Y-54265000I-250000J0D01*
G01*
G37*
G04 #@! TD.AperFunction*
G04 #@! TA.AperFunction,SMDPad,CuDef*
G36*
G01*
X78475000Y-46625000D02*
X76325000Y-46625000D01*
G75*
G02*
X76075000Y-46375000I0J250000D01*
G01*
X76075000Y-45625000D01*
G75*
G02*
X76325000Y-45375000I250000J0D01*
G01*
X78475000Y-45375000D01*
G75*
G02*
X78725000Y-45625000I0J-250000D01*
G01*
X78725000Y-46375000D01*
G75*
G02*
X78475000Y-46625000I-250000J0D01*
G01*
G37*
G04 #@! TD.AperFunction*
G04 #@! TA.AperFunction,SMDPad,CuDef*
G36*
G01*
X78475000Y-49425000D02*
X76325000Y-49425000D01*
G75*
G02*
X76075000Y-49175000I0J250000D01*
G01*
X76075000Y-48425000D01*
G75*
G02*
X76325000Y-48175000I250000J0D01*
G01*
X78475000Y-48175000D01*
G75*
G02*
X78725000Y-48425000I0J-250000D01*
G01*
X78725000Y-49175000D01*
G75*
G02*
X78475000Y-49425000I-250000J0D01*
G01*
G37*
G04 #@! TD.AperFunction*
G04 #@! TA.AperFunction,SMDPad,CuDef*
G36*
G01*
X82275000Y-51465000D02*
X80125000Y-51465000D01*
G75*
G02*
X79875000Y-51215000I0J250000D01*
G01*
X79875000Y-50465000D01*
G75*
G02*
X80125000Y-50215000I250000J0D01*
G01*
X82275000Y-50215000D01*
G75*
G02*
X82525000Y-50465000I0J-250000D01*
G01*
X82525000Y-51215000D01*
G75*
G02*
X82275000Y-51465000I-250000J0D01*
G01*
G37*
G04 #@! TD.AperFunction*
G04 #@! TA.AperFunction,SMDPad,CuDef*
G36*
G01*
X82275000Y-54265000D02*
X80125000Y-54265000D01*
G75*
G02*
X79875000Y-54015000I0J250000D01*
G01*
X79875000Y-53265000D01*
G75*
G02*
X80125000Y-53015000I250000J0D01*
G01*
X82275000Y-53015000D01*
G75*
G02*
X82525000Y-53265000I0J-250000D01*
G01*
X82525000Y-54015000D01*
G75*
G02*
X82275000Y-54265000I-250000J0D01*
G01*
G37*
G04 #@! TD.AperFunction*
G04 #@! TA.AperFunction,SMDPad,CuDef*
G36*
G01*
X82275000Y-46625000D02*
X80125000Y-46625000D01*
G75*
G02*
X79875000Y-46375000I0J250000D01*
G01*
X79875000Y-45625000D01*
G75*
G02*
X80125000Y-45375000I250000J0D01*
G01*
X82275000Y-45375000D01*
G75*
G02*
X82525000Y-45625000I0J-250000D01*
G01*
X82525000Y-46375000D01*
G75*
G02*
X82275000Y-46625000I-250000J0D01*
G01*
G37*
G04 #@! TD.AperFunction*
G04 #@! TA.AperFunction,SMDPad,CuDef*
G36*
G01*
X82275000Y-49425000D02*
X80125000Y-49425000D01*
G75*
G02*
X79875000Y-49175000I0J250000D01*
G01*
X79875000Y-48425000D01*
G75*
G02*
X80125000Y-48175000I250000J0D01*
G01*
X82275000Y-48175000D01*
G75*
G02*
X82525000Y-48425000I0J-250000D01*
G01*
X82525000Y-49175000D01*
G75*
G02*
X82275000Y-49425000I-250000J0D01*
G01*
G37*
G04 #@! TD.AperFunction*
G04 #@! TA.AperFunction,SMDPad,CuDef*
G36*
G01*
X86075000Y-51465000D02*
X83925000Y-51465000D01*
G75*
G02*
X83675000Y-51215000I0J250000D01*
G01*
X83675000Y-50465000D01*
G75*
G02*
X83925000Y-50215000I250000J0D01*
G01*
X86075000Y-50215000D01*
G75*
G02*
X86325000Y-50465000I0J-250000D01*
G01*
X86325000Y-51215000D01*
G75*
G02*
X86075000Y-51465000I-250000J0D01*
G01*
G37*
G04 #@! TD.AperFunction*
G04 #@! TA.AperFunction,SMDPad,CuDef*
G36*
G01*
X86075000Y-54265000D02*
X83925000Y-54265000D01*
G75*
G02*
X83675000Y-54015000I0J250000D01*
G01*
X83675000Y-53265000D01*
G75*
G02*
X83925000Y-53015000I250000J0D01*
G01*
X86075000Y-53015000D01*
G75*
G02*
X86325000Y-53265000I0J-250000D01*
G01*
X86325000Y-54015000D01*
G75*
G02*
X86075000Y-54265000I-250000J0D01*
G01*
G37*
G04 #@! TD.AperFunction*
G04 #@! TA.AperFunction,SMDPad,CuDef*
G36*
G01*
X86075000Y-46625000D02*
X83925000Y-46625000D01*
G75*
G02*
X83675000Y-46375000I0J250000D01*
G01*
X83675000Y-45625000D01*
G75*
G02*
X83925000Y-45375000I250000J0D01*
G01*
X86075000Y-45375000D01*
G75*
G02*
X86325000Y-45625000I0J-250000D01*
G01*
X86325000Y-46375000D01*
G75*
G02*
X86075000Y-46625000I-250000J0D01*
G01*
G37*
G04 #@! TD.AperFunction*
G04 #@! TA.AperFunction,SMDPad,CuDef*
G36*
G01*
X86075000Y-49425000D02*
X83925000Y-49425000D01*
G75*
G02*
X83675000Y-49175000I0J250000D01*
G01*
X83675000Y-48425000D01*
G75*
G02*
X83925000Y-48175000I250000J0D01*
G01*
X86075000Y-48175000D01*
G75*
G02*
X86325000Y-48425000I0J-250000D01*
G01*
X86325000Y-49175000D01*
G75*
G02*
X86075000Y-49425000I-250000J0D01*
G01*
G37*
G04 #@! TD.AperFunction*
D23*
X118500000Y-119000000D03*
X115000000Y-80000000D03*
X117000000Y-80000000D03*
X119000000Y-80000000D03*
X115000000Y-82000000D03*
X117000000Y-82000000D03*
X119000000Y-82000000D03*
X115000000Y-84000000D03*
X117000000Y-84000000D03*
X119000000Y-84000000D03*
X77500000Y-109750000D03*
X79500000Y-109750000D03*
X81500000Y-109750000D03*
X83500000Y-109750000D03*
X77500000Y-111750000D03*
X79500000Y-111750000D03*
X81500000Y-111750000D03*
X83500000Y-111750000D03*
X77500000Y-113750000D03*
X79500000Y-113750000D03*
X81500000Y-113750000D03*
X83500000Y-113750000D03*
X77500000Y-115750000D03*
X79500000Y-115750000D03*
X81500000Y-115750000D03*
X83500000Y-115750000D03*
X77500000Y-117750000D03*
X79500000Y-117750000D03*
X81500000Y-117750000D03*
X83500000Y-117750000D03*
X77500000Y-119750000D03*
X79500000Y-119750000D03*
X81500000Y-119750000D03*
X83500000Y-119750000D03*
X118500000Y-109000000D03*
X118500000Y-111000000D03*
X118500000Y-113000000D03*
X118500000Y-115000000D03*
X118500000Y-117000000D03*
X115000000Y-86000000D03*
X117000000Y-86000000D03*
X119000000Y-86000000D03*
X120500000Y-109000000D03*
X120500000Y-111000000D03*
X120500000Y-113000000D03*
X120500000Y-115000000D03*
X120500000Y-117000000D03*
X118500000Y-107000000D03*
X120500000Y-107000000D03*
X120500000Y-119000000D03*
X109500000Y-72750000D03*
X109500000Y-74750000D03*
X107500000Y-66750000D03*
X43750000Y-80750000D03*
X110825000Y-86425000D03*
X110825000Y-87175000D03*
X45750000Y-80750000D03*
X43750000Y-78750000D03*
X45750000Y-78750000D03*
X43750000Y-76750000D03*
X45750000Y-76750000D03*
X43750000Y-74750000D03*
X45750000Y-74750000D03*
X43750000Y-72750000D03*
X45750000Y-72750000D03*
X43750000Y-70750000D03*
X45750000Y-70750000D03*
X43750000Y-68750000D03*
X45750000Y-68750000D03*
X43750000Y-66750000D03*
X45750000Y-66750000D03*
X43750000Y-64750000D03*
X45750000Y-64750000D03*
X43750000Y-62750000D03*
X45750000Y-62750000D03*
X43750000Y-60750000D03*
X45750000Y-60750000D03*
X43750000Y-58750000D03*
X45750000Y-58750000D03*
X43750000Y-56750000D03*
X45750000Y-56750000D03*
X43750000Y-54750000D03*
X45750000Y-54750000D03*
X43750000Y-52750000D03*
X45750000Y-52750000D03*
X43750000Y-50750000D03*
X109500000Y-66750000D03*
X107500000Y-68750000D03*
X109500000Y-68750000D03*
X107500000Y-70750000D03*
X109500000Y-70750000D03*
X107500000Y-72750000D03*
X107500000Y-74750000D03*
X65000000Y-43500000D03*
X67000000Y-43500000D03*
X69000000Y-43500000D03*
X71000000Y-43500000D03*
X73000000Y-43500000D03*
X75000000Y-43500000D03*
X77000000Y-43500000D03*
X79000000Y-43500000D03*
X81000000Y-43500000D03*
X83000000Y-43500000D03*
X85000000Y-43500000D03*
X67500000Y-66750000D03*
X69500000Y-66750000D03*
X71500000Y-66750000D03*
X73500000Y-66750000D03*
X75500000Y-66750000D03*
X77500000Y-66750000D03*
X79500000Y-66750000D03*
X81500000Y-66750000D03*
X83500000Y-66750000D03*
X85500000Y-66750000D03*
X87500000Y-66750000D03*
X89500000Y-66750000D03*
X91500000Y-66750000D03*
X67500000Y-68750000D03*
X69500000Y-68750000D03*
X71500000Y-68750000D03*
X73500000Y-68750000D03*
X75500000Y-68750000D03*
X77500000Y-68750000D03*
X79500000Y-68750000D03*
X81500000Y-68750000D03*
X83500000Y-68750000D03*
X85500000Y-68750000D03*
X87500000Y-68750000D03*
X89500000Y-68750000D03*
X91500000Y-68750000D03*
X67500000Y-70750000D03*
X69500000Y-70750000D03*
X71500000Y-70750000D03*
X73500000Y-70750000D03*
X75500000Y-70750000D03*
X77500000Y-70750000D03*
X79500000Y-70750000D03*
X81500000Y-70750000D03*
X83500000Y-70750000D03*
X85500000Y-70750000D03*
X87500000Y-70750000D03*
X89500000Y-70750000D03*
X91500000Y-70750000D03*
X67500000Y-72750000D03*
X69500000Y-72750000D03*
X71500000Y-72750000D03*
X73500000Y-72750000D03*
X75500000Y-72750000D03*
X83500000Y-72750000D03*
X85500000Y-72750000D03*
X87500000Y-72750000D03*
X89500000Y-72750000D03*
X91500000Y-72750000D03*
X67500000Y-74750000D03*
X69500000Y-74750000D03*
X71500000Y-74750000D03*
X73500000Y-74750000D03*
X75500000Y-74750000D03*
X83500000Y-74750000D03*
X85500000Y-74750000D03*
X87500000Y-74750000D03*
X89500000Y-74750000D03*
X91500000Y-74750000D03*
X67500000Y-76750000D03*
X69500000Y-76750000D03*
X71500000Y-76750000D03*
X73500000Y-76750000D03*
X75500000Y-76750000D03*
X77500000Y-76750000D03*
X79500000Y-76750000D03*
X81500000Y-76750000D03*
X83500000Y-76750000D03*
X85500000Y-76750000D03*
X87500000Y-76750000D03*
X89500000Y-76750000D03*
X91500000Y-76750000D03*
X67500000Y-78750000D03*
X69500000Y-78750000D03*
X71500000Y-78750000D03*
X73500000Y-78750000D03*
X75500000Y-78750000D03*
X77500000Y-78750000D03*
X79500000Y-78750000D03*
X81500000Y-78750000D03*
X83500000Y-78750000D03*
X85500000Y-78750000D03*
X87500000Y-78750000D03*
X89500000Y-78750000D03*
X91500000Y-78750000D03*
X67500000Y-80750000D03*
X69500000Y-80750000D03*
X71500000Y-80750000D03*
X73500000Y-80750000D03*
X75500000Y-80750000D03*
X77500000Y-80750000D03*
X79500000Y-80750000D03*
X81500000Y-80750000D03*
X83500000Y-80750000D03*
X85500000Y-80750000D03*
X87500000Y-80750000D03*
X89500000Y-80750000D03*
X91500000Y-80750000D03*
X53750000Y-66750000D03*
X55750000Y-66750000D03*
X57750000Y-66750000D03*
X59750000Y-66750000D03*
X53750000Y-68750000D03*
X55750000Y-68750000D03*
X57750000Y-68750000D03*
X59750000Y-68750000D03*
X53750000Y-70750000D03*
X55750000Y-70750000D03*
X57750000Y-70750000D03*
X59750000Y-70750000D03*
X61750000Y-70750000D03*
X63750000Y-70750000D03*
X53750000Y-72750000D03*
X55750000Y-72750000D03*
X57750000Y-72750000D03*
X59750000Y-72750000D03*
X61750000Y-72750000D03*
X63750000Y-72750000D03*
X53750000Y-74750000D03*
X55750000Y-74750000D03*
X57750000Y-74750000D03*
X59750000Y-74750000D03*
X61750000Y-74750000D03*
X63750000Y-74750000D03*
X53750000Y-76750000D03*
X55750000Y-76750000D03*
X57750000Y-76750000D03*
X59750000Y-76750000D03*
X61750000Y-76750000D03*
X63750000Y-76750000D03*
X53750000Y-78750000D03*
X55750000Y-78750000D03*
X57750000Y-78750000D03*
X59750000Y-78750000D03*
X61750000Y-78750000D03*
X63750000Y-78750000D03*
X53750000Y-80750000D03*
X55750000Y-80750000D03*
X57750000Y-80750000D03*
X59750000Y-80750000D03*
X61750000Y-80750000D03*
X63750000Y-80750000D03*
X61000000Y-63250000D03*
X95250000Y-66750000D03*
X96750000Y-85250000D03*
X97750000Y-85250000D03*
X98750000Y-85250000D03*
X97250000Y-66750000D03*
X99250000Y-66750000D03*
X101250000Y-66750000D03*
X103250000Y-66750000D03*
X95250000Y-68750000D03*
X97250000Y-68750000D03*
X99250000Y-68750000D03*
X101250000Y-68750000D03*
X103250000Y-68750000D03*
X95250000Y-70750000D03*
X97250000Y-70750000D03*
X99250000Y-70750000D03*
X101250000Y-70750000D03*
X103250000Y-70750000D03*
X95250000Y-72750000D03*
X97250000Y-72750000D03*
X99250000Y-72750000D03*
X101250000Y-72750000D03*
X103250000Y-72750000D03*
X95250000Y-74750000D03*
X97250000Y-74750000D03*
X99250000Y-74750000D03*
X101250000Y-74750000D03*
X103250000Y-74750000D03*
X95250000Y-76750000D03*
X97250000Y-76750000D03*
X99250000Y-76750000D03*
X101250000Y-76750000D03*
X103250000Y-76750000D03*
X99250000Y-78750000D03*
X101250000Y-78750000D03*
X103250000Y-78750000D03*
X99250000Y-80750000D03*
X101250000Y-80750000D03*
X103250000Y-80750000D03*
X101500000Y-54000000D03*
X127987340Y-89487340D03*
D24*
X82875000Y-100500000D02*
X83500000Y-101125000D01*
X83500000Y-102960000D02*
X83540000Y-103000000D01*
X83500000Y-101125000D02*
X83500000Y-102960000D01*
X129375000Y-100500000D02*
X130000000Y-101125000D01*
X130000000Y-102960000D02*
X130040000Y-103000000D01*
X130000000Y-101125000D02*
X130000000Y-102960000D01*
X83540000Y-103000000D02*
X83540000Y-108460000D01*
D25*
X76000000Y-93635000D02*
X76865000Y-93635000D01*
X77875000Y-92625000D02*
X78500000Y-92625000D01*
X76865000Y-93635000D02*
X77875000Y-92625000D01*
X97230000Y-53270000D02*
X97000000Y-53500000D01*
X97230000Y-50950000D02*
X97230000Y-53270000D01*
D24*
X107665000Y-51875000D02*
X107500000Y-52040000D01*
X110500000Y-51875000D02*
X107665000Y-51875000D01*
X110825000Y-89715000D02*
X109040000Y-91500000D01*
X110825000Y-85090000D02*
X110825000Y-86425000D01*
X107830000Y-77330000D02*
X107830000Y-76855000D01*
X110825000Y-80325000D02*
X107830000Y-77330000D01*
X110825000Y-85090000D02*
X110825000Y-80325000D01*
X110825000Y-86425000D02*
X110825000Y-87175000D01*
X110825000Y-87175000D02*
X110825000Y-89715000D01*
D25*
X63250000Y-46375000D02*
X64125000Y-45500000D01*
X64125000Y-45500000D02*
X66000000Y-45500000D01*
X63250000Y-52875000D02*
X63250000Y-53500000D01*
X63390000Y-53640000D02*
X66000000Y-53640000D01*
X63250000Y-53500000D02*
X63390000Y-53640000D01*
X63250000Y-51000000D02*
X63250000Y-48250000D01*
X126222500Y-93840000D02*
X126500000Y-93562500D01*
X124910000Y-93840000D02*
X126222500Y-93840000D01*
D24*
X65770000Y-64500000D02*
X65755000Y-64515000D01*
X68500000Y-64500000D02*
X65770000Y-64500000D01*
X51862500Y-64437500D02*
X51785000Y-64515000D01*
X54325000Y-64437500D02*
X51862500Y-64437500D01*
X88305000Y-86662500D02*
X89837500Y-86662500D01*
X90845000Y-85655000D02*
X90845000Y-84710000D01*
X89837500Y-86662500D02*
X90845000Y-85655000D01*
X104790000Y-86965000D02*
X106410000Y-85345000D01*
X103870000Y-86965000D02*
X104790000Y-86965000D01*
D26*
X60910000Y-88500000D02*
X60365000Y-89045000D01*
X117700000Y-91300000D02*
X115500000Y-93500000D01*
D24*
X63460000Y-65045000D02*
X63185000Y-64770000D01*
X63460000Y-66935000D02*
X63460000Y-65045000D01*
X63215000Y-64740000D02*
X63185000Y-64770000D01*
X63215000Y-62865000D02*
X63215000Y-64740000D01*
X63455000Y-62625000D02*
X63215000Y-62865000D01*
X68500000Y-62625000D02*
X63455000Y-62625000D01*
D25*
X50125000Y-66935000D02*
X50125000Y-66625000D01*
D24*
X49275000Y-62562500D02*
X49245000Y-62532500D01*
X54325000Y-62562500D02*
X49275000Y-62562500D01*
X49215000Y-62562500D02*
X49245000Y-62532500D01*
X49215000Y-64770000D02*
X49215000Y-62562500D01*
X49215000Y-66025000D02*
X50125000Y-66935000D01*
X49215000Y-64770000D02*
X49215000Y-66025000D01*
X93385000Y-85120000D02*
X93415000Y-85090000D01*
X93385000Y-87025000D02*
X93385000Y-85120000D01*
X93415000Y-83680000D02*
X93415000Y-85090000D01*
X95680000Y-81415000D02*
X93415000Y-83680000D01*
X89842500Y-83250000D02*
X88305000Y-84787500D01*
X92985000Y-83250000D02*
X89842500Y-83250000D01*
X93415000Y-83680000D02*
X92985000Y-83250000D01*
X108950000Y-87025000D02*
X108950000Y-85090000D01*
X107830000Y-82170000D02*
X107830000Y-81415000D01*
X106500000Y-83500000D02*
X107830000Y-82170000D01*
X105311250Y-83500000D02*
X106500000Y-83500000D01*
X103870000Y-84941250D02*
X105311250Y-83500000D01*
X103870000Y-85090000D02*
X103870000Y-84941250D01*
X107750000Y-81495000D02*
X107830000Y-81415000D01*
X107750000Y-83000000D02*
X107750000Y-81495000D01*
X108950000Y-84200000D02*
X107750000Y-83000000D01*
X108950000Y-85090000D02*
X108950000Y-84200000D01*
D27*
X60000000Y-125500000D02*
X60000000Y-133699999D01*
X101135000Y-135865000D02*
X101135000Y-132175000D01*
X60000000Y-136500000D02*
X62000000Y-138500000D01*
X60000000Y-133699999D02*
X60000000Y-136500000D01*
X101135000Y-126175000D02*
X101135000Y-132175000D01*
X101135000Y-132175000D02*
X94810000Y-138500000D01*
X94810000Y-138500000D02*
X62000000Y-138500000D01*
X55000000Y-120750000D02*
X51060000Y-116810000D01*
X55000000Y-133699999D02*
X55000000Y-120750000D01*
X51060000Y-116810000D02*
X51060000Y-110810000D01*
X61060000Y-119810000D02*
X61060000Y-113560000D01*
X61060000Y-113560000D02*
X61620000Y-113000000D01*
D26*
X68690000Y-119810000D02*
X69500000Y-119000000D01*
X61060000Y-119810000D02*
X68690000Y-119810000D01*
D24*
X72500000Y-100500000D02*
X69500000Y-103500000D01*
X77625000Y-100500000D02*
X72500000Y-100500000D01*
D26*
X69500000Y-103500000D02*
X69500000Y-96455000D01*
X69500000Y-119000000D02*
X69500000Y-103500000D01*
D27*
X111135000Y-135175000D02*
X111135000Y-129175000D01*
X114310000Y-126000000D02*
X118000000Y-126000000D01*
D24*
X120420000Y-100500000D02*
X119960000Y-100960000D01*
X123625000Y-100500000D02*
X120420000Y-100500000D01*
D27*
X56425000Y-79010000D02*
X56425000Y-69215000D01*
D24*
X62460000Y-58000000D02*
X61000000Y-59460000D01*
X61000000Y-64460000D02*
X61310000Y-64770000D01*
X61000000Y-59460000D02*
X61000000Y-63250000D01*
X61000000Y-63750000D02*
X61000000Y-64460000D01*
X60980000Y-64770000D02*
X59580000Y-66170000D01*
X59580000Y-66170000D02*
X59580000Y-66500000D01*
X61310000Y-64770000D02*
X60980000Y-64770000D01*
X61000000Y-63250000D02*
X61000000Y-63750000D01*
X96590000Y-85090000D02*
X97500000Y-86000000D01*
X95290000Y-85090000D02*
X96590000Y-85090000D01*
X65530000Y-60990000D02*
X65755000Y-61215000D01*
X65000000Y-60500000D02*
X64510000Y-60990000D01*
X65000000Y-58000000D02*
X65000000Y-60500000D01*
X64510000Y-60990000D02*
X65530000Y-60990000D01*
X63215000Y-60990000D02*
X64510000Y-60990000D01*
X53500000Y-58000000D02*
X53500000Y-59500000D01*
X53500000Y-59500000D02*
X51785000Y-61215000D01*
X52250000Y-60750000D02*
X51785000Y-61215000D01*
X52157500Y-60657500D02*
X52250000Y-60750000D01*
X49245000Y-60657500D02*
X52157500Y-60657500D01*
X93000000Y-89285000D02*
X93385000Y-88900000D01*
X93000000Y-91500000D02*
X93000000Y-89285000D01*
X93385000Y-88900000D02*
X91400000Y-88900000D01*
X90845000Y-88345000D02*
X90845000Y-88010000D01*
X91400000Y-88900000D02*
X90845000Y-88345000D01*
X106500000Y-88735000D02*
X106410000Y-88645000D01*
X106500000Y-91500000D02*
X106500000Y-88735000D01*
X106665000Y-88900000D02*
X106410000Y-88645000D01*
X108950000Y-88900000D02*
X106665000Y-88900000D01*
D25*
X76000000Y-92365000D02*
X76635000Y-92365000D01*
X76635000Y-92365000D02*
X78000000Y-91000000D01*
X79540000Y-91000000D02*
X81000000Y-89540000D01*
X78000000Y-91000000D02*
X79540000Y-91000000D01*
D24*
X124240000Y-83540000D02*
X123475000Y-84305000D01*
X130000000Y-83540000D02*
X124240000Y-83540000D01*
X79500000Y-100500000D02*
X81000000Y-100500000D01*
X81000000Y-100500000D02*
X81000000Y-103000000D01*
X125500000Y-100500000D02*
X127500000Y-100500000D01*
X127500000Y-100500000D02*
X127500000Y-103000000D01*
X110000000Y-49500000D02*
X110500000Y-50000000D01*
X107500000Y-49500000D02*
X110000000Y-49500000D01*
X110500000Y-49000000D02*
X110000000Y-49500000D01*
X110500000Y-47937500D02*
X110500000Y-49000000D01*
D25*
X98500000Y-55960000D02*
X98460000Y-56000000D01*
X98500000Y-50950000D02*
X98500000Y-55960000D01*
X129970000Y-92570000D02*
X130000000Y-92540000D01*
X124910000Y-92570000D02*
X129970000Y-92570000D01*
X78095000Y-94905000D02*
X78500000Y-94500000D01*
X76000000Y-94905000D02*
X78095000Y-94905000D01*
X75960000Y-89397500D02*
X76062500Y-89500000D01*
X75960000Y-86500000D02*
X75960000Y-89397500D01*
X95960000Y-50950000D02*
X95550000Y-50950000D01*
X95125000Y-51375000D02*
X95125000Y-53500000D01*
X95550000Y-50950000D02*
X95125000Y-51375000D01*
X95125000Y-55205000D02*
X95920000Y-56000000D01*
X95125000Y-53500000D02*
X95125000Y-55205000D01*
X101500000Y-54000000D02*
X101500000Y-52937500D01*
X124910000Y-95110000D02*
X127235000Y-95110000D01*
X129705000Y-95375000D02*
X130000000Y-95080000D01*
X127500000Y-95375000D02*
X129705000Y-95375000D01*
X127974680Y-89500000D02*
X127987340Y-89487340D01*
X127000000Y-89500000D02*
X127974680Y-89500000D01*
X78620000Y-94620000D02*
X78500000Y-94500000D01*
X81000000Y-94620000D02*
X78620000Y-94620000D01*
X127235000Y-95110000D02*
X127500000Y-95375000D01*
X126827500Y-95110000D02*
X126500000Y-95437500D01*
X127235000Y-95110000D02*
X126827500Y-95110000D01*
X76000000Y-91095000D02*
X76905000Y-91095000D01*
X77937500Y-90062500D02*
X77937500Y-89500000D01*
X76905000Y-91095000D02*
X77937500Y-90062500D01*
X78500000Y-89500000D02*
X81000000Y-87000000D01*
X77937500Y-89500000D02*
X78500000Y-89500000D01*
X80500000Y-86500000D02*
X81000000Y-87000000D01*
X78500000Y-86500000D02*
X80500000Y-86500000D01*
X100825000Y-50950000D02*
X99770000Y-50950000D01*
X101218750Y-51343750D02*
X100825000Y-50950000D01*
X100000000Y-52562500D02*
X101218750Y-51343750D01*
X100000000Y-54500000D02*
X100000000Y-52562500D01*
X101000000Y-55500000D02*
X100000000Y-54500000D01*
X101000000Y-56000000D02*
X101000000Y-55500000D01*
X124910000Y-89715000D02*
X125125000Y-89500000D01*
X124910000Y-91300000D02*
X124910000Y-89715000D01*
X125125000Y-89625000D02*
X125125000Y-89500000D01*
X126250000Y-90750000D02*
X125125000Y-89625000D01*
X128250000Y-90750000D02*
X126250000Y-90750000D01*
X129000000Y-90000000D02*
X128250000Y-90750000D01*
X130000000Y-90000000D02*
X129000000Y-90000000D01*
X80920000Y-92080000D02*
X81000000Y-92080000D01*
D28*
G36*
X131340001Y-81873000D02*
G01*
X122627000Y-81873000D01*
X122627000Y-76500000D01*
X122624560Y-76475224D01*
X122617333Y-76451399D01*
X122605597Y-76429443D01*
X122589803Y-76410197D01*
X122570557Y-76394403D01*
X122548601Y-76382667D01*
X122524776Y-76375440D01*
X122500000Y-76373000D01*
X109500000Y-76373000D01*
X109475224Y-76375440D01*
X109451399Y-76382667D01*
X109429443Y-76394403D01*
X109410197Y-76410197D01*
X109394403Y-76429443D01*
X109382667Y-76451399D01*
X109375440Y-76475224D01*
X109373000Y-76500000D01*
X109373000Y-78373000D01*
X106627000Y-78373000D01*
X106627000Y-64127000D01*
X131340001Y-64127000D01*
X131340001Y-81873000D01*
G37*
X131340001Y-81873000D02*
X122627000Y-81873000D01*
X122627000Y-76500000D01*
X122624560Y-76475224D01*
X122617333Y-76451399D01*
X122605597Y-76429443D01*
X122589803Y-76410197D01*
X122570557Y-76394403D01*
X122548601Y-76382667D01*
X122524776Y-76375440D01*
X122500000Y-76373000D01*
X109500000Y-76373000D01*
X109475224Y-76375440D01*
X109451399Y-76382667D01*
X109429443Y-76394403D01*
X109410197Y-76410197D01*
X109394403Y-76429443D01*
X109382667Y-76451399D01*
X109375440Y-76475224D01*
X109373000Y-76500000D01*
X109373000Y-78373000D01*
X106627000Y-78373000D01*
X106627000Y-64127000D01*
X131340001Y-64127000D01*
X131340001Y-81873000D01*
G36*
X104373000Y-81947394D02*
G01*
X102410197Y-83910197D01*
X102394403Y-83929443D01*
X102382667Y-83951399D01*
X102375440Y-83975224D01*
X102373000Y-84000000D01*
X102373000Y-101000000D01*
X102375440Y-101024776D01*
X102382667Y-101048601D01*
X102394403Y-101070557D01*
X102410197Y-101089803D01*
X102910197Y-101589803D01*
X102929443Y-101605597D01*
X102951399Y-101617333D01*
X102975224Y-101624560D01*
X103000000Y-101627000D01*
X104373000Y-101627000D01*
X104373000Y-106873000D01*
X99552606Y-106873000D01*
X95126817Y-102447211D01*
X95064729Y-84565868D01*
X98572952Y-82103957D01*
X98591831Y-82087727D01*
X98607181Y-82068126D01*
X98618413Y-82045907D01*
X98625093Y-82021924D01*
X98627000Y-82000000D01*
X98627000Y-77500000D01*
X98624560Y-77475224D01*
X98617333Y-77451399D01*
X98605597Y-77429443D01*
X98589803Y-77410197D01*
X98570557Y-77394403D01*
X98548601Y-77382667D01*
X98524776Y-77375440D01*
X98500000Y-77373000D01*
X94627000Y-77373000D01*
X94627000Y-66127000D01*
X104373000Y-66127000D01*
X104373000Y-81947394D01*
G37*
X104373000Y-81947394D02*
X102410197Y-83910197D01*
X102394403Y-83929443D01*
X102382667Y-83951399D01*
X102375440Y-83975224D01*
X102373000Y-84000000D01*
X102373000Y-101000000D01*
X102375440Y-101024776D01*
X102382667Y-101048601D01*
X102394403Y-101070557D01*
X102410197Y-101089803D01*
X102910197Y-101589803D01*
X102929443Y-101605597D01*
X102951399Y-101617333D01*
X102975224Y-101624560D01*
X103000000Y-101627000D01*
X104373000Y-101627000D01*
X104373000Y-106873000D01*
X99552606Y-106873000D01*
X95126817Y-102447211D01*
X95064729Y-84565868D01*
X98572952Y-82103957D01*
X98591831Y-82087727D01*
X98607181Y-82068126D01*
X98618413Y-82045907D01*
X98625093Y-82021924D01*
X98627000Y-82000000D01*
X98627000Y-77500000D01*
X98624560Y-77475224D01*
X98617333Y-77451399D01*
X98605597Y-77429443D01*
X98589803Y-77410197D01*
X98570557Y-77394403D01*
X98548601Y-77382667D01*
X98524776Y-77375440D01*
X98500000Y-77373000D01*
X94627000Y-77373000D01*
X94627000Y-66127000D01*
X104373000Y-66127000D01*
X104373000Y-81947394D01*
G36*
X97351986Y-43552849D02*
G01*
X97372223Y-46873000D01*
X91000000Y-46873000D01*
X90975224Y-46875440D01*
X90951399Y-46882667D01*
X90929443Y-46894403D01*
X90910197Y-46910197D01*
X90894403Y-46929443D01*
X90882667Y-46951399D01*
X90875440Y-46975224D01*
X90873000Y-47000000D01*
X90873000Y-57932032D01*
X89461548Y-58873000D01*
X82000000Y-58873000D01*
X81975224Y-58875440D01*
X81951399Y-58882667D01*
X81929443Y-58894403D01*
X81910197Y-58910197D01*
X80410197Y-60410197D01*
X80394403Y-60429443D01*
X80382667Y-60451399D01*
X80375440Y-60475224D01*
X80373000Y-60500000D01*
X80373000Y-65000000D01*
X80375440Y-65024776D01*
X80382667Y-65048601D01*
X80394403Y-65070557D01*
X80410197Y-65089803D01*
X80429553Y-65105670D01*
X81929553Y-66105670D01*
X81951522Y-66117383D01*
X81975354Y-66124586D01*
X82000000Y-66127000D01*
X91993941Y-66127000D01*
X91993941Y-81873000D01*
X66247941Y-81873000D01*
X66247941Y-73814344D01*
X78115000Y-73814344D01*
X78115000Y-74185656D01*
X78187439Y-74549834D01*
X78329534Y-74892882D01*
X78535825Y-75201618D01*
X78798382Y-75464175D01*
X79107118Y-75670466D01*
X79450166Y-75812561D01*
X79814344Y-75885000D01*
X80185656Y-75885000D01*
X80549834Y-75812561D01*
X80892882Y-75670466D01*
X81201618Y-75464175D01*
X81464175Y-75201618D01*
X81670466Y-74892882D01*
X81812561Y-74549834D01*
X81885000Y-74185656D01*
X81885000Y-73814344D01*
X81812561Y-73450166D01*
X81670466Y-73107118D01*
X81464175Y-72798382D01*
X81201618Y-72535825D01*
X80892882Y-72329534D01*
X80549834Y-72187439D01*
X80185656Y-72115000D01*
X79814344Y-72115000D01*
X79450166Y-72187439D01*
X79107118Y-72329534D01*
X78798382Y-72535825D01*
X78535825Y-72798382D01*
X78329534Y-73107118D01*
X78187439Y-73450166D01*
X78115000Y-73814344D01*
X66247941Y-73814344D01*
X66247941Y-66127000D01*
X72000000Y-66127000D01*
X72024776Y-66124560D01*
X72048601Y-66117333D01*
X72070557Y-66105597D01*
X72089803Y-66089803D01*
X73089803Y-65089803D01*
X73105597Y-65070557D01*
X73117333Y-65048601D01*
X73124560Y-65024776D01*
X73127000Y-65000000D01*
X73127000Y-57500000D01*
X73124560Y-57475224D01*
X73117333Y-57451399D01*
X73105597Y-57429443D01*
X73089803Y-57410197D01*
X71589803Y-55910197D01*
X71570557Y-55894403D01*
X71548601Y-55882667D01*
X71524776Y-55875440D01*
X71500000Y-55873000D01*
X65552606Y-55873000D01*
X64627000Y-54947394D01*
X64627000Y-53166004D01*
X86998729Y-53087550D01*
X87023497Y-53085023D01*
X87047296Y-53077713D01*
X87069211Y-53065900D01*
X87086183Y-53052217D01*
X88087899Y-52091666D01*
X88104094Y-52072757D01*
X88116288Y-52051051D01*
X88124013Y-52027383D01*
X88127000Y-52000000D01*
X88127000Y-44052606D01*
X89519606Y-42660000D01*
X96460963Y-42660000D01*
X97351986Y-43552849D01*
G37*
X97351986Y-43552849D02*
X97372223Y-46873000D01*
X91000000Y-46873000D01*
X90975224Y-46875440D01*
X90951399Y-46882667D01*
X90929443Y-46894403D01*
X90910197Y-46910197D01*
X90894403Y-46929443D01*
X90882667Y-46951399D01*
X90875440Y-46975224D01*
X90873000Y-47000000D01*
X90873000Y-57932032D01*
X89461548Y-58873000D01*
X82000000Y-58873000D01*
X81975224Y-58875440D01*
X81951399Y-58882667D01*
X81929443Y-58894403D01*
X81910197Y-58910197D01*
X80410197Y-60410197D01*
X80394403Y-60429443D01*
X80382667Y-60451399D01*
X80375440Y-60475224D01*
X80373000Y-60500000D01*
X80373000Y-65000000D01*
X80375440Y-65024776D01*
X80382667Y-65048601D01*
X80394403Y-65070557D01*
X80410197Y-65089803D01*
X80429553Y-65105670D01*
X81929553Y-66105670D01*
X81951522Y-66117383D01*
X81975354Y-66124586D01*
X82000000Y-66127000D01*
X91993941Y-66127000D01*
X91993941Y-81873000D01*
X66247941Y-81873000D01*
X66247941Y-73814344D01*
X78115000Y-73814344D01*
X78115000Y-74185656D01*
X78187439Y-74549834D01*
X78329534Y-74892882D01*
X78535825Y-75201618D01*
X78798382Y-75464175D01*
X79107118Y-75670466D01*
X79450166Y-75812561D01*
X79814344Y-75885000D01*
X80185656Y-75885000D01*
X80549834Y-75812561D01*
X80892882Y-75670466D01*
X81201618Y-75464175D01*
X81464175Y-75201618D01*
X81670466Y-74892882D01*
X81812561Y-74549834D01*
X81885000Y-74185656D01*
X81885000Y-73814344D01*
X81812561Y-73450166D01*
X81670466Y-73107118D01*
X81464175Y-72798382D01*
X81201618Y-72535825D01*
X80892882Y-72329534D01*
X80549834Y-72187439D01*
X80185656Y-72115000D01*
X79814344Y-72115000D01*
X79450166Y-72187439D01*
X79107118Y-72329534D01*
X78798382Y-72535825D01*
X78535825Y-72798382D01*
X78329534Y-73107118D01*
X78187439Y-73450166D01*
X78115000Y-73814344D01*
X66247941Y-73814344D01*
X66247941Y-66127000D01*
X72000000Y-66127000D01*
X72024776Y-66124560D01*
X72048601Y-66117333D01*
X72070557Y-66105597D01*
X72089803Y-66089803D01*
X73089803Y-65089803D01*
X73105597Y-65070557D01*
X73117333Y-65048601D01*
X73124560Y-65024776D01*
X73127000Y-65000000D01*
X73127000Y-57500000D01*
X73124560Y-57475224D01*
X73117333Y-57451399D01*
X73105597Y-57429443D01*
X73089803Y-57410197D01*
X71589803Y-55910197D01*
X71570557Y-55894403D01*
X71548601Y-55882667D01*
X71524776Y-55875440D01*
X71500000Y-55873000D01*
X65552606Y-55873000D01*
X64627000Y-54947394D01*
X64627000Y-53166004D01*
X86998729Y-53087550D01*
X87023497Y-53085023D01*
X87047296Y-53077713D01*
X87069211Y-53065900D01*
X87086183Y-53052217D01*
X88087899Y-52091666D01*
X88104094Y-52072757D01*
X88116288Y-52051051D01*
X88124013Y-52027383D01*
X88127000Y-52000000D01*
X88127000Y-44052606D01*
X89519606Y-42660000D01*
X96460963Y-42660000D01*
X97351986Y-43552849D01*
G36*
X59873000Y-70500000D02*
G01*
X59875440Y-70524776D01*
X59882667Y-70548601D01*
X59894403Y-70570557D01*
X59910197Y-70589803D01*
X59929443Y-70605597D01*
X59951399Y-70617333D01*
X59975224Y-70624560D01*
X60000000Y-70627000D01*
X64373000Y-70627000D01*
X64373000Y-81947394D01*
X62947394Y-83373000D01*
X58000000Y-83373000D01*
X57975224Y-83375440D01*
X57951399Y-83382667D01*
X57929443Y-83394403D01*
X57910197Y-83410197D01*
X56410197Y-84910197D01*
X56394403Y-84929443D01*
X56382667Y-84951399D01*
X56375440Y-84975224D01*
X56373000Y-85000000D01*
X56373000Y-86447394D01*
X55447394Y-87373000D01*
X54500000Y-87373000D01*
X54475224Y-87375440D01*
X54451399Y-87382667D01*
X54429443Y-87394403D01*
X54410197Y-87410197D01*
X53910197Y-87910197D01*
X53894403Y-87929443D01*
X53882667Y-87951399D01*
X53875440Y-87975224D01*
X53873000Y-88000000D01*
X53873000Y-90470020D01*
X53421510Y-91373000D01*
X50052606Y-91373000D01*
X49127000Y-90447394D01*
X49127000Y-84552606D01*
X50052606Y-83627000D01*
X52500000Y-83627000D01*
X52524776Y-83624560D01*
X52548601Y-83617333D01*
X52570557Y-83605597D01*
X52589803Y-83589803D01*
X53089803Y-83089803D01*
X53105597Y-83070557D01*
X53117333Y-83048601D01*
X53124560Y-83024776D01*
X53127000Y-83000000D01*
X53127000Y-66127000D01*
X59873000Y-66127000D01*
X59873000Y-70500000D01*
G37*
X59873000Y-70500000D02*
X59875440Y-70524776D01*
X59882667Y-70548601D01*
X59894403Y-70570557D01*
X59910197Y-70589803D01*
X59929443Y-70605597D01*
X59951399Y-70617333D01*
X59975224Y-70624560D01*
X60000000Y-70627000D01*
X64373000Y-70627000D01*
X64373000Y-81947394D01*
X62947394Y-83373000D01*
X58000000Y-83373000D01*
X57975224Y-83375440D01*
X57951399Y-83382667D01*
X57929443Y-83394403D01*
X57910197Y-83410197D01*
X56410197Y-84910197D01*
X56394403Y-84929443D01*
X56382667Y-84951399D01*
X56375440Y-84975224D01*
X56373000Y-85000000D01*
X56373000Y-86447394D01*
X55447394Y-87373000D01*
X54500000Y-87373000D01*
X54475224Y-87375440D01*
X54451399Y-87382667D01*
X54429443Y-87394403D01*
X54410197Y-87410197D01*
X53910197Y-87910197D01*
X53894403Y-87929443D01*
X53882667Y-87951399D01*
X53875440Y-87975224D01*
X53873000Y-88000000D01*
X53873000Y-90470020D01*
X53421510Y-91373000D01*
X50052606Y-91373000D01*
X49127000Y-90447394D01*
X49127000Y-84552606D01*
X50052606Y-83627000D01*
X52500000Y-83627000D01*
X52524776Y-83624560D01*
X52548601Y-83617333D01*
X52570557Y-83605597D01*
X52589803Y-83589803D01*
X53089803Y-83089803D01*
X53105597Y-83070557D01*
X53117333Y-83048601D01*
X53124560Y-83024776D01*
X53127000Y-83000000D01*
X53127000Y-66127000D01*
X59873000Y-66127000D01*
X59873000Y-70500000D01*
G36*
X86873000Y-50873000D02*
G01*
X62877000Y-50873000D01*
X62877000Y-48127000D01*
X86873000Y-48127000D01*
X86873000Y-50873000D01*
G37*
X86873000Y-50873000D02*
X62877000Y-50873000D01*
X62877000Y-48127000D01*
X86873000Y-48127000D01*
X86873000Y-50873000D01*
G36*
X79537414Y-108091966D02*
G01*
X79557038Y-108107286D01*
X79579275Y-108118483D01*
X79603268Y-108125127D01*
X79625000Y-108127000D01*
X83947394Y-108127000D01*
X84873000Y-109052606D01*
X84873000Y-126942969D01*
X75951715Y-134873000D01*
X66052606Y-134873000D01*
X65127000Y-133947394D01*
X65127000Y-125052606D01*
X66052606Y-124127000D01*
X71500000Y-124127000D01*
X71524776Y-124124560D01*
X71548601Y-124117333D01*
X71570557Y-124105597D01*
X71589803Y-124089803D01*
X72589803Y-123089803D01*
X72605597Y-123070557D01*
X72617333Y-123048601D01*
X72624560Y-123024776D01*
X72627000Y-123000000D01*
X72627000Y-106552606D01*
X73552606Y-105627000D01*
X76949200Y-105627000D01*
X79537414Y-108091966D01*
G37*
X79537414Y-108091966D02*
X79557038Y-108107286D01*
X79579275Y-108118483D01*
X79603268Y-108125127D01*
X79625000Y-108127000D01*
X83947394Y-108127000D01*
X84873000Y-109052606D01*
X84873000Y-126942969D01*
X75951715Y-134873000D01*
X66052606Y-134873000D01*
X65127000Y-133947394D01*
X65127000Y-125052606D01*
X66052606Y-124127000D01*
X71500000Y-124127000D01*
X71524776Y-124124560D01*
X71548601Y-124117333D01*
X71570557Y-124105597D01*
X71589803Y-124089803D01*
X72589803Y-123089803D01*
X72605597Y-123070557D01*
X72617333Y-123048601D01*
X72624560Y-123024776D01*
X72627000Y-123000000D01*
X72627000Y-106552606D01*
X73552606Y-105627000D01*
X76949200Y-105627000D01*
X79537414Y-108091966D01*
G36*
X86623000Y-44045980D02*
G01*
X86623000Y-46373000D01*
X61500000Y-46373000D01*
X61475224Y-46375440D01*
X61451399Y-46382667D01*
X61429443Y-46394403D01*
X61410197Y-46410197D01*
X60410197Y-47410197D01*
X60394403Y-47429443D01*
X60382667Y-47451399D01*
X60375440Y-47475224D01*
X60373000Y-47500000D01*
X60373000Y-54197394D01*
X59447394Y-55123000D01*
X53000000Y-55123000D01*
X52975224Y-55125440D01*
X52951399Y-55132667D01*
X52929443Y-55144403D01*
X52910197Y-55160197D01*
X51910197Y-56160197D01*
X51894403Y-56179443D01*
X51882667Y-56201399D01*
X51875440Y-56225224D01*
X51873000Y-56250000D01*
X51873000Y-58873000D01*
X47750000Y-58873000D01*
X47725224Y-58875440D01*
X47701399Y-58882667D01*
X47679443Y-58894403D01*
X47660197Y-58910197D01*
X47644403Y-58929443D01*
X47632667Y-58951399D01*
X47625440Y-58975224D01*
X47623000Y-59000000D01*
X47623000Y-69500000D01*
X47625440Y-69524776D01*
X47632667Y-69548601D01*
X47644403Y-69570557D01*
X47660197Y-69589803D01*
X47679443Y-69605597D01*
X47701399Y-69617333D01*
X47725224Y-69624560D01*
X47750000Y-69627000D01*
X50197394Y-69627000D01*
X51373000Y-70802606D01*
X51373000Y-80947394D01*
X50447394Y-81873000D01*
X42660000Y-81873000D01*
X42660000Y-46622285D01*
X43165000Y-46622285D01*
X43165000Y-47377715D01*
X43312377Y-48118628D01*
X43601467Y-48816554D01*
X44021161Y-49444670D01*
X44555330Y-49978839D01*
X45183446Y-50398533D01*
X45881372Y-50687623D01*
X46622285Y-50835000D01*
X47377715Y-50835000D01*
X48118628Y-50687623D01*
X48816554Y-50398533D01*
X49444670Y-49978839D01*
X49978839Y-49444670D01*
X50398533Y-48816554D01*
X50687623Y-48118628D01*
X50835000Y-47377715D01*
X50835000Y-46622285D01*
X50687623Y-45881372D01*
X50398533Y-45183446D01*
X49978839Y-44555330D01*
X49444670Y-44021161D01*
X48816554Y-43601467D01*
X48118628Y-43312377D01*
X47377715Y-43165000D01*
X46622285Y-43165000D01*
X45881372Y-43312377D01*
X45183446Y-43601467D01*
X44555330Y-44021161D01*
X44021161Y-44555330D01*
X43601467Y-45183446D01*
X43312377Y-45881372D01*
X43165000Y-46622285D01*
X42660000Y-46622285D01*
X42660000Y-42660000D01*
X85468017Y-42660000D01*
X86623000Y-44045980D01*
G37*
X86623000Y-44045980D02*
X86623000Y-46373000D01*
X61500000Y-46373000D01*
X61475224Y-46375440D01*
X61451399Y-46382667D01*
X61429443Y-46394403D01*
X61410197Y-46410197D01*
X60410197Y-47410197D01*
X60394403Y-47429443D01*
X60382667Y-47451399D01*
X60375440Y-47475224D01*
X60373000Y-47500000D01*
X60373000Y-54197394D01*
X59447394Y-55123000D01*
X53000000Y-55123000D01*
X52975224Y-55125440D01*
X52951399Y-55132667D01*
X52929443Y-55144403D01*
X52910197Y-55160197D01*
X51910197Y-56160197D01*
X51894403Y-56179443D01*
X51882667Y-56201399D01*
X51875440Y-56225224D01*
X51873000Y-56250000D01*
X51873000Y-58873000D01*
X47750000Y-58873000D01*
X47725224Y-58875440D01*
X47701399Y-58882667D01*
X47679443Y-58894403D01*
X47660197Y-58910197D01*
X47644403Y-58929443D01*
X47632667Y-58951399D01*
X47625440Y-58975224D01*
X47623000Y-59000000D01*
X47623000Y-69500000D01*
X47625440Y-69524776D01*
X47632667Y-69548601D01*
X47644403Y-69570557D01*
X47660197Y-69589803D01*
X47679443Y-69605597D01*
X47701399Y-69617333D01*
X47725224Y-69624560D01*
X47750000Y-69627000D01*
X50197394Y-69627000D01*
X51373000Y-70802606D01*
X51373000Y-80947394D01*
X50447394Y-81873000D01*
X42660000Y-81873000D01*
X42660000Y-46622285D01*
X43165000Y-46622285D01*
X43165000Y-47377715D01*
X43312377Y-48118628D01*
X43601467Y-48816554D01*
X44021161Y-49444670D01*
X44555330Y-49978839D01*
X45183446Y-50398533D01*
X45881372Y-50687623D01*
X46622285Y-50835000D01*
X47377715Y-50835000D01*
X48118628Y-50687623D01*
X48816554Y-50398533D01*
X49444670Y-49978839D01*
X49978839Y-49444670D01*
X50398533Y-48816554D01*
X50687623Y-48118628D01*
X50835000Y-47377715D01*
X50835000Y-46622285D01*
X50687623Y-45881372D01*
X50398533Y-45183446D01*
X49978839Y-44555330D01*
X49444670Y-44021161D01*
X48816554Y-43601467D01*
X48118628Y-43312377D01*
X47377715Y-43165000D01*
X46622285Y-43165000D01*
X45881372Y-43312377D01*
X45183446Y-43601467D01*
X44555330Y-44021161D01*
X44021161Y-44555330D01*
X43601467Y-45183446D01*
X43312377Y-45881372D01*
X43165000Y-46622285D01*
X42660000Y-46622285D01*
X42660000Y-42660000D01*
X85468017Y-42660000D01*
X86623000Y-44045980D01*
G36*
X120873000Y-44552606D02*
G01*
X120873000Y-51000000D01*
X120875440Y-51024776D01*
X120882667Y-51048601D01*
X120894403Y-51070557D01*
X120910197Y-51089803D01*
X121910197Y-52089803D01*
X121929443Y-52105597D01*
X121951399Y-52117333D01*
X121975224Y-52124560D01*
X122000000Y-52127000D01*
X124447394Y-52127000D01*
X125373000Y-53052606D01*
X125373000Y-62398611D01*
X113627000Y-62398611D01*
X113627000Y-48000000D01*
X113624560Y-47975224D01*
X113617333Y-47951399D01*
X113605597Y-47929443D01*
X113589803Y-47910197D01*
X112589803Y-46910197D01*
X112570557Y-46894403D01*
X112548601Y-46882667D01*
X112524776Y-46875440D01*
X112500000Y-46873000D01*
X111273755Y-46873000D01*
X111128285Y-46828872D01*
X110956250Y-46811928D01*
X110651476Y-46811928D01*
X110500000Y-46797009D01*
X110348523Y-46811928D01*
X110043750Y-46811928D01*
X109871715Y-46828872D01*
X109726245Y-46873000D01*
X98627000Y-46873000D01*
X98627000Y-43552606D01*
X99519606Y-42660000D01*
X118980394Y-42660000D01*
X120873000Y-44552606D01*
G37*
X120873000Y-44552606D02*
X120873000Y-51000000D01*
X120875440Y-51024776D01*
X120882667Y-51048601D01*
X120894403Y-51070557D01*
X120910197Y-51089803D01*
X121910197Y-52089803D01*
X121929443Y-52105597D01*
X121951399Y-52117333D01*
X121975224Y-52124560D01*
X122000000Y-52127000D01*
X124447394Y-52127000D01*
X125373000Y-53052606D01*
X125373000Y-62398611D01*
X113627000Y-62398611D01*
X113627000Y-48000000D01*
X113624560Y-47975224D01*
X113617333Y-47951399D01*
X113605597Y-47929443D01*
X113589803Y-47910197D01*
X112589803Y-46910197D01*
X112570557Y-46894403D01*
X112548601Y-46882667D01*
X112524776Y-46875440D01*
X112500000Y-46873000D01*
X111273755Y-46873000D01*
X111128285Y-46828872D01*
X110956250Y-46811928D01*
X110651476Y-46811928D01*
X110500000Y-46797009D01*
X110348523Y-46811928D01*
X110043750Y-46811928D01*
X109871715Y-46828872D01*
X109726245Y-46873000D01*
X98627000Y-46873000D01*
X98627000Y-43552606D01*
X99519606Y-42660000D01*
X118980394Y-42660000D01*
X120873000Y-44552606D01*
G36*
X71873000Y-86052606D02*
G01*
X71873000Y-92373000D01*
X68052606Y-92373000D01*
X67127000Y-91447394D01*
X67127000Y-91000000D01*
X67124560Y-90975224D01*
X67117333Y-90951399D01*
X67105597Y-90929443D01*
X67089803Y-90910197D01*
X66089803Y-89910197D01*
X66070557Y-89894403D01*
X66048601Y-89882667D01*
X66024776Y-89875440D01*
X66000000Y-89873000D01*
X63000000Y-89873000D01*
X62975224Y-89875440D01*
X62951399Y-89882667D01*
X62929443Y-89894403D01*
X62910197Y-89910197D01*
X62894403Y-89929443D01*
X62882667Y-89951399D01*
X62875440Y-89975224D01*
X62873000Y-90000000D01*
X62873000Y-91373000D01*
X58529980Y-91373000D01*
X57627000Y-90921510D01*
X57627000Y-85552606D01*
X58552606Y-84627000D01*
X70447394Y-84627000D01*
X71873000Y-86052606D01*
G37*
X71873000Y-86052606D02*
X71873000Y-92373000D01*
X68052606Y-92373000D01*
X67127000Y-91447394D01*
X67127000Y-91000000D01*
X67124560Y-90975224D01*
X67117333Y-90951399D01*
X67105597Y-90929443D01*
X67089803Y-90910197D01*
X66089803Y-89910197D01*
X66070557Y-89894403D01*
X66048601Y-89882667D01*
X66024776Y-89875440D01*
X66000000Y-89873000D01*
X63000000Y-89873000D01*
X62975224Y-89875440D01*
X62951399Y-89882667D01*
X62929443Y-89894403D01*
X62910197Y-89910197D01*
X62894403Y-89929443D01*
X62882667Y-89951399D01*
X62875440Y-89975224D01*
X62873000Y-90000000D01*
X62873000Y-91373000D01*
X58529980Y-91373000D01*
X57627000Y-90921510D01*
X57627000Y-85552606D01*
X58552606Y-84627000D01*
X70447394Y-84627000D01*
X71873000Y-86052606D01*
G36*
X71873000Y-95447394D02*
G01*
X70910197Y-96410197D01*
X70894403Y-96429443D01*
X70882667Y-96451399D01*
X70875440Y-96475224D01*
X70873000Y-96500000D01*
X70873000Y-119447394D01*
X68947394Y-121373000D01*
X59627000Y-121373000D01*
X59627000Y-111558413D01*
X61296981Y-110127000D01*
X67000000Y-110127000D01*
X67024776Y-110124560D01*
X67048601Y-110117333D01*
X67070557Y-110105597D01*
X67089803Y-110089803D01*
X67105597Y-110070557D01*
X67117333Y-110048601D01*
X67124560Y-110024776D01*
X67127000Y-110000000D01*
X67127000Y-94552606D01*
X68052606Y-93627000D01*
X71873000Y-93627000D01*
X71873000Y-95447394D01*
G37*
X71873000Y-95447394D02*
X70910197Y-96410197D01*
X70894403Y-96429443D01*
X70882667Y-96451399D01*
X70875440Y-96475224D01*
X70873000Y-96500000D01*
X70873000Y-119447394D01*
X68947394Y-121373000D01*
X59627000Y-121373000D01*
X59627000Y-111558413D01*
X61296981Y-110127000D01*
X67000000Y-110127000D01*
X67024776Y-110124560D01*
X67048601Y-110117333D01*
X67070557Y-110105597D01*
X67089803Y-110089803D01*
X67105597Y-110070557D01*
X67117333Y-110048601D01*
X67124560Y-110024776D01*
X67127000Y-110000000D01*
X67127000Y-94552606D01*
X68052606Y-93627000D01*
X71873000Y-93627000D01*
X71873000Y-95447394D01*
G36*
X55373000Y-112552606D02*
G01*
X55373000Y-137447394D01*
X54447394Y-138373000D01*
X52052606Y-138373000D01*
X51127000Y-137447394D01*
X51127000Y-133500000D01*
X51124560Y-133475224D01*
X51117333Y-133451399D01*
X51105597Y-133429443D01*
X51089803Y-133410197D01*
X49589803Y-131910197D01*
X49570557Y-131894403D01*
X49548601Y-131882667D01*
X49524776Y-131875440D01*
X49500000Y-131873000D01*
X43552606Y-131873000D01*
X42660000Y-130980394D01*
X42660000Y-110488952D01*
X43567968Y-109127000D01*
X51947394Y-109127000D01*
X55373000Y-112552606D01*
G37*
X55373000Y-112552606D02*
X55373000Y-137447394D01*
X54447394Y-138373000D01*
X52052606Y-138373000D01*
X51127000Y-137447394D01*
X51127000Y-133500000D01*
X51124560Y-133475224D01*
X51117333Y-133451399D01*
X51105597Y-133429443D01*
X51089803Y-133410197D01*
X49589803Y-131910197D01*
X49570557Y-131894403D01*
X49548601Y-131882667D01*
X49524776Y-131875440D01*
X49500000Y-131873000D01*
X43552606Y-131873000D01*
X42660000Y-130980394D01*
X42660000Y-110488952D01*
X43567968Y-109127000D01*
X51947394Y-109127000D01*
X55373000Y-112552606D01*
G36*
X120873000Y-101000000D02*
G01*
X120875440Y-101024776D01*
X120882667Y-101048601D01*
X120894403Y-101070557D01*
X120919265Y-101098035D01*
X129373000Y-108059934D01*
X129373000Y-124434644D01*
X125959301Y-126873000D01*
X119500000Y-126873000D01*
X119475224Y-126875440D01*
X119451399Y-126882667D01*
X119429443Y-126894403D01*
X119410197Y-126910197D01*
X117910197Y-128410197D01*
X117894403Y-128429443D01*
X117882667Y-128451399D01*
X117875440Y-128475224D01*
X117873000Y-128500000D01*
X117873000Y-137447394D01*
X116447394Y-138873000D01*
X110552606Y-138873000D01*
X109127000Y-137447394D01*
X109127000Y-128052606D01*
X112089803Y-125089803D01*
X112105597Y-125070557D01*
X112117333Y-125048601D01*
X112124560Y-125024776D01*
X112127000Y-125000000D01*
X112127000Y-122052606D01*
X113552606Y-120627000D01*
X123000000Y-120627000D01*
X123024776Y-120624560D01*
X123048601Y-120617333D01*
X123070447Y-120605670D01*
X124570447Y-119605670D01*
X124589709Y-119589896D01*
X124605523Y-119570668D01*
X124617282Y-119548724D01*
X124624534Y-119524907D01*
X124627000Y-119500000D01*
X124627000Y-108000000D01*
X124624560Y-107975224D01*
X124617333Y-107951399D01*
X124605597Y-107929443D01*
X124582035Y-107903050D01*
X118127000Y-102441097D01*
X118127000Y-94552606D01*
X119052606Y-93627000D01*
X120873000Y-93627000D01*
X120873000Y-101000000D01*
G37*
X120873000Y-101000000D02*
X120875440Y-101024776D01*
X120882667Y-101048601D01*
X120894403Y-101070557D01*
X120919265Y-101098035D01*
X129373000Y-108059934D01*
X129373000Y-124434644D01*
X125959301Y-126873000D01*
X119500000Y-126873000D01*
X119475224Y-126875440D01*
X119451399Y-126882667D01*
X119429443Y-126894403D01*
X119410197Y-126910197D01*
X117910197Y-128410197D01*
X117894403Y-128429443D01*
X117882667Y-128451399D01*
X117875440Y-128475224D01*
X117873000Y-128500000D01*
X117873000Y-137447394D01*
X116447394Y-138873000D01*
X110552606Y-138873000D01*
X109127000Y-137447394D01*
X109127000Y-128052606D01*
X112089803Y-125089803D01*
X112105597Y-125070557D01*
X112117333Y-125048601D01*
X112124560Y-125024776D01*
X112127000Y-125000000D01*
X112127000Y-122052606D01*
X113552606Y-120627000D01*
X123000000Y-120627000D01*
X123024776Y-120624560D01*
X123048601Y-120617333D01*
X123070447Y-120605670D01*
X124570447Y-119605670D01*
X124589709Y-119589896D01*
X124605523Y-119570668D01*
X124617282Y-119548724D01*
X124624534Y-119524907D01*
X124627000Y-119500000D01*
X124627000Y-108000000D01*
X124624560Y-107975224D01*
X124617333Y-107951399D01*
X124605597Y-107929443D01*
X124582035Y-107903050D01*
X118127000Y-102441097D01*
X118127000Y-94552606D01*
X119052606Y-93627000D01*
X120873000Y-93627000D01*
X120873000Y-101000000D01*
G36*
X120873000Y-90052606D02*
G01*
X120873000Y-92873000D01*
X118375000Y-92873000D01*
X118350224Y-92875440D01*
X118326399Y-92882667D01*
X118304443Y-92894403D01*
X118282349Y-92913139D01*
X116407349Y-94913139D01*
X116392183Y-94932884D01*
X116381161Y-94955207D01*
X116374706Y-94979252D01*
X116373000Y-95000000D01*
X116373000Y-103947394D01*
X113447394Y-106873000D01*
X108627000Y-106873000D01*
X108627000Y-95538452D01*
X109567968Y-94127000D01*
X111500000Y-94127000D01*
X111524776Y-94124560D01*
X111548601Y-94117333D01*
X111570557Y-94105597D01*
X111589803Y-94089803D01*
X112589803Y-93089803D01*
X112605597Y-93070557D01*
X112617333Y-93048601D01*
X112624560Y-93024776D01*
X112627000Y-93000000D01*
X112627000Y-90552606D01*
X114052606Y-89127000D01*
X119947394Y-89127000D01*
X120873000Y-90052606D01*
G37*
X120873000Y-90052606D02*
X120873000Y-92873000D01*
X118375000Y-92873000D01*
X118350224Y-92875440D01*
X118326399Y-92882667D01*
X118304443Y-92894403D01*
X118282349Y-92913139D01*
X116407349Y-94913139D01*
X116392183Y-94932884D01*
X116381161Y-94955207D01*
X116374706Y-94979252D01*
X116373000Y-95000000D01*
X116373000Y-103947394D01*
X113447394Y-106873000D01*
X108627000Y-106873000D01*
X108627000Y-95538452D01*
X109567968Y-94127000D01*
X111500000Y-94127000D01*
X111524776Y-94124560D01*
X111548601Y-94117333D01*
X111570557Y-94105597D01*
X111589803Y-94089803D01*
X112589803Y-93089803D01*
X112605597Y-93070557D01*
X112617333Y-93048601D01*
X112624560Y-93024776D01*
X112627000Y-93000000D01*
X112627000Y-90552606D01*
X114052606Y-89127000D01*
X119947394Y-89127000D01*
X120873000Y-90052606D01*
G36*
X103873000Y-125552606D02*
G01*
X103873000Y-138961548D01*
X102932032Y-140373000D01*
X78599158Y-140373000D01*
X77642974Y-136548260D01*
X82544549Y-132627000D01*
X92500000Y-132627000D01*
X92524776Y-132624560D01*
X92548601Y-132617333D01*
X92579336Y-132599170D01*
X95079336Y-130599170D01*
X95097159Y-130581787D01*
X95111248Y-130561261D01*
X95121062Y-130538380D01*
X95126223Y-130514025D01*
X95127000Y-130500000D01*
X95127000Y-126063500D01*
X97042333Y-124627000D01*
X102947394Y-124627000D01*
X103873000Y-125552606D01*
G37*
X103873000Y-125552606D02*
X103873000Y-138961548D01*
X102932032Y-140373000D01*
X78599158Y-140373000D01*
X77642974Y-136548260D01*
X82544549Y-132627000D01*
X92500000Y-132627000D01*
X92524776Y-132624560D01*
X92548601Y-132617333D01*
X92579336Y-132599170D01*
X95079336Y-130599170D01*
X95097159Y-130581787D01*
X95111248Y-130561261D01*
X95121062Y-130538380D01*
X95126223Y-130514025D01*
X95127000Y-130500000D01*
X95127000Y-126063500D01*
X97042333Y-124627000D01*
X102947394Y-124627000D01*
X103873000Y-125552606D01*
G36*
X63873000Y-125052606D02*
G01*
X63873000Y-135500000D01*
X63875440Y-135524776D01*
X63882667Y-135548601D01*
X63895958Y-135572830D01*
X67256077Y-140373000D01*
X59796981Y-140373000D01*
X58127000Y-138941587D01*
X58127000Y-124529980D01*
X58578490Y-123627000D01*
X62447394Y-123627000D01*
X63873000Y-125052606D01*
G37*
X63873000Y-125052606D02*
X63873000Y-135500000D01*
X63875440Y-135524776D01*
X63882667Y-135548601D01*
X63895958Y-135572830D01*
X67256077Y-140373000D01*
X59796981Y-140373000D01*
X58127000Y-138941587D01*
X58127000Y-124529980D01*
X58578490Y-123627000D01*
X62447394Y-123627000D01*
X63873000Y-125052606D01*
G36*
X122873000Y-108559483D02*
G01*
X122873000Y-118947394D01*
X122447394Y-119373000D01*
X118552606Y-119373000D01*
X118127000Y-118947394D01*
X118127000Y-106552606D01*
X118552606Y-106127000D01*
X119954020Y-106127000D01*
X122873000Y-108559483D01*
G37*
X122873000Y-108559483D02*
X122873000Y-118947394D01*
X122447394Y-119373000D01*
X118552606Y-119373000D01*
X118127000Y-118947394D01*
X118127000Y-106552606D01*
X118552606Y-106127000D01*
X119954020Y-106127000D01*
X122873000Y-108559483D01*
G36*
X120373000Y-86873000D02*
G01*
X113627000Y-86873000D01*
X113627000Y-78627000D01*
X120373000Y-78627000D01*
X120373000Y-86873000D01*
G37*
X120373000Y-86873000D02*
X113627000Y-86873000D01*
X113627000Y-78627000D01*
X120373000Y-78627000D01*
X120373000Y-86873000D01*
M02*
