%TF.GenerationSoftware,KiCad,Pcbnew,5.1.6-c6e7f7d~86~ubuntu20.04.1*%
%TF.CreationDate,2020-09-07T13:18:55+02:00*%
%TF.ProjectId,Driver,44726976-6572-42e6-9b69-6361645f7063,rev?*%
%TF.SameCoordinates,Original*%
%TF.FileFunction,Paste,Top*%
%TF.FilePolarity,Positive*%
%FSLAX46Y46*%
G04 Gerber Fmt 4.6, Leading zero omitted, Abs format (unit mm)*
G04 Created by KiCad (PCBNEW 5.1.6-c6e7f7d~86~ubuntu20.04.1) date 2020-09-07 13:18:55*
%MOMM*%
%LPD*%
G01*
G04 APERTURE LIST*
%ADD10R,2.500000X2.300000*%
%ADD11R,2.300000X2.500000*%
%ADD12R,1.600000X1.600000*%
G04 APERTURE END LIST*
D10*
%TO.C,D_boot2*%
X91300000Y-144000000D03*
X87000000Y-144000000D03*
%TD*%
D11*
%TO.C,D_boot1*%
X42500000Y-122650000D03*
X42500000Y-118350000D03*
%TD*%
D12*
%TO.C,U12*%
X93270000Y-136810000D03*
X90730000Y-129190000D03*
X90730000Y-136810000D03*
X93270000Y-129190000D03*
%TD*%
%TO.C,U4*%
G36*
G01*
X85855000Y-134805000D02*
X86155000Y-134805000D01*
G75*
G02*
X86305000Y-134955000I0J-150000D01*
G01*
X86305000Y-136605000D01*
G75*
G02*
X86155000Y-136755000I-150000J0D01*
G01*
X85855000Y-136755000D01*
G75*
G02*
X85705000Y-136605000I0J150000D01*
G01*
X85705000Y-134955000D01*
G75*
G02*
X85855000Y-134805000I150000J0D01*
G01*
G37*
G36*
G01*
X84585000Y-134805000D02*
X84885000Y-134805000D01*
G75*
G02*
X85035000Y-134955000I0J-150000D01*
G01*
X85035000Y-136605000D01*
G75*
G02*
X84885000Y-136755000I-150000J0D01*
G01*
X84585000Y-136755000D01*
G75*
G02*
X84435000Y-136605000I0J150000D01*
G01*
X84435000Y-134955000D01*
G75*
G02*
X84585000Y-134805000I150000J0D01*
G01*
G37*
G36*
G01*
X83315000Y-134805000D02*
X83615000Y-134805000D01*
G75*
G02*
X83765000Y-134955000I0J-150000D01*
G01*
X83765000Y-136605000D01*
G75*
G02*
X83615000Y-136755000I-150000J0D01*
G01*
X83315000Y-136755000D01*
G75*
G02*
X83165000Y-136605000I0J150000D01*
G01*
X83165000Y-134955000D01*
G75*
G02*
X83315000Y-134805000I150000J0D01*
G01*
G37*
G36*
G01*
X82045000Y-134805000D02*
X82345000Y-134805000D01*
G75*
G02*
X82495000Y-134955000I0J-150000D01*
G01*
X82495000Y-136605000D01*
G75*
G02*
X82345000Y-136755000I-150000J0D01*
G01*
X82045000Y-136755000D01*
G75*
G02*
X81895000Y-136605000I0J150000D01*
G01*
X81895000Y-134955000D01*
G75*
G02*
X82045000Y-134805000I150000J0D01*
G01*
G37*
G36*
G01*
X80775000Y-134805000D02*
X81075000Y-134805000D01*
G75*
G02*
X81225000Y-134955000I0J-150000D01*
G01*
X81225000Y-136605000D01*
G75*
G02*
X81075000Y-136755000I-150000J0D01*
G01*
X80775000Y-136755000D01*
G75*
G02*
X80625000Y-136605000I0J150000D01*
G01*
X80625000Y-134955000D01*
G75*
G02*
X80775000Y-134805000I150000J0D01*
G01*
G37*
G36*
G01*
X79505000Y-134805000D02*
X79805000Y-134805000D01*
G75*
G02*
X79955000Y-134955000I0J-150000D01*
G01*
X79955000Y-136605000D01*
G75*
G02*
X79805000Y-136755000I-150000J0D01*
G01*
X79505000Y-136755000D01*
G75*
G02*
X79355000Y-136605000I0J150000D01*
G01*
X79355000Y-134955000D01*
G75*
G02*
X79505000Y-134805000I150000J0D01*
G01*
G37*
G36*
G01*
X78235000Y-134805000D02*
X78535000Y-134805000D01*
G75*
G02*
X78685000Y-134955000I0J-150000D01*
G01*
X78685000Y-136605000D01*
G75*
G02*
X78535000Y-136755000I-150000J0D01*
G01*
X78235000Y-136755000D01*
G75*
G02*
X78085000Y-136605000I0J150000D01*
G01*
X78085000Y-134955000D01*
G75*
G02*
X78235000Y-134805000I150000J0D01*
G01*
G37*
G36*
G01*
X76965000Y-134805000D02*
X77265000Y-134805000D01*
G75*
G02*
X77415000Y-134955000I0J-150000D01*
G01*
X77415000Y-136605000D01*
G75*
G02*
X77265000Y-136755000I-150000J0D01*
G01*
X76965000Y-136755000D01*
G75*
G02*
X76815000Y-136605000I0J150000D01*
G01*
X76815000Y-134955000D01*
G75*
G02*
X76965000Y-134805000I150000J0D01*
G01*
G37*
G36*
G01*
X76965000Y-129855000D02*
X77265000Y-129855000D01*
G75*
G02*
X77415000Y-130005000I0J-150000D01*
G01*
X77415000Y-131655000D01*
G75*
G02*
X77265000Y-131805000I-150000J0D01*
G01*
X76965000Y-131805000D01*
G75*
G02*
X76815000Y-131655000I0J150000D01*
G01*
X76815000Y-130005000D01*
G75*
G02*
X76965000Y-129855000I150000J0D01*
G01*
G37*
G36*
G01*
X78235000Y-129855000D02*
X78535000Y-129855000D01*
G75*
G02*
X78685000Y-130005000I0J-150000D01*
G01*
X78685000Y-131655000D01*
G75*
G02*
X78535000Y-131805000I-150000J0D01*
G01*
X78235000Y-131805000D01*
G75*
G02*
X78085000Y-131655000I0J150000D01*
G01*
X78085000Y-130005000D01*
G75*
G02*
X78235000Y-129855000I150000J0D01*
G01*
G37*
G36*
G01*
X79505000Y-129855000D02*
X79805000Y-129855000D01*
G75*
G02*
X79955000Y-130005000I0J-150000D01*
G01*
X79955000Y-131655000D01*
G75*
G02*
X79805000Y-131805000I-150000J0D01*
G01*
X79505000Y-131805000D01*
G75*
G02*
X79355000Y-131655000I0J150000D01*
G01*
X79355000Y-130005000D01*
G75*
G02*
X79505000Y-129855000I150000J0D01*
G01*
G37*
G36*
G01*
X80775000Y-129855000D02*
X81075000Y-129855000D01*
G75*
G02*
X81225000Y-130005000I0J-150000D01*
G01*
X81225000Y-131655000D01*
G75*
G02*
X81075000Y-131805000I-150000J0D01*
G01*
X80775000Y-131805000D01*
G75*
G02*
X80625000Y-131655000I0J150000D01*
G01*
X80625000Y-130005000D01*
G75*
G02*
X80775000Y-129855000I150000J0D01*
G01*
G37*
G36*
G01*
X82045000Y-129855000D02*
X82345000Y-129855000D01*
G75*
G02*
X82495000Y-130005000I0J-150000D01*
G01*
X82495000Y-131655000D01*
G75*
G02*
X82345000Y-131805000I-150000J0D01*
G01*
X82045000Y-131805000D01*
G75*
G02*
X81895000Y-131655000I0J150000D01*
G01*
X81895000Y-130005000D01*
G75*
G02*
X82045000Y-129855000I150000J0D01*
G01*
G37*
G36*
G01*
X83315000Y-129855000D02*
X83615000Y-129855000D01*
G75*
G02*
X83765000Y-130005000I0J-150000D01*
G01*
X83765000Y-131655000D01*
G75*
G02*
X83615000Y-131805000I-150000J0D01*
G01*
X83315000Y-131805000D01*
G75*
G02*
X83165000Y-131655000I0J150000D01*
G01*
X83165000Y-130005000D01*
G75*
G02*
X83315000Y-129855000I150000J0D01*
G01*
G37*
G36*
G01*
X84585000Y-129855000D02*
X84885000Y-129855000D01*
G75*
G02*
X85035000Y-130005000I0J-150000D01*
G01*
X85035000Y-131655000D01*
G75*
G02*
X84885000Y-131805000I-150000J0D01*
G01*
X84585000Y-131805000D01*
G75*
G02*
X84435000Y-131655000I0J150000D01*
G01*
X84435000Y-130005000D01*
G75*
G02*
X84585000Y-129855000I150000J0D01*
G01*
G37*
G36*
G01*
X85855000Y-129855000D02*
X86155000Y-129855000D01*
G75*
G02*
X86305000Y-130005000I0J-150000D01*
G01*
X86305000Y-131655000D01*
G75*
G02*
X86155000Y-131805000I-150000J0D01*
G01*
X85855000Y-131805000D01*
G75*
G02*
X85705000Y-131655000I0J150000D01*
G01*
X85705000Y-130005000D01*
G75*
G02*
X85855000Y-129855000I150000J0D01*
G01*
G37*
%TD*%
%TO.C,U3*%
G36*
G01*
X45705000Y-124500000D02*
X45405000Y-124500000D01*
G75*
G02*
X45255000Y-124350000I0J150000D01*
G01*
X45255000Y-122700000D01*
G75*
G02*
X45405000Y-122550000I150000J0D01*
G01*
X45705000Y-122550000D01*
G75*
G02*
X45855000Y-122700000I0J-150000D01*
G01*
X45855000Y-124350000D01*
G75*
G02*
X45705000Y-124500000I-150000J0D01*
G01*
G37*
G36*
G01*
X46975000Y-124500000D02*
X46675000Y-124500000D01*
G75*
G02*
X46525000Y-124350000I0J150000D01*
G01*
X46525000Y-122700000D01*
G75*
G02*
X46675000Y-122550000I150000J0D01*
G01*
X46975000Y-122550000D01*
G75*
G02*
X47125000Y-122700000I0J-150000D01*
G01*
X47125000Y-124350000D01*
G75*
G02*
X46975000Y-124500000I-150000J0D01*
G01*
G37*
G36*
G01*
X48245000Y-124500000D02*
X47945000Y-124500000D01*
G75*
G02*
X47795000Y-124350000I0J150000D01*
G01*
X47795000Y-122700000D01*
G75*
G02*
X47945000Y-122550000I150000J0D01*
G01*
X48245000Y-122550000D01*
G75*
G02*
X48395000Y-122700000I0J-150000D01*
G01*
X48395000Y-124350000D01*
G75*
G02*
X48245000Y-124500000I-150000J0D01*
G01*
G37*
G36*
G01*
X49515000Y-124500000D02*
X49215000Y-124500000D01*
G75*
G02*
X49065000Y-124350000I0J150000D01*
G01*
X49065000Y-122700000D01*
G75*
G02*
X49215000Y-122550000I150000J0D01*
G01*
X49515000Y-122550000D01*
G75*
G02*
X49665000Y-122700000I0J-150000D01*
G01*
X49665000Y-124350000D01*
G75*
G02*
X49515000Y-124500000I-150000J0D01*
G01*
G37*
G36*
G01*
X50785000Y-124500000D02*
X50485000Y-124500000D01*
G75*
G02*
X50335000Y-124350000I0J150000D01*
G01*
X50335000Y-122700000D01*
G75*
G02*
X50485000Y-122550000I150000J0D01*
G01*
X50785000Y-122550000D01*
G75*
G02*
X50935000Y-122700000I0J-150000D01*
G01*
X50935000Y-124350000D01*
G75*
G02*
X50785000Y-124500000I-150000J0D01*
G01*
G37*
G36*
G01*
X52055000Y-124500000D02*
X51755000Y-124500000D01*
G75*
G02*
X51605000Y-124350000I0J150000D01*
G01*
X51605000Y-122700000D01*
G75*
G02*
X51755000Y-122550000I150000J0D01*
G01*
X52055000Y-122550000D01*
G75*
G02*
X52205000Y-122700000I0J-150000D01*
G01*
X52205000Y-124350000D01*
G75*
G02*
X52055000Y-124500000I-150000J0D01*
G01*
G37*
G36*
G01*
X53325000Y-124500000D02*
X53025000Y-124500000D01*
G75*
G02*
X52875000Y-124350000I0J150000D01*
G01*
X52875000Y-122700000D01*
G75*
G02*
X53025000Y-122550000I150000J0D01*
G01*
X53325000Y-122550000D01*
G75*
G02*
X53475000Y-122700000I0J-150000D01*
G01*
X53475000Y-124350000D01*
G75*
G02*
X53325000Y-124500000I-150000J0D01*
G01*
G37*
G36*
G01*
X54595000Y-124500000D02*
X54295000Y-124500000D01*
G75*
G02*
X54145000Y-124350000I0J150000D01*
G01*
X54145000Y-122700000D01*
G75*
G02*
X54295000Y-122550000I150000J0D01*
G01*
X54595000Y-122550000D01*
G75*
G02*
X54745000Y-122700000I0J-150000D01*
G01*
X54745000Y-124350000D01*
G75*
G02*
X54595000Y-124500000I-150000J0D01*
G01*
G37*
G36*
G01*
X54595000Y-129450000D02*
X54295000Y-129450000D01*
G75*
G02*
X54145000Y-129300000I0J150000D01*
G01*
X54145000Y-127650000D01*
G75*
G02*
X54295000Y-127500000I150000J0D01*
G01*
X54595000Y-127500000D01*
G75*
G02*
X54745000Y-127650000I0J-150000D01*
G01*
X54745000Y-129300000D01*
G75*
G02*
X54595000Y-129450000I-150000J0D01*
G01*
G37*
G36*
G01*
X53325000Y-129450000D02*
X53025000Y-129450000D01*
G75*
G02*
X52875000Y-129300000I0J150000D01*
G01*
X52875000Y-127650000D01*
G75*
G02*
X53025000Y-127500000I150000J0D01*
G01*
X53325000Y-127500000D01*
G75*
G02*
X53475000Y-127650000I0J-150000D01*
G01*
X53475000Y-129300000D01*
G75*
G02*
X53325000Y-129450000I-150000J0D01*
G01*
G37*
G36*
G01*
X52055000Y-129450000D02*
X51755000Y-129450000D01*
G75*
G02*
X51605000Y-129300000I0J150000D01*
G01*
X51605000Y-127650000D01*
G75*
G02*
X51755000Y-127500000I150000J0D01*
G01*
X52055000Y-127500000D01*
G75*
G02*
X52205000Y-127650000I0J-150000D01*
G01*
X52205000Y-129300000D01*
G75*
G02*
X52055000Y-129450000I-150000J0D01*
G01*
G37*
G36*
G01*
X50785000Y-129450000D02*
X50485000Y-129450000D01*
G75*
G02*
X50335000Y-129300000I0J150000D01*
G01*
X50335000Y-127650000D01*
G75*
G02*
X50485000Y-127500000I150000J0D01*
G01*
X50785000Y-127500000D01*
G75*
G02*
X50935000Y-127650000I0J-150000D01*
G01*
X50935000Y-129300000D01*
G75*
G02*
X50785000Y-129450000I-150000J0D01*
G01*
G37*
G36*
G01*
X49515000Y-129450000D02*
X49215000Y-129450000D01*
G75*
G02*
X49065000Y-129300000I0J150000D01*
G01*
X49065000Y-127650000D01*
G75*
G02*
X49215000Y-127500000I150000J0D01*
G01*
X49515000Y-127500000D01*
G75*
G02*
X49665000Y-127650000I0J-150000D01*
G01*
X49665000Y-129300000D01*
G75*
G02*
X49515000Y-129450000I-150000J0D01*
G01*
G37*
G36*
G01*
X48245000Y-129450000D02*
X47945000Y-129450000D01*
G75*
G02*
X47795000Y-129300000I0J150000D01*
G01*
X47795000Y-127650000D01*
G75*
G02*
X47945000Y-127500000I150000J0D01*
G01*
X48245000Y-127500000D01*
G75*
G02*
X48395000Y-127650000I0J-150000D01*
G01*
X48395000Y-129300000D01*
G75*
G02*
X48245000Y-129450000I-150000J0D01*
G01*
G37*
G36*
G01*
X46975000Y-129450000D02*
X46675000Y-129450000D01*
G75*
G02*
X46525000Y-129300000I0J150000D01*
G01*
X46525000Y-127650000D01*
G75*
G02*
X46675000Y-127500000I150000J0D01*
G01*
X46975000Y-127500000D01*
G75*
G02*
X47125000Y-127650000I0J-150000D01*
G01*
X47125000Y-129300000D01*
G75*
G02*
X46975000Y-129450000I-150000J0D01*
G01*
G37*
G36*
G01*
X45705000Y-129450000D02*
X45405000Y-129450000D01*
G75*
G02*
X45255000Y-129300000I0J150000D01*
G01*
X45255000Y-127650000D01*
G75*
G02*
X45405000Y-127500000I150000J0D01*
G01*
X45705000Y-127500000D01*
G75*
G02*
X45855000Y-127650000I0J-150000D01*
G01*
X45855000Y-129300000D01*
G75*
G02*
X45705000Y-129450000I-150000J0D01*
G01*
G37*
%TD*%
%TO.C,RBoot2*%
G36*
G01*
X87612500Y-147043750D02*
X87612500Y-147956250D01*
G75*
G02*
X87368750Y-148200000I-243750J0D01*
G01*
X86881250Y-148200000D01*
G75*
G02*
X86637500Y-147956250I0J243750D01*
G01*
X86637500Y-147043750D01*
G75*
G02*
X86881250Y-146800000I243750J0D01*
G01*
X87368750Y-146800000D01*
G75*
G02*
X87612500Y-147043750I0J-243750D01*
G01*
G37*
G36*
G01*
X89487500Y-147043750D02*
X89487500Y-147956250D01*
G75*
G02*
X89243750Y-148200000I-243750J0D01*
G01*
X88756250Y-148200000D01*
G75*
G02*
X88512500Y-147956250I0J243750D01*
G01*
X88512500Y-147043750D01*
G75*
G02*
X88756250Y-146800000I243750J0D01*
G01*
X89243750Y-146800000D01*
G75*
G02*
X89487500Y-147043750I0J-243750D01*
G01*
G37*
%TD*%
%TO.C,RBoot1*%
G36*
G01*
X38956250Y-120050000D02*
X38043750Y-120050000D01*
G75*
G02*
X37800000Y-119806250I0J243750D01*
G01*
X37800000Y-119318750D01*
G75*
G02*
X38043750Y-119075000I243750J0D01*
G01*
X38956250Y-119075000D01*
G75*
G02*
X39200000Y-119318750I0J-243750D01*
G01*
X39200000Y-119806250D01*
G75*
G02*
X38956250Y-120050000I-243750J0D01*
G01*
G37*
G36*
G01*
X38956250Y-121925000D02*
X38043750Y-121925000D01*
G75*
G02*
X37800000Y-121681250I0J243750D01*
G01*
X37800000Y-121193750D01*
G75*
G02*
X38043750Y-120950000I243750J0D01*
G01*
X38956250Y-120950000D01*
G75*
G02*
X39200000Y-121193750I0J-243750D01*
G01*
X39200000Y-121681250D01*
G75*
G02*
X38956250Y-121925000I-243750J0D01*
G01*
G37*
%TD*%
%TO.C,R8*%
G36*
G01*
X79547500Y-127848750D02*
X79547500Y-128761250D01*
G75*
G02*
X79303750Y-129005000I-243750J0D01*
G01*
X78816250Y-129005000D01*
G75*
G02*
X78572500Y-128761250I0J243750D01*
G01*
X78572500Y-127848750D01*
G75*
G02*
X78816250Y-127605000I243750J0D01*
G01*
X79303750Y-127605000D01*
G75*
G02*
X79547500Y-127848750I0J-243750D01*
G01*
G37*
G36*
G01*
X81422500Y-127848750D02*
X81422500Y-128761250D01*
G75*
G02*
X81178750Y-129005000I-243750J0D01*
G01*
X80691250Y-129005000D01*
G75*
G02*
X80447500Y-128761250I0J243750D01*
G01*
X80447500Y-127848750D01*
G75*
G02*
X80691250Y-127605000I243750J0D01*
G01*
X81178750Y-127605000D01*
G75*
G02*
X81422500Y-127848750I0J-243750D01*
G01*
G37*
%TD*%
%TO.C,R7*%
G36*
G01*
X84603750Y-124255000D02*
X85516250Y-124255000D01*
G75*
G02*
X85760000Y-124498750I0J-243750D01*
G01*
X85760000Y-124986250D01*
G75*
G02*
X85516250Y-125230000I-243750J0D01*
G01*
X84603750Y-125230000D01*
G75*
G02*
X84360000Y-124986250I0J243750D01*
G01*
X84360000Y-124498750D01*
G75*
G02*
X84603750Y-124255000I243750J0D01*
G01*
G37*
G36*
G01*
X84603750Y-122380000D02*
X85516250Y-122380000D01*
G75*
G02*
X85760000Y-122623750I0J-243750D01*
G01*
X85760000Y-123111250D01*
G75*
G02*
X85516250Y-123355000I-243750J0D01*
G01*
X84603750Y-123355000D01*
G75*
G02*
X84360000Y-123111250I0J243750D01*
G01*
X84360000Y-122623750D01*
G75*
G02*
X84603750Y-122380000I243750J0D01*
G01*
G37*
%TD*%
%TO.C,R6*%
G36*
G01*
X86603750Y-124255000D02*
X87516250Y-124255000D01*
G75*
G02*
X87760000Y-124498750I0J-243750D01*
G01*
X87760000Y-124986250D01*
G75*
G02*
X87516250Y-125230000I-243750J0D01*
G01*
X86603750Y-125230000D01*
G75*
G02*
X86360000Y-124986250I0J243750D01*
G01*
X86360000Y-124498750D01*
G75*
G02*
X86603750Y-124255000I243750J0D01*
G01*
G37*
G36*
G01*
X86603750Y-122380000D02*
X87516250Y-122380000D01*
G75*
G02*
X87760000Y-122623750I0J-243750D01*
G01*
X87760000Y-123111250D01*
G75*
G02*
X87516250Y-123355000I-243750J0D01*
G01*
X86603750Y-123355000D01*
G75*
G02*
X86360000Y-123111250I0J243750D01*
G01*
X86360000Y-122623750D01*
G75*
G02*
X86603750Y-122380000I243750J0D01*
G01*
G37*
%TD*%
%TO.C,R5*%
G36*
G01*
X94950000Y-139956250D02*
X94950000Y-139043750D01*
G75*
G02*
X95193750Y-138800000I243750J0D01*
G01*
X95681250Y-138800000D01*
G75*
G02*
X95925000Y-139043750I0J-243750D01*
G01*
X95925000Y-139956250D01*
G75*
G02*
X95681250Y-140200000I-243750J0D01*
G01*
X95193750Y-140200000D01*
G75*
G02*
X94950000Y-139956250I0J243750D01*
G01*
G37*
G36*
G01*
X93075000Y-139956250D02*
X93075000Y-139043750D01*
G75*
G02*
X93318750Y-138800000I243750J0D01*
G01*
X93806250Y-138800000D01*
G75*
G02*
X94050000Y-139043750I0J-243750D01*
G01*
X94050000Y-139956250D01*
G75*
G02*
X93806250Y-140200000I-243750J0D01*
G01*
X93318750Y-140200000D01*
G75*
G02*
X93075000Y-139956250I0J243750D01*
G01*
G37*
%TD*%
%TO.C,R4*%
G36*
G01*
X92450000Y-126956250D02*
X92450000Y-126043750D01*
G75*
G02*
X92693750Y-125800000I243750J0D01*
G01*
X93181250Y-125800000D01*
G75*
G02*
X93425000Y-126043750I0J-243750D01*
G01*
X93425000Y-126956250D01*
G75*
G02*
X93181250Y-127200000I-243750J0D01*
G01*
X92693750Y-127200000D01*
G75*
G02*
X92450000Y-126956250I0J243750D01*
G01*
G37*
G36*
G01*
X90575000Y-126956250D02*
X90575000Y-126043750D01*
G75*
G02*
X90818750Y-125800000I243750J0D01*
G01*
X91306250Y-125800000D01*
G75*
G02*
X91550000Y-126043750I0J-243750D01*
G01*
X91550000Y-126956250D01*
G75*
G02*
X91306250Y-127200000I-243750J0D01*
G01*
X90818750Y-127200000D01*
G75*
G02*
X90575000Y-126956250I0J243750D01*
G01*
G37*
%TD*%
%TO.C,R3*%
G36*
G01*
X52112500Y-131521250D02*
X52112500Y-130608750D01*
G75*
G02*
X52356250Y-130365000I243750J0D01*
G01*
X52843750Y-130365000D01*
G75*
G02*
X53087500Y-130608750I0J-243750D01*
G01*
X53087500Y-131521250D01*
G75*
G02*
X52843750Y-131765000I-243750J0D01*
G01*
X52356250Y-131765000D01*
G75*
G02*
X52112500Y-131521250I0J243750D01*
G01*
G37*
G36*
G01*
X50237500Y-131521250D02*
X50237500Y-130608750D01*
G75*
G02*
X50481250Y-130365000I243750J0D01*
G01*
X50968750Y-130365000D01*
G75*
G02*
X51212500Y-130608750I0J-243750D01*
G01*
X51212500Y-131521250D01*
G75*
G02*
X50968750Y-131765000I-243750J0D01*
G01*
X50481250Y-131765000D01*
G75*
G02*
X50237500Y-131521250I0J243750D01*
G01*
G37*
%TD*%
%TO.C,R2*%
G36*
G01*
X47281250Y-133330000D02*
X46368750Y-133330000D01*
G75*
G02*
X46125000Y-133086250I0J243750D01*
G01*
X46125000Y-132598750D01*
G75*
G02*
X46368750Y-132355000I243750J0D01*
G01*
X47281250Y-132355000D01*
G75*
G02*
X47525000Y-132598750I0J-243750D01*
G01*
X47525000Y-133086250D01*
G75*
G02*
X47281250Y-133330000I-243750J0D01*
G01*
G37*
G36*
G01*
X47281250Y-135205000D02*
X46368750Y-135205000D01*
G75*
G02*
X46125000Y-134961250I0J243750D01*
G01*
X46125000Y-134473750D01*
G75*
G02*
X46368750Y-134230000I243750J0D01*
G01*
X47281250Y-134230000D01*
G75*
G02*
X47525000Y-134473750I0J-243750D01*
G01*
X47525000Y-134961250D01*
G75*
G02*
X47281250Y-135205000I-243750J0D01*
G01*
G37*
%TD*%
%TO.C,R1*%
G36*
G01*
X45281250Y-133330000D02*
X44368750Y-133330000D01*
G75*
G02*
X44125000Y-133086250I0J243750D01*
G01*
X44125000Y-132598750D01*
G75*
G02*
X44368750Y-132355000I243750J0D01*
G01*
X45281250Y-132355000D01*
G75*
G02*
X45525000Y-132598750I0J-243750D01*
G01*
X45525000Y-133086250D01*
G75*
G02*
X45281250Y-133330000I-243750J0D01*
G01*
G37*
G36*
G01*
X45281250Y-135205000D02*
X44368750Y-135205000D01*
G75*
G02*
X44125000Y-134961250I0J243750D01*
G01*
X44125000Y-134473750D01*
G75*
G02*
X44368750Y-134230000I243750J0D01*
G01*
X45281250Y-134230000D01*
G75*
G02*
X45525000Y-134473750I0J-243750D01*
G01*
X45525000Y-134961250D01*
G75*
G02*
X45281250Y-135205000I-243750J0D01*
G01*
G37*
%TD*%
%TO.C,CBoot4*%
G36*
G01*
X84547500Y-140348750D02*
X84547500Y-141261250D01*
G75*
G02*
X84303750Y-141505000I-243750J0D01*
G01*
X83816250Y-141505000D01*
G75*
G02*
X83572500Y-141261250I0J243750D01*
G01*
X83572500Y-140348750D01*
G75*
G02*
X83816250Y-140105000I243750J0D01*
G01*
X84303750Y-140105000D01*
G75*
G02*
X84547500Y-140348750I0J-243750D01*
G01*
G37*
G36*
G01*
X86422500Y-140348750D02*
X86422500Y-141261250D01*
G75*
G02*
X86178750Y-141505000I-243750J0D01*
G01*
X85691250Y-141505000D01*
G75*
G02*
X85447500Y-141261250I0J243750D01*
G01*
X85447500Y-140348750D01*
G75*
G02*
X85691250Y-140105000I243750J0D01*
G01*
X86178750Y-140105000D01*
G75*
G02*
X86422500Y-140348750I0J-243750D01*
G01*
G37*
%TD*%
%TO.C,CBoot3*%
G36*
G01*
X84547500Y-138348750D02*
X84547500Y-139261250D01*
G75*
G02*
X84303750Y-139505000I-243750J0D01*
G01*
X83816250Y-139505000D01*
G75*
G02*
X83572500Y-139261250I0J243750D01*
G01*
X83572500Y-138348750D01*
G75*
G02*
X83816250Y-138105000I243750J0D01*
G01*
X84303750Y-138105000D01*
G75*
G02*
X84547500Y-138348750I0J-243750D01*
G01*
G37*
G36*
G01*
X86422500Y-138348750D02*
X86422500Y-139261250D01*
G75*
G02*
X86178750Y-139505000I-243750J0D01*
G01*
X85691250Y-139505000D01*
G75*
G02*
X85447500Y-139261250I0J243750D01*
G01*
X85447500Y-138348750D01*
G75*
G02*
X85691250Y-138105000I243750J0D01*
G01*
X86178750Y-138105000D01*
G75*
G02*
X86422500Y-138348750I0J-243750D01*
G01*
G37*
%TD*%
%TO.C,CBoot2*%
G36*
G01*
X47050000Y-119021250D02*
X47050000Y-118108750D01*
G75*
G02*
X47293750Y-117865000I243750J0D01*
G01*
X47781250Y-117865000D01*
G75*
G02*
X48025000Y-118108750I0J-243750D01*
G01*
X48025000Y-119021250D01*
G75*
G02*
X47781250Y-119265000I-243750J0D01*
G01*
X47293750Y-119265000D01*
G75*
G02*
X47050000Y-119021250I0J243750D01*
G01*
G37*
G36*
G01*
X45175000Y-119021250D02*
X45175000Y-118108750D01*
G75*
G02*
X45418750Y-117865000I243750J0D01*
G01*
X45906250Y-117865000D01*
G75*
G02*
X46150000Y-118108750I0J-243750D01*
G01*
X46150000Y-119021250D01*
G75*
G02*
X45906250Y-119265000I-243750J0D01*
G01*
X45418750Y-119265000D01*
G75*
G02*
X45175000Y-119021250I0J243750D01*
G01*
G37*
%TD*%
%TO.C,CBoot1*%
G36*
G01*
X47050000Y-121521250D02*
X47050000Y-120608750D01*
G75*
G02*
X47293750Y-120365000I243750J0D01*
G01*
X47781250Y-120365000D01*
G75*
G02*
X48025000Y-120608750I0J-243750D01*
G01*
X48025000Y-121521250D01*
G75*
G02*
X47781250Y-121765000I-243750J0D01*
G01*
X47293750Y-121765000D01*
G75*
G02*
X47050000Y-121521250I0J243750D01*
G01*
G37*
G36*
G01*
X45175000Y-121521250D02*
X45175000Y-120608750D01*
G75*
G02*
X45418750Y-120365000I243750J0D01*
G01*
X45906250Y-120365000D01*
G75*
G02*
X46150000Y-120608750I0J-243750D01*
G01*
X46150000Y-121521250D01*
G75*
G02*
X45906250Y-121765000I-243750J0D01*
G01*
X45418750Y-121765000D01*
G75*
G02*
X45175000Y-121521250I0J243750D01*
G01*
G37*
%TD*%
%TO.C,C_VDDB4*%
G36*
G01*
X77385000Y-138230000D02*
X77385000Y-140380000D01*
G75*
G02*
X77135000Y-140630000I-250000J0D01*
G01*
X76385000Y-140630000D01*
G75*
G02*
X76135000Y-140380000I0J250000D01*
G01*
X76135000Y-138230000D01*
G75*
G02*
X76385000Y-137980000I250000J0D01*
G01*
X77135000Y-137980000D01*
G75*
G02*
X77385000Y-138230000I0J-250000D01*
G01*
G37*
G36*
G01*
X80185000Y-138230000D02*
X80185000Y-140380000D01*
G75*
G02*
X79935000Y-140630000I-250000J0D01*
G01*
X79185000Y-140630000D01*
G75*
G02*
X78935000Y-140380000I0J250000D01*
G01*
X78935000Y-138230000D01*
G75*
G02*
X79185000Y-137980000I250000J0D01*
G01*
X79935000Y-137980000D01*
G75*
G02*
X80185000Y-138230000I0J-250000D01*
G01*
G37*
%TD*%
%TO.C,C_VDDB3*%
G36*
G01*
X77610000Y-141848750D02*
X77610000Y-142761250D01*
G75*
G02*
X77366250Y-143005000I-243750J0D01*
G01*
X76878750Y-143005000D01*
G75*
G02*
X76635000Y-142761250I0J243750D01*
G01*
X76635000Y-141848750D01*
G75*
G02*
X76878750Y-141605000I243750J0D01*
G01*
X77366250Y-141605000D01*
G75*
G02*
X77610000Y-141848750I0J-243750D01*
G01*
G37*
G36*
G01*
X79485000Y-141848750D02*
X79485000Y-142761250D01*
G75*
G02*
X79241250Y-143005000I-243750J0D01*
G01*
X78753750Y-143005000D01*
G75*
G02*
X78510000Y-142761250I0J243750D01*
G01*
X78510000Y-141848750D01*
G75*
G02*
X78753750Y-141605000I243750J0D01*
G01*
X79241250Y-141605000D01*
G75*
G02*
X79485000Y-141848750I0J-243750D01*
G01*
G37*
%TD*%
%TO.C,C_VDDB2*%
G36*
G01*
X53675000Y-121575000D02*
X53675000Y-119425000D01*
G75*
G02*
X53925000Y-119175000I250000J0D01*
G01*
X54675000Y-119175000D01*
G75*
G02*
X54925000Y-119425000I0J-250000D01*
G01*
X54925000Y-121575000D01*
G75*
G02*
X54675000Y-121825000I-250000J0D01*
G01*
X53925000Y-121825000D01*
G75*
G02*
X53675000Y-121575000I0J250000D01*
G01*
G37*
G36*
G01*
X50875000Y-121575000D02*
X50875000Y-119425000D01*
G75*
G02*
X51125000Y-119175000I250000J0D01*
G01*
X51875000Y-119175000D01*
G75*
G02*
X52125000Y-119425000I0J-250000D01*
G01*
X52125000Y-121575000D01*
G75*
G02*
X51875000Y-121825000I-250000J0D01*
G01*
X51125000Y-121825000D01*
G75*
G02*
X50875000Y-121575000I0J250000D01*
G01*
G37*
%TD*%
%TO.C,C_VDDB1*%
G36*
G01*
X53887500Y-118456250D02*
X53887500Y-117543750D01*
G75*
G02*
X54131250Y-117300000I243750J0D01*
G01*
X54618750Y-117300000D01*
G75*
G02*
X54862500Y-117543750I0J-243750D01*
G01*
X54862500Y-118456250D01*
G75*
G02*
X54618750Y-118700000I-243750J0D01*
G01*
X54131250Y-118700000D01*
G75*
G02*
X53887500Y-118456250I0J243750D01*
G01*
G37*
G36*
G01*
X52012500Y-118456250D02*
X52012500Y-117543750D01*
G75*
G02*
X52256250Y-117300000I243750J0D01*
G01*
X52743750Y-117300000D01*
G75*
G02*
X52987500Y-117543750I0J-243750D01*
G01*
X52987500Y-118456250D01*
G75*
G02*
X52743750Y-118700000I-243750J0D01*
G01*
X52256250Y-118700000D01*
G75*
G02*
X52012500Y-118456250I0J243750D01*
G01*
G37*
%TD*%
%TO.C,C12*%
G36*
G01*
X82603750Y-127817500D02*
X83516250Y-127817500D01*
G75*
G02*
X83760000Y-128061250I0J-243750D01*
G01*
X83760000Y-128548750D01*
G75*
G02*
X83516250Y-128792500I-243750J0D01*
G01*
X82603750Y-128792500D01*
G75*
G02*
X82360000Y-128548750I0J243750D01*
G01*
X82360000Y-128061250D01*
G75*
G02*
X82603750Y-127817500I243750J0D01*
G01*
G37*
G36*
G01*
X82603750Y-125942500D02*
X83516250Y-125942500D01*
G75*
G02*
X83760000Y-126186250I0J-243750D01*
G01*
X83760000Y-126673750D01*
G75*
G02*
X83516250Y-126917500I-243750J0D01*
G01*
X82603750Y-126917500D01*
G75*
G02*
X82360000Y-126673750I0J243750D01*
G01*
X82360000Y-126186250D01*
G75*
G02*
X82603750Y-125942500I243750J0D01*
G01*
G37*
%TD*%
%TO.C,C11*%
G36*
G01*
X80447500Y-126761250D02*
X80447500Y-125848750D01*
G75*
G02*
X80691250Y-125605000I243750J0D01*
G01*
X81178750Y-125605000D01*
G75*
G02*
X81422500Y-125848750I0J-243750D01*
G01*
X81422500Y-126761250D01*
G75*
G02*
X81178750Y-127005000I-243750J0D01*
G01*
X80691250Y-127005000D01*
G75*
G02*
X80447500Y-126761250I0J243750D01*
G01*
G37*
G36*
G01*
X78572500Y-126761250D02*
X78572500Y-125848750D01*
G75*
G02*
X78816250Y-125605000I243750J0D01*
G01*
X79303750Y-125605000D01*
G75*
G02*
X79547500Y-125848750I0J-243750D01*
G01*
X79547500Y-126761250D01*
G75*
G02*
X79303750Y-127005000I-243750J0D01*
G01*
X78816250Y-127005000D01*
G75*
G02*
X78572500Y-126761250I0J243750D01*
G01*
G37*
%TD*%
%TO.C,C10*%
G36*
G01*
X77010000Y-126761250D02*
X77010000Y-125848750D01*
G75*
G02*
X77253750Y-125605000I243750J0D01*
G01*
X77741250Y-125605000D01*
G75*
G02*
X77985000Y-125848750I0J-243750D01*
G01*
X77985000Y-126761250D01*
G75*
G02*
X77741250Y-127005000I-243750J0D01*
G01*
X77253750Y-127005000D01*
G75*
G02*
X77010000Y-126761250I0J243750D01*
G01*
G37*
G36*
G01*
X75135000Y-126761250D02*
X75135000Y-125848750D01*
G75*
G02*
X75378750Y-125605000I243750J0D01*
G01*
X75866250Y-125605000D01*
G75*
G02*
X76110000Y-125848750I0J-243750D01*
G01*
X76110000Y-126761250D01*
G75*
G02*
X75866250Y-127005000I-243750J0D01*
G01*
X75378750Y-127005000D01*
G75*
G02*
X75135000Y-126761250I0J243750D01*
G01*
G37*
%TD*%
%TO.C,C9*%
G36*
G01*
X77010000Y-128761250D02*
X77010000Y-127848750D01*
G75*
G02*
X77253750Y-127605000I243750J0D01*
G01*
X77741250Y-127605000D01*
G75*
G02*
X77985000Y-127848750I0J-243750D01*
G01*
X77985000Y-128761250D01*
G75*
G02*
X77741250Y-129005000I-243750J0D01*
G01*
X77253750Y-129005000D01*
G75*
G02*
X77010000Y-128761250I0J243750D01*
G01*
G37*
G36*
G01*
X75135000Y-128761250D02*
X75135000Y-127848750D01*
G75*
G02*
X75378750Y-127605000I243750J0D01*
G01*
X75866250Y-127605000D01*
G75*
G02*
X76110000Y-127848750I0J-243750D01*
G01*
X76110000Y-128761250D01*
G75*
G02*
X75866250Y-129005000I-243750J0D01*
G01*
X75378750Y-129005000D01*
G75*
G02*
X75135000Y-128761250I0J243750D01*
G01*
G37*
%TD*%
%TO.C,C8*%
G36*
G01*
X83516250Y-123355000D02*
X82603750Y-123355000D01*
G75*
G02*
X82360000Y-123111250I0J243750D01*
G01*
X82360000Y-122623750D01*
G75*
G02*
X82603750Y-122380000I243750J0D01*
G01*
X83516250Y-122380000D01*
G75*
G02*
X83760000Y-122623750I0J-243750D01*
G01*
X83760000Y-123111250D01*
G75*
G02*
X83516250Y-123355000I-243750J0D01*
G01*
G37*
G36*
G01*
X83516250Y-125230000D02*
X82603750Y-125230000D01*
G75*
G02*
X82360000Y-124986250I0J243750D01*
G01*
X82360000Y-124498750D01*
G75*
G02*
X82603750Y-124255000I243750J0D01*
G01*
X83516250Y-124255000D01*
G75*
G02*
X83760000Y-124498750I0J-243750D01*
G01*
X83760000Y-124986250D01*
G75*
G02*
X83516250Y-125230000I-243750J0D01*
G01*
G37*
%TD*%
%TO.C,C7*%
G36*
G01*
X88603750Y-124255000D02*
X89516250Y-124255000D01*
G75*
G02*
X89760000Y-124498750I0J-243750D01*
G01*
X89760000Y-124986250D01*
G75*
G02*
X89516250Y-125230000I-243750J0D01*
G01*
X88603750Y-125230000D01*
G75*
G02*
X88360000Y-124986250I0J243750D01*
G01*
X88360000Y-124498750D01*
G75*
G02*
X88603750Y-124255000I243750J0D01*
G01*
G37*
G36*
G01*
X88603750Y-122380000D02*
X89516250Y-122380000D01*
G75*
G02*
X89760000Y-122623750I0J-243750D01*
G01*
X89760000Y-123111250D01*
G75*
G02*
X89516250Y-123355000I-243750J0D01*
G01*
X88603750Y-123355000D01*
G75*
G02*
X88360000Y-123111250I0J243750D01*
G01*
X88360000Y-122623750D01*
G75*
G02*
X88603750Y-122380000I243750J0D01*
G01*
G37*
%TD*%
%TO.C,C6*%
G36*
G01*
X47612500Y-130543750D02*
X47612500Y-131456250D01*
G75*
G02*
X47368750Y-131700000I-243750J0D01*
G01*
X46881250Y-131700000D01*
G75*
G02*
X46637500Y-131456250I0J243750D01*
G01*
X46637500Y-130543750D01*
G75*
G02*
X46881250Y-130300000I243750J0D01*
G01*
X47368750Y-130300000D01*
G75*
G02*
X47612500Y-130543750I0J-243750D01*
G01*
G37*
G36*
G01*
X49487500Y-130543750D02*
X49487500Y-131456250D01*
G75*
G02*
X49243750Y-131700000I-243750J0D01*
G01*
X48756250Y-131700000D01*
G75*
G02*
X48512500Y-131456250I0J243750D01*
G01*
X48512500Y-130543750D01*
G75*
G02*
X48756250Y-130300000I243750J0D01*
G01*
X49243750Y-130300000D01*
G75*
G02*
X49487500Y-130543750I0J-243750D01*
G01*
G37*
%TD*%
%TO.C,C5*%
G36*
G01*
X51212500Y-132608750D02*
X51212500Y-133521250D01*
G75*
G02*
X50968750Y-133765000I-243750J0D01*
G01*
X50481250Y-133765000D01*
G75*
G02*
X50237500Y-133521250I0J243750D01*
G01*
X50237500Y-132608750D01*
G75*
G02*
X50481250Y-132365000I243750J0D01*
G01*
X50968750Y-132365000D01*
G75*
G02*
X51212500Y-132608750I0J-243750D01*
G01*
G37*
G36*
G01*
X53087500Y-132608750D02*
X53087500Y-133521250D01*
G75*
G02*
X52843750Y-133765000I-243750J0D01*
G01*
X52356250Y-133765000D01*
G75*
G02*
X52112500Y-133521250I0J243750D01*
G01*
X52112500Y-132608750D01*
G75*
G02*
X52356250Y-132365000I243750J0D01*
G01*
X52843750Y-132365000D01*
G75*
G02*
X53087500Y-132608750I0J-243750D01*
G01*
G37*
%TD*%
%TO.C,C4*%
G36*
G01*
X55050000Y-132543750D02*
X55050000Y-133456250D01*
G75*
G02*
X54806250Y-133700000I-243750J0D01*
G01*
X54318750Y-133700000D01*
G75*
G02*
X54075000Y-133456250I0J243750D01*
G01*
X54075000Y-132543750D01*
G75*
G02*
X54318750Y-132300000I243750J0D01*
G01*
X54806250Y-132300000D01*
G75*
G02*
X55050000Y-132543750I0J-243750D01*
G01*
G37*
G36*
G01*
X56925000Y-132543750D02*
X56925000Y-133456250D01*
G75*
G02*
X56681250Y-133700000I-243750J0D01*
G01*
X56193750Y-133700000D01*
G75*
G02*
X55950000Y-133456250I0J243750D01*
G01*
X55950000Y-132543750D01*
G75*
G02*
X56193750Y-132300000I243750J0D01*
G01*
X56681250Y-132300000D01*
G75*
G02*
X56925000Y-132543750I0J-243750D01*
G01*
G37*
%TD*%
%TO.C,C3*%
G36*
G01*
X55087500Y-130543750D02*
X55087500Y-131456250D01*
G75*
G02*
X54843750Y-131700000I-243750J0D01*
G01*
X54356250Y-131700000D01*
G75*
G02*
X54112500Y-131456250I0J243750D01*
G01*
X54112500Y-130543750D01*
G75*
G02*
X54356250Y-130300000I243750J0D01*
G01*
X54843750Y-130300000D01*
G75*
G02*
X55087500Y-130543750I0J-243750D01*
G01*
G37*
G36*
G01*
X56962500Y-130543750D02*
X56962500Y-131456250D01*
G75*
G02*
X56718750Y-131700000I-243750J0D01*
G01*
X56231250Y-131700000D01*
G75*
G02*
X55987500Y-131456250I0J243750D01*
G01*
X55987500Y-130543750D01*
G75*
G02*
X56231250Y-130300000I243750J0D01*
G01*
X56718750Y-130300000D01*
G75*
G02*
X56962500Y-130543750I0J-243750D01*
G01*
G37*
%TD*%
%TO.C,C2*%
G36*
G01*
X48368750Y-134230000D02*
X49281250Y-134230000D01*
G75*
G02*
X49525000Y-134473750I0J-243750D01*
G01*
X49525000Y-134961250D01*
G75*
G02*
X49281250Y-135205000I-243750J0D01*
G01*
X48368750Y-135205000D01*
G75*
G02*
X48125000Y-134961250I0J243750D01*
G01*
X48125000Y-134473750D01*
G75*
G02*
X48368750Y-134230000I243750J0D01*
G01*
G37*
G36*
G01*
X48368750Y-132355000D02*
X49281250Y-132355000D01*
G75*
G02*
X49525000Y-132598750I0J-243750D01*
G01*
X49525000Y-133086250D01*
G75*
G02*
X49281250Y-133330000I-243750J0D01*
G01*
X48368750Y-133330000D01*
G75*
G02*
X48125000Y-133086250I0J243750D01*
G01*
X48125000Y-132598750D01*
G75*
G02*
X48368750Y-132355000I243750J0D01*
G01*
G37*
%TD*%
%TO.C,C1*%
G36*
G01*
X43281250Y-133330000D02*
X42368750Y-133330000D01*
G75*
G02*
X42125000Y-133086250I0J243750D01*
G01*
X42125000Y-132598750D01*
G75*
G02*
X42368750Y-132355000I243750J0D01*
G01*
X43281250Y-132355000D01*
G75*
G02*
X43525000Y-132598750I0J-243750D01*
G01*
X43525000Y-133086250D01*
G75*
G02*
X43281250Y-133330000I-243750J0D01*
G01*
G37*
G36*
G01*
X43281250Y-135205000D02*
X42368750Y-135205000D01*
G75*
G02*
X42125000Y-134961250I0J243750D01*
G01*
X42125000Y-134473750D01*
G75*
G02*
X42368750Y-134230000I243750J0D01*
G01*
X43281250Y-134230000D01*
G75*
G02*
X43525000Y-134473750I0J-243750D01*
G01*
X43525000Y-134961250D01*
G75*
G02*
X43281250Y-135205000I-243750J0D01*
G01*
G37*
%TD*%
M02*
