G04 #@! TF.GenerationSoftware,KiCad,Pcbnew,5.1.6-c6e7f7d~86~ubuntu20.04.1*
G04 #@! TF.CreationDate,2020-09-07T13:20:28+02:00*
G04 #@! TF.ProjectId,Power,506f7765-722e-46b6-9963-61645f706362,rev?*
G04 #@! TF.SameCoordinates,Original*
G04 #@! TF.FileFunction,Paste,Top*
G04 #@! TF.FilePolarity,Positive*
%FSLAX46Y46*%
G04 Gerber Fmt 4.6, Leading zero omitted, Abs format (unit mm)*
G04 Created by KiCad (PCBNEW 5.1.6-c6e7f7d~86~ubuntu20.04.1) date 2020-09-07 13:20:28*
%MOMM*%
%LPD*%
G01*
G04 APERTURE LIST*
%ADD10R,1.200000X0.900000*%
%ADD11R,3.050000X2.750000*%
%ADD12R,2.200000X1.200000*%
%ADD13R,5.000000X5.000000*%
G04 APERTURE END LIST*
G36*
G01*
X78043750Y-94012500D02*
X78956250Y-94012500D01*
G75*
G02*
X79200000Y-94256250I0J-243750D01*
G01*
X79200000Y-94743750D01*
G75*
G02*
X78956250Y-94987500I-243750J0D01*
G01*
X78043750Y-94987500D01*
G75*
G02*
X77800000Y-94743750I0J243750D01*
G01*
X77800000Y-94256250D01*
G75*
G02*
X78043750Y-94012500I243750J0D01*
G01*
G37*
G36*
G01*
X78043750Y-92137500D02*
X78956250Y-92137500D01*
G75*
G02*
X79200000Y-92381250I0J-243750D01*
G01*
X79200000Y-92868750D01*
G75*
G02*
X78956250Y-93112500I-243750J0D01*
G01*
X78043750Y-93112500D01*
G75*
G02*
X77800000Y-92868750I0J243750D01*
G01*
X77800000Y-92381250D01*
G75*
G02*
X78043750Y-92137500I243750J0D01*
G01*
G37*
G36*
G01*
X76550000Y-89043750D02*
X76550000Y-89956250D01*
G75*
G02*
X76306250Y-90200000I-243750J0D01*
G01*
X75818750Y-90200000D01*
G75*
G02*
X75575000Y-89956250I0J243750D01*
G01*
X75575000Y-89043750D01*
G75*
G02*
X75818750Y-88800000I243750J0D01*
G01*
X76306250Y-88800000D01*
G75*
G02*
X76550000Y-89043750I0J-243750D01*
G01*
G37*
G36*
G01*
X78425000Y-89043750D02*
X78425000Y-89956250D01*
G75*
G02*
X78181250Y-90200000I-243750J0D01*
G01*
X77693750Y-90200000D01*
G75*
G02*
X77450000Y-89956250I0J243750D01*
G01*
X77450000Y-89043750D01*
G75*
G02*
X77693750Y-88800000I243750J0D01*
G01*
X78181250Y-88800000D01*
G75*
G02*
X78425000Y-89043750I0J-243750D01*
G01*
G37*
G36*
G01*
X101043750Y-52450000D02*
X101956250Y-52450000D01*
G75*
G02*
X102200000Y-52693750I0J-243750D01*
G01*
X102200000Y-53181250D01*
G75*
G02*
X101956250Y-53425000I-243750J0D01*
G01*
X101043750Y-53425000D01*
G75*
G02*
X100800000Y-53181250I0J243750D01*
G01*
X100800000Y-52693750D01*
G75*
G02*
X101043750Y-52450000I243750J0D01*
G01*
G37*
G36*
G01*
X101043750Y-50575000D02*
X101956250Y-50575000D01*
G75*
G02*
X102200000Y-50818750I0J-243750D01*
G01*
X102200000Y-51306250D01*
G75*
G02*
X101956250Y-51550000I-243750J0D01*
G01*
X101043750Y-51550000D01*
G75*
G02*
X100800000Y-51306250I0J243750D01*
G01*
X100800000Y-50818750D01*
G75*
G02*
X101043750Y-50575000I243750J0D01*
G01*
G37*
G36*
G01*
X96512500Y-53956250D02*
X96512500Y-53043750D01*
G75*
G02*
X96756250Y-52800000I243750J0D01*
G01*
X97243750Y-52800000D01*
G75*
G02*
X97487500Y-53043750I0J-243750D01*
G01*
X97487500Y-53956250D01*
G75*
G02*
X97243750Y-54200000I-243750J0D01*
G01*
X96756250Y-54200000D01*
G75*
G02*
X96512500Y-53956250I0J243750D01*
G01*
G37*
G36*
G01*
X94637500Y-53956250D02*
X94637500Y-53043750D01*
G75*
G02*
X94881250Y-52800000I243750J0D01*
G01*
X95368750Y-52800000D01*
G75*
G02*
X95612500Y-53043750I0J-243750D01*
G01*
X95612500Y-53956250D01*
G75*
G02*
X95368750Y-54200000I-243750J0D01*
G01*
X94881250Y-54200000D01*
G75*
G02*
X94637500Y-53956250I0J243750D01*
G01*
G37*
G36*
G01*
X67075000Y-51465000D02*
X64925000Y-51465000D01*
G75*
G02*
X64675000Y-51215000I0J250000D01*
G01*
X64675000Y-50465000D01*
G75*
G02*
X64925000Y-50215000I250000J0D01*
G01*
X67075000Y-50215000D01*
G75*
G02*
X67325000Y-50465000I0J-250000D01*
G01*
X67325000Y-51215000D01*
G75*
G02*
X67075000Y-51465000I-250000J0D01*
G01*
G37*
G36*
G01*
X67075000Y-54265000D02*
X64925000Y-54265000D01*
G75*
G02*
X64675000Y-54015000I0J250000D01*
G01*
X64675000Y-53265000D01*
G75*
G02*
X64925000Y-53015000I250000J0D01*
G01*
X67075000Y-53015000D01*
G75*
G02*
X67325000Y-53265000I0J-250000D01*
G01*
X67325000Y-54015000D01*
G75*
G02*
X67075000Y-54265000I-250000J0D01*
G01*
G37*
G36*
G01*
X126043750Y-94950000D02*
X126956250Y-94950000D01*
G75*
G02*
X127200000Y-95193750I0J-243750D01*
G01*
X127200000Y-95681250D01*
G75*
G02*
X126956250Y-95925000I-243750J0D01*
G01*
X126043750Y-95925000D01*
G75*
G02*
X125800000Y-95681250I0J243750D01*
G01*
X125800000Y-95193750D01*
G75*
G02*
X126043750Y-94950000I243750J0D01*
G01*
G37*
G36*
G01*
X126043750Y-93075000D02*
X126956250Y-93075000D01*
G75*
G02*
X127200000Y-93318750I0J-243750D01*
G01*
X127200000Y-93806250D01*
G75*
G02*
X126956250Y-94050000I-243750J0D01*
G01*
X126043750Y-94050000D01*
G75*
G02*
X125800000Y-93806250I0J243750D01*
G01*
X125800000Y-93318750D01*
G75*
G02*
X126043750Y-93075000I243750J0D01*
G01*
G37*
G36*
G01*
X126512500Y-89956250D02*
X126512500Y-89043750D01*
G75*
G02*
X126756250Y-88800000I243750J0D01*
G01*
X127243750Y-88800000D01*
G75*
G02*
X127487500Y-89043750I0J-243750D01*
G01*
X127487500Y-89956250D01*
G75*
G02*
X127243750Y-90200000I-243750J0D01*
G01*
X126756250Y-90200000D01*
G75*
G02*
X126512500Y-89956250I0J243750D01*
G01*
G37*
G36*
G01*
X124637500Y-89956250D02*
X124637500Y-89043750D01*
G75*
G02*
X124881250Y-88800000I243750J0D01*
G01*
X125368750Y-88800000D01*
G75*
G02*
X125612500Y-89043750I0J-243750D01*
G01*
X125612500Y-89956250D01*
G75*
G02*
X125368750Y-90200000I-243750J0D01*
G01*
X124881250Y-90200000D01*
G75*
G02*
X124637500Y-89956250I0J243750D01*
G01*
G37*
D10*
X65755000Y-64515000D03*
X65755000Y-61215000D03*
X51785000Y-64515000D03*
X51785000Y-61215000D03*
X90845000Y-84710000D03*
X90845000Y-88010000D03*
X106410000Y-85345000D03*
X106410000Y-88645000D03*
D11*
X68085000Y-80535000D03*
X71435000Y-77485000D03*
X68085000Y-77485000D03*
X71435000Y-80535000D03*
D12*
X63460000Y-81290000D03*
X63460000Y-76730000D03*
D11*
X91015000Y-67690000D03*
X87665000Y-70740000D03*
X91015000Y-70740000D03*
X87665000Y-67690000D03*
D12*
X95640000Y-66935000D03*
X95640000Y-71495000D03*
D11*
X54750000Y-80535000D03*
X58100000Y-77485000D03*
X54750000Y-77485000D03*
X58100000Y-80535000D03*
D12*
X50125000Y-81290000D03*
X50125000Y-76730000D03*
D11*
X103080000Y-67690000D03*
X99730000Y-70740000D03*
X103080000Y-70740000D03*
X99730000Y-67690000D03*
D12*
X107705000Y-66935000D03*
X107705000Y-71495000D03*
D13*
X60365000Y-89045000D03*
X51365000Y-89045000D03*
X55865000Y-106045000D03*
X111000000Y-104500000D03*
X102000000Y-104500000D03*
X106500000Y-121500000D03*
D11*
X68085000Y-70740000D03*
X71435000Y-67690000D03*
X68085000Y-67690000D03*
X71435000Y-70740000D03*
D12*
X63460000Y-71495000D03*
X63460000Y-66935000D03*
D11*
X54750000Y-70740000D03*
X58100000Y-67690000D03*
X54750000Y-67690000D03*
X58100000Y-70740000D03*
D12*
X50125000Y-71495000D03*
X50125000Y-66935000D03*
D11*
X91055000Y-77610000D03*
X87705000Y-80660000D03*
X91055000Y-80660000D03*
X87705000Y-77610000D03*
D12*
X95680000Y-76855000D03*
X95680000Y-81415000D03*
D11*
X103205000Y-77610000D03*
X99855000Y-80660000D03*
X103205000Y-80660000D03*
X99855000Y-77610000D03*
D12*
X107830000Y-76855000D03*
X107830000Y-81415000D03*
G36*
G01*
X62758750Y-62377500D02*
X63671250Y-62377500D01*
G75*
G02*
X63915000Y-62621250I0J-243750D01*
G01*
X63915000Y-63108750D01*
G75*
G02*
X63671250Y-63352500I-243750J0D01*
G01*
X62758750Y-63352500D01*
G75*
G02*
X62515000Y-63108750I0J243750D01*
G01*
X62515000Y-62621250D01*
G75*
G02*
X62758750Y-62377500I243750J0D01*
G01*
G37*
G36*
G01*
X62758750Y-60502500D02*
X63671250Y-60502500D01*
G75*
G02*
X63915000Y-60746250I0J-243750D01*
G01*
X63915000Y-61233750D01*
G75*
G02*
X63671250Y-61477500I-243750J0D01*
G01*
X62758750Y-61477500D01*
G75*
G02*
X62515000Y-61233750I0J243750D01*
G01*
X62515000Y-60746250D01*
G75*
G02*
X62758750Y-60502500I243750J0D01*
G01*
G37*
G36*
G01*
X93841250Y-87512500D02*
X92928750Y-87512500D01*
G75*
G02*
X92685000Y-87268750I0J243750D01*
G01*
X92685000Y-86781250D01*
G75*
G02*
X92928750Y-86537500I243750J0D01*
G01*
X93841250Y-86537500D01*
G75*
G02*
X94085000Y-86781250I0J-243750D01*
G01*
X94085000Y-87268750D01*
G75*
G02*
X93841250Y-87512500I-243750J0D01*
G01*
G37*
G36*
G01*
X93841250Y-89387500D02*
X92928750Y-89387500D01*
G75*
G02*
X92685000Y-89143750I0J243750D01*
G01*
X92685000Y-88656250D01*
G75*
G02*
X92928750Y-88412500I243750J0D01*
G01*
X93841250Y-88412500D01*
G75*
G02*
X94085000Y-88656250I0J-243750D01*
G01*
X94085000Y-89143750D01*
G75*
G02*
X93841250Y-89387500I-243750J0D01*
G01*
G37*
G36*
G01*
X68956250Y-63112500D02*
X68043750Y-63112500D01*
G75*
G02*
X67800000Y-62868750I0J243750D01*
G01*
X67800000Y-62381250D01*
G75*
G02*
X68043750Y-62137500I243750J0D01*
G01*
X68956250Y-62137500D01*
G75*
G02*
X69200000Y-62381250I0J-243750D01*
G01*
X69200000Y-62868750D01*
G75*
G02*
X68956250Y-63112500I-243750J0D01*
G01*
G37*
G36*
G01*
X68956250Y-64987500D02*
X68043750Y-64987500D01*
G75*
G02*
X67800000Y-64743750I0J243750D01*
G01*
X67800000Y-64256250D01*
G75*
G02*
X68043750Y-64012500I243750J0D01*
G01*
X68956250Y-64012500D01*
G75*
G02*
X69200000Y-64256250I0J-243750D01*
G01*
X69200000Y-64743750D01*
G75*
G02*
X68956250Y-64987500I-243750J0D01*
G01*
G37*
G36*
G01*
X54781250Y-63050000D02*
X53868750Y-63050000D01*
G75*
G02*
X53625000Y-62806250I0J243750D01*
G01*
X53625000Y-62318750D01*
G75*
G02*
X53868750Y-62075000I243750J0D01*
G01*
X54781250Y-62075000D01*
G75*
G02*
X55025000Y-62318750I0J-243750D01*
G01*
X55025000Y-62806250D01*
G75*
G02*
X54781250Y-63050000I-243750J0D01*
G01*
G37*
G36*
G01*
X54781250Y-64925000D02*
X53868750Y-64925000D01*
G75*
G02*
X53625000Y-64681250I0J243750D01*
G01*
X53625000Y-64193750D01*
G75*
G02*
X53868750Y-63950000I243750J0D01*
G01*
X54781250Y-63950000D01*
G75*
G02*
X55025000Y-64193750I0J-243750D01*
G01*
X55025000Y-64681250D01*
G75*
G02*
X54781250Y-64925000I-243750J0D01*
G01*
G37*
G36*
G01*
X88761250Y-85275000D02*
X87848750Y-85275000D01*
G75*
G02*
X87605000Y-85031250I0J243750D01*
G01*
X87605000Y-84543750D01*
G75*
G02*
X87848750Y-84300000I243750J0D01*
G01*
X88761250Y-84300000D01*
G75*
G02*
X89005000Y-84543750I0J-243750D01*
G01*
X89005000Y-85031250D01*
G75*
G02*
X88761250Y-85275000I-243750J0D01*
G01*
G37*
G36*
G01*
X88761250Y-87150000D02*
X87848750Y-87150000D01*
G75*
G02*
X87605000Y-86906250I0J243750D01*
G01*
X87605000Y-86418750D01*
G75*
G02*
X87848750Y-86175000I243750J0D01*
G01*
X88761250Y-86175000D01*
G75*
G02*
X89005000Y-86418750I0J-243750D01*
G01*
X89005000Y-86906250D01*
G75*
G02*
X88761250Y-87150000I-243750J0D01*
G01*
G37*
G36*
G01*
X104326250Y-85577500D02*
X103413750Y-85577500D01*
G75*
G02*
X103170000Y-85333750I0J243750D01*
G01*
X103170000Y-84846250D01*
G75*
G02*
X103413750Y-84602500I243750J0D01*
G01*
X104326250Y-84602500D01*
G75*
G02*
X104570000Y-84846250I0J-243750D01*
G01*
X104570000Y-85333750D01*
G75*
G02*
X104326250Y-85577500I-243750J0D01*
G01*
G37*
G36*
G01*
X104326250Y-87452500D02*
X103413750Y-87452500D01*
G75*
G02*
X103170000Y-87208750I0J243750D01*
G01*
X103170000Y-86721250D01*
G75*
G02*
X103413750Y-86477500I243750J0D01*
G01*
X104326250Y-86477500D01*
G75*
G02*
X104570000Y-86721250I0J-243750D01*
G01*
X104570000Y-87208750D01*
G75*
G02*
X104326250Y-87452500I-243750J0D01*
G01*
G37*
G36*
G01*
X48788750Y-62045000D02*
X49701250Y-62045000D01*
G75*
G02*
X49945000Y-62288750I0J-243750D01*
G01*
X49945000Y-62776250D01*
G75*
G02*
X49701250Y-63020000I-243750J0D01*
G01*
X48788750Y-63020000D01*
G75*
G02*
X48545000Y-62776250I0J243750D01*
G01*
X48545000Y-62288750D01*
G75*
G02*
X48788750Y-62045000I243750J0D01*
G01*
G37*
G36*
G01*
X48788750Y-60170000D02*
X49701250Y-60170000D01*
G75*
G02*
X49945000Y-60413750I0J-243750D01*
G01*
X49945000Y-60901250D01*
G75*
G02*
X49701250Y-61145000I-243750J0D01*
G01*
X48788750Y-61145000D01*
G75*
G02*
X48545000Y-60901250I0J243750D01*
G01*
X48545000Y-60413750D01*
G75*
G02*
X48788750Y-60170000I243750J0D01*
G01*
G37*
G36*
G01*
X109406250Y-87512500D02*
X108493750Y-87512500D01*
G75*
G02*
X108250000Y-87268750I0J243750D01*
G01*
X108250000Y-86781250D01*
G75*
G02*
X108493750Y-86537500I243750J0D01*
G01*
X109406250Y-86537500D01*
G75*
G02*
X109650000Y-86781250I0J-243750D01*
G01*
X109650000Y-87268750D01*
G75*
G02*
X109406250Y-87512500I-243750J0D01*
G01*
G37*
G36*
G01*
X109406250Y-89387500D02*
X108493750Y-89387500D01*
G75*
G02*
X108250000Y-89143750I0J243750D01*
G01*
X108250000Y-88656250D01*
G75*
G02*
X108493750Y-88412500I243750J0D01*
G01*
X109406250Y-88412500D01*
G75*
G02*
X109650000Y-88656250I0J-243750D01*
G01*
X109650000Y-89143750D01*
G75*
G02*
X109406250Y-89387500I-243750J0D01*
G01*
G37*
G36*
G01*
X62697500Y-65226250D02*
X62697500Y-64313750D01*
G75*
G02*
X62941250Y-64070000I243750J0D01*
G01*
X63428750Y-64070000D01*
G75*
G02*
X63672500Y-64313750I0J-243750D01*
G01*
X63672500Y-65226250D01*
G75*
G02*
X63428750Y-65470000I-243750J0D01*
G01*
X62941250Y-65470000D01*
G75*
G02*
X62697500Y-65226250I0J243750D01*
G01*
G37*
G36*
G01*
X60822500Y-65226250D02*
X60822500Y-64313750D01*
G75*
G02*
X61066250Y-64070000I243750J0D01*
G01*
X61553750Y-64070000D01*
G75*
G02*
X61797500Y-64313750I0J-243750D01*
G01*
X61797500Y-65226250D01*
G75*
G02*
X61553750Y-65470000I-243750J0D01*
G01*
X61066250Y-65470000D01*
G75*
G02*
X60822500Y-65226250I0J243750D01*
G01*
G37*
G36*
G01*
X93902500Y-84633750D02*
X93902500Y-85546250D01*
G75*
G02*
X93658750Y-85790000I-243750J0D01*
G01*
X93171250Y-85790000D01*
G75*
G02*
X92927500Y-85546250I0J243750D01*
G01*
X92927500Y-84633750D01*
G75*
G02*
X93171250Y-84390000I243750J0D01*
G01*
X93658750Y-84390000D01*
G75*
G02*
X93902500Y-84633750I0J-243750D01*
G01*
G37*
G36*
G01*
X95777500Y-84633750D02*
X95777500Y-85546250D01*
G75*
G02*
X95533750Y-85790000I-243750J0D01*
G01*
X95046250Y-85790000D01*
G75*
G02*
X94802500Y-85546250I0J243750D01*
G01*
X94802500Y-84633750D01*
G75*
G02*
X95046250Y-84390000I243750J0D01*
G01*
X95533750Y-84390000D01*
G75*
G02*
X95777500Y-84633750I0J-243750D01*
G01*
G37*
G36*
G01*
X48727500Y-65226250D02*
X48727500Y-64313750D01*
G75*
G02*
X48971250Y-64070000I243750J0D01*
G01*
X49458750Y-64070000D01*
G75*
G02*
X49702500Y-64313750I0J-243750D01*
G01*
X49702500Y-65226250D01*
G75*
G02*
X49458750Y-65470000I-243750J0D01*
G01*
X48971250Y-65470000D01*
G75*
G02*
X48727500Y-65226250I0J243750D01*
G01*
G37*
G36*
G01*
X46852500Y-65226250D02*
X46852500Y-64313750D01*
G75*
G02*
X47096250Y-64070000I243750J0D01*
G01*
X47583750Y-64070000D01*
G75*
G02*
X47827500Y-64313750I0J-243750D01*
G01*
X47827500Y-65226250D01*
G75*
G02*
X47583750Y-65470000I-243750J0D01*
G01*
X47096250Y-65470000D01*
G75*
G02*
X46852500Y-65226250I0J243750D01*
G01*
G37*
G36*
G01*
X109437500Y-84633750D02*
X109437500Y-85546250D01*
G75*
G02*
X109193750Y-85790000I-243750J0D01*
G01*
X108706250Y-85790000D01*
G75*
G02*
X108462500Y-85546250I0J243750D01*
G01*
X108462500Y-84633750D01*
G75*
G02*
X108706250Y-84390000I243750J0D01*
G01*
X109193750Y-84390000D01*
G75*
G02*
X109437500Y-84633750I0J-243750D01*
G01*
G37*
G36*
G01*
X111312500Y-84633750D02*
X111312500Y-85546250D01*
G75*
G02*
X111068750Y-85790000I-243750J0D01*
G01*
X110581250Y-85790000D01*
G75*
G02*
X110337500Y-85546250I0J243750D01*
G01*
X110337500Y-84633750D01*
G75*
G02*
X110581250Y-84390000I243750J0D01*
G01*
X111068750Y-84390000D01*
G75*
G02*
X111312500Y-84633750I0J-243750D01*
G01*
G37*
G36*
G01*
X99620000Y-49975000D02*
X99920000Y-49975000D01*
G75*
G02*
X100070000Y-50125000I0J-150000D01*
G01*
X100070000Y-51775000D01*
G75*
G02*
X99920000Y-51925000I-150000J0D01*
G01*
X99620000Y-51925000D01*
G75*
G02*
X99470000Y-51775000I0J150000D01*
G01*
X99470000Y-50125000D01*
G75*
G02*
X99620000Y-49975000I150000J0D01*
G01*
G37*
G36*
G01*
X98350000Y-49975000D02*
X98650000Y-49975000D01*
G75*
G02*
X98800000Y-50125000I0J-150000D01*
G01*
X98800000Y-51775000D01*
G75*
G02*
X98650000Y-51925000I-150000J0D01*
G01*
X98350000Y-51925000D01*
G75*
G02*
X98200000Y-51775000I0J150000D01*
G01*
X98200000Y-50125000D01*
G75*
G02*
X98350000Y-49975000I150000J0D01*
G01*
G37*
G36*
G01*
X97080000Y-49975000D02*
X97380000Y-49975000D01*
G75*
G02*
X97530000Y-50125000I0J-150000D01*
G01*
X97530000Y-51775000D01*
G75*
G02*
X97380000Y-51925000I-150000J0D01*
G01*
X97080000Y-51925000D01*
G75*
G02*
X96930000Y-51775000I0J150000D01*
G01*
X96930000Y-50125000D01*
G75*
G02*
X97080000Y-49975000I150000J0D01*
G01*
G37*
G36*
G01*
X95810000Y-49975000D02*
X96110000Y-49975000D01*
G75*
G02*
X96260000Y-50125000I0J-150000D01*
G01*
X96260000Y-51775000D01*
G75*
G02*
X96110000Y-51925000I-150000J0D01*
G01*
X95810000Y-51925000D01*
G75*
G02*
X95660000Y-51775000I0J150000D01*
G01*
X95660000Y-50125000D01*
G75*
G02*
X95810000Y-49975000I150000J0D01*
G01*
G37*
G36*
G01*
X95810000Y-45025000D02*
X96110000Y-45025000D01*
G75*
G02*
X96260000Y-45175000I0J-150000D01*
G01*
X96260000Y-46825000D01*
G75*
G02*
X96110000Y-46975000I-150000J0D01*
G01*
X95810000Y-46975000D01*
G75*
G02*
X95660000Y-46825000I0J150000D01*
G01*
X95660000Y-45175000D01*
G75*
G02*
X95810000Y-45025000I150000J0D01*
G01*
G37*
G36*
G01*
X97080000Y-45025000D02*
X97380000Y-45025000D01*
G75*
G02*
X97530000Y-45175000I0J-150000D01*
G01*
X97530000Y-46825000D01*
G75*
G02*
X97380000Y-46975000I-150000J0D01*
G01*
X97080000Y-46975000D01*
G75*
G02*
X96930000Y-46825000I0J150000D01*
G01*
X96930000Y-45175000D01*
G75*
G02*
X97080000Y-45025000I150000J0D01*
G01*
G37*
G36*
G01*
X98350000Y-45025000D02*
X98650000Y-45025000D01*
G75*
G02*
X98800000Y-45175000I0J-150000D01*
G01*
X98800000Y-46825000D01*
G75*
G02*
X98650000Y-46975000I-150000J0D01*
G01*
X98350000Y-46975000D01*
G75*
G02*
X98200000Y-46825000I0J150000D01*
G01*
X98200000Y-45175000D01*
G75*
G02*
X98350000Y-45025000I150000J0D01*
G01*
G37*
G36*
G01*
X99620000Y-45025000D02*
X99920000Y-45025000D01*
G75*
G02*
X100070000Y-45175000I0J-150000D01*
G01*
X100070000Y-46825000D01*
G75*
G02*
X99920000Y-46975000I-150000J0D01*
G01*
X99620000Y-46975000D01*
G75*
G02*
X99470000Y-46825000I0J150000D01*
G01*
X99470000Y-45175000D01*
G75*
G02*
X99620000Y-45025000I150000J0D01*
G01*
G37*
G36*
G01*
X75025000Y-91245000D02*
X75025000Y-90945000D01*
G75*
G02*
X75175000Y-90795000I150000J0D01*
G01*
X76825000Y-90795000D01*
G75*
G02*
X76975000Y-90945000I0J-150000D01*
G01*
X76975000Y-91245000D01*
G75*
G02*
X76825000Y-91395000I-150000J0D01*
G01*
X75175000Y-91395000D01*
G75*
G02*
X75025000Y-91245000I0J150000D01*
G01*
G37*
G36*
G01*
X75025000Y-92515000D02*
X75025000Y-92215000D01*
G75*
G02*
X75175000Y-92065000I150000J0D01*
G01*
X76825000Y-92065000D01*
G75*
G02*
X76975000Y-92215000I0J-150000D01*
G01*
X76975000Y-92515000D01*
G75*
G02*
X76825000Y-92665000I-150000J0D01*
G01*
X75175000Y-92665000D01*
G75*
G02*
X75025000Y-92515000I0J150000D01*
G01*
G37*
G36*
G01*
X75025000Y-93785000D02*
X75025000Y-93485000D01*
G75*
G02*
X75175000Y-93335000I150000J0D01*
G01*
X76825000Y-93335000D01*
G75*
G02*
X76975000Y-93485000I0J-150000D01*
G01*
X76975000Y-93785000D01*
G75*
G02*
X76825000Y-93935000I-150000J0D01*
G01*
X75175000Y-93935000D01*
G75*
G02*
X75025000Y-93785000I0J150000D01*
G01*
G37*
G36*
G01*
X75025000Y-95055000D02*
X75025000Y-94755000D01*
G75*
G02*
X75175000Y-94605000I150000J0D01*
G01*
X76825000Y-94605000D01*
G75*
G02*
X76975000Y-94755000I0J-150000D01*
G01*
X76975000Y-95055000D01*
G75*
G02*
X76825000Y-95205000I-150000J0D01*
G01*
X75175000Y-95205000D01*
G75*
G02*
X75025000Y-95055000I0J150000D01*
G01*
G37*
G36*
G01*
X70075000Y-95055000D02*
X70075000Y-94755000D01*
G75*
G02*
X70225000Y-94605000I150000J0D01*
G01*
X71875000Y-94605000D01*
G75*
G02*
X72025000Y-94755000I0J-150000D01*
G01*
X72025000Y-95055000D01*
G75*
G02*
X71875000Y-95205000I-150000J0D01*
G01*
X70225000Y-95205000D01*
G75*
G02*
X70075000Y-95055000I0J150000D01*
G01*
G37*
G36*
G01*
X70075000Y-93785000D02*
X70075000Y-93485000D01*
G75*
G02*
X70225000Y-93335000I150000J0D01*
G01*
X71875000Y-93335000D01*
G75*
G02*
X72025000Y-93485000I0J-150000D01*
G01*
X72025000Y-93785000D01*
G75*
G02*
X71875000Y-93935000I-150000J0D01*
G01*
X70225000Y-93935000D01*
G75*
G02*
X70075000Y-93785000I0J150000D01*
G01*
G37*
G36*
G01*
X70075000Y-92515000D02*
X70075000Y-92215000D01*
G75*
G02*
X70225000Y-92065000I150000J0D01*
G01*
X71875000Y-92065000D01*
G75*
G02*
X72025000Y-92215000I0J-150000D01*
G01*
X72025000Y-92515000D01*
G75*
G02*
X71875000Y-92665000I-150000J0D01*
G01*
X70225000Y-92665000D01*
G75*
G02*
X70075000Y-92515000I0J150000D01*
G01*
G37*
G36*
G01*
X70075000Y-91245000D02*
X70075000Y-90945000D01*
G75*
G02*
X70225000Y-90795000I150000J0D01*
G01*
X71875000Y-90795000D01*
G75*
G02*
X72025000Y-90945000I0J-150000D01*
G01*
X72025000Y-91245000D01*
G75*
G02*
X71875000Y-91395000I-150000J0D01*
G01*
X70225000Y-91395000D01*
G75*
G02*
X70075000Y-91245000I0J150000D01*
G01*
G37*
G36*
G01*
X123935000Y-91450000D02*
X123935000Y-91150000D01*
G75*
G02*
X124085000Y-91000000I150000J0D01*
G01*
X125735000Y-91000000D01*
G75*
G02*
X125885000Y-91150000I0J-150000D01*
G01*
X125885000Y-91450000D01*
G75*
G02*
X125735000Y-91600000I-150000J0D01*
G01*
X124085000Y-91600000D01*
G75*
G02*
X123935000Y-91450000I0J150000D01*
G01*
G37*
G36*
G01*
X123935000Y-92720000D02*
X123935000Y-92420000D01*
G75*
G02*
X124085000Y-92270000I150000J0D01*
G01*
X125735000Y-92270000D01*
G75*
G02*
X125885000Y-92420000I0J-150000D01*
G01*
X125885000Y-92720000D01*
G75*
G02*
X125735000Y-92870000I-150000J0D01*
G01*
X124085000Y-92870000D01*
G75*
G02*
X123935000Y-92720000I0J150000D01*
G01*
G37*
G36*
G01*
X123935000Y-93990000D02*
X123935000Y-93690000D01*
G75*
G02*
X124085000Y-93540000I150000J0D01*
G01*
X125735000Y-93540000D01*
G75*
G02*
X125885000Y-93690000I0J-150000D01*
G01*
X125885000Y-93990000D01*
G75*
G02*
X125735000Y-94140000I-150000J0D01*
G01*
X124085000Y-94140000D01*
G75*
G02*
X123935000Y-93990000I0J150000D01*
G01*
G37*
G36*
G01*
X123935000Y-95260000D02*
X123935000Y-94960000D01*
G75*
G02*
X124085000Y-94810000I150000J0D01*
G01*
X125735000Y-94810000D01*
G75*
G02*
X125885000Y-94960000I0J-150000D01*
G01*
X125885000Y-95260000D01*
G75*
G02*
X125735000Y-95410000I-150000J0D01*
G01*
X124085000Y-95410000D01*
G75*
G02*
X123935000Y-95260000I0J150000D01*
G01*
G37*
G36*
G01*
X118985000Y-95260000D02*
X118985000Y-94960000D01*
G75*
G02*
X119135000Y-94810000I150000J0D01*
G01*
X120785000Y-94810000D01*
G75*
G02*
X120935000Y-94960000I0J-150000D01*
G01*
X120935000Y-95260000D01*
G75*
G02*
X120785000Y-95410000I-150000J0D01*
G01*
X119135000Y-95410000D01*
G75*
G02*
X118985000Y-95260000I0J150000D01*
G01*
G37*
G36*
G01*
X118985000Y-93990000D02*
X118985000Y-93690000D01*
G75*
G02*
X119135000Y-93540000I150000J0D01*
G01*
X120785000Y-93540000D01*
G75*
G02*
X120935000Y-93690000I0J-150000D01*
G01*
X120935000Y-93990000D01*
G75*
G02*
X120785000Y-94140000I-150000J0D01*
G01*
X119135000Y-94140000D01*
G75*
G02*
X118985000Y-93990000I0J150000D01*
G01*
G37*
G36*
G01*
X118985000Y-92720000D02*
X118985000Y-92420000D01*
G75*
G02*
X119135000Y-92270000I150000J0D01*
G01*
X120785000Y-92270000D01*
G75*
G02*
X120935000Y-92420000I0J-150000D01*
G01*
X120935000Y-92720000D01*
G75*
G02*
X120785000Y-92870000I-150000J0D01*
G01*
X119135000Y-92870000D01*
G75*
G02*
X118985000Y-92720000I0J150000D01*
G01*
G37*
G36*
G01*
X118985000Y-91450000D02*
X118985000Y-91150000D01*
G75*
G02*
X119135000Y-91000000I150000J0D01*
G01*
X120785000Y-91000000D01*
G75*
G02*
X120935000Y-91150000I0J-150000D01*
G01*
X120935000Y-91450000D01*
G75*
G02*
X120785000Y-91600000I-150000J0D01*
G01*
X119135000Y-91600000D01*
G75*
G02*
X118985000Y-91450000I0J150000D01*
G01*
G37*
D11*
X118850000Y-80500000D03*
X115500000Y-83550000D03*
X118850000Y-83550000D03*
X115500000Y-80500000D03*
D12*
X123475000Y-79745000D03*
X123475000Y-84305000D03*
G36*
G01*
X79012500Y-100956250D02*
X79012500Y-100043750D01*
G75*
G02*
X79256250Y-99800000I243750J0D01*
G01*
X79743750Y-99800000D01*
G75*
G02*
X79987500Y-100043750I0J-243750D01*
G01*
X79987500Y-100956250D01*
G75*
G02*
X79743750Y-101200000I-243750J0D01*
G01*
X79256250Y-101200000D01*
G75*
G02*
X79012500Y-100956250I0J243750D01*
G01*
G37*
G36*
G01*
X77137500Y-100956250D02*
X77137500Y-100043750D01*
G75*
G02*
X77381250Y-99800000I243750J0D01*
G01*
X77868750Y-99800000D01*
G75*
G02*
X78112500Y-100043750I0J-243750D01*
G01*
X78112500Y-100956250D01*
G75*
G02*
X77868750Y-101200000I-243750J0D01*
G01*
X77381250Y-101200000D01*
G75*
G02*
X77137500Y-100956250I0J243750D01*
G01*
G37*
G36*
G01*
X82387500Y-100956250D02*
X82387500Y-100043750D01*
G75*
G02*
X82631250Y-99800000I243750J0D01*
G01*
X83118750Y-99800000D01*
G75*
G02*
X83362500Y-100043750I0J-243750D01*
G01*
X83362500Y-100956250D01*
G75*
G02*
X83118750Y-101200000I-243750J0D01*
G01*
X82631250Y-101200000D01*
G75*
G02*
X82387500Y-100956250I0J243750D01*
G01*
G37*
G36*
G01*
X80512500Y-100956250D02*
X80512500Y-100043750D01*
G75*
G02*
X80756250Y-99800000I243750J0D01*
G01*
X81243750Y-99800000D01*
G75*
G02*
X81487500Y-100043750I0J-243750D01*
G01*
X81487500Y-100956250D01*
G75*
G02*
X81243750Y-101200000I-243750J0D01*
G01*
X80756250Y-101200000D01*
G75*
G02*
X80512500Y-100956250I0J243750D01*
G01*
G37*
G36*
G01*
X125012500Y-100956250D02*
X125012500Y-100043750D01*
G75*
G02*
X125256250Y-99800000I243750J0D01*
G01*
X125743750Y-99800000D01*
G75*
G02*
X125987500Y-100043750I0J-243750D01*
G01*
X125987500Y-100956250D01*
G75*
G02*
X125743750Y-101200000I-243750J0D01*
G01*
X125256250Y-101200000D01*
G75*
G02*
X125012500Y-100956250I0J243750D01*
G01*
G37*
G36*
G01*
X123137500Y-100956250D02*
X123137500Y-100043750D01*
G75*
G02*
X123381250Y-99800000I243750J0D01*
G01*
X123868750Y-99800000D01*
G75*
G02*
X124112500Y-100043750I0J-243750D01*
G01*
X124112500Y-100956250D01*
G75*
G02*
X123868750Y-101200000I-243750J0D01*
G01*
X123381250Y-101200000D01*
G75*
G02*
X123137500Y-100956250I0J243750D01*
G01*
G37*
G36*
G01*
X128887500Y-100956250D02*
X128887500Y-100043750D01*
G75*
G02*
X129131250Y-99800000I243750J0D01*
G01*
X129618750Y-99800000D01*
G75*
G02*
X129862500Y-100043750I0J-243750D01*
G01*
X129862500Y-100956250D01*
G75*
G02*
X129618750Y-101200000I-243750J0D01*
G01*
X129131250Y-101200000D01*
G75*
G02*
X128887500Y-100956250I0J243750D01*
G01*
G37*
G36*
G01*
X127012500Y-100956250D02*
X127012500Y-100043750D01*
G75*
G02*
X127256250Y-99800000I243750J0D01*
G01*
X127743750Y-99800000D01*
G75*
G02*
X127987500Y-100043750I0J-243750D01*
G01*
X127987500Y-100956250D01*
G75*
G02*
X127743750Y-101200000I-243750J0D01*
G01*
X127256250Y-101200000D01*
G75*
G02*
X127012500Y-100956250I0J243750D01*
G01*
G37*
G36*
G01*
X110043750Y-47450000D02*
X110956250Y-47450000D01*
G75*
G02*
X111200000Y-47693750I0J-243750D01*
G01*
X111200000Y-48181250D01*
G75*
G02*
X110956250Y-48425000I-243750J0D01*
G01*
X110043750Y-48425000D01*
G75*
G02*
X109800000Y-48181250I0J243750D01*
G01*
X109800000Y-47693750D01*
G75*
G02*
X110043750Y-47450000I243750J0D01*
G01*
G37*
G36*
G01*
X110043750Y-45575000D02*
X110956250Y-45575000D01*
G75*
G02*
X111200000Y-45818750I0J-243750D01*
G01*
X111200000Y-46306250D01*
G75*
G02*
X110956250Y-46550000I-243750J0D01*
G01*
X110043750Y-46550000D01*
G75*
G02*
X109800000Y-46306250I0J243750D01*
G01*
X109800000Y-45818750D01*
G75*
G02*
X110043750Y-45575000I243750J0D01*
G01*
G37*
G36*
G01*
X110043750Y-51387500D02*
X110956250Y-51387500D01*
G75*
G02*
X111200000Y-51631250I0J-243750D01*
G01*
X111200000Y-52118750D01*
G75*
G02*
X110956250Y-52362500I-243750J0D01*
G01*
X110043750Y-52362500D01*
G75*
G02*
X109800000Y-52118750I0J243750D01*
G01*
X109800000Y-51631250D01*
G75*
G02*
X110043750Y-51387500I243750J0D01*
G01*
G37*
G36*
G01*
X110043750Y-49512500D02*
X110956250Y-49512500D01*
G75*
G02*
X111200000Y-49756250I0J-243750D01*
G01*
X111200000Y-50243750D01*
G75*
G02*
X110956250Y-50487500I-243750J0D01*
G01*
X110043750Y-50487500D01*
G75*
G02*
X109800000Y-50243750I0J243750D01*
G01*
X109800000Y-49756250D01*
G75*
G02*
X110043750Y-49512500I243750J0D01*
G01*
G37*
G36*
G01*
X63706250Y-51487500D02*
X62793750Y-51487500D01*
G75*
G02*
X62550000Y-51243750I0J243750D01*
G01*
X62550000Y-50756250D01*
G75*
G02*
X62793750Y-50512500I243750J0D01*
G01*
X63706250Y-50512500D01*
G75*
G02*
X63950000Y-50756250I0J-243750D01*
G01*
X63950000Y-51243750D01*
G75*
G02*
X63706250Y-51487500I-243750J0D01*
G01*
G37*
G36*
G01*
X63706250Y-53362500D02*
X62793750Y-53362500D01*
G75*
G02*
X62550000Y-53118750I0J243750D01*
G01*
X62550000Y-52631250D01*
G75*
G02*
X62793750Y-52387500I243750J0D01*
G01*
X63706250Y-52387500D01*
G75*
G02*
X63950000Y-52631250I0J-243750D01*
G01*
X63950000Y-53118750D01*
G75*
G02*
X63706250Y-53362500I-243750J0D01*
G01*
G37*
G36*
G01*
X63706250Y-46862500D02*
X62793750Y-46862500D01*
G75*
G02*
X62550000Y-46618750I0J243750D01*
G01*
X62550000Y-46131250D01*
G75*
G02*
X62793750Y-45887500I243750J0D01*
G01*
X63706250Y-45887500D01*
G75*
G02*
X63950000Y-46131250I0J-243750D01*
G01*
X63950000Y-46618750D01*
G75*
G02*
X63706250Y-46862500I-243750J0D01*
G01*
G37*
G36*
G01*
X63706250Y-48737500D02*
X62793750Y-48737500D01*
G75*
G02*
X62550000Y-48493750I0J243750D01*
G01*
X62550000Y-48006250D01*
G75*
G02*
X62793750Y-47762500I243750J0D01*
G01*
X63706250Y-47762500D01*
G75*
G02*
X63950000Y-48006250I0J-243750D01*
G01*
X63950000Y-48493750D01*
G75*
G02*
X63706250Y-48737500I-243750J0D01*
G01*
G37*
G36*
G01*
X72300001Y-109890001D02*
X72300001Y-107740001D01*
G75*
G02*
X72550001Y-107490001I250000J0D01*
G01*
X73300001Y-107490001D01*
G75*
G02*
X73550001Y-107740001I0J-250000D01*
G01*
X73550001Y-109890001D01*
G75*
G02*
X73300001Y-110140001I-250000J0D01*
G01*
X72550001Y-110140001D01*
G75*
G02*
X72300001Y-109890001I0J250000D01*
G01*
G37*
G36*
G01*
X69500001Y-109890001D02*
X69500001Y-107740001D01*
G75*
G02*
X69750001Y-107490001I250000J0D01*
G01*
X70500001Y-107490001D01*
G75*
G02*
X70750001Y-107740001I0J-250000D01*
G01*
X70750001Y-109890001D01*
G75*
G02*
X70500001Y-110140001I-250000J0D01*
G01*
X69750001Y-110140001D01*
G75*
G02*
X69500001Y-109890001I0J250000D01*
G01*
G37*
G36*
G01*
X122919999Y-112425000D02*
X122919999Y-114575000D01*
G75*
G02*
X122669999Y-114825000I-250000J0D01*
G01*
X121919999Y-114825000D01*
G75*
G02*
X121669999Y-114575000I0J250000D01*
G01*
X121669999Y-112425000D01*
G75*
G02*
X121919999Y-112175000I250000J0D01*
G01*
X122669999Y-112175000D01*
G75*
G02*
X122919999Y-112425000I0J-250000D01*
G01*
G37*
G36*
G01*
X125719999Y-112425000D02*
X125719999Y-114575000D01*
G75*
G02*
X125469999Y-114825000I-250000J0D01*
G01*
X124719999Y-114825000D01*
G75*
G02*
X124469999Y-114575000I0J250000D01*
G01*
X124469999Y-112425000D01*
G75*
G02*
X124719999Y-112175000I250000J0D01*
G01*
X125469999Y-112175000D01*
G75*
G02*
X125719999Y-112425000I0J-250000D01*
G01*
G37*
G36*
G01*
X72300001Y-118575000D02*
X72300001Y-116425000D01*
G75*
G02*
X72550001Y-116175000I250000J0D01*
G01*
X73300001Y-116175000D01*
G75*
G02*
X73550001Y-116425000I0J-250000D01*
G01*
X73550001Y-118575000D01*
G75*
G02*
X73300001Y-118825000I-250000J0D01*
G01*
X72550001Y-118825000D01*
G75*
G02*
X72300001Y-118575000I0J250000D01*
G01*
G37*
G36*
G01*
X69500001Y-118575000D02*
X69500001Y-116425000D01*
G75*
G02*
X69750001Y-116175000I250000J0D01*
G01*
X70500001Y-116175000D01*
G75*
G02*
X70750001Y-116425000I0J-250000D01*
G01*
X70750001Y-118575000D01*
G75*
G02*
X70500001Y-118825000I-250000J0D01*
G01*
X69750001Y-118825000D01*
G75*
G02*
X69500001Y-118575000I0J250000D01*
G01*
G37*
G36*
G01*
X122919999Y-108399999D02*
X122919999Y-110549999D01*
G75*
G02*
X122669999Y-110799999I-250000J0D01*
G01*
X121919999Y-110799999D01*
G75*
G02*
X121669999Y-110549999I0J250000D01*
G01*
X121669999Y-108399999D01*
G75*
G02*
X121919999Y-108149999I250000J0D01*
G01*
X122669999Y-108149999D01*
G75*
G02*
X122919999Y-108399999I0J-250000D01*
G01*
G37*
G36*
G01*
X125719999Y-108399999D02*
X125719999Y-110549999D01*
G75*
G02*
X125469999Y-110799999I-250000J0D01*
G01*
X124719999Y-110799999D01*
G75*
G02*
X124469999Y-110549999I0J250000D01*
G01*
X124469999Y-108399999D01*
G75*
G02*
X124719999Y-108149999I250000J0D01*
G01*
X125469999Y-108149999D01*
G75*
G02*
X125719999Y-108399999I0J-250000D01*
G01*
G37*
G36*
G01*
X72300001Y-114075000D02*
X72300001Y-111925000D01*
G75*
G02*
X72550001Y-111675000I250000J0D01*
G01*
X73300001Y-111675000D01*
G75*
G02*
X73550001Y-111925000I0J-250000D01*
G01*
X73550001Y-114075000D01*
G75*
G02*
X73300001Y-114325000I-250000J0D01*
G01*
X72550001Y-114325000D01*
G75*
G02*
X72300001Y-114075000I0J250000D01*
G01*
G37*
G36*
G01*
X69500001Y-114075000D02*
X69500001Y-111925000D01*
G75*
G02*
X69750001Y-111675000I250000J0D01*
G01*
X70500001Y-111675000D01*
G75*
G02*
X70750001Y-111925000I0J-250000D01*
G01*
X70750001Y-114075000D01*
G75*
G02*
X70500001Y-114325000I-250000J0D01*
G01*
X69750001Y-114325000D01*
G75*
G02*
X69500001Y-114075000I0J250000D01*
G01*
G37*
G36*
G01*
X122919999Y-116925000D02*
X122919999Y-119075000D01*
G75*
G02*
X122669999Y-119325000I-250000J0D01*
G01*
X121919999Y-119325000D01*
G75*
G02*
X121669999Y-119075000I0J250000D01*
G01*
X121669999Y-116925000D01*
G75*
G02*
X121919999Y-116675000I250000J0D01*
G01*
X122669999Y-116675000D01*
G75*
G02*
X122919999Y-116925000I0J-250000D01*
G01*
G37*
G36*
G01*
X125719999Y-116925000D02*
X125719999Y-119075000D01*
G75*
G02*
X125469999Y-119325000I-250000J0D01*
G01*
X124719999Y-119325000D01*
G75*
G02*
X124469999Y-119075000I0J250000D01*
G01*
X124469999Y-116925000D01*
G75*
G02*
X124719999Y-116675000I250000J0D01*
G01*
X125469999Y-116675000D01*
G75*
G02*
X125719999Y-116925000I0J-250000D01*
G01*
G37*
G36*
G01*
X67075000Y-46625000D02*
X64925000Y-46625000D01*
G75*
G02*
X64675000Y-46375000I0J250000D01*
G01*
X64675000Y-45625000D01*
G75*
G02*
X64925000Y-45375000I250000J0D01*
G01*
X67075000Y-45375000D01*
G75*
G02*
X67325000Y-45625000I0J-250000D01*
G01*
X67325000Y-46375000D01*
G75*
G02*
X67075000Y-46625000I-250000J0D01*
G01*
G37*
G36*
G01*
X67075000Y-49425000D02*
X64925000Y-49425000D01*
G75*
G02*
X64675000Y-49175000I0J250000D01*
G01*
X64675000Y-48425000D01*
G75*
G02*
X64925000Y-48175000I250000J0D01*
G01*
X67075000Y-48175000D01*
G75*
G02*
X67325000Y-48425000I0J-250000D01*
G01*
X67325000Y-49175000D01*
G75*
G02*
X67075000Y-49425000I-250000J0D01*
G01*
G37*
G36*
G01*
X70875000Y-51465000D02*
X68725000Y-51465000D01*
G75*
G02*
X68475000Y-51215000I0J250000D01*
G01*
X68475000Y-50465000D01*
G75*
G02*
X68725000Y-50215000I250000J0D01*
G01*
X70875000Y-50215000D01*
G75*
G02*
X71125000Y-50465000I0J-250000D01*
G01*
X71125000Y-51215000D01*
G75*
G02*
X70875000Y-51465000I-250000J0D01*
G01*
G37*
G36*
G01*
X70875000Y-54265000D02*
X68725000Y-54265000D01*
G75*
G02*
X68475000Y-54015000I0J250000D01*
G01*
X68475000Y-53265000D01*
G75*
G02*
X68725000Y-53015000I250000J0D01*
G01*
X70875000Y-53015000D01*
G75*
G02*
X71125000Y-53265000I0J-250000D01*
G01*
X71125000Y-54015000D01*
G75*
G02*
X70875000Y-54265000I-250000J0D01*
G01*
G37*
G36*
G01*
X70875000Y-46625000D02*
X68725000Y-46625000D01*
G75*
G02*
X68475000Y-46375000I0J250000D01*
G01*
X68475000Y-45625000D01*
G75*
G02*
X68725000Y-45375000I250000J0D01*
G01*
X70875000Y-45375000D01*
G75*
G02*
X71125000Y-45625000I0J-250000D01*
G01*
X71125000Y-46375000D01*
G75*
G02*
X70875000Y-46625000I-250000J0D01*
G01*
G37*
G36*
G01*
X70875000Y-49425000D02*
X68725000Y-49425000D01*
G75*
G02*
X68475000Y-49175000I0J250000D01*
G01*
X68475000Y-48425000D01*
G75*
G02*
X68725000Y-48175000I250000J0D01*
G01*
X70875000Y-48175000D01*
G75*
G02*
X71125000Y-48425000I0J-250000D01*
G01*
X71125000Y-49175000D01*
G75*
G02*
X70875000Y-49425000I-250000J0D01*
G01*
G37*
G36*
G01*
X74675000Y-51465000D02*
X72525000Y-51465000D01*
G75*
G02*
X72275000Y-51215000I0J250000D01*
G01*
X72275000Y-50465000D01*
G75*
G02*
X72525000Y-50215000I250000J0D01*
G01*
X74675000Y-50215000D01*
G75*
G02*
X74925000Y-50465000I0J-250000D01*
G01*
X74925000Y-51215000D01*
G75*
G02*
X74675000Y-51465000I-250000J0D01*
G01*
G37*
G36*
G01*
X74675000Y-54265000D02*
X72525000Y-54265000D01*
G75*
G02*
X72275000Y-54015000I0J250000D01*
G01*
X72275000Y-53265000D01*
G75*
G02*
X72525000Y-53015000I250000J0D01*
G01*
X74675000Y-53015000D01*
G75*
G02*
X74925000Y-53265000I0J-250000D01*
G01*
X74925000Y-54015000D01*
G75*
G02*
X74675000Y-54265000I-250000J0D01*
G01*
G37*
G36*
G01*
X74675000Y-46625000D02*
X72525000Y-46625000D01*
G75*
G02*
X72275000Y-46375000I0J250000D01*
G01*
X72275000Y-45625000D01*
G75*
G02*
X72525000Y-45375000I250000J0D01*
G01*
X74675000Y-45375000D01*
G75*
G02*
X74925000Y-45625000I0J-250000D01*
G01*
X74925000Y-46375000D01*
G75*
G02*
X74675000Y-46625000I-250000J0D01*
G01*
G37*
G36*
G01*
X74675000Y-49425000D02*
X72525000Y-49425000D01*
G75*
G02*
X72275000Y-49175000I0J250000D01*
G01*
X72275000Y-48425000D01*
G75*
G02*
X72525000Y-48175000I250000J0D01*
G01*
X74675000Y-48175000D01*
G75*
G02*
X74925000Y-48425000I0J-250000D01*
G01*
X74925000Y-49175000D01*
G75*
G02*
X74675000Y-49425000I-250000J0D01*
G01*
G37*
G36*
G01*
X78475000Y-51465000D02*
X76325000Y-51465000D01*
G75*
G02*
X76075000Y-51215000I0J250000D01*
G01*
X76075000Y-50465000D01*
G75*
G02*
X76325000Y-50215000I250000J0D01*
G01*
X78475000Y-50215000D01*
G75*
G02*
X78725000Y-50465000I0J-250000D01*
G01*
X78725000Y-51215000D01*
G75*
G02*
X78475000Y-51465000I-250000J0D01*
G01*
G37*
G36*
G01*
X78475000Y-54265000D02*
X76325000Y-54265000D01*
G75*
G02*
X76075000Y-54015000I0J250000D01*
G01*
X76075000Y-53265000D01*
G75*
G02*
X76325000Y-53015000I250000J0D01*
G01*
X78475000Y-53015000D01*
G75*
G02*
X78725000Y-53265000I0J-250000D01*
G01*
X78725000Y-54015000D01*
G75*
G02*
X78475000Y-54265000I-250000J0D01*
G01*
G37*
G36*
G01*
X78475000Y-46625000D02*
X76325000Y-46625000D01*
G75*
G02*
X76075000Y-46375000I0J250000D01*
G01*
X76075000Y-45625000D01*
G75*
G02*
X76325000Y-45375000I250000J0D01*
G01*
X78475000Y-45375000D01*
G75*
G02*
X78725000Y-45625000I0J-250000D01*
G01*
X78725000Y-46375000D01*
G75*
G02*
X78475000Y-46625000I-250000J0D01*
G01*
G37*
G36*
G01*
X78475000Y-49425000D02*
X76325000Y-49425000D01*
G75*
G02*
X76075000Y-49175000I0J250000D01*
G01*
X76075000Y-48425000D01*
G75*
G02*
X76325000Y-48175000I250000J0D01*
G01*
X78475000Y-48175000D01*
G75*
G02*
X78725000Y-48425000I0J-250000D01*
G01*
X78725000Y-49175000D01*
G75*
G02*
X78475000Y-49425000I-250000J0D01*
G01*
G37*
G36*
G01*
X82275000Y-51465000D02*
X80125000Y-51465000D01*
G75*
G02*
X79875000Y-51215000I0J250000D01*
G01*
X79875000Y-50465000D01*
G75*
G02*
X80125000Y-50215000I250000J0D01*
G01*
X82275000Y-50215000D01*
G75*
G02*
X82525000Y-50465000I0J-250000D01*
G01*
X82525000Y-51215000D01*
G75*
G02*
X82275000Y-51465000I-250000J0D01*
G01*
G37*
G36*
G01*
X82275000Y-54265000D02*
X80125000Y-54265000D01*
G75*
G02*
X79875000Y-54015000I0J250000D01*
G01*
X79875000Y-53265000D01*
G75*
G02*
X80125000Y-53015000I250000J0D01*
G01*
X82275000Y-53015000D01*
G75*
G02*
X82525000Y-53265000I0J-250000D01*
G01*
X82525000Y-54015000D01*
G75*
G02*
X82275000Y-54265000I-250000J0D01*
G01*
G37*
G36*
G01*
X82275000Y-46625000D02*
X80125000Y-46625000D01*
G75*
G02*
X79875000Y-46375000I0J250000D01*
G01*
X79875000Y-45625000D01*
G75*
G02*
X80125000Y-45375000I250000J0D01*
G01*
X82275000Y-45375000D01*
G75*
G02*
X82525000Y-45625000I0J-250000D01*
G01*
X82525000Y-46375000D01*
G75*
G02*
X82275000Y-46625000I-250000J0D01*
G01*
G37*
G36*
G01*
X82275000Y-49425000D02*
X80125000Y-49425000D01*
G75*
G02*
X79875000Y-49175000I0J250000D01*
G01*
X79875000Y-48425000D01*
G75*
G02*
X80125000Y-48175000I250000J0D01*
G01*
X82275000Y-48175000D01*
G75*
G02*
X82525000Y-48425000I0J-250000D01*
G01*
X82525000Y-49175000D01*
G75*
G02*
X82275000Y-49425000I-250000J0D01*
G01*
G37*
G36*
G01*
X86075000Y-51465000D02*
X83925000Y-51465000D01*
G75*
G02*
X83675000Y-51215000I0J250000D01*
G01*
X83675000Y-50465000D01*
G75*
G02*
X83925000Y-50215000I250000J0D01*
G01*
X86075000Y-50215000D01*
G75*
G02*
X86325000Y-50465000I0J-250000D01*
G01*
X86325000Y-51215000D01*
G75*
G02*
X86075000Y-51465000I-250000J0D01*
G01*
G37*
G36*
G01*
X86075000Y-54265000D02*
X83925000Y-54265000D01*
G75*
G02*
X83675000Y-54015000I0J250000D01*
G01*
X83675000Y-53265000D01*
G75*
G02*
X83925000Y-53015000I250000J0D01*
G01*
X86075000Y-53015000D01*
G75*
G02*
X86325000Y-53265000I0J-250000D01*
G01*
X86325000Y-54015000D01*
G75*
G02*
X86075000Y-54265000I-250000J0D01*
G01*
G37*
G36*
G01*
X86075000Y-46625000D02*
X83925000Y-46625000D01*
G75*
G02*
X83675000Y-46375000I0J250000D01*
G01*
X83675000Y-45625000D01*
G75*
G02*
X83925000Y-45375000I250000J0D01*
G01*
X86075000Y-45375000D01*
G75*
G02*
X86325000Y-45625000I0J-250000D01*
G01*
X86325000Y-46375000D01*
G75*
G02*
X86075000Y-46625000I-250000J0D01*
G01*
G37*
G36*
G01*
X86075000Y-49425000D02*
X83925000Y-49425000D01*
G75*
G02*
X83675000Y-49175000I0J250000D01*
G01*
X83675000Y-48425000D01*
G75*
G02*
X83925000Y-48175000I250000J0D01*
G01*
X86075000Y-48175000D01*
G75*
G02*
X86325000Y-48425000I0J-250000D01*
G01*
X86325000Y-49175000D01*
G75*
G02*
X86075000Y-49425000I-250000J0D01*
G01*
G37*
M02*
