  0
SECTION
  2
HEADER
  9
$ACADVER
  1
AC1014
  9
$ACADMAINTVER
 70
     9
  9
$DWGCODEPAGE
  3
ANSI_1252
  9
$INSBASE
 10
0.0
 20
0.0
 30
0.0
  9
$EXTMIN
 10
1.000000000000000E+20
 20
1.000000000000000E+20
 30
1.000000000000000E+20
  9
$EXTMAX
 10
-1.000000000000000E+20
 20
-1.000000000000000E+20
 30
-1.000000000000000E+20
  9
$LIMMIN
 10
0.0
 20
0.0
  9
$LIMMAX
 10
12.0
 20
9.0
  9
$ORTHOMODE
 70
     0
  9
$REGENMODE
 70
     1
  9
$FILLMODE
 70
     1
  9
$QTEXTMODE
 70
     0
  9
$MIRRTEXT
 70
     1
  9
$DRAGMODE
 70
     2
  9
$LTSCALE
 40
1.0
  9
$OSMODE
 70
    37
  9
$ATTMODE
 70
     1
  9
$TEXTSIZE
 40
0.2
  9
$TRACEWID
 40
0.05
  9
$TEXTSTYLE
  7
STANDARD
  9
$CLAYER
  8
0
  9
$CELTYPE
  6
BYLAYER
  9
$CECOLOR
 62
   256
  9
$CELTSCALE
 40
1.0
  9
$DELOBJ
 70
     1
  9
$DISPSILH
 70
     0
  9
$DIMSCALE
 40
1.0
  9
$DIMASZ
 40
0.18
  9
$DIMEXO
 40
0.0625
  9
$DIMDLI
 40
0.38
  9
$DIMRND
 40
0.0
  9
$DIMDLE
 40
0.0
  9
$DIMEXE
 40
0.18
  9
$DIMTP
 40
0.0
  9
$DIMTM
 40
0.0
  9
$DIMTXT
 40
0.18
  9
$DIMCEN
 40
0.09
  9
$DIMTSZ
 40
0.0
  9
$DIMTOL
 70
     0
  9
$DIMLIM
 70
     0
  9
$DIMTIH
 70
     1
  9
$DIMTOH
 70
     1
  9
$DIMSE1
 70
     0
  9
$DIMSE2
 70
     0
  9
$DIMTAD
 70
     0
  9
$DIMZIN
 70
     0
  9
$DIMBLK
  1

  9
$DIMASO
 70
     1
  9
$DIMSHO
 70
     1
  9
$DIMPOST
  1

  9
$DIMAPOST
  1

  9
$DIMALT
 70
     0
  9
$DIMALTD
 70
     2
  9
$DIMALTF
 40
25.4
  9
$DIMLFAC
 40
1.0
  9
$DIMTOFL
 70
     0
  9
$DIMTVP
 40
0.0
  9
$DIMTIX
 70
     0
  9
$DIMSOXD
 70
     0
  9
$DIMSAH
 70
     0
  9
$DIMBLK1
  1

  9
$DIMBLK2
  1

  9
$DIMSTYLE
  2
STANDARD
  9
$DIMCLRD
 70
     0
  9
$DIMCLRE
 70
     0
  9
$DIMCLRT
 70
     0
  9
$DIMTFAC
 40
1.0
  9
$DIMGAP
 40
0.09
  9
$DIMJUST
 70
     0
  9
$DIMSD1
 70
     0
  9
$DIMSD2
 70
     0
  9
$DIMTOLJ
 70
     1
  9
$DIMTZIN
 70
     0
  9
$DIMALTZ
 70
     0
  9
$DIMALTTZ
 70
     0
  9
$DIMFIT
 70
     3
  9
$DIMUPT
 70
     0
  9
$DIMUNIT
 70
     2
  9
$DIMDEC
 70
     4
  9
$DIMTDEC
 70
     4
  9
$DIMALTU
 70
     2
  9
$DIMALTTD
 70
     2
  9
$DIMTXSTY
  7
STANDARD
  9
$DIMAUNIT
 70
     0
  9
$LUNITS
 70
     2
  9
$LUPREC
 70
     4
  9
$SKETCHINC
 40
0.1
  9
$FILLETRAD
 40
0.5
  9
$AUNITS
 70
     0
  9
$AUPREC
 70
     0
  9
$MENU
  1
.
  9
$ELEVATION
 40
0.0
  9
$PELEVATION
 40
0.0
  9
$THICKNESS
 40
0.0
  9
$LIMCHECK
 70
     0
  9
$BLIPMODE
 70
     0
  9
$CHAMFERA
 40
0.5
  9
$CHAMFERB
 40
0.5
  9
$CHAMFERC
 40
1.0
  9
$CHAMFERD
 40
0.0
  9
$SKPOLY
 70
     0
  9
$TDCREATE
 40
2452964.734852014
  9
$TDUPDATE
 40
2452964.737807419
  9
$TDINDWG
 40
0.0029613194
  9
$TDUSRTIMER
 40
0.0029570255
  9
$USRTIMER
 70
     1
  9
$ANGBASE
 50
0.0
  9
$ANGDIR
 70
     0
  9
$PDMODE
 70
     0
  9
$PDSIZE
 40
0.0
  9
$PLINEWID
 40
0.0
  9
$COORDS
 70
     1
  9
$SPLFRAME
 70
     0
  9
$SPLINETYPE
 70
     6
  9
$SPLINESEGS
 70
     8
  9
$ATTDIA
 70
     0
  9
$ATTREQ
 70
     1
  9
$HANDLING
 70
  4097
  9
$HANDSEED
  5
52
  9
$SURFTAB1
 70
     6
  9
$SURFTAB2
 70
     6
  9
$SURFTYPE
 70
     6
  9
$SURFU
 70
     6
  9
$SURFV
 70
     6
  9
$UCSNAME
  2

  9
$UCSORG
 10
0.0
 20
0.0
 30
0.0
  9
$UCSXDIR
 10
1.0
 20
0.0
 30
0.0
  9
$UCSYDIR
 10
0.0
 20
1.0
 30
0.0
  9
$PUCSNAME
  2

  9
$PUCSORG
 10
0.0
 20
0.0
 30
0.0
  9
$PUCSXDIR
 10
1.0
 20
0.0
 30
0.0
  9
$PUCSYDIR
 10
0.0
 20
1.0
 30
0.0
  9
$USERI1
 70
     0
  9
$USERI2
 70
     0
  9
$USERI3
 70
     0
  9
$USERI4
 70
     0
  9
$USERI5
 70
     0
  9
$USERR1
 40
0.0
  9
$USERR2
 40
0.0
  9
$USERR3
 40
0.0
  9
$USERR4
 40
0.0
  9
$USERR5
 40
0.0
  9
$WORLDVIEW
 70
     1
  9
$SHADEDGE
 70
     3
  9
$SHADEDIF
 70
    70
  9
$TILEMODE
 70
     1
  9
$MAXACTVP
 70
    64
  9
$PINSBASE
 10
0.0
 20
0.0
 30
0.0
  9
$PLIMCHECK
 70
     0
  9
$PEXTMIN
 10
1.000000000000000E+20
 20
1.000000000000000E+20
 30
1.000000000000000E+20
  9
$PEXTMAX
 10
-1.000000000000000E+20
 20
-1.000000000000000E+20
 30
-1.000000000000000E+20
  9
$PLIMMIN
 10
0.0
 20
0.0
  9
$PLIMMAX
 10
12.0
 20
9.0
  9
$UNITMODE
 70
     0
  9
$VISRETAIN
 70
     1
  9
$PLINEGEN
 70
     0
  9
$PSLTSCALE
 70
     1
  9
$TREEDEPTH
 70
  3020
  9
$PICKSTYLE
 70
     1
  9
$CMLSTYLE
  2
STANDARD
  9
$CMLJUST
 70
     0
  9
$CMLSCALE
 40
1.0
  9
$PROXYGRAPHICS
 70
     1
  9
$MEASUREMENT
 70
     0
  0
ENDSEC
  0
SECTION
  2
CLASSES
  0
CLASS
  1
ACDBDICTIONARYWDFLT
  2
AcDbDictionaryWithDefault
  3
AutoCAD 2000
 90
        0
280
     0
281
     0
  0
CLASS
  1
ACDBPLACEHOLDER
  2
AcDbPlaceHolder
  3
AutoCAD 2000
 90
        0
280
     0
281
     0
  0
CLASS
  1
LAYOUT
  2
AcDbLayout
  3
AutoCAD 2000
 90
        0
280
     0
281
     0
  0
CLASS
  1
LONG_TRANSACTION
  2
AcDbLongTransaction
  3
AutoCAD 2000
 90
        0
280
     0
281
     0
  0
CLASS
  1
LWPOLYLINE
  2
AcDbPolyline
  3
AutoCAD 2000
 90
        0
280
     0
281
     1
  0
CLASS
  1
HATCH
  2
AcDbHatch
  3
AutoCAD 2000
 90
        0
280
     0
281
     1
  0
CLASS
  1
XRECORD
  2
AcDbXrecord
  3
AutoCAD 2000
 90
        0
280
     0
281
     0
  0
ENDSEC
  0
SECTION
  2
TABLES
  0
TABLE
  2
VPORT
  5
8
330
0
100
AcDbSymbolTable
 70
     3
  0
VPORT
  5
2B
330
8
100
AcDbSymbolTableRecord
100
AcDbViewportTableRecord
  2
*ACTIVE
 70
     0
 10
0.0
 20
0.0
 11
1.0
 21
1.0
 12
8.841614906832298
 22
4.5
 13
0.0
 23
0.0
 14
0.5
 24
0.5
 15
0.5
 25
0.5
 16
0.0
 26
0.0
 36
1.0
 17
0.0
 27
0.0
 37
0.0
 40
9.0
 41
1.964803312629399
 42
50.0
 43
0.0
 44
0.0
 50
0.0
 51
0.0
 71
     0
 72
   100
 73
     1
 74
     3
 75
     0
 76
     0
 77
     0
 78
     0
  0
ENDTAB
  0
TABLE
  2
LTYPE
  5
5
330
0
100
AcDbSymbolTable
 70
     1
  0
LTYPE
  5
14
330
5
100
AcDbSymbolTableRecord
100
AcDbLinetypeTableRecord
  2
BYBLOCK
 70
     0
  3

 72
    65
 73
     0
 40
0.0
  0
LTYPE
  5
15
330
5
100
AcDbSymbolTableRecord
100
AcDbLinetypeTableRecord
  2
BYLAYER
 70
     0
  3

 72
    65
 73
     0
 40
0.0
  0
LTYPE
  5
16
330
5
100
AcDbSymbolTableRecord
100
AcDbLinetypeTableRecord
  2
CONTINUOUS
 70
     0
  3
Solid line
 72
    65
 73
     0
 40
0.0
  0
ENDTAB
  0
TABLE
  2
LAYER
  5
2
330
0
100
AcDbSymbolTable
 70
     1
  0
LAYER
  5
10
330
2
100
AcDbSymbolTableRecord
100
AcDbLayerTableRecord
  2
0
 70
     0
 62
     7
  6
CONTINUOUS
0
LAYER
5
1000
100
AcDbSymbolTableRecord
100
AcDbLayerTableRecord
2
BottomLayer
70
0
62
7
6
CONTINUOUS
  0
ENDTAB
  0
TABLE
  2
STYLE
  5
3
330
0
100
AcDbSymbolTable
 70
     1
  0
STYLE
  5
11
330
3
100
AcDbSymbolTableRecord
100
AcDbTextStyleTableRecord
  2
STANDARD
 70
     0
 40
0.0
 41
1.0
 50
0.0
 71
     0
 42
0.2
  3
txt
  4

  0
ENDTAB
  0
TABLE
  2
VIEW
  5
6
330
0
100
AcDbSymbolTable
 70
     0
  0
ENDTAB
  0
TABLE
  2
UCS
  5
7
330
0
100
AcDbSymbolTable
 70
     0
  0
ENDTAB
  0
TABLE
  2
APPID
  5
9
330
0
100
AcDbSymbolTable
 70
     1
  0
APPID
  5
12
330
9
100
AcDbSymbolTableRecord
100
AcDbRegAppTableRecord
  2
ACAD
 70
     0
  0
ENDTAB
  0
TABLE
  2
DIMSTYLE
  5
A
330
0
100
AcDbSymbolTable
 70
     1
  0
DIMSTYLE
105
27
330
A
100
AcDbSymbolTableRecord
100
AcDbDimStyleTableRecord
  2
STANDARD
 70
     0
  3

  4

  5

  6

  7

 40
1.0
 41
0.18
 42
0.0625
 43
0.38
 44
0.18
 45
0.0
 46
0.0
 47
0.0
 48
0.0
140
0.18
141
0.09
142
0.0
143
25.4
144
1.0
145
0.0
146
1.0
147
0.09
 71
     0
 72
     0
 73
     1
 74
     1
 75
     0
 76
     0
 77
     0
 78
     0
170
     0
171
     2
172
     0
173
     0
174
     0
175
     0
176
     0
177
     0
178
     0
270
     2
271
     4
272
     4
273
     2
274
     2
340
11
275
     0
280
     0
281
     0
282
     0
283
     1
284
     0
285
     0
286
     0
287
     3
288
     0
  0
ENDTAB
  0
TABLE
  2
BLOCK_RECORD
  5
1
330
0
100
AcDbSymbolTable
 70
     1
  0
BLOCK_RECORD
  5
1F
102
{ACAD_XDICTIONARY
360
4E
102
}
330
1
100
AcDbSymbolTableRecord
100
AcDbBlockTableRecord
  2
*MODEL_SPACE
  0
BLOCK_RECORD
  5
1B
102
{ACAD_XDICTIONARY
360
4C
102
}
330
1
100
AcDbSymbolTableRecord
100
AcDbBlockTableRecord
  2
*PAPER_SPACE
  0
ENDTAB
  0
ENDSEC
  0
SECTION
  2
BLOCKS
  0
BLOCK
  5
20
330
1F
100
AcDbEntity
  8
0
100
AcDbBlockBegin
  2
*MODEL_SPACE
 70
     0
 10
0.0
 20
0.0
 30
0.0
  3
*MODEL_SPACE
  1

  0
ENDBLK
  5
21
330
1F
100
AcDbEntity
  8
0
100
AcDbBlockEnd
  0
BLOCK
  5
1C
330
1B
100
AcDbEntity
 67
     1
  8
0
100
AcDbBlockBegin
  2
*PAPER_SPACE
 70
     0
 10
0.0
 20
0.0
 30
0.0
  3
*PAPER_SPACE
  1

  0
ENDBLK
  5
1D
330
1B
100
AcDbEntity
 67
     1
  8
0
100
AcDbBlockEnd
  0
ENDSEC
  0
SECTION
  2
ENTITIES
0
LWPOLYLINE
5
1001
100
AcDbEntity
100
AcDbPolyline
90
8
8
BottomLayer
70
0
43
0.000000
10
157.480316
20
15551.184570
10
157.480316
20
15531.495117
10
157.480316
20
15531.495117
42
1.000000
10
314.960632
20
15531.495117
10
314.960632
20
15531.495117
10
314.960632
20
15551.184570
10
314.960632
20
15551.184570
10
157.480316
20
15551.184570
0
LWPOLYLINE
5
1002
100
AcDbEntity
100
AcDbPolyline
90
8
8
BottomLayer
70
0
43
0.000000
10
629.921265
20
15551.184570
10
629.921265
20
15531.495117
10
629.921265
20
15531.495117
42
1.000000
10
787.401550
20
15531.495117
10
787.401550
20
15531.495117
10
787.401550
20
15551.184570
10
787.401550
20
15551.184570
10
629.921265
20
15551.184570
0
LWPOLYLINE
5
1003
100
AcDbEntity
100
AcDbPolyline
90
8
8
BottomLayer
70
0
43
0.000000
10
1102.362183
20
15551.184570
10
1102.362183
20
15531.495117
10
1102.362183
20
15531.495117
42
1.000000
10
1259.842529
20
15531.495117
10
1259.842529
20
15531.495117
10
1259.842529
20
15551.184570
10
1259.842529
20
15551.184570
10
1102.362183
20
15551.184570
0
LWPOLYLINE
5
1004
100
AcDbEntity
100
AcDbPolyline
90
8
8
BottomLayer
70
0
43
0.000000
10
1574.803101
20
15551.184570
10
1574.803101
20
15531.495117
10
1574.803101
20
15531.495117
42
1.000000
10
1732.283447
20
15531.495117
10
1732.283447
20
15531.495117
10
1732.283447
20
15551.184570
10
1732.283447
20
15551.184570
10
1574.803101
20
15551.184570
0
LWPOLYLINE
5
1005
100
AcDbEntity
100
AcDbPolyline
90
8
8
BottomLayer
70
0
43
0.000000
10
2047.244141
20
15551.184570
10
2047.244141
20
15531.495117
10
2047.244141
20
15531.495117
42
1.000000
10
2204.724365
20
15531.495117
10
2204.724365
20
15531.495117
10
2204.724365
20
15551.184570
10
2204.724365
20
15551.184570
10
2047.244141
20
15551.184570
0
LWPOLYLINE
5
1006
100
AcDbEntity
100
AcDbPolyline
90
8
8
BottomLayer
70
0
43
0.000000
10
2519.685059
20
15551.184570
10
2519.685059
20
15531.495117
10
2519.685059
20
15531.495117
42
1.000000
10
2677.165527
20
15531.495117
10
2677.165527
20
15531.495117
10
2677.165527
20
15551.184570
10
2677.165527
20
15551.184570
10
2519.685059
20
15551.184570
0
LWPOLYLINE
5
1007
100
AcDbEntity
100
AcDbPolyline
90
8
8
BottomLayer
70
0
43
0.000000
10
2992.125977
20
15551.184570
10
2992.125977
20
15531.495117
10
2992.125977
20
15531.495117
42
1.000000
10
3149.606201
20
15531.495117
10
3149.606201
20
15531.495117
10
3149.606201
20
15551.184570
10
3149.606201
20
15551.184570
10
2992.125977
20
15551.184570
0
LWPOLYLINE
5
1008
100
AcDbEntity
100
AcDbPolyline
90
8
8
BottomLayer
70
0
43
0.000000
10
3464.566895
20
15551.184570
10
3464.566895
20
15531.495117
10
3464.566895
20
15531.495117
42
1.000000
10
3622.047363
20
15531.495117
10
3622.047363
20
15531.495117
10
3622.047363
20
15551.184570
10
3622.047363
20
15551.184570
10
3464.566895
20
15551.184570
0
LWPOLYLINE
5
1009
100
AcDbEntity
100
AcDbPolyline
90
8
8
BottomLayer
70
0
43
0.000000
10
3937.007813
20
15551.184570
10
3937.007813
20
15531.495117
10
3937.007813
20
15531.495117
42
1.000000
10
4094.488281
20
15531.495117
10
4094.488281
20
15531.495117
10
4094.488281
20
15551.184570
10
4094.488281
20
15551.184570
10
3937.007813
20
15551.184570
0
LWPOLYLINE
5
1010
100
AcDbEntity
100
AcDbPolyline
90
8
8
BottomLayer
70
0
43
0.000000
10
4409.448730
20
15551.184570
10
4409.448730
20
15531.495117
10
4409.448730
20
15531.495117
42
1.000000
10
4566.929199
20
15531.495117
10
4566.929199
20
15531.495117
10
4566.929199
20
15551.184570
10
4566.929199
20
15551.184570
10
4409.448730
20
15551.184570
0
LWPOLYLINE
5
1011
100
AcDbEntity
100
AcDbPolyline
90
8
8
BottomLayer
70
0
43
0.000000
10
4881.889648
20
15551.184570
10
4881.889648
20
15531.495117
10
4881.889648
20
15531.495117
42
1.000000
10
5039.370117
20
15531.495117
10
5039.370117
20
15531.495117
10
5039.370117
20
15551.184570
10
5039.370117
20
15551.184570
10
4881.889648
20
15551.184570
0
LWPOLYLINE
5
1012
100
AcDbEntity
100
AcDbPolyline
90
8
8
BottomLayer
70
0
43
0.000000
10
5354.331055
20
15551.184570
10
5354.331055
20
15531.495117
10
5354.331055
20
15531.495117
42
1.000000
10
5511.811035
20
15531.495117
10
5511.811035
20
15531.495117
10
5511.811035
20
15551.184570
10
5511.811035
20
15551.184570
10
5354.331055
20
15551.184570
0
LWPOLYLINE
5
1013
100
AcDbEntity
100
AcDbPolyline
90
8
8
BottomLayer
70
0
43
0.000000
10
5826.771973
20
15551.184570
10
5826.771973
20
15531.495117
10
5826.771973
20
15531.495117
42
1.000000
10
5984.251953
20
15531.495117
10
5984.251953
20
15531.495117
10
5984.251953
20
15551.184570
10
5984.251953
20
15551.184570
10
5826.771973
20
15551.184570
0
LWPOLYLINE
5
1014
100
AcDbEntity
100
AcDbPolyline
90
8
8
BottomLayer
70
0
43
0.000000
10
6299.212402
20
15551.184570
10
6299.212402
20
15531.495117
10
6299.212402
20
15531.495117
42
1.000000
10
6456.692871
20
15531.495117
10
6456.692871
20
15531.495117
10
6456.692871
20
15551.184570
10
6456.692871
20
15551.184570
10
6299.212402
20
15551.184570
0
LWPOLYLINE
5
1015
100
AcDbEntity
100
AcDbPolyline
90
8
8
BottomLayer
70
0
43
0.000000
10
6771.653809
20
15551.184570
10
6771.653809
20
15531.495117
10
6771.653809
20
15531.495117
42
1.000000
10
6929.133789
20
15531.495117
10
6929.133789
20
15531.495117
10
6929.133789
20
15551.184570
10
6929.133789
20
15551.184570
10
6771.653809
20
15551.184570
0
LWPOLYLINE
5
1016
100
AcDbEntity
100
AcDbPolyline
90
8
8
BottomLayer
70
0
43
0.000000
10
7244.094727
20
15551.184570
10
7244.094727
20
15531.495117
10
7244.094727
20
15531.495117
42
1.000000
10
7401.574707
20
15531.495117
10
7401.574707
20
15531.495117
10
7401.574707
20
15551.184570
10
7401.574707
20
15551.184570
10
7244.094727
20
15551.184570
0
LWPOLYLINE
5
1017
100
AcDbEntity
100
AcDbPolyline
90
8
8
BottomLayer
70
0
43
0.000000
10
7716.535156
20
15551.184570
10
7716.535156
20
15531.495117
10
7716.535156
20
15531.495117
42
1.000000
10
7874.015625
20
15531.495117
10
7874.015625
20
15531.495117
10
7874.015625
20
15551.184570
10
7874.015625
20
15551.184570
10
7716.535156
20
15551.184570
0
LWPOLYLINE
5
1018
100
AcDbEntity
100
AcDbPolyline
90
8
8
BottomLayer
70
0
43
0.000000
10
8188.976563
20
15551.184570
10
8188.976563
20
15531.495117
10
8188.976563
20
15531.495117
42
1.000000
10
8346.457031
20
15531.495117
10
8346.457031
20
15531.495117
10
8346.457031
20
15551.184570
10
8346.457031
20
15551.184570
10
8188.976563
20
15551.184570
0
LWPOLYLINE
5
1019
100
AcDbEntity
100
AcDbPolyline
90
8
8
BottomLayer
70
0
43
0.000000
10
8661.416992
20
15551.184570
10
8661.416992
20
15531.495117
10
8661.416992
20
15531.495117
42
1.000000
10
8818.897461
20
15531.495117
10
8818.897461
20
15531.495117
10
8818.897461
20
15551.184570
10
8818.897461
20
15551.184570
10
8661.416992
20
15551.184570
0
LWPOLYLINE
5
1020
100
AcDbEntity
100
AcDbPolyline
90
8
8
BottomLayer
70
0
43
0.000000
10
9133.858398
20
15551.184570
10
9133.858398
20
15531.495117
10
9133.858398
20
15531.495117
42
1.000000
10
9291.338867
20
15531.495117
10
9291.338867
20
15531.495117
10
9291.338867
20
15551.184570
10
9291.338867
20
15551.184570
10
9133.858398
20
15551.184570
0
LWPOLYLINE
5
1021
100
AcDbEntity
100
AcDbPolyline
90
8
8
BottomLayer
70
0
43
0.000000
10
9606.299805
20
15551.184570
10
9606.299805
20
15531.495117
10
9606.299805
20
15531.495117
42
1.000000
10
9763.779297
20
15531.495117
10
9763.779297
20
15531.495117
10
9763.779297
20
15551.184570
10
9763.779297
20
15551.184570
10
9606.299805
20
15551.184570
0
LWPOLYLINE
5
1022
100
AcDbEntity
100
AcDbPolyline
90
8
8
BottomLayer
70
0
43
0.000000
10
10078.740234
20
15551.184570
10
10078.740234
20
15531.495117
10
10078.740234
20
15531.495117
42
1.000000
10
10236.219727
20
15531.495117
10
10236.219727
20
15531.495117
10
10236.219727
20
15551.184570
10
10236.219727
20
15551.184570
10
10078.740234
20
15551.184570
0
LWPOLYLINE
5
1023
100
AcDbEntity
100
AcDbPolyline
90
8
8
BottomLayer
70
0
43
0.000000
10
10551.181641
20
15551.184570
10
10551.181641
20
15531.495117
10
10551.181641
20
15531.495117
42
1.000000
10
10708.662109
20
15531.495117
10
10708.662109
20
15531.495117
10
10708.662109
20
15551.184570
10
10708.662109
20
15551.184570
10
10551.181641
20
15551.184570
0
LWPOLYLINE
5
1024
100
AcDbEntity
100
AcDbPolyline
90
8
8
BottomLayer
70
0
43
0.000000
10
11023.622070
20
15551.184570
10
11023.622070
20
15531.495117
10
11023.622070
20
15531.495117
42
1.000000
10
11181.102539
20
15531.495117
10
11181.102539
20
15531.495117
10
11181.102539
20
15551.184570
10
11181.102539
20
15551.184570
10
11023.622070
20
15551.184570
0
LWPOLYLINE
5
1025
100
AcDbEntity
100
AcDbPolyline
90
8
8
BottomLayer
70
0
43
0.000000
10
11496.062500
20
15551.184570
10
11496.062500
20
15531.495117
10
11496.062500
20
15531.495117
42
1.000000
10
11653.543945
20
15531.495117
10
11653.543945
20
15531.495117
10
11653.543945
20
15551.184570
10
11653.543945
20
15551.184570
10
11496.062500
20
15551.184570
0
LWPOLYLINE
5
1026
100
AcDbEntity
100
AcDbPolyline
90
8
8
BottomLayer
70
0
43
0.000000
10
11968.503906
20
15551.184570
10
11968.503906
20
15531.495117
10
11968.503906
20
15531.495117
42
1.000000
10
12125.984375
20
15531.495117
10
12125.984375
20
15531.495117
10
12125.984375
20
15551.184570
10
12125.984375
20
15551.184570
10
11968.503906
20
15551.184570
0
LWPOLYLINE
5
1027
100
AcDbEntity
100
AcDbPolyline
90
8
8
BottomLayer
70
0
43
0.000000
10
157.480316
20
590.551147
10
157.480316
20
610.236206
10
157.480316
20
610.236206
42
-1.000000
10
314.960632
20
610.236206
10
314.960632
20
610.236206
10
314.960632
20
590.551147
10
314.960632
20
590.551147
10
157.480316
20
590.551147
0
LWPOLYLINE
5
1028
100
AcDbEntity
100
AcDbPolyline
90
8
8
BottomLayer
70
0
43
0.000000
10
629.921265
20
590.551147
10
629.921265
20
610.236206
10
629.921265
20
610.236206
42
-1.000000
10
787.401550
20
610.236206
10
787.401550
20
610.236206
10
787.401550
20
590.551147
10
787.401550
20
590.551147
10
629.921265
20
590.551147
0
LWPOLYLINE
5
1029
100
AcDbEntity
100
AcDbPolyline
90
8
8
BottomLayer
70
0
43
0.000000
10
1102.362183
20
590.551147
10
1102.362183
20
610.236206
10
1102.362183
20
610.236206
42
-1.000000
10
1259.842529
20
610.236206
10
1259.842529
20
610.236206
10
1259.842529
20
590.551147
10
1259.842529
20
590.551147
10
1102.362183
20
590.551147
0
LWPOLYLINE
5
1030
100
AcDbEntity
100
AcDbPolyline
90
8
8
BottomLayer
70
0
43
0.000000
10
1574.803101
20
590.551147
10
1574.803101
20
610.236206
10
1574.803101
20
610.236206
42
-1.000000
10
1732.283447
20
610.236206
10
1732.283447
20
610.236206
10
1732.283447
20
590.551147
10
1732.283447
20
590.551147
10
1574.803101
20
590.551147
0
LWPOLYLINE
5
1031
100
AcDbEntity
100
AcDbPolyline
90
8
8
BottomLayer
70
0
43
0.000000
10
2047.244141
20
590.551147
10
2047.244141
20
610.236206
10
2047.244141
20
610.236206
42
-1.000000
10
2204.724365
20
610.236206
10
2204.724365
20
610.236206
10
2204.724365
20
590.551147
10
2204.724365
20
590.551147
10
2047.244141
20
590.551147
0
LWPOLYLINE
5
1032
100
AcDbEntity
100
AcDbPolyline
90
8
8
BottomLayer
70
0
43
0.000000
10
2519.685059
20
590.551147
10
2519.685059
20
610.236206
10
2519.685059
20
610.236206
42
-1.000000
10
2677.165527
20
610.236206
10
2677.165527
20
610.236206
10
2677.165527
20
590.551147
10
2677.165527
20
590.551147
10
2519.685059
20
590.551147
0
LWPOLYLINE
5
1033
100
AcDbEntity
100
AcDbPolyline
90
8
8
BottomLayer
70
0
43
0.000000
10
2992.125977
20
590.551147
10
2992.125977
20
610.236206
10
2992.125977
20
610.236206
42
-1.000000
10
3149.606201
20
610.236206
10
3149.606201
20
610.236206
10
3149.606201
20
590.551147
10
3149.606201
20
590.551147
10
2992.125977
20
590.551147
0
LWPOLYLINE
5
1034
100
AcDbEntity
100
AcDbPolyline
90
8
8
BottomLayer
70
0
43
0.000000
10
3464.566895
20
590.551147
10
3464.566895
20
610.236206
10
3464.566895
20
610.236206
42
-1.000000
10
3622.047363
20
610.236206
10
3622.047363
20
610.236206
10
3622.047363
20
590.551147
10
3622.047363
20
590.551147
10
3464.566895
20
590.551147
0
LWPOLYLINE
5
1035
100
AcDbEntity
100
AcDbPolyline
90
8
8
BottomLayer
70
0
43
0.000000
10
3937.007813
20
590.551147
10
3937.007813
20
610.236206
10
3937.007813
20
610.236206
42
-1.000000
10
4094.488281
20
610.236206
10
4094.488281
20
610.236206
10
4094.488281
20
590.551147
10
4094.488281
20
590.551147
10
3937.007813
20
590.551147
0
LWPOLYLINE
5
1036
100
AcDbEntity
100
AcDbPolyline
90
8
8
BottomLayer
70
0
43
0.000000
10
4409.448730
20
590.551147
10
4409.448730
20
610.236206
10
4409.448730
20
610.236206
42
-1.000000
10
4566.929199
20
610.236206
10
4566.929199
20
610.236206
10
4566.929199
20
590.551147
10
4566.929199
20
590.551147
10
4409.448730
20
590.551147
0
LWPOLYLINE
5
1037
100
AcDbEntity
100
AcDbPolyline
90
8
8
BottomLayer
70
0
43
0.000000
10
4881.889648
20
590.551147
10
4881.889648
20
610.236206
10
4881.889648
20
610.236206
42
-1.000000
10
5039.370117
20
610.236206
10
5039.370117
20
610.236206
10
5039.370117
20
590.551147
10
5039.370117
20
590.551147
10
4881.889648
20
590.551147
0
LWPOLYLINE
5
1038
100
AcDbEntity
100
AcDbPolyline
90
8
8
BottomLayer
70
0
43
0.000000
10
5354.331055
20
590.551147
10
5354.331055
20
610.236206
10
5354.331055
20
610.236206
42
-1.000000
10
5511.811035
20
610.236206
10
5511.811035
20
610.236206
10
5511.811035
20
590.551147
10
5511.811035
20
590.551147
10
5354.331055
20
590.551147
0
LWPOLYLINE
5
1039
100
AcDbEntity
100
AcDbPolyline
90
8
8
BottomLayer
70
0
43
0.000000
10
5826.771973
20
590.551147
10
5826.771973
20
610.236206
10
5826.771973
20
610.236206
42
-1.000000
10
5984.251953
20
610.236206
10
5984.251953
20
610.236206
10
5984.251953
20
590.551147
10
5984.251953
20
590.551147
10
5826.771973
20
590.551147
0
LWPOLYLINE
5
1040
100
AcDbEntity
100
AcDbPolyline
90
8
8
BottomLayer
70
0
43
0.000000
10
6299.212402
20
590.551147
10
6299.212402
20
610.236206
10
6299.212402
20
610.236206
42
-1.000000
10
6456.692871
20
610.236206
10
6456.692871
20
610.236206
10
6456.692871
20
590.551147
10
6456.692871
20
590.551147
10
6299.212402
20
590.551147
0
LWPOLYLINE
5
1041
100
AcDbEntity
100
AcDbPolyline
90
8
8
BottomLayer
70
0
43
0.000000
10
6771.653809
20
590.551147
10
6771.653809
20
610.236206
10
6771.653809
20
610.236206
42
-1.000000
10
6929.133789
20
610.236206
10
6929.133789
20
610.236206
10
6929.133789
20
590.551147
10
6929.133789
20
590.551147
10
6771.653809
20
590.551147
0
LWPOLYLINE
5
1042
100
AcDbEntity
100
AcDbPolyline
90
8
8
BottomLayer
70
0
43
0.000000
10
7244.094727
20
590.551147
10
7244.094727
20
610.236206
10
7244.094727
20
610.236206
42
-1.000000
10
7401.574707
20
610.236206
10
7401.574707
20
610.236206
10
7401.574707
20
590.551147
10
7401.574707
20
590.551147
10
7244.094727
20
590.551147
0
LWPOLYLINE
5
1043
100
AcDbEntity
100
AcDbPolyline
90
8
8
BottomLayer
70
0
43
0.000000
10
7716.535156
20
590.551147
10
7716.535156
20
610.236206
10
7716.535156
20
610.236206
42
-1.000000
10
7874.015625
20
610.236206
10
7874.015625
20
610.236206
10
7874.015625
20
590.551147
10
7874.015625
20
590.551147
10
7716.535156
20
590.551147
0
LWPOLYLINE
5
1044
100
AcDbEntity
100
AcDbPolyline
90
8
8
BottomLayer
70
0
43
0.000000
10
8188.976563
20
590.551147
10
8188.976563
20
610.236206
10
8188.976563
20
610.236206
42
-1.000000
10
8346.457031
20
610.236206
10
8346.457031
20
610.236206
10
8346.457031
20
590.551147
10
8346.457031
20
590.551147
10
8188.976563
20
590.551147
0
LWPOLYLINE
5
1045
100
AcDbEntity
100
AcDbPolyline
90
8
8
BottomLayer
70
0
43
0.000000
10
8661.416992
20
590.551147
10
8661.416992
20
610.236206
10
8661.416992
20
610.236206
42
-1.000000
10
8818.897461
20
610.236206
10
8818.897461
20
610.236206
10
8818.897461
20
590.551147
10
8818.897461
20
590.551147
10
8661.416992
20
590.551147
0
LWPOLYLINE
5
1046
100
AcDbEntity
100
AcDbPolyline
90
8
8
BottomLayer
70
0
43
0.000000
10
9133.858398
20
590.551147
10
9133.858398
20
610.236206
10
9133.858398
20
610.236206
42
-1.000000
10
9291.338867
20
610.236206
10
9291.338867
20
610.236206
10
9291.338867
20
590.551147
10
9291.338867
20
590.551147
10
9133.858398
20
590.551147
0
LWPOLYLINE
5
1047
100
AcDbEntity
100
AcDbPolyline
90
8
8
BottomLayer
70
0
43
0.000000
10
9606.299805
20
590.551147
10
9606.299805
20
610.236206
10
9606.299805
20
610.236206
42
-1.000000
10
9763.779297
20
610.236206
10
9763.779297
20
610.236206
10
9763.779297
20
590.551147
10
9763.779297
20
590.551147
10
9606.299805
20
590.551147
0
LWPOLYLINE
5
1048
100
AcDbEntity
100
AcDbPolyline
90
8
8
BottomLayer
70
0
43
0.000000
10
10078.740234
20
590.551147
10
10078.740234
20
610.236206
10
10078.740234
20
610.236206
42
-1.000000
10
10236.219727
20
610.236206
10
10236.219727
20
610.236206
10
10236.219727
20
590.551147
10
10236.219727
20
590.551147
10
10078.740234
20
590.551147
0
LWPOLYLINE
5
1049
100
AcDbEntity
100
AcDbPolyline
90
8
8
BottomLayer
70
0
43
0.000000
10
10551.181641
20
590.551147
10
10551.181641
20
610.236206
10
10551.181641
20
610.236206
42
-1.000000
10
10708.662109
20
610.236206
10
10708.662109
20
610.236206
10
10708.662109
20
590.551147
10
10708.662109
20
590.551147
10
10551.181641
20
590.551147
0
LWPOLYLINE
5
1050
100
AcDbEntity
100
AcDbPolyline
90
8
8
BottomLayer
70
0
43
0.000000
10
11023.622070
20
590.551147
10
11023.622070
20
610.236206
10
11023.622070
20
610.236206
42
-1.000000
10
11181.102539
20
610.236206
10
11181.102539
20
610.236206
10
11181.102539
20
590.551147
10
11181.102539
20
590.551147
10
11023.622070
20
590.551147
0
LWPOLYLINE
5
1051
100
AcDbEntity
100
AcDbPolyline
90
8
8
BottomLayer
70
0
43
0.000000
10
11496.062500
20
590.551147
10
11496.062500
20
610.236206
10
11496.062500
20
610.236206
42
-1.000000
10
11653.543945
20
610.236206
10
11653.543945
20
610.236206
10
11653.543945
20
590.551147
10
11653.543945
20
590.551147
10
11496.062500
20
590.551147
0
LWPOLYLINE
5
1052
100
AcDbEntity
100
AcDbPolyline
90
8
8
BottomLayer
70
0
43
0.000000
10
11968.503906
20
590.551147
10
11968.503906
20
610.236206
10
11968.503906
20
610.236206
42
-1.000000
10
12125.984375
20
610.236206
10
12125.984375
20
610.236206
10
12125.984375
20
590.551147
10
12125.984375
20
590.551147
10
11968.503906
20
590.551147
0
LWPOLYLINE
5
1053
100
AcDbEntity
100
AcDbPolyline
90
8
8
BottomLayer
70
0
43
0.000000
10
324.803162
20
16161.416992
10
324.803162
20
15836.618164
10
324.803162
20
15836.618164
42
1.000000
10
620.078735
20
15836.618164
10
620.078735
20
15836.618164
10
620.078735
20
16161.416992
10
620.078735
20
16161.416992
10
324.803162
20
16161.416992
0
LWPOLYLINE
5
1054
100
AcDbEntity
100
AcDbPolyline
90
8
8
BottomLayer
70
0
43
0.000000
10
2214.566895
20
16161.416992
10
2214.566895
20
15836.618164
10
2214.566895
20
15836.618164
42
1.000000
10
2509.842529
20
15836.618164
10
2509.842529
20
15836.618164
10
2509.842529
20
16161.416992
10
2509.842529
20
16161.416992
10
2214.566895
20
16161.416992
0
LWPOLYLINE
5
1055
100
AcDbEntity
100
AcDbPolyline
90
8
8
BottomLayer
70
0
43
0.000000
10
4104.330566
20
16161.416992
10
4104.330566
20
15836.618164
10
4104.330566
20
15836.618164
42
1.000000
10
4399.606445
20
15836.618164
10
4399.606445
20
15836.618164
10
4399.606445
20
16161.416992
10
4399.606445
20
16161.416992
10
4104.330566
20
16161.416992
0
LWPOLYLINE
5
1056
100
AcDbEntity
100
AcDbPolyline
90
8
8
BottomLayer
70
0
43
0.000000
10
5994.094727
20
16161.416992
10
5994.094727
20
15836.618164
10
5994.094727
20
15836.618164
42
1.000000
10
6289.370117
20
15836.618164
10
6289.370117
20
15836.618164
10
6289.370117
20
16161.416992
10
6289.370117
20
16161.416992
10
5994.094727
20
16161.416992
0
LWPOLYLINE
5
1057
100
AcDbEntity
100
AcDbPolyline
90
8
8
BottomLayer
70
0
43
0.000000
10
7411.417480
20
16161.416992
10
7411.417480
20
15836.618164
10
7411.417480
20
15836.618164
42
1.000000
10
7706.692871
20
15836.618164
10
7706.692871
20
15836.618164
10
7706.692871
20
16161.416992
10
7706.692871
20
16161.416992
10
7411.417480
20
16161.416992
0
LWPOLYLINE
5
1058
100
AcDbEntity
100
AcDbPolyline
90
8
8
BottomLayer
70
0
43
0.000000
10
9301.180664
20
16161.416992
10
9301.180664
20
15836.618164
10
9301.180664
20
15836.618164
42
1.000000
10
9596.457031
20
15836.618164
10
9596.457031
20
15836.618164
10
9596.457031
20
16161.416992
10
9596.457031
20
16161.416992
10
9301.180664
20
16161.416992
0
LWPOLYLINE
5
1059
100
AcDbEntity
100
AcDbPolyline
90
8
8
BottomLayer
70
0
43
0.000000
10
11663.385742
20
16161.416992
10
11663.385742
20
15836.618164
10
11663.385742
20
15836.618164
42
1.000000
10
11958.662109
20
15836.618164
10
11958.662109
20
15836.618164
10
11958.662109
20
16161.416992
10
11958.662109
20
16161.416992
10
11663.385742
20
16161.416992
0
LWPOLYLINE
5
1060
100
AcDbEntity
100
AcDbPolyline
90
8
8
BottomLayer
70
0
43
0.000000
10
620.078735
20
-19.685040
10
620.078735
20
305.118103
10
620.078735
20
305.118103
42
1.000000
10
324.803162
20
305.118103
10
324.803162
20
305.118103
10
324.803162
20
-19.685040
10
324.803162
20
-19.685040
10
620.078735
20
-19.685040
0
LWPOLYLINE
5
1061
100
AcDbEntity
100
AcDbPolyline
90
8
8
BottomLayer
70
0
43
0.000000
10
2509.842529
20
-19.685040
10
2509.842529
20
305.118103
10
2509.842529
20
305.118103
42
1.000000
10
2214.566895
20
305.118103
10
2214.566895
20
305.118103
10
2214.566895
20
-19.685040
10
2214.566895
20
-19.685040
10
2509.842529
20
-19.685040
0
LWPOLYLINE
5
1062
100
AcDbEntity
100
AcDbPolyline
90
8
8
BottomLayer
70
0
43
0.000000
10
4399.606445
20
-19.685040
10
4399.606445
20
305.118103
10
4399.606445
20
305.118103
42
1.000000
10
4104.330566
20
305.118103
10
4104.330566
20
305.118103
10
4104.330566
20
-19.685040
10
4104.330566
20
-19.685040
10
4399.606445
20
-19.685040
0
LWPOLYLINE
5
1063
100
AcDbEntity
100
AcDbPolyline
90
8
8
BottomLayer
70
0
43
0.000000
10
6289.370117
20
-19.685040
10
6289.370117
20
305.118103
10
6289.370117
20
305.118103
42
1.000000
10
5994.094727
20
305.118103
10
5994.094727
20
305.118103
10
5994.094727
20
-19.685040
10
5994.094727
20
-19.685040
10
6289.370117
20
-19.685040
0
LWPOLYLINE
5
1064
100
AcDbEntity
100
AcDbPolyline
90
8
8
BottomLayer
70
0
43
0.000000
10
8179.133789
20
-19.685040
10
8179.133789
20
305.118103
10
8179.133789
20
305.118103
42
1.000000
10
7883.858398
20
305.118103
10
7883.858398
20
305.118103
10
7883.858398
20
-19.685040
10
7883.858398
20
-19.685040
10
8179.133789
20
-19.685040
0
LWPOLYLINE
5
1065
100
AcDbEntity
100
AcDbPolyline
90
8
8
BottomLayer
70
0
43
0.000000
10
10068.897461
20
-19.685040
10
10068.897461
20
305.118103
10
10068.897461
20
305.118103
42
1.000000
10
9773.622070
20
305.118103
10
9773.622070
20
305.118103
10
9773.622070
20
-19.685040
10
9773.622070
20
-19.685040
10
10068.897461
20
-19.685040
0
LWPOLYLINE
5
1066
100
AcDbEntity
100
AcDbPolyline
90
8
8
BottomLayer
70
0
43
0.000000
10
11958.662109
20
-19.685040
10
11958.662109
20
305.118103
10
11958.662109
20
305.118103
42
1.000000
10
11663.385742
20
305.118103
10
11663.385742
20
305.118103
10
11663.385742
20
-19.685040
10
11663.385742
20
-19.685040
10
11958.662109
20
-19.685040
0
LWPOLYLINE
5
1067
100
AcDbEntity
100
AcDbPolyline
90
8
8
BottomLayer
70
0
43
0.000000
10
0.000000
20
0.000000
10
12283.464844
20
0.000000
10
12283.464844
20
0.000000
10
12283.464844
20
16141.735352
10
12283.464844
20
16141.735352
10
0.000000
20
16141.735352
10
0.000000
20
16141.735352
10
0.000000
20
0.000000
0
LWPOLYLINE
5
1068
100
AcDbEntity
100
AcDbPolyline
90
2
8
BottomLayer
70
0
43
0.000000
10
324.803162
20
15999.020508
10
620.078735
20
15999.020508
0
LWPOLYLINE
5
1069
100
AcDbEntity
100
AcDbPolyline
90
2
8
BottomLayer
70
0
43
0.000000
10
324.803162
20
15836.618164
10
620.078735
20
15836.618164
0
LWPOLYLINE
5
1070
100
AcDbEntity
100
AcDbPolyline
90
2
8
BottomLayer
70
0
43
0.000000
10
472.440948
20
15688.980469
10
472.440948
20
16161.416992
0
LWPOLYLINE
5
1071
100
AcDbEntity
100
AcDbPolyline
90
2
8
BottomLayer
70
0
43
0.000000
10
2214.566895
20
15999.020508
10
2509.842529
20
15999.020508
0
LWPOLYLINE
5
1072
100
AcDbEntity
100
AcDbPolyline
90
2
8
BottomLayer
70
0
43
0.000000
10
2214.566895
20
15836.618164
10
2509.842529
20
15836.618164
0
LWPOLYLINE
5
1073
100
AcDbEntity
100
AcDbPolyline
90
2
8
BottomLayer
70
0
43
0.000000
10
2362.204590
20
15688.980469
10
2362.204590
20
16161.416992
0
LWPOLYLINE
5
1074
100
AcDbEntity
100
AcDbPolyline
90
2
8
BottomLayer
70
0
43
0.000000
10
4104.330566
20
15999.020508
10
4399.606445
20
15999.020508
0
LWPOLYLINE
5
1075
100
AcDbEntity
100
AcDbPolyline
90
2
8
BottomLayer
70
0
43
0.000000
10
4104.330566
20
15836.618164
10
4399.606445
20
15836.618164
0
LWPOLYLINE
5
1076
100
AcDbEntity
100
AcDbPolyline
90
2
8
BottomLayer
70
0
43
0.000000
10
4251.968750
20
15688.980469
10
4251.968750
20
16161.416992
0
LWPOLYLINE
5
1077
100
AcDbEntity
100
AcDbPolyline
90
2
8
BottomLayer
70
0
43
0.000000
10
5994.094727
20
15999.020508
10
6289.370117
20
15999.020508
0
LWPOLYLINE
5
1078
100
AcDbEntity
100
AcDbPolyline
90
2
8
BottomLayer
70
0
43
0.000000
10
5994.094727
20
15836.618164
10
6289.370117
20
15836.618164
0
LWPOLYLINE
5
1079
100
AcDbEntity
100
AcDbPolyline
90
2
8
BottomLayer
70
0
43
0.000000
10
6141.732422
20
15688.980469
10
6141.732422
20
16161.416992
0
LWPOLYLINE
5
1080
100
AcDbEntity
100
AcDbPolyline
90
2
8
BottomLayer
70
0
43
0.000000
10
7411.417480
20
15999.020508
10
7706.692871
20
15999.020508
0
LWPOLYLINE
5
1081
100
AcDbEntity
100
AcDbPolyline
90
2
8
BottomLayer
70
0
43
0.000000
10
7411.417480
20
15836.618164
10
7706.692871
20
15836.618164
0
LWPOLYLINE
5
1082
100
AcDbEntity
100
AcDbPolyline
90
2
8
BottomLayer
70
0
43
0.000000
10
7559.055176
20
15688.980469
10
7559.055176
20
16161.416992
0
LWPOLYLINE
5
1083
100
AcDbEntity
100
AcDbPolyline
90
2
8
BottomLayer
70
0
43
0.000000
10
9301.180664
20
15999.020508
10
9596.457031
20
15999.020508
0
LWPOLYLINE
5
1084
100
AcDbEntity
100
AcDbPolyline
90
2
8
BottomLayer
70
0
43
0.000000
10
9301.180664
20
15836.618164
10
9596.457031
20
15836.618164
0
LWPOLYLINE
5
1085
100
AcDbEntity
100
AcDbPolyline
90
2
8
BottomLayer
70
0
43
0.000000
10
9448.818359
20
15688.980469
10
9448.818359
20
16161.416992
0
LWPOLYLINE
5
1086
100
AcDbEntity
100
AcDbPolyline
90
2
8
BottomLayer
70
0
43
0.000000
10
11663.385742
20
15999.020508
10
11958.662109
20
15999.020508
0
LWPOLYLINE
5
1087
100
AcDbEntity
100
AcDbPolyline
90
2
8
BottomLayer
70
0
43
0.000000
10
11663.385742
20
15836.618164
10
11958.662109
20
15836.618164
0
LWPOLYLINE
5
1088
100
AcDbEntity
100
AcDbPolyline
90
2
8
BottomLayer
70
0
43
0.000000
10
11811.024414
20
15688.980469
10
11811.024414
20
16161.416992
0
LWPOLYLINE
5
1089
100
AcDbEntity
100
AcDbPolyline
90
2
8
BottomLayer
70
0
43
0.000000
10
472.440948
20
452.755920
10
472.440948
20
-19.685040
0
LWPOLYLINE
5
1090
100
AcDbEntity
100
AcDbPolyline
90
2
8
BottomLayer
70
0
43
0.000000
10
620.078735
20
142.716537
10
324.803162
20
142.716537
0
LWPOLYLINE
5
1091
100
AcDbEntity
100
AcDbPolyline
90
2
8
BottomLayer
70
0
43
0.000000
10
620.078735
20
305.118103
10
324.803162
20
305.118103
0
LWPOLYLINE
5
1092
100
AcDbEntity
100
AcDbPolyline
90
2
8
BottomLayer
70
0
43
0.000000
10
2362.204590
20
452.755920
10
2362.204590
20
-19.685040
0
LWPOLYLINE
5
1093
100
AcDbEntity
100
AcDbPolyline
90
2
8
BottomLayer
70
0
43
0.000000
10
2509.842529
20
142.716537
10
2214.566895
20
142.716537
0
LWPOLYLINE
5
1094
100
AcDbEntity
100
AcDbPolyline
90
2
8
BottomLayer
70
0
43
0.000000
10
2509.842529
20
305.118103
10
2214.566895
20
305.118103
0
LWPOLYLINE
5
1095
100
AcDbEntity
100
AcDbPolyline
90
2
8
BottomLayer
70
0
43
0.000000
10
4251.968750
20
452.755920
10
4251.968750
20
-19.685040
0
LWPOLYLINE
5
1096
100
AcDbEntity
100
AcDbPolyline
90
2
8
BottomLayer
70
0
43
0.000000
10
4399.606445
20
142.716537
10
4104.330566
20
142.716537
0
LWPOLYLINE
5
1097
100
AcDbEntity
100
AcDbPolyline
90
2
8
BottomLayer
70
0
43
0.000000
10
4399.606445
20
305.118103
10
4104.330566
20
305.118103
0
LWPOLYLINE
5
1098
100
AcDbEntity
100
AcDbPolyline
90
2
8
BottomLayer
70
0
43
0.000000
10
6141.732422
20
452.755920
10
6141.732422
20
-19.685040
0
LWPOLYLINE
5
1099
100
AcDbEntity
100
AcDbPolyline
90
2
8
BottomLayer
70
0
43
0.000000
10
6289.370117
20
142.716537
10
5994.094727
20
142.716537
0
LWPOLYLINE
5
1100
100
AcDbEntity
100
AcDbPolyline
90
2
8
BottomLayer
70
0
43
0.000000
10
6289.370117
20
305.118103
10
5994.094727
20
305.118103
0
LWPOLYLINE
5
1101
100
AcDbEntity
100
AcDbPolyline
90
2
8
BottomLayer
70
0
43
0.000000
10
8031.496094
20
452.755920
10
8031.496094
20
-19.685040
0
LWPOLYLINE
5
1102
100
AcDbEntity
100
AcDbPolyline
90
2
8
BottomLayer
70
0
43
0.000000
10
8179.133789
20
142.716537
10
7883.858398
20
142.716537
0
LWPOLYLINE
5
1103
100
AcDbEntity
100
AcDbPolyline
90
2
8
BottomLayer
70
0
43
0.000000
10
8179.133789
20
305.118103
10
7883.858398
20
305.118103
0
LWPOLYLINE
5
1104
100
AcDbEntity
100
AcDbPolyline
90
2
8
BottomLayer
70
0
43
0.000000
10
9921.259766
20
452.755920
10
9921.259766
20
-19.685040
0
LWPOLYLINE
5
1105
100
AcDbEntity
100
AcDbPolyline
90
2
8
BottomLayer
70
0
43
0.000000
10
10068.897461
20
142.716537
10
9773.622070
20
142.716537
0
LWPOLYLINE
5
1106
100
AcDbEntity
100
AcDbPolyline
90
2
8
BottomLayer
70
0
43
0.000000
10
10068.897461
20
305.118103
10
9773.622070
20
305.118103
0
LWPOLYLINE
5
1107
100
AcDbEntity
100
AcDbPolyline
90
2
8
BottomLayer
70
0
43
0.000000
10
11811.024414
20
452.755920
10
11811.024414
20
-19.685040
0
LWPOLYLINE
5
1108
100
AcDbEntity
100
AcDbPolyline
90
2
8
BottomLayer
70
0
43
0.000000
10
11958.662109
20
142.716537
10
11663.385742
20
142.716537
0
LWPOLYLINE
5
1109
100
AcDbEntity
100
AcDbPolyline
90
2
8
BottomLayer
70
0
43
0.000000
10
11958.662109
20
305.118103
10
11663.385742
20
305.118103
0
LWPOLYLINE
5
1110
100
AcDbEntity
100
AcDbPolyline
90
12
8
BottomLayer
70
0
43
3.937008
10
11450.129883
20
1266.338501
10
11467.003906
20
1283.212646
10
11467.003906
20
1283.212646
10
11478.251953
20
1288.834595
10
11478.251953
20
1288.834595
10
11495.126953
20
1288.834595
10
11495.126953
20
1288.834595
10
11506.374023
20
1283.212646
10
11506.374023
20
1283.212646
10
11511.996094
20
1266.338501
10
11511.996094
20
1266.338501
10
11511.996094
20
1210.094482
0
LWPOLYLINE
5
1111
100
AcDbEntity
100
AcDbPolyline
90
12
8
BottomLayer
70
0
43
3.937008
10
11388.263672
20
1266.338501
10
11405.133789
20
1283.212646
10
11405.133789
20
1283.212646
10
11416.381836
20
1288.834595
10
11416.381836
20
1288.834595
10
11433.255859
20
1288.834595
10
11433.255859
20
1288.834595
10
11444.503906
20
1283.212646
10
11444.503906
20
1283.212646
10
11450.129883
20
1266.338501
10
11450.129883
20
1266.338501
10
11450.129883
20
1210.094482
0
LWPOLYLINE
5
1112
100
AcDbEntity
100
AcDbPolyline
90
2
8
BottomLayer
70
0
43
3.937008
10
11388.263672
20
1288.834595
10
11388.263672
20
1210.094482
0
LWPOLYLINE
5
1113
100
AcDbEntity
100
AcDbPolyline
90
12
8
BottomLayer
70
0
43
3.937008
10
11292.649414
20
1266.338501
10
11309.523438
20
1283.212646
10
11309.523438
20
1283.212646
10
11320.771484
20
1288.834595
10
11320.771484
20
1288.834595
10
11337.641602
20
1288.834595
10
11337.641602
20
1288.834595
10
11348.893555
20
1283.212646
10
11348.893555
20
1283.212646
10
11354.515625
20
1266.338501
10
11354.515625
20
1266.338501
10
11354.515625
20
1210.094482
0
LWPOLYLINE
5
1114
100
AcDbEntity
100
AcDbPolyline
90
12
8
BottomLayer
70
0
43
3.937008
10
11230.783203
20
1266.338501
10
11247.653320
20
1283.212646
10
11247.653320
20
1283.212646
10
11258.902344
20
1288.834595
10
11258.902344
20
1288.834595
10
11275.775391
20
1288.834595
10
11275.775391
20
1288.834595
10
11287.024414
20
1283.212646
10
11287.024414
20
1283.212646
10
11292.649414
20
1266.338501
10
11292.649414
20
1266.338501
10
11292.649414
20
1210.094482
0
LWPOLYLINE
5
1115
100
AcDbEntity
100
AcDbPolyline
90
2
8
BottomLayer
70
0
43
3.937008
10
11230.783203
20
1288.834595
10
11230.783203
20
1210.094482
0
LWPOLYLINE
5
1116
100
AcDbEntity
100
AcDbPolyline
90
32
8
BottomLayer
70
0
43
3.937008
10
11039.554688
20
1328.204712
10
11022.684570
20
1322.582642
10
11022.684570
20
1322.582642
10
11011.433594
20
1305.708618
10
11011.433594
20
1305.708618
10
11005.811523
20
1277.586548
10
11005.811523
20
1277.586548
10
11005.811523
20
1260.712646
10
11005.811523
20
1260.712646
10
11011.433594
20
1232.594482
10
11011.433594
20
1232.594482
10
11022.684570
20
1215.720459
10
11022.684570
20
1215.720459
10
11039.554688
20
1210.094482
10
11039.554688
20
1210.094482
10
11050.802734
20
1210.094482
10
11050.802734
20
1210.094482
10
11067.676758
20
1215.720459
10
11067.676758
20
1215.720459
10
11078.925781
20
1232.594482
10
11078.925781
20
1232.594482
10
11084.551758
20
1260.712646
10
11084.551758
20
1260.712646
10
11084.551758
20
1277.586548
10
11084.551758
20
1277.586548
10
11078.925781
20
1305.708618
10
11078.925781
20
1305.708618
10
11067.676758
20
1322.582642
10
11067.676758
20
1322.582642
10
11050.802734
20
1328.204712
10
11050.802734
20
1328.204712
10
11039.554688
20
1328.204712
0
LWPOLYLINE
5
1117
100
AcDbEntity
100
AcDbPolyline
90
6
8
BottomLayer
70
0
43
3.937008
10
10943.945313
20
1305.708618
10
10955.193359
20
1311.334595
10
10955.193359
20
1311.334595
10
10972.062500
20
1328.204712
10
10972.062500
20
1328.204712
10
10972.062500
20
1210.094482
0
LWPOLYLINE
5
1118
100
AcDbEntity
100
AcDbPolyline
90
2
8
BottomLayer
70
0
43
3.937008
10
10882.075195
20
1328.204712
10
10882.075195
20
1210.094482
0
LWPOLYLINE
5
1119
100
AcDbEntity
100
AcDbPolyline
90
4
8
BottomLayer
70
0
43
3.937008
10
10882.075195
20
1328.204712
10
10825.831055
20
1249.464600
10
10825.831055
20
1249.464600
10
10910.197266
20
1249.464600
0
LWPOLYLINE
5
1120
100
AcDbEntity
100
AcDbPolyline
90
2
8
BottomLayer
70
0
43
3.937008
10
10792.085938
20
1288.834595
10
10730.220703
20
1210.094482
0
LWPOLYLINE
5
1121
100
AcDbEntity
100
AcDbPolyline
90
2
8
BottomLayer
70
0
43
3.937008
10
10730.220703
20
1288.834595
10
10792.085938
20
1210.094482
0
LWPOLYLINE
5
1122
100
AcDbEntity
100
AcDbPolyline
90
26
8
BottomLayer
70
0
43
3.937008
10
10623.358398
20
1300.082642
10
10623.358398
20
1305.708618
10
10623.358398
20
1305.708618
10
10628.980469
20
1316.956665
10
10628.980469
20
1316.956665
10
10634.606445
20
1322.582642
10
10634.606445
20
1322.582642
10
10645.854492
20
1328.204712
10
10645.854492
20
1328.204712
10
10668.353516
20
1328.204712
10
10668.353516
20
1328.204712
10
10679.602539
20
1322.582642
10
10679.602539
20
1322.582642
10
10685.224609
20
1316.956665
10
10685.224609
20
1316.956665
10
10690.849609
20
1305.708618
10
10690.849609
20
1305.708618
10
10690.849609
20
1294.460693
10
10690.849609
20
1294.460693
10
10685.224609
20
1283.212646
10
10685.224609
20
1283.212646
10
10673.976563
20
1266.338501
10
10673.976563
20
1266.338501
10
10617.732422
20
1210.094482
10
10617.732422
20
1210.094482
10
10696.472656
20
1210.094482
0
LWPOLYLINE
5
1123
100
AcDbEntity
100
AcDbPolyline
90
6
8
BottomLayer
70
0
43
3.937008
10
10555.866211
20
1305.708618
10
10567.114258
20
1311.334595
10
10567.114258
20
1311.334595
10
10583.988281
20
1328.204712
10
10583.988281
20
1328.204712
10
10583.988281
20
1210.094482
0
LWPOLYLINE
5
1124
100
AcDbEntity
100
AcDbPolyline
90
28
8
BottomLayer
70
0
43
3.937008
10
10454.629883
20
1328.204712
10
10516.496094
20
1328.204712
10
10516.496094
20
1328.204712
10
10482.751953
20
1283.212646
10
10482.751953
20
1283.212646
10
10499.622070
20
1283.212646
10
10499.622070
20
1283.212646
10
10510.869141
20
1277.586548
10
10510.869141
20
1277.586548
10
10516.496094
20
1271.964600
10
10516.496094
20
1271.964600
10
10522.122070
20
1255.090454
10
10522.122070
20
1255.090454
10
10522.122070
20
1243.842407
10
10522.122070
20
1243.842407
10
10516.496094
20
1226.968506
10
10516.496094
20
1226.968506
10
10505.248047
20
1215.720459
10
10505.248047
20
1215.720459
10
10488.374023
20
1210.094482
10
10488.374023
20
1210.094482
10
10471.503906
20
1210.094482
10
10471.503906
20
1210.094482
10
10454.629883
20
1215.720459
10
10454.629883
20
1215.720459
10
10449.003906
20
1221.342529
10
10449.003906
20
1221.342529
10
10443.381836
20
1232.594482
0
LWPOLYLINE
5
1125
100
AcDbEntity
100
AcDbPolyline
90
32
8
BottomLayer
70
0
43
3.937008
10
11483.874023
20
1496.933105
10
11467.003906
20
1491.311035
10
11467.003906
20
1491.311035
10
11455.751953
20
1474.437012
10
11455.751953
20
1474.437012
10
11450.129883
20
1446.314941
10
11450.129883
20
1446.314941
10
11450.129883
20
1429.444946
10
11450.129883
20
1429.444946
10
11455.751953
20
1401.322754
10
11455.751953
20
1401.322754
10
11467.003906
20
1384.448853
10
11467.003906
20
1384.448853
10
11483.874023
20
1378.822754
10
11483.874023
20
1378.822754
10
11495.126953
20
1378.822754
10
11495.126953
20
1378.822754
10
11511.996094
20
1384.448853
10
11511.996094
20
1384.448853
10
11523.244141
20
1401.322754
10
11523.244141
20
1401.322754
10
11528.870117
20
1429.444946
10
11528.870117
20
1429.444946
10
11528.870117
20
1446.314941
10
11528.870117
20
1446.314941
10
11523.244141
20
1474.437012
10
11523.244141
20
1474.437012
10
11511.996094
20
1491.311035
10
11511.996094
20
1491.311035
10
11495.126953
20
1496.933105
10
11495.126953
20
1496.933105
10
11483.874023
20
1496.933105
0
LWPOLYLINE
5
1126
100
AcDbEntity
100
AcDbPolyline
90
56
8
BottomLayer
70
0
43
3.937008
10
11365.763672
20
1496.933105
10
11348.893555
20
1491.311035
10
11348.893555
20
1491.311035
10
11343.267578
20
1480.062988
10
11343.267578
20
1480.062988
10
11343.267578
20
1468.814941
10
11343.267578
20
1468.814941
10
11348.893555
20
1457.562988
10
11348.893555
20
1457.562988
10
11360.141602
20
1451.941040
10
11360.141602
20
1451.941040
10
11382.637695
20
1446.314941
10
11382.637695
20
1446.314941
10
11399.511719
20
1440.692993
10
11399.511719
20
1440.692993
10
11410.759766
20
1429.444946
10
11410.759766
20
1429.444946
10
11416.381836
20
1418.192993
10
11416.381836
20
1418.192993
10
11416.381836
20
1401.322754
10
11416.381836
20
1401.322754
10
11410.759766
20
1390.074829
10
11410.759766
20
1390.074829
10
11405.133789
20
1384.448853
10
11405.133789
20
1384.448853
10
11388.263672
20
1378.822754
10
11388.263672
20
1378.822754
10
11365.763672
20
1378.822754
10
11365.763672
20
1378.822754
10
11348.893555
20
1384.448853
10
11348.893555
20
1384.448853
10
11343.267578
20
1390.074829
10
11343.267578
20
1390.074829
10
11337.641602
20
1401.322754
10
11337.641602
20
1401.322754
10
11337.641602
20
1418.192993
10
11337.641602
20
1418.192993
10
11343.267578
20
1429.444946
10
11343.267578
20
1429.444946
10
11354.515625
20
1440.692993
10
11354.515625
20
1440.692993
10
11371.389648
20
1446.314941
10
11371.389648
20
1446.314941
10
11393.885742
20
1451.941040
10
11393.885742
20
1451.941040
10
11405.133789
20
1457.562988
10
11405.133789
20
1457.562988
10
11410.759766
20
1468.814941
10
11410.759766
20
1468.814941
10
11410.759766
20
1480.062988
10
11410.759766
20
1480.062988
10
11405.133789
20
1491.311035
10
11405.133789
20
1491.311035
10
11388.263672
20
1496.933105
10
11388.263672
20
1496.933105
10
11365.763672
20
1496.933105
0
LWPOLYLINE
5
1127
100
AcDbEntity
100
AcDbPolyline
90
2
8
BottomLayer
70
0
43
3.937008
10
11275.775391
20
1496.933105
10
11275.775391
20
1378.822754
0
LWPOLYLINE
5
1128
100
AcDbEntity
100
AcDbPolyline
90
4
8
BottomLayer
70
0
43
3.937008
10
11275.775391
20
1496.933105
10
11219.536133
20
1418.192993
10
11219.536133
20
1418.192993
10
11303.897461
20
1418.192993
0
LWPOLYLINE
5
1129
100
AcDbEntity
100
AcDbPolyline
90
2
8
BottomLayer
70
0
43
3.937008
10
11185.788086
20
1457.562988
10
11123.920898
20
1378.822754
0
LWPOLYLINE
5
1130
100
AcDbEntity
100
AcDbPolyline
90
2
8
BottomLayer
70
0
43
3.937008
10
11123.920898
20
1457.562988
10
11185.788086
20
1378.822754
0
LWPOLYLINE
5
1131
100
AcDbEntity
100
AcDbPolyline
90
26
8
BottomLayer
70
0
43
3.937008
10
11017.058594
20
1468.814941
10
11017.058594
20
1474.437012
10
11017.058594
20
1474.437012
10
11022.684570
20
1485.685059
10
11022.684570
20
1485.685059
10
11028.307617
20
1491.311035
10
11028.307617
20
1491.311035
10
11039.554688
20
1496.933105
10
11039.554688
20
1496.933105
10
11062.050781
20
1496.933105
10
11062.050781
20
1496.933105
10
11073.302734
20
1491.311035
10
11073.302734
20
1491.311035
10
11078.925781
20
1485.685059
10
11078.925781
20
1485.685059
10
11084.551758
20
1474.437012
10
11084.551758
20
1474.437012
10
11084.551758
20
1463.188965
10
11084.551758
20
1463.188965
10
11078.925781
20
1451.941040
10
11078.925781
20
1451.941040
10
11067.676758
20
1435.066895
10
11067.676758
20
1435.066895
10
11011.433594
20
1378.822754
10
11011.433594
20
1378.822754
10
11090.172852
20
1378.822754
0
LWPOLYLINE
5
1132
100
AcDbEntity
100
AcDbPolyline
90
44
8
BottomLayer
70
0
43
3.937008
10
10972.062500
20
1480.062988
10
10966.441406
20
1491.311035
10
10966.441406
20
1491.311035
10
10949.566406
20
1496.933105
10
10949.566406
20
1496.933105
10
10938.319336
20
1496.933105
10
10938.319336
20
1496.933105
10
10921.444336
20
1491.311035
10
10921.444336
20
1491.311035
10
10910.197266
20
1474.437012
10
10910.197266
20
1474.437012
10
10904.571289
20
1446.314941
10
10904.571289
20
1446.314941
10
10904.571289
20
1418.192993
10
10904.571289
20
1418.192993
10
10910.197266
20
1395.696899
10
10910.197266
20
1395.696899
10
10921.444336
20
1384.448853
10
10921.444336
20
1384.448853
10
10938.319336
20
1378.822754
10
10938.319336
20
1378.822754
10
10943.945313
20
1378.822754
10
10943.945313
20
1378.822754
10
10960.815430
20
1384.448853
10
10960.815430
20
1384.448853
10
10972.062500
20
1395.696899
10
10972.062500
20
1395.696899
10
10977.689453
20
1412.570801
10
10977.689453
20
1412.570801
10
10977.689453
20
1418.192993
10
10977.689453
20
1418.192993
10
10972.062500
20
1435.066895
10
10972.062500
20
1435.066895
10
10960.815430
20
1446.314941
10
10960.815430
20
1446.314941
10
10943.945313
20
1451.941040
10
10943.945313
20
1451.941040
10
10938.319336
20
1451.941040
10
10938.319336
20
1451.941040
10
10921.444336
20
1446.314941
10
10921.444336
20
1446.314941
10
10910.197266
20
1435.066895
10
10910.197266
20
1435.066895
10
10904.571289
20
1418.192993
0
LWPOLYLINE
5
1133
100
AcDbEntity
100
AcDbPolyline
90
28
8
BottomLayer
70
0
43
3.937008
10
10803.334961
20
1496.933105
10
10865.205078
20
1496.933105
10
10865.205078
20
1496.933105
10
10831.457031
20
1451.941040
10
10831.457031
20
1451.941040
10
10848.330078
20
1451.941040
10
10848.330078
20
1451.941040
10
10859.579102
20
1446.314941
10
10859.579102
20
1446.314941
10
10865.205078
20
1440.692993
10
10865.205078
20
1440.692993
10
10870.826172
20
1423.818848
10
10870.826172
20
1423.818848
10
10870.826172
20
1412.570801
10
10870.826172
20
1412.570801
10
10865.205078
20
1395.696899
10
10865.205078
20
1395.696899
10
10853.953125
20
1384.448853
10
10853.953125
20
1384.448853
10
10837.078125
20
1378.822754
10
10837.078125
20
1378.822754
10
10820.208008
20
1378.822754
10
10820.208008
20
1378.822754
10
10803.334961
20
1384.448853
10
10803.334961
20
1384.448853
10
10797.711914
20
1390.074829
10
10797.711914
20
1390.074829
10
10792.085938
20
1401.322754
0
LWPOLYLINE
5
1134
100
AcDbEntity
100
AcDbPolyline
90
2
8
BottomLayer
70
0
43
3.937008
10
10606.484375
20
1440.692993
10
10645.854492
20
1378.822754
0
LWPOLYLINE
5
1135
100
AcDbEntity
100
AcDbPolyline
90
18
8
BottomLayer
70
0
43
3.937008
10
10567.114258
20
1496.933105
10
10617.732422
20
1496.933105
10
10617.732422
20
1496.933105
10
10634.606445
20
1491.311035
10
10634.606445
20
1491.311035
10
10640.232422
20
1485.685059
10
10640.232422
20
1485.685059
10
10645.854492
20
1474.437012
10
10645.854492
20
1474.437012
10
10645.854492
20
1463.188965
10
10645.854492
20
1463.188965
10
10640.232422
20
1451.941040
10
10640.232422
20
1451.941040
10
10634.606445
20
1446.314941
10
10634.606445
20
1446.314941
10
10617.732422
20
1440.692993
10
10617.732422
20
1440.692993
10
10567.114258
20
1440.692993
0
LWPOLYLINE
5
1136
100
AcDbEntity
100
AcDbPolyline
90
2
8
BottomLayer
70
0
43
3.937008
10
10567.114258
20
1496.933105
10
10567.114258
20
1378.822754
0
LWPOLYLINE
5
1137
100
AcDbEntity
100
AcDbPolyline
90
2
8
BottomLayer
70
0
43
3.937008
10
10494.000000
20
1401.322754
10
10527.744141
20
1367.574707
0
LWPOLYLINE
5
1138
100
AcDbEntity
100
AcDbPolyline
90
40
8
BottomLayer
70
0
43
3.937008
10
10477.125977
20
1496.933105
10
10465.877930
20
1491.311035
10
10465.877930
20
1491.311035
10
10454.629883
20
1480.062988
10
10454.629883
20
1480.062988
10
10449.003906
20
1468.814941
10
10449.003906
20
1468.814941
10
10443.381836
20
1451.941040
10
10443.381836
20
1451.941040
10
10443.381836
20
1423.818848
10
10443.381836
20
1423.818848
10
10449.003906
20
1406.944946
10
10449.003906
20
1406.944946
10
10454.629883
20
1395.696899
10
10454.629883
20
1395.696899
10
10465.877930
20
1384.448853
10
10465.877930
20
1384.448853
10
10477.125977
20
1378.822754
10
10477.125977
20
1378.822754
10
10499.622070
20
1378.822754
10
10499.622070
20
1378.822754
10
10510.869141
20
1384.448853
10
10510.869141
20
1384.448853
10
10522.122070
20
1395.696899
10
10522.122070
20
1395.696899
10
10527.744141
20
1406.944946
10
10527.744141
20
1406.944946
10
10533.370117
20
1423.818848
10
10533.370117
20
1423.818848
10
10533.370117
20
1451.941040
10
10533.370117
20
1451.941040
10
10527.744141
20
1468.814941
10
10527.744141
20
1468.814941
10
10522.122070
20
1480.062988
10
10522.122070
20
1480.062988
10
10510.869141
20
1491.311035
10
10510.869141
20
1491.311035
10
10499.622070
20
1496.933105
10
10499.622070
20
1496.933105
10
10477.125977
20
1496.933105
  0
ENDSEC
  0
SECTION
  2
OBJECTS
  0
DICTIONARY
  5
C
330
0
100
AcDbDictionary
  3
ACAD_GROUP
350
D
  3
ACAD_PLOTSTYLENAME
350
E
  3
ACAD_MLINESTYLE
350
17
  3
ACAD_PLOTSETTINGS
350
19
  3
ACAD_LAYOUT
350
1A
  3
ACDBHEADERROUNDTRIPXREC
350
2C
  0
DICTIONARY
  5
4E
330
1F
100
AcDbDictionary
280
     1
  3
ACAD_LAYOUTSELFREF
360
4F
  0
DICTIONARY
  5
4C
330
1B
100
AcDbDictionary
280
     1
  3
ACAD_LAYOUTSELFREF
360
4D
  0
DICTIONARY
  5
D
102
{ACAD_REACTORS
330
C
102
}
330
C
100
AcDbDictionary
  0
ACDBDICTIONARYWDFLT
  5
E
102
{ACAD_REACTORS
330
C
102
}
330
C
100
AcDbDictionary
281
     1
  3
Normal
350
F
100
AcDbDictionaryWithDefault
340
F
  0
DICTIONARY
  5
17
102
{ACAD_REACTORS
330
C
102
}
330
C
100
AcDbDictionary
  3
STANDARD
350
18
  0
DICTIONARY
  5
19
102
{ACAD_REACTORS
330
C
102
}
330
C
100
AcDbDictionary
  0
DICTIONARY
  5
1A
102
{ACAD_REACTORS
330
C
102
}
330
C
100
AcDbDictionary
  0
DICTIONARY
  5
2C
102
{ACAD_REACTORS
330
C
102
}
330
C
100
AcDbDictionary
  3
TSTACKALIGN
350
2D
  3
TSTACKSIZE
350
2E
  3
HYPERLINKBASE
350
2F
  3
STYLESHEET
350
30
  3
LAYOUTDICT
350
31
  3
PLOTSETDICT
350
32
  3
PLOTSTYLNAMDICT
350
33
  3
LWETCUNION
350
34
  3
INSUNITS
350
35
  3
CEPSNTYPE
350
36
  3
FINGERPRINTGUID
350
37
  3
VERSIONGUID
350
38
  3
PSVPSCALE
350
39
  3
PUCSORTHOREF
350
3A
  3
PUCSORTHOVIEW
350
3B
  3
PUCSBASE
350
3C
  3
PUCSORGTOP
350
3D
  3
PUCSORGBOTTOM
350
3E
  3
PUCSORGLEFT
350
3F
  3
PUCSORGRIGHT
350
40
  3
PUCSORGFRONT
350
41
  3
PUCSORGBACK
350
42
  3
UCSORTHOREF
350
43
  3
UCSORTHOVIEW
350
44
  3
UCSBASE
350
45
  3
UCSORGTOP
350
46
  3
UCSORGBOTTOM
350
47
  3
UCSORGLEFT
350
48
  3
UCSORGRIGHT
350
49
  3
UCSORGFRONT
350
4A
  3
UCSORGBACK
350
4B
  0
XRECORD
  5
4F
102
{ACAD_REACTORS
330
4E
102
}
330
4E
100
AcDbXrecord
340
1F
  0
XRECORD
  5
4D
102
{ACAD_REACTORS
330
4C
102
}
330
4C
100
AcDbXrecord
340
1B
  0
ACDBPLACEHOLDER
  5
F
102
{ACAD_REACTORS
330
E
102
}
330
E
100
AcDbPlaceHolder
280
     0
  0
MLINESTYLE
  5
18
102
{ACAD_REACTORS
330
17
102
}
330
17
100
AcDbMlineStyle
  2
STANDARD
 70
     0
  3

 62
   256
 51
90.0
 52
90.0
 71
     2
 49
0.5
 62
   256
  6
BYLAYER
 49
-0.5
 62
   256
  6
BYLAYER
  0
XRECORD
  5
2D
102
{ACAD_REACTORS
330
2C
102
}
330
2C
100
AcDbXrecord
 90
        1
  0
XRECORD
  5
2E
102
{ACAD_REACTORS
330
2C
102
}
330
2C
100
AcDbXrecord
 90
       70
  0
XRECORD
  5
2F
102
{ACAD_REACTORS
330
2C
102
}
330
2C
100
AcDbXrecord
  1

  0
XRECORD
  5
30
102
{ACAD_REACTORS
330
2C
102
}
330
2C
100
AcDbXrecord
  1

  0
XRECORD
  5
31
102
{ACAD_REACTORS
330
2C
102
}
330
2C
100
AcDbXrecord
340
1A
  0
XRECORD
  5
32
102
{ACAD_REACTORS
330
2C
102
}
330
2C
100
AcDbXrecord
340
19
  0
XRECORD
  5
33
102
{ACAD_REACTORS
330
2C
102
}
330
2C
100
AcDbXrecord
340
E
  0
XRECORD
  5
34
102
{ACAD_REACTORS
330
2C
102
}
330
2C
100
AcDbXrecord
 90
    10781
  0
XRECORD
  5
35
102
{ACAD_REACTORS
330
2C
102
}
330
2C
100
AcDbXrecord
 90
        1
  0
XRECORD
  5
36
102
{ACAD_REACTORS
330
2C
102
}
330
2C
100
AcDbXrecord
 90
        0
  0
XRECORD
  5
37
102
{ACAD_REACTORS
330
2C
102
}
330
2C
100
AcDbXrecord
  1
{52E71EDF-FFAA-4562-8346-3267B235A6A4}
  0
XRECORD
  5
38
102
{ACAD_REACTORS
330
2C
102
}
330
2C
100
AcDbXrecord
  1
{9F761B99-1ECE-458C-A54E-C2AD2766E43A}
  0
XRECORD
  5
39
102
{ACAD_REACTORS
330
2C
102
}
330
2C
100
AcDbXrecord
 40
0.0
  0
XRECORD
  5
3A
102
{ACAD_REACTORS
330
2C
102
}
330
2C
100
AcDbXrecord
340
0
  0
XRECORD
  5
3B
102
{ACAD_REACTORS
330
2C
102
}
330
2C
100
AcDbXrecord
 70
     0
  0
XRECORD
  5
3C
102
{ACAD_REACTORS
330
2C
102
}
330
2C
100
AcDbXrecord
340
0
  0
XRECORD
  5
3D
102
{ACAD_REACTORS
330
2C
102
}
330
2C
100
AcDbXrecord
 10
0.0
 20
0.0
 30
0.0
  0
XRECORD
  5
3E
102
{ACAD_REACTORS
330
2C
102
}
330
2C
100
AcDbXrecord
 10
0.0
 20
0.0
 30
0.0
  0
XRECORD
  5
3F
102
{ACAD_REACTORS
330
2C
102
}
330
2C
100
AcDbXrecord
 10
0.0
 20
0.0
 30
0.0
  0
XRECORD
  5
40
102
{ACAD_REACTORS
330
2C
102
}
330
2C
100
AcDbXrecord
 10
0.0
 20
0.0
 30
0.0
  0
XRECORD
  5
41
102
{ACAD_REACTORS
330
2C
102
}
330
2C
100
AcDbXrecord
 10
0.0
 20
0.0
 30
0.0
  0
XRECORD
  5
42
102
{ACAD_REACTORS
330
2C
102
}
330
2C
100
AcDbXrecord
 10
0.0
 20
0.0
 30
0.0
  0
XRECORD
  5
43
102
{ACAD_REACTORS
330
2C
102
}
330
2C
100
AcDbXrecord
340
0
  0
XRECORD
  5
44
102
{ACAD_REACTORS
330
2C
102
}
330
2C
100
AcDbXrecord
 70
     0
  0
XRECORD
  5
45
102
{ACAD_REACTORS
330
2C
102
}
330
2C
100
AcDbXrecord
340
0
  0
XRECORD
  5
46
102
{ACAD_REACTORS
330
2C
102
}
330
2C
100
AcDbXrecord
 10
0.0
 20
0.0
 30
0.0
  0
XRECORD
  5
47
102
{ACAD_REACTORS
330
2C
102
}
330
2C
100
AcDbXrecord
 10
0.0
 20
0.0
 30
0.0
  0
XRECORD
  5
48
102
{ACAD_REACTORS
330
2C
102
}
330
2C
100
AcDbXrecord
 10
0.0
 20
0.0
 30
0.0
  0
XRECORD
  5
49
102
{ACAD_REACTORS
330
2C
102
}
330
2C
100
AcDbXrecord
 10
0.0
 20
0.0
 30
0.0
  0
XRECORD
  5
4A
102
{ACAD_REACTORS
330
2C
102
}
330
2C
100
AcDbXrecord
 10
0.0
 20
0.0
 30
0.0
  0
XRECORD
  5
4B
102
{ACAD_REACTORS
330
2C
102
}
330
2C
100
AcDbXrecord
 10
0.0
 20
0.0
 30
0.0
  0
ENDSEC
  0
EOF

