%FSLAX45Y45*%
G04 Gerber Fmt 4.5, Leading zero omitted, Abs format (unit mm)*
G04 Created by KiCad (PCBNEW 6.0.1-79c1e3a40b~116~ubuntu20.04.1) date 2022-07-13 18:58:01*
%MOMM*%
%LPD*%
G01*
G04 APERTURE LIST*
%TA.AperFunction,Profile*%
%ADD10C,0.500000*%
%TD*%
%ADD11C,0.200000*%
%ADD12C,0.040000*%
%ADD13C,0.065000*%
%ADD14C,0.070000*%
%ADD15C,0.076200*%
%ADD16C,0.090000*%
%ADD17C,0.100000*%
%ADD18C,0.107500*%
%ADD19C,0.129540*%
%ADD20C,0.270000*%
G04 APERTURE END LIST*
D10*
X4195000Y-2100000D02*
X6205000Y-2100000D01*
X4195000Y-2100000D02*
X4195000Y-18100000D01*
X7905000Y-2100000D02*
X8695000Y-2100000D01*
X4195000Y-18100000D02*
X14195000Y-18100000D01*
X7905000Y-2100000D02*
X7905000Y-3170000D01*
X10395000Y-2100000D02*
X14195000Y-2100000D01*
X6205000Y-3170000D02*
X7905000Y-3170000D01*
X8695000Y-3160000D02*
X10395000Y-3160000D01*
X8695000Y-2100000D02*
X8695000Y-3160000D01*
X6205000Y-2100000D02*
X6205000Y-3170000D01*
X10395000Y-2100000D02*
X10395000Y-3160000D01*
X14195000Y-18100000D02*
X14195000Y-2100000D01*
D11*
D12*
X4587375Y-15194875D02*
X4627375Y-15234875D01*
X4627375Y-15194875D02*
X4587375Y-15234875D01*
X4725000Y-16784000D02*
X4765000Y-16824000D01*
X4765000Y-16784000D02*
X4725000Y-16824000D01*
X4725000Y-16934000D02*
X4765000Y-16974000D01*
X4765000Y-16934000D02*
X4725000Y-16974000D01*
X4725000Y-17084000D02*
X4765000Y-17124000D01*
X4765000Y-17084000D02*
X4725000Y-17124000D01*
X4725000Y-17530000D02*
X4765000Y-17570000D01*
X4765000Y-17530000D02*
X4725000Y-17570000D01*
X4725000Y-17680000D02*
X4765000Y-17720000D01*
X4765000Y-17680000D02*
X4725000Y-17720000D01*
X4725000Y-17830000D02*
X4765000Y-17870000D01*
X4765000Y-17830000D02*
X4725000Y-17870000D01*
X4755000Y-13050000D02*
X4795000Y-13090000D01*
X4795000Y-13050000D02*
X4755000Y-13090000D01*
X4755000Y-13840000D02*
X4795000Y-13880000D01*
X4795000Y-13840000D02*
X4755000Y-13880000D01*
X4755000Y-14160000D02*
X4795000Y-14200000D01*
X4795000Y-14160000D02*
X4755000Y-14200000D01*
X4765000Y-8550000D02*
X4805000Y-8590000D01*
X4805000Y-8550000D02*
X4765000Y-8590000D01*
X4765000Y-8890000D02*
X4805000Y-8930000D01*
X4805000Y-8890000D02*
X4765000Y-8930000D01*
X4765000Y-12730000D02*
X4805000Y-12770000D01*
X4805000Y-12730000D02*
X4765000Y-12770000D01*
X4767500Y-9700000D02*
X4807500Y-9740000D01*
X4807500Y-9700000D02*
X4767500Y-9740000D01*
X4767500Y-10030000D02*
X4807500Y-10070000D01*
X4807500Y-10030000D02*
X4767500Y-10070000D01*
X4785000Y-5514000D02*
X4825000Y-5554000D01*
X4825000Y-5514000D02*
X4785000Y-5554000D01*
X4810000Y-11830000D02*
X4850000Y-11870000D01*
X4850000Y-11830000D02*
X4810000Y-11870000D01*
X4830000Y-14760000D02*
X4870000Y-14800000D01*
X4870000Y-14760000D02*
X4830000Y-14800000D01*
X4875000Y-16784000D02*
X4915000Y-16824000D01*
X4915000Y-16784000D02*
X4875000Y-16824000D01*
X4875000Y-16934000D02*
X4915000Y-16974000D01*
X4915000Y-16934000D02*
X4875000Y-16974000D01*
X4875000Y-17084000D02*
X4915000Y-17124000D01*
X4915000Y-17084000D02*
X4875000Y-17124000D01*
X4875000Y-17530000D02*
X4915000Y-17570000D01*
X4915000Y-17530000D02*
X4875000Y-17570000D01*
X4875000Y-17680000D02*
X4915000Y-17720000D01*
X4915000Y-17680000D02*
X4875000Y-17720000D01*
X4875000Y-17830000D02*
X4915000Y-17870000D01*
X4915000Y-17830000D02*
X4875000Y-17870000D01*
X4895000Y-5514000D02*
X4935000Y-5554000D01*
X4935000Y-5514000D02*
X4895000Y-5554000D01*
X4895000Y-8550000D02*
X4935000Y-8590000D01*
X4935000Y-8550000D02*
X4895000Y-8590000D01*
X4895000Y-8890000D02*
X4935000Y-8930000D01*
X4935000Y-8890000D02*
X4895000Y-8930000D01*
X4895000Y-12730000D02*
X4935000Y-12770000D01*
X4935000Y-12730000D02*
X4895000Y-12770000D01*
X4895000Y-13050000D02*
X4935000Y-13090000D01*
X4935000Y-13050000D02*
X4895000Y-13090000D01*
X4895000Y-13840000D02*
X4935000Y-13880000D01*
X4935000Y-13840000D02*
X4895000Y-13880000D01*
X4895000Y-14160000D02*
X4935000Y-14200000D01*
X4935000Y-14160000D02*
X4895000Y-14200000D01*
X4897500Y-9700000D02*
X4937500Y-9740000D01*
X4937500Y-9700000D02*
X4897500Y-9740000D01*
X4897500Y-10030000D02*
X4937500Y-10070000D01*
X4937500Y-10030000D02*
X4897500Y-10070000D01*
X4898125Y-15151375D02*
X4938125Y-15191375D01*
X4938125Y-15151375D02*
X4898125Y-15191375D01*
X5015000Y-5514000D02*
X5055000Y-5554000D01*
X5055000Y-5514000D02*
X5015000Y-5554000D01*
X5017500Y-9700000D02*
X5057500Y-9740000D01*
X5057500Y-9700000D02*
X5017500Y-9740000D01*
X5017500Y-10030000D02*
X5057500Y-10070000D01*
X5057500Y-10030000D02*
X5017500Y-10070000D01*
X5025000Y-12730000D02*
X5065000Y-12770000D01*
X5065000Y-12730000D02*
X5025000Y-12770000D01*
X5025000Y-13050000D02*
X5065000Y-13090000D01*
X5065000Y-13050000D02*
X5025000Y-13090000D01*
X5025000Y-13840000D02*
X5065000Y-13880000D01*
X5065000Y-13840000D02*
X5025000Y-13880000D01*
X5025000Y-14160000D02*
X5065000Y-14200000D01*
X5065000Y-14160000D02*
X5025000Y-14200000D01*
X5025000Y-16784000D02*
X5065000Y-16824000D01*
X5065000Y-16784000D02*
X5025000Y-16824000D01*
X5025000Y-16934000D02*
X5065000Y-16974000D01*
X5065000Y-16934000D02*
X5025000Y-16974000D01*
X5025000Y-17084000D02*
X5065000Y-17124000D01*
X5065000Y-17084000D02*
X5025000Y-17124000D01*
X5025000Y-17530000D02*
X5065000Y-17570000D01*
X5065000Y-17530000D02*
X5025000Y-17570000D01*
X5025000Y-17680000D02*
X5065000Y-17720000D01*
X5065000Y-17680000D02*
X5025000Y-17720000D01*
X5025000Y-17830000D02*
X5065000Y-17870000D01*
X5065000Y-17830000D02*
X5025000Y-17870000D01*
X5035000Y-8550000D02*
X5075000Y-8590000D01*
X5075000Y-8550000D02*
X5035000Y-8590000D01*
X5035000Y-8890000D02*
X5075000Y-8930000D01*
X5075000Y-8890000D02*
X5035000Y-8930000D01*
X5035000Y-15607550D02*
X5075000Y-15647550D01*
X5075000Y-15607550D02*
X5035000Y-15647550D01*
X5037450Y-11565050D02*
X5077450Y-11605050D01*
X5077450Y-11565050D02*
X5037450Y-11605050D01*
X5165000Y-15490000D02*
X5205000Y-15530000D01*
X5205000Y-15490000D02*
X5165000Y-15530000D01*
X5195000Y-5514000D02*
X5235000Y-5554000D01*
X5235000Y-5514000D02*
X5195000Y-5554000D01*
X5237249Y-11637500D02*
X5277249Y-11677500D01*
X5277249Y-11637500D02*
X5237249Y-11677500D01*
X5275000Y-4849000D02*
X5315000Y-4889000D01*
X5315000Y-4849000D02*
X5275000Y-4889000D01*
X5315000Y-5514000D02*
X5355000Y-5554000D01*
X5355000Y-5514000D02*
X5315000Y-5554000D01*
X5335000Y-3080000D02*
X5375000Y-3120000D01*
X5375000Y-3080000D02*
X5335000Y-3120000D01*
X5335000Y-3190000D02*
X5375000Y-3230000D01*
X5375000Y-3190000D02*
X5335000Y-3230000D01*
X5360000Y-3540000D02*
X5400000Y-3580000D01*
X5400000Y-3540000D02*
X5360000Y-3580000D01*
X5375000Y-4849000D02*
X5415000Y-4889000D01*
X5415000Y-4849000D02*
X5375000Y-4889000D01*
X5420000Y-15330000D02*
X5460000Y-15370000D01*
X5460000Y-15330000D02*
X5420000Y-15370000D01*
X5435000Y-5514000D02*
X5475000Y-5554000D01*
X5475000Y-5514000D02*
X5435000Y-5554000D01*
X5475000Y-4849000D02*
X5515000Y-4889000D01*
X5515000Y-4849000D02*
X5475000Y-4889000D01*
X5480000Y-14920000D02*
X5520000Y-14960000D01*
X5520000Y-14920000D02*
X5480000Y-14960000D01*
X5505000Y-16069500D02*
X5545000Y-16109500D01*
X5545000Y-16069500D02*
X5505000Y-16109500D01*
X5580000Y-7430000D02*
X5620000Y-7470000D01*
X5620000Y-7430000D02*
X5580000Y-7470000D01*
X5580000Y-7530000D02*
X5620000Y-7570000D01*
X5620000Y-7530000D02*
X5580000Y-7570000D01*
X5585000Y-3080000D02*
X5625000Y-3120000D01*
X5625000Y-3080000D02*
X5585000Y-3120000D01*
X5585000Y-3190000D02*
X5625000Y-3230000D01*
X5625000Y-3190000D02*
X5585000Y-3230000D01*
X5585000Y-7200000D02*
X5625000Y-7240000D01*
X5625000Y-7200000D02*
X5585000Y-7240000D01*
X5585000Y-7310000D02*
X5625000Y-7350000D01*
X5625000Y-7310000D02*
X5585000Y-7350000D01*
X5600000Y-3540000D02*
X5640000Y-3580000D01*
X5640000Y-3540000D02*
X5600000Y-3580000D01*
X5602500Y-9720000D02*
X5642500Y-9760000D01*
X5642500Y-9720000D02*
X5602500Y-9760000D01*
X5605000Y-8550000D02*
X5645000Y-8590000D01*
X5645000Y-8550000D02*
X5605000Y-8590000D01*
X5605000Y-8890000D02*
X5645000Y-8930000D01*
X5645000Y-8890000D02*
X5605000Y-8930000D01*
X5605000Y-12730000D02*
X5645000Y-12770000D01*
X5645000Y-12730000D02*
X5605000Y-12770000D01*
X5605000Y-13050000D02*
X5645000Y-13090000D01*
X5645000Y-13050000D02*
X5605000Y-13090000D01*
X5605000Y-13840000D02*
X5645000Y-13880000D01*
X5645000Y-13840000D02*
X5605000Y-13880000D01*
X5605000Y-14160000D02*
X5645000Y-14200000D01*
X5645000Y-14160000D02*
X5605000Y-14200000D01*
X5607500Y-9990000D02*
X5647500Y-10030000D01*
X5647500Y-9990000D02*
X5607500Y-10030000D01*
X5762500Y-9720000D02*
X5802500Y-9760000D01*
X5802500Y-9720000D02*
X5762500Y-9760000D01*
X5765000Y-8550000D02*
X5805000Y-8590000D01*
X5805000Y-8550000D02*
X5765000Y-8590000D01*
X5765000Y-8890000D02*
X5805000Y-8930000D01*
X5805000Y-8890000D02*
X5765000Y-8930000D01*
X5765000Y-12730000D02*
X5805000Y-12770000D01*
X5805000Y-12730000D02*
X5765000Y-12770000D01*
X5765000Y-13050000D02*
X5805000Y-13090000D01*
X5805000Y-13050000D02*
X5765000Y-13090000D01*
X5765000Y-13840000D02*
X5805000Y-13880000D01*
X5805000Y-13840000D02*
X5765000Y-13880000D01*
X5765000Y-14160000D02*
X5805000Y-14200000D01*
X5805000Y-14160000D02*
X5765000Y-14200000D01*
X5767500Y-9990000D02*
X5807500Y-10030000D01*
X5807500Y-9990000D02*
X5767500Y-10030000D01*
X5922500Y-9720000D02*
X5962500Y-9760000D01*
X5962500Y-9720000D02*
X5922500Y-9760000D01*
X5925000Y-8550000D02*
X5965000Y-8590000D01*
X5965000Y-8550000D02*
X5925000Y-8590000D01*
X5925000Y-8890000D02*
X5965000Y-8930000D01*
X5965000Y-8890000D02*
X5925000Y-8930000D01*
X5925000Y-12730000D02*
X5965000Y-12770000D01*
X5965000Y-12730000D02*
X5925000Y-12770000D01*
X5925000Y-13050000D02*
X5965000Y-13090000D01*
X5965000Y-13050000D02*
X5925000Y-13090000D01*
X5925000Y-13840000D02*
X5965000Y-13880000D01*
X5965000Y-13840000D02*
X5925000Y-13880000D01*
X5925000Y-14160000D02*
X5965000Y-14200000D01*
X5965000Y-14160000D02*
X5925000Y-14200000D01*
X5927500Y-9990000D02*
X5967500Y-10030000D01*
X5967500Y-9990000D02*
X5927500Y-10030000D01*
X5995000Y-11637550D02*
X6035000Y-11677550D01*
X6035000Y-11637550D02*
X5995000Y-11677550D01*
X6010000Y-3390000D02*
X6050000Y-3430000D01*
X6050000Y-3390000D02*
X6010000Y-3430000D01*
X6125000Y-11970000D02*
X6165000Y-12010000D01*
X6165000Y-11970000D02*
X6125000Y-12010000D01*
X6215000Y-3964000D02*
X6255000Y-4004000D01*
X6255000Y-3964000D02*
X6215000Y-4004000D01*
X6215000Y-4064000D02*
X6255000Y-4104000D01*
X6255000Y-4064000D02*
X6215000Y-4104000D01*
X6225000Y-13000500D02*
X6265000Y-13040500D01*
X6265000Y-13000500D02*
X6225000Y-13040500D01*
X6225000Y-13100500D02*
X6265000Y-13140500D01*
X6265000Y-13100500D02*
X6225000Y-13140500D01*
X6225000Y-13200500D02*
X6265000Y-13240500D01*
X6265000Y-13200500D02*
X6225000Y-13240500D01*
X6225000Y-13300500D02*
X6265000Y-13340500D01*
X6265000Y-13300500D02*
X6225000Y-13340500D01*
X6225000Y-13400500D02*
X6265000Y-13440500D01*
X6265000Y-13400500D02*
X6225000Y-13440500D01*
X6225000Y-13500500D02*
X6265000Y-13540500D01*
X6265000Y-13500500D02*
X6225000Y-13540500D01*
X6225000Y-13600500D02*
X6265000Y-13640500D01*
X6265000Y-13600500D02*
X6225000Y-13640500D01*
X6235000Y-9160000D02*
X6275000Y-9200000D01*
X6275000Y-9160000D02*
X6235000Y-9200000D01*
X6235000Y-9260000D02*
X6275000Y-9300000D01*
X6275000Y-9260000D02*
X6235000Y-9300000D01*
X6235000Y-9360000D02*
X6275000Y-9400000D01*
X6275000Y-9360000D02*
X6235000Y-9400000D01*
X6235000Y-9460000D02*
X6275000Y-9500000D01*
X6275000Y-9460000D02*
X6235000Y-9500000D01*
X6235000Y-8860000D02*
X6275000Y-8900000D01*
X6275000Y-8860000D02*
X6235000Y-8900000D01*
X6235000Y-8960000D02*
X6275000Y-9000000D01*
X6275000Y-8960000D02*
X6235000Y-9000000D01*
X6235000Y-9060000D02*
X6275000Y-9100000D01*
X6275000Y-9060000D02*
X6235000Y-9100000D01*
X6305000Y-4014000D02*
X6345000Y-4054000D01*
X6345000Y-4014000D02*
X6305000Y-4054000D01*
X6325000Y-15840000D02*
X6365000Y-15880000D01*
X6365000Y-15840000D02*
X6325000Y-15880000D01*
X6325000Y-15960000D02*
X6365000Y-16000000D01*
X6365000Y-15960000D02*
X6325000Y-16000000D01*
X6325000Y-16080000D02*
X6365000Y-16120000D01*
X6365000Y-16080000D02*
X6325000Y-16120000D01*
X6330000Y-5730000D02*
X6370000Y-5770000D01*
X6370000Y-5730000D02*
X6330000Y-5770000D01*
X6330000Y-15450000D02*
X6370000Y-15490000D01*
X6370000Y-15450000D02*
X6330000Y-15490000D01*
X6330000Y-15570000D02*
X6370000Y-15610000D01*
X6370000Y-15570000D02*
X6330000Y-15610000D01*
X6330000Y-15690000D02*
X6370000Y-15730000D01*
X6370000Y-15690000D02*
X6330000Y-15730000D01*
X6380000Y-5680000D02*
X6420000Y-5720000D01*
X6420000Y-5680000D02*
X6380000Y-5720000D01*
X6380000Y-5780000D02*
X6420000Y-5820000D01*
X6420000Y-5780000D02*
X6380000Y-5820000D01*
X6445000Y-15840000D02*
X6485000Y-15880000D01*
X6485000Y-15840000D02*
X6445000Y-15880000D01*
X6445000Y-15960000D02*
X6485000Y-16000000D01*
X6485000Y-15960000D02*
X6445000Y-16000000D01*
X6445000Y-16080000D02*
X6485000Y-16120000D01*
X6485000Y-16080000D02*
X6445000Y-16120000D01*
X6450000Y-15450000D02*
X6490000Y-15490000D01*
X6490000Y-15450000D02*
X6450000Y-15490000D01*
X6450000Y-15570000D02*
X6490000Y-15610000D01*
X6490000Y-15570000D02*
X6450000Y-15610000D01*
X6450000Y-15690000D02*
X6490000Y-15730000D01*
X6490000Y-15690000D02*
X6450000Y-15730000D01*
X6495000Y-7530000D02*
X6535000Y-7570000D01*
X6535000Y-7530000D02*
X6495000Y-7570000D01*
X6495000Y-7650000D02*
X6535000Y-7690000D01*
X6535000Y-7650000D02*
X6495000Y-7690000D01*
X6495000Y-7770000D02*
X6535000Y-7810000D01*
X6535000Y-7770000D02*
X6495000Y-7810000D01*
X6495000Y-7880000D02*
X6535000Y-7920000D01*
X6535000Y-7880000D02*
X6495000Y-7920000D01*
X6505000Y-7185000D02*
X6545000Y-7225000D01*
X6545000Y-7185000D02*
X6505000Y-7225000D01*
X6505000Y-7285000D02*
X6545000Y-7325000D01*
X6545000Y-7285000D02*
X6505000Y-7325000D01*
X6505000Y-7385000D02*
X6545000Y-7425000D01*
X6545000Y-7385000D02*
X6505000Y-7425000D01*
X6565000Y-15840000D02*
X6605000Y-15880000D01*
X6605000Y-15840000D02*
X6565000Y-15880000D01*
X6565000Y-15960000D02*
X6605000Y-16000000D01*
X6605000Y-15960000D02*
X6565000Y-16000000D01*
X6565000Y-16080000D02*
X6605000Y-16120000D01*
X6605000Y-16080000D02*
X6565000Y-16120000D01*
X6570000Y-15450000D02*
X6610000Y-15490000D01*
X6610000Y-15450000D02*
X6570000Y-15490000D01*
X6570000Y-15570000D02*
X6610000Y-15610000D01*
X6610000Y-15570000D02*
X6570000Y-15610000D01*
X6570000Y-15690000D02*
X6610000Y-15730000D01*
X6610000Y-15690000D02*
X6570000Y-15730000D01*
X6600000Y-10980000D02*
X6640000Y-11020000D01*
X6640000Y-10980000D02*
X6600000Y-11020000D01*
X6600000Y-11600000D02*
X6640000Y-11640000D01*
X6640000Y-11600000D02*
X6600000Y-11640000D01*
X6695000Y-4054000D02*
X6735000Y-4094000D01*
X6735000Y-4054000D02*
X6695000Y-4094000D01*
X6770000Y-6580000D02*
X6810000Y-6620000D01*
X6810000Y-6580000D02*
X6770000Y-6620000D01*
X6820000Y-4054000D02*
X6860000Y-4094000D01*
X6860000Y-4054000D02*
X6820000Y-4094000D01*
X6820000Y-14920000D02*
X6860000Y-14960000D01*
X6860000Y-14920000D02*
X6820000Y-14960000D01*
X6865000Y-6114000D02*
X6905000Y-6154000D01*
X6905000Y-6114000D02*
X6865000Y-6154000D01*
X6877500Y-6580250D02*
X6917500Y-6620250D01*
X6917500Y-6580250D02*
X6877500Y-6620250D01*
X6915000Y-10450000D02*
X6955000Y-10490000D01*
X6955000Y-10450000D02*
X6915000Y-10490000D01*
X6945000Y-4054000D02*
X6985000Y-4094000D01*
X6985000Y-4054000D02*
X6945000Y-4094000D01*
X6975000Y-5854000D02*
X7015000Y-5894000D01*
X7015000Y-5854000D02*
X6975000Y-5894000D01*
X6975000Y-5954000D02*
X7015000Y-5994000D01*
X7015000Y-5954000D02*
X6975000Y-5994000D01*
X6975000Y-6064000D02*
X7015000Y-6104000D01*
X7015000Y-6064000D02*
X6975000Y-6104000D01*
X6985000Y-7264000D02*
X7025000Y-7304000D01*
X7025000Y-7264000D02*
X6985000Y-7304000D01*
X7055000Y-11660000D02*
X7095000Y-11700000D01*
X7095000Y-11660000D02*
X7055000Y-11700000D01*
X7055000Y-11860000D02*
X7095000Y-11900000D01*
X7095000Y-11860000D02*
X7055000Y-11900000D01*
X7060000Y-15920000D02*
X7100000Y-15960000D01*
X7100000Y-15920000D02*
X7060000Y-15960000D01*
X7075000Y-4054000D02*
X7115000Y-4094000D01*
X7115000Y-4054000D02*
X7075000Y-4094000D01*
X7105000Y-5954000D02*
X7145000Y-5994000D01*
X7145000Y-5954000D02*
X7105000Y-5994000D01*
X7120000Y-16100000D02*
X7160000Y-16140000D01*
X7160000Y-16100000D02*
X7120000Y-16140000D01*
X7125000Y-10280000D02*
X7165000Y-10320000D01*
X7165000Y-10280000D02*
X7125000Y-10320000D01*
X7125000Y-15500500D02*
X7165000Y-15540500D01*
X7165000Y-15500500D02*
X7125000Y-15540500D01*
X7129141Y-11468319D02*
X7169141Y-11508319D01*
X7169141Y-11468319D02*
X7129141Y-11508319D01*
X7130000Y-5470000D02*
X7170000Y-5510000D01*
X7170000Y-5470000D02*
X7130000Y-5510000D01*
X7135000Y-12060000D02*
X7175000Y-12100000D01*
X7175000Y-12060000D02*
X7135000Y-12100000D01*
X7140000Y-15720000D02*
X7180000Y-15760000D01*
X7180000Y-15720000D02*
X7140000Y-15760000D01*
X7160000Y-7264000D02*
X7200000Y-7304000D01*
X7200000Y-7264000D02*
X7160000Y-7304000D01*
X7165000Y-6164000D02*
X7205000Y-6204000D01*
X7205000Y-6164000D02*
X7165000Y-6204000D01*
X7201500Y-12876750D02*
X7241500Y-12916750D01*
X7241500Y-12876750D02*
X7201500Y-12916750D01*
X7201500Y-13026750D02*
X7241500Y-13066750D01*
X7241500Y-13026750D02*
X7201500Y-13066750D01*
X7201500Y-13176750D02*
X7241500Y-13216750D01*
X7241500Y-13176750D02*
X7201500Y-13216750D01*
X7201500Y-13326750D02*
X7241500Y-13366750D01*
X7241500Y-13326750D02*
X7201500Y-13366750D01*
X7207500Y-8827500D02*
X7247500Y-8867500D01*
X7247500Y-8827500D02*
X7207500Y-8867500D01*
X7207500Y-8977500D02*
X7247500Y-9017500D01*
X7247500Y-8977500D02*
X7207500Y-9017500D01*
X7207500Y-9127500D02*
X7247500Y-9167500D01*
X7247500Y-9127500D02*
X7207500Y-9167500D01*
X7207500Y-9277500D02*
X7247500Y-9317500D01*
X7247500Y-9277500D02*
X7207500Y-9317500D01*
X7335000Y-7264000D02*
X7375000Y-7304000D01*
X7375000Y-7264000D02*
X7335000Y-7304000D01*
X7369000Y-12879250D02*
X7409000Y-12919250D01*
X7409000Y-12879250D02*
X7369000Y-12919250D01*
X7369000Y-13029250D02*
X7409000Y-13069250D01*
X7409000Y-13029250D02*
X7369000Y-13069250D01*
X7369000Y-13179250D02*
X7409000Y-13219250D01*
X7409000Y-13179250D02*
X7369000Y-13219250D01*
X7369000Y-13329250D02*
X7409000Y-13369250D01*
X7409000Y-13329250D02*
X7369000Y-13369250D01*
X7375000Y-8830000D02*
X7415000Y-8870000D01*
X7415000Y-8830000D02*
X7375000Y-8870000D01*
X7375000Y-8980000D02*
X7415000Y-9020000D01*
X7415000Y-8980000D02*
X7375000Y-9020000D01*
X7375000Y-9130000D02*
X7415000Y-9170000D01*
X7415000Y-9130000D02*
X7375000Y-9170000D01*
X7375000Y-9280000D02*
X7415000Y-9320000D01*
X7415000Y-9280000D02*
X7375000Y-9320000D01*
X7435000Y-5554000D02*
X7475000Y-5594000D01*
X7475000Y-5554000D02*
X7435000Y-5594000D01*
X7510000Y-7264000D02*
X7550000Y-7304000D01*
X7550000Y-7264000D02*
X7510000Y-7304000D01*
X7519000Y-12879250D02*
X7559000Y-12919250D01*
X7559000Y-12879250D02*
X7519000Y-12919250D01*
X7519000Y-13029250D02*
X7559000Y-13069250D01*
X7559000Y-13029250D02*
X7519000Y-13069250D01*
X7519000Y-13179250D02*
X7559000Y-13219250D01*
X7559000Y-13179250D02*
X7519000Y-13219250D01*
X7519000Y-13329250D02*
X7559000Y-13369250D01*
X7559000Y-13329250D02*
X7519000Y-13369250D01*
X7525000Y-8830000D02*
X7565000Y-8870000D01*
X7565000Y-8830000D02*
X7525000Y-8870000D01*
X7525000Y-8980000D02*
X7565000Y-9020000D01*
X7565000Y-8980000D02*
X7525000Y-9020000D01*
X7525000Y-9130000D02*
X7565000Y-9170000D01*
X7565000Y-9130000D02*
X7525000Y-9170000D01*
X7525000Y-9280000D02*
X7565000Y-9320000D01*
X7565000Y-9280000D02*
X7525000Y-9320000D01*
X7545000Y-9480000D02*
X7585000Y-9520000D01*
X7585000Y-9480000D02*
X7545000Y-9520000D01*
X7545000Y-9590000D02*
X7585000Y-9630000D01*
X7585000Y-9590000D02*
X7545000Y-9630000D01*
X7545000Y-9700000D02*
X7585000Y-9740000D01*
X7585000Y-9700000D02*
X7545000Y-9740000D01*
X7549000Y-13529250D02*
X7589000Y-13569250D01*
X7589000Y-13529250D02*
X7549000Y-13569250D01*
X7549000Y-13649250D02*
X7589000Y-13689250D01*
X7589000Y-13649250D02*
X7549000Y-13689250D01*
X7549000Y-13769250D02*
X7589000Y-13809250D01*
X7589000Y-13769250D02*
X7549000Y-13809250D01*
X7649000Y-13849250D02*
X7689000Y-13889250D01*
X7689000Y-13849250D02*
X7649000Y-13889250D01*
X7649000Y-13969250D02*
X7689000Y-14009250D01*
X7689000Y-13969250D02*
X7649000Y-14009250D01*
X7655000Y-9800000D02*
X7695000Y-9840000D01*
X7695000Y-9800000D02*
X7655000Y-9840000D01*
X7655000Y-9920000D02*
X7695000Y-9960000D01*
X7695000Y-9920000D02*
X7655000Y-9960000D01*
X7669000Y-12879250D02*
X7709000Y-12919250D01*
X7709000Y-12879250D02*
X7669000Y-12919250D01*
X7669000Y-13029250D02*
X7709000Y-13069250D01*
X7709000Y-13029250D02*
X7669000Y-13069250D01*
X7669000Y-13179250D02*
X7709000Y-13219250D01*
X7709000Y-13179250D02*
X7669000Y-13219250D01*
X7669000Y-13329250D02*
X7709000Y-13369250D01*
X7709000Y-13329250D02*
X7669000Y-13369250D01*
X7675000Y-8830000D02*
X7715000Y-8870000D01*
X7715000Y-8830000D02*
X7675000Y-8870000D01*
X7675000Y-8980000D02*
X7715000Y-9020000D01*
X7715000Y-8980000D02*
X7675000Y-9020000D01*
X7675000Y-9130000D02*
X7715000Y-9170000D01*
X7715000Y-9130000D02*
X7675000Y-9170000D01*
X7675000Y-9280000D02*
X7715000Y-9320000D01*
X7715000Y-9280000D02*
X7675000Y-9320000D01*
X7725000Y-5554000D02*
X7765000Y-5594000D01*
X7765000Y-5554000D02*
X7725000Y-5594000D01*
X7819000Y-12879250D02*
X7859000Y-12919250D01*
X7859000Y-12879250D02*
X7819000Y-12919250D01*
X7819000Y-13029250D02*
X7859000Y-13069250D01*
X7859000Y-13029250D02*
X7819000Y-13069250D01*
X7819000Y-13179250D02*
X7859000Y-13219250D01*
X7859000Y-13179250D02*
X7819000Y-13219250D01*
X7819000Y-13329250D02*
X7859000Y-13369250D01*
X7859000Y-13329250D02*
X7819000Y-13369250D01*
X7825000Y-8830000D02*
X7865000Y-8870000D01*
X7865000Y-8830000D02*
X7825000Y-8870000D01*
X7825000Y-8980000D02*
X7865000Y-9020000D01*
X7865000Y-8980000D02*
X7825000Y-9020000D01*
X7825000Y-9130000D02*
X7865000Y-9170000D01*
X7865000Y-9130000D02*
X7825000Y-9170000D01*
X7825000Y-9280000D02*
X7865000Y-9320000D01*
X7865000Y-9280000D02*
X7825000Y-9320000D01*
X7835000Y-11800000D02*
X7875000Y-11840000D01*
X7875000Y-11800000D02*
X7835000Y-11840000D01*
X7865000Y-14620000D02*
X7905000Y-14660000D01*
X7905000Y-14620000D02*
X7865000Y-14660000D01*
X7865000Y-15860000D02*
X7905000Y-15900000D01*
X7905000Y-15860000D02*
X7865000Y-15900000D01*
X7866270Y-10511270D02*
X7906270Y-10551270D01*
X7906270Y-10511270D02*
X7866270Y-10551270D01*
X7890000Y-3520000D02*
X7930000Y-3560000D01*
X7930000Y-3520000D02*
X7890000Y-3560000D01*
X7915000Y-10168770D02*
X7955000Y-10208770D01*
X7955000Y-10168770D02*
X7915000Y-10208770D01*
X7955000Y-14240000D02*
X7995000Y-14280000D01*
X7995000Y-14240000D02*
X7955000Y-14280000D01*
X7975000Y-11800000D02*
X8015000Y-11840000D01*
X8015000Y-11800000D02*
X7975000Y-11840000D01*
X8065000Y-4484000D02*
X8105000Y-4524000D01*
X8105000Y-4484000D02*
X8065000Y-4524000D01*
X8085000Y-4804000D02*
X8125000Y-4844000D01*
X8125000Y-4804000D02*
X8085000Y-4844000D01*
X8089000Y-15869250D02*
X8129000Y-15909250D01*
X8129000Y-15869250D02*
X8089000Y-15909250D01*
X8109375Y-6329000D02*
X8149375Y-6369000D01*
X8149375Y-6329000D02*
X8109375Y-6369000D01*
X8110000Y-6504000D02*
X8150000Y-6544000D01*
X8150000Y-6504000D02*
X8110000Y-6544000D01*
X8110000Y-6688951D02*
X8150000Y-6728951D01*
X8150000Y-6688951D02*
X8110000Y-6728951D01*
X8110000Y-6844000D02*
X8150000Y-6884000D01*
X8150000Y-6844000D02*
X8110000Y-6884000D01*
X8149000Y-14809250D02*
X8189000Y-14849250D01*
X8189000Y-14809250D02*
X8149000Y-14849250D01*
X8155000Y-10760000D02*
X8195000Y-10800000D01*
X8195000Y-10760000D02*
X8155000Y-10800000D01*
X8309000Y-13009250D02*
X8349000Y-13049250D01*
X8349000Y-13009250D02*
X8309000Y-13049250D01*
X8316230Y-8961230D02*
X8356230Y-9001230D01*
X8356230Y-8961230D02*
X8316230Y-9001230D01*
X8395000Y-9280000D02*
X8435000Y-9320000D01*
X8435000Y-9280000D02*
X8395000Y-9320000D01*
X8445000Y-4440000D02*
X8485000Y-4480000D01*
X8485000Y-4440000D02*
X8445000Y-4480000D01*
X8450000Y-4570000D02*
X8490000Y-4610000D01*
X8490000Y-4570000D02*
X8450000Y-4610000D01*
X8455000Y-13340000D02*
X8495000Y-13380000D01*
X8495000Y-13340000D02*
X8455000Y-13380000D01*
X8480000Y-6080000D02*
X8520000Y-6120000D01*
X8520000Y-6080000D02*
X8480000Y-6120000D01*
X8480000Y-6500000D02*
X8520000Y-6540000D01*
X8520000Y-6500000D02*
X8480000Y-6540000D01*
X8489000Y-14689250D02*
X8529000Y-14729250D01*
X8529000Y-14689250D02*
X8489000Y-14729250D01*
X8495000Y-10640000D02*
X8535000Y-10680000D01*
X8535000Y-10640000D02*
X8495000Y-10680000D01*
X8505000Y-10290000D02*
X8545000Y-10330000D01*
X8545000Y-10290000D02*
X8505000Y-10330000D01*
X8515000Y-14400000D02*
X8555000Y-14440000D01*
X8555000Y-14400000D02*
X8515000Y-14440000D01*
X8535000Y-11700000D02*
X8575000Y-11740000D01*
X8575000Y-11700000D02*
X8535000Y-11740000D01*
X8600000Y-4440000D02*
X8640000Y-4480000D01*
X8640000Y-4440000D02*
X8600000Y-4480000D01*
X8600000Y-4570000D02*
X8640000Y-4610000D01*
X8640000Y-4570000D02*
X8600000Y-4610000D01*
X8609000Y-15849250D02*
X8649000Y-15889250D01*
X8649000Y-15849250D02*
X8609000Y-15889250D01*
X8635000Y-7740000D02*
X8675000Y-7780000D01*
X8675000Y-7740000D02*
X8635000Y-7780000D01*
X8645000Y-7480000D02*
X8685000Y-7520000D01*
X8685000Y-7480000D02*
X8645000Y-7520000D01*
X8659000Y-14929250D02*
X8699000Y-14969250D01*
X8699000Y-14929250D02*
X8659000Y-14969250D01*
X8660000Y-3920000D02*
X8700000Y-3960000D01*
X8700000Y-3920000D02*
X8660000Y-3960000D01*
X8665000Y-10880000D02*
X8705000Y-10920000D01*
X8705000Y-10880000D02*
X8665000Y-10920000D01*
X8695000Y-10580000D02*
X8735000Y-10620000D01*
X8735000Y-10580000D02*
X8695000Y-10620000D01*
X8697719Y-6252450D02*
X8737719Y-6292450D01*
X8737719Y-6252450D02*
X8697719Y-6292450D01*
X8700000Y-3580000D02*
X8740000Y-3620000D01*
X8740000Y-3580000D02*
X8700000Y-3620000D01*
X8705000Y-14640500D02*
X8745000Y-14680500D01*
X8745000Y-14640500D02*
X8705000Y-14680500D01*
X8715000Y-5200000D02*
X8755000Y-5240000D01*
X8755000Y-5200000D02*
X8715000Y-5240000D01*
X8715000Y-5500000D02*
X8755000Y-5540000D01*
X8755000Y-5500000D02*
X8715000Y-5540000D01*
X8779000Y-14929250D02*
X8819000Y-14969250D01*
X8819000Y-14929250D02*
X8779000Y-14969250D01*
X8780000Y-6356500D02*
X8820000Y-6396500D01*
X8820000Y-6356500D02*
X8780000Y-6396500D01*
X8785000Y-10880000D02*
X8825000Y-10920000D01*
X8825000Y-10880000D02*
X8785000Y-10920000D01*
X8789000Y-13429250D02*
X8829000Y-13469250D01*
X8829000Y-13429250D02*
X8789000Y-13469250D01*
X8793817Y-9378723D02*
X8833817Y-9418723D01*
X8833817Y-9378723D02*
X8793817Y-9418723D01*
X8795000Y-10580000D02*
X8835000Y-10620000D01*
X8835000Y-10580000D02*
X8795000Y-10620000D01*
X8799000Y-12429250D02*
X8839000Y-12469250D01*
X8839000Y-12429250D02*
X8799000Y-12469250D01*
X8799000Y-12579250D02*
X8839000Y-12619250D01*
X8839000Y-12579250D02*
X8799000Y-12619250D01*
X8799000Y-12729250D02*
X8839000Y-12769250D01*
X8839000Y-12729250D02*
X8799000Y-12769250D01*
X8799000Y-12879250D02*
X8839000Y-12919250D01*
X8839000Y-12879250D02*
X8799000Y-12919250D01*
X8805000Y-8380000D02*
X8845000Y-8420000D01*
X8845000Y-8380000D02*
X8805000Y-8420000D01*
X8805000Y-8530000D02*
X8845000Y-8570000D01*
X8845000Y-8530000D02*
X8805000Y-8570000D01*
X8805000Y-8680000D02*
X8845000Y-8720000D01*
X8845000Y-8680000D02*
X8805000Y-8720000D01*
X8805000Y-8830000D02*
X8845000Y-8870000D01*
X8845000Y-8830000D02*
X8805000Y-8870000D01*
X8805000Y-14640500D02*
X8845000Y-14680500D01*
X8845000Y-14640500D02*
X8805000Y-14680500D01*
X8814000Y-15534250D02*
X8854000Y-15574250D01*
X8854000Y-15534250D02*
X8814000Y-15574250D01*
X8820000Y-11485000D02*
X8860000Y-11525000D01*
X8860000Y-11485000D02*
X8820000Y-11525000D01*
X8835000Y-5200000D02*
X8875000Y-5240000D01*
X8875000Y-5200000D02*
X8835000Y-5240000D01*
X8835000Y-5500000D02*
X8875000Y-5540000D01*
X8875000Y-5500000D02*
X8835000Y-5540000D01*
X8860000Y-3920000D02*
X8900000Y-3960000D01*
X8900000Y-3920000D02*
X8860000Y-3960000D01*
X8895000Y-10580000D02*
X8935000Y-10620000D01*
X8935000Y-10580000D02*
X8895000Y-10620000D01*
X8905000Y-14640500D02*
X8945000Y-14680500D01*
X8945000Y-14640500D02*
X8905000Y-14680500D01*
X8930000Y-4370000D02*
X8970000Y-4410000D01*
X8970000Y-4370000D02*
X8930000Y-4410000D01*
X8930000Y-4490000D02*
X8970000Y-4530000D01*
X8970000Y-4490000D02*
X8930000Y-4530000D01*
X8949000Y-12429250D02*
X8989000Y-12469250D01*
X8989000Y-12429250D02*
X8949000Y-12469250D01*
X8949000Y-12579250D02*
X8989000Y-12619250D01*
X8989000Y-12579250D02*
X8949000Y-12619250D01*
X8949000Y-12729250D02*
X8989000Y-12769250D01*
X8989000Y-12729250D02*
X8949000Y-12769250D01*
X8949000Y-12879250D02*
X8989000Y-12919250D01*
X8989000Y-12879250D02*
X8949000Y-12919250D01*
X8955000Y-8380000D02*
X8995000Y-8420000D01*
X8995000Y-8380000D02*
X8955000Y-8420000D01*
X8955000Y-8530000D02*
X8995000Y-8570000D01*
X8995000Y-8530000D02*
X8955000Y-8570000D01*
X8955000Y-8680000D02*
X8995000Y-8720000D01*
X8995000Y-8680000D02*
X8955000Y-8720000D01*
X8955000Y-8830000D02*
X8995000Y-8870000D01*
X8995000Y-8830000D02*
X8955000Y-8870000D01*
X8965000Y-5200000D02*
X9005000Y-5240000D01*
X9005000Y-5200000D02*
X8965000Y-5240000D01*
X8965000Y-5500000D02*
X9005000Y-5540000D01*
X9005000Y-5500000D02*
X8965000Y-5540000D01*
X9045000Y-11610000D02*
X9085000Y-11650000D01*
X9085000Y-11610000D02*
X9045000Y-11650000D01*
X9045000Y-15690000D02*
X9085000Y-15730000D01*
X9085000Y-15690000D02*
X9045000Y-15730000D01*
X9060000Y-4490000D02*
X9100000Y-4530000D01*
X9100000Y-4490000D02*
X9060000Y-4530000D01*
X9099000Y-12429250D02*
X9139000Y-12469250D01*
X9139000Y-12429250D02*
X9099000Y-12469250D01*
X9099000Y-12579250D02*
X9139000Y-12619250D01*
X9139000Y-12579250D02*
X9099000Y-12619250D01*
X9099000Y-12729250D02*
X9139000Y-12769250D01*
X9139000Y-12729250D02*
X9099000Y-12769250D01*
X9099000Y-12879250D02*
X9139000Y-12919250D01*
X9139000Y-12879250D02*
X9099000Y-12919250D01*
X9105000Y-5200000D02*
X9145000Y-5240000D01*
X9145000Y-5200000D02*
X9105000Y-5240000D01*
X9105000Y-5500000D02*
X9145000Y-5540000D01*
X9145000Y-5500000D02*
X9105000Y-5540000D01*
X9105000Y-8380000D02*
X9145000Y-8420000D01*
X9145000Y-8380000D02*
X9105000Y-8420000D01*
X9105000Y-8530000D02*
X9145000Y-8570000D01*
X9145000Y-8530000D02*
X9105000Y-8570000D01*
X9105000Y-8680000D02*
X9145000Y-8720000D01*
X9145000Y-8680000D02*
X9105000Y-8720000D01*
X9105000Y-8830000D02*
X9145000Y-8870000D01*
X9145000Y-8830000D02*
X9105000Y-8870000D01*
X9115000Y-3950000D02*
X9155000Y-3990000D01*
X9155000Y-3950000D02*
X9115000Y-3990000D01*
X9134125Y-13414375D02*
X9174125Y-13454375D01*
X9174125Y-13414375D02*
X9134125Y-13454375D01*
X9186230Y-9411230D02*
X9226230Y-9451230D01*
X9226230Y-9411230D02*
X9186230Y-9451230D01*
X9200000Y-4490000D02*
X9240000Y-4530000D01*
X9240000Y-4490000D02*
X9200000Y-4530000D01*
X9249000Y-12429250D02*
X9289000Y-12469250D01*
X9289000Y-12429250D02*
X9249000Y-12469250D01*
X9249000Y-12579250D02*
X9289000Y-12619250D01*
X9289000Y-12579250D02*
X9249000Y-12619250D01*
X9249000Y-12729250D02*
X9289000Y-12769250D01*
X9289000Y-12729250D02*
X9249000Y-12769250D01*
X9249000Y-12879250D02*
X9289000Y-12919250D01*
X9289000Y-12879250D02*
X9249000Y-12919250D01*
X9255000Y-8380000D02*
X9295000Y-8420000D01*
X9295000Y-8380000D02*
X9255000Y-8420000D01*
X9255000Y-8530000D02*
X9295000Y-8570000D01*
X9295000Y-8530000D02*
X9255000Y-8570000D01*
X9255000Y-8680000D02*
X9295000Y-8720000D01*
X9295000Y-8680000D02*
X9255000Y-8720000D01*
X9255000Y-8830000D02*
X9295000Y-8870000D01*
X9295000Y-8830000D02*
X9255000Y-8870000D01*
X9281230Y-6381230D02*
X9321230Y-6421230D01*
X9321230Y-6381230D02*
X9281230Y-6421230D01*
X9415000Y-15740000D02*
X9455000Y-15780000D01*
X9455000Y-15740000D02*
X9415000Y-15780000D01*
X9490000Y-4770000D02*
X9530000Y-4810000D01*
X9530000Y-4770000D02*
X9490000Y-4810000D01*
X9560000Y-4240000D02*
X9600000Y-4280000D01*
X9600000Y-4240000D02*
X9560000Y-4280000D01*
X9566923Y-11728127D02*
X9606923Y-11768127D01*
X9606923Y-11728127D02*
X9566923Y-11768127D01*
X9586500Y-14349250D02*
X9626500Y-14389250D01*
X9626500Y-14349250D02*
X9586500Y-14389250D01*
X9586500Y-14499250D02*
X9626500Y-14539250D01*
X9626500Y-14499250D02*
X9586500Y-14539250D01*
X9586500Y-14649250D02*
X9626500Y-14689250D01*
X9626500Y-14649250D02*
X9586500Y-14689250D01*
X9586500Y-14799250D02*
X9626500Y-14839250D01*
X9626500Y-14799250D02*
X9586500Y-14839250D01*
X9592500Y-10300000D02*
X9632500Y-10340000D01*
X9632500Y-10300000D02*
X9592500Y-10340000D01*
X9592500Y-10450000D02*
X9632500Y-10490000D01*
X9632500Y-10450000D02*
X9592500Y-10490000D01*
X9592500Y-10600000D02*
X9632500Y-10640000D01*
X9632500Y-10600000D02*
X9592500Y-10640000D01*
X9592500Y-10750000D02*
X9632500Y-10790000D01*
X9632500Y-10750000D02*
X9592500Y-10790000D01*
X9600000Y-4340000D02*
X9640000Y-4380000D01*
X9640000Y-4340000D02*
X9600000Y-4380000D01*
X9736500Y-14349250D02*
X9776500Y-14389250D01*
X9776500Y-14349250D02*
X9736500Y-14389250D01*
X9736500Y-14499250D02*
X9776500Y-14539250D01*
X9776500Y-14499250D02*
X9736500Y-14539250D01*
X9736500Y-14649250D02*
X9776500Y-14689250D01*
X9776500Y-14649250D02*
X9736500Y-14689250D01*
X9742500Y-10300000D02*
X9782500Y-10340000D01*
X9782500Y-10300000D02*
X9742500Y-10340000D01*
X9742500Y-10450000D02*
X9782500Y-10490000D01*
X9782500Y-10450000D02*
X9742500Y-10490000D01*
X9742500Y-10600000D02*
X9782500Y-10640000D01*
X9782500Y-10600000D02*
X9742500Y-10640000D01*
X9742500Y-10750000D02*
X9782500Y-10790000D01*
X9782500Y-10750000D02*
X9742500Y-10790000D01*
X9789000Y-16870000D02*
X9829000Y-16910000D01*
X9829000Y-16870000D02*
X9789000Y-16910000D01*
X9789000Y-17020000D02*
X9829000Y-17060000D01*
X9829000Y-17020000D02*
X9789000Y-17060000D01*
X9789000Y-17170000D02*
X9829000Y-17210000D01*
X9829000Y-17170000D02*
X9789000Y-17210000D01*
X9795000Y-17490000D02*
X9835000Y-17530000D01*
X9835000Y-17490000D02*
X9795000Y-17530000D01*
X9795000Y-17640000D02*
X9835000Y-17680000D01*
X9835000Y-17640000D02*
X9795000Y-17680000D01*
X9795000Y-17790000D02*
X9835000Y-17830000D01*
X9835000Y-17790000D02*
X9795000Y-17830000D01*
X9886500Y-14349250D02*
X9926500Y-14389250D01*
X9926500Y-14349250D02*
X9886500Y-14389250D01*
X9886500Y-14499250D02*
X9926500Y-14539250D01*
X9926500Y-14499250D02*
X9886500Y-14539250D01*
X9886500Y-14649250D02*
X9926500Y-14689250D01*
X9926500Y-14649250D02*
X9886500Y-14689250D01*
X9886500Y-14799250D02*
X9926500Y-14839250D01*
X9926500Y-14799250D02*
X9886500Y-14839250D01*
X9892500Y-10300000D02*
X9932500Y-10340000D01*
X9932500Y-10300000D02*
X9892500Y-10340000D01*
X9892500Y-10450000D02*
X9932500Y-10490000D01*
X9932500Y-10450000D02*
X9892500Y-10490000D01*
X9892500Y-10600000D02*
X9932500Y-10640000D01*
X9932500Y-10600000D02*
X9892500Y-10640000D01*
X9892500Y-10750000D02*
X9932500Y-10790000D01*
X9932500Y-10750000D02*
X9892500Y-10790000D01*
X9900000Y-5880000D02*
X9940000Y-5920000D01*
X9940000Y-5880000D02*
X9900000Y-5920000D01*
X9939000Y-16870000D02*
X9979000Y-16910000D01*
X9979000Y-16870000D02*
X9939000Y-16910000D01*
X9939000Y-17020000D02*
X9979000Y-17060000D01*
X9979000Y-17020000D02*
X9939000Y-17060000D01*
X9939000Y-17170000D02*
X9979000Y-17210000D01*
X9979000Y-17170000D02*
X9939000Y-17210000D01*
X9945000Y-17490000D02*
X9985000Y-17530000D01*
X9985000Y-17490000D02*
X9945000Y-17530000D01*
X9945000Y-17640000D02*
X9985000Y-17680000D01*
X9985000Y-17640000D02*
X9945000Y-17680000D01*
X9945000Y-17790000D02*
X9985000Y-17830000D01*
X9985000Y-17790000D02*
X9945000Y-17830000D01*
X9950313Y-4950000D02*
X9990313Y-4990000D01*
X9990313Y-4950000D02*
X9950313Y-4990000D01*
X10050000Y-6540000D02*
X10090000Y-6580000D01*
X10090000Y-6540000D02*
X10050000Y-6580000D01*
X10060000Y-5730000D02*
X10100000Y-5770000D01*
X10100000Y-5730000D02*
X10060000Y-5770000D01*
X10089000Y-16870000D02*
X10129000Y-16910000D01*
X10129000Y-16870000D02*
X10089000Y-16910000D01*
X10089000Y-17020000D02*
X10129000Y-17060000D01*
X10129000Y-17020000D02*
X10089000Y-17060000D01*
X10089000Y-17170000D02*
X10129000Y-17210000D01*
X10129000Y-17170000D02*
X10089000Y-17210000D01*
X10089134Y-4464933D02*
X10129134Y-4504933D01*
X10129134Y-4464933D02*
X10089134Y-4504933D01*
X10095000Y-17490000D02*
X10135000Y-17530000D01*
X10135000Y-17490000D02*
X10095000Y-17530000D01*
X10095000Y-17640000D02*
X10135000Y-17680000D01*
X10135000Y-17640000D02*
X10095000Y-17680000D01*
X10095000Y-17790000D02*
X10135000Y-17830000D01*
X10135000Y-17790000D02*
X10095000Y-17830000D01*
X10229000Y-14119250D02*
X10269000Y-14159250D01*
X10269000Y-14119250D02*
X10229000Y-14159250D01*
X10229000Y-14269250D02*
X10269000Y-14309250D01*
X10269000Y-14269250D02*
X10229000Y-14309250D01*
X10229000Y-14419250D02*
X10269000Y-14459250D01*
X10269000Y-14419250D02*
X10229000Y-14459250D01*
X10229000Y-14569250D02*
X10269000Y-14609250D01*
X10269000Y-14569250D02*
X10229000Y-14609250D01*
X10235000Y-10070000D02*
X10275000Y-10110000D01*
X10275000Y-10070000D02*
X10235000Y-10110000D01*
X10235000Y-10220000D02*
X10275000Y-10260000D01*
X10275000Y-10220000D02*
X10235000Y-10260000D01*
X10235000Y-10370000D02*
X10275000Y-10410000D01*
X10275000Y-10370000D02*
X10235000Y-10410000D01*
X10235000Y-10520000D02*
X10275000Y-10560000D01*
X10275000Y-10520000D02*
X10235000Y-10560000D01*
X10250000Y-4450000D02*
X10290000Y-4490000D01*
X10290000Y-4450000D02*
X10250000Y-4490000D01*
X10290000Y-4642500D02*
X10330000Y-4682500D01*
X10330000Y-4642500D02*
X10290000Y-4682500D01*
X10290000Y-15340000D02*
X10330000Y-15380000D01*
X10330000Y-15340000D02*
X10290000Y-15380000D01*
X10290000Y-15700000D02*
X10330000Y-15740000D01*
X10330000Y-15700000D02*
X10290000Y-15740000D01*
X10300000Y-11330000D02*
X10340000Y-11370000D01*
X10340000Y-11330000D02*
X10300000Y-11370000D01*
X10300000Y-11690000D02*
X10340000Y-11730000D01*
X10340000Y-11690000D02*
X10300000Y-11730000D01*
X10365000Y-10070000D02*
X10405000Y-10110000D01*
X10405000Y-10070000D02*
X10365000Y-10110000D01*
X10365000Y-10220000D02*
X10405000Y-10260000D01*
X10405000Y-10220000D02*
X10365000Y-10260000D01*
X10365000Y-10370000D02*
X10405000Y-10410000D01*
X10405000Y-10370000D02*
X10365000Y-10410000D01*
X10365000Y-10520000D02*
X10405000Y-10560000D01*
X10405000Y-10520000D02*
X10365000Y-10560000D01*
X10379000Y-14119250D02*
X10419000Y-14159250D01*
X10419000Y-14119250D02*
X10379000Y-14159250D01*
X10379000Y-14269250D02*
X10419000Y-14309250D01*
X10419000Y-14269250D02*
X10379000Y-14309250D01*
X10379000Y-14419250D02*
X10419000Y-14459250D01*
X10419000Y-14419250D02*
X10379000Y-14459250D01*
X10379000Y-14569250D02*
X10419000Y-14609250D01*
X10419000Y-14569250D02*
X10379000Y-14609250D01*
X10420000Y-15340000D02*
X10460000Y-15380000D01*
X10460000Y-15340000D02*
X10420000Y-15380000D01*
X10420000Y-15700000D02*
X10460000Y-15740000D01*
X10460000Y-15700000D02*
X10420000Y-15740000D01*
X10430000Y-11330000D02*
X10470000Y-11370000D01*
X10470000Y-11330000D02*
X10430000Y-11370000D01*
X10430000Y-11690000D02*
X10470000Y-11730000D01*
X10470000Y-11690000D02*
X10430000Y-11730000D01*
X10460000Y-3250000D02*
X10500000Y-3290000D01*
X10500000Y-3250000D02*
X10460000Y-3290000D01*
X10460000Y-6540000D02*
X10500000Y-6580000D01*
X10500000Y-6540000D02*
X10460000Y-6580000D01*
X10515000Y-10070000D02*
X10555000Y-10110000D01*
X10555000Y-10070000D02*
X10515000Y-10110000D01*
X10515000Y-10220000D02*
X10555000Y-10260000D01*
X10555000Y-10220000D02*
X10515000Y-10260000D01*
X10515000Y-10370000D02*
X10555000Y-10410000D01*
X10555000Y-10370000D02*
X10515000Y-10410000D01*
X10515000Y-10520000D02*
X10555000Y-10560000D01*
X10555000Y-10520000D02*
X10515000Y-10560000D01*
X10529000Y-14119250D02*
X10569000Y-14159250D01*
X10569000Y-14119250D02*
X10529000Y-14159250D01*
X10529000Y-14269250D02*
X10569000Y-14309250D01*
X10569000Y-14269250D02*
X10529000Y-14309250D01*
X10529000Y-14419250D02*
X10569000Y-14459250D01*
X10569000Y-14419250D02*
X10529000Y-14459250D01*
X10529000Y-14569250D02*
X10569000Y-14609250D01*
X10569000Y-14569250D02*
X10529000Y-14609250D01*
X10665000Y-10070000D02*
X10705000Y-10110000D01*
X10705000Y-10070000D02*
X10665000Y-10110000D01*
X10665000Y-10220000D02*
X10705000Y-10260000D01*
X10705000Y-10220000D02*
X10665000Y-10260000D01*
X10665000Y-10370000D02*
X10705000Y-10410000D01*
X10705000Y-10370000D02*
X10665000Y-10410000D01*
X10665000Y-10520000D02*
X10705000Y-10560000D01*
X10705000Y-10520000D02*
X10665000Y-10560000D01*
X10670344Y-4980000D02*
X10710344Y-5020000D01*
X10710344Y-4980000D02*
X10670344Y-5020000D01*
X10675000Y-14120000D02*
X10715000Y-14160000D01*
X10715000Y-14120000D02*
X10675000Y-14160000D01*
X10675000Y-14270000D02*
X10715000Y-14310000D01*
X10715000Y-14270000D02*
X10675000Y-14310000D01*
X10675000Y-14420000D02*
X10715000Y-14460000D01*
X10715000Y-14420000D02*
X10675000Y-14460000D01*
X10675000Y-14570000D02*
X10715000Y-14610000D01*
X10715000Y-14570000D02*
X10675000Y-14610000D01*
X10710000Y-3920000D02*
X10750000Y-3960000D01*
X10750000Y-3920000D02*
X10710000Y-3960000D01*
X10765000Y-7480000D02*
X10805000Y-7520000D01*
X10805000Y-7480000D02*
X10765000Y-7520000D01*
X10765000Y-7770000D02*
X10805000Y-7810000D01*
X10805000Y-7770000D02*
X10765000Y-7810000D01*
X10810000Y-3620000D02*
X10850000Y-3660000D01*
X10850000Y-3620000D02*
X10810000Y-3660000D01*
X10820000Y-6520000D02*
X10860000Y-6560000D01*
X10860000Y-6520000D02*
X10820000Y-6560000D01*
X10840000Y-3240000D02*
X10880000Y-3280000D01*
X10880000Y-3240000D02*
X10840000Y-3280000D01*
X10860000Y-4000000D02*
X10900000Y-4040000D01*
X10900000Y-4000000D02*
X10860000Y-4040000D01*
X10860000Y-4140000D02*
X10900000Y-4180000D01*
X10900000Y-4140000D02*
X10860000Y-4180000D01*
X10860000Y-4290000D02*
X10900000Y-4330000D01*
X10900000Y-4290000D02*
X10860000Y-4330000D01*
X10860000Y-4430000D02*
X10900000Y-4470000D01*
X10900000Y-4430000D02*
X10860000Y-4470000D01*
X10880000Y-14080000D02*
X10920000Y-14120000D01*
X10920000Y-14080000D02*
X10880000Y-14120000D01*
X10880000Y-14230000D02*
X10920000Y-14270000D01*
X10920000Y-14230000D02*
X10880000Y-14270000D01*
X10880000Y-14420000D02*
X10920000Y-14460000D01*
X10920000Y-14420000D02*
X10880000Y-14460000D01*
X10880000Y-14580000D02*
X10920000Y-14620000D01*
X10920000Y-14580000D02*
X10880000Y-14620000D01*
X10880000Y-14740000D02*
X10920000Y-14780000D01*
X10920000Y-14740000D02*
X10880000Y-14780000D01*
X10880000Y-14860000D02*
X10920000Y-14900000D01*
X10920000Y-14860000D02*
X10880000Y-14900000D01*
X10900000Y-10010000D02*
X10940000Y-10050000D01*
X10940000Y-10010000D02*
X10900000Y-10050000D01*
X10900000Y-10160000D02*
X10940000Y-10200000D01*
X10940000Y-10160000D02*
X10900000Y-10200000D01*
X10900000Y-10350000D02*
X10940000Y-10390000D01*
X10940000Y-10350000D02*
X10900000Y-10390000D01*
X10900000Y-10510000D02*
X10940000Y-10550000D01*
X10940000Y-10510000D02*
X10900000Y-10550000D01*
X10900000Y-10670000D02*
X10940000Y-10710000D01*
X10940000Y-10670000D02*
X10900000Y-10710000D01*
X10900000Y-10830000D02*
X10940000Y-10870000D01*
X10940000Y-10830000D02*
X10900000Y-10870000D01*
X10980000Y-6440000D02*
X11020000Y-6480000D01*
X11020000Y-6440000D02*
X10980000Y-6480000D01*
X11105000Y-15308000D02*
X11145000Y-15348000D01*
X11145000Y-15308000D02*
X11105000Y-15348000D01*
X11105000Y-15458000D02*
X11145000Y-15498000D01*
X11145000Y-15458000D02*
X11105000Y-15498000D01*
X11105000Y-15608000D02*
X11145000Y-15648000D01*
X11145000Y-15608000D02*
X11105000Y-15648000D01*
X11156500Y-11286250D02*
X11196500Y-11326250D01*
X11196500Y-11286250D02*
X11156500Y-11326250D01*
X11156500Y-11436250D02*
X11196500Y-11476250D01*
X11196500Y-11436250D02*
X11156500Y-11476250D01*
X11156500Y-11586250D02*
X11196500Y-11626250D01*
X11196500Y-11586250D02*
X11156500Y-11626250D01*
X11255000Y-15308000D02*
X11295000Y-15348000D01*
X11295000Y-15308000D02*
X11255000Y-15348000D01*
X11255000Y-15458000D02*
X11295000Y-15498000D01*
X11295000Y-15458000D02*
X11255000Y-15498000D01*
X11255000Y-15608000D02*
X11295000Y-15648000D01*
X11295000Y-15608000D02*
X11255000Y-15648000D01*
X11306500Y-11286250D02*
X11346500Y-11326250D01*
X11346500Y-11286250D02*
X11306500Y-11326250D01*
X11306500Y-11436250D02*
X11346500Y-11476250D01*
X11346500Y-11436250D02*
X11306500Y-11476250D01*
X11306500Y-11586250D02*
X11346500Y-11626250D01*
X11346500Y-11586250D02*
X11306500Y-11626250D01*
X11405000Y-15308000D02*
X11445000Y-15348000D01*
X11445000Y-15308000D02*
X11405000Y-15348000D01*
X11405000Y-15458000D02*
X11445000Y-15498000D01*
X11445000Y-15458000D02*
X11405000Y-15498000D01*
X11405000Y-15608000D02*
X11445000Y-15648000D01*
X11445000Y-15608000D02*
X11405000Y-15648000D01*
X11440000Y-2740000D02*
X11480000Y-2780000D01*
X11480000Y-2740000D02*
X11440000Y-2780000D01*
X11456500Y-11286250D02*
X11496500Y-11326250D01*
X11496500Y-11286250D02*
X11456500Y-11326250D01*
X11456500Y-11436250D02*
X11496500Y-11476250D01*
X11496500Y-11436250D02*
X11456500Y-11476250D01*
X11456500Y-11586250D02*
X11496500Y-11626250D01*
X11496500Y-11586250D02*
X11456500Y-11626250D01*
X11520000Y-5080000D02*
X11560000Y-5120000D01*
X11560000Y-5080000D02*
X11520000Y-5120000D01*
X11555000Y-15308000D02*
X11595000Y-15348000D01*
X11595000Y-15308000D02*
X11555000Y-15348000D01*
X11555000Y-15458000D02*
X11595000Y-15498000D01*
X11595000Y-15458000D02*
X11555000Y-15498000D01*
X11555000Y-15608000D02*
X11595000Y-15648000D01*
X11595000Y-15608000D02*
X11555000Y-15648000D01*
X11606500Y-11286250D02*
X11646500Y-11326250D01*
X11646500Y-11286250D02*
X11606500Y-11326250D01*
X11606500Y-11436250D02*
X11646500Y-11476250D01*
X11646500Y-11436250D02*
X11606500Y-11476250D01*
X11606500Y-11586250D02*
X11646500Y-11626250D01*
X11646500Y-11586250D02*
X11606500Y-11626250D01*
X11790000Y-6880000D02*
X11830000Y-6920000D01*
X11830000Y-6880000D02*
X11790000Y-6920000D01*
X11940000Y-6540000D02*
X11980000Y-6580000D01*
X11980000Y-6540000D02*
X11940000Y-6580000D01*
X12030000Y-4540000D02*
X12070000Y-4580000D01*
X12070000Y-4540000D02*
X12030000Y-4580000D01*
X12040000Y-3170000D02*
X12080000Y-3210000D01*
X12080000Y-3170000D02*
X12040000Y-3210000D01*
X12060000Y-6785000D02*
X12100000Y-6825000D01*
X12100000Y-6785000D02*
X12060000Y-6825000D01*
X12236500Y-9988750D02*
X12276500Y-10028750D01*
X12276500Y-9988750D02*
X12236500Y-10028750D01*
X12246500Y-11428750D02*
X12286500Y-11468750D01*
X12286500Y-11428750D02*
X12246500Y-11468750D01*
X12249000Y-15450500D02*
X12289000Y-15490500D01*
X12289000Y-15450500D02*
X12249000Y-15490500D01*
X12265000Y-14220000D02*
X12305000Y-14260000D01*
X12305000Y-14220000D02*
X12265000Y-14260000D01*
X12290000Y-8372450D02*
X12330000Y-8412450D01*
X12330000Y-8372450D02*
X12290000Y-8412450D01*
X12295000Y-9300000D02*
X12335000Y-9340000D01*
X12335000Y-9300000D02*
X12295000Y-9340000D01*
X12295000Y-9450000D02*
X12335000Y-9490000D01*
X12335000Y-9450000D02*
X12295000Y-9490000D01*
X12326500Y-9873750D02*
X12366500Y-9913750D01*
X12366500Y-9873750D02*
X12326500Y-9913750D01*
X12360000Y-12290000D02*
X12400000Y-12330000D01*
X12400000Y-12290000D02*
X12360000Y-12330000D01*
X12365000Y-13901750D02*
X12405000Y-13941750D01*
X12405000Y-13901750D02*
X12365000Y-13941750D01*
X12435000Y-9300000D02*
X12475000Y-9340000D01*
X12475000Y-9300000D02*
X12435000Y-9340000D01*
X12435000Y-9450000D02*
X12475000Y-9490000D01*
X12475000Y-9450000D02*
X12435000Y-9490000D01*
X12520000Y-7940000D02*
X12560000Y-7980000D01*
X12560000Y-7940000D02*
X12520000Y-7980000D01*
X12550000Y-6820000D02*
X12590000Y-6860000D01*
X12590000Y-6820000D02*
X12550000Y-6860000D01*
X12626500Y-8948750D02*
X12666500Y-8988750D01*
X12666500Y-8948750D02*
X12626500Y-8988750D01*
X12629000Y-12970500D02*
X12669000Y-13010500D01*
X12669000Y-12970500D02*
X12629000Y-13010500D01*
X12665000Y-6740000D02*
X12705000Y-6780000D01*
X12705000Y-6740000D02*
X12665000Y-6780000D01*
X12675000Y-7385000D02*
X12715000Y-7425000D01*
X12715000Y-7385000D02*
X12675000Y-7425000D01*
X12720000Y-8600000D02*
X12760000Y-8640000D01*
X12760000Y-8600000D02*
X12720000Y-8640000D01*
X12765000Y-6660000D02*
X12805000Y-6700000D01*
X12805000Y-6660000D02*
X12765000Y-6700000D01*
X12770000Y-6490000D02*
X12810000Y-6530000D01*
X12810000Y-6490000D02*
X12770000Y-6530000D01*
X12785000Y-2240000D02*
X12825000Y-2280000D01*
X12825000Y-2240000D02*
X12785000Y-2280000D01*
X12785000Y-3230000D02*
X12825000Y-3270000D01*
X12825000Y-3230000D02*
X12785000Y-3270000D01*
X12796500Y-9078750D02*
X12836500Y-9118750D01*
X12836500Y-9078750D02*
X12796500Y-9118750D01*
X12805000Y-13091250D02*
X12845000Y-13131250D01*
X12845000Y-13091250D02*
X12805000Y-13131250D01*
X12820000Y-8420000D02*
X12860000Y-8460000D01*
X12860000Y-8420000D02*
X12820000Y-8460000D01*
X12865000Y-12311250D02*
X12905000Y-12351250D01*
X12905000Y-12311250D02*
X12865000Y-12351250D01*
X12865000Y-12421750D02*
X12905000Y-12461750D01*
X12905000Y-12421750D02*
X12865000Y-12461750D01*
X12875000Y-6260000D02*
X12915000Y-6300000D01*
X12915000Y-6260000D02*
X12875000Y-6300000D01*
X12905000Y-5620000D02*
X12945000Y-5660000D01*
X12945000Y-5620000D02*
X12905000Y-5660000D01*
X12910000Y-2730000D02*
X12950000Y-2770000D01*
X12950000Y-2730000D02*
X12910000Y-2770000D01*
X12920000Y-4000000D02*
X12960000Y-4040000D01*
X12960000Y-4000000D02*
X12920000Y-4040000D01*
X12920000Y-5270000D02*
X12960000Y-5310000D01*
X12960000Y-5270000D02*
X12920000Y-5310000D01*
X12926500Y-11668750D02*
X12966500Y-11708750D01*
X12966500Y-11668750D02*
X12926500Y-11708750D01*
X12926500Y-11808750D02*
X12966500Y-11848750D01*
X12966500Y-11808750D02*
X12926500Y-11848750D01*
X12940000Y-6425000D02*
X12980000Y-6465000D01*
X12980000Y-6425000D02*
X12940000Y-6465000D01*
X12940000Y-8420000D02*
X12980000Y-8460000D01*
X12980000Y-8420000D02*
X12940000Y-8460000D01*
X12980000Y-9980000D02*
X13020000Y-10020000D01*
X13020000Y-9980000D02*
X12980000Y-10020000D01*
X12985000Y-13990500D02*
X13025000Y-14030500D01*
X13025000Y-13990500D02*
X12985000Y-14030500D01*
X12995000Y-13451250D02*
X13035000Y-13491250D01*
X13035000Y-13451250D02*
X12995000Y-13491250D01*
X13005000Y-15570000D02*
X13045000Y-15610000D01*
X13045000Y-15570000D02*
X13005000Y-15610000D01*
X13006500Y-9428750D02*
X13046500Y-9468750D01*
X13046500Y-9428750D02*
X13006500Y-9468750D01*
X13060000Y-7420000D02*
X13100000Y-7460000D01*
X13100000Y-7420000D02*
X13060000Y-7460000D01*
X13082750Y-8405000D02*
X13122750Y-8445000D01*
X13122750Y-8405000D02*
X13082750Y-8445000D01*
X13085250Y-12426750D02*
X13125250Y-12466750D01*
X13125250Y-12426750D02*
X13085250Y-12466750D01*
X13140000Y-9240000D02*
X13180000Y-9280000D01*
X13180000Y-9240000D02*
X13140000Y-9280000D01*
X13165000Y-15581750D02*
X13205000Y-15621750D01*
X13205000Y-15581750D02*
X13165000Y-15621750D01*
X13196750Y-9668500D02*
X13236750Y-9708500D01*
X13236750Y-9668500D02*
X13196750Y-9708500D01*
X13204000Y-13690250D02*
X13244000Y-13730250D01*
X13244000Y-13690250D02*
X13204000Y-13730250D01*
X13250000Y-9240000D02*
X13290000Y-9280000D01*
X13290000Y-9240000D02*
X13250000Y-9280000D01*
X13270000Y-12636250D02*
X13310000Y-12676250D01*
X13310000Y-12636250D02*
X13270000Y-12676250D01*
X13276500Y-8618750D02*
X13316500Y-8658750D01*
X13316500Y-8618750D02*
X13276500Y-8658750D01*
X13325000Y-16880000D02*
X13365000Y-16920000D01*
X13365000Y-16880000D02*
X13325000Y-16920000D01*
X13325000Y-17030000D02*
X13365000Y-17070000D01*
X13365000Y-17030000D02*
X13325000Y-17070000D01*
X13325000Y-17180000D02*
X13365000Y-17220000D01*
X13365000Y-17180000D02*
X13325000Y-17220000D01*
X13325000Y-17530000D02*
X13365000Y-17570000D01*
X13365000Y-17530000D02*
X13325000Y-17570000D01*
X13325000Y-17680000D02*
X13365000Y-17720000D01*
X13365000Y-17680000D02*
X13325000Y-17720000D01*
X13325000Y-17830000D02*
X13365000Y-17870000D01*
X13365000Y-17830000D02*
X13325000Y-17870000D01*
X13340000Y-8200000D02*
X13380000Y-8240000D01*
X13380000Y-8200000D02*
X13340000Y-8240000D01*
X13340000Y-12220000D02*
X13380000Y-12260000D01*
X13380000Y-12220000D02*
X13340000Y-12260000D01*
X13360000Y-9240000D02*
X13400000Y-9280000D01*
X13400000Y-9240000D02*
X13360000Y-9280000D01*
X13430000Y-5670000D02*
X13470000Y-5710000D01*
X13470000Y-5670000D02*
X13430000Y-5710000D01*
X13436230Y-7321230D02*
X13476230Y-7361230D01*
X13476230Y-7321230D02*
X13436230Y-7361230D01*
X13440000Y-4060000D02*
X13480000Y-4100000D01*
X13480000Y-4060000D02*
X13440000Y-4100000D01*
X13450000Y-5780000D02*
X13490000Y-5820000D01*
X13490000Y-5780000D02*
X13450000Y-5820000D01*
X13460000Y-6640000D02*
X13500000Y-6680000D01*
X13500000Y-6640000D02*
X13460000Y-6680000D01*
X13475000Y-16880000D02*
X13515000Y-16920000D01*
X13515000Y-16880000D02*
X13475000Y-16920000D01*
X13475000Y-17030000D02*
X13515000Y-17070000D01*
X13515000Y-17030000D02*
X13475000Y-17070000D01*
X13475000Y-17180000D02*
X13515000Y-17220000D01*
X13515000Y-17180000D02*
X13475000Y-17220000D01*
X13475000Y-17530000D02*
X13515000Y-17570000D01*
X13515000Y-17530000D02*
X13475000Y-17570000D01*
X13475000Y-17680000D02*
X13515000Y-17720000D01*
X13515000Y-17680000D02*
X13475000Y-17720000D01*
X13475000Y-17830000D02*
X13515000Y-17870000D01*
X13515000Y-17830000D02*
X13475000Y-17870000D01*
X13534050Y-9588750D02*
X13574050Y-9628750D01*
X13574050Y-9588750D02*
X13534050Y-9628750D01*
X13561946Y-8645486D02*
X13601946Y-8685486D01*
X13601946Y-8645486D02*
X13561946Y-8685486D01*
X13625000Y-16880000D02*
X13665000Y-16920000D01*
X13665000Y-16880000D02*
X13625000Y-16920000D01*
X13625000Y-17030000D02*
X13665000Y-17070000D01*
X13665000Y-17030000D02*
X13625000Y-17070000D01*
X13625000Y-17180000D02*
X13665000Y-17220000D01*
X13665000Y-17180000D02*
X13625000Y-17220000D01*
X13625000Y-17530000D02*
X13665000Y-17570000D01*
X13665000Y-17530000D02*
X13625000Y-17570000D01*
X13625000Y-17680000D02*
X13665000Y-17720000D01*
X13665000Y-17680000D02*
X13625000Y-17720000D01*
X13625000Y-17830000D02*
X13665000Y-17870000D01*
X13665000Y-17830000D02*
X13625000Y-17870000D01*
X13660000Y-2980000D02*
X13700000Y-3020000D01*
X13700000Y-2980000D02*
X13660000Y-3020000D01*
X13722550Y-5487550D02*
X13762550Y-5527550D01*
X13762550Y-5487550D02*
X13722550Y-5527550D01*
X13740000Y-7140000D02*
X13780000Y-7180000D01*
X13780000Y-7140000D02*
X13740000Y-7180000D01*
X13780000Y-3660000D02*
X13820000Y-3700000D01*
X13820000Y-3660000D02*
X13780000Y-3700000D01*
X13840000Y-7460000D02*
X13880000Y-7500000D01*
X13880000Y-7460000D02*
X13840000Y-7500000D01*
X4335000Y-2362500D02*
G75*
G03*
X4335000Y-2362500I-20000J0D01*
G01*
X4335000Y-3362500D02*
G75*
G03*
X4335000Y-3362500I-20000J0D01*
G01*
X4335000Y-4362500D02*
G75*
G03*
X4335000Y-4362500I-20000J0D01*
G01*
X4335000Y-5362500D02*
G75*
G03*
X4335000Y-5362500I-20000J0D01*
G01*
X4335000Y-6362500D02*
G75*
G03*
X4335000Y-6362500I-20000J0D01*
G01*
X4335000Y-7362500D02*
G75*
G03*
X4335000Y-7362500I-20000J0D01*
G01*
X4335000Y-8362500D02*
G75*
G03*
X4335000Y-8362500I-20000J0D01*
G01*
X4335000Y-9362500D02*
G75*
G03*
X4335000Y-9362500I-20000J0D01*
G01*
X4335000Y-10362500D02*
G75*
G03*
X4335000Y-10362500I-20000J0D01*
G01*
X4335000Y-11362500D02*
G75*
G03*
X4335000Y-11362500I-20000J0D01*
G01*
X4335000Y-12362500D02*
G75*
G03*
X4335000Y-12362500I-20000J0D01*
G01*
X4335000Y-13362500D02*
G75*
G03*
X4335000Y-13362500I-20000J0D01*
G01*
X4335000Y-14362500D02*
G75*
G03*
X4335000Y-14362500I-20000J0D01*
G01*
X4335000Y-15362500D02*
G75*
G03*
X4335000Y-15362500I-20000J0D01*
G01*
X4335000Y-16362500D02*
G75*
G03*
X4335000Y-16362500I-20000J0D01*
G01*
X4335000Y-17362500D02*
G75*
G03*
X4335000Y-17362500I-20000J0D01*
G01*
X14085000Y-2337500D02*
G75*
G03*
X14085000Y-2337500I-20000J0D01*
G01*
X14085000Y-3337500D02*
G75*
G03*
X14085000Y-3337500I-20000J0D01*
G01*
X14085000Y-4337500D02*
G75*
G03*
X14085000Y-4337500I-20000J0D01*
G01*
X14085000Y-5337500D02*
G75*
G03*
X14085000Y-5337500I-20000J0D01*
G01*
X14085000Y-6337500D02*
G75*
G03*
X14085000Y-6337500I-20000J0D01*
G01*
X14085000Y-7337500D02*
G75*
G03*
X14085000Y-7337500I-20000J0D01*
G01*
X14085000Y-8337500D02*
G75*
G03*
X14085000Y-8337500I-20000J0D01*
G01*
X14085000Y-9337500D02*
G75*
G03*
X14085000Y-9337500I-20000J0D01*
G01*
X14085000Y-10337500D02*
G75*
G03*
X14085000Y-10337500I-20000J0D01*
G01*
X14085000Y-11337500D02*
G75*
G03*
X14085000Y-11337500I-20000J0D01*
G01*
X14085000Y-12337500D02*
G75*
G03*
X14085000Y-12337500I-20000J0D01*
G01*
X14085000Y-13337500D02*
G75*
G03*
X14085000Y-13337500I-20000J0D01*
G01*
X14085000Y-14337500D02*
G75*
G03*
X14085000Y-14337500I-20000J0D01*
G01*
X14085000Y-15337500D02*
G75*
G03*
X14085000Y-15337500I-20000J0D01*
G01*
X14085000Y-16337500D02*
G75*
G03*
X14085000Y-16337500I-20000J0D01*
G01*
X14085000Y-17337500D02*
G75*
G03*
X14085000Y-17337500I-20000J0D01*
G01*
D13*
X9840000Y-6595000D02*
X9840000Y-6660000D01*
X9807500Y-6627500D02*
X9872500Y-6627500D01*
X9967000Y-6595000D02*
X9967000Y-6660000D01*
X9934500Y-6627500D02*
X9999500Y-6627500D01*
X10210000Y-6595000D02*
X10210000Y-6660000D01*
X10177500Y-6627500D02*
X10242500Y-6627500D01*
X10337000Y-6595000D02*
X10337000Y-6660000D01*
X10304500Y-6627500D02*
X10369500Y-6627500D01*
D14*
X4604749Y-11510749D02*
X4604749Y-11461251D01*
X4555251Y-11461251D01*
X4555251Y-11510749D01*
X4604749Y-11510749D01*
X4604749Y-11764749D02*
X4604749Y-11715251D01*
X4555251Y-11715251D01*
X4555251Y-11764749D01*
X4604749Y-11764749D01*
X5064749Y-15884749D02*
X5064749Y-15835251D01*
X5015251Y-15835251D01*
X5015251Y-15884749D01*
X5064749Y-15884749D01*
X5358749Y-14764749D02*
X5358749Y-14715251D01*
X5309251Y-14715251D01*
X5309251Y-14764749D01*
X5358749Y-14764749D01*
X5612749Y-14764749D02*
X5612749Y-14715251D01*
X5563251Y-14715251D01*
X5563251Y-14764749D01*
X5612749Y-14764749D01*
X5744749Y-12044749D02*
X5744749Y-11995251D01*
X5695251Y-11995251D01*
X5695251Y-12044749D01*
X5744749Y-12044749D01*
X6714749Y-3309749D02*
X6714749Y-3260251D01*
X6665251Y-3260251D01*
X6665251Y-3309749D01*
X6714749Y-3309749D01*
X6816349Y-3487749D02*
X6816349Y-3438251D01*
X6766851Y-3438251D01*
X6766851Y-3487749D01*
X6816349Y-3487749D01*
X6917949Y-3309749D02*
X6917949Y-3260251D01*
X6868451Y-3260251D01*
X6868451Y-3309749D01*
X6917949Y-3309749D01*
X7019549Y-3487749D02*
X7019549Y-3438251D01*
X6970051Y-3438251D01*
X6970051Y-3487749D01*
X7019549Y-3487749D01*
X7121149Y-3309749D02*
X7121149Y-3260251D01*
X7071651Y-3260251D01*
X7071651Y-3309749D01*
X7121149Y-3309749D01*
X7222749Y-3487749D02*
X7222749Y-3438251D01*
X7173251Y-3438251D01*
X7173251Y-3487749D01*
X7222749Y-3487749D01*
X7324349Y-3309749D02*
X7324349Y-3260251D01*
X7274851Y-3260251D01*
X7274851Y-3309749D01*
X7324349Y-3309749D01*
X7324749Y-10234749D02*
X7324749Y-10185251D01*
X7275251Y-10185251D01*
X7275251Y-10234749D01*
X7324749Y-10234749D01*
X7425949Y-3487749D02*
X7425949Y-3438251D01*
X7376451Y-3438251D01*
X7376451Y-3487749D01*
X7425949Y-3487749D01*
X9214749Y-3309749D02*
X9214749Y-3260251D01*
X9165251Y-3260251D01*
X9165251Y-3309749D01*
X9214749Y-3309749D01*
X9316349Y-3487749D02*
X9316349Y-3438251D01*
X9266851Y-3438251D01*
X9266851Y-3487749D01*
X9316349Y-3487749D01*
X9417949Y-3309749D02*
X9417949Y-3260251D01*
X9368451Y-3260251D01*
X9368451Y-3309749D01*
X9417949Y-3309749D01*
X9519549Y-3487749D02*
X9519549Y-3438251D01*
X9470051Y-3438251D01*
X9470051Y-3487749D01*
X9519549Y-3487749D01*
X9621149Y-3309749D02*
X9621149Y-3260251D01*
X9571651Y-3260251D01*
X9571651Y-3309749D01*
X9621149Y-3309749D01*
X9722749Y-3487749D02*
X9722749Y-3438251D01*
X9673251Y-3438251D01*
X9673251Y-3487749D01*
X9722749Y-3487749D01*
X9824349Y-3309749D02*
X9824349Y-3260251D01*
X9774851Y-3260251D01*
X9774851Y-3309749D01*
X9824349Y-3309749D01*
X9925949Y-3487749D02*
X9925949Y-3438251D01*
X9876451Y-3438251D01*
X9876451Y-3487749D01*
X9925949Y-3487749D01*
X10924749Y-2262749D02*
X10924749Y-2213251D01*
X10875251Y-2213251D01*
X10875251Y-2262749D01*
X10924749Y-2262749D01*
X10924749Y-2516749D02*
X10924749Y-2467251D01*
X10875251Y-2467251D01*
X10875251Y-2516749D01*
X10924749Y-2516749D01*
X10924749Y-2770749D02*
X10924749Y-2721251D01*
X10875251Y-2721251D01*
X10875251Y-2770749D01*
X10924749Y-2770749D01*
X10924749Y-3024749D02*
X10924749Y-2975251D01*
X10875251Y-2975251D01*
X10875251Y-3024749D01*
X10924749Y-3024749D01*
X10924749Y-5064749D02*
X10924749Y-5015251D01*
X10875251Y-5015251D01*
X10875251Y-5064749D01*
X10924749Y-5064749D01*
X10924749Y-5318749D02*
X10924749Y-5269251D01*
X10875251Y-5269251D01*
X10875251Y-5318749D01*
X10924749Y-5318749D01*
X10924749Y-5570749D02*
X10924749Y-5521251D01*
X10875251Y-5521251D01*
X10875251Y-5570749D01*
X10924749Y-5570749D01*
X10924749Y-5824749D02*
X10924749Y-5775251D01*
X10875251Y-5775251D01*
X10875251Y-5824749D01*
X10924749Y-5824749D01*
X12134749Y-9714749D02*
X12134749Y-9665251D01*
X12085251Y-9665251D01*
X12085251Y-9714749D01*
X12134749Y-9714749D01*
X12134749Y-9914749D02*
X12134749Y-9865251D01*
X12085251Y-9865251D01*
X12085251Y-9914749D01*
X12134749Y-9914749D01*
X12134749Y-10114749D02*
X12134749Y-10065251D01*
X12085251Y-10065251D01*
X12085251Y-10114749D01*
X12134749Y-10114749D01*
X12144749Y-14134749D02*
X12144749Y-14085251D01*
X12095251Y-14085251D01*
X12095251Y-14134749D01*
X12144749Y-14134749D01*
X12147749Y-13734749D02*
X12147749Y-13685251D01*
X12098251Y-13685251D01*
X12098251Y-13734749D01*
X12147749Y-13734749D01*
X12147749Y-13934749D02*
X12147749Y-13885251D01*
X12098251Y-13885251D01*
X12098251Y-13934749D01*
X12147749Y-13934749D01*
X12274749Y-8274749D02*
X12274749Y-8225251D01*
X12225251Y-8225251D01*
X12225251Y-8274749D01*
X12274749Y-8274749D01*
X12274749Y-11884749D02*
X12274749Y-11835251D01*
X12225251Y-11835251D01*
X12225251Y-11884749D01*
X12274749Y-11884749D01*
X12274749Y-12274749D02*
X12274749Y-12225251D01*
X12225251Y-12225251D01*
X12225251Y-12274749D01*
X12274749Y-12274749D01*
X12294749Y-15894749D02*
X12294749Y-15845251D01*
X12245251Y-15845251D01*
X12245251Y-15894749D01*
X12294749Y-15894749D01*
X13644749Y-3284749D02*
X13644749Y-3235251D01*
X13595251Y-3235251D01*
X13595251Y-3284749D01*
X13644749Y-3284749D01*
X13644749Y-3538749D02*
X13644749Y-3489251D01*
X13595251Y-3489251D01*
X13595251Y-3538749D01*
X13644749Y-3538749D01*
X13644749Y-8830749D02*
X13644749Y-8781251D01*
X13595251Y-8781251D01*
X13595251Y-8830749D01*
X13644749Y-8830749D01*
X13644749Y-9084749D02*
X13644749Y-9035251D01*
X13595251Y-9035251D01*
X13595251Y-9084749D01*
X13644749Y-9084749D01*
X13644749Y-9864749D02*
X13644749Y-9815251D01*
X13595251Y-9815251D01*
X13595251Y-9864749D01*
X13644749Y-9864749D01*
X13644749Y-10104749D02*
X13644749Y-10055251D01*
X13595251Y-10055251D01*
X13595251Y-10104749D01*
X13644749Y-10104749D01*
X13644749Y-12670749D02*
X13644749Y-12621251D01*
X13595251Y-12621251D01*
X13595251Y-12670749D01*
X13644749Y-12670749D01*
X13644749Y-12924749D02*
X13644749Y-12875251D01*
X13595251Y-12875251D01*
X13595251Y-12924749D01*
X13644749Y-12924749D01*
X13644749Y-13740749D02*
X13644749Y-13691251D01*
X13595251Y-13691251D01*
X13595251Y-13740749D01*
X13644749Y-13740749D01*
X13644749Y-13984749D02*
X13644749Y-13935251D01*
X13595251Y-13935251D01*
X13595251Y-13984749D01*
X13644749Y-13984749D01*
D15*
X4290000Y-10175600D02*
X4328100Y-10137500D01*
X4290000Y-10099400D01*
X4251900Y-10137500D01*
X4290000Y-10175600D01*
X14090000Y-10175600D02*
X14128100Y-10137500D01*
X14090000Y-10099400D01*
X14051900Y-10137500D01*
X14090000Y-10175600D01*
D16*
X6346550Y-3646400D02*
X6436550Y-3736400D01*
X6436550Y-3646400D02*
X6346550Y-3736400D01*
X6436550Y-3691400D02*
G75*
G03*
X6436550Y-3691400I-45000J0D01*
G01*
X6575150Y-3646400D02*
X6665150Y-3736400D01*
X6665150Y-3646400D02*
X6575150Y-3736400D01*
X6665150Y-3691400D02*
G75*
G03*
X6665150Y-3691400I-45000J0D01*
G01*
X7426050Y-3646400D02*
X7516050Y-3736400D01*
X7516050Y-3646400D02*
X7426050Y-3736400D01*
X7516050Y-3691400D02*
G75*
G03*
X7516050Y-3691400I-45000J0D01*
G01*
X7654650Y-3646400D02*
X7744650Y-3736400D01*
X7744650Y-3646400D02*
X7654650Y-3736400D01*
X7744650Y-3691400D02*
G75*
G03*
X7744650Y-3691400I-45000J0D01*
G01*
X8846550Y-3646400D02*
X8936550Y-3736400D01*
X8936550Y-3646400D02*
X8846550Y-3736400D01*
X8936550Y-3691400D02*
G75*
G03*
X8936550Y-3691400I-45000J0D01*
G01*
X9075150Y-3646400D02*
X9165150Y-3736400D01*
X9165150Y-3646400D02*
X9075150Y-3736400D01*
X9165150Y-3691400D02*
G75*
G03*
X9165150Y-3691400I-45000J0D01*
G01*
X9926050Y-3646400D02*
X10016050Y-3736400D01*
X10016050Y-3646400D02*
X9926050Y-3736400D01*
X10016050Y-3691400D02*
G75*
G03*
X10016050Y-3691400I-45000J0D01*
G01*
X10154650Y-3646400D02*
X10244650Y-3736400D01*
X10244650Y-3646400D02*
X10154650Y-3736400D01*
X10244650Y-3691400D02*
G75*
G03*
X10244650Y-3691400I-45000J0D01*
G01*
D17*
X4850000Y-3122000D02*
X4950000Y-3222000D01*
X4950000Y-3122000D02*
X4850000Y-3222000D01*
X4900000Y-3122000D02*
X4900000Y-3222000D01*
X4850000Y-3172000D02*
X4950000Y-3172000D01*
X4850000Y-3376000D02*
X4950000Y-3476000D01*
X4950000Y-3376000D02*
X4850000Y-3476000D01*
X4900000Y-3376000D02*
X4900000Y-3476000D01*
X4850000Y-3426000D02*
X4950000Y-3426000D01*
X4850000Y-3630000D02*
X4950000Y-3730000D01*
X4950000Y-3630000D02*
X4850000Y-3730000D01*
X4900000Y-3630000D02*
X4900000Y-3730000D01*
X4850000Y-3680000D02*
X4950000Y-3680000D01*
X5135000Y-5774000D02*
X5235000Y-5874000D01*
X5235000Y-5774000D02*
X5135000Y-5874000D01*
X5185000Y-5774000D02*
X5185000Y-5874000D01*
X5135000Y-5824000D02*
X5235000Y-5824000D01*
X5230000Y-2390000D02*
X5330000Y-2490000D01*
X5330000Y-2390000D02*
X5230000Y-2490000D01*
X5280000Y-2390000D02*
X5280000Y-2490000D01*
X5230000Y-2440000D02*
X5330000Y-2440000D01*
X5230000Y-2640000D02*
X5330000Y-2740000D01*
X5330000Y-2640000D02*
X5230000Y-2740000D01*
X5280000Y-2640000D02*
X5280000Y-2740000D01*
X5230000Y-2690000D02*
X5330000Y-2690000D01*
X5590000Y-2390000D02*
X5690000Y-2490000D01*
X5690000Y-2390000D02*
X5590000Y-2490000D01*
X5640000Y-2390000D02*
X5640000Y-2490000D01*
X5590000Y-2440000D02*
X5690000Y-2440000D01*
X5590000Y-2640000D02*
X5690000Y-2740000D01*
X5690000Y-2640000D02*
X5590000Y-2740000D01*
X5640000Y-2640000D02*
X5640000Y-2740000D01*
X5590000Y-2690000D02*
X5690000Y-2690000D01*
X6005000Y-2600000D02*
X6105000Y-2700000D01*
X6105000Y-2600000D02*
X6005000Y-2700000D01*
X6055000Y-2600000D02*
X6055000Y-2700000D01*
X6005000Y-2650000D02*
X6105000Y-2650000D01*
D11*
X6015000Y-2580000D02*
X6015000Y-2720000D01*
X6095000Y-2580000D02*
X6095000Y-2720000D01*
X6015000Y-2720000D02*
G75*
G03*
X6095000Y-2720000I40000J0D01*
G01*
X6095000Y-2580000D02*
G75*
G03*
X6015000Y-2580000I-40000J0D01*
G01*
D17*
X7800000Y-4050000D02*
X7900000Y-4150000D01*
X7900000Y-4050000D02*
X7800000Y-4150000D01*
X7850000Y-4050000D02*
X7850000Y-4150000D01*
X7800000Y-4100000D02*
X7900000Y-4100000D01*
X7998900Y-2600000D02*
X8098900Y-2700000D01*
X8098900Y-2600000D02*
X7998900Y-2700000D01*
X8048900Y-2600000D02*
X8048900Y-2700000D01*
X7998900Y-2650000D02*
X8098900Y-2650000D01*
D11*
X8008900Y-2580000D02*
X8008900Y-2720000D01*
X8088900Y-2580000D02*
X8088900Y-2720000D01*
X8008900Y-2720000D02*
G75*
G03*
X8088900Y-2720000I40000J0D01*
G01*
X8088900Y-2580000D02*
G75*
G03*
X8008900Y-2580000I-40000J0D01*
G01*
D17*
X8505000Y-2600000D02*
X8605000Y-2700000D01*
X8605000Y-2600000D02*
X8505000Y-2700000D01*
X8555000Y-2600000D02*
X8555000Y-2700000D01*
X8505000Y-2650000D02*
X8605000Y-2650000D01*
D11*
X8515000Y-2580000D02*
X8515000Y-2720000D01*
X8595000Y-2580000D02*
X8595000Y-2720000D01*
X8515000Y-2720000D02*
G75*
G03*
X8595000Y-2720000I40000J0D01*
G01*
X8595000Y-2580000D02*
G75*
G03*
X8515000Y-2580000I-40000J0D01*
G01*
D17*
X9371000Y-4016000D02*
X9471000Y-4116000D01*
X9471000Y-4016000D02*
X9371000Y-4116000D01*
X9421000Y-4016000D02*
X9421000Y-4116000D01*
X9371000Y-4066000D02*
X9471000Y-4066000D01*
X9371000Y-4270000D02*
X9471000Y-4370000D01*
X9471000Y-4270000D02*
X9371000Y-4370000D01*
X9421000Y-4270000D02*
X9421000Y-4370000D01*
X9371000Y-4320000D02*
X9471000Y-4320000D01*
X9423500Y-4590000D02*
X9523500Y-4690000D01*
X9523500Y-4590000D02*
X9423500Y-4690000D01*
X9473500Y-4590000D02*
X9473500Y-4690000D01*
X9423500Y-4640000D02*
X9523500Y-4640000D01*
X9677500Y-4590000D02*
X9777500Y-4690000D01*
X9777500Y-4590000D02*
X9677500Y-4690000D01*
X9727500Y-4590000D02*
X9727500Y-4690000D01*
X9677500Y-4640000D02*
X9777500Y-4640000D01*
X10498900Y-2600000D02*
X10598900Y-2700000D01*
X10598900Y-2600000D02*
X10498900Y-2700000D01*
X10548900Y-2600000D02*
X10548900Y-2700000D01*
X10498900Y-2650000D02*
X10598900Y-2650000D01*
D11*
X10508900Y-2580000D02*
X10508900Y-2720000D01*
X10588900Y-2580000D02*
X10588900Y-2720000D01*
X10508900Y-2720000D02*
G75*
G03*
X10588900Y-2720000I40000J0D01*
G01*
X10588900Y-2580000D02*
G75*
G03*
X10508900Y-2580000I-40000J0D01*
G01*
D17*
X11260000Y-2196250D02*
X11360000Y-2296250D01*
X11360000Y-2196250D02*
X11260000Y-2296250D01*
X11310000Y-2196250D02*
X11310000Y-2296250D01*
X11260000Y-2246250D02*
X11360000Y-2246250D01*
X11260000Y-2450250D02*
X11360000Y-2550250D01*
X11360000Y-2450250D02*
X11260000Y-2550250D01*
X11310000Y-2450250D02*
X11310000Y-2550250D01*
X11260000Y-2500250D02*
X11360000Y-2500250D01*
X11260000Y-2704250D02*
X11360000Y-2804250D01*
X11360000Y-2704250D02*
X11260000Y-2804250D01*
X11310000Y-2704250D02*
X11310000Y-2804250D01*
X11260000Y-2754250D02*
X11360000Y-2754250D01*
X11260000Y-2958250D02*
X11360000Y-3058250D01*
X11360000Y-2958250D02*
X11260000Y-3058250D01*
X11310000Y-2958250D02*
X11310000Y-3058250D01*
X11260000Y-3008250D02*
X11360000Y-3008250D01*
X11260000Y-3212250D02*
X11360000Y-3312250D01*
X11360000Y-3212250D02*
X11260000Y-3312250D01*
X11310000Y-3212250D02*
X11310000Y-3312250D01*
X11260000Y-3262250D02*
X11360000Y-3262250D01*
X11260000Y-3466250D02*
X11360000Y-3566250D01*
X11360000Y-3466250D02*
X11260000Y-3566250D01*
X11310000Y-3466250D02*
X11310000Y-3566250D01*
X11260000Y-3516250D02*
X11360000Y-3516250D01*
X11260000Y-3720250D02*
X11360000Y-3820250D01*
X11360000Y-3720250D02*
X11260000Y-3820250D01*
X11310000Y-3720250D02*
X11310000Y-3820250D01*
X11260000Y-3770250D02*
X11360000Y-3770250D01*
X11260000Y-3974250D02*
X11360000Y-4074250D01*
X11360000Y-3974250D02*
X11260000Y-4074250D01*
X11310000Y-3974250D02*
X11310000Y-4074250D01*
X11260000Y-4024250D02*
X11360000Y-4024250D01*
X11260000Y-4228250D02*
X11360000Y-4328250D01*
X11360000Y-4228250D02*
X11260000Y-4328250D01*
X11310000Y-4228250D02*
X11310000Y-4328250D01*
X11260000Y-4278250D02*
X11360000Y-4278250D01*
X11260000Y-4482250D02*
X11360000Y-4582250D01*
X11360000Y-4482250D02*
X11260000Y-4582250D01*
X11310000Y-4482250D02*
X11310000Y-4582250D01*
X11260000Y-4532250D02*
X11360000Y-4532250D01*
X11260000Y-4736250D02*
X11360000Y-4836250D01*
X11360000Y-4736250D02*
X11260000Y-4836250D01*
X11310000Y-4736250D02*
X11310000Y-4836250D01*
X11260000Y-4786250D02*
X11360000Y-4786250D01*
X11260000Y-4990250D02*
X11360000Y-5090250D01*
X11360000Y-4990250D02*
X11260000Y-5090250D01*
X11310000Y-4990250D02*
X11310000Y-5090250D01*
X11260000Y-5040250D02*
X11360000Y-5040250D01*
X11260000Y-5244250D02*
X11360000Y-5344250D01*
X11360000Y-5244250D02*
X11260000Y-5344250D01*
X11310000Y-5244250D02*
X11310000Y-5344250D01*
X11260000Y-5294250D02*
X11360000Y-5294250D01*
X11260000Y-5498250D02*
X11360000Y-5598250D01*
X11360000Y-5498250D02*
X11260000Y-5598250D01*
X11310000Y-5498250D02*
X11310000Y-5598250D01*
X11260000Y-5548250D02*
X11360000Y-5548250D01*
X11260000Y-5752250D02*
X11360000Y-5852250D01*
X11360000Y-5752250D02*
X11260000Y-5852250D01*
X11310000Y-5752250D02*
X11310000Y-5852250D01*
X11260000Y-5802250D02*
X11360000Y-5802250D01*
X11260000Y-6006250D02*
X11360000Y-6106250D01*
X11360000Y-6006250D02*
X11260000Y-6106250D01*
X11310000Y-6006250D02*
X11310000Y-6106250D01*
X11260000Y-6056250D02*
X11360000Y-6056250D01*
X11260000Y-6260250D02*
X11360000Y-6360250D01*
X11360000Y-6260250D02*
X11260000Y-6360250D01*
X11310000Y-6260250D02*
X11310000Y-6360250D01*
X11260000Y-6310250D02*
X11360000Y-6310250D01*
X11260000Y-6514250D02*
X11360000Y-6614250D01*
X11360000Y-6514250D02*
X11260000Y-6614250D01*
X11310000Y-6514250D02*
X11310000Y-6614250D01*
X11260000Y-6564250D02*
X11360000Y-6564250D01*
X11260000Y-6768250D02*
X11360000Y-6868250D01*
X11360000Y-6768250D02*
X11260000Y-6868250D01*
X11310000Y-6768250D02*
X11310000Y-6868250D01*
X11260000Y-6818250D02*
X11360000Y-6818250D01*
X11260000Y-7022250D02*
X11360000Y-7122250D01*
X11360000Y-7022250D02*
X11260000Y-7122250D01*
X11310000Y-7022250D02*
X11310000Y-7122250D01*
X11260000Y-7072250D02*
X11360000Y-7072250D01*
X11505000Y-6976250D02*
X11605000Y-7076250D01*
X11605000Y-6976250D02*
X11505000Y-7076250D01*
X11555000Y-6976250D02*
X11555000Y-7076250D01*
X11505000Y-7026250D02*
X11605000Y-7026250D01*
X11514000Y-2958250D02*
X11614000Y-3058250D01*
X11614000Y-2958250D02*
X11514000Y-3058250D01*
X11564000Y-2958250D02*
X11564000Y-3058250D01*
X11514000Y-3008250D02*
X11614000Y-3008250D01*
X11514000Y-3212250D02*
X11614000Y-3312250D01*
X11614000Y-3212250D02*
X11514000Y-3312250D01*
X11564000Y-3212250D02*
X11564000Y-3312250D01*
X11514000Y-3262250D02*
X11614000Y-3262250D01*
X11514000Y-3466250D02*
X11614000Y-3566250D01*
X11614000Y-3466250D02*
X11514000Y-3566250D01*
X11564000Y-3466250D02*
X11564000Y-3566250D01*
X11514000Y-3516250D02*
X11614000Y-3516250D01*
X11514000Y-3720250D02*
X11614000Y-3820250D01*
X11614000Y-3720250D02*
X11514000Y-3820250D01*
X11564000Y-3720250D02*
X11564000Y-3820250D01*
X11514000Y-3770250D02*
X11614000Y-3770250D01*
X11514000Y-3974250D02*
X11614000Y-4074250D01*
X11614000Y-3974250D02*
X11514000Y-4074250D01*
X11564000Y-3974250D02*
X11564000Y-4074250D01*
X11514000Y-4024250D02*
X11614000Y-4024250D01*
X11514000Y-5244250D02*
X11614000Y-5344250D01*
X11614000Y-5244250D02*
X11514000Y-5344250D01*
X11564000Y-5244250D02*
X11564000Y-5344250D01*
X11514000Y-5294250D02*
X11614000Y-5294250D01*
X11514000Y-5498250D02*
X11614000Y-5598250D01*
X11614000Y-5498250D02*
X11514000Y-5598250D01*
X11564000Y-5498250D02*
X11564000Y-5598250D01*
X11514000Y-5548250D02*
X11614000Y-5548250D01*
X11514000Y-5752250D02*
X11614000Y-5852250D01*
X11614000Y-5752250D02*
X11514000Y-5852250D01*
X11564000Y-5752250D02*
X11564000Y-5852250D01*
X11514000Y-5802250D02*
X11614000Y-5802250D01*
X11514000Y-6006250D02*
X11614000Y-6106250D01*
X11614000Y-6006250D02*
X11514000Y-6106250D01*
X11564000Y-6006250D02*
X11564000Y-6106250D01*
X11514000Y-6056250D02*
X11614000Y-6056250D01*
X11514000Y-6260250D02*
X11614000Y-6360250D01*
X11614000Y-6260250D02*
X11514000Y-6360250D01*
X11564000Y-6260250D02*
X11564000Y-6360250D01*
X11514000Y-6310250D02*
X11614000Y-6310250D01*
X11514000Y-6514250D02*
X11614000Y-6614250D01*
X11614000Y-6514250D02*
X11514000Y-6614250D01*
X11564000Y-6514250D02*
X11564000Y-6614250D01*
X11514000Y-6564250D02*
X11614000Y-6564250D01*
X11514000Y-6768250D02*
X11614000Y-6868250D01*
X11614000Y-6768250D02*
X11514000Y-6868250D01*
X11564000Y-6768250D02*
X11564000Y-6868250D01*
X11514000Y-6818250D02*
X11614000Y-6818250D01*
X11759000Y-6976250D02*
X11859000Y-7076250D01*
X11859000Y-6976250D02*
X11759000Y-7076250D01*
X11809000Y-6976250D02*
X11809000Y-7076250D01*
X11759000Y-7026250D02*
X11859000Y-7026250D01*
X12013000Y-6976250D02*
X12113000Y-7076250D01*
X12113000Y-6976250D02*
X12013000Y-7076250D01*
X12063000Y-6976250D02*
X12063000Y-7076250D01*
X12013000Y-7026250D02*
X12113000Y-7026250D01*
X12267000Y-6976250D02*
X12367000Y-7076250D01*
X12367000Y-6976250D02*
X12267000Y-7076250D01*
X12317000Y-6976250D02*
X12317000Y-7076250D01*
X12267000Y-7026250D02*
X12367000Y-7026250D01*
X12521000Y-6976250D02*
X12621000Y-7076250D01*
X12621000Y-6976250D02*
X12521000Y-7076250D01*
X12571000Y-6976250D02*
X12571000Y-7076250D01*
X12521000Y-7026250D02*
X12621000Y-7026250D01*
X12775000Y-6976250D02*
X12875000Y-7076250D01*
X12875000Y-6976250D02*
X12775000Y-7076250D01*
X12825000Y-6976250D02*
X12825000Y-7076250D01*
X12775000Y-7026250D02*
X12875000Y-7026250D01*
X13020000Y-2196250D02*
X13120000Y-2296250D01*
X13120000Y-2196250D02*
X13020000Y-2296250D01*
X13070000Y-2196250D02*
X13070000Y-2296250D01*
X13020000Y-2246250D02*
X13120000Y-2246250D01*
X13020000Y-2450250D02*
X13120000Y-2550250D01*
X13120000Y-2450250D02*
X13020000Y-2550250D01*
X13070000Y-2450250D02*
X13070000Y-2550250D01*
X13020000Y-2500250D02*
X13120000Y-2500250D01*
X13020000Y-2704250D02*
X13120000Y-2804250D01*
X13120000Y-2704250D02*
X13020000Y-2804250D01*
X13070000Y-2704250D02*
X13070000Y-2804250D01*
X13020000Y-2754250D02*
X13120000Y-2754250D01*
X13020000Y-2958250D02*
X13120000Y-3058250D01*
X13120000Y-2958250D02*
X13020000Y-3058250D01*
X13070000Y-2958250D02*
X13070000Y-3058250D01*
X13020000Y-3008250D02*
X13120000Y-3008250D01*
X13020000Y-3212250D02*
X13120000Y-3312250D01*
X13120000Y-3212250D02*
X13020000Y-3312250D01*
X13070000Y-3212250D02*
X13070000Y-3312250D01*
X13020000Y-3262250D02*
X13120000Y-3262250D01*
X13020000Y-3466250D02*
X13120000Y-3566250D01*
X13120000Y-3466250D02*
X13020000Y-3566250D01*
X13070000Y-3466250D02*
X13070000Y-3566250D01*
X13020000Y-3516250D02*
X13120000Y-3516250D01*
X13020000Y-3720250D02*
X13120000Y-3820250D01*
X13120000Y-3720250D02*
X13020000Y-3820250D01*
X13070000Y-3720250D02*
X13070000Y-3820250D01*
X13020000Y-3770250D02*
X13120000Y-3770250D01*
X13020000Y-3974250D02*
X13120000Y-4074250D01*
X13120000Y-3974250D02*
X13020000Y-4074250D01*
X13070000Y-3974250D02*
X13070000Y-4074250D01*
X13020000Y-4024250D02*
X13120000Y-4024250D01*
X13020000Y-4228250D02*
X13120000Y-4328250D01*
X13120000Y-4228250D02*
X13020000Y-4328250D01*
X13070000Y-4228250D02*
X13070000Y-4328250D01*
X13020000Y-4278250D02*
X13120000Y-4278250D01*
X13020000Y-4482250D02*
X13120000Y-4582250D01*
X13120000Y-4482250D02*
X13020000Y-4582250D01*
X13070000Y-4482250D02*
X13070000Y-4582250D01*
X13020000Y-4532250D02*
X13120000Y-4532250D01*
X13020000Y-4736250D02*
X13120000Y-4836250D01*
X13120000Y-4736250D02*
X13020000Y-4836250D01*
X13070000Y-4736250D02*
X13070000Y-4836250D01*
X13020000Y-4786250D02*
X13120000Y-4786250D01*
X13020000Y-4990250D02*
X13120000Y-5090250D01*
X13120000Y-4990250D02*
X13020000Y-5090250D01*
X13070000Y-4990250D02*
X13070000Y-5090250D01*
X13020000Y-5040250D02*
X13120000Y-5040250D01*
X13020000Y-5244250D02*
X13120000Y-5344250D01*
X13120000Y-5244250D02*
X13020000Y-5344250D01*
X13070000Y-5244250D02*
X13070000Y-5344250D01*
X13020000Y-5294250D02*
X13120000Y-5294250D01*
X13020000Y-5498250D02*
X13120000Y-5598250D01*
X13120000Y-5498250D02*
X13020000Y-5598250D01*
X13070000Y-5498250D02*
X13070000Y-5598250D01*
X13020000Y-5548250D02*
X13120000Y-5548250D01*
X13020000Y-5752250D02*
X13120000Y-5852250D01*
X13120000Y-5752250D02*
X13020000Y-5852250D01*
X13070000Y-5752250D02*
X13070000Y-5852250D01*
X13020000Y-5802250D02*
X13120000Y-5802250D01*
X13020000Y-6006250D02*
X13120000Y-6106250D01*
X13120000Y-6006250D02*
X13020000Y-6106250D01*
X13070000Y-6006250D02*
X13070000Y-6106250D01*
X13020000Y-6056250D02*
X13120000Y-6056250D01*
X13020000Y-6260250D02*
X13120000Y-6360250D01*
X13120000Y-6260250D02*
X13020000Y-6360250D01*
X13070000Y-6260250D02*
X13070000Y-6360250D01*
X13020000Y-6310250D02*
X13120000Y-6310250D01*
X13020000Y-6514250D02*
X13120000Y-6614250D01*
X13120000Y-6514250D02*
X13020000Y-6614250D01*
X13070000Y-6514250D02*
X13070000Y-6614250D01*
X13020000Y-6564250D02*
X13120000Y-6564250D01*
X13020000Y-6768250D02*
X13120000Y-6868250D01*
X13120000Y-6768250D02*
X13020000Y-6868250D01*
X13070000Y-6768250D02*
X13070000Y-6868250D01*
X13020000Y-6818250D02*
X13120000Y-6818250D01*
X13020000Y-7022250D02*
X13120000Y-7122250D01*
X13120000Y-7022250D02*
X13020000Y-7122250D01*
X13070000Y-7022250D02*
X13070000Y-7122250D01*
X13020000Y-7072250D02*
X13120000Y-7072250D01*
D18*
X9157000Y-6905500D02*
X9264500Y-7013000D01*
X9264500Y-6905500D02*
X9157000Y-7013000D01*
X9248757Y-6997257D02*
X9248757Y-6921243D01*
X9172743Y-6921243D01*
X9172743Y-6997257D01*
X9248757Y-6997257D01*
X9157000Y-7159500D02*
X9264500Y-7267000D01*
X9264500Y-7159500D02*
X9157000Y-7267000D01*
X9248757Y-7251257D02*
X9248757Y-7175243D01*
X9172743Y-7175243D01*
X9172743Y-7251257D01*
X9248757Y-7251257D01*
X9157000Y-7413500D02*
X9264500Y-7521000D01*
X9264500Y-7413500D02*
X9157000Y-7521000D01*
X9248757Y-7505257D02*
X9248757Y-7429243D01*
X9172743Y-7429243D01*
X9172743Y-7505257D01*
X9248757Y-7505257D01*
X9157000Y-7667500D02*
X9264500Y-7775000D01*
X9264500Y-7667500D02*
X9157000Y-7775000D01*
X9248757Y-7759257D02*
X9248757Y-7683243D01*
X9172743Y-7683243D01*
X9172743Y-7759257D01*
X9248757Y-7759257D01*
X9827000Y-6905500D02*
X9934500Y-7013000D01*
X9934500Y-6905500D02*
X9827000Y-7013000D01*
X9918757Y-6997257D02*
X9918757Y-6921243D01*
X9842743Y-6921243D01*
X9842743Y-6997257D01*
X9918757Y-6997257D01*
X9827000Y-7159500D02*
X9934500Y-7267000D01*
X9934500Y-7159500D02*
X9827000Y-7267000D01*
X9918757Y-7251257D02*
X9918757Y-7175243D01*
X9842743Y-7175243D01*
X9842743Y-7251257D01*
X9918757Y-7251257D01*
X9827000Y-7413500D02*
X9934500Y-7521000D01*
X9934500Y-7413500D02*
X9827000Y-7521000D01*
X9918757Y-7505257D02*
X9918757Y-7429243D01*
X9842743Y-7429243D01*
X9842743Y-7505257D01*
X9918757Y-7505257D01*
X9827000Y-7667500D02*
X9934500Y-7775000D01*
X9934500Y-7667500D02*
X9827000Y-7775000D01*
X9918757Y-7759257D02*
X9918757Y-7683243D01*
X9842743Y-7683243D01*
X9842743Y-7759257D01*
X9918757Y-7759257D01*
D19*
X6130230Y-16685110D02*
X6259770Y-16814650D01*
X6259770Y-16685110D02*
X6130230Y-16814650D01*
X6195000Y-16814650D02*
X6259770Y-16749880D01*
X6195000Y-16685110D01*
X6130230Y-16749880D01*
X6195000Y-16814650D01*
X6130230Y-17505110D02*
X6259770Y-17634650D01*
X6259770Y-17505110D02*
X6130230Y-17634650D01*
X6195000Y-17634650D02*
X6259770Y-17569880D01*
X6195000Y-17505110D01*
X6130230Y-17569880D01*
X6195000Y-17634650D01*
X6630230Y-16685110D02*
X6759770Y-16814650D01*
X6759770Y-16685110D02*
X6630230Y-16814650D01*
X6695000Y-16814650D02*
X6759770Y-16749880D01*
X6695000Y-16685110D01*
X6630230Y-16749880D01*
X6695000Y-16814650D01*
X6630230Y-17505110D02*
X6759770Y-17634650D01*
X6759770Y-17505110D02*
X6630230Y-17634650D01*
X6695000Y-17634650D02*
X6759770Y-17569880D01*
X6695000Y-17505110D01*
X6630230Y-17569880D01*
X6695000Y-17634650D01*
X7130230Y-16685230D02*
X7259770Y-16814770D01*
X7259770Y-16685230D02*
X7130230Y-16814770D01*
X7195000Y-16814770D02*
X7259770Y-16750000D01*
X7195000Y-16685230D01*
X7130230Y-16750000D01*
X7195000Y-16814770D01*
X7130230Y-17505230D02*
X7259770Y-17634770D01*
X7259770Y-17505230D02*
X7130230Y-17634770D01*
X7195000Y-17634770D02*
X7259770Y-17570000D01*
X7195000Y-17505230D01*
X7130230Y-17570000D01*
X7195000Y-17634770D01*
X7630230Y-16685230D02*
X7759770Y-16814770D01*
X7759770Y-16685230D02*
X7630230Y-16814770D01*
X7695000Y-16814770D02*
X7759770Y-16750000D01*
X7695000Y-16685230D01*
X7630230Y-16750000D01*
X7695000Y-16814770D01*
X7630230Y-17505230D02*
X7759770Y-17634770D01*
X7759770Y-17505230D02*
X7630230Y-17634770D01*
X7695000Y-17634770D02*
X7759770Y-17570000D01*
X7695000Y-17505230D01*
X7630230Y-17570000D01*
X7695000Y-17634770D01*
X8130230Y-16685230D02*
X8259770Y-16814770D01*
X8259770Y-16685230D02*
X8130230Y-16814770D01*
X8195000Y-16814770D02*
X8259770Y-16750000D01*
X8195000Y-16685230D01*
X8130230Y-16750000D01*
X8195000Y-16814770D01*
X8130230Y-17505230D02*
X8259770Y-17634770D01*
X8259770Y-17505230D02*
X8130230Y-17634770D01*
X8195000Y-17634770D02*
X8259770Y-17570000D01*
X8195000Y-17505230D01*
X8130230Y-17570000D01*
X8195000Y-17634770D01*
X8630230Y-16685230D02*
X8759770Y-16814770D01*
X8759770Y-16685230D02*
X8630230Y-16814770D01*
X8695000Y-16814770D02*
X8759770Y-16750000D01*
X8695000Y-16685230D01*
X8630230Y-16750000D01*
X8695000Y-16814770D01*
X8630230Y-17505230D02*
X8759770Y-17634770D01*
X8759770Y-17505230D02*
X8630230Y-17634770D01*
X8695000Y-17634770D02*
X8759770Y-17570000D01*
X8695000Y-17505230D01*
X8630230Y-17570000D01*
X8695000Y-17634770D01*
X10630230Y-16685110D02*
X10759770Y-16814650D01*
X10759770Y-16685110D02*
X10630230Y-16814650D01*
X10695000Y-16814650D02*
X10759770Y-16749880D01*
X10695000Y-16685110D01*
X10630230Y-16749880D01*
X10695000Y-16814650D01*
X10630230Y-17505110D02*
X10759770Y-17634650D01*
X10759770Y-17505110D02*
X10630230Y-17634650D01*
X10695000Y-17634650D02*
X10759770Y-17569880D01*
X10695000Y-17505110D01*
X10630230Y-17569880D01*
X10695000Y-17634650D01*
X11130230Y-16685110D02*
X11259770Y-16814650D01*
X11259770Y-16685110D02*
X11130230Y-16814650D01*
X11195000Y-16814650D02*
X11259770Y-16749880D01*
X11195000Y-16685110D01*
X11130230Y-16749880D01*
X11195000Y-16814650D01*
X11130230Y-17505110D02*
X11259770Y-17634650D01*
X11259770Y-17505110D02*
X11130230Y-17634650D01*
X11195000Y-17634650D02*
X11259770Y-17569880D01*
X11195000Y-17505110D01*
X11130230Y-17569880D01*
X11195000Y-17634650D01*
X11630230Y-16685110D02*
X11759770Y-16814650D01*
X11759770Y-16685110D02*
X11630230Y-16814650D01*
X11695000Y-16814650D02*
X11759770Y-16749880D01*
X11695000Y-16685110D01*
X11630230Y-16749880D01*
X11695000Y-16814650D01*
X11630230Y-17505110D02*
X11759770Y-17634650D01*
X11759770Y-17505110D02*
X11630230Y-17634650D01*
X11695000Y-17634650D02*
X11759770Y-17569880D01*
X11695000Y-17505110D01*
X11630230Y-17569880D01*
X11695000Y-17634650D01*
X12130230Y-16685110D02*
X12259770Y-16814650D01*
X12259770Y-16685110D02*
X12130230Y-16814650D01*
X12195000Y-16814650D02*
X12259770Y-16749880D01*
X12195000Y-16685110D01*
X12130230Y-16749880D01*
X12195000Y-16814650D01*
X12130230Y-17505110D02*
X12259770Y-17634650D01*
X12259770Y-17505110D02*
X12130230Y-17634650D01*
X12195000Y-17634650D02*
X12259770Y-17569880D01*
X12195000Y-17505110D01*
X12130230Y-17569880D01*
X12195000Y-17634650D01*
D20*
X4695000Y-2465000D02*
X4695000Y-2735000D01*
X4560000Y-2600000D02*
X4830000Y-2600000D01*
X4830000Y-2600000D02*
G75*
G03*
X4830000Y-2600000I-135000J0D01*
G01*
X4695000Y-10965000D02*
X4695000Y-11235000D01*
X4560000Y-11100000D02*
X4830000Y-11100000D01*
X4830000Y-11100000D02*
G75*
G03*
X4830000Y-11100000I-135000J0D01*
G01*
X4695000Y-15965000D02*
X4695000Y-16235000D01*
X4560000Y-16100000D02*
X4830000Y-16100000D01*
X4830000Y-16100000D02*
G75*
G03*
X4830000Y-16100000I-135000J0D01*
G01*
X8195000Y-7965000D02*
X8195000Y-8235000D01*
X8060000Y-8100000D02*
X8330000Y-8100000D01*
X8330000Y-8100000D02*
G75*
G03*
X8330000Y-8100000I-135000J0D01*
G01*
X9795000Y-10965000D02*
X9795000Y-11235000D01*
X9660000Y-11100000D02*
X9930000Y-11100000D01*
X9930000Y-11100000D02*
G75*
G03*
X9930000Y-11100000I-135000J0D01*
G01*
X9795000Y-14965000D02*
X9795000Y-15235000D01*
X9660000Y-15100000D02*
X9930000Y-15100000D01*
X9930000Y-15100000D02*
G75*
G03*
X9930000Y-15100000I-135000J0D01*
G01*
X13695000Y-2465000D02*
X13695000Y-2735000D01*
X13560000Y-2600000D02*
X13830000Y-2600000D01*
X13830000Y-2600000D02*
G75*
G03*
X13830000Y-2600000I-135000J0D01*
G01*
X13695000Y-10965000D02*
X13695000Y-11235000D01*
X13560000Y-11100000D02*
X13830000Y-11100000D01*
X13830000Y-11100000D02*
G75*
G03*
X13830000Y-11100000I-135000J0D01*
G01*
X13695000Y-15965000D02*
X13695000Y-16235000D01*
X13560000Y-16100000D02*
X13830000Y-16100000D01*
X13830000Y-16100000D02*
G75*
G03*
X13830000Y-16100000I-135000J0D01*
G01*
D11*
X4427619Y-18435476D02*
X4427619Y-18235476D01*
X4475238Y-18235476D01*
X4503810Y-18245000D01*
X4522857Y-18264048D01*
X4532381Y-18283095D01*
X4541905Y-18321190D01*
X4541905Y-18349762D01*
X4532381Y-18387857D01*
X4522857Y-18406905D01*
X4503810Y-18425952D01*
X4475238Y-18435476D01*
X4427619Y-18435476D01*
X4627619Y-18435476D02*
X4627619Y-18302143D01*
X4627619Y-18340238D02*
X4637143Y-18321190D01*
X4646667Y-18311667D01*
X4665714Y-18302143D01*
X4684762Y-18302143D01*
X4751429Y-18435476D02*
X4751429Y-18302143D01*
X4751429Y-18235476D02*
X4741905Y-18245000D01*
X4751429Y-18254524D01*
X4760952Y-18245000D01*
X4751429Y-18235476D01*
X4751429Y-18254524D01*
X4875238Y-18435476D02*
X4856190Y-18425952D01*
X4846667Y-18406905D01*
X4846667Y-18235476D01*
X4980000Y-18435476D02*
X4960952Y-18425952D01*
X4951429Y-18406905D01*
X4951429Y-18235476D01*
X5208571Y-18435476D02*
X5208571Y-18235476D01*
X5275238Y-18378333D01*
X5341905Y-18235476D01*
X5341905Y-18435476D01*
X5522857Y-18435476D02*
X5522857Y-18330714D01*
X5513333Y-18311667D01*
X5494286Y-18302143D01*
X5456190Y-18302143D01*
X5437143Y-18311667D01*
X5522857Y-18425952D02*
X5503810Y-18435476D01*
X5456190Y-18435476D01*
X5437143Y-18425952D01*
X5427619Y-18406905D01*
X5427619Y-18387857D01*
X5437143Y-18368810D01*
X5456190Y-18359286D01*
X5503810Y-18359286D01*
X5522857Y-18349762D01*
X5618095Y-18302143D02*
X5618095Y-18502143D01*
X5618095Y-18311667D02*
X5637143Y-18302143D01*
X5675238Y-18302143D01*
X5694286Y-18311667D01*
X5703809Y-18321190D01*
X5713333Y-18340238D01*
X5713333Y-18397381D01*
X5703809Y-18416429D01*
X5694286Y-18425952D01*
X5675238Y-18435476D01*
X5637143Y-18435476D01*
X5618095Y-18425952D01*
X5799048Y-18416429D02*
X5808571Y-18425952D01*
X5799048Y-18435476D01*
X5789524Y-18425952D01*
X5799048Y-18416429D01*
X5799048Y-18435476D01*
X5799048Y-18311667D02*
X5808571Y-18321190D01*
X5799048Y-18330714D01*
X5789524Y-18321190D01*
X5799048Y-18311667D01*
X5799048Y-18330714D01*
D12*
X4130000Y-18745000D02*
X4170000Y-18785000D01*
X4170000Y-18745000D02*
X4130000Y-18785000D01*
D11*
X4465714Y-18655476D02*
X4484762Y-18655476D01*
X4503810Y-18665000D01*
X4513333Y-18674524D01*
X4522857Y-18693571D01*
X4532381Y-18731667D01*
X4532381Y-18779286D01*
X4522857Y-18817381D01*
X4513333Y-18836429D01*
X4503810Y-18845952D01*
X4484762Y-18855476D01*
X4465714Y-18855476D01*
X4446667Y-18845952D01*
X4437143Y-18836429D01*
X4427619Y-18817381D01*
X4418095Y-18779286D01*
X4418095Y-18731667D01*
X4427619Y-18693571D01*
X4437143Y-18674524D01*
X4446667Y-18665000D01*
X4465714Y-18655476D01*
X4618095Y-18836429D02*
X4627619Y-18845952D01*
X4618095Y-18855476D01*
X4608571Y-18845952D01*
X4618095Y-18836429D01*
X4618095Y-18855476D01*
X4799048Y-18722143D02*
X4799048Y-18855476D01*
X4751429Y-18645952D02*
X4703810Y-18788810D01*
X4827619Y-18788810D01*
X4941905Y-18655476D02*
X4960952Y-18655476D01*
X4980000Y-18665000D01*
X4989524Y-18674524D01*
X4999048Y-18693571D01*
X5008571Y-18731667D01*
X5008571Y-18779286D01*
X4999048Y-18817381D01*
X4989524Y-18836429D01*
X4980000Y-18845952D01*
X4960952Y-18855476D01*
X4941905Y-18855476D01*
X4922857Y-18845952D01*
X4913333Y-18836429D01*
X4903810Y-18817381D01*
X4894286Y-18779286D01*
X4894286Y-18731667D01*
X4903810Y-18693571D01*
X4913333Y-18674524D01*
X4922857Y-18665000D01*
X4941905Y-18655476D01*
X5132381Y-18655476D02*
X5151429Y-18655476D01*
X5170476Y-18665000D01*
X5180000Y-18674524D01*
X5189524Y-18693571D01*
X5199048Y-18731667D01*
X5199048Y-18779286D01*
X5189524Y-18817381D01*
X5180000Y-18836429D01*
X5170476Y-18845952D01*
X5151429Y-18855476D01*
X5132381Y-18855476D01*
X5113333Y-18845952D01*
X5103810Y-18836429D01*
X5094286Y-18817381D01*
X5084762Y-18779286D01*
X5084762Y-18731667D01*
X5094286Y-18693571D01*
X5103810Y-18674524D01*
X5113333Y-18665000D01*
X5132381Y-18655476D01*
X5284762Y-18855476D02*
X5284762Y-18722143D01*
X5284762Y-18741190D02*
X5294286Y-18731667D01*
X5313333Y-18722143D01*
X5341905Y-18722143D01*
X5360952Y-18731667D01*
X5370476Y-18750714D01*
X5370476Y-18855476D01*
X5370476Y-18750714D02*
X5380000Y-18731667D01*
X5399048Y-18722143D01*
X5427619Y-18722143D01*
X5446667Y-18731667D01*
X5456190Y-18750714D01*
X5456190Y-18855476D01*
X5551429Y-18855476D02*
X5551429Y-18722143D01*
X5551429Y-18741190D02*
X5560952Y-18731667D01*
X5580000Y-18722143D01*
X5608571Y-18722143D01*
X5627619Y-18731667D01*
X5637143Y-18750714D01*
X5637143Y-18855476D01*
X5637143Y-18750714D02*
X5646667Y-18731667D01*
X5665714Y-18722143D01*
X5694286Y-18722143D01*
X5713333Y-18731667D01*
X5722857Y-18750714D01*
X5722857Y-18855476D01*
X6113333Y-18645952D02*
X5941905Y-18903095D01*
X6370476Y-18655476D02*
X6389524Y-18655476D01*
X6408571Y-18665000D01*
X6418095Y-18674524D01*
X6427619Y-18693571D01*
X6437143Y-18731667D01*
X6437143Y-18779286D01*
X6427619Y-18817381D01*
X6418095Y-18836429D01*
X6408571Y-18845952D01*
X6389524Y-18855476D01*
X6370476Y-18855476D01*
X6351428Y-18845952D01*
X6341905Y-18836429D01*
X6332381Y-18817381D01*
X6322857Y-18779286D01*
X6322857Y-18731667D01*
X6332381Y-18693571D01*
X6341905Y-18674524D01*
X6351428Y-18665000D01*
X6370476Y-18655476D01*
X6522857Y-18836429D02*
X6532381Y-18845952D01*
X6522857Y-18855476D01*
X6513333Y-18845952D01*
X6522857Y-18836429D01*
X6522857Y-18855476D01*
X6656190Y-18655476D02*
X6675238Y-18655476D01*
X6694286Y-18665000D01*
X6703809Y-18674524D01*
X6713333Y-18693571D01*
X6722857Y-18731667D01*
X6722857Y-18779286D01*
X6713333Y-18817381D01*
X6703809Y-18836429D01*
X6694286Y-18845952D01*
X6675238Y-18855476D01*
X6656190Y-18855476D01*
X6637143Y-18845952D01*
X6627619Y-18836429D01*
X6618095Y-18817381D01*
X6608571Y-18779286D01*
X6608571Y-18731667D01*
X6618095Y-18693571D01*
X6627619Y-18674524D01*
X6637143Y-18665000D01*
X6656190Y-18655476D01*
X6913333Y-18855476D02*
X6799048Y-18855476D01*
X6856190Y-18855476D02*
X6856190Y-18655476D01*
X6837143Y-18684048D01*
X6818095Y-18703095D01*
X6799048Y-18712619D01*
X7094286Y-18655476D02*
X6999048Y-18655476D01*
X6989524Y-18750714D01*
X6999048Y-18741190D01*
X7018095Y-18731667D01*
X7065714Y-18731667D01*
X7084762Y-18741190D01*
X7094286Y-18750714D01*
X7103809Y-18769762D01*
X7103809Y-18817381D01*
X7094286Y-18836429D01*
X7084762Y-18845952D01*
X7065714Y-18855476D01*
X7018095Y-18855476D01*
X6999048Y-18845952D01*
X6989524Y-18836429D01*
X7170476Y-18655476D02*
X7303809Y-18655476D01*
X7218095Y-18855476D01*
X7370476Y-18655476D02*
X7370476Y-18693571D01*
X7446667Y-18655476D02*
X7446667Y-18693571D01*
X7741905Y-18931667D02*
X7732381Y-18922143D01*
X7713333Y-18893571D01*
X7703809Y-18874524D01*
X7694286Y-18845952D01*
X7684762Y-18798333D01*
X7684762Y-18760238D01*
X7694286Y-18712619D01*
X7703809Y-18684048D01*
X7713333Y-18665000D01*
X7732381Y-18636429D01*
X7741905Y-18626905D01*
X7913333Y-18655476D02*
X7818095Y-18655476D01*
X7808571Y-18750714D01*
X7818095Y-18741190D01*
X7837143Y-18731667D01*
X7884762Y-18731667D01*
X7903809Y-18741190D01*
X7913333Y-18750714D01*
X7922857Y-18769762D01*
X7922857Y-18817381D01*
X7913333Y-18836429D01*
X7903809Y-18845952D01*
X7884762Y-18855476D01*
X7837143Y-18855476D01*
X7818095Y-18845952D01*
X7808571Y-18836429D01*
X8094286Y-18655476D02*
X8056190Y-18655476D01*
X8037143Y-18665000D01*
X8027619Y-18674524D01*
X8008571Y-18703095D01*
X7999048Y-18741190D01*
X7999048Y-18817381D01*
X8008571Y-18836429D01*
X8018095Y-18845952D01*
X8037143Y-18855476D01*
X8075238Y-18855476D01*
X8094286Y-18845952D01*
X8103809Y-18836429D01*
X8113333Y-18817381D01*
X8113333Y-18769762D01*
X8103809Y-18750714D01*
X8094286Y-18741190D01*
X8075238Y-18731667D01*
X8037143Y-18731667D01*
X8018095Y-18741190D01*
X8008571Y-18750714D01*
X7999048Y-18769762D01*
X8294286Y-18655476D02*
X8199048Y-18655476D01*
X8189524Y-18750714D01*
X8199048Y-18741190D01*
X8218095Y-18731667D01*
X8265714Y-18731667D01*
X8284762Y-18741190D01*
X8294286Y-18750714D01*
X8303809Y-18769762D01*
X8303809Y-18817381D01*
X8294286Y-18836429D01*
X8284762Y-18845952D01*
X8265714Y-18855476D01*
X8218095Y-18855476D01*
X8199048Y-18845952D01*
X8189524Y-18836429D01*
X8541905Y-18855476D02*
X8541905Y-18655476D01*
X8627619Y-18855476D02*
X8627619Y-18750714D01*
X8618095Y-18731667D01*
X8599048Y-18722143D01*
X8570476Y-18722143D01*
X8551429Y-18731667D01*
X8541905Y-18741190D01*
X8751429Y-18855476D02*
X8732381Y-18845952D01*
X8722857Y-18836429D01*
X8713333Y-18817381D01*
X8713333Y-18760238D01*
X8722857Y-18741190D01*
X8732381Y-18731667D01*
X8751429Y-18722143D01*
X8780000Y-18722143D01*
X8799048Y-18731667D01*
X8808571Y-18741190D01*
X8818095Y-18760238D01*
X8818095Y-18817381D01*
X8808571Y-18836429D01*
X8799048Y-18845952D01*
X8780000Y-18855476D01*
X8751429Y-18855476D01*
X8932381Y-18855476D02*
X8913333Y-18845952D01*
X8903810Y-18826905D01*
X8903810Y-18655476D01*
X9084762Y-18845952D02*
X9065714Y-18855476D01*
X9027619Y-18855476D01*
X9008571Y-18845952D01*
X8999048Y-18826905D01*
X8999048Y-18750714D01*
X9008571Y-18731667D01*
X9027619Y-18722143D01*
X9065714Y-18722143D01*
X9084762Y-18731667D01*
X9094286Y-18750714D01*
X9094286Y-18769762D01*
X8999048Y-18788810D01*
X9170476Y-18845952D02*
X9189524Y-18855476D01*
X9227619Y-18855476D01*
X9246667Y-18845952D01*
X9256190Y-18826905D01*
X9256190Y-18817381D01*
X9246667Y-18798333D01*
X9227619Y-18788810D01*
X9199048Y-18788810D01*
X9180000Y-18779286D01*
X9170476Y-18760238D01*
X9170476Y-18750714D01*
X9180000Y-18731667D01*
X9199048Y-18722143D01*
X9227619Y-18722143D01*
X9246667Y-18731667D01*
X9322857Y-18931667D02*
X9332381Y-18922143D01*
X9351429Y-18893571D01*
X9360952Y-18874524D01*
X9370476Y-18845952D01*
X9380000Y-18798333D01*
X9380000Y-18760238D01*
X9370476Y-18712619D01*
X9360952Y-18684048D01*
X9351429Y-18665000D01*
X9332381Y-18636429D01*
X9322857Y-18626905D01*
D12*
X4170000Y-19029000D02*
G75*
G03*
X4170000Y-19029000I-20000J0D01*
G01*
D11*
X4465714Y-18919476D02*
X4484762Y-18919476D01*
X4503810Y-18929000D01*
X4513333Y-18938524D01*
X4522857Y-18957571D01*
X4532381Y-18995667D01*
X4532381Y-19043286D01*
X4522857Y-19081381D01*
X4513333Y-19100429D01*
X4503810Y-19109952D01*
X4484762Y-19119476D01*
X4465714Y-19119476D01*
X4446667Y-19109952D01*
X4437143Y-19100429D01*
X4427619Y-19081381D01*
X4418095Y-19043286D01*
X4418095Y-18995667D01*
X4427619Y-18957571D01*
X4437143Y-18938524D01*
X4446667Y-18929000D01*
X4465714Y-18919476D01*
X4618095Y-19100429D02*
X4627619Y-19109952D01*
X4618095Y-19119476D01*
X4608571Y-19109952D01*
X4618095Y-19100429D01*
X4618095Y-19119476D01*
X4799048Y-18986143D02*
X4799048Y-19119476D01*
X4751429Y-18909952D02*
X4703810Y-19052810D01*
X4827619Y-19052810D01*
X4941905Y-18919476D02*
X4960952Y-18919476D01*
X4980000Y-18929000D01*
X4989524Y-18938524D01*
X4999048Y-18957571D01*
X5008571Y-18995667D01*
X5008571Y-19043286D01*
X4999048Y-19081381D01*
X4989524Y-19100429D01*
X4980000Y-19109952D01*
X4960952Y-19119476D01*
X4941905Y-19119476D01*
X4922857Y-19109952D01*
X4913333Y-19100429D01*
X4903810Y-19081381D01*
X4894286Y-19043286D01*
X4894286Y-18995667D01*
X4903810Y-18957571D01*
X4913333Y-18938524D01*
X4922857Y-18929000D01*
X4941905Y-18919476D01*
X5132381Y-18919476D02*
X5151429Y-18919476D01*
X5170476Y-18929000D01*
X5180000Y-18938524D01*
X5189524Y-18957571D01*
X5199048Y-18995667D01*
X5199048Y-19043286D01*
X5189524Y-19081381D01*
X5180000Y-19100429D01*
X5170476Y-19109952D01*
X5151429Y-19119476D01*
X5132381Y-19119476D01*
X5113333Y-19109952D01*
X5103810Y-19100429D01*
X5094286Y-19081381D01*
X5084762Y-19043286D01*
X5084762Y-18995667D01*
X5094286Y-18957571D01*
X5103810Y-18938524D01*
X5113333Y-18929000D01*
X5132381Y-18919476D01*
X5284762Y-19119476D02*
X5284762Y-18986143D01*
X5284762Y-19005190D02*
X5294286Y-18995667D01*
X5313333Y-18986143D01*
X5341905Y-18986143D01*
X5360952Y-18995667D01*
X5370476Y-19014714D01*
X5370476Y-19119476D01*
X5370476Y-19014714D02*
X5380000Y-18995667D01*
X5399048Y-18986143D01*
X5427619Y-18986143D01*
X5446667Y-18995667D01*
X5456190Y-19014714D01*
X5456190Y-19119476D01*
X5551429Y-19119476D02*
X5551429Y-18986143D01*
X5551429Y-19005190D02*
X5560952Y-18995667D01*
X5580000Y-18986143D01*
X5608571Y-18986143D01*
X5627619Y-18995667D01*
X5637143Y-19014714D01*
X5637143Y-19119476D01*
X5637143Y-19014714D02*
X5646667Y-18995667D01*
X5665714Y-18986143D01*
X5694286Y-18986143D01*
X5713333Y-18995667D01*
X5722857Y-19014714D01*
X5722857Y-19119476D01*
X6113333Y-18909952D02*
X5941905Y-19167095D01*
X6370476Y-18919476D02*
X6389524Y-18919476D01*
X6408571Y-18929000D01*
X6418095Y-18938524D01*
X6427619Y-18957571D01*
X6437143Y-18995667D01*
X6437143Y-19043286D01*
X6427619Y-19081381D01*
X6418095Y-19100429D01*
X6408571Y-19109952D01*
X6389524Y-19119476D01*
X6370476Y-19119476D01*
X6351428Y-19109952D01*
X6341905Y-19100429D01*
X6332381Y-19081381D01*
X6322857Y-19043286D01*
X6322857Y-18995667D01*
X6332381Y-18957571D01*
X6341905Y-18938524D01*
X6351428Y-18929000D01*
X6370476Y-18919476D01*
X6522857Y-19100429D02*
X6532381Y-19109952D01*
X6522857Y-19119476D01*
X6513333Y-19109952D01*
X6522857Y-19100429D01*
X6522857Y-19119476D01*
X6656190Y-18919476D02*
X6675238Y-18919476D01*
X6694286Y-18929000D01*
X6703809Y-18938524D01*
X6713333Y-18957571D01*
X6722857Y-18995667D01*
X6722857Y-19043286D01*
X6713333Y-19081381D01*
X6703809Y-19100429D01*
X6694286Y-19109952D01*
X6675238Y-19119476D01*
X6656190Y-19119476D01*
X6637143Y-19109952D01*
X6627619Y-19100429D01*
X6618095Y-19081381D01*
X6608571Y-19043286D01*
X6608571Y-18995667D01*
X6618095Y-18957571D01*
X6627619Y-18938524D01*
X6637143Y-18929000D01*
X6656190Y-18919476D01*
X6913333Y-19119476D02*
X6799048Y-19119476D01*
X6856190Y-19119476D02*
X6856190Y-18919476D01*
X6837143Y-18948048D01*
X6818095Y-18967095D01*
X6799048Y-18976619D01*
X7094286Y-18919476D02*
X6999048Y-18919476D01*
X6989524Y-19014714D01*
X6999048Y-19005190D01*
X7018095Y-18995667D01*
X7065714Y-18995667D01*
X7084762Y-19005190D01*
X7094286Y-19014714D01*
X7103809Y-19033762D01*
X7103809Y-19081381D01*
X7094286Y-19100429D01*
X7084762Y-19109952D01*
X7065714Y-19119476D01*
X7018095Y-19119476D01*
X6999048Y-19109952D01*
X6989524Y-19100429D01*
X7170476Y-18919476D02*
X7303809Y-18919476D01*
X7218095Y-19119476D01*
X7370476Y-18919476D02*
X7370476Y-18957571D01*
X7446667Y-18919476D02*
X7446667Y-18957571D01*
X7741905Y-19195667D02*
X7732381Y-19186143D01*
X7713333Y-19157571D01*
X7703809Y-19138524D01*
X7694286Y-19109952D01*
X7684762Y-19062333D01*
X7684762Y-19024238D01*
X7694286Y-18976619D01*
X7703809Y-18948048D01*
X7713333Y-18929000D01*
X7732381Y-18900429D01*
X7741905Y-18890905D01*
X7799048Y-18919476D02*
X7922857Y-18919476D01*
X7856190Y-18995667D01*
X7884762Y-18995667D01*
X7903809Y-19005190D01*
X7913333Y-19014714D01*
X7922857Y-19033762D01*
X7922857Y-19081381D01*
X7913333Y-19100429D01*
X7903809Y-19109952D01*
X7884762Y-19119476D01*
X7827619Y-19119476D01*
X7808571Y-19109952D01*
X7799048Y-19100429D01*
X7999048Y-18938524D02*
X8008571Y-18929000D01*
X8027619Y-18919476D01*
X8075238Y-18919476D01*
X8094286Y-18929000D01*
X8103809Y-18938524D01*
X8113333Y-18957571D01*
X8113333Y-18976619D01*
X8103809Y-19005190D01*
X7989524Y-19119476D01*
X8113333Y-19119476D01*
X8351428Y-19119476D02*
X8351428Y-18919476D01*
X8437143Y-19119476D02*
X8437143Y-19014714D01*
X8427619Y-18995667D01*
X8408571Y-18986143D01*
X8380000Y-18986143D01*
X8360952Y-18995667D01*
X8351428Y-19005190D01*
X8560952Y-19119476D02*
X8541905Y-19109952D01*
X8532381Y-19100429D01*
X8522857Y-19081381D01*
X8522857Y-19024238D01*
X8532381Y-19005190D01*
X8541905Y-18995667D01*
X8560952Y-18986143D01*
X8589524Y-18986143D01*
X8608571Y-18995667D01*
X8618095Y-19005190D01*
X8627619Y-19024238D01*
X8627619Y-19081381D01*
X8618095Y-19100429D01*
X8608571Y-19109952D01*
X8589524Y-19119476D01*
X8560952Y-19119476D01*
X8741905Y-19119476D02*
X8722857Y-19109952D01*
X8713333Y-19090905D01*
X8713333Y-18919476D01*
X8894286Y-19109952D02*
X8875238Y-19119476D01*
X8837143Y-19119476D01*
X8818095Y-19109952D01*
X8808571Y-19090905D01*
X8808571Y-19014714D01*
X8818095Y-18995667D01*
X8837143Y-18986143D01*
X8875238Y-18986143D01*
X8894286Y-18995667D01*
X8903810Y-19014714D01*
X8903810Y-19033762D01*
X8808571Y-19052810D01*
X8980000Y-19109952D02*
X8999048Y-19119476D01*
X9037143Y-19119476D01*
X9056190Y-19109952D01*
X9065714Y-19090905D01*
X9065714Y-19081381D01*
X9056190Y-19062333D01*
X9037143Y-19052810D01*
X9008571Y-19052810D01*
X8989524Y-19043286D01*
X8980000Y-19024238D01*
X8980000Y-19014714D01*
X8989524Y-18995667D01*
X9008571Y-18986143D01*
X9037143Y-18986143D01*
X9056190Y-18995667D01*
X9132381Y-19195667D02*
X9141905Y-19186143D01*
X9160952Y-19157571D01*
X9170476Y-19138524D01*
X9180000Y-19109952D01*
X9189524Y-19062333D01*
X9189524Y-19024238D01*
X9180000Y-18976619D01*
X9170476Y-18948048D01*
X9160952Y-18929000D01*
X9141905Y-18900429D01*
X9132381Y-18890905D01*
D13*
X4137500Y-19260500D02*
X4137500Y-19325500D01*
X4105000Y-19293000D02*
X4170000Y-19293000D01*
D11*
X4465714Y-19183476D02*
X4484762Y-19183476D01*
X4503810Y-19193000D01*
X4513333Y-19202524D01*
X4522857Y-19221571D01*
X4532381Y-19259667D01*
X4532381Y-19307286D01*
X4522857Y-19345381D01*
X4513333Y-19364429D01*
X4503810Y-19373952D01*
X4484762Y-19383476D01*
X4465714Y-19383476D01*
X4446667Y-19373952D01*
X4437143Y-19364429D01*
X4427619Y-19345381D01*
X4418095Y-19307286D01*
X4418095Y-19259667D01*
X4427619Y-19221571D01*
X4437143Y-19202524D01*
X4446667Y-19193000D01*
X4465714Y-19183476D01*
X4618095Y-19364429D02*
X4627619Y-19373952D01*
X4618095Y-19383476D01*
X4608571Y-19373952D01*
X4618095Y-19364429D01*
X4618095Y-19383476D01*
X4799048Y-19183476D02*
X4760952Y-19183476D01*
X4741905Y-19193000D01*
X4732381Y-19202524D01*
X4713333Y-19231095D01*
X4703810Y-19269190D01*
X4703810Y-19345381D01*
X4713333Y-19364429D01*
X4722857Y-19373952D01*
X4741905Y-19383476D01*
X4780000Y-19383476D01*
X4799048Y-19373952D01*
X4808571Y-19364429D01*
X4818095Y-19345381D01*
X4818095Y-19297762D01*
X4808571Y-19278714D01*
X4799048Y-19269190D01*
X4780000Y-19259667D01*
X4741905Y-19259667D01*
X4722857Y-19269190D01*
X4713333Y-19278714D01*
X4703810Y-19297762D01*
X4999048Y-19183476D02*
X4903810Y-19183476D01*
X4894286Y-19278714D01*
X4903810Y-19269190D01*
X4922857Y-19259667D01*
X4970476Y-19259667D01*
X4989524Y-19269190D01*
X4999048Y-19278714D01*
X5008571Y-19297762D01*
X5008571Y-19345381D01*
X4999048Y-19364429D01*
X4989524Y-19373952D01*
X4970476Y-19383476D01*
X4922857Y-19383476D01*
X4903810Y-19373952D01*
X4894286Y-19364429D01*
X5132381Y-19183476D02*
X5151429Y-19183476D01*
X5170476Y-19193000D01*
X5180000Y-19202524D01*
X5189524Y-19221571D01*
X5199048Y-19259667D01*
X5199048Y-19307286D01*
X5189524Y-19345381D01*
X5180000Y-19364429D01*
X5170476Y-19373952D01*
X5151429Y-19383476D01*
X5132381Y-19383476D01*
X5113333Y-19373952D01*
X5103810Y-19364429D01*
X5094286Y-19345381D01*
X5084762Y-19307286D01*
X5084762Y-19259667D01*
X5094286Y-19221571D01*
X5103810Y-19202524D01*
X5113333Y-19193000D01*
X5132381Y-19183476D01*
X5284762Y-19383476D02*
X5284762Y-19250143D01*
X5284762Y-19269190D02*
X5294286Y-19259667D01*
X5313333Y-19250143D01*
X5341905Y-19250143D01*
X5360952Y-19259667D01*
X5370476Y-19278714D01*
X5370476Y-19383476D01*
X5370476Y-19278714D02*
X5380000Y-19259667D01*
X5399048Y-19250143D01*
X5427619Y-19250143D01*
X5446667Y-19259667D01*
X5456190Y-19278714D01*
X5456190Y-19383476D01*
X5551429Y-19383476D02*
X5551429Y-19250143D01*
X5551429Y-19269190D02*
X5560952Y-19259667D01*
X5580000Y-19250143D01*
X5608571Y-19250143D01*
X5627619Y-19259667D01*
X5637143Y-19278714D01*
X5637143Y-19383476D01*
X5637143Y-19278714D02*
X5646667Y-19259667D01*
X5665714Y-19250143D01*
X5694286Y-19250143D01*
X5713333Y-19259667D01*
X5722857Y-19278714D01*
X5722857Y-19383476D01*
X6113333Y-19173952D02*
X5941905Y-19431095D01*
X6370476Y-19183476D02*
X6389524Y-19183476D01*
X6408571Y-19193000D01*
X6418095Y-19202524D01*
X6427619Y-19221571D01*
X6437143Y-19259667D01*
X6437143Y-19307286D01*
X6427619Y-19345381D01*
X6418095Y-19364429D01*
X6408571Y-19373952D01*
X6389524Y-19383476D01*
X6370476Y-19383476D01*
X6351428Y-19373952D01*
X6341905Y-19364429D01*
X6332381Y-19345381D01*
X6322857Y-19307286D01*
X6322857Y-19259667D01*
X6332381Y-19221571D01*
X6341905Y-19202524D01*
X6351428Y-19193000D01*
X6370476Y-19183476D01*
X6522857Y-19364429D02*
X6532381Y-19373952D01*
X6522857Y-19383476D01*
X6513333Y-19373952D01*
X6522857Y-19364429D01*
X6522857Y-19383476D01*
X6656190Y-19183476D02*
X6675238Y-19183476D01*
X6694286Y-19193000D01*
X6703809Y-19202524D01*
X6713333Y-19221571D01*
X6722857Y-19259667D01*
X6722857Y-19307286D01*
X6713333Y-19345381D01*
X6703809Y-19364429D01*
X6694286Y-19373952D01*
X6675238Y-19383476D01*
X6656190Y-19383476D01*
X6637143Y-19373952D01*
X6627619Y-19364429D01*
X6618095Y-19345381D01*
X6608571Y-19307286D01*
X6608571Y-19259667D01*
X6618095Y-19221571D01*
X6627619Y-19202524D01*
X6637143Y-19193000D01*
X6656190Y-19183476D01*
X6799048Y-19202524D02*
X6808571Y-19193000D01*
X6827619Y-19183476D01*
X6875238Y-19183476D01*
X6894286Y-19193000D01*
X6903809Y-19202524D01*
X6913333Y-19221571D01*
X6913333Y-19240619D01*
X6903809Y-19269190D01*
X6789524Y-19383476D01*
X6913333Y-19383476D01*
X7094286Y-19183476D02*
X6999048Y-19183476D01*
X6989524Y-19278714D01*
X6999048Y-19269190D01*
X7018095Y-19259667D01*
X7065714Y-19259667D01*
X7084762Y-19269190D01*
X7094286Y-19278714D01*
X7103809Y-19297762D01*
X7103809Y-19345381D01*
X7094286Y-19364429D01*
X7084762Y-19373952D01*
X7065714Y-19383476D01*
X7018095Y-19383476D01*
X6999048Y-19373952D01*
X6989524Y-19364429D01*
X7275238Y-19183476D02*
X7237143Y-19183476D01*
X7218095Y-19193000D01*
X7208571Y-19202524D01*
X7189524Y-19231095D01*
X7180000Y-19269190D01*
X7180000Y-19345381D01*
X7189524Y-19364429D01*
X7199048Y-19373952D01*
X7218095Y-19383476D01*
X7256190Y-19383476D01*
X7275238Y-19373952D01*
X7284762Y-19364429D01*
X7294286Y-19345381D01*
X7294286Y-19297762D01*
X7284762Y-19278714D01*
X7275238Y-19269190D01*
X7256190Y-19259667D01*
X7218095Y-19259667D01*
X7199048Y-19269190D01*
X7189524Y-19278714D01*
X7180000Y-19297762D01*
X7370476Y-19183476D02*
X7370476Y-19221571D01*
X7446667Y-19183476D02*
X7446667Y-19221571D01*
X7741905Y-19459667D02*
X7732381Y-19450143D01*
X7713333Y-19421571D01*
X7703809Y-19402524D01*
X7694286Y-19373952D01*
X7684762Y-19326333D01*
X7684762Y-19288238D01*
X7694286Y-19240619D01*
X7703809Y-19212048D01*
X7713333Y-19193000D01*
X7732381Y-19164429D01*
X7741905Y-19154905D01*
X7903809Y-19250143D02*
X7903809Y-19383476D01*
X7856190Y-19173952D02*
X7808571Y-19316810D01*
X7932381Y-19316810D01*
X8160952Y-19383476D02*
X8160952Y-19183476D01*
X8246667Y-19383476D02*
X8246667Y-19278714D01*
X8237143Y-19259667D01*
X8218095Y-19250143D01*
X8189524Y-19250143D01*
X8170476Y-19259667D01*
X8160952Y-19269190D01*
X8370476Y-19383476D02*
X8351428Y-19373952D01*
X8341905Y-19364429D01*
X8332381Y-19345381D01*
X8332381Y-19288238D01*
X8341905Y-19269190D01*
X8351428Y-19259667D01*
X8370476Y-19250143D01*
X8399048Y-19250143D01*
X8418095Y-19259667D01*
X8427619Y-19269190D01*
X8437143Y-19288238D01*
X8437143Y-19345381D01*
X8427619Y-19364429D01*
X8418095Y-19373952D01*
X8399048Y-19383476D01*
X8370476Y-19383476D01*
X8551429Y-19383476D02*
X8532381Y-19373952D01*
X8522857Y-19354905D01*
X8522857Y-19183476D01*
X8703810Y-19373952D02*
X8684762Y-19383476D01*
X8646667Y-19383476D01*
X8627619Y-19373952D01*
X8618095Y-19354905D01*
X8618095Y-19278714D01*
X8627619Y-19259667D01*
X8646667Y-19250143D01*
X8684762Y-19250143D01*
X8703810Y-19259667D01*
X8713333Y-19278714D01*
X8713333Y-19297762D01*
X8618095Y-19316810D01*
X8789524Y-19373952D02*
X8808571Y-19383476D01*
X8846667Y-19383476D01*
X8865714Y-19373952D01*
X8875238Y-19354905D01*
X8875238Y-19345381D01*
X8865714Y-19326333D01*
X8846667Y-19316810D01*
X8818095Y-19316810D01*
X8799048Y-19307286D01*
X8789524Y-19288238D01*
X8789524Y-19278714D01*
X8799048Y-19259667D01*
X8818095Y-19250143D01*
X8846667Y-19250143D01*
X8865714Y-19259667D01*
X8941905Y-19459667D02*
X8951429Y-19450143D01*
X8970476Y-19421571D01*
X8980000Y-19402524D01*
X8989524Y-19373952D01*
X8999048Y-19326333D01*
X8999048Y-19288238D01*
X8989524Y-19240619D01*
X8980000Y-19212048D01*
X8970476Y-19193000D01*
X8951429Y-19164429D01*
X8941905Y-19154905D01*
D14*
X4159749Y-19581749D02*
X4159749Y-19532251D01*
X4110251Y-19532251D01*
X4110251Y-19581749D01*
X4159749Y-19581749D01*
D11*
X4465714Y-19447476D02*
X4484762Y-19447476D01*
X4503810Y-19457000D01*
X4513333Y-19466524D01*
X4522857Y-19485571D01*
X4532381Y-19523667D01*
X4532381Y-19571286D01*
X4522857Y-19609381D01*
X4513333Y-19628429D01*
X4503810Y-19637952D01*
X4484762Y-19647476D01*
X4465714Y-19647476D01*
X4446667Y-19637952D01*
X4437143Y-19628429D01*
X4427619Y-19609381D01*
X4418095Y-19571286D01*
X4418095Y-19523667D01*
X4427619Y-19485571D01*
X4437143Y-19466524D01*
X4446667Y-19457000D01*
X4465714Y-19447476D01*
X4618095Y-19628429D02*
X4627619Y-19637952D01*
X4618095Y-19647476D01*
X4608571Y-19637952D01*
X4618095Y-19628429D01*
X4618095Y-19647476D01*
X4694286Y-19447476D02*
X4827619Y-19447476D01*
X4741905Y-19647476D01*
X4941905Y-19447476D02*
X4960952Y-19447476D01*
X4980000Y-19457000D01*
X4989524Y-19466524D01*
X4999048Y-19485571D01*
X5008571Y-19523667D01*
X5008571Y-19571286D01*
X4999048Y-19609381D01*
X4989524Y-19628429D01*
X4980000Y-19637952D01*
X4960952Y-19647476D01*
X4941905Y-19647476D01*
X4922857Y-19637952D01*
X4913333Y-19628429D01*
X4903810Y-19609381D01*
X4894286Y-19571286D01*
X4894286Y-19523667D01*
X4903810Y-19485571D01*
X4913333Y-19466524D01*
X4922857Y-19457000D01*
X4941905Y-19447476D01*
X5132381Y-19447476D02*
X5151429Y-19447476D01*
X5170476Y-19457000D01*
X5180000Y-19466524D01*
X5189524Y-19485571D01*
X5199048Y-19523667D01*
X5199048Y-19571286D01*
X5189524Y-19609381D01*
X5180000Y-19628429D01*
X5170476Y-19637952D01*
X5151429Y-19647476D01*
X5132381Y-19647476D01*
X5113333Y-19637952D01*
X5103810Y-19628429D01*
X5094286Y-19609381D01*
X5084762Y-19571286D01*
X5084762Y-19523667D01*
X5094286Y-19485571D01*
X5103810Y-19466524D01*
X5113333Y-19457000D01*
X5132381Y-19447476D01*
X5284762Y-19647476D02*
X5284762Y-19514143D01*
X5284762Y-19533190D02*
X5294286Y-19523667D01*
X5313333Y-19514143D01*
X5341905Y-19514143D01*
X5360952Y-19523667D01*
X5370476Y-19542714D01*
X5370476Y-19647476D01*
X5370476Y-19542714D02*
X5380000Y-19523667D01*
X5399048Y-19514143D01*
X5427619Y-19514143D01*
X5446667Y-19523667D01*
X5456190Y-19542714D01*
X5456190Y-19647476D01*
X5551429Y-19647476D02*
X5551429Y-19514143D01*
X5551429Y-19533190D02*
X5560952Y-19523667D01*
X5580000Y-19514143D01*
X5608571Y-19514143D01*
X5627619Y-19523667D01*
X5637143Y-19542714D01*
X5637143Y-19647476D01*
X5637143Y-19542714D02*
X5646667Y-19523667D01*
X5665714Y-19514143D01*
X5694286Y-19514143D01*
X5713333Y-19523667D01*
X5722857Y-19542714D01*
X5722857Y-19647476D01*
X6113333Y-19437952D02*
X5941905Y-19695095D01*
X6370476Y-19447476D02*
X6389524Y-19447476D01*
X6408571Y-19457000D01*
X6418095Y-19466524D01*
X6427619Y-19485571D01*
X6437143Y-19523667D01*
X6437143Y-19571286D01*
X6427619Y-19609381D01*
X6418095Y-19628429D01*
X6408571Y-19637952D01*
X6389524Y-19647476D01*
X6370476Y-19647476D01*
X6351428Y-19637952D01*
X6341905Y-19628429D01*
X6332381Y-19609381D01*
X6322857Y-19571286D01*
X6322857Y-19523667D01*
X6332381Y-19485571D01*
X6341905Y-19466524D01*
X6351428Y-19457000D01*
X6370476Y-19447476D01*
X6522857Y-19628429D02*
X6532381Y-19637952D01*
X6522857Y-19647476D01*
X6513333Y-19637952D01*
X6522857Y-19628429D01*
X6522857Y-19647476D01*
X6656190Y-19447476D02*
X6675238Y-19447476D01*
X6694286Y-19457000D01*
X6703809Y-19466524D01*
X6713333Y-19485571D01*
X6722857Y-19523667D01*
X6722857Y-19571286D01*
X6713333Y-19609381D01*
X6703809Y-19628429D01*
X6694286Y-19637952D01*
X6675238Y-19647476D01*
X6656190Y-19647476D01*
X6637143Y-19637952D01*
X6627619Y-19628429D01*
X6618095Y-19609381D01*
X6608571Y-19571286D01*
X6608571Y-19523667D01*
X6618095Y-19485571D01*
X6627619Y-19466524D01*
X6637143Y-19457000D01*
X6656190Y-19447476D01*
X6799048Y-19466524D02*
X6808571Y-19457000D01*
X6827619Y-19447476D01*
X6875238Y-19447476D01*
X6894286Y-19457000D01*
X6903809Y-19466524D01*
X6913333Y-19485571D01*
X6913333Y-19504619D01*
X6903809Y-19533190D01*
X6789524Y-19647476D01*
X6913333Y-19647476D01*
X6980000Y-19447476D02*
X7113333Y-19447476D01*
X7027619Y-19647476D01*
X7275238Y-19447476D02*
X7237143Y-19447476D01*
X7218095Y-19457000D01*
X7208571Y-19466524D01*
X7189524Y-19495095D01*
X7180000Y-19533190D01*
X7180000Y-19609381D01*
X7189524Y-19628429D01*
X7199048Y-19637952D01*
X7218095Y-19647476D01*
X7256190Y-19647476D01*
X7275238Y-19637952D01*
X7284762Y-19628429D01*
X7294286Y-19609381D01*
X7294286Y-19561762D01*
X7284762Y-19542714D01*
X7275238Y-19533190D01*
X7256190Y-19523667D01*
X7218095Y-19523667D01*
X7199048Y-19533190D01*
X7189524Y-19542714D01*
X7180000Y-19561762D01*
X7370476Y-19447476D02*
X7370476Y-19485571D01*
X7446667Y-19447476D02*
X7446667Y-19485571D01*
X7741905Y-19723667D02*
X7732381Y-19714143D01*
X7713333Y-19685571D01*
X7703809Y-19666524D01*
X7694286Y-19637952D01*
X7684762Y-19590333D01*
X7684762Y-19552238D01*
X7694286Y-19504619D01*
X7703809Y-19476048D01*
X7713333Y-19457000D01*
X7732381Y-19428429D01*
X7741905Y-19418905D01*
X7913333Y-19447476D02*
X7818095Y-19447476D01*
X7808571Y-19542714D01*
X7818095Y-19533190D01*
X7837143Y-19523667D01*
X7884762Y-19523667D01*
X7903809Y-19533190D01*
X7913333Y-19542714D01*
X7922857Y-19561762D01*
X7922857Y-19609381D01*
X7913333Y-19628429D01*
X7903809Y-19637952D01*
X7884762Y-19647476D01*
X7837143Y-19647476D01*
X7818095Y-19637952D01*
X7808571Y-19628429D01*
X8113333Y-19647476D02*
X7999048Y-19647476D01*
X8056190Y-19647476D02*
X8056190Y-19447476D01*
X8037143Y-19476048D01*
X8018095Y-19495095D01*
X7999048Y-19504619D01*
X8351428Y-19647476D02*
X8351428Y-19447476D01*
X8437143Y-19647476D02*
X8437143Y-19542714D01*
X8427619Y-19523667D01*
X8408571Y-19514143D01*
X8380000Y-19514143D01*
X8360952Y-19523667D01*
X8351428Y-19533190D01*
X8560952Y-19647476D02*
X8541905Y-19637952D01*
X8532381Y-19628429D01*
X8522857Y-19609381D01*
X8522857Y-19552238D01*
X8532381Y-19533190D01*
X8541905Y-19523667D01*
X8560952Y-19514143D01*
X8589524Y-19514143D01*
X8608571Y-19523667D01*
X8618095Y-19533190D01*
X8627619Y-19552238D01*
X8627619Y-19609381D01*
X8618095Y-19628429D01*
X8608571Y-19637952D01*
X8589524Y-19647476D01*
X8560952Y-19647476D01*
X8741905Y-19647476D02*
X8722857Y-19637952D01*
X8713333Y-19618905D01*
X8713333Y-19447476D01*
X8894286Y-19637952D02*
X8875238Y-19647476D01*
X8837143Y-19647476D01*
X8818095Y-19637952D01*
X8808571Y-19618905D01*
X8808571Y-19542714D01*
X8818095Y-19523667D01*
X8837143Y-19514143D01*
X8875238Y-19514143D01*
X8894286Y-19523667D01*
X8903810Y-19542714D01*
X8903810Y-19561762D01*
X8808571Y-19580810D01*
X8980000Y-19637952D02*
X8999048Y-19647476D01*
X9037143Y-19647476D01*
X9056190Y-19637952D01*
X9065714Y-19618905D01*
X9065714Y-19609381D01*
X9056190Y-19590333D01*
X9037143Y-19580810D01*
X9008571Y-19580810D01*
X8989524Y-19571286D01*
X8980000Y-19552238D01*
X8980000Y-19542714D01*
X8989524Y-19523667D01*
X9008571Y-19514143D01*
X9037143Y-19514143D01*
X9056190Y-19523667D01*
X9132381Y-19723667D02*
X9141905Y-19714143D01*
X9160952Y-19685571D01*
X9170476Y-19666524D01*
X9180000Y-19637952D01*
X9189524Y-19590333D01*
X9189524Y-19552238D01*
X9180000Y-19504619D01*
X9170476Y-19476048D01*
X9160952Y-19457000D01*
X9141905Y-19428429D01*
X9132381Y-19418905D01*
D15*
X4131900Y-19859100D02*
X4170000Y-19821000D01*
X4131900Y-19782900D01*
X4093800Y-19821000D01*
X4131900Y-19859100D01*
D11*
X4465714Y-19711476D02*
X4484762Y-19711476D01*
X4503810Y-19721000D01*
X4513333Y-19730524D01*
X4522857Y-19749571D01*
X4532381Y-19787667D01*
X4532381Y-19835286D01*
X4522857Y-19873381D01*
X4513333Y-19892429D01*
X4503810Y-19901952D01*
X4484762Y-19911476D01*
X4465714Y-19911476D01*
X4446667Y-19901952D01*
X4437143Y-19892429D01*
X4427619Y-19873381D01*
X4418095Y-19835286D01*
X4418095Y-19787667D01*
X4427619Y-19749571D01*
X4437143Y-19730524D01*
X4446667Y-19721000D01*
X4465714Y-19711476D01*
X4618095Y-19892429D02*
X4627619Y-19901952D01*
X4618095Y-19911476D01*
X4608571Y-19901952D01*
X4618095Y-19892429D01*
X4618095Y-19911476D01*
X4694286Y-19711476D02*
X4827619Y-19711476D01*
X4741905Y-19911476D01*
X4989524Y-19711476D02*
X4951429Y-19711476D01*
X4932381Y-19721000D01*
X4922857Y-19730524D01*
X4903810Y-19759095D01*
X4894286Y-19797190D01*
X4894286Y-19873381D01*
X4903810Y-19892429D01*
X4913333Y-19901952D01*
X4932381Y-19911476D01*
X4970476Y-19911476D01*
X4989524Y-19901952D01*
X4999048Y-19892429D01*
X5008571Y-19873381D01*
X5008571Y-19825762D01*
X4999048Y-19806714D01*
X4989524Y-19797190D01*
X4970476Y-19787667D01*
X4932381Y-19787667D01*
X4913333Y-19797190D01*
X4903810Y-19806714D01*
X4894286Y-19825762D01*
X5084762Y-19730524D02*
X5094286Y-19721000D01*
X5113333Y-19711476D01*
X5160952Y-19711476D01*
X5180000Y-19721000D01*
X5189524Y-19730524D01*
X5199048Y-19749571D01*
X5199048Y-19768619D01*
X5189524Y-19797190D01*
X5075238Y-19911476D01*
X5199048Y-19911476D01*
X5284762Y-19911476D02*
X5284762Y-19778143D01*
X5284762Y-19797190D02*
X5294286Y-19787667D01*
X5313333Y-19778143D01*
X5341905Y-19778143D01*
X5360952Y-19787667D01*
X5370476Y-19806714D01*
X5370476Y-19911476D01*
X5370476Y-19806714D02*
X5380000Y-19787667D01*
X5399048Y-19778143D01*
X5427619Y-19778143D01*
X5446667Y-19787667D01*
X5456190Y-19806714D01*
X5456190Y-19911476D01*
X5551429Y-19911476D02*
X5551429Y-19778143D01*
X5551429Y-19797190D02*
X5560952Y-19787667D01*
X5580000Y-19778143D01*
X5608571Y-19778143D01*
X5627619Y-19787667D01*
X5637143Y-19806714D01*
X5637143Y-19911476D01*
X5637143Y-19806714D02*
X5646667Y-19787667D01*
X5665714Y-19778143D01*
X5694286Y-19778143D01*
X5713333Y-19787667D01*
X5722857Y-19806714D01*
X5722857Y-19911476D01*
X6113333Y-19701952D02*
X5941905Y-19959095D01*
X6370476Y-19711476D02*
X6389524Y-19711476D01*
X6408571Y-19721000D01*
X6418095Y-19730524D01*
X6427619Y-19749571D01*
X6437143Y-19787667D01*
X6437143Y-19835286D01*
X6427619Y-19873381D01*
X6418095Y-19892429D01*
X6408571Y-19901952D01*
X6389524Y-19911476D01*
X6370476Y-19911476D01*
X6351428Y-19901952D01*
X6341905Y-19892429D01*
X6332381Y-19873381D01*
X6322857Y-19835286D01*
X6322857Y-19787667D01*
X6332381Y-19749571D01*
X6341905Y-19730524D01*
X6351428Y-19721000D01*
X6370476Y-19711476D01*
X6522857Y-19892429D02*
X6532381Y-19901952D01*
X6522857Y-19911476D01*
X6513333Y-19901952D01*
X6522857Y-19892429D01*
X6522857Y-19911476D01*
X6656190Y-19711476D02*
X6675238Y-19711476D01*
X6694286Y-19721000D01*
X6703809Y-19730524D01*
X6713333Y-19749571D01*
X6722857Y-19787667D01*
X6722857Y-19835286D01*
X6713333Y-19873381D01*
X6703809Y-19892429D01*
X6694286Y-19901952D01*
X6675238Y-19911476D01*
X6656190Y-19911476D01*
X6637143Y-19901952D01*
X6627619Y-19892429D01*
X6618095Y-19873381D01*
X6608571Y-19835286D01*
X6608571Y-19787667D01*
X6618095Y-19749571D01*
X6627619Y-19730524D01*
X6637143Y-19721000D01*
X6656190Y-19711476D01*
X6789524Y-19711476D02*
X6913333Y-19711476D01*
X6846667Y-19787667D01*
X6875238Y-19787667D01*
X6894286Y-19797190D01*
X6903809Y-19806714D01*
X6913333Y-19825762D01*
X6913333Y-19873381D01*
X6903809Y-19892429D01*
X6894286Y-19901952D01*
X6875238Y-19911476D01*
X6818095Y-19911476D01*
X6799048Y-19901952D01*
X6789524Y-19892429D01*
X7037143Y-19711476D02*
X7056190Y-19711476D01*
X7075238Y-19721000D01*
X7084762Y-19730524D01*
X7094286Y-19749571D01*
X7103809Y-19787667D01*
X7103809Y-19835286D01*
X7094286Y-19873381D01*
X7084762Y-19892429D01*
X7075238Y-19901952D01*
X7056190Y-19911476D01*
X7037143Y-19911476D01*
X7018095Y-19901952D01*
X7008571Y-19892429D01*
X6999048Y-19873381D01*
X6989524Y-19835286D01*
X6989524Y-19787667D01*
X6999048Y-19749571D01*
X7008571Y-19730524D01*
X7018095Y-19721000D01*
X7037143Y-19711476D01*
X7227619Y-19711476D02*
X7246667Y-19711476D01*
X7265714Y-19721000D01*
X7275238Y-19730524D01*
X7284762Y-19749571D01*
X7294286Y-19787667D01*
X7294286Y-19835286D01*
X7284762Y-19873381D01*
X7275238Y-19892429D01*
X7265714Y-19901952D01*
X7246667Y-19911476D01*
X7227619Y-19911476D01*
X7208571Y-19901952D01*
X7199048Y-19892429D01*
X7189524Y-19873381D01*
X7180000Y-19835286D01*
X7180000Y-19787667D01*
X7189524Y-19749571D01*
X7199048Y-19730524D01*
X7208571Y-19721000D01*
X7227619Y-19711476D01*
X7370476Y-19711476D02*
X7370476Y-19749571D01*
X7446667Y-19711476D02*
X7446667Y-19749571D01*
X7741905Y-19987667D02*
X7732381Y-19978143D01*
X7713333Y-19949571D01*
X7703809Y-19930524D01*
X7694286Y-19901952D01*
X7684762Y-19854333D01*
X7684762Y-19816238D01*
X7694286Y-19768619D01*
X7703809Y-19740048D01*
X7713333Y-19721000D01*
X7732381Y-19692429D01*
X7741905Y-19682905D01*
X7808571Y-19730524D02*
X7818095Y-19721000D01*
X7837143Y-19711476D01*
X7884762Y-19711476D01*
X7903809Y-19721000D01*
X7913333Y-19730524D01*
X7922857Y-19749571D01*
X7922857Y-19768619D01*
X7913333Y-19797190D01*
X7799048Y-19911476D01*
X7922857Y-19911476D01*
X8160952Y-19911476D02*
X8160952Y-19711476D01*
X8246667Y-19911476D02*
X8246667Y-19806714D01*
X8237143Y-19787667D01*
X8218095Y-19778143D01*
X8189524Y-19778143D01*
X8170476Y-19787667D01*
X8160952Y-19797190D01*
X8370476Y-19911476D02*
X8351428Y-19901952D01*
X8341905Y-19892429D01*
X8332381Y-19873381D01*
X8332381Y-19816238D01*
X8341905Y-19797190D01*
X8351428Y-19787667D01*
X8370476Y-19778143D01*
X8399048Y-19778143D01*
X8418095Y-19787667D01*
X8427619Y-19797190D01*
X8437143Y-19816238D01*
X8437143Y-19873381D01*
X8427619Y-19892429D01*
X8418095Y-19901952D01*
X8399048Y-19911476D01*
X8370476Y-19911476D01*
X8551429Y-19911476D02*
X8532381Y-19901952D01*
X8522857Y-19882905D01*
X8522857Y-19711476D01*
X8703810Y-19901952D02*
X8684762Y-19911476D01*
X8646667Y-19911476D01*
X8627619Y-19901952D01*
X8618095Y-19882905D01*
X8618095Y-19806714D01*
X8627619Y-19787667D01*
X8646667Y-19778143D01*
X8684762Y-19778143D01*
X8703810Y-19787667D01*
X8713333Y-19806714D01*
X8713333Y-19825762D01*
X8618095Y-19844810D01*
X8789524Y-19901952D02*
X8808571Y-19911476D01*
X8846667Y-19911476D01*
X8865714Y-19901952D01*
X8875238Y-19882905D01*
X8875238Y-19873381D01*
X8865714Y-19854333D01*
X8846667Y-19844810D01*
X8818095Y-19844810D01*
X8799048Y-19835286D01*
X8789524Y-19816238D01*
X8789524Y-19806714D01*
X8799048Y-19787667D01*
X8818095Y-19778143D01*
X8846667Y-19778143D01*
X8865714Y-19787667D01*
X8941905Y-19987667D02*
X8951429Y-19978143D01*
X8970476Y-19949571D01*
X8980000Y-19930524D01*
X8989524Y-19901952D01*
X8999048Y-19854333D01*
X8999048Y-19816238D01*
X8989524Y-19768619D01*
X8980000Y-19740048D01*
X8970476Y-19721000D01*
X8951429Y-19692429D01*
X8941905Y-19682905D01*
D16*
X4080000Y-20040000D02*
X4170000Y-20130000D01*
X4170000Y-20040000D02*
X4080000Y-20130000D01*
X4170000Y-20085000D02*
G75*
G03*
X4170000Y-20085000I-45000J0D01*
G01*
D11*
X4465714Y-19975476D02*
X4484762Y-19975476D01*
X4503810Y-19985000D01*
X4513333Y-19994524D01*
X4522857Y-20013571D01*
X4532381Y-20051667D01*
X4532381Y-20099286D01*
X4522857Y-20137381D01*
X4513333Y-20156429D01*
X4503810Y-20165952D01*
X4484762Y-20175476D01*
X4465714Y-20175476D01*
X4446667Y-20165952D01*
X4437143Y-20156429D01*
X4427619Y-20137381D01*
X4418095Y-20099286D01*
X4418095Y-20051667D01*
X4427619Y-20013571D01*
X4437143Y-19994524D01*
X4446667Y-19985000D01*
X4465714Y-19975476D01*
X4618095Y-20156429D02*
X4627619Y-20165952D01*
X4618095Y-20175476D01*
X4608571Y-20165952D01*
X4618095Y-20156429D01*
X4618095Y-20175476D01*
X4722857Y-20175476D02*
X4760952Y-20175476D01*
X4780000Y-20165952D01*
X4789524Y-20156429D01*
X4808571Y-20127857D01*
X4818095Y-20089762D01*
X4818095Y-20013571D01*
X4808571Y-19994524D01*
X4799048Y-19985000D01*
X4780000Y-19975476D01*
X4741905Y-19975476D01*
X4722857Y-19985000D01*
X4713333Y-19994524D01*
X4703810Y-20013571D01*
X4703810Y-20061190D01*
X4713333Y-20080238D01*
X4722857Y-20089762D01*
X4741905Y-20099286D01*
X4780000Y-20099286D01*
X4799048Y-20089762D01*
X4808571Y-20080238D01*
X4818095Y-20061190D01*
X4941905Y-19975476D02*
X4960952Y-19975476D01*
X4980000Y-19985000D01*
X4989524Y-19994524D01*
X4999048Y-20013571D01*
X5008571Y-20051667D01*
X5008571Y-20099286D01*
X4999048Y-20137381D01*
X4989524Y-20156429D01*
X4980000Y-20165952D01*
X4960952Y-20175476D01*
X4941905Y-20175476D01*
X4922857Y-20165952D01*
X4913333Y-20156429D01*
X4903810Y-20137381D01*
X4894286Y-20099286D01*
X4894286Y-20051667D01*
X4903810Y-20013571D01*
X4913333Y-19994524D01*
X4922857Y-19985000D01*
X4941905Y-19975476D01*
X5132381Y-19975476D02*
X5151429Y-19975476D01*
X5170476Y-19985000D01*
X5180000Y-19994524D01*
X5189524Y-20013571D01*
X5199048Y-20051667D01*
X5199048Y-20099286D01*
X5189524Y-20137381D01*
X5180000Y-20156429D01*
X5170476Y-20165952D01*
X5151429Y-20175476D01*
X5132381Y-20175476D01*
X5113333Y-20165952D01*
X5103810Y-20156429D01*
X5094286Y-20137381D01*
X5084762Y-20099286D01*
X5084762Y-20051667D01*
X5094286Y-20013571D01*
X5103810Y-19994524D01*
X5113333Y-19985000D01*
X5132381Y-19975476D01*
X5284762Y-20175476D02*
X5284762Y-20042143D01*
X5284762Y-20061190D02*
X5294286Y-20051667D01*
X5313333Y-20042143D01*
X5341905Y-20042143D01*
X5360952Y-20051667D01*
X5370476Y-20070714D01*
X5370476Y-20175476D01*
X5370476Y-20070714D02*
X5380000Y-20051667D01*
X5399048Y-20042143D01*
X5427619Y-20042143D01*
X5446667Y-20051667D01*
X5456190Y-20070714D01*
X5456190Y-20175476D01*
X5551429Y-20175476D02*
X5551429Y-20042143D01*
X5551429Y-20061190D02*
X5560952Y-20051667D01*
X5580000Y-20042143D01*
X5608571Y-20042143D01*
X5627619Y-20051667D01*
X5637143Y-20070714D01*
X5637143Y-20175476D01*
X5637143Y-20070714D02*
X5646667Y-20051667D01*
X5665714Y-20042143D01*
X5694286Y-20042143D01*
X5713333Y-20051667D01*
X5722857Y-20070714D01*
X5722857Y-20175476D01*
X6113333Y-19965952D02*
X5941905Y-20223095D01*
X6370476Y-19975476D02*
X6389524Y-19975476D01*
X6408571Y-19985000D01*
X6418095Y-19994524D01*
X6427619Y-20013571D01*
X6437143Y-20051667D01*
X6437143Y-20099286D01*
X6427619Y-20137381D01*
X6418095Y-20156429D01*
X6408571Y-20165952D01*
X6389524Y-20175476D01*
X6370476Y-20175476D01*
X6351428Y-20165952D01*
X6341905Y-20156429D01*
X6332381Y-20137381D01*
X6322857Y-20099286D01*
X6322857Y-20051667D01*
X6332381Y-20013571D01*
X6341905Y-19994524D01*
X6351428Y-19985000D01*
X6370476Y-19975476D01*
X6522857Y-20156429D02*
X6532381Y-20165952D01*
X6522857Y-20175476D01*
X6513333Y-20165952D01*
X6522857Y-20156429D01*
X6522857Y-20175476D01*
X6656190Y-19975476D02*
X6675238Y-19975476D01*
X6694286Y-19985000D01*
X6703809Y-19994524D01*
X6713333Y-20013571D01*
X6722857Y-20051667D01*
X6722857Y-20099286D01*
X6713333Y-20137381D01*
X6703809Y-20156429D01*
X6694286Y-20165952D01*
X6675238Y-20175476D01*
X6656190Y-20175476D01*
X6637143Y-20165952D01*
X6627619Y-20156429D01*
X6618095Y-20137381D01*
X6608571Y-20099286D01*
X6608571Y-20051667D01*
X6618095Y-20013571D01*
X6627619Y-19994524D01*
X6637143Y-19985000D01*
X6656190Y-19975476D01*
X6789524Y-19975476D02*
X6913333Y-19975476D01*
X6846667Y-20051667D01*
X6875238Y-20051667D01*
X6894286Y-20061190D01*
X6903809Y-20070714D01*
X6913333Y-20089762D01*
X6913333Y-20137381D01*
X6903809Y-20156429D01*
X6894286Y-20165952D01*
X6875238Y-20175476D01*
X6818095Y-20175476D01*
X6799048Y-20165952D01*
X6789524Y-20156429D01*
X7094286Y-19975476D02*
X6999048Y-19975476D01*
X6989524Y-20070714D01*
X6999048Y-20061190D01*
X7018095Y-20051667D01*
X7065714Y-20051667D01*
X7084762Y-20061190D01*
X7094286Y-20070714D01*
X7103809Y-20089762D01*
X7103809Y-20137381D01*
X7094286Y-20156429D01*
X7084762Y-20165952D01*
X7065714Y-20175476D01*
X7018095Y-20175476D01*
X6999048Y-20165952D01*
X6989524Y-20156429D01*
X7275238Y-20042143D02*
X7275238Y-20175476D01*
X7227619Y-19965952D02*
X7180000Y-20108810D01*
X7303809Y-20108810D01*
X7370476Y-19975476D02*
X7370476Y-20013571D01*
X7446667Y-19975476D02*
X7446667Y-20013571D01*
X7741905Y-20251667D02*
X7732381Y-20242143D01*
X7713333Y-20213571D01*
X7703809Y-20194524D01*
X7694286Y-20165952D01*
X7684762Y-20118333D01*
X7684762Y-20080238D01*
X7694286Y-20032619D01*
X7703809Y-20004048D01*
X7713333Y-19985000D01*
X7732381Y-19956429D01*
X7741905Y-19946905D01*
X7846667Y-20061190D02*
X7827619Y-20051667D01*
X7818095Y-20042143D01*
X7808571Y-20023095D01*
X7808571Y-20013571D01*
X7818095Y-19994524D01*
X7827619Y-19985000D01*
X7846667Y-19975476D01*
X7884762Y-19975476D01*
X7903809Y-19985000D01*
X7913333Y-19994524D01*
X7922857Y-20013571D01*
X7922857Y-20023095D01*
X7913333Y-20042143D01*
X7903809Y-20051667D01*
X7884762Y-20061190D01*
X7846667Y-20061190D01*
X7827619Y-20070714D01*
X7818095Y-20080238D01*
X7808571Y-20099286D01*
X7808571Y-20137381D01*
X7818095Y-20156429D01*
X7827619Y-20165952D01*
X7846667Y-20175476D01*
X7884762Y-20175476D01*
X7903809Y-20165952D01*
X7913333Y-20156429D01*
X7922857Y-20137381D01*
X7922857Y-20099286D01*
X7913333Y-20080238D01*
X7903809Y-20070714D01*
X7884762Y-20061190D01*
X8160952Y-20175476D02*
X8160952Y-19975476D01*
X8246667Y-20175476D02*
X8246667Y-20070714D01*
X8237143Y-20051667D01*
X8218095Y-20042143D01*
X8189524Y-20042143D01*
X8170476Y-20051667D01*
X8160952Y-20061190D01*
X8370476Y-20175476D02*
X8351428Y-20165952D01*
X8341905Y-20156429D01*
X8332381Y-20137381D01*
X8332381Y-20080238D01*
X8341905Y-20061190D01*
X8351428Y-20051667D01*
X8370476Y-20042143D01*
X8399048Y-20042143D01*
X8418095Y-20051667D01*
X8427619Y-20061190D01*
X8437143Y-20080238D01*
X8437143Y-20137381D01*
X8427619Y-20156429D01*
X8418095Y-20165952D01*
X8399048Y-20175476D01*
X8370476Y-20175476D01*
X8551429Y-20175476D02*
X8532381Y-20165952D01*
X8522857Y-20146905D01*
X8522857Y-19975476D01*
X8703810Y-20165952D02*
X8684762Y-20175476D01*
X8646667Y-20175476D01*
X8627619Y-20165952D01*
X8618095Y-20146905D01*
X8618095Y-20070714D01*
X8627619Y-20051667D01*
X8646667Y-20042143D01*
X8684762Y-20042143D01*
X8703810Y-20051667D01*
X8713333Y-20070714D01*
X8713333Y-20089762D01*
X8618095Y-20108810D01*
X8789524Y-20165952D02*
X8808571Y-20175476D01*
X8846667Y-20175476D01*
X8865714Y-20165952D01*
X8875238Y-20146905D01*
X8875238Y-20137381D01*
X8865714Y-20118333D01*
X8846667Y-20108810D01*
X8818095Y-20108810D01*
X8799048Y-20099286D01*
X8789524Y-20080238D01*
X8789524Y-20070714D01*
X8799048Y-20051667D01*
X8818095Y-20042143D01*
X8846667Y-20042143D01*
X8865714Y-20051667D01*
X8941905Y-20251667D02*
X8951429Y-20242143D01*
X8970476Y-20213571D01*
X8980000Y-20194524D01*
X8989524Y-20165952D01*
X8999048Y-20118333D01*
X8999048Y-20080238D01*
X8989524Y-20032619D01*
X8980000Y-20004048D01*
X8970476Y-19985000D01*
X8951429Y-19956429D01*
X8941905Y-19946905D01*
D17*
X4070000Y-20299000D02*
X4170000Y-20399000D01*
X4170000Y-20299000D02*
X4070000Y-20399000D01*
X4120000Y-20299000D02*
X4120000Y-20399000D01*
X4070000Y-20349000D02*
X4170000Y-20349000D01*
D11*
X4532381Y-20439476D02*
X4418095Y-20439476D01*
X4475238Y-20439476D02*
X4475238Y-20239476D01*
X4456190Y-20268048D01*
X4437143Y-20287095D01*
X4418095Y-20296619D01*
X4618095Y-20420429D02*
X4627619Y-20429952D01*
X4618095Y-20439476D01*
X4608571Y-20429952D01*
X4618095Y-20420429D01*
X4618095Y-20439476D01*
X4751429Y-20239476D02*
X4770476Y-20239476D01*
X4789524Y-20249000D01*
X4799048Y-20258524D01*
X4808571Y-20277571D01*
X4818095Y-20315667D01*
X4818095Y-20363286D01*
X4808571Y-20401381D01*
X4799048Y-20420429D01*
X4789524Y-20429952D01*
X4770476Y-20439476D01*
X4751429Y-20439476D01*
X4732381Y-20429952D01*
X4722857Y-20420429D01*
X4713333Y-20401381D01*
X4703810Y-20363286D01*
X4703810Y-20315667D01*
X4713333Y-20277571D01*
X4722857Y-20258524D01*
X4732381Y-20249000D01*
X4751429Y-20239476D01*
X4941905Y-20239476D02*
X4960952Y-20239476D01*
X4980000Y-20249000D01*
X4989524Y-20258524D01*
X4999048Y-20277571D01*
X5008571Y-20315667D01*
X5008571Y-20363286D01*
X4999048Y-20401381D01*
X4989524Y-20420429D01*
X4980000Y-20429952D01*
X4960952Y-20439476D01*
X4941905Y-20439476D01*
X4922857Y-20429952D01*
X4913333Y-20420429D01*
X4903810Y-20401381D01*
X4894286Y-20363286D01*
X4894286Y-20315667D01*
X4903810Y-20277571D01*
X4913333Y-20258524D01*
X4922857Y-20249000D01*
X4941905Y-20239476D01*
X5132381Y-20239476D02*
X5151429Y-20239476D01*
X5170476Y-20249000D01*
X5180000Y-20258524D01*
X5189524Y-20277571D01*
X5199048Y-20315667D01*
X5199048Y-20363286D01*
X5189524Y-20401381D01*
X5180000Y-20420429D01*
X5170476Y-20429952D01*
X5151429Y-20439476D01*
X5132381Y-20439476D01*
X5113333Y-20429952D01*
X5103810Y-20420429D01*
X5094286Y-20401381D01*
X5084762Y-20363286D01*
X5084762Y-20315667D01*
X5094286Y-20277571D01*
X5103810Y-20258524D01*
X5113333Y-20249000D01*
X5132381Y-20239476D01*
X5284762Y-20439476D02*
X5284762Y-20306143D01*
X5284762Y-20325190D02*
X5294286Y-20315667D01*
X5313333Y-20306143D01*
X5341905Y-20306143D01*
X5360952Y-20315667D01*
X5370476Y-20334714D01*
X5370476Y-20439476D01*
X5370476Y-20334714D02*
X5380000Y-20315667D01*
X5399048Y-20306143D01*
X5427619Y-20306143D01*
X5446667Y-20315667D01*
X5456190Y-20334714D01*
X5456190Y-20439476D01*
X5551429Y-20439476D02*
X5551429Y-20306143D01*
X5551429Y-20325190D02*
X5560952Y-20315667D01*
X5580000Y-20306143D01*
X5608571Y-20306143D01*
X5627619Y-20315667D01*
X5637143Y-20334714D01*
X5637143Y-20439476D01*
X5637143Y-20334714D02*
X5646667Y-20315667D01*
X5665714Y-20306143D01*
X5694286Y-20306143D01*
X5713333Y-20315667D01*
X5722857Y-20334714D01*
X5722857Y-20439476D01*
X6113333Y-20229952D02*
X5941905Y-20487095D01*
X6370476Y-20239476D02*
X6389524Y-20239476D01*
X6408571Y-20249000D01*
X6418095Y-20258524D01*
X6427619Y-20277571D01*
X6437143Y-20315667D01*
X6437143Y-20363286D01*
X6427619Y-20401381D01*
X6418095Y-20420429D01*
X6408571Y-20429952D01*
X6389524Y-20439476D01*
X6370476Y-20439476D01*
X6351428Y-20429952D01*
X6341905Y-20420429D01*
X6332381Y-20401381D01*
X6322857Y-20363286D01*
X6322857Y-20315667D01*
X6332381Y-20277571D01*
X6341905Y-20258524D01*
X6351428Y-20249000D01*
X6370476Y-20239476D01*
X6522857Y-20420429D02*
X6532381Y-20429952D01*
X6522857Y-20439476D01*
X6513333Y-20429952D01*
X6522857Y-20420429D01*
X6522857Y-20439476D01*
X6656190Y-20239476D02*
X6675238Y-20239476D01*
X6694286Y-20249000D01*
X6703809Y-20258524D01*
X6713333Y-20277571D01*
X6722857Y-20315667D01*
X6722857Y-20363286D01*
X6713333Y-20401381D01*
X6703809Y-20420429D01*
X6694286Y-20429952D01*
X6675238Y-20439476D01*
X6656190Y-20439476D01*
X6637143Y-20429952D01*
X6627619Y-20420429D01*
X6618095Y-20401381D01*
X6608571Y-20363286D01*
X6608571Y-20315667D01*
X6618095Y-20277571D01*
X6627619Y-20258524D01*
X6637143Y-20249000D01*
X6656190Y-20239476D01*
X6789524Y-20239476D02*
X6913333Y-20239476D01*
X6846667Y-20315667D01*
X6875238Y-20315667D01*
X6894286Y-20325190D01*
X6903809Y-20334714D01*
X6913333Y-20353762D01*
X6913333Y-20401381D01*
X6903809Y-20420429D01*
X6894286Y-20429952D01*
X6875238Y-20439476D01*
X6818095Y-20439476D01*
X6799048Y-20429952D01*
X6789524Y-20420429D01*
X7008571Y-20439476D02*
X7046667Y-20439476D01*
X7065714Y-20429952D01*
X7075238Y-20420429D01*
X7094286Y-20391857D01*
X7103809Y-20353762D01*
X7103809Y-20277571D01*
X7094286Y-20258524D01*
X7084762Y-20249000D01*
X7065714Y-20239476D01*
X7027619Y-20239476D01*
X7008571Y-20249000D01*
X6999048Y-20258524D01*
X6989524Y-20277571D01*
X6989524Y-20325190D01*
X6999048Y-20344238D01*
X7008571Y-20353762D01*
X7027619Y-20363286D01*
X7065714Y-20363286D01*
X7084762Y-20353762D01*
X7094286Y-20344238D01*
X7103809Y-20325190D01*
X7275238Y-20306143D02*
X7275238Y-20439476D01*
X7227619Y-20229952D02*
X7180000Y-20372810D01*
X7303809Y-20372810D01*
X7370476Y-20239476D02*
X7370476Y-20277571D01*
X7446667Y-20239476D02*
X7446667Y-20277571D01*
X7741905Y-20515667D02*
X7732381Y-20506143D01*
X7713333Y-20477571D01*
X7703809Y-20458524D01*
X7694286Y-20429952D01*
X7684762Y-20382333D01*
X7684762Y-20344238D01*
X7694286Y-20296619D01*
X7703809Y-20268048D01*
X7713333Y-20249000D01*
X7732381Y-20220429D01*
X7741905Y-20210905D01*
X7799048Y-20239476D02*
X7932381Y-20239476D01*
X7846667Y-20439476D01*
X8113333Y-20439476D02*
X7999048Y-20439476D01*
X8056190Y-20439476D02*
X8056190Y-20239476D01*
X8037143Y-20268048D01*
X8018095Y-20287095D01*
X7999048Y-20296619D01*
X8351428Y-20439476D02*
X8351428Y-20239476D01*
X8437143Y-20439476D02*
X8437143Y-20334714D01*
X8427619Y-20315667D01*
X8408571Y-20306143D01*
X8380000Y-20306143D01*
X8360952Y-20315667D01*
X8351428Y-20325190D01*
X8560952Y-20439476D02*
X8541905Y-20429952D01*
X8532381Y-20420429D01*
X8522857Y-20401381D01*
X8522857Y-20344238D01*
X8532381Y-20325190D01*
X8541905Y-20315667D01*
X8560952Y-20306143D01*
X8589524Y-20306143D01*
X8608571Y-20315667D01*
X8618095Y-20325190D01*
X8627619Y-20344238D01*
X8627619Y-20401381D01*
X8618095Y-20420429D01*
X8608571Y-20429952D01*
X8589524Y-20439476D01*
X8560952Y-20439476D01*
X8741905Y-20439476D02*
X8722857Y-20429952D01*
X8713333Y-20410905D01*
X8713333Y-20239476D01*
X8894286Y-20429952D02*
X8875238Y-20439476D01*
X8837143Y-20439476D01*
X8818095Y-20429952D01*
X8808571Y-20410905D01*
X8808571Y-20334714D01*
X8818095Y-20315667D01*
X8837143Y-20306143D01*
X8875238Y-20306143D01*
X8894286Y-20315667D01*
X8903810Y-20334714D01*
X8903810Y-20353762D01*
X8808571Y-20372810D01*
X8980000Y-20429952D02*
X8999048Y-20439476D01*
X9037143Y-20439476D01*
X9056190Y-20429952D01*
X9065714Y-20410905D01*
X9065714Y-20401381D01*
X9056190Y-20382333D01*
X9037143Y-20372810D01*
X9008571Y-20372810D01*
X8989524Y-20363286D01*
X8980000Y-20344238D01*
X8980000Y-20334714D01*
X8989524Y-20315667D01*
X9008571Y-20306143D01*
X9037143Y-20306143D01*
X9056190Y-20315667D01*
X9303810Y-20363286D02*
X9456190Y-20363286D01*
X9380000Y-20439476D02*
X9380000Y-20287095D01*
X9789524Y-20306143D02*
X9789524Y-20439476D01*
X9741905Y-20229952D02*
X9694286Y-20372810D01*
X9818095Y-20372810D01*
X10037143Y-20429952D02*
X10056190Y-20439476D01*
X10094286Y-20439476D01*
X10113333Y-20429952D01*
X10122857Y-20410905D01*
X10122857Y-20401381D01*
X10113333Y-20382333D01*
X10094286Y-20372810D01*
X10065714Y-20372810D01*
X10046667Y-20363286D01*
X10037143Y-20344238D01*
X10037143Y-20334714D01*
X10046667Y-20315667D01*
X10065714Y-20306143D01*
X10094286Y-20306143D01*
X10113333Y-20315667D01*
X10237143Y-20439476D02*
X10218095Y-20429952D01*
X10208571Y-20410905D01*
X10208571Y-20239476D01*
X10341905Y-20439476D02*
X10322857Y-20429952D01*
X10313333Y-20420429D01*
X10303810Y-20401381D01*
X10303810Y-20344238D01*
X10313333Y-20325190D01*
X10322857Y-20315667D01*
X10341905Y-20306143D01*
X10370476Y-20306143D01*
X10389524Y-20315667D01*
X10399048Y-20325190D01*
X10408571Y-20344238D01*
X10408571Y-20401381D01*
X10399048Y-20420429D01*
X10389524Y-20429952D01*
X10370476Y-20439476D01*
X10341905Y-20439476D01*
X10465714Y-20306143D02*
X10541905Y-20306143D01*
X10494286Y-20239476D02*
X10494286Y-20410905D01*
X10503810Y-20429952D01*
X10522857Y-20439476D01*
X10541905Y-20439476D01*
X10599048Y-20429952D02*
X10618095Y-20439476D01*
X10656190Y-20439476D01*
X10675238Y-20429952D01*
X10684762Y-20410905D01*
X10684762Y-20401381D01*
X10675238Y-20382333D01*
X10656190Y-20372810D01*
X10627619Y-20372810D01*
X10608571Y-20363286D01*
X10599048Y-20344238D01*
X10599048Y-20334714D01*
X10608571Y-20315667D01*
X10627619Y-20306143D01*
X10656190Y-20306143D01*
X10675238Y-20315667D01*
X10751429Y-20515667D02*
X10760952Y-20506143D01*
X10780000Y-20477571D01*
X10789524Y-20458524D01*
X10799048Y-20429952D01*
X10808571Y-20382333D01*
X10808571Y-20344238D01*
X10799048Y-20296619D01*
X10789524Y-20268048D01*
X10780000Y-20249000D01*
X10760952Y-20220429D01*
X10751429Y-20210905D01*
D18*
X4062500Y-20559250D02*
X4170000Y-20666750D01*
X4170000Y-20559250D02*
X4062500Y-20666750D01*
X4154257Y-20651007D02*
X4154257Y-20574993D01*
X4078243Y-20574993D01*
X4078243Y-20651007D01*
X4154257Y-20651007D01*
D11*
X4532381Y-20703476D02*
X4418095Y-20703476D01*
X4475238Y-20703476D02*
X4475238Y-20503476D01*
X4456190Y-20532048D01*
X4437143Y-20551095D01*
X4418095Y-20560619D01*
X4618095Y-20684429D02*
X4627619Y-20693952D01*
X4618095Y-20703476D01*
X4608571Y-20693952D01*
X4618095Y-20684429D01*
X4618095Y-20703476D01*
X4751429Y-20503476D02*
X4770476Y-20503476D01*
X4789524Y-20513000D01*
X4799048Y-20522524D01*
X4808571Y-20541571D01*
X4818095Y-20579667D01*
X4818095Y-20627286D01*
X4808571Y-20665381D01*
X4799048Y-20684429D01*
X4789524Y-20693952D01*
X4770476Y-20703476D01*
X4751429Y-20703476D01*
X4732381Y-20693952D01*
X4722857Y-20684429D01*
X4713333Y-20665381D01*
X4703810Y-20627286D01*
X4703810Y-20579667D01*
X4713333Y-20541571D01*
X4722857Y-20522524D01*
X4732381Y-20513000D01*
X4751429Y-20503476D01*
X4884762Y-20503476D02*
X5018095Y-20503476D01*
X4932381Y-20703476D01*
X5189524Y-20503476D02*
X5094286Y-20503476D01*
X5084762Y-20598714D01*
X5094286Y-20589190D01*
X5113333Y-20579667D01*
X5160952Y-20579667D01*
X5180000Y-20589190D01*
X5189524Y-20598714D01*
X5199048Y-20617762D01*
X5199048Y-20665381D01*
X5189524Y-20684429D01*
X5180000Y-20693952D01*
X5160952Y-20703476D01*
X5113333Y-20703476D01*
X5094286Y-20693952D01*
X5084762Y-20684429D01*
X5284762Y-20703476D02*
X5284762Y-20570143D01*
X5284762Y-20589190D02*
X5294286Y-20579667D01*
X5313333Y-20570143D01*
X5341905Y-20570143D01*
X5360952Y-20579667D01*
X5370476Y-20598714D01*
X5370476Y-20703476D01*
X5370476Y-20598714D02*
X5380000Y-20579667D01*
X5399048Y-20570143D01*
X5427619Y-20570143D01*
X5446667Y-20579667D01*
X5456190Y-20598714D01*
X5456190Y-20703476D01*
X5551429Y-20703476D02*
X5551429Y-20570143D01*
X5551429Y-20589190D02*
X5560952Y-20579667D01*
X5580000Y-20570143D01*
X5608571Y-20570143D01*
X5627619Y-20579667D01*
X5637143Y-20598714D01*
X5637143Y-20703476D01*
X5637143Y-20598714D02*
X5646667Y-20579667D01*
X5665714Y-20570143D01*
X5694286Y-20570143D01*
X5713333Y-20579667D01*
X5722857Y-20598714D01*
X5722857Y-20703476D01*
X6113333Y-20493952D02*
X5941905Y-20751095D01*
X6370476Y-20503476D02*
X6389524Y-20503476D01*
X6408571Y-20513000D01*
X6418095Y-20522524D01*
X6427619Y-20541571D01*
X6437143Y-20579667D01*
X6437143Y-20627286D01*
X6427619Y-20665381D01*
X6418095Y-20684429D01*
X6408571Y-20693952D01*
X6389524Y-20703476D01*
X6370476Y-20703476D01*
X6351428Y-20693952D01*
X6341905Y-20684429D01*
X6332381Y-20665381D01*
X6322857Y-20627286D01*
X6322857Y-20579667D01*
X6332381Y-20541571D01*
X6341905Y-20522524D01*
X6351428Y-20513000D01*
X6370476Y-20503476D01*
X6522857Y-20684429D02*
X6532381Y-20693952D01*
X6522857Y-20703476D01*
X6513333Y-20693952D01*
X6522857Y-20684429D01*
X6522857Y-20703476D01*
X6656190Y-20503476D02*
X6675238Y-20503476D01*
X6694286Y-20513000D01*
X6703809Y-20522524D01*
X6713333Y-20541571D01*
X6722857Y-20579667D01*
X6722857Y-20627286D01*
X6713333Y-20665381D01*
X6703809Y-20684429D01*
X6694286Y-20693952D01*
X6675238Y-20703476D01*
X6656190Y-20703476D01*
X6637143Y-20693952D01*
X6627619Y-20684429D01*
X6618095Y-20665381D01*
X6608571Y-20627286D01*
X6608571Y-20579667D01*
X6618095Y-20541571D01*
X6627619Y-20522524D01*
X6637143Y-20513000D01*
X6656190Y-20503476D01*
X6894286Y-20570143D02*
X6894286Y-20703476D01*
X6846667Y-20493952D02*
X6799048Y-20636810D01*
X6922857Y-20636810D01*
X6989524Y-20522524D02*
X6999048Y-20513000D01*
X7018095Y-20503476D01*
X7065714Y-20503476D01*
X7084762Y-20513000D01*
X7094286Y-20522524D01*
X7103809Y-20541571D01*
X7103809Y-20560619D01*
X7094286Y-20589190D01*
X6980000Y-20703476D01*
X7103809Y-20703476D01*
X7170476Y-20503476D02*
X7294286Y-20503476D01*
X7227619Y-20579667D01*
X7256190Y-20579667D01*
X7275238Y-20589190D01*
X7284762Y-20598714D01*
X7294286Y-20617762D01*
X7294286Y-20665381D01*
X7284762Y-20684429D01*
X7275238Y-20693952D01*
X7256190Y-20703476D01*
X7199048Y-20703476D01*
X7180000Y-20693952D01*
X7170476Y-20684429D01*
X7370476Y-20503476D02*
X7370476Y-20541571D01*
X7446667Y-20503476D02*
X7446667Y-20541571D01*
X7741905Y-20779667D02*
X7732381Y-20770143D01*
X7713333Y-20741571D01*
X7703809Y-20722524D01*
X7694286Y-20693952D01*
X7684762Y-20646333D01*
X7684762Y-20608238D01*
X7694286Y-20560619D01*
X7703809Y-20532048D01*
X7713333Y-20513000D01*
X7732381Y-20484429D01*
X7741905Y-20474905D01*
X7846667Y-20589190D02*
X7827619Y-20579667D01*
X7818095Y-20570143D01*
X7808571Y-20551095D01*
X7808571Y-20541571D01*
X7818095Y-20522524D01*
X7827619Y-20513000D01*
X7846667Y-20503476D01*
X7884762Y-20503476D01*
X7903809Y-20513000D01*
X7913333Y-20522524D01*
X7922857Y-20541571D01*
X7922857Y-20551095D01*
X7913333Y-20570143D01*
X7903809Y-20579667D01*
X7884762Y-20589190D01*
X7846667Y-20589190D01*
X7827619Y-20598714D01*
X7818095Y-20608238D01*
X7808571Y-20627286D01*
X7808571Y-20665381D01*
X7818095Y-20684429D01*
X7827619Y-20693952D01*
X7846667Y-20703476D01*
X7884762Y-20703476D01*
X7903809Y-20693952D01*
X7913333Y-20684429D01*
X7922857Y-20665381D01*
X7922857Y-20627286D01*
X7913333Y-20608238D01*
X7903809Y-20598714D01*
X7884762Y-20589190D01*
X8160952Y-20703476D02*
X8160952Y-20503476D01*
X8246667Y-20703476D02*
X8246667Y-20598714D01*
X8237143Y-20579667D01*
X8218095Y-20570143D01*
X8189524Y-20570143D01*
X8170476Y-20579667D01*
X8160952Y-20589190D01*
X8370476Y-20703476D02*
X8351428Y-20693952D01*
X8341905Y-20684429D01*
X8332381Y-20665381D01*
X8332381Y-20608238D01*
X8341905Y-20589190D01*
X8351428Y-20579667D01*
X8370476Y-20570143D01*
X8399048Y-20570143D01*
X8418095Y-20579667D01*
X8427619Y-20589190D01*
X8437143Y-20608238D01*
X8437143Y-20665381D01*
X8427619Y-20684429D01*
X8418095Y-20693952D01*
X8399048Y-20703476D01*
X8370476Y-20703476D01*
X8551429Y-20703476D02*
X8532381Y-20693952D01*
X8522857Y-20674905D01*
X8522857Y-20503476D01*
X8703810Y-20693952D02*
X8684762Y-20703476D01*
X8646667Y-20703476D01*
X8627619Y-20693952D01*
X8618095Y-20674905D01*
X8618095Y-20598714D01*
X8627619Y-20579667D01*
X8646667Y-20570143D01*
X8684762Y-20570143D01*
X8703810Y-20579667D01*
X8713333Y-20598714D01*
X8713333Y-20617762D01*
X8618095Y-20636810D01*
X8789524Y-20693952D02*
X8808571Y-20703476D01*
X8846667Y-20703476D01*
X8865714Y-20693952D01*
X8875238Y-20674905D01*
X8875238Y-20665381D01*
X8865714Y-20646333D01*
X8846667Y-20636810D01*
X8818095Y-20636810D01*
X8799048Y-20627286D01*
X8789524Y-20608238D01*
X8789524Y-20598714D01*
X8799048Y-20579667D01*
X8818095Y-20570143D01*
X8846667Y-20570143D01*
X8865714Y-20579667D01*
X8941905Y-20779667D02*
X8951429Y-20770143D01*
X8970476Y-20741571D01*
X8980000Y-20722524D01*
X8989524Y-20693952D01*
X8999048Y-20646333D01*
X8999048Y-20608238D01*
X8989524Y-20560619D01*
X8980000Y-20532048D01*
X8970476Y-20513000D01*
X8951429Y-20484429D01*
X8941905Y-20474905D01*
D19*
X4040460Y-20812230D02*
X4170000Y-20941770D01*
X4170000Y-20812230D02*
X4040460Y-20941770D01*
X4105230Y-20941770D02*
X4170000Y-20877000D01*
X4105230Y-20812230D01*
X4040460Y-20877000D01*
X4105230Y-20941770D01*
D11*
X4532381Y-20967476D02*
X4418095Y-20967476D01*
X4475238Y-20967476D02*
X4475238Y-20767476D01*
X4456190Y-20796048D01*
X4437143Y-20815095D01*
X4418095Y-20824619D01*
X4618095Y-20948429D02*
X4627619Y-20957952D01*
X4618095Y-20967476D01*
X4608571Y-20957952D01*
X4618095Y-20948429D01*
X4618095Y-20967476D01*
X4703810Y-20786524D02*
X4713333Y-20777000D01*
X4732381Y-20767476D01*
X4780000Y-20767476D01*
X4799048Y-20777000D01*
X4808571Y-20786524D01*
X4818095Y-20805571D01*
X4818095Y-20824619D01*
X4808571Y-20853190D01*
X4694286Y-20967476D01*
X4818095Y-20967476D01*
X4913333Y-20967476D02*
X4951429Y-20967476D01*
X4970476Y-20957952D01*
X4980000Y-20948429D01*
X4999048Y-20919857D01*
X5008571Y-20881762D01*
X5008571Y-20805571D01*
X4999048Y-20786524D01*
X4989524Y-20777000D01*
X4970476Y-20767476D01*
X4932381Y-20767476D01*
X4913333Y-20777000D01*
X4903810Y-20786524D01*
X4894286Y-20805571D01*
X4894286Y-20853190D01*
X4903810Y-20872238D01*
X4913333Y-20881762D01*
X4932381Y-20891286D01*
X4970476Y-20891286D01*
X4989524Y-20881762D01*
X4999048Y-20872238D01*
X5008571Y-20853190D01*
X5189524Y-20767476D02*
X5094286Y-20767476D01*
X5084762Y-20862714D01*
X5094286Y-20853190D01*
X5113333Y-20843667D01*
X5160952Y-20843667D01*
X5180000Y-20853190D01*
X5189524Y-20862714D01*
X5199048Y-20881762D01*
X5199048Y-20929381D01*
X5189524Y-20948429D01*
X5180000Y-20957952D01*
X5160952Y-20967476D01*
X5113333Y-20967476D01*
X5094286Y-20957952D01*
X5084762Y-20948429D01*
X5284762Y-20967476D02*
X5284762Y-20834143D01*
X5284762Y-20853190D02*
X5294286Y-20843667D01*
X5313333Y-20834143D01*
X5341905Y-20834143D01*
X5360952Y-20843667D01*
X5370476Y-20862714D01*
X5370476Y-20967476D01*
X5370476Y-20862714D02*
X5380000Y-20843667D01*
X5399048Y-20834143D01*
X5427619Y-20834143D01*
X5446667Y-20843667D01*
X5456190Y-20862714D01*
X5456190Y-20967476D01*
X5551429Y-20967476D02*
X5551429Y-20834143D01*
X5551429Y-20853190D02*
X5560952Y-20843667D01*
X5580000Y-20834143D01*
X5608571Y-20834143D01*
X5627619Y-20843667D01*
X5637143Y-20862714D01*
X5637143Y-20967476D01*
X5637143Y-20862714D02*
X5646667Y-20843667D01*
X5665714Y-20834143D01*
X5694286Y-20834143D01*
X5713333Y-20843667D01*
X5722857Y-20862714D01*
X5722857Y-20967476D01*
X6113333Y-20757952D02*
X5941905Y-21015095D01*
X6370476Y-20767476D02*
X6389524Y-20767476D01*
X6408571Y-20777000D01*
X6418095Y-20786524D01*
X6427619Y-20805571D01*
X6437143Y-20843667D01*
X6437143Y-20891286D01*
X6427619Y-20929381D01*
X6418095Y-20948429D01*
X6408571Y-20957952D01*
X6389524Y-20967476D01*
X6370476Y-20967476D01*
X6351428Y-20957952D01*
X6341905Y-20948429D01*
X6332381Y-20929381D01*
X6322857Y-20891286D01*
X6322857Y-20843667D01*
X6332381Y-20805571D01*
X6341905Y-20786524D01*
X6351428Y-20777000D01*
X6370476Y-20767476D01*
X6522857Y-20948429D02*
X6532381Y-20957952D01*
X6522857Y-20967476D01*
X6513333Y-20957952D01*
X6522857Y-20948429D01*
X6522857Y-20967476D01*
X6656190Y-20767476D02*
X6675238Y-20767476D01*
X6694286Y-20777000D01*
X6703809Y-20786524D01*
X6713333Y-20805571D01*
X6722857Y-20843667D01*
X6722857Y-20891286D01*
X6713333Y-20929381D01*
X6703809Y-20948429D01*
X6694286Y-20957952D01*
X6675238Y-20967476D01*
X6656190Y-20967476D01*
X6637143Y-20957952D01*
X6627619Y-20948429D01*
X6618095Y-20929381D01*
X6608571Y-20891286D01*
X6608571Y-20843667D01*
X6618095Y-20805571D01*
X6627619Y-20786524D01*
X6637143Y-20777000D01*
X6656190Y-20767476D01*
X6903809Y-20767476D02*
X6808571Y-20767476D01*
X6799048Y-20862714D01*
X6808571Y-20853190D01*
X6827619Y-20843667D01*
X6875238Y-20843667D01*
X6894286Y-20853190D01*
X6903809Y-20862714D01*
X6913333Y-20881762D01*
X6913333Y-20929381D01*
X6903809Y-20948429D01*
X6894286Y-20957952D01*
X6875238Y-20967476D01*
X6827619Y-20967476D01*
X6808571Y-20957952D01*
X6799048Y-20948429D01*
X7103809Y-20967476D02*
X6989524Y-20967476D01*
X7046667Y-20967476D02*
X7046667Y-20767476D01*
X7027619Y-20796048D01*
X7008571Y-20815095D01*
X6989524Y-20824619D01*
X7227619Y-20767476D02*
X7246667Y-20767476D01*
X7265714Y-20777000D01*
X7275238Y-20786524D01*
X7284762Y-20805571D01*
X7294286Y-20843667D01*
X7294286Y-20891286D01*
X7284762Y-20929381D01*
X7275238Y-20948429D01*
X7265714Y-20957952D01*
X7246667Y-20967476D01*
X7227619Y-20967476D01*
X7208571Y-20957952D01*
X7199048Y-20948429D01*
X7189524Y-20929381D01*
X7180000Y-20891286D01*
X7180000Y-20843667D01*
X7189524Y-20805571D01*
X7199048Y-20786524D01*
X7208571Y-20777000D01*
X7227619Y-20767476D01*
X7370476Y-20767476D02*
X7370476Y-20805571D01*
X7446667Y-20767476D02*
X7446667Y-20805571D01*
X7741905Y-21043667D02*
X7732381Y-21034143D01*
X7713333Y-21005571D01*
X7703809Y-20986524D01*
X7694286Y-20957952D01*
X7684762Y-20910333D01*
X7684762Y-20872238D01*
X7694286Y-20824619D01*
X7703809Y-20796048D01*
X7713333Y-20777000D01*
X7732381Y-20748429D01*
X7741905Y-20738905D01*
X7808571Y-20786524D02*
X7818095Y-20777000D01*
X7837143Y-20767476D01*
X7884762Y-20767476D01*
X7903809Y-20777000D01*
X7913333Y-20786524D01*
X7922857Y-20805571D01*
X7922857Y-20824619D01*
X7913333Y-20853190D01*
X7799048Y-20967476D01*
X7922857Y-20967476D01*
X8046667Y-20767476D02*
X8065714Y-20767476D01*
X8084762Y-20777000D01*
X8094286Y-20786524D01*
X8103809Y-20805571D01*
X8113333Y-20843667D01*
X8113333Y-20891286D01*
X8103809Y-20929381D01*
X8094286Y-20948429D01*
X8084762Y-20957952D01*
X8065714Y-20967476D01*
X8046667Y-20967476D01*
X8027619Y-20957952D01*
X8018095Y-20948429D01*
X8008571Y-20929381D01*
X7999048Y-20891286D01*
X7999048Y-20843667D01*
X8008571Y-20805571D01*
X8018095Y-20786524D01*
X8027619Y-20777000D01*
X8046667Y-20767476D01*
X8351428Y-20967476D02*
X8351428Y-20767476D01*
X8437143Y-20967476D02*
X8437143Y-20862714D01*
X8427619Y-20843667D01*
X8408571Y-20834143D01*
X8380000Y-20834143D01*
X8360952Y-20843667D01*
X8351428Y-20853190D01*
X8560952Y-20967476D02*
X8541905Y-20957952D01*
X8532381Y-20948429D01*
X8522857Y-20929381D01*
X8522857Y-20872238D01*
X8532381Y-20853190D01*
X8541905Y-20843667D01*
X8560952Y-20834143D01*
X8589524Y-20834143D01*
X8608571Y-20843667D01*
X8618095Y-20853190D01*
X8627619Y-20872238D01*
X8627619Y-20929381D01*
X8618095Y-20948429D01*
X8608571Y-20957952D01*
X8589524Y-20967476D01*
X8560952Y-20967476D01*
X8741905Y-20967476D02*
X8722857Y-20957952D01*
X8713333Y-20938905D01*
X8713333Y-20767476D01*
X8894286Y-20957952D02*
X8875238Y-20967476D01*
X8837143Y-20967476D01*
X8818095Y-20957952D01*
X8808571Y-20938905D01*
X8808571Y-20862714D01*
X8818095Y-20843667D01*
X8837143Y-20834143D01*
X8875238Y-20834143D01*
X8894286Y-20843667D01*
X8903810Y-20862714D01*
X8903810Y-20881762D01*
X8808571Y-20900810D01*
X8980000Y-20957952D02*
X8999048Y-20967476D01*
X9037143Y-20967476D01*
X9056190Y-20957952D01*
X9065714Y-20938905D01*
X9065714Y-20929381D01*
X9056190Y-20910333D01*
X9037143Y-20900810D01*
X9008571Y-20900810D01*
X8989524Y-20891286D01*
X8980000Y-20872238D01*
X8980000Y-20862714D01*
X8989524Y-20843667D01*
X9008571Y-20834143D01*
X9037143Y-20834143D01*
X9056190Y-20843667D01*
X9132381Y-21043667D02*
X9141905Y-21034143D01*
X9160952Y-21005571D01*
X9170476Y-20986524D01*
X9180000Y-20957952D01*
X9189524Y-20910333D01*
X9189524Y-20872238D01*
X9180000Y-20824619D01*
X9170476Y-20796048D01*
X9160952Y-20777000D01*
X9141905Y-20748429D01*
X9132381Y-20738905D01*
X4070000Y-21041000D02*
X4070000Y-21241000D01*
X3970000Y-21141000D02*
X4170000Y-21141000D01*
X4170000Y-21141000D02*
G75*
G03*
X4170000Y-21141000I-100000J0D01*
G01*
X4418095Y-21050524D02*
X4427619Y-21041000D01*
X4446667Y-21031476D01*
X4494286Y-21031476D01*
X4513333Y-21041000D01*
X4522857Y-21050524D01*
X4532381Y-21069571D01*
X4532381Y-21088619D01*
X4522857Y-21117190D01*
X4408571Y-21231476D01*
X4532381Y-21231476D01*
X4618095Y-21212429D02*
X4627619Y-21221952D01*
X4618095Y-21231476D01*
X4608571Y-21221952D01*
X4618095Y-21212429D01*
X4618095Y-21231476D01*
X4694286Y-21031476D02*
X4827619Y-21031476D01*
X4741905Y-21231476D01*
X4941905Y-21031476D02*
X4960952Y-21031476D01*
X4980000Y-21041000D01*
X4989524Y-21050524D01*
X4999048Y-21069571D01*
X5008571Y-21107667D01*
X5008571Y-21155286D01*
X4999048Y-21193381D01*
X4989524Y-21212429D01*
X4980000Y-21221952D01*
X4960952Y-21231476D01*
X4941905Y-21231476D01*
X4922857Y-21221952D01*
X4913333Y-21212429D01*
X4903810Y-21193381D01*
X4894286Y-21155286D01*
X4894286Y-21107667D01*
X4903810Y-21069571D01*
X4913333Y-21050524D01*
X4922857Y-21041000D01*
X4941905Y-21031476D01*
X5132381Y-21031476D02*
X5151429Y-21031476D01*
X5170476Y-21041000D01*
X5180000Y-21050524D01*
X5189524Y-21069571D01*
X5199048Y-21107667D01*
X5199048Y-21155286D01*
X5189524Y-21193381D01*
X5180000Y-21212429D01*
X5170476Y-21221952D01*
X5151429Y-21231476D01*
X5132381Y-21231476D01*
X5113333Y-21221952D01*
X5103810Y-21212429D01*
X5094286Y-21193381D01*
X5084762Y-21155286D01*
X5084762Y-21107667D01*
X5094286Y-21069571D01*
X5103810Y-21050524D01*
X5113333Y-21041000D01*
X5132381Y-21031476D01*
X5284762Y-21231476D02*
X5284762Y-21098143D01*
X5284762Y-21117190D02*
X5294286Y-21107667D01*
X5313333Y-21098143D01*
X5341905Y-21098143D01*
X5360952Y-21107667D01*
X5370476Y-21126714D01*
X5370476Y-21231476D01*
X5370476Y-21126714D02*
X5380000Y-21107667D01*
X5399048Y-21098143D01*
X5427619Y-21098143D01*
X5446667Y-21107667D01*
X5456190Y-21126714D01*
X5456190Y-21231476D01*
X5551429Y-21231476D02*
X5551429Y-21098143D01*
X5551429Y-21117190D02*
X5560952Y-21107667D01*
X5580000Y-21098143D01*
X5608571Y-21098143D01*
X5627619Y-21107667D01*
X5637143Y-21126714D01*
X5637143Y-21231476D01*
X5637143Y-21126714D02*
X5646667Y-21107667D01*
X5665714Y-21098143D01*
X5694286Y-21098143D01*
X5713333Y-21107667D01*
X5722857Y-21126714D01*
X5722857Y-21231476D01*
X6113333Y-21021952D02*
X5941905Y-21279095D01*
X6370476Y-21031476D02*
X6389524Y-21031476D01*
X6408571Y-21041000D01*
X6418095Y-21050524D01*
X6427619Y-21069571D01*
X6437143Y-21107667D01*
X6437143Y-21155286D01*
X6427619Y-21193381D01*
X6418095Y-21212429D01*
X6408571Y-21221952D01*
X6389524Y-21231476D01*
X6370476Y-21231476D01*
X6351428Y-21221952D01*
X6341905Y-21212429D01*
X6332381Y-21193381D01*
X6322857Y-21155286D01*
X6322857Y-21107667D01*
X6332381Y-21069571D01*
X6341905Y-21050524D01*
X6351428Y-21041000D01*
X6370476Y-21031476D01*
X6522857Y-21212429D02*
X6532381Y-21221952D01*
X6522857Y-21231476D01*
X6513333Y-21221952D01*
X6522857Y-21212429D01*
X6522857Y-21231476D01*
X6722857Y-21231476D02*
X6608571Y-21231476D01*
X6665714Y-21231476D02*
X6665714Y-21031476D01*
X6646667Y-21060048D01*
X6627619Y-21079095D01*
X6608571Y-21088619D01*
X6846667Y-21031476D02*
X6865714Y-21031476D01*
X6884762Y-21041000D01*
X6894286Y-21050524D01*
X6903809Y-21069571D01*
X6913333Y-21107667D01*
X6913333Y-21155286D01*
X6903809Y-21193381D01*
X6894286Y-21212429D01*
X6884762Y-21221952D01*
X6865714Y-21231476D01*
X6846667Y-21231476D01*
X6827619Y-21221952D01*
X6818095Y-21212429D01*
X6808571Y-21193381D01*
X6799048Y-21155286D01*
X6799048Y-21107667D01*
X6808571Y-21069571D01*
X6818095Y-21050524D01*
X6827619Y-21041000D01*
X6846667Y-21031476D01*
X7084762Y-21031476D02*
X7046667Y-21031476D01*
X7027619Y-21041000D01*
X7018095Y-21050524D01*
X6999048Y-21079095D01*
X6989524Y-21117190D01*
X6989524Y-21193381D01*
X6999048Y-21212429D01*
X7008571Y-21221952D01*
X7027619Y-21231476D01*
X7065714Y-21231476D01*
X7084762Y-21221952D01*
X7094286Y-21212429D01*
X7103809Y-21193381D01*
X7103809Y-21145762D01*
X7094286Y-21126714D01*
X7084762Y-21117190D01*
X7065714Y-21107667D01*
X7027619Y-21107667D01*
X7008571Y-21117190D01*
X6999048Y-21126714D01*
X6989524Y-21145762D01*
X7170476Y-21031476D02*
X7294286Y-21031476D01*
X7227619Y-21107667D01*
X7256190Y-21107667D01*
X7275238Y-21117190D01*
X7284762Y-21126714D01*
X7294286Y-21145762D01*
X7294286Y-21193381D01*
X7284762Y-21212429D01*
X7275238Y-21221952D01*
X7256190Y-21231476D01*
X7199048Y-21231476D01*
X7180000Y-21221952D01*
X7170476Y-21212429D01*
X7370476Y-21031476D02*
X7370476Y-21069571D01*
X7446667Y-21031476D02*
X7446667Y-21069571D01*
X7741905Y-21307667D02*
X7732381Y-21298143D01*
X7713333Y-21269571D01*
X7703809Y-21250524D01*
X7694286Y-21221952D01*
X7684762Y-21174333D01*
X7684762Y-21136238D01*
X7694286Y-21088619D01*
X7703809Y-21060048D01*
X7713333Y-21041000D01*
X7732381Y-21012429D01*
X7741905Y-21002905D01*
X7827619Y-21231476D02*
X7865714Y-21231476D01*
X7884762Y-21221952D01*
X7894286Y-21212429D01*
X7913333Y-21183857D01*
X7922857Y-21145762D01*
X7922857Y-21069571D01*
X7913333Y-21050524D01*
X7903809Y-21041000D01*
X7884762Y-21031476D01*
X7846667Y-21031476D01*
X7827619Y-21041000D01*
X7818095Y-21050524D01*
X7808571Y-21069571D01*
X7808571Y-21117190D01*
X7818095Y-21136238D01*
X7827619Y-21145762D01*
X7846667Y-21155286D01*
X7884762Y-21155286D01*
X7903809Y-21145762D01*
X7913333Y-21136238D01*
X7922857Y-21117190D01*
X8160952Y-21231476D02*
X8160952Y-21031476D01*
X8246667Y-21231476D02*
X8246667Y-21126714D01*
X8237143Y-21107667D01*
X8218095Y-21098143D01*
X8189524Y-21098143D01*
X8170476Y-21107667D01*
X8160952Y-21117190D01*
X8370476Y-21231476D02*
X8351428Y-21221952D01*
X8341905Y-21212429D01*
X8332381Y-21193381D01*
X8332381Y-21136238D01*
X8341905Y-21117190D01*
X8351428Y-21107667D01*
X8370476Y-21098143D01*
X8399048Y-21098143D01*
X8418095Y-21107667D01*
X8427619Y-21117190D01*
X8437143Y-21136238D01*
X8437143Y-21193381D01*
X8427619Y-21212429D01*
X8418095Y-21221952D01*
X8399048Y-21231476D01*
X8370476Y-21231476D01*
X8551429Y-21231476D02*
X8532381Y-21221952D01*
X8522857Y-21202905D01*
X8522857Y-21031476D01*
X8703810Y-21221952D02*
X8684762Y-21231476D01*
X8646667Y-21231476D01*
X8627619Y-21221952D01*
X8618095Y-21202905D01*
X8618095Y-21126714D01*
X8627619Y-21107667D01*
X8646667Y-21098143D01*
X8684762Y-21098143D01*
X8703810Y-21107667D01*
X8713333Y-21126714D01*
X8713333Y-21145762D01*
X8618095Y-21164810D01*
X8789524Y-21221952D02*
X8808571Y-21231476D01*
X8846667Y-21231476D01*
X8865714Y-21221952D01*
X8875238Y-21202905D01*
X8875238Y-21193381D01*
X8865714Y-21174333D01*
X8846667Y-21164810D01*
X8818095Y-21164810D01*
X8799048Y-21155286D01*
X8789524Y-21136238D01*
X8789524Y-21126714D01*
X8799048Y-21107667D01*
X8818095Y-21098143D01*
X8846667Y-21098143D01*
X8865714Y-21107667D01*
X8941905Y-21307667D02*
X8951429Y-21298143D01*
X8970476Y-21269571D01*
X8980000Y-21250524D01*
X8989524Y-21221952D01*
X8999048Y-21174333D01*
X8999048Y-21136238D01*
X8989524Y-21088619D01*
X8980000Y-21060048D01*
X8970476Y-21041000D01*
X8951429Y-21012429D01*
X8941905Y-21002905D01*
M02*
