M48
; DRILL file {KiCad 6.0.1-79c1e3a40b~116~ubuntu20.04.1} date mer. 13 juil. 2022 18:58:01
; FORMAT={-:-/ absolute / metric / decimal}
; #@! TF.CreationDate,2022-07-13T18:58:01+02:00
; #@! TF.GenerationSoftware,Kicad,Pcbnew,6.0.1-79c1e3a40b~116~ubuntu20.04.1
; #@! TF.FileFunction,Plated,1,6,PTH
FMAT,2
METRIC
; #@! TA.AperFunction,Plated,PTH,ViaDrill
T1C0.400
; #@! TA.AperFunction,Plated,PTH,ComponentDrill
T2C0.400
; #@! TA.AperFunction,Plated,PTH,ComponentDrill
T3C0.650
; #@! TA.AperFunction,Plated,PTH,ComponentDrill
T4C0.700
; #@! TA.AperFunction,Plated,PTH,ComponentDrill
T5C0.762
; #@! TA.AperFunction,Plated,PTH,ComponentDrill
T6C0.900
; #@! TA.AperFunction,Plated,PTH,ComponentDrill
T7C1.000
; #@! TA.AperFunction,Plated,PTH,ComponentDrill
T8C1.075
; #@! TA.AperFunction,Plated,PTH,ComponentDrill
T9C1.295
; #@! TA.AperFunction,Plated,PTH,ComponentDrill
T10C2.700
%
G90
G05
T1
X46.074Y-152.149
X47.45Y-168.04
X47.45Y-169.54
X47.45Y-171.04
X47.45Y-175.5
X47.45Y-177.0
X47.45Y-178.5
X47.75Y-130.7
X47.75Y-138.6
X47.75Y-141.8
X47.85Y-85.7
X47.85Y-89.1
X47.85Y-127.5
X47.875Y-97.2
X47.875Y-100.5
X48.05Y-55.34
X48.3Y-118.5
X48.5Y-147.8
X48.95Y-168.04
X48.95Y-169.54
X48.95Y-171.04
X48.95Y-175.5
X48.95Y-177.0
X48.95Y-178.5
X49.15Y-55.34
X49.15Y-85.7
X49.15Y-89.1
X49.15Y-127.5
X49.15Y-130.7
X49.15Y-138.6
X49.15Y-141.8
X49.175Y-97.2
X49.175Y-100.5
X49.181Y-151.714
X50.35Y-55.34
X50.375Y-97.2
X50.375Y-100.5
X50.45Y-127.5
X50.45Y-130.7
X50.45Y-138.6
X50.45Y-141.8
X50.45Y-168.04
X50.45Y-169.54
X50.45Y-171.04
X50.45Y-175.5
X50.45Y-177.0
X50.45Y-178.5
X50.55Y-85.7
X50.55Y-89.1
X50.55Y-156.275
X50.575Y-115.85
X51.85Y-155.1
X52.15Y-55.34
X52.572Y-116.575
X52.95Y-48.69
X53.35Y-55.34
X53.55Y-31.0
X53.55Y-32.1
X53.8Y-35.6
X53.95Y-48.69
X54.4Y-153.5
X54.55Y-55.34
X54.95Y-48.69
X55.0Y-149.4
X55.25Y-160.895
X56.0Y-74.5
X56.0Y-75.5
X56.05Y-31.0
X56.05Y-32.1
X56.05Y-72.2
X56.05Y-73.3
X56.2Y-35.6
X56.225Y-97.4
X56.25Y-85.7
X56.25Y-89.1
X56.25Y-127.5
X56.25Y-130.7
X56.25Y-138.6
X56.25Y-141.8
X56.275Y-100.1
X57.825Y-97.4
X57.85Y-85.7
X57.85Y-89.1
X57.85Y-127.5
X57.85Y-130.7
X57.85Y-138.6
X57.85Y-141.8
X57.875Y-100.1
X59.425Y-97.4
X59.45Y-85.7
X59.45Y-89.1
X59.45Y-127.5
X59.45Y-130.7
X59.45Y-138.6
X59.45Y-141.8
X59.475Y-100.1
X60.15Y-116.575
X60.3Y-34.1
X61.45Y-119.9
X62.35Y-39.84
X62.35Y-40.84
X62.45Y-130.205
X62.45Y-131.205
X62.45Y-132.205
X62.45Y-133.205
X62.45Y-134.205
X62.45Y-135.205
X62.45Y-136.205
X62.55Y-91.8
X62.55Y-92.8
X62.55Y-93.8
X62.55Y-94.8
X62.55Y-88.8
X62.55Y-89.8
X62.55Y-90.8
X63.25Y-40.34
X63.45Y-158.6
X63.45Y-159.8
X63.45Y-161.0
X63.5Y-57.5
X63.5Y-154.7
X63.5Y-155.9
X63.5Y-157.1
X64.0Y-57.0
X64.0Y-58.0
X64.65Y-158.6
X64.65Y-159.8
X64.65Y-161.0
X64.7Y-154.7
X64.7Y-155.9
X64.7Y-157.1
X65.15Y-75.5
X65.15Y-76.7
X65.15Y-77.9
X65.15Y-79.0
X65.25Y-72.05
X65.25Y-73.05
X65.25Y-74.05
X65.85Y-158.6
X65.85Y-159.8
X65.85Y-161.0
X65.9Y-154.7
X65.9Y-155.9
X65.9Y-157.1
X66.2Y-110.0
X66.2Y-116.2
X67.15Y-40.74
X67.9Y-66.0
X68.4Y-40.74
X68.4Y-149.4
X68.85Y-61.34
X68.975Y-66.002
X69.35Y-104.7
X69.65Y-40.74
X69.95Y-58.74
X69.95Y-59.74
X69.95Y-60.84
X70.05Y-72.84
X70.75Y-116.8
X70.75Y-118.8
X70.8Y-159.4
X70.95Y-40.74
X71.25Y-59.74
X71.4Y-161.2
X71.45Y-103.0
X71.45Y-155.205
X71.491Y-114.883
X71.5Y-54.9
X71.55Y-120.8
X71.6Y-157.4
X71.8Y-72.84
X71.85Y-61.84
X72.215Y-128.968
X72.215Y-130.468
X72.215Y-131.968
X72.215Y-133.468
X72.275Y-88.475
X72.275Y-89.975
X72.275Y-91.475
X72.275Y-92.975
X73.55Y-72.84
X73.89Y-128.993
X73.89Y-130.493
X73.89Y-131.993
X73.89Y-133.493
X73.95Y-88.5
X73.95Y-90.0
X73.95Y-91.5
X73.95Y-93.0
X74.55Y-55.74
X75.3Y-72.84
X75.39Y-128.993
X75.39Y-130.493
X75.39Y-131.993
X75.39Y-133.493
X75.45Y-88.5
X75.45Y-90.0
X75.45Y-91.5
X75.45Y-93.0
X75.65Y-95.0
X75.65Y-96.1
X75.65Y-97.2
X75.69Y-135.493
X75.69Y-136.692
X75.69Y-137.892
X76.69Y-138.692
X76.69Y-139.892
X76.75Y-98.2
X76.75Y-99.4
X76.89Y-128.993
X76.89Y-130.493
X76.89Y-131.993
X76.89Y-133.493
X76.95Y-88.5
X76.95Y-90.0
X76.95Y-91.5
X76.95Y-93.0
X77.45Y-55.74
X78.39Y-128.993
X78.39Y-130.493
X78.39Y-131.993
X78.39Y-133.493
X78.45Y-88.5
X78.45Y-90.0
X78.45Y-91.5
X78.45Y-93.0
X78.55Y-118.2
X78.85Y-146.4
X78.85Y-158.8
X78.863Y-105.313
X79.1Y-35.4
X79.35Y-101.888
X79.75Y-142.6
X79.95Y-118.2
X80.85Y-45.04
X81.05Y-48.24
X81.09Y-158.892
X81.294Y-63.49
X81.3Y-65.24
X81.3Y-67.09
X81.3Y-68.64
X81.69Y-148.292
X81.75Y-107.8
X83.29Y-130.292
X83.362Y-89.812
X84.15Y-93.0
X84.65Y-44.6
X84.7Y-45.9
X84.75Y-133.6
X85.0Y-61.0
X85.0Y-65.2
X85.09Y-147.093
X85.15Y-106.6
X85.25Y-103.1
X85.35Y-144.2
X85.55Y-117.2
X86.2Y-44.6
X86.2Y-45.9
X86.29Y-158.692
X86.55Y-77.6
X86.65Y-75.0
X86.79Y-149.493
X86.8Y-39.4
X86.85Y-109.0
X87.15Y-106.0
X87.177Y-62.724
X87.2Y-36.0
X87.25Y-146.605
X87.35Y-52.2
X87.35Y-55.2
X87.99Y-149.493
X88.0Y-63.765
X88.05Y-109.0
X88.09Y-134.493
X88.138Y-93.987
X88.15Y-106.0
X88.19Y-124.492
X88.19Y-125.992
X88.19Y-127.492
X88.19Y-128.993
X88.25Y-84.0
X88.25Y-85.5
X88.25Y-87.0
X88.25Y-88.5
X88.25Y-146.605
X88.34Y-155.542
X88.4Y-115.05
X88.55Y-52.2
X88.55Y-55.2
X88.8Y-39.4
X89.15Y-106.0
X89.25Y-146.605
X89.5Y-43.9
X89.5Y-45.1
X89.69Y-124.492
X89.69Y-125.992
X89.69Y-127.492
X89.69Y-128.993
X89.75Y-84.0
X89.75Y-85.5
X89.75Y-87.0
X89.75Y-88.5
X89.85Y-52.2
X89.85Y-55.2
X90.65Y-116.3
X90.65Y-157.1
X90.8Y-45.1
X91.19Y-124.492
X91.19Y-125.992
X91.19Y-127.492
X91.19Y-128.993
X91.25Y-52.2
X91.25Y-55.2
X91.25Y-84.0
X91.25Y-85.5
X91.25Y-87.0
X91.25Y-88.5
X91.35Y-39.7
X91.541Y-134.344
X92.062Y-94.312
X92.2Y-45.1
X92.69Y-124.492
X92.69Y-125.992
X92.69Y-127.492
X92.69Y-128.993
X92.75Y-84.0
X92.75Y-85.5
X92.75Y-87.0
X92.75Y-88.5
X93.012Y-64.012
X94.35Y-157.6
X95.1Y-47.9
X95.8Y-42.6
X95.869Y-117.481
X96.065Y-143.692
X96.065Y-145.192
X96.065Y-146.692
X96.065Y-148.192
X96.125Y-103.2
X96.125Y-104.7
X96.125Y-106.2
X96.125Y-107.7
X96.2Y-43.6
X97.565Y-143.692
X97.565Y-145.192
X97.565Y-146.692
X97.625Y-103.2
X97.625Y-104.7
X97.625Y-106.2
X97.625Y-107.7
X98.09Y-168.9
X98.09Y-170.4
X98.09Y-171.9
X98.15Y-175.1
X98.15Y-176.6
X98.15Y-178.1
X99.065Y-143.692
X99.065Y-145.192
X99.065Y-146.692
X99.065Y-148.192
X99.125Y-103.2
X99.125Y-104.7
X99.125Y-106.2
X99.125Y-107.7
X99.2Y-59.0
X99.59Y-168.9
X99.59Y-170.4
X99.59Y-171.9
X99.65Y-175.1
X99.65Y-176.6
X99.65Y-178.1
X99.703Y-49.7
X100.7Y-65.6
X100.8Y-57.5
X101.09Y-168.9
X101.09Y-170.4
X101.09Y-171.9
X101.091Y-44.849
X101.15Y-175.1
X101.15Y-176.6
X101.15Y-178.1
X102.49Y-141.392
X102.49Y-142.892
X102.49Y-144.392
X102.49Y-145.892
X102.55Y-100.9
X102.55Y-102.4
X102.55Y-103.9
X102.55Y-105.4
X102.7Y-44.7
X103.1Y-46.625
X103.1Y-153.6
X103.1Y-157.2
X103.2Y-113.5
X103.2Y-117.1
X103.85Y-100.9
X103.85Y-102.4
X103.85Y-103.9
X103.85Y-105.4
X103.99Y-141.392
X103.99Y-142.892
X103.99Y-144.392
X103.99Y-145.892
X104.4Y-153.6
X104.4Y-157.2
X104.5Y-113.5
X104.5Y-117.1
X104.8Y-32.7
X104.8Y-65.6
X105.35Y-100.9
X105.35Y-102.4
X105.35Y-103.9
X105.35Y-105.4
X105.49Y-141.392
X105.49Y-142.892
X105.49Y-144.392
X105.49Y-145.892
X106.85Y-100.9
X106.85Y-102.4
X106.85Y-103.9
X106.85Y-105.4
X106.903Y-50.0
X106.95Y-141.4
X106.95Y-142.9
X106.95Y-144.4
X106.95Y-145.9
X107.3Y-39.4
X107.85Y-75.0
X107.85Y-77.9
X108.3Y-36.4
X108.4Y-65.4
X108.6Y-32.6
X108.8Y-40.2
X108.8Y-41.6
X108.8Y-43.1
X108.8Y-44.5
X109.0Y-141.0
X109.0Y-142.5
X109.0Y-144.4
X109.0Y-146.0
X109.0Y-147.6
X109.0Y-148.8
X109.2Y-100.3
X109.2Y-101.8
X109.2Y-103.7
X109.2Y-105.3
X109.2Y-106.9
X109.2Y-108.5
X110.0Y-64.6
X111.25Y-153.28
X111.25Y-154.78
X111.25Y-156.28
X111.765Y-113.062
X111.765Y-114.562
X111.765Y-116.062
X112.75Y-153.28
X112.75Y-154.78
X112.75Y-156.28
X113.265Y-113.062
X113.265Y-114.562
X113.265Y-116.062
X114.25Y-153.28
X114.25Y-154.78
X114.25Y-156.28
X114.6Y-27.6
X114.765Y-113.062
X114.765Y-114.562
X114.765Y-116.062
X115.4Y-51.0
X115.75Y-153.28
X115.75Y-154.78
X115.75Y-156.28
X116.265Y-113.062
X116.265Y-114.562
X116.265Y-116.062
X118.1Y-69.0
X119.6Y-65.6
X120.5Y-45.6
X120.6Y-31.9
X120.8Y-68.05
X122.565Y-100.087
X122.665Y-114.487
X122.69Y-154.705
X122.85Y-142.4
X123.1Y-83.924
X123.15Y-93.2
X123.15Y-94.7
X123.465Y-98.938
X123.8Y-123.1
X123.85Y-139.218
X124.55Y-93.2
X124.55Y-94.7
X125.4Y-79.6
X125.7Y-68.4
X126.465Y-89.688
X126.49Y-129.905
X126.85Y-67.6
X126.95Y-74.05
X127.4Y-86.2
X127.85Y-66.8
X127.9Y-65.1
X128.05Y-22.6
X128.05Y-32.5
X128.165Y-90.987
X128.25Y-131.112
X128.4Y-84.4
X128.85Y-123.312
X128.85Y-124.417
X128.95Y-62.8
X129.25Y-56.4
X129.3Y-27.5
X129.4Y-40.2
X129.4Y-52.9
X129.465Y-116.887
X129.465Y-118.287
X129.6Y-64.45
X129.6Y-84.4
X130.0Y-100.0
X130.05Y-140.105
X130.15Y-134.713
X130.25Y-155.9
X130.265Y-94.487
X130.8Y-74.4
X131.028Y-84.25
X131.052Y-124.468
X131.6Y-92.6
X131.85Y-156.017
X132.167Y-96.885
X132.24Y-137.102
X132.7Y-92.6
X132.9Y-126.562
X132.965Y-86.388
X133.45Y-169.0
X133.45Y-170.5
X133.45Y-172.0
X133.45Y-175.5
X133.45Y-177.0
X133.45Y-178.5
X133.6Y-82.2
X133.6Y-122.4
X133.8Y-92.6
X134.5Y-56.9
X134.562Y-73.412
X134.6Y-40.8
X134.7Y-58.0
X134.8Y-66.6
X134.95Y-169.0
X134.95Y-170.5
X134.95Y-172.0
X134.95Y-175.5
X134.95Y-177.0
X134.95Y-178.5
X135.54Y-96.087
X135.819Y-86.655
X136.45Y-169.0
X136.45Y-170.5
X136.45Y-172.0
X136.45Y-175.5
X136.45Y-177.0
X136.45Y-178.5
X136.8Y-30.0
X137.425Y-55.075
X137.6Y-71.6
X138.0Y-36.8
X138.6Y-74.8
T2
X43.15Y-23.625
X43.15Y-33.625
X43.15Y-43.625
X43.15Y-53.625
X43.15Y-63.625
X43.15Y-73.625
X43.15Y-83.625
X43.15Y-93.625
X43.15Y-103.625
X43.15Y-113.625
X43.15Y-123.625
X43.15Y-133.625
X43.15Y-143.625
X43.15Y-153.625
X43.15Y-163.625
X43.15Y-173.625
X140.65Y-23.375
X140.65Y-33.375
X140.65Y-43.375
X140.65Y-53.375
X140.65Y-63.375
X140.65Y-73.375
X140.65Y-83.375
X140.65Y-93.375
X140.65Y-103.375
X140.65Y-113.375
X140.65Y-123.375
X140.65Y-133.375
X140.65Y-143.375
X140.65Y-153.375
X140.65Y-163.375
X140.65Y-173.375
T3
X98.4Y-66.275
X99.67Y-66.275
X102.1Y-66.275
X103.37Y-66.275
T4
X45.8Y-114.86
X45.8Y-117.4
X50.4Y-158.6
X53.34Y-147.4
X55.88Y-147.4
X57.2Y-120.2
X66.9Y-32.85
X67.916Y-34.63
X68.932Y-32.85
X69.948Y-34.63
X70.964Y-32.85
X71.98Y-34.63
X72.996Y-32.85
X73.0Y-102.1
X74.012Y-34.63
X91.9Y-32.85
X92.916Y-34.63
X93.932Y-32.85
X94.948Y-34.63
X95.964Y-32.85
X96.98Y-34.63
X97.996Y-32.85
X99.012Y-34.63
X109.0Y-22.38
X109.0Y-24.92
X109.0Y-27.46
X109.0Y-30.0
X109.0Y-50.4
X109.0Y-52.94
X109.0Y-55.46
X109.0Y-58.0
X121.1Y-96.9
X121.1Y-98.9
X121.1Y-100.9
X121.2Y-141.1
X121.23Y-137.1
X121.23Y-139.1
X122.5Y-82.5
X122.5Y-118.6
X122.5Y-122.5
X122.7Y-158.7
X136.2Y-32.6
X136.2Y-35.14
X136.2Y-88.06
X136.2Y-90.6
X136.2Y-98.4
X136.2Y-100.8
X136.2Y-126.46
X136.2Y-129.0
X136.2Y-137.16
X136.2Y-139.6
T5
X42.9Y-101.375
X140.9Y-101.375
T6
X63.915Y-36.914
X66.201Y-36.914
X74.71Y-36.914
X76.996Y-36.914
X88.915Y-36.914
X91.201Y-36.914
X99.71Y-36.914
X101.996Y-36.914
T7
X49.0Y-31.72
X49.0Y-34.26
X49.0Y-36.8
X51.85Y-58.24
X52.8Y-24.4
X52.8Y-26.9
X56.4Y-24.4
X56.4Y-26.9
X78.5Y-41.0
X94.21Y-40.66
X94.21Y-43.2
X94.735Y-46.4
X97.275Y-46.4
X113.1Y-22.462
X113.1Y-25.002
X113.1Y-27.543
X113.1Y-30.082
X113.1Y-32.622
X113.1Y-35.163
X113.1Y-37.703
X113.1Y-40.242
X113.1Y-42.782
X113.1Y-45.322
X113.1Y-47.862
X113.1Y-50.402
X113.1Y-52.942
X113.1Y-55.482
X113.1Y-58.023
X113.1Y-60.562
X113.1Y-63.102
X113.1Y-65.642
X113.1Y-68.182
X113.1Y-70.722
X115.55Y-70.263
X115.64Y-30.082
X115.64Y-32.622
X115.64Y-35.163
X115.64Y-37.703
X115.64Y-40.242
X115.64Y-52.942
X115.64Y-55.482
X115.64Y-58.023
X115.64Y-60.562
X115.64Y-63.102
X115.64Y-65.642
X115.64Y-68.182
X118.09Y-70.263
X120.63Y-70.263
X123.17Y-70.263
X125.71Y-70.263
X128.25Y-70.263
X130.7Y-22.462
X130.7Y-25.002
X130.7Y-27.543
X130.7Y-30.082
X130.7Y-32.622
X130.7Y-35.163
X130.7Y-37.703
X130.7Y-40.242
X130.7Y-42.782
X130.7Y-45.322
X130.7Y-47.862
X130.7Y-50.402
X130.7Y-52.942
X130.7Y-55.482
X130.7Y-58.023
X130.7Y-60.562
X130.7Y-63.102
X130.7Y-65.642
X130.7Y-68.182
X130.7Y-70.722
T8
X92.108Y-69.593
X92.108Y-72.132
X92.108Y-74.672
X92.108Y-77.212
X98.807Y-69.593
X98.807Y-72.132
X98.807Y-74.672
X98.807Y-77.212
T9
X61.95Y-167.499
X61.95Y-175.699
X66.95Y-167.499
X66.95Y-175.699
X71.95Y-167.5
X71.95Y-175.7
X76.95Y-167.5
X76.95Y-175.7
X81.95Y-167.5
X81.95Y-175.7
X86.95Y-167.5
X86.95Y-175.7
X106.95Y-167.499
X106.95Y-175.699
X111.95Y-167.499
X111.95Y-175.699
X116.95Y-167.499
X116.95Y-175.699
X121.95Y-167.499
X121.95Y-175.699
T10
X46.95Y-26.0
X46.95Y-111.0
X46.95Y-161.0
X81.95Y-81.0
X97.95Y-111.0
X97.95Y-151.0
X136.95Y-26.0
X136.95Y-111.0
X136.95Y-161.0
T7
X60.55Y-25.8G85X60.55Y-27.2
G05
X80.489Y-25.8G85X80.489Y-27.2
G05
X85.55Y-25.8G85X85.55Y-27.2
G05
X105.489Y-25.8G85X105.489Y-27.2
G05
T0
M30
