%TF.GenerationSoftware,KiCad,Pcbnew,6.0.1-79c1e3a40b~116~ubuntu20.04.1*%
%TF.CreationDate,2022-03-09T16:59:07+01:00*%
%TF.ProjectId,microcontroller_mini,6d696372-6f63-46f6-9e74-726f6c6c6572,rev?*%
%TF.SameCoordinates,Original*%
%TF.FileFunction,Soldermask,Top*%
%TF.FilePolarity,Negative*%
%FSLAX46Y46*%
G04 Gerber Fmt 4.6, Leading zero omitted, Abs format (unit mm)*
G04 Created by KiCad (PCBNEW 6.0.1-79c1e3a40b~116~ubuntu20.04.1) date 2022-03-09 16:59:07*
%MOMM*%
%LPD*%
G01*
G04 APERTURE LIST*
G04 Aperture macros list*
%AMRoundRect*
0 Rectangle with rounded corners*
0 $1 Rounding radius*
0 $2 $3 $4 $5 $6 $7 $8 $9 X,Y pos of 4 corners*
0 Add a 4 corners polygon primitive as box body*
4,1,4,$2,$3,$4,$5,$6,$7,$8,$9,$2,$3,0*
0 Add four circle primitives for the rounded corners*
1,1,$1+$1,$2,$3*
1,1,$1+$1,$4,$5*
1,1,$1+$1,$6,$7*
1,1,$1+$1,$8,$9*
0 Add four rect primitives between the rounded corners*
20,1,$1+$1,$2,$3,$4,$5,0*
20,1,$1+$1,$4,$5,$6,$7,0*
20,1,$1+$1,$6,$7,$8,$9,0*
20,1,$1+$1,$8,$9,$2,$3,0*%
%AMFreePoly0*
4,1,9,3.862500,-0.866500,0.737500,-0.866500,0.737500,-0.450000,-0.737500,-0.450000,-0.737500,0.450000,0.737500,0.450000,0.737500,0.866500,3.862500,0.866500,3.862500,-0.866500,3.862500,-0.866500,$1*%
%AMFreePoly1*
4,1,6,1.000000,0.000000,0.500000,-0.750000,-0.500000,-0.750000,-0.500000,0.750000,0.500000,0.750000,1.000000,0.000000,1.000000,0.000000,$1*%
%AMFreePoly2*
4,1,6,0.500000,-0.750000,-0.650000,-0.750000,-0.150000,0.000000,-0.650000,0.750000,0.500000,0.750000,0.500000,-0.750000,0.500000,-0.750000,$1*%
G04 Aperture macros list end*
%ADD10RoundRect,0.135000X-0.185000X0.135000X-0.185000X-0.135000X0.185000X-0.135000X0.185000X0.135000X0*%
%ADD11RoundRect,0.243750X0.243750X0.456250X-0.243750X0.456250X-0.243750X-0.456250X0.243750X-0.456250X0*%
%ADD12RoundRect,0.243750X-0.243750X-0.456250X0.243750X-0.456250X0.243750X0.456250X-0.243750X0.456250X0*%
%ADD13RoundRect,0.150000X0.150000X-0.512500X0.150000X0.512500X-0.150000X0.512500X-0.150000X-0.512500X0*%
%ADD14R,0.600000X0.700000*%
%ADD15RoundRect,0.150000X0.150000X-0.825000X0.150000X0.825000X-0.150000X0.825000X-0.150000X-0.825000X0*%
%ADD16R,1.200000X1.400000*%
%ADD17RoundRect,0.225000X0.335876X0.017678X0.017678X0.335876X-0.335876X-0.017678X-0.017678X-0.335876X0*%
%ADD18RoundRect,0.135000X-0.226274X-0.035355X-0.035355X-0.226274X0.226274X0.035355X0.035355X0.226274X0*%
%ADD19O,2.400000X1.600000*%
%ADD20R,1.000000X1.600000*%
%ADD21O,1.600000X2.400000*%
%ADD22R,1.600000X1.000000*%
%ADD23R,0.900000X1.300000*%
%ADD24FreePoly0,270.000000*%
%ADD25RoundRect,0.135000X0.226274X0.035355X0.035355X0.226274X-0.226274X-0.035355X-0.035355X-0.226274X0*%
%ADD26RoundRect,0.225000X0.017678X-0.335876X0.335876X-0.017678X-0.017678X0.335876X-0.335876X0.017678X0*%
%ADD27RoundRect,0.140000X-0.219203X-0.021213X-0.021213X-0.219203X0.219203X0.021213X0.021213X0.219203X0*%
%ADD28RoundRect,0.135000X0.135000X0.185000X-0.135000X0.185000X-0.135000X-0.185000X0.135000X-0.185000X0*%
%ADD29RoundRect,0.250000X0.475000X-0.250000X0.475000X0.250000X-0.475000X0.250000X-0.475000X-0.250000X0*%
%ADD30R,0.740000X2.400000*%
%ADD31RoundRect,0.140000X0.021213X-0.219203X0.219203X-0.021213X-0.021213X0.219203X-0.219203X0.021213X0*%
%ADD32RoundRect,0.140000X-0.021213X0.219203X-0.219203X0.021213X0.021213X-0.219203X0.219203X-0.021213X0*%
%ADD33RoundRect,0.135000X-0.135000X-0.185000X0.135000X-0.185000X0.135000X0.185000X-0.135000X0.185000X0*%
%ADD34RoundRect,0.140000X0.140000X0.170000X-0.140000X0.170000X-0.140000X-0.170000X0.140000X-0.170000X0*%
%ADD35RoundRect,0.243750X-0.456250X0.243750X-0.456250X-0.243750X0.456250X-0.243750X0.456250X0.243750X0*%
%ADD36RoundRect,0.140000X0.170000X-0.140000X0.170000X0.140000X-0.170000X0.140000X-0.170000X-0.140000X0*%
%ADD37RoundRect,0.140000X0.219203X0.021213X0.021213X0.219203X-0.219203X-0.021213X-0.021213X-0.219203X0*%
%ADD38R,1.000000X0.900000*%
%ADD39RoundRect,0.140000X-0.140000X-0.170000X0.140000X-0.170000X0.140000X0.170000X-0.140000X0.170000X0*%
%ADD40RoundRect,0.250000X0.250000X0.475000X-0.250000X0.475000X-0.250000X-0.475000X0.250000X-0.475000X0*%
%ADD41RoundRect,0.075000X0.548008X-0.441942X-0.441942X0.548008X-0.548008X0.441942X0.441942X-0.548008X0*%
%ADD42RoundRect,0.075000X0.548008X0.441942X0.441942X0.548008X-0.548008X-0.441942X-0.441942X-0.548008X0*%
%ADD43FreePoly1,90.000000*%
%ADD44FreePoly2,90.000000*%
%ADD45R,0.450000X1.380000*%
%ADD46R,1.650000X1.300000*%
%ADD47R,1.800000X1.900000*%
%ADD48R,1.425000X1.550000*%
%ADD49R,1.000000X1.900000*%
G04 APERTURE END LIST*
D10*
%TO.C,R1*%
X96900000Y-58090000D03*
X96900000Y-59110000D03*
%TD*%
D11*
%TO.C,F2*%
X100262500Y-55400000D03*
X102137500Y-55400000D03*
%TD*%
D12*
%TO.C,F1*%
X100262500Y-57200000D03*
X102137500Y-57200000D03*
%TD*%
D13*
%TO.C,U3*%
X92350000Y-58737500D03*
X93300000Y-58737500D03*
X94250000Y-58737500D03*
X94250000Y-56462500D03*
X93300000Y-56462500D03*
X92350000Y-56462500D03*
%TD*%
D14*
%TO.C,D1*%
X98800000Y-55400000D03*
X97400000Y-55400000D03*
%TD*%
D15*
%TO.C,U2*%
X88955978Y-89785000D03*
X90225978Y-89785000D03*
X91495978Y-89785000D03*
X92765978Y-89785000D03*
X92765978Y-84835000D03*
X91495978Y-84835000D03*
X90225978Y-84835000D03*
X88955978Y-84835000D03*
%TD*%
D16*
%TO.C,Y1*%
X98980978Y-86525000D03*
X98980978Y-88725000D03*
X100680978Y-88725000D03*
X100680978Y-86525000D03*
%TD*%
D17*
%TO.C,C12*%
X99956994Y-64906016D03*
X98860978Y-63810000D03*
%TD*%
D18*
%TO.C,FB1*%
X100700354Y-65949376D03*
X101421602Y-66670624D03*
%TD*%
D19*
%TO.C,J1*%
X86460978Y-50810000D03*
D20*
X85660978Y-50810000D03*
X85660978Y-53350000D03*
D19*
X86460978Y-53350000D03*
D20*
X85660978Y-55890000D03*
D19*
X86460978Y-55890000D03*
X86460978Y-58430000D03*
D20*
X85660978Y-58430000D03*
D19*
X86460978Y-60970000D03*
D20*
X85660978Y-60970000D03*
D19*
X86460978Y-63510000D03*
D20*
X85660978Y-63510000D03*
D19*
X86460978Y-66050000D03*
D20*
X85660978Y-66050000D03*
D19*
X86460978Y-68590000D03*
D20*
X85660978Y-68590000D03*
D19*
X86460978Y-71130000D03*
D20*
X85660978Y-71130000D03*
D19*
X86460978Y-73670000D03*
D20*
X85660978Y-73670000D03*
X85660978Y-76210000D03*
D19*
X86460978Y-76210000D03*
X86460978Y-78750000D03*
D20*
X85660978Y-78750000D03*
X85660978Y-81290000D03*
D19*
X86460978Y-81290000D03*
D20*
X85660978Y-83830000D03*
D19*
X86460978Y-83830000D03*
D20*
X85660978Y-86370000D03*
D19*
X86460978Y-86370000D03*
D20*
X85660978Y-88910000D03*
D19*
X86460978Y-88910000D03*
D20*
X85660978Y-91450000D03*
D19*
X86460978Y-91450000D03*
X86460978Y-93990000D03*
D20*
X85660978Y-93990000D03*
X85660978Y-96530000D03*
D19*
X86460978Y-96530000D03*
D20*
X85660978Y-99070000D03*
D19*
X86460978Y-99070000D03*
D21*
X89310978Y-99010000D03*
D22*
X89310978Y-99810000D03*
D21*
X91850978Y-99010000D03*
D22*
X91850978Y-99810000D03*
D21*
X94390978Y-99010000D03*
D22*
X94390978Y-99810000D03*
D21*
X96930978Y-99010000D03*
D22*
X96930978Y-99810000D03*
X99470978Y-99810000D03*
D21*
X99470978Y-99010000D03*
X102010978Y-99010000D03*
D22*
X102010978Y-99810000D03*
D19*
X104860978Y-99070000D03*
D20*
X105660978Y-99070000D03*
X105660978Y-96530000D03*
D19*
X104860978Y-96530000D03*
D20*
X105660978Y-93990000D03*
D19*
X104860978Y-93990000D03*
X104860978Y-91450000D03*
D20*
X105660978Y-91450000D03*
X105660978Y-88910000D03*
D19*
X104860978Y-88910000D03*
X104860978Y-86370000D03*
D20*
X105660978Y-86370000D03*
D19*
X104860978Y-83830000D03*
D20*
X105660978Y-83830000D03*
X105660978Y-81290000D03*
D19*
X104860978Y-81290000D03*
D20*
X105660978Y-78750000D03*
D19*
X104860978Y-78750000D03*
D20*
X105660978Y-76210000D03*
D19*
X104860978Y-76210000D03*
D20*
X105660978Y-73670000D03*
D19*
X104860978Y-73670000D03*
X104860978Y-71130000D03*
D20*
X105660978Y-71130000D03*
X105660978Y-68590000D03*
D19*
X104860978Y-68590000D03*
X104860978Y-66050000D03*
D20*
X105660978Y-66050000D03*
X105660978Y-63510000D03*
D19*
X104860978Y-63510000D03*
X104860978Y-60970000D03*
D20*
X105660978Y-60970000D03*
D19*
X104860978Y-58430000D03*
D20*
X105660978Y-58430000D03*
D19*
X104860978Y-55890000D03*
D20*
X105660978Y-55890000D03*
X105660978Y-53350000D03*
D19*
X104860978Y-53350000D03*
D20*
X105660978Y-50810000D03*
D19*
X104860978Y-50810000D03*
%TD*%
D23*
%TO.C,U4*%
X101900000Y-58950000D03*
D24*
X100400000Y-59037500D03*
D23*
X98900000Y-58950000D03*
%TD*%
D25*
%TO.C,R23*%
X100621602Y-81870624D03*
X99900354Y-81149376D03*
%TD*%
D26*
%TO.C,C41*%
X101112970Y-69058008D03*
X102208986Y-67961992D03*
%TD*%
D27*
%TO.C,C5*%
X100721567Y-80370589D03*
X101400389Y-81049411D03*
%TD*%
D28*
%TO.C,R26*%
X102810000Y-50510000D03*
X101790000Y-50510000D03*
%TD*%
D26*
%TO.C,C6*%
X96612970Y-66058008D03*
X97708986Y-64961992D03*
%TD*%
D29*
%TO.C,C39*%
X96900000Y-61750000D03*
X96900000Y-59850000D03*
%TD*%
D30*
%TO.C,J8*%
X91750978Y-96260000D03*
X91750978Y-92360000D03*
X93020978Y-96260000D03*
X93020978Y-92360000D03*
X94290978Y-96260000D03*
X94290978Y-92360000D03*
X95560978Y-96260000D03*
X95560978Y-92360000D03*
X96830978Y-96260000D03*
X96830978Y-92360000D03*
X98100978Y-96260000D03*
X98100978Y-92360000D03*
X99370978Y-96260000D03*
X99370978Y-92360000D03*
%TD*%
D31*
%TO.C,C10*%
X98021567Y-66349411D03*
X98700389Y-65670589D03*
%TD*%
D32*
%TO.C,C9*%
X103500389Y-77270589D03*
X102821567Y-77949411D03*
%TD*%
D33*
%TO.C,R28*%
X88540978Y-50510000D03*
X89560978Y-50510000D03*
%TD*%
D34*
%TO.C,C4*%
X101310978Y-90210000D03*
X100350978Y-90210000D03*
%TD*%
D31*
%TO.C,C14*%
X99182156Y-67488822D03*
X99860978Y-66810000D03*
%TD*%
D35*
%TO.C,LED1*%
X89000000Y-51872500D03*
X89000000Y-53747500D03*
%TD*%
D36*
%TO.C,C1*%
X88910978Y-83140000D03*
X88910978Y-82180000D03*
%TD*%
D37*
%TO.C,C8*%
X93100389Y-82849411D03*
X92421567Y-82170589D03*
%TD*%
D35*
%TO.C,LED2*%
X102300000Y-51862500D03*
X102300000Y-53737500D03*
%TD*%
D38*
%TO.C,SW1*%
X94680978Y-89840000D03*
X94680978Y-85740000D03*
X96280978Y-89840000D03*
X96280978Y-85740000D03*
%TD*%
D39*
%TO.C,C3*%
X98750978Y-85110000D03*
X99710978Y-85110000D03*
%TD*%
D31*
%TO.C,C42*%
X99982156Y-68288822D03*
X100660978Y-67610000D03*
%TD*%
D40*
%TO.C,C40*%
X96950000Y-57200000D03*
X98850000Y-57200000D03*
%TD*%
D10*
%TO.C,R24*%
X101260978Y-96000000D03*
X101260978Y-97020000D03*
%TD*%
D41*
%TO.C,U1*%
X96922159Y-81474481D03*
X97275712Y-81120928D03*
X97629265Y-80767375D03*
X97982819Y-80413821D03*
X98336372Y-80060268D03*
X98689926Y-79706714D03*
X99043479Y-79353161D03*
X99397032Y-78999608D03*
X99750586Y-78646054D03*
X100104139Y-78292501D03*
X100457692Y-77938948D03*
X100811246Y-77585394D03*
X101164799Y-77231841D03*
X101518353Y-76878287D03*
X101871906Y-76524734D03*
X102225459Y-76171181D03*
D42*
X102225459Y-73448819D03*
X101871906Y-73095266D03*
X101518353Y-72741713D03*
X101164799Y-72388159D03*
X100811246Y-72034606D03*
X100457692Y-71681052D03*
X100104139Y-71327499D03*
X99750586Y-70973946D03*
X99397032Y-70620392D03*
X99043479Y-70266839D03*
X98689926Y-69913286D03*
X98336372Y-69559732D03*
X97982819Y-69206179D03*
X97629265Y-68852625D03*
X97275712Y-68499072D03*
X96922159Y-68145519D03*
D41*
X94199797Y-68145519D03*
X93846244Y-68499072D03*
X93492691Y-68852625D03*
X93139137Y-69206179D03*
X92785584Y-69559732D03*
X92432030Y-69913286D03*
X92078477Y-70266839D03*
X91724924Y-70620392D03*
X91371370Y-70973946D03*
X91017817Y-71327499D03*
X90664264Y-71681052D03*
X90310710Y-72034606D03*
X89957157Y-72388159D03*
X89603603Y-72741713D03*
X89250050Y-73095266D03*
X88896497Y-73448819D03*
D42*
X88896497Y-76171181D03*
X89250050Y-76524734D03*
X89603603Y-76878287D03*
X89957157Y-77231841D03*
X90310710Y-77585394D03*
X90664264Y-77938948D03*
X91017817Y-78292501D03*
X91371370Y-78646054D03*
X91724924Y-78999608D03*
X92078477Y-79353161D03*
X92432030Y-79706714D03*
X92785584Y-80060268D03*
X93139137Y-80413821D03*
X93492691Y-80767375D03*
X93846244Y-81120928D03*
X94199797Y-81474481D03*
%TD*%
D43*
%TO.C,JP1*%
X88966978Y-56615000D03*
D44*
X88966978Y-55165000D03*
%TD*%
D31*
%TO.C,C7*%
X87421567Y-72449411D03*
X88100389Y-71770589D03*
%TD*%
D45*
%TO.C,J2*%
X96860978Y-53470000D03*
X96210978Y-53470000D03*
X95560978Y-53470000D03*
X94910978Y-53470000D03*
X94260978Y-53470000D03*
D46*
X92185978Y-50810000D03*
D47*
X96710978Y-50810000D03*
D48*
X93073478Y-53385000D03*
D46*
X98935978Y-50810000D03*
D48*
X98048478Y-53385000D03*
D49*
X94010978Y-50810000D03*
%TD*%
M02*
