%FSLAX45Y45*%
G04 Gerber Fmt 4.5, Leading zero omitted, Abs format (unit mm)*
G04 Created by KiCad (PCBNEW 6.0.1-79c1e3a40b~116~ubuntu20.04.1) date 2022-07-08 20:06:53*
%MOMM*%
%LPD*%
G01*
G04 APERTURE LIST*
%TA.AperFunction,Profile*%
%ADD10C,0.100000*%
%TD*%
%ADD11C,0.200000*%
%ADD12C,0.065000*%
G04 APERTURE END LIST*
D10*
X8516098Y-10031000D02*
X10616098Y-10031000D01*
X10616098Y-10031000D02*
X10616098Y-4931000D01*
X10616098Y-4931000D02*
X8516098Y-4931000D01*
X8516098Y-4931000D02*
X8516098Y-10031000D01*
D11*
D12*
X9238500Y-5411500D02*
X9303500Y-5476500D01*
X9303500Y-5411500D02*
X9238500Y-5476500D01*
X9816500Y-5411500D02*
X9881500Y-5476500D01*
X9881500Y-5411500D02*
X9816500Y-5476500D01*
D11*
X8768717Y-10346476D02*
X8768717Y-10146476D01*
X8816336Y-10146476D01*
X8844907Y-10156000D01*
X8863955Y-10175048D01*
X8873479Y-10194095D01*
X8883003Y-10232190D01*
X8883003Y-10260762D01*
X8873479Y-10298857D01*
X8863955Y-10317905D01*
X8844907Y-10336952D01*
X8816336Y-10346476D01*
X8768717Y-10346476D01*
X8968717Y-10346476D02*
X8968717Y-10213143D01*
X8968717Y-10251238D02*
X8978241Y-10232190D01*
X8987764Y-10222667D01*
X9006812Y-10213143D01*
X9025860Y-10213143D01*
X9092526Y-10346476D02*
X9092526Y-10213143D01*
X9092526Y-10146476D02*
X9083003Y-10156000D01*
X9092526Y-10165524D01*
X9102050Y-10156000D01*
X9092526Y-10146476D01*
X9092526Y-10165524D01*
X9216336Y-10346476D02*
X9197288Y-10336952D01*
X9187764Y-10317905D01*
X9187764Y-10146476D01*
X9321098Y-10346476D02*
X9302050Y-10336952D01*
X9292526Y-10317905D01*
X9292526Y-10146476D01*
X9549669Y-10346476D02*
X9549669Y-10146476D01*
X9616336Y-10289333D01*
X9683003Y-10146476D01*
X9683003Y-10346476D01*
X9863955Y-10346476D02*
X9863955Y-10241714D01*
X9854431Y-10222667D01*
X9835384Y-10213143D01*
X9797288Y-10213143D01*
X9778241Y-10222667D01*
X9863955Y-10336952D02*
X9844907Y-10346476D01*
X9797288Y-10346476D01*
X9778241Y-10336952D01*
X9768717Y-10317905D01*
X9768717Y-10298857D01*
X9778241Y-10279810D01*
X9797288Y-10270286D01*
X9844907Y-10270286D01*
X9863955Y-10260762D01*
X9959193Y-10213143D02*
X9959193Y-10413143D01*
X9959193Y-10222667D02*
X9978241Y-10213143D01*
X10016336Y-10213143D01*
X10035384Y-10222667D01*
X10044907Y-10232190D01*
X10054431Y-10251238D01*
X10054431Y-10308381D01*
X10044907Y-10327429D01*
X10035384Y-10336952D01*
X10016336Y-10346476D01*
X9978241Y-10346476D01*
X9959193Y-10336952D01*
X10140145Y-10327429D02*
X10149669Y-10336952D01*
X10140145Y-10346476D01*
X10130622Y-10336952D01*
X10140145Y-10327429D01*
X10140145Y-10346476D01*
X10140145Y-10222667D02*
X10149669Y-10232190D01*
X10140145Y-10241714D01*
X10130622Y-10232190D01*
X10140145Y-10222667D01*
X10140145Y-10241714D01*
D12*
X8446098Y-10643500D02*
X8511098Y-10708500D01*
X8511098Y-10643500D02*
X8446098Y-10708500D01*
D11*
X8806812Y-10566476D02*
X8825860Y-10566476D01*
X8844907Y-10576000D01*
X8854431Y-10585524D01*
X8863955Y-10604571D01*
X8873479Y-10642667D01*
X8873479Y-10690286D01*
X8863955Y-10728381D01*
X8854431Y-10747429D01*
X8844907Y-10756952D01*
X8825860Y-10766476D01*
X8806812Y-10766476D01*
X8787764Y-10756952D01*
X8778241Y-10747429D01*
X8768717Y-10728381D01*
X8759193Y-10690286D01*
X8759193Y-10642667D01*
X8768717Y-10604571D01*
X8778241Y-10585524D01*
X8787764Y-10576000D01*
X8806812Y-10566476D01*
X8959193Y-10747429D02*
X8968717Y-10756952D01*
X8959193Y-10766476D01*
X8949669Y-10756952D01*
X8959193Y-10747429D01*
X8959193Y-10766476D01*
X9140145Y-10566476D02*
X9102050Y-10566476D01*
X9083003Y-10576000D01*
X9073479Y-10585524D01*
X9054431Y-10614095D01*
X9044907Y-10652190D01*
X9044907Y-10728381D01*
X9054431Y-10747429D01*
X9063955Y-10756952D01*
X9083003Y-10766476D01*
X9121098Y-10766476D01*
X9140145Y-10756952D01*
X9149669Y-10747429D01*
X9159193Y-10728381D01*
X9159193Y-10680762D01*
X9149669Y-10661714D01*
X9140145Y-10652190D01*
X9121098Y-10642667D01*
X9083003Y-10642667D01*
X9063955Y-10652190D01*
X9054431Y-10661714D01*
X9044907Y-10680762D01*
X9340145Y-10566476D02*
X9244907Y-10566476D01*
X9235384Y-10661714D01*
X9244907Y-10652190D01*
X9263955Y-10642667D01*
X9311574Y-10642667D01*
X9330622Y-10652190D01*
X9340145Y-10661714D01*
X9349669Y-10680762D01*
X9349669Y-10728381D01*
X9340145Y-10747429D01*
X9330622Y-10756952D01*
X9311574Y-10766476D01*
X9263955Y-10766476D01*
X9244907Y-10756952D01*
X9235384Y-10747429D01*
X9473479Y-10566476D02*
X9492526Y-10566476D01*
X9511574Y-10576000D01*
X9521098Y-10585524D01*
X9530622Y-10604571D01*
X9540145Y-10642667D01*
X9540145Y-10690286D01*
X9530622Y-10728381D01*
X9521098Y-10747429D01*
X9511574Y-10756952D01*
X9492526Y-10766476D01*
X9473479Y-10766476D01*
X9454431Y-10756952D01*
X9444907Y-10747429D01*
X9435384Y-10728381D01*
X9425860Y-10690286D01*
X9425860Y-10642667D01*
X9435384Y-10604571D01*
X9444907Y-10585524D01*
X9454431Y-10576000D01*
X9473479Y-10566476D01*
X9625860Y-10766476D02*
X9625860Y-10633143D01*
X9625860Y-10652190D02*
X9635384Y-10642667D01*
X9654431Y-10633143D01*
X9683003Y-10633143D01*
X9702050Y-10642667D01*
X9711574Y-10661714D01*
X9711574Y-10766476D01*
X9711574Y-10661714D02*
X9721098Y-10642667D01*
X9740145Y-10633143D01*
X9768717Y-10633143D01*
X9787764Y-10642667D01*
X9797288Y-10661714D01*
X9797288Y-10766476D01*
X9892526Y-10766476D02*
X9892526Y-10633143D01*
X9892526Y-10652190D02*
X9902050Y-10642667D01*
X9921098Y-10633143D01*
X9949669Y-10633143D01*
X9968717Y-10642667D01*
X9978241Y-10661714D01*
X9978241Y-10766476D01*
X9978241Y-10661714D02*
X9987764Y-10642667D01*
X10006812Y-10633143D01*
X10035384Y-10633143D01*
X10054431Y-10642667D01*
X10063955Y-10661714D01*
X10063955Y-10766476D01*
X10454431Y-10556952D02*
X10283003Y-10814095D01*
X10711574Y-10566476D02*
X10730622Y-10566476D01*
X10749669Y-10576000D01*
X10759193Y-10585524D01*
X10768717Y-10604571D01*
X10778241Y-10642667D01*
X10778241Y-10690286D01*
X10768717Y-10728381D01*
X10759193Y-10747429D01*
X10749669Y-10756952D01*
X10730622Y-10766476D01*
X10711574Y-10766476D01*
X10692526Y-10756952D01*
X10683003Y-10747429D01*
X10673479Y-10728381D01*
X10663955Y-10690286D01*
X10663955Y-10642667D01*
X10673479Y-10604571D01*
X10683003Y-10585524D01*
X10692526Y-10576000D01*
X10711574Y-10566476D01*
X10863955Y-10747429D02*
X10873479Y-10756952D01*
X10863955Y-10766476D01*
X10854431Y-10756952D01*
X10863955Y-10747429D01*
X10863955Y-10766476D01*
X10997288Y-10566476D02*
X11016336Y-10566476D01*
X11035384Y-10576000D01*
X11044907Y-10585524D01*
X11054431Y-10604571D01*
X11063955Y-10642667D01*
X11063955Y-10690286D01*
X11054431Y-10728381D01*
X11044907Y-10747429D01*
X11035384Y-10756952D01*
X11016336Y-10766476D01*
X10997288Y-10766476D01*
X10978241Y-10756952D01*
X10968717Y-10747429D01*
X10959193Y-10728381D01*
X10949669Y-10690286D01*
X10949669Y-10642667D01*
X10959193Y-10604571D01*
X10968717Y-10585524D01*
X10978241Y-10576000D01*
X10997288Y-10566476D01*
X11140145Y-10585524D02*
X11149669Y-10576000D01*
X11168717Y-10566476D01*
X11216336Y-10566476D01*
X11235383Y-10576000D01*
X11244907Y-10585524D01*
X11254431Y-10604571D01*
X11254431Y-10623619D01*
X11244907Y-10652190D01*
X11130622Y-10766476D01*
X11254431Y-10766476D01*
X11435383Y-10566476D02*
X11340145Y-10566476D01*
X11330622Y-10661714D01*
X11340145Y-10652190D01*
X11359193Y-10642667D01*
X11406812Y-10642667D01*
X11425860Y-10652190D01*
X11435383Y-10661714D01*
X11444907Y-10680762D01*
X11444907Y-10728381D01*
X11435383Y-10747429D01*
X11425860Y-10756952D01*
X11406812Y-10766476D01*
X11359193Y-10766476D01*
X11340145Y-10756952D01*
X11330622Y-10747429D01*
X11616336Y-10566476D02*
X11578241Y-10566476D01*
X11559193Y-10576000D01*
X11549669Y-10585524D01*
X11530622Y-10614095D01*
X11521098Y-10652190D01*
X11521098Y-10728381D01*
X11530622Y-10747429D01*
X11540145Y-10756952D01*
X11559193Y-10766476D01*
X11597288Y-10766476D01*
X11616336Y-10756952D01*
X11625860Y-10747429D01*
X11635383Y-10728381D01*
X11635383Y-10680762D01*
X11625860Y-10661714D01*
X11616336Y-10652190D01*
X11597288Y-10642667D01*
X11559193Y-10642667D01*
X11540145Y-10652190D01*
X11530622Y-10661714D01*
X11521098Y-10680762D01*
X11711574Y-10566476D02*
X11711574Y-10604571D01*
X11787764Y-10566476D02*
X11787764Y-10604571D01*
X12083002Y-10842667D02*
X12073479Y-10833143D01*
X12054431Y-10804571D01*
X12044907Y-10785524D01*
X12035383Y-10756952D01*
X12025860Y-10709333D01*
X12025860Y-10671238D01*
X12035383Y-10623619D01*
X12044907Y-10595048D01*
X12054431Y-10576000D01*
X12073479Y-10547429D01*
X12083002Y-10537905D01*
X12149669Y-10585524D02*
X12159193Y-10576000D01*
X12178241Y-10566476D01*
X12225860Y-10566476D01*
X12244907Y-10576000D01*
X12254431Y-10585524D01*
X12263955Y-10604571D01*
X12263955Y-10623619D01*
X12254431Y-10652190D01*
X12140145Y-10766476D01*
X12263955Y-10766476D01*
X12502050Y-10766476D02*
X12502050Y-10566476D01*
X12587764Y-10766476D02*
X12587764Y-10661714D01*
X12578241Y-10642667D01*
X12559193Y-10633143D01*
X12530622Y-10633143D01*
X12511574Y-10642667D01*
X12502050Y-10652190D01*
X12711574Y-10766476D02*
X12692526Y-10756952D01*
X12683002Y-10747429D01*
X12673479Y-10728381D01*
X12673479Y-10671238D01*
X12683002Y-10652190D01*
X12692526Y-10642667D01*
X12711574Y-10633143D01*
X12740145Y-10633143D01*
X12759193Y-10642667D01*
X12768717Y-10652190D01*
X12778241Y-10671238D01*
X12778241Y-10728381D01*
X12768717Y-10747429D01*
X12759193Y-10756952D01*
X12740145Y-10766476D01*
X12711574Y-10766476D01*
X12892526Y-10766476D02*
X12873479Y-10756952D01*
X12863955Y-10737905D01*
X12863955Y-10566476D01*
X13044907Y-10756952D02*
X13025860Y-10766476D01*
X12987764Y-10766476D01*
X12968717Y-10756952D01*
X12959193Y-10737905D01*
X12959193Y-10661714D01*
X12968717Y-10642667D01*
X12987764Y-10633143D01*
X13025860Y-10633143D01*
X13044907Y-10642667D01*
X13054431Y-10661714D01*
X13054431Y-10680762D01*
X12959193Y-10699810D01*
X13130622Y-10756952D02*
X13149669Y-10766476D01*
X13187764Y-10766476D01*
X13206812Y-10756952D01*
X13216336Y-10737905D01*
X13216336Y-10728381D01*
X13206812Y-10709333D01*
X13187764Y-10699810D01*
X13159193Y-10699810D01*
X13140145Y-10690286D01*
X13130622Y-10671238D01*
X13130622Y-10661714D01*
X13140145Y-10642667D01*
X13159193Y-10633143D01*
X13187764Y-10633143D01*
X13206812Y-10642667D01*
X13283002Y-10842667D02*
X13292526Y-10833143D01*
X13311574Y-10804571D01*
X13321098Y-10785524D01*
X13330622Y-10756952D01*
X13340145Y-10709333D01*
X13340145Y-10671238D01*
X13330622Y-10623619D01*
X13321098Y-10595048D01*
X13311574Y-10576000D01*
X13292526Y-10547429D01*
X13283002Y-10537905D01*
X13644907Y-10842667D02*
X13635383Y-10833143D01*
X13616336Y-10804571D01*
X13606812Y-10785524D01*
X13597288Y-10756952D01*
X13587764Y-10709333D01*
X13587764Y-10671238D01*
X13597288Y-10623619D01*
X13606812Y-10595048D01*
X13616336Y-10576000D01*
X13635383Y-10547429D01*
X13644907Y-10537905D01*
X13721098Y-10633143D02*
X13721098Y-10766476D01*
X13721098Y-10652190D02*
X13730622Y-10642667D01*
X13749669Y-10633143D01*
X13778241Y-10633143D01*
X13797288Y-10642667D01*
X13806812Y-10661714D01*
X13806812Y-10766476D01*
X13930622Y-10766476D02*
X13911574Y-10756952D01*
X13902050Y-10747429D01*
X13892526Y-10728381D01*
X13892526Y-10671238D01*
X13902050Y-10652190D01*
X13911574Y-10642667D01*
X13930622Y-10633143D01*
X13959193Y-10633143D01*
X13978241Y-10642667D01*
X13987764Y-10652190D01*
X13997288Y-10671238D01*
X13997288Y-10728381D01*
X13987764Y-10747429D01*
X13978241Y-10756952D01*
X13959193Y-10766476D01*
X13930622Y-10766476D01*
X14054431Y-10633143D02*
X14130622Y-10633143D01*
X14083002Y-10566476D02*
X14083002Y-10737905D01*
X14092526Y-10756952D01*
X14111574Y-10766476D01*
X14130622Y-10766476D01*
X14349669Y-10633143D02*
X14349669Y-10833143D01*
X14349669Y-10642667D02*
X14368717Y-10633143D01*
X14406812Y-10633143D01*
X14425860Y-10642667D01*
X14435383Y-10652190D01*
X14444907Y-10671238D01*
X14444907Y-10728381D01*
X14435383Y-10747429D01*
X14425860Y-10756952D01*
X14406812Y-10766476D01*
X14368717Y-10766476D01*
X14349669Y-10756952D01*
X14559193Y-10766476D02*
X14540145Y-10756952D01*
X14530622Y-10737905D01*
X14530622Y-10566476D01*
X14721098Y-10766476D02*
X14721098Y-10661714D01*
X14711574Y-10642667D01*
X14692526Y-10633143D01*
X14654431Y-10633143D01*
X14635383Y-10642667D01*
X14721098Y-10756952D02*
X14702050Y-10766476D01*
X14654431Y-10766476D01*
X14635383Y-10756952D01*
X14625860Y-10737905D01*
X14625860Y-10718857D01*
X14635383Y-10699810D01*
X14654431Y-10690286D01*
X14702050Y-10690286D01*
X14721098Y-10680762D01*
X14787764Y-10633143D02*
X14863955Y-10633143D01*
X14816336Y-10566476D02*
X14816336Y-10737905D01*
X14825860Y-10756952D01*
X14844907Y-10766476D01*
X14863955Y-10766476D01*
X15006812Y-10756952D02*
X14987764Y-10766476D01*
X14949669Y-10766476D01*
X14930622Y-10756952D01*
X14921098Y-10737905D01*
X14921098Y-10661714D01*
X14930622Y-10642667D01*
X14949669Y-10633143D01*
X14987764Y-10633143D01*
X15006812Y-10642667D01*
X15016336Y-10661714D01*
X15016336Y-10680762D01*
X14921098Y-10699810D01*
X15187764Y-10766476D02*
X15187764Y-10566476D01*
X15187764Y-10756952D02*
X15168717Y-10766476D01*
X15130622Y-10766476D01*
X15111574Y-10756952D01*
X15102050Y-10747429D01*
X15092526Y-10728381D01*
X15092526Y-10671238D01*
X15102050Y-10652190D01*
X15111574Y-10642667D01*
X15130622Y-10633143D01*
X15168717Y-10633143D01*
X15187764Y-10642667D01*
X15263955Y-10842667D02*
X15273479Y-10833143D01*
X15292526Y-10804571D01*
X15302050Y-10785524D01*
X15311574Y-10756952D01*
X15321098Y-10709333D01*
X15321098Y-10671238D01*
X15311574Y-10623619D01*
X15302050Y-10595048D01*
X15292526Y-10576000D01*
X15273479Y-10547429D01*
X15263955Y-10537905D01*
M02*
