%TF.GenerationSoftware,KiCad,Pcbnew,6.0.1-79c1e3a40b~116~ubuntu20.04.1*%
%TF.CreationDate,2022-03-09T16:59:06+01:00*%
%TF.ProjectId,microcontroller_mini,6d696372-6f63-46f6-9e74-726f6c6c6572,rev?*%
%TF.SameCoordinates,Original*%
%TF.FileFunction,Copper,L1,Top*%
%TF.FilePolarity,Positive*%
%FSLAX46Y46*%
G04 Gerber Fmt 4.6, Leading zero omitted, Abs format (unit mm)*
G04 Created by KiCad (PCBNEW 6.0.1-79c1e3a40b~116~ubuntu20.04.1) date 2022-03-09 16:59:06*
%MOMM*%
%LPD*%
G01*
G04 APERTURE LIST*
G04 Aperture macros list*
%AMRoundRect*
0 Rectangle with rounded corners*
0 $1 Rounding radius*
0 $2 $3 $4 $5 $6 $7 $8 $9 X,Y pos of 4 corners*
0 Add a 4 corners polygon primitive as box body*
4,1,4,$2,$3,$4,$5,$6,$7,$8,$9,$2,$3,0*
0 Add four circle primitives for the rounded corners*
1,1,$1+$1,$2,$3*
1,1,$1+$1,$4,$5*
1,1,$1+$1,$6,$7*
1,1,$1+$1,$8,$9*
0 Add four rect primitives between the rounded corners*
20,1,$1+$1,$2,$3,$4,$5,0*
20,1,$1+$1,$4,$5,$6,$7,0*
20,1,$1+$1,$6,$7,$8,$9,0*
20,1,$1+$1,$8,$9,$2,$3,0*%
%AMFreePoly0*
4,1,9,3.862500,-0.866500,0.737500,-0.866500,0.737500,-0.450000,-0.737500,-0.450000,-0.737500,0.450000,0.737500,0.450000,0.737500,0.866500,3.862500,0.866500,3.862500,-0.866500,3.862500,-0.866500,$1*%
%AMFreePoly1*
4,1,6,1.000000,0.000000,0.500000,-0.750000,-0.500000,-0.750000,-0.500000,0.750000,0.500000,0.750000,1.000000,0.000000,1.000000,0.000000,$1*%
%AMFreePoly2*
4,1,6,0.500000,-0.750000,-0.650000,-0.750000,-0.150000,0.000000,-0.650000,0.750000,0.500000,0.750000,0.500000,-0.750000,0.500000,-0.750000,$1*%
G04 Aperture macros list end*
%TA.AperFunction,SMDPad,CuDef*%
%ADD10RoundRect,0.135000X-0.185000X0.135000X-0.185000X-0.135000X0.185000X-0.135000X0.185000X0.135000X0*%
%TD*%
%TA.AperFunction,SMDPad,CuDef*%
%ADD11RoundRect,0.243750X0.243750X0.456250X-0.243750X0.456250X-0.243750X-0.456250X0.243750X-0.456250X0*%
%TD*%
%TA.AperFunction,SMDPad,CuDef*%
%ADD12RoundRect,0.243750X-0.243750X-0.456250X0.243750X-0.456250X0.243750X0.456250X-0.243750X0.456250X0*%
%TD*%
%TA.AperFunction,SMDPad,CuDef*%
%ADD13RoundRect,0.150000X0.150000X-0.512500X0.150000X0.512500X-0.150000X0.512500X-0.150000X-0.512500X0*%
%TD*%
%TA.AperFunction,SMDPad,CuDef*%
%ADD14R,0.600000X0.700000*%
%TD*%
%TA.AperFunction,SMDPad,CuDef*%
%ADD15RoundRect,0.150000X0.150000X-0.825000X0.150000X0.825000X-0.150000X0.825000X-0.150000X-0.825000X0*%
%TD*%
%TA.AperFunction,SMDPad,CuDef*%
%ADD16R,1.200000X1.400000*%
%TD*%
%TA.AperFunction,SMDPad,CuDef*%
%ADD17RoundRect,0.225000X0.335876X0.017678X0.017678X0.335876X-0.335876X-0.017678X-0.017678X-0.335876X0*%
%TD*%
%TA.AperFunction,SMDPad,CuDef*%
%ADD18RoundRect,0.135000X-0.226274X-0.035355X-0.035355X-0.226274X0.226274X0.035355X0.035355X0.226274X0*%
%TD*%
%TA.AperFunction,ComponentPad*%
%ADD19O,2.400000X1.600000*%
%TD*%
%TA.AperFunction,ComponentPad*%
%ADD20R,1.000000X1.600000*%
%TD*%
%TA.AperFunction,ComponentPad*%
%ADD21O,1.600000X2.400000*%
%TD*%
%TA.AperFunction,ComponentPad*%
%ADD22R,1.600000X1.000000*%
%TD*%
%TA.AperFunction,SMDPad,CuDef*%
%ADD23R,0.900000X1.300000*%
%TD*%
%TA.AperFunction,SMDPad,CuDef*%
%ADD24FreePoly0,270.000000*%
%TD*%
%TA.AperFunction,SMDPad,CuDef*%
%ADD25RoundRect,0.135000X0.226274X0.035355X0.035355X0.226274X-0.226274X-0.035355X-0.035355X-0.226274X0*%
%TD*%
%TA.AperFunction,SMDPad,CuDef*%
%ADD26RoundRect,0.225000X0.017678X-0.335876X0.335876X-0.017678X-0.017678X0.335876X-0.335876X0.017678X0*%
%TD*%
%TA.AperFunction,SMDPad,CuDef*%
%ADD27RoundRect,0.140000X-0.219203X-0.021213X-0.021213X-0.219203X0.219203X0.021213X0.021213X0.219203X0*%
%TD*%
%TA.AperFunction,SMDPad,CuDef*%
%ADD28RoundRect,0.135000X0.135000X0.185000X-0.135000X0.185000X-0.135000X-0.185000X0.135000X-0.185000X0*%
%TD*%
%TA.AperFunction,SMDPad,CuDef*%
%ADD29RoundRect,0.250000X0.475000X-0.250000X0.475000X0.250000X-0.475000X0.250000X-0.475000X-0.250000X0*%
%TD*%
%TA.AperFunction,SMDPad,CuDef*%
%ADD30R,0.740000X2.400000*%
%TD*%
%TA.AperFunction,SMDPad,CuDef*%
%ADD31RoundRect,0.140000X0.021213X-0.219203X0.219203X-0.021213X-0.021213X0.219203X-0.219203X0.021213X0*%
%TD*%
%TA.AperFunction,SMDPad,CuDef*%
%ADD32RoundRect,0.140000X-0.021213X0.219203X-0.219203X0.021213X0.021213X-0.219203X0.219203X-0.021213X0*%
%TD*%
%TA.AperFunction,SMDPad,CuDef*%
%ADD33RoundRect,0.135000X-0.135000X-0.185000X0.135000X-0.185000X0.135000X0.185000X-0.135000X0.185000X0*%
%TD*%
%TA.AperFunction,SMDPad,CuDef*%
%ADD34RoundRect,0.140000X0.140000X0.170000X-0.140000X0.170000X-0.140000X-0.170000X0.140000X-0.170000X0*%
%TD*%
%TA.AperFunction,SMDPad,CuDef*%
%ADD35RoundRect,0.243750X-0.456250X0.243750X-0.456250X-0.243750X0.456250X-0.243750X0.456250X0.243750X0*%
%TD*%
%TA.AperFunction,SMDPad,CuDef*%
%ADD36RoundRect,0.140000X0.170000X-0.140000X0.170000X0.140000X-0.170000X0.140000X-0.170000X-0.140000X0*%
%TD*%
%TA.AperFunction,SMDPad,CuDef*%
%ADD37RoundRect,0.140000X0.219203X0.021213X0.021213X0.219203X-0.219203X-0.021213X-0.021213X-0.219203X0*%
%TD*%
%TA.AperFunction,SMDPad,CuDef*%
%ADD38R,1.000000X0.900000*%
%TD*%
%TA.AperFunction,SMDPad,CuDef*%
%ADD39RoundRect,0.140000X-0.140000X-0.170000X0.140000X-0.170000X0.140000X0.170000X-0.140000X0.170000X0*%
%TD*%
%TA.AperFunction,SMDPad,CuDef*%
%ADD40RoundRect,0.250000X0.250000X0.475000X-0.250000X0.475000X-0.250000X-0.475000X0.250000X-0.475000X0*%
%TD*%
%TA.AperFunction,SMDPad,CuDef*%
%ADD41RoundRect,0.075000X0.548008X-0.441942X-0.441942X0.548008X-0.548008X0.441942X0.441942X-0.548008X0*%
%TD*%
%TA.AperFunction,SMDPad,CuDef*%
%ADD42RoundRect,0.075000X0.548008X0.441942X0.441942X0.548008X-0.548008X-0.441942X-0.441942X-0.548008X0*%
%TD*%
%TA.AperFunction,SMDPad,CuDef*%
%ADD43FreePoly1,90.000000*%
%TD*%
%TA.AperFunction,SMDPad,CuDef*%
%ADD44FreePoly2,90.000000*%
%TD*%
%TA.AperFunction,SMDPad,CuDef*%
%ADD45R,0.450000X1.380000*%
%TD*%
%TA.AperFunction,SMDPad,CuDef*%
%ADD46R,1.650000X1.300000*%
%TD*%
%TA.AperFunction,SMDPad,CuDef*%
%ADD47R,1.800000X1.900000*%
%TD*%
%TA.AperFunction,SMDPad,CuDef*%
%ADD48R,1.425000X1.550000*%
%TD*%
%TA.AperFunction,SMDPad,CuDef*%
%ADD49R,1.000000X1.900000*%
%TD*%
%TA.AperFunction,ViaPad*%
%ADD50C,0.800000*%
%TD*%
%TA.AperFunction,ViaPad*%
%ADD51C,0.450000*%
%TD*%
%TA.AperFunction,Conductor*%
%ADD52C,0.600000*%
%TD*%
%TA.AperFunction,Conductor*%
%ADD53C,1.000000*%
%TD*%
%TA.AperFunction,Conductor*%
%ADD54C,0.400000*%
%TD*%
%TA.AperFunction,Conductor*%
%ADD55C,0.250000*%
%TD*%
%TA.AperFunction,Conductor*%
%ADD56C,0.200000*%
%TD*%
G04 APERTURE END LIST*
D10*
%TO.P,R1,1*%
%TO.N,GNDD*%
X96900000Y-58090000D03*
%TO.P,R1,2*%
%TO.N,Net-(C39-Pad2)*%
X96900000Y-59110000D03*
%TD*%
D11*
%TO.P,F2,2*%
%TO.N,Net-(D1-Pad1)*%
X100262500Y-55400000D03*
%TO.P,F2,1*%
%TO.N,+5VD*%
X102137500Y-55400000D03*
%TD*%
D12*
%TO.P,F1,1*%
%TO.N,Net-(C40-Pad1)*%
X100262500Y-57200000D03*
%TO.P,F1,2*%
%TO.N,+5VD*%
X102137500Y-57200000D03*
%TD*%
D13*
%TO.P,U3,1*%
%TO.N,USB_D+*%
X92350000Y-58737500D03*
%TO.P,U3,2*%
%TO.N,GNDD*%
X93300000Y-58737500D03*
%TO.P,U3,3*%
%TO.N,USB_D-*%
X94250000Y-58737500D03*
%TO.P,U3,4*%
%TO.N,USB_in_D-*%
X94250000Y-56462500D03*
%TO.P,U3,5*%
%TO.N,VBUS*%
X93300000Y-56462500D03*
%TO.P,U3,6*%
%TO.N,USB_in_D+*%
X92350000Y-56462500D03*
%TD*%
D14*
%TO.P,D1,1,K*%
%TO.N,Net-(D1-Pad1)*%
X98800000Y-55400000D03*
%TO.P,D1,2,A*%
%TO.N,VBUS*%
X97400000Y-55400000D03*
%TD*%
D15*
%TO.P,U2,1,~{CS}*%
%TO.N,PA4*%
X88955978Y-89785000D03*
%TO.P,U2,2,MISO*%
%TO.N,PB4*%
X90225978Y-89785000D03*
%TO.P,U2,3,~{WP}*%
%TO.N,/EEPROM_WP*%
X91495978Y-89785000D03*
%TO.P,U2,4,GND*%
%TO.N,GNDD*%
X92765978Y-89785000D03*
%TO.P,U2,5,MOSI*%
%TO.N,PB5*%
X92765978Y-84835000D03*
%TO.P,U2,6,SCK*%
%TO.N,PC10*%
X91495978Y-84835000D03*
%TO.P,U2,7,~{HOLD}*%
%TO.N,PC5*%
X90225978Y-84835000D03*
%TO.P,U2,8,VCC*%
%TO.N,+3V3*%
X88955978Y-84835000D03*
%TD*%
D16*
%TO.P,Y1,1,1*%
%TO.N,/HSE_IN*%
X98980978Y-86525000D03*
%TO.P,Y1,2,2*%
%TO.N,GNDD*%
X98980978Y-88725000D03*
%TO.P,Y1,3,3*%
%TO.N,Net-(C4-Pad1)*%
X100680978Y-88725000D03*
%TO.P,Y1,4,4*%
%TO.N,GNDD*%
X100680978Y-86525000D03*
%TD*%
D17*
%TO.P,C12,1*%
%TO.N,+3.3VA*%
X99956994Y-64906016D03*
%TO.P,C12,2*%
%TO.N,GNDD*%
X98860978Y-63810000D03*
%TD*%
D18*
%TO.P,FB1,1*%
%TO.N,+3.3VA*%
X100700354Y-65949376D03*
%TO.P,FB1,2*%
%TO.N,+3V3*%
X101421602Y-66670624D03*
%TD*%
D19*
%TO.P,J1,1,Pin_1*%
%TO.N,PB11*%
X86460978Y-50810000D03*
D20*
X85660978Y-50810000D03*
%TO.P,J1,2,Pin_2*%
%TO.N,PB12*%
X85660978Y-53350000D03*
D19*
X86460978Y-53350000D03*
D20*
%TO.P,J1,3,Pin_3*%
%TO.N,GNDD*%
X85660978Y-55890000D03*
D19*
X86460978Y-55890000D03*
%TO.P,J1,4,Pin_4*%
%TO.N,PB13*%
X86460978Y-58430000D03*
D20*
X85660978Y-58430000D03*
D19*
%TO.P,J1,5,Pin_5*%
%TO.N,PB14*%
X86460978Y-60970000D03*
D20*
X85660978Y-60970000D03*
D19*
%TO.P,J1,6,Pin_6*%
%TO.N,PB15*%
X86460978Y-63510000D03*
D20*
X85660978Y-63510000D03*
D19*
%TO.P,J1,7,Pin_7*%
%TO.N,PC6*%
X86460978Y-66050000D03*
D20*
X85660978Y-66050000D03*
D19*
%TO.P,J1,8,Pin_8*%
%TO.N,GNDD*%
X86460978Y-68590000D03*
D20*
X85660978Y-68590000D03*
D19*
%TO.P,J1,9,Pin_9*%
%TO.N,PC7*%
X86460978Y-71130000D03*
D20*
X85660978Y-71130000D03*
D19*
%TO.P,J1,10,Pin_10*%
%TO.N,PC8*%
X86460978Y-73670000D03*
D20*
X85660978Y-73670000D03*
%TO.P,J1,11,Pin_11*%
%TO.N,PC9*%
X85660978Y-76210000D03*
D19*
X86460978Y-76210000D03*
%TO.P,J1,12,Pin_12*%
%TO.N,PA8*%
X86460978Y-78750000D03*
D20*
X85660978Y-78750000D03*
%TO.P,J1,13,Pin_13*%
%TO.N,GNDD*%
X85660978Y-81290000D03*
D19*
X86460978Y-81290000D03*
D20*
%TO.P,J1,14,Pin_14*%
%TO.N,PA9*%
X85660978Y-83830000D03*
D19*
X86460978Y-83830000D03*
D20*
%TO.P,J1,15,Pin_15*%
%TO.N,PA10*%
X85660978Y-86370000D03*
D19*
X86460978Y-86370000D03*
D20*
%TO.P,J1,16,Pin_16*%
%TO.N,PC10*%
X85660978Y-88910000D03*
D19*
X86460978Y-88910000D03*
D20*
%TO.P,J1,17,Pin_17*%
%TO.N,PC11*%
X85660978Y-91450000D03*
D19*
X86460978Y-91450000D03*
%TO.P,J1,18,Pin_18*%
%TO.N,GNDD*%
X86460978Y-93990000D03*
D20*
X85660978Y-93990000D03*
%TO.P,J1,19,Pin_19*%
%TO.N,PC12*%
X85660978Y-96530000D03*
D19*
X86460978Y-96530000D03*
D20*
%TO.P,J1,20,Pin_20*%
%TO.N,PB4*%
X85660978Y-99070000D03*
D19*
X86460978Y-99070000D03*
D21*
%TO.P,J1,21,Pin_21*%
%TO.N,PB5*%
X89310978Y-99010000D03*
D22*
X89310978Y-99810000D03*
D21*
%TO.P,J1,22,Pin_22*%
%TO.N,GNDD*%
X91850978Y-99010000D03*
D22*
X91850978Y-99810000D03*
D21*
%TO.P,J1,23,Pin_23*%
%TO.N,PB6*%
X94390978Y-99010000D03*
D22*
X94390978Y-99810000D03*
D21*
%TO.P,J1,24,Pin_24*%
%TO.N,PB7*%
X96930978Y-99010000D03*
D22*
X96930978Y-99810000D03*
%TO.P,J1,25,Pin_25*%
%TO.N,GNDD*%
X99470978Y-99810000D03*
D21*
X99470978Y-99010000D03*
%TO.P,J1,26,Pin_26*%
%TO.N,PB8*%
X102010978Y-99010000D03*
D22*
X102010978Y-99810000D03*
D19*
%TO.P,J1,27,Pin_27*%
%TO.N,PB9*%
X104860978Y-99070000D03*
D20*
X105660978Y-99070000D03*
%TO.P,J1,28,Pin_28*%
%TO.N,PC13*%
X105660978Y-96530000D03*
D19*
X104860978Y-96530000D03*
D20*
%TO.P,J1,29,Pin_29*%
%TO.N,GNDD*%
X105660978Y-93990000D03*
D19*
X104860978Y-93990000D03*
%TO.P,J1,30,Pin_30*%
%TO.N,PC0*%
X104860978Y-91450000D03*
D20*
X105660978Y-91450000D03*
%TO.P,J1,31,Pin_31*%
%TO.N,PC1*%
X105660978Y-88910000D03*
D19*
X104860978Y-88910000D03*
%TO.P,J1,32,Pin_32*%
%TO.N,PC2*%
X104860978Y-86370000D03*
D20*
X105660978Y-86370000D03*
D19*
%TO.P,J1,33,Pin_33*%
%TO.N,PC3*%
X104860978Y-83830000D03*
D20*
X105660978Y-83830000D03*
%TO.P,J1,34,Pin_34*%
%TO.N,GNDD*%
X105660978Y-81290000D03*
D19*
X104860978Y-81290000D03*
D20*
%TO.P,J1,35,Pin_35*%
%TO.N,PA0*%
X105660978Y-78750000D03*
D19*
X104860978Y-78750000D03*
D20*
%TO.P,J1,36,Pin_36*%
%TO.N,PA1*%
X105660978Y-76210000D03*
D19*
X104860978Y-76210000D03*
D20*
%TO.P,J1,37,Pin_37*%
%TO.N,PB0*%
X105660978Y-73670000D03*
D19*
X104860978Y-73670000D03*
%TO.P,J1,38,Pin_38*%
%TO.N,PA5*%
X104860978Y-71130000D03*
D20*
X105660978Y-71130000D03*
%TO.P,J1,39,Pin_39*%
%TO.N,GNDD*%
X105660978Y-68590000D03*
D19*
X104860978Y-68590000D03*
%TO.P,J1,40,Pin_40*%
%TO.N,PA6*%
X104860978Y-66050000D03*
D20*
X105660978Y-66050000D03*
%TO.P,J1,41,Pin_35*%
%TO.N,PC4*%
X105660978Y-63510000D03*
D19*
X104860978Y-63510000D03*
%TO.P,J1,42,Pin_36*%
%TO.N,+3V3*%
X104860978Y-60970000D03*
D20*
X105660978Y-60970000D03*
D19*
%TO.P,J1,43,Pin_37*%
%TO.N,PB1*%
X104860978Y-58430000D03*
D20*
X105660978Y-58430000D03*
D19*
%TO.P,J1,44,Pin_38*%
%TO.N,GNDD*%
X104860978Y-55890000D03*
D20*
X105660978Y-55890000D03*
%TO.P,J1,45,Pin_39*%
%TO.N,+BATT*%
X105660978Y-53350000D03*
D19*
X104860978Y-53350000D03*
D20*
%TO.P,J1,46,Pin_40*%
%TO.N,+5VD*%
X105660978Y-50810000D03*
D19*
X104860978Y-50810000D03*
%TD*%
D23*
%TO.P,U4,1,GND*%
%TO.N,GNDD*%
X101900000Y-58950000D03*
D24*
%TO.P,U4,2,VO*%
%TO.N,+3V3*%
X100400000Y-59037500D03*
D23*
%TO.P,U4,3,VI*%
%TO.N,Net-(C40-Pad1)*%
X98900000Y-58950000D03*
%TD*%
D25*
%TO.P,R23,1*%
%TO.N,Net-(C4-Pad1)*%
X100621602Y-81870624D03*
%TO.P,R23,2*%
%TO.N,/HSE_OUT*%
X99900354Y-81149376D03*
%TD*%
D26*
%TO.P,C41,1*%
%TO.N,/VREF2048*%
X101112970Y-69058008D03*
%TO.P,C41,2*%
%TO.N,GNDD*%
X102208986Y-67961992D03*
%TD*%
D27*
%TO.P,C5,1*%
%TO.N,/NRST*%
X100721567Y-80370589D03*
%TO.P,C5,2*%
%TO.N,GNDD*%
X101400389Y-81049411D03*
%TD*%
D28*
%TO.P,R26,1*%
%TO.N,Net-(LED2-Pad1)*%
X102810000Y-50510000D03*
%TO.P,R26,2*%
%TO.N,GNDD*%
X101790000Y-50510000D03*
%TD*%
D26*
%TO.P,C6,1*%
%TO.N,+3V3*%
X96612970Y-66058008D03*
%TO.P,C6,2*%
%TO.N,GNDD*%
X97708986Y-64961992D03*
%TD*%
D29*
%TO.P,C39,1*%
%TO.N,+3V3*%
X96900000Y-61750000D03*
%TO.P,C39,2*%
%TO.N,Net-(C39-Pad2)*%
X96900000Y-59850000D03*
%TD*%
D30*
%TO.P,J8,1,Pin_1*%
%TO.N,unconnected-(J8-Pad1)*%
X91750978Y-96260000D03*
%TO.P,J8,2,Pin_2*%
%TO.N,unconnected-(J8-Pad2)*%
X91750978Y-92360000D03*
%TO.P,J8,3,Pin_3*%
%TO.N,+3V3*%
X93020978Y-96260000D03*
%TO.P,J8,4,Pin_4*%
%TO.N,/SWDIO*%
X93020978Y-92360000D03*
%TO.P,J8,5,Pin_5*%
%TO.N,GNDD*%
X94290978Y-96260000D03*
%TO.P,J8,6,Pin_6*%
%TO.N,/SWCLK*%
X94290978Y-92360000D03*
%TO.P,J8,7,Pin_7*%
%TO.N,GNDD*%
X95560978Y-96260000D03*
%TO.P,J8,8,Pin_8*%
%TO.N,/SWO*%
X95560978Y-92360000D03*
%TO.P,J8,9,Pin_9*%
%TO.N,unconnected-(J8-Pad9)*%
X96830978Y-96260000D03*
%TO.P,J8,10,Pin_10*%
%TO.N,unconnected-(J8-Pad10)*%
X96830978Y-92360000D03*
%TO.P,J8,11,Pin_11*%
%TO.N,Net-(J8-Pad11)*%
X98100978Y-96260000D03*
%TO.P,J8,12,Pin_12*%
%TO.N,/NRST*%
X98100978Y-92360000D03*
%TO.P,J8,13,Pin_13*%
%TO.N,/STLINK_RX*%
X99370978Y-96260000D03*
%TO.P,J8,14,Pin_14*%
%TO.N,/STLINK_TX*%
X99370978Y-92360000D03*
%TD*%
D31*
%TO.P,C10,1*%
%TO.N,+3V3*%
X98021567Y-66349411D03*
%TO.P,C10,2*%
%TO.N,GNDD*%
X98700389Y-65670589D03*
%TD*%
D32*
%TO.P,C9,1*%
%TO.N,+3V3*%
X103500389Y-77270589D03*
%TO.P,C9,2*%
%TO.N,GNDD*%
X102821567Y-77949411D03*
%TD*%
D33*
%TO.P,R28,1*%
%TO.N,Net-(LED1-Pad1)*%
X88540978Y-50510000D03*
%TO.P,R28,2*%
%TO.N,GNDD*%
X89560978Y-50510000D03*
%TD*%
D34*
%TO.P,C4,1*%
%TO.N,Net-(C4-Pad1)*%
X101310978Y-90210000D03*
%TO.P,C4,2*%
%TO.N,GNDD*%
X100350978Y-90210000D03*
%TD*%
D31*
%TO.P,C14,1*%
%TO.N,+3.3VA*%
X99182156Y-67488822D03*
%TO.P,C14,2*%
%TO.N,GNDD*%
X99860978Y-66810000D03*
%TD*%
D35*
%TO.P,LED1,1,K*%
%TO.N,Net-(LED1-Pad1)*%
X89000000Y-51872500D03*
%TO.P,LED1,2,A*%
%TO.N,Net-(JP1-Pad2)*%
X89000000Y-53747500D03*
%TD*%
D36*
%TO.P,C1,1*%
%TO.N,+3V3*%
X88910978Y-83140000D03*
%TO.P,C1,2*%
%TO.N,GNDD*%
X88910978Y-82180000D03*
%TD*%
D37*
%TO.P,C8,1*%
%TO.N,+3V3*%
X93100389Y-82849411D03*
%TO.P,C8,2*%
%TO.N,GNDD*%
X92421567Y-82170589D03*
%TD*%
D35*
%TO.P,LED2,1,K*%
%TO.N,Net-(LED2-Pad1)*%
X102300000Y-51862500D03*
%TO.P,LED2,2,A*%
%TO.N,+3V3*%
X102300000Y-53737500D03*
%TD*%
D38*
%TO.P,SW1,1,1*%
%TO.N,GNDD*%
X94680978Y-89840000D03*
X94680978Y-85740000D03*
%TO.P,SW1,2,2*%
%TO.N,/NRST*%
X96280978Y-89840000D03*
X96280978Y-85740000D03*
%TD*%
D39*
%TO.P,C3,1*%
%TO.N,/HSE_IN*%
X98750978Y-85110000D03*
%TO.P,C3,2*%
%TO.N,GNDD*%
X99710978Y-85110000D03*
%TD*%
D31*
%TO.P,C42,1*%
%TO.N,/VREF2048*%
X99982156Y-68288822D03*
%TO.P,C42,2*%
%TO.N,GNDD*%
X100660978Y-67610000D03*
%TD*%
D40*
%TO.P,C40,2*%
%TO.N,GNDD*%
X96950000Y-57200000D03*
%TO.P,C40,1*%
%TO.N,Net-(C40-Pad1)*%
X98850000Y-57200000D03*
%TD*%
D10*
%TO.P,R24,1*%
%TO.N,GNDD*%
X101260978Y-96000000D03*
%TO.P,R24,2*%
%TO.N,Net-(J8-Pad11)*%
X101260978Y-97020000D03*
%TD*%
D41*
%TO.P,U1,1,VBAT*%
%TO.N,+BATT*%
X96922159Y-81474481D03*
%TO.P,U1,2,PC13*%
%TO.N,PC13*%
X97275712Y-81120928D03*
%TO.P,U1,3,PC14*%
%TO.N,PC14*%
X97629265Y-80767375D03*
%TO.P,U1,4,PC15*%
%TO.N,PC15*%
X97982819Y-80413821D03*
%TO.P,U1,5,PF0-OSC-IN*%
%TO.N,/HSE_IN*%
X98336372Y-80060268D03*
%TO.P,U1,6,PF1-OSC-OUT*%
%TO.N,/HSE_OUT*%
X98689926Y-79706714D03*
%TO.P,U1,7,NRST*%
%TO.N,/NRST*%
X99043479Y-79353161D03*
%TO.P,U1,8,PC0*%
%TO.N,PC0*%
X99397032Y-78999608D03*
%TO.P,U1,9,PC1*%
%TO.N,PC1*%
X99750586Y-78646054D03*
%TO.P,U1,10,PC2*%
%TO.N,PC2*%
X100104139Y-78292501D03*
%TO.P,U1,11,PC3*%
%TO.N,PC3*%
X100457692Y-77938948D03*
%TO.P,U1,12,PA0*%
%TO.N,PA0*%
X100811246Y-77585394D03*
%TO.P,U1,13,PA1*%
%TO.N,PA1*%
X101164799Y-77231841D03*
%TO.P,U1,14,PA2*%
%TO.N,/STLINK_RX*%
X101518353Y-76878287D03*
%TO.P,U1,15,VSS*%
%TO.N,GNDD*%
X101871906Y-76524734D03*
%TO.P,U1,16,VDD*%
%TO.N,+3V3*%
X102225459Y-76171181D03*
D42*
%TO.P,U1,17,PA3*%
%TO.N,/STLINK_TX*%
X102225459Y-73448819D03*
%TO.P,U1,18,PA4*%
%TO.N,PA4*%
X101871906Y-73095266D03*
%TO.P,U1,19,PA5*%
%TO.N,PA5*%
X101518353Y-72741713D03*
%TO.P,U1,20,PA6*%
%TO.N,PA6*%
X101164799Y-72388159D03*
%TO.P,U1,21,PA7*%
%TO.N,/EEPROM_WP*%
X100811246Y-72034606D03*
%TO.P,U1,22,PC4*%
%TO.N,PC4*%
X100457692Y-71681052D03*
%TO.P,U1,23,PC5*%
%TO.N,PC5*%
X100104139Y-71327499D03*
%TO.P,U1,24,PB0*%
%TO.N,PB0*%
X99750586Y-70973946D03*
%TO.P,U1,25,PB1*%
%TO.N,PB1*%
X99397032Y-70620392D03*
%TO.P,U1,26,PB2*%
%TO.N,unconnected-(U1-Pad26)*%
X99043479Y-70266839D03*
%TO.P,U1,27,VSSA*%
%TO.N,GNDD*%
X98689926Y-69913286D03*
%TO.P,U1,28,VREF*%
%TO.N,/VREF2048*%
X98336372Y-69559732D03*
%TO.P,U1,29,VDDA*%
%TO.N,+3.3VA*%
X97982819Y-69206179D03*
%TO.P,U1,30,PB10*%
%TO.N,PB10*%
X97629265Y-68852625D03*
%TO.P,U1,31,VSS*%
%TO.N,GNDD*%
X97275712Y-68499072D03*
%TO.P,U1,32,VDD*%
%TO.N,+3V3*%
X96922159Y-68145519D03*
D41*
%TO.P,U1,33,PB11*%
%TO.N,PB11*%
X94199797Y-68145519D03*
%TO.P,U1,34,PB12*%
%TO.N,PB12*%
X93846244Y-68499072D03*
%TO.P,U1,35,PB13*%
%TO.N,PB13*%
X93492691Y-68852625D03*
%TO.P,U1,36,PB14*%
%TO.N,PB14*%
X93139137Y-69206179D03*
%TO.P,U1,37,PB15*%
%TO.N,PB15*%
X92785584Y-69559732D03*
%TO.P,U1,38,PC6*%
%TO.N,PC6*%
X92432030Y-69913286D03*
%TO.P,U1,39,PC7*%
%TO.N,PC7*%
X92078477Y-70266839D03*
%TO.P,U1,40,PC8*%
%TO.N,PC8*%
X91724924Y-70620392D03*
%TO.P,U1,41,PC9*%
%TO.N,PC9*%
X91371370Y-70973946D03*
%TO.P,U1,42,PA8*%
%TO.N,PA8*%
X91017817Y-71327499D03*
%TO.P,U1,43,PA9*%
%TO.N,PA9*%
X90664264Y-71681052D03*
%TO.P,U1,44,PA10*%
%TO.N,PA10*%
X90310710Y-72034606D03*
%TO.P,U1,45,PA11*%
%TO.N,USB_D-*%
X89957157Y-72388159D03*
%TO.P,U1,46,PA12*%
%TO.N,USB_D+*%
X89603603Y-72741713D03*
%TO.P,U1,47,VSS*%
%TO.N,GNDD*%
X89250050Y-73095266D03*
%TO.P,U1,48,VDD*%
%TO.N,+3V3*%
X88896497Y-73448819D03*
D42*
%TO.P,U1,49,PA13*%
%TO.N,/SWDIO*%
X88896497Y-76171181D03*
%TO.P,U1,50,PA14*%
%TO.N,/SWCLK*%
X89250050Y-76524734D03*
%TO.P,U1,51,PA15*%
%TO.N,PA15*%
X89603603Y-76878287D03*
%TO.P,U1,52,PC10*%
%TO.N,PC10*%
X89957157Y-77231841D03*
%TO.P,U1,53,PC11*%
%TO.N,PC11*%
X90310710Y-77585394D03*
%TO.P,U1,54,PC12*%
%TO.N,PC12*%
X90664264Y-77938948D03*
%TO.P,U1,55,PD2*%
%TO.N,unconnected-(U1-Pad55)*%
X91017817Y-78292501D03*
%TO.P,U1,56,PB3*%
%TO.N,/SWO*%
X91371370Y-78646054D03*
%TO.P,U1,57,PB4*%
%TO.N,PB4*%
X91724924Y-78999608D03*
%TO.P,U1,58,PB5*%
%TO.N,PB5*%
X92078477Y-79353161D03*
%TO.P,U1,59,PB6*%
%TO.N,PB6*%
X92432030Y-79706714D03*
%TO.P,U1,60,PB7*%
%TO.N,PB7*%
X92785584Y-80060268D03*
%TO.P,U1,61,PB8*%
%TO.N,PB8*%
X93139137Y-80413821D03*
%TO.P,U1,62,PB9*%
%TO.N,PB9*%
X93492691Y-80767375D03*
%TO.P,U1,63,VSS*%
%TO.N,GNDD*%
X93846244Y-81120928D03*
%TO.P,U1,64,VDD*%
%TO.N,+3V3*%
X94199797Y-81474481D03*
%TD*%
D43*
%TO.P,JP1,1,A*%
%TO.N,PA5*%
X88966978Y-56615000D03*
D44*
%TO.P,JP1,2,B*%
%TO.N,Net-(JP1-Pad2)*%
X88966978Y-55165000D03*
%TD*%
D31*
%TO.P,C7,1*%
%TO.N,+3V3*%
X87421567Y-72449411D03*
%TO.P,C7,2*%
%TO.N,GNDD*%
X88100389Y-71770589D03*
%TD*%
D45*
%TO.P,J2,1,VBUS*%
%TO.N,VBUS*%
X96860978Y-53470000D03*
%TO.P,J2,2,D-*%
%TO.N,USB_in_D-*%
X96210978Y-53470000D03*
%TO.P,J2,3,D+*%
%TO.N,USB_in_D+*%
X95560978Y-53470000D03*
%TO.P,J2,4,ID*%
%TO.N,unconnected-(J2-Pad4)*%
X94910978Y-53470000D03*
%TO.P,J2,5,GND*%
%TO.N,GNDD*%
X94260978Y-53470000D03*
D46*
%TO.P,J2,6,Shield*%
X92185978Y-50810000D03*
D47*
X96710978Y-50810000D03*
D48*
X93073478Y-53385000D03*
D46*
X98935978Y-50810000D03*
D48*
X98048478Y-53385000D03*
D49*
X94010978Y-50810000D03*
%TD*%
D50*
%TO.N,+5VD*%
X102100000Y-56300000D03*
D51*
%TO.N,VBUS*%
X93300000Y-55400000D03*
D50*
X96900000Y-55000000D03*
D51*
%TO.N,+3V3*%
X92580978Y-88240000D03*
X103330978Y-76690000D03*
X92430978Y-93940000D03*
X99129483Y-76454659D03*
X91560978Y-74330878D03*
X88532947Y-83506762D03*
%TO.N,GNDD*%
X103660978Y-80010000D03*
X102180978Y-85990000D03*
X102180978Y-85240000D03*
X102180978Y-86790000D03*
X102080978Y-90990000D03*
X97802066Y-82424393D03*
X102427112Y-70600000D03*
X97930978Y-89190000D03*
D50*
X92400000Y-51700000D03*
D51*
X97930978Y-84990000D03*
X94703111Y-64390000D03*
X102080978Y-90190000D03*
X101760100Y-96010878D03*
X98480978Y-84390000D03*
X101080978Y-90990000D03*
X103854989Y-82410000D03*
X100130978Y-85110000D03*
X101260978Y-67710000D03*
X97330978Y-71390000D03*
D50*
X99200000Y-51790000D03*
D51*
X97330978Y-70290000D03*
X99280978Y-90590000D03*
X101080978Y-83190000D03*
X101210978Y-75440000D03*
X102080978Y-88590000D03*
X88200000Y-61100000D03*
X91080978Y-64690000D03*
X97930978Y-88390000D03*
X102480978Y-78290000D03*
X101586444Y-69886444D03*
X89830978Y-69990000D03*
X94310978Y-94810000D03*
X100260978Y-67210000D03*
X97360978Y-64510000D03*
X88779924Y-82374180D03*
X97930978Y-87590000D03*
X97871711Y-74549267D03*
D50*
X102800000Y-58600000D03*
D51*
X93360978Y-71210000D03*
X90680978Y-66090000D03*
X99566307Y-69110000D03*
X93669342Y-77835331D03*
X88280978Y-71034721D03*
X95560978Y-94810000D03*
X93156967Y-89590000D03*
X97930978Y-86790000D03*
X94630978Y-78490000D03*
X100230978Y-87410000D03*
X99788703Y-75255164D03*
X90130978Y-69440000D03*
X91180978Y-80990000D03*
X88200000Y-58400000D03*
X97180978Y-73540000D03*
X93330978Y-73240000D03*
X90800000Y-55900000D03*
X98730978Y-83190000D03*
X98310978Y-63310000D03*
X98080978Y-89990000D03*
X93279122Y-59879122D03*
X90260978Y-50510000D03*
X88200000Y-64000000D03*
X92430978Y-64309872D03*
X100280978Y-90990000D03*
X99430978Y-82690000D03*
X90630978Y-74890000D03*
X98209698Y-94165410D03*
X98046682Y-78575293D03*
X102080978Y-89390000D03*
X101530978Y-81740000D03*
X99380978Y-83390000D03*
X98460978Y-65410000D03*
X93935534Y-76035570D03*
X92542414Y-72702185D03*
X101080978Y-83990000D03*
X92330978Y-82590000D03*
X103060978Y-93510000D03*
X90280978Y-67490000D03*
X101080978Y-82590000D03*
X103060978Y-94310000D03*
D50*
X98000000Y-52200000D03*
X92080978Y-53590000D03*
X95900000Y-56500000D03*
D51*
X98460978Y-77210000D03*
X99880978Y-89990000D03*
D50*
X95900000Y-58100000D03*
D51*
X93606256Y-77121131D03*
X102180978Y-87640000D03*
X97930978Y-85990000D03*
X93574182Y-63490000D03*
X93156967Y-90190000D03*
X99030978Y-83940000D03*
X99530978Y-88110000D03*
X94130978Y-78140000D03*
X93810978Y-71860000D03*
X101200000Y-50500000D03*
X101480978Y-84590000D03*
D50*
X94200000Y-52300000D03*
D51*
X98680978Y-89990000D03*
%TO.N,/NRST*%
X97481478Y-83248263D03*
X100560978Y-80660000D03*
%TO.N,PA4*%
X98330978Y-74090000D03*
X89010978Y-88860000D03*
%TO.N,PB11*%
X94123682Y-64096546D03*
%TO.N,PA8*%
X93210978Y-72160000D03*
%TO.N,PA9*%
X91912097Y-72858881D03*
%TO.N,PC10*%
X88936478Y-88023124D03*
%TO.N,/SWDIO*%
X93560978Y-93960000D03*
X93468075Y-76486498D03*
%TO.N,/SWCLK*%
X93098293Y-77525886D03*
X94298810Y-93974944D03*
%TO.N,/SWO*%
X95060978Y-93960000D03*
X93330978Y-78390000D03*
%TO.N,/STLINK_RX*%
X100785478Y-76010000D03*
X99830978Y-95440000D03*
%TO.N,/STLINK_TX*%
X99934944Y-74622339D03*
X98930978Y-93790000D03*
%TO.N,+BATT*%
X96498171Y-78966579D03*
%TO.N,PB12*%
X92950644Y-63308194D03*
%TO.N,PB13*%
X91861496Y-64622192D03*
%TO.N,PB14*%
X90808008Y-65321739D03*
%TO.N,PB15*%
X90880978Y-66790000D03*
%TO.N,PB6*%
X91610345Y-81477337D03*
%TO.N,PB7*%
X92279446Y-81381421D03*
%TO.N,PB1*%
X100100000Y-69600000D03*
%TO.N,/EEPROM_WP*%
X92480978Y-86990000D03*
X97630978Y-72790000D03*
%TO.N,PB0*%
X101017048Y-70198919D03*
%TO.N,PB8*%
X93928561Y-78757155D03*
%TO.N,PC6*%
X90510978Y-68140000D03*
%TO.N,PC7*%
X90230978Y-68790000D03*
%TO.N,PC8*%
X89830978Y-70790000D03*
%TO.N,PC9*%
X92810978Y-71560000D03*
%TO.N,PB9*%
X94524200Y-79130665D03*
%TO.N,PA10*%
X92610978Y-73360000D03*
%TO.N,PC12*%
X89883529Y-78896501D03*
%TO.N,PC13*%
X98030978Y-83740000D03*
%TO.N,PC4*%
X101700000Y-71000000D03*
%TO.N,PC5*%
X97630978Y-72040000D03*
X90780978Y-83790000D03*
%TO.N,PC0*%
X98532542Y-78144254D03*
%TO.N,PC1*%
X99060978Y-77610000D03*
%TO.N,PA5*%
X90800000Y-56600000D03*
X96630978Y-69840000D03*
%TD*%
D52*
%TO.N,Net-(C39-Pad2)*%
X96900000Y-59110000D02*
X96900000Y-59850000D01*
D53*
%TO.N,GNDD*%
X96900000Y-58090000D02*
X95910000Y-58090000D01*
X95910000Y-58090000D02*
X95900000Y-58100000D01*
X96900000Y-58090000D02*
X95900000Y-57090000D01*
X95900000Y-57090000D02*
X95900000Y-56800000D01*
X95900000Y-56800000D02*
X95900000Y-58100000D01*
X96950000Y-57200000D02*
X96250000Y-56500000D01*
X96250000Y-56500000D02*
X95900000Y-56500000D01*
X96950000Y-57200000D02*
X96300000Y-57200000D01*
X96300000Y-57200000D02*
X95900000Y-56800000D01*
X102250000Y-58600000D02*
X102800000Y-58600000D01*
X101900000Y-58950000D02*
X102250000Y-58600000D01*
D54*
%TO.N,+3V3*%
X102300000Y-53737500D02*
X102190279Y-53737500D01*
X102190279Y-53737500D02*
X101200000Y-54727779D01*
X101200000Y-54727779D02*
X101200000Y-57900489D01*
X101200000Y-57900489D02*
X100400000Y-58700489D01*
X100400000Y-58700489D02*
X100400000Y-59037500D01*
D53*
X96612970Y-66058008D02*
X96160978Y-65606016D01*
X96160978Y-65606016D02*
X96160978Y-62479022D01*
X96160978Y-62479022D02*
X96100000Y-62418044D01*
X96100000Y-62418044D02*
X96100000Y-61750000D01*
X96100000Y-61750000D02*
X98599022Y-61750000D01*
X98599022Y-61750000D02*
X100400000Y-59949022D01*
X100400000Y-59949022D02*
X100400000Y-59037500D01*
%TO.N,Net-(C40-Pad1)*%
X100262500Y-57200000D02*
X98850000Y-57200000D01*
%TO.N,+5VD*%
X102137500Y-55400000D02*
X102137500Y-57200000D01*
D55*
%TO.N,GNDD*%
X101210000Y-50510000D02*
X101200000Y-50500000D01*
X101790000Y-50510000D02*
X101210000Y-50510000D01*
%TO.N,Net-(LED2-Pad1)*%
X102300000Y-51862500D02*
X102300000Y-51370978D01*
X102300000Y-51370978D02*
X102810000Y-50860978D01*
X102810000Y-50860978D02*
X102810000Y-50510000D01*
%TO.N,Net-(LED1-Pad1)*%
X88540978Y-50510000D02*
X89000000Y-50969022D01*
X89000000Y-50969022D02*
X89000000Y-51872500D01*
%TO.N,+3V3*%
X101880978Y-53927500D02*
X102070978Y-53737500D01*
X102070978Y-53737500D02*
X102300000Y-53737500D01*
%TO.N,GNDD*%
X92400000Y-51024022D02*
X92400000Y-51700000D01*
X92185978Y-50810000D02*
X92400000Y-51024022D01*
D53*
%TO.N,VBUS*%
X97400000Y-55400000D02*
X97300000Y-55400000D01*
X97300000Y-55400000D02*
X96900000Y-55000000D01*
%TO.N,Net-(D1-Pad1)*%
X98800000Y-55400000D02*
X100262500Y-55400000D01*
%TO.N,Net-(C40-Pad1)*%
X98850000Y-57200000D02*
X98850000Y-58900000D01*
X98850000Y-58900000D02*
X98900000Y-58950000D01*
D54*
%TO.N,GNDD*%
X96100000Y-56300000D02*
X95900000Y-56500000D01*
D55*
X98935978Y-51525978D02*
X99200000Y-51790000D01*
X98935978Y-50810000D02*
X98935978Y-51525978D01*
X98048478Y-52248478D02*
X98000000Y-52200000D01*
X98048478Y-53385000D02*
X98048478Y-52248478D01*
D53*
%TO.N,+3V3*%
X104460978Y-60970000D02*
X101310978Y-60970000D01*
X101310978Y-60970000D02*
X100600000Y-60259022D01*
X102060978Y-66031248D02*
X101421602Y-66670624D01*
X100600000Y-60259022D02*
X100600000Y-62849022D01*
X102060978Y-64310000D02*
X102060978Y-66031248D01*
X100600000Y-62849022D02*
X102060978Y-64310000D01*
D54*
%TO.N,VBUS*%
X96860978Y-54960978D02*
X96900000Y-55000000D01*
X96860978Y-53470000D02*
X96860978Y-54960978D01*
%TO.N,GNDD*%
X93300000Y-58737500D02*
X93300000Y-59858244D01*
X93300000Y-59858244D02*
X93279122Y-59879122D01*
%TO.N,VBUS*%
X93300000Y-55400000D02*
X93300000Y-56462500D01*
D56*
%TO.N,USB_D-*%
X89957157Y-72388159D02*
X89921802Y-72388159D01*
X89305978Y-71772335D02*
X89305978Y-64012222D01*
X89921802Y-72388159D02*
X89305978Y-71772335D01*
X89305978Y-64012222D02*
X90893200Y-62425000D01*
X90893200Y-62425000D02*
X92893200Y-62425000D01*
X92893200Y-62425000D02*
X93525000Y-61793200D01*
X93525000Y-61793200D02*
X93525000Y-60575000D01*
X93525000Y-60575000D02*
X94250000Y-59850000D01*
X94250000Y-59850000D02*
X94250000Y-58737500D01*
%TO.N,USB_D+*%
X89603603Y-72741713D02*
X89603603Y-72706358D01*
X88855978Y-71958733D02*
X88855978Y-63825822D01*
X89603603Y-72706358D02*
X88855978Y-71958733D01*
X88855978Y-63825822D02*
X90706800Y-61975000D01*
X90706800Y-61975000D02*
X92706800Y-61975000D01*
X92706800Y-61975000D02*
X93075000Y-61606800D01*
X93075000Y-61606800D02*
X93075000Y-60575000D01*
X93075000Y-60575000D02*
X92350000Y-59850000D01*
X92350000Y-59850000D02*
X92350000Y-58737500D01*
%TO.N,USB_in_D-*%
X96210978Y-53470000D02*
X96210978Y-53935000D01*
X96210978Y-53935000D02*
X96110978Y-54035000D01*
X96110978Y-54035000D02*
X96110978Y-54707222D01*
X96110978Y-54707222D02*
X95493200Y-55325000D01*
X95493200Y-55325000D02*
X94375000Y-55325000D01*
X94375000Y-55325000D02*
X94200000Y-55500000D01*
X94200000Y-55500000D02*
X94200000Y-56412500D01*
X94200000Y-56412500D02*
X94250000Y-56462500D01*
%TO.N,USB_in_D+*%
X95560978Y-53470000D02*
X95560978Y-53935000D01*
X95660978Y-54520822D02*
X95306800Y-54875000D01*
X95560978Y-53935000D02*
X95660978Y-54035000D01*
X95660978Y-54035000D02*
X95660978Y-54520822D01*
X95306800Y-54875000D02*
X92825000Y-54875000D01*
X92825000Y-54875000D02*
X92350000Y-55350000D01*
X92350000Y-55350000D02*
X92350000Y-56462500D01*
D53*
%TO.N,GNDD*%
X98048478Y-53385000D02*
X98048478Y-52147500D01*
X98048478Y-52147500D02*
X96710978Y-50810000D01*
X94010978Y-50810000D02*
X94010978Y-52080489D01*
X93073478Y-53385000D02*
X93115000Y-53385000D01*
X93115000Y-53385000D02*
X93986467Y-52513533D01*
X96710978Y-50810000D02*
X98935978Y-50810000D01*
X92185978Y-50810000D02*
X94010978Y-50810000D01*
D55*
X94010978Y-50810000D02*
X94010978Y-52110978D01*
X94010978Y-52110978D02*
X94200000Y-52300000D01*
D54*
X94260978Y-52360978D02*
X94200000Y-52300000D01*
X94260978Y-53470000D02*
X94260978Y-52360978D01*
D55*
%TO.N,PA5*%
X88966978Y-56615000D02*
X88981978Y-56600000D01*
X88981978Y-56600000D02*
X90800000Y-56600000D01*
D53*
%TO.N,+3V3*%
X95503665Y-79387242D02*
X95503665Y-82567313D01*
D55*
X91520100Y-74290000D02*
X91560978Y-74330878D01*
X101421602Y-66670624D02*
X101700354Y-66670624D01*
D53*
X95503665Y-82567313D02*
X94160978Y-83910000D01*
X95260978Y-73310000D02*
X94210978Y-74360000D01*
D55*
X87897089Y-72449411D02*
X88896497Y-73448819D01*
X88955978Y-83185000D02*
X88955978Y-84835000D01*
X93100389Y-82849411D02*
X94199797Y-81750003D01*
X87421567Y-72449411D02*
X87421567Y-72640278D01*
X101700354Y-66670624D02*
X102060978Y-66310000D01*
X88910978Y-83140000D02*
X88955978Y-83185000D01*
X98021567Y-66349411D02*
X98021567Y-67046111D01*
D52*
X93681467Y-84389511D02*
X93681467Y-87790489D01*
D55*
X93100389Y-82849411D02*
X94160978Y-83910000D01*
X88910978Y-83140000D02*
X88544216Y-83506762D01*
X103500389Y-77270589D02*
X103330978Y-77101178D01*
X94199797Y-81750003D02*
X94199797Y-81474481D01*
D53*
X98784824Y-76110000D02*
X99129483Y-76454659D01*
D52*
X94160978Y-83910000D02*
X93681467Y-84389511D01*
D55*
X92921410Y-87899568D02*
X92580978Y-88240000D01*
X93790546Y-87899568D02*
X92921410Y-87899568D01*
X97730164Y-66058008D02*
X98021567Y-66349411D01*
D53*
X94210978Y-74360000D02*
X91860978Y-74360000D01*
X95610479Y-78700045D02*
X95517218Y-78793306D01*
D55*
X96612970Y-66058008D02*
X97730164Y-66058008D01*
X88544216Y-83506762D02*
X88532947Y-83506762D01*
D53*
X96612970Y-66058008D02*
X95610479Y-67060499D01*
D55*
X103330978Y-77101178D02*
X103330978Y-76690000D01*
D53*
X95460978Y-73310000D02*
X95260978Y-73310000D01*
X95517218Y-78793306D02*
X95517218Y-79373689D01*
D55*
X87421567Y-72640278D02*
X89071289Y-74290000D01*
X89071289Y-74290000D02*
X91520100Y-74290000D01*
D53*
X95610479Y-67060499D02*
X95610479Y-78700045D01*
D55*
X93020978Y-94530000D02*
X92430978Y-93940000D01*
X103324867Y-77270589D02*
X102225459Y-76171181D01*
X87421567Y-72449411D02*
X87897089Y-72449411D01*
X98021567Y-67046111D02*
X96922159Y-68145519D01*
D53*
X95860978Y-76110000D02*
X98784824Y-76110000D01*
D55*
X93020978Y-96260000D02*
X93020978Y-94530000D01*
X103500389Y-77270589D02*
X103324867Y-77270589D01*
D53*
X95517218Y-79373689D02*
X95503665Y-79387242D01*
D55*
%TO.N,GNDD*%
X104460978Y-81290000D02*
X104460978Y-81804011D01*
X94290978Y-96260000D02*
X94290978Y-94830000D01*
X98260978Y-67510000D02*
X97275712Y-68495266D01*
X103540978Y-93990000D02*
X103060978Y-93510000D01*
X99860978Y-66810000D02*
X100260978Y-67210000D01*
X88100389Y-71215310D02*
X88280978Y-71034721D01*
X99913478Y-87692500D02*
X99530978Y-88075000D01*
X92841220Y-81750936D02*
X93216236Y-81750936D01*
X88910978Y-82180000D02*
X88779924Y-82311054D01*
X100080978Y-85660000D02*
X99710978Y-85290000D01*
D53*
X93280978Y-90190000D02*
X93080978Y-89990000D01*
D55*
X92421567Y-82170589D02*
X92421567Y-82499411D01*
X101400389Y-81049411D02*
X101400389Y-81609411D01*
X98980978Y-88960000D02*
X98980978Y-88725000D01*
X93073478Y-53385000D02*
X92285978Y-53385000D01*
X102821567Y-77949411D02*
X102480978Y-78290000D01*
X100760978Y-67710000D02*
X100660978Y-67610000D01*
D53*
X93880978Y-90190000D02*
X93280978Y-90190000D01*
D55*
X100680978Y-86525000D02*
X100680978Y-86260000D01*
X98980978Y-88725000D02*
X98980978Y-88625000D01*
X98705289Y-65675489D02*
X98705289Y-67068343D01*
D52*
X94680978Y-87390000D02*
X94680978Y-85740000D01*
D55*
X92421567Y-82499411D02*
X92330978Y-82590000D01*
X101400389Y-81609411D02*
X101530978Y-81740000D01*
X88100389Y-71945605D02*
X89250050Y-73095266D01*
D53*
X94330978Y-89840000D02*
X93880978Y-89390000D01*
D55*
X100130978Y-85110000D02*
X99710978Y-85110000D01*
X99530978Y-88075000D02*
X99530978Y-88110000D01*
X98689926Y-69913286D02*
X99493212Y-69110000D01*
X99913478Y-87692500D02*
X100680978Y-86925000D01*
X97275712Y-68495266D02*
X97275712Y-68499072D01*
X100680978Y-86925000D02*
X100680978Y-86525000D01*
X101956994Y-67710000D02*
X100760978Y-67710000D01*
D53*
X93880978Y-89390000D02*
X93080978Y-89390000D01*
D55*
X97708986Y-64858008D02*
X97360978Y-64510000D01*
X100680978Y-86260000D02*
X100080978Y-85660000D01*
D53*
X98310978Y-63310000D02*
X98360978Y-63310000D01*
D55*
X95560978Y-96260000D02*
X95560978Y-94810000D01*
D53*
X94230978Y-89840000D02*
X93880978Y-90190000D01*
D55*
X102208986Y-67961992D02*
X101956994Y-67710000D01*
X102821567Y-77949411D02*
X102821567Y-77474395D01*
X101749222Y-96000000D02*
X101760100Y-96010878D01*
X88100389Y-71770589D02*
X88100389Y-71215310D01*
X99710978Y-85290000D02*
X99710978Y-85110000D01*
X98705289Y-67068343D02*
X98263632Y-67510000D01*
X88779924Y-82311054D02*
X88779924Y-82374180D01*
X97708986Y-64961992D02*
X97708986Y-64858008D01*
X104460978Y-81804011D02*
X103854989Y-82410000D01*
X102821567Y-77474395D02*
X101871906Y-76524734D01*
X100230978Y-90210000D02*
X98980978Y-88960000D01*
X100350978Y-90210000D02*
X100100978Y-90210000D01*
X100100978Y-90210000D02*
X99880978Y-89990000D01*
X90260978Y-50510000D02*
X89560978Y-50510000D01*
X98700389Y-65649411D02*
X98460978Y-65410000D01*
X104460978Y-93990000D02*
X103540978Y-93990000D01*
D53*
X94680978Y-89840000D02*
X94230978Y-89840000D01*
D55*
X98980978Y-88625000D02*
X99913478Y-87692500D01*
X92421567Y-82170589D02*
X92841220Y-81750936D01*
D53*
X98360978Y-63310000D02*
X98860978Y-63810000D01*
D55*
X98263632Y-67510000D02*
X98260978Y-67510000D01*
X98700389Y-65670589D02*
X98700389Y-65649411D01*
D53*
X94680978Y-89840000D02*
X94330978Y-89840000D01*
D55*
X92285978Y-53385000D02*
X92080978Y-53590000D01*
X94290978Y-94830000D02*
X94310978Y-94810000D01*
X100350978Y-90210000D02*
X100230978Y-90210000D01*
D52*
X94680978Y-89840000D02*
X94680978Y-87390000D01*
D55*
X98700389Y-65670589D02*
X98705289Y-65675489D01*
X88100389Y-71770589D02*
X88100389Y-71945605D01*
X101260978Y-96000000D02*
X101749222Y-96000000D01*
X93216236Y-81750936D02*
X93846244Y-81120928D01*
X99493212Y-69110000D02*
X99566307Y-69110000D01*
%TO.N,/HSE_IN*%
X99242528Y-80966424D02*
X99214560Y-80994391D01*
X98336372Y-80060268D02*
X99242528Y-80966424D01*
X99385498Y-84475480D02*
X99378568Y-84475480D01*
X100005479Y-83855499D02*
X99385498Y-84475480D01*
X99214560Y-81375071D02*
X100005479Y-82165990D01*
X99378568Y-84475480D02*
X98750978Y-85103070D01*
X98980978Y-86525000D02*
X98750978Y-86295000D01*
X99214560Y-80994391D02*
X99214560Y-81375071D01*
X100005479Y-82165990D02*
X100005479Y-83855499D01*
X98750978Y-86295000D02*
X98750978Y-85110000D01*
%TO.N,Net-(C4-Pad1)*%
X101605489Y-85514511D02*
X101605489Y-87523731D01*
X100480978Y-84390000D02*
X101605489Y-85514511D01*
X101230978Y-90130000D02*
X101230978Y-89275000D01*
X100480978Y-82011248D02*
X100480978Y-84390000D01*
X100680978Y-88448242D02*
X100680978Y-88725000D01*
X100621602Y-81870624D02*
X100480978Y-82011248D01*
X101605489Y-87523731D02*
X100680978Y-88448242D01*
X101230978Y-89275000D02*
X100680978Y-88725000D01*
X101310978Y-90210000D02*
X101230978Y-90130000D01*
%TO.N,/NRST*%
X100460978Y-80110000D02*
X99800318Y-80110000D01*
X100721567Y-80499411D02*
X100560978Y-80660000D01*
X98100978Y-92360000D02*
X98100978Y-91410000D01*
X100721567Y-80370589D02*
X100721567Y-80499411D01*
X99800318Y-80110000D02*
X99043479Y-79353161D01*
X96280978Y-85740000D02*
X96280978Y-84448763D01*
X96280978Y-89840000D02*
X96280978Y-85740000D01*
X100721567Y-80370589D02*
X100460978Y-80110000D01*
X96630978Y-90190000D02*
X96280978Y-89840000D01*
X98100978Y-91410000D02*
X96880978Y-90190000D01*
X96280978Y-84448763D02*
X97481478Y-83248263D01*
X96880978Y-90190000D02*
X96630978Y-90190000D01*
%TO.N,+3.3VA*%
X99956994Y-64906016D02*
X99956994Y-65206016D01*
X99821602Y-65949376D02*
X99177256Y-66593722D01*
X99956994Y-65206016D02*
X100700354Y-65949376D01*
X99182156Y-67488822D02*
X99182156Y-68006842D01*
X99182156Y-68006842D02*
X97982819Y-69206179D01*
X99177256Y-66593722D02*
X99177256Y-67483922D01*
X100700354Y-65949376D02*
X99821602Y-65949376D01*
X99177256Y-67483922D02*
X99182156Y-67488822D01*
%TO.N,/VREF2048*%
X99982156Y-68288822D02*
X99607282Y-68288822D01*
X100343784Y-68288822D02*
X101112970Y-69058008D01*
X99982156Y-68288822D02*
X100343784Y-68288822D01*
X99607282Y-68288822D02*
X98336372Y-69559732D01*
%TO.N,PA4*%
X98429500Y-73991478D02*
X98330978Y-74090000D01*
X88955978Y-89785000D02*
X89010978Y-89730000D01*
X101871906Y-73095266D02*
X100975694Y-73991478D01*
X89010978Y-89730000D02*
X89010978Y-88860000D01*
X100975694Y-73991478D02*
X98429500Y-73991478D01*
%TO.N,PB11*%
X94081477Y-64138751D02*
X94123682Y-64096546D01*
X94199797Y-68145519D02*
X94081477Y-68027199D01*
X94081477Y-68027199D02*
X94081477Y-64138751D01*
%TO.N,PA8*%
X93203662Y-72152684D02*
X93210978Y-72160000D01*
X92314802Y-72152684D02*
X93203662Y-72152684D01*
X91017817Y-71327499D02*
X91850318Y-72160000D01*
X91850318Y-72160000D02*
X92307486Y-72160000D01*
X92307486Y-72160000D02*
X92314802Y-72152684D01*
%TO.N,PA9*%
X91809859Y-72858881D02*
X91912097Y-72858881D01*
X90664264Y-71713286D02*
X91809859Y-72858881D01*
X90664264Y-71681052D02*
X90664264Y-71713286D01*
%TO.N,PB4*%
X92141458Y-83834408D02*
X92017050Y-83710000D01*
X92141458Y-85835592D02*
X92141458Y-83834408D01*
X90225978Y-95245000D02*
X90225978Y-89785000D01*
X90225978Y-89785000D02*
X90225978Y-87751072D01*
X92060978Y-83753928D02*
X92017050Y-83710000D01*
X86860978Y-98610000D02*
X90225978Y-95245000D01*
X91130951Y-79593581D02*
X91724924Y-78999608D01*
X90225978Y-87751072D02*
X92141458Y-85835592D01*
X90050969Y-80370009D02*
X90827397Y-79593581D01*
X92017050Y-83710000D02*
X90050969Y-81743919D01*
X90827397Y-79593581D02*
X91130951Y-79593581D01*
X90050969Y-81743919D02*
X90050969Y-80370009D01*
X86860978Y-99070000D02*
X86860978Y-98610000D01*
%TO.N,PC10*%
X87992284Y-79196714D02*
X87992284Y-83270312D01*
X91495978Y-84835000D02*
X91495978Y-85450000D01*
X87983446Y-83279150D02*
X87983446Y-83734374D01*
X88936478Y-88009500D02*
X88936478Y-88023124D01*
X87983446Y-83734374D02*
X87992284Y-83743212D01*
X87992284Y-87328694D02*
X86860978Y-88460000D01*
X91495978Y-85450000D02*
X88936478Y-88009500D01*
X86860978Y-88460000D02*
X86860978Y-88910000D01*
X87992284Y-83743212D02*
X87992284Y-87328694D01*
X87992284Y-83270312D02*
X87983446Y-83279150D01*
X89957157Y-77231841D02*
X87992284Y-79196714D01*
%TO.N,/SWDIO*%
X92462817Y-75481240D02*
X93468075Y-76486498D01*
X93020978Y-93420000D02*
X93560978Y-93960000D01*
X89586438Y-75481240D02*
X92462817Y-75481240D01*
X93020978Y-92360000D02*
X93020978Y-93420000D01*
X88896497Y-76171181D02*
X89586438Y-75481240D01*
%TO.N,/SWCLK*%
X94290978Y-92360000D02*
X94290978Y-93967112D01*
X94290978Y-93967112D02*
X94298810Y-93974944D01*
X91503167Y-75930760D02*
X93098293Y-77525886D01*
X89250050Y-76524734D02*
X89844024Y-75930760D01*
X89844024Y-75930760D02*
X91503167Y-75930760D01*
%TO.N,/SWO*%
X92847302Y-78052008D02*
X93185294Y-78390000D01*
X95560978Y-93460000D02*
X95060978Y-93960000D01*
X91965416Y-78052008D02*
X92847302Y-78052008D01*
X91371370Y-78646054D02*
X91965416Y-78052008D01*
X93185294Y-78390000D02*
X93330978Y-78390000D01*
X95560978Y-92360000D02*
X95560978Y-93460000D01*
%TO.N,Net-(J8-Pad11)*%
X98100978Y-95430000D02*
X98100978Y-96260000D01*
X100365889Y-94714911D02*
X98816067Y-94714911D01*
X100610978Y-96370000D02*
X100610978Y-94960000D01*
X100610978Y-94960000D02*
X100365889Y-94714911D01*
X98816067Y-94714911D02*
X98100978Y-95430000D01*
X101260978Y-97020000D02*
X100610978Y-96370000D01*
%TO.N,/STLINK_RX*%
X99370978Y-96260000D02*
X99370978Y-95900000D01*
X99370978Y-95900000D02*
X99830978Y-95440000D01*
X101518353Y-76878287D02*
X100785478Y-76145412D01*
X100785478Y-76145412D02*
X100785478Y-76010000D01*
%TO.N,/STLINK_TX*%
X100116295Y-74440988D02*
X99934944Y-74622339D01*
X101233290Y-74440988D02*
X100116295Y-74440988D01*
X99370978Y-92360000D02*
X99370978Y-93350000D01*
X99370978Y-93350000D02*
X98930978Y-93790000D01*
X102225459Y-73448819D02*
X101233290Y-74440988D01*
%TO.N,/HSE_OUT*%
X98689926Y-79706714D02*
X99900354Y-80917142D01*
X99900354Y-80917142D02*
X99900354Y-81149376D01*
%TO.N,+BATT*%
X96922159Y-81471181D02*
X96460978Y-81010000D01*
X96922159Y-81474481D02*
X96328185Y-80880507D01*
X96341729Y-79134829D02*
X96434990Y-79041568D01*
X96328185Y-79728756D02*
X96341729Y-79715212D01*
X96434990Y-79029760D02*
X96498171Y-78966579D01*
X96341729Y-79715212D02*
X96341729Y-79134829D01*
X96328185Y-80880507D02*
X96328185Y-79728756D01*
X96922159Y-81474481D02*
X96922159Y-81471181D01*
X96434990Y-79041568D02*
X96434990Y-79029760D01*
%TO.N,PB12*%
X93003213Y-63360763D02*
X92950644Y-63308194D01*
X93003213Y-67656041D02*
X93003213Y-63360763D01*
X93846244Y-68499072D02*
X93003213Y-67656041D01*
%TO.N,PB13*%
X92260978Y-65021674D02*
X91861496Y-64622192D01*
X92260978Y-67620912D02*
X92260978Y-65021674D01*
X93492691Y-68852625D02*
X92260978Y-67620912D01*
%TO.N,PB14*%
X93139137Y-69206179D02*
X91660978Y-67728020D01*
X91660978Y-67728020D02*
X91660978Y-66174709D01*
X91660978Y-66174709D02*
X90808008Y-65321739D01*
%TO.N,PB15*%
X91160978Y-67935126D02*
X91160978Y-67070000D01*
X91160978Y-67070000D02*
X90880978Y-66790000D01*
X92785584Y-69559732D02*
X91160978Y-67935126D01*
%TO.N,PB5*%
X89310978Y-98160000D02*
X89310978Y-98610000D01*
X92765978Y-84835000D02*
X92765978Y-85846776D01*
X92765978Y-85846776D02*
X90850498Y-87762256D01*
X92765978Y-83815000D02*
X90610489Y-81659511D01*
X90610489Y-80446193D02*
X90843307Y-80213375D01*
X90610489Y-81659511D02*
X90610489Y-80446193D01*
X90843307Y-80213375D02*
X91218263Y-80213375D01*
X91218263Y-80213375D02*
X92078477Y-79353161D01*
X90850498Y-87762256D02*
X90850498Y-96620480D01*
X90850498Y-96620480D02*
X89310978Y-98160000D01*
X92765978Y-84835000D02*
X92765978Y-83815000D01*
%TO.N,PB6*%
X91730479Y-81357203D02*
X91610345Y-81477337D01*
X92432030Y-79706714D02*
X91730479Y-80408265D01*
X91730479Y-80408265D02*
X91730479Y-81357203D01*
%TO.N,PB7*%
X92179990Y-80665862D02*
X92179990Y-81281965D01*
X92179990Y-81281965D02*
X92279446Y-81381421D01*
X92785584Y-80060268D02*
X92179990Y-80665862D01*
%TO.N,PB1*%
X100100000Y-69917424D02*
X100100000Y-69600000D01*
X99397032Y-70620392D02*
X100100000Y-69917424D01*
%TO.N,/EEPROM_WP*%
X91495978Y-87975000D02*
X92480978Y-86990000D01*
X91495978Y-89785000D02*
X91495978Y-87975000D01*
X100811246Y-72034606D02*
X100055852Y-72790000D01*
X100055852Y-72790000D02*
X97630978Y-72790000D01*
%TO.N,PB0*%
X99750586Y-70973946D02*
X100344560Y-70379972D01*
X100344560Y-70379972D02*
X100835995Y-70379972D01*
X100835995Y-70379972D02*
X101017048Y-70198919D01*
%TO.N,PB8*%
X93139137Y-80413821D02*
X93928561Y-79624397D01*
X93928561Y-79624397D02*
X93928561Y-78757155D01*
%TO.N,PC6*%
X92432030Y-69913286D02*
X90658744Y-68140000D01*
X90658744Y-68140000D02*
X90510978Y-68140000D01*
%TO.N,PC7*%
X92078477Y-70266839D02*
X90601638Y-68790000D01*
X90601638Y-68790000D02*
X90230978Y-68790000D01*
%TO.N,PC8*%
X89872739Y-70790000D02*
X89830978Y-70790000D01*
X91130951Y-70026419D02*
X90636320Y-70026419D01*
X90636320Y-70026419D02*
X89872739Y-70790000D01*
X91724924Y-70620392D02*
X91130951Y-70026419D01*
%TO.N,PC9*%
X91371370Y-70973946D02*
X91965343Y-71567919D01*
X92332353Y-71567919D02*
X92340272Y-71560000D01*
X91965343Y-71567919D02*
X92332353Y-71567919D01*
X92340272Y-71560000D02*
X92810978Y-71560000D01*
%TO.N,PB9*%
X94524200Y-79735866D02*
X94524200Y-79130665D01*
X93492691Y-80767375D02*
X94524200Y-79735866D01*
%TO.N,PA10*%
X92531477Y-73439501D02*
X92610978Y-73360000D01*
X91715605Y-73439501D02*
X92531477Y-73439501D01*
X90310710Y-72034606D02*
X91715605Y-73439501D01*
%TO.N,PC11*%
X89601458Y-86569520D02*
X88160978Y-88010000D01*
X89601458Y-81810480D02*
X89601458Y-86569520D01*
X88160978Y-90150000D02*
X86860978Y-91450000D01*
X88680978Y-79215126D02*
X88680978Y-80890000D01*
X88160978Y-88010000D02*
X88160978Y-90150000D01*
X90310710Y-77585394D02*
X88680978Y-79215126D01*
X88680978Y-80890000D02*
X89601458Y-81810480D01*
%TO.N,PC12*%
X89883529Y-78719683D02*
X89883529Y-78896501D01*
X90664264Y-77938948D02*
X89883529Y-78719683D01*
%TO.N,PC13*%
X98030978Y-83112887D02*
X98030978Y-83740000D01*
X97275712Y-81120928D02*
X98430479Y-82275695D01*
X98430479Y-82713386D02*
X98030978Y-83112887D01*
X98430479Y-82275695D02*
X98430479Y-82713386D01*
%TO.N,PC4*%
X101138744Y-71000000D02*
X101700000Y-71000000D01*
X100457692Y-71681052D02*
X101138744Y-71000000D01*
%TO.N,PC5*%
X90225978Y-84345000D02*
X90780978Y-83790000D01*
X90225978Y-84835000D02*
X90225978Y-84345000D01*
X97630978Y-72040000D02*
X99391638Y-72040000D01*
X99391638Y-72040000D02*
X100104139Y-71327499D01*
%TO.N,PC0*%
X99397032Y-78999608D02*
X98541678Y-78144254D01*
X98541678Y-78144254D02*
X98532542Y-78144254D01*
%TO.N,PC1*%
X99750586Y-78610020D02*
X99156612Y-78016046D01*
X99156612Y-77705634D02*
X99060978Y-77610000D01*
X99750586Y-78646054D02*
X99750586Y-78610020D01*
X99156612Y-78016046D02*
X99156612Y-77705634D01*
%TO.N,PC2*%
X102080978Y-81223742D02*
X102080978Y-83390000D01*
X102084111Y-81220609D02*
X102080978Y-81223742D01*
X104460978Y-85770000D02*
X104460978Y-86370000D01*
X102080978Y-83390000D02*
X104460978Y-85770000D01*
X100104139Y-78292501D02*
X102084111Y-80272473D01*
X102084111Y-80272473D02*
X102084111Y-81220609D01*
%TO.N,PC3*%
X100457692Y-77956714D02*
X103080978Y-80580000D01*
X103080978Y-82930000D02*
X103980978Y-83830000D01*
X103080978Y-80580000D02*
X103080978Y-82930000D01*
X100457692Y-77938948D02*
X100457692Y-77956714D01*
X103980978Y-83830000D02*
X104460978Y-83830000D01*
%TO.N,PA0*%
X100811246Y-77585394D02*
X102235852Y-79010000D01*
X102235852Y-79010000D02*
X104200978Y-79010000D01*
X104200978Y-79010000D02*
X104460978Y-78750000D01*
%TO.N,PA1*%
X100983366Y-74890499D02*
X103141477Y-74890499D01*
X100110978Y-75762887D02*
X100983366Y-74890499D01*
X101164799Y-77231841D02*
X100110978Y-76178020D01*
X103141477Y-74890499D02*
X104460978Y-76210000D01*
X100110978Y-76178020D02*
X100110978Y-75762887D01*
%TO.N,PA5*%
X104070000Y-71130000D02*
X104460978Y-71130000D01*
X96830479Y-74089501D02*
X96630978Y-73890000D01*
X98038091Y-73460000D02*
X97408590Y-74089501D01*
X101518353Y-72741713D02*
X102112327Y-72147739D01*
X100800066Y-73460000D02*
X98038091Y-73460000D01*
X101518353Y-72741713D02*
X100800066Y-73460000D01*
X97408590Y-74089501D02*
X96830479Y-74089501D01*
X102112327Y-72147739D02*
X103052261Y-72147739D01*
X96630978Y-73890000D02*
X96630978Y-69840000D01*
X103052261Y-72147739D02*
X104070000Y-71130000D01*
%TO.N,PA6*%
X103260978Y-70570359D02*
X103260978Y-67250000D01*
X103260978Y-67250000D02*
X104460978Y-66050000D01*
X102376345Y-71176613D02*
X102654724Y-71176613D01*
X101164799Y-72388159D02*
X102376345Y-71176613D01*
X102654724Y-71176613D02*
X103260978Y-70570359D01*
%TO.N,Net-(JP1-Pad2)*%
X88966978Y-55165000D02*
X88966978Y-53841500D01*
%TD*%
%TA.AperFunction,Conductor*%
%TO.N,+3V3*%
G36*
X102105501Y-59813183D02*
G01*
X102191019Y-59821551D01*
X102282170Y-59830471D01*
X102306408Y-59835277D01*
X102470354Y-59884911D01*
X102493189Y-59894357D01*
X102644281Y-59975028D01*
X102664833Y-59988747D01*
X102797287Y-60097365D01*
X102814764Y-60114831D01*
X102923466Y-60247206D01*
X102937200Y-60267749D01*
X103017977Y-60418796D01*
X103027437Y-60441624D01*
X103077179Y-60605528D01*
X103082002Y-60629764D01*
X103099408Y-60806421D01*
X103100015Y-60818776D01*
X103100012Y-61748737D01*
X103100003Y-65236205D01*
X103099395Y-65248564D01*
X103082586Y-65419108D01*
X103077762Y-65443347D01*
X103030277Y-65599781D01*
X103029790Y-65601384D01*
X103020326Y-65624216D01*
X102942427Y-65769846D01*
X102928688Y-65790391D01*
X102823863Y-65918009D01*
X102806377Y-65935478D01*
X102678652Y-66040180D01*
X102658094Y-66053898D01*
X102512391Y-66131651D01*
X102489550Y-66141092D01*
X102331467Y-66188909D01*
X102307222Y-66193711D01*
X102241468Y-66200126D01*
X102142838Y-66209748D01*
X102118138Y-66209725D01*
X102096077Y-66207532D01*
X101953633Y-66193370D01*
X101929431Y-66188533D01*
X101850348Y-66164475D01*
X101771268Y-66140417D01*
X101748469Y-66130954D01*
X101602718Y-66052922D01*
X101582210Y-66039201D01*
X101454457Y-65934240D01*
X101437023Y-65916788D01*
X101332194Y-65788940D01*
X101318489Y-65768413D01*
X101240602Y-65622589D01*
X101231161Y-65599781D01*
X101183200Y-65441570D01*
X101178387Y-65417358D01*
X101161584Y-65246645D01*
X101160978Y-65234303D01*
X101160978Y-62860000D01*
X98955335Y-62860000D01*
X98887214Y-62839998D01*
X98860386Y-62816829D01*
X98838143Y-62791331D01*
X98833147Y-62785604D01*
X98781505Y-62749310D01*
X98776220Y-62745384D01*
X98732502Y-62711105D01*
X98732498Y-62711103D01*
X98726521Y-62706416D01*
X98719598Y-62703290D01*
X98716650Y-62701505D01*
X98703690Y-62694113D01*
X98700644Y-62692480D01*
X98694431Y-62688113D01*
X98635611Y-62665180D01*
X98629532Y-62662624D01*
X98571994Y-62636645D01*
X98564523Y-62635260D01*
X98561255Y-62634236D01*
X98546814Y-62630123D01*
X98543541Y-62629283D01*
X98536465Y-62626524D01*
X98491795Y-62620644D01*
X98473872Y-62618284D01*
X98467355Y-62617252D01*
X98412753Y-62607132D01*
X98405286Y-62605748D01*
X98397706Y-62606185D01*
X98397705Y-62606185D01*
X98343834Y-62609291D01*
X98336582Y-62609500D01*
X98268462Y-62609500D01*
X98142658Y-62624724D01*
X97984055Y-62684655D01*
X97977797Y-62688956D01*
X97892744Y-62747412D01*
X97844327Y-62780688D01*
X97811243Y-62817821D01*
X97750993Y-62855375D01*
X97717168Y-62860000D01*
X96447165Y-62860000D01*
X96434815Y-62859393D01*
X96394020Y-62855375D01*
X96271896Y-62843347D01*
X96247672Y-62838528D01*
X96096955Y-62792808D01*
X96074135Y-62783356D01*
X95935243Y-62709117D01*
X95914705Y-62695394D01*
X95792962Y-62595481D01*
X95775497Y-62578016D01*
X95675584Y-62456273D01*
X95661861Y-62435735D01*
X95587622Y-62296843D01*
X95578170Y-62274023D01*
X95532450Y-62123306D01*
X95527631Y-62099080D01*
X95512195Y-61942360D01*
X95512197Y-61917639D01*
X95527640Y-61761107D01*
X95532474Y-61736845D01*
X95578203Y-61586352D01*
X95587685Y-61563501D01*
X95661935Y-61424852D01*
X95675699Y-61404295D01*
X95699423Y-61375452D01*
X95775617Y-61282820D01*
X95793126Y-61265355D01*
X95914856Y-61165743D01*
X95935447Y-61152032D01*
X96074289Y-61078130D01*
X96097163Y-61068706D01*
X96247764Y-61023359D01*
X96272040Y-61018586D01*
X96434798Y-61002946D01*
X96447168Y-61002368D01*
X96984298Y-61003726D01*
X97699949Y-61005535D01*
X97705239Y-60432099D01*
X97724350Y-60385325D01*
X97772035Y-60320764D01*
X97777634Y-60313184D01*
X97793590Y-60267749D01*
X97819974Y-60192616D01*
X97822519Y-60185369D01*
X97825500Y-60153834D01*
X97825500Y-60106930D01*
X97845502Y-60038809D01*
X97851930Y-60029717D01*
X97873146Y-60002358D01*
X97896357Y-59979345D01*
X97994141Y-59904847D01*
X98022488Y-59888579D01*
X98136149Y-59841739D01*
X98167729Y-59833311D01*
X98297818Y-59816204D01*
X98314154Y-59815128D01*
X100881649Y-59813400D01*
X102093153Y-59812584D01*
X102105501Y-59813183D01*
G37*
%TD.AperFunction*%
%TD*%
M02*
