G04 #@! TF.GenerationSoftware,KiCad,Pcbnew,6.0.1-79c1e3a40b~116~ubuntu20.04.1*
G04 #@! TF.CreationDate,2022-07-08T20:05:53+02:00*
G04 #@! TF.ProjectId,microcontroller_mini,6d696372-6f63-46f6-9e74-726f6c6c6572,rev?*
G04 #@! TF.SameCoordinates,Original*
G04 #@! TF.FileFunction,Soldermask,Top*
G04 #@! TF.FilePolarity,Negative*
%FSLAX46Y46*%
G04 Gerber Fmt 4.6, Leading zero omitted, Abs format (unit mm)*
G04 Created by KiCad (PCBNEW 6.0.1-79c1e3a40b~116~ubuntu20.04.1) date 2022-07-08 20:05:53*
%MOMM*%
%LPD*%
G01*
G04 APERTURE LIST*
G04 Aperture macros list*
%AMRoundRect*
0 Rectangle with rounded corners*
0 $1 Rounding radius*
0 $2 $3 $4 $5 $6 $7 $8 $9 X,Y pos of 4 corners*
0 Add a 4 corners polygon primitive as box body*
4,1,4,$2,$3,$4,$5,$6,$7,$8,$9,$2,$3,0*
0 Add four circle primitives for the rounded corners*
1,1,$1+$1,$2,$3*
1,1,$1+$1,$4,$5*
1,1,$1+$1,$6,$7*
1,1,$1+$1,$8,$9*
0 Add four rect primitives between the rounded corners*
20,1,$1+$1,$2,$3,$4,$5,0*
20,1,$1+$1,$4,$5,$6,$7,0*
20,1,$1+$1,$6,$7,$8,$9,0*
20,1,$1+$1,$8,$9,$2,$3,0*%
%AMFreePoly0*
4,1,9,3.862500,-0.866500,0.737500,-0.866500,0.737500,-0.450000,-0.737500,-0.450000,-0.737500,0.450000,0.737500,0.450000,0.737500,0.866500,3.862500,0.866500,3.862500,-0.866500,3.862500,-0.866500,$1*%
%AMFreePoly1*
4,1,6,0.500000,-0.750000,-0.650000,-0.750000,-0.150000,0.000000,-0.650000,0.750000,0.500000,0.750000,0.500000,-0.750000,0.500000,-0.750000,$1*%
%AMFreePoly2*
4,1,6,1.000000,0.000000,0.500000,-0.750000,-0.500000,-0.750000,-0.500000,0.750000,0.500000,0.750000,1.000000,0.000000,1.000000,0.000000,$1*%
G04 Aperture macros list end*
%ADD10R,0.600000X0.700000*%
%ADD11RoundRect,0.135000X0.185000X-0.135000X0.185000X0.135000X-0.185000X0.135000X-0.185000X-0.135000X0*%
%ADD12R,0.800000X0.900000*%
%ADD13RoundRect,0.225000X0.335876X0.017678X0.017678X0.335876X-0.335876X-0.017678X-0.017678X-0.335876X0*%
%ADD14RoundRect,0.135000X-0.226274X-0.035355X-0.035355X-0.226274X0.226274X0.035355X0.035355X0.226274X0*%
%ADD15O,2.400000X1.600000*%
%ADD16R,1.000000X1.600000*%
%ADD17R,1.600000X1.000000*%
%ADD18O,1.600000X2.400000*%
%ADD19RoundRect,0.150000X0.150000X-0.512500X0.150000X0.512500X-0.150000X0.512500X-0.150000X-0.512500X0*%
%ADD20R,0.900000X1.300000*%
%ADD21FreePoly0,270.000000*%
%ADD22RoundRect,0.135000X0.226274X0.035355X0.035355X0.226274X-0.226274X-0.035355X-0.035355X-0.226274X0*%
%ADD23RoundRect,0.225000X0.017678X-0.335876X0.335876X-0.017678X-0.017678X0.335876X-0.335876X0.017678X0*%
%ADD24RoundRect,0.140000X-0.219203X-0.021213X-0.021213X-0.219203X0.219203X0.021213X0.021213X0.219203X0*%
%ADD25RoundRect,0.243750X0.456250X-0.243750X0.456250X0.243750X-0.456250X0.243750X-0.456250X-0.243750X0*%
%ADD26RoundRect,0.135000X0.135000X0.185000X-0.135000X0.185000X-0.135000X-0.185000X0.135000X-0.185000X0*%
%ADD27R,0.900000X1.000000*%
%ADD28C,1.500000*%
%ADD29RoundRect,0.250000X0.250000X0.475000X-0.250000X0.475000X-0.250000X-0.475000X0.250000X-0.475000X0*%
%ADD30R,0.740000X2.400000*%
%ADD31RoundRect,0.243750X-0.456250X0.243750X-0.456250X-0.243750X0.456250X-0.243750X0.456250X0.243750X0*%
%ADD32RoundRect,0.140000X0.021213X-0.219203X0.219203X-0.021213X-0.021213X0.219203X-0.219203X0.021213X0*%
%ADD33RoundRect,0.140000X-0.021213X0.219203X-0.219203X0.021213X0.021213X-0.219203X0.219203X-0.021213X0*%
%ADD34RoundRect,0.135000X-0.135000X-0.185000X0.135000X-0.185000X0.135000X0.185000X-0.135000X0.185000X0*%
%ADD35RoundRect,0.140000X0.140000X0.170000X-0.140000X0.170000X-0.140000X-0.170000X0.140000X-0.170000X0*%
%ADD36RoundRect,0.140000X0.219203X0.021213X0.021213X0.219203X-0.219203X-0.021213X-0.021213X-0.219203X0*%
%ADD37RoundRect,0.140000X-0.140000X-0.170000X0.140000X-0.170000X0.140000X0.170000X-0.140000X0.170000X0*%
%ADD38RoundRect,0.250000X-0.250000X-0.475000X0.250000X-0.475000X0.250000X0.475000X-0.250000X0.475000X0*%
%ADD39RoundRect,0.135000X-0.185000X0.135000X-0.185000X-0.135000X0.185000X-0.135000X0.185000X0.135000X0*%
%ADD40RoundRect,0.075000X0.548008X0.441942X0.441942X0.548008X-0.548008X-0.441942X-0.441942X-0.548008X0*%
%ADD41RoundRect,0.075000X0.548008X-0.441942X-0.441942X0.548008X-0.548008X0.441942X0.441942X-0.548008X0*%
%ADD42FreePoly1,90.000000*%
%ADD43FreePoly2,90.000000*%
%ADD44O,1.000000X1.600000*%
%ADD45O,1.000000X2.100000*%
%ADD46R,0.600000X1.450000*%
%ADD47R,0.300000X1.450000*%
%ADD48C,0.650000*%
G04 APERTURE END LIST*
D10*
X97100000Y-57800000D03*
X95700000Y-57800000D03*
D11*
X95700000Y-63880000D03*
X95700000Y-64900000D03*
D12*
X100380000Y-84140000D03*
X100380000Y-85540000D03*
X99280000Y-85540000D03*
X99280000Y-84140000D03*
D13*
X98751992Y-63951992D03*
X99848008Y-65048008D03*
D14*
X101421602Y-66670624D03*
X100700354Y-65949376D03*
D15*
X104860978Y-50810000D03*
D16*
X105660978Y-50810000D03*
D15*
X104860978Y-53350000D03*
D16*
X105660978Y-53350000D03*
X105660978Y-55890000D03*
D15*
X104860978Y-55890000D03*
D16*
X105660978Y-58430000D03*
D15*
X104860978Y-58430000D03*
D16*
X105660978Y-60970000D03*
D15*
X104860978Y-60970000D03*
X104860978Y-63510000D03*
D16*
X105660978Y-63510000D03*
X105660978Y-66050000D03*
D15*
X104860978Y-66050000D03*
X104860978Y-68590000D03*
D16*
X105660978Y-68590000D03*
X105660978Y-71130000D03*
D15*
X104860978Y-71130000D03*
X104860978Y-73670000D03*
D16*
X105660978Y-73670000D03*
D15*
X104860978Y-76210000D03*
D16*
X105660978Y-76210000D03*
D15*
X104860978Y-78750000D03*
D16*
X105660978Y-78750000D03*
D15*
X104860978Y-81290000D03*
D16*
X105660978Y-81290000D03*
X105660978Y-83830000D03*
D15*
X104860978Y-83830000D03*
D16*
X105660978Y-86370000D03*
D15*
X104860978Y-86370000D03*
X104860978Y-88910000D03*
D16*
X105660978Y-88910000D03*
X105660978Y-91450000D03*
D15*
X104860978Y-91450000D03*
X104860978Y-93990000D03*
D16*
X105660978Y-93990000D03*
D15*
X104860978Y-96530000D03*
D16*
X105660978Y-96530000D03*
X105660978Y-99070000D03*
D15*
X104860978Y-99070000D03*
D17*
X102010978Y-99810000D03*
D18*
X102010978Y-99010000D03*
X99470978Y-99010000D03*
D17*
X99470978Y-99810000D03*
X96930978Y-99810000D03*
D18*
X96930978Y-99010000D03*
D17*
X94390978Y-99810000D03*
D18*
X94390978Y-99010000D03*
D17*
X91850978Y-99810000D03*
D18*
X91850978Y-99010000D03*
D17*
X89310978Y-99810000D03*
D18*
X89310978Y-99010000D03*
D15*
X86460978Y-99070000D03*
D16*
X85660978Y-99070000D03*
D15*
X86460978Y-96530000D03*
D16*
X85660978Y-96530000D03*
X85660978Y-93990000D03*
D15*
X86460978Y-93990000D03*
X86460978Y-91450000D03*
D16*
X85660978Y-91450000D03*
D15*
X86460978Y-88910000D03*
D16*
X85660978Y-88910000D03*
D15*
X86460978Y-86370000D03*
D16*
X85660978Y-86370000D03*
D15*
X86460978Y-83830000D03*
D16*
X85660978Y-83830000D03*
D15*
X86460978Y-81290000D03*
D16*
X85660978Y-81290000D03*
X85660978Y-78750000D03*
D15*
X86460978Y-78750000D03*
X86460978Y-76210000D03*
D16*
X85660978Y-76210000D03*
X85660978Y-73670000D03*
D15*
X86460978Y-73670000D03*
D16*
X85660978Y-71130000D03*
D15*
X86460978Y-71130000D03*
D16*
X85660978Y-68590000D03*
D15*
X86460978Y-68590000D03*
D16*
X85660978Y-66050000D03*
D15*
X86460978Y-66050000D03*
D16*
X85660978Y-63510000D03*
D15*
X86460978Y-63510000D03*
D16*
X85660978Y-60970000D03*
D15*
X86460978Y-60970000D03*
D16*
X85660978Y-58430000D03*
D15*
X86460978Y-58430000D03*
X86460978Y-55890000D03*
D16*
X85660978Y-55890000D03*
D15*
X86460978Y-53350000D03*
D16*
X85660978Y-53350000D03*
X85660978Y-50810000D03*
D15*
X86460978Y-50810000D03*
D19*
X92300000Y-58800000D03*
X93250000Y-58800000D03*
X94200000Y-58800000D03*
X94200000Y-61075000D03*
X93250000Y-61075000D03*
X92300000Y-61075000D03*
D20*
X99500000Y-59300000D03*
D21*
X101000000Y-59387500D03*
D20*
X102500000Y-59300000D03*
D22*
X99900354Y-81149376D03*
X100621602Y-81870624D03*
D23*
X102208986Y-67961992D03*
X101112970Y-69058008D03*
D24*
X101400389Y-81049411D03*
X100721567Y-80370589D03*
D25*
X97600000Y-59125000D03*
X97600000Y-61000000D03*
D26*
X101790000Y-50510000D03*
X102810000Y-50510000D03*
D23*
X97848008Y-65151992D03*
X96751992Y-66248008D03*
D27*
X93100000Y-86000000D03*
X93100000Y-84400000D03*
X97200000Y-84400000D03*
X97200000Y-86000000D03*
D28*
X89400000Y-96530000D03*
X89400000Y-93990000D03*
X89400000Y-91450000D03*
X89400000Y-88910000D03*
X89400000Y-86370000D03*
X89400000Y-83830000D03*
X89400000Y-81290000D03*
D29*
X95800000Y-62562500D03*
X97700000Y-62562500D03*
D30*
X99610000Y-92150000D03*
X99610000Y-96050000D03*
X98340000Y-92150000D03*
X98340000Y-96050000D03*
X97070000Y-92150000D03*
X97070000Y-96050000D03*
X95800000Y-92150000D03*
X95800000Y-96050000D03*
X94530000Y-92150000D03*
X94530000Y-96050000D03*
X93260000Y-92150000D03*
X93260000Y-96050000D03*
X91990000Y-92150000D03*
X91990000Y-96050000D03*
D31*
X95800000Y-61000000D03*
X95800000Y-59125000D03*
D32*
X98539411Y-65960589D03*
X97860589Y-66639411D03*
D33*
X102560589Y-78139411D03*
X103239411Y-77460589D03*
D34*
X89560978Y-50510000D03*
X88540978Y-50510000D03*
D35*
X99730000Y-86740000D03*
X100690000Y-86740000D03*
D32*
X99860978Y-66810000D03*
X99182156Y-67488822D03*
D31*
X89000000Y-53747500D03*
X89000000Y-51872500D03*
D36*
X92421567Y-82170589D03*
X93100389Y-82849411D03*
D31*
X102300000Y-53737500D03*
X102300000Y-51862500D03*
D27*
X93100000Y-87600000D03*
X93100000Y-89200000D03*
X97200000Y-89200000D03*
X97200000Y-87600000D03*
D37*
X99910978Y-82890000D03*
X98950978Y-82890000D03*
D32*
X100660978Y-67610000D03*
X99982156Y-68288822D03*
D38*
X102750000Y-57500000D03*
X100850000Y-57500000D03*
D39*
X101260978Y-97020000D03*
X101260978Y-96000000D03*
D40*
X94199797Y-81474481D03*
X93846244Y-81120928D03*
X93492691Y-80767375D03*
X93139137Y-80413821D03*
X92785584Y-80060268D03*
X92432030Y-79706714D03*
X92078477Y-79353161D03*
X91724924Y-78999608D03*
X91371370Y-78646054D03*
X91017817Y-78292501D03*
X90664264Y-77938948D03*
X90310710Y-77585394D03*
X89957157Y-77231841D03*
X89603603Y-76878287D03*
X89250050Y-76524734D03*
X88896497Y-76171181D03*
D41*
X88896497Y-73448819D03*
X89250050Y-73095266D03*
X89603603Y-72741713D03*
X89957157Y-72388159D03*
X90310710Y-72034606D03*
X90664264Y-71681052D03*
X91017817Y-71327499D03*
X91371370Y-70973946D03*
X91724924Y-70620392D03*
X92078477Y-70266839D03*
X92432030Y-69913286D03*
X92785584Y-69559732D03*
X93139137Y-69206179D03*
X93492691Y-68852625D03*
X93846244Y-68499072D03*
X94199797Y-68145519D03*
D40*
X96922159Y-68145519D03*
X97275712Y-68499072D03*
X97629265Y-68852625D03*
X97982819Y-69206179D03*
X98336372Y-69559732D03*
X98689926Y-69913286D03*
X99043479Y-70266839D03*
X99397032Y-70620392D03*
X99750586Y-70973946D03*
X100104139Y-71327499D03*
X100457692Y-71681052D03*
X100811246Y-72034606D03*
X101164799Y-72388159D03*
X101518353Y-72741713D03*
X101871906Y-73095266D03*
X102225459Y-73448819D03*
D41*
X102225459Y-76171181D03*
X101871906Y-76524734D03*
X101518353Y-76878287D03*
X101164799Y-77231841D03*
X100811246Y-77585394D03*
X100457692Y-77938948D03*
X100104139Y-78292501D03*
X99750586Y-78646054D03*
X99397032Y-78999608D03*
X99043479Y-79353161D03*
X98689926Y-79706714D03*
X98336372Y-80060268D03*
X97982819Y-80413821D03*
X97629265Y-80767375D03*
X97275712Y-81120928D03*
X96922159Y-81474481D03*
D42*
X88966978Y-55165000D03*
D43*
X88966978Y-56615000D03*
D32*
X88100389Y-71770589D03*
X87421567Y-72449411D03*
D28*
X89300000Y-58430000D03*
X89300000Y-60970000D03*
X89300000Y-63510000D03*
X89300000Y-66050000D03*
X89400000Y-68590000D03*
D44*
X91280000Y-50790000D03*
D45*
X99920000Y-54970000D03*
D44*
X99920000Y-50790000D03*
D45*
X91280000Y-54970000D03*
D46*
X98850000Y-55885000D03*
X98050000Y-55885000D03*
D47*
X97350000Y-55885000D03*
X96350000Y-55885000D03*
X94850000Y-55885000D03*
X93850000Y-55885000D03*
D46*
X93150000Y-55885000D03*
X92350000Y-55885000D03*
X92350000Y-55885000D03*
X93150000Y-55885000D03*
D47*
X94350000Y-55885000D03*
X95350000Y-55885000D03*
X95850000Y-55885000D03*
X96850000Y-55885000D03*
D46*
X98050000Y-55885000D03*
X98850000Y-55885000D03*
D48*
X98490000Y-54440000D03*
X92710000Y-54440000D03*
M02*
