M48
; DRILL file {KiCad 6.0.1-79c1e3a40b~116~ubuntu20.04.1} date ven. 08 juil. 2022 20:06:35
; FORMAT={-:-/ absolute / metric / decimal}
; #@! TF.CreationDate,2022-07-08T20:06:35+02:00
; #@! TF.GenerationSoftware,Kicad,Pcbnew,6.0.1-79c1e3a40b~116~ubuntu20.04.1
; #@! TF.FileFunction,Plated,1,4,PTH
FMAT,2
METRIC
; #@! TA.AperFunction,Plated,PTH,ViaDrill
T1C0.200
; #@! TA.AperFunction,Plated,PTH,ViaDrill
T2C0.400
; #@! TA.AperFunction,Plated,PTH,ComponentDrill
T3C0.600
; #@! TA.AperFunction,Plated,PTH,ComponentDrill
T4C1.000
%
G90
G05
T1
X88.2Y-71.0
X88.4Y-75.5
X88.8Y-78.3
X89.0Y-79.1
X89.047Y-70.534
X89.566Y-71.053
X89.8Y-79.1
X90.0Y-75.3
X90.261Y-50.51
X90.3Y-57.3
X90.403Y-59.497
X90.5Y-60.3
X90.5Y-90.3
X90.6Y-76.0
X90.8Y-75.1
X90.95Y-57.4
X91.2Y-89.7
X91.271Y-72.751
X91.5Y-59.0
X91.5Y-59.7
X91.616Y-75.399
X91.7Y-68.0
X91.7Y-68.7
X91.706Y-76.042
X91.725Y-76.806
X91.8Y-74.3
X92.1Y-62.5
X92.1Y-66.8
X92.287Y-82.704
X92.4Y-66.2
X92.416Y-72.616
X92.651Y-77.618
X92.7Y-76.8
X92.9Y-62.512
X92.996Y-64.8
X93.0Y-75.2
X93.049Y-73.325
X93.053Y-65.447
X93.184Y-71.98
X93.25Y-60.5
X93.407Y-76.659
X93.5Y-57.9
X93.5Y-75.8
X93.6Y-62.512
X93.6Y-77.8
X93.649Y-78.571
X93.9Y-72.2
X93.9Y-73.5
X94.2Y-71.4
X94.3Y-62.5
X94.312Y-77.518
X94.4Y-72.8
X94.5Y-94.7
X94.6Y-79.3
X94.7Y-78.5
X95.3Y-65.3
X95.8Y-94.7
X96.1Y-58.0
X96.1Y-60.4
X96.545Y-77.1
X96.749Y-69.8
X96.823Y-73.929
X97.0Y-82.9
X97.0Y-85.4
X97.1Y-71.0
X97.4Y-78.5
X97.5Y-64.6
X97.5Y-74.4
X97.8Y-70.6
X97.959Y-77.85
X98.15Y-89.25
X98.2Y-63.7
X98.2Y-65.5
X98.2Y-82.7
X98.2Y-83.7
X98.2Y-84.7
X98.2Y-85.7
X98.2Y-86.7
X98.3Y-73.4
X98.3Y-91.025
X98.371Y-71.129
X98.4Y-71.999
X98.461Y-77.21
X98.8Y-87.5
X98.8Y-88.3
X99.1Y-72.9
X99.129Y-76.455
X99.2Y-72.079
X99.23Y-86.7
X99.3Y-77.4
X99.529Y-69.09
X99.6Y-93.4
X99.661Y-95.1
X99.691Y-75.361
X100.0Y-87.5
X100.045Y-74.816
X100.1Y-69.4
X100.261Y-67.21
X100.331Y-83.43
X100.7Y-94.2
X100.771Y-76.026
X101.0Y-70.3
X101.2Y-50.5
X101.2Y-80.3
X101.2Y-87.5
X101.211Y-75.549
X101.4Y-67.7
X101.586Y-69.9
X101.6Y-81.5
X101.6Y-82.7
X101.6Y-83.7
X101.6Y-84.7
X101.6Y-85.7
X101.6Y-86.7
X101.76Y-96.011
X101.89Y-71.202
X102.402Y-70.798
X102.9Y-78.5
X103.8Y-77.5
T2
X92.293Y-56.882
X94.0Y-54.3
X98.5Y-58.1
X99.4Y-56.7
X102.524Y-56.2
T4
X85.161Y-50.81
X85.161Y-53.35
X85.161Y-55.89
X85.161Y-58.43
X85.161Y-60.97
X85.161Y-63.51
X85.161Y-66.05
X85.161Y-68.59
X85.161Y-71.13
X85.161Y-73.67
X85.161Y-76.21
X85.161Y-78.75
X85.161Y-81.29
X85.161Y-83.83
X85.161Y-86.37
X85.161Y-88.91
X85.161Y-91.45
X85.161Y-93.99
X85.161Y-96.53
X85.161Y-99.07
X86.861Y-50.81
X86.861Y-53.35
X86.861Y-55.89
X86.861Y-58.43
X86.861Y-60.97
X86.861Y-63.51
X86.861Y-66.05
X86.861Y-68.59
X86.861Y-71.13
X86.861Y-73.67
X86.861Y-76.21
X86.861Y-78.75
X86.861Y-81.29
X86.861Y-83.83
X86.861Y-86.37
X86.861Y-88.91
X86.861Y-91.45
X86.861Y-93.99
X86.861Y-96.53
X86.861Y-99.07
X89.3Y-58.43
X89.3Y-60.97
X89.3Y-63.51
X89.3Y-66.05
X89.311Y-98.61
X89.311Y-100.31
X89.4Y-68.59
X89.4Y-81.29
X89.4Y-83.83
X89.4Y-86.37
X89.4Y-88.91
X89.4Y-91.45
X89.4Y-93.99
X89.4Y-96.53
X91.851Y-98.61
X91.851Y-100.31
X94.391Y-98.61
X94.391Y-100.31
X96.931Y-98.61
X96.931Y-100.31
X99.471Y-98.61
X99.471Y-100.31
X102.011Y-98.61
X102.011Y-100.31
X104.461Y-50.81
X104.461Y-53.35
X104.461Y-55.89
X104.461Y-58.43
X104.461Y-60.97
X104.461Y-63.51
X104.461Y-66.05
X104.461Y-68.59
X104.461Y-71.13
X104.461Y-73.67
X104.461Y-76.21
X104.461Y-78.75
X104.461Y-81.29
X104.461Y-83.83
X104.461Y-86.37
X104.461Y-88.91
X104.461Y-91.45
X104.461Y-93.99
X104.461Y-96.53
X104.461Y-99.07
X106.161Y-50.81
X106.161Y-53.35
X106.161Y-55.89
X106.161Y-58.43
X106.161Y-60.97
X106.161Y-63.51
X106.161Y-66.05
X106.161Y-68.59
X106.161Y-71.13
X106.161Y-73.67
X106.161Y-76.21
X106.161Y-78.75
X106.161Y-81.29
X106.161Y-83.83
X106.161Y-86.37
X106.161Y-88.91
X106.161Y-91.45
X106.161Y-93.99
X106.161Y-96.53
X106.161Y-99.07
T3
X91.28Y-51.09G85X91.28Y-50.49
G05
X91.28Y-55.52G85X91.28Y-54.42
G05
X99.92Y-51.09G85X99.92Y-50.49
G05
X99.92Y-55.52G85X99.92Y-54.42
G05
T0
M30
