%TF.GenerationSoftware,KiCad,Pcbnew,6.0.1-79c1e3a40b~116~ubuntu20.04.1*%
%TF.CreationDate,2022-03-09T16:59:06+01:00*%
%TF.ProjectId,microcontroller_mini,6d696372-6f63-46f6-9e74-726f6c6c6572,rev?*%
%TF.SameCoordinates,Original*%
%TF.FileFunction,Copper,L2,Inr*%
%TF.FilePolarity,Positive*%
%FSLAX46Y46*%
G04 Gerber Fmt 4.6, Leading zero omitted, Abs format (unit mm)*
G04 Created by KiCad (PCBNEW 6.0.1-79c1e3a40b~116~ubuntu20.04.1) date 2022-03-09 16:59:06*
%MOMM*%
%LPD*%
G01*
G04 APERTURE LIST*
%TA.AperFunction,ComponentPad*%
%ADD10O,2.400000X1.600000*%
%TD*%
%TA.AperFunction,ComponentPad*%
%ADD11R,1.000000X1.600000*%
%TD*%
%TA.AperFunction,ComponentPad*%
%ADD12O,1.600000X2.400000*%
%TD*%
%TA.AperFunction,ComponentPad*%
%ADD13R,1.600000X1.000000*%
%TD*%
%TA.AperFunction,ViaPad*%
%ADD14C,0.800000*%
%TD*%
%TA.AperFunction,ViaPad*%
%ADD15C,0.450000*%
%TD*%
%TA.AperFunction,Conductor*%
%ADD16C,1.000000*%
%TD*%
%TA.AperFunction,Conductor*%
%ADD17C,0.250000*%
%TD*%
%TA.AperFunction,Conductor*%
%ADD18C,0.700000*%
%TD*%
%TA.AperFunction,Conductor*%
%ADD19C,0.400000*%
%TD*%
G04 APERTURE END LIST*
D10*
%TO.N,PB11*%
%TO.C,J1*%
X86460978Y-50810000D03*
D11*
X85660978Y-50810000D03*
%TO.N,PB12*%
X85660978Y-53350000D03*
D10*
X86460978Y-53350000D03*
D11*
%TO.N,GNDD*%
X85660978Y-55890000D03*
D10*
X86460978Y-55890000D03*
%TO.N,PB13*%
X86460978Y-58430000D03*
D11*
X85660978Y-58430000D03*
D10*
%TO.N,PB14*%
X86460978Y-60970000D03*
D11*
X85660978Y-60970000D03*
D10*
%TO.N,PB15*%
X86460978Y-63510000D03*
D11*
X85660978Y-63510000D03*
D10*
%TO.N,PC6*%
X86460978Y-66050000D03*
D11*
X85660978Y-66050000D03*
D10*
%TO.N,GNDD*%
X86460978Y-68590000D03*
D11*
X85660978Y-68590000D03*
D10*
%TO.N,PC7*%
X86460978Y-71130000D03*
D11*
X85660978Y-71130000D03*
D10*
%TO.N,PC8*%
X86460978Y-73670000D03*
D11*
X85660978Y-73670000D03*
%TO.N,PC9*%
X85660978Y-76210000D03*
D10*
X86460978Y-76210000D03*
%TO.N,PA8*%
X86460978Y-78750000D03*
D11*
X85660978Y-78750000D03*
%TO.N,GNDD*%
X85660978Y-81290000D03*
D10*
X86460978Y-81290000D03*
D11*
%TO.N,PA9*%
X85660978Y-83830000D03*
D10*
X86460978Y-83830000D03*
D11*
%TO.N,PA10*%
X85660978Y-86370000D03*
D10*
X86460978Y-86370000D03*
D11*
%TO.N,PC10*%
X85660978Y-88910000D03*
D10*
X86460978Y-88910000D03*
D11*
%TO.N,PC11*%
X85660978Y-91450000D03*
D10*
X86460978Y-91450000D03*
%TO.N,GNDD*%
X86460978Y-93990000D03*
D11*
X85660978Y-93990000D03*
%TO.N,PC12*%
X85660978Y-96530000D03*
D10*
X86460978Y-96530000D03*
D11*
%TO.N,PB4*%
X85660978Y-99070000D03*
D10*
X86460978Y-99070000D03*
D12*
%TO.N,PB5*%
X89310978Y-99010000D03*
D13*
X89310978Y-99810000D03*
D12*
%TO.N,GNDD*%
X91850978Y-99010000D03*
D13*
X91850978Y-99810000D03*
D12*
%TO.N,PB6*%
X94390978Y-99010000D03*
D13*
X94390978Y-99810000D03*
D12*
%TO.N,PB7*%
X96930978Y-99010000D03*
D13*
X96930978Y-99810000D03*
%TO.N,GNDD*%
X99470978Y-99810000D03*
D12*
X99470978Y-99010000D03*
%TO.N,PB8*%
X102010978Y-99010000D03*
D13*
X102010978Y-99810000D03*
D10*
%TO.N,PB9*%
X104860978Y-99070000D03*
D11*
X105660978Y-99070000D03*
%TO.N,PC13*%
X105660978Y-96530000D03*
D10*
X104860978Y-96530000D03*
D11*
%TO.N,GNDD*%
X105660978Y-93990000D03*
D10*
X104860978Y-93990000D03*
%TO.N,PC0*%
X104860978Y-91450000D03*
D11*
X105660978Y-91450000D03*
%TO.N,PC1*%
X105660978Y-88910000D03*
D10*
X104860978Y-88910000D03*
%TO.N,PC2*%
X104860978Y-86370000D03*
D11*
X105660978Y-86370000D03*
D10*
%TO.N,PC3*%
X104860978Y-83830000D03*
D11*
X105660978Y-83830000D03*
%TO.N,GNDD*%
X105660978Y-81290000D03*
D10*
X104860978Y-81290000D03*
D11*
%TO.N,PA0*%
X105660978Y-78750000D03*
D10*
X104860978Y-78750000D03*
D11*
%TO.N,PA1*%
X105660978Y-76210000D03*
D10*
X104860978Y-76210000D03*
D11*
%TO.N,PB0*%
X105660978Y-73670000D03*
D10*
X104860978Y-73670000D03*
%TO.N,PA5*%
X104860978Y-71130000D03*
D11*
X105660978Y-71130000D03*
%TO.N,GNDD*%
X105660978Y-68590000D03*
D10*
X104860978Y-68590000D03*
%TO.N,PA6*%
X104860978Y-66050000D03*
D11*
X105660978Y-66050000D03*
%TO.N,PC4*%
X105660978Y-63510000D03*
D10*
X104860978Y-63510000D03*
%TO.N,+3V3*%
X104860978Y-60970000D03*
D11*
X105660978Y-60970000D03*
D10*
%TO.N,PB1*%
X104860978Y-58430000D03*
D11*
X105660978Y-58430000D03*
D10*
%TO.N,GNDD*%
X104860978Y-55890000D03*
D11*
X105660978Y-55890000D03*
%TO.N,+BATT*%
X105660978Y-53350000D03*
D10*
X104860978Y-53350000D03*
D11*
%TO.N,+5VD*%
X105660978Y-50810000D03*
D10*
X104860978Y-50810000D03*
%TD*%
D14*
%TO.N,+5VD*%
X102100000Y-56300000D03*
D15*
%TO.N,VBUS*%
X93300000Y-55400000D03*
D14*
X96900000Y-55000000D03*
D15*
%TO.N,+3V3*%
X92580978Y-88240000D03*
X103330978Y-76690000D03*
X92430978Y-93940000D03*
X99129483Y-76454659D03*
X91560978Y-74330878D03*
X88532947Y-83506762D03*
%TO.N,GNDD*%
X103660978Y-80010000D03*
X102180978Y-85990000D03*
X102180978Y-85240000D03*
X102180978Y-86790000D03*
X102080978Y-90990000D03*
X97802066Y-82424393D03*
X102427112Y-70600000D03*
X97930978Y-89190000D03*
D14*
X92400000Y-51700000D03*
D15*
X97930978Y-84990000D03*
X94703111Y-64390000D03*
X102080978Y-90190000D03*
X101760100Y-96010878D03*
X98480978Y-84390000D03*
X101080978Y-90990000D03*
X103854989Y-82410000D03*
X100130978Y-85110000D03*
X101260978Y-67710000D03*
X97330978Y-71390000D03*
D14*
X99200000Y-51790000D03*
D15*
X97330978Y-70290000D03*
X99280978Y-90590000D03*
X101080978Y-83190000D03*
X101210978Y-75440000D03*
X102080978Y-88590000D03*
X88200000Y-61100000D03*
X91080978Y-64690000D03*
X97930978Y-88390000D03*
X102480978Y-78290000D03*
X101586444Y-69886444D03*
X89830978Y-69990000D03*
X94310978Y-94810000D03*
X100260978Y-67210000D03*
X97360978Y-64510000D03*
X88779924Y-82374180D03*
X97930978Y-87590000D03*
X97871711Y-74549267D03*
D14*
X102800000Y-58600000D03*
D15*
X93360978Y-71210000D03*
X90680978Y-66090000D03*
X99566307Y-69110000D03*
X93669342Y-77835331D03*
X88280978Y-71034721D03*
X95560978Y-94810000D03*
X93156967Y-89590000D03*
X97930978Y-86790000D03*
X94630978Y-78490000D03*
X100230978Y-87410000D03*
X99788703Y-75255164D03*
X90130978Y-69440000D03*
X91180978Y-80990000D03*
X88200000Y-58400000D03*
X97180978Y-73540000D03*
X93330978Y-73240000D03*
X90800000Y-55900000D03*
X98730978Y-83190000D03*
X98310978Y-63310000D03*
X98080978Y-89990000D03*
X93279122Y-59879122D03*
X90260978Y-50510000D03*
X88200000Y-64000000D03*
X92430978Y-64309872D03*
X100280978Y-90990000D03*
X99430978Y-82690000D03*
X90630978Y-74890000D03*
X98209698Y-94165410D03*
X98046682Y-78575293D03*
X102080978Y-89390000D03*
X101530978Y-81740000D03*
X99380978Y-83390000D03*
X98460978Y-65410000D03*
X93935534Y-76035570D03*
X92542414Y-72702185D03*
X101080978Y-83990000D03*
X92330978Y-82590000D03*
X103060978Y-93510000D03*
X90280978Y-67490000D03*
X101080978Y-82590000D03*
X103060978Y-94310000D03*
D14*
X98000000Y-52200000D03*
X92080978Y-53590000D03*
X95900000Y-56500000D03*
D15*
X98460978Y-77210000D03*
X99880978Y-89990000D03*
D14*
X95900000Y-58100000D03*
D15*
X93606256Y-77121131D03*
X102180978Y-87640000D03*
X97930978Y-85990000D03*
X93574182Y-63490000D03*
X93156967Y-90190000D03*
X99030978Y-83940000D03*
X99530978Y-88110000D03*
X94130978Y-78140000D03*
X93810978Y-71860000D03*
X101200000Y-50500000D03*
X101480978Y-84590000D03*
D14*
X94200000Y-52300000D03*
D15*
X98680978Y-89990000D03*
%TO.N,/NRST*%
X97481478Y-83248263D03*
X100560978Y-80660000D03*
%TO.N,PA4*%
X98330978Y-74090000D03*
X89010978Y-88860000D03*
%TO.N,PB11*%
X94123682Y-64096546D03*
%TO.N,PA8*%
X93210978Y-72160000D03*
%TO.N,PA9*%
X91912097Y-72858881D03*
%TO.N,PC10*%
X88936478Y-88023124D03*
%TO.N,/SWDIO*%
X93560978Y-93960000D03*
X93468075Y-76486498D03*
%TO.N,/SWCLK*%
X93098293Y-77525886D03*
X94298810Y-93974944D03*
%TO.N,/SWO*%
X95060978Y-93960000D03*
X93330978Y-78390000D03*
%TO.N,/STLINK_RX*%
X100785478Y-76010000D03*
X99830978Y-95440000D03*
%TO.N,/STLINK_TX*%
X99934944Y-74622339D03*
X98930978Y-93790000D03*
%TO.N,+BATT*%
X96498171Y-78966579D03*
%TO.N,PB12*%
X92950644Y-63308194D03*
%TO.N,PB13*%
X91861496Y-64622192D03*
%TO.N,PB14*%
X90808008Y-65321739D03*
%TO.N,PB15*%
X90880978Y-66790000D03*
%TO.N,PB6*%
X91610345Y-81477337D03*
%TO.N,PB7*%
X92279446Y-81381421D03*
%TO.N,PB1*%
X100100000Y-69600000D03*
%TO.N,/EEPROM_WP*%
X92480978Y-86990000D03*
X97630978Y-72790000D03*
%TO.N,PB0*%
X101017048Y-70198919D03*
%TO.N,PB8*%
X93928561Y-78757155D03*
%TO.N,PC6*%
X90510978Y-68140000D03*
%TO.N,PC7*%
X90230978Y-68790000D03*
%TO.N,PC8*%
X89830978Y-70790000D03*
%TO.N,PC9*%
X92810978Y-71560000D03*
%TO.N,PB9*%
X94524200Y-79130665D03*
%TO.N,PA10*%
X92610978Y-73360000D03*
%TO.N,PC12*%
X89883529Y-78896501D03*
%TO.N,PC13*%
X98030978Y-83740000D03*
%TO.N,PC4*%
X101700000Y-71000000D03*
%TO.N,PC5*%
X97630978Y-72040000D03*
X90780978Y-83790000D03*
%TO.N,PC0*%
X98532542Y-78144254D03*
%TO.N,PC1*%
X99060978Y-77610000D03*
%TO.N,PA5*%
X90800000Y-56600000D03*
X96630978Y-69840000D03*
%TD*%
D16*
%TO.N,GNDD*%
X100530978Y-85790000D02*
X100930978Y-85390000D01*
D17*
X100300978Y-90210000D02*
X100080978Y-89990000D01*
X100080978Y-89990000D02*
X99880978Y-89990000D01*
D16*
X100730978Y-85590000D02*
X99960978Y-85590000D01*
X100930978Y-85390000D02*
X100730978Y-85590000D01*
X99730978Y-87810000D02*
X99730978Y-85790000D01*
D18*
X100930978Y-85390000D02*
X100800978Y-85260000D01*
D16*
X99960978Y-85590000D02*
X99680978Y-85310000D01*
X99730978Y-89440000D02*
X99730978Y-87810000D01*
D19*
X98680978Y-87590000D02*
X97930978Y-87590000D01*
D17*
X100380978Y-90210000D02*
X100300978Y-90210000D01*
D16*
X99730978Y-85790000D02*
X100130978Y-85390000D01*
X98930978Y-88840000D02*
X98930978Y-87340000D01*
X100130978Y-85390000D02*
X100930978Y-85390000D01*
D18*
X100800978Y-85260000D02*
X99080978Y-85260000D01*
D16*
X99680978Y-89590000D02*
X98930978Y-88840000D01*
X100530978Y-89810000D02*
X100530978Y-85790000D01*
X98930978Y-87340000D02*
X98930978Y-85410000D01*
X100930978Y-89790000D02*
X100930978Y-85390000D01*
D19*
X98930978Y-87340000D02*
X98680978Y-87590000D01*
%TD*%
%TA.AperFunction,Conductor*%
%TO.N,GNDD*%
G36*
X104181325Y-49580002D02*
G01*
X104227818Y-49633658D01*
X104237922Y-49703932D01*
X104208428Y-49768512D01*
X104149622Y-49806622D01*
X104058727Y-49834065D01*
X103876827Y-49930782D01*
X103813032Y-49982812D01*
X103721953Y-50057094D01*
X103721950Y-50057097D01*
X103717178Y-50060989D01*
X103713251Y-50065736D01*
X103713249Y-50065738D01*
X103589789Y-50214975D01*
X103589787Y-50214979D01*
X103585860Y-50219725D01*
X103487875Y-50400945D01*
X103426955Y-50597746D01*
X103426311Y-50603871D01*
X103426311Y-50603872D01*
X103425436Y-50612203D01*
X103405421Y-50802631D01*
X103406584Y-50815413D01*
X103422205Y-50987058D01*
X103424092Y-51007797D01*
X103482258Y-51205428D01*
X103577704Y-51387998D01*
X103581564Y-51392799D01*
X103581566Y-51392802D01*
X103671384Y-51504513D01*
X103706793Y-51548553D01*
X103864608Y-51680976D01*
X103870006Y-51683944D01*
X103870011Y-51683947D01*
X104039743Y-51777257D01*
X104045140Y-51780224D01*
X104241510Y-51842516D01*
X104247627Y-51843202D01*
X104247631Y-51843203D01*
X104323852Y-51851752D01*
X104401842Y-51860500D01*
X105784978Y-51860500D01*
X105853099Y-51880502D01*
X105899592Y-51934158D01*
X105910978Y-51986500D01*
X105910978Y-52173500D01*
X105890976Y-52241621D01*
X105837320Y-52288114D01*
X105784978Y-52299500D01*
X104409137Y-52299500D01*
X104255948Y-52314520D01*
X104058727Y-52374065D01*
X103876827Y-52470782D01*
X103813032Y-52522812D01*
X103721953Y-52597094D01*
X103721950Y-52597097D01*
X103717178Y-52600989D01*
X103713251Y-52605736D01*
X103713249Y-52605738D01*
X103589789Y-52754975D01*
X103589787Y-52754979D01*
X103585860Y-52759725D01*
X103487875Y-52940945D01*
X103426955Y-53137746D01*
X103426311Y-53143871D01*
X103426311Y-53143872D01*
X103425436Y-53152203D01*
X103405421Y-53342631D01*
X103406584Y-53355413D01*
X103422205Y-53527058D01*
X103424092Y-53547797D01*
X103482258Y-53745428D01*
X103577704Y-53927998D01*
X103581564Y-53932799D01*
X103581566Y-53932802D01*
X103671384Y-54044513D01*
X103706793Y-54088553D01*
X103864608Y-54220976D01*
X103870006Y-54223944D01*
X103870011Y-54223947D01*
X104039743Y-54317257D01*
X104045140Y-54320224D01*
X104241510Y-54382516D01*
X104247627Y-54383202D01*
X104247631Y-54383203D01*
X104323852Y-54391752D01*
X104401842Y-54400500D01*
X105784978Y-54400500D01*
X105853099Y-54420502D01*
X105899592Y-54474158D01*
X105910978Y-54526500D01*
X105910978Y-57253500D01*
X105890976Y-57321621D01*
X105837320Y-57368114D01*
X105784978Y-57379500D01*
X104409137Y-57379500D01*
X104255948Y-57394520D01*
X104058727Y-57454065D01*
X103876827Y-57550782D01*
X103813032Y-57602812D01*
X103721953Y-57677094D01*
X103721950Y-57677097D01*
X103717178Y-57680989D01*
X103713251Y-57685736D01*
X103713249Y-57685738D01*
X103589789Y-57834975D01*
X103589787Y-57834979D01*
X103585860Y-57839725D01*
X103487875Y-58020945D01*
X103426955Y-58217746D01*
X103426311Y-58223871D01*
X103426311Y-58223872D01*
X103425436Y-58232203D01*
X103405421Y-58422631D01*
X103406584Y-58435413D01*
X103422205Y-58607058D01*
X103424092Y-58627797D01*
X103482258Y-58825428D01*
X103577704Y-59007998D01*
X103581564Y-59012799D01*
X103581566Y-59012802D01*
X103671384Y-59124513D01*
X103706793Y-59168553D01*
X103864608Y-59300976D01*
X103870006Y-59303944D01*
X103870011Y-59303947D01*
X104039743Y-59397257D01*
X104045140Y-59400224D01*
X104241510Y-59462516D01*
X104247627Y-59463202D01*
X104247631Y-59463203D01*
X104323852Y-59471752D01*
X104401842Y-59480500D01*
X105784978Y-59480500D01*
X105853099Y-59500502D01*
X105899592Y-59554158D01*
X105910978Y-59606500D01*
X105910978Y-59793500D01*
X105890976Y-59861621D01*
X105837320Y-59908114D01*
X105784978Y-59919500D01*
X104409137Y-59919500D01*
X104255948Y-59934520D01*
X104058727Y-59994065D01*
X103876827Y-60090782D01*
X103813032Y-60142812D01*
X103721953Y-60217094D01*
X103721950Y-60217097D01*
X103717178Y-60220989D01*
X103713251Y-60225736D01*
X103713249Y-60225738D01*
X103589789Y-60374975D01*
X103589787Y-60374979D01*
X103585860Y-60379725D01*
X103487875Y-60560945D01*
X103426955Y-60757746D01*
X103426311Y-60763871D01*
X103426311Y-60763872D01*
X103425436Y-60772203D01*
X103405421Y-60962631D01*
X103406584Y-60975413D01*
X103422205Y-61147058D01*
X103424092Y-61167797D01*
X103482258Y-61365428D01*
X103577704Y-61547998D01*
X103581564Y-61552799D01*
X103581566Y-61552802D01*
X103671384Y-61664513D01*
X103706793Y-61708553D01*
X103864608Y-61840976D01*
X103870006Y-61843944D01*
X103870011Y-61843947D01*
X104039743Y-61937257D01*
X104045140Y-61940224D01*
X104241510Y-62002516D01*
X104247627Y-62003202D01*
X104247631Y-62003203D01*
X104323852Y-62011752D01*
X104401842Y-62020500D01*
X105784978Y-62020500D01*
X105853099Y-62040502D01*
X105899592Y-62094158D01*
X105910978Y-62146500D01*
X105910978Y-62333500D01*
X105890976Y-62401621D01*
X105837320Y-62448114D01*
X105784978Y-62459500D01*
X104409137Y-62459500D01*
X104255948Y-62474520D01*
X104058727Y-62534065D01*
X103876827Y-62630782D01*
X103813032Y-62682812D01*
X103721953Y-62757094D01*
X103721950Y-62757097D01*
X103717178Y-62760989D01*
X103713251Y-62765736D01*
X103713249Y-62765738D01*
X103589789Y-62914975D01*
X103589787Y-62914979D01*
X103585860Y-62919725D01*
X103487875Y-63100945D01*
X103426955Y-63297746D01*
X103426311Y-63303871D01*
X103426311Y-63303872D01*
X103424120Y-63324724D01*
X103405421Y-63502631D01*
X103406584Y-63515413D01*
X103422205Y-63687058D01*
X103424092Y-63707797D01*
X103482258Y-63905428D01*
X103577704Y-64087998D01*
X103581564Y-64092799D01*
X103581566Y-64092802D01*
X103698866Y-64238694D01*
X103706793Y-64248553D01*
X103864608Y-64380976D01*
X103870006Y-64383944D01*
X103870011Y-64383947D01*
X103998648Y-64454665D01*
X104045140Y-64480224D01*
X104241510Y-64542516D01*
X104247627Y-64543202D01*
X104247631Y-64543203D01*
X104323852Y-64551752D01*
X104401842Y-64560500D01*
X105784978Y-64560500D01*
X105853099Y-64580502D01*
X105899592Y-64634158D01*
X105910978Y-64686500D01*
X105910978Y-64873500D01*
X105890976Y-64941621D01*
X105837320Y-64988114D01*
X105784978Y-64999500D01*
X104409137Y-64999500D01*
X104255948Y-65014520D01*
X104058727Y-65074065D01*
X103876827Y-65170782D01*
X103813032Y-65222812D01*
X103721953Y-65297094D01*
X103721950Y-65297097D01*
X103717178Y-65300989D01*
X103713251Y-65305736D01*
X103713249Y-65305738D01*
X103589789Y-65454975D01*
X103589787Y-65454979D01*
X103585860Y-65459725D01*
X103487875Y-65640945D01*
X103426955Y-65837746D01*
X103426311Y-65843871D01*
X103426311Y-65843872D01*
X103425436Y-65852203D01*
X103405421Y-66042631D01*
X103406584Y-66055413D01*
X103422205Y-66227058D01*
X103424092Y-66247797D01*
X103482258Y-66445428D01*
X103577704Y-66627998D01*
X103581564Y-66632799D01*
X103581566Y-66632802D01*
X103606696Y-66664057D01*
X103706793Y-66788553D01*
X103864608Y-66920976D01*
X103870006Y-66923944D01*
X103870011Y-66923947D01*
X104039743Y-67017257D01*
X104045140Y-67020224D01*
X104241510Y-67082516D01*
X104247627Y-67083202D01*
X104247631Y-67083203D01*
X104323852Y-67091752D01*
X104401842Y-67100500D01*
X105784978Y-67100500D01*
X105853099Y-67120502D01*
X105899592Y-67174158D01*
X105910978Y-67226500D01*
X105910978Y-69953500D01*
X105890976Y-70021621D01*
X105837320Y-70068114D01*
X105784978Y-70079500D01*
X104409137Y-70079500D01*
X104255948Y-70094520D01*
X104058727Y-70154065D01*
X103876827Y-70250782D01*
X103795072Y-70317460D01*
X103721953Y-70377094D01*
X103721950Y-70377097D01*
X103717178Y-70380989D01*
X103713251Y-70385736D01*
X103713249Y-70385738D01*
X103589789Y-70534975D01*
X103589787Y-70534979D01*
X103585860Y-70539725D01*
X103487875Y-70720945D01*
X103426955Y-70917746D01*
X103426311Y-70923871D01*
X103426311Y-70923872D01*
X103409118Y-71087460D01*
X103405421Y-71122631D01*
X103409214Y-71164311D01*
X103422414Y-71309354D01*
X103424092Y-71327797D01*
X103482258Y-71525428D01*
X103577704Y-71707998D01*
X103581564Y-71712799D01*
X103581566Y-71712802D01*
X103668342Y-71820730D01*
X103706793Y-71868553D01*
X103864608Y-72000976D01*
X103870006Y-72003944D01*
X103870011Y-72003947D01*
X104039743Y-72097257D01*
X104045140Y-72100224D01*
X104051013Y-72102087D01*
X104233579Y-72160000D01*
X104241510Y-72162516D01*
X104247627Y-72163202D01*
X104247631Y-72163203D01*
X104323718Y-72171737D01*
X104401842Y-72180500D01*
X105784978Y-72180500D01*
X105853099Y-72200502D01*
X105899592Y-72254158D01*
X105910978Y-72306500D01*
X105910978Y-72493500D01*
X105890976Y-72561621D01*
X105837320Y-72608114D01*
X105784978Y-72619500D01*
X104409137Y-72619500D01*
X104255948Y-72634520D01*
X104058727Y-72694065D01*
X103876827Y-72790782D01*
X103813032Y-72842812D01*
X103721953Y-72917094D01*
X103721950Y-72917097D01*
X103717178Y-72920989D01*
X103713251Y-72925736D01*
X103713249Y-72925738D01*
X103589789Y-73074975D01*
X103589787Y-73074979D01*
X103585860Y-73079725D01*
X103487875Y-73260945D01*
X103426955Y-73457746D01*
X103426311Y-73463871D01*
X103426311Y-73463872D01*
X103406593Y-73651484D01*
X103405421Y-73662631D01*
X103411517Y-73729612D01*
X103422205Y-73847058D01*
X103424092Y-73867797D01*
X103482258Y-74065428D01*
X103577704Y-74247998D01*
X103581564Y-74252799D01*
X103581566Y-74252802D01*
X103673158Y-74366719D01*
X103706793Y-74408553D01*
X103864608Y-74540976D01*
X103870006Y-74543944D01*
X103870011Y-74543947D01*
X104025118Y-74629217D01*
X104045140Y-74640224D01*
X104241510Y-74702516D01*
X104247627Y-74703202D01*
X104247631Y-74703203D01*
X104323852Y-74711752D01*
X104401842Y-74720500D01*
X105784978Y-74720500D01*
X105853099Y-74740502D01*
X105899592Y-74794158D01*
X105910978Y-74846500D01*
X105910978Y-75033500D01*
X105890976Y-75101621D01*
X105837320Y-75148114D01*
X105784978Y-75159500D01*
X104409137Y-75159500D01*
X104255948Y-75174520D01*
X104058727Y-75234065D01*
X103876827Y-75330782D01*
X103813032Y-75382812D01*
X103721953Y-75457094D01*
X103721950Y-75457097D01*
X103717178Y-75460989D01*
X103713251Y-75465736D01*
X103713249Y-75465738D01*
X103589789Y-75614975D01*
X103589787Y-75614979D01*
X103585860Y-75619725D01*
X103487875Y-75800945D01*
X103426955Y-75997746D01*
X103426312Y-76003869D01*
X103426311Y-76003871D01*
X103416063Y-76101376D01*
X103389050Y-76167033D01*
X103330828Y-76207662D01*
X103289983Y-76214203D01*
X103265782Y-76214055D01*
X103257150Y-76216522D01*
X103143451Y-76249017D01*
X103143449Y-76249018D01*
X103134820Y-76251484D01*
X103127230Y-76256273D01*
X103039446Y-76311661D01*
X103019628Y-76324165D01*
X103013685Y-76330894D01*
X103013684Y-76330895D01*
X102973407Y-76376500D01*
X102929465Y-76426255D01*
X102925651Y-76434378D01*
X102925650Y-76434380D01*
X102902255Y-76484210D01*
X102871579Y-76549548D01*
X102870199Y-76558412D01*
X102870198Y-76558415D01*
X102857397Y-76640633D01*
X102850624Y-76684131D01*
X102851788Y-76693033D01*
X102851788Y-76693036D01*
X102853812Y-76708515D01*
X102868284Y-76819186D01*
X102871901Y-76827406D01*
X102916546Y-76928869D01*
X102923140Y-76943856D01*
X102928917Y-76950729D01*
X102928918Y-76950730D01*
X103005002Y-77041243D01*
X103010782Y-77048119D01*
X103124165Y-77123593D01*
X103155050Y-77133242D01*
X103240861Y-77160051D01*
X103254173Y-77164210D01*
X103390355Y-77166706D01*
X103433520Y-77154938D01*
X103513102Y-77133242D01*
X103513105Y-77133241D01*
X103521764Y-77130880D01*
X103529414Y-77126183D01*
X103529416Y-77126182D01*
X103630184Y-77064311D01*
X103630187Y-77064308D01*
X103637836Y-77059612D01*
X103643861Y-77052956D01*
X103650767Y-77047222D01*
X103651748Y-77048404D01*
X103703836Y-77016501D01*
X103774816Y-77018038D01*
X103817700Y-77041615D01*
X103864608Y-77080976D01*
X103870000Y-77083940D01*
X103870004Y-77083943D01*
X104016254Y-77164344D01*
X104045140Y-77180224D01*
X104241510Y-77242516D01*
X104247627Y-77243202D01*
X104247631Y-77243203D01*
X104316211Y-77250895D01*
X104401842Y-77260500D01*
X105784978Y-77260500D01*
X105853099Y-77280502D01*
X105899592Y-77334158D01*
X105910978Y-77386500D01*
X105910978Y-77573500D01*
X105890976Y-77641621D01*
X105837320Y-77688114D01*
X105784978Y-77699500D01*
X104409137Y-77699500D01*
X104255948Y-77714520D01*
X104058727Y-77774065D01*
X103876827Y-77870782D01*
X103813032Y-77922812D01*
X103721953Y-77997094D01*
X103721950Y-77997097D01*
X103717178Y-78000989D01*
X103713251Y-78005736D01*
X103713249Y-78005738D01*
X103589789Y-78154975D01*
X103589787Y-78154979D01*
X103585860Y-78159725D01*
X103487875Y-78340945D01*
X103426955Y-78537746D01*
X103426311Y-78543871D01*
X103426311Y-78543872D01*
X103409959Y-78699459D01*
X103405421Y-78742631D01*
X103413033Y-78826270D01*
X103422205Y-78927058D01*
X103424092Y-78947797D01*
X103482258Y-79145428D01*
X103485115Y-79150893D01*
X103489382Y-79159055D01*
X103577704Y-79327998D01*
X103581564Y-79332799D01*
X103581566Y-79332802D01*
X103668522Y-79440953D01*
X103706793Y-79488553D01*
X103864608Y-79620976D01*
X103870006Y-79623944D01*
X103870011Y-79623947D01*
X104039743Y-79717257D01*
X104045140Y-79720224D01*
X104241510Y-79782516D01*
X104247627Y-79783202D01*
X104247631Y-79783203D01*
X104323852Y-79791752D01*
X104401842Y-79800500D01*
X105784978Y-79800500D01*
X105853099Y-79820502D01*
X105899592Y-79874158D01*
X105910978Y-79926500D01*
X105910978Y-82653500D01*
X105890976Y-82721621D01*
X105837320Y-82768114D01*
X105784978Y-82779500D01*
X104409137Y-82779500D01*
X104255948Y-82794520D01*
X104058727Y-82854065D01*
X103876827Y-82950782D01*
X103825501Y-82992643D01*
X103721953Y-83077094D01*
X103721950Y-83077097D01*
X103717178Y-83080989D01*
X103713251Y-83085736D01*
X103713249Y-83085738D01*
X103589789Y-83234975D01*
X103589787Y-83234979D01*
X103585860Y-83239725D01*
X103487875Y-83420945D01*
X103426955Y-83617746D01*
X103426311Y-83623871D01*
X103426311Y-83623872D01*
X103408532Y-83793036D01*
X103405421Y-83822631D01*
X103411193Y-83886054D01*
X103422205Y-84007058D01*
X103424092Y-84027797D01*
X103482258Y-84225428D01*
X103485115Y-84230893D01*
X103503838Y-84266706D01*
X103577704Y-84407998D01*
X103581564Y-84412799D01*
X103581566Y-84412802D01*
X103671384Y-84524513D01*
X103706793Y-84568553D01*
X103864608Y-84700976D01*
X103870006Y-84703944D01*
X103870011Y-84703947D01*
X104038532Y-84796591D01*
X104045140Y-84800224D01*
X104241510Y-84862516D01*
X104247627Y-84863202D01*
X104247631Y-84863203D01*
X104323852Y-84871752D01*
X104401842Y-84880500D01*
X105784978Y-84880500D01*
X105853099Y-84900502D01*
X105899592Y-84954158D01*
X105910978Y-85006500D01*
X105910978Y-85193500D01*
X105890976Y-85261621D01*
X105837320Y-85308114D01*
X105784978Y-85319500D01*
X104409137Y-85319500D01*
X104255948Y-85334520D01*
X104058727Y-85394065D01*
X103876827Y-85490782D01*
X103813032Y-85542812D01*
X103721953Y-85617094D01*
X103721950Y-85617097D01*
X103717178Y-85620989D01*
X103713251Y-85625736D01*
X103713249Y-85625738D01*
X103589789Y-85774975D01*
X103589787Y-85774979D01*
X103585860Y-85779725D01*
X103487875Y-85960945D01*
X103426955Y-86157746D01*
X103426311Y-86163871D01*
X103426311Y-86163872D01*
X103425436Y-86172203D01*
X103405421Y-86362631D01*
X103406584Y-86375413D01*
X103423273Y-86558794D01*
X103424092Y-86567797D01*
X103482258Y-86765428D01*
X103577704Y-86947998D01*
X103581564Y-86952799D01*
X103581566Y-86952802D01*
X103671384Y-87064513D01*
X103706793Y-87108553D01*
X103864608Y-87240976D01*
X103870006Y-87243944D01*
X103870011Y-87243947D01*
X104039743Y-87337257D01*
X104045140Y-87340224D01*
X104241510Y-87402516D01*
X104247627Y-87403202D01*
X104247631Y-87403203D01*
X104323852Y-87411752D01*
X104401842Y-87420500D01*
X105784978Y-87420500D01*
X105853099Y-87440502D01*
X105899592Y-87494158D01*
X105910978Y-87546500D01*
X105910978Y-87733500D01*
X105890976Y-87801621D01*
X105837320Y-87848114D01*
X105784978Y-87859500D01*
X104409137Y-87859500D01*
X104255948Y-87874520D01*
X104058727Y-87934065D01*
X103876827Y-88030782D01*
X103813032Y-88082812D01*
X103721953Y-88157094D01*
X103721950Y-88157097D01*
X103717178Y-88160989D01*
X103713251Y-88165736D01*
X103713249Y-88165738D01*
X103589789Y-88314975D01*
X103589787Y-88314979D01*
X103585860Y-88319725D01*
X103549996Y-88386054D01*
X103496153Y-88485636D01*
X103487875Y-88500945D01*
X103426955Y-88697746D01*
X103426311Y-88703871D01*
X103426311Y-88703872D01*
X103409583Y-88863036D01*
X103405421Y-88902631D01*
X103413298Y-88989186D01*
X103422205Y-89087058D01*
X103424092Y-89107797D01*
X103482258Y-89305428D01*
X103577704Y-89487998D01*
X103581564Y-89492799D01*
X103581566Y-89492802D01*
X103659715Y-89590000D01*
X103706793Y-89648553D01*
X103864608Y-89780976D01*
X103870006Y-89783944D01*
X103870011Y-89783947D01*
X104039743Y-89877257D01*
X104045140Y-89880224D01*
X104241510Y-89942516D01*
X104247627Y-89943202D01*
X104247631Y-89943203D01*
X104323852Y-89951752D01*
X104401842Y-89960500D01*
X105784978Y-89960500D01*
X105853099Y-89980502D01*
X105899592Y-90034158D01*
X105910978Y-90086500D01*
X105910978Y-90273500D01*
X105890976Y-90341621D01*
X105837320Y-90388114D01*
X105784978Y-90399500D01*
X104409137Y-90399500D01*
X104255948Y-90414520D01*
X104058727Y-90474065D01*
X103876827Y-90570782D01*
X103813032Y-90622812D01*
X103721953Y-90697094D01*
X103721950Y-90697097D01*
X103717178Y-90700989D01*
X103713251Y-90705736D01*
X103713249Y-90705738D01*
X103589789Y-90854975D01*
X103589787Y-90854979D01*
X103585860Y-90859725D01*
X103487875Y-91040945D01*
X103426955Y-91237746D01*
X103426311Y-91243871D01*
X103426311Y-91243872D01*
X103425436Y-91252203D01*
X103405421Y-91442631D01*
X103406584Y-91455413D01*
X103422205Y-91627058D01*
X103424092Y-91647797D01*
X103482258Y-91845428D01*
X103577704Y-92027998D01*
X103581564Y-92032799D01*
X103581566Y-92032802D01*
X103671384Y-92144513D01*
X103706793Y-92188553D01*
X103864608Y-92320976D01*
X103870006Y-92323944D01*
X103870011Y-92323947D01*
X104039743Y-92417257D01*
X104045140Y-92420224D01*
X104241510Y-92482516D01*
X104247627Y-92483202D01*
X104247631Y-92483203D01*
X104323852Y-92491752D01*
X104401842Y-92500500D01*
X105784978Y-92500500D01*
X105853099Y-92520502D01*
X105899592Y-92574158D01*
X105910978Y-92626500D01*
X105910978Y-95353500D01*
X105890976Y-95421621D01*
X105837320Y-95468114D01*
X105784978Y-95479500D01*
X104409137Y-95479500D01*
X104255948Y-95494520D01*
X104058727Y-95554065D01*
X103876827Y-95650782D01*
X103786880Y-95724141D01*
X103721953Y-95777094D01*
X103721950Y-95777097D01*
X103717178Y-95780989D01*
X103713251Y-95785736D01*
X103713249Y-95785738D01*
X103589789Y-95934975D01*
X103589787Y-95934979D01*
X103585860Y-95939725D01*
X103487875Y-96120945D01*
X103426955Y-96317746D01*
X103426311Y-96323871D01*
X103426311Y-96323872D01*
X103425436Y-96332203D01*
X103405421Y-96522631D01*
X103406584Y-96535413D01*
X103422205Y-96707058D01*
X103424092Y-96727797D01*
X103482258Y-96925428D01*
X103577704Y-97107998D01*
X103581564Y-97112799D01*
X103581566Y-97112802D01*
X103671384Y-97224513D01*
X103706793Y-97268553D01*
X103864608Y-97400976D01*
X103870006Y-97403944D01*
X103870011Y-97403947D01*
X104039743Y-97497257D01*
X104045140Y-97500224D01*
X104241510Y-97562516D01*
X104247627Y-97563202D01*
X104247631Y-97563203D01*
X104323852Y-97571752D01*
X104401842Y-97580500D01*
X105784978Y-97580500D01*
X105853099Y-97600502D01*
X105899592Y-97654158D01*
X105910978Y-97706500D01*
X105910978Y-97893500D01*
X105890976Y-97961621D01*
X105837320Y-98008114D01*
X105784978Y-98019500D01*
X104409137Y-98019500D01*
X104255948Y-98034520D01*
X104058727Y-98094065D01*
X103876827Y-98190782D01*
X103813032Y-98242812D01*
X103721953Y-98317094D01*
X103721950Y-98317097D01*
X103717178Y-98320989D01*
X103713251Y-98325736D01*
X103713249Y-98325738D01*
X103589789Y-98474975D01*
X103589787Y-98474979D01*
X103585860Y-98479725D01*
X103487875Y-98660945D01*
X103426955Y-98857746D01*
X103426311Y-98863871D01*
X103426311Y-98863872D01*
X103425436Y-98872203D01*
X103405421Y-99062631D01*
X103406584Y-99075413D01*
X103422205Y-99247058D01*
X103424092Y-99267797D01*
X103482258Y-99465428D01*
X103577704Y-99647998D01*
X103581564Y-99652799D01*
X103581566Y-99652802D01*
X103671384Y-99764513D01*
X103706793Y-99808553D01*
X103741268Y-99837481D01*
X103780593Y-99896587D01*
X103781719Y-99967575D01*
X103744288Y-100027903D01*
X103680184Y-100058417D01*
X103660275Y-100060000D01*
X103187478Y-100060000D01*
X103119357Y-100039998D01*
X103072864Y-99986342D01*
X103061478Y-99934000D01*
X103061478Y-98558159D01*
X103046458Y-98404970D01*
X102986913Y-98207749D01*
X102890196Y-98025849D01*
X102816837Y-97935902D01*
X102763884Y-97870975D01*
X102763881Y-97870972D01*
X102759989Y-97866200D01*
X102742764Y-97851950D01*
X102606003Y-97738811D01*
X102605999Y-97738809D01*
X102601253Y-97734882D01*
X102420033Y-97636897D01*
X102223232Y-97575977D01*
X102217107Y-97575333D01*
X102217106Y-97575333D01*
X102024476Y-97555087D01*
X102024474Y-97555087D01*
X102018347Y-97554443D01*
X101950109Y-97560653D01*
X101819320Y-97572555D01*
X101819317Y-97572556D01*
X101813181Y-97573114D01*
X101615550Y-97631280D01*
X101432980Y-97726726D01*
X101428179Y-97730586D01*
X101428176Y-97730588D01*
X101417949Y-97738811D01*
X101272425Y-97855815D01*
X101140002Y-98013630D01*
X101137034Y-98019028D01*
X101137031Y-98019033D01*
X101093667Y-98097913D01*
X101040754Y-98194162D01*
X100978462Y-98390532D01*
X100977776Y-98396649D01*
X100977775Y-98396653D01*
X100970407Y-98462344D01*
X100960478Y-98550864D01*
X100960478Y-99934000D01*
X100940476Y-100002121D01*
X100886820Y-100048614D01*
X100834478Y-100060000D01*
X98107478Y-100060000D01*
X98039357Y-100039998D01*
X97992864Y-99986342D01*
X97981478Y-99934000D01*
X97981478Y-98558159D01*
X97966458Y-98404970D01*
X97906913Y-98207749D01*
X97810196Y-98025849D01*
X97736837Y-97935902D01*
X97683884Y-97870975D01*
X97683881Y-97870972D01*
X97679989Y-97866200D01*
X97662764Y-97851950D01*
X97526003Y-97738811D01*
X97525999Y-97738809D01*
X97521253Y-97734882D01*
X97340033Y-97636897D01*
X97143232Y-97575977D01*
X97137107Y-97575333D01*
X97137106Y-97575333D01*
X96944476Y-97555087D01*
X96944474Y-97555087D01*
X96938347Y-97554443D01*
X96870109Y-97560653D01*
X96739320Y-97572555D01*
X96739317Y-97572556D01*
X96733181Y-97573114D01*
X96535550Y-97631280D01*
X96352980Y-97726726D01*
X96348179Y-97730586D01*
X96348176Y-97730588D01*
X96337949Y-97738811D01*
X96192425Y-97855815D01*
X96060002Y-98013630D01*
X96057034Y-98019028D01*
X96057031Y-98019033D01*
X96013667Y-98097913D01*
X95960754Y-98194162D01*
X95898462Y-98390532D01*
X95897776Y-98396649D01*
X95897775Y-98396653D01*
X95890407Y-98462344D01*
X95880478Y-98550864D01*
X95880478Y-99934000D01*
X95860476Y-100002121D01*
X95806820Y-100048614D01*
X95754478Y-100060000D01*
X95567478Y-100060000D01*
X95499357Y-100039998D01*
X95452864Y-99986342D01*
X95441478Y-99934000D01*
X95441478Y-98558159D01*
X95426458Y-98404970D01*
X95366913Y-98207749D01*
X95270196Y-98025849D01*
X95196837Y-97935902D01*
X95143884Y-97870975D01*
X95143881Y-97870972D01*
X95139989Y-97866200D01*
X95122764Y-97851950D01*
X94986003Y-97738811D01*
X94985999Y-97738809D01*
X94981253Y-97734882D01*
X94800033Y-97636897D01*
X94603232Y-97575977D01*
X94597107Y-97575333D01*
X94597106Y-97575333D01*
X94404476Y-97555087D01*
X94404474Y-97555087D01*
X94398347Y-97554443D01*
X94330109Y-97560653D01*
X94199320Y-97572555D01*
X94199317Y-97572556D01*
X94193181Y-97573114D01*
X93995550Y-97631280D01*
X93812980Y-97726726D01*
X93808179Y-97730586D01*
X93808176Y-97730588D01*
X93797949Y-97738811D01*
X93652425Y-97855815D01*
X93520002Y-98013630D01*
X93517034Y-98019028D01*
X93517031Y-98019033D01*
X93473667Y-98097913D01*
X93420754Y-98194162D01*
X93358462Y-98390532D01*
X93357776Y-98396649D01*
X93357775Y-98396653D01*
X93350407Y-98462344D01*
X93340478Y-98550864D01*
X93340478Y-99934000D01*
X93320476Y-100002121D01*
X93266820Y-100048614D01*
X93214478Y-100060000D01*
X90487478Y-100060000D01*
X90419357Y-100039998D01*
X90372864Y-99986342D01*
X90361478Y-99934000D01*
X90361478Y-98558159D01*
X90346458Y-98404970D01*
X90286913Y-98207749D01*
X90190196Y-98025849D01*
X90116837Y-97935902D01*
X90063884Y-97870975D01*
X90063881Y-97870972D01*
X90059989Y-97866200D01*
X90042764Y-97851950D01*
X89906003Y-97738811D01*
X89905999Y-97738809D01*
X89901253Y-97734882D01*
X89720033Y-97636897D01*
X89523232Y-97575977D01*
X89517107Y-97575333D01*
X89517106Y-97575333D01*
X89324476Y-97555087D01*
X89324474Y-97555087D01*
X89318347Y-97554443D01*
X89250109Y-97560653D01*
X89119320Y-97572555D01*
X89119317Y-97572556D01*
X89113181Y-97573114D01*
X88915550Y-97631280D01*
X88732980Y-97726726D01*
X88728179Y-97730586D01*
X88728176Y-97730588D01*
X88717949Y-97738811D01*
X88572425Y-97855815D01*
X88440002Y-98013630D01*
X88437034Y-98019028D01*
X88437031Y-98019033D01*
X88393667Y-98097913D01*
X88340754Y-98194162D01*
X88278462Y-98390532D01*
X88277776Y-98396649D01*
X88277775Y-98396653D01*
X88270407Y-98462344D01*
X88260478Y-98550864D01*
X88260478Y-99934000D01*
X88240476Y-100002121D01*
X88186820Y-100048614D01*
X88134478Y-100060000D01*
X87663146Y-100060000D01*
X87595025Y-100039998D01*
X87548532Y-99986342D01*
X87538428Y-99916068D01*
X87567922Y-99851488D01*
X87583510Y-99836358D01*
X87599997Y-99822912D01*
X87600007Y-99822903D01*
X87604778Y-99819011D01*
X87613430Y-99808553D01*
X87732167Y-99665025D01*
X87732169Y-99665021D01*
X87736096Y-99660275D01*
X87834081Y-99479055D01*
X87895001Y-99282254D01*
X87895900Y-99273705D01*
X87915891Y-99083498D01*
X87915891Y-99083496D01*
X87916535Y-99077369D01*
X87900712Y-98903500D01*
X87898423Y-98878342D01*
X87898422Y-98878339D01*
X87897864Y-98872203D01*
X87839698Y-98674572D01*
X87744252Y-98492002D01*
X87734382Y-98479725D01*
X87619028Y-98336254D01*
X87619028Y-98336253D01*
X87615163Y-98331447D01*
X87457348Y-98199024D01*
X87451950Y-98196056D01*
X87451945Y-98196053D01*
X87282213Y-98102743D01*
X87276816Y-98099776D01*
X87080446Y-98037484D01*
X87074329Y-98036798D01*
X87074325Y-98036797D01*
X86998104Y-98028248D01*
X86920114Y-98019500D01*
X85536978Y-98019500D01*
X85468857Y-97999498D01*
X85422364Y-97945842D01*
X85410978Y-97893500D01*
X85410978Y-97706500D01*
X85430980Y-97638379D01*
X85484636Y-97591886D01*
X85536978Y-97580500D01*
X86912819Y-97580500D01*
X87066008Y-97565480D01*
X87263229Y-97505935D01*
X87445129Y-97409218D01*
X87535076Y-97335859D01*
X87600003Y-97282906D01*
X87600006Y-97282903D01*
X87604778Y-97279011D01*
X87613430Y-97268553D01*
X87732167Y-97125025D01*
X87732169Y-97125021D01*
X87736096Y-97120275D01*
X87834081Y-96939055D01*
X87895001Y-96742254D01*
X87895900Y-96733705D01*
X87915891Y-96543498D01*
X87915891Y-96543496D01*
X87916535Y-96537369D01*
X87900712Y-96363500D01*
X87898423Y-96338342D01*
X87898422Y-96338339D01*
X87897864Y-96332203D01*
X87839698Y-96134572D01*
X87744252Y-95952002D01*
X87734382Y-95939725D01*
X87619028Y-95796254D01*
X87619028Y-95796253D01*
X87615163Y-95791447D01*
X87457348Y-95659024D01*
X87451950Y-95656056D01*
X87451945Y-95656053D01*
X87282213Y-95562743D01*
X87276816Y-95559776D01*
X87080446Y-95497484D01*
X87074329Y-95496798D01*
X87074325Y-95496797D01*
X86998104Y-95488248D01*
X86920114Y-95479500D01*
X85536978Y-95479500D01*
X85468857Y-95459498D01*
X85446876Y-95434131D01*
X99350624Y-95434131D01*
X99351788Y-95443033D01*
X99351788Y-95443036D01*
X99356596Y-95479801D01*
X99368284Y-95569186D01*
X99423140Y-95693856D01*
X99428917Y-95700729D01*
X99428918Y-95700730D01*
X99441158Y-95715291D01*
X99510782Y-95798119D01*
X99624165Y-95873593D01*
X99754173Y-95914210D01*
X99890355Y-95916706D01*
X99933520Y-95904938D01*
X100013102Y-95883242D01*
X100013105Y-95883241D01*
X100021764Y-95880880D01*
X100029414Y-95876183D01*
X100029416Y-95876182D01*
X100130184Y-95814311D01*
X100130187Y-95814308D01*
X100137836Y-95809612D01*
X100145355Y-95801306D01*
X100223211Y-95715291D01*
X100223212Y-95715290D01*
X100229239Y-95708631D01*
X100236398Y-95693856D01*
X100284712Y-95594135D01*
X100284712Y-95594134D01*
X100288627Y-95586054D01*
X100306488Y-95479893D01*
X100310419Y-95456530D01*
X100310419Y-95456525D01*
X100311225Y-95451737D01*
X100311368Y-95440000D01*
X100292059Y-95305171D01*
X100235684Y-95181180D01*
X100146774Y-95077996D01*
X100133472Y-95069374D01*
X100040010Y-95008794D01*
X100040008Y-95008793D01*
X100032479Y-95003913D01*
X100023882Y-95001342D01*
X100023880Y-95001341D01*
X99946951Y-94978335D01*
X99901984Y-94964887D01*
X99893008Y-94964832D01*
X99893007Y-94964832D01*
X99836014Y-94964484D01*
X99765782Y-94964055D01*
X99757150Y-94966522D01*
X99643451Y-94999017D01*
X99643449Y-94999018D01*
X99634820Y-95001484D01*
X99519628Y-95074165D01*
X99429465Y-95176255D01*
X99371579Y-95299548D01*
X99370199Y-95308412D01*
X99370198Y-95308415D01*
X99352572Y-95421621D01*
X99350624Y-95434131D01*
X85446876Y-95434131D01*
X85422364Y-95405842D01*
X85410978Y-95353500D01*
X85410978Y-93934131D01*
X91950624Y-93934131D01*
X91951788Y-93943033D01*
X91951788Y-93943036D01*
X91954642Y-93964860D01*
X91968284Y-94069186D01*
X92023140Y-94193856D01*
X92028917Y-94200729D01*
X92028918Y-94200730D01*
X92105002Y-94291243D01*
X92110782Y-94298119D01*
X92224165Y-94373593D01*
X92288182Y-94393593D01*
X92344302Y-94411126D01*
X92354173Y-94414210D01*
X92490355Y-94416706D01*
X92539741Y-94403242D01*
X92613102Y-94383242D01*
X92613105Y-94383241D01*
X92621764Y-94380880D01*
X92629414Y-94376183D01*
X92629416Y-94376182D01*
X92730184Y-94314311D01*
X92730187Y-94314308D01*
X92737836Y-94309612D01*
X92776673Y-94266706D01*
X92823211Y-94215291D01*
X92823212Y-94215290D01*
X92829239Y-94208631D01*
X92836398Y-94193856D01*
X92878881Y-94106170D01*
X92926583Y-94053587D01*
X92995142Y-94035141D01*
X93062789Y-94056688D01*
X93107601Y-94110361D01*
X93153140Y-94213856D01*
X93158917Y-94220729D01*
X93158918Y-94220730D01*
X93195467Y-94264210D01*
X93240782Y-94318119D01*
X93272402Y-94339167D01*
X93335067Y-94380880D01*
X93354165Y-94393593D01*
X93484173Y-94434210D01*
X93620355Y-94436706D01*
X93663520Y-94424938D01*
X93743102Y-94403242D01*
X93743105Y-94403241D01*
X93751764Y-94400880D01*
X93759414Y-94396183D01*
X93759416Y-94396182D01*
X93854095Y-94338049D01*
X93922612Y-94319451D01*
X93989842Y-94340537D01*
X94073569Y-94396270D01*
X94091997Y-94408537D01*
X94222005Y-94449154D01*
X94358187Y-94451650D01*
X94401352Y-94439882D01*
X94480934Y-94418186D01*
X94480937Y-94418185D01*
X94489596Y-94415824D01*
X94497246Y-94411127D01*
X94497248Y-94411126D01*
X94566479Y-94368618D01*
X94605668Y-94344556D01*
X94610789Y-94338898D01*
X94675354Y-94311043D01*
X94745399Y-94322627D01*
X94760466Y-94331221D01*
X94854165Y-94393593D01*
X94984173Y-94434210D01*
X95120355Y-94436706D01*
X95163520Y-94424938D01*
X95243102Y-94403242D01*
X95243105Y-94403241D01*
X95251764Y-94400880D01*
X95259414Y-94396183D01*
X95259416Y-94396182D01*
X95360184Y-94334311D01*
X95360187Y-94334308D01*
X95367836Y-94329612D01*
X95374159Y-94322627D01*
X95453211Y-94235291D01*
X95453212Y-94235290D01*
X95459239Y-94228631D01*
X95464091Y-94218618D01*
X95514712Y-94114135D01*
X95514712Y-94114134D01*
X95518627Y-94106054D01*
X95541225Y-93971737D01*
X95541368Y-93960000D01*
X95522059Y-93825171D01*
X95513584Y-93806530D01*
X95503399Y-93784131D01*
X98450624Y-93784131D01*
X98451788Y-93793033D01*
X98451788Y-93793036D01*
X98452640Y-93799548D01*
X98468284Y-93919186D01*
X98523140Y-94043856D01*
X98528917Y-94050729D01*
X98528918Y-94050730D01*
X98605002Y-94141243D01*
X98610782Y-94148119D01*
X98618259Y-94153096D01*
X98697189Y-94205636D01*
X98724165Y-94223593D01*
X98854173Y-94264210D01*
X98990355Y-94266706D01*
X99035383Y-94254430D01*
X99113102Y-94233242D01*
X99113105Y-94233241D01*
X99121764Y-94230880D01*
X99129414Y-94226183D01*
X99129416Y-94226182D01*
X99230184Y-94164311D01*
X99230187Y-94164308D01*
X99237836Y-94159612D01*
X99294328Y-94097201D01*
X99323211Y-94065291D01*
X99323212Y-94065290D01*
X99329239Y-94058631D01*
X99336398Y-94043856D01*
X99384712Y-93944135D01*
X99384712Y-93944134D01*
X99388627Y-93936054D01*
X99401096Y-93861941D01*
X99410419Y-93806530D01*
X99410419Y-93806525D01*
X99411225Y-93801737D01*
X99411368Y-93790000D01*
X99399819Y-93709354D01*
X99393332Y-93664057D01*
X99393331Y-93664054D01*
X99392059Y-93655171D01*
X99335684Y-93531180D01*
X99310081Y-93501466D01*
X99252635Y-93434798D01*
X99246774Y-93427996D01*
X99233472Y-93419374D01*
X99140010Y-93358794D01*
X99140008Y-93358793D01*
X99132479Y-93353913D01*
X99123882Y-93351342D01*
X99123880Y-93351341D01*
X99046951Y-93328335D01*
X99001984Y-93314887D01*
X98993008Y-93314832D01*
X98993007Y-93314832D01*
X98936014Y-93314484D01*
X98865782Y-93314055D01*
X98857150Y-93316522D01*
X98743451Y-93349017D01*
X98743449Y-93349018D01*
X98734820Y-93351484D01*
X98619628Y-93424165D01*
X98613685Y-93430894D01*
X98613684Y-93430895D01*
X98549197Y-93503913D01*
X98529465Y-93526255D01*
X98525651Y-93534378D01*
X98525650Y-93534380D01*
X98501979Y-93584798D01*
X98471579Y-93649548D01*
X98470199Y-93658412D01*
X98470198Y-93658415D01*
X98463540Y-93701180D01*
X98450624Y-93784131D01*
X95503399Y-93784131D01*
X95465684Y-93701180D01*
X95376774Y-93597996D01*
X95332616Y-93569374D01*
X95270010Y-93528794D01*
X95270008Y-93528793D01*
X95262479Y-93523913D01*
X95253882Y-93521342D01*
X95253880Y-93521341D01*
X95176951Y-93498335D01*
X95131984Y-93484887D01*
X95123008Y-93484832D01*
X95123007Y-93484832D01*
X95066014Y-93484484D01*
X94995782Y-93484055D01*
X94987150Y-93486522D01*
X94873451Y-93519017D01*
X94873449Y-93519018D01*
X94864820Y-93521484D01*
X94857230Y-93526273D01*
X94770660Y-93580895D01*
X94749628Y-93594165D01*
X94748182Y-93595803D01*
X94686464Y-93623329D01*
X94616282Y-93612602D01*
X94601107Y-93604189D01*
X94507845Y-93543740D01*
X94507843Y-93543739D01*
X94500311Y-93538857D01*
X94491714Y-93536286D01*
X94491712Y-93536285D01*
X94399786Y-93508794D01*
X94369816Y-93499831D01*
X94360840Y-93499776D01*
X94360839Y-93499776D01*
X94303846Y-93499428D01*
X94233614Y-93498999D01*
X94224982Y-93501466D01*
X94111283Y-93533961D01*
X94111281Y-93533962D01*
X94102652Y-93536428D01*
X94095061Y-93541218D01*
X94095058Y-93541219D01*
X94008208Y-93596017D01*
X93939923Y-93615451D01*
X93872440Y-93595187D01*
X93762479Y-93523913D01*
X93753882Y-93521342D01*
X93753880Y-93521341D01*
X93676951Y-93498335D01*
X93631984Y-93484887D01*
X93623008Y-93484832D01*
X93623007Y-93484832D01*
X93566014Y-93484484D01*
X93495782Y-93484055D01*
X93487150Y-93486522D01*
X93373451Y-93519017D01*
X93373449Y-93519018D01*
X93364820Y-93521484D01*
X93357230Y-93526273D01*
X93270660Y-93580895D01*
X93249628Y-93594165D01*
X93159465Y-93696255D01*
X93155651Y-93704378D01*
X93155650Y-93704380D01*
X93114349Y-93792348D01*
X93067292Y-93845510D01*
X92998964Y-93864792D01*
X92931058Y-93844072D01*
X92885593Y-93790950D01*
X92878459Y-93775259D01*
X92835684Y-93681180D01*
X92746774Y-93577996D01*
X92690035Y-93541219D01*
X92640010Y-93508794D01*
X92640008Y-93508793D01*
X92632479Y-93503913D01*
X92623882Y-93501342D01*
X92623880Y-93501341D01*
X92546951Y-93478335D01*
X92501984Y-93464887D01*
X92493008Y-93464832D01*
X92493007Y-93464832D01*
X92436014Y-93464484D01*
X92365782Y-93464055D01*
X92357150Y-93466522D01*
X92243451Y-93499017D01*
X92243449Y-93499018D01*
X92234820Y-93501484D01*
X92227230Y-93506273D01*
X92167849Y-93543740D01*
X92119628Y-93574165D01*
X92113685Y-93580894D01*
X92113684Y-93580895D01*
X92085383Y-93612940D01*
X92029465Y-93676255D01*
X92025651Y-93684378D01*
X92025650Y-93684380D01*
X92016260Y-93704380D01*
X91971579Y-93799548D01*
X91970199Y-93808412D01*
X91970198Y-93808415D01*
X91954338Y-93910281D01*
X91950624Y-93934131D01*
X85410978Y-93934131D01*
X85410978Y-92626500D01*
X85430980Y-92558379D01*
X85484636Y-92511886D01*
X85536978Y-92500500D01*
X86912819Y-92500500D01*
X87066008Y-92485480D01*
X87263229Y-92425935D01*
X87445129Y-92329218D01*
X87535076Y-92255859D01*
X87600003Y-92202906D01*
X87600006Y-92202903D01*
X87604778Y-92199011D01*
X87613430Y-92188553D01*
X87732167Y-92045025D01*
X87732169Y-92045021D01*
X87736096Y-92040275D01*
X87834081Y-91859055D01*
X87895001Y-91662254D01*
X87895900Y-91653705D01*
X87915891Y-91463498D01*
X87915891Y-91463496D01*
X87916535Y-91457369D01*
X87900712Y-91283500D01*
X87898423Y-91258342D01*
X87898422Y-91258339D01*
X87897864Y-91252203D01*
X87839698Y-91054572D01*
X87744252Y-90872002D01*
X87734382Y-90859725D01*
X87619028Y-90716254D01*
X87619028Y-90716253D01*
X87615163Y-90711447D01*
X87457348Y-90579024D01*
X87451950Y-90576056D01*
X87451945Y-90576053D01*
X87282213Y-90482743D01*
X87276816Y-90479776D01*
X87080446Y-90417484D01*
X87074329Y-90416798D01*
X87074325Y-90416797D01*
X86998104Y-90408248D01*
X86920114Y-90399500D01*
X85536978Y-90399500D01*
X85468857Y-90379498D01*
X85422364Y-90325842D01*
X85410978Y-90273500D01*
X85410978Y-90086500D01*
X85430980Y-90018379D01*
X85484636Y-89971886D01*
X85536978Y-89960500D01*
X86912819Y-89960500D01*
X87066008Y-89945480D01*
X87263229Y-89885935D01*
X87445129Y-89789218D01*
X87535076Y-89715859D01*
X87600003Y-89662906D01*
X87600006Y-89662903D01*
X87604778Y-89659011D01*
X87613430Y-89648553D01*
X87732167Y-89505025D01*
X87732169Y-89505021D01*
X87736096Y-89500275D01*
X87834081Y-89319055D01*
X87895001Y-89122254D01*
X87895900Y-89113705D01*
X87915891Y-88923498D01*
X87915891Y-88923496D01*
X87916535Y-88917369D01*
X87899853Y-88734057D01*
X87898423Y-88718342D01*
X87898422Y-88718339D01*
X87897864Y-88712203D01*
X87839698Y-88514572D01*
X87744252Y-88332002D01*
X87734382Y-88319725D01*
X87619028Y-88176254D01*
X87619028Y-88176253D01*
X87615163Y-88171447D01*
X87457348Y-88039024D01*
X87451950Y-88036056D01*
X87451945Y-88036053D01*
X87417751Y-88017255D01*
X88456124Y-88017255D01*
X88457288Y-88026157D01*
X88457288Y-88026160D01*
X88459053Y-88039654D01*
X88473784Y-88152310D01*
X88528640Y-88276980D01*
X88534417Y-88283853D01*
X88534418Y-88283854D01*
X88598662Y-88360281D01*
X88616282Y-88381243D01*
X88623755Y-88386217D01*
X88626063Y-88388281D01*
X88663514Y-88448597D01*
X88662409Y-88519585D01*
X88636522Y-88565617D01*
X88615410Y-88589523D01*
X88615409Y-88589525D01*
X88609465Y-88596255D01*
X88605651Y-88604378D01*
X88605650Y-88604380D01*
X88577843Y-88663607D01*
X88551579Y-88719548D01*
X88550199Y-88728412D01*
X88550198Y-88728415D01*
X88547850Y-88743500D01*
X88530624Y-88854131D01*
X88531788Y-88863033D01*
X88531788Y-88863036D01*
X88532926Y-88871737D01*
X88548284Y-88989186D01*
X88603140Y-89113856D01*
X88608917Y-89120729D01*
X88608918Y-89120730D01*
X88621158Y-89135291D01*
X88690782Y-89218119D01*
X88804165Y-89293593D01*
X88934173Y-89334210D01*
X89070355Y-89336706D01*
X89115222Y-89324474D01*
X89193102Y-89303242D01*
X89193105Y-89303241D01*
X89201764Y-89300880D01*
X89209414Y-89296183D01*
X89209416Y-89296182D01*
X89310184Y-89234311D01*
X89310187Y-89234308D01*
X89317836Y-89229612D01*
X89409239Y-89128631D01*
X89416398Y-89113856D01*
X89464712Y-89014135D01*
X89464712Y-89014134D01*
X89468627Y-89006054D01*
X89486027Y-88902631D01*
X89490419Y-88876530D01*
X89490419Y-88876525D01*
X89491225Y-88871737D01*
X89491368Y-88860000D01*
X89472059Y-88725171D01*
X89467076Y-88714210D01*
X89421654Y-88614311D01*
X89415684Y-88601180D01*
X89346151Y-88520484D01*
X89332632Y-88504794D01*
X89332630Y-88504793D01*
X89326774Y-88497996D01*
X89321904Y-88494840D01*
X89284578Y-88436330D01*
X89284815Y-88365334D01*
X89312177Y-88316681D01*
X89328711Y-88298415D01*
X89328712Y-88298414D01*
X89334739Y-88291755D01*
X89341898Y-88276980D01*
X89362658Y-88234131D01*
X92100624Y-88234131D01*
X92101788Y-88243033D01*
X92101788Y-88243036D01*
X92102926Y-88251737D01*
X92118284Y-88369186D01*
X92121901Y-88377406D01*
X92159494Y-88462842D01*
X92173140Y-88493856D01*
X92178917Y-88500729D01*
X92178918Y-88500730D01*
X92253556Y-88589523D01*
X92260782Y-88598119D01*
X92374165Y-88673593D01*
X92405050Y-88683242D01*
X92495259Y-88711425D01*
X92504173Y-88714210D01*
X92640355Y-88716706D01*
X92709900Y-88697746D01*
X92763102Y-88683242D01*
X92763105Y-88683241D01*
X92771764Y-88680880D01*
X92779414Y-88676183D01*
X92779416Y-88676182D01*
X92880184Y-88614311D01*
X92880187Y-88614308D01*
X92887836Y-88609612D01*
X92895469Y-88601180D01*
X92973211Y-88515291D01*
X92973212Y-88515290D01*
X92979239Y-88508631D01*
X92985589Y-88495526D01*
X93034712Y-88394135D01*
X93034712Y-88394134D01*
X93038627Y-88386054D01*
X93051096Y-88311941D01*
X93060419Y-88256530D01*
X93060419Y-88256525D01*
X93061225Y-88251737D01*
X93061368Y-88240000D01*
X93052239Y-88176254D01*
X93043332Y-88114057D01*
X93043331Y-88114054D01*
X93042059Y-88105171D01*
X92985684Y-87981180D01*
X92896774Y-87877996D01*
X92868703Y-87859801D01*
X92790010Y-87808794D01*
X92790008Y-87808793D01*
X92782479Y-87803913D01*
X92773882Y-87801342D01*
X92773880Y-87801341D01*
X92696951Y-87778335D01*
X92651984Y-87764887D01*
X92643008Y-87764832D01*
X92643007Y-87764832D01*
X92586014Y-87764484D01*
X92515782Y-87764055D01*
X92507150Y-87766522D01*
X92393451Y-87799017D01*
X92393449Y-87799018D01*
X92384820Y-87801484D01*
X92377230Y-87806273D01*
X92292248Y-87859893D01*
X92269628Y-87874165D01*
X92263685Y-87880894D01*
X92263684Y-87880895D01*
X92211682Y-87939776D01*
X92179465Y-87976255D01*
X92175651Y-87984378D01*
X92175650Y-87984380D01*
X92151390Y-88036053D01*
X92121579Y-88099548D01*
X92120199Y-88108412D01*
X92120198Y-88108415D01*
X92104266Y-88210742D01*
X92100624Y-88234131D01*
X89362658Y-88234131D01*
X89390212Y-88177259D01*
X89390212Y-88177258D01*
X89394127Y-88169178D01*
X89408658Y-88082812D01*
X89415919Y-88039654D01*
X89415919Y-88039649D01*
X89416725Y-88034861D01*
X89416868Y-88023124D01*
X89397559Y-87888295D01*
X89392877Y-87877996D01*
X89358151Y-87801621D01*
X89341184Y-87764304D01*
X89252274Y-87661120D01*
X89238972Y-87652498D01*
X89145510Y-87591918D01*
X89145508Y-87591917D01*
X89137979Y-87587037D01*
X89129382Y-87584466D01*
X89129380Y-87584465D01*
X89052451Y-87561459D01*
X89007484Y-87548011D01*
X88998508Y-87547956D01*
X88998507Y-87547956D01*
X88941514Y-87547608D01*
X88871282Y-87547179D01*
X88862650Y-87549646D01*
X88748951Y-87582141D01*
X88748949Y-87582142D01*
X88740320Y-87584608D01*
X88625128Y-87657289D01*
X88534965Y-87759379D01*
X88531151Y-87767502D01*
X88531150Y-87767504D01*
X88516355Y-87799017D01*
X88477079Y-87882672D01*
X88475699Y-87891536D01*
X88475698Y-87891539D01*
X88461243Y-87984380D01*
X88456124Y-88017255D01*
X87417751Y-88017255D01*
X87282213Y-87942743D01*
X87276816Y-87939776D01*
X87080446Y-87877484D01*
X87074329Y-87876798D01*
X87074325Y-87876797D01*
X86998104Y-87868248D01*
X86920114Y-87859500D01*
X85536978Y-87859500D01*
X85468857Y-87839498D01*
X85422364Y-87785842D01*
X85410978Y-87733500D01*
X85410978Y-87546500D01*
X85430980Y-87478379D01*
X85484636Y-87431886D01*
X85536978Y-87420500D01*
X86912819Y-87420500D01*
X87066008Y-87405480D01*
X87263229Y-87345935D01*
X87445129Y-87249218D01*
X87573973Y-87144135D01*
X87600003Y-87122906D01*
X87600006Y-87122903D01*
X87604778Y-87119011D01*
X87613430Y-87108553D01*
X87716361Y-86984131D01*
X92000624Y-86984131D01*
X92001788Y-86993033D01*
X92001788Y-86993036D01*
X92002926Y-87001737D01*
X92018284Y-87119186D01*
X92073140Y-87243856D01*
X92078917Y-87250729D01*
X92078918Y-87250730D01*
X92155002Y-87341243D01*
X92160782Y-87348119D01*
X92168259Y-87353096D01*
X92243534Y-87403203D01*
X92274165Y-87423593D01*
X92404173Y-87464210D01*
X92540355Y-87466706D01*
X92583520Y-87454938D01*
X92663102Y-87433242D01*
X92663105Y-87433241D01*
X92671764Y-87430880D01*
X92679414Y-87426183D01*
X92679416Y-87426182D01*
X92780184Y-87364311D01*
X92780187Y-87364308D01*
X92787836Y-87359612D01*
X92802834Y-87343043D01*
X92873211Y-87265291D01*
X92873212Y-87265290D01*
X92879239Y-87258631D01*
X92886354Y-87243947D01*
X92934712Y-87144135D01*
X92934712Y-87144134D01*
X92938627Y-87136054D01*
X92961225Y-87001737D01*
X92961368Y-86990000D01*
X92942059Y-86855171D01*
X92885684Y-86731180D01*
X92796774Y-86627996D01*
X92735283Y-86588139D01*
X92690010Y-86558794D01*
X92690008Y-86558793D01*
X92682479Y-86553913D01*
X92673882Y-86551342D01*
X92673880Y-86551341D01*
X92596951Y-86528335D01*
X92551984Y-86514887D01*
X92543008Y-86514832D01*
X92543007Y-86514832D01*
X92486014Y-86514484D01*
X92415782Y-86514055D01*
X92407150Y-86516522D01*
X92293451Y-86549017D01*
X92293449Y-86549018D01*
X92284820Y-86551484D01*
X92277230Y-86556273D01*
X92226726Y-86588139D01*
X92169628Y-86624165D01*
X92163685Y-86630894D01*
X92163684Y-86630895D01*
X92091304Y-86712849D01*
X92079465Y-86726255D01*
X92021579Y-86849548D01*
X92020199Y-86858412D01*
X92020198Y-86858415D01*
X92003599Y-86965025D01*
X92000624Y-86984131D01*
X87716361Y-86984131D01*
X87732167Y-86965025D01*
X87732169Y-86965021D01*
X87736096Y-86960275D01*
X87834081Y-86779055D01*
X87895001Y-86582254D01*
X87895900Y-86573705D01*
X87915891Y-86383498D01*
X87915891Y-86383496D01*
X87916535Y-86377369D01*
X87900712Y-86203500D01*
X87898423Y-86178342D01*
X87898422Y-86178339D01*
X87897864Y-86172203D01*
X87839698Y-85974572D01*
X87744252Y-85792002D01*
X87734382Y-85779725D01*
X87619028Y-85636254D01*
X87619028Y-85636253D01*
X87615163Y-85631447D01*
X87457348Y-85499024D01*
X87451950Y-85496056D01*
X87451945Y-85496053D01*
X87282213Y-85402743D01*
X87276816Y-85399776D01*
X87080446Y-85337484D01*
X87074329Y-85336798D01*
X87074325Y-85336797D01*
X86998104Y-85328248D01*
X86920114Y-85319500D01*
X85536978Y-85319500D01*
X85468857Y-85299498D01*
X85422364Y-85245842D01*
X85410978Y-85193500D01*
X85410978Y-85006500D01*
X85430980Y-84938379D01*
X85484636Y-84891886D01*
X85536978Y-84880500D01*
X86912819Y-84880500D01*
X87066008Y-84865480D01*
X87263229Y-84805935D01*
X87445129Y-84709218D01*
X87535076Y-84635859D01*
X87600003Y-84582906D01*
X87600006Y-84582903D01*
X87604778Y-84579011D01*
X87613430Y-84568553D01*
X87732167Y-84425025D01*
X87732169Y-84425021D01*
X87736096Y-84420275D01*
X87834081Y-84239055D01*
X87895001Y-84042254D01*
X87896521Y-84027797D01*
X87915896Y-83843450D01*
X87942909Y-83777793D01*
X88001131Y-83737163D01*
X88072076Y-83734460D01*
X88137656Y-83775544D01*
X88212751Y-83864881D01*
X88326134Y-83940355D01*
X88456142Y-83980972D01*
X88592324Y-83983468D01*
X88635489Y-83971700D01*
X88715071Y-83950004D01*
X88715074Y-83950003D01*
X88723733Y-83947642D01*
X88731383Y-83942945D01*
X88731385Y-83942944D01*
X88832153Y-83881073D01*
X88832156Y-83881070D01*
X88839805Y-83876374D01*
X88846312Y-83869186D01*
X88923299Y-83784131D01*
X90300624Y-83784131D01*
X90301788Y-83793033D01*
X90301788Y-83793036D01*
X90302553Y-83798883D01*
X90318284Y-83919186D01*
X90329262Y-83944135D01*
X90356949Y-84007058D01*
X90373140Y-84043856D01*
X90378917Y-84050729D01*
X90378918Y-84050730D01*
X90432363Y-84114311D01*
X90460782Y-84148119D01*
X90485107Y-84164311D01*
X90556048Y-84211533D01*
X90574165Y-84223593D01*
X90704173Y-84264210D01*
X90840355Y-84266706D01*
X90883520Y-84254938D01*
X90963102Y-84233242D01*
X90963105Y-84233241D01*
X90971764Y-84230880D01*
X90979414Y-84226183D01*
X90979416Y-84226182D01*
X91080184Y-84164311D01*
X91080187Y-84164308D01*
X91087836Y-84159612D01*
X91128841Y-84114311D01*
X91173211Y-84065291D01*
X91173212Y-84065290D01*
X91179239Y-84058631D01*
X91184323Y-84048139D01*
X91234712Y-83944135D01*
X91234712Y-83944134D01*
X91238627Y-83936054D01*
X91261225Y-83801737D01*
X91261368Y-83790000D01*
X91254245Y-83740259D01*
X91243332Y-83664057D01*
X91243331Y-83664054D01*
X91242059Y-83655171D01*
X91185684Y-83531180D01*
X91096774Y-83427996D01*
X91031142Y-83385455D01*
X90990010Y-83358794D01*
X90990008Y-83358793D01*
X90982479Y-83353913D01*
X90973882Y-83351342D01*
X90973880Y-83351341D01*
X90896951Y-83328335D01*
X90851984Y-83314887D01*
X90843008Y-83314832D01*
X90843007Y-83314832D01*
X90786014Y-83314484D01*
X90715782Y-83314055D01*
X90707150Y-83316522D01*
X90593451Y-83349017D01*
X90593449Y-83349018D01*
X90584820Y-83351484D01*
X90469628Y-83424165D01*
X90379465Y-83526255D01*
X90321579Y-83649548D01*
X90320199Y-83658412D01*
X90320198Y-83658415D01*
X90304922Y-83756530D01*
X90300624Y-83784131D01*
X88923299Y-83784131D01*
X88925180Y-83782053D01*
X88925181Y-83782052D01*
X88931208Y-83775393D01*
X88938367Y-83760618D01*
X88986681Y-83660897D01*
X88986681Y-83660896D01*
X88990596Y-83652816D01*
X89003065Y-83578703D01*
X89012388Y-83523292D01*
X89012388Y-83523287D01*
X89013194Y-83518499D01*
X89013337Y-83506762D01*
X89001508Y-83424165D01*
X88995301Y-83380819D01*
X88995300Y-83380816D01*
X88994028Y-83371933D01*
X88984731Y-83351484D01*
X88967738Y-83314110D01*
X88937653Y-83247942D01*
X88932872Y-83242394D01*
X97001124Y-83242394D01*
X97002288Y-83251296D01*
X97002288Y-83251299D01*
X97008832Y-83301341D01*
X97018784Y-83377449D01*
X97073640Y-83502119D01*
X97079417Y-83508992D01*
X97079418Y-83508993D01*
X97093928Y-83526255D01*
X97161282Y-83606382D01*
X97274665Y-83681856D01*
X97404673Y-83722473D01*
X97413645Y-83722637D01*
X97413648Y-83722638D01*
X97440896Y-83723137D01*
X97508639Y-83744384D01*
X97554141Y-83798883D01*
X97563523Y-83832778D01*
X97564787Y-83842443D01*
X97568284Y-83869186D01*
X97593811Y-83927201D01*
X97618497Y-83983303D01*
X97623140Y-83993856D01*
X97628917Y-84000729D01*
X97628918Y-84000730D01*
X97670947Y-84050730D01*
X97710782Y-84098119D01*
X97824165Y-84173593D01*
X97954173Y-84214210D01*
X98090355Y-84216706D01*
X98133520Y-84204938D01*
X98213102Y-84183242D01*
X98213105Y-84183241D01*
X98221764Y-84180880D01*
X98229414Y-84176183D01*
X98229416Y-84176182D01*
X98330184Y-84114311D01*
X98330187Y-84114308D01*
X98337836Y-84109612D01*
X98377954Y-84065291D01*
X98423211Y-84015291D01*
X98423212Y-84015290D01*
X98429239Y-84008631D01*
X98435117Y-83996500D01*
X98484712Y-83894135D01*
X98484712Y-83894134D01*
X98488627Y-83886054D01*
X98504277Y-83793036D01*
X98510419Y-83756530D01*
X98510419Y-83756525D01*
X98511225Y-83751737D01*
X98511368Y-83740000D01*
X98500492Y-83664057D01*
X98493332Y-83614057D01*
X98493331Y-83614054D01*
X98492059Y-83605171D01*
X98435684Y-83481180D01*
X98346774Y-83377996D01*
X98337420Y-83371933D01*
X98240010Y-83308794D01*
X98240008Y-83308793D01*
X98232479Y-83303913D01*
X98223882Y-83301342D01*
X98223880Y-83301341D01*
X98146951Y-83278335D01*
X98101984Y-83264887D01*
X98093008Y-83264832D01*
X98093007Y-83264832D01*
X98072694Y-83264708D01*
X98004697Y-83244290D01*
X97958533Y-83190351D01*
X97948737Y-83156573D01*
X97945717Y-83135487D01*
X97942559Y-83113434D01*
X97936988Y-83101180D01*
X97920892Y-83065779D01*
X97886184Y-82989443D01*
X97797274Y-82886259D01*
X97747605Y-82854065D01*
X97690510Y-82817057D01*
X97690508Y-82817056D01*
X97682979Y-82812176D01*
X97674382Y-82809605D01*
X97674380Y-82809604D01*
X97575031Y-82779893D01*
X97552484Y-82773150D01*
X97543508Y-82773095D01*
X97543507Y-82773095D01*
X97486514Y-82772747D01*
X97416282Y-82772318D01*
X97407650Y-82774785D01*
X97293951Y-82807280D01*
X97293949Y-82807281D01*
X97285320Y-82809747D01*
X97170128Y-82882428D01*
X97079965Y-82984518D01*
X97076151Y-82992641D01*
X97076150Y-82992643D01*
X97058228Y-83030817D01*
X97022079Y-83107811D01*
X97020699Y-83116675D01*
X97020698Y-83116678D01*
X97003190Y-83229127D01*
X97001124Y-83242394D01*
X88932872Y-83242394D01*
X88848743Y-83144758D01*
X88814124Y-83122319D01*
X88741979Y-83075556D01*
X88741977Y-83075555D01*
X88734448Y-83070675D01*
X88725851Y-83068104D01*
X88725849Y-83068103D01*
X88648920Y-83045097D01*
X88603953Y-83031649D01*
X88594977Y-83031594D01*
X88594976Y-83031594D01*
X88537983Y-83031246D01*
X88467751Y-83030817D01*
X88459119Y-83033284D01*
X88345420Y-83065779D01*
X88345418Y-83065780D01*
X88336789Y-83068246D01*
X88329199Y-83073035D01*
X88265171Y-83113434D01*
X88221597Y-83140927D01*
X88131434Y-83243017D01*
X88127620Y-83251140D01*
X88127619Y-83251142D01*
X88119958Y-83267460D01*
X88073548Y-83366310D01*
X88072167Y-83375177D01*
X88072167Y-83375178D01*
X88070567Y-83385455D01*
X88040324Y-83449688D01*
X87980155Y-83487374D01*
X87909164Y-83486548D01*
X87849888Y-83447471D01*
X87834406Y-83424449D01*
X87747109Y-83257467D01*
X87744252Y-83252002D01*
X87738052Y-83244290D01*
X87619028Y-83096254D01*
X87619028Y-83096253D01*
X87615163Y-83091447D01*
X87457348Y-82959024D01*
X87451950Y-82956056D01*
X87451945Y-82956053D01*
X87282213Y-82862743D01*
X87276816Y-82859776D01*
X87080446Y-82797484D01*
X87074329Y-82796798D01*
X87074325Y-82796797D01*
X86998104Y-82788248D01*
X86920114Y-82779500D01*
X85536978Y-82779500D01*
X85468857Y-82759498D01*
X85422364Y-82705842D01*
X85410978Y-82653500D01*
X85410978Y-81471468D01*
X91129991Y-81471468D01*
X91131155Y-81480370D01*
X91131155Y-81480373D01*
X91138371Y-81535556D01*
X91147651Y-81606523D01*
X91202507Y-81731193D01*
X91208284Y-81738066D01*
X91208285Y-81738067D01*
X91284369Y-81828580D01*
X91290149Y-81835456D01*
X91403532Y-81910930D01*
X91533540Y-81951547D01*
X91669722Y-81954043D01*
X91712887Y-81942275D01*
X91792469Y-81920579D01*
X91792472Y-81920578D01*
X91801131Y-81918217D01*
X91808781Y-81913520D01*
X91808783Y-81913519D01*
X91909551Y-81851648D01*
X91909554Y-81851645D01*
X91917203Y-81846949D01*
X91923228Y-81840293D01*
X91930134Y-81834559D01*
X91931244Y-81835896D01*
X91982728Y-81804363D01*
X92053708Y-81805901D01*
X92066580Y-81810985D01*
X92072633Y-81815014D01*
X92202641Y-81855631D01*
X92338823Y-81858127D01*
X92381988Y-81846359D01*
X92461570Y-81824663D01*
X92461573Y-81824662D01*
X92470232Y-81822301D01*
X92477882Y-81817604D01*
X92477884Y-81817603D01*
X92578652Y-81755732D01*
X92578655Y-81755729D01*
X92586304Y-81751033D01*
X92598041Y-81738067D01*
X92671679Y-81656712D01*
X92671680Y-81656711D01*
X92677707Y-81650052D01*
X92737095Y-81527475D01*
X92759693Y-81393158D01*
X92759836Y-81381421D01*
X92740527Y-81246592D01*
X92684152Y-81122601D01*
X92595242Y-81019417D01*
X92567433Y-81001392D01*
X92488478Y-80950215D01*
X92488476Y-80950214D01*
X92480947Y-80945334D01*
X92472350Y-80942763D01*
X92472348Y-80942762D01*
X92375691Y-80913856D01*
X92350452Y-80906308D01*
X92341476Y-80906253D01*
X92341475Y-80906253D01*
X92284482Y-80905905D01*
X92214250Y-80905476D01*
X92205618Y-80907943D01*
X92091919Y-80940438D01*
X92091917Y-80940439D01*
X92083288Y-80942905D01*
X92075698Y-80947694D01*
X91989361Y-81002169D01*
X91968096Y-81015586D01*
X91962152Y-81022316D01*
X91955320Y-81028131D01*
X91952841Y-81025219D01*
X91908114Y-81053499D01*
X91837119Y-81052975D01*
X91820657Y-81046724D01*
X91819384Y-81046136D01*
X91811846Y-81041250D01*
X91681351Y-81002224D01*
X91672375Y-81002169D01*
X91672374Y-81002169D01*
X91615381Y-81001821D01*
X91545149Y-81001392D01*
X91536517Y-81003859D01*
X91422818Y-81036354D01*
X91422816Y-81036355D01*
X91414187Y-81038821D01*
X91406597Y-81043610D01*
X91323276Y-81096182D01*
X91298995Y-81111502D01*
X91293052Y-81118231D01*
X91293051Y-81118232D01*
X91276392Y-81137095D01*
X91208832Y-81213592D01*
X91205018Y-81221715D01*
X91205017Y-81221717D01*
X91177210Y-81280944D01*
X91150946Y-81336885D01*
X91149566Y-81345749D01*
X91149565Y-81345752D01*
X91141438Y-81397951D01*
X91129991Y-81471468D01*
X85410978Y-81471468D01*
X85410978Y-79926500D01*
X85415823Y-79910000D01*
X97560978Y-79910000D01*
X99643144Y-82021630D01*
X99676730Y-82084178D01*
X99679368Y-82113859D01*
X99632636Y-83676881D01*
X99632635Y-83676918D01*
X99610606Y-83744410D01*
X99578762Y-83776504D01*
X98125311Y-84790000D01*
X98125404Y-84802575D01*
X98125404Y-84802577D01*
X98160390Y-89510873D01*
X98160978Y-89590000D01*
X98621963Y-89590000D01*
X98690084Y-89610002D01*
X98718758Y-89635336D01*
X98929075Y-89887716D01*
X99668810Y-90775398D01*
X99680978Y-90790000D01*
X101880978Y-90790000D01*
X101861048Y-90192100D01*
X101860978Y-90187902D01*
X101860978Y-85390000D01*
X100916987Y-84426744D01*
X100883593Y-84364091D01*
X100880978Y-84338553D01*
X100880978Y-81715486D01*
X100873295Y-81707435D01*
X100873295Y-81707434D01*
X100577968Y-81397951D01*
X100531365Y-81349113D01*
X100498807Y-81286023D01*
X100505528Y-81215345D01*
X100549393Y-81159520D01*
X100606944Y-81137095D01*
X100611387Y-81136542D01*
X100620355Y-81136706D01*
X100629010Y-81134346D01*
X100629013Y-81134346D01*
X100743102Y-81103242D01*
X100743105Y-81103241D01*
X100751764Y-81100880D01*
X100759414Y-81096183D01*
X100759416Y-81096182D01*
X100860184Y-81034311D01*
X100860187Y-81034308D01*
X100867836Y-81029612D01*
X100884869Y-81010795D01*
X100953211Y-80935291D01*
X100953212Y-80935290D01*
X100959239Y-80928631D01*
X100966398Y-80913856D01*
X101014712Y-80814135D01*
X101014712Y-80814134D01*
X101018627Y-80806054D01*
X101037304Y-80695042D01*
X101040419Y-80676530D01*
X101040419Y-80676525D01*
X101041225Y-80671737D01*
X101041368Y-80660000D01*
X101022059Y-80525171D01*
X100965684Y-80401180D01*
X100876774Y-80297996D01*
X100863472Y-80289374D01*
X100770010Y-80228794D01*
X100770008Y-80228793D01*
X100762479Y-80223913D01*
X100753882Y-80221342D01*
X100753880Y-80221341D01*
X100676951Y-80198335D01*
X100631984Y-80184887D01*
X100623008Y-80184832D01*
X100623007Y-80184832D01*
X100566014Y-80184484D01*
X100495782Y-80184055D01*
X100487150Y-80186522D01*
X100373451Y-80219017D01*
X100373449Y-80219018D01*
X100364820Y-80221484D01*
X100249628Y-80294165D01*
X100159465Y-80396255D01*
X100101579Y-80519548D01*
X100100199Y-80528410D01*
X100100198Y-80528414D01*
X100090123Y-80593125D01*
X100059879Y-80657357D01*
X99999709Y-80695042D01*
X99928717Y-80694214D01*
X99874467Y-80660726D01*
X98393334Y-79108592D01*
X98393333Y-79108591D01*
X98380827Y-79095486D01*
X98370761Y-79105486D01*
X98370760Y-79105487D01*
X97573830Y-79897231D01*
X97573829Y-79897232D01*
X97560978Y-79910000D01*
X85415823Y-79910000D01*
X85430980Y-79858379D01*
X85484636Y-79811886D01*
X85536978Y-79800500D01*
X86912819Y-79800500D01*
X87066008Y-79785480D01*
X87263229Y-79725935D01*
X87445129Y-79629218D01*
X87535076Y-79555859D01*
X87600003Y-79502906D01*
X87600006Y-79502903D01*
X87604778Y-79499011D01*
X87613430Y-79488553D01*
X87732167Y-79345025D01*
X87732169Y-79345021D01*
X87736096Y-79340275D01*
X87834081Y-79159055D01*
X87895001Y-78962254D01*
X87896096Y-78951838D01*
X87902529Y-78890632D01*
X89403175Y-78890632D01*
X89404339Y-78899534D01*
X89404339Y-78899537D01*
X89411739Y-78956128D01*
X89420835Y-79025687D01*
X89475691Y-79150357D01*
X89481468Y-79157230D01*
X89481469Y-79157231D01*
X89557553Y-79247744D01*
X89563333Y-79254620D01*
X89676716Y-79330094D01*
X89806724Y-79370711D01*
X89942906Y-79373207D01*
X90024827Y-79350873D01*
X90065653Y-79339743D01*
X90065656Y-79339742D01*
X90074315Y-79337381D01*
X90081965Y-79332684D01*
X90081967Y-79332683D01*
X90182735Y-79270812D01*
X90182738Y-79270809D01*
X90190387Y-79266113D01*
X90221840Y-79231365D01*
X90275762Y-79171792D01*
X90275763Y-79171791D01*
X90281790Y-79165132D01*
X90288949Y-79150357D01*
X90337263Y-79050636D01*
X90337263Y-79050635D01*
X90341178Y-79042555D01*
X90353698Y-78968139D01*
X90362970Y-78913031D01*
X90362970Y-78913026D01*
X90363776Y-78908238D01*
X90363919Y-78896501D01*
X90352765Y-78818618D01*
X90345883Y-78770558D01*
X90345882Y-78770555D01*
X90344610Y-78761672D01*
X90288235Y-78637681D01*
X90199325Y-78534497D01*
X90149764Y-78502373D01*
X90092561Y-78465295D01*
X90092559Y-78465294D01*
X90085030Y-78460414D01*
X90076433Y-78457843D01*
X90076431Y-78457842D01*
X89999502Y-78434836D01*
X89954535Y-78421388D01*
X89945559Y-78421333D01*
X89945558Y-78421333D01*
X89888565Y-78420985D01*
X89818333Y-78420556D01*
X89809701Y-78423023D01*
X89696002Y-78455518D01*
X89696000Y-78455519D01*
X89687371Y-78457985D01*
X89679781Y-78462774D01*
X89590374Y-78519186D01*
X89572179Y-78530666D01*
X89566236Y-78537395D01*
X89566235Y-78537396D01*
X89524074Y-78585134D01*
X89482016Y-78632756D01*
X89478202Y-78640879D01*
X89478201Y-78640881D01*
X89471339Y-78655497D01*
X89424130Y-78756049D01*
X89422750Y-78764913D01*
X89422749Y-78764916D01*
X89406938Y-78866465D01*
X89403175Y-78890632D01*
X87902529Y-78890632D01*
X87915891Y-78763498D01*
X87915891Y-78763496D01*
X87916535Y-78757369D01*
X87907208Y-78654878D01*
X87898423Y-78558342D01*
X87898422Y-78558339D01*
X87897864Y-78552203D01*
X87839698Y-78354572D01*
X87744252Y-78172002D01*
X87734382Y-78159725D01*
X87619028Y-78016254D01*
X87619028Y-78016253D01*
X87615163Y-78011447D01*
X87457348Y-77879024D01*
X87451950Y-77876056D01*
X87451945Y-77876053D01*
X87282213Y-77782743D01*
X87276816Y-77779776D01*
X87080446Y-77717484D01*
X87074329Y-77716798D01*
X87074325Y-77716797D01*
X86998104Y-77708248D01*
X86920114Y-77699500D01*
X85536978Y-77699500D01*
X85468857Y-77679498D01*
X85422364Y-77625842D01*
X85410978Y-77573500D01*
X85410978Y-77520017D01*
X92617939Y-77520017D01*
X92619103Y-77528919D01*
X92619103Y-77528922D01*
X92626769Y-77587544D01*
X92635599Y-77655072D01*
X92690455Y-77779742D01*
X92696232Y-77786615D01*
X92696233Y-77786616D01*
X92764550Y-77867889D01*
X92778097Y-77884005D01*
X92785574Y-77888982D01*
X92890942Y-77959121D01*
X92936565Y-78013518D01*
X92945536Y-78083946D01*
X92929177Y-78126120D01*
X92929465Y-78126255D01*
X92871579Y-78249548D01*
X92870199Y-78258412D01*
X92870198Y-78258415D01*
X92856432Y-78346832D01*
X92850624Y-78384131D01*
X92851788Y-78393033D01*
X92851788Y-78393036D01*
X92855832Y-78423961D01*
X92868284Y-78519186D01*
X92876297Y-78537396D01*
X92915296Y-78626028D01*
X92923140Y-78643856D01*
X92928917Y-78650729D01*
X92928918Y-78650730D01*
X92969879Y-78699459D01*
X93010782Y-78748119D01*
X93124165Y-78823593D01*
X93254173Y-78864210D01*
X93372935Y-78866387D01*
X93377205Y-78866465D01*
X93444948Y-78887712D01*
X93490224Y-78941697D01*
X93520723Y-79011011D01*
X93526500Y-79017884D01*
X93526501Y-79017885D01*
X93600138Y-79105487D01*
X93608365Y-79115274D01*
X93721748Y-79190748D01*
X93730318Y-79193425D01*
X93730317Y-79193425D01*
X93838188Y-79227126D01*
X93851756Y-79231365D01*
X93970010Y-79233532D01*
X94037751Y-79254779D01*
X94083028Y-79308764D01*
X94116362Y-79384521D01*
X94122139Y-79391394D01*
X94122140Y-79391395D01*
X94129518Y-79400172D01*
X94204004Y-79488784D01*
X94317387Y-79564258D01*
X94447395Y-79604875D01*
X94583577Y-79607371D01*
X94626742Y-79595603D01*
X94706324Y-79573907D01*
X94706327Y-79573906D01*
X94714986Y-79571545D01*
X94722636Y-79566848D01*
X94722638Y-79566847D01*
X94823406Y-79504976D01*
X94823409Y-79504973D01*
X94831058Y-79500277D01*
X94838080Y-79492520D01*
X94916433Y-79405956D01*
X94916434Y-79405955D01*
X94922461Y-79399296D01*
X94929620Y-79384521D01*
X94977934Y-79284800D01*
X94977934Y-79284799D01*
X94981849Y-79276719D01*
X94997150Y-79185773D01*
X95003641Y-79147195D01*
X95003641Y-79147190D01*
X95004447Y-79142402D01*
X95004590Y-79130665D01*
X94988281Y-79016782D01*
X94986554Y-79004722D01*
X94986553Y-79004719D01*
X94985281Y-78995836D01*
X94979495Y-78983109D01*
X94969310Y-78960710D01*
X96017817Y-78960710D01*
X96018981Y-78969612D01*
X96018981Y-78969615D01*
X96020119Y-78978316D01*
X96035477Y-79095765D01*
X96090333Y-79220435D01*
X96096110Y-79227308D01*
X96096111Y-79227309D01*
X96144437Y-79284800D01*
X96177975Y-79324698D01*
X96200577Y-79339743D01*
X96277898Y-79391212D01*
X96291358Y-79400172D01*
X96421366Y-79440789D01*
X96557548Y-79443285D01*
X96600713Y-79431517D01*
X96680295Y-79409821D01*
X96680298Y-79409820D01*
X96688957Y-79407459D01*
X96696607Y-79402762D01*
X96696609Y-79402761D01*
X96797377Y-79340890D01*
X96797380Y-79340887D01*
X96805029Y-79336191D01*
X96866874Y-79267866D01*
X96890404Y-79241870D01*
X96890405Y-79241869D01*
X96896432Y-79235210D01*
X96903591Y-79220435D01*
X96951905Y-79120714D01*
X96951905Y-79120713D01*
X96955820Y-79112633D01*
X96972917Y-79011011D01*
X96977612Y-78983109D01*
X96977612Y-78983104D01*
X96978418Y-78978316D01*
X96978561Y-78966579D01*
X96967685Y-78890632D01*
X96960525Y-78840636D01*
X96960524Y-78840633D01*
X96959252Y-78831750D01*
X96902877Y-78707759D01*
X96813967Y-78604575D01*
X96787618Y-78587496D01*
X96707203Y-78535373D01*
X96707201Y-78535372D01*
X96699672Y-78530492D01*
X96691075Y-78527921D01*
X96691073Y-78527920D01*
X96605648Y-78502373D01*
X96569177Y-78491466D01*
X96560201Y-78491411D01*
X96560200Y-78491411D01*
X96503207Y-78491063D01*
X96432975Y-78490634D01*
X96424343Y-78493101D01*
X96310644Y-78525596D01*
X96310642Y-78525597D01*
X96302013Y-78528063D01*
X96294423Y-78532852D01*
X96218868Y-78580524D01*
X96186821Y-78600744D01*
X96180878Y-78607473D01*
X96180877Y-78607474D01*
X96158549Y-78632756D01*
X96096658Y-78702834D01*
X96092844Y-78710957D01*
X96092843Y-78710959D01*
X96073060Y-78753096D01*
X96038772Y-78826127D01*
X96037392Y-78834991D01*
X96037391Y-78834994D01*
X96019828Y-78947797D01*
X96017817Y-78960710D01*
X94969310Y-78960710D01*
X94963439Y-78947797D01*
X94928906Y-78871845D01*
X94839996Y-78768661D01*
X94790381Y-78736502D01*
X94733232Y-78699459D01*
X94733230Y-78699458D01*
X94725701Y-78694578D01*
X94717104Y-78692007D01*
X94717102Y-78692006D01*
X94640173Y-78669000D01*
X94595206Y-78655552D01*
X94586230Y-78655497D01*
X94586229Y-78655497D01*
X94558561Y-78655328D01*
X94484797Y-78654878D01*
X94416800Y-78634460D01*
X94370866Y-78581031D01*
X94333267Y-78498335D01*
X94244357Y-78395151D01*
X94181752Y-78354572D01*
X94137593Y-78325949D01*
X94137591Y-78325948D01*
X94130062Y-78321068D01*
X94121465Y-78318497D01*
X94121463Y-78318496D01*
X94027207Y-78290308D01*
X93999567Y-78282042D01*
X93990591Y-78281987D01*
X93990590Y-78281987D01*
X93909147Y-78281490D01*
X93884311Y-78281338D01*
X93816314Y-78260920D01*
X93770380Y-78207491D01*
X93738960Y-78138385D01*
X98052188Y-78138385D01*
X98053352Y-78147287D01*
X98053352Y-78147290D01*
X98056584Y-78172002D01*
X98069848Y-78273440D01*
X98124704Y-78398110D01*
X98130481Y-78404983D01*
X98130482Y-78404984D01*
X98206566Y-78495497D01*
X98212346Y-78502373D01*
X98219823Y-78507350D01*
X98287205Y-78552203D01*
X98325729Y-78577847D01*
X98356614Y-78587496D01*
X98433053Y-78611377D01*
X98455737Y-78618464D01*
X98591919Y-78620960D01*
X98652019Y-78604575D01*
X98714666Y-78587496D01*
X98714669Y-78587495D01*
X98723328Y-78585134D01*
X98730978Y-78580437D01*
X98730980Y-78580436D01*
X98831748Y-78518565D01*
X98831751Y-78518562D01*
X98839400Y-78513866D01*
X98846060Y-78506509D01*
X98924775Y-78419545D01*
X98924776Y-78419544D01*
X98930803Y-78412885D01*
X98937962Y-78398110D01*
X98986276Y-78298389D01*
X98986276Y-78298388D01*
X98990191Y-78290308D01*
X98991680Y-78281459D01*
X98991681Y-78281455D01*
X99007045Y-78190130D01*
X99038072Y-78126271D01*
X99098697Y-78089325D01*
X99112817Y-78086568D01*
X99120355Y-78086706D01*
X99163520Y-78074938D01*
X99243102Y-78053242D01*
X99243105Y-78053241D01*
X99251764Y-78050880D01*
X99259414Y-78046183D01*
X99259416Y-78046182D01*
X99360184Y-77984311D01*
X99360187Y-77984308D01*
X99367836Y-77979612D01*
X99386060Y-77959479D01*
X99453211Y-77885291D01*
X99453212Y-77885290D01*
X99459239Y-77878631D01*
X99464444Y-77867889D01*
X99514712Y-77764135D01*
X99514712Y-77764134D01*
X99518627Y-77756054D01*
X99532779Y-77671940D01*
X99540419Y-77626530D01*
X99540419Y-77626525D01*
X99541225Y-77621737D01*
X99541368Y-77610000D01*
X99528632Y-77521069D01*
X99523332Y-77484057D01*
X99523331Y-77484054D01*
X99522059Y-77475171D01*
X99465684Y-77351180D01*
X99376774Y-77247996D01*
X99363472Y-77239374D01*
X99270010Y-77178794D01*
X99270008Y-77178793D01*
X99262479Y-77173913D01*
X99225490Y-77162851D01*
X99165957Y-77124169D01*
X99136787Y-77059441D01*
X99147243Y-76989219D01*
X99194004Y-76935797D01*
X99228452Y-76920571D01*
X99274628Y-76907982D01*
X99320269Y-76895539D01*
X99327919Y-76890842D01*
X99327921Y-76890841D01*
X99428689Y-76828970D01*
X99428692Y-76828967D01*
X99436341Y-76824271D01*
X99448469Y-76810873D01*
X99521716Y-76729950D01*
X99521717Y-76729949D01*
X99527744Y-76723290D01*
X99534903Y-76708515D01*
X99583217Y-76608794D01*
X99583217Y-76608793D01*
X99587132Y-76600713D01*
X99605191Y-76493376D01*
X99608924Y-76471189D01*
X99608924Y-76471184D01*
X99609730Y-76466396D01*
X99609873Y-76454659D01*
X99600192Y-76387058D01*
X99591837Y-76328716D01*
X99591836Y-76328713D01*
X99590564Y-76319830D01*
X99534189Y-76195839D01*
X99445279Y-76092655D01*
X99431977Y-76084033D01*
X99338515Y-76023453D01*
X99338513Y-76023452D01*
X99330984Y-76018572D01*
X99322387Y-76016001D01*
X99322385Y-76016000D01*
X99282697Y-76004131D01*
X100305124Y-76004131D01*
X100306288Y-76013033D01*
X100306288Y-76013036D01*
X100311484Y-76052771D01*
X100322784Y-76139186D01*
X100326401Y-76147406D01*
X100351309Y-76204013D01*
X100377640Y-76263856D01*
X100383417Y-76270729D01*
X100383418Y-76270730D01*
X100446728Y-76346046D01*
X100465282Y-76368119D01*
X100472759Y-76373096D01*
X100564825Y-76434380D01*
X100578665Y-76443593D01*
X100623803Y-76457695D01*
X100697211Y-76480629D01*
X100708673Y-76484210D01*
X100844855Y-76486706D01*
X100919352Y-76466396D01*
X100967602Y-76453242D01*
X100967605Y-76453241D01*
X100976264Y-76450880D01*
X100983914Y-76446183D01*
X100983916Y-76446182D01*
X101084684Y-76384311D01*
X101084687Y-76384308D01*
X101092336Y-76379612D01*
X101109586Y-76360555D01*
X101177711Y-76285291D01*
X101177712Y-76285290D01*
X101183739Y-76278631D01*
X101190898Y-76263856D01*
X101239212Y-76164135D01*
X101239212Y-76164134D01*
X101243127Y-76156054D01*
X101260901Y-76050411D01*
X101264919Y-76026530D01*
X101264919Y-76026525D01*
X101265725Y-76021737D01*
X101265868Y-76010000D01*
X101246559Y-75875171D01*
X101190184Y-75751180D01*
X101101274Y-75647996D01*
X101057658Y-75619725D01*
X100994510Y-75578794D01*
X100994508Y-75578793D01*
X100986979Y-75573913D01*
X100978382Y-75571342D01*
X100978380Y-75571341D01*
X100901451Y-75548335D01*
X100856484Y-75534887D01*
X100847508Y-75534832D01*
X100847507Y-75534832D01*
X100790514Y-75534484D01*
X100720282Y-75534055D01*
X100711650Y-75536522D01*
X100597951Y-75569017D01*
X100597949Y-75569018D01*
X100589320Y-75571484D01*
X100581730Y-75576273D01*
X100484744Y-75637467D01*
X100474128Y-75644165D01*
X100383965Y-75746255D01*
X100326079Y-75869548D01*
X100324699Y-75878412D01*
X100324698Y-75878415D01*
X100308961Y-75979491D01*
X100305124Y-76004131D01*
X99282697Y-76004131D01*
X99241668Y-75991861D01*
X99200489Y-75979546D01*
X99191513Y-75979491D01*
X99191512Y-75979491D01*
X99134519Y-75979143D01*
X99064287Y-75978714D01*
X99055655Y-75981181D01*
X98941956Y-76013676D01*
X98941954Y-76013677D01*
X98933325Y-76016143D01*
X98818133Y-76088824D01*
X98812190Y-76095553D01*
X98812189Y-76095554D01*
X98790014Y-76120663D01*
X98727970Y-76190914D01*
X98724156Y-76199037D01*
X98724155Y-76199039D01*
X98712672Y-76223498D01*
X98670084Y-76314207D01*
X98668704Y-76323071D01*
X98668703Y-76323074D01*
X98650713Y-76438618D01*
X98649129Y-76448790D01*
X98650293Y-76457692D01*
X98650293Y-76457695D01*
X98656221Y-76503028D01*
X98666789Y-76583845D01*
X98682282Y-76619055D01*
X98716074Y-76695853D01*
X98721645Y-76708515D01*
X98727422Y-76715388D01*
X98727423Y-76715389D01*
X98760828Y-76755129D01*
X98809287Y-76812778D01*
X98922670Y-76888252D01*
X98953555Y-76897901D01*
X98966342Y-76901896D01*
X99025399Y-76941302D01*
X99053776Y-77006381D01*
X99042464Y-77076470D01*
X98995054Y-77129318D01*
X98963392Y-77143312D01*
X98873453Y-77169016D01*
X98873449Y-77169018D01*
X98864820Y-77171484D01*
X98749628Y-77244165D01*
X98743685Y-77250894D01*
X98743684Y-77250895D01*
X98722183Y-77275240D01*
X98659465Y-77346255D01*
X98655651Y-77354378D01*
X98655650Y-77354380D01*
X98627843Y-77413607D01*
X98601579Y-77469548D01*
X98600199Y-77478410D01*
X98600198Y-77478414D01*
X98587114Y-77562450D01*
X98556870Y-77626682D01*
X98496700Y-77664367D01*
X98479715Y-77667899D01*
X98476322Y-77668364D01*
X98467346Y-77668309D01*
X98401865Y-77687023D01*
X98345015Y-77703271D01*
X98345013Y-77703272D01*
X98336384Y-77705738D01*
X98328794Y-77710527D01*
X98243831Y-77764135D01*
X98221192Y-77778419D01*
X98215249Y-77785148D01*
X98215248Y-77785149D01*
X98142868Y-77867103D01*
X98131029Y-77880509D01*
X98127215Y-77888632D01*
X98127214Y-77888634D01*
X98111168Y-77922812D01*
X98073143Y-78003802D01*
X98071763Y-78012666D01*
X98071762Y-78012669D01*
X98054077Y-78126255D01*
X98052188Y-78138385D01*
X93738960Y-78138385D01*
X93735684Y-78131180D01*
X93646774Y-78027996D01*
X93639240Y-78023113D01*
X93639237Y-78023110D01*
X93539294Y-77958330D01*
X93493010Y-77904494D01*
X93483179Y-77834181D01*
X93498248Y-77795338D01*
X93496554Y-77794517D01*
X93552027Y-77680021D01*
X93552027Y-77680020D01*
X93555942Y-77671940D01*
X93578540Y-77537623D01*
X93578683Y-77525886D01*
X93572693Y-77484057D01*
X93560647Y-77399943D01*
X93560646Y-77399940D01*
X93559374Y-77391057D01*
X93502999Y-77267066D01*
X93420448Y-77171262D01*
X93391134Y-77106600D01*
X93401433Y-77036354D01*
X93448074Y-76982828D01*
X93509727Y-76965428D01*
X93509568Y-76964149D01*
X93517963Y-76963103D01*
X93518205Y-76963035D01*
X93518472Y-76963040D01*
X93518476Y-76963039D01*
X93527452Y-76963204D01*
X93573206Y-76950730D01*
X93650199Y-76929740D01*
X93650202Y-76929739D01*
X93658861Y-76927378D01*
X93666511Y-76922681D01*
X93666513Y-76922680D01*
X93767281Y-76860809D01*
X93767284Y-76860806D01*
X93774933Y-76856110D01*
X93786830Y-76842967D01*
X93860308Y-76761789D01*
X93860309Y-76761788D01*
X93866336Y-76755129D01*
X93873495Y-76740354D01*
X93921809Y-76640633D01*
X93921809Y-76640632D01*
X93925724Y-76632552D01*
X93948322Y-76498235D01*
X93948465Y-76486498D01*
X93932225Y-76373096D01*
X93930429Y-76360555D01*
X93930428Y-76360552D01*
X93929156Y-76351669D01*
X93872781Y-76227678D01*
X93858608Y-76211229D01*
X93789732Y-76131296D01*
X93783871Y-76124494D01*
X93745244Y-76099457D01*
X93677107Y-76055292D01*
X93677105Y-76055291D01*
X93669576Y-76050411D01*
X93660979Y-76047840D01*
X93660977Y-76047839D01*
X93563113Y-76018572D01*
X93539081Y-76011385D01*
X93530105Y-76011330D01*
X93530104Y-76011330D01*
X93473111Y-76010982D01*
X93402879Y-76010553D01*
X93394247Y-76013020D01*
X93280548Y-76045515D01*
X93280546Y-76045516D01*
X93271917Y-76047982D01*
X93264327Y-76052771D01*
X93207187Y-76088824D01*
X93156725Y-76120663D01*
X93150782Y-76127392D01*
X93150781Y-76127393D01*
X93147334Y-76131296D01*
X93066562Y-76222753D01*
X93008676Y-76346046D01*
X93007296Y-76354910D01*
X93007295Y-76354913D01*
X92989191Y-76471189D01*
X92987721Y-76480629D01*
X92988885Y-76489531D01*
X92988885Y-76489534D01*
X92990023Y-76498235D01*
X93005381Y-76615684D01*
X93008998Y-76623904D01*
X93046228Y-76708515D01*
X93060237Y-76740354D01*
X93066014Y-76747227D01*
X93066015Y-76747228D01*
X93146492Y-76842967D01*
X93175013Y-76907982D01*
X93163857Y-76978097D01*
X93116565Y-77031049D01*
X93049271Y-77050040D01*
X93033097Y-77049941D01*
X93024465Y-77052408D01*
X92910766Y-77084903D01*
X92910764Y-77084904D01*
X92902135Y-77087370D01*
X92894545Y-77092159D01*
X92813473Y-77143312D01*
X92786943Y-77160051D01*
X92781000Y-77166780D01*
X92780999Y-77166781D01*
X92713068Y-77243698D01*
X92696780Y-77262141D01*
X92692966Y-77270264D01*
X92692965Y-77270266D01*
X92670376Y-77318379D01*
X92638894Y-77385434D01*
X92637514Y-77394298D01*
X92637513Y-77394301D01*
X92624417Y-77478414D01*
X92617939Y-77520017D01*
X85410978Y-77520017D01*
X85410978Y-77386500D01*
X85430980Y-77318379D01*
X85484636Y-77271886D01*
X85536978Y-77260500D01*
X86912819Y-77260500D01*
X87066008Y-77245480D01*
X87263229Y-77185935D01*
X87445129Y-77089218D01*
X87546697Y-77006381D01*
X87600003Y-76962906D01*
X87600006Y-76962903D01*
X87604778Y-76959011D01*
X87611629Y-76950730D01*
X87732167Y-76805025D01*
X87732169Y-76805021D01*
X87736096Y-76800275D01*
X87834081Y-76619055D01*
X87895001Y-76422254D01*
X87900168Y-76373096D01*
X87915891Y-76223498D01*
X87915891Y-76223496D01*
X87916535Y-76217369D01*
X87905979Y-76101376D01*
X87898423Y-76018342D01*
X87898422Y-76018339D01*
X87897864Y-76012203D01*
X87839698Y-75814572D01*
X87744252Y-75632002D01*
X87734382Y-75619725D01*
X87619028Y-75476254D01*
X87619028Y-75476253D01*
X87615163Y-75471447D01*
X87457348Y-75339024D01*
X87451950Y-75336056D01*
X87451945Y-75336053D01*
X87282213Y-75242743D01*
X87276816Y-75239776D01*
X87080446Y-75177484D01*
X87074329Y-75176798D01*
X87074325Y-75176797D01*
X86998104Y-75168248D01*
X86920114Y-75159500D01*
X85536978Y-75159500D01*
X85468857Y-75139498D01*
X85422364Y-75085842D01*
X85410978Y-75033500D01*
X85410978Y-74846500D01*
X85430980Y-74778379D01*
X85484636Y-74731886D01*
X85536978Y-74720500D01*
X86912819Y-74720500D01*
X87066008Y-74705480D01*
X87263229Y-74645935D01*
X87445129Y-74549218D01*
X87554442Y-74460064D01*
X87600003Y-74422906D01*
X87600006Y-74422903D01*
X87604778Y-74419011D01*
X87613430Y-74408553D01*
X87682544Y-74325009D01*
X91080624Y-74325009D01*
X91081788Y-74333911D01*
X91081788Y-74333914D01*
X91085891Y-74365291D01*
X91098284Y-74460064D01*
X91101901Y-74468284D01*
X91145208Y-74566706D01*
X91153140Y-74584734D01*
X91158917Y-74591607D01*
X91158918Y-74591608D01*
X91171158Y-74606169D01*
X91240782Y-74688997D01*
X91354165Y-74764471D01*
X91484173Y-74805088D01*
X91620355Y-74807584D01*
X91669601Y-74794158D01*
X91743102Y-74774120D01*
X91743105Y-74774119D01*
X91751764Y-74771758D01*
X91759414Y-74767061D01*
X91759416Y-74767060D01*
X91860184Y-74705189D01*
X91860187Y-74705186D01*
X91867836Y-74700490D01*
X91915605Y-74647716D01*
X91943887Y-74616470D01*
X99454590Y-74616470D01*
X99455754Y-74625372D01*
X99455754Y-74625375D01*
X99458443Y-74645935D01*
X99472250Y-74751525D01*
X99527106Y-74876195D01*
X99532883Y-74883068D01*
X99532884Y-74883069D01*
X99545124Y-74897630D01*
X99614748Y-74980458D01*
X99728131Y-75055932D01*
X99858139Y-75096549D01*
X99994321Y-75099045D01*
X100042749Y-75085842D01*
X100117068Y-75065581D01*
X100117071Y-75065580D01*
X100125730Y-75063219D01*
X100133380Y-75058522D01*
X100133382Y-75058521D01*
X100234150Y-74996650D01*
X100234153Y-74996647D01*
X100241802Y-74991951D01*
X100333205Y-74890970D01*
X100340364Y-74876195D01*
X100388678Y-74776474D01*
X100388678Y-74776473D01*
X100392593Y-74768393D01*
X100413196Y-74645935D01*
X100414385Y-74638869D01*
X100414385Y-74638864D01*
X100415191Y-74634076D01*
X100415334Y-74622339D01*
X100407033Y-74564374D01*
X100397298Y-74496396D01*
X100397297Y-74496393D01*
X100396025Y-74487510D01*
X100391216Y-74476932D01*
X100366651Y-74422906D01*
X100339650Y-74363519D01*
X100328473Y-74350547D01*
X100256601Y-74267137D01*
X100250740Y-74260335D01*
X100223275Y-74242533D01*
X100143976Y-74191133D01*
X100143974Y-74191132D01*
X100136445Y-74186252D01*
X100127848Y-74183681D01*
X100127846Y-74183680D01*
X100034797Y-74155853D01*
X100005950Y-74147226D01*
X99996974Y-74147171D01*
X99996973Y-74147171D01*
X99939980Y-74146823D01*
X99869748Y-74146394D01*
X99861116Y-74148861D01*
X99747417Y-74181356D01*
X99747415Y-74181357D01*
X99738786Y-74183823D01*
X99731196Y-74188612D01*
X99643198Y-74244135D01*
X99623594Y-74256504D01*
X99617651Y-74263233D01*
X99617650Y-74263234D01*
X99604913Y-74277656D01*
X99533431Y-74358594D01*
X99475545Y-74481887D01*
X99474165Y-74490751D01*
X99474164Y-74490754D01*
X99457231Y-74599509D01*
X99454590Y-74616470D01*
X91943887Y-74616470D01*
X91953211Y-74606169D01*
X91953212Y-74606168D01*
X91959239Y-74599509D01*
X91966398Y-74584734D01*
X92014712Y-74485013D01*
X92014712Y-74485012D01*
X92018627Y-74476932D01*
X92036333Y-74371693D01*
X92040419Y-74347408D01*
X92040419Y-74347403D01*
X92041225Y-74342615D01*
X92041368Y-74330878D01*
X92031681Y-74263234D01*
X92023332Y-74204935D01*
X92023331Y-74204932D01*
X92022059Y-74196049D01*
X91971173Y-74084131D01*
X97850624Y-74084131D01*
X97851788Y-74093033D01*
X97851788Y-74093036D01*
X97852926Y-74101737D01*
X97868284Y-74219186D01*
X97871901Y-74227406D01*
X97917430Y-74330878D01*
X97923140Y-74343856D01*
X97928917Y-74350729D01*
X97928918Y-74350730D01*
X97946539Y-74371693D01*
X98010782Y-74448119D01*
X98049308Y-74473764D01*
X98083308Y-74496396D01*
X98124165Y-74523593D01*
X98254173Y-74564210D01*
X98390355Y-74566706D01*
X98454501Y-74549218D01*
X98513102Y-74533242D01*
X98513105Y-74533241D01*
X98521764Y-74530880D01*
X98529414Y-74526183D01*
X98529416Y-74526182D01*
X98630184Y-74464311D01*
X98630187Y-74464308D01*
X98637836Y-74459612D01*
X98645488Y-74451159D01*
X98723211Y-74365291D01*
X98723212Y-74365290D01*
X98729239Y-74358631D01*
X98734677Y-74347408D01*
X98784712Y-74244135D01*
X98784712Y-74244134D01*
X98788627Y-74236054D01*
X98803581Y-74147171D01*
X98810419Y-74106530D01*
X98810419Y-74106525D01*
X98811225Y-74101737D01*
X98811368Y-74090000D01*
X98794437Y-73971773D01*
X98793332Y-73964057D01*
X98793331Y-73964054D01*
X98792059Y-73955171D01*
X98735684Y-73831180D01*
X98646774Y-73727996D01*
X98568667Y-73677369D01*
X98540010Y-73658794D01*
X98540008Y-73658793D01*
X98532479Y-73653913D01*
X98523882Y-73651342D01*
X98523880Y-73651341D01*
X98446951Y-73628335D01*
X98401984Y-73614887D01*
X98393008Y-73614832D01*
X98393007Y-73614832D01*
X98336014Y-73614484D01*
X98265782Y-73614055D01*
X98257150Y-73616522D01*
X98143451Y-73649017D01*
X98143449Y-73649018D01*
X98134820Y-73651484D01*
X98019628Y-73724165D01*
X97929465Y-73826255D01*
X97925651Y-73834378D01*
X97925650Y-73834380D01*
X97915975Y-73854988D01*
X97871579Y-73949548D01*
X97870199Y-73958412D01*
X97870198Y-73958415D01*
X97852006Y-74075258D01*
X97850624Y-74084131D01*
X91971173Y-74084131D01*
X91965684Y-74072058D01*
X91876774Y-73968874D01*
X91834426Y-73941425D01*
X91770010Y-73899672D01*
X91770008Y-73899671D01*
X91762479Y-73894791D01*
X91753882Y-73892220D01*
X91753880Y-73892219D01*
X91676951Y-73869213D01*
X91631984Y-73855765D01*
X91623008Y-73855710D01*
X91623007Y-73855710D01*
X91566014Y-73855362D01*
X91495782Y-73854933D01*
X91487150Y-73857400D01*
X91373451Y-73889895D01*
X91373449Y-73889896D01*
X91364820Y-73892362D01*
X91357230Y-73897151D01*
X91260133Y-73958415D01*
X91249628Y-73965043D01*
X91159465Y-74067133D01*
X91155651Y-74075256D01*
X91155650Y-74075258D01*
X91146447Y-74094860D01*
X91101579Y-74190426D01*
X91100199Y-74199290D01*
X91100198Y-74199293D01*
X91089635Y-74267137D01*
X91080624Y-74325009D01*
X87682544Y-74325009D01*
X87732167Y-74265025D01*
X87732169Y-74265021D01*
X87736096Y-74260275D01*
X87834081Y-74079055D01*
X87895001Y-73882254D01*
X87895900Y-73873705D01*
X87915891Y-73683498D01*
X87915891Y-73683496D01*
X87916535Y-73677369D01*
X87900139Y-73497201D01*
X87898423Y-73478342D01*
X87898422Y-73478339D01*
X87897864Y-73472203D01*
X87839698Y-73274572D01*
X87835500Y-73266541D01*
X87747109Y-73097467D01*
X87744252Y-73092002D01*
X87734382Y-73079725D01*
X87619028Y-72936254D01*
X87619028Y-72936253D01*
X87615163Y-72931447D01*
X87521688Y-72853012D01*
X91431743Y-72853012D01*
X91449403Y-72988067D01*
X91504259Y-73112737D01*
X91510036Y-73119610D01*
X91510037Y-73119611D01*
X91538066Y-73152955D01*
X91591901Y-73217000D01*
X91599378Y-73221977D01*
X91679304Y-73275180D01*
X91705284Y-73292474D01*
X91835292Y-73333091D01*
X91971474Y-73335587D01*
X91983457Y-73332320D01*
X91986870Y-73332386D01*
X91989041Y-73332116D01*
X91989080Y-73332429D01*
X92054438Y-73333701D01*
X92113407Y-73373239D01*
X92141531Y-73437544D01*
X92148284Y-73489186D01*
X92203140Y-73613856D01*
X92208917Y-73620729D01*
X92208918Y-73620730D01*
X92245784Y-73664587D01*
X92290782Y-73718119D01*
X92404165Y-73793593D01*
X92534173Y-73834210D01*
X92670355Y-73836706D01*
X92715574Y-73824378D01*
X92793102Y-73803242D01*
X92793105Y-73803241D01*
X92801764Y-73800880D01*
X92809414Y-73796183D01*
X92809416Y-73796182D01*
X92910184Y-73734311D01*
X92910187Y-73734308D01*
X92917836Y-73729612D01*
X92966895Y-73675413D01*
X93003211Y-73635291D01*
X93003212Y-73635290D01*
X93009239Y-73628631D01*
X93014652Y-73617460D01*
X93064712Y-73514135D01*
X93064712Y-73514134D01*
X93068627Y-73506054D01*
X93091225Y-73371737D01*
X93091368Y-73360000D01*
X93080985Y-73287499D01*
X93073332Y-73234057D01*
X93073331Y-73234054D01*
X93072059Y-73225171D01*
X93015684Y-73101180D01*
X92926774Y-72997996D01*
X92884727Y-72970742D01*
X92820010Y-72928794D01*
X92820008Y-72928793D01*
X92812479Y-72923913D01*
X92803882Y-72921342D01*
X92803880Y-72921341D01*
X92726951Y-72898335D01*
X92681984Y-72884887D01*
X92673008Y-72884832D01*
X92673007Y-72884832D01*
X92616014Y-72884484D01*
X92545782Y-72884055D01*
X92537150Y-72886522D01*
X92528259Y-72887740D01*
X92527935Y-72885372D01*
X92469849Y-72884948D01*
X92410405Y-72846129D01*
X92382386Y-72784131D01*
X97150624Y-72784131D01*
X97151788Y-72793033D01*
X97151788Y-72793036D01*
X97152571Y-72799024D01*
X97168284Y-72919186D01*
X97223140Y-73043856D01*
X97228917Y-73050729D01*
X97228918Y-73050730D01*
X97305002Y-73141243D01*
X97310782Y-73148119D01*
X97424165Y-73223593D01*
X97554173Y-73264210D01*
X97690355Y-73266706D01*
X97733520Y-73254938D01*
X97813102Y-73233242D01*
X97813105Y-73233241D01*
X97821764Y-73230880D01*
X97829414Y-73226183D01*
X97829416Y-73226182D01*
X97930184Y-73164311D01*
X97930187Y-73164308D01*
X97937836Y-73159612D01*
X97987706Y-73104517D01*
X98023211Y-73065291D01*
X98023212Y-73065290D01*
X98029239Y-73058631D01*
X98036398Y-73043856D01*
X98084712Y-72944135D01*
X98084712Y-72944134D01*
X98088627Y-72936054D01*
X98103756Y-72846129D01*
X98110419Y-72806530D01*
X98110419Y-72806525D01*
X98111225Y-72801737D01*
X98111368Y-72790000D01*
X98092059Y-72655171D01*
X98083589Y-72636541D01*
X98068448Y-72603242D01*
X98035684Y-72531180D01*
X98029826Y-72524381D01*
X98029823Y-72524377D01*
X98006939Y-72497820D01*
X97977625Y-72433158D01*
X97987924Y-72362912D01*
X98008975Y-72331019D01*
X98023211Y-72315291D01*
X98023212Y-72315290D01*
X98029239Y-72308631D01*
X98034678Y-72297406D01*
X98084712Y-72194135D01*
X98084712Y-72194134D01*
X98088627Y-72186054D01*
X98111225Y-72051737D01*
X98111368Y-72040000D01*
X98104010Y-71988618D01*
X98093332Y-71914057D01*
X98093331Y-71914054D01*
X98092059Y-71905171D01*
X98035684Y-71781180D01*
X97946774Y-71677996D01*
X97933472Y-71669374D01*
X97840010Y-71608794D01*
X97840008Y-71608793D01*
X97832479Y-71603913D01*
X97823882Y-71601342D01*
X97823880Y-71601341D01*
X97724889Y-71571737D01*
X97701984Y-71564887D01*
X97693008Y-71564832D01*
X97693007Y-71564832D01*
X97636014Y-71564484D01*
X97565782Y-71564055D01*
X97557150Y-71566522D01*
X97443451Y-71599017D01*
X97443449Y-71599018D01*
X97434820Y-71601484D01*
X97319628Y-71674165D01*
X97313685Y-71680894D01*
X97313684Y-71680895D01*
X97241304Y-71762849D01*
X97229465Y-71776255D01*
X97225651Y-71784378D01*
X97225650Y-71784380D01*
X97211811Y-71813856D01*
X97171579Y-71899548D01*
X97170199Y-71908412D01*
X97170198Y-71908415D01*
X97154053Y-72012111D01*
X97150624Y-72034131D01*
X97151788Y-72043033D01*
X97151788Y-72043036D01*
X97152926Y-72051737D01*
X97168284Y-72169186D01*
X97223140Y-72293856D01*
X97228917Y-72300729D01*
X97228918Y-72300730D01*
X97256454Y-72333488D01*
X97284975Y-72398504D01*
X97273819Y-72468618D01*
X97254445Y-72497970D01*
X97249403Y-72503679D01*
X97229465Y-72526255D01*
X97171579Y-72649548D01*
X97170199Y-72658412D01*
X97170198Y-72658415D01*
X97162119Y-72710306D01*
X97150624Y-72784131D01*
X92382386Y-72784131D01*
X92381502Y-72782176D01*
X92374451Y-72732938D01*
X92374450Y-72732935D01*
X92373178Y-72724052D01*
X92363490Y-72702743D01*
X92339303Y-72649548D01*
X92316803Y-72600061D01*
X92227893Y-72496877D01*
X92184295Y-72468618D01*
X92121129Y-72427675D01*
X92121127Y-72427674D01*
X92113598Y-72422794D01*
X92105001Y-72420223D01*
X92104999Y-72420222D01*
X92028070Y-72397216D01*
X91983103Y-72383768D01*
X91974127Y-72383713D01*
X91974126Y-72383713D01*
X91917133Y-72383365D01*
X91846901Y-72382936D01*
X91838269Y-72385403D01*
X91724570Y-72417898D01*
X91724568Y-72417899D01*
X91715939Y-72420365D01*
X91600747Y-72493046D01*
X91510584Y-72595136D01*
X91506770Y-72603259D01*
X91506769Y-72603261D01*
X91491144Y-72636541D01*
X91452698Y-72718429D01*
X91451318Y-72727293D01*
X91451317Y-72727296D01*
X91439727Y-72801737D01*
X91431743Y-72853012D01*
X87521688Y-72853012D01*
X87457348Y-72799024D01*
X87451950Y-72796056D01*
X87451945Y-72796053D01*
X87282213Y-72702743D01*
X87276816Y-72699776D01*
X87080446Y-72637484D01*
X87074329Y-72636798D01*
X87074325Y-72636797D01*
X86998104Y-72628248D01*
X86920114Y-72619500D01*
X85536978Y-72619500D01*
X85468857Y-72599498D01*
X85422364Y-72545842D01*
X85410978Y-72493500D01*
X85410978Y-72306500D01*
X85430980Y-72238379D01*
X85484636Y-72191886D01*
X85536978Y-72180500D01*
X86912819Y-72180500D01*
X87066008Y-72165480D01*
X87263229Y-72105935D01*
X87445129Y-72009218D01*
X87567574Y-71909354D01*
X87600003Y-71882906D01*
X87600006Y-71882903D01*
X87604778Y-71879011D01*
X87613430Y-71868553D01*
X87732167Y-71725025D01*
X87732169Y-71725021D01*
X87736096Y-71720275D01*
X87825929Y-71554131D01*
X92330624Y-71554131D01*
X92331788Y-71563033D01*
X92331788Y-71563036D01*
X92337442Y-71606273D01*
X92348284Y-71689186D01*
X92403140Y-71813856D01*
X92408917Y-71820729D01*
X92408918Y-71820730D01*
X92452452Y-71872520D01*
X92490782Y-71918119D01*
X92604165Y-71993593D01*
X92612732Y-71996269D01*
X92612733Y-71996270D01*
X92644966Y-72006340D01*
X92704022Y-72045746D01*
X92732399Y-72110825D01*
X92732032Y-72136283D01*
X92732115Y-72136284D01*
X92732005Y-72145260D01*
X92730624Y-72154131D01*
X92731788Y-72163033D01*
X92731788Y-72163036D01*
X92739454Y-72221659D01*
X92748284Y-72289186D01*
X92766691Y-72331019D01*
X92796216Y-72398119D01*
X92803140Y-72413856D01*
X92808917Y-72420729D01*
X92808918Y-72420730D01*
X92872926Y-72496877D01*
X92890782Y-72518119D01*
X93004165Y-72593593D01*
X93134173Y-72634210D01*
X93270355Y-72636706D01*
X93332025Y-72619893D01*
X93393102Y-72603242D01*
X93393105Y-72603241D01*
X93401764Y-72600880D01*
X93409414Y-72596183D01*
X93409416Y-72596182D01*
X93510184Y-72534311D01*
X93510187Y-72534308D01*
X93517836Y-72529612D01*
X93526965Y-72519527D01*
X93603211Y-72435291D01*
X93603212Y-72435290D01*
X93609239Y-72428631D01*
X93616156Y-72414356D01*
X93664712Y-72314135D01*
X93664712Y-72314134D01*
X93668627Y-72306054D01*
X93681096Y-72231941D01*
X93690419Y-72176530D01*
X93690419Y-72176525D01*
X93691225Y-72171737D01*
X93691368Y-72160000D01*
X93683074Y-72102087D01*
X93673332Y-72034057D01*
X93673331Y-72034054D01*
X93672059Y-72025171D01*
X93615684Y-71901180D01*
X93607279Y-71891425D01*
X93532635Y-71804798D01*
X93526774Y-71797996D01*
X93423217Y-71730873D01*
X93420010Y-71728794D01*
X93420008Y-71728793D01*
X93412479Y-71723913D01*
X93403882Y-71721342D01*
X93403880Y-71721341D01*
X93379272Y-71713982D01*
X93319738Y-71675300D01*
X93290568Y-71610573D01*
X93290992Y-71581479D01*
X93289983Y-71581388D01*
X93290419Y-71576530D01*
X93291225Y-71571737D01*
X93291296Y-71565899D01*
X93291309Y-71564860D01*
X93291309Y-71564857D01*
X93291368Y-71560000D01*
X93285570Y-71519516D01*
X93273332Y-71434057D01*
X93273331Y-71434054D01*
X93272059Y-71425171D01*
X93215684Y-71301180D01*
X93126774Y-71197996D01*
X93074805Y-71164311D01*
X93020010Y-71128794D01*
X93020008Y-71128793D01*
X93012479Y-71123913D01*
X93003882Y-71121342D01*
X93003880Y-71121341D01*
X92926951Y-71098335D01*
X92881984Y-71084887D01*
X92873008Y-71084832D01*
X92873007Y-71084832D01*
X92816014Y-71084484D01*
X92745782Y-71084055D01*
X92737150Y-71086522D01*
X92623451Y-71119017D01*
X92623449Y-71119018D01*
X92614820Y-71121484D01*
X92607230Y-71126273D01*
X92546944Y-71164311D01*
X92499628Y-71194165D01*
X92409465Y-71296255D01*
X92351579Y-71419548D01*
X92350199Y-71428412D01*
X92350198Y-71428415D01*
X92332128Y-71544474D01*
X92330624Y-71554131D01*
X87825929Y-71554131D01*
X87834081Y-71539055D01*
X87895001Y-71342254D01*
X87895900Y-71333705D01*
X87915891Y-71143498D01*
X87915891Y-71143496D01*
X87916535Y-71137369D01*
X87904034Y-71000000D01*
X87898423Y-70938342D01*
X87898422Y-70938339D01*
X87897864Y-70932203D01*
X87854284Y-70784131D01*
X89350624Y-70784131D01*
X89351788Y-70793033D01*
X89351788Y-70793036D01*
X89352926Y-70801737D01*
X89368284Y-70919186D01*
X89371901Y-70927406D01*
X89401261Y-70994131D01*
X89423140Y-71043856D01*
X89428917Y-71050729D01*
X89428918Y-71050730D01*
X89501604Y-71137201D01*
X89510782Y-71148119D01*
X89518259Y-71153096D01*
X89572759Y-71189374D01*
X89624165Y-71223593D01*
X89655050Y-71233242D01*
X89721032Y-71253856D01*
X89754173Y-71264210D01*
X89890355Y-71266706D01*
X89937489Y-71253856D01*
X90013102Y-71233242D01*
X90013105Y-71233241D01*
X90021764Y-71230880D01*
X90029414Y-71226183D01*
X90029416Y-71226182D01*
X90130184Y-71164311D01*
X90130187Y-71164308D01*
X90137836Y-71159612D01*
X90157970Y-71137369D01*
X90223211Y-71065291D01*
X90223212Y-71065290D01*
X90229239Y-71058631D01*
X90236398Y-71043856D01*
X90284712Y-70944135D01*
X90284712Y-70944134D01*
X90288627Y-70936054D01*
X90311225Y-70801737D01*
X90311368Y-70790000D01*
X90303402Y-70734378D01*
X90293332Y-70664057D01*
X90293331Y-70664054D01*
X90292059Y-70655171D01*
X90282030Y-70633112D01*
X90252666Y-70568531D01*
X90235684Y-70531180D01*
X90146774Y-70427996D01*
X90105597Y-70401306D01*
X90040010Y-70358794D01*
X90040008Y-70358793D01*
X90032479Y-70353913D01*
X90023882Y-70351342D01*
X90023880Y-70351341D01*
X89946182Y-70328105D01*
X89901984Y-70314887D01*
X89893008Y-70314832D01*
X89893007Y-70314832D01*
X89836014Y-70314484D01*
X89765782Y-70314055D01*
X89757150Y-70316522D01*
X89643451Y-70349017D01*
X89643449Y-70349018D01*
X89634820Y-70351484D01*
X89519628Y-70424165D01*
X89513685Y-70430894D01*
X89513684Y-70430895D01*
X89462172Y-70489221D01*
X89429465Y-70526255D01*
X89425651Y-70534378D01*
X89425650Y-70534380D01*
X89409616Y-70568531D01*
X89371579Y-70649548D01*
X89370199Y-70658412D01*
X89370198Y-70658415D01*
X89356039Y-70749354D01*
X89350624Y-70784131D01*
X87854284Y-70784131D01*
X87839698Y-70734572D01*
X87806151Y-70670402D01*
X87747109Y-70557467D01*
X87744252Y-70552002D01*
X87734382Y-70539725D01*
X87619028Y-70396254D01*
X87619028Y-70396253D01*
X87615163Y-70391447D01*
X87457348Y-70259024D01*
X87451950Y-70256056D01*
X87451945Y-70256053D01*
X87282213Y-70162743D01*
X87276816Y-70159776D01*
X87080446Y-70097484D01*
X87074329Y-70096798D01*
X87074325Y-70096797D01*
X86998104Y-70088248D01*
X86920114Y-70079500D01*
X85536978Y-70079500D01*
X85468857Y-70059498D01*
X85422364Y-70005842D01*
X85410978Y-69953500D01*
X85410978Y-69834131D01*
X96150624Y-69834131D01*
X96151788Y-69843033D01*
X96151788Y-69843036D01*
X96152926Y-69851737D01*
X96168284Y-69969186D01*
X96175706Y-69986054D01*
X96214555Y-70074344D01*
X96223140Y-70093856D01*
X96228917Y-70100729D01*
X96228918Y-70100730D01*
X96272254Y-70152284D01*
X96310782Y-70198119D01*
X96366774Y-70235390D01*
X96389897Y-70250782D01*
X96424165Y-70273593D01*
X96554173Y-70314210D01*
X96690355Y-70316706D01*
X96741318Y-70302812D01*
X96813102Y-70283242D01*
X96813105Y-70283241D01*
X96821764Y-70280880D01*
X96829414Y-70276183D01*
X96829416Y-70276182D01*
X96930184Y-70214311D01*
X96930187Y-70214308D01*
X96937836Y-70209612D01*
X96952828Y-70193050D01*
X97023211Y-70115291D01*
X97023212Y-70115290D01*
X97029239Y-70108631D01*
X97035213Y-70096302D01*
X97084712Y-69994135D01*
X97084712Y-69994134D01*
X97088627Y-69986054D01*
X97111225Y-69851737D01*
X97111368Y-69840000D01*
X97099969Y-69760403D01*
X97093332Y-69714057D01*
X97093331Y-69714054D01*
X97092059Y-69705171D01*
X97041572Y-69594131D01*
X99619646Y-69594131D01*
X99620810Y-69603033D01*
X99620810Y-69603036D01*
X99628476Y-69661659D01*
X99637306Y-69729186D01*
X99692162Y-69853856D01*
X99697939Y-69860729D01*
X99697940Y-69860730D01*
X99774024Y-69951243D01*
X99779804Y-69958119D01*
X99893187Y-70033593D01*
X99924072Y-70043242D01*
X100003683Y-70068114D01*
X100023195Y-70074210D01*
X100159377Y-70076706D01*
X100222496Y-70059498D01*
X100282124Y-70043242D01*
X100282127Y-70043241D01*
X100290786Y-70040880D01*
X100356508Y-70000527D01*
X100425021Y-69981930D01*
X100492717Y-70003327D01*
X100538098Y-70057926D01*
X100546933Y-70127287D01*
X100538075Y-70184176D01*
X100538075Y-70184181D01*
X100536694Y-70193050D01*
X100537858Y-70201952D01*
X100537858Y-70201955D01*
X100538996Y-70210656D01*
X100554354Y-70328105D01*
X100569093Y-70361601D01*
X100599583Y-70430895D01*
X100609210Y-70452775D01*
X100614987Y-70459648D01*
X100614988Y-70459649D01*
X100639846Y-70489221D01*
X100696852Y-70557038D01*
X100810235Y-70632512D01*
X100856615Y-70647002D01*
X100882763Y-70655171D01*
X100940243Y-70673129D01*
X101076425Y-70675625D01*
X101100641Y-70669023D01*
X101171622Y-70670402D01*
X101230591Y-70709939D01*
X101258824Y-70775081D01*
X101247838Y-70844132D01*
X101244416Y-70851422D01*
X101240601Y-70859548D01*
X101239221Y-70868412D01*
X101239220Y-70868415D01*
X101227431Y-70944135D01*
X101219646Y-70994131D01*
X101220810Y-71003033D01*
X101220810Y-71003036D01*
X101221948Y-71011737D01*
X101237306Y-71129186D01*
X101292162Y-71253856D01*
X101297939Y-71260729D01*
X101297940Y-71260730D01*
X101326224Y-71294378D01*
X101379804Y-71358119D01*
X101493187Y-71433593D01*
X101524072Y-71443242D01*
X101609406Y-71469902D01*
X101623195Y-71474210D01*
X101759377Y-71476706D01*
X101802542Y-71464938D01*
X101882124Y-71443242D01*
X101882127Y-71443241D01*
X101890786Y-71440880D01*
X101898436Y-71436183D01*
X101898438Y-71436182D01*
X101999206Y-71374311D01*
X101999209Y-71374308D01*
X102006858Y-71369612D01*
X102026295Y-71348139D01*
X102092233Y-71275291D01*
X102092234Y-71275290D01*
X102098261Y-71268631D01*
X102105420Y-71253856D01*
X102153734Y-71154135D01*
X102153734Y-71154134D01*
X102157649Y-71146054D01*
X102173687Y-71050730D01*
X102179441Y-71016530D01*
X102179441Y-71016525D01*
X102180247Y-71011737D01*
X102180390Y-71000000D01*
X102169994Y-70927406D01*
X102162354Y-70874057D01*
X102162353Y-70874054D01*
X102161081Y-70865171D01*
X102104706Y-70741180D01*
X102015796Y-70637996D01*
X101999660Y-70627537D01*
X101909032Y-70568794D01*
X101909030Y-70568793D01*
X101901501Y-70563913D01*
X101892904Y-70561342D01*
X101892902Y-70561341D01*
X101804738Y-70534975D01*
X101771006Y-70524887D01*
X101762030Y-70524832D01*
X101762029Y-70524832D01*
X101705036Y-70524484D01*
X101634804Y-70524055D01*
X101619087Y-70528547D01*
X101548092Y-70528035D01*
X101488645Y-70489221D01*
X101459618Y-70424429D01*
X101469538Y-70362075D01*
X101468054Y-70361601D01*
X101470781Y-70353055D01*
X101474697Y-70344973D01*
X101497295Y-70210656D01*
X101497438Y-70198919D01*
X101491832Y-70159776D01*
X101479402Y-70072976D01*
X101479401Y-70072973D01*
X101478129Y-70064090D01*
X101421754Y-69940099D01*
X101332844Y-69836915D01*
X101302198Y-69817051D01*
X101226080Y-69767713D01*
X101226078Y-69767712D01*
X101218549Y-69762832D01*
X101209952Y-69760261D01*
X101209950Y-69760260D01*
X101133021Y-69737254D01*
X101088054Y-69723806D01*
X101079078Y-69723751D01*
X101079077Y-69723751D01*
X101022084Y-69723403D01*
X100951852Y-69722974D01*
X100943220Y-69725441D01*
X100829521Y-69757936D01*
X100829519Y-69757937D01*
X100820890Y-69760403D01*
X100813299Y-69765193D01*
X100813296Y-69765194D01*
X100761908Y-69797617D01*
X100693623Y-69817051D01*
X100625671Y-69796482D01*
X100579627Y-69742440D01*
X100570419Y-69670151D01*
X100580247Y-69611737D01*
X100580390Y-69600000D01*
X100561081Y-69465171D01*
X100504706Y-69341180D01*
X100415796Y-69237996D01*
X100385900Y-69218618D01*
X100309032Y-69168794D01*
X100309030Y-69168793D01*
X100301501Y-69163913D01*
X100292904Y-69161342D01*
X100292902Y-69161341D01*
X100215973Y-69138335D01*
X100171006Y-69124887D01*
X100162030Y-69124832D01*
X100162029Y-69124832D01*
X100105036Y-69124484D01*
X100034804Y-69124055D01*
X100026172Y-69126522D01*
X99912473Y-69159017D01*
X99912471Y-69159018D01*
X99903842Y-69161484D01*
X99896252Y-69166273D01*
X99805406Y-69223593D01*
X99788650Y-69234165D01*
X99698487Y-69336255D01*
X99694673Y-69344378D01*
X99694672Y-69344380D01*
X99683836Y-69367460D01*
X99640601Y-69459548D01*
X99639221Y-69468412D01*
X99639220Y-69468415D01*
X99621663Y-69581180D01*
X99619646Y-69594131D01*
X97041572Y-69594131D01*
X97035684Y-69581180D01*
X96946774Y-69477996D01*
X96933472Y-69469374D01*
X96840010Y-69408794D01*
X96840008Y-69408793D01*
X96832479Y-69403913D01*
X96823882Y-69401342D01*
X96823880Y-69401341D01*
X96746951Y-69378335D01*
X96701984Y-69364887D01*
X96693008Y-69364832D01*
X96693007Y-69364832D01*
X96636014Y-69364484D01*
X96565782Y-69364055D01*
X96557150Y-69366522D01*
X96443451Y-69399017D01*
X96443449Y-69399018D01*
X96434820Y-69401484D01*
X96427230Y-69406273D01*
X96333883Y-69465171D01*
X96319628Y-69474165D01*
X96229465Y-69576255D01*
X96225651Y-69584378D01*
X96225650Y-69584380D01*
X96212806Y-69611737D01*
X96171579Y-69699548D01*
X96170199Y-69708412D01*
X96170198Y-69708415D01*
X96161358Y-69765194D01*
X96150624Y-69834131D01*
X85410978Y-69834131D01*
X85410978Y-68784131D01*
X89750624Y-68784131D01*
X89751788Y-68793033D01*
X89751788Y-68793036D01*
X89752926Y-68801737D01*
X89768284Y-68919186D01*
X89823140Y-69043856D01*
X89828917Y-69050729D01*
X89828918Y-69050730D01*
X89892628Y-69126522D01*
X89910782Y-69148119D01*
X90024165Y-69223593D01*
X90154173Y-69264210D01*
X90290355Y-69266706D01*
X90333520Y-69254938D01*
X90413102Y-69233242D01*
X90413105Y-69233241D01*
X90421764Y-69230880D01*
X90429414Y-69226183D01*
X90429416Y-69226182D01*
X90530184Y-69164311D01*
X90530187Y-69164308D01*
X90537836Y-69159612D01*
X90566939Y-69127460D01*
X90623211Y-69065291D01*
X90623212Y-69065290D01*
X90629239Y-69058631D01*
X90636398Y-69043856D01*
X90684712Y-68944135D01*
X90684712Y-68944134D01*
X90688627Y-68936054D01*
X90711225Y-68801737D01*
X90711368Y-68790000D01*
X90694797Y-68674291D01*
X90704939Y-68604024D01*
X90753594Y-68549057D01*
X90817836Y-68509612D01*
X90895179Y-68424165D01*
X90903211Y-68415291D01*
X90903212Y-68415290D01*
X90909239Y-68408631D01*
X90936927Y-68351484D01*
X90964712Y-68294135D01*
X90964712Y-68294134D01*
X90968627Y-68286054D01*
X90991225Y-68151737D01*
X90991368Y-68140000D01*
X90972059Y-68005171D01*
X90915684Y-67881180D01*
X90826774Y-67777996D01*
X90813472Y-67769374D01*
X90720010Y-67708794D01*
X90720008Y-67708793D01*
X90712479Y-67703913D01*
X90703882Y-67701342D01*
X90703880Y-67701341D01*
X90626951Y-67678335D01*
X90581984Y-67664887D01*
X90573008Y-67664832D01*
X90573007Y-67664832D01*
X90516014Y-67664484D01*
X90445782Y-67664055D01*
X90437150Y-67666522D01*
X90323451Y-67699017D01*
X90323449Y-67699018D01*
X90314820Y-67701484D01*
X90199628Y-67774165D01*
X90109465Y-67876255D01*
X90051579Y-67999548D01*
X90030624Y-68134131D01*
X90031788Y-68143033D01*
X90031788Y-68143036D01*
X90046751Y-68257463D01*
X90035751Y-68327602D01*
X89989051Y-68380361D01*
X89927225Y-68419370D01*
X89927218Y-68419376D01*
X89919628Y-68424165D01*
X89829465Y-68526255D01*
X89771579Y-68649548D01*
X89750624Y-68784131D01*
X85410978Y-68784131D01*
X85410978Y-67226500D01*
X85430980Y-67158379D01*
X85484636Y-67111886D01*
X85536978Y-67100500D01*
X86912819Y-67100500D01*
X87066008Y-67085480D01*
X87263229Y-67025935D01*
X87445129Y-66929218D01*
X87535076Y-66855859D01*
X87600003Y-66802906D01*
X87600006Y-66802903D01*
X87604778Y-66799011D01*
X87617088Y-66784131D01*
X90400624Y-66784131D01*
X90401788Y-66793033D01*
X90401788Y-66793036D01*
X90402926Y-66801737D01*
X90418284Y-66919186D01*
X90421901Y-66927406D01*
X90465255Y-67025935D01*
X90473140Y-67043856D01*
X90478917Y-67050729D01*
X90478918Y-67050730D01*
X90555002Y-67141243D01*
X90560782Y-67148119D01*
X90674165Y-67223593D01*
X90804173Y-67264210D01*
X90940355Y-67266706D01*
X90983520Y-67254938D01*
X91063102Y-67233242D01*
X91063105Y-67233241D01*
X91071764Y-67230880D01*
X91079414Y-67226183D01*
X91079416Y-67226182D01*
X91180184Y-67164311D01*
X91180187Y-67164308D01*
X91187836Y-67159612D01*
X91223237Y-67120502D01*
X91273211Y-67065291D01*
X91273212Y-67065290D01*
X91279239Y-67058631D01*
X91286398Y-67043856D01*
X91334712Y-66944135D01*
X91334712Y-66944134D01*
X91338627Y-66936054D01*
X91361225Y-66801737D01*
X91361368Y-66790000D01*
X91342059Y-66655171D01*
X91332822Y-66634854D01*
X91289400Y-66539354D01*
X91285684Y-66531180D01*
X91196774Y-66427996D01*
X91138003Y-66389902D01*
X91090010Y-66358794D01*
X91090008Y-66358793D01*
X91082479Y-66353913D01*
X91073882Y-66351342D01*
X91073880Y-66351341D01*
X90996951Y-66328335D01*
X90951984Y-66314887D01*
X90943008Y-66314832D01*
X90943007Y-66314832D01*
X90886014Y-66314484D01*
X90815782Y-66314055D01*
X90807150Y-66316522D01*
X90693451Y-66349017D01*
X90693449Y-66349018D01*
X90684820Y-66351484D01*
X90569628Y-66424165D01*
X90563685Y-66430894D01*
X90563684Y-66430895D01*
X90544013Y-66453168D01*
X90479465Y-66526255D01*
X90475651Y-66534378D01*
X90475650Y-66534380D01*
X90473315Y-66539354D01*
X90421579Y-66649548D01*
X90420199Y-66658412D01*
X90420198Y-66658415D01*
X90406054Y-66749258D01*
X90400624Y-66784131D01*
X87617088Y-66784131D01*
X87732167Y-66645025D01*
X87732169Y-66645021D01*
X87736096Y-66640275D01*
X87834081Y-66459055D01*
X87895001Y-66262254D01*
X87895900Y-66253705D01*
X87915891Y-66063498D01*
X87915891Y-66063496D01*
X87916535Y-66057369D01*
X87900712Y-65883500D01*
X87898423Y-65858342D01*
X87898422Y-65858339D01*
X87897864Y-65852203D01*
X87839698Y-65654572D01*
X87744252Y-65472002D01*
X87734382Y-65459725D01*
X87619028Y-65316254D01*
X87619028Y-65316253D01*
X87618720Y-65315870D01*
X90327654Y-65315870D01*
X90328818Y-65324772D01*
X90328818Y-65324775D01*
X90329956Y-65333476D01*
X90345314Y-65450925D01*
X90400170Y-65575595D01*
X90405947Y-65582468D01*
X90405948Y-65582469D01*
X90418188Y-65597030D01*
X90487812Y-65679858D01*
X90601195Y-65755332D01*
X90731203Y-65795949D01*
X90867385Y-65798445D01*
X90910550Y-65786677D01*
X90990132Y-65764981D01*
X90990135Y-65764980D01*
X90998794Y-65762619D01*
X91006444Y-65757922D01*
X91006446Y-65757921D01*
X91107214Y-65696050D01*
X91107217Y-65696047D01*
X91114866Y-65691351D01*
X91142806Y-65660484D01*
X91200241Y-65597030D01*
X91200242Y-65597029D01*
X91206269Y-65590370D01*
X91213428Y-65575595D01*
X91261742Y-65475874D01*
X91261742Y-65475873D01*
X91265657Y-65467793D01*
X91288255Y-65333476D01*
X91288398Y-65321739D01*
X91269089Y-65186910D01*
X91263528Y-65174678D01*
X91250837Y-65146766D01*
X91212714Y-65062919D01*
X91123804Y-64959735D01*
X91017487Y-64890823D01*
X91017040Y-64890533D01*
X91017038Y-64890532D01*
X91009509Y-64885652D01*
X91000912Y-64883081D01*
X91000910Y-64883080D01*
X90923981Y-64860074D01*
X90879014Y-64846626D01*
X90870038Y-64846571D01*
X90870037Y-64846571D01*
X90813044Y-64846223D01*
X90742812Y-64845794D01*
X90734180Y-64848261D01*
X90620481Y-64880756D01*
X90620479Y-64880757D01*
X90611850Y-64883223D01*
X90496658Y-64955904D01*
X90406495Y-65057994D01*
X90402681Y-65066117D01*
X90402680Y-65066119D01*
X90374873Y-65125346D01*
X90348609Y-65181287D01*
X90347229Y-65190151D01*
X90347228Y-65190154D01*
X90329232Y-65305738D01*
X90327654Y-65315870D01*
X87618720Y-65315870D01*
X87615163Y-65311447D01*
X87457348Y-65179024D01*
X87437094Y-65167889D01*
X87282213Y-65082743D01*
X87276816Y-65079776D01*
X87080446Y-65017484D01*
X87074329Y-65016798D01*
X87074325Y-65016797D01*
X86998104Y-65008248D01*
X86920114Y-64999500D01*
X85536978Y-64999500D01*
X85468857Y-64979498D01*
X85422364Y-64925842D01*
X85410978Y-64873500D01*
X85410978Y-64686500D01*
X85430980Y-64618379D01*
X85433353Y-64616323D01*
X91381142Y-64616323D01*
X91382306Y-64625225D01*
X91382306Y-64625228D01*
X91383444Y-64633929D01*
X91398802Y-64751378D01*
X91453658Y-64876048D01*
X91459435Y-64882921D01*
X91459436Y-64882922D01*
X91519899Y-64954851D01*
X91541300Y-64980311D01*
X91654683Y-65055785D01*
X91784691Y-65096402D01*
X91920873Y-65098898D01*
X91964038Y-65087130D01*
X92043620Y-65065434D01*
X92043623Y-65065433D01*
X92052282Y-65063072D01*
X92059932Y-65058375D01*
X92059934Y-65058374D01*
X92160702Y-64996503D01*
X92160705Y-64996500D01*
X92168354Y-64991804D01*
X92191225Y-64966537D01*
X92253729Y-64897483D01*
X92253730Y-64897482D01*
X92259757Y-64890823D01*
X92264635Y-64880756D01*
X92315230Y-64776327D01*
X92315230Y-64776326D01*
X92319145Y-64768246D01*
X92341743Y-64633929D01*
X92341886Y-64622192D01*
X92334520Y-64570756D01*
X92323850Y-64496249D01*
X92323849Y-64496246D01*
X92322577Y-64487363D01*
X92266202Y-64363372D01*
X92177292Y-64260188D01*
X92136499Y-64233747D01*
X92070528Y-64190986D01*
X92070526Y-64190985D01*
X92062997Y-64186105D01*
X92054400Y-64183534D01*
X92054398Y-64183533D01*
X91977469Y-64160527D01*
X91932502Y-64147079D01*
X91923526Y-64147024D01*
X91923525Y-64147024D01*
X91866532Y-64146676D01*
X91796300Y-64146247D01*
X91787668Y-64148714D01*
X91673969Y-64181209D01*
X91673967Y-64181210D01*
X91665338Y-64183676D01*
X91657748Y-64188465D01*
X91562515Y-64248553D01*
X91550146Y-64256357D01*
X91459983Y-64358447D01*
X91456169Y-64366570D01*
X91456168Y-64366572D01*
X91448011Y-64383947D01*
X91402097Y-64481740D01*
X91400717Y-64490604D01*
X91400716Y-64490607D01*
X91388654Y-64568079D01*
X91381142Y-64616323D01*
X85433353Y-64616323D01*
X85484636Y-64571886D01*
X85536978Y-64560500D01*
X86912819Y-64560500D01*
X87066008Y-64545480D01*
X87263229Y-64485935D01*
X87445129Y-64389218D01*
X87594995Y-64266990D01*
X87600003Y-64262906D01*
X87600006Y-64262903D01*
X87604778Y-64259011D01*
X87613430Y-64248553D01*
X87732167Y-64105025D01*
X87732169Y-64105021D01*
X87736096Y-64100275D01*
X87741286Y-64090677D01*
X93643328Y-64090677D01*
X93644492Y-64099579D01*
X93644492Y-64099582D01*
X93645204Y-64105025D01*
X93660988Y-64225732D01*
X93674000Y-64255304D01*
X93708924Y-64334674D01*
X93715844Y-64350402D01*
X93721621Y-64357275D01*
X93721622Y-64357276D01*
X93729436Y-64366572D01*
X93803486Y-64454665D01*
X93916869Y-64530139D01*
X94046877Y-64570756D01*
X94183059Y-64573252D01*
X94231275Y-64560107D01*
X94305806Y-64539788D01*
X94305809Y-64539787D01*
X94314468Y-64537426D01*
X94322118Y-64532729D01*
X94322120Y-64532728D01*
X94422888Y-64470857D01*
X94422891Y-64470854D01*
X94430540Y-64466158D01*
X94500183Y-64389218D01*
X94515915Y-64371837D01*
X94515916Y-64371836D01*
X94521943Y-64365177D01*
X94528464Y-64351719D01*
X94577416Y-64250681D01*
X94577416Y-64250680D01*
X94581331Y-64242600D01*
X94603929Y-64108283D01*
X94604072Y-64096546D01*
X94584763Y-63961717D01*
X94528388Y-63837726D01*
X94439478Y-63734542D01*
X94431943Y-63729658D01*
X94332714Y-63665340D01*
X94332712Y-63665339D01*
X94325183Y-63660459D01*
X94316586Y-63657888D01*
X94316584Y-63657887D01*
X94239655Y-63634881D01*
X94194688Y-63621433D01*
X94185712Y-63621378D01*
X94185711Y-63621378D01*
X94128718Y-63621030D01*
X94058486Y-63620601D01*
X94049854Y-63623068D01*
X93936155Y-63655563D01*
X93936153Y-63655564D01*
X93927524Y-63658030D01*
X93919934Y-63662819D01*
X93835445Y-63716128D01*
X93812332Y-63730711D01*
X93806389Y-63737440D01*
X93806388Y-63737441D01*
X93764474Y-63784900D01*
X93722169Y-63832801D01*
X93664283Y-63956094D01*
X93643328Y-64090677D01*
X87741286Y-64090677D01*
X87834081Y-63919055D01*
X87895001Y-63722254D01*
X87895900Y-63713705D01*
X87915891Y-63523498D01*
X87915891Y-63523496D01*
X87916535Y-63517369D01*
X87900712Y-63343500D01*
X87898423Y-63318342D01*
X87898422Y-63318339D01*
X87897864Y-63312203D01*
X87894957Y-63302325D01*
X92470290Y-63302325D01*
X92471454Y-63311227D01*
X92471454Y-63311230D01*
X92475674Y-63343500D01*
X92487950Y-63437380D01*
X92542806Y-63562050D01*
X92548583Y-63568923D01*
X92548584Y-63568924D01*
X92594097Y-63623068D01*
X92630448Y-63666313D01*
X92743831Y-63741787D01*
X92873839Y-63782404D01*
X93010021Y-63784900D01*
X93053186Y-63773132D01*
X93132768Y-63751436D01*
X93132771Y-63751435D01*
X93141430Y-63749074D01*
X93149080Y-63744377D01*
X93149082Y-63744376D01*
X93249850Y-63682505D01*
X93249853Y-63682502D01*
X93257502Y-63677806D01*
X93271068Y-63662819D01*
X93342877Y-63583485D01*
X93342878Y-63583484D01*
X93348905Y-63576825D01*
X93356064Y-63562050D01*
X93404378Y-63462329D01*
X93404378Y-63462328D01*
X93408293Y-63454248D01*
X93430891Y-63319931D01*
X93431034Y-63308194D01*
X93411725Y-63173365D01*
X93355350Y-63049374D01*
X93266440Y-62946190D01*
X93237139Y-62927198D01*
X93159676Y-62876988D01*
X93159674Y-62876987D01*
X93152145Y-62872107D01*
X93143548Y-62869536D01*
X93143546Y-62869535D01*
X93066617Y-62846529D01*
X93021650Y-62833081D01*
X93012674Y-62833026D01*
X93012673Y-62833026D01*
X92955680Y-62832678D01*
X92885448Y-62832249D01*
X92876816Y-62834716D01*
X92763117Y-62867211D01*
X92763115Y-62867212D01*
X92754486Y-62869678D01*
X92746896Y-62874467D01*
X92663323Y-62927198D01*
X92639294Y-62942359D01*
X92549131Y-63044449D01*
X92491245Y-63167742D01*
X92470290Y-63302325D01*
X87894957Y-63302325D01*
X87839698Y-63114572D01*
X87744252Y-62932002D01*
X87734382Y-62919725D01*
X87619028Y-62776254D01*
X87619028Y-62776253D01*
X87615163Y-62771447D01*
X87457348Y-62639024D01*
X87451950Y-62636056D01*
X87451945Y-62636053D01*
X87282213Y-62542743D01*
X87276816Y-62539776D01*
X87080446Y-62477484D01*
X87074329Y-62476798D01*
X87074325Y-62476797D01*
X86998104Y-62468248D01*
X86920114Y-62459500D01*
X85536978Y-62459500D01*
X85468857Y-62439498D01*
X85422364Y-62385842D01*
X85410978Y-62333500D01*
X85410978Y-62146500D01*
X85430980Y-62078379D01*
X85484636Y-62031886D01*
X85536978Y-62020500D01*
X86912819Y-62020500D01*
X87066008Y-62005480D01*
X87263229Y-61945935D01*
X87445129Y-61849218D01*
X87535076Y-61775859D01*
X87600003Y-61722906D01*
X87600006Y-61722903D01*
X87604778Y-61719011D01*
X87613430Y-61708553D01*
X87732167Y-61565025D01*
X87732169Y-61565021D01*
X87736096Y-61560275D01*
X87834081Y-61379055D01*
X87895001Y-61182254D01*
X87895900Y-61173705D01*
X87915891Y-60983498D01*
X87915891Y-60983496D01*
X87916535Y-60977369D01*
X87900712Y-60803500D01*
X87898423Y-60778342D01*
X87898422Y-60778339D01*
X87897864Y-60772203D01*
X87839698Y-60574572D01*
X87744252Y-60392002D01*
X87734382Y-60379725D01*
X87619028Y-60236254D01*
X87619028Y-60236253D01*
X87615163Y-60231447D01*
X87457348Y-60099024D01*
X87451950Y-60096056D01*
X87451945Y-60096053D01*
X87282213Y-60002743D01*
X87276816Y-59999776D01*
X87080446Y-59937484D01*
X87074329Y-59936798D01*
X87074325Y-59936797D01*
X86998104Y-59928248D01*
X86920114Y-59919500D01*
X85536978Y-59919500D01*
X85468857Y-59899498D01*
X85422364Y-59845842D01*
X85410978Y-59793500D01*
X85410978Y-59606500D01*
X85430980Y-59538379D01*
X85484636Y-59491886D01*
X85536978Y-59480500D01*
X86912819Y-59480500D01*
X87066008Y-59465480D01*
X87263229Y-59405935D01*
X87445129Y-59309218D01*
X87535076Y-59235859D01*
X87600003Y-59182906D01*
X87600006Y-59182903D01*
X87604778Y-59179011D01*
X87613430Y-59168553D01*
X87732167Y-59025025D01*
X87732169Y-59025021D01*
X87736096Y-59020275D01*
X87834081Y-58839055D01*
X87895001Y-58642254D01*
X87895900Y-58633705D01*
X87915891Y-58443498D01*
X87915891Y-58443496D01*
X87916535Y-58437369D01*
X87900712Y-58263500D01*
X87898423Y-58238342D01*
X87898422Y-58238339D01*
X87897864Y-58232203D01*
X87839698Y-58034572D01*
X87744252Y-57852002D01*
X87734382Y-57839725D01*
X87619028Y-57696254D01*
X87619028Y-57696253D01*
X87615163Y-57691447D01*
X87457348Y-57559024D01*
X87451950Y-57556056D01*
X87451945Y-57556053D01*
X87282213Y-57462743D01*
X87276816Y-57459776D01*
X87080446Y-57397484D01*
X87074329Y-57396798D01*
X87074325Y-57396797D01*
X86998104Y-57388248D01*
X86920114Y-57379500D01*
X85536978Y-57379500D01*
X85468857Y-57359498D01*
X85422364Y-57305842D01*
X85410978Y-57253500D01*
X85410978Y-56594131D01*
X90319646Y-56594131D01*
X90320810Y-56603033D01*
X90320810Y-56603036D01*
X90321948Y-56611737D01*
X90337306Y-56729186D01*
X90340923Y-56737406D01*
X90383485Y-56834135D01*
X90392162Y-56853856D01*
X90397939Y-56860729D01*
X90397940Y-56860730D01*
X90474024Y-56951243D01*
X90479804Y-56958119D01*
X90593187Y-57033593D01*
X90723195Y-57074210D01*
X90859377Y-57076706D01*
X90902542Y-57064938D01*
X90982124Y-57043242D01*
X90982127Y-57043241D01*
X90990786Y-57040880D01*
X90998436Y-57036183D01*
X90998438Y-57036182D01*
X91099206Y-56974311D01*
X91099209Y-56974308D01*
X91106858Y-56969612D01*
X91125321Y-56949215D01*
X91192233Y-56875291D01*
X91192234Y-56875290D01*
X91198261Y-56868631D01*
X91205420Y-56853856D01*
X91253734Y-56754135D01*
X91253734Y-56754134D01*
X91257649Y-56746054D01*
X91280247Y-56611737D01*
X91280390Y-56600000D01*
X91275134Y-56563301D01*
X91262354Y-56474057D01*
X91262353Y-56474054D01*
X91261081Y-56465171D01*
X91204706Y-56341180D01*
X91163310Y-56293138D01*
X101444758Y-56293138D01*
X101462035Y-56449633D01*
X101516143Y-56597490D01*
X101520380Y-56603796D01*
X101520382Y-56603799D01*
X101560709Y-56663811D01*
X101603958Y-56728172D01*
X101720410Y-56834135D01*
X101769055Y-56860547D01*
X101852099Y-56905637D01*
X101852101Y-56905638D01*
X101858776Y-56909262D01*
X101866125Y-56911190D01*
X102003719Y-56947287D01*
X102003721Y-56947287D01*
X102011069Y-56949215D01*
X102094380Y-56950524D01*
X102160898Y-56951569D01*
X102160901Y-56951569D01*
X102168495Y-56951688D01*
X102321968Y-56916538D01*
X102462625Y-56845795D01*
X102488869Y-56823381D01*
X102576574Y-56748474D01*
X102576576Y-56748471D01*
X102582348Y-56743542D01*
X102674224Y-56615683D01*
X102732950Y-56469598D01*
X102750771Y-56344380D01*
X102754553Y-56317807D01*
X102754553Y-56317804D01*
X102755134Y-56313723D01*
X102755278Y-56300000D01*
X102736363Y-56143694D01*
X102680710Y-55996412D01*
X102591531Y-55866657D01*
X102544971Y-55825174D01*
X102479648Y-55766972D01*
X102479645Y-55766970D01*
X102473976Y-55761919D01*
X102334831Y-55688245D01*
X102256744Y-55668631D01*
X102189498Y-55651740D01*
X102189496Y-55651740D01*
X102182128Y-55649889D01*
X102174530Y-55649849D01*
X102174528Y-55649849D01*
X102107319Y-55649497D01*
X102024684Y-55649065D01*
X102017305Y-55650837D01*
X102017301Y-55650837D01*
X101878967Y-55684048D01*
X101878963Y-55684049D01*
X101871588Y-55685820D01*
X101864843Y-55689301D01*
X101864844Y-55689301D01*
X101744833Y-55751243D01*
X101731679Y-55758032D01*
X101725957Y-55763024D01*
X101725955Y-55763025D01*
X101618759Y-55856538D01*
X101618756Y-55856541D01*
X101613034Y-55861533D01*
X101522501Y-55990348D01*
X101465309Y-56137039D01*
X101464318Y-56144568D01*
X101452018Y-56237996D01*
X101444758Y-56293138D01*
X91163310Y-56293138D01*
X91115796Y-56237996D01*
X91102494Y-56229374D01*
X91009032Y-56168794D01*
X91009030Y-56168793D01*
X91001501Y-56163913D01*
X90992904Y-56161342D01*
X90992902Y-56161341D01*
X90887979Y-56129963D01*
X90871006Y-56124887D01*
X90862030Y-56124832D01*
X90862029Y-56124832D01*
X90805036Y-56124484D01*
X90734804Y-56124055D01*
X90726172Y-56126522D01*
X90612473Y-56159017D01*
X90612471Y-56159018D01*
X90603842Y-56161484D01*
X90488650Y-56234165D01*
X90398487Y-56336255D01*
X90340601Y-56459548D01*
X90339221Y-56468412D01*
X90339220Y-56468415D01*
X90337938Y-56476652D01*
X90319646Y-56594131D01*
X85410978Y-56594131D01*
X85410978Y-55394131D01*
X92819646Y-55394131D01*
X92820810Y-55403033D01*
X92820810Y-55403036D01*
X92824097Y-55428172D01*
X92837306Y-55529186D01*
X92840923Y-55537406D01*
X92876488Y-55618233D01*
X92892162Y-55653856D01*
X92897939Y-55660729D01*
X92897940Y-55660730D01*
X92924056Y-55691799D01*
X92979804Y-55758119D01*
X93093187Y-55833593D01*
X93223195Y-55874210D01*
X93359377Y-55876706D01*
X93414778Y-55861602D01*
X93482124Y-55843242D01*
X93482127Y-55843241D01*
X93490786Y-55840880D01*
X93498436Y-55836183D01*
X93498438Y-55836182D01*
X93599206Y-55774311D01*
X93599209Y-55774308D01*
X93606858Y-55769612D01*
X93613822Y-55761919D01*
X93692233Y-55675291D01*
X93692234Y-55675290D01*
X93698261Y-55668631D01*
X93705420Y-55653856D01*
X93753734Y-55554135D01*
X93753734Y-55554134D01*
X93757649Y-55546054D01*
X93780247Y-55411737D01*
X93780390Y-55400000D01*
X93766613Y-55303799D01*
X93762354Y-55274057D01*
X93762353Y-55274054D01*
X93761081Y-55265171D01*
X93704706Y-55141180D01*
X93615796Y-55037996D01*
X93602494Y-55029374D01*
X93546590Y-54993138D01*
X96244758Y-54993138D01*
X96262035Y-55149633D01*
X96316143Y-55297490D01*
X96320380Y-55303796D01*
X96320382Y-55303799D01*
X96360709Y-55363811D01*
X96403958Y-55428172D01*
X96426270Y-55448474D01*
X96505185Y-55520281D01*
X96520410Y-55534135D01*
X96527085Y-55537759D01*
X96652099Y-55605637D01*
X96652101Y-55605638D01*
X96658776Y-55609262D01*
X96666125Y-55611190D01*
X96803719Y-55647287D01*
X96803721Y-55647287D01*
X96811069Y-55649215D01*
X96894380Y-55650524D01*
X96960898Y-55651569D01*
X96960901Y-55651569D01*
X96968495Y-55651688D01*
X97121968Y-55616538D01*
X97262625Y-55545795D01*
X97292498Y-55520281D01*
X97376574Y-55448474D01*
X97376576Y-55448471D01*
X97382348Y-55443542D01*
X97474224Y-55315683D01*
X97532950Y-55169598D01*
X97539953Y-55120393D01*
X97554553Y-55017807D01*
X97554553Y-55017804D01*
X97555134Y-55013723D01*
X97555278Y-55000000D01*
X97536363Y-54843694D01*
X97480710Y-54696412D01*
X97391531Y-54566657D01*
X97287713Y-54474158D01*
X97279648Y-54466972D01*
X97279645Y-54466970D01*
X97273976Y-54461919D01*
X97134831Y-54388245D01*
X97118122Y-54384048D01*
X96989498Y-54351740D01*
X96989496Y-54351740D01*
X96982128Y-54349889D01*
X96974530Y-54349849D01*
X96974528Y-54349849D01*
X96907319Y-54349497D01*
X96824684Y-54349065D01*
X96817305Y-54350837D01*
X96817301Y-54350837D01*
X96678967Y-54384048D01*
X96678963Y-54384049D01*
X96671588Y-54385820D01*
X96531679Y-54458032D01*
X96525957Y-54463024D01*
X96525955Y-54463025D01*
X96418759Y-54556538D01*
X96418756Y-54556541D01*
X96413034Y-54561533D01*
X96322501Y-54690348D01*
X96265309Y-54837039D01*
X96264318Y-54844568D01*
X96248295Y-54966273D01*
X96244758Y-54993138D01*
X93546590Y-54993138D01*
X93509032Y-54968794D01*
X93509030Y-54968793D01*
X93501501Y-54963913D01*
X93492904Y-54961342D01*
X93492902Y-54961341D01*
X93415973Y-54938335D01*
X93371006Y-54924887D01*
X93362030Y-54924832D01*
X93362029Y-54924832D01*
X93305036Y-54924484D01*
X93234804Y-54924055D01*
X93226172Y-54926522D01*
X93112473Y-54959017D01*
X93112471Y-54959018D01*
X93103842Y-54961484D01*
X92988650Y-55034165D01*
X92898487Y-55136255D01*
X92894673Y-55144378D01*
X92894672Y-55144380D01*
X92866865Y-55203607D01*
X92840601Y-55259548D01*
X92839221Y-55268412D01*
X92839220Y-55268415D01*
X92830901Y-55321849D01*
X92819646Y-55394131D01*
X85410978Y-55394131D01*
X85410978Y-54526500D01*
X85430980Y-54458379D01*
X85484636Y-54411886D01*
X85536978Y-54400500D01*
X86912819Y-54400500D01*
X87066008Y-54385480D01*
X87263229Y-54325935D01*
X87445129Y-54229218D01*
X87535076Y-54155859D01*
X87600003Y-54102906D01*
X87600006Y-54102903D01*
X87604778Y-54099011D01*
X87613430Y-54088553D01*
X87732167Y-53945025D01*
X87732169Y-53945021D01*
X87736096Y-53940275D01*
X87834081Y-53759055D01*
X87895001Y-53562254D01*
X87895900Y-53553705D01*
X87915891Y-53363498D01*
X87915891Y-53363496D01*
X87916535Y-53357369D01*
X87900712Y-53183500D01*
X87898423Y-53158342D01*
X87898422Y-53158339D01*
X87897864Y-53152203D01*
X87839698Y-52954572D01*
X87744252Y-52772002D01*
X87734382Y-52759725D01*
X87619028Y-52616254D01*
X87619028Y-52616253D01*
X87615163Y-52611447D01*
X87457348Y-52479024D01*
X87451950Y-52476056D01*
X87451945Y-52476053D01*
X87282213Y-52382743D01*
X87276816Y-52379776D01*
X87080446Y-52317484D01*
X87074329Y-52316798D01*
X87074325Y-52316797D01*
X86998104Y-52308248D01*
X86920114Y-52299500D01*
X85536978Y-52299500D01*
X85468857Y-52279498D01*
X85422364Y-52225842D01*
X85410978Y-52173500D01*
X85410978Y-51986500D01*
X85430980Y-51918379D01*
X85484636Y-51871886D01*
X85536978Y-51860500D01*
X86912819Y-51860500D01*
X87066008Y-51845480D01*
X87263229Y-51785935D01*
X87445129Y-51689218D01*
X87535076Y-51615859D01*
X87600003Y-51562906D01*
X87600006Y-51562903D01*
X87604778Y-51559011D01*
X87613430Y-51548553D01*
X87732167Y-51405025D01*
X87732169Y-51405021D01*
X87736096Y-51400275D01*
X87834081Y-51219055D01*
X87895001Y-51022254D01*
X87895900Y-51013705D01*
X87915891Y-50823498D01*
X87915891Y-50823496D01*
X87916535Y-50817369D01*
X87900712Y-50643500D01*
X87898423Y-50618342D01*
X87898422Y-50618339D01*
X87897864Y-50612203D01*
X87839698Y-50414572D01*
X87744252Y-50232002D01*
X87734382Y-50219725D01*
X87619028Y-50076254D01*
X87619028Y-50076253D01*
X87615163Y-50071447D01*
X87457348Y-49939024D01*
X87451950Y-49936056D01*
X87451945Y-49936053D01*
X87282213Y-49842743D01*
X87276816Y-49839776D01*
X87170660Y-49806102D01*
X87111777Y-49766439D01*
X87083685Y-49701237D01*
X87095302Y-49631197D01*
X87142942Y-49578557D01*
X87208760Y-49560000D01*
X104113204Y-49560000D01*
X104181325Y-49580002D01*
G37*
%TD.AperFunction*%
%TD*%
M02*
