%TF.GenerationSoftware,KiCad,Pcbnew,6.0.1-79c1e3a40b~116~ubuntu20.04.1*%
%TF.CreationDate,2022-03-09T16:59:07+01:00*%
%TF.ProjectId,microcontroller_mini,6d696372-6f63-46f6-9e74-726f6c6c6572,rev?*%
%TF.SameCoordinates,Original*%
%TF.FileFunction,Copper,L4,Bot*%
%TF.FilePolarity,Positive*%
%FSLAX46Y46*%
G04 Gerber Fmt 4.6, Leading zero omitted, Abs format (unit mm)*
G04 Created by KiCad (PCBNEW 6.0.1-79c1e3a40b~116~ubuntu20.04.1) date 2022-03-09 16:59:07*
%MOMM*%
%LPD*%
G01*
G04 APERTURE LIST*
%TA.AperFunction,ComponentPad*%
%ADD10O,2.400000X1.600000*%
%TD*%
%TA.AperFunction,ComponentPad*%
%ADD11R,1.000000X1.600000*%
%TD*%
%TA.AperFunction,ComponentPad*%
%ADD12O,1.600000X2.400000*%
%TD*%
%TA.AperFunction,ComponentPad*%
%ADD13R,1.600000X1.000000*%
%TD*%
%TA.AperFunction,ViaPad*%
%ADD14C,0.800000*%
%TD*%
%TA.AperFunction,ViaPad*%
%ADD15C,0.450000*%
%TD*%
%TA.AperFunction,Conductor*%
%ADD16C,1.000000*%
%TD*%
%TA.AperFunction,Conductor*%
%ADD17C,0.250000*%
%TD*%
%TA.AperFunction,Conductor*%
%ADD18C,0.400000*%
%TD*%
G04 APERTURE END LIST*
D10*
%TO.P,J1,1,Pin_1*%
%TO.N,PB11*%
X86460978Y-50810000D03*
D11*
X85660978Y-50810000D03*
%TO.P,J1,2,Pin_2*%
%TO.N,PB12*%
X85660978Y-53350000D03*
D10*
X86460978Y-53350000D03*
D11*
%TO.P,J1,3,Pin_3*%
%TO.N,GNDD*%
X85660978Y-55890000D03*
D10*
X86460978Y-55890000D03*
%TO.P,J1,4,Pin_4*%
%TO.N,PB13*%
X86460978Y-58430000D03*
D11*
X85660978Y-58430000D03*
D10*
%TO.P,J1,5,Pin_5*%
%TO.N,PB14*%
X86460978Y-60970000D03*
D11*
X85660978Y-60970000D03*
D10*
%TO.P,J1,6,Pin_6*%
%TO.N,PB15*%
X86460978Y-63510000D03*
D11*
X85660978Y-63510000D03*
D10*
%TO.P,J1,7,Pin_7*%
%TO.N,PC6*%
X86460978Y-66050000D03*
D11*
X85660978Y-66050000D03*
D10*
%TO.P,J1,8,Pin_8*%
%TO.N,GNDD*%
X86460978Y-68590000D03*
D11*
X85660978Y-68590000D03*
D10*
%TO.P,J1,9,Pin_9*%
%TO.N,PC7*%
X86460978Y-71130000D03*
D11*
X85660978Y-71130000D03*
D10*
%TO.P,J1,10,Pin_10*%
%TO.N,PC8*%
X86460978Y-73670000D03*
D11*
X85660978Y-73670000D03*
%TO.P,J1,11,Pin_11*%
%TO.N,PC9*%
X85660978Y-76210000D03*
D10*
X86460978Y-76210000D03*
%TO.P,J1,12,Pin_12*%
%TO.N,PA8*%
X86460978Y-78750000D03*
D11*
X85660978Y-78750000D03*
%TO.P,J1,13,Pin_13*%
%TO.N,GNDD*%
X85660978Y-81290000D03*
D10*
X86460978Y-81290000D03*
D11*
%TO.P,J1,14,Pin_14*%
%TO.N,PA9*%
X85660978Y-83830000D03*
D10*
X86460978Y-83830000D03*
D11*
%TO.P,J1,15,Pin_15*%
%TO.N,PA10*%
X85660978Y-86370000D03*
D10*
X86460978Y-86370000D03*
D11*
%TO.P,J1,16,Pin_16*%
%TO.N,PC10*%
X85660978Y-88910000D03*
D10*
X86460978Y-88910000D03*
D11*
%TO.P,J1,17,Pin_17*%
%TO.N,PC11*%
X85660978Y-91450000D03*
D10*
X86460978Y-91450000D03*
%TO.P,J1,18,Pin_18*%
%TO.N,GNDD*%
X86460978Y-93990000D03*
D11*
X85660978Y-93990000D03*
%TO.P,J1,19,Pin_19*%
%TO.N,PC12*%
X85660978Y-96530000D03*
D10*
X86460978Y-96530000D03*
D11*
%TO.P,J1,20,Pin_20*%
%TO.N,PB4*%
X85660978Y-99070000D03*
D10*
X86460978Y-99070000D03*
D12*
%TO.P,J1,21,Pin_21*%
%TO.N,PB5*%
X89310978Y-99010000D03*
D13*
X89310978Y-99810000D03*
D12*
%TO.P,J1,22,Pin_22*%
%TO.N,GNDD*%
X91850978Y-99010000D03*
D13*
X91850978Y-99810000D03*
D12*
%TO.P,J1,23,Pin_23*%
%TO.N,PB6*%
X94390978Y-99010000D03*
D13*
X94390978Y-99810000D03*
D12*
%TO.P,J1,24,Pin_24*%
%TO.N,PB7*%
X96930978Y-99010000D03*
D13*
X96930978Y-99810000D03*
%TO.P,J1,25,Pin_25*%
%TO.N,GNDD*%
X99470978Y-99810000D03*
D12*
X99470978Y-99010000D03*
%TO.P,J1,26,Pin_26*%
%TO.N,PB8*%
X102010978Y-99010000D03*
D13*
X102010978Y-99810000D03*
D10*
%TO.P,J1,27,Pin_27*%
%TO.N,PB9*%
X104860978Y-99070000D03*
D11*
X105660978Y-99070000D03*
%TO.P,J1,28,Pin_28*%
%TO.N,PC13*%
X105660978Y-96530000D03*
D10*
X104860978Y-96530000D03*
D11*
%TO.P,J1,29,Pin_29*%
%TO.N,GNDD*%
X105660978Y-93990000D03*
D10*
X104860978Y-93990000D03*
%TO.P,J1,30,Pin_30*%
%TO.N,PC0*%
X104860978Y-91450000D03*
D11*
X105660978Y-91450000D03*
%TO.P,J1,31,Pin_31*%
%TO.N,PC1*%
X105660978Y-88910000D03*
D10*
X104860978Y-88910000D03*
%TO.P,J1,32,Pin_32*%
%TO.N,PC2*%
X104860978Y-86370000D03*
D11*
X105660978Y-86370000D03*
D10*
%TO.P,J1,33,Pin_33*%
%TO.N,PC3*%
X104860978Y-83830000D03*
D11*
X105660978Y-83830000D03*
%TO.P,J1,34,Pin_34*%
%TO.N,GNDD*%
X105660978Y-81290000D03*
D10*
X104860978Y-81290000D03*
D11*
%TO.P,J1,35,Pin_35*%
%TO.N,PA0*%
X105660978Y-78750000D03*
D10*
X104860978Y-78750000D03*
D11*
%TO.P,J1,36,Pin_36*%
%TO.N,PA1*%
X105660978Y-76210000D03*
D10*
X104860978Y-76210000D03*
D11*
%TO.P,J1,37,Pin_37*%
%TO.N,PB0*%
X105660978Y-73670000D03*
D10*
X104860978Y-73670000D03*
%TO.P,J1,38,Pin_38*%
%TO.N,PA5*%
X104860978Y-71130000D03*
D11*
X105660978Y-71130000D03*
%TO.P,J1,39,Pin_39*%
%TO.N,GNDD*%
X105660978Y-68590000D03*
D10*
X104860978Y-68590000D03*
%TO.P,J1,40,Pin_40*%
%TO.N,PA6*%
X104860978Y-66050000D03*
D11*
X105660978Y-66050000D03*
%TO.P,J1,41,Pin_35*%
%TO.N,PC4*%
X105660978Y-63510000D03*
D10*
X104860978Y-63510000D03*
%TO.P,J1,42,Pin_36*%
%TO.N,+3V3*%
X104860978Y-60970000D03*
D11*
X105660978Y-60970000D03*
D10*
%TO.P,J1,43,Pin_37*%
%TO.N,PB1*%
X104860978Y-58430000D03*
D11*
X105660978Y-58430000D03*
D10*
%TO.P,J1,44,Pin_38*%
%TO.N,GNDD*%
X104860978Y-55890000D03*
D11*
X105660978Y-55890000D03*
%TO.P,J1,45,Pin_39*%
%TO.N,+BATT*%
X105660978Y-53350000D03*
D10*
X104860978Y-53350000D03*
D11*
%TO.P,J1,46,Pin_40*%
%TO.N,+5VD*%
X105660978Y-50810000D03*
D10*
X104860978Y-50810000D03*
%TD*%
D14*
%TO.N,+5VD*%
X102100000Y-56300000D03*
D15*
%TO.N,VBUS*%
X93300000Y-55400000D03*
D14*
X96900000Y-55000000D03*
D15*
%TO.N,+3V3*%
X92580978Y-88240000D03*
X103330978Y-76690000D03*
X92430978Y-93940000D03*
X99129483Y-76454659D03*
X91560978Y-74330878D03*
X88532947Y-83506762D03*
%TO.N,GNDD*%
X103660978Y-80010000D03*
X102180978Y-85990000D03*
X102180978Y-85240000D03*
X102180978Y-86790000D03*
X102080978Y-90990000D03*
X97802066Y-82424393D03*
X102427112Y-70600000D03*
X97930978Y-89190000D03*
D14*
X92400000Y-51700000D03*
D15*
X97930978Y-84990000D03*
X94703111Y-64390000D03*
X102080978Y-90190000D03*
X101760100Y-96010878D03*
X98480978Y-84390000D03*
X101080978Y-90990000D03*
X103854989Y-82410000D03*
X100130978Y-85110000D03*
X101260978Y-67710000D03*
X97330978Y-71390000D03*
D14*
X99200000Y-51790000D03*
D15*
X97330978Y-70290000D03*
X99280978Y-90590000D03*
X101080978Y-83190000D03*
X101210978Y-75440000D03*
X102080978Y-88590000D03*
X88200000Y-61100000D03*
X91080978Y-64690000D03*
X97930978Y-88390000D03*
X102480978Y-78290000D03*
X101586444Y-69886444D03*
X89830978Y-69990000D03*
X94310978Y-94810000D03*
X100260978Y-67210000D03*
X97360978Y-64510000D03*
X88779924Y-82374180D03*
X97930978Y-87590000D03*
X97871711Y-74549267D03*
D14*
X102800000Y-58600000D03*
D15*
X93360978Y-71210000D03*
X90680978Y-66090000D03*
X99566307Y-69110000D03*
X93669342Y-77835331D03*
X88280978Y-71034721D03*
X95560978Y-94810000D03*
X93156967Y-89590000D03*
X97930978Y-86790000D03*
X94630978Y-78490000D03*
X100230978Y-87410000D03*
X99788703Y-75255164D03*
X90130978Y-69440000D03*
X91180978Y-80990000D03*
X88200000Y-58400000D03*
X97180978Y-73540000D03*
X93330978Y-73240000D03*
X90800000Y-55900000D03*
X98730978Y-83190000D03*
X98310978Y-63310000D03*
X98080978Y-89990000D03*
X93279122Y-59879122D03*
X90260978Y-50510000D03*
X88200000Y-64000000D03*
X92430978Y-64309872D03*
X100280978Y-90990000D03*
X99430978Y-82690000D03*
X90630978Y-74890000D03*
X98209698Y-94165410D03*
X98046682Y-78575293D03*
X102080978Y-89390000D03*
X101530978Y-81740000D03*
X99380978Y-83390000D03*
X98460978Y-65410000D03*
X93935534Y-76035570D03*
X92542414Y-72702185D03*
X101080978Y-83990000D03*
X92330978Y-82590000D03*
X103060978Y-93510000D03*
X90280978Y-67490000D03*
X101080978Y-82590000D03*
X103060978Y-94310000D03*
D14*
X98000000Y-52200000D03*
X92080978Y-53590000D03*
X95900000Y-56500000D03*
D15*
X98460978Y-77210000D03*
X99880978Y-89990000D03*
D14*
X95900000Y-58100000D03*
D15*
X93606256Y-77121131D03*
X102180978Y-87640000D03*
X97930978Y-85990000D03*
X93574182Y-63490000D03*
X93156967Y-90190000D03*
X99030978Y-83940000D03*
X99530978Y-88110000D03*
X94130978Y-78140000D03*
X93810978Y-71860000D03*
X101200000Y-50500000D03*
X101480978Y-84590000D03*
D14*
X94200000Y-52300000D03*
D15*
X98680978Y-89990000D03*
%TO.N,/NRST*%
X97481478Y-83248263D03*
X100560978Y-80660000D03*
%TO.N,PA4*%
X98330978Y-74090000D03*
X89010978Y-88860000D03*
%TO.N,PB11*%
X94123682Y-64096546D03*
%TO.N,PA8*%
X93210978Y-72160000D03*
%TO.N,PA9*%
X91912097Y-72858881D03*
%TO.N,PC10*%
X88936478Y-88023124D03*
%TO.N,/SWDIO*%
X93560978Y-93960000D03*
X93468075Y-76486498D03*
%TO.N,/SWCLK*%
X93098293Y-77525886D03*
X94298810Y-93974944D03*
%TO.N,/SWO*%
X95060978Y-93960000D03*
X93330978Y-78390000D03*
%TO.N,/STLINK_RX*%
X100785478Y-76010000D03*
X99830978Y-95440000D03*
%TO.N,/STLINK_TX*%
X99934944Y-74622339D03*
X98930978Y-93790000D03*
%TO.N,+BATT*%
X96498171Y-78966579D03*
%TO.N,PB12*%
X92950644Y-63308194D03*
%TO.N,PB13*%
X91861496Y-64622192D03*
%TO.N,PB14*%
X90808008Y-65321739D03*
%TO.N,PB15*%
X90880978Y-66790000D03*
%TO.N,PB6*%
X91610345Y-81477337D03*
%TO.N,PB7*%
X92279446Y-81381421D03*
%TO.N,PB1*%
X100100000Y-69600000D03*
%TO.N,/EEPROM_WP*%
X92480978Y-86990000D03*
X97630978Y-72790000D03*
%TO.N,PB0*%
X101017048Y-70198919D03*
%TO.N,PB8*%
X93928561Y-78757155D03*
%TO.N,PC6*%
X90510978Y-68140000D03*
%TO.N,PC7*%
X90230978Y-68790000D03*
%TO.N,PC8*%
X89830978Y-70790000D03*
%TO.N,PC9*%
X92810978Y-71560000D03*
%TO.N,PB9*%
X94524200Y-79130665D03*
%TO.N,PA10*%
X92610978Y-73360000D03*
%TO.N,PC12*%
X89883529Y-78896501D03*
%TO.N,PC13*%
X98030978Y-83740000D03*
%TO.N,PC4*%
X101700000Y-71000000D03*
%TO.N,PC5*%
X97630978Y-72040000D03*
X90780978Y-83790000D03*
%TO.N,PC0*%
X98532542Y-78144254D03*
%TO.N,PC1*%
X99060978Y-77610000D03*
%TO.N,PA5*%
X90800000Y-56600000D03*
X96630978Y-69840000D03*
%TD*%
D16*
%TO.N,+5VD*%
X102100000Y-53170978D02*
X102100000Y-56300000D01*
X104460978Y-50810000D02*
X102100000Y-53170978D01*
D17*
%TO.N,+BATT*%
X104460978Y-53350000D02*
X104460978Y-53939022D01*
X104460978Y-53939022D02*
X103200000Y-55200000D01*
X103200000Y-55200000D02*
X103200000Y-56700000D01*
X103200000Y-56700000D02*
X99016807Y-60883193D01*
X99016807Y-60883193D02*
X99016807Y-74354171D01*
X99016807Y-74354171D02*
X96498171Y-76872807D01*
X96498171Y-76872807D02*
X96498171Y-78966579D01*
D18*
%TO.N,VBUS*%
X93900000Y-54800000D02*
X96700000Y-54800000D01*
X93300000Y-55400000D02*
X93900000Y-54800000D01*
X96700000Y-54800000D02*
X96900000Y-55000000D01*
D17*
%TO.N,PB12*%
X88960978Y-58610000D02*
X92950644Y-62599666D01*
X88960978Y-55450000D02*
X88960978Y-58610000D01*
X92950644Y-62599666D02*
X92950644Y-63308194D01*
X86860978Y-53350000D02*
X88960978Y-55450000D01*
%TO.N,PA5*%
X92000000Y-56600000D02*
X90800000Y-56600000D01*
X96630978Y-61230978D02*
X92000000Y-56600000D01*
X96630978Y-69840000D02*
X96630978Y-61230978D01*
%TO.N,+3V3*%
X88211976Y-82165017D02*
X88211976Y-83185791D01*
X88435008Y-81941985D02*
X88211976Y-82165017D01*
X92594220Y-93776758D02*
X92594220Y-88253242D01*
X92594220Y-88253242D02*
X92580978Y-88240000D01*
X92430978Y-93940000D02*
X92594220Y-93776758D01*
X99129483Y-76454659D02*
X99364824Y-76690000D01*
X88435009Y-78012673D02*
X88435008Y-81941985D01*
X91560978Y-74886704D02*
X88435009Y-78012673D01*
X88211976Y-83185791D02*
X88532947Y-83506762D01*
X99364824Y-76690000D02*
X103330978Y-76690000D01*
X91560978Y-74330878D02*
X91560978Y-74886704D01*
%TO.N,GNDD*%
X104460978Y-81290000D02*
X104460978Y-80810000D01*
X100966307Y-67710000D02*
X99566307Y-69110000D01*
X103380978Y-93990000D02*
X103060978Y-94310000D01*
X101260978Y-67710000D02*
X100966307Y-67710000D01*
X104460978Y-80810000D02*
X103660978Y-80010000D01*
X104460978Y-93990000D02*
X103380978Y-93990000D01*
%TO.N,/NRST*%
X97652124Y-83077617D02*
X97481478Y-83248263D01*
X97993361Y-83077617D02*
X97652124Y-83077617D01*
X100560978Y-80660000D02*
X100410978Y-80660000D01*
X100410978Y-80660000D02*
X97993361Y-83077617D01*
%TO.N,PA4*%
X89334030Y-81207348D02*
X89334029Y-78532145D01*
X97891477Y-70840499D02*
X98330978Y-71280000D01*
X89930486Y-81803804D02*
X89334030Y-81207348D01*
X89334029Y-78532145D02*
X97025675Y-70840499D01*
X89930486Y-82663461D02*
X89930486Y-81803804D01*
X89010978Y-88860000D02*
X89631467Y-88239511D01*
X98330978Y-71280000D02*
X98330978Y-74090000D01*
X89631467Y-82962480D02*
X89930486Y-82663461D01*
X97025675Y-70840499D02*
X97891477Y-70840499D01*
X89631467Y-88239511D02*
X89631467Y-82962480D01*
%TO.N,PB11*%
X94123682Y-61722704D02*
X94123682Y-64096546D01*
X86860978Y-50810000D02*
X90210978Y-54160000D01*
X90210978Y-54160000D02*
X90210978Y-57810000D01*
X90210978Y-57810000D02*
X94123682Y-61722704D01*
%TO.N,PA8*%
X88460978Y-76588296D02*
X88460978Y-75432887D01*
X86860978Y-78750000D02*
X86860978Y-78188296D01*
X93203662Y-72152684D02*
X93210978Y-72160000D01*
X88460978Y-75432887D02*
X91741181Y-72152684D01*
X86860978Y-78188296D02*
X88460978Y-76588296D01*
X91741181Y-72152684D02*
X93203662Y-72152684D01*
%TO.N,PA9*%
X87985498Y-77826480D02*
X90031477Y-75780501D01*
X90031477Y-75780501D02*
X90031477Y-74612388D01*
X90031477Y-74612388D02*
X91784984Y-72858881D01*
X91784984Y-72858881D02*
X91912097Y-72858881D01*
X87985498Y-81755791D02*
X87985498Y-77826480D01*
X86860978Y-82880311D02*
X87985498Y-81755791D01*
X86860978Y-83830000D02*
X86860978Y-82880311D01*
%TO.N,PC10*%
X88060978Y-88910000D02*
X88936478Y-88034500D01*
X86860978Y-88910000D02*
X88060978Y-88910000D01*
X88936478Y-88034500D02*
X88936478Y-88023124D01*
%TO.N,/SWDIO*%
X93738006Y-93782972D02*
X93738006Y-81028696D01*
X93560978Y-93960000D02*
X93738006Y-93782972D01*
X92131467Y-79422157D02*
X92131467Y-77715601D01*
X93360570Y-76486498D02*
X93468075Y-76486498D01*
X92131467Y-77715601D02*
X93360570Y-76486498D01*
X93738006Y-81028696D02*
X92131467Y-79422157D01*
%TO.N,/SWCLK*%
X94230488Y-93906622D02*
X94230488Y-80885467D01*
X94230488Y-80885467D02*
X92580978Y-79235957D01*
X92580978Y-79235957D02*
X92580978Y-78043201D01*
X92580978Y-78043201D02*
X93098293Y-77525886D01*
X94298810Y-93974944D02*
X94230488Y-93906622D01*
%TO.N,/SWO*%
X94679999Y-93579021D02*
X94679999Y-80699281D01*
X95060978Y-93960000D02*
X94679999Y-93579021D01*
X94679999Y-80699281D02*
X93330978Y-79350260D01*
X93330978Y-79350260D02*
X93330978Y-78390000D01*
%TO.N,/STLINK_RX*%
X100785478Y-76010000D02*
X100635478Y-75860000D01*
X100635478Y-75860000D02*
X98888440Y-75860000D01*
X97497181Y-81952165D02*
X96630489Y-82818857D01*
X97497182Y-77251258D02*
X97497181Y-81952165D01*
X96630489Y-82818857D02*
X96630489Y-90712398D01*
X99830978Y-93912887D02*
X99830978Y-95440000D01*
X98888440Y-75860000D02*
X97497182Y-77251258D01*
X96630489Y-90712398D02*
X99830978Y-93912887D01*
%TO.N,/STLINK_TX*%
X98930978Y-93790000D02*
X96180978Y-91040000D01*
X99490397Y-74622339D02*
X99934944Y-74622339D01*
X97047670Y-81765972D02*
X97047671Y-77065065D01*
X97047671Y-77065065D02*
X99490397Y-74622339D01*
X96180978Y-91040000D02*
X96180978Y-82632664D01*
X96180978Y-82632664D02*
X97047670Y-81765972D01*
%TO.N,PB13*%
X91861496Y-63400518D02*
X91861496Y-64622192D01*
X86890978Y-58430000D02*
X91861496Y-63400518D01*
X86860978Y-58430000D02*
X86890978Y-58430000D01*
%TO.N,PB14*%
X86860978Y-60970000D02*
X86860978Y-61374709D01*
X86860978Y-61374709D02*
X90808008Y-65321739D01*
%TO.N,PB15*%
X86860978Y-63510000D02*
X90140978Y-66790000D01*
X90140978Y-66790000D02*
X90880978Y-66790000D01*
%TO.N,PB6*%
X91331966Y-81755716D02*
X91610345Y-81477337D01*
X91331966Y-95550988D02*
X91331966Y-81755716D01*
X94390978Y-98610000D02*
X91331966Y-95550988D01*
%TO.N,PB7*%
X92279446Y-81585349D02*
X92279446Y-81381421D01*
X96930978Y-98610000D02*
X96310978Y-98610000D01*
X91781477Y-82083318D02*
X92279446Y-81585349D01*
X91781477Y-94080499D02*
X91781477Y-82083318D01*
X96310978Y-98610000D02*
X91781477Y-94080499D01*
%TO.N,PB1*%
X100300000Y-69600000D02*
X100100000Y-69600000D01*
X102760978Y-60130000D02*
X102760978Y-67139022D01*
X104460978Y-58430000D02*
X102760978Y-60130000D01*
X102760978Y-67139022D02*
X100300000Y-69600000D01*
%TO.N,/EEPROM_WP*%
X93130978Y-81455840D02*
X91560978Y-79885840D01*
X91560978Y-79885840D02*
X91560978Y-77615248D01*
X93130978Y-86340000D02*
X93130978Y-81455840D01*
X91560978Y-77615248D02*
X96386226Y-72790000D01*
X96386226Y-72790000D02*
X97630978Y-72790000D01*
X92480978Y-86990000D02*
X93130978Y-86340000D01*
%TO.N,PB0*%
X102270000Y-73670000D02*
X101017048Y-72417048D01*
X101017048Y-72417048D02*
X101017048Y-70198919D01*
X104460978Y-73670000D02*
X102270000Y-73670000D01*
%TO.N,PB8*%
X102010978Y-98610000D02*
X100560489Y-97159511D01*
X95280978Y-80664556D02*
X93928561Y-79312139D01*
X100560489Y-97159511D02*
X99650488Y-97159510D01*
X95280978Y-92790000D02*
X95280978Y-80664556D01*
X99650488Y-97159510D02*
X95280978Y-92790000D01*
X93928561Y-79312139D02*
X93928561Y-78757155D01*
%TO.N,PC6*%
X88950978Y-68140000D02*
X90510978Y-68140000D01*
X86860978Y-66050000D02*
X88950978Y-68140000D01*
%TO.N,PC7*%
X86860978Y-71130000D02*
X89200978Y-68790000D01*
X89200978Y-68790000D02*
X90230978Y-68790000D01*
%TO.N,PC8*%
X86860978Y-73670000D02*
X86860978Y-73660000D01*
X89730978Y-70790000D02*
X89830978Y-70790000D01*
X86860978Y-73660000D02*
X89730978Y-70790000D01*
%TO.N,PC9*%
X91139570Y-71560000D02*
X92810978Y-71560000D01*
X86860978Y-75838592D02*
X91139570Y-71560000D01*
X86860978Y-76210000D02*
X86860978Y-75838592D01*
%TO.N,PB9*%
X102100978Y-96710000D02*
X99836682Y-96710000D01*
X95730489Y-80336954D02*
X94524200Y-79130665D01*
X95730489Y-92603807D02*
X95730489Y-80336954D01*
X99836682Y-96710000D02*
X95730489Y-92603807D01*
X104460978Y-99070000D02*
X102100978Y-96710000D01*
%TO.N,PA10*%
X86860978Y-86370000D02*
X89082446Y-84148532D01*
X88884519Y-78345951D02*
X92610978Y-74619492D01*
X89480975Y-82450240D02*
X89480976Y-81989998D01*
X89082446Y-84148532D02*
X89082448Y-82848767D01*
X89480976Y-81989998D02*
X88884519Y-81393541D01*
X92610978Y-74619492D02*
X92610978Y-73360000D01*
X88884519Y-81393541D02*
X88884519Y-78345951D01*
X89082448Y-82848767D02*
X89480975Y-82450240D01*
%TO.N,PC12*%
X90379997Y-82849654D02*
X90379998Y-81617612D01*
X86860978Y-96530000D02*
X90196442Y-93194536D01*
X90379998Y-81617612D02*
X89883529Y-81121143D01*
X90196442Y-93194536D02*
X90196442Y-83033209D01*
X89883529Y-81121143D02*
X89883529Y-78896501D01*
X90196442Y-83033209D02*
X90379997Y-82849654D01*
%TO.N,PC13*%
X104460978Y-96530000D02*
X103420978Y-96530000D01*
X97330978Y-84440000D02*
X98030978Y-83740000D01*
X103420978Y-96530000D02*
X97330978Y-90440000D01*
X97330978Y-90440000D02*
X97330978Y-84440000D01*
%TO.N,PC4*%
X104460978Y-63510000D02*
X103210978Y-64760000D01*
X101700000Y-70549999D02*
X101700000Y-71000000D01*
X103210978Y-64760000D02*
X103210978Y-69039021D01*
X103210978Y-69039021D02*
X101700000Y-70549999D01*
%TO.N,PC5*%
X90630978Y-81232888D02*
X90630978Y-77909544D01*
X90780978Y-83790000D02*
X90829508Y-83741470D01*
X90829508Y-81431418D02*
X90630978Y-81232888D01*
X90829508Y-83741470D02*
X90829508Y-81431418D01*
X96500522Y-72040000D02*
X97630978Y-72040000D01*
X90630978Y-77909544D02*
X96500522Y-72040000D01*
%TO.N,PC0*%
X99480978Y-78590000D02*
X98978288Y-78590000D01*
X102730479Y-84389501D02*
X102080978Y-83740000D01*
X102080978Y-83740000D02*
X102080978Y-81190000D01*
X104460978Y-91450000D02*
X102730479Y-89719501D01*
X102080978Y-81190000D02*
X99480978Y-78590000D01*
X102730479Y-89719501D02*
X102730479Y-84389501D01*
X98978288Y-78590000D02*
X98532542Y-78144254D01*
%TO.N,PC1*%
X102880978Y-83590000D02*
X103230978Y-83940000D01*
X102880978Y-80990000D02*
X102880978Y-83590000D01*
X103230978Y-83940000D02*
X103230978Y-87680000D01*
X99060978Y-77610000D02*
X99500978Y-77610000D01*
X99500978Y-77610000D02*
X102880978Y-80990000D01*
X103230978Y-87680000D02*
X104460978Y-88910000D01*
%TD*%
M02*
