G04 #@! TF.GenerationSoftware,KiCad,Pcbnew,6.0.1-79c1e3a40b~116~ubuntu20.04.1*
G04 #@! TF.CreationDate,2022-07-08T20:05:53+02:00*
G04 #@! TF.ProjectId,microcontroller_mini,6d696372-6f63-46f6-9e74-726f6c6c6572,rev?*
G04 #@! TF.SameCoordinates,Original*
G04 #@! TF.FileFunction,Copper,L2,Inr*
G04 #@! TF.FilePolarity,Positive*
%FSLAX46Y46*%
G04 Gerber Fmt 4.6, Leading zero omitted, Abs format (unit mm)*
G04 Created by KiCad (PCBNEW 6.0.1-79c1e3a40b~116~ubuntu20.04.1) date 2022-07-08 20:05:53*
%MOMM*%
%LPD*%
G01*
G04 APERTURE LIST*
G04 #@! TA.AperFunction,ComponentPad*
%ADD10O,2.400000X1.600000*%
G04 #@! TD*
G04 #@! TA.AperFunction,ComponentPad*
%ADD11R,1.000000X1.600000*%
G04 #@! TD*
G04 #@! TA.AperFunction,ComponentPad*
%ADD12R,1.600000X1.000000*%
G04 #@! TD*
G04 #@! TA.AperFunction,ComponentPad*
%ADD13O,1.600000X2.400000*%
G04 #@! TD*
G04 #@! TA.AperFunction,ComponentPad*
%ADD14C,1.500000*%
G04 #@! TD*
G04 #@! TA.AperFunction,ComponentPad*
%ADD15O,1.000000X1.600000*%
G04 #@! TD*
G04 #@! TA.AperFunction,ComponentPad*
%ADD16O,1.000000X2.100000*%
G04 #@! TD*
G04 #@! TA.AperFunction,ViaPad*
%ADD17C,0.450000*%
G04 #@! TD*
G04 #@! TA.AperFunction,ViaPad*
%ADD18C,0.800000*%
G04 #@! TD*
G04 #@! TA.AperFunction,Conductor*
%ADD19C,0.400000*%
G04 #@! TD*
G04 #@! TA.AperFunction,Conductor*
%ADD20C,0.600000*%
G04 #@! TD*
G04 #@! TA.AperFunction,Conductor*
%ADD21C,0.500000*%
G04 #@! TD*
G04 #@! TA.AperFunction,Conductor*
%ADD22C,0.700000*%
G04 #@! TD*
G04 #@! TA.AperFunction,Conductor*
%ADD23C,1.000000*%
G04 #@! TD*
G04 APERTURE END LIST*
D10*
X104860978Y-50810000D03*
D11*
X105660978Y-50810000D03*
D10*
X104860978Y-53350000D03*
D11*
X105660978Y-53350000D03*
X105660978Y-55890000D03*
D10*
X104860978Y-55890000D03*
D11*
X105660978Y-58430000D03*
D10*
X104860978Y-58430000D03*
D11*
X105660978Y-60970000D03*
D10*
X104860978Y-60970000D03*
X104860978Y-63510000D03*
D11*
X105660978Y-63510000D03*
X105660978Y-66050000D03*
D10*
X104860978Y-66050000D03*
X104860978Y-68590000D03*
D11*
X105660978Y-68590000D03*
X105660978Y-71130000D03*
D10*
X104860978Y-71130000D03*
X104860978Y-73670000D03*
D11*
X105660978Y-73670000D03*
D10*
X104860978Y-76210000D03*
D11*
X105660978Y-76210000D03*
D10*
X104860978Y-78750000D03*
D11*
X105660978Y-78750000D03*
D10*
X104860978Y-81290000D03*
D11*
X105660978Y-81290000D03*
X105660978Y-83830000D03*
D10*
X104860978Y-83830000D03*
D11*
X105660978Y-86370000D03*
D10*
X104860978Y-86370000D03*
X104860978Y-88910000D03*
D11*
X105660978Y-88910000D03*
X105660978Y-91450000D03*
D10*
X104860978Y-91450000D03*
X104860978Y-93990000D03*
D11*
X105660978Y-93990000D03*
D10*
X104860978Y-96530000D03*
D11*
X105660978Y-96530000D03*
X105660978Y-99070000D03*
D10*
X104860978Y-99070000D03*
D12*
X102010978Y-99810000D03*
D13*
X102010978Y-99010000D03*
X99470978Y-99010000D03*
D12*
X99470978Y-99810000D03*
X96930978Y-99810000D03*
D13*
X96930978Y-99010000D03*
D12*
X94390978Y-99810000D03*
D13*
X94390978Y-99010000D03*
D12*
X91850978Y-99810000D03*
D13*
X91850978Y-99010000D03*
D12*
X89310978Y-99810000D03*
D13*
X89310978Y-99010000D03*
D10*
X86460978Y-99070000D03*
D11*
X85660978Y-99070000D03*
D10*
X86460978Y-96530000D03*
D11*
X85660978Y-96530000D03*
X85660978Y-93990000D03*
D10*
X86460978Y-93990000D03*
X86460978Y-91450000D03*
D11*
X85660978Y-91450000D03*
D10*
X86460978Y-88910000D03*
D11*
X85660978Y-88910000D03*
D10*
X86460978Y-86370000D03*
D11*
X85660978Y-86370000D03*
D10*
X86460978Y-83830000D03*
D11*
X85660978Y-83830000D03*
D10*
X86460978Y-81290000D03*
D11*
X85660978Y-81290000D03*
X85660978Y-78750000D03*
D10*
X86460978Y-78750000D03*
X86460978Y-76210000D03*
D11*
X85660978Y-76210000D03*
X85660978Y-73670000D03*
D10*
X86460978Y-73670000D03*
D11*
X85660978Y-71130000D03*
D10*
X86460978Y-71130000D03*
D11*
X85660978Y-68590000D03*
D10*
X86460978Y-68590000D03*
D11*
X85660978Y-66050000D03*
D10*
X86460978Y-66050000D03*
D11*
X85660978Y-63510000D03*
D10*
X86460978Y-63510000D03*
D11*
X85660978Y-60970000D03*
D10*
X86460978Y-60970000D03*
D11*
X85660978Y-58430000D03*
D10*
X86460978Y-58430000D03*
X86460978Y-55890000D03*
D11*
X85660978Y-55890000D03*
D10*
X86460978Y-53350000D03*
D11*
X85660978Y-53350000D03*
X85660978Y-50810000D03*
D10*
X86460978Y-50810000D03*
D14*
X89400000Y-96530000D03*
X89400000Y-93990000D03*
X89400000Y-91450000D03*
X89400000Y-88910000D03*
X89400000Y-86370000D03*
X89400000Y-83830000D03*
X89400000Y-81290000D03*
X89300000Y-58430000D03*
X89300000Y-60970000D03*
X89300000Y-63510000D03*
X89300000Y-66050000D03*
X89400000Y-68590000D03*
D15*
X91280000Y-50790000D03*
D16*
X99920000Y-54970000D03*
D15*
X99920000Y-50790000D03*
D16*
X91280000Y-54970000D03*
D17*
X103800000Y-77500000D03*
X99129483Y-76454659D03*
X91800000Y-74300000D03*
X101600000Y-84700000D03*
X101600000Y-83700000D03*
D18*
X92293364Y-56882038D03*
D17*
X101600000Y-85700000D03*
X102402379Y-70797623D03*
X98200000Y-86700000D03*
X91700000Y-68000000D03*
X90300000Y-57300000D03*
X101760100Y-96010878D03*
X98200000Y-82700000D03*
X92100000Y-66800000D03*
X100330978Y-83430000D03*
X101400000Y-67700000D03*
X98400000Y-71999500D03*
X97800000Y-70600000D03*
X100000000Y-87500000D03*
X91500000Y-59700000D03*
D18*
X99400000Y-56700000D03*
D17*
X101210978Y-75548521D03*
X94300000Y-62500000D03*
X101600000Y-86700000D03*
X98200000Y-85700000D03*
X102900000Y-78500000D03*
X101586444Y-69900000D03*
X99100000Y-72900000D03*
X94500000Y-94700000D03*
X100260978Y-67210000D03*
X98800000Y-88300000D03*
X97500000Y-64600000D03*
X93900000Y-72200000D03*
X95300500Y-65300000D03*
X99529308Y-69089896D03*
X93500000Y-75800000D03*
X88200000Y-71000000D03*
X100700000Y-94200000D03*
X95800000Y-94700000D03*
X98200000Y-84700000D03*
X94700000Y-78500000D03*
X99691071Y-75360500D03*
X98200000Y-63700000D03*
X96822758Y-73929158D03*
X90403200Y-59496800D03*
X90260978Y-50510000D03*
X101200000Y-87500000D03*
X90800000Y-75100000D03*
D18*
X102524500Y-56200000D03*
D17*
X101600000Y-81500000D03*
X98200000Y-65500000D03*
X91705916Y-76042220D03*
X93250000Y-60500000D03*
X92287344Y-82703530D03*
X93053200Y-65446800D03*
X99230000Y-86700000D03*
X98460978Y-77210000D03*
X90500000Y-90300000D03*
X92700000Y-76800000D03*
X98200000Y-83700000D03*
X92100000Y-62500000D03*
X92415610Y-72615608D03*
X89000000Y-79100000D03*
X93600000Y-77800000D03*
X93900000Y-73500000D03*
X101200000Y-50500000D03*
X101600000Y-82700000D03*
X98800000Y-87500000D03*
X101200000Y-80300000D03*
X98300000Y-91024989D03*
X98150000Y-89250000D03*
D18*
X98500000Y-58100000D03*
D17*
X90949503Y-57400000D03*
X94400000Y-72800000D03*
X93048624Y-73324685D03*
X93000000Y-75200000D03*
X88800000Y-78300000D03*
X96544833Y-77100000D03*
X90500000Y-60300000D03*
X92650999Y-77618223D03*
X93406504Y-76659246D03*
X93649500Y-78571152D03*
X100100000Y-69400000D03*
X101000000Y-70300000D03*
X94311676Y-77518416D03*
X94200000Y-71400000D03*
X93184053Y-71979523D03*
X94600000Y-79300000D03*
X88400000Y-75500000D03*
X91271336Y-72750989D03*
X91615788Y-75399001D03*
X89800000Y-79100000D03*
X91200000Y-89700000D03*
X97400000Y-78500000D03*
X101890031Y-71202226D03*
X89565549Y-71052851D03*
X93600000Y-62512000D03*
X92900000Y-62512000D03*
X89047149Y-70534451D03*
X97958781Y-77850500D03*
X99300000Y-77400000D03*
X91500000Y-59000000D03*
X97100000Y-71000000D03*
X93500000Y-57900000D03*
D18*
X94000000Y-54300000D03*
D17*
X96100000Y-58000000D03*
X96100000Y-60400000D03*
X96749500Y-69800000D03*
X98371185Y-71129093D03*
X99200000Y-72079079D03*
X92995771Y-64799842D03*
X98300000Y-73400000D03*
X92399999Y-66199998D03*
X97500000Y-74400000D03*
X91700000Y-68700000D03*
X90000000Y-75300000D03*
X91725351Y-76806443D03*
X90600000Y-76000000D03*
X99600000Y-93400000D03*
X100770702Y-76026026D03*
X99660543Y-95100000D03*
X100044960Y-74815875D03*
X97000000Y-82900000D03*
X97000000Y-85400000D03*
D19*
X101050000Y-82800000D02*
X100779022Y-82800000D01*
D20*
X99030000Y-82930000D02*
X99030000Y-86740000D01*
D21*
X100200000Y-86700000D02*
X99800000Y-86700000D01*
D20*
X100400000Y-83179022D02*
X100669022Y-82910000D01*
D21*
X99200000Y-86700000D02*
X99200000Y-86500000D01*
D19*
X100779022Y-82800000D02*
X100669022Y-82910000D01*
D21*
X99200000Y-86500000D02*
X99400000Y-86300000D01*
D22*
X100600000Y-86700000D02*
X100600000Y-82979022D01*
D19*
X100900000Y-86900000D02*
X99190000Y-86900000D01*
D23*
X99800000Y-86300000D02*
X99800000Y-83500000D01*
D20*
X100669022Y-82910000D02*
X99210000Y-82910000D01*
D19*
X101050000Y-86750000D02*
X100900000Y-86900000D01*
X99190000Y-86900000D02*
X99030000Y-86740000D01*
D20*
X99030000Y-86740000D02*
X100160000Y-86740000D01*
D22*
X100600000Y-82979022D02*
X100400000Y-83179022D01*
D20*
X99010000Y-82910000D02*
X99030000Y-82930000D01*
D21*
X99210000Y-82910000D02*
X99800000Y-83500000D01*
X100400000Y-86500000D02*
X100200000Y-86700000D01*
X99400000Y-86300000D02*
X99800000Y-86300000D01*
D20*
X100160000Y-86740000D02*
X100400000Y-86500000D01*
D19*
X101050000Y-82800000D02*
X101050000Y-86750000D01*
D20*
X100400000Y-86500000D02*
X100400000Y-83179022D01*
D19*
X99000000Y-87500000D02*
X99030000Y-87470000D01*
D22*
X99230000Y-86700000D02*
X100600000Y-86700000D01*
D20*
X99210000Y-82910000D02*
X99010000Y-82910000D01*
D19*
X99030000Y-86740000D02*
X99030000Y-87470000D01*
D21*
X99800000Y-86700000D02*
X99200000Y-86700000D01*
G04 #@! TA.AperFunction,Conductor*
G36*
X90998946Y-49580002D02*
G01*
X91045439Y-49633658D01*
X91055543Y-49703932D01*
X91026049Y-49768512D01*
X90980159Y-49801941D01*
X90905627Y-49833654D01*
X90899735Y-49837990D01*
X90877417Y-49854414D01*
X90764676Y-49937383D01*
X90759937Y-49942961D01*
X90759934Y-49942964D01*
X90656107Y-50065176D01*
X90656104Y-50065180D01*
X90651368Y-50070755D01*
X90630950Y-50110742D01*
X90575300Y-50219725D01*
X90571781Y-50226616D01*
X90570042Y-50233721D01*
X90570041Y-50233725D01*
X90551550Y-50309292D01*
X90530185Y-50396606D01*
X90529500Y-50407648D01*
X90529500Y-51133822D01*
X90544657Y-51263828D01*
X90547153Y-51270705D01*
X90547154Y-51270708D01*
X90592217Y-51394854D01*
X90604369Y-51428331D01*
X90700323Y-51574685D01*
X90827372Y-51695040D01*
X90978702Y-51782939D01*
X91146193Y-51833667D01*
X91320862Y-51844503D01*
X91328078Y-51843263D01*
X91328080Y-51843263D01*
X91486125Y-51816106D01*
X91486127Y-51816105D01*
X91493340Y-51814866D01*
X91654373Y-51746346D01*
X91795324Y-51642617D01*
X91800063Y-51637039D01*
X91800066Y-51637036D01*
X91903893Y-51514824D01*
X91903896Y-51514820D01*
X91908632Y-51509245D01*
X91988219Y-51353384D01*
X92029815Y-51183394D01*
X92030500Y-51172352D01*
X92030500Y-50446178D01*
X92015343Y-50316172D01*
X91986775Y-50237467D01*
X91958128Y-50158548D01*
X91955631Y-50151669D01*
X91859677Y-50005315D01*
X91732628Y-49884960D01*
X91581298Y-49797061D01*
X91582220Y-49795474D01*
X91535001Y-49756045D01*
X91513758Y-49688301D01*
X91532513Y-49619826D01*
X91585310Y-49572361D01*
X91639737Y-49560000D01*
X99570825Y-49560000D01*
X99638946Y-49580002D01*
X99685439Y-49633658D01*
X99695543Y-49703932D01*
X99666049Y-49768512D01*
X99620159Y-49801941D01*
X99545627Y-49833654D01*
X99539735Y-49837990D01*
X99517417Y-49854414D01*
X99404676Y-49937383D01*
X99399937Y-49942961D01*
X99399934Y-49942964D01*
X99296107Y-50065176D01*
X99296104Y-50065180D01*
X99291368Y-50070755D01*
X99270950Y-50110742D01*
X99215300Y-50219725D01*
X99211781Y-50226616D01*
X99210042Y-50233721D01*
X99210041Y-50233725D01*
X99191550Y-50309292D01*
X99170185Y-50396606D01*
X99169500Y-50407648D01*
X99169500Y-51133822D01*
X99184657Y-51263828D01*
X99187153Y-51270705D01*
X99187154Y-51270708D01*
X99232217Y-51394854D01*
X99244369Y-51428331D01*
X99340323Y-51574685D01*
X99467372Y-51695040D01*
X99618702Y-51782939D01*
X99786193Y-51833667D01*
X99960862Y-51844503D01*
X99968078Y-51843263D01*
X99968080Y-51843263D01*
X100126125Y-51816106D01*
X100126127Y-51816105D01*
X100133340Y-51814866D01*
X100294373Y-51746346D01*
X100435324Y-51642617D01*
X100440063Y-51637039D01*
X100440066Y-51637036D01*
X100543893Y-51514824D01*
X100543896Y-51514820D01*
X100548632Y-51509245D01*
X100628219Y-51353384D01*
X100669815Y-51183394D01*
X100670500Y-51172352D01*
X100670500Y-50446178D01*
X100655343Y-50316172D01*
X100626775Y-50237467D01*
X100598128Y-50158548D01*
X100595631Y-50151669D01*
X100499677Y-50005315D01*
X100372628Y-49884960D01*
X100221298Y-49797061D01*
X100222220Y-49795474D01*
X100175001Y-49756045D01*
X100153758Y-49688301D01*
X100172513Y-49619826D01*
X100225310Y-49572361D01*
X100279737Y-49560000D01*
X104113204Y-49560000D01*
X104181325Y-49580002D01*
X104227818Y-49633658D01*
X104237922Y-49703932D01*
X104208428Y-49768512D01*
X104149622Y-49806622D01*
X104058727Y-49834065D01*
X103876827Y-49930782D01*
X103813032Y-49982812D01*
X103721953Y-50057094D01*
X103721950Y-50057097D01*
X103717178Y-50060989D01*
X103713251Y-50065736D01*
X103713249Y-50065738D01*
X103589789Y-50214975D01*
X103589787Y-50214979D01*
X103585860Y-50219725D01*
X103487875Y-50400945D01*
X103426955Y-50597746D01*
X103426311Y-50603871D01*
X103426311Y-50603872D01*
X103425436Y-50612203D01*
X103405421Y-50802631D01*
X103406584Y-50815413D01*
X103422205Y-50987058D01*
X103424092Y-51007797D01*
X103482258Y-51205428D01*
X103577704Y-51387998D01*
X103581564Y-51392799D01*
X103581566Y-51392802D01*
X103610132Y-51428331D01*
X103706793Y-51548553D01*
X103864608Y-51680976D01*
X103870006Y-51683944D01*
X103870011Y-51683947D01*
X103983516Y-51746346D01*
X104045140Y-51780224D01*
X104241510Y-51842516D01*
X104247627Y-51843202D01*
X104247631Y-51843203D01*
X104323852Y-51851752D01*
X104401842Y-51860500D01*
X105784978Y-51860500D01*
X105853099Y-51880502D01*
X105899592Y-51934158D01*
X105910978Y-51986500D01*
X105910978Y-52173500D01*
X105890976Y-52241621D01*
X105837320Y-52288114D01*
X105784978Y-52299500D01*
X104409137Y-52299500D01*
X104255948Y-52314520D01*
X104058727Y-52374065D01*
X103876827Y-52470782D01*
X103813032Y-52522812D01*
X103721953Y-52597094D01*
X103721950Y-52597097D01*
X103717178Y-52600989D01*
X103713251Y-52605736D01*
X103713249Y-52605738D01*
X103589789Y-52754975D01*
X103589787Y-52754979D01*
X103585860Y-52759725D01*
X103487875Y-52940945D01*
X103426955Y-53137746D01*
X103426311Y-53143871D01*
X103426311Y-53143872D01*
X103425436Y-53152203D01*
X103405421Y-53342631D01*
X103406584Y-53355413D01*
X103422205Y-53527058D01*
X103424092Y-53547797D01*
X103482258Y-53745428D01*
X103577704Y-53927998D01*
X103581564Y-53932799D01*
X103581566Y-53932802D01*
X103698866Y-54078694D01*
X103706793Y-54088553D01*
X103864608Y-54220976D01*
X103870006Y-54223944D01*
X103870011Y-54223947D01*
X104015872Y-54304134D01*
X104045140Y-54320224D01*
X104241510Y-54382516D01*
X104247627Y-54383202D01*
X104247631Y-54383203D01*
X104323852Y-54391752D01*
X104401842Y-54400500D01*
X105784978Y-54400500D01*
X105853099Y-54420502D01*
X105899592Y-54474158D01*
X105910978Y-54526500D01*
X105910978Y-57253500D01*
X105890976Y-57321621D01*
X105837320Y-57368114D01*
X105784978Y-57379500D01*
X104409137Y-57379500D01*
X104255948Y-57394520D01*
X104058727Y-57454065D01*
X103876827Y-57550782D01*
X103815910Y-57600465D01*
X103721953Y-57677094D01*
X103721950Y-57677097D01*
X103717178Y-57680989D01*
X103713251Y-57685736D01*
X103713249Y-57685738D01*
X103589789Y-57834975D01*
X103589787Y-57834979D01*
X103585860Y-57839725D01*
X103487875Y-58020945D01*
X103426955Y-58217746D01*
X103426311Y-58223871D01*
X103426311Y-58223872D01*
X103406766Y-58409838D01*
X103405421Y-58422631D01*
X103408646Y-58458071D01*
X103422205Y-58607058D01*
X103424092Y-58627797D01*
X103482258Y-58825428D01*
X103577704Y-59007998D01*
X103581564Y-59012799D01*
X103581566Y-59012802D01*
X103667981Y-59120281D01*
X103706793Y-59168553D01*
X103864608Y-59300976D01*
X103870006Y-59303944D01*
X103870011Y-59303947D01*
X103998004Y-59374311D01*
X104045140Y-59400224D01*
X104241510Y-59462516D01*
X104247627Y-59463202D01*
X104247631Y-59463203D01*
X104321899Y-59471533D01*
X104401842Y-59480500D01*
X105784978Y-59480500D01*
X105853099Y-59500502D01*
X105899592Y-59554158D01*
X105910978Y-59606500D01*
X105910978Y-59793500D01*
X105890976Y-59861621D01*
X105837320Y-59908114D01*
X105784978Y-59919500D01*
X104409137Y-59919500D01*
X104255948Y-59934520D01*
X104058727Y-59994065D01*
X103876827Y-60090782D01*
X103815910Y-60140465D01*
X103721953Y-60217094D01*
X103721950Y-60217097D01*
X103717178Y-60220989D01*
X103713251Y-60225736D01*
X103713249Y-60225738D01*
X103589789Y-60374975D01*
X103589787Y-60374979D01*
X103585860Y-60379725D01*
X103570890Y-60407412D01*
X103495927Y-60546054D01*
X103487875Y-60560945D01*
X103426955Y-60757746D01*
X103426311Y-60763871D01*
X103426311Y-60763872D01*
X103406766Y-60949838D01*
X103405421Y-60962631D01*
X103408646Y-60998071D01*
X103422205Y-61147058D01*
X103424092Y-61167797D01*
X103482258Y-61365428D01*
X103577704Y-61547998D01*
X103581564Y-61552799D01*
X103581566Y-61552802D01*
X103670601Y-61663539D01*
X103706793Y-61708553D01*
X103864608Y-61840976D01*
X103870006Y-61843944D01*
X103870011Y-61843947D01*
X104039743Y-61937257D01*
X104045140Y-61940224D01*
X104241510Y-62002516D01*
X104247627Y-62003202D01*
X104247631Y-62003203D01*
X104323852Y-62011752D01*
X104401842Y-62020500D01*
X105784978Y-62020500D01*
X105853099Y-62040502D01*
X105899592Y-62094158D01*
X105910978Y-62146500D01*
X105910978Y-62333500D01*
X105890976Y-62401621D01*
X105837320Y-62448114D01*
X105784978Y-62459500D01*
X104409137Y-62459500D01*
X104255948Y-62474520D01*
X104058727Y-62534065D01*
X103876827Y-62630782D01*
X103815910Y-62680465D01*
X103721953Y-62757094D01*
X103721950Y-62757097D01*
X103717178Y-62760989D01*
X103713251Y-62765736D01*
X103713249Y-62765738D01*
X103589789Y-62914975D01*
X103589787Y-62914979D01*
X103585860Y-62919725D01*
X103487875Y-63100945D01*
X103426955Y-63297746D01*
X103426311Y-63303871D01*
X103426311Y-63303872D01*
X103406766Y-63489838D01*
X103405421Y-63502631D01*
X103408646Y-63538071D01*
X103422205Y-63687058D01*
X103424092Y-63707797D01*
X103482258Y-63905428D01*
X103577704Y-64087998D01*
X103581564Y-64092799D01*
X103581566Y-64092802D01*
X103670601Y-64203539D01*
X103706793Y-64248553D01*
X103864608Y-64380976D01*
X103870006Y-64383944D01*
X103870011Y-64383947D01*
X104039743Y-64477257D01*
X104045140Y-64480224D01*
X104241510Y-64542516D01*
X104247627Y-64543202D01*
X104247631Y-64543203D01*
X104323852Y-64551752D01*
X104401842Y-64560500D01*
X105784978Y-64560500D01*
X105853099Y-64580502D01*
X105899592Y-64634158D01*
X105910978Y-64686500D01*
X105910978Y-64873500D01*
X105890976Y-64941621D01*
X105837320Y-64988114D01*
X105784978Y-64999500D01*
X104409137Y-64999500D01*
X104255948Y-65014520D01*
X104058727Y-65074065D01*
X103876827Y-65170782D01*
X103815910Y-65220465D01*
X103721953Y-65297094D01*
X103721950Y-65297097D01*
X103717178Y-65300989D01*
X103713251Y-65305736D01*
X103713249Y-65305738D01*
X103589789Y-65454975D01*
X103589787Y-65454979D01*
X103585860Y-65459725D01*
X103487875Y-65640945D01*
X103426955Y-65837746D01*
X103426311Y-65843871D01*
X103426311Y-65843872D01*
X103406766Y-66029838D01*
X103405421Y-66042631D01*
X103408646Y-66078071D01*
X103422205Y-66227058D01*
X103424092Y-66247797D01*
X103482258Y-66445428D01*
X103577704Y-66627998D01*
X103581564Y-66632799D01*
X103581566Y-66632802D01*
X103616864Y-66676704D01*
X103706793Y-66788553D01*
X103864608Y-66920976D01*
X103870006Y-66923944D01*
X103870011Y-66923947D01*
X104039743Y-67017257D01*
X104045140Y-67020224D01*
X104241510Y-67082516D01*
X104247627Y-67083202D01*
X104247631Y-67083203D01*
X104323852Y-67091752D01*
X104401842Y-67100500D01*
X105784978Y-67100500D01*
X105853099Y-67120502D01*
X105899592Y-67174158D01*
X105910978Y-67226500D01*
X105910978Y-69953500D01*
X105890976Y-70021621D01*
X105837320Y-70068114D01*
X105784978Y-70079500D01*
X104409137Y-70079500D01*
X104255948Y-70094520D01*
X104058727Y-70154065D01*
X103876827Y-70250782D01*
X103810521Y-70304860D01*
X103721953Y-70377094D01*
X103721950Y-70377097D01*
X103717178Y-70380989D01*
X103713251Y-70385736D01*
X103713249Y-70385738D01*
X103589789Y-70534975D01*
X103589787Y-70534979D01*
X103585860Y-70539725D01*
X103487875Y-70720945D01*
X103426955Y-70917746D01*
X103426311Y-70923871D01*
X103426311Y-70923872D01*
X103415223Y-71029374D01*
X103405421Y-71122631D01*
X103412941Y-71205262D01*
X103422782Y-71313398D01*
X103424092Y-71327797D01*
X103482258Y-71525428D01*
X103485115Y-71530893D01*
X103503090Y-71565275D01*
X103577704Y-71707998D01*
X103581564Y-71712799D01*
X103581566Y-71712802D01*
X103687362Y-71844386D01*
X103706793Y-71868553D01*
X103864608Y-72000976D01*
X103870006Y-72003944D01*
X103870011Y-72003947D01*
X104019188Y-72085957D01*
X104045140Y-72100224D01*
X104241510Y-72162516D01*
X104247627Y-72163202D01*
X104247631Y-72163203D01*
X104323852Y-72171752D01*
X104401842Y-72180500D01*
X105784978Y-72180500D01*
X105853099Y-72200502D01*
X105899592Y-72254158D01*
X105910978Y-72306500D01*
X105910978Y-72493500D01*
X105890976Y-72561621D01*
X105837320Y-72608114D01*
X105784978Y-72619500D01*
X104409137Y-72619500D01*
X104255948Y-72634520D01*
X104058727Y-72694065D01*
X103876827Y-72790782D01*
X103813032Y-72842812D01*
X103721953Y-72917094D01*
X103721950Y-72917097D01*
X103717178Y-72920989D01*
X103713251Y-72925736D01*
X103713249Y-72925738D01*
X103589789Y-73074975D01*
X103589787Y-73074979D01*
X103585860Y-73079725D01*
X103487875Y-73260945D01*
X103426955Y-73457746D01*
X103426311Y-73463871D01*
X103426311Y-73463872D01*
X103413537Y-73585415D01*
X103405421Y-73662631D01*
X103413324Y-73749471D01*
X103422205Y-73847058D01*
X103424092Y-73867797D01*
X103482258Y-74065428D01*
X103577704Y-74247998D01*
X103581564Y-74252799D01*
X103581566Y-74252802D01*
X103681712Y-74377359D01*
X103706793Y-74408553D01*
X103864608Y-74540976D01*
X103870006Y-74543944D01*
X103870011Y-74543947D01*
X104039743Y-74637257D01*
X104045140Y-74640224D01*
X104241510Y-74702516D01*
X104247627Y-74703202D01*
X104247631Y-74703203D01*
X104323852Y-74711752D01*
X104401842Y-74720500D01*
X105784978Y-74720500D01*
X105853099Y-74740502D01*
X105899592Y-74794158D01*
X105910978Y-74846500D01*
X105910978Y-75033500D01*
X105890976Y-75101621D01*
X105837320Y-75148114D01*
X105784978Y-75159500D01*
X104409137Y-75159500D01*
X104255948Y-75174520D01*
X104058727Y-75234065D01*
X103876827Y-75330782D01*
X103813032Y-75382812D01*
X103721953Y-75457094D01*
X103721950Y-75457097D01*
X103717178Y-75460989D01*
X103713251Y-75465736D01*
X103713249Y-75465738D01*
X103589789Y-75614975D01*
X103589787Y-75614979D01*
X103585860Y-75619725D01*
X103487875Y-75800945D01*
X103426955Y-75997746D01*
X103426311Y-76003871D01*
X103426311Y-76003872D01*
X103407360Y-76184186D01*
X103405421Y-76202631D01*
X103409335Y-76245636D01*
X103422380Y-76388981D01*
X103424092Y-76407797D01*
X103482258Y-76605428D01*
X103577704Y-76787998D01*
X103581564Y-76792799D01*
X103581566Y-76792802D01*
X103644829Y-76871485D01*
X103671925Y-76937108D01*
X103659242Y-77006962D01*
X103610805Y-77058870D01*
X103608111Y-77060264D01*
X103603842Y-77061484D01*
X103488650Y-77134165D01*
X103482707Y-77140894D01*
X103482706Y-77140895D01*
X103441355Y-77187716D01*
X103398487Y-77236255D01*
X103394673Y-77244378D01*
X103394672Y-77244380D01*
X103387245Y-77260199D01*
X103340601Y-77359548D01*
X103339221Y-77368412D01*
X103339220Y-77368415D01*
X103321120Y-77484665D01*
X103319646Y-77494131D01*
X103320810Y-77503033D01*
X103320810Y-77503036D01*
X103327365Y-77553161D01*
X103337306Y-77629186D01*
X103392162Y-77753856D01*
X103397939Y-77760729D01*
X103397940Y-77760730D01*
X103474024Y-77851243D01*
X103479804Y-77858119D01*
X103592465Y-77933112D01*
X103592714Y-77933278D01*
X103638337Y-77987675D01*
X103647308Y-78058103D01*
X103619981Y-78118479D01*
X103600239Y-78142344D01*
X103585860Y-78159725D01*
X103487875Y-78340945D01*
X103426955Y-78537746D01*
X103426311Y-78543871D01*
X103426311Y-78543872D01*
X103406090Y-78736270D01*
X103405421Y-78742631D01*
X103407068Y-78760730D01*
X103423463Y-78940880D01*
X103424092Y-78947797D01*
X103482258Y-79145428D01*
X103577704Y-79327998D01*
X103581564Y-79332799D01*
X103581566Y-79332802D01*
X103686212Y-79462955D01*
X103706793Y-79488553D01*
X103864608Y-79620976D01*
X103870006Y-79623944D01*
X103870011Y-79623947D01*
X103961624Y-79674311D01*
X104045140Y-79720224D01*
X104241510Y-79782516D01*
X104247627Y-79783202D01*
X104247631Y-79783203D01*
X104323852Y-79791752D01*
X104401842Y-79800500D01*
X105784978Y-79800500D01*
X105853099Y-79820502D01*
X105899592Y-79874158D01*
X105910978Y-79926500D01*
X105910978Y-82653500D01*
X105890976Y-82721621D01*
X105837320Y-82768114D01*
X105784978Y-82779500D01*
X104409137Y-82779500D01*
X104255948Y-82794520D01*
X104058727Y-82854065D01*
X103876827Y-82950782D01*
X103815910Y-83000465D01*
X103721953Y-83077094D01*
X103721950Y-83077097D01*
X103717178Y-83080989D01*
X103713251Y-83085736D01*
X103713249Y-83085738D01*
X103589789Y-83234975D01*
X103589787Y-83234979D01*
X103585860Y-83239725D01*
X103487875Y-83420945D01*
X103426955Y-83617746D01*
X103426311Y-83623871D01*
X103426311Y-83623872D01*
X103406766Y-83809838D01*
X103405421Y-83822631D01*
X103408646Y-83858071D01*
X103422205Y-84007058D01*
X103424092Y-84027797D01*
X103482258Y-84225428D01*
X103577704Y-84407998D01*
X103581564Y-84412799D01*
X103581566Y-84412802D01*
X103670601Y-84523539D01*
X103706793Y-84568553D01*
X103864608Y-84700976D01*
X103870006Y-84703944D01*
X103870011Y-84703947D01*
X104039743Y-84797257D01*
X104045140Y-84800224D01*
X104241510Y-84862516D01*
X104247627Y-84863202D01*
X104247631Y-84863203D01*
X104323852Y-84871752D01*
X104401842Y-84880500D01*
X105784978Y-84880500D01*
X105853099Y-84900502D01*
X105899592Y-84954158D01*
X105910978Y-85006500D01*
X105910978Y-85193500D01*
X105890976Y-85261621D01*
X105837320Y-85308114D01*
X105784978Y-85319500D01*
X104409137Y-85319500D01*
X104255948Y-85334520D01*
X104058727Y-85394065D01*
X103876827Y-85490782D01*
X103819912Y-85537201D01*
X103721953Y-85617094D01*
X103721950Y-85617097D01*
X103717178Y-85620989D01*
X103713251Y-85625736D01*
X103713249Y-85625738D01*
X103589789Y-85774975D01*
X103589787Y-85774979D01*
X103585860Y-85779725D01*
X103487875Y-85960945D01*
X103426955Y-86157746D01*
X103426311Y-86163871D01*
X103426311Y-86163872D01*
X103406766Y-86349838D01*
X103405421Y-86362631D01*
X103408646Y-86398071D01*
X103422205Y-86547058D01*
X103424092Y-86567797D01*
X103482258Y-86765428D01*
X103577704Y-86947998D01*
X103581564Y-86952799D01*
X103581566Y-86952802D01*
X103670601Y-87063539D01*
X103706793Y-87108553D01*
X103864608Y-87240976D01*
X103870006Y-87243944D01*
X103870011Y-87243947D01*
X104039743Y-87337257D01*
X104045140Y-87340224D01*
X104241510Y-87402516D01*
X104247627Y-87403202D01*
X104247631Y-87403203D01*
X104323852Y-87411752D01*
X104401842Y-87420500D01*
X105784978Y-87420500D01*
X105853099Y-87440502D01*
X105899592Y-87494158D01*
X105910978Y-87546500D01*
X105910978Y-87733500D01*
X105890976Y-87801621D01*
X105837320Y-87848114D01*
X105784978Y-87859500D01*
X104409137Y-87859500D01*
X104255948Y-87874520D01*
X104058727Y-87934065D01*
X103876827Y-88030782D01*
X103815910Y-88080465D01*
X103721953Y-88157094D01*
X103721950Y-88157097D01*
X103717178Y-88160989D01*
X103713251Y-88165736D01*
X103713249Y-88165738D01*
X103589789Y-88314975D01*
X103589787Y-88314979D01*
X103585860Y-88319725D01*
X103487875Y-88500945D01*
X103426955Y-88697746D01*
X103426311Y-88703871D01*
X103426311Y-88703872D01*
X103406766Y-88889838D01*
X103405421Y-88902631D01*
X103408646Y-88938071D01*
X103422205Y-89087058D01*
X103424092Y-89107797D01*
X103482258Y-89305428D01*
X103577704Y-89487998D01*
X103581564Y-89492799D01*
X103581566Y-89492802D01*
X103678285Y-89613096D01*
X103706793Y-89648553D01*
X103864608Y-89780976D01*
X103870006Y-89783944D01*
X103870011Y-89783947D01*
X103997684Y-89854135D01*
X104045140Y-89880224D01*
X104241510Y-89942516D01*
X104247627Y-89943202D01*
X104247631Y-89943203D01*
X104323852Y-89951752D01*
X104401842Y-89960500D01*
X105784978Y-89960500D01*
X105853099Y-89980502D01*
X105899592Y-90034158D01*
X105910978Y-90086500D01*
X105910978Y-90273500D01*
X105890976Y-90341621D01*
X105837320Y-90388114D01*
X105784978Y-90399500D01*
X104409137Y-90399500D01*
X104255948Y-90414520D01*
X104058727Y-90474065D01*
X103876827Y-90570782D01*
X103815910Y-90620465D01*
X103721953Y-90697094D01*
X103721950Y-90697097D01*
X103717178Y-90700989D01*
X103713251Y-90705736D01*
X103713249Y-90705738D01*
X103589789Y-90854975D01*
X103589787Y-90854979D01*
X103585860Y-90859725D01*
X103487875Y-91040945D01*
X103426955Y-91237746D01*
X103426311Y-91243871D01*
X103426311Y-91243872D01*
X103406766Y-91429838D01*
X103405421Y-91442631D01*
X103408646Y-91478071D01*
X103422205Y-91627058D01*
X103424092Y-91647797D01*
X103482258Y-91845428D01*
X103577704Y-92027998D01*
X103581564Y-92032799D01*
X103581566Y-92032802D01*
X103670601Y-92143539D01*
X103706793Y-92188553D01*
X103864608Y-92320976D01*
X103870006Y-92323944D01*
X103870011Y-92323947D01*
X104039743Y-92417257D01*
X104045140Y-92420224D01*
X104241510Y-92482516D01*
X104247627Y-92483202D01*
X104247631Y-92483203D01*
X104323852Y-92491752D01*
X104401842Y-92500500D01*
X105784978Y-92500500D01*
X105853099Y-92520502D01*
X105899592Y-92574158D01*
X105910978Y-92626500D01*
X105910978Y-95353500D01*
X105890976Y-95421621D01*
X105837320Y-95468114D01*
X105784978Y-95479500D01*
X104409137Y-95479500D01*
X104255948Y-95494520D01*
X104058727Y-95554065D01*
X103876827Y-95650782D01*
X103815910Y-95700465D01*
X103721953Y-95777094D01*
X103721950Y-95777097D01*
X103717178Y-95780989D01*
X103713251Y-95785736D01*
X103713249Y-95785738D01*
X103589789Y-95934975D01*
X103589787Y-95934979D01*
X103585860Y-95939725D01*
X103487875Y-96120945D01*
X103426955Y-96317746D01*
X103426311Y-96323871D01*
X103426311Y-96323872D01*
X103406766Y-96509838D01*
X103405421Y-96522631D01*
X103408646Y-96558071D01*
X103422205Y-96707058D01*
X103424092Y-96727797D01*
X103482258Y-96925428D01*
X103577704Y-97107998D01*
X103581564Y-97112799D01*
X103581566Y-97112802D01*
X103670601Y-97223539D01*
X103706793Y-97268553D01*
X103864608Y-97400976D01*
X103870006Y-97403944D01*
X103870011Y-97403947D01*
X104025247Y-97489288D01*
X104045140Y-97500224D01*
X104241510Y-97562516D01*
X104247627Y-97563202D01*
X104247631Y-97563203D01*
X104323852Y-97571752D01*
X104401842Y-97580500D01*
X105784978Y-97580500D01*
X105853099Y-97600502D01*
X105899592Y-97654158D01*
X105910978Y-97706500D01*
X105910978Y-97893500D01*
X105890976Y-97961621D01*
X105837320Y-98008114D01*
X105784978Y-98019500D01*
X104409137Y-98019500D01*
X104255948Y-98034520D01*
X104058727Y-98094065D01*
X103876827Y-98190782D01*
X103813032Y-98242812D01*
X103721953Y-98317094D01*
X103721950Y-98317097D01*
X103717178Y-98320989D01*
X103713251Y-98325736D01*
X103713249Y-98325738D01*
X103589789Y-98474975D01*
X103589787Y-98474979D01*
X103585860Y-98479725D01*
X103487875Y-98660945D01*
X103426955Y-98857746D01*
X103426311Y-98863871D01*
X103426311Y-98863872D01*
X103425436Y-98872203D01*
X103405421Y-99062631D01*
X103406584Y-99075413D01*
X103422205Y-99247058D01*
X103424092Y-99267797D01*
X103482258Y-99465428D01*
X103577704Y-99647998D01*
X103581564Y-99652799D01*
X103581566Y-99652802D01*
X103671384Y-99764513D01*
X103706793Y-99808553D01*
X103741268Y-99837481D01*
X103780593Y-99896587D01*
X103781719Y-99967575D01*
X103744288Y-100027903D01*
X103680184Y-100058417D01*
X103660275Y-100060000D01*
X103187478Y-100060000D01*
X103119357Y-100039998D01*
X103072864Y-99986342D01*
X103061478Y-99934000D01*
X103061478Y-98558159D01*
X103046458Y-98404970D01*
X102986913Y-98207749D01*
X102890196Y-98025849D01*
X102816837Y-97935902D01*
X102763884Y-97870975D01*
X102763881Y-97870972D01*
X102759989Y-97866200D01*
X102742764Y-97851950D01*
X102606003Y-97738811D01*
X102605999Y-97738809D01*
X102601253Y-97734882D01*
X102420033Y-97636897D01*
X102223232Y-97575977D01*
X102217107Y-97575333D01*
X102217106Y-97575333D01*
X102024476Y-97555087D01*
X102024474Y-97555087D01*
X102018347Y-97554443D01*
X101950109Y-97560653D01*
X101819320Y-97572555D01*
X101819317Y-97572556D01*
X101813181Y-97573114D01*
X101615550Y-97631280D01*
X101432980Y-97726726D01*
X101428179Y-97730586D01*
X101428176Y-97730588D01*
X101417949Y-97738811D01*
X101272425Y-97855815D01*
X101140002Y-98013630D01*
X101137034Y-98019028D01*
X101137031Y-98019033D01*
X101093667Y-98097913D01*
X101040754Y-98194162D01*
X100978462Y-98390532D01*
X100977776Y-98396649D01*
X100977775Y-98396653D01*
X100970407Y-98462344D01*
X100960478Y-98550864D01*
X100960478Y-99934000D01*
X100940476Y-100002121D01*
X100886820Y-100048614D01*
X100834478Y-100060000D01*
X98107478Y-100060000D01*
X98039357Y-100039998D01*
X97992864Y-99986342D01*
X97981478Y-99934000D01*
X97981478Y-98558159D01*
X97966458Y-98404970D01*
X97906913Y-98207749D01*
X97810196Y-98025849D01*
X97736837Y-97935902D01*
X97683884Y-97870975D01*
X97683881Y-97870972D01*
X97679989Y-97866200D01*
X97662764Y-97851950D01*
X97526003Y-97738811D01*
X97525999Y-97738809D01*
X97521253Y-97734882D01*
X97340033Y-97636897D01*
X97143232Y-97575977D01*
X97137107Y-97575333D01*
X97137106Y-97575333D01*
X96944476Y-97555087D01*
X96944474Y-97555087D01*
X96938347Y-97554443D01*
X96870109Y-97560653D01*
X96739320Y-97572555D01*
X96739317Y-97572556D01*
X96733181Y-97573114D01*
X96535550Y-97631280D01*
X96352980Y-97726726D01*
X96348179Y-97730586D01*
X96348176Y-97730588D01*
X96337949Y-97738811D01*
X96192425Y-97855815D01*
X96060002Y-98013630D01*
X96057034Y-98019028D01*
X96057031Y-98019033D01*
X96013667Y-98097913D01*
X95960754Y-98194162D01*
X95898462Y-98390532D01*
X95897776Y-98396649D01*
X95897775Y-98396653D01*
X95890407Y-98462344D01*
X95880478Y-98550864D01*
X95880478Y-99934000D01*
X95860476Y-100002121D01*
X95806820Y-100048614D01*
X95754478Y-100060000D01*
X95567478Y-100060000D01*
X95499357Y-100039998D01*
X95452864Y-99986342D01*
X95441478Y-99934000D01*
X95441478Y-98558159D01*
X95426458Y-98404970D01*
X95366913Y-98207749D01*
X95270196Y-98025849D01*
X95196837Y-97935902D01*
X95143884Y-97870975D01*
X95143881Y-97870972D01*
X95139989Y-97866200D01*
X95122764Y-97851950D01*
X94986003Y-97738811D01*
X94985999Y-97738809D01*
X94981253Y-97734882D01*
X94800033Y-97636897D01*
X94603232Y-97575977D01*
X94597107Y-97575333D01*
X94597106Y-97575333D01*
X94404476Y-97555087D01*
X94404474Y-97555087D01*
X94398347Y-97554443D01*
X94330109Y-97560653D01*
X94199320Y-97572555D01*
X94199317Y-97572556D01*
X94193181Y-97573114D01*
X93995550Y-97631280D01*
X93812980Y-97726726D01*
X93808179Y-97730586D01*
X93808176Y-97730588D01*
X93797949Y-97738811D01*
X93652425Y-97855815D01*
X93520002Y-98013630D01*
X93517034Y-98019028D01*
X93517031Y-98019033D01*
X93473667Y-98097913D01*
X93420754Y-98194162D01*
X93358462Y-98390532D01*
X93357776Y-98396649D01*
X93357775Y-98396653D01*
X93350407Y-98462344D01*
X93340478Y-98550864D01*
X93340478Y-99934000D01*
X93320476Y-100002121D01*
X93266820Y-100048614D01*
X93214478Y-100060000D01*
X90487478Y-100060000D01*
X90419357Y-100039998D01*
X90372864Y-99986342D01*
X90361478Y-99934000D01*
X90361478Y-98558159D01*
X90346458Y-98404970D01*
X90286913Y-98207749D01*
X90190196Y-98025849D01*
X90116837Y-97935902D01*
X90063884Y-97870975D01*
X90063881Y-97870972D01*
X90059989Y-97866200D01*
X90042764Y-97851950D01*
X89906003Y-97738811D01*
X89905999Y-97738809D01*
X89901253Y-97734882D01*
X89790903Y-97675216D01*
X89740495Y-97625221D01*
X89725117Y-97555910D01*
X89749653Y-97489288D01*
X89794021Y-97451914D01*
X89795322Y-97451257D01*
X89938689Y-97378837D01*
X89968515Y-97355535D01*
X90066461Y-97279011D01*
X90093303Y-97258040D01*
X90123084Y-97223539D01*
X90217485Y-97114173D01*
X90217485Y-97114172D01*
X90221509Y-97109511D01*
X90318425Y-96938909D01*
X90380358Y-96752732D01*
X90404949Y-96558071D01*
X90405238Y-96537369D01*
X90405292Y-96533523D01*
X90405292Y-96533519D01*
X90405341Y-96530000D01*
X90386194Y-96334728D01*
X90384413Y-96328829D01*
X90384412Y-96328824D01*
X90331265Y-96152793D01*
X90329484Y-96146894D01*
X90237370Y-95973653D01*
X90113361Y-95821602D01*
X89962180Y-95696535D01*
X89789585Y-95603213D01*
X89687243Y-95571533D01*
X89608039Y-95547015D01*
X89608036Y-95547014D01*
X89602152Y-95545193D01*
X89596027Y-95544549D01*
X89596026Y-95544549D01*
X89413147Y-95525327D01*
X89413146Y-95525327D01*
X89407019Y-95524683D01*
X89284383Y-95535844D01*
X89217759Y-95541907D01*
X89217758Y-95541907D01*
X89211618Y-95542466D01*
X89205704Y-95544207D01*
X89205702Y-95544207D01*
X89103205Y-95574374D01*
X89023393Y-95597864D01*
X89017928Y-95600721D01*
X88854972Y-95685912D01*
X88854968Y-95685915D01*
X88849512Y-95688767D01*
X88844712Y-95692627D01*
X88844711Y-95692627D01*
X88832043Y-95702812D01*
X88696600Y-95811711D01*
X88570480Y-95962016D01*
X88567516Y-95967408D01*
X88567513Y-95967412D01*
X88525328Y-96044147D01*
X88475956Y-96133954D01*
X88474095Y-96139821D01*
X88474094Y-96139823D01*
X88473577Y-96141452D01*
X88416628Y-96320978D01*
X88394757Y-96515963D01*
X88411175Y-96711483D01*
X88465258Y-96900091D01*
X88468076Y-96905574D01*
X88552123Y-97069113D01*
X88552126Y-97069117D01*
X88554944Y-97074601D01*
X88676818Y-97228369D01*
X88826238Y-97355535D01*
X88831616Y-97358541D01*
X88831618Y-97358542D01*
X88867932Y-97378837D01*
X88912862Y-97403947D01*
X88921191Y-97408602D01*
X88970897Y-97459295D01*
X88985305Y-97528814D01*
X88959842Y-97595087D01*
X88914637Y-97629534D01*
X88915550Y-97631280D01*
X88732980Y-97726726D01*
X88728179Y-97730586D01*
X88728176Y-97730588D01*
X88717949Y-97738811D01*
X88572425Y-97855815D01*
X88440002Y-98013630D01*
X88437034Y-98019028D01*
X88437031Y-98019033D01*
X88393667Y-98097913D01*
X88340754Y-98194162D01*
X88278462Y-98390532D01*
X88277776Y-98396649D01*
X88277775Y-98396653D01*
X88270407Y-98462344D01*
X88260478Y-98550864D01*
X88260478Y-99934000D01*
X88240476Y-100002121D01*
X88186820Y-100048614D01*
X88134478Y-100060000D01*
X87663146Y-100060000D01*
X87595025Y-100039998D01*
X87548532Y-99986342D01*
X87538428Y-99916068D01*
X87567922Y-99851488D01*
X87583510Y-99836358D01*
X87599997Y-99822912D01*
X87600007Y-99822903D01*
X87604778Y-99819011D01*
X87613430Y-99808553D01*
X87732167Y-99665025D01*
X87732169Y-99665021D01*
X87736096Y-99660275D01*
X87834081Y-99479055D01*
X87895001Y-99282254D01*
X87895900Y-99273705D01*
X87915891Y-99083498D01*
X87915891Y-99083496D01*
X87916535Y-99077369D01*
X87900712Y-98903500D01*
X87898423Y-98878342D01*
X87898422Y-98878339D01*
X87897864Y-98872203D01*
X87839698Y-98674572D01*
X87744252Y-98492002D01*
X87734382Y-98479725D01*
X87619028Y-98336254D01*
X87619028Y-98336253D01*
X87615163Y-98331447D01*
X87457348Y-98199024D01*
X87451950Y-98196056D01*
X87451945Y-98196053D01*
X87282213Y-98102743D01*
X87276816Y-98099776D01*
X87080446Y-98037484D01*
X87074329Y-98036798D01*
X87074325Y-98036797D01*
X86998104Y-98028248D01*
X86920114Y-98019500D01*
X85536978Y-98019500D01*
X85468857Y-97999498D01*
X85422364Y-97945842D01*
X85410978Y-97893500D01*
X85410978Y-97706500D01*
X85430980Y-97638379D01*
X85484636Y-97591886D01*
X85536978Y-97580500D01*
X86912819Y-97580500D01*
X87066008Y-97565480D01*
X87263229Y-97505935D01*
X87445129Y-97409218D01*
X87535076Y-97335859D01*
X87600003Y-97282906D01*
X87600006Y-97282903D01*
X87604778Y-97279011D01*
X87613430Y-97268553D01*
X87732167Y-97125025D01*
X87732169Y-97125021D01*
X87736096Y-97120275D01*
X87834081Y-96939055D01*
X87895001Y-96742254D01*
X87895900Y-96733705D01*
X87915891Y-96543498D01*
X87915891Y-96543496D01*
X87916535Y-96537369D01*
X87900712Y-96363500D01*
X87898423Y-96338342D01*
X87898422Y-96338339D01*
X87897864Y-96332203D01*
X87839698Y-96134572D01*
X87836555Y-96128559D01*
X87747109Y-95957467D01*
X87744252Y-95952002D01*
X87734382Y-95939725D01*
X87619028Y-95796254D01*
X87619028Y-95796253D01*
X87615163Y-95791447D01*
X87457348Y-95659024D01*
X87451950Y-95656056D01*
X87451945Y-95656053D01*
X87282213Y-95562743D01*
X87276816Y-95559776D01*
X87080446Y-95497484D01*
X87074329Y-95496798D01*
X87074325Y-95496797D01*
X86998104Y-95488248D01*
X86920114Y-95479500D01*
X85536978Y-95479500D01*
X85468857Y-95459498D01*
X85422364Y-95405842D01*
X85410978Y-95353500D01*
X85410978Y-95094131D01*
X99180189Y-95094131D01*
X99181353Y-95103033D01*
X99181353Y-95103036D01*
X99182491Y-95111737D01*
X99197849Y-95229186D01*
X99252705Y-95353856D01*
X99258482Y-95360729D01*
X99258483Y-95360730D01*
X99270723Y-95375291D01*
X99340347Y-95458119D01*
X99453730Y-95533593D01*
X99583738Y-95574210D01*
X99719920Y-95576706D01*
X99782019Y-95559776D01*
X99842667Y-95543242D01*
X99842670Y-95543241D01*
X99851329Y-95540880D01*
X99858979Y-95536183D01*
X99858981Y-95536182D01*
X99959749Y-95474311D01*
X99959752Y-95474308D01*
X99967401Y-95469612D01*
X100025123Y-95405842D01*
X100052776Y-95375291D01*
X100052777Y-95375290D01*
X100058804Y-95368631D01*
X100065963Y-95353856D01*
X100114277Y-95254135D01*
X100114277Y-95254134D01*
X100118192Y-95246054D01*
X100140790Y-95111737D01*
X100140933Y-95100000D01*
X100125809Y-94994392D01*
X100122897Y-94974057D01*
X100122896Y-94974054D01*
X100121624Y-94965171D01*
X100065249Y-94841180D01*
X99976339Y-94737996D01*
X99892323Y-94683539D01*
X99869575Y-94668794D01*
X99869573Y-94668793D01*
X99862044Y-94663913D01*
X99853447Y-94661342D01*
X99853445Y-94661341D01*
X99776516Y-94638335D01*
X99731549Y-94624887D01*
X99722573Y-94624832D01*
X99722572Y-94624832D01*
X99665579Y-94624484D01*
X99595347Y-94624055D01*
X99586715Y-94626522D01*
X99473016Y-94659017D01*
X99473014Y-94659018D01*
X99464385Y-94661484D01*
X99349193Y-94734165D01*
X99259030Y-94836255D01*
X99201144Y-94959548D01*
X99199764Y-94968412D01*
X99199763Y-94968415D01*
X99195679Y-94994649D01*
X99180189Y-95094131D01*
X85410978Y-95094131D01*
X85410978Y-93975963D01*
X88394757Y-93975963D01*
X88411175Y-94171483D01*
X88465258Y-94360091D01*
X88468076Y-94365574D01*
X88552123Y-94529113D01*
X88552126Y-94529117D01*
X88554944Y-94534601D01*
X88676818Y-94688369D01*
X88826238Y-94815535D01*
X88831616Y-94818541D01*
X88831618Y-94818542D01*
X88863312Y-94836255D01*
X88997513Y-94911257D01*
X89184118Y-94971889D01*
X89378946Y-94995121D01*
X89385081Y-94994649D01*
X89385083Y-94994649D01*
X89568434Y-94980541D01*
X89568438Y-94980540D01*
X89574576Y-94980068D01*
X89763556Y-94927303D01*
X89938689Y-94838837D01*
X89944397Y-94834378D01*
X90072664Y-94734165D01*
X90093303Y-94718040D01*
X90123084Y-94683539D01*
X90217485Y-94574173D01*
X90217485Y-94574172D01*
X90221509Y-94569511D01*
X90318425Y-94398909D01*
X90380358Y-94212732D01*
X90404949Y-94018071D01*
X90405341Y-93990000D01*
X90386194Y-93794728D01*
X90384413Y-93788829D01*
X90384412Y-93788824D01*
X90331265Y-93612793D01*
X90329484Y-93606894D01*
X90237370Y-93433653D01*
X90205137Y-93394131D01*
X99119646Y-93394131D01*
X99120810Y-93403033D01*
X99120810Y-93403036D01*
X99121948Y-93411737D01*
X99137306Y-93529186D01*
X99192162Y-93653856D01*
X99197939Y-93660729D01*
X99197940Y-93660730D01*
X99210180Y-93675291D01*
X99279804Y-93758119D01*
X99393187Y-93833593D01*
X99523195Y-93874210D01*
X99659377Y-93876706D01*
X99702542Y-93864938D01*
X99782124Y-93843242D01*
X99782127Y-93843241D01*
X99790786Y-93840880D01*
X99798436Y-93836183D01*
X99798438Y-93836182D01*
X99899206Y-93774311D01*
X99899209Y-93774308D01*
X99906858Y-93769612D01*
X99998261Y-93668631D01*
X100005420Y-93653856D01*
X100053734Y-93554135D01*
X100053734Y-93554134D01*
X100057649Y-93546054D01*
X100078518Y-93422016D01*
X100079441Y-93416530D01*
X100079441Y-93416525D01*
X100080247Y-93411737D01*
X100080390Y-93400000D01*
X100062872Y-93277677D01*
X100062354Y-93274057D01*
X100062353Y-93274054D01*
X100061081Y-93265171D01*
X100004706Y-93141180D01*
X99915796Y-93037996D01*
X99864194Y-93004549D01*
X99809032Y-92968794D01*
X99809030Y-92968793D01*
X99801501Y-92963913D01*
X99792904Y-92961342D01*
X99792902Y-92961341D01*
X99715973Y-92938335D01*
X99671006Y-92924887D01*
X99662030Y-92924832D01*
X99662029Y-92924832D01*
X99605036Y-92924484D01*
X99534804Y-92924055D01*
X99526172Y-92926522D01*
X99412473Y-92959017D01*
X99412471Y-92959018D01*
X99403842Y-92961484D01*
X99288650Y-93034165D01*
X99282707Y-93040894D01*
X99282706Y-93040895D01*
X99260408Y-93066143D01*
X99198487Y-93136255D01*
X99194673Y-93144378D01*
X99194672Y-93144380D01*
X99187120Y-93160465D01*
X99140601Y-93259548D01*
X99139221Y-93268412D01*
X99139220Y-93268415D01*
X99136424Y-93286376D01*
X99119646Y-93394131D01*
X90205137Y-93394131D01*
X90113361Y-93281602D01*
X89962180Y-93156535D01*
X89789585Y-93063213D01*
X89692344Y-93033112D01*
X89608039Y-93007015D01*
X89608036Y-93007014D01*
X89602152Y-93005193D01*
X89596027Y-93004549D01*
X89596026Y-93004549D01*
X89413147Y-92985327D01*
X89413146Y-92985327D01*
X89407019Y-92984683D01*
X89284383Y-92995844D01*
X89217759Y-93001907D01*
X89217758Y-93001907D01*
X89211618Y-93002466D01*
X89205704Y-93004207D01*
X89205702Y-93004207D01*
X89103915Y-93034165D01*
X89023393Y-93057864D01*
X89017928Y-93060721D01*
X88854972Y-93145912D01*
X88854968Y-93145915D01*
X88849512Y-93148767D01*
X88844712Y-93152627D01*
X88844711Y-93152627D01*
X88810326Y-93180273D01*
X88696600Y-93271711D01*
X88570480Y-93422016D01*
X88567516Y-93427408D01*
X88567513Y-93427412D01*
X88507156Y-93537201D01*
X88475956Y-93593954D01*
X88416628Y-93780978D01*
X88394757Y-93975963D01*
X85410978Y-93975963D01*
X85410978Y-92626500D01*
X85430980Y-92558379D01*
X85484636Y-92511886D01*
X85536978Y-92500500D01*
X86912819Y-92500500D01*
X87066008Y-92485480D01*
X87263229Y-92425935D01*
X87445129Y-92329218D01*
X87535076Y-92255859D01*
X87600003Y-92202906D01*
X87600006Y-92202903D01*
X87604778Y-92199011D01*
X87613430Y-92188553D01*
X87732167Y-92045025D01*
X87732169Y-92045021D01*
X87736096Y-92040275D01*
X87834081Y-91859055D01*
X87895001Y-91662254D01*
X87895900Y-91653705D01*
X87915891Y-91463498D01*
X87915891Y-91463496D01*
X87916535Y-91457369D01*
X87914587Y-91435963D01*
X88394757Y-91435963D01*
X88411175Y-91631483D01*
X88465258Y-91820091D01*
X88468076Y-91825574D01*
X88552123Y-91989113D01*
X88552126Y-91989117D01*
X88554944Y-91994601D01*
X88676818Y-92148369D01*
X88826238Y-92275535D01*
X88831616Y-92278541D01*
X88831618Y-92278542D01*
X88867932Y-92298837D01*
X88997513Y-92371257D01*
X89184118Y-92431889D01*
X89378946Y-92455121D01*
X89385081Y-92454649D01*
X89385083Y-92454649D01*
X89568434Y-92440541D01*
X89568438Y-92440540D01*
X89574576Y-92440068D01*
X89763556Y-92387303D01*
X89938689Y-92298837D01*
X89968515Y-92275535D01*
X90066461Y-92199011D01*
X90093303Y-92178040D01*
X90123084Y-92143539D01*
X90217485Y-92034173D01*
X90217485Y-92034172D01*
X90221509Y-92029511D01*
X90318425Y-91858909D01*
X90380358Y-91672732D01*
X90404949Y-91478071D01*
X90405238Y-91457369D01*
X90405292Y-91453523D01*
X90405292Y-91453519D01*
X90405341Y-91450000D01*
X90386194Y-91254728D01*
X90384413Y-91248829D01*
X90384412Y-91248824D01*
X90331265Y-91072793D01*
X90329484Y-91066894D01*
X90304082Y-91019120D01*
X97819646Y-91019120D01*
X97820810Y-91028022D01*
X97820810Y-91028025D01*
X97823495Y-91048559D01*
X97837306Y-91154175D01*
X97840923Y-91162395D01*
X97876774Y-91243872D01*
X97892162Y-91278845D01*
X97897939Y-91285718D01*
X97897940Y-91285719D01*
X97910180Y-91300280D01*
X97979804Y-91383108D01*
X97987281Y-91388085D01*
X98072163Y-91444587D01*
X98093187Y-91458582D01*
X98223195Y-91499199D01*
X98359377Y-91501695D01*
X98433177Y-91481575D01*
X98482124Y-91468231D01*
X98482127Y-91468230D01*
X98490786Y-91465869D01*
X98498436Y-91461172D01*
X98498438Y-91461171D01*
X98599206Y-91399300D01*
X98599209Y-91399297D01*
X98606858Y-91394601D01*
X98698261Y-91293620D01*
X98705420Y-91278845D01*
X98753734Y-91179124D01*
X98753734Y-91179123D01*
X98757649Y-91171043D01*
X98774179Y-91072793D01*
X98779441Y-91041519D01*
X98779441Y-91041514D01*
X98780247Y-91036726D01*
X98780390Y-91024989D01*
X98761081Y-90890160D01*
X98704706Y-90766169D01*
X98683538Y-90741602D01*
X98621657Y-90669787D01*
X98615796Y-90662985D01*
X98557696Y-90625326D01*
X98509032Y-90593783D01*
X98509030Y-90593782D01*
X98501501Y-90588902D01*
X98492904Y-90586331D01*
X98492902Y-90586330D01*
X98415973Y-90563324D01*
X98371006Y-90549876D01*
X98362030Y-90549821D01*
X98362029Y-90549821D01*
X98305036Y-90549473D01*
X98234804Y-90549044D01*
X98226172Y-90551511D01*
X98112473Y-90584006D01*
X98112471Y-90584007D01*
X98103842Y-90586473D01*
X97988650Y-90659154D01*
X97982707Y-90665883D01*
X97982706Y-90665884D01*
X97947508Y-90705738D01*
X97898487Y-90761244D01*
X97840601Y-90884537D01*
X97839221Y-90893401D01*
X97839220Y-90893404D01*
X97838333Y-90899104D01*
X97819646Y-91019120D01*
X90304082Y-91019120D01*
X90237370Y-90893653D01*
X90113361Y-90741602D01*
X89962180Y-90616535D01*
X89789585Y-90523213D01*
X89695869Y-90494203D01*
X89608039Y-90467015D01*
X89608036Y-90467014D01*
X89602152Y-90465193D01*
X89596027Y-90464549D01*
X89596026Y-90464549D01*
X89413147Y-90445327D01*
X89413146Y-90445327D01*
X89407019Y-90444683D01*
X89284383Y-90455844D01*
X89217759Y-90461907D01*
X89217758Y-90461907D01*
X89211618Y-90462466D01*
X89205704Y-90464207D01*
X89205702Y-90464207D01*
X89172208Y-90474065D01*
X89023393Y-90517864D01*
X89017928Y-90520721D01*
X88854972Y-90605912D01*
X88854968Y-90605915D01*
X88849512Y-90608767D01*
X88844712Y-90612627D01*
X88844711Y-90612627D01*
X88832043Y-90622812D01*
X88696600Y-90731711D01*
X88570480Y-90882016D01*
X88567516Y-90887408D01*
X88567513Y-90887412D01*
X88525328Y-90964147D01*
X88475956Y-91053954D01*
X88474095Y-91059821D01*
X88474094Y-91059823D01*
X88473577Y-91061452D01*
X88416628Y-91240978D01*
X88394757Y-91435963D01*
X87914587Y-91435963D01*
X87900914Y-91285719D01*
X87898423Y-91258342D01*
X87898422Y-91258339D01*
X87897864Y-91252203D01*
X87839698Y-91054572D01*
X87836555Y-91048559D01*
X87747109Y-90877467D01*
X87744252Y-90872002D01*
X87734382Y-90859725D01*
X87619028Y-90716254D01*
X87619028Y-90716253D01*
X87615163Y-90711447D01*
X87457348Y-90579024D01*
X87451950Y-90576056D01*
X87451945Y-90576053D01*
X87282213Y-90482743D01*
X87276816Y-90479776D01*
X87080446Y-90417484D01*
X87074329Y-90416798D01*
X87074325Y-90416797D01*
X86998104Y-90408248D01*
X86920114Y-90399500D01*
X85536978Y-90399500D01*
X85468857Y-90379498D01*
X85422364Y-90325842D01*
X85410978Y-90273500D01*
X85410978Y-90086500D01*
X85430980Y-90018379D01*
X85484636Y-89971886D01*
X85536978Y-89960500D01*
X86912819Y-89960500D01*
X87066008Y-89945480D01*
X87263229Y-89885935D01*
X87445129Y-89789218D01*
X87540130Y-89711737D01*
X87600003Y-89662906D01*
X87600006Y-89662903D01*
X87604778Y-89659011D01*
X87613430Y-89648553D01*
X87732167Y-89505025D01*
X87732169Y-89505021D01*
X87736096Y-89500275D01*
X87834081Y-89319055D01*
X87895001Y-89122254D01*
X87895645Y-89116128D01*
X87915891Y-88923498D01*
X87915891Y-88923496D01*
X87916535Y-88917369D01*
X87914587Y-88895963D01*
X88394757Y-88895963D01*
X88411175Y-89091483D01*
X88465258Y-89280091D01*
X88468076Y-89285574D01*
X88552123Y-89449113D01*
X88552126Y-89449117D01*
X88554944Y-89454601D01*
X88676818Y-89608369D01*
X88681511Y-89612363D01*
X88681512Y-89612364D01*
X88813089Y-89724344D01*
X88826238Y-89735535D01*
X88831616Y-89738541D01*
X88831618Y-89738542D01*
X88867932Y-89758837D01*
X88997513Y-89831257D01*
X89184118Y-89891889D01*
X89378946Y-89915121D01*
X89385081Y-89914649D01*
X89385083Y-89914649D01*
X89568434Y-89900541D01*
X89568438Y-89900540D01*
X89574576Y-89900068D01*
X89763556Y-89847303D01*
X89938689Y-89758837D01*
X89968515Y-89735535D01*
X90021510Y-89694131D01*
X90719646Y-89694131D01*
X90720810Y-89703033D01*
X90720810Y-89703036D01*
X90724538Y-89731542D01*
X90737306Y-89829186D01*
X90740923Y-89837406D01*
X90787475Y-89943203D01*
X90792162Y-89953856D01*
X90797939Y-89960729D01*
X90797940Y-89960730D01*
X90807318Y-89971886D01*
X90879804Y-90058119D01*
X90993187Y-90133593D01*
X91123195Y-90174210D01*
X91259377Y-90176706D01*
X91302542Y-90164938D01*
X91382124Y-90143242D01*
X91382127Y-90143241D01*
X91390786Y-90140880D01*
X91398436Y-90136183D01*
X91398438Y-90136182D01*
X91499206Y-90074311D01*
X91499209Y-90074308D01*
X91506858Y-90069612D01*
X91538950Y-90034158D01*
X91592233Y-89975291D01*
X91592234Y-89975290D01*
X91598261Y-89968631D01*
X91602201Y-89960500D01*
X91653734Y-89854135D01*
X91653734Y-89854134D01*
X91657649Y-89846054D01*
X91677729Y-89726706D01*
X91679441Y-89716530D01*
X91679441Y-89716525D01*
X91680247Y-89711737D01*
X91680390Y-89700000D01*
X91668878Y-89619612D01*
X91662354Y-89574057D01*
X91662353Y-89574054D01*
X91661081Y-89565171D01*
X91604706Y-89441180D01*
X91515796Y-89337996D01*
X91486349Y-89318909D01*
X91409032Y-89268794D01*
X91409030Y-89268793D01*
X91401501Y-89263913D01*
X91392904Y-89261342D01*
X91392902Y-89261341D01*
X91335355Y-89244131D01*
X97669646Y-89244131D01*
X97670810Y-89253033D01*
X97670810Y-89253036D01*
X97672541Y-89266273D01*
X97687306Y-89379186D01*
X97742162Y-89503856D01*
X97747939Y-89510729D01*
X97747940Y-89510730D01*
X97796429Y-89568415D01*
X97829804Y-89608119D01*
X97943187Y-89683593D01*
X97980285Y-89695183D01*
X98048613Y-89716530D01*
X98073195Y-89724210D01*
X98209377Y-89726706D01*
X98289508Y-89704860D01*
X98332124Y-89693242D01*
X98332127Y-89693241D01*
X98340786Y-89690880D01*
X98348436Y-89686183D01*
X98348438Y-89686182D01*
X98449206Y-89624311D01*
X98449209Y-89624308D01*
X98456858Y-89619612D01*
X98471407Y-89603539D01*
X98542233Y-89525291D01*
X98542234Y-89525290D01*
X98548261Y-89518631D01*
X98555420Y-89503856D01*
X98603734Y-89404135D01*
X98603734Y-89404134D01*
X98607649Y-89396054D01*
X98627159Y-89280091D01*
X98629441Y-89266530D01*
X98629441Y-89266525D01*
X98630247Y-89261737D01*
X98630390Y-89250000D01*
X98613596Y-89132732D01*
X98612354Y-89124057D01*
X98612353Y-89124054D01*
X98611081Y-89115171D01*
X98603003Y-89097403D01*
X98558422Y-88999354D01*
X98554706Y-88991180D01*
X98465796Y-88887996D01*
X98452494Y-88879374D01*
X98359032Y-88818794D01*
X98359030Y-88818793D01*
X98351501Y-88813913D01*
X98342904Y-88811342D01*
X98342902Y-88811341D01*
X98265973Y-88788335D01*
X98221006Y-88774887D01*
X98212030Y-88774832D01*
X98212029Y-88774832D01*
X98155036Y-88774484D01*
X98084804Y-88774055D01*
X98076172Y-88776522D01*
X97962473Y-88809017D01*
X97962471Y-88809018D01*
X97953842Y-88811484D01*
X97838650Y-88884165D01*
X97832707Y-88890894D01*
X97832706Y-88890895D01*
X97809325Y-88917369D01*
X97748487Y-88986255D01*
X97690601Y-89109548D01*
X97689221Y-89118412D01*
X97689220Y-89118415D01*
X97672242Y-89227460D01*
X97669646Y-89244131D01*
X91335355Y-89244131D01*
X91305688Y-89235259D01*
X91271006Y-89224887D01*
X91262030Y-89224832D01*
X91262029Y-89224832D01*
X91205036Y-89224484D01*
X91134804Y-89224055D01*
X91126172Y-89226522D01*
X91012473Y-89259017D01*
X91012471Y-89259018D01*
X91003842Y-89261484D01*
X90996252Y-89266273D01*
X90922106Y-89313056D01*
X90888650Y-89334165D01*
X90798487Y-89436255D01*
X90794673Y-89444378D01*
X90794672Y-89444380D01*
X90770975Y-89494854D01*
X90740601Y-89559548D01*
X90739221Y-89568412D01*
X90739220Y-89568415D01*
X90721287Y-89683593D01*
X90719646Y-89694131D01*
X90021510Y-89694131D01*
X90066461Y-89659011D01*
X90093303Y-89638040D01*
X90105154Y-89624311D01*
X90217485Y-89494173D01*
X90217485Y-89494172D01*
X90221509Y-89489511D01*
X90244322Y-89449354D01*
X90279534Y-89387369D01*
X90318425Y-89318909D01*
X90380358Y-89132732D01*
X90404949Y-88938071D01*
X90405238Y-88917369D01*
X90405292Y-88913523D01*
X90405292Y-88913519D01*
X90405341Y-88910000D01*
X90386194Y-88714728D01*
X90384413Y-88708829D01*
X90384412Y-88708824D01*
X90331265Y-88532793D01*
X90329484Y-88526894D01*
X90237370Y-88353653D01*
X90113361Y-88201602D01*
X89962180Y-88076535D01*
X89789585Y-87983213D01*
X89695869Y-87954203D01*
X89608039Y-87927015D01*
X89608036Y-87927014D01*
X89602152Y-87925193D01*
X89596027Y-87924549D01*
X89596026Y-87924549D01*
X89413147Y-87905327D01*
X89413146Y-87905327D01*
X89407019Y-87904683D01*
X89284383Y-87915844D01*
X89217759Y-87921907D01*
X89217758Y-87921907D01*
X89211618Y-87922466D01*
X89205704Y-87924207D01*
X89205702Y-87924207D01*
X89172208Y-87934065D01*
X89023393Y-87977864D01*
X89017928Y-87980721D01*
X88854972Y-88065912D01*
X88854968Y-88065915D01*
X88849512Y-88068767D01*
X88844712Y-88072627D01*
X88844711Y-88072627D01*
X88832043Y-88082812D01*
X88696600Y-88191711D01*
X88570480Y-88342016D01*
X88567516Y-88347408D01*
X88567513Y-88347412D01*
X88525328Y-88424147D01*
X88475956Y-88513954D01*
X88474095Y-88519821D01*
X88474094Y-88519823D01*
X88473577Y-88521452D01*
X88416628Y-88700978D01*
X88394757Y-88895963D01*
X87914587Y-88895963D01*
X87906886Y-88811341D01*
X87898423Y-88718342D01*
X87898422Y-88718339D01*
X87897864Y-88712203D01*
X87839698Y-88514572D01*
X87836555Y-88508559D01*
X87747109Y-88337467D01*
X87744252Y-88332002D01*
X87734382Y-88319725D01*
X87619028Y-88176254D01*
X87619028Y-88176253D01*
X87615163Y-88171447D01*
X87457348Y-88039024D01*
X87451950Y-88036056D01*
X87451945Y-88036053D01*
X87282213Y-87942743D01*
X87276816Y-87939776D01*
X87080446Y-87877484D01*
X87074329Y-87876798D01*
X87074325Y-87876797D01*
X86998104Y-87868248D01*
X86920114Y-87859500D01*
X85536978Y-87859500D01*
X85468857Y-87839498D01*
X85422364Y-87785842D01*
X85410978Y-87733500D01*
X85410978Y-87546500D01*
X85430980Y-87478379D01*
X85484636Y-87431886D01*
X85536978Y-87420500D01*
X86912819Y-87420500D01*
X87066008Y-87405480D01*
X87263229Y-87345935D01*
X87445129Y-87249218D01*
X87535076Y-87175859D01*
X87600003Y-87122906D01*
X87600006Y-87122903D01*
X87604778Y-87119011D01*
X87613430Y-87108553D01*
X87732167Y-86965025D01*
X87732169Y-86965021D01*
X87736096Y-86960275D01*
X87834081Y-86779055D01*
X87895001Y-86582254D01*
X87895900Y-86573705D01*
X87915891Y-86383498D01*
X87915891Y-86383496D01*
X87916535Y-86377369D01*
X87914587Y-86355963D01*
X88394757Y-86355963D01*
X88411175Y-86551483D01*
X88465258Y-86740091D01*
X88468076Y-86745574D01*
X88552123Y-86909113D01*
X88552126Y-86909117D01*
X88554944Y-86914601D01*
X88676818Y-87068369D01*
X88826238Y-87195535D01*
X88831616Y-87198541D01*
X88831618Y-87198542D01*
X88867932Y-87218837D01*
X88997513Y-87291257D01*
X89184118Y-87351889D01*
X89378946Y-87375121D01*
X89385081Y-87374649D01*
X89385083Y-87374649D01*
X89568434Y-87360541D01*
X89568438Y-87360540D01*
X89574576Y-87360068D01*
X89763556Y-87307303D01*
X89938689Y-87218837D01*
X89968515Y-87195535D01*
X90066461Y-87119011D01*
X90093303Y-87098040D01*
X90123084Y-87063539D01*
X90217485Y-86954173D01*
X90217485Y-86954172D01*
X90221509Y-86949511D01*
X90318425Y-86778909D01*
X90380358Y-86592732D01*
X90404949Y-86398071D01*
X90405238Y-86377369D01*
X90405292Y-86373523D01*
X90405292Y-86373519D01*
X90405341Y-86370000D01*
X90386194Y-86174728D01*
X90384413Y-86168829D01*
X90384412Y-86168824D01*
X90331265Y-85992793D01*
X90329484Y-85986894D01*
X90237370Y-85813653D01*
X90113361Y-85661602D01*
X89962180Y-85536535D01*
X89789585Y-85443213D01*
X89659794Y-85403036D01*
X89631027Y-85394131D01*
X96519646Y-85394131D01*
X96520810Y-85403033D01*
X96520810Y-85403036D01*
X96525738Y-85440721D01*
X96537306Y-85529186D01*
X96592162Y-85653856D01*
X96597939Y-85660729D01*
X96597940Y-85660730D01*
X96606356Y-85670742D01*
X96679804Y-85758119D01*
X96712262Y-85779725D01*
X96763232Y-85813653D01*
X96793187Y-85833593D01*
X96923195Y-85874210D01*
X97059377Y-85876706D01*
X97102542Y-85864938D01*
X97182124Y-85843242D01*
X97182127Y-85843241D01*
X97190786Y-85840880D01*
X97198436Y-85836183D01*
X97198438Y-85836182D01*
X97299206Y-85774311D01*
X97299209Y-85774308D01*
X97306858Y-85769612D01*
X97392056Y-85675487D01*
X97392233Y-85675291D01*
X97392234Y-85675290D01*
X97398261Y-85668631D01*
X97404173Y-85656430D01*
X97453734Y-85554135D01*
X97453734Y-85554134D01*
X97457649Y-85546054D01*
X97470118Y-85471941D01*
X97479441Y-85416530D01*
X97479441Y-85416525D01*
X97480247Y-85411737D01*
X97480390Y-85400000D01*
X97471013Y-85334520D01*
X97462354Y-85274057D01*
X97462353Y-85274054D01*
X97461081Y-85265171D01*
X97404706Y-85141180D01*
X97315796Y-85037996D01*
X97267204Y-85006500D01*
X97209032Y-84968794D01*
X97209030Y-84968793D01*
X97201501Y-84963913D01*
X97192904Y-84961342D01*
X97192902Y-84961341D01*
X97115973Y-84938335D01*
X97071006Y-84924887D01*
X97062030Y-84924832D01*
X97062029Y-84924832D01*
X97005036Y-84924484D01*
X96934804Y-84924055D01*
X96926172Y-84926522D01*
X96812473Y-84959017D01*
X96812471Y-84959018D01*
X96803842Y-84961484D01*
X96688650Y-85034165D01*
X96598487Y-85136255D01*
X96594673Y-85144378D01*
X96594672Y-85144380D01*
X96566865Y-85203607D01*
X96540601Y-85259548D01*
X96539221Y-85268412D01*
X96539220Y-85268415D01*
X96521038Y-85385193D01*
X96519646Y-85394131D01*
X89631027Y-85394131D01*
X89608039Y-85387015D01*
X89608036Y-85387014D01*
X89602152Y-85385193D01*
X89596027Y-85384549D01*
X89596026Y-85384549D01*
X89413147Y-85365327D01*
X89413146Y-85365327D01*
X89407019Y-85364683D01*
X89284383Y-85375844D01*
X89217759Y-85381907D01*
X89217758Y-85381907D01*
X89211618Y-85382466D01*
X89205704Y-85384207D01*
X89205702Y-85384207D01*
X89112164Y-85411737D01*
X89023393Y-85437864D01*
X89017928Y-85440721D01*
X88854972Y-85525912D01*
X88854968Y-85525915D01*
X88849512Y-85528767D01*
X88844712Y-85532627D01*
X88844711Y-85532627D01*
X88832043Y-85542812D01*
X88696600Y-85651711D01*
X88570480Y-85802016D01*
X88567516Y-85807408D01*
X88567513Y-85807412D01*
X88525328Y-85884147D01*
X88475956Y-85973954D01*
X88474095Y-85979821D01*
X88474094Y-85979823D01*
X88473577Y-85981452D01*
X88416628Y-86160978D01*
X88394757Y-86355963D01*
X87914587Y-86355963D01*
X87900712Y-86203500D01*
X87898423Y-86178342D01*
X87898422Y-86178339D01*
X87897864Y-86172203D01*
X87839698Y-85974572D01*
X87836555Y-85968559D01*
X87765995Y-85833593D01*
X87744252Y-85792002D01*
X87734382Y-85779725D01*
X87619028Y-85636254D01*
X87619028Y-85636253D01*
X87615163Y-85631447D01*
X87457348Y-85499024D01*
X87451950Y-85496056D01*
X87451945Y-85496053D01*
X87282213Y-85402743D01*
X87276816Y-85399776D01*
X87080446Y-85337484D01*
X87074329Y-85336798D01*
X87074325Y-85336797D01*
X86998104Y-85328248D01*
X86920114Y-85319500D01*
X85536978Y-85319500D01*
X85468857Y-85299498D01*
X85422364Y-85245842D01*
X85410978Y-85193500D01*
X85410978Y-85006500D01*
X85430980Y-84938379D01*
X85484636Y-84891886D01*
X85536978Y-84880500D01*
X86912819Y-84880500D01*
X87066008Y-84865480D01*
X87263229Y-84805935D01*
X87445129Y-84709218D01*
X87535076Y-84635859D01*
X87600003Y-84582906D01*
X87600006Y-84582903D01*
X87604778Y-84579011D01*
X87613430Y-84568553D01*
X87732167Y-84425025D01*
X87732169Y-84425021D01*
X87736096Y-84420275D01*
X87834081Y-84239055D01*
X87895001Y-84042254D01*
X87895900Y-84033705D01*
X87915891Y-83843498D01*
X87915891Y-83843496D01*
X87916535Y-83837369D01*
X87914587Y-83815963D01*
X88394757Y-83815963D01*
X88411175Y-84011483D01*
X88465258Y-84200091D01*
X88468076Y-84205574D01*
X88552123Y-84369113D01*
X88552126Y-84369117D01*
X88554944Y-84374601D01*
X88676818Y-84528369D01*
X88826238Y-84655535D01*
X88831616Y-84658541D01*
X88831618Y-84658542D01*
X88867932Y-84678837D01*
X88997513Y-84751257D01*
X89184118Y-84811889D01*
X89378946Y-84835121D01*
X89385081Y-84834649D01*
X89385083Y-84834649D01*
X89568434Y-84820541D01*
X89568438Y-84820540D01*
X89574576Y-84820068D01*
X89763556Y-84767303D01*
X89938689Y-84678837D01*
X89968515Y-84655535D01*
X90066461Y-84579011D01*
X90093303Y-84558040D01*
X90123084Y-84523539D01*
X90217485Y-84414173D01*
X90217485Y-84414172D01*
X90221509Y-84409511D01*
X90318425Y-84238909D01*
X90380358Y-84052732D01*
X90404949Y-83858071D01*
X90405238Y-83837369D01*
X90405292Y-83833523D01*
X90405292Y-83833519D01*
X90405341Y-83830000D01*
X90386194Y-83634728D01*
X90384413Y-83628829D01*
X90384412Y-83628824D01*
X90331265Y-83452793D01*
X90329484Y-83446894D01*
X90237370Y-83273653D01*
X90113361Y-83121602D01*
X89962180Y-82996535D01*
X89789585Y-82903213D01*
X89760246Y-82894131D01*
X96519646Y-82894131D01*
X96520810Y-82903033D01*
X96520810Y-82903036D01*
X96528476Y-82961658D01*
X96537306Y-83029186D01*
X96540923Y-83037406D01*
X96580071Y-83126376D01*
X96592162Y-83153856D01*
X96597939Y-83160729D01*
X96597940Y-83160730D01*
X96610180Y-83175291D01*
X96679804Y-83258119D01*
X96793187Y-83333593D01*
X96923195Y-83374210D01*
X97059377Y-83376706D01*
X97102542Y-83364938D01*
X97182124Y-83343242D01*
X97182127Y-83343241D01*
X97190786Y-83340880D01*
X97198436Y-83336183D01*
X97198438Y-83336182D01*
X97299206Y-83274311D01*
X97299209Y-83274308D01*
X97306858Y-83269612D01*
X97329004Y-83245146D01*
X97392233Y-83175291D01*
X97392234Y-83175290D01*
X97398261Y-83168631D01*
X97405420Y-83153856D01*
X97453734Y-83054135D01*
X97453734Y-83054134D01*
X97457649Y-83046054D01*
X97472791Y-82956053D01*
X97479441Y-82916530D01*
X97479441Y-82916525D01*
X97480247Y-82911737D01*
X97480390Y-82900000D01*
X97472400Y-82844207D01*
X97462354Y-82774057D01*
X97462353Y-82774054D01*
X97461081Y-82765171D01*
X97404706Y-82641180D01*
X97315796Y-82537996D01*
X97302494Y-82529374D01*
X97209032Y-82468794D01*
X97209030Y-82468793D01*
X97201501Y-82463913D01*
X97192904Y-82461342D01*
X97192902Y-82461341D01*
X97115973Y-82438335D01*
X97071006Y-82424887D01*
X97062030Y-82424832D01*
X97062029Y-82424832D01*
X97005036Y-82424484D01*
X96934804Y-82424055D01*
X96926172Y-82426522D01*
X96812473Y-82459017D01*
X96812471Y-82459018D01*
X96803842Y-82461484D01*
X96688650Y-82534165D01*
X96598487Y-82636255D01*
X96540601Y-82759548D01*
X96539221Y-82768412D01*
X96539220Y-82768415D01*
X96526162Y-82852284D01*
X96519646Y-82894131D01*
X89760246Y-82894131D01*
X89695868Y-82874203D01*
X89608039Y-82847015D01*
X89608036Y-82847014D01*
X89602152Y-82845193D01*
X89596027Y-82844549D01*
X89596026Y-82844549D01*
X89413147Y-82825327D01*
X89413146Y-82825327D01*
X89407019Y-82824683D01*
X89284383Y-82835844D01*
X89217759Y-82841907D01*
X89217758Y-82841907D01*
X89211618Y-82842466D01*
X89205704Y-82844207D01*
X89205702Y-82844207D01*
X89172208Y-82854065D01*
X89023393Y-82897864D01*
X89017928Y-82900721D01*
X88854972Y-82985912D01*
X88854968Y-82985915D01*
X88849512Y-82988767D01*
X88844712Y-82992627D01*
X88844711Y-82992627D01*
X88832043Y-83002812D01*
X88696600Y-83111711D01*
X88570480Y-83262016D01*
X88567516Y-83267408D01*
X88567513Y-83267412D01*
X88533865Y-83328618D01*
X88475956Y-83433954D01*
X88474095Y-83439821D01*
X88474094Y-83439823D01*
X88473577Y-83441452D01*
X88416628Y-83620978D01*
X88394757Y-83815963D01*
X87914587Y-83815963D01*
X87900712Y-83663500D01*
X87898423Y-83638342D01*
X87898422Y-83638339D01*
X87897864Y-83632203D01*
X87839698Y-83434572D01*
X87836555Y-83428559D01*
X87747109Y-83257467D01*
X87744252Y-83252002D01*
X87734382Y-83239725D01*
X87619028Y-83096254D01*
X87619028Y-83096253D01*
X87615163Y-83091447D01*
X87457348Y-82959024D01*
X87451950Y-82956056D01*
X87451945Y-82956053D01*
X87282213Y-82862743D01*
X87276816Y-82859776D01*
X87080446Y-82797484D01*
X87074329Y-82796798D01*
X87074325Y-82796797D01*
X86998104Y-82788248D01*
X86920114Y-82779500D01*
X85536978Y-82779500D01*
X85468857Y-82759498D01*
X85422364Y-82705842D01*
X85410978Y-82653500D01*
X85410978Y-81275963D01*
X88394757Y-81275963D01*
X88411175Y-81471483D01*
X88465258Y-81660091D01*
X88468076Y-81665574D01*
X88552123Y-81829113D01*
X88552126Y-81829117D01*
X88554944Y-81834601D01*
X88676818Y-81988369D01*
X88826238Y-82115535D01*
X88831616Y-82118541D01*
X88831618Y-82118542D01*
X88867932Y-82138837D01*
X88997513Y-82211257D01*
X89184118Y-82271889D01*
X89378946Y-82295121D01*
X89385081Y-82294649D01*
X89385083Y-82294649D01*
X89568434Y-82280541D01*
X89568438Y-82280540D01*
X89574576Y-82280068D01*
X89763556Y-82227303D01*
X89938689Y-82138837D01*
X89968515Y-82115535D01*
X90088453Y-82021829D01*
X90093303Y-82018040D01*
X90123084Y-81983539D01*
X90217485Y-81874173D01*
X90217485Y-81874172D01*
X90221509Y-81869511D01*
X90318425Y-81698909D01*
X90380358Y-81512732D01*
X90404949Y-81318071D01*
X90405341Y-81290000D01*
X90386194Y-81094728D01*
X90384413Y-81088829D01*
X90384412Y-81088824D01*
X90331265Y-80912793D01*
X90329484Y-80906894D01*
X90237370Y-80733653D01*
X90113361Y-80581602D01*
X89962180Y-80456535D01*
X89789585Y-80363213D01*
X89695868Y-80334203D01*
X89608039Y-80307015D01*
X89608036Y-80307014D01*
X89602152Y-80305193D01*
X89596027Y-80304549D01*
X89596026Y-80304549D01*
X89413147Y-80285327D01*
X89413146Y-80285327D01*
X89407019Y-80284683D01*
X89303204Y-80294131D01*
X89217759Y-80301907D01*
X89217758Y-80301907D01*
X89211618Y-80302466D01*
X89205704Y-80304207D01*
X89205702Y-80304207D01*
X89180118Y-80311737D01*
X89023393Y-80357864D01*
X89017928Y-80360721D01*
X88854972Y-80445912D01*
X88854968Y-80445915D01*
X88849512Y-80448767D01*
X88844712Y-80452627D01*
X88844711Y-80452627D01*
X88810326Y-80480273D01*
X88696600Y-80571711D01*
X88570480Y-80722016D01*
X88567516Y-80727408D01*
X88567513Y-80727412D01*
X88488813Y-80870567D01*
X88475956Y-80893954D01*
X88416628Y-81080978D01*
X88394757Y-81275963D01*
X85410978Y-81275963D01*
X85410978Y-79926500D01*
X85430980Y-79858379D01*
X85484636Y-79811886D01*
X85536978Y-79800500D01*
X86912819Y-79800500D01*
X87066008Y-79785480D01*
X87263229Y-79725935D01*
X87445129Y-79629218D01*
X87559202Y-79536182D01*
X87600003Y-79502906D01*
X87600006Y-79502903D01*
X87604778Y-79499011D01*
X87613430Y-79488553D01*
X87732167Y-79345025D01*
X87732169Y-79345021D01*
X87736096Y-79340275D01*
X87834081Y-79159055D01*
X87854178Y-79094131D01*
X89319646Y-79094131D01*
X89320810Y-79103033D01*
X89320810Y-79103036D01*
X89326354Y-79145428D01*
X89337306Y-79229186D01*
X89392162Y-79353856D01*
X89397939Y-79360729D01*
X89397940Y-79360730D01*
X89474024Y-79451243D01*
X89479804Y-79458119D01*
X89593187Y-79533593D01*
X89624072Y-79543242D01*
X89705338Y-79568631D01*
X89723195Y-79574210D01*
X89859377Y-79576706D01*
X89918648Y-79560547D01*
X89982124Y-79543242D01*
X89982127Y-79543241D01*
X89990786Y-79540880D01*
X89998436Y-79536183D01*
X89998438Y-79536182D01*
X90099206Y-79474311D01*
X90099209Y-79474308D01*
X90106858Y-79469612D01*
X90125282Y-79449258D01*
X90192233Y-79375291D01*
X90192234Y-79375290D01*
X90198261Y-79368631D01*
X90203579Y-79357656D01*
X90234356Y-79294131D01*
X94119646Y-79294131D01*
X94120810Y-79303033D01*
X94120810Y-79303036D01*
X94124971Y-79334854D01*
X94137306Y-79429186D01*
X94140923Y-79437406D01*
X94169744Y-79502906D01*
X94192162Y-79553856D01*
X94197939Y-79560729D01*
X94197940Y-79560730D01*
X94252235Y-79625322D01*
X94279804Y-79658119D01*
X94287281Y-79663096D01*
X94381683Y-79725935D01*
X94393187Y-79733593D01*
X94523195Y-79774210D01*
X94659377Y-79776706D01*
X94702542Y-79764938D01*
X94782124Y-79743242D01*
X94782127Y-79743241D01*
X94790786Y-79740880D01*
X94798436Y-79736183D01*
X94798438Y-79736182D01*
X94867898Y-79693534D01*
X97564858Y-79693534D01*
X97573673Y-79702149D01*
X97573674Y-79702150D01*
X98914075Y-81012078D01*
X98948814Y-81073995D01*
X98944564Y-81144864D01*
X98918344Y-81187926D01*
X98350000Y-81800000D01*
X98349780Y-87393458D01*
X99784864Y-87396562D01*
X101481906Y-87400232D01*
X101481907Y-87400232D01*
X101500020Y-87400271D01*
X101450000Y-81950000D01*
X99736850Y-80294131D01*
X100719646Y-80294131D01*
X100720810Y-80303033D01*
X100720810Y-80303036D01*
X100721948Y-80311737D01*
X100737306Y-80429186D01*
X100792162Y-80553856D01*
X100797939Y-80560729D01*
X100797940Y-80560730D01*
X100815485Y-80581602D01*
X100879804Y-80658119D01*
X100993187Y-80733593D01*
X101123195Y-80774210D01*
X101259377Y-80776706D01*
X101302542Y-80764938D01*
X101382124Y-80743242D01*
X101382127Y-80743241D01*
X101390786Y-80740880D01*
X101398436Y-80736183D01*
X101398438Y-80736182D01*
X101499206Y-80674311D01*
X101499209Y-80674308D01*
X101506858Y-80669612D01*
X101586521Y-80581602D01*
X101592233Y-80575291D01*
X101592234Y-80575290D01*
X101598261Y-80568631D01*
X101605420Y-80553856D01*
X101653734Y-80454135D01*
X101653734Y-80454134D01*
X101657649Y-80446054D01*
X101671094Y-80366143D01*
X101679441Y-80316530D01*
X101679441Y-80316525D01*
X101680247Y-80311737D01*
X101680390Y-80300000D01*
X101661081Y-80165171D01*
X101604706Y-80041180D01*
X101515796Y-79937996D01*
X101498060Y-79926500D01*
X101409032Y-79868794D01*
X101409030Y-79868793D01*
X101401501Y-79863913D01*
X101392904Y-79861342D01*
X101392902Y-79861341D01*
X101315973Y-79838335D01*
X101271006Y-79824887D01*
X101262030Y-79824832D01*
X101262029Y-79824832D01*
X101205036Y-79824484D01*
X101134804Y-79824055D01*
X101126172Y-79826522D01*
X101012473Y-79859017D01*
X101012471Y-79859018D01*
X101003842Y-79861484D01*
X100888650Y-79934165D01*
X100798487Y-80036255D01*
X100740601Y-80159548D01*
X100719646Y-80294131D01*
X99736850Y-80294131D01*
X98288357Y-78894070D01*
X98278565Y-78904891D01*
X98278564Y-78904891D01*
X98191173Y-79001458D01*
X97564858Y-79693534D01*
X94867898Y-79693534D01*
X94899206Y-79674311D01*
X94899209Y-79674308D01*
X94906858Y-79669612D01*
X94991102Y-79576541D01*
X94992233Y-79575291D01*
X94992234Y-79575290D01*
X94998261Y-79568631D01*
X95005420Y-79553856D01*
X95053734Y-79454135D01*
X95053734Y-79454134D01*
X95057649Y-79446054D01*
X95072035Y-79360547D01*
X95079441Y-79316530D01*
X95079441Y-79316525D01*
X95080247Y-79311737D01*
X95080390Y-79300000D01*
X95071426Y-79237406D01*
X95062354Y-79174057D01*
X95062353Y-79174054D01*
X95061081Y-79165171D01*
X95052105Y-79145428D01*
X95031450Y-79100000D01*
X95004706Y-79041180D01*
X94915796Y-78937996D01*
X94868178Y-78907131D01*
X94809032Y-78868794D01*
X94809030Y-78868793D01*
X94801501Y-78863913D01*
X94792904Y-78861342D01*
X94792902Y-78861341D01*
X94686521Y-78829527D01*
X94671006Y-78824887D01*
X94662030Y-78824832D01*
X94662029Y-78824832D01*
X94605036Y-78824484D01*
X94534804Y-78824055D01*
X94526172Y-78826522D01*
X94412473Y-78859017D01*
X94412471Y-78859018D01*
X94403842Y-78861484D01*
X94396252Y-78866273D01*
X94352197Y-78894070D01*
X94288650Y-78934165D01*
X94282707Y-78940894D01*
X94282706Y-78940895D01*
X94262608Y-78963652D01*
X94202523Y-79001470D01*
X94201287Y-79001458D01*
X94194271Y-79045235D01*
X94140601Y-79159548D01*
X94139221Y-79168412D01*
X94139220Y-79168415D01*
X94125874Y-79254135D01*
X94119646Y-79294131D01*
X90234356Y-79294131D01*
X90253734Y-79254135D01*
X90253734Y-79254134D01*
X90257649Y-79246054D01*
X90272286Y-79159055D01*
X90279441Y-79116530D01*
X90279441Y-79116525D01*
X90280247Y-79111737D01*
X90280390Y-79100000D01*
X90272589Y-79045526D01*
X90262354Y-78974057D01*
X90262353Y-78974054D01*
X90261081Y-78965171D01*
X90256970Y-78956128D01*
X90233673Y-78904891D01*
X90204706Y-78841180D01*
X90115796Y-78737996D01*
X90070063Y-78708353D01*
X90009032Y-78668794D01*
X90009030Y-78668793D01*
X90001501Y-78663913D01*
X89992904Y-78661342D01*
X89992902Y-78661341D01*
X89912867Y-78637406D01*
X89871006Y-78624887D01*
X89862030Y-78624832D01*
X89862029Y-78624832D01*
X89805036Y-78624484D01*
X89734804Y-78624055D01*
X89726172Y-78626522D01*
X89612473Y-78659017D01*
X89612471Y-78659018D01*
X89603842Y-78661484D01*
X89488650Y-78734165D01*
X89482707Y-78740894D01*
X89482706Y-78740895D01*
X89452329Y-78775291D01*
X89398487Y-78836255D01*
X89394673Y-78844378D01*
X89394672Y-78844380D01*
X89383210Y-78868794D01*
X89340601Y-78959548D01*
X89339221Y-78968412D01*
X89339220Y-78968415D01*
X89321825Y-79080139D01*
X89319646Y-79094131D01*
X87854178Y-79094131D01*
X87895001Y-78962254D01*
X87896139Y-78951425D01*
X87915891Y-78763498D01*
X87915891Y-78763496D01*
X87916535Y-78757369D01*
X87904403Y-78624055D01*
X87898423Y-78558342D01*
X87898422Y-78558339D01*
X87897864Y-78552203D01*
X87839698Y-78354572D01*
X87824157Y-78324844D01*
X87808100Y-78294131D01*
X88319646Y-78294131D01*
X88320810Y-78303033D01*
X88320810Y-78303036D01*
X88323662Y-78324844D01*
X88337306Y-78429186D01*
X88392162Y-78553856D01*
X88397939Y-78560729D01*
X88397940Y-78560730D01*
X88462393Y-78637406D01*
X88479804Y-78658119D01*
X88593187Y-78733593D01*
X88622116Y-78742631D01*
X88705338Y-78768631D01*
X88723195Y-78774210D01*
X88859377Y-78776706D01*
X88930305Y-78757369D01*
X88982124Y-78743242D01*
X88982127Y-78743241D01*
X88990786Y-78740880D01*
X88998436Y-78736183D01*
X88998438Y-78736182D01*
X89099206Y-78674311D01*
X89099209Y-78674308D01*
X89106858Y-78669612D01*
X89114345Y-78661341D01*
X89192233Y-78575291D01*
X89192234Y-78575290D01*
X89198261Y-78568631D01*
X89199883Y-78565283D01*
X93169146Y-78565283D01*
X93170310Y-78574185D01*
X93170310Y-78574188D01*
X93171448Y-78582889D01*
X93186806Y-78700338D01*
X93241662Y-78825008D01*
X93247439Y-78831881D01*
X93247440Y-78831882D01*
X93310298Y-78906661D01*
X93329304Y-78929271D01*
X93442687Y-79004745D01*
X93572695Y-79045362D01*
X93708877Y-79047858D01*
X93758321Y-79034378D01*
X93831624Y-79014394D01*
X93831627Y-79014393D01*
X93840286Y-79012032D01*
X93847936Y-79007335D01*
X93847938Y-79007334D01*
X93948706Y-78945463D01*
X93948709Y-78945460D01*
X93956358Y-78940764D01*
X93963285Y-78933112D01*
X93986801Y-78907131D01*
X94047344Y-78870050D01*
X94047604Y-78870056D01*
X94054775Y-78825306D01*
X94103234Y-78725287D01*
X94103234Y-78725286D01*
X94107149Y-78717206D01*
X94129747Y-78582889D01*
X94129890Y-78571152D01*
X94118860Y-78494131D01*
X96919646Y-78494131D01*
X96920810Y-78503033D01*
X96920810Y-78503036D01*
X96925349Y-78537746D01*
X96937306Y-78629186D01*
X96940923Y-78637406D01*
X96988084Y-78744587D01*
X96992162Y-78753856D01*
X96997939Y-78760729D01*
X96997940Y-78760730D01*
X97059848Y-78834378D01*
X97079804Y-78858119D01*
X97087281Y-78863096D01*
X97183370Y-78927058D01*
X97193187Y-78933593D01*
X97219002Y-78941658D01*
X97303763Y-78968139D01*
X97323195Y-78974210D01*
X97459377Y-78976706D01*
X97512387Y-78962254D01*
X97582124Y-78943242D01*
X97582127Y-78943241D01*
X97590786Y-78940880D01*
X97598436Y-78936183D01*
X97598438Y-78936182D01*
X97699206Y-78874311D01*
X97699209Y-78874308D01*
X97706858Y-78869612D01*
X97714345Y-78861341D01*
X97792233Y-78775291D01*
X97792234Y-78775290D01*
X97798261Y-78768631D01*
X97803718Y-78757369D01*
X97853734Y-78654135D01*
X97853734Y-78654134D01*
X97857649Y-78646054D01*
X97874544Y-78545636D01*
X97879441Y-78516530D01*
X97879441Y-78516525D01*
X97880247Y-78511737D01*
X97880390Y-78500000D01*
X97879550Y-78494131D01*
X97878279Y-78485259D01*
X97876204Y-78470773D01*
X97886346Y-78400508D01*
X97932867Y-78346877D01*
X98003236Y-78326933D01*
X98009179Y-78327042D01*
X98009183Y-78327042D01*
X98018158Y-78327206D01*
X98079795Y-78310402D01*
X98140905Y-78293742D01*
X98140908Y-78293741D01*
X98149567Y-78291380D01*
X98157217Y-78286683D01*
X98157219Y-78286682D01*
X98257987Y-78224811D01*
X98257990Y-78224808D01*
X98265639Y-78220112D01*
X98283368Y-78200526D01*
X98351014Y-78125791D01*
X98351015Y-78125790D01*
X98357042Y-78119131D01*
X98366984Y-78098612D01*
X98412515Y-78004635D01*
X98412515Y-78004634D01*
X98416430Y-77996554D01*
X98434689Y-77888028D01*
X98438222Y-77867030D01*
X98438222Y-77867025D01*
X98439028Y-77862237D01*
X98439171Y-77850500D01*
X98430084Y-77787047D01*
X98421135Y-77724557D01*
X98421134Y-77724554D01*
X98419862Y-77715671D01*
X98363487Y-77591680D01*
X98274577Y-77488496D01*
X98254103Y-77475225D01*
X98167813Y-77419294D01*
X98167811Y-77419293D01*
X98160282Y-77414413D01*
X98151685Y-77411842D01*
X98151683Y-77411841D01*
X98068053Y-77386831D01*
X98029787Y-77375387D01*
X98020811Y-77375332D01*
X98020810Y-77375332D01*
X97963817Y-77374984D01*
X97893585Y-77374555D01*
X97884953Y-77377022D01*
X97771254Y-77409517D01*
X97771252Y-77409518D01*
X97762623Y-77411984D01*
X97647431Y-77484665D01*
X97641488Y-77491394D01*
X97641487Y-77491395D01*
X97595697Y-77543242D01*
X97557268Y-77586755D01*
X97553454Y-77594878D01*
X97553453Y-77594880D01*
X97538917Y-77625842D01*
X97499382Y-77710048D01*
X97498002Y-77718912D01*
X97498001Y-77718915D01*
X97480146Y-77833593D01*
X97478427Y-77844631D01*
X97479591Y-77853533D01*
X97479591Y-77853536D01*
X97483295Y-77881859D01*
X97472295Y-77951998D01*
X97425120Y-78005056D01*
X97357590Y-78024194D01*
X97350291Y-78024150D01*
X97334804Y-78024055D01*
X97326172Y-78026522D01*
X97212473Y-78059017D01*
X97212471Y-78059018D01*
X97203842Y-78061484D01*
X97196252Y-78066273D01*
X97146485Y-78097674D01*
X97088650Y-78134165D01*
X97082707Y-78140894D01*
X97082706Y-78140895D01*
X97025811Y-78205317D01*
X96998487Y-78236255D01*
X96994673Y-78244378D01*
X96994672Y-78244380D01*
X96972606Y-78291380D01*
X96940601Y-78359548D01*
X96939221Y-78368412D01*
X96939220Y-78368415D01*
X96925874Y-78454135D01*
X96919646Y-78494131D01*
X94118860Y-78494131D01*
X94110581Y-78436323D01*
X94054206Y-78312332D01*
X93965296Y-78209148D01*
X93911158Y-78174057D01*
X93858532Y-78139946D01*
X93858530Y-78139945D01*
X93851001Y-78135065D01*
X93842404Y-78132494D01*
X93842402Y-78132493D01*
X93765473Y-78109487D01*
X93720506Y-78096039D01*
X93711530Y-78095984D01*
X93711529Y-78095984D01*
X93654536Y-78095636D01*
X93584304Y-78095207D01*
X93575672Y-78097674D01*
X93461973Y-78130169D01*
X93461971Y-78130170D01*
X93453342Y-78132636D01*
X93338150Y-78205317D01*
X93332207Y-78212046D01*
X93332206Y-78212047D01*
X93328759Y-78215950D01*
X93247987Y-78307407D01*
X93244173Y-78315530D01*
X93244172Y-78315532D01*
X93225843Y-78354572D01*
X93190101Y-78430700D01*
X93188721Y-78439564D01*
X93188720Y-78439567D01*
X93171183Y-78552203D01*
X93169146Y-78565283D01*
X89199883Y-78565283D01*
X89205420Y-78553856D01*
X89253734Y-78454135D01*
X89253734Y-78454134D01*
X89257649Y-78446054D01*
X89274335Y-78346877D01*
X89279441Y-78316530D01*
X89279441Y-78316525D01*
X89280247Y-78311737D01*
X89280390Y-78300000D01*
X89271261Y-78236255D01*
X89262354Y-78174057D01*
X89262353Y-78174054D01*
X89261081Y-78165171D01*
X89250044Y-78140895D01*
X89236472Y-78111047D01*
X89204706Y-78041180D01*
X89115796Y-77937996D01*
X89092370Y-77922812D01*
X89009032Y-77868794D01*
X89009030Y-77868793D01*
X89001501Y-77863913D01*
X88992904Y-77861342D01*
X88992902Y-77861341D01*
X88900117Y-77833593D01*
X88871006Y-77824887D01*
X88862030Y-77824832D01*
X88862029Y-77824832D01*
X88805036Y-77824484D01*
X88734804Y-77824055D01*
X88726172Y-77826522D01*
X88612473Y-77859017D01*
X88612471Y-77859018D01*
X88603842Y-77861484D01*
X88488650Y-77934165D01*
X88482707Y-77940894D01*
X88482706Y-77940895D01*
X88433550Y-77996554D01*
X88398487Y-78036255D01*
X88394673Y-78044378D01*
X88394672Y-78044380D01*
X88372034Y-78092597D01*
X88340601Y-78159548D01*
X88339221Y-78168412D01*
X88339220Y-78168415D01*
X88322994Y-78272631D01*
X88319646Y-78294131D01*
X87808100Y-78294131D01*
X87747109Y-78177467D01*
X87744252Y-78172002D01*
X87734382Y-78159725D01*
X87619028Y-78016254D01*
X87619028Y-78016253D01*
X87615163Y-78011447D01*
X87457348Y-77879024D01*
X87451950Y-77876056D01*
X87451945Y-77876053D01*
X87282213Y-77782743D01*
X87276816Y-77779776D01*
X87080446Y-77717484D01*
X87074329Y-77716798D01*
X87074325Y-77716797D01*
X86991454Y-77707502D01*
X86920114Y-77699500D01*
X85536978Y-77699500D01*
X85468857Y-77679498D01*
X85422364Y-77625842D01*
X85419430Y-77612354D01*
X92170645Y-77612354D01*
X92171809Y-77621256D01*
X92171809Y-77621259D01*
X92175254Y-77647602D01*
X92188305Y-77747409D01*
X92195628Y-77764052D01*
X92237414Y-77859017D01*
X92243161Y-77872079D01*
X92248938Y-77878952D01*
X92248939Y-77878953D01*
X92306167Y-77947034D01*
X92330803Y-77976342D01*
X92444186Y-78051816D01*
X92574194Y-78092433D01*
X92710376Y-78094929D01*
X92753541Y-78083161D01*
X92833123Y-78061465D01*
X92833126Y-78061464D01*
X92841785Y-78059103D01*
X92849435Y-78054406D01*
X92849437Y-78054405D01*
X92950205Y-77992534D01*
X92950208Y-77992531D01*
X92957857Y-77987835D01*
X92969755Y-77974691D01*
X93043232Y-77893514D01*
X93043233Y-77893513D01*
X93049260Y-77886854D01*
X93056419Y-77872079D01*
X93104733Y-77772358D01*
X93104733Y-77772357D01*
X93108648Y-77764277D01*
X93126895Y-77655822D01*
X93130440Y-77634753D01*
X93130440Y-77634748D01*
X93131246Y-77629960D01*
X93131389Y-77618223D01*
X93124984Y-77573500D01*
X93116255Y-77512547D01*
X93831322Y-77512547D01*
X93832486Y-77521449D01*
X93832486Y-77521452D01*
X93835703Y-77546054D01*
X93848982Y-77647602D01*
X93863017Y-77679498D01*
X93897611Y-77758119D01*
X93903838Y-77772272D01*
X93909615Y-77779145D01*
X93909616Y-77779146D01*
X93978708Y-77861341D01*
X93991480Y-77876535D01*
X93998957Y-77881512D01*
X94083812Y-77937996D01*
X94104863Y-77952009D01*
X94135748Y-77961658D01*
X94219536Y-77987835D01*
X94234871Y-77992626D01*
X94371053Y-77995122D01*
X94439938Y-77976342D01*
X94493800Y-77961658D01*
X94493803Y-77961657D01*
X94502462Y-77959296D01*
X94510112Y-77954599D01*
X94510114Y-77954598D01*
X94610882Y-77892727D01*
X94610885Y-77892724D01*
X94618534Y-77888028D01*
X94626749Y-77878953D01*
X94703909Y-77793707D01*
X94703910Y-77793706D01*
X94709937Y-77787047D01*
X94714363Y-77777913D01*
X94765410Y-77672551D01*
X94765410Y-77672550D01*
X94769325Y-77664470D01*
X94789721Y-77543242D01*
X94791117Y-77534946D01*
X94791117Y-77534941D01*
X94791923Y-77530153D01*
X94792066Y-77518416D01*
X94776824Y-77411984D01*
X94774030Y-77392473D01*
X94774029Y-77392470D01*
X94772757Y-77383587D01*
X94768676Y-77374610D01*
X94743109Y-77318379D01*
X94716382Y-77259596D01*
X94627472Y-77156412D01*
X94603972Y-77141180D01*
X94531386Y-77094131D01*
X96064479Y-77094131D01*
X96065643Y-77103033D01*
X96065643Y-77103036D01*
X96071700Y-77149354D01*
X96082139Y-77229186D01*
X96136995Y-77353856D01*
X96142772Y-77360729D01*
X96142773Y-77360730D01*
X96187898Y-77414413D01*
X96224637Y-77458119D01*
X96270272Y-77488496D01*
X96325553Y-77525294D01*
X96338020Y-77533593D01*
X96468028Y-77574210D01*
X96604210Y-77576706D01*
X96657264Y-77562242D01*
X96726957Y-77543242D01*
X96726960Y-77543241D01*
X96735619Y-77540880D01*
X96743269Y-77536183D01*
X96743271Y-77536182D01*
X96844039Y-77474311D01*
X96844042Y-77474308D01*
X96851691Y-77469612D01*
X96897237Y-77419294D01*
X96937066Y-77375291D01*
X96937067Y-77375290D01*
X96943094Y-77368631D01*
X96950253Y-77353856D01*
X96998567Y-77254135D01*
X96998567Y-77254134D01*
X97002482Y-77246054D01*
X97018208Y-77152581D01*
X97024274Y-77116530D01*
X97024274Y-77116525D01*
X97025080Y-77111737D01*
X97025223Y-77100000D01*
X97017338Y-77044938D01*
X97007187Y-76974057D01*
X97007186Y-76974054D01*
X97005914Y-76965171D01*
X96949539Y-76841180D01*
X96860629Y-76737996D01*
X96853094Y-76733112D01*
X96753865Y-76668794D01*
X96753863Y-76668793D01*
X96746334Y-76663913D01*
X96737737Y-76661342D01*
X96737735Y-76661341D01*
X96660806Y-76638335D01*
X96615839Y-76624887D01*
X96606863Y-76624832D01*
X96606862Y-76624832D01*
X96549869Y-76624484D01*
X96479637Y-76624055D01*
X96471005Y-76626522D01*
X96357306Y-76659017D01*
X96357304Y-76659018D01*
X96348675Y-76661484D01*
X96341085Y-76666273D01*
X96287164Y-76700295D01*
X96233483Y-76734165D01*
X96227540Y-76740894D01*
X96227539Y-76740895D01*
X96174832Y-76800574D01*
X96143320Y-76836255D01*
X96139506Y-76844378D01*
X96139505Y-76844380D01*
X96118907Y-76888252D01*
X96085434Y-76959548D01*
X96084054Y-76968412D01*
X96084053Y-76968415D01*
X96066317Y-77082329D01*
X96064479Y-77094131D01*
X94531386Y-77094131D01*
X94520708Y-77087210D01*
X94520706Y-77087209D01*
X94513177Y-77082329D01*
X94504580Y-77079758D01*
X94504578Y-77079757D01*
X94412027Y-77052079D01*
X94382682Y-77043303D01*
X94373706Y-77043248D01*
X94373705Y-77043248D01*
X94316712Y-77042900D01*
X94246480Y-77042471D01*
X94237848Y-77044938D01*
X94124149Y-77077433D01*
X94124147Y-77077434D01*
X94115518Y-77079900D01*
X94107928Y-77084689D01*
X94011259Y-77145683D01*
X94000326Y-77152581D01*
X93994383Y-77159310D01*
X93994382Y-77159311D01*
X93970869Y-77185935D01*
X93910163Y-77254671D01*
X93906349Y-77262794D01*
X93906348Y-77262796D01*
X93880252Y-77318379D01*
X93852277Y-77377964D01*
X93850897Y-77386828D01*
X93850896Y-77386831D01*
X93832803Y-77503036D01*
X93831322Y-77512547D01*
X93116255Y-77512547D01*
X93113353Y-77492280D01*
X93113352Y-77492277D01*
X93112080Y-77483394D01*
X93055705Y-77359403D01*
X92966795Y-77256219D01*
X92951154Y-77246081D01*
X92860031Y-77187017D01*
X92860029Y-77187016D01*
X92852500Y-77182136D01*
X92843903Y-77179565D01*
X92843901Y-77179564D01*
X92750153Y-77151528D01*
X92722005Y-77143110D01*
X92713029Y-77143055D01*
X92713028Y-77143055D01*
X92656035Y-77142707D01*
X92585803Y-77142278D01*
X92577171Y-77144745D01*
X92463472Y-77177240D01*
X92463470Y-77177241D01*
X92454841Y-77179707D01*
X92447251Y-77184496D01*
X92347677Y-77247323D01*
X92339649Y-77252388D01*
X92333706Y-77259117D01*
X92333705Y-77259118D01*
X92314686Y-77280653D01*
X92249486Y-77354478D01*
X92245672Y-77362601D01*
X92245671Y-77362603D01*
X92234296Y-77386831D01*
X92191600Y-77477771D01*
X92190220Y-77486635D01*
X92190219Y-77486638D01*
X92173366Y-77594880D01*
X92170645Y-77612354D01*
X85419430Y-77612354D01*
X85410978Y-77573500D01*
X85410978Y-77386500D01*
X85430980Y-77318379D01*
X85484636Y-77271886D01*
X85536978Y-77260500D01*
X86912819Y-77260500D01*
X87066008Y-77245480D01*
X87263229Y-77185935D01*
X87445129Y-77089218D01*
X87541660Y-77010489D01*
X87600003Y-76962906D01*
X87600006Y-76962903D01*
X87604778Y-76959011D01*
X87617491Y-76943644D01*
X87732167Y-76805025D01*
X87732169Y-76805021D01*
X87735849Y-76800574D01*
X91244997Y-76800574D01*
X91246161Y-76809476D01*
X91246161Y-76809479D01*
X91253827Y-76868102D01*
X91262657Y-76935629D01*
X91274659Y-76962906D01*
X91310035Y-77043303D01*
X91317513Y-77060299D01*
X91323290Y-77067172D01*
X91323291Y-77067173D01*
X91391057Y-77147790D01*
X91405155Y-77164562D01*
X91437263Y-77185935D01*
X91502751Y-77229527D01*
X91518538Y-77240036D01*
X91648546Y-77280653D01*
X91784728Y-77283149D01*
X91850671Y-77265171D01*
X91907475Y-77249685D01*
X91907478Y-77249684D01*
X91916137Y-77247323D01*
X91923787Y-77242626D01*
X91923789Y-77242625D01*
X92024557Y-77180754D01*
X92024560Y-77180751D01*
X92032209Y-77176055D01*
X92056378Y-77149354D01*
X92117584Y-77081734D01*
X92117585Y-77081733D01*
X92123612Y-77075074D01*
X92127878Y-77066270D01*
X92179085Y-76960578D01*
X92179085Y-76960577D01*
X92183000Y-76952497D01*
X92201584Y-76842038D01*
X92204792Y-76822973D01*
X92204792Y-76822968D01*
X92205598Y-76818180D01*
X92205741Y-76806443D01*
X92191717Y-76708515D01*
X92187705Y-76680500D01*
X92187704Y-76680497D01*
X92186432Y-76671614D01*
X92178619Y-76654429D01*
X92178141Y-76653377D01*
X92926150Y-76653377D01*
X92927314Y-76662279D01*
X92927314Y-76662282D01*
X92930595Y-76687369D01*
X92943810Y-76788432D01*
X92998666Y-76913102D01*
X93004443Y-76919975D01*
X93004444Y-76919976D01*
X93077563Y-77006962D01*
X93086308Y-77017365D01*
X93138458Y-77052079D01*
X93161134Y-77067173D01*
X93199691Y-77092839D01*
X93329699Y-77133456D01*
X93465881Y-77135952D01*
X93509046Y-77124184D01*
X93588628Y-77102488D01*
X93588631Y-77102487D01*
X93597290Y-77100126D01*
X93604940Y-77095429D01*
X93604942Y-77095428D01*
X93705710Y-77033557D01*
X93705713Y-77033554D01*
X93713362Y-77028858D01*
X93733182Y-77006962D01*
X93798737Y-76934537D01*
X93798738Y-76934536D01*
X93804765Y-76927877D01*
X93811924Y-76913102D01*
X93860238Y-76813381D01*
X93860238Y-76813380D01*
X93864153Y-76805300D01*
X93879311Y-76715206D01*
X93885945Y-76675776D01*
X93885945Y-76675771D01*
X93886751Y-76670983D01*
X93886894Y-76659246D01*
X93879187Y-76605428D01*
X93868858Y-76533303D01*
X93868857Y-76533300D01*
X93867585Y-76524417D01*
X93857726Y-76502732D01*
X93841436Y-76466906D01*
X93833199Y-76448790D01*
X98649129Y-76448790D01*
X98650293Y-76457692D01*
X98650293Y-76457695D01*
X98657221Y-76510671D01*
X98666789Y-76583845D01*
X98670406Y-76592065D01*
X98716074Y-76695853D01*
X98721645Y-76708515D01*
X98727422Y-76715388D01*
X98727423Y-76715389D01*
X98742321Y-76733112D01*
X98809287Y-76812778D01*
X98816764Y-76817755D01*
X98922670Y-76888252D01*
X98921019Y-76890732D01*
X98962734Y-76928115D01*
X98981596Y-76996560D01*
X98960460Y-77064338D01*
X98950056Y-77077864D01*
X98930506Y-77100000D01*
X98898487Y-77136255D01*
X98894673Y-77144378D01*
X98894672Y-77144380D01*
X98878153Y-77179564D01*
X98840601Y-77259548D01*
X98839221Y-77268412D01*
X98839220Y-77268415D01*
X98821288Y-77383587D01*
X98819646Y-77394131D01*
X98820810Y-77403033D01*
X98820810Y-77403036D01*
X98822936Y-77419294D01*
X98837306Y-77529186D01*
X98843491Y-77543242D01*
X98881648Y-77629960D01*
X98892162Y-77653856D01*
X98897939Y-77660729D01*
X98897940Y-77660730D01*
X98907877Y-77672551D01*
X98979804Y-77758119D01*
X98987281Y-77763096D01*
X99083974Y-77827460D01*
X99093187Y-77833593D01*
X99124072Y-77843242D01*
X99182004Y-77861341D01*
X99223195Y-77874210D01*
X99359377Y-77876706D01*
X99402542Y-77864938D01*
X99482124Y-77843242D01*
X99482127Y-77843241D01*
X99490786Y-77840880D01*
X99498436Y-77836183D01*
X99498438Y-77836182D01*
X99599206Y-77774311D01*
X99599209Y-77774308D01*
X99606858Y-77769612D01*
X99619701Y-77755424D01*
X99692233Y-77675291D01*
X99692234Y-77675290D01*
X99698261Y-77668631D01*
X99704567Y-77655617D01*
X99753734Y-77554135D01*
X99753734Y-77554134D01*
X99757649Y-77546054D01*
X99772444Y-77458119D01*
X99779441Y-77416530D01*
X99779441Y-77416525D01*
X99780247Y-77411737D01*
X99780390Y-77400000D01*
X99772907Y-77347750D01*
X99762354Y-77274057D01*
X99762353Y-77274054D01*
X99761081Y-77265171D01*
X99750781Y-77242516D01*
X99740671Y-77220281D01*
X99704706Y-77141180D01*
X99615796Y-77037996D01*
X99608262Y-77033113D01*
X99608259Y-77033110D01*
X99505008Y-76966186D01*
X99458724Y-76912350D01*
X99448893Y-76842038D01*
X99480123Y-76775901D01*
X99527744Y-76723290D01*
X99534903Y-76708515D01*
X99583217Y-76608794D01*
X99583217Y-76608793D01*
X99587132Y-76600713D01*
X99603617Y-76502732D01*
X99608924Y-76471189D01*
X99608924Y-76471184D01*
X99609730Y-76466396D01*
X99609873Y-76454659D01*
X99602106Y-76400426D01*
X99591837Y-76328716D01*
X99591836Y-76328713D01*
X99590564Y-76319830D01*
X99534189Y-76195839D01*
X99445279Y-76092655D01*
X99369443Y-76043500D01*
X99338515Y-76023453D01*
X99338513Y-76023452D01*
X99333429Y-76020157D01*
X100290348Y-76020157D01*
X100291512Y-76029059D01*
X100291512Y-76029062D01*
X100299178Y-76087684D01*
X100308008Y-76155212D01*
X100362864Y-76279882D01*
X100368641Y-76286755D01*
X100368642Y-76286756D01*
X100434800Y-76365460D01*
X100450506Y-76384145D01*
X100479772Y-76403626D01*
X100545440Y-76447338D01*
X100563889Y-76459619D01*
X100693897Y-76500236D01*
X100830079Y-76502732D01*
X100873244Y-76490964D01*
X100952826Y-76469268D01*
X100952829Y-76469267D01*
X100961488Y-76466906D01*
X100969138Y-76462209D01*
X100969140Y-76462208D01*
X101069908Y-76400337D01*
X101069911Y-76400334D01*
X101077560Y-76395638D01*
X101085327Y-76387058D01*
X101162935Y-76301317D01*
X101162936Y-76301316D01*
X101168963Y-76294657D01*
X101176122Y-76279882D01*
X101224436Y-76180161D01*
X101224436Y-76180160D01*
X101228351Y-76172080D01*
X101242358Y-76088824D01*
X101250143Y-76042556D01*
X101250143Y-76042551D01*
X101250949Y-76037763D01*
X101251092Y-76026026D01*
X101243288Y-75971533D01*
X101233056Y-75900083D01*
X101233055Y-75900080D01*
X101231783Y-75891197D01*
X101224106Y-75874311D01*
X101196944Y-75814572D01*
X101175408Y-75767206D01*
X101086498Y-75664022D01*
X101045119Y-75637201D01*
X100979734Y-75594820D01*
X100979732Y-75594819D01*
X100972203Y-75589939D01*
X100963606Y-75587368D01*
X100963604Y-75587367D01*
X100865803Y-75558119D01*
X100841708Y-75550913D01*
X100832732Y-75550858D01*
X100832731Y-75550858D01*
X100775738Y-75550510D01*
X100705506Y-75550081D01*
X100696874Y-75552548D01*
X100583175Y-75585043D01*
X100583173Y-75585044D01*
X100574544Y-75587510D01*
X100566954Y-75592299D01*
X100470976Y-75652857D01*
X100459352Y-75660191D01*
X100453409Y-75666920D01*
X100453408Y-75666921D01*
X100402868Y-75724147D01*
X100369189Y-75762281D01*
X100365375Y-75770404D01*
X100365374Y-75770406D01*
X100362416Y-75776706D01*
X100311303Y-75885574D01*
X100309923Y-75894438D01*
X100309922Y-75894441D01*
X100292416Y-76006878D01*
X100290348Y-76020157D01*
X99333429Y-76020157D01*
X99330984Y-76018572D01*
X99322387Y-76016001D01*
X99322385Y-76016000D01*
X99219585Y-75985257D01*
X99200489Y-75979546D01*
X99191513Y-75979491D01*
X99191512Y-75979491D01*
X99134519Y-75979143D01*
X99064287Y-75978714D01*
X99055655Y-75981181D01*
X98941956Y-76013676D01*
X98941954Y-76013677D01*
X98933325Y-76016143D01*
X98818133Y-76088824D01*
X98727970Y-76190914D01*
X98724156Y-76199037D01*
X98724155Y-76199039D01*
X98713971Y-76220730D01*
X98670084Y-76314207D01*
X98668704Y-76323071D01*
X98668703Y-76323074D01*
X98652270Y-76428618D01*
X98649129Y-76448790D01*
X93833199Y-76448790D01*
X93811210Y-76400426D01*
X93722300Y-76297242D01*
X93678159Y-76268631D01*
X93615536Y-76228040D01*
X93615534Y-76228039D01*
X93608005Y-76223159D01*
X93599408Y-76220588D01*
X93599406Y-76220587D01*
X93493908Y-76189037D01*
X93477510Y-76184133D01*
X93468534Y-76184078D01*
X93468533Y-76184078D01*
X93411540Y-76183730D01*
X93341308Y-76183301D01*
X93332676Y-76185768D01*
X93218977Y-76218263D01*
X93218975Y-76218264D01*
X93210346Y-76220730D01*
X93202756Y-76225519D01*
X93105992Y-76286573D01*
X93095154Y-76293411D01*
X93089211Y-76300140D01*
X93089210Y-76300141D01*
X93044078Y-76351243D01*
X93004991Y-76395501D01*
X93001177Y-76403624D01*
X93001176Y-76403626D01*
X92979972Y-76448790D01*
X92947105Y-76518794D01*
X92945725Y-76527658D01*
X92945724Y-76527661D01*
X92930595Y-76624832D01*
X92926150Y-76653377D01*
X92178141Y-76653377D01*
X92158824Y-76610893D01*
X92130057Y-76547623D01*
X92041147Y-76444439D01*
X92024414Y-76433593D01*
X91934383Y-76375237D01*
X91934381Y-76375236D01*
X91926852Y-76370356D01*
X91918255Y-76367785D01*
X91918253Y-76367784D01*
X91841324Y-76344778D01*
X91796357Y-76331330D01*
X91787381Y-76331275D01*
X91787380Y-76331275D01*
X91730387Y-76330927D01*
X91660155Y-76330498D01*
X91651523Y-76332965D01*
X91537824Y-76365460D01*
X91537822Y-76365461D01*
X91529193Y-76367927D01*
X91521603Y-76372716D01*
X91456640Y-76413705D01*
X91414001Y-76440608D01*
X91408058Y-76447337D01*
X91408057Y-76447338D01*
X91359135Y-76502732D01*
X91323838Y-76542698D01*
X91320024Y-76550821D01*
X91320023Y-76550823D01*
X91300756Y-76591860D01*
X91265952Y-76665991D01*
X91264572Y-76674855D01*
X91264571Y-76674858D01*
X91246888Y-76788432D01*
X91244997Y-76800574D01*
X87735849Y-76800574D01*
X87736096Y-76800275D01*
X87834081Y-76619055D01*
X87895001Y-76422254D01*
X87896436Y-76408600D01*
X87915891Y-76223498D01*
X87915891Y-76223496D01*
X87916535Y-76217369D01*
X87907700Y-76120281D01*
X87898423Y-76018342D01*
X87898422Y-76018339D01*
X87897864Y-76012203D01*
X87895166Y-76003036D01*
X87895010Y-76002504D01*
X87895009Y-76000442D01*
X87894969Y-76000233D01*
X87895009Y-76000225D01*
X87894968Y-75931507D01*
X87933316Y-75871758D01*
X87997879Y-75842226D01*
X88068159Y-75852288D01*
X88085701Y-75862044D01*
X88193187Y-75933593D01*
X88323195Y-75974210D01*
X88459377Y-75976706D01*
X88502542Y-75964938D01*
X88582124Y-75943242D01*
X88582127Y-75943241D01*
X88590786Y-75940880D01*
X88598436Y-75936183D01*
X88598438Y-75936182D01*
X88699206Y-75874311D01*
X88699209Y-75874308D01*
X88706858Y-75869612D01*
X88713707Y-75862046D01*
X88792233Y-75775291D01*
X88792234Y-75775290D01*
X88798261Y-75768631D01*
X88804598Y-75755553D01*
X88853734Y-75654135D01*
X88853734Y-75654134D01*
X88857649Y-75646054D01*
X88871877Y-75561484D01*
X88879441Y-75516530D01*
X88879441Y-75516525D01*
X88880247Y-75511737D01*
X88880390Y-75500000D01*
X88872664Y-75446054D01*
X88862354Y-75374057D01*
X88862353Y-75374054D01*
X88861081Y-75365171D01*
X88850997Y-75342991D01*
X88831450Y-75300000D01*
X88828782Y-75294131D01*
X89519646Y-75294131D01*
X89520810Y-75303033D01*
X89520810Y-75303036D01*
X89527138Y-75351425D01*
X89537306Y-75429186D01*
X89540923Y-75437406D01*
X89580548Y-75527460D01*
X89592162Y-75553856D01*
X89597939Y-75560729D01*
X89597940Y-75560730D01*
X89668607Y-75644799D01*
X89679804Y-75658119D01*
X89793187Y-75733593D01*
X89817472Y-75741180D01*
X89905338Y-75768631D01*
X89923195Y-75774210D01*
X90008819Y-75775779D01*
X90076561Y-75797026D01*
X90122063Y-75851524D01*
X90131010Y-75921142D01*
X90121027Y-75985257D01*
X90121027Y-75985262D01*
X90119646Y-75994131D01*
X90120810Y-76003033D01*
X90120810Y-76003036D01*
X90128476Y-76061659D01*
X90137306Y-76129186D01*
X90161117Y-76183301D01*
X90169623Y-76202631D01*
X90192162Y-76253856D01*
X90197939Y-76260729D01*
X90197940Y-76260730D01*
X90258660Y-76332965D01*
X90279804Y-76358119D01*
X90301733Y-76372716D01*
X90384994Y-76428139D01*
X90393187Y-76433593D01*
X90441830Y-76448790D01*
X90507377Y-76469268D01*
X90523195Y-76474210D01*
X90659377Y-76476706D01*
X90712233Y-76462296D01*
X90782124Y-76443242D01*
X90782127Y-76443241D01*
X90790786Y-76440880D01*
X90798436Y-76436183D01*
X90798438Y-76436182D01*
X90899206Y-76374311D01*
X90899209Y-76374308D01*
X90906858Y-76369612D01*
X90942213Y-76330553D01*
X90992233Y-76275291D01*
X90992234Y-76275290D01*
X90998261Y-76268631D01*
X91005420Y-76253856D01*
X91053734Y-76154135D01*
X91053734Y-76154134D01*
X91057649Y-76146054D01*
X91075062Y-76042556D01*
X91079441Y-76016530D01*
X91079441Y-76016525D01*
X91080247Y-76011737D01*
X91080390Y-76000000D01*
X91065273Y-75894441D01*
X91062354Y-75874057D01*
X91062353Y-75874054D01*
X91061081Y-75865171D01*
X91057367Y-75857003D01*
X91054846Y-75848381D01*
X91056833Y-75847800D01*
X91048505Y-75789188D01*
X91078105Y-75724656D01*
X91137895Y-75686371D01*
X91208891Y-75686489D01*
X91269644Y-75726251D01*
X91295592Y-75757120D01*
X91408975Y-75832594D01*
X91469567Y-75851524D01*
X91529019Y-75870098D01*
X91538983Y-75873211D01*
X91675165Y-75875707D01*
X91734436Y-75859548D01*
X91797912Y-75842243D01*
X91797915Y-75842242D01*
X91806574Y-75839881D01*
X91814224Y-75835184D01*
X91814226Y-75835183D01*
X91914994Y-75773312D01*
X91914997Y-75773309D01*
X91922646Y-75768613D01*
X91930077Y-75760404D01*
X92008021Y-75674292D01*
X92008022Y-75674291D01*
X92014049Y-75667632D01*
X92018165Y-75659138D01*
X92069522Y-75553136D01*
X92069522Y-75553135D01*
X92073437Y-75545055D01*
X92090164Y-75445636D01*
X92095229Y-75415531D01*
X92095229Y-75415526D01*
X92096035Y-75410738D01*
X92096178Y-75399001D01*
X92085994Y-75327889D01*
X92078142Y-75273058D01*
X92078141Y-75273055D01*
X92076869Y-75264172D01*
X92062371Y-75232284D01*
X92050819Y-75206878D01*
X92045023Y-75194131D01*
X92519646Y-75194131D01*
X92520810Y-75203033D01*
X92520810Y-75203036D01*
X92526217Y-75244380D01*
X92537306Y-75329186D01*
X92592162Y-75453856D01*
X92597939Y-75460729D01*
X92597940Y-75460730D01*
X92673747Y-75550913D01*
X92679804Y-75558119D01*
X92724899Y-75588137D01*
X92765218Y-75614975D01*
X92793187Y-75633593D01*
X92833073Y-75646054D01*
X92878323Y-75660191D01*
X92923195Y-75674210D01*
X93059377Y-75676706D01*
X93119954Y-75660191D01*
X93182124Y-75643242D01*
X93182127Y-75643241D01*
X93190786Y-75640880D01*
X93198436Y-75636183D01*
X93198438Y-75636182D01*
X93299206Y-75574311D01*
X93299209Y-75574308D01*
X93306858Y-75569612D01*
X93314345Y-75561341D01*
X93392233Y-75475291D01*
X93392234Y-75475290D01*
X93398261Y-75468631D01*
X93405420Y-75453856D01*
X93453734Y-75354135D01*
X93453734Y-75354134D01*
X93457649Y-75346054D01*
X93473449Y-75252145D01*
X93479441Y-75216530D01*
X93479441Y-75216525D01*
X93480247Y-75211737D01*
X93480390Y-75200000D01*
X93472959Y-75148114D01*
X93462354Y-75074057D01*
X93462353Y-75074054D01*
X93461081Y-75065171D01*
X93453890Y-75049354D01*
X93417814Y-74970010D01*
X93404706Y-74941180D01*
X93315796Y-74837996D01*
X93298094Y-74826522D01*
X93209032Y-74768794D01*
X93209030Y-74768793D01*
X93201501Y-74763913D01*
X93192904Y-74761342D01*
X93192902Y-74761341D01*
X93094409Y-74731886D01*
X93071006Y-74724887D01*
X93062030Y-74724832D01*
X93062029Y-74724832D01*
X93005036Y-74724484D01*
X92934804Y-74724055D01*
X92926172Y-74726522D01*
X92812473Y-74759017D01*
X92812471Y-74759018D01*
X92803842Y-74761484D01*
X92796252Y-74766273D01*
X92703355Y-74824887D01*
X92688650Y-74834165D01*
X92682707Y-74840894D01*
X92682706Y-74840895D01*
X92651225Y-74876541D01*
X92598487Y-74936255D01*
X92594673Y-74944378D01*
X92594672Y-74944380D01*
X92582639Y-74970010D01*
X92540601Y-75059548D01*
X92539221Y-75068412D01*
X92539220Y-75068415D01*
X92522772Y-75174057D01*
X92519646Y-75194131D01*
X92045023Y-75194131D01*
X92020494Y-75140181D01*
X91931584Y-75036997D01*
X91911617Y-75024055D01*
X91863893Y-74993121D01*
X91817609Y-74939284D01*
X91807779Y-74868971D01*
X91837524Y-74804506D01*
X91899284Y-74765826D01*
X91927554Y-74758119D01*
X91982124Y-74743242D01*
X91982127Y-74743241D01*
X91990786Y-74740880D01*
X91998436Y-74736183D01*
X91998438Y-74736182D01*
X92099206Y-74674311D01*
X92099209Y-74674308D01*
X92106858Y-74669612D01*
X92115064Y-74660547D01*
X92192233Y-74575291D01*
X92192234Y-74575290D01*
X92198261Y-74568631D01*
X92205285Y-74554135D01*
X92253734Y-74454135D01*
X92253734Y-74454134D01*
X92257649Y-74446054D01*
X92266385Y-74394131D01*
X97019646Y-74394131D01*
X97020810Y-74403033D01*
X97020810Y-74403036D01*
X97026819Y-74448987D01*
X97037306Y-74529186D01*
X97040923Y-74537406D01*
X97086984Y-74642087D01*
X97092162Y-74653856D01*
X97097939Y-74660729D01*
X97097940Y-74660730D01*
X97174024Y-74751243D01*
X97179804Y-74758119D01*
X97187281Y-74763096D01*
X97283974Y-74827460D01*
X97293187Y-74833593D01*
X97324072Y-74843242D01*
X97382004Y-74861341D01*
X97423195Y-74874210D01*
X97559377Y-74876706D01*
X97602542Y-74864938D01*
X97682124Y-74843242D01*
X97682127Y-74843241D01*
X97690786Y-74840880D01*
X97698436Y-74836183D01*
X97698438Y-74836182D01*
X97741070Y-74810006D01*
X99564606Y-74810006D01*
X99565770Y-74818908D01*
X99565770Y-74818911D01*
X99572293Y-74868794D01*
X99582266Y-74945061D01*
X99637122Y-75069731D01*
X99642899Y-75076604D01*
X99642900Y-75076605D01*
X99718984Y-75167118D01*
X99724764Y-75173994D01*
X99732241Y-75178971D01*
X99815478Y-75234378D01*
X99838147Y-75249468D01*
X99867214Y-75258549D01*
X99952708Y-75285259D01*
X99968155Y-75290085D01*
X100104337Y-75292581D01*
X100147502Y-75280813D01*
X100227084Y-75259117D01*
X100227087Y-75259116D01*
X100235746Y-75256755D01*
X100243396Y-75252058D01*
X100243398Y-75252057D01*
X100344166Y-75190186D01*
X100344169Y-75190183D01*
X100351818Y-75185487D01*
X100374985Y-75159893D01*
X100437193Y-75091166D01*
X100437194Y-75091165D01*
X100443221Y-75084506D01*
X100448284Y-75074057D01*
X100498694Y-74970010D01*
X100498694Y-74970009D01*
X100502609Y-74961929D01*
X100518249Y-74868971D01*
X100524401Y-74832405D01*
X100524401Y-74832400D01*
X100525207Y-74827612D01*
X100525350Y-74815875D01*
X100518725Y-74769612D01*
X100507314Y-74689932D01*
X100507313Y-74689929D01*
X100506041Y-74681046D01*
X100492491Y-74651243D01*
X100453382Y-74565229D01*
X100449666Y-74557055D01*
X100360756Y-74453871D01*
X100322672Y-74429186D01*
X100253992Y-74384669D01*
X100253990Y-74384668D01*
X100246461Y-74379788D01*
X100237864Y-74377217D01*
X100237862Y-74377216D01*
X100160933Y-74354210D01*
X100115966Y-74340762D01*
X100106990Y-74340707D01*
X100106989Y-74340707D01*
X100049996Y-74340359D01*
X99979764Y-74339930D01*
X99971132Y-74342397D01*
X99857433Y-74374892D01*
X99857431Y-74374893D01*
X99848802Y-74377359D01*
X99841212Y-74382148D01*
X99753634Y-74437406D01*
X99733610Y-74450040D01*
X99727667Y-74456769D01*
X99727666Y-74456770D01*
X99691970Y-74497188D01*
X99643447Y-74552130D01*
X99585561Y-74675423D01*
X99584181Y-74684287D01*
X99584180Y-74684290D01*
X99567074Y-74794158D01*
X99564606Y-74810006D01*
X97741070Y-74810006D01*
X97799206Y-74774311D01*
X97799209Y-74774308D01*
X97806858Y-74769612D01*
X97814345Y-74761341D01*
X97892233Y-74675291D01*
X97892234Y-74675290D01*
X97898261Y-74668631D01*
X97905420Y-74653856D01*
X97953734Y-74554135D01*
X97953734Y-74554134D01*
X97957649Y-74546054D01*
X97972014Y-74460673D01*
X97979441Y-74416530D01*
X97979441Y-74416525D01*
X97980247Y-74411737D01*
X97980390Y-74400000D01*
X97961081Y-74265171D01*
X97904706Y-74141180D01*
X97815796Y-74037996D01*
X97772453Y-74009902D01*
X97709032Y-73968794D01*
X97709030Y-73968793D01*
X97701501Y-73963913D01*
X97692904Y-73961342D01*
X97692902Y-73961341D01*
X97602030Y-73934165D01*
X97571006Y-73924887D01*
X97562030Y-73924832D01*
X97562029Y-73924832D01*
X97505036Y-73924484D01*
X97434804Y-73924055D01*
X97426172Y-73926522D01*
X97312473Y-73959017D01*
X97312471Y-73959018D01*
X97303842Y-73961484D01*
X97188650Y-74034165D01*
X97182707Y-74040894D01*
X97182706Y-74040895D01*
X97110326Y-74122849D01*
X97098487Y-74136255D01*
X97094673Y-74144378D01*
X97094672Y-74144380D01*
X97088746Y-74157002D01*
X97040601Y-74259548D01*
X97039221Y-74268412D01*
X97039220Y-74268415D01*
X97021512Y-74382148D01*
X97019646Y-74394131D01*
X92266385Y-74394131D01*
X92275373Y-74340707D01*
X92279441Y-74316530D01*
X92279441Y-74316525D01*
X92280247Y-74311737D01*
X92280390Y-74300000D01*
X92261081Y-74165171D01*
X92256845Y-74155853D01*
X92224390Y-74084474D01*
X92204706Y-74041180D01*
X92115796Y-73937996D01*
X92098094Y-73926522D01*
X92009032Y-73868794D01*
X92009030Y-73868793D01*
X92001501Y-73863913D01*
X91992904Y-73861342D01*
X91992902Y-73861341D01*
X91915973Y-73838335D01*
X91871006Y-73824887D01*
X91862030Y-73824832D01*
X91862029Y-73824832D01*
X91805036Y-73824484D01*
X91734804Y-73824055D01*
X91726172Y-73826522D01*
X91612473Y-73859017D01*
X91612471Y-73859018D01*
X91603842Y-73861484D01*
X91596252Y-73866273D01*
X91503355Y-73924887D01*
X91488650Y-73934165D01*
X91482707Y-73940894D01*
X91482706Y-73940895D01*
X91430384Y-74000139D01*
X91398487Y-74036255D01*
X91340601Y-74159548D01*
X91339221Y-74168412D01*
X91339220Y-74168415D01*
X91322772Y-74274056D01*
X91319646Y-74294131D01*
X91320810Y-74303033D01*
X91320810Y-74303036D01*
X91325957Y-74342397D01*
X91337306Y-74429186D01*
X91392162Y-74553856D01*
X91397939Y-74560729D01*
X91397940Y-74560730D01*
X91410180Y-74575291D01*
X91479804Y-74658119D01*
X91550954Y-74705480D01*
X91552525Y-74706526D01*
X91598148Y-74760923D01*
X91607119Y-74831350D01*
X91576590Y-74895448D01*
X91517331Y-74932562D01*
X91428261Y-74958018D01*
X91428259Y-74958019D01*
X91419630Y-74960485D01*
X91412040Y-74965274D01*
X91317647Y-75024832D01*
X91304438Y-75033166D01*
X91298495Y-75039895D01*
X91298494Y-75039896D01*
X91266074Y-75076605D01*
X91214275Y-75135256D01*
X91210461Y-75143379D01*
X91210460Y-75143381D01*
X91188485Y-75190186D01*
X91156389Y-75258549D01*
X91155009Y-75267413D01*
X91155008Y-75267416D01*
X91137041Y-75382812D01*
X91135434Y-75393132D01*
X91136598Y-75402034D01*
X91136598Y-75402037D01*
X91142354Y-75446054D01*
X91153094Y-75528187D01*
X91159917Y-75543694D01*
X91169045Y-75614099D01*
X91138659Y-75678264D01*
X91078406Y-75715816D01*
X91007416Y-75714831D01*
X90949136Y-75676688D01*
X90921658Y-75644799D01*
X90915796Y-75637996D01*
X90908261Y-75633112D01*
X90809032Y-75568794D01*
X90809030Y-75568793D01*
X90801501Y-75563913D01*
X90792904Y-75561342D01*
X90792902Y-75561341D01*
X90715973Y-75538335D01*
X90671006Y-75524887D01*
X90662030Y-75524832D01*
X90662029Y-75524832D01*
X90592666Y-75524408D01*
X90524668Y-75503989D01*
X90478504Y-75450051D01*
X90469182Y-75377505D01*
X90479441Y-75316530D01*
X90479441Y-75316525D01*
X90480247Y-75311737D01*
X90480390Y-75300000D01*
X90473524Y-75252057D01*
X90462354Y-75174057D01*
X90462353Y-75174054D01*
X90461081Y-75165171D01*
X90450044Y-75140895D01*
X90424405Y-75084506D01*
X90404706Y-75041180D01*
X90315796Y-74937996D01*
X90250153Y-74895448D01*
X90209032Y-74868794D01*
X90209030Y-74868793D01*
X90201501Y-74863913D01*
X90192904Y-74861342D01*
X90192902Y-74861341D01*
X90100117Y-74833593D01*
X90071006Y-74824887D01*
X90062030Y-74824832D01*
X90062029Y-74824832D01*
X90005036Y-74824484D01*
X89934804Y-74824055D01*
X89926172Y-74826522D01*
X89812473Y-74859017D01*
X89812471Y-74859018D01*
X89803842Y-74861484D01*
X89796252Y-74866273D01*
X89706257Y-74923056D01*
X89688650Y-74934165D01*
X89682707Y-74940894D01*
X89682706Y-74940895D01*
X89663260Y-74962914D01*
X89598487Y-75036255D01*
X89594673Y-75044378D01*
X89594672Y-75044380D01*
X89579543Y-75076605D01*
X89540601Y-75159548D01*
X89539221Y-75168412D01*
X89539220Y-75168415D01*
X89523806Y-75267416D01*
X89519646Y-75294131D01*
X88828782Y-75294131D01*
X88804706Y-75241180D01*
X88715796Y-75137996D01*
X88633272Y-75084506D01*
X88609032Y-75068794D01*
X88609030Y-75068793D01*
X88601501Y-75063913D01*
X88592904Y-75061342D01*
X88592902Y-75061341D01*
X88482669Y-75028375D01*
X88471006Y-75024887D01*
X88462030Y-75024832D01*
X88462029Y-75024832D01*
X88405036Y-75024484D01*
X88334804Y-75024055D01*
X88326172Y-75026522D01*
X88212473Y-75059017D01*
X88212471Y-75059018D01*
X88203842Y-75061484D01*
X88088650Y-75134165D01*
X88082707Y-75140894D01*
X88082706Y-75140895D01*
X88043525Y-75185259D01*
X87998487Y-75236255D01*
X87994673Y-75244378D01*
X87994672Y-75244380D01*
X87989215Y-75256003D01*
X87940601Y-75359548D01*
X87939221Y-75368412D01*
X87939220Y-75368415D01*
X87921027Y-75485258D01*
X87921027Y-75485262D01*
X87919646Y-75494131D01*
X87920144Y-75497937D01*
X87900071Y-75563335D01*
X87845852Y-75609170D01*
X87775460Y-75618415D01*
X87711244Y-75588137D01*
X87696715Y-75572878D01*
X87693432Y-75568794D01*
X87615163Y-75471447D01*
X87457348Y-75339024D01*
X87451950Y-75336056D01*
X87451945Y-75336053D01*
X87282213Y-75242743D01*
X87276816Y-75239776D01*
X87080446Y-75177484D01*
X87074329Y-75176798D01*
X87074325Y-75176797D01*
X86988030Y-75167118D01*
X86920114Y-75159500D01*
X85536978Y-75159500D01*
X85468857Y-75139498D01*
X85422364Y-75085842D01*
X85410978Y-75033500D01*
X85410978Y-74846500D01*
X85430980Y-74778379D01*
X85484636Y-74731886D01*
X85536978Y-74720500D01*
X86912819Y-74720500D01*
X87066008Y-74705480D01*
X87263229Y-74645935D01*
X87445129Y-74549218D01*
X87568024Y-74448987D01*
X87600003Y-74422906D01*
X87600006Y-74422903D01*
X87604778Y-74419011D01*
X87613430Y-74408553D01*
X87732167Y-74265025D01*
X87732169Y-74265021D01*
X87736096Y-74260275D01*
X87834081Y-74079055D01*
X87895001Y-73882254D01*
X87895829Y-73874374D01*
X87915891Y-73683498D01*
X87915891Y-73683496D01*
X87916535Y-73677369D01*
X87903050Y-73529186D01*
X87898423Y-73478342D01*
X87898422Y-73478339D01*
X87897864Y-73472203D01*
X87852720Y-73318816D01*
X92568270Y-73318816D01*
X92569434Y-73327718D01*
X92569434Y-73327721D01*
X92570572Y-73336422D01*
X92585930Y-73453871D01*
X92640786Y-73578541D01*
X92646563Y-73585414D01*
X92646564Y-73585415D01*
X92658804Y-73599976D01*
X92728428Y-73682804D01*
X92841811Y-73758278D01*
X92971819Y-73798895D01*
X93108001Y-73801391D01*
X93151166Y-73789623D01*
X93230748Y-73767927D01*
X93230751Y-73767926D01*
X93239410Y-73765565D01*
X93247060Y-73760868D01*
X93247062Y-73760867D01*
X93347830Y-73698996D01*
X93347833Y-73698993D01*
X93355482Y-73694297D01*
X93370805Y-73677369D01*
X93440857Y-73599976D01*
X93440858Y-73599975D01*
X93446885Y-73593316D01*
X93454044Y-73578541D01*
X93502358Y-73478820D01*
X93502358Y-73478819D01*
X93506273Y-73470739D01*
X93519162Y-73394131D01*
X97819646Y-73394131D01*
X97820810Y-73403033D01*
X97820810Y-73403036D01*
X97821948Y-73411737D01*
X97837306Y-73529186D01*
X97892162Y-73653856D01*
X97897939Y-73660729D01*
X97897940Y-73660730D01*
X97920560Y-73687640D01*
X97979804Y-73758119D01*
X97987281Y-73763096D01*
X98083974Y-73827460D01*
X98093187Y-73833593D01*
X98124072Y-73843242D01*
X98182004Y-73861341D01*
X98223195Y-73874210D01*
X98359377Y-73876706D01*
X98402542Y-73864938D01*
X98482124Y-73843242D01*
X98482127Y-73843241D01*
X98490786Y-73840880D01*
X98498436Y-73836183D01*
X98498438Y-73836182D01*
X98599206Y-73774311D01*
X98599209Y-73774308D01*
X98606858Y-73769612D01*
X98621621Y-73753303D01*
X98692233Y-73675291D01*
X98692234Y-73675290D01*
X98698261Y-73668631D01*
X98704138Y-73656502D01*
X98753734Y-73554135D01*
X98753734Y-73554134D01*
X98757649Y-73546054D01*
X98773158Y-73453871D01*
X98779441Y-73416530D01*
X98779441Y-73416525D01*
X98780247Y-73411737D01*
X98780390Y-73400000D01*
X98771971Y-73341215D01*
X98762354Y-73274057D01*
X98762353Y-73274054D01*
X98761081Y-73265171D01*
X98704706Y-73141180D01*
X98615796Y-73037996D01*
X98551969Y-72996625D01*
X98509032Y-72968794D01*
X98509030Y-72968793D01*
X98501501Y-72963913D01*
X98492904Y-72961342D01*
X98492902Y-72961341D01*
X98412867Y-72937406D01*
X98371006Y-72924887D01*
X98362030Y-72924832D01*
X98362029Y-72924832D01*
X98305036Y-72924484D01*
X98234804Y-72924055D01*
X98226172Y-72926522D01*
X98112473Y-72959017D01*
X98112471Y-72959018D01*
X98103842Y-72961484D01*
X98096252Y-72966273D01*
X98024225Y-73011719D01*
X97988650Y-73034165D01*
X97982707Y-73040894D01*
X97982706Y-73040895D01*
X97953434Y-73074039D01*
X97898487Y-73136255D01*
X97840601Y-73259548D01*
X97839221Y-73268412D01*
X97839220Y-73268415D01*
X97831373Y-73318816D01*
X97819646Y-73394131D01*
X93519162Y-73394131D01*
X93528065Y-73341215D01*
X93528065Y-73341210D01*
X93528871Y-73336422D01*
X93529014Y-73324685D01*
X93519110Y-73255526D01*
X93510978Y-73198742D01*
X93510977Y-73198739D01*
X93509705Y-73189856D01*
X93453330Y-73065865D01*
X93364420Y-72962681D01*
X93331443Y-72941306D01*
X93257656Y-72893479D01*
X93257654Y-72893478D01*
X93250125Y-72888598D01*
X93241528Y-72886027D01*
X93241526Y-72886026D01*
X93164597Y-72863020D01*
X93119630Y-72849572D01*
X93110654Y-72849517D01*
X93110653Y-72849517D01*
X93053660Y-72849169D01*
X92983428Y-72848740D01*
X92974796Y-72851207D01*
X92861097Y-72883702D01*
X92861095Y-72883703D01*
X92852466Y-72886169D01*
X92844876Y-72890958D01*
X92771261Y-72937406D01*
X92737274Y-72958850D01*
X92731331Y-72965579D01*
X92731330Y-72965580D01*
X92683604Y-73019620D01*
X92647111Y-73060940D01*
X92643297Y-73069063D01*
X92643296Y-73069065D01*
X92627724Y-73102232D01*
X92589225Y-73184233D01*
X92587845Y-73193097D01*
X92587844Y-73193100D01*
X92574827Y-73276706D01*
X92568270Y-73318816D01*
X87852720Y-73318816D01*
X87839698Y-73274572D01*
X87744252Y-73092002D01*
X87734382Y-73079725D01*
X87619028Y-72936254D01*
X87619028Y-72936253D01*
X87615163Y-72931447D01*
X87457348Y-72799024D01*
X87451950Y-72796056D01*
X87451945Y-72796053D01*
X87359297Y-72745120D01*
X90790982Y-72745120D01*
X90792146Y-72754022D01*
X90792146Y-72754025D01*
X90798158Y-72800000D01*
X90808642Y-72880175D01*
X90812259Y-72888395D01*
X90845488Y-72963913D01*
X90863498Y-73004845D01*
X90869275Y-73011718D01*
X90869276Y-73011719D01*
X90921661Y-73074039D01*
X90951140Y-73109108D01*
X90958617Y-73114085D01*
X91014439Y-73151243D01*
X91064523Y-73184582D01*
X91194531Y-73225199D01*
X91330713Y-73227695D01*
X91373878Y-73215927D01*
X91453460Y-73194231D01*
X91453463Y-73194230D01*
X91462122Y-73191869D01*
X91469772Y-73187172D01*
X91469774Y-73187171D01*
X91570542Y-73125300D01*
X91570545Y-73125297D01*
X91578194Y-73120601D01*
X91604081Y-73092002D01*
X91663569Y-73026280D01*
X91663570Y-73026279D01*
X91669597Y-73019620D01*
X91676756Y-73004845D01*
X91725070Y-72905124D01*
X91725070Y-72905123D01*
X91728985Y-72897043D01*
X91745976Y-72796053D01*
X91746299Y-72794131D01*
X93919646Y-72794131D01*
X93920810Y-72803033D01*
X93920810Y-72803036D01*
X93927109Y-72851207D01*
X93937306Y-72929186D01*
X93992162Y-73053856D01*
X93997939Y-73060729D01*
X93997940Y-73060730D01*
X94048267Y-73120601D01*
X94079804Y-73158119D01*
X94087281Y-73163096D01*
X94184327Y-73227695D01*
X94193187Y-73233593D01*
X94224072Y-73243242D01*
X94294263Y-73265171D01*
X94323195Y-73274210D01*
X94459377Y-73276706D01*
X94517188Y-73260945D01*
X94582124Y-73243242D01*
X94582127Y-73243241D01*
X94590786Y-73240880D01*
X94598436Y-73236183D01*
X94598438Y-73236182D01*
X94699206Y-73174311D01*
X94699209Y-73174308D01*
X94706858Y-73169612D01*
X94732594Y-73141180D01*
X94792233Y-73075291D01*
X94792234Y-73075290D01*
X94798261Y-73068631D01*
X94805420Y-73053856D01*
X94853734Y-72954135D01*
X94853734Y-72954134D01*
X94857649Y-72946054D01*
X94873449Y-72852145D01*
X94879441Y-72816530D01*
X94879441Y-72816525D01*
X94880247Y-72811737D01*
X94880390Y-72800000D01*
X94861081Y-72665171D01*
X94804706Y-72541180D01*
X94715796Y-72437996D01*
X94632647Y-72384101D01*
X94609032Y-72368794D01*
X94609030Y-72368793D01*
X94601501Y-72363913D01*
X94592904Y-72361342D01*
X94592902Y-72361341D01*
X94490664Y-72330766D01*
X94471006Y-72324887D01*
X94462030Y-72324832D01*
X94462029Y-72324832D01*
X94405036Y-72324484D01*
X94334804Y-72324055D01*
X94326172Y-72326522D01*
X94212473Y-72359017D01*
X94212471Y-72359018D01*
X94203842Y-72361484D01*
X94196252Y-72366273D01*
X94122011Y-72413116D01*
X94088650Y-72434165D01*
X94082707Y-72440894D01*
X94082706Y-72440895D01*
X94036247Y-72493500D01*
X93998487Y-72536255D01*
X93994673Y-72544378D01*
X93994672Y-72544380D01*
X93968794Y-72599498D01*
X93940601Y-72659548D01*
X93939221Y-72668412D01*
X93939220Y-72668415D01*
X93923790Y-72767519D01*
X93919646Y-72794131D01*
X91746299Y-72794131D01*
X91750777Y-72767519D01*
X91750777Y-72767514D01*
X91751583Y-72762726D01*
X91751726Y-72750989D01*
X91743319Y-72692284D01*
X91733690Y-72625046D01*
X91733689Y-72625043D01*
X91732417Y-72616160D01*
X91676042Y-72492169D01*
X91587132Y-72388985D01*
X91573830Y-72380363D01*
X91480368Y-72319783D01*
X91480366Y-72319782D01*
X91472837Y-72314902D01*
X91464240Y-72312331D01*
X91464238Y-72312330D01*
X91387309Y-72289324D01*
X91342342Y-72275876D01*
X91333366Y-72275821D01*
X91333365Y-72275821D01*
X91276372Y-72275473D01*
X91206140Y-72275044D01*
X91197508Y-72277511D01*
X91083809Y-72310006D01*
X91083807Y-72310007D01*
X91075178Y-72312473D01*
X91067588Y-72317262D01*
X90997501Y-72361484D01*
X90959986Y-72385154D01*
X90954043Y-72391883D01*
X90954042Y-72391884D01*
X90928855Y-72420403D01*
X90869823Y-72487244D01*
X90866009Y-72495367D01*
X90866008Y-72495369D01*
X90856669Y-72515261D01*
X90811937Y-72610537D01*
X90810557Y-72619401D01*
X90810556Y-72619404D01*
X90799209Y-72692284D01*
X90790982Y-72745120D01*
X87359297Y-72745120D01*
X87282213Y-72702743D01*
X87276816Y-72699776D01*
X87080446Y-72637484D01*
X87074329Y-72636798D01*
X87074325Y-72636797D01*
X86998104Y-72628248D01*
X86920114Y-72619500D01*
X85536978Y-72619500D01*
X85468857Y-72599498D01*
X85422364Y-72545842D01*
X85410978Y-72493500D01*
X85410978Y-72306500D01*
X85430980Y-72238379D01*
X85484636Y-72191886D01*
X85536978Y-72180500D01*
X86912819Y-72180500D01*
X87066008Y-72165480D01*
X87263229Y-72105935D01*
X87445129Y-72009218D01*
X87488735Y-71973654D01*
X92703699Y-71973654D01*
X92704863Y-71982556D01*
X92704863Y-71982559D01*
X92712529Y-72041182D01*
X92721359Y-72108709D01*
X92776215Y-72233379D01*
X92781992Y-72240252D01*
X92781993Y-72240253D01*
X92842580Y-72312330D01*
X92863857Y-72337642D01*
X92871334Y-72342619D01*
X92940989Y-72388985D01*
X92977240Y-72413116D01*
X93041244Y-72433112D01*
X93078649Y-72444798D01*
X93107248Y-72453733D01*
X93243430Y-72456229D01*
X93299675Y-72440895D01*
X93366177Y-72422765D01*
X93366180Y-72422764D01*
X93374839Y-72420403D01*
X93382489Y-72415706D01*
X93382491Y-72415705D01*
X93483259Y-72353834D01*
X93483262Y-72353831D01*
X93490911Y-72349135D01*
X93499353Y-72339809D01*
X93576286Y-72254814D01*
X93576287Y-72254813D01*
X93582314Y-72248154D01*
X93589473Y-72233379D01*
X93637787Y-72133658D01*
X93637787Y-72133657D01*
X93641702Y-72125577D01*
X93650512Y-72073210D01*
X98719646Y-72073210D01*
X98720810Y-72082112D01*
X98720810Y-72082115D01*
X98727550Y-72133658D01*
X98737306Y-72208265D01*
X98751301Y-72240070D01*
X98783159Y-72312473D01*
X98792162Y-72332935D01*
X98797939Y-72339808D01*
X98797940Y-72339809D01*
X98855379Y-72408141D01*
X98879804Y-72437198D01*
X98993187Y-72512672D01*
X99024072Y-72522321D01*
X99110600Y-72549354D01*
X99123195Y-72553289D01*
X99259377Y-72555785D01*
X99331013Y-72536255D01*
X99382124Y-72522321D01*
X99382127Y-72522320D01*
X99390786Y-72519959D01*
X99398436Y-72515262D01*
X99398438Y-72515261D01*
X99499206Y-72453390D01*
X99499209Y-72453387D01*
X99506858Y-72448691D01*
X99520007Y-72434165D01*
X99592233Y-72354370D01*
X99592234Y-72354369D01*
X99598261Y-72347710D01*
X99605420Y-72332935D01*
X99653734Y-72233214D01*
X99653734Y-72233213D01*
X99657649Y-72225133D01*
X99677404Y-72107716D01*
X99679441Y-72095609D01*
X99679441Y-72095604D01*
X99680247Y-72090816D01*
X99680390Y-72079079D01*
X99675134Y-72042380D01*
X99662354Y-71953136D01*
X99662353Y-71953133D01*
X99661081Y-71944250D01*
X99604706Y-71820259D01*
X99515796Y-71717075D01*
X99456695Y-71678767D01*
X99409032Y-71647873D01*
X99409030Y-71647872D01*
X99401501Y-71642992D01*
X99392904Y-71640421D01*
X99392902Y-71640420D01*
X99287494Y-71608897D01*
X99271006Y-71603966D01*
X99262030Y-71603911D01*
X99262029Y-71603911D01*
X99205036Y-71603563D01*
X99134804Y-71603134D01*
X99126172Y-71605601D01*
X99012473Y-71638096D01*
X99012471Y-71638097D01*
X99003842Y-71640563D01*
X98996252Y-71645352D01*
X98943293Y-71678767D01*
X98888650Y-71713244D01*
X98882707Y-71719973D01*
X98882706Y-71719974D01*
X98855091Y-71751242D01*
X98798487Y-71815334D01*
X98794673Y-71823457D01*
X98794672Y-71823459D01*
X98773501Y-71868553D01*
X98740601Y-71938627D01*
X98739221Y-71947491D01*
X98739220Y-71947494D01*
X98729610Y-72009218D01*
X98719646Y-72073210D01*
X93650512Y-72073210D01*
X93661934Y-72005322D01*
X93663494Y-71996053D01*
X93663494Y-71996048D01*
X93664300Y-71991260D01*
X93664443Y-71979523D01*
X93645134Y-71844694D01*
X93647285Y-71844386D01*
X93647350Y-71785545D01*
X93685799Y-71725861D01*
X93750412Y-71696439D01*
X93820675Y-71706620D01*
X93864657Y-71740100D01*
X93879804Y-71758119D01*
X93887281Y-71763096D01*
X93973156Y-71820259D01*
X93993187Y-71833593D01*
X94039103Y-71847938D01*
X94089702Y-71863746D01*
X94123195Y-71874210D01*
X94259377Y-71876706D01*
X94306914Y-71863746D01*
X94382124Y-71843242D01*
X94382127Y-71843241D01*
X94390786Y-71840880D01*
X94398436Y-71836183D01*
X94398438Y-71836182D01*
X94499206Y-71774311D01*
X94499209Y-71774308D01*
X94506858Y-71769612D01*
X94546460Y-71725861D01*
X94592233Y-71675291D01*
X94592234Y-71675290D01*
X94598261Y-71668631D01*
X94604393Y-71655976D01*
X94653734Y-71554135D01*
X94653734Y-71554134D01*
X94657649Y-71546054D01*
X94674169Y-71447862D01*
X94679441Y-71416530D01*
X94679441Y-71416525D01*
X94680247Y-71411737D01*
X94680390Y-71400000D01*
X94674140Y-71356361D01*
X94662354Y-71274057D01*
X94662353Y-71274054D01*
X94661081Y-71265171D01*
X94655937Y-71253856D01*
X94630952Y-71198905D01*
X94604706Y-71141180D01*
X94515796Y-71037996D01*
X94470538Y-71008661D01*
X94448121Y-70994131D01*
X96619646Y-70994131D01*
X96620810Y-71003033D01*
X96620810Y-71003036D01*
X96622575Y-71016530D01*
X96637306Y-71129186D01*
X96692162Y-71253856D01*
X96697939Y-71260729D01*
X96697940Y-71260730D01*
X96710059Y-71275147D01*
X96779804Y-71358119D01*
X96893187Y-71433593D01*
X96924072Y-71443242D01*
X97012463Y-71470857D01*
X97023195Y-71474210D01*
X97159377Y-71476706D01*
X97210483Y-71462773D01*
X97282124Y-71443242D01*
X97282127Y-71443241D01*
X97290786Y-71440880D01*
X97298436Y-71436183D01*
X97298438Y-71436182D01*
X97399206Y-71374311D01*
X97399209Y-71374308D01*
X97406858Y-71369612D01*
X97418853Y-71356361D01*
X97492233Y-71275291D01*
X97492234Y-71275290D01*
X97498261Y-71268631D01*
X97503277Y-71258279D01*
X97553734Y-71154135D01*
X97553734Y-71154134D01*
X97557649Y-71146054D01*
X97561490Y-71123224D01*
X97890831Y-71123224D01*
X97891995Y-71132126D01*
X97891995Y-71132129D01*
X97894873Y-71154135D01*
X97908491Y-71258279D01*
X97919469Y-71283228D01*
X97957479Y-71369612D01*
X97963347Y-71382949D01*
X97969124Y-71389822D01*
X97969125Y-71389823D01*
X98045209Y-71480336D01*
X98050989Y-71487212D01*
X98080691Y-71506983D01*
X98138999Y-71545796D01*
X98164372Y-71562686D01*
X98294380Y-71603303D01*
X98430562Y-71605799D01*
X98473727Y-71594031D01*
X98553309Y-71572335D01*
X98553312Y-71572334D01*
X98561971Y-71569973D01*
X98569621Y-71565276D01*
X98569623Y-71565275D01*
X98670391Y-71503404D01*
X98670394Y-71503401D01*
X98678043Y-71498705D01*
X98693645Y-71481469D01*
X98763418Y-71404384D01*
X98763419Y-71404383D01*
X98769446Y-71397724D01*
X98775486Y-71385259D01*
X98824919Y-71283228D01*
X98824919Y-71283227D01*
X98828834Y-71275147D01*
X98842090Y-71196357D01*
X101409677Y-71196357D01*
X101410841Y-71205259D01*
X101410841Y-71205262D01*
X101418507Y-71263885D01*
X101427337Y-71331412D01*
X101430954Y-71339632D01*
X101473476Y-71436270D01*
X101482193Y-71456082D01*
X101487970Y-71462955D01*
X101487971Y-71462956D01*
X101556494Y-71544474D01*
X101569835Y-71560345D01*
X101683218Y-71635819D01*
X101714103Y-71645468D01*
X101788244Y-71668631D01*
X101813226Y-71676436D01*
X101949408Y-71678932D01*
X102016844Y-71660547D01*
X102072155Y-71645468D01*
X102072158Y-71645467D01*
X102080817Y-71643106D01*
X102088467Y-71638409D01*
X102088469Y-71638408D01*
X102189237Y-71576537D01*
X102189240Y-71576534D01*
X102196889Y-71571838D01*
X102220228Y-71546054D01*
X102282264Y-71477517D01*
X102282265Y-71477516D01*
X102288292Y-71470857D01*
X102295451Y-71456082D01*
X102343765Y-71356361D01*
X102343765Y-71356360D01*
X102347680Y-71348280D01*
X102370278Y-71213963D01*
X102370421Y-71202226D01*
X102361679Y-71141180D01*
X102352385Y-71076283D01*
X102352384Y-71076280D01*
X102351112Y-71067397D01*
X102344499Y-71052851D01*
X102321849Y-71003036D01*
X102294737Y-70943406D01*
X102205827Y-70840222D01*
X102147175Y-70802205D01*
X102099063Y-70771020D01*
X102099061Y-70771019D01*
X102091532Y-70766139D01*
X102082935Y-70763568D01*
X102082933Y-70763567D01*
X101985978Y-70734572D01*
X101961037Y-70727113D01*
X101952061Y-70727058D01*
X101952060Y-70727058D01*
X101895067Y-70726710D01*
X101824835Y-70726281D01*
X101816203Y-70728748D01*
X101702504Y-70761243D01*
X101702502Y-70761244D01*
X101693873Y-70763710D01*
X101578681Y-70836391D01*
X101488518Y-70938481D01*
X101484704Y-70946604D01*
X101484703Y-70946606D01*
X101474638Y-70968044D01*
X101430632Y-71061774D01*
X101429252Y-71070638D01*
X101429251Y-71070641D01*
X101411907Y-71182037D01*
X101409677Y-71196357D01*
X98842090Y-71196357D01*
X98851432Y-71140830D01*
X98851575Y-71129093D01*
X98843024Y-71069381D01*
X98833539Y-71003150D01*
X98833538Y-71003147D01*
X98832266Y-70994264D01*
X98775891Y-70870273D01*
X98686981Y-70767089D01*
X98639434Y-70736270D01*
X98580217Y-70697887D01*
X98580215Y-70697886D01*
X98572686Y-70693006D01*
X98564089Y-70690435D01*
X98564087Y-70690434D01*
X98472673Y-70663096D01*
X98442191Y-70653980D01*
X98433215Y-70653925D01*
X98433214Y-70653925D01*
X98376221Y-70653577D01*
X98305989Y-70653148D01*
X98297357Y-70655615D01*
X98183658Y-70688110D01*
X98183656Y-70688111D01*
X98175027Y-70690577D01*
X98167437Y-70695366D01*
X98117567Y-70726832D01*
X98059835Y-70763258D01*
X98053892Y-70769987D01*
X98053891Y-70769988D01*
X98027508Y-70799861D01*
X97969672Y-70865348D01*
X97965858Y-70873471D01*
X97965857Y-70873473D01*
X97948777Y-70909853D01*
X97911786Y-70988641D01*
X97910406Y-70997505D01*
X97910405Y-70997508D01*
X97898140Y-71076283D01*
X97890831Y-71123224D01*
X97561490Y-71123224D01*
X97574685Y-71044798D01*
X97579441Y-71016530D01*
X97579441Y-71016525D01*
X97580247Y-71011737D01*
X97580390Y-71000000D01*
X97570616Y-70931753D01*
X97562354Y-70874057D01*
X97562353Y-70874054D01*
X97561081Y-70865171D01*
X97549738Y-70840222D01*
X97531386Y-70799861D01*
X97504706Y-70741180D01*
X97415796Y-70637996D01*
X97390570Y-70621645D01*
X97309032Y-70568794D01*
X97309030Y-70568793D01*
X97301501Y-70563913D01*
X97292904Y-70561342D01*
X97292902Y-70561341D01*
X97202986Y-70534451D01*
X97171006Y-70524887D01*
X97162030Y-70524832D01*
X97162029Y-70524832D01*
X97105036Y-70524484D01*
X97034804Y-70524055D01*
X97026172Y-70526522D01*
X96912473Y-70559017D01*
X96912471Y-70559018D01*
X96903842Y-70561484D01*
X96788650Y-70634165D01*
X96782707Y-70640894D01*
X96782706Y-70640895D01*
X96716794Y-70715526D01*
X96698487Y-70736255D01*
X96640601Y-70859548D01*
X96639221Y-70868412D01*
X96639220Y-70868415D01*
X96621766Y-70980518D01*
X96619646Y-70994131D01*
X94448121Y-70994131D01*
X94409032Y-70968794D01*
X94409030Y-70968793D01*
X94401501Y-70963913D01*
X94392904Y-70961342D01*
X94392902Y-70961341D01*
X94295469Y-70932203D01*
X94271006Y-70924887D01*
X94262030Y-70924832D01*
X94262029Y-70924832D01*
X94205036Y-70924484D01*
X94134804Y-70924055D01*
X94126172Y-70926522D01*
X94012473Y-70959017D01*
X94012471Y-70959018D01*
X94003842Y-70961484D01*
X93996252Y-70966273D01*
X93950433Y-70995183D01*
X93888650Y-71034165D01*
X93882707Y-71040894D01*
X93882706Y-71040895D01*
X93844285Y-71084399D01*
X93798487Y-71136255D01*
X93794673Y-71144378D01*
X93794672Y-71144380D01*
X93773229Y-71190052D01*
X93740601Y-71259548D01*
X93739221Y-71268412D01*
X93739220Y-71268415D01*
X93723464Y-71369612D01*
X93719646Y-71394131D01*
X93720810Y-71403033D01*
X93720810Y-71403036D01*
X93725156Y-71436270D01*
X93737306Y-71529186D01*
X93737621Y-71529902D01*
X93736729Y-71596767D01*
X93697552Y-71655976D01*
X93632584Y-71684606D01*
X93562451Y-71673565D01*
X93520864Y-71641908D01*
X93505710Y-71624321D01*
X93499849Y-71617519D01*
X93482909Y-71606539D01*
X93393085Y-71548317D01*
X93393083Y-71548316D01*
X93385554Y-71543436D01*
X93376957Y-71540865D01*
X93376955Y-71540864D01*
X93300026Y-71517858D01*
X93255059Y-71504410D01*
X93246083Y-71504355D01*
X93246082Y-71504355D01*
X93189089Y-71504007D01*
X93118857Y-71503578D01*
X93110225Y-71506045D01*
X92996526Y-71538540D01*
X92996524Y-71538541D01*
X92987895Y-71541007D01*
X92980305Y-71545796D01*
X92888199Y-71603911D01*
X92872703Y-71613688D01*
X92866760Y-71620417D01*
X92866759Y-71620418D01*
X92846722Y-71643106D01*
X92782540Y-71715778D01*
X92778726Y-71723901D01*
X92778725Y-71723903D01*
X92762661Y-71758119D01*
X92724654Y-71839071D01*
X92723274Y-71847935D01*
X92723273Y-71847938D01*
X92706263Y-71957188D01*
X92703699Y-71973654D01*
X87488735Y-71973654D01*
X87541642Y-71930504D01*
X87600003Y-71882906D01*
X87600006Y-71882903D01*
X87604778Y-71879011D01*
X87610148Y-71872520D01*
X87732167Y-71725025D01*
X87732169Y-71725021D01*
X87736096Y-71720275D01*
X87834081Y-71539055D01*
X87895001Y-71342254D01*
X87896484Y-71328142D01*
X87915891Y-71143498D01*
X87915891Y-71143496D01*
X87916535Y-71137369D01*
X87904660Y-71006878D01*
X87898423Y-70938342D01*
X87898422Y-70938339D01*
X87897864Y-70932203D01*
X87839698Y-70734572D01*
X87744252Y-70552002D01*
X87739578Y-70546188D01*
X87725422Y-70528582D01*
X88566795Y-70528582D01*
X88567959Y-70537484D01*
X88567959Y-70537487D01*
X88572032Y-70568631D01*
X88584455Y-70663637D01*
X88588072Y-70671857D01*
X88631705Y-70771020D01*
X88639311Y-70788307D01*
X88645088Y-70795180D01*
X88645089Y-70795181D01*
X88706649Y-70868415D01*
X88726953Y-70892570D01*
X88764774Y-70917746D01*
X88817649Y-70952942D01*
X88840336Y-70968044D01*
X88848906Y-70970721D01*
X88848905Y-70970721D01*
X88958178Y-71004860D01*
X88970344Y-71008661D01*
X88979318Y-71008825D01*
X88988181Y-71010261D01*
X88987635Y-71013631D01*
X89039608Y-71029914D01*
X89085127Y-71084399D01*
X89094525Y-71118332D01*
X89097816Y-71143498D01*
X89102855Y-71182037D01*
X89157711Y-71306707D01*
X89163488Y-71313580D01*
X89163489Y-71313581D01*
X89236132Y-71400000D01*
X89245353Y-71410970D01*
X89283361Y-71436270D01*
X89336336Y-71471533D01*
X89358736Y-71486444D01*
X89413022Y-71503404D01*
X89464594Y-71519516D01*
X89488744Y-71527061D01*
X89624926Y-71529557D01*
X89668091Y-71517789D01*
X89747673Y-71496093D01*
X89747676Y-71496092D01*
X89756335Y-71493731D01*
X89763985Y-71489034D01*
X89763987Y-71489033D01*
X89864755Y-71427162D01*
X89864758Y-71427159D01*
X89872407Y-71422463D01*
X89888341Y-71404860D01*
X89957782Y-71328142D01*
X89957783Y-71328141D01*
X89963810Y-71321482D01*
X89970799Y-71307058D01*
X90019283Y-71206986D01*
X90019283Y-71206985D01*
X90023198Y-71198905D01*
X90042463Y-71084399D01*
X90044990Y-71069381D01*
X90044990Y-71069376D01*
X90045796Y-71064588D01*
X90045939Y-71052851D01*
X90037530Y-70994131D01*
X90027903Y-70926908D01*
X90027902Y-70926905D01*
X90026630Y-70918022D01*
X89970255Y-70794031D01*
X89955185Y-70776541D01*
X89887206Y-70697649D01*
X89881345Y-70690847D01*
X89838531Y-70663096D01*
X89774581Y-70621645D01*
X89774579Y-70621644D01*
X89767050Y-70616764D01*
X89758453Y-70614193D01*
X89758451Y-70614192D01*
X89708679Y-70599308D01*
X89636555Y-70577738D01*
X89627576Y-70577683D01*
X89624478Y-70577220D01*
X89560063Y-70547368D01*
X89522011Y-70487430D01*
X89518376Y-70470467D01*
X89512464Y-70429186D01*
X89508230Y-70399622D01*
X89502710Y-70387480D01*
X89489978Y-70359478D01*
X89460266Y-70294131D01*
X100519646Y-70294131D01*
X100520810Y-70303033D01*
X100520810Y-70303036D01*
X100521948Y-70311737D01*
X100537306Y-70429186D01*
X100540923Y-70437406D01*
X100588330Y-70545146D01*
X100592162Y-70553856D01*
X100597939Y-70560729D01*
X100597940Y-70560730D01*
X100674024Y-70651243D01*
X100679804Y-70658119D01*
X100724859Y-70688110D01*
X100783370Y-70727058D01*
X100793187Y-70733593D01*
X100843635Y-70749354D01*
X100889129Y-70763567D01*
X100923195Y-70774210D01*
X101059377Y-70776706D01*
X101108704Y-70763258D01*
X101182124Y-70743242D01*
X101182127Y-70743241D01*
X101190786Y-70740880D01*
X101198436Y-70736183D01*
X101198438Y-70736182D01*
X101299206Y-70674311D01*
X101299209Y-70674308D01*
X101306858Y-70669612D01*
X101318679Y-70656553D01*
X101392233Y-70575291D01*
X101392234Y-70575290D01*
X101398261Y-70568631D01*
X101405420Y-70553856D01*
X101453734Y-70454135D01*
X101453734Y-70454134D01*
X101457649Y-70446054D01*
X101480247Y-70311737D01*
X101480390Y-70300000D01*
X101470167Y-70228618D01*
X101462354Y-70174057D01*
X101462353Y-70174054D01*
X101461081Y-70165171D01*
X101457347Y-70156957D01*
X101428480Y-70093468D01*
X101404706Y-70041180D01*
X101374257Y-70005842D01*
X101321657Y-69944798D01*
X101315796Y-69937996D01*
X101288465Y-69920281D01*
X101209032Y-69868794D01*
X101209030Y-69868793D01*
X101201501Y-69863913D01*
X101192904Y-69861342D01*
X101192902Y-69861341D01*
X101100117Y-69833593D01*
X101071006Y-69824887D01*
X101062030Y-69824832D01*
X101062029Y-69824832D01*
X101005036Y-69824484D01*
X100934804Y-69824055D01*
X100926172Y-69826522D01*
X100812473Y-69859017D01*
X100812471Y-69859018D01*
X100803842Y-69861484D01*
X100688650Y-69934165D01*
X100598487Y-70036255D01*
X100594673Y-70044378D01*
X100594672Y-70044380D01*
X100571414Y-70093919D01*
X100540601Y-70159548D01*
X100539221Y-70168412D01*
X100539220Y-70168415D01*
X100521254Y-70283805D01*
X100519646Y-70294131D01*
X89460266Y-70294131D01*
X89451855Y-70275631D01*
X89430444Y-70250782D01*
X89368806Y-70179249D01*
X89362945Y-70172447D01*
X89343396Y-70159776D01*
X89256181Y-70103245D01*
X89256179Y-70103244D01*
X89248650Y-70098364D01*
X89240053Y-70095793D01*
X89240051Y-70095792D01*
X89147500Y-70068114D01*
X89118155Y-70059338D01*
X89109179Y-70059283D01*
X89109178Y-70059283D01*
X89052185Y-70058935D01*
X88981953Y-70058506D01*
X88973321Y-70060973D01*
X88859622Y-70093468D01*
X88859620Y-70093469D01*
X88850991Y-70095935D01*
X88843401Y-70100724D01*
X88744548Y-70163096D01*
X88735799Y-70168616D01*
X88645636Y-70270706D01*
X88587750Y-70393999D01*
X88586370Y-70402863D01*
X88586369Y-70402866D01*
X88575844Y-70470467D01*
X88566795Y-70528582D01*
X87725422Y-70528582D01*
X87619028Y-70396254D01*
X87619028Y-70396253D01*
X87615163Y-70391447D01*
X87457348Y-70259024D01*
X87451950Y-70256056D01*
X87451945Y-70256053D01*
X87282213Y-70162743D01*
X87276816Y-70159776D01*
X87080446Y-70097484D01*
X87074329Y-70096798D01*
X87074325Y-70096797D01*
X86998104Y-70088248D01*
X86920114Y-70079500D01*
X85536978Y-70079500D01*
X85468857Y-70059498D01*
X85422364Y-70005842D01*
X85410978Y-69953500D01*
X85410978Y-69794131D01*
X96269146Y-69794131D01*
X96270310Y-69803033D01*
X96270310Y-69803036D01*
X96274656Y-69836270D01*
X96286806Y-69929186D01*
X96341662Y-70053856D01*
X96347439Y-70060729D01*
X96347440Y-70060730D01*
X96383178Y-70103245D01*
X96429304Y-70158119D01*
X96542687Y-70233593D01*
X96672695Y-70274210D01*
X96808877Y-70276706D01*
X96859183Y-70262991D01*
X96931624Y-70243242D01*
X96931627Y-70243241D01*
X96940286Y-70240880D01*
X96947936Y-70236183D01*
X96947938Y-70236182D01*
X97048706Y-70174311D01*
X97048709Y-70174308D01*
X97056358Y-70169612D01*
X97062576Y-70162743D01*
X97141733Y-70075291D01*
X97141734Y-70075290D01*
X97147761Y-70068631D01*
X97152264Y-70059338D01*
X97203234Y-69954135D01*
X97203234Y-69954134D01*
X97207149Y-69946054D01*
X97221377Y-69861484D01*
X97228941Y-69816530D01*
X97228941Y-69816525D01*
X97229747Y-69811737D01*
X97229890Y-69800000D01*
X97223892Y-69758119D01*
X97211854Y-69674057D01*
X97211853Y-69674054D01*
X97210581Y-69665171D01*
X97205437Y-69653856D01*
X97168168Y-69571889D01*
X97154206Y-69541180D01*
X97065296Y-69437996D01*
X97051994Y-69429374D01*
X96997622Y-69394131D01*
X99619646Y-69394131D01*
X99620810Y-69403033D01*
X99620810Y-69403036D01*
X99622575Y-69416530D01*
X99637306Y-69529186D01*
X99692162Y-69653856D01*
X99697939Y-69660729D01*
X99697940Y-69660730D01*
X99710180Y-69675291D01*
X99779804Y-69758119D01*
X99787281Y-69763096D01*
X99883974Y-69827460D01*
X99893187Y-69833593D01*
X99924072Y-69843242D01*
X99982004Y-69861341D01*
X100023195Y-69874210D01*
X100159377Y-69876706D01*
X100202542Y-69864938D01*
X100282124Y-69843242D01*
X100282127Y-69843241D01*
X100290786Y-69840880D01*
X100298436Y-69836183D01*
X100298438Y-69836182D01*
X100399206Y-69774311D01*
X100399209Y-69774308D01*
X100406858Y-69769612D01*
X100498261Y-69668631D01*
X100503896Y-69657002D01*
X100553734Y-69554135D01*
X100553734Y-69554134D01*
X100557649Y-69546054D01*
X100575221Y-69441612D01*
X100579441Y-69416530D01*
X100579441Y-69416525D01*
X100580247Y-69411737D01*
X100580390Y-69400000D01*
X100574521Y-69359017D01*
X100562354Y-69274057D01*
X100562353Y-69274054D01*
X100561081Y-69265171D01*
X100504706Y-69141180D01*
X100415796Y-69037996D01*
X100319055Y-68975291D01*
X100309032Y-68968794D01*
X100309030Y-68968793D01*
X100301501Y-68963913D01*
X100292904Y-68961342D01*
X100292902Y-68961341D01*
X100215973Y-68938335D01*
X100171006Y-68924887D01*
X100162030Y-68924832D01*
X100162029Y-68924832D01*
X100105036Y-68924484D01*
X100034804Y-68924055D01*
X100026172Y-68926522D01*
X99912473Y-68959017D01*
X99912471Y-68959018D01*
X99903842Y-68961484D01*
X99788650Y-69034165D01*
X99782707Y-69040894D01*
X99782706Y-69040895D01*
X99763223Y-69062955D01*
X99698487Y-69136255D01*
X99694673Y-69144378D01*
X99694672Y-69144380D01*
X99680667Y-69174210D01*
X99640601Y-69259548D01*
X99639221Y-69268412D01*
X99639220Y-69268415D01*
X99623984Y-69366273D01*
X99619646Y-69394131D01*
X96997622Y-69394131D01*
X96958532Y-69368794D01*
X96958530Y-69368793D01*
X96951001Y-69363913D01*
X96942404Y-69361342D01*
X96942402Y-69361341D01*
X96865473Y-69338335D01*
X96820506Y-69324887D01*
X96811530Y-69324832D01*
X96811529Y-69324832D01*
X96754536Y-69324484D01*
X96684304Y-69324055D01*
X96675672Y-69326522D01*
X96561973Y-69359017D01*
X96561971Y-69359018D01*
X96553342Y-69361484D01*
X96545752Y-69366273D01*
X96467677Y-69415535D01*
X96438150Y-69434165D01*
X96432207Y-69440894D01*
X96432206Y-69440895D01*
X96368383Y-69513161D01*
X96347987Y-69536255D01*
X96344173Y-69544378D01*
X96344172Y-69544380D01*
X96328195Y-69578410D01*
X96290101Y-69659548D01*
X96288721Y-69668412D01*
X96288720Y-69668415D01*
X96272964Y-69769612D01*
X96269146Y-69794131D01*
X85410978Y-69794131D01*
X85410978Y-68575963D01*
X88394757Y-68575963D01*
X88411175Y-68771483D01*
X88465258Y-68960091D01*
X88468076Y-68965574D01*
X88552123Y-69129113D01*
X88552126Y-69129117D01*
X88554944Y-69134601D01*
X88676818Y-69288369D01*
X88681511Y-69292363D01*
X88681512Y-69292364D01*
X88811552Y-69403036D01*
X88826238Y-69415535D01*
X88831616Y-69418541D01*
X88831618Y-69418542D01*
X88872897Y-69441612D01*
X88997513Y-69511257D01*
X89184118Y-69571889D01*
X89378946Y-69595121D01*
X89385081Y-69594649D01*
X89385083Y-69594649D01*
X89568434Y-69580541D01*
X89568438Y-69580540D01*
X89574576Y-69580068D01*
X89763556Y-69527303D01*
X89938689Y-69438837D01*
X89968515Y-69415535D01*
X90037880Y-69361341D01*
X90093303Y-69318040D01*
X90123084Y-69283539D01*
X90217485Y-69174173D01*
X90217485Y-69174172D01*
X90221509Y-69169511D01*
X90235786Y-69144380D01*
X90281961Y-69063096D01*
X90318425Y-68998909D01*
X90380358Y-68812732D01*
X90395341Y-68694131D01*
X91219646Y-68694131D01*
X91220810Y-68703033D01*
X91220810Y-68703036D01*
X91221948Y-68711737D01*
X91237306Y-68829186D01*
X91240923Y-68837406D01*
X91280548Y-68927460D01*
X91292162Y-68953856D01*
X91297939Y-68960729D01*
X91297940Y-68960730D01*
X91374024Y-69051243D01*
X91379804Y-69058119D01*
X91493187Y-69133593D01*
X91623195Y-69174210D01*
X91759377Y-69176706D01*
X91805421Y-69164153D01*
X91882124Y-69143242D01*
X91882127Y-69143241D01*
X91890786Y-69140880D01*
X91898436Y-69136183D01*
X91898438Y-69136182D01*
X91999206Y-69074311D01*
X91999209Y-69074308D01*
X92006858Y-69069612D01*
X92029319Y-69044798D01*
X92092233Y-68975291D01*
X92092234Y-68975290D01*
X92098261Y-68968631D01*
X92105420Y-68953856D01*
X92153734Y-68854135D01*
X92153734Y-68854134D01*
X92157649Y-68846054D01*
X92180247Y-68711737D01*
X92180390Y-68700000D01*
X92168152Y-68614546D01*
X92162354Y-68574057D01*
X92162353Y-68574054D01*
X92161081Y-68565171D01*
X92104706Y-68441180D01*
X92015796Y-68337996D01*
X92002494Y-68329374D01*
X91909032Y-68268794D01*
X91909030Y-68268793D01*
X91901501Y-68263913D01*
X91892904Y-68261342D01*
X91892902Y-68261341D01*
X91815973Y-68238335D01*
X91771006Y-68224887D01*
X91762030Y-68224832D01*
X91762029Y-68224832D01*
X91705036Y-68224484D01*
X91634804Y-68224055D01*
X91626172Y-68226522D01*
X91512473Y-68259017D01*
X91512471Y-68259018D01*
X91503842Y-68261484D01*
X91388650Y-68334165D01*
X91298487Y-68436255D01*
X91240601Y-68559548D01*
X91239221Y-68568412D01*
X91239220Y-68568415D01*
X91231489Y-68618071D01*
X91219646Y-68694131D01*
X90395341Y-68694131D01*
X90404949Y-68618071D01*
X90405341Y-68590000D01*
X90386194Y-68394728D01*
X90384413Y-68388829D01*
X90384412Y-68388824D01*
X90331265Y-68212793D01*
X90329484Y-68206894D01*
X90237370Y-68033653D01*
X90113361Y-67881602D01*
X89962180Y-67756535D01*
X89789585Y-67663213D01*
X89695869Y-67634203D01*
X89608039Y-67607015D01*
X89608036Y-67607014D01*
X89602152Y-67605193D01*
X89596027Y-67604549D01*
X89596026Y-67604549D01*
X89413147Y-67585327D01*
X89413146Y-67585327D01*
X89407019Y-67584683D01*
X89284383Y-67595844D01*
X89217759Y-67601907D01*
X89217758Y-67601907D01*
X89211618Y-67602466D01*
X89205704Y-67604207D01*
X89205702Y-67604207D01*
X89076734Y-67642165D01*
X89023393Y-67657864D01*
X89017928Y-67660721D01*
X88854972Y-67745912D01*
X88854968Y-67745915D01*
X88849512Y-67748767D01*
X88844712Y-67752627D01*
X88844711Y-67752627D01*
X88810326Y-67780273D01*
X88696600Y-67871711D01*
X88570480Y-68022016D01*
X88567516Y-68027408D01*
X88567513Y-68027412D01*
X88488813Y-68170567D01*
X88475956Y-68193954D01*
X88474095Y-68199821D01*
X88474094Y-68199823D01*
X88453015Y-68266273D01*
X88416628Y-68380978D01*
X88397509Y-68551425D01*
X88395968Y-68565171D01*
X88394757Y-68575963D01*
X85410978Y-68575963D01*
X85410978Y-67226500D01*
X85430980Y-67158379D01*
X85484636Y-67111886D01*
X85536978Y-67100500D01*
X86912819Y-67100500D01*
X87066008Y-67085480D01*
X87263229Y-67025935D01*
X87445129Y-66929218D01*
X87535076Y-66855859D01*
X87600003Y-66802906D01*
X87600006Y-66802903D01*
X87604778Y-66799011D01*
X87613430Y-66788553D01*
X87732167Y-66645025D01*
X87732169Y-66645021D01*
X87736096Y-66640275D01*
X87834081Y-66459055D01*
X87895001Y-66262254D01*
X87895900Y-66253705D01*
X87915891Y-66063498D01*
X87915891Y-66063496D01*
X87916535Y-66057369D01*
X87914587Y-66035963D01*
X88294757Y-66035963D01*
X88311175Y-66231483D01*
X88365258Y-66420091D01*
X88368076Y-66425574D01*
X88452123Y-66589113D01*
X88452126Y-66589117D01*
X88454944Y-66594601D01*
X88576818Y-66748369D01*
X88726238Y-66875535D01*
X88731616Y-66878541D01*
X88731618Y-66878542D01*
X88767932Y-66898837D01*
X88897513Y-66971257D01*
X89084118Y-67031889D01*
X89278946Y-67055121D01*
X89285081Y-67054649D01*
X89285083Y-67054649D01*
X89468434Y-67040541D01*
X89468438Y-67040540D01*
X89474576Y-67040068D01*
X89663556Y-66987303D01*
X89838689Y-66898837D01*
X89868515Y-66875535D01*
X89966461Y-66799011D01*
X89993303Y-66778040D01*
X90023084Y-66743539D01*
X90117485Y-66634173D01*
X90117485Y-66634172D01*
X90121509Y-66629511D01*
X90218425Y-66458909D01*
X90280358Y-66272732D01*
X90290288Y-66194129D01*
X91919645Y-66194129D01*
X91920809Y-66203031D01*
X91920809Y-66203034D01*
X91925860Y-66241658D01*
X91937305Y-66329184D01*
X91940922Y-66337404D01*
X91979718Y-66425574D01*
X91992161Y-66453854D01*
X91997938Y-66460727D01*
X91997939Y-66460728D01*
X92010179Y-66475289D01*
X92079803Y-66558117D01*
X92193186Y-66633591D01*
X92323194Y-66674208D01*
X92459376Y-66676704D01*
X92529244Y-66657656D01*
X92582123Y-66643240D01*
X92582126Y-66643239D01*
X92590785Y-66640878D01*
X92598435Y-66636181D01*
X92598437Y-66636180D01*
X92699205Y-66574309D01*
X92699208Y-66574306D01*
X92706857Y-66569610D01*
X92737413Y-66535853D01*
X92792232Y-66475289D01*
X92792233Y-66475288D01*
X92798260Y-66468629D01*
X92802970Y-66458909D01*
X92853733Y-66354133D01*
X92853733Y-66354132D01*
X92857648Y-66346052D01*
X92871013Y-66266613D01*
X92879440Y-66216528D01*
X92879440Y-66216523D01*
X92880246Y-66211735D01*
X92880389Y-66199998D01*
X92861080Y-66065169D01*
X92852590Y-66046495D01*
X92808421Y-65949352D01*
X92804705Y-65941178D01*
X92715795Y-65837994D01*
X92702493Y-65829372D01*
X92609031Y-65768792D01*
X92609029Y-65768791D01*
X92601500Y-65763911D01*
X92592903Y-65761340D01*
X92592901Y-65761339D01*
X92515972Y-65738333D01*
X92471005Y-65724885D01*
X92462029Y-65724830D01*
X92462028Y-65724830D01*
X92405035Y-65724482D01*
X92334803Y-65724053D01*
X92326171Y-65726520D01*
X92212472Y-65759015D01*
X92212470Y-65759016D01*
X92203841Y-65761482D01*
X92088649Y-65834163D01*
X92082706Y-65840892D01*
X92082705Y-65840893D01*
X92067295Y-65858342D01*
X91998486Y-65936253D01*
X91940600Y-66059546D01*
X91939220Y-66068410D01*
X91939219Y-66068413D01*
X91937716Y-66078071D01*
X91919645Y-66194129D01*
X90290288Y-66194129D01*
X90304949Y-66078071D01*
X90305243Y-66057000D01*
X90305292Y-66053523D01*
X90305292Y-66053519D01*
X90305341Y-66050000D01*
X90286194Y-65854728D01*
X90284413Y-65848829D01*
X90284412Y-65848824D01*
X90231265Y-65672793D01*
X90229484Y-65666894D01*
X90137370Y-65493653D01*
X90013361Y-65341602D01*
X89862180Y-65216535D01*
X89689585Y-65123213D01*
X89595869Y-65094203D01*
X89508039Y-65067015D01*
X89508036Y-65067014D01*
X89502152Y-65065193D01*
X89496027Y-65064549D01*
X89496026Y-65064549D01*
X89313147Y-65045327D01*
X89313146Y-65045327D01*
X89307019Y-65044683D01*
X89184383Y-65055844D01*
X89117759Y-65061907D01*
X89117758Y-65061907D01*
X89111618Y-65062466D01*
X89105704Y-65064207D01*
X89105702Y-65064207D01*
X89062382Y-65076957D01*
X88923393Y-65117864D01*
X88917928Y-65120721D01*
X88754972Y-65205912D01*
X88754968Y-65205915D01*
X88749512Y-65208767D01*
X88744712Y-65212627D01*
X88744711Y-65212627D01*
X88732043Y-65222812D01*
X88596600Y-65331711D01*
X88470480Y-65482016D01*
X88467516Y-65487408D01*
X88467513Y-65487412D01*
X88425328Y-65564147D01*
X88375956Y-65653954D01*
X88374095Y-65659821D01*
X88374094Y-65659823D01*
X88352639Y-65727458D01*
X88316628Y-65840978D01*
X88294757Y-66035963D01*
X87914587Y-66035963D01*
X87900712Y-65883500D01*
X87898423Y-65858342D01*
X87898422Y-65858339D01*
X87897864Y-65852203D01*
X87839698Y-65654572D01*
X87836555Y-65648559D01*
X87747109Y-65477467D01*
X87744252Y-65472002D01*
X87734382Y-65459725D01*
X87619028Y-65316254D01*
X87619028Y-65316253D01*
X87615163Y-65311447D01*
X87457348Y-65179024D01*
X87451950Y-65176056D01*
X87451945Y-65176053D01*
X87282213Y-65082743D01*
X87276816Y-65079776D01*
X87080446Y-65017484D01*
X87074329Y-65016798D01*
X87074325Y-65016797D01*
X86998104Y-65008248D01*
X86920114Y-64999500D01*
X85536978Y-64999500D01*
X85468857Y-64979498D01*
X85422364Y-64925842D01*
X85410978Y-64873500D01*
X85410978Y-64793973D01*
X92515417Y-64793973D01*
X92516581Y-64802875D01*
X92516581Y-64802878D01*
X92517719Y-64811579D01*
X92533077Y-64929028D01*
X92587933Y-65053698D01*
X92593710Y-65060571D01*
X92593711Y-65060572D01*
X92644835Y-65121391D01*
X92675575Y-65157961D01*
X92683052Y-65162938D01*
X92757699Y-65212627D01*
X92788958Y-65233435D01*
X92918966Y-65274052D01*
X93055148Y-65276548D01*
X93098313Y-65264780D01*
X93177895Y-65243084D01*
X93177898Y-65243083D01*
X93186557Y-65240722D01*
X93194207Y-65236025D01*
X93194209Y-65236024D01*
X93294977Y-65174153D01*
X93294980Y-65174150D01*
X93302629Y-65169454D01*
X93346134Y-65121391D01*
X93388004Y-65075133D01*
X93388005Y-65075132D01*
X93394032Y-65068473D01*
X93401191Y-65053698D01*
X93449505Y-64953977D01*
X93449505Y-64953976D01*
X93453420Y-64945896D01*
X93476018Y-64811579D01*
X93476161Y-64799842D01*
X93470905Y-64763143D01*
X93458125Y-64673899D01*
X93458124Y-64673896D01*
X93456852Y-64665013D01*
X93400477Y-64541022D01*
X93311567Y-64437838D01*
X93241020Y-64392111D01*
X93204803Y-64368636D01*
X93204801Y-64368635D01*
X93197272Y-64363755D01*
X93188675Y-64361184D01*
X93188673Y-64361183D01*
X93089558Y-64331542D01*
X93066777Y-64324729D01*
X93057801Y-64324674D01*
X93057800Y-64324674D01*
X93000807Y-64324326D01*
X92930575Y-64323897D01*
X92921943Y-64326364D01*
X92808244Y-64358859D01*
X92808242Y-64358860D01*
X92799613Y-64361326D01*
X92684421Y-64434007D01*
X92594258Y-64536097D01*
X92590444Y-64544220D01*
X92590443Y-64544222D01*
X92588108Y-64549196D01*
X92536372Y-64659390D01*
X92515417Y-64793973D01*
X85410978Y-64793973D01*
X85410978Y-64686500D01*
X85430980Y-64618379D01*
X85484636Y-64571886D01*
X85536978Y-64560500D01*
X86912819Y-64560500D01*
X87066008Y-64545480D01*
X87263229Y-64485935D01*
X87445129Y-64389218D01*
X87535076Y-64315859D01*
X87600003Y-64262906D01*
X87600006Y-64262903D01*
X87604778Y-64259011D01*
X87613430Y-64248553D01*
X87732167Y-64105025D01*
X87732169Y-64105021D01*
X87736096Y-64100275D01*
X87834081Y-63919055D01*
X87895001Y-63722254D01*
X87895900Y-63713705D01*
X87915891Y-63523498D01*
X87915891Y-63523496D01*
X87916535Y-63517369D01*
X87914587Y-63495963D01*
X88294757Y-63495963D01*
X88311175Y-63691483D01*
X88365258Y-63880091D01*
X88368076Y-63885574D01*
X88452123Y-64049113D01*
X88452126Y-64049117D01*
X88454944Y-64054601D01*
X88576818Y-64208369D01*
X88726238Y-64335535D01*
X88731616Y-64338541D01*
X88731618Y-64338542D01*
X88772130Y-64361183D01*
X88897513Y-64431257D01*
X89084118Y-64491889D01*
X89278946Y-64515121D01*
X89285081Y-64514649D01*
X89285083Y-64514649D01*
X89468434Y-64500541D01*
X89468438Y-64500540D01*
X89474576Y-64500068D01*
X89663556Y-64447303D01*
X89838689Y-64358837D01*
X89868515Y-64335535D01*
X89966461Y-64259011D01*
X89993303Y-64238040D01*
X90023084Y-64203539D01*
X90117485Y-64094173D01*
X90117485Y-64094172D01*
X90121509Y-64089511D01*
X90218425Y-63918909D01*
X90280358Y-63732732D01*
X90304949Y-63538071D01*
X90305238Y-63517369D01*
X90305292Y-63513523D01*
X90305292Y-63513519D01*
X90305341Y-63510000D01*
X90286194Y-63314728D01*
X90284413Y-63308829D01*
X90284412Y-63308824D01*
X90231265Y-63132793D01*
X90229484Y-63126894D01*
X90137370Y-62953653D01*
X90013361Y-62801602D01*
X89862180Y-62676535D01*
X89689585Y-62583213D01*
X89595868Y-62554203D01*
X89508039Y-62527015D01*
X89508036Y-62527014D01*
X89502152Y-62525193D01*
X89496027Y-62524549D01*
X89496026Y-62524549D01*
X89320796Y-62506131D01*
X92419646Y-62506131D01*
X92420810Y-62515033D01*
X92420810Y-62515036D01*
X92423677Y-62536957D01*
X92437306Y-62641186D01*
X92492162Y-62765856D01*
X92497939Y-62772729D01*
X92497940Y-62772730D01*
X92533881Y-62815487D01*
X92579804Y-62870119D01*
X92587281Y-62875096D01*
X92680726Y-62937298D01*
X92693187Y-62945593D01*
X92823195Y-62986210D01*
X92959377Y-62988706D01*
X93002542Y-62976938D01*
X93082124Y-62955242D01*
X93082127Y-62955241D01*
X93090786Y-62952880D01*
X93185118Y-62894961D01*
X93253634Y-62876364D01*
X93320863Y-62897450D01*
X93380726Y-62937298D01*
X93393187Y-62945593D01*
X93523195Y-62986210D01*
X93659377Y-62988706D01*
X93702542Y-62976938D01*
X93782124Y-62955242D01*
X93782127Y-62955241D01*
X93790786Y-62952880D01*
X93798436Y-62948183D01*
X93798438Y-62948182D01*
X93899206Y-62886311D01*
X93899209Y-62886308D01*
X93906858Y-62881612D01*
X93998261Y-62780631D01*
X94005420Y-62765856D01*
X94053734Y-62666135D01*
X94053734Y-62666134D01*
X94057649Y-62658054D01*
X94070660Y-62580721D01*
X94079441Y-62528530D01*
X94079441Y-62528525D01*
X94080247Y-62523737D01*
X94080390Y-62512000D01*
X94061081Y-62377171D01*
X94004706Y-62253180D01*
X93915796Y-62149996D01*
X93881119Y-62127519D01*
X93809032Y-62080794D01*
X93809030Y-62080793D01*
X93801501Y-62075913D01*
X93792904Y-62073342D01*
X93792902Y-62073341D01*
X93715973Y-62050335D01*
X93671006Y-62036887D01*
X93662030Y-62036832D01*
X93662029Y-62036832D01*
X93605036Y-62036484D01*
X93534804Y-62036055D01*
X93526172Y-62038522D01*
X93412473Y-62071017D01*
X93412471Y-62071018D01*
X93403842Y-62073484D01*
X93396250Y-62078274D01*
X93396246Y-62078276D01*
X93316887Y-62128348D01*
X93248602Y-62147783D01*
X93181119Y-62127519D01*
X93101501Y-62075913D01*
X93092904Y-62073342D01*
X93092902Y-62073341D01*
X93015973Y-62050335D01*
X92971006Y-62036887D01*
X92962030Y-62036832D01*
X92962029Y-62036832D01*
X92905036Y-62036484D01*
X92834804Y-62036055D01*
X92826172Y-62038522D01*
X92712473Y-62071017D01*
X92712471Y-62071018D01*
X92703842Y-62073484D01*
X92588650Y-62146165D01*
X92498487Y-62248255D01*
X92440601Y-62371548D01*
X92439221Y-62380412D01*
X92439220Y-62380415D01*
X92424662Y-62473919D01*
X92419646Y-62506131D01*
X89320796Y-62506131D01*
X89313147Y-62505327D01*
X89313146Y-62505327D01*
X89307019Y-62504683D01*
X89184383Y-62515844D01*
X89117759Y-62521907D01*
X89117758Y-62521907D01*
X89111618Y-62522466D01*
X89105704Y-62524207D01*
X89105702Y-62524207D01*
X89072208Y-62534065D01*
X88923393Y-62577864D01*
X88917928Y-62580721D01*
X88754972Y-62665912D01*
X88754968Y-62665915D01*
X88749512Y-62668767D01*
X88744712Y-62672627D01*
X88744711Y-62672627D01*
X88732043Y-62682812D01*
X88596600Y-62791711D01*
X88470480Y-62942016D01*
X88467516Y-62947408D01*
X88467513Y-62947412D01*
X88444812Y-62988706D01*
X88375956Y-63113954D01*
X88374095Y-63119821D01*
X88374094Y-63119823D01*
X88373577Y-63121452D01*
X88316628Y-63300978D01*
X88294757Y-63495963D01*
X87914587Y-63495963D01*
X87900712Y-63343500D01*
X87898423Y-63318342D01*
X87898422Y-63318339D01*
X87897864Y-63312203D01*
X87839698Y-63114572D01*
X87836555Y-63108559D01*
X87772677Y-62986374D01*
X87744252Y-62932002D01*
X87734382Y-62919725D01*
X87619028Y-62776254D01*
X87619028Y-62776253D01*
X87615163Y-62771447D01*
X87457348Y-62639024D01*
X87451950Y-62636056D01*
X87451945Y-62636053D01*
X87282213Y-62542743D01*
X87276816Y-62539776D01*
X87080446Y-62477484D01*
X87074329Y-62476798D01*
X87074325Y-62476797D01*
X86998104Y-62468248D01*
X86920114Y-62459500D01*
X85536978Y-62459500D01*
X85468857Y-62439498D01*
X85422364Y-62385842D01*
X85410978Y-62333500D01*
X85410978Y-62146500D01*
X85430980Y-62078379D01*
X85484636Y-62031886D01*
X85536978Y-62020500D01*
X86912819Y-62020500D01*
X87066008Y-62005480D01*
X87263229Y-61945935D01*
X87445129Y-61849218D01*
X87535076Y-61775859D01*
X87600003Y-61722906D01*
X87600006Y-61722903D01*
X87604778Y-61719011D01*
X87613430Y-61708553D01*
X87732167Y-61565025D01*
X87732169Y-61565021D01*
X87736096Y-61560275D01*
X87834081Y-61379055D01*
X87895001Y-61182254D01*
X87895900Y-61173705D01*
X87915891Y-60983498D01*
X87915891Y-60983496D01*
X87916535Y-60977369D01*
X87914587Y-60955963D01*
X88294757Y-60955963D01*
X88311175Y-61151483D01*
X88365258Y-61340091D01*
X88368076Y-61345574D01*
X88452123Y-61509113D01*
X88452126Y-61509117D01*
X88454944Y-61514601D01*
X88576818Y-61668369D01*
X88726238Y-61795535D01*
X88731616Y-61798541D01*
X88731618Y-61798542D01*
X88767932Y-61818837D01*
X88897513Y-61891257D01*
X89084118Y-61951889D01*
X89278946Y-61975121D01*
X89285081Y-61974649D01*
X89285083Y-61974649D01*
X89468434Y-61960541D01*
X89468438Y-61960540D01*
X89474576Y-61960068D01*
X89663556Y-61907303D01*
X89838689Y-61818837D01*
X89868515Y-61795535D01*
X89966461Y-61719011D01*
X89993303Y-61698040D01*
X90023084Y-61663539D01*
X90117485Y-61554173D01*
X90117485Y-61554172D01*
X90121509Y-61549511D01*
X90218425Y-61378909D01*
X90280358Y-61192732D01*
X90304949Y-60998071D01*
X90305238Y-60977369D01*
X90305292Y-60973523D01*
X90305292Y-60973519D01*
X90305341Y-60970000D01*
X90299709Y-60912562D01*
X90312968Y-60842814D01*
X90361831Y-60791307D01*
X90427416Y-60774287D01*
X90559377Y-60776706D01*
X90609298Y-60763096D01*
X90682124Y-60743242D01*
X90682127Y-60743241D01*
X90690786Y-60740880D01*
X90698436Y-60736183D01*
X90698438Y-60736182D01*
X90799206Y-60674311D01*
X90799209Y-60674308D01*
X90806858Y-60669612D01*
X90815064Y-60660547D01*
X90892233Y-60575291D01*
X90892234Y-60575290D01*
X90898261Y-60568631D01*
X90904611Y-60555526D01*
X90953734Y-60454135D01*
X90953734Y-60454134D01*
X90957649Y-60446054D01*
X90966385Y-60394131D01*
X95619646Y-60394131D01*
X95620810Y-60403033D01*
X95620810Y-60403036D01*
X95627492Y-60454135D01*
X95637306Y-60529186D01*
X95692162Y-60653856D01*
X95697939Y-60660729D01*
X95697940Y-60660730D01*
X95774024Y-60751243D01*
X95779804Y-60758119D01*
X95893187Y-60833593D01*
X96023195Y-60874210D01*
X96159377Y-60876706D01*
X96202542Y-60864938D01*
X96282124Y-60843242D01*
X96282127Y-60843241D01*
X96290786Y-60840880D01*
X96298436Y-60836183D01*
X96298438Y-60836182D01*
X96399206Y-60774311D01*
X96399209Y-60774308D01*
X96406858Y-60769612D01*
X96419986Y-60755109D01*
X96492233Y-60675291D01*
X96492234Y-60675290D01*
X96498261Y-60668631D01*
X96505420Y-60653856D01*
X96553734Y-60554135D01*
X96553734Y-60554134D01*
X96557649Y-60546054D01*
X96573114Y-60454135D01*
X96579441Y-60416530D01*
X96579441Y-60416525D01*
X96580247Y-60411737D01*
X96580390Y-60400000D01*
X96565379Y-60295183D01*
X96562354Y-60274057D01*
X96562353Y-60274054D01*
X96561081Y-60265171D01*
X96504706Y-60141180D01*
X96415796Y-60037996D01*
X96361408Y-60002743D01*
X96309032Y-59968794D01*
X96309030Y-59968793D01*
X96301501Y-59963913D01*
X96292904Y-59961342D01*
X96292902Y-59961341D01*
X96201207Y-59933919D01*
X96171006Y-59924887D01*
X96162030Y-59924832D01*
X96162029Y-59924832D01*
X96105036Y-59924484D01*
X96034804Y-59924055D01*
X96026172Y-59926522D01*
X95912473Y-59959017D01*
X95912471Y-59959018D01*
X95903842Y-59961484D01*
X95788650Y-60034165D01*
X95782707Y-60040894D01*
X95782706Y-60040895D01*
X95741202Y-60087889D01*
X95698487Y-60136255D01*
X95694673Y-60144378D01*
X95694672Y-60144380D01*
X95692337Y-60149354D01*
X95640601Y-60259548D01*
X95639221Y-60268412D01*
X95639220Y-60268415D01*
X95622629Y-60374975D01*
X95619646Y-60394131D01*
X90966385Y-60394131D01*
X90970118Y-60371941D01*
X90979441Y-60316530D01*
X90979441Y-60316525D01*
X90980247Y-60311737D01*
X90980390Y-60300000D01*
X90974150Y-60256430D01*
X90962354Y-60174057D01*
X90962353Y-60174054D01*
X90961081Y-60165171D01*
X90953890Y-60149354D01*
X90942829Y-60125027D01*
X90904706Y-60041180D01*
X90815796Y-59937996D01*
X90798094Y-59926522D01*
X90709032Y-59868794D01*
X90709030Y-59868793D01*
X90701501Y-59863913D01*
X90692904Y-59861342D01*
X90692902Y-59861341D01*
X90615973Y-59838335D01*
X90571006Y-59824887D01*
X90562030Y-59824832D01*
X90562029Y-59824832D01*
X90505036Y-59824484D01*
X90434804Y-59824055D01*
X90426172Y-59826522D01*
X90312473Y-59859017D01*
X90312471Y-59859018D01*
X90303842Y-59861484D01*
X90296252Y-59866273D01*
X90203355Y-59924887D01*
X90188650Y-59934165D01*
X90182707Y-59940894D01*
X90182706Y-59940895D01*
X90130704Y-59999776D01*
X90098487Y-60036255D01*
X90094672Y-60044380D01*
X90094671Y-60044382D01*
X90067567Y-60102112D01*
X90020511Y-60155275D01*
X89952183Y-60174557D01*
X89884277Y-60153838D01*
X89873197Y-60145649D01*
X89871663Y-60144380D01*
X89862180Y-60136535D01*
X89689585Y-60043213D01*
X89595869Y-60014203D01*
X89508039Y-59987015D01*
X89508036Y-59987014D01*
X89502152Y-59985193D01*
X89496027Y-59984549D01*
X89496026Y-59984549D01*
X89313147Y-59965327D01*
X89313146Y-59965327D01*
X89307019Y-59964683D01*
X89184383Y-59975844D01*
X89117759Y-59981907D01*
X89117758Y-59981907D01*
X89111618Y-59982466D01*
X89105704Y-59984207D01*
X89105702Y-59984207D01*
X89072208Y-59994065D01*
X88923393Y-60037864D01*
X88917928Y-60040721D01*
X88754972Y-60125912D01*
X88754968Y-60125915D01*
X88749512Y-60128767D01*
X88744712Y-60132627D01*
X88744711Y-60132627D01*
X88734073Y-60141180D01*
X88596600Y-60251711D01*
X88470480Y-60402016D01*
X88467516Y-60407408D01*
X88467513Y-60407412D01*
X88441827Y-60454135D01*
X88375956Y-60573954D01*
X88374095Y-60579821D01*
X88374094Y-60579823D01*
X88358146Y-60630098D01*
X88316628Y-60760978D01*
X88294757Y-60955963D01*
X87914587Y-60955963D01*
X87907147Y-60874210D01*
X87898423Y-60778342D01*
X87898422Y-60778339D01*
X87897864Y-60772203D01*
X87839698Y-60574572D01*
X87836555Y-60568559D01*
X87747109Y-60397467D01*
X87744252Y-60392002D01*
X87734382Y-60379725D01*
X87619028Y-60236254D01*
X87619028Y-60236253D01*
X87615163Y-60231447D01*
X87457348Y-60099024D01*
X87451950Y-60096056D01*
X87451945Y-60096053D01*
X87282213Y-60002743D01*
X87276816Y-59999776D01*
X87080446Y-59937484D01*
X87074329Y-59936798D01*
X87074325Y-59936797D01*
X86991079Y-59927460D01*
X86920114Y-59919500D01*
X85536978Y-59919500D01*
X85468857Y-59899498D01*
X85422364Y-59845842D01*
X85410978Y-59793500D01*
X85410978Y-59606500D01*
X85430980Y-59538379D01*
X85484636Y-59491886D01*
X85536978Y-59480500D01*
X86912819Y-59480500D01*
X87066008Y-59465480D01*
X87263229Y-59405935D01*
X87445129Y-59309218D01*
X87535076Y-59235859D01*
X87600003Y-59182906D01*
X87600006Y-59182903D01*
X87604778Y-59179011D01*
X87613430Y-59168553D01*
X87732167Y-59025025D01*
X87732169Y-59025021D01*
X87736096Y-59020275D01*
X87834081Y-58839055D01*
X87895001Y-58642254D01*
X87896355Y-58629374D01*
X87915891Y-58443498D01*
X87915891Y-58443496D01*
X87916535Y-58437369D01*
X87914587Y-58415963D01*
X88294757Y-58415963D01*
X88311175Y-58611483D01*
X88365258Y-58800091D01*
X88368076Y-58805574D01*
X88452123Y-58969113D01*
X88452126Y-58969117D01*
X88454944Y-58974601D01*
X88576818Y-59128369D01*
X88581511Y-59132363D01*
X88581512Y-59132364D01*
X88714607Y-59245636D01*
X88726238Y-59255535D01*
X88731616Y-59258541D01*
X88731618Y-59258542D01*
X88761587Y-59275291D01*
X88897513Y-59351257D01*
X89084118Y-59411889D01*
X89278946Y-59435121D01*
X89285081Y-59434649D01*
X89285083Y-59434649D01*
X89468434Y-59420541D01*
X89468438Y-59420540D01*
X89474576Y-59420068D01*
X89663556Y-59367303D01*
X89838689Y-59278837D01*
X89868515Y-59255535D01*
X89966461Y-59179011D01*
X89993303Y-59158040D01*
X90023084Y-59123539D01*
X90117485Y-59014173D01*
X90117485Y-59014172D01*
X90121509Y-59009511D01*
X90125188Y-59003036D01*
X90130247Y-58994131D01*
X91019646Y-58994131D01*
X91020810Y-59003033D01*
X91020810Y-59003036D01*
X91024450Y-59030873D01*
X91037306Y-59129186D01*
X91092162Y-59253856D01*
X91097939Y-59260729D01*
X91097940Y-59260730D01*
X91141130Y-59312111D01*
X91179804Y-59358119D01*
X91187281Y-59363096D01*
X91260582Y-59411889D01*
X91293187Y-59433593D01*
X91324072Y-59443242D01*
X91385765Y-59462516D01*
X91423195Y-59474210D01*
X91559377Y-59476706D01*
X91618259Y-59460653D01*
X91682124Y-59443242D01*
X91682127Y-59443241D01*
X91690786Y-59440880D01*
X91698436Y-59436183D01*
X91698438Y-59436182D01*
X91799206Y-59374311D01*
X91799209Y-59374308D01*
X91806858Y-59369612D01*
X91886512Y-59281612D01*
X91892233Y-59275291D01*
X91892234Y-59275290D01*
X91898261Y-59268631D01*
X91905420Y-59253856D01*
X91953734Y-59154135D01*
X91953734Y-59154134D01*
X91957649Y-59146054D01*
X91970118Y-59071941D01*
X91979441Y-59016530D01*
X91979441Y-59016525D01*
X91980247Y-59011737D01*
X91980390Y-59000000D01*
X91961081Y-58865171D01*
X91949141Y-58838909D01*
X91931491Y-58800091D01*
X91904706Y-58741180D01*
X91815796Y-58637996D01*
X91751776Y-58596500D01*
X91709032Y-58568794D01*
X91709030Y-58568793D01*
X91701501Y-58563913D01*
X91692904Y-58561342D01*
X91692902Y-58561341D01*
X91581990Y-58528172D01*
X91571006Y-58524887D01*
X91562030Y-58524832D01*
X91562029Y-58524832D01*
X91505036Y-58524484D01*
X91434804Y-58524055D01*
X91426172Y-58526522D01*
X91312473Y-58559017D01*
X91312471Y-58559018D01*
X91303842Y-58561484D01*
X91296252Y-58566273D01*
X91198743Y-58627797D01*
X91188650Y-58634165D01*
X91182707Y-58640894D01*
X91182706Y-58640895D01*
X91175364Y-58649208D01*
X91098487Y-58736255D01*
X91040601Y-58859548D01*
X91039221Y-58868412D01*
X91039220Y-58868415D01*
X91022687Y-58974601D01*
X91019646Y-58994131D01*
X90130247Y-58994131D01*
X90206700Y-58859548D01*
X90218425Y-58838909D01*
X90280358Y-58652732D01*
X90304949Y-58458071D01*
X90305238Y-58437369D01*
X90305292Y-58433523D01*
X90305292Y-58433519D01*
X90305341Y-58430000D01*
X90286194Y-58234728D01*
X90284413Y-58228829D01*
X90284412Y-58228824D01*
X90231265Y-58052793D01*
X90229484Y-58046894D01*
X90148258Y-57894131D01*
X93019646Y-57894131D01*
X93020810Y-57903033D01*
X93020810Y-57903036D01*
X93028476Y-57961658D01*
X93037306Y-58029186D01*
X93092162Y-58153856D01*
X93097939Y-58160729D01*
X93097940Y-58160730D01*
X93110180Y-58175291D01*
X93179804Y-58258119D01*
X93293187Y-58333593D01*
X93324072Y-58343242D01*
X93408478Y-58369612D01*
X93423195Y-58374210D01*
X93559377Y-58376706D01*
X93609298Y-58363096D01*
X93682124Y-58343242D01*
X93682127Y-58343241D01*
X93690786Y-58340880D01*
X93698436Y-58336183D01*
X93698438Y-58336182D01*
X93799206Y-58274311D01*
X93799209Y-58274308D01*
X93806858Y-58269612D01*
X93815064Y-58260547D01*
X93892233Y-58175291D01*
X93892234Y-58175290D01*
X93898261Y-58168631D01*
X93905285Y-58154135D01*
X93953734Y-58054135D01*
X93953734Y-58054134D01*
X93957649Y-58046054D01*
X93966385Y-57994131D01*
X95619646Y-57994131D01*
X95620810Y-58003033D01*
X95620810Y-58003036D01*
X95626545Y-58046894D01*
X95637306Y-58129186D01*
X95640923Y-58137406D01*
X95686445Y-58240862D01*
X95692162Y-58253856D01*
X95697939Y-58260729D01*
X95697940Y-58260730D01*
X95774024Y-58351243D01*
X95779804Y-58358119D01*
X95804224Y-58374374D01*
X95867512Y-58416502D01*
X95893187Y-58433593D01*
X95924072Y-58443242D01*
X95982753Y-58461575D01*
X96023195Y-58474210D01*
X96159377Y-58476706D01*
X96227730Y-58458071D01*
X96282124Y-58443242D01*
X96282127Y-58443241D01*
X96290786Y-58440880D01*
X96298436Y-58436183D01*
X96298438Y-58436182D01*
X96399206Y-58374311D01*
X96399209Y-58374308D01*
X96406858Y-58369612D01*
X96437118Y-58336182D01*
X96492233Y-58275291D01*
X96492234Y-58275290D01*
X96498261Y-58268631D01*
X96505420Y-58253856D01*
X96553734Y-58154135D01*
X96553734Y-58154134D01*
X96557649Y-58146054D01*
X96566552Y-58093138D01*
X97844758Y-58093138D01*
X97862035Y-58249633D01*
X97916143Y-58397490D01*
X97920380Y-58403796D01*
X97920382Y-58403799D01*
X97945300Y-58440880D01*
X98003958Y-58528172D01*
X98043237Y-58563913D01*
X98113445Y-58627797D01*
X98120410Y-58634135D01*
X98146202Y-58648139D01*
X98252099Y-58705637D01*
X98252101Y-58705638D01*
X98258776Y-58709262D01*
X98266125Y-58711190D01*
X98403719Y-58747287D01*
X98403721Y-58747287D01*
X98411069Y-58749215D01*
X98494380Y-58750524D01*
X98560898Y-58751569D01*
X98560901Y-58751569D01*
X98568495Y-58751688D01*
X98721968Y-58716538D01*
X98862625Y-58645795D01*
X98952782Y-58568794D01*
X98976574Y-58548474D01*
X98976576Y-58548471D01*
X98982348Y-58543542D01*
X99074224Y-58415683D01*
X99090856Y-58374311D01*
X99130114Y-58276652D01*
X99132950Y-58269598D01*
X99150592Y-58145636D01*
X99154553Y-58117807D01*
X99154553Y-58117804D01*
X99155134Y-58113723D01*
X99155278Y-58100000D01*
X99136363Y-57943694D01*
X99124288Y-57911737D01*
X99083394Y-57803514D01*
X99083393Y-57803511D01*
X99080710Y-57796412D01*
X98991531Y-57666657D01*
X98912828Y-57596535D01*
X98879648Y-57566972D01*
X98879645Y-57566970D01*
X98873976Y-57561919D01*
X98844013Y-57546054D01*
X98741543Y-57491799D01*
X98741544Y-57491799D01*
X98734831Y-57488245D01*
X98657393Y-57468794D01*
X98589498Y-57451740D01*
X98589496Y-57451740D01*
X98582128Y-57449889D01*
X98574530Y-57449849D01*
X98574528Y-57449849D01*
X98507319Y-57449497D01*
X98424684Y-57449065D01*
X98417305Y-57450837D01*
X98417301Y-57450837D01*
X98278967Y-57484048D01*
X98278963Y-57484049D01*
X98271588Y-57485820D01*
X98232213Y-57506143D01*
X98157320Y-57544798D01*
X98131679Y-57558032D01*
X98125957Y-57563024D01*
X98125955Y-57563025D01*
X98018759Y-57656538D01*
X98018756Y-57656541D01*
X98013034Y-57661533D01*
X97994798Y-57687480D01*
X97933951Y-57774057D01*
X97922501Y-57790348D01*
X97865309Y-57937039D01*
X97864318Y-57944568D01*
X97850070Y-58052793D01*
X97844758Y-58093138D01*
X96566552Y-58093138D01*
X96574332Y-58046894D01*
X96579441Y-58016530D01*
X96579441Y-58016525D01*
X96580247Y-58011737D01*
X96580390Y-58000000D01*
X96565379Y-57895183D01*
X96562354Y-57874057D01*
X96562353Y-57874054D01*
X96561081Y-57865171D01*
X96555094Y-57852002D01*
X96526974Y-57790157D01*
X96504706Y-57741180D01*
X96415796Y-57637996D01*
X96365393Y-57605326D01*
X96309032Y-57568794D01*
X96309030Y-57568793D01*
X96301501Y-57563913D01*
X96292904Y-57561342D01*
X96292902Y-57561341D01*
X96212867Y-57537406D01*
X96171006Y-57524887D01*
X96162030Y-57524832D01*
X96162029Y-57524832D01*
X96105036Y-57524484D01*
X96034804Y-57524055D01*
X96026172Y-57526522D01*
X95912473Y-57559017D01*
X95912471Y-57559018D01*
X95903842Y-57561484D01*
X95896252Y-57566273D01*
X95854484Y-57592627D01*
X95788650Y-57634165D01*
X95782707Y-57640894D01*
X95782706Y-57640895D01*
X95754425Y-57672917D01*
X95698487Y-57736255D01*
X95694673Y-57744378D01*
X95694672Y-57744380D01*
X95688746Y-57757002D01*
X95640601Y-57859548D01*
X95639221Y-57868412D01*
X95639220Y-57868415D01*
X95626108Y-57952631D01*
X95619646Y-57994131D01*
X93966385Y-57994131D01*
X93973602Y-57951234D01*
X93979441Y-57916530D01*
X93979441Y-57916525D01*
X93980247Y-57911737D01*
X93980390Y-57900000D01*
X93964687Y-57790348D01*
X93962354Y-57774057D01*
X93962353Y-57774054D01*
X93961081Y-57765171D01*
X93954749Y-57751243D01*
X93931986Y-57701180D01*
X93904706Y-57641180D01*
X93815796Y-57537996D01*
X93798094Y-57526522D01*
X93709032Y-57468794D01*
X93709030Y-57468793D01*
X93701501Y-57463913D01*
X93692904Y-57461342D01*
X93692902Y-57461341D01*
X93615973Y-57438335D01*
X93571006Y-57424887D01*
X93562030Y-57424832D01*
X93562029Y-57424832D01*
X93505036Y-57424484D01*
X93434804Y-57424055D01*
X93426172Y-57426522D01*
X93312473Y-57459017D01*
X93312471Y-57459018D01*
X93303842Y-57461484D01*
X93296252Y-57466273D01*
X93203355Y-57524887D01*
X93188650Y-57534165D01*
X93182707Y-57540894D01*
X93182706Y-57540895D01*
X93130096Y-57600465D01*
X93098487Y-57636255D01*
X93094673Y-57644378D01*
X93094672Y-57644380D01*
X93068005Y-57701180D01*
X93040601Y-57759548D01*
X93039221Y-57768412D01*
X93039220Y-57768415D01*
X93021986Y-57879104D01*
X93019646Y-57894131D01*
X90148258Y-57894131D01*
X90137370Y-57873653D01*
X90013361Y-57721602D01*
X89862180Y-57596535D01*
X89689585Y-57503213D01*
X89562627Y-57463913D01*
X89508039Y-57447015D01*
X89508036Y-57447014D01*
X89502152Y-57445193D01*
X89496027Y-57444549D01*
X89496026Y-57444549D01*
X89313147Y-57425327D01*
X89313146Y-57425327D01*
X89307019Y-57424683D01*
X89184383Y-57435844D01*
X89117759Y-57441907D01*
X89117758Y-57441907D01*
X89111618Y-57442466D01*
X89105704Y-57444207D01*
X89105702Y-57444207D01*
X89042723Y-57462743D01*
X88923393Y-57497864D01*
X88917928Y-57500721D01*
X88754972Y-57585912D01*
X88754968Y-57585915D01*
X88749512Y-57588767D01*
X88744712Y-57592627D01*
X88744711Y-57592627D01*
X88732043Y-57602812D01*
X88596600Y-57711711D01*
X88470480Y-57862016D01*
X88467516Y-57867408D01*
X88467513Y-57867412D01*
X88421432Y-57951234D01*
X88375956Y-58033954D01*
X88374095Y-58039821D01*
X88374094Y-58039823D01*
X88353693Y-58104134D01*
X88316628Y-58220978D01*
X88294757Y-58415963D01*
X87914587Y-58415963D01*
X87901696Y-58274311D01*
X87898423Y-58238342D01*
X87898422Y-58238339D01*
X87897864Y-58232203D01*
X87839698Y-58034572D01*
X87836555Y-58028559D01*
X87747109Y-57857467D01*
X87744252Y-57852002D01*
X87734382Y-57839725D01*
X87619028Y-57696254D01*
X87619028Y-57696253D01*
X87615163Y-57691447D01*
X87457348Y-57559024D01*
X87451950Y-57556056D01*
X87451945Y-57556053D01*
X87282213Y-57462743D01*
X87276816Y-57459776D01*
X87097948Y-57403036D01*
X87086319Y-57399347D01*
X87080446Y-57397484D01*
X87074329Y-57396798D01*
X87074325Y-57396797D01*
X87050556Y-57394131D01*
X90469149Y-57394131D01*
X90470313Y-57403033D01*
X90470313Y-57403036D01*
X90473217Y-57425242D01*
X90486809Y-57529186D01*
X90541665Y-57653856D01*
X90547442Y-57660729D01*
X90547443Y-57660730D01*
X90569929Y-57687480D01*
X90629307Y-57758119D01*
X90742690Y-57833593D01*
X90773575Y-57843242D01*
X90850939Y-57867412D01*
X90872698Y-57874210D01*
X91008880Y-57876706D01*
X91062763Y-57862016D01*
X91131627Y-57843242D01*
X91131630Y-57843241D01*
X91140289Y-57840880D01*
X91147939Y-57836183D01*
X91147941Y-57836182D01*
X91248709Y-57774311D01*
X91248712Y-57774308D01*
X91256361Y-57769612D01*
X91265471Y-57759548D01*
X91341736Y-57675291D01*
X91341737Y-57675290D01*
X91347764Y-57668631D01*
X91354923Y-57653856D01*
X91403237Y-57554135D01*
X91403237Y-57554134D01*
X91407152Y-57546054D01*
X91421380Y-57461484D01*
X91428944Y-57416530D01*
X91428944Y-57416525D01*
X91429750Y-57411737D01*
X91429893Y-57400000D01*
X91410584Y-57265171D01*
X91354209Y-57141180D01*
X91265299Y-57037996D01*
X91251997Y-57029374D01*
X91158535Y-56968794D01*
X91158533Y-56968793D01*
X91151004Y-56963913D01*
X91142407Y-56961342D01*
X91142405Y-56961341D01*
X91065476Y-56938335D01*
X91020509Y-56924887D01*
X91011533Y-56924832D01*
X91011532Y-56924832D01*
X90954539Y-56924484D01*
X90884307Y-56924055D01*
X90875675Y-56926522D01*
X90761976Y-56959017D01*
X90761974Y-56959018D01*
X90753345Y-56961484D01*
X90638153Y-57034165D01*
X90547990Y-57136255D01*
X90490104Y-57259548D01*
X90488724Y-57268412D01*
X90488723Y-57268415D01*
X90482896Y-57305842D01*
X90469149Y-57394131D01*
X87050556Y-57394131D01*
X86998104Y-57388248D01*
X86920114Y-57379500D01*
X85536978Y-57379500D01*
X85468857Y-57359498D01*
X85422364Y-57305842D01*
X85410978Y-57253500D01*
X85410978Y-55563822D01*
X90529500Y-55563822D01*
X90544657Y-55693828D01*
X90547153Y-55700705D01*
X90547154Y-55700708D01*
X90601872Y-55851452D01*
X90604369Y-55858331D01*
X90700323Y-56004685D01*
X90827372Y-56125040D01*
X90978702Y-56212939D01*
X91146193Y-56263667D01*
X91320862Y-56274503D01*
X91328078Y-56273263D01*
X91328080Y-56273263D01*
X91486125Y-56246106D01*
X91486127Y-56246105D01*
X91493340Y-56244866D01*
X91654373Y-56176346D01*
X91795324Y-56072617D01*
X91800063Y-56067039D01*
X91800066Y-56067036D01*
X91903893Y-55944824D01*
X91903896Y-55944820D01*
X91908632Y-55939245D01*
X91988219Y-55783384D01*
X92029815Y-55613394D01*
X92030500Y-55602352D01*
X92030500Y-54871003D01*
X92050502Y-54802882D01*
X92104158Y-54756389D01*
X92174432Y-54746285D01*
X92239012Y-54775779D01*
X92256461Y-54794298D01*
X92299549Y-54850451D01*
X92419767Y-54942698D01*
X92559764Y-55000687D01*
X92672280Y-55015500D01*
X92747720Y-55015500D01*
X92860236Y-55000687D01*
X93000233Y-54942698D01*
X93120451Y-54850451D01*
X93212698Y-54730233D01*
X93234371Y-54677910D01*
X93278920Y-54622629D01*
X93346283Y-54600208D01*
X93415074Y-54617766D01*
X93455359Y-54655849D01*
X93503958Y-54728172D01*
X93620410Y-54834135D01*
X93627085Y-54837759D01*
X93752099Y-54905637D01*
X93752101Y-54905638D01*
X93758776Y-54909262D01*
X93766125Y-54911190D01*
X93903719Y-54947287D01*
X93903721Y-54947287D01*
X93911069Y-54949215D01*
X93994380Y-54950524D01*
X94060898Y-54951569D01*
X94060901Y-54951569D01*
X94068495Y-54951688D01*
X94221968Y-54916538D01*
X94362625Y-54845795D01*
X94436179Y-54782974D01*
X94476574Y-54748474D01*
X94476576Y-54748471D01*
X94482348Y-54743542D01*
X94574224Y-54615683D01*
X94632950Y-54469598D01*
X94637162Y-54440000D01*
X97909534Y-54440000D01*
X97929313Y-54590236D01*
X97987302Y-54730233D01*
X98079549Y-54850451D01*
X98199767Y-54942698D01*
X98339764Y-55000687D01*
X98452280Y-55015500D01*
X98527720Y-55015500D01*
X98640236Y-55000687D01*
X98780233Y-54942698D01*
X98900451Y-54850451D01*
X98943538Y-54794299D01*
X99000876Y-54752432D01*
X99071747Y-54748210D01*
X99133649Y-54782974D01*
X99166931Y-54845687D01*
X99169500Y-54871003D01*
X99169500Y-55563822D01*
X99184657Y-55693828D01*
X99187153Y-55700705D01*
X99187154Y-55700708D01*
X99241872Y-55851452D01*
X99244369Y-55858331D01*
X99340323Y-56004685D01*
X99467372Y-56125040D01*
X99618702Y-56212939D01*
X99786193Y-56263667D01*
X99960862Y-56274503D01*
X99968078Y-56273263D01*
X99968080Y-56273263D01*
X100126125Y-56246106D01*
X100126127Y-56246105D01*
X100133340Y-56244866D01*
X100294373Y-56176346D01*
X100435324Y-56072617D01*
X100440063Y-56067039D01*
X100440066Y-56067036D01*
X100543893Y-55944824D01*
X100543896Y-55944820D01*
X100548632Y-55939245D01*
X100628219Y-55783384D01*
X100669815Y-55613394D01*
X100670500Y-55602352D01*
X100670500Y-54376178D01*
X100655343Y-54246172D01*
X100646198Y-54220976D01*
X100598128Y-54088548D01*
X100598127Y-54088546D01*
X100595631Y-54081669D01*
X100499677Y-53935315D01*
X100372628Y-53814960D01*
X100221298Y-53727061D01*
X100053807Y-53676333D01*
X99879138Y-53665497D01*
X99871922Y-53666737D01*
X99871920Y-53666737D01*
X99713875Y-53693894D01*
X99713873Y-53693895D01*
X99706660Y-53695134D01*
X99622985Y-53730738D01*
X99558840Y-53758032D01*
X99545627Y-53763654D01*
X99404676Y-53867383D01*
X99399937Y-53872961D01*
X99399934Y-53872964D01*
X99296107Y-53995176D01*
X99296104Y-53995180D01*
X99291368Y-54000755D01*
X99276665Y-54029549D01*
X99215654Y-54149030D01*
X99166860Y-54200603D01*
X99097930Y-54217609D01*
X99030749Y-54194648D01*
X98995116Y-54155604D01*
X98992698Y-54149767D01*
X98900451Y-54029549D01*
X98780233Y-53937302D01*
X98640236Y-53879313D01*
X98591654Y-53872917D01*
X98531807Y-53865038D01*
X98531806Y-53865038D01*
X98527720Y-53864500D01*
X98452280Y-53864500D01*
X98448194Y-53865038D01*
X98448193Y-53865038D01*
X98388346Y-53872917D01*
X98339764Y-53879313D01*
X98199767Y-53937302D01*
X98079549Y-54029549D01*
X97987302Y-54149767D01*
X97929313Y-54289764D01*
X97928235Y-54297952D01*
X97923725Y-54332210D01*
X97909534Y-54440000D01*
X94637162Y-54440000D01*
X94645246Y-54383203D01*
X94654553Y-54317807D01*
X94654553Y-54317804D01*
X94655134Y-54313723D01*
X94655278Y-54300000D01*
X94636363Y-54143694D01*
X94615525Y-54088548D01*
X94583394Y-54003514D01*
X94583393Y-54003511D01*
X94580710Y-53996412D01*
X94491531Y-53866657D01*
X94429381Y-53811283D01*
X94379648Y-53766972D01*
X94379645Y-53766970D01*
X94373976Y-53761919D01*
X94234831Y-53688245D01*
X94218122Y-53684048D01*
X94089498Y-53651740D01*
X94089496Y-53651740D01*
X94082128Y-53649889D01*
X94074530Y-53649849D01*
X94074528Y-53649849D01*
X94007319Y-53649497D01*
X93924684Y-53649065D01*
X93917305Y-53650837D01*
X93917301Y-53650837D01*
X93778967Y-53684048D01*
X93778963Y-53684049D01*
X93771588Y-53685820D01*
X93747990Y-53698000D01*
X93645511Y-53750893D01*
X93631679Y-53758032D01*
X93625957Y-53763024D01*
X93625955Y-53763025D01*
X93518759Y-53856538D01*
X93518756Y-53856541D01*
X93513034Y-53861533D01*
X93508667Y-53867747D01*
X93450245Y-53950873D01*
X93422501Y-53990348D01*
X93419740Y-53997430D01*
X93391829Y-54069018D01*
X93348449Y-54125220D01*
X93281570Y-54149047D01*
X93212426Y-54132934D01*
X93174474Y-54099953D01*
X93168771Y-54092520D01*
X93120451Y-54029549D01*
X93000233Y-53937302D01*
X92860236Y-53879313D01*
X92811654Y-53872917D01*
X92751807Y-53865038D01*
X92751806Y-53865038D01*
X92747720Y-53864500D01*
X92672280Y-53864500D01*
X92668194Y-53865038D01*
X92668193Y-53865038D01*
X92608346Y-53872917D01*
X92559764Y-53879313D01*
X92419767Y-53937302D01*
X92299549Y-54029549D01*
X92294523Y-54036099D01*
X92212333Y-54143211D01*
X92207302Y-54149767D01*
X92204142Y-54157396D01*
X92203694Y-54158172D01*
X92152311Y-54207164D01*
X92082597Y-54220599D01*
X92016686Y-54194211D01*
X91976137Y-54138162D01*
X91958127Y-54088546D01*
X91955631Y-54081669D01*
X91859677Y-53935315D01*
X91732628Y-53814960D01*
X91581298Y-53727061D01*
X91413807Y-53676333D01*
X91239138Y-53665497D01*
X91231922Y-53666737D01*
X91231920Y-53666737D01*
X91073875Y-53693894D01*
X91073873Y-53693895D01*
X91066660Y-53695134D01*
X90982985Y-53730738D01*
X90918840Y-53758032D01*
X90905627Y-53763654D01*
X90764676Y-53867383D01*
X90759937Y-53872961D01*
X90759934Y-53872964D01*
X90656107Y-53995176D01*
X90656104Y-53995180D01*
X90651368Y-54000755D01*
X90629024Y-54044513D01*
X90575655Y-54149030D01*
X90571781Y-54156616D01*
X90570042Y-54163721D01*
X90570041Y-54163725D01*
X90553308Y-54232111D01*
X90530185Y-54326606D01*
X90529500Y-54337648D01*
X90529500Y-55563822D01*
X85410978Y-55563822D01*
X85410978Y-54526500D01*
X85430980Y-54458379D01*
X85484636Y-54411886D01*
X85536978Y-54400500D01*
X86912819Y-54400500D01*
X87066008Y-54385480D01*
X87263229Y-54325935D01*
X87445129Y-54229218D01*
X87536460Y-54154730D01*
X87600003Y-54102906D01*
X87600006Y-54102903D01*
X87604778Y-54099011D01*
X87613434Y-54088548D01*
X87732167Y-53945025D01*
X87732169Y-53945021D01*
X87736096Y-53940275D01*
X87834081Y-53759055D01*
X87895001Y-53562254D01*
X87895900Y-53553705D01*
X87915891Y-53363498D01*
X87915891Y-53363496D01*
X87916535Y-53357369D01*
X87900712Y-53183500D01*
X87898423Y-53158342D01*
X87898422Y-53158339D01*
X87897864Y-53152203D01*
X87839698Y-52954572D01*
X87744252Y-52772002D01*
X87734382Y-52759725D01*
X87619028Y-52616254D01*
X87619028Y-52616253D01*
X87615163Y-52611447D01*
X87457348Y-52479024D01*
X87451950Y-52476056D01*
X87451945Y-52476053D01*
X87282213Y-52382743D01*
X87276816Y-52379776D01*
X87080446Y-52317484D01*
X87074329Y-52316798D01*
X87074325Y-52316797D01*
X86998104Y-52308248D01*
X86920114Y-52299500D01*
X85536978Y-52299500D01*
X85468857Y-52279498D01*
X85422364Y-52225842D01*
X85410978Y-52173500D01*
X85410978Y-51986500D01*
X85430980Y-51918379D01*
X85484636Y-51871886D01*
X85536978Y-51860500D01*
X86912819Y-51860500D01*
X87066008Y-51845480D01*
X87263229Y-51785935D01*
X87445129Y-51689218D01*
X87535076Y-51615859D01*
X87600003Y-51562906D01*
X87600006Y-51562903D01*
X87604778Y-51559011D01*
X87613430Y-51548553D01*
X87732167Y-51405025D01*
X87732169Y-51405021D01*
X87736096Y-51400275D01*
X87834081Y-51219055D01*
X87895001Y-51022254D01*
X87895900Y-51013705D01*
X87915891Y-50823498D01*
X87915891Y-50823496D01*
X87916535Y-50817369D01*
X87900712Y-50643500D01*
X87898423Y-50618342D01*
X87898422Y-50618339D01*
X87897864Y-50612203D01*
X87839698Y-50414572D01*
X87744252Y-50232002D01*
X87734382Y-50219725D01*
X87619028Y-50076254D01*
X87619028Y-50076253D01*
X87615163Y-50071447D01*
X87457348Y-49939024D01*
X87451950Y-49936056D01*
X87451945Y-49936053D01*
X87282213Y-49842743D01*
X87276816Y-49839776D01*
X87170660Y-49806102D01*
X87111777Y-49766439D01*
X87083685Y-49701237D01*
X87095302Y-49631197D01*
X87142942Y-49578557D01*
X87208760Y-49560000D01*
X90930825Y-49560000D01*
X90998946Y-49580002D01*
G37*
G04 #@! TD.AperFunction*
M02*
