%FSLAX45Y45*%
G04 Gerber Fmt 4.5, Leading zero omitted, Abs format (unit mm)*
G04 Created by KiCad (PCBNEW 6.0.1-79c1e3a40b~116~ubuntu20.04.1) date 2022-07-08 20:06:53*
%MOMM*%
%LPD*%
G01*
G04 APERTURE LIST*
%TA.AperFunction,Profile*%
%ADD10C,0.100000*%
%TD*%
%ADD11C,0.200000*%
%ADD12C,0.020000*%
%ADD13C,0.040000*%
%ADD14C,0.060000*%
%ADD15C,0.100000*%
G04 APERTURE END LIST*
D10*
X8516098Y-10031000D02*
X10616098Y-10031000D01*
X10616098Y-10031000D02*
X10616098Y-4931000D01*
X10616098Y-4931000D02*
X8516098Y-4931000D01*
X8516098Y-4931000D02*
X8516098Y-10031000D01*
D11*
D12*
X8810000Y-7090000D02*
X8830000Y-7110000D01*
X8830000Y-7090000D02*
X8810000Y-7110000D01*
X8830000Y-7540000D02*
X8850000Y-7560000D01*
X8850000Y-7540000D02*
X8830000Y-7560000D01*
X8870000Y-7820000D02*
X8890000Y-7840000D01*
X8890000Y-7820000D02*
X8870000Y-7840000D01*
X8890000Y-7900000D02*
X8910000Y-7920000D01*
X8910000Y-7900000D02*
X8890000Y-7920000D01*
X8894715Y-7043445D02*
X8914715Y-7063445D01*
X8914715Y-7043445D02*
X8894715Y-7063445D01*
X8946555Y-7095285D02*
X8966555Y-7115285D01*
X8966555Y-7095285D02*
X8946555Y-7115285D01*
X8970000Y-7900000D02*
X8990000Y-7920000D01*
X8990000Y-7900000D02*
X8970000Y-7920000D01*
X8990000Y-7520000D02*
X9010000Y-7540000D01*
X9010000Y-7520000D02*
X8990000Y-7540000D01*
X9016098Y-5041000D02*
X9036098Y-5061000D01*
X9036098Y-5041000D02*
X9016098Y-5061000D01*
X9020000Y-5720000D02*
X9040000Y-5740000D01*
X9040000Y-5720000D02*
X9020000Y-5740000D01*
X9030320Y-5939680D02*
X9050320Y-5959680D01*
X9050320Y-5939680D02*
X9030320Y-5959680D01*
X9040000Y-6020000D02*
X9060000Y-6040000D01*
X9060000Y-6020000D02*
X9040000Y-6040000D01*
X9040000Y-9020000D02*
X9060000Y-9040000D01*
X9060000Y-9020000D02*
X9040000Y-9040000D01*
X9050000Y-7590000D02*
X9070000Y-7610000D01*
X9070000Y-7590000D02*
X9050000Y-7610000D01*
X9070000Y-7500000D02*
X9090000Y-7520000D01*
X9090000Y-7500000D02*
X9070000Y-7520000D01*
X9084950Y-5730000D02*
X9104950Y-5750000D01*
X9104950Y-5730000D02*
X9084950Y-5750000D01*
X9110000Y-8960000D02*
X9130000Y-8980000D01*
X9130000Y-8960000D02*
X9110000Y-8980000D01*
X9117134Y-7265099D02*
X9137134Y-7285099D01*
X9137134Y-7265099D02*
X9117134Y-7285099D01*
X9140000Y-5890000D02*
X9160000Y-5910000D01*
X9160000Y-5890000D02*
X9140000Y-5910000D01*
X9140000Y-5960000D02*
X9160000Y-5980000D01*
X9160000Y-5960000D02*
X9140000Y-5980000D01*
X9151579Y-7529900D02*
X9171579Y-7549900D01*
X9171579Y-7529900D02*
X9151579Y-7549900D01*
X9160000Y-6790000D02*
X9180000Y-6810000D01*
X9180000Y-6790000D02*
X9160000Y-6810000D01*
X9160000Y-6860000D02*
X9180000Y-6880000D01*
X9180000Y-6860000D02*
X9160000Y-6880000D01*
X9160592Y-7594222D02*
X9180592Y-7614222D01*
X9180592Y-7594222D02*
X9160592Y-7614222D01*
X9162535Y-7670644D02*
X9182535Y-7690644D01*
X9182535Y-7670644D02*
X9162535Y-7690644D01*
X9170000Y-7420000D02*
X9190000Y-7440000D01*
X9190000Y-7420000D02*
X9170000Y-7440000D01*
X9200000Y-6240000D02*
X9220000Y-6260000D01*
X9220000Y-6240000D02*
X9200000Y-6260000D01*
X9200000Y-6670000D02*
X9220000Y-6690000D01*
X9220000Y-6670000D02*
X9200000Y-6690000D01*
X9218734Y-8260353D02*
X9238734Y-8280353D01*
X9238734Y-8260353D02*
X9218734Y-8280353D01*
X9230000Y-6610000D02*
X9250000Y-6630000D01*
X9250000Y-6610000D02*
X9230000Y-6630000D01*
X9231561Y-7251561D02*
X9251561Y-7271561D01*
X9251561Y-7251561D02*
X9231561Y-7271561D01*
X9255100Y-7751822D02*
X9275100Y-7771822D01*
X9275100Y-7751822D02*
X9255100Y-7771822D01*
X9260000Y-7670000D02*
X9280000Y-7690000D01*
X9280000Y-7670000D02*
X9260000Y-7690000D01*
X9280000Y-6241200D02*
X9300000Y-6261200D01*
X9300000Y-6241200D02*
X9280000Y-6261200D01*
X9289577Y-6469984D02*
X9309577Y-6489984D01*
X9309577Y-6469984D02*
X9289577Y-6489984D01*
X9290000Y-7510000D02*
X9310000Y-7530000D01*
X9310000Y-7510000D02*
X9290000Y-7530000D01*
X9294862Y-7322468D02*
X9314862Y-7342468D01*
X9314862Y-7322468D02*
X9294862Y-7342468D01*
X9295320Y-6534680D02*
X9315320Y-6554680D01*
X9315320Y-6534680D02*
X9295320Y-6554680D01*
X9308405Y-7187952D02*
X9328405Y-7207952D01*
X9328405Y-7187952D02*
X9308405Y-7207952D01*
X9315000Y-6040000D02*
X9335000Y-6060000D01*
X9335000Y-6040000D02*
X9315000Y-6060000D01*
X9330650Y-7655925D02*
X9350650Y-7675925D01*
X9350650Y-7655925D02*
X9330650Y-7675925D01*
X9340000Y-5780000D02*
X9360000Y-5800000D01*
X9360000Y-5780000D02*
X9340000Y-5800000D01*
X9340000Y-7570000D02*
X9360000Y-7590000D01*
X9360000Y-7570000D02*
X9340000Y-7590000D01*
X9350000Y-6241200D02*
X9370000Y-6261200D01*
X9370000Y-6241200D02*
X9350000Y-6261200D01*
X9350000Y-7770000D02*
X9370000Y-7790000D01*
X9370000Y-7770000D02*
X9350000Y-7790000D01*
X9354950Y-7847115D02*
X9374950Y-7867115D01*
X9374950Y-7847115D02*
X9354950Y-7867115D01*
X9380000Y-7210000D02*
X9400000Y-7230000D01*
X9400000Y-7210000D02*
X9380000Y-7230000D01*
X9380000Y-7340000D02*
X9400000Y-7360000D01*
X9400000Y-7340000D02*
X9380000Y-7360000D01*
X9410000Y-7130000D02*
X9430000Y-7150000D01*
X9430000Y-7130000D02*
X9410000Y-7150000D01*
X9420000Y-6240000D02*
X9440000Y-6260000D01*
X9440000Y-6240000D02*
X9420000Y-6260000D01*
X9421168Y-7741842D02*
X9441168Y-7761842D01*
X9441168Y-7741842D02*
X9421168Y-7761842D01*
X9430000Y-7270000D02*
X9450000Y-7290000D01*
X9450000Y-7270000D02*
X9430000Y-7290000D01*
X9440000Y-9460000D02*
X9460000Y-9480000D01*
X9460000Y-9460000D02*
X9440000Y-9480000D01*
X9450000Y-7920000D02*
X9470000Y-7940000D01*
X9470000Y-7920000D02*
X9450000Y-7940000D01*
X9460000Y-7840000D02*
X9480000Y-7860000D01*
X9480000Y-7840000D02*
X9460000Y-7860000D01*
X9520050Y-6520000D02*
X9540050Y-6540000D01*
X9540050Y-6520000D02*
X9520050Y-6540000D01*
X9570000Y-9460000D02*
X9590000Y-9480000D01*
X9590000Y-9460000D02*
X9570000Y-9480000D01*
X9600000Y-5790000D02*
X9620000Y-5810000D01*
X9620000Y-5790000D02*
X9600000Y-5810000D01*
X9600000Y-6030000D02*
X9620000Y-6050000D01*
X9620000Y-6030000D02*
X9600000Y-6050000D01*
X9644483Y-7700000D02*
X9664483Y-7720000D01*
X9664483Y-7700000D02*
X9644483Y-7720000D01*
X9664950Y-6970000D02*
X9684950Y-6990000D01*
X9684950Y-6970000D02*
X9664950Y-6990000D01*
X9672276Y-7382916D02*
X9692276Y-7402916D01*
X9692276Y-7382916D02*
X9672276Y-7402916D01*
X9690000Y-8280000D02*
X9710000Y-8300000D01*
X9710000Y-8280000D02*
X9690000Y-8300000D01*
X9690000Y-8530000D02*
X9710000Y-8550000D01*
X9710000Y-8530000D02*
X9690000Y-8550000D01*
X9700000Y-7090000D02*
X9720000Y-7110000D01*
X9720000Y-7090000D02*
X9700000Y-7110000D01*
X9730000Y-7840000D02*
X9750000Y-7860000D01*
X9750000Y-7840000D02*
X9730000Y-7860000D01*
X9740000Y-6450000D02*
X9760000Y-6470000D01*
X9760000Y-6450000D02*
X9740000Y-6470000D01*
X9740000Y-7430000D02*
X9760000Y-7450000D01*
X9760000Y-7430000D02*
X9740000Y-7450000D01*
X9770000Y-7050000D02*
X9790000Y-7070000D01*
X9790000Y-7050000D02*
X9770000Y-7070000D01*
X9785878Y-7775050D02*
X9805878Y-7795050D01*
X9805878Y-7775050D02*
X9785878Y-7795050D01*
X9805000Y-8915000D02*
X9825000Y-8935000D01*
X9825000Y-8915000D02*
X9805000Y-8935000D01*
X9810000Y-6360000D02*
X9830000Y-6380000D01*
X9830000Y-6360000D02*
X9810000Y-6380000D01*
X9810000Y-6540000D02*
X9830000Y-6560000D01*
X9830000Y-6540000D02*
X9810000Y-6560000D01*
X9810000Y-8260000D02*
X9830000Y-8280000D01*
X9830000Y-8260000D02*
X9810000Y-8280000D01*
X9810000Y-8360000D02*
X9830000Y-8380000D01*
X9830000Y-8360000D02*
X9810000Y-8380000D01*
X9810000Y-8460000D02*
X9830000Y-8480000D01*
X9830000Y-8460000D02*
X9810000Y-8480000D01*
X9810000Y-8560000D02*
X9830000Y-8580000D01*
X9830000Y-8560000D02*
X9810000Y-8580000D01*
X9810000Y-8660000D02*
X9830000Y-8680000D01*
X9830000Y-8660000D02*
X9810000Y-8680000D01*
X9820000Y-7330000D02*
X9840000Y-7350000D01*
X9840000Y-7330000D02*
X9820000Y-7350000D01*
X9820000Y-9092499D02*
X9840000Y-9112499D01*
X9840000Y-9092499D02*
X9820000Y-9112499D01*
X9827119Y-7102909D02*
X9847119Y-7122909D01*
X9847119Y-7102909D02*
X9827119Y-7122909D01*
X9830000Y-7189950D02*
X9850000Y-7209950D01*
X9850000Y-7189950D02*
X9830000Y-7209950D01*
X9836098Y-7711000D02*
X9856098Y-7731000D01*
X9856098Y-7711000D02*
X9836098Y-7731000D01*
X9870000Y-8740000D02*
X9890000Y-8760000D01*
X9890000Y-8740000D02*
X9870000Y-8760000D01*
X9870000Y-8820000D02*
X9890000Y-8840000D01*
X9890000Y-8820000D02*
X9870000Y-8840000D01*
X9900000Y-7280000D02*
X9920000Y-7300000D01*
X9920000Y-7280000D02*
X9900000Y-7300000D01*
X9902948Y-7635466D02*
X9922948Y-7655466D01*
X9922948Y-7635466D02*
X9902948Y-7655466D01*
X9910000Y-7197908D02*
X9930000Y-7217908D01*
X9930000Y-7197908D02*
X9910000Y-7217908D01*
X9913000Y-8660000D02*
X9933000Y-8680000D01*
X9933000Y-8660000D02*
X9913000Y-8680000D01*
X9920000Y-7730000D02*
X9940000Y-7750000D01*
X9940000Y-7730000D02*
X9920000Y-7750000D01*
X9942931Y-6898990D02*
X9962931Y-6918990D01*
X9962931Y-6898990D02*
X9942931Y-6918990D01*
X9950000Y-9330000D02*
X9970000Y-9350000D01*
X9970000Y-9330000D02*
X9950000Y-9350000D01*
X9956054Y-9500000D02*
X9976054Y-9520000D01*
X9976054Y-9500000D02*
X9956054Y-9520000D01*
X9959107Y-7526050D02*
X9979107Y-7546050D01*
X9979107Y-7526050D02*
X9959107Y-7546050D01*
X9990000Y-8740000D02*
X10010000Y-8760000D01*
X10010000Y-8740000D02*
X9990000Y-8760000D01*
X9994496Y-7471587D02*
X10014496Y-7491587D01*
X10014496Y-7471587D02*
X9994496Y-7491587D01*
X10000000Y-6930000D02*
X10020000Y-6950000D01*
X10020000Y-6930000D02*
X10000000Y-6950000D01*
X10016098Y-6711000D02*
X10036098Y-6731000D01*
X10036098Y-6711000D02*
X10016098Y-6731000D01*
X10023098Y-8333000D02*
X10043098Y-8353000D01*
X10043098Y-8333000D02*
X10023098Y-8353000D01*
X10060000Y-9410000D02*
X10080000Y-9430000D01*
X10080000Y-9410000D02*
X10060000Y-9430000D01*
X10067070Y-7592603D02*
X10087070Y-7612603D01*
X10087070Y-7592603D02*
X10067070Y-7612603D01*
X10090000Y-7020000D02*
X10110000Y-7040000D01*
X10110000Y-7020000D02*
X10090000Y-7040000D01*
X10110000Y-5040000D02*
X10130000Y-5060000D01*
X10130000Y-5040000D02*
X10110000Y-5060000D01*
X10110000Y-8020000D02*
X10130000Y-8040000D01*
X10130000Y-8020000D02*
X10110000Y-8040000D01*
X10110000Y-8740000D02*
X10130000Y-8760000D01*
X10130000Y-8740000D02*
X10110000Y-8760000D01*
X10111098Y-7544852D02*
X10131098Y-7564852D01*
X10131098Y-7544852D02*
X10111098Y-7564852D01*
X10130000Y-6760000D02*
X10150000Y-6780000D01*
X10150000Y-6760000D02*
X10130000Y-6780000D01*
X10148644Y-6980000D02*
X10168644Y-7000000D01*
X10168644Y-6980000D02*
X10148644Y-7000000D01*
X10150000Y-8140000D02*
X10170000Y-8160000D01*
X10170000Y-8140000D02*
X10150000Y-8160000D01*
X10150000Y-8260000D02*
X10170000Y-8280000D01*
X10170000Y-8260000D02*
X10150000Y-8280000D01*
X10150000Y-8360000D02*
X10170000Y-8380000D01*
X10170000Y-8360000D02*
X10150000Y-8380000D01*
X10150000Y-8460000D02*
X10170000Y-8480000D01*
X10170000Y-8460000D02*
X10150000Y-8480000D01*
X10150000Y-8560000D02*
X10170000Y-8580000D01*
X10170000Y-8560000D02*
X10150000Y-8580000D01*
X10150000Y-8660000D02*
X10170000Y-8680000D01*
X10170000Y-8660000D02*
X10150000Y-8680000D01*
X10166010Y-9591088D02*
X10186010Y-9611088D01*
X10186010Y-9591088D02*
X10166010Y-9611088D01*
X10179003Y-7110223D02*
X10199003Y-7130223D01*
X10199003Y-7110223D02*
X10179003Y-7130223D01*
X10230238Y-7069762D02*
X10250238Y-7089762D01*
X10250238Y-7069762D02*
X10230238Y-7089762D01*
X10280000Y-7840000D02*
X10300000Y-7860000D01*
X10300000Y-7840000D02*
X10280000Y-7860000D01*
X10370000Y-7740000D02*
X10390000Y-7760000D01*
X10390000Y-7740000D02*
X10370000Y-7760000D01*
D13*
X9249336Y-5688204D02*
G75*
G03*
X9249336Y-5688204I-20000J0D01*
G01*
X9420000Y-5430000D02*
G75*
G03*
X9420000Y-5430000I-20000J0D01*
G01*
X9870000Y-5810000D02*
G75*
G03*
X9870000Y-5810000I-20000J0D01*
G01*
X9960000Y-5670000D02*
G75*
G03*
X9960000Y-5670000I-20000J0D01*
G01*
X10272450Y-5620000D02*
G75*
G03*
X10272450Y-5620000I-20000J0D01*
G01*
D14*
X9128000Y-5049000D02*
X9128000Y-5109000D01*
X9098000Y-5079000D02*
X9158000Y-5079000D01*
D11*
X9148000Y-5109000D02*
X9148000Y-5049000D01*
X9108000Y-5109000D02*
X9108000Y-5049000D01*
X9148000Y-5049000D02*
G75*
G03*
X9108000Y-5049000I-20000J0D01*
G01*
X9108000Y-5109000D02*
G75*
G03*
X9148000Y-5109000I20000J0D01*
G01*
D14*
X9128000Y-5467000D02*
X9128000Y-5527000D01*
X9098000Y-5497000D02*
X9158000Y-5497000D01*
D11*
X9148000Y-5552000D02*
X9148000Y-5442000D01*
X9108000Y-5552000D02*
X9108000Y-5442000D01*
X9148000Y-5442000D02*
G75*
G03*
X9108000Y-5442000I-20000J0D01*
G01*
X9108000Y-5552000D02*
G75*
G03*
X9148000Y-5552000I20000J0D01*
G01*
D14*
X9992000Y-5049000D02*
X9992000Y-5109000D01*
X9962000Y-5079000D02*
X10022000Y-5079000D01*
D11*
X10012000Y-5109000D02*
X10012000Y-5049000D01*
X9972000Y-5109000D02*
X9972000Y-5049000D01*
X10012000Y-5049000D02*
G75*
G03*
X9972000Y-5049000I-20000J0D01*
G01*
X9972000Y-5109000D02*
G75*
G03*
X10012000Y-5109000I20000J0D01*
G01*
D14*
X9992000Y-5467000D02*
X9992000Y-5527000D01*
X9962000Y-5497000D02*
X10022000Y-5497000D01*
D11*
X10012000Y-5552000D02*
X10012000Y-5442000D01*
X9972000Y-5552000D02*
X9972000Y-5442000D01*
X10012000Y-5442000D02*
G75*
G03*
X9972000Y-5442000I-20000J0D01*
G01*
X9972000Y-5552000D02*
G75*
G03*
X10012000Y-5552000I20000J0D01*
G01*
D15*
X8551454Y-5116356D02*
X8551454Y-5045644D01*
X8480742Y-5045644D01*
X8480742Y-5116356D01*
X8551454Y-5116356D01*
X8551454Y-5370356D02*
X8551454Y-5299644D01*
X8480742Y-5299644D01*
X8480742Y-5370356D01*
X8551454Y-5370356D01*
X8551454Y-5624356D02*
X8551454Y-5553644D01*
X8480742Y-5553644D01*
X8480742Y-5624356D01*
X8551454Y-5624356D01*
X8551454Y-5878356D02*
X8551454Y-5807644D01*
X8480742Y-5807644D01*
X8480742Y-5878356D01*
X8551454Y-5878356D01*
X8551454Y-6132356D02*
X8551454Y-6061644D01*
X8480742Y-6061644D01*
X8480742Y-6132356D01*
X8551454Y-6132356D01*
X8551454Y-6386356D02*
X8551454Y-6315644D01*
X8480742Y-6315644D01*
X8480742Y-6386356D01*
X8551454Y-6386356D01*
X8551454Y-6640356D02*
X8551454Y-6569644D01*
X8480742Y-6569644D01*
X8480742Y-6640356D01*
X8551454Y-6640356D01*
X8551454Y-6894356D02*
X8551454Y-6823644D01*
X8480742Y-6823644D01*
X8480742Y-6894356D01*
X8551454Y-6894356D01*
X8551454Y-7148356D02*
X8551454Y-7077644D01*
X8480742Y-7077644D01*
X8480742Y-7148356D01*
X8551454Y-7148356D01*
X8551454Y-7402356D02*
X8551454Y-7331644D01*
X8480742Y-7331644D01*
X8480742Y-7402356D01*
X8551454Y-7402356D01*
X8551454Y-7656356D02*
X8551454Y-7585644D01*
X8480742Y-7585644D01*
X8480742Y-7656356D01*
X8551454Y-7656356D01*
X8551454Y-7910356D02*
X8551454Y-7839644D01*
X8480742Y-7839644D01*
X8480742Y-7910356D01*
X8551454Y-7910356D01*
X8551454Y-8164356D02*
X8551454Y-8093644D01*
X8480742Y-8093644D01*
X8480742Y-8164356D01*
X8551454Y-8164356D01*
X8551454Y-8418356D02*
X8551454Y-8347644D01*
X8480742Y-8347644D01*
X8480742Y-8418356D01*
X8551454Y-8418356D01*
X8551454Y-8672356D02*
X8551454Y-8601644D01*
X8480742Y-8601644D01*
X8480742Y-8672356D01*
X8551454Y-8672356D01*
X8551454Y-8926356D02*
X8551454Y-8855644D01*
X8480742Y-8855644D01*
X8480742Y-8926356D01*
X8551454Y-8926356D01*
X8551454Y-9180356D02*
X8551454Y-9109644D01*
X8480742Y-9109644D01*
X8480742Y-9180356D01*
X8551454Y-9180356D01*
X8551454Y-9434356D02*
X8551454Y-9363644D01*
X8480742Y-9363644D01*
X8480742Y-9434356D01*
X8551454Y-9434356D01*
X8551454Y-9688356D02*
X8551454Y-9617644D01*
X8480742Y-9617644D01*
X8480742Y-9688356D01*
X8551454Y-9688356D01*
X8551454Y-9942356D02*
X8551454Y-9871644D01*
X8480742Y-9871644D01*
X8480742Y-9942356D01*
X8551454Y-9942356D01*
X8721454Y-5116356D02*
X8721454Y-5045644D01*
X8650742Y-5045644D01*
X8650742Y-5116356D01*
X8721454Y-5116356D01*
X8721454Y-5370356D02*
X8721454Y-5299644D01*
X8650742Y-5299644D01*
X8650742Y-5370356D01*
X8721454Y-5370356D01*
X8721454Y-5624356D02*
X8721454Y-5553644D01*
X8650742Y-5553644D01*
X8650742Y-5624356D01*
X8721454Y-5624356D01*
X8721454Y-5878356D02*
X8721454Y-5807644D01*
X8650742Y-5807644D01*
X8650742Y-5878356D01*
X8721454Y-5878356D01*
X8721454Y-6132356D02*
X8721454Y-6061644D01*
X8650742Y-6061644D01*
X8650742Y-6132356D01*
X8721454Y-6132356D01*
X8721454Y-6386356D02*
X8721454Y-6315644D01*
X8650742Y-6315644D01*
X8650742Y-6386356D01*
X8721454Y-6386356D01*
X8721454Y-6640356D02*
X8721454Y-6569644D01*
X8650742Y-6569644D01*
X8650742Y-6640356D01*
X8721454Y-6640356D01*
X8721454Y-6894356D02*
X8721454Y-6823644D01*
X8650742Y-6823644D01*
X8650742Y-6894356D01*
X8721454Y-6894356D01*
X8721454Y-7148356D02*
X8721454Y-7077644D01*
X8650742Y-7077644D01*
X8650742Y-7148356D01*
X8721454Y-7148356D01*
X8721454Y-7402356D02*
X8721454Y-7331644D01*
X8650742Y-7331644D01*
X8650742Y-7402356D01*
X8721454Y-7402356D01*
X8721454Y-7656356D02*
X8721454Y-7585644D01*
X8650742Y-7585644D01*
X8650742Y-7656356D01*
X8721454Y-7656356D01*
X8721454Y-7910356D02*
X8721454Y-7839644D01*
X8650742Y-7839644D01*
X8650742Y-7910356D01*
X8721454Y-7910356D01*
X8721454Y-8164356D02*
X8721454Y-8093644D01*
X8650742Y-8093644D01*
X8650742Y-8164356D01*
X8721454Y-8164356D01*
X8721454Y-8418356D02*
X8721454Y-8347644D01*
X8650742Y-8347644D01*
X8650742Y-8418356D01*
X8721454Y-8418356D01*
X8721454Y-8672356D02*
X8721454Y-8601644D01*
X8650742Y-8601644D01*
X8650742Y-8672356D01*
X8721454Y-8672356D01*
X8721454Y-8926356D02*
X8721454Y-8855644D01*
X8650742Y-8855644D01*
X8650742Y-8926356D01*
X8721454Y-8926356D01*
X8721454Y-9180356D02*
X8721454Y-9109644D01*
X8650742Y-9109644D01*
X8650742Y-9180356D01*
X8721454Y-9180356D01*
X8721454Y-9434356D02*
X8721454Y-9363644D01*
X8650742Y-9363644D01*
X8650742Y-9434356D01*
X8721454Y-9434356D01*
X8721454Y-9688356D02*
X8721454Y-9617644D01*
X8650742Y-9617644D01*
X8650742Y-9688356D01*
X8721454Y-9688356D01*
X8721454Y-9942356D02*
X8721454Y-9871644D01*
X8650742Y-9871644D01*
X8650742Y-9942356D01*
X8721454Y-9942356D01*
X8965356Y-5878356D02*
X8965356Y-5807644D01*
X8894644Y-5807644D01*
X8894644Y-5878356D01*
X8965356Y-5878356D01*
X8965356Y-6132356D02*
X8965356Y-6061644D01*
X8894644Y-6061644D01*
X8894644Y-6132356D01*
X8965356Y-6132356D01*
X8965356Y-6386356D02*
X8965356Y-6315644D01*
X8894644Y-6315644D01*
X8894644Y-6386356D01*
X8965356Y-6386356D01*
X8965356Y-6640356D02*
X8965356Y-6569644D01*
X8894644Y-6569644D01*
X8894644Y-6640356D01*
X8965356Y-6640356D01*
X8966454Y-9896356D02*
X8966454Y-9825644D01*
X8895742Y-9825644D01*
X8895742Y-9896356D01*
X8966454Y-9896356D01*
X8966454Y-10066356D02*
X8966454Y-9995644D01*
X8895742Y-9995644D01*
X8895742Y-10066356D01*
X8966454Y-10066356D01*
X8975356Y-6894356D02*
X8975356Y-6823644D01*
X8904644Y-6823644D01*
X8904644Y-6894356D01*
X8975356Y-6894356D01*
X8975356Y-8164356D02*
X8975356Y-8093644D01*
X8904644Y-8093644D01*
X8904644Y-8164356D01*
X8975356Y-8164356D01*
X8975356Y-8418356D02*
X8975356Y-8347644D01*
X8904644Y-8347644D01*
X8904644Y-8418356D01*
X8975356Y-8418356D01*
X8975356Y-8672356D02*
X8975356Y-8601644D01*
X8904644Y-8601644D01*
X8904644Y-8672356D01*
X8975356Y-8672356D01*
X8975356Y-8926356D02*
X8975356Y-8855644D01*
X8904644Y-8855644D01*
X8904644Y-8926356D01*
X8975356Y-8926356D01*
X8975356Y-9180356D02*
X8975356Y-9109644D01*
X8904644Y-9109644D01*
X8904644Y-9180356D01*
X8975356Y-9180356D01*
X8975356Y-9434356D02*
X8975356Y-9363644D01*
X8904644Y-9363644D01*
X8904644Y-9434356D01*
X8975356Y-9434356D01*
X8975356Y-9688356D02*
X8975356Y-9617644D01*
X8904644Y-9617644D01*
X8904644Y-9688356D01*
X8975356Y-9688356D01*
X9220454Y-9896356D02*
X9220454Y-9825644D01*
X9149742Y-9825644D01*
X9149742Y-9896356D01*
X9220454Y-9896356D01*
X9220454Y-10066356D02*
X9220454Y-9995644D01*
X9149742Y-9995644D01*
X9149742Y-10066356D01*
X9220454Y-10066356D01*
X9474454Y-9896356D02*
X9474454Y-9825644D01*
X9403742Y-9825644D01*
X9403742Y-9896356D01*
X9474454Y-9896356D01*
X9474454Y-10066356D02*
X9474454Y-9995644D01*
X9403742Y-9995644D01*
X9403742Y-10066356D01*
X9474454Y-10066356D01*
X9728454Y-9896356D02*
X9728454Y-9825644D01*
X9657742Y-9825644D01*
X9657742Y-9896356D01*
X9728454Y-9896356D01*
X9728454Y-10066356D02*
X9728454Y-9995644D01*
X9657742Y-9995644D01*
X9657742Y-10066356D01*
X9728454Y-10066356D01*
X9982454Y-9896356D02*
X9982454Y-9825644D01*
X9911742Y-9825644D01*
X9911742Y-9896356D01*
X9982454Y-9896356D01*
X9982454Y-10066356D02*
X9982454Y-9995644D01*
X9911742Y-9995644D01*
X9911742Y-10066356D01*
X9982454Y-10066356D01*
X10236454Y-9896356D02*
X10236454Y-9825644D01*
X10165742Y-9825644D01*
X10165742Y-9896356D01*
X10236454Y-9896356D01*
X10236454Y-10066356D02*
X10236454Y-9995644D01*
X10165742Y-9995644D01*
X10165742Y-10066356D01*
X10236454Y-10066356D01*
X10481454Y-5116356D02*
X10481454Y-5045644D01*
X10410742Y-5045644D01*
X10410742Y-5116356D01*
X10481454Y-5116356D01*
X10481454Y-5370356D02*
X10481454Y-5299644D01*
X10410742Y-5299644D01*
X10410742Y-5370356D01*
X10481454Y-5370356D01*
X10481454Y-5624356D02*
X10481454Y-5553644D01*
X10410742Y-5553644D01*
X10410742Y-5624356D01*
X10481454Y-5624356D01*
X10481454Y-5878356D02*
X10481454Y-5807644D01*
X10410742Y-5807644D01*
X10410742Y-5878356D01*
X10481454Y-5878356D01*
X10481454Y-6132356D02*
X10481454Y-6061644D01*
X10410742Y-6061644D01*
X10410742Y-6132356D01*
X10481454Y-6132356D01*
X10481454Y-6386356D02*
X10481454Y-6315644D01*
X10410742Y-6315644D01*
X10410742Y-6386356D01*
X10481454Y-6386356D01*
X10481454Y-6640356D02*
X10481454Y-6569644D01*
X10410742Y-6569644D01*
X10410742Y-6640356D01*
X10481454Y-6640356D01*
X10481454Y-6894356D02*
X10481454Y-6823644D01*
X10410742Y-6823644D01*
X10410742Y-6894356D01*
X10481454Y-6894356D01*
X10481454Y-7148356D02*
X10481454Y-7077644D01*
X10410742Y-7077644D01*
X10410742Y-7148356D01*
X10481454Y-7148356D01*
X10481454Y-7402356D02*
X10481454Y-7331644D01*
X10410742Y-7331644D01*
X10410742Y-7402356D01*
X10481454Y-7402356D01*
X10481454Y-7656356D02*
X10481454Y-7585644D01*
X10410742Y-7585644D01*
X10410742Y-7656356D01*
X10481454Y-7656356D01*
X10481454Y-7910356D02*
X10481454Y-7839644D01*
X10410742Y-7839644D01*
X10410742Y-7910356D01*
X10481454Y-7910356D01*
X10481454Y-8164356D02*
X10481454Y-8093644D01*
X10410742Y-8093644D01*
X10410742Y-8164356D01*
X10481454Y-8164356D01*
X10481454Y-8418356D02*
X10481454Y-8347644D01*
X10410742Y-8347644D01*
X10410742Y-8418356D01*
X10481454Y-8418356D01*
X10481454Y-8672356D02*
X10481454Y-8601644D01*
X10410742Y-8601644D01*
X10410742Y-8672356D01*
X10481454Y-8672356D01*
X10481454Y-8926356D02*
X10481454Y-8855644D01*
X10410742Y-8855644D01*
X10410742Y-8926356D01*
X10481454Y-8926356D01*
X10481454Y-9180356D02*
X10481454Y-9109644D01*
X10410742Y-9109644D01*
X10410742Y-9180356D01*
X10481454Y-9180356D01*
X10481454Y-9434356D02*
X10481454Y-9363644D01*
X10410742Y-9363644D01*
X10410742Y-9434356D01*
X10481454Y-9434356D01*
X10481454Y-9688356D02*
X10481454Y-9617644D01*
X10410742Y-9617644D01*
X10410742Y-9688356D01*
X10481454Y-9688356D01*
X10481454Y-9942356D02*
X10481454Y-9871644D01*
X10410742Y-9871644D01*
X10410742Y-9942356D01*
X10481454Y-9942356D01*
X10651454Y-5116356D02*
X10651454Y-5045644D01*
X10580742Y-5045644D01*
X10580742Y-5116356D01*
X10651454Y-5116356D01*
X10651454Y-5370356D02*
X10651454Y-5299644D01*
X10580742Y-5299644D01*
X10580742Y-5370356D01*
X10651454Y-5370356D01*
X10651454Y-5624356D02*
X10651454Y-5553644D01*
X10580742Y-5553644D01*
X10580742Y-5624356D01*
X10651454Y-5624356D01*
X10651454Y-5878356D02*
X10651454Y-5807644D01*
X10580742Y-5807644D01*
X10580742Y-5878356D01*
X10651454Y-5878356D01*
X10651454Y-6132356D02*
X10651454Y-6061644D01*
X10580742Y-6061644D01*
X10580742Y-6132356D01*
X10651454Y-6132356D01*
X10651454Y-6386356D02*
X10651454Y-6315644D01*
X10580742Y-6315644D01*
X10580742Y-6386356D01*
X10651454Y-6386356D01*
X10651454Y-6640356D02*
X10651454Y-6569644D01*
X10580742Y-6569644D01*
X10580742Y-6640356D01*
X10651454Y-6640356D01*
X10651454Y-6894356D02*
X10651454Y-6823644D01*
X10580742Y-6823644D01*
X10580742Y-6894356D01*
X10651454Y-6894356D01*
X10651454Y-7148356D02*
X10651454Y-7077644D01*
X10580742Y-7077644D01*
X10580742Y-7148356D01*
X10651454Y-7148356D01*
X10651454Y-7402356D02*
X10651454Y-7331644D01*
X10580742Y-7331644D01*
X10580742Y-7402356D01*
X10651454Y-7402356D01*
X10651454Y-7656356D02*
X10651454Y-7585644D01*
X10580742Y-7585644D01*
X10580742Y-7656356D01*
X10651454Y-7656356D01*
X10651454Y-7910356D02*
X10651454Y-7839644D01*
X10580742Y-7839644D01*
X10580742Y-7910356D01*
X10651454Y-7910356D01*
X10651454Y-8164356D02*
X10651454Y-8093644D01*
X10580742Y-8093644D01*
X10580742Y-8164356D01*
X10651454Y-8164356D01*
X10651454Y-8418356D02*
X10651454Y-8347644D01*
X10580742Y-8347644D01*
X10580742Y-8418356D01*
X10651454Y-8418356D01*
X10651454Y-8672356D02*
X10651454Y-8601644D01*
X10580742Y-8601644D01*
X10580742Y-8672356D01*
X10651454Y-8672356D01*
X10651454Y-8926356D02*
X10651454Y-8855644D01*
X10580742Y-8855644D01*
X10580742Y-8926356D01*
X10651454Y-8926356D01*
X10651454Y-9180356D02*
X10651454Y-9109644D01*
X10580742Y-9109644D01*
X10580742Y-9180356D01*
X10651454Y-9180356D01*
X10651454Y-9434356D02*
X10651454Y-9363644D01*
X10580742Y-9363644D01*
X10580742Y-9434356D01*
X10651454Y-9434356D01*
X10651454Y-9688356D02*
X10651454Y-9617644D01*
X10580742Y-9617644D01*
X10580742Y-9688356D01*
X10651454Y-9688356D01*
X10651454Y-9942356D02*
X10651454Y-9871644D01*
X10580742Y-9871644D01*
X10580742Y-9942356D01*
X10651454Y-9942356D01*
D11*
X8768717Y-10346476D02*
X8768717Y-10146476D01*
X8816336Y-10146476D01*
X8844907Y-10156000D01*
X8863955Y-10175048D01*
X8873479Y-10194095D01*
X8883003Y-10232190D01*
X8883003Y-10260762D01*
X8873479Y-10298857D01*
X8863955Y-10317905D01*
X8844907Y-10336952D01*
X8816336Y-10346476D01*
X8768717Y-10346476D01*
X8968717Y-10346476D02*
X8968717Y-10213143D01*
X8968717Y-10251238D02*
X8978241Y-10232190D01*
X8987764Y-10222667D01*
X9006812Y-10213143D01*
X9025860Y-10213143D01*
X9092526Y-10346476D02*
X9092526Y-10213143D01*
X9092526Y-10146476D02*
X9083003Y-10156000D01*
X9092526Y-10165524D01*
X9102050Y-10156000D01*
X9092526Y-10146476D01*
X9092526Y-10165524D01*
X9216336Y-10346476D02*
X9197288Y-10336952D01*
X9187764Y-10317905D01*
X9187764Y-10146476D01*
X9321098Y-10346476D02*
X9302050Y-10336952D01*
X9292526Y-10317905D01*
X9292526Y-10146476D01*
X9549669Y-10346476D02*
X9549669Y-10146476D01*
X9616336Y-10289333D01*
X9683003Y-10146476D01*
X9683003Y-10346476D01*
X9863955Y-10346476D02*
X9863955Y-10241714D01*
X9854431Y-10222667D01*
X9835384Y-10213143D01*
X9797288Y-10213143D01*
X9778241Y-10222667D01*
X9863955Y-10336952D02*
X9844907Y-10346476D01*
X9797288Y-10346476D01*
X9778241Y-10336952D01*
X9768717Y-10317905D01*
X9768717Y-10298857D01*
X9778241Y-10279810D01*
X9797288Y-10270286D01*
X9844907Y-10270286D01*
X9863955Y-10260762D01*
X9959193Y-10213143D02*
X9959193Y-10413143D01*
X9959193Y-10222667D02*
X9978241Y-10213143D01*
X10016336Y-10213143D01*
X10035384Y-10222667D01*
X10044907Y-10232190D01*
X10054431Y-10251238D01*
X10054431Y-10308381D01*
X10044907Y-10327429D01*
X10035384Y-10336952D01*
X10016336Y-10346476D01*
X9978241Y-10346476D01*
X9959193Y-10336952D01*
X10140145Y-10327429D02*
X10149669Y-10336952D01*
X10140145Y-10346476D01*
X10130622Y-10336952D01*
X10140145Y-10327429D01*
X10140145Y-10346476D01*
X10140145Y-10222667D02*
X10149669Y-10232190D01*
X10140145Y-10241714D01*
X10130622Y-10232190D01*
X10140145Y-10222667D01*
X10140145Y-10241714D01*
D12*
X8491098Y-10666000D02*
X8511098Y-10686000D01*
X8511098Y-10666000D02*
X8491098Y-10686000D01*
D11*
X8806812Y-10566476D02*
X8825860Y-10566476D01*
X8844907Y-10576000D01*
X8854431Y-10585524D01*
X8863955Y-10604571D01*
X8873479Y-10642667D01*
X8873479Y-10690286D01*
X8863955Y-10728381D01*
X8854431Y-10747429D01*
X8844907Y-10756952D01*
X8825860Y-10766476D01*
X8806812Y-10766476D01*
X8787764Y-10756952D01*
X8778241Y-10747429D01*
X8768717Y-10728381D01*
X8759193Y-10690286D01*
X8759193Y-10642667D01*
X8768717Y-10604571D01*
X8778241Y-10585524D01*
X8787764Y-10576000D01*
X8806812Y-10566476D01*
X8959193Y-10747429D02*
X8968717Y-10756952D01*
X8959193Y-10766476D01*
X8949669Y-10756952D01*
X8959193Y-10747429D01*
X8959193Y-10766476D01*
X9044907Y-10585524D02*
X9054431Y-10576000D01*
X9073479Y-10566476D01*
X9121098Y-10566476D01*
X9140145Y-10576000D01*
X9149669Y-10585524D01*
X9159193Y-10604571D01*
X9159193Y-10623619D01*
X9149669Y-10652190D01*
X9035384Y-10766476D01*
X9159193Y-10766476D01*
X9283003Y-10566476D02*
X9302050Y-10566476D01*
X9321098Y-10576000D01*
X9330622Y-10585524D01*
X9340145Y-10604571D01*
X9349669Y-10642667D01*
X9349669Y-10690286D01*
X9340145Y-10728381D01*
X9330622Y-10747429D01*
X9321098Y-10756952D01*
X9302050Y-10766476D01*
X9283003Y-10766476D01*
X9263955Y-10756952D01*
X9254431Y-10747429D01*
X9244907Y-10728381D01*
X9235384Y-10690286D01*
X9235384Y-10642667D01*
X9244907Y-10604571D01*
X9254431Y-10585524D01*
X9263955Y-10576000D01*
X9283003Y-10566476D01*
X9473479Y-10566476D02*
X9492526Y-10566476D01*
X9511574Y-10576000D01*
X9521098Y-10585524D01*
X9530622Y-10604571D01*
X9540145Y-10642667D01*
X9540145Y-10690286D01*
X9530622Y-10728381D01*
X9521098Y-10747429D01*
X9511574Y-10756952D01*
X9492526Y-10766476D01*
X9473479Y-10766476D01*
X9454431Y-10756952D01*
X9444907Y-10747429D01*
X9435384Y-10728381D01*
X9425860Y-10690286D01*
X9425860Y-10642667D01*
X9435384Y-10604571D01*
X9444907Y-10585524D01*
X9454431Y-10576000D01*
X9473479Y-10566476D01*
X9625860Y-10766476D02*
X9625860Y-10633143D01*
X9625860Y-10652190D02*
X9635384Y-10642667D01*
X9654431Y-10633143D01*
X9683003Y-10633143D01*
X9702050Y-10642667D01*
X9711574Y-10661714D01*
X9711574Y-10766476D01*
X9711574Y-10661714D02*
X9721098Y-10642667D01*
X9740145Y-10633143D01*
X9768717Y-10633143D01*
X9787764Y-10642667D01*
X9797288Y-10661714D01*
X9797288Y-10766476D01*
X9892526Y-10766476D02*
X9892526Y-10633143D01*
X9892526Y-10652190D02*
X9902050Y-10642667D01*
X9921098Y-10633143D01*
X9949669Y-10633143D01*
X9968717Y-10642667D01*
X9978241Y-10661714D01*
X9978241Y-10766476D01*
X9978241Y-10661714D02*
X9987764Y-10642667D01*
X10006812Y-10633143D01*
X10035384Y-10633143D01*
X10054431Y-10642667D01*
X10063955Y-10661714D01*
X10063955Y-10766476D01*
X10454431Y-10556952D02*
X10283003Y-10814095D01*
X10711574Y-10566476D02*
X10730622Y-10566476D01*
X10749669Y-10576000D01*
X10759193Y-10585524D01*
X10768717Y-10604571D01*
X10778241Y-10642667D01*
X10778241Y-10690286D01*
X10768717Y-10728381D01*
X10759193Y-10747429D01*
X10749669Y-10756952D01*
X10730622Y-10766476D01*
X10711574Y-10766476D01*
X10692526Y-10756952D01*
X10683003Y-10747429D01*
X10673479Y-10728381D01*
X10663955Y-10690286D01*
X10663955Y-10642667D01*
X10673479Y-10604571D01*
X10683003Y-10585524D01*
X10692526Y-10576000D01*
X10711574Y-10566476D01*
X10863955Y-10747429D02*
X10873479Y-10756952D01*
X10863955Y-10766476D01*
X10854431Y-10756952D01*
X10863955Y-10747429D01*
X10863955Y-10766476D01*
X10997288Y-10566476D02*
X11016336Y-10566476D01*
X11035384Y-10576000D01*
X11044907Y-10585524D01*
X11054431Y-10604571D01*
X11063955Y-10642667D01*
X11063955Y-10690286D01*
X11054431Y-10728381D01*
X11044907Y-10747429D01*
X11035384Y-10756952D01*
X11016336Y-10766476D01*
X10997288Y-10766476D01*
X10978241Y-10756952D01*
X10968717Y-10747429D01*
X10959193Y-10728381D01*
X10949669Y-10690286D01*
X10949669Y-10642667D01*
X10959193Y-10604571D01*
X10968717Y-10585524D01*
X10978241Y-10576000D01*
X10997288Y-10566476D01*
X11187764Y-10566476D02*
X11206812Y-10566476D01*
X11225860Y-10576000D01*
X11235383Y-10585524D01*
X11244907Y-10604571D01*
X11254431Y-10642667D01*
X11254431Y-10690286D01*
X11244907Y-10728381D01*
X11235383Y-10747429D01*
X11225860Y-10756952D01*
X11206812Y-10766476D01*
X11187764Y-10766476D01*
X11168717Y-10756952D01*
X11159193Y-10747429D01*
X11149669Y-10728381D01*
X11140145Y-10690286D01*
X11140145Y-10642667D01*
X11149669Y-10604571D01*
X11159193Y-10585524D01*
X11168717Y-10576000D01*
X11187764Y-10566476D01*
X11321098Y-10566476D02*
X11454431Y-10566476D01*
X11368717Y-10766476D01*
X11540145Y-10766476D02*
X11578241Y-10766476D01*
X11597288Y-10756952D01*
X11606812Y-10747429D01*
X11625860Y-10718857D01*
X11635383Y-10680762D01*
X11635383Y-10604571D01*
X11625860Y-10585524D01*
X11616336Y-10576000D01*
X11597288Y-10566476D01*
X11559193Y-10566476D01*
X11540145Y-10576000D01*
X11530622Y-10585524D01*
X11521098Y-10604571D01*
X11521098Y-10652190D01*
X11530622Y-10671238D01*
X11540145Y-10680762D01*
X11559193Y-10690286D01*
X11597288Y-10690286D01*
X11616336Y-10680762D01*
X11625860Y-10671238D01*
X11635383Y-10652190D01*
X11711574Y-10566476D02*
X11711574Y-10604571D01*
X11787764Y-10566476D02*
X11787764Y-10604571D01*
X12083002Y-10842667D02*
X12073479Y-10833143D01*
X12054431Y-10804571D01*
X12044907Y-10785524D01*
X12035383Y-10756952D01*
X12025860Y-10709333D01*
X12025860Y-10671238D01*
X12035383Y-10623619D01*
X12044907Y-10595048D01*
X12054431Y-10576000D01*
X12073479Y-10547429D01*
X12083002Y-10537905D01*
X12263955Y-10766476D02*
X12149669Y-10766476D01*
X12206812Y-10766476D02*
X12206812Y-10566476D01*
X12187764Y-10595048D01*
X12168717Y-10614095D01*
X12149669Y-10623619D01*
X12454431Y-10766476D02*
X12340145Y-10766476D01*
X12397288Y-10766476D02*
X12397288Y-10566476D01*
X12378241Y-10595048D01*
X12359193Y-10614095D01*
X12340145Y-10623619D01*
X12549669Y-10766476D02*
X12587764Y-10766476D01*
X12606812Y-10756952D01*
X12616336Y-10747429D01*
X12635383Y-10718857D01*
X12644907Y-10680762D01*
X12644907Y-10604571D01*
X12635383Y-10585524D01*
X12625860Y-10576000D01*
X12606812Y-10566476D01*
X12568717Y-10566476D01*
X12549669Y-10576000D01*
X12540145Y-10585524D01*
X12530622Y-10604571D01*
X12530622Y-10652190D01*
X12540145Y-10671238D01*
X12549669Y-10680762D01*
X12568717Y-10690286D01*
X12606812Y-10690286D01*
X12625860Y-10680762D01*
X12635383Y-10671238D01*
X12644907Y-10652190D01*
X12883002Y-10766476D02*
X12883002Y-10566476D01*
X12968717Y-10766476D02*
X12968717Y-10661714D01*
X12959193Y-10642667D01*
X12940145Y-10633143D01*
X12911574Y-10633143D01*
X12892526Y-10642667D01*
X12883002Y-10652190D01*
X13092526Y-10766476D02*
X13073479Y-10756952D01*
X13063955Y-10747429D01*
X13054431Y-10728381D01*
X13054431Y-10671238D01*
X13063955Y-10652190D01*
X13073479Y-10642667D01*
X13092526Y-10633143D01*
X13121098Y-10633143D01*
X13140145Y-10642667D01*
X13149669Y-10652190D01*
X13159193Y-10671238D01*
X13159193Y-10728381D01*
X13149669Y-10747429D01*
X13140145Y-10756952D01*
X13121098Y-10766476D01*
X13092526Y-10766476D01*
X13273479Y-10766476D02*
X13254431Y-10756952D01*
X13244907Y-10737905D01*
X13244907Y-10566476D01*
X13425860Y-10756952D02*
X13406812Y-10766476D01*
X13368717Y-10766476D01*
X13349669Y-10756952D01*
X13340145Y-10737905D01*
X13340145Y-10661714D01*
X13349669Y-10642667D01*
X13368717Y-10633143D01*
X13406812Y-10633143D01*
X13425860Y-10642667D01*
X13435383Y-10661714D01*
X13435383Y-10680762D01*
X13340145Y-10699810D01*
X13511574Y-10756952D02*
X13530622Y-10766476D01*
X13568717Y-10766476D01*
X13587764Y-10756952D01*
X13597288Y-10737905D01*
X13597288Y-10728381D01*
X13587764Y-10709333D01*
X13568717Y-10699810D01*
X13540145Y-10699810D01*
X13521098Y-10690286D01*
X13511574Y-10671238D01*
X13511574Y-10661714D01*
X13521098Y-10642667D01*
X13540145Y-10633143D01*
X13568717Y-10633143D01*
X13587764Y-10642667D01*
X13663955Y-10842667D02*
X13673479Y-10833143D01*
X13692526Y-10804571D01*
X13702050Y-10785524D01*
X13711574Y-10756952D01*
X13721098Y-10709333D01*
X13721098Y-10671238D01*
X13711574Y-10623619D01*
X13702050Y-10595048D01*
X13692526Y-10576000D01*
X13673479Y-10547429D01*
X13663955Y-10537905D01*
D13*
X8511098Y-10940000D02*
G75*
G03*
X8511098Y-10940000I-20000J0D01*
G01*
D11*
X8806812Y-10830476D02*
X8825860Y-10830476D01*
X8844907Y-10840000D01*
X8854431Y-10849524D01*
X8863955Y-10868571D01*
X8873479Y-10906667D01*
X8873479Y-10954286D01*
X8863955Y-10992381D01*
X8854431Y-11011429D01*
X8844907Y-11020952D01*
X8825860Y-11030476D01*
X8806812Y-11030476D01*
X8787764Y-11020952D01*
X8778241Y-11011429D01*
X8768717Y-10992381D01*
X8759193Y-10954286D01*
X8759193Y-10906667D01*
X8768717Y-10868571D01*
X8778241Y-10849524D01*
X8787764Y-10840000D01*
X8806812Y-10830476D01*
X8959193Y-11011429D02*
X8968717Y-11020952D01*
X8959193Y-11030476D01*
X8949669Y-11020952D01*
X8959193Y-11011429D01*
X8959193Y-11030476D01*
X9140145Y-10897143D02*
X9140145Y-11030476D01*
X9092526Y-10820952D02*
X9044907Y-10963810D01*
X9168717Y-10963810D01*
X9283003Y-10830476D02*
X9302050Y-10830476D01*
X9321098Y-10840000D01*
X9330622Y-10849524D01*
X9340145Y-10868571D01*
X9349669Y-10906667D01*
X9349669Y-10954286D01*
X9340145Y-10992381D01*
X9330622Y-11011429D01*
X9321098Y-11020952D01*
X9302050Y-11030476D01*
X9283003Y-11030476D01*
X9263955Y-11020952D01*
X9254431Y-11011429D01*
X9244907Y-10992381D01*
X9235384Y-10954286D01*
X9235384Y-10906667D01*
X9244907Y-10868571D01*
X9254431Y-10849524D01*
X9263955Y-10840000D01*
X9283003Y-10830476D01*
X9473479Y-10830476D02*
X9492526Y-10830476D01*
X9511574Y-10840000D01*
X9521098Y-10849524D01*
X9530622Y-10868571D01*
X9540145Y-10906667D01*
X9540145Y-10954286D01*
X9530622Y-10992381D01*
X9521098Y-11011429D01*
X9511574Y-11020952D01*
X9492526Y-11030476D01*
X9473479Y-11030476D01*
X9454431Y-11020952D01*
X9444907Y-11011429D01*
X9435384Y-10992381D01*
X9425860Y-10954286D01*
X9425860Y-10906667D01*
X9435384Y-10868571D01*
X9444907Y-10849524D01*
X9454431Y-10840000D01*
X9473479Y-10830476D01*
X9625860Y-11030476D02*
X9625860Y-10897143D01*
X9625860Y-10916190D02*
X9635384Y-10906667D01*
X9654431Y-10897143D01*
X9683003Y-10897143D01*
X9702050Y-10906667D01*
X9711574Y-10925714D01*
X9711574Y-11030476D01*
X9711574Y-10925714D02*
X9721098Y-10906667D01*
X9740145Y-10897143D01*
X9768717Y-10897143D01*
X9787764Y-10906667D01*
X9797288Y-10925714D01*
X9797288Y-11030476D01*
X9892526Y-11030476D02*
X9892526Y-10897143D01*
X9892526Y-10916190D02*
X9902050Y-10906667D01*
X9921098Y-10897143D01*
X9949669Y-10897143D01*
X9968717Y-10906667D01*
X9978241Y-10925714D01*
X9978241Y-11030476D01*
X9978241Y-10925714D02*
X9987764Y-10906667D01*
X10006812Y-10897143D01*
X10035384Y-10897143D01*
X10054431Y-10906667D01*
X10063955Y-10925714D01*
X10063955Y-11030476D01*
X10454431Y-10820952D02*
X10283003Y-11078095D01*
X10711574Y-10830476D02*
X10730622Y-10830476D01*
X10749669Y-10840000D01*
X10759193Y-10849524D01*
X10768717Y-10868571D01*
X10778241Y-10906667D01*
X10778241Y-10954286D01*
X10768717Y-10992381D01*
X10759193Y-11011429D01*
X10749669Y-11020952D01*
X10730622Y-11030476D01*
X10711574Y-11030476D01*
X10692526Y-11020952D01*
X10683003Y-11011429D01*
X10673479Y-10992381D01*
X10663955Y-10954286D01*
X10663955Y-10906667D01*
X10673479Y-10868571D01*
X10683003Y-10849524D01*
X10692526Y-10840000D01*
X10711574Y-10830476D01*
X10863955Y-11011429D02*
X10873479Y-11020952D01*
X10863955Y-11030476D01*
X10854431Y-11020952D01*
X10863955Y-11011429D01*
X10863955Y-11030476D01*
X10997288Y-10830476D02*
X11016336Y-10830476D01*
X11035384Y-10840000D01*
X11044907Y-10849524D01*
X11054431Y-10868571D01*
X11063955Y-10906667D01*
X11063955Y-10954286D01*
X11054431Y-10992381D01*
X11044907Y-11011429D01*
X11035384Y-11020952D01*
X11016336Y-11030476D01*
X10997288Y-11030476D01*
X10978241Y-11020952D01*
X10968717Y-11011429D01*
X10959193Y-10992381D01*
X10949669Y-10954286D01*
X10949669Y-10906667D01*
X10959193Y-10868571D01*
X10968717Y-10849524D01*
X10978241Y-10840000D01*
X10997288Y-10830476D01*
X11254431Y-11030476D02*
X11140145Y-11030476D01*
X11197288Y-11030476D02*
X11197288Y-10830476D01*
X11178241Y-10859048D01*
X11159193Y-10878095D01*
X11140145Y-10887619D01*
X11435383Y-10830476D02*
X11340145Y-10830476D01*
X11330622Y-10925714D01*
X11340145Y-10916190D01*
X11359193Y-10906667D01*
X11406812Y-10906667D01*
X11425860Y-10916190D01*
X11435383Y-10925714D01*
X11444907Y-10944762D01*
X11444907Y-10992381D01*
X11435383Y-11011429D01*
X11425860Y-11020952D01*
X11406812Y-11030476D01*
X11359193Y-11030476D01*
X11340145Y-11020952D01*
X11330622Y-11011429D01*
X11511574Y-10830476D02*
X11644907Y-10830476D01*
X11559193Y-11030476D01*
X11711574Y-10830476D02*
X11711574Y-10868571D01*
X11787764Y-10830476D02*
X11787764Y-10868571D01*
X12083002Y-11106667D02*
X12073479Y-11097143D01*
X12054431Y-11068571D01*
X12044907Y-11049524D01*
X12035383Y-11020952D01*
X12025860Y-10973333D01*
X12025860Y-10935238D01*
X12035383Y-10887619D01*
X12044907Y-10859048D01*
X12054431Y-10840000D01*
X12073479Y-10811429D01*
X12083002Y-10801905D01*
X12254431Y-10830476D02*
X12159193Y-10830476D01*
X12149669Y-10925714D01*
X12159193Y-10916190D01*
X12178241Y-10906667D01*
X12225860Y-10906667D01*
X12244907Y-10916190D01*
X12254431Y-10925714D01*
X12263955Y-10944762D01*
X12263955Y-10992381D01*
X12254431Y-11011429D01*
X12244907Y-11020952D01*
X12225860Y-11030476D01*
X12178241Y-11030476D01*
X12159193Y-11020952D01*
X12149669Y-11011429D01*
X12502050Y-11030476D02*
X12502050Y-10830476D01*
X12587764Y-11030476D02*
X12587764Y-10925714D01*
X12578241Y-10906667D01*
X12559193Y-10897143D01*
X12530622Y-10897143D01*
X12511574Y-10906667D01*
X12502050Y-10916190D01*
X12711574Y-11030476D02*
X12692526Y-11020952D01*
X12683002Y-11011429D01*
X12673479Y-10992381D01*
X12673479Y-10935238D01*
X12683002Y-10916190D01*
X12692526Y-10906667D01*
X12711574Y-10897143D01*
X12740145Y-10897143D01*
X12759193Y-10906667D01*
X12768717Y-10916190D01*
X12778241Y-10935238D01*
X12778241Y-10992381D01*
X12768717Y-11011429D01*
X12759193Y-11020952D01*
X12740145Y-11030476D01*
X12711574Y-11030476D01*
X12892526Y-11030476D02*
X12873479Y-11020952D01*
X12863955Y-11001905D01*
X12863955Y-10830476D01*
X13044907Y-11020952D02*
X13025860Y-11030476D01*
X12987764Y-11030476D01*
X12968717Y-11020952D01*
X12959193Y-11001905D01*
X12959193Y-10925714D01*
X12968717Y-10906667D01*
X12987764Y-10897143D01*
X13025860Y-10897143D01*
X13044907Y-10906667D01*
X13054431Y-10925714D01*
X13054431Y-10944762D01*
X12959193Y-10963810D01*
X13130622Y-11020952D02*
X13149669Y-11030476D01*
X13187764Y-11030476D01*
X13206812Y-11020952D01*
X13216336Y-11001905D01*
X13216336Y-10992381D01*
X13206812Y-10973333D01*
X13187764Y-10963810D01*
X13159193Y-10963810D01*
X13140145Y-10954286D01*
X13130622Y-10935238D01*
X13130622Y-10925714D01*
X13140145Y-10906667D01*
X13159193Y-10897143D01*
X13187764Y-10897143D01*
X13206812Y-10906667D01*
X13283002Y-11106667D02*
X13292526Y-11097143D01*
X13311574Y-11068571D01*
X13321098Y-11049524D01*
X13330622Y-11020952D01*
X13340145Y-10973333D01*
X13340145Y-10935238D01*
X13330622Y-10887619D01*
X13321098Y-10859048D01*
X13311574Y-10840000D01*
X13292526Y-10811429D01*
X13283002Y-10801905D01*
D14*
X8481098Y-11174000D02*
X8481098Y-11234000D01*
X8451098Y-11204000D02*
X8511098Y-11204000D01*
D11*
X8806812Y-11094476D02*
X8825860Y-11094476D01*
X8844907Y-11104000D01*
X8854431Y-11113524D01*
X8863955Y-11132571D01*
X8873479Y-11170667D01*
X8873479Y-11218286D01*
X8863955Y-11256381D01*
X8854431Y-11275428D01*
X8844907Y-11284952D01*
X8825860Y-11294476D01*
X8806812Y-11294476D01*
X8787764Y-11284952D01*
X8778241Y-11275428D01*
X8768717Y-11256381D01*
X8759193Y-11218286D01*
X8759193Y-11170667D01*
X8768717Y-11132571D01*
X8778241Y-11113524D01*
X8787764Y-11104000D01*
X8806812Y-11094476D01*
X8959193Y-11275428D02*
X8968717Y-11284952D01*
X8959193Y-11294476D01*
X8949669Y-11284952D01*
X8959193Y-11275428D01*
X8959193Y-11294476D01*
X9140145Y-11094476D02*
X9102050Y-11094476D01*
X9083003Y-11104000D01*
X9073479Y-11113524D01*
X9054431Y-11142095D01*
X9044907Y-11180190D01*
X9044907Y-11256381D01*
X9054431Y-11275428D01*
X9063955Y-11284952D01*
X9083003Y-11294476D01*
X9121098Y-11294476D01*
X9140145Y-11284952D01*
X9149669Y-11275428D01*
X9159193Y-11256381D01*
X9159193Y-11208762D01*
X9149669Y-11189714D01*
X9140145Y-11180190D01*
X9121098Y-11170667D01*
X9083003Y-11170667D01*
X9063955Y-11180190D01*
X9054431Y-11189714D01*
X9044907Y-11208762D01*
X9283003Y-11094476D02*
X9302050Y-11094476D01*
X9321098Y-11104000D01*
X9330622Y-11113524D01*
X9340145Y-11132571D01*
X9349669Y-11170667D01*
X9349669Y-11218286D01*
X9340145Y-11256381D01*
X9330622Y-11275428D01*
X9321098Y-11284952D01*
X9302050Y-11294476D01*
X9283003Y-11294476D01*
X9263955Y-11284952D01*
X9254431Y-11275428D01*
X9244907Y-11256381D01*
X9235384Y-11218286D01*
X9235384Y-11170667D01*
X9244907Y-11132571D01*
X9254431Y-11113524D01*
X9263955Y-11104000D01*
X9283003Y-11094476D01*
X9473479Y-11094476D02*
X9492526Y-11094476D01*
X9511574Y-11104000D01*
X9521098Y-11113524D01*
X9530622Y-11132571D01*
X9540145Y-11170667D01*
X9540145Y-11218286D01*
X9530622Y-11256381D01*
X9521098Y-11275428D01*
X9511574Y-11284952D01*
X9492526Y-11294476D01*
X9473479Y-11294476D01*
X9454431Y-11284952D01*
X9444907Y-11275428D01*
X9435384Y-11256381D01*
X9425860Y-11218286D01*
X9425860Y-11170667D01*
X9435384Y-11132571D01*
X9444907Y-11113524D01*
X9454431Y-11104000D01*
X9473479Y-11094476D01*
X9625860Y-11294476D02*
X9625860Y-11161143D01*
X9625860Y-11180190D02*
X9635384Y-11170667D01*
X9654431Y-11161143D01*
X9683003Y-11161143D01*
X9702050Y-11170667D01*
X9711574Y-11189714D01*
X9711574Y-11294476D01*
X9711574Y-11189714D02*
X9721098Y-11170667D01*
X9740145Y-11161143D01*
X9768717Y-11161143D01*
X9787764Y-11170667D01*
X9797288Y-11189714D01*
X9797288Y-11294476D01*
X9892526Y-11294476D02*
X9892526Y-11161143D01*
X9892526Y-11180190D02*
X9902050Y-11170667D01*
X9921098Y-11161143D01*
X9949669Y-11161143D01*
X9968717Y-11170667D01*
X9978241Y-11189714D01*
X9978241Y-11294476D01*
X9978241Y-11189714D02*
X9987764Y-11170667D01*
X10006812Y-11161143D01*
X10035384Y-11161143D01*
X10054431Y-11170667D01*
X10063955Y-11189714D01*
X10063955Y-11294476D01*
X10454431Y-11084952D02*
X10283003Y-11342095D01*
X10711574Y-11094476D02*
X10730622Y-11094476D01*
X10749669Y-11104000D01*
X10759193Y-11113524D01*
X10768717Y-11132571D01*
X10778241Y-11170667D01*
X10778241Y-11218286D01*
X10768717Y-11256381D01*
X10759193Y-11275428D01*
X10749669Y-11284952D01*
X10730622Y-11294476D01*
X10711574Y-11294476D01*
X10692526Y-11284952D01*
X10683003Y-11275428D01*
X10673479Y-11256381D01*
X10663955Y-11218286D01*
X10663955Y-11170667D01*
X10673479Y-11132571D01*
X10683003Y-11113524D01*
X10692526Y-11104000D01*
X10711574Y-11094476D01*
X10863955Y-11275428D02*
X10873479Y-11284952D01*
X10863955Y-11294476D01*
X10854431Y-11284952D01*
X10863955Y-11275428D01*
X10863955Y-11294476D01*
X10997288Y-11094476D02*
X11016336Y-11094476D01*
X11035384Y-11104000D01*
X11044907Y-11113524D01*
X11054431Y-11132571D01*
X11063955Y-11170667D01*
X11063955Y-11218286D01*
X11054431Y-11256381D01*
X11044907Y-11275428D01*
X11035384Y-11284952D01*
X11016336Y-11294476D01*
X10997288Y-11294476D01*
X10978241Y-11284952D01*
X10968717Y-11275428D01*
X10959193Y-11256381D01*
X10949669Y-11218286D01*
X10949669Y-11170667D01*
X10959193Y-11132571D01*
X10968717Y-11113524D01*
X10978241Y-11104000D01*
X10997288Y-11094476D01*
X11140145Y-11113524D02*
X11149669Y-11104000D01*
X11168717Y-11094476D01*
X11216336Y-11094476D01*
X11235383Y-11104000D01*
X11244907Y-11113524D01*
X11254431Y-11132571D01*
X11254431Y-11151619D01*
X11244907Y-11180190D01*
X11130622Y-11294476D01*
X11254431Y-11294476D01*
X11321098Y-11094476D02*
X11444907Y-11094476D01*
X11378241Y-11170667D01*
X11406812Y-11170667D01*
X11425860Y-11180190D01*
X11435383Y-11189714D01*
X11444907Y-11208762D01*
X11444907Y-11256381D01*
X11435383Y-11275428D01*
X11425860Y-11284952D01*
X11406812Y-11294476D01*
X11349669Y-11294476D01*
X11330622Y-11284952D01*
X11321098Y-11275428D01*
X11616336Y-11094476D02*
X11578241Y-11094476D01*
X11559193Y-11104000D01*
X11549669Y-11113524D01*
X11530622Y-11142095D01*
X11521098Y-11180190D01*
X11521098Y-11256381D01*
X11530622Y-11275428D01*
X11540145Y-11284952D01*
X11559193Y-11294476D01*
X11597288Y-11294476D01*
X11616336Y-11284952D01*
X11625860Y-11275428D01*
X11635383Y-11256381D01*
X11635383Y-11208762D01*
X11625860Y-11189714D01*
X11616336Y-11180190D01*
X11597288Y-11170667D01*
X11559193Y-11170667D01*
X11540145Y-11180190D01*
X11530622Y-11189714D01*
X11521098Y-11208762D01*
X11711574Y-11094476D02*
X11711574Y-11132571D01*
X11787764Y-11094476D02*
X11787764Y-11132571D01*
X12083002Y-11370667D02*
X12073479Y-11361143D01*
X12054431Y-11332571D01*
X12044907Y-11313524D01*
X12035383Y-11284952D01*
X12025860Y-11237333D01*
X12025860Y-11199238D01*
X12035383Y-11151619D01*
X12044907Y-11123048D01*
X12054431Y-11104000D01*
X12073479Y-11075429D01*
X12083002Y-11065905D01*
X12197288Y-11094476D02*
X12216336Y-11094476D01*
X12235383Y-11104000D01*
X12244907Y-11113524D01*
X12254431Y-11132571D01*
X12263955Y-11170667D01*
X12263955Y-11218286D01*
X12254431Y-11256381D01*
X12244907Y-11275428D01*
X12235383Y-11284952D01*
X12216336Y-11294476D01*
X12197288Y-11294476D01*
X12178241Y-11284952D01*
X12168717Y-11275428D01*
X12159193Y-11256381D01*
X12149669Y-11218286D01*
X12149669Y-11170667D01*
X12159193Y-11132571D01*
X12168717Y-11113524D01*
X12178241Y-11104000D01*
X12197288Y-11094476D01*
X12502050Y-11294476D02*
X12502050Y-11094476D01*
X12587764Y-11294476D02*
X12587764Y-11189714D01*
X12578241Y-11170667D01*
X12559193Y-11161143D01*
X12530622Y-11161143D01*
X12511574Y-11170667D01*
X12502050Y-11180190D01*
X12711574Y-11294476D02*
X12692526Y-11284952D01*
X12683002Y-11275428D01*
X12673479Y-11256381D01*
X12673479Y-11199238D01*
X12683002Y-11180190D01*
X12692526Y-11170667D01*
X12711574Y-11161143D01*
X12740145Y-11161143D01*
X12759193Y-11170667D01*
X12768717Y-11180190D01*
X12778241Y-11199238D01*
X12778241Y-11256381D01*
X12768717Y-11275428D01*
X12759193Y-11284952D01*
X12740145Y-11294476D01*
X12711574Y-11294476D01*
X12892526Y-11294476D02*
X12873479Y-11284952D01*
X12863955Y-11265905D01*
X12863955Y-11094476D01*
X13044907Y-11284952D02*
X13025860Y-11294476D01*
X12987764Y-11294476D01*
X12968717Y-11284952D01*
X12959193Y-11265905D01*
X12959193Y-11189714D01*
X12968717Y-11170667D01*
X12987764Y-11161143D01*
X13025860Y-11161143D01*
X13044907Y-11170667D01*
X13054431Y-11189714D01*
X13054431Y-11208762D01*
X12959193Y-11227809D01*
X13130622Y-11284952D02*
X13149669Y-11294476D01*
X13187764Y-11294476D01*
X13206812Y-11284952D01*
X13216336Y-11265905D01*
X13216336Y-11256381D01*
X13206812Y-11237333D01*
X13187764Y-11227809D01*
X13159193Y-11227809D01*
X13140145Y-11218286D01*
X13130622Y-11199238D01*
X13130622Y-11189714D01*
X13140145Y-11170667D01*
X13159193Y-11161143D01*
X13187764Y-11161143D01*
X13206812Y-11170667D01*
X13454431Y-11218286D02*
X13606812Y-11218286D01*
X13530622Y-11294476D02*
X13530622Y-11142095D01*
X13940145Y-11161143D02*
X13940145Y-11294476D01*
X13892526Y-11084952D02*
X13844907Y-11227809D01*
X13968717Y-11227809D01*
X14187764Y-11284952D02*
X14206812Y-11294476D01*
X14244907Y-11294476D01*
X14263955Y-11284952D01*
X14273479Y-11265905D01*
X14273479Y-11256381D01*
X14263955Y-11237333D01*
X14244907Y-11227809D01*
X14216336Y-11227809D01*
X14197288Y-11218286D01*
X14187764Y-11199238D01*
X14187764Y-11189714D01*
X14197288Y-11170667D01*
X14216336Y-11161143D01*
X14244907Y-11161143D01*
X14263955Y-11170667D01*
X14387764Y-11294476D02*
X14368717Y-11284952D01*
X14359193Y-11265905D01*
X14359193Y-11094476D01*
X14492526Y-11294476D02*
X14473479Y-11284952D01*
X14463955Y-11275428D01*
X14454431Y-11256381D01*
X14454431Y-11199238D01*
X14463955Y-11180190D01*
X14473479Y-11170667D01*
X14492526Y-11161143D01*
X14521098Y-11161143D01*
X14540145Y-11170667D01*
X14549669Y-11180190D01*
X14559193Y-11199238D01*
X14559193Y-11256381D01*
X14549669Y-11275428D01*
X14540145Y-11284952D01*
X14521098Y-11294476D01*
X14492526Y-11294476D01*
X14616336Y-11161143D02*
X14692526Y-11161143D01*
X14644907Y-11094476D02*
X14644907Y-11265905D01*
X14654431Y-11284952D01*
X14673479Y-11294476D01*
X14692526Y-11294476D01*
X14749669Y-11284952D02*
X14768717Y-11294476D01*
X14806812Y-11294476D01*
X14825860Y-11284952D01*
X14835383Y-11265905D01*
X14835383Y-11256381D01*
X14825860Y-11237333D01*
X14806812Y-11227809D01*
X14778241Y-11227809D01*
X14759193Y-11218286D01*
X14749669Y-11199238D01*
X14749669Y-11189714D01*
X14759193Y-11170667D01*
X14778241Y-11161143D01*
X14806812Y-11161143D01*
X14825860Y-11170667D01*
X14902050Y-11370667D02*
X14911574Y-11361143D01*
X14930622Y-11332571D01*
X14940145Y-11313524D01*
X14949669Y-11284952D01*
X14959193Y-11237333D01*
X14959193Y-11199238D01*
X14949669Y-11151619D01*
X14940145Y-11123048D01*
X14930622Y-11104000D01*
X14911574Y-11075429D01*
X14902050Y-11065905D01*
D15*
X8496454Y-11503356D02*
X8496454Y-11432644D01*
X8425742Y-11432644D01*
X8425742Y-11503356D01*
X8496454Y-11503356D01*
D11*
X8873479Y-11558476D02*
X8759193Y-11558476D01*
X8816336Y-11558476D02*
X8816336Y-11358476D01*
X8797288Y-11387048D01*
X8778241Y-11406095D01*
X8759193Y-11415619D01*
X8959193Y-11539428D02*
X8968717Y-11548952D01*
X8959193Y-11558476D01*
X8949669Y-11548952D01*
X8959193Y-11539428D01*
X8959193Y-11558476D01*
X9092526Y-11358476D02*
X9111574Y-11358476D01*
X9130622Y-11368000D01*
X9140145Y-11377524D01*
X9149669Y-11396571D01*
X9159193Y-11434667D01*
X9159193Y-11482286D01*
X9149669Y-11520381D01*
X9140145Y-11539428D01*
X9130622Y-11548952D01*
X9111574Y-11558476D01*
X9092526Y-11558476D01*
X9073479Y-11548952D01*
X9063955Y-11539428D01*
X9054431Y-11520381D01*
X9044907Y-11482286D01*
X9044907Y-11434667D01*
X9054431Y-11396571D01*
X9063955Y-11377524D01*
X9073479Y-11368000D01*
X9092526Y-11358476D01*
X9283003Y-11358476D02*
X9302050Y-11358476D01*
X9321098Y-11368000D01*
X9330622Y-11377524D01*
X9340145Y-11396571D01*
X9349669Y-11434667D01*
X9349669Y-11482286D01*
X9340145Y-11520381D01*
X9330622Y-11539428D01*
X9321098Y-11548952D01*
X9302050Y-11558476D01*
X9283003Y-11558476D01*
X9263955Y-11548952D01*
X9254431Y-11539428D01*
X9244907Y-11520381D01*
X9235384Y-11482286D01*
X9235384Y-11434667D01*
X9244907Y-11396571D01*
X9254431Y-11377524D01*
X9263955Y-11368000D01*
X9283003Y-11358476D01*
X9473479Y-11358476D02*
X9492526Y-11358476D01*
X9511574Y-11368000D01*
X9521098Y-11377524D01*
X9530622Y-11396571D01*
X9540145Y-11434667D01*
X9540145Y-11482286D01*
X9530622Y-11520381D01*
X9521098Y-11539428D01*
X9511574Y-11548952D01*
X9492526Y-11558476D01*
X9473479Y-11558476D01*
X9454431Y-11548952D01*
X9444907Y-11539428D01*
X9435384Y-11520381D01*
X9425860Y-11482286D01*
X9425860Y-11434667D01*
X9435384Y-11396571D01*
X9444907Y-11377524D01*
X9454431Y-11368000D01*
X9473479Y-11358476D01*
X9625860Y-11558476D02*
X9625860Y-11425143D01*
X9625860Y-11444190D02*
X9635384Y-11434667D01*
X9654431Y-11425143D01*
X9683003Y-11425143D01*
X9702050Y-11434667D01*
X9711574Y-11453714D01*
X9711574Y-11558476D01*
X9711574Y-11453714D02*
X9721098Y-11434667D01*
X9740145Y-11425143D01*
X9768717Y-11425143D01*
X9787764Y-11434667D01*
X9797288Y-11453714D01*
X9797288Y-11558476D01*
X9892526Y-11558476D02*
X9892526Y-11425143D01*
X9892526Y-11444190D02*
X9902050Y-11434667D01*
X9921098Y-11425143D01*
X9949669Y-11425143D01*
X9968717Y-11434667D01*
X9978241Y-11453714D01*
X9978241Y-11558476D01*
X9978241Y-11453714D02*
X9987764Y-11434667D01*
X10006812Y-11425143D01*
X10035384Y-11425143D01*
X10054431Y-11434667D01*
X10063955Y-11453714D01*
X10063955Y-11558476D01*
X10454431Y-11348952D02*
X10283003Y-11606095D01*
X10711574Y-11358476D02*
X10730622Y-11358476D01*
X10749669Y-11368000D01*
X10759193Y-11377524D01*
X10768717Y-11396571D01*
X10778241Y-11434667D01*
X10778241Y-11482286D01*
X10768717Y-11520381D01*
X10759193Y-11539428D01*
X10749669Y-11548952D01*
X10730622Y-11558476D01*
X10711574Y-11558476D01*
X10692526Y-11548952D01*
X10683003Y-11539428D01*
X10673479Y-11520381D01*
X10663955Y-11482286D01*
X10663955Y-11434667D01*
X10673479Y-11396571D01*
X10683003Y-11377524D01*
X10692526Y-11368000D01*
X10711574Y-11358476D01*
X10863955Y-11539428D02*
X10873479Y-11548952D01*
X10863955Y-11558476D01*
X10854431Y-11548952D01*
X10863955Y-11539428D01*
X10863955Y-11558476D01*
X10997288Y-11358476D02*
X11016336Y-11358476D01*
X11035384Y-11368000D01*
X11044907Y-11377524D01*
X11054431Y-11396571D01*
X11063955Y-11434667D01*
X11063955Y-11482286D01*
X11054431Y-11520381D01*
X11044907Y-11539428D01*
X11035384Y-11548952D01*
X11016336Y-11558476D01*
X10997288Y-11558476D01*
X10978241Y-11548952D01*
X10968717Y-11539428D01*
X10959193Y-11520381D01*
X10949669Y-11482286D01*
X10949669Y-11434667D01*
X10959193Y-11396571D01*
X10968717Y-11377524D01*
X10978241Y-11368000D01*
X10997288Y-11358476D01*
X11130622Y-11358476D02*
X11254431Y-11358476D01*
X11187764Y-11434667D01*
X11216336Y-11434667D01*
X11235383Y-11444190D01*
X11244907Y-11453714D01*
X11254431Y-11472762D01*
X11254431Y-11520381D01*
X11244907Y-11539428D01*
X11235383Y-11548952D01*
X11216336Y-11558476D01*
X11159193Y-11558476D01*
X11140145Y-11548952D01*
X11130622Y-11539428D01*
X11349669Y-11558476D02*
X11387764Y-11558476D01*
X11406812Y-11548952D01*
X11416336Y-11539428D01*
X11435383Y-11510857D01*
X11444907Y-11472762D01*
X11444907Y-11396571D01*
X11435383Y-11377524D01*
X11425860Y-11368000D01*
X11406812Y-11358476D01*
X11368717Y-11358476D01*
X11349669Y-11368000D01*
X11340145Y-11377524D01*
X11330622Y-11396571D01*
X11330622Y-11444190D01*
X11340145Y-11463238D01*
X11349669Y-11472762D01*
X11368717Y-11482286D01*
X11406812Y-11482286D01*
X11425860Y-11472762D01*
X11435383Y-11463238D01*
X11444907Y-11444190D01*
X11616336Y-11425143D02*
X11616336Y-11558476D01*
X11568717Y-11348952D02*
X11521098Y-11491809D01*
X11644907Y-11491809D01*
X11711574Y-11358476D02*
X11711574Y-11396571D01*
X11787764Y-11358476D02*
X11787764Y-11396571D01*
X12083002Y-11634667D02*
X12073479Y-11625143D01*
X12054431Y-11596571D01*
X12044907Y-11577524D01*
X12035383Y-11548952D01*
X12025860Y-11501333D01*
X12025860Y-11463238D01*
X12035383Y-11415619D01*
X12044907Y-11387048D01*
X12054431Y-11368000D01*
X12073479Y-11339428D01*
X12083002Y-11329905D01*
X12263955Y-11558476D02*
X12149669Y-11558476D01*
X12206812Y-11558476D02*
X12206812Y-11358476D01*
X12187764Y-11387048D01*
X12168717Y-11406095D01*
X12149669Y-11415619D01*
X12387764Y-11358476D02*
X12406812Y-11358476D01*
X12425860Y-11368000D01*
X12435383Y-11377524D01*
X12444907Y-11396571D01*
X12454431Y-11434667D01*
X12454431Y-11482286D01*
X12444907Y-11520381D01*
X12435383Y-11539428D01*
X12425860Y-11548952D01*
X12406812Y-11558476D01*
X12387764Y-11558476D01*
X12368717Y-11548952D01*
X12359193Y-11539428D01*
X12349669Y-11520381D01*
X12340145Y-11482286D01*
X12340145Y-11434667D01*
X12349669Y-11396571D01*
X12359193Y-11377524D01*
X12368717Y-11368000D01*
X12387764Y-11358476D01*
X12625860Y-11425143D02*
X12625860Y-11558476D01*
X12578241Y-11348952D02*
X12530622Y-11491809D01*
X12654431Y-11491809D01*
X12883002Y-11558476D02*
X12883002Y-11358476D01*
X12968717Y-11558476D02*
X12968717Y-11453714D01*
X12959193Y-11434667D01*
X12940145Y-11425143D01*
X12911574Y-11425143D01*
X12892526Y-11434667D01*
X12883002Y-11444190D01*
X13092526Y-11558476D02*
X13073479Y-11548952D01*
X13063955Y-11539428D01*
X13054431Y-11520381D01*
X13054431Y-11463238D01*
X13063955Y-11444190D01*
X13073479Y-11434667D01*
X13092526Y-11425143D01*
X13121098Y-11425143D01*
X13140145Y-11434667D01*
X13149669Y-11444190D01*
X13159193Y-11463238D01*
X13159193Y-11520381D01*
X13149669Y-11539428D01*
X13140145Y-11548952D01*
X13121098Y-11558476D01*
X13092526Y-11558476D01*
X13273479Y-11558476D02*
X13254431Y-11548952D01*
X13244907Y-11529905D01*
X13244907Y-11358476D01*
X13425860Y-11548952D02*
X13406812Y-11558476D01*
X13368717Y-11558476D01*
X13349669Y-11548952D01*
X13340145Y-11529905D01*
X13340145Y-11453714D01*
X13349669Y-11434667D01*
X13368717Y-11425143D01*
X13406812Y-11425143D01*
X13425860Y-11434667D01*
X13435383Y-11453714D01*
X13435383Y-11472762D01*
X13340145Y-11491809D01*
X13511574Y-11548952D02*
X13530622Y-11558476D01*
X13568717Y-11558476D01*
X13587764Y-11548952D01*
X13597288Y-11529905D01*
X13597288Y-11520381D01*
X13587764Y-11501333D01*
X13568717Y-11491809D01*
X13540145Y-11491809D01*
X13521098Y-11482286D01*
X13511574Y-11463238D01*
X13511574Y-11453714D01*
X13521098Y-11434667D01*
X13540145Y-11425143D01*
X13568717Y-11425143D01*
X13587764Y-11434667D01*
X13663955Y-11634667D02*
X13673479Y-11625143D01*
X13692526Y-11596571D01*
X13702050Y-11577524D01*
X13711574Y-11548952D01*
X13721098Y-11501333D01*
X13721098Y-11463238D01*
X13711574Y-11415619D01*
X13702050Y-11387048D01*
X13692526Y-11368000D01*
X13673479Y-11339428D01*
X13663955Y-11329905D01*
M02*
