M48
; DRILL file {KiCad 6.0.1-79c1e3a40b~116~ubuntu20.04.1} date mer. 09 mars 2022 16:59:10
; FORMAT={-:-/ absolute / metric / decimal}
; #@! TF.CreationDate,2022-03-09T16:59:10+01:00
; #@! TF.GenerationSoftware,Kicad,Pcbnew,6.0.1-79c1e3a40b~116~ubuntu20.04.1
; #@! TF.FileFunction,Plated,1,4,PTH
FMAT,2
METRIC
; #@! TA.AperFunction,Plated,PTH,ViaDrill
T1C0.200
; #@! TA.AperFunction,Plated,PTH,ViaDrill
T2C0.400
; #@! TA.AperFunction,Plated,PTH,ComponentDrill
T3C1.000
%
G90
G05
T1
X88.2Y-58.4
X88.2Y-61.1
X88.2Y-64.0
X88.281Y-71.035
X88.533Y-83.507
X88.78Y-82.374
X88.936Y-88.023
X89.011Y-88.86
X89.831Y-69.99
X89.831Y-70.79
X89.884Y-78.897
X90.131Y-69.44
X90.231Y-68.79
X90.261Y-50.51
X90.281Y-67.49
X90.511Y-68.14
X90.631Y-74.89
X90.681Y-66.09
X90.781Y-83.79
X90.8Y-55.9
X90.8Y-56.6
X90.808Y-65.322
X90.881Y-66.79
X91.081Y-64.69
X91.181Y-80.99
X91.561Y-74.331
X91.61Y-81.477
X91.861Y-64.622
X91.912Y-72.859
X92.279Y-81.381
X92.331Y-82.59
X92.431Y-64.31
X92.431Y-93.94
X92.481Y-86.99
X92.542Y-72.702
X92.581Y-88.24
X92.611Y-73.36
X92.811Y-71.56
X92.951Y-63.308
X93.098Y-77.526
X93.157Y-89.59
X93.157Y-90.19
X93.211Y-72.16
X93.279Y-59.879
X93.3Y-55.4
X93.331Y-73.24
X93.331Y-78.39
X93.361Y-71.21
X93.468Y-76.486
X93.561Y-93.96
X93.574Y-63.49
X93.606Y-77.121
X93.669Y-77.835
X93.811Y-71.86
X93.929Y-78.757
X93.936Y-76.036
X94.124Y-64.097
X94.131Y-78.14
X94.299Y-93.975
X94.311Y-94.81
X94.524Y-79.131
X94.631Y-78.49
X94.703Y-64.39
X95.061Y-93.96
X95.561Y-94.81
X96.498Y-78.967
X96.631Y-69.84
X97.181Y-73.54
X97.331Y-70.29
X97.331Y-71.39
X97.361Y-64.51
X97.481Y-83.248
X97.631Y-72.04
X97.631Y-72.79
X97.802Y-82.424
X97.872Y-74.549
X97.931Y-84.99
X97.931Y-85.99
X97.931Y-86.79
X97.931Y-87.59
X97.931Y-88.39
X97.931Y-89.19
X98.031Y-83.74
X98.047Y-78.575
X98.081Y-89.99
X98.21Y-94.165
X98.311Y-63.31
X98.331Y-74.09
X98.461Y-65.41
X98.461Y-77.21
X98.481Y-84.39
X98.533Y-78.144
X98.681Y-89.99
X98.731Y-83.19
X98.931Y-93.79
X99.031Y-83.94
X99.061Y-77.61
X99.129Y-76.455
X99.281Y-90.59
X99.381Y-83.39
X99.431Y-82.69
X99.531Y-88.11
X99.566Y-69.11
X99.789Y-75.255
X99.831Y-95.44
X99.881Y-89.99
X99.935Y-74.622
X100.1Y-69.6
X100.131Y-85.11
X100.231Y-87.41
X100.261Y-67.21
X100.281Y-90.99
X100.561Y-80.66
X100.785Y-76.01
X101.017Y-70.199
X101.081Y-82.59
X101.081Y-83.19
X101.081Y-83.99
X101.081Y-90.99
X101.2Y-50.5
X101.211Y-75.44
X101.261Y-67.71
X101.481Y-84.59
X101.531Y-81.74
X101.586Y-69.886
X101.7Y-71.0
X101.76Y-96.011
X102.081Y-88.59
X102.081Y-89.39
X102.081Y-90.19
X102.081Y-90.99
X102.181Y-85.24
X102.181Y-85.99
X102.181Y-86.79
X102.181Y-87.64
X102.427Y-70.6
X102.481Y-78.29
X103.061Y-93.51
X103.061Y-94.31
X103.331Y-76.69
X103.661Y-80.01
X103.855Y-82.41
T2
X92.081Y-53.59
X92.4Y-51.7
X94.2Y-52.3
X95.9Y-56.5
X95.9Y-58.1
X96.9Y-55.0
X98.0Y-52.2
X99.2Y-51.79
X102.1Y-56.3
X102.8Y-58.6
T3
X85.161Y-50.81
X85.161Y-53.35
X85.161Y-55.89
X85.161Y-58.43
X85.161Y-60.97
X85.161Y-63.51
X85.161Y-66.05
X85.161Y-68.59
X85.161Y-71.13
X85.161Y-73.67
X85.161Y-76.21
X85.161Y-78.75
X85.161Y-81.29
X85.161Y-83.83
X85.161Y-86.37
X85.161Y-88.91
X85.161Y-91.45
X85.161Y-93.99
X85.161Y-96.53
X85.161Y-99.07
X86.861Y-50.81
X86.861Y-53.35
X86.861Y-55.89
X86.861Y-58.43
X86.861Y-60.97
X86.861Y-63.51
X86.861Y-66.05
X86.861Y-68.59
X86.861Y-71.13
X86.861Y-73.67
X86.861Y-76.21
X86.861Y-78.75
X86.861Y-81.29
X86.861Y-83.83
X86.861Y-86.37
X86.861Y-88.91
X86.861Y-91.45
X86.861Y-93.99
X86.861Y-96.53
X86.861Y-99.07
X89.311Y-98.61
X89.311Y-100.31
X91.851Y-98.61
X91.851Y-100.31
X94.391Y-98.61
X94.391Y-100.31
X96.931Y-98.61
X96.931Y-100.31
X99.471Y-98.61
X99.471Y-100.31
X102.011Y-98.61
X102.011Y-100.31
X104.461Y-50.81
X104.461Y-53.35
X104.461Y-55.89
X104.461Y-58.43
X104.461Y-60.97
X104.461Y-63.51
X104.461Y-66.05
X104.461Y-68.59
X104.461Y-71.13
X104.461Y-73.67
X104.461Y-76.21
X104.461Y-78.75
X104.461Y-81.29
X104.461Y-83.83
X104.461Y-86.37
X104.461Y-88.91
X104.461Y-91.45
X104.461Y-93.99
X104.461Y-96.53
X104.461Y-99.07
X106.161Y-50.81
X106.161Y-53.35
X106.161Y-55.89
X106.161Y-58.43
X106.161Y-60.97
X106.161Y-63.51
X106.161Y-66.05
X106.161Y-68.59
X106.161Y-71.13
X106.161Y-73.67
X106.161Y-76.21
X106.161Y-78.75
X106.161Y-81.29
X106.161Y-83.83
X106.161Y-86.37
X106.161Y-88.91
X106.161Y-91.45
X106.161Y-93.99
X106.161Y-96.53
X106.161Y-99.07
T0
M30
