%TF.GenerationSoftware,KiCad,Pcbnew,5.1.7-a382d34a8~88~ubuntu20.04.1*%
%TF.CreationDate,2021-06-18T16:23:43+02:00*%
%TF.ProjectId,Shield_Nucleo,53686965-6c64-45f4-9e75-636c656f2e6b,rev?*%
%TF.SameCoordinates,Original*%
%TF.FileFunction,Soldermask,Bot*%
%TF.FilePolarity,Negative*%
%FSLAX46Y46*%
G04 Gerber Fmt 4.6, Leading zero omitted, Abs format (unit mm)*
G04 Created by KiCad (PCBNEW 5.1.7-a382d34a8~88~ubuntu20.04.1) date 2021-06-18 16:23:43*
%MOMM*%
%LPD*%
G01*
G04 APERTURE LIST*
%ADD10O,1.800000X1.800000*%
%ADD11C,1.624000*%
%ADD12C,3.300000*%
%ADD13C,3.100000*%
%ADD14C,1.400000*%
%ADD15C,3.600000*%
%ADD16C,6.100000*%
%ADD17O,1.900000X1.500000*%
%ADD18O,1.500000X1.900000*%
%ADD19C,2.100000*%
%ADD20O,1.100000X1.100000*%
G04 APERTURE END LIST*
D10*
%TO.C,J5*%
X51500000Y-90200000D03*
X51500000Y-87660000D03*
X51500000Y-85120000D03*
X51500000Y-82580000D03*
X51500000Y-80040000D03*
G36*
G01*
X50600000Y-78350000D02*
X50600000Y-76650000D01*
G75*
G02*
X50650000Y-76600000I50000J0D01*
G01*
X52350000Y-76600000D01*
G75*
G02*
X52400000Y-76650000I0J-50000D01*
G01*
X52400000Y-78350000D01*
G75*
G02*
X52350000Y-78400000I-50000J0D01*
G01*
X50650000Y-78400000D01*
G75*
G02*
X50600000Y-78350000I0J50000D01*
G01*
G37*
%TD*%
%TO.C,J4*%
X51500000Y-74000000D03*
X51500000Y-71460000D03*
X51500000Y-68920000D03*
X51500000Y-66380000D03*
X51500000Y-63840000D03*
G36*
G01*
X50600000Y-62150000D02*
X50600000Y-60450000D01*
G75*
G02*
X50650000Y-60400000I50000J0D01*
G01*
X52350000Y-60400000D01*
G75*
G02*
X52400000Y-60450000I0J-50000D01*
G01*
X52400000Y-62150000D01*
G75*
G02*
X52350000Y-62200000I-50000J0D01*
G01*
X50650000Y-62200000D01*
G75*
G02*
X50600000Y-62150000I0J50000D01*
G01*
G37*
%TD*%
%TO.C,JP4*%
X66540000Y-108000000D03*
G36*
G01*
X64850000Y-108900000D02*
X63150000Y-108900000D01*
G75*
G02*
X63100000Y-108850000I0J50000D01*
G01*
X63100000Y-107150000D01*
G75*
G02*
X63150000Y-107100000I50000J0D01*
G01*
X64850000Y-107100000D01*
G75*
G02*
X64900000Y-107150000I0J-50000D01*
G01*
X64900000Y-108850000D01*
G75*
G02*
X64850000Y-108900000I-50000J0D01*
G01*
G37*
%TD*%
%TO.C,J9*%
X55460000Y-108000000D03*
X58000000Y-108000000D03*
G36*
G01*
X59690000Y-107100000D02*
X61390000Y-107100000D01*
G75*
G02*
X61440000Y-107150000I0J-50000D01*
G01*
X61440000Y-108850000D01*
G75*
G02*
X61390000Y-108900000I-50000J0D01*
G01*
X59690000Y-108900000D01*
G75*
G02*
X59640000Y-108850000I0J50000D01*
G01*
X59640000Y-107150000D01*
G75*
G02*
X59690000Y-107100000I50000J0D01*
G01*
G37*
%TD*%
D11*
%TO.C,J7*%
X94760000Y-129120000D03*
D12*
X139200000Y-114500000D03*
X94200000Y-114500000D03*
D13*
X49200000Y-114500000D03*
D12*
X69200000Y-81500000D03*
X119200000Y-81500000D03*
D13*
X138650000Y-40200000D03*
D12*
X49750000Y-40200000D03*
D11*
X54120000Y-116420000D03*
X82060000Y-78320000D03*
X82060000Y-60540000D03*
X92220000Y-126580000D03*
X94760000Y-126580000D03*
X54120000Y-118960000D03*
X125240000Y-113880000D03*
X122700000Y-113880000D03*
X82060000Y-63080000D03*
X82060000Y-80860000D03*
X135400000Y-80860000D03*
X135400000Y-78320000D03*
X135400000Y-63080000D03*
X135400000Y-60540000D03*
X88880000Y-111340000D03*
X88880000Y-108800000D03*
X99040000Y-111340000D03*
X99040000Y-108800000D03*
X91420000Y-106260000D03*
X96500000Y-106260000D03*
X86340000Y-103720000D03*
X91420000Y-103720000D03*
X96500000Y-103720000D03*
X101580000Y-103720000D03*
X86340000Y-101180000D03*
X88880000Y-101180000D03*
X91420000Y-101180000D03*
X96500000Y-101180000D03*
X99040000Y-101180000D03*
X101580000Y-101180000D03*
%TD*%
D14*
%TO.C,J3*%
X109512000Y-52330000D03*
D15*
X115989000Y-44200000D03*
X96050000Y-44200000D03*
D14*
X112496500Y-54614000D03*
X101701500Y-54614000D03*
X106464000Y-50550000D03*
G36*
G01*
X101700000Y-51200000D02*
X101700000Y-49900000D01*
G75*
G02*
X101750000Y-49850000I50000J0D01*
G01*
X103050000Y-49850000D01*
G75*
G02*
X103100000Y-49900000I0J-50000D01*
G01*
X103100000Y-51200000D01*
G75*
G02*
X103050000Y-51250000I-50000J0D01*
G01*
X101750000Y-51250000D01*
G75*
G02*
X101700000Y-51200000I0J50000D01*
G01*
G37*
X108496000Y-50550000D03*
X99415500Y-54614000D03*
X104432000Y-50550000D03*
X110210500Y-54614000D03*
X103416000Y-52330000D03*
X105448000Y-52330000D03*
X107480000Y-52330000D03*
%TD*%
%TO.C,J2*%
X68812000Y-52280000D03*
D15*
X75289000Y-44150000D03*
X55350000Y-44150000D03*
D14*
X71796500Y-54564000D03*
X61001500Y-54564000D03*
X65764000Y-50500000D03*
G36*
G01*
X61000000Y-51150000D02*
X61000000Y-49850000D01*
G75*
G02*
X61050000Y-49800000I50000J0D01*
G01*
X62350000Y-49800000D01*
G75*
G02*
X62400000Y-49850000I0J-50000D01*
G01*
X62400000Y-51150000D01*
G75*
G02*
X62350000Y-51200000I-50000J0D01*
G01*
X61050000Y-51200000D01*
G75*
G02*
X61000000Y-51150000I0J50000D01*
G01*
G37*
X67796000Y-50500000D03*
X58715500Y-54564000D03*
X63732000Y-50500000D03*
X69510500Y-54564000D03*
X62716000Y-52280000D03*
X64748000Y-52280000D03*
X66780000Y-52280000D03*
%TD*%
D13*
%TO.C,PS4*%
X65500000Y-112900000D03*
X55340000Y-133220000D03*
X75660000Y-112900000D03*
X55340000Y-112900000D03*
X68040000Y-133220000D03*
X62960000Y-133220000D03*
%TD*%
D16*
%TO.C,BT1*%
X128205000Y-108749000D03*
G36*
G01*
X130705000Y-91299000D02*
X125705000Y-91299000D01*
G75*
G02*
X125655000Y-91249000I0J50000D01*
G01*
X125655000Y-86249000D01*
G75*
G02*
X125705000Y-86199000I50000J0D01*
G01*
X130705000Y-86199000D01*
G75*
G02*
X130755000Y-86249000I0J-50000D01*
G01*
X130755000Y-91249000D01*
G75*
G02*
X130705000Y-91299000I-50000J0D01*
G01*
G37*
%TD*%
%TO.C,U9*%
G36*
G01*
X108800000Y-72150000D02*
X107000000Y-72150000D01*
G75*
G02*
X106950000Y-72100000I0J50000D01*
G01*
X106950000Y-70700000D01*
G75*
G02*
X107000000Y-70650000I50000J0D01*
G01*
X108800000Y-70650000D01*
G75*
G02*
X108850000Y-70700000I0J-50000D01*
G01*
X108850000Y-72100000D01*
G75*
G02*
X108800000Y-72150000I-50000J0D01*
G01*
G37*
D17*
X107900000Y-68860000D03*
X107900000Y-66320000D03*
X107900000Y-63780000D03*
%TD*%
%TO.C,U8*%
G36*
G01*
X117070000Y-121700000D02*
X117070000Y-119900000D01*
G75*
G02*
X117120000Y-119850000I50000J0D01*
G01*
X118520000Y-119850000D01*
G75*
G02*
X118570000Y-119900000I0J-50000D01*
G01*
X118570000Y-121700000D01*
G75*
G02*
X118520000Y-121750000I-50000J0D01*
G01*
X117120000Y-121750000D01*
G75*
G02*
X117070000Y-121700000I0J50000D01*
G01*
G37*
D18*
X120360000Y-120800000D03*
X122900000Y-120800000D03*
X125440000Y-120800000D03*
%TD*%
D19*
%TO.C,TP33*%
X49290000Y-55000000D03*
%TD*%
%TO.C,TP32*%
X49290000Y-58750000D03*
%TD*%
%TO.C,TP15*%
X75200000Y-69500000D03*
%TD*%
%TO.C,TP14*%
X71100000Y-73000000D03*
%TD*%
%TO.C,TP13*%
X71100000Y-69500000D03*
%TD*%
%TO.C,TP12*%
X108700000Y-81250000D03*
%TD*%
%TO.C,TP8*%
X105950000Y-81250000D03*
%TD*%
%TO.C,TP7*%
X105950000Y-78500000D03*
%TD*%
%TO.C,TP6*%
X108700000Y-78500000D03*
%TD*%
%TO.C,TP5*%
X89000000Y-79250000D03*
%TD*%
%TO.C,TP4*%
X85950000Y-79250000D03*
%TD*%
%TO.C,TP3*%
X118100000Y-87700000D03*
%TD*%
%TO.C,TP2*%
X116500000Y-96000000D03*
%TD*%
%TO.C,TP1*%
X75200000Y-73000000D03*
%TD*%
D20*
%TO.C,TH1*%
X109530000Y-110000000D03*
G36*
G01*
X111300000Y-110550000D02*
X110300000Y-110550000D01*
G75*
G02*
X110250000Y-110500000I0J50000D01*
G01*
X110250000Y-109500000D01*
G75*
G02*
X110300000Y-109450000I50000J0D01*
G01*
X111300000Y-109450000D01*
G75*
G02*
X111350000Y-109500000I0J-50000D01*
G01*
X111350000Y-110500000D01*
G75*
G02*
X111300000Y-110550000I-50000J0D01*
G01*
G37*
%TD*%
D10*
%TO.C,SWD1*%
X51500000Y-106300000D03*
X51500000Y-103760000D03*
X51500000Y-101220000D03*
X51500000Y-98680000D03*
X51500000Y-96140000D03*
G36*
G01*
X50600000Y-94450000D02*
X50600000Y-92750000D01*
G75*
G02*
X50650000Y-92700000I50000J0D01*
G01*
X52350000Y-92700000D01*
G75*
G02*
X52400000Y-92750000I0J-50000D01*
G01*
X52400000Y-94450000D01*
G75*
G02*
X52350000Y-94500000I-50000J0D01*
G01*
X50650000Y-94500000D01*
G75*
G02*
X50600000Y-94450000I0J50000D01*
G01*
G37*
%TD*%
%TO.C,JP2*%
X120865000Y-87649000D03*
G36*
G01*
X122555000Y-86749000D02*
X124255000Y-86749000D01*
G75*
G02*
X124305000Y-86799000I0J-50000D01*
G01*
X124305000Y-88499000D01*
G75*
G02*
X124255000Y-88549000I-50000J0D01*
G01*
X122555000Y-88549000D01*
G75*
G02*
X122505000Y-88499000I0J50000D01*
G01*
X122505000Y-86799000D01*
G75*
G02*
X122555000Y-86749000I50000J0D01*
G01*
G37*
%TD*%
M02*
