%TF.GenerationSoftware,KiCad,Pcbnew,5.1.7-a382d34a8~88~ubuntu20.04.1*%
%TF.CreationDate,2021-06-18T16:23:43+02:00*%
%TF.ProjectId,Shield_Nucleo,53686965-6c64-45f4-9e75-636c656f2e6b,rev?*%
%TF.SameCoordinates,Original*%
%TF.FileFunction,Copper,L1,Top*%
%TF.FilePolarity,Positive*%
%FSLAX46Y46*%
G04 Gerber Fmt 4.6, Leading zero omitted, Abs format (unit mm)*
G04 Created by KiCad (PCBNEW 5.1.7-a382d34a8~88~ubuntu20.04.1) date 2021-06-18 16:23:43*
%MOMM*%
%LPD*%
G01*
G04 APERTURE LIST*
%TA.AperFunction,ComponentPad*%
%ADD10O,1.700000X1.700000*%
%TD*%
%TA.AperFunction,ComponentPad*%
%ADD11R,1.700000X1.700000*%
%TD*%
%TA.AperFunction,SMDPad,CuDef*%
%ADD12R,0.900000X0.800000*%
%TD*%
%TA.AperFunction,SMDPad,CuDef*%
%ADD13R,2.200000X5.600000*%
%TD*%
%TA.AperFunction,SMDPad,CuDef*%
%ADD14R,1.200000X3.200000*%
%TD*%
%TA.AperFunction,SMDPad,CuDef*%
%ADD15R,2.500000X2.500000*%
%TD*%
%TA.AperFunction,ComponentPad*%
%ADD16C,1.300000*%
%TD*%
%TA.AperFunction,ComponentPad*%
%ADD17C,3.500000*%
%TD*%
%TA.AperFunction,ComponentPad*%
%ADD18R,1.300000X1.300000*%
%TD*%
%TA.AperFunction,ComponentPad*%
%ADD19C,3.000000*%
%TD*%
%TA.AperFunction,ComponentPad*%
%ADD20C,6.000000*%
%TD*%
%TA.AperFunction,ComponentPad*%
%ADD21R,5.000000X5.000000*%
%TD*%
%TA.AperFunction,ComponentPad*%
%ADD22R,1.800000X1.400000*%
%TD*%
%TA.AperFunction,ComponentPad*%
%ADD23O,1.800000X1.400000*%
%TD*%
%TA.AperFunction,ComponentPad*%
%ADD24R,1.400000X1.800000*%
%TD*%
%TA.AperFunction,ComponentPad*%
%ADD25O,1.400000X1.800000*%
%TD*%
%TA.AperFunction,ComponentPad*%
%ADD26C,2.000000*%
%TD*%
%TA.AperFunction,SMDPad,CuDef*%
%ADD27R,1.500000X1.000000*%
%TD*%
%TA.AperFunction,ComponentPad*%
%ADD28O,1.000000X1.000000*%
%TD*%
%TA.AperFunction,ComponentPad*%
%ADD29R,1.000000X1.000000*%
%TD*%
%TA.AperFunction,SMDPad,CuDef*%
%ADD30R,0.900000X1.000000*%
%TD*%
%TA.AperFunction,SMDPad,CuDef*%
%ADD31R,2.400000X0.740000*%
%TD*%
%TA.AperFunction,SMDPad,CuDef*%
%ADD32C,0.150000*%
%TD*%
%TA.AperFunction,SMDPad,CuDef*%
%ADD33R,1.780000X2.000000*%
%TD*%
%TA.AperFunction,SMDPad,CuDef*%
%ADD34R,2.300000X2.500000*%
%TD*%
%TA.AperFunction,SMDPad,CuDef*%
%ADD35R,1.200000X0.900000*%
%TD*%
%TA.AperFunction,SMDPad,CuDef*%
%ADD36R,2.000000X1.500000*%
%TD*%
%TA.AperFunction,SMDPad,CuDef*%
%ADD37R,2.000000X3.800000*%
%TD*%
%TA.AperFunction,SMDPad,CuDef*%
%ADD38R,1.000000X1.500000*%
%TD*%
%TA.AperFunction,ViaPad*%
%ADD39C,0.800000*%
%TD*%
%TA.AperFunction,Conductor*%
%ADD40C,0.250000*%
%TD*%
%TA.AperFunction,Conductor*%
%ADD41C,1.000000*%
%TD*%
%TA.AperFunction,Conductor*%
%ADD42C,0.500000*%
%TD*%
%TA.AperFunction,Conductor*%
%ADD43C,0.254000*%
%TD*%
%TA.AperFunction,Conductor*%
%ADD44C,0.150000*%
%TD*%
G04 APERTURE END LIST*
D10*
%TO.P,J5,6*%
%TO.N,/SPI3_CS2*%
X51500000Y-90200000D03*
%TO.P,J5,5*%
%TO.N,/SPI3_SCK*%
X51500000Y-87660000D03*
%TO.P,J5,4*%
%TO.N,/SPI3_MOSI*%
X51500000Y-85120000D03*
%TO.P,J5,3*%
%TO.N,/SPI3_MISO*%
X51500000Y-82580000D03*
%TO.P,J5,2*%
%TO.N,+3V3*%
X51500000Y-80040000D03*
D11*
%TO.P,J5,1*%
%TO.N,GNDD*%
X51500000Y-77500000D03*
%TD*%
D10*
%TO.P,J4,6*%
%TO.N,+5VD*%
X51500000Y-74000000D03*
%TO.P,J4,5*%
%TO.N,GNDD*%
X51500000Y-71460000D03*
%TO.P,J4,4*%
%TO.N,/USART1_TX*%
X51500000Y-68920000D03*
%TO.P,J4,3*%
%TO.N,/USART1_RX*%
X51500000Y-66380000D03*
%TO.P,J4,2*%
%TO.N,/DTR*%
X51500000Y-63840000D03*
D11*
%TO.P,J4,1*%
%TO.N,+3V3*%
X51500000Y-61300000D03*
%TD*%
D10*
%TO.P,JP4,2*%
%TO.N,/+5VJP*%
X66540000Y-108000000D03*
D11*
%TO.P,JP4,1*%
%TO.N,+5VD*%
X64000000Y-108000000D03*
%TD*%
D10*
%TO.P,J9,3*%
%TO.N,GNDD*%
X55460000Y-108000000D03*
%TO.P,J9,2*%
%TO.N,Net-(J9-Pad2)*%
X58000000Y-108000000D03*
D11*
%TO.P,J9,1*%
%TO.N,+5VD*%
X60540000Y-108000000D03*
%TD*%
D12*
%TO.P,U10,3*%
%TO.N,+12V*%
X95400000Y-129150000D03*
%TO.P,U10,2*%
%TO.N,+5P*%
X93400000Y-130100000D03*
%TO.P,U10,1*%
%TO.N,GNDREF*%
X93400000Y-128200000D03*
%TD*%
%TO.P,C44,2*%
%TO.N,GNDREF*%
%TA.AperFunction,SMDPad,CuDef*%
G36*
G01*
X93950000Y-125925000D02*
X93950000Y-126875000D01*
G75*
G02*
X93700000Y-127125000I-250000J0D01*
G01*
X93200000Y-127125000D01*
G75*
G02*
X92950000Y-126875000I0J250000D01*
G01*
X92950000Y-125925000D01*
G75*
G02*
X93200000Y-125675000I250000J0D01*
G01*
X93700000Y-125675000D01*
G75*
G02*
X93950000Y-125925000I0J-250000D01*
G01*
G37*
%TD.AperFunction*%
%TO.P,C44,1*%
%TO.N,+12V*%
%TA.AperFunction,SMDPad,CuDef*%
G36*
G01*
X95850000Y-125925000D02*
X95850000Y-126875000D01*
G75*
G02*
X95600000Y-127125000I-250000J0D01*
G01*
X95100000Y-127125000D01*
G75*
G02*
X94850000Y-126875000I0J250000D01*
G01*
X94850000Y-125925000D01*
G75*
G02*
X95100000Y-125675000I250000J0D01*
G01*
X95600000Y-125675000D01*
G75*
G02*
X95850000Y-125925000I0J-250000D01*
G01*
G37*
%TD.AperFunction*%
%TD*%
%TO.P,C43,2*%
%TO.N,GNDREF*%
%TA.AperFunction,SMDPad,CuDef*%
G36*
G01*
X94850000Y-132275000D02*
X94850000Y-131325000D01*
G75*
G02*
X95100000Y-131075000I250000J0D01*
G01*
X95600000Y-131075000D01*
G75*
G02*
X95850000Y-131325000I0J-250000D01*
G01*
X95850000Y-132275000D01*
G75*
G02*
X95600000Y-132525000I-250000J0D01*
G01*
X95100000Y-132525000D01*
G75*
G02*
X94850000Y-132275000I0J250000D01*
G01*
G37*
%TD.AperFunction*%
%TO.P,C43,1*%
%TO.N,+5P*%
%TA.AperFunction,SMDPad,CuDef*%
G36*
G01*
X92950000Y-132275000D02*
X92950000Y-131325000D01*
G75*
G02*
X93200000Y-131075000I250000J0D01*
G01*
X93700000Y-131075000D01*
G75*
G02*
X93950000Y-131325000I0J-250000D01*
G01*
X93950000Y-132275000D01*
G75*
G02*
X93700000Y-132525000I-250000J0D01*
G01*
X93200000Y-132525000D01*
G75*
G02*
X92950000Y-132275000I0J250000D01*
G01*
G37*
%TD.AperFunction*%
%TD*%
%TO.P,C14,2*%
%TO.N,GNDD*%
%TA.AperFunction,SMDPad,CuDef*%
G36*
G01*
X101582322Y-95254073D02*
X102254073Y-94582322D01*
G75*
G02*
X102607627Y-94582322I176777J-176777D01*
G01*
X102961180Y-94935875D01*
G75*
G02*
X102961180Y-95289429I-176777J-176777D01*
G01*
X102289429Y-95961180D01*
G75*
G02*
X101935875Y-95961180I-176777J176777D01*
G01*
X101582322Y-95607627D01*
G75*
G02*
X101582322Y-95254073I176777J176777D01*
G01*
G37*
%TD.AperFunction*%
%TO.P,C14,1*%
%TO.N,+3.3VA*%
%TA.AperFunction,SMDPad,CuDef*%
G36*
G01*
X100238820Y-93910571D02*
X100910571Y-93238820D01*
G75*
G02*
X101264125Y-93238820I176777J-176777D01*
G01*
X101617678Y-93592373D01*
G75*
G02*
X101617678Y-93945927I-176777J-176777D01*
G01*
X100945927Y-94617678D01*
G75*
G02*
X100592373Y-94617678I-176777J176777D01*
G01*
X100238820Y-94264125D01*
G75*
G02*
X100238820Y-93910571I176777J176777D01*
G01*
G37*
%TD.AperFunction*%
%TD*%
%TO.P,R26,2*%
%TO.N,GNDD*%
%TA.AperFunction,SMDPad,CuDef*%
G36*
G01*
X117930000Y-109450001D02*
X117930000Y-108549999D01*
G75*
G02*
X118179999Y-108300000I249999J0D01*
G01*
X118705001Y-108300000D01*
G75*
G02*
X118955000Y-108549999I0J-249999D01*
G01*
X118955000Y-109450001D01*
G75*
G02*
X118705001Y-109700000I-249999J0D01*
G01*
X118179999Y-109700000D01*
G75*
G02*
X117930000Y-109450001I0J249999D01*
G01*
G37*
%TD.AperFunction*%
%TO.P,R26,1*%
%TO.N,Net-(LED2-Pad1)*%
%TA.AperFunction,SMDPad,CuDef*%
G36*
G01*
X116105000Y-109450001D02*
X116105000Y-108549999D01*
G75*
G02*
X116354999Y-108300000I249999J0D01*
G01*
X116880001Y-108300000D01*
G75*
G02*
X117130000Y-108549999I0J-249999D01*
G01*
X117130000Y-109450001D01*
G75*
G02*
X116880001Y-109700000I-249999J0D01*
G01*
X116354999Y-109700000D01*
G75*
G02*
X116105000Y-109450001I0J249999D01*
G01*
G37*
%TD.AperFunction*%
%TD*%
%TO.P,LED2,2*%
%TO.N,+3V3*%
%TA.AperFunction,SMDPad,CuDef*%
G36*
G01*
X118020000Y-107371250D02*
X118020000Y-106458750D01*
G75*
G02*
X118263750Y-106215000I243750J0D01*
G01*
X118751250Y-106215000D01*
G75*
G02*
X118995000Y-106458750I0J-243750D01*
G01*
X118995000Y-107371250D01*
G75*
G02*
X118751250Y-107615000I-243750J0D01*
G01*
X118263750Y-107615000D01*
G75*
G02*
X118020000Y-107371250I0J243750D01*
G01*
G37*
%TD.AperFunction*%
%TO.P,LED2,1*%
%TO.N,Net-(LED2-Pad1)*%
%TA.AperFunction,SMDPad,CuDef*%
G36*
G01*
X116145000Y-107371250D02*
X116145000Y-106458750D01*
G75*
G02*
X116388750Y-106215000I243750J0D01*
G01*
X116876250Y-106215000D01*
G75*
G02*
X117120000Y-106458750I0J-243750D01*
G01*
X117120000Y-107371250D01*
G75*
G02*
X116876250Y-107615000I-243750J0D01*
G01*
X116388750Y-107615000D01*
G75*
G02*
X116145000Y-107371250I0J243750D01*
G01*
G37*
%TD.AperFunction*%
%TD*%
%TO.P,C42,2*%
%TO.N,GNDD*%
%TA.AperFunction,SMDPad,CuDef*%
G36*
G01*
X99745927Y-97182322D02*
X100417678Y-97854073D01*
G75*
G02*
X100417678Y-98207627I-176777J-176777D01*
G01*
X100064125Y-98561180D01*
G75*
G02*
X99710571Y-98561180I-176777J176777D01*
G01*
X99038820Y-97889429D01*
G75*
G02*
X99038820Y-97535875I176777J176777D01*
G01*
X99392373Y-97182322D01*
G75*
G02*
X99745927Y-97182322I176777J-176777D01*
G01*
G37*
%TD.AperFunction*%
%TO.P,C42,1*%
%TO.N,/VREF2048*%
%TA.AperFunction,SMDPad,CuDef*%
G36*
G01*
X101089429Y-95838820D02*
X101761180Y-96510571D01*
G75*
G02*
X101761180Y-96864125I-176777J-176777D01*
G01*
X101407627Y-97217678D01*
G75*
G02*
X101054073Y-97217678I-176777J176777D01*
G01*
X100382322Y-96545927D01*
G75*
G02*
X100382322Y-96192373I176777J176777D01*
G01*
X100735875Y-95838820D01*
G75*
G02*
X101089429Y-95838820I176777J-176777D01*
G01*
G37*
%TD.AperFunction*%
%TD*%
%TO.P,C41,2*%
%TO.N,GNDD*%
%TA.AperFunction,SMDPad,CuDef*%
G36*
G01*
X98474176Y-95854073D02*
X99145927Y-96525824D01*
G75*
G02*
X99145927Y-96879378I-176777J-176777D01*
G01*
X98792374Y-97232931D01*
G75*
G02*
X98438820Y-97232931I-176777J176777D01*
G01*
X97767069Y-96561180D01*
G75*
G02*
X97767069Y-96207626I176777J176777D01*
G01*
X98120622Y-95854073D01*
G75*
G02*
X98474176Y-95854073I176777J-176777D01*
G01*
G37*
%TD.AperFunction*%
%TO.P,C41,1*%
%TO.N,/VREF2048*%
%TA.AperFunction,SMDPad,CuDef*%
G36*
G01*
X99817678Y-94510571D02*
X100489429Y-95182322D01*
G75*
G02*
X100489429Y-95535876I-176777J-176777D01*
G01*
X100135876Y-95889429D01*
G75*
G02*
X99782322Y-95889429I-176777J176777D01*
G01*
X99110571Y-95217678D01*
G75*
G02*
X99110571Y-94864124I176777J176777D01*
G01*
X99464124Y-94510571D01*
G75*
G02*
X99817678Y-94510571I176777J-176777D01*
G01*
G37*
%TD.AperFunction*%
%TD*%
D13*
%TO.P,J6,0*%
%TO.N,N/C*%
X119500000Y-132400000D03*
D14*
%TO.P,J6,2*%
%TO.N,GNDREF*%
X116250000Y-128150000D03*
%TO.P,J6,1*%
%TO.N,+12V*%
X113750000Y-128150000D03*
D13*
%TO.P,J6,0*%
%TO.N,N/C*%
X110500000Y-132400000D03*
%TD*%
%TO.P,J1,0*%
%TO.N,N/C*%
X138900000Y-132400000D03*
D14*
%TO.P,J1,2*%
%TO.N,GNDD*%
X135650000Y-128150000D03*
%TO.P,J1,1*%
%TO.N,/+12VD*%
X133150000Y-128150000D03*
D13*
%TO.P,J1,0*%
%TO.N,N/C*%
X129900000Y-132400000D03*
%TD*%
D15*
%TO.P,PS5,1*%
%TO.N,/+12VD*%
X64300000Y-127800000D03*
%TO.P,PS5,2*%
%TO.N,GNDD*%
X64300000Y-116800000D03*
%TO.P,PS5,3*%
%TO.N,/+5VJP*%
X76300000Y-116800000D03*
%TO.P,PS5,4*%
%TO.N,Net-(PS5-Pad4)*%
X76300000Y-127800000D03*
%TD*%
%TO.P,U6,16*%
%TO.N,Net-(C31-Pad1)*%
%TA.AperFunction,SMDPad,CuDef*%
G36*
G01*
X121215000Y-65610000D02*
X120915000Y-65610000D01*
G75*
G02*
X120765000Y-65460000I0J150000D01*
G01*
X120765000Y-63810000D01*
G75*
G02*
X120915000Y-63660000I150000J0D01*
G01*
X121215000Y-63660000D01*
G75*
G02*
X121365000Y-63810000I0J-150000D01*
G01*
X121365000Y-65460000D01*
G75*
G02*
X121215000Y-65610000I-150000J0D01*
G01*
G37*
%TD.AperFunction*%
%TO.P,U6,15*%
%TO.N,/PWM_H2*%
%TA.AperFunction,SMDPad,CuDef*%
G36*
G01*
X122485000Y-65610000D02*
X122185000Y-65610000D01*
G75*
G02*
X122035000Y-65460000I0J150000D01*
G01*
X122035000Y-63810000D01*
G75*
G02*
X122185000Y-63660000I150000J0D01*
G01*
X122485000Y-63660000D01*
G75*
G02*
X122635000Y-63810000I0J-150000D01*
G01*
X122635000Y-65460000D01*
G75*
G02*
X122485000Y-65610000I-150000J0D01*
G01*
G37*
%TD.AperFunction*%
%TO.P,U6,14*%
%TO.N,/SW_Node2*%
%TA.AperFunction,SMDPad,CuDef*%
G36*
G01*
X123755000Y-65610000D02*
X123455000Y-65610000D01*
G75*
G02*
X123305000Y-65460000I0J150000D01*
G01*
X123305000Y-63810000D01*
G75*
G02*
X123455000Y-63660000I150000J0D01*
G01*
X123755000Y-63660000D01*
G75*
G02*
X123905000Y-63810000I0J-150000D01*
G01*
X123905000Y-65460000D01*
G75*
G02*
X123755000Y-65610000I-150000J0D01*
G01*
G37*
%TD.AperFunction*%
%TO.P,U6,13*%
%TO.N,Net-(U6-Pad13)*%
%TA.AperFunction,SMDPad,CuDef*%
G36*
G01*
X125025000Y-65610000D02*
X124725000Y-65610000D01*
G75*
G02*
X124575000Y-65460000I0J150000D01*
G01*
X124575000Y-63810000D01*
G75*
G02*
X124725000Y-63660000I150000J0D01*
G01*
X125025000Y-63660000D01*
G75*
G02*
X125175000Y-63810000I0J-150000D01*
G01*
X125175000Y-65460000D01*
G75*
G02*
X125025000Y-65610000I-150000J0D01*
G01*
G37*
%TD.AperFunction*%
%TO.P,U6,12*%
%TO.N,Net-(U6-Pad12)*%
%TA.AperFunction,SMDPad,CuDef*%
G36*
G01*
X126295000Y-65610000D02*
X125995000Y-65610000D01*
G75*
G02*
X125845000Y-65460000I0J150000D01*
G01*
X125845000Y-63810000D01*
G75*
G02*
X125995000Y-63660000I150000J0D01*
G01*
X126295000Y-63660000D01*
G75*
G02*
X126445000Y-63810000I0J-150000D01*
G01*
X126445000Y-65460000D01*
G75*
G02*
X126295000Y-65610000I-150000J0D01*
G01*
G37*
%TD.AperFunction*%
%TO.P,U6,11*%
%TO.N,+12V*%
%TA.AperFunction,SMDPad,CuDef*%
G36*
G01*
X127565000Y-65610000D02*
X127265000Y-65610000D01*
G75*
G02*
X127115000Y-65460000I0J150000D01*
G01*
X127115000Y-63810000D01*
G75*
G02*
X127265000Y-63660000I150000J0D01*
G01*
X127565000Y-63660000D01*
G75*
G02*
X127715000Y-63810000I0J-150000D01*
G01*
X127715000Y-65460000D01*
G75*
G02*
X127565000Y-65610000I-150000J0D01*
G01*
G37*
%TD.AperFunction*%
%TO.P,U6,10*%
%TO.N,/PWM_L2*%
%TA.AperFunction,SMDPad,CuDef*%
G36*
G01*
X128835000Y-65610000D02*
X128535000Y-65610000D01*
G75*
G02*
X128385000Y-65460000I0J150000D01*
G01*
X128385000Y-63810000D01*
G75*
G02*
X128535000Y-63660000I150000J0D01*
G01*
X128835000Y-63660000D01*
G75*
G02*
X128985000Y-63810000I0J-150000D01*
G01*
X128985000Y-65460000D01*
G75*
G02*
X128835000Y-65610000I-150000J0D01*
G01*
G37*
%TD.AperFunction*%
%TO.P,U6,9*%
%TO.N,GNDREF*%
%TA.AperFunction,SMDPad,CuDef*%
G36*
G01*
X130105000Y-65610000D02*
X129805000Y-65610000D01*
G75*
G02*
X129655000Y-65460000I0J150000D01*
G01*
X129655000Y-63810000D01*
G75*
G02*
X129805000Y-63660000I150000J0D01*
G01*
X130105000Y-63660000D01*
G75*
G02*
X130255000Y-63810000I0J-150000D01*
G01*
X130255000Y-65460000D01*
G75*
G02*
X130105000Y-65610000I-150000J0D01*
G01*
G37*
%TD.AperFunction*%
%TO.P,U6,8*%
%TO.N,+5VD*%
%TA.AperFunction,SMDPad,CuDef*%
G36*
G01*
X130105000Y-70560000D02*
X129805000Y-70560000D01*
G75*
G02*
X129655000Y-70410000I0J150000D01*
G01*
X129655000Y-68760000D01*
G75*
G02*
X129805000Y-68610000I150000J0D01*
G01*
X130105000Y-68610000D01*
G75*
G02*
X130255000Y-68760000I0J-150000D01*
G01*
X130255000Y-70410000D01*
G75*
G02*
X130105000Y-70560000I-150000J0D01*
G01*
G37*
%TD.AperFunction*%
%TO.P,U6,7*%
%TO.N,Net-(U6-Pad7)*%
%TA.AperFunction,SMDPad,CuDef*%
G36*
G01*
X128835000Y-70560000D02*
X128535000Y-70560000D01*
G75*
G02*
X128385000Y-70410000I0J150000D01*
G01*
X128385000Y-68760000D01*
G75*
G02*
X128535000Y-68610000I150000J0D01*
G01*
X128835000Y-68610000D01*
G75*
G02*
X128985000Y-68760000I0J-150000D01*
G01*
X128985000Y-70410000D01*
G75*
G02*
X128835000Y-70560000I-150000J0D01*
G01*
G37*
%TD.AperFunction*%
%TO.P,U6,6*%
%TO.N,Net-(C30-Pad1)*%
%TA.AperFunction,SMDPad,CuDef*%
G36*
G01*
X127565000Y-70560000D02*
X127265000Y-70560000D01*
G75*
G02*
X127115000Y-70410000I0J150000D01*
G01*
X127115000Y-68760000D01*
G75*
G02*
X127265000Y-68610000I150000J0D01*
G01*
X127565000Y-68610000D01*
G75*
G02*
X127715000Y-68760000I0J-150000D01*
G01*
X127715000Y-70410000D01*
G75*
G02*
X127565000Y-70560000I-150000J0D01*
G01*
G37*
%TD.AperFunction*%
%TO.P,U6,5*%
%TO.N,GNDD*%
%TA.AperFunction,SMDPad,CuDef*%
G36*
G01*
X126295000Y-70560000D02*
X125995000Y-70560000D01*
G75*
G02*
X125845000Y-70410000I0J150000D01*
G01*
X125845000Y-68760000D01*
G75*
G02*
X125995000Y-68610000I150000J0D01*
G01*
X126295000Y-68610000D01*
G75*
G02*
X126445000Y-68760000I0J-150000D01*
G01*
X126445000Y-70410000D01*
G75*
G02*
X126295000Y-70560000I-150000J0D01*
G01*
G37*
%TD.AperFunction*%
%TO.P,U6,4*%
%TA.AperFunction,SMDPad,CuDef*%
G36*
G01*
X125025000Y-70560000D02*
X124725000Y-70560000D01*
G75*
G02*
X124575000Y-70410000I0J150000D01*
G01*
X124575000Y-68760000D01*
G75*
G02*
X124725000Y-68610000I150000J0D01*
G01*
X125025000Y-68610000D01*
G75*
G02*
X125175000Y-68760000I0J-150000D01*
G01*
X125175000Y-70410000D01*
G75*
G02*
X125025000Y-70560000I-150000J0D01*
G01*
G37*
%TD.AperFunction*%
%TO.P,U6,3*%
%TO.N,+5VD*%
%TA.AperFunction,SMDPad,CuDef*%
G36*
G01*
X123755000Y-70560000D02*
X123455000Y-70560000D01*
G75*
G02*
X123305000Y-70410000I0J150000D01*
G01*
X123305000Y-68760000D01*
G75*
G02*
X123455000Y-68610000I150000J0D01*
G01*
X123755000Y-68610000D01*
G75*
G02*
X123905000Y-68760000I0J-150000D01*
G01*
X123905000Y-70410000D01*
G75*
G02*
X123755000Y-70560000I-150000J0D01*
G01*
G37*
%TD.AperFunction*%
%TO.P,U6,2*%
%TO.N,Net-(C28-Pad1)*%
%TA.AperFunction,SMDPad,CuDef*%
G36*
G01*
X122485000Y-70560000D02*
X122185000Y-70560000D01*
G75*
G02*
X122035000Y-70410000I0J150000D01*
G01*
X122035000Y-68760000D01*
G75*
G02*
X122185000Y-68610000I150000J0D01*
G01*
X122485000Y-68610000D01*
G75*
G02*
X122635000Y-68760000I0J-150000D01*
G01*
X122635000Y-70410000D01*
G75*
G02*
X122485000Y-70560000I-150000J0D01*
G01*
G37*
%TD.AperFunction*%
%TO.P,U6,1*%
%TO.N,Net-(C27-Pad2)*%
%TA.AperFunction,SMDPad,CuDef*%
G36*
G01*
X121215000Y-70560000D02*
X120915000Y-70560000D01*
G75*
G02*
X120765000Y-70410000I0J150000D01*
G01*
X120765000Y-68760000D01*
G75*
G02*
X120915000Y-68610000I150000J0D01*
G01*
X121215000Y-68610000D01*
G75*
G02*
X121365000Y-68760000I0J-150000D01*
G01*
X121365000Y-70410000D01*
G75*
G02*
X121215000Y-70560000I-150000J0D01*
G01*
G37*
%TD.AperFunction*%
%TD*%
%TO.P,U5,16*%
%TO.N,Net-(C21-Pad1)*%
%TA.AperFunction,SMDPad,CuDef*%
G36*
G01*
X88785000Y-65620000D02*
X88485000Y-65620000D01*
G75*
G02*
X88335000Y-65470000I0J150000D01*
G01*
X88335000Y-63820000D01*
G75*
G02*
X88485000Y-63670000I150000J0D01*
G01*
X88785000Y-63670000D01*
G75*
G02*
X88935000Y-63820000I0J-150000D01*
G01*
X88935000Y-65470000D01*
G75*
G02*
X88785000Y-65620000I-150000J0D01*
G01*
G37*
%TD.AperFunction*%
%TO.P,U5,15*%
%TO.N,/PWM_H1*%
%TA.AperFunction,SMDPad,CuDef*%
G36*
G01*
X90055000Y-65620000D02*
X89755000Y-65620000D01*
G75*
G02*
X89605000Y-65470000I0J150000D01*
G01*
X89605000Y-63820000D01*
G75*
G02*
X89755000Y-63670000I150000J0D01*
G01*
X90055000Y-63670000D01*
G75*
G02*
X90205000Y-63820000I0J-150000D01*
G01*
X90205000Y-65470000D01*
G75*
G02*
X90055000Y-65620000I-150000J0D01*
G01*
G37*
%TD.AperFunction*%
%TO.P,U5,14*%
%TO.N,/SW_Node1*%
%TA.AperFunction,SMDPad,CuDef*%
G36*
G01*
X91325000Y-65620000D02*
X91025000Y-65620000D01*
G75*
G02*
X90875000Y-65470000I0J150000D01*
G01*
X90875000Y-63820000D01*
G75*
G02*
X91025000Y-63670000I150000J0D01*
G01*
X91325000Y-63670000D01*
G75*
G02*
X91475000Y-63820000I0J-150000D01*
G01*
X91475000Y-65470000D01*
G75*
G02*
X91325000Y-65620000I-150000J0D01*
G01*
G37*
%TD.AperFunction*%
%TO.P,U5,13*%
%TO.N,Net-(U5-Pad13)*%
%TA.AperFunction,SMDPad,CuDef*%
G36*
G01*
X92595000Y-65620000D02*
X92295000Y-65620000D01*
G75*
G02*
X92145000Y-65470000I0J150000D01*
G01*
X92145000Y-63820000D01*
G75*
G02*
X92295000Y-63670000I150000J0D01*
G01*
X92595000Y-63670000D01*
G75*
G02*
X92745000Y-63820000I0J-150000D01*
G01*
X92745000Y-65470000D01*
G75*
G02*
X92595000Y-65620000I-150000J0D01*
G01*
G37*
%TD.AperFunction*%
%TO.P,U5,12*%
%TO.N,Net-(U5-Pad12)*%
%TA.AperFunction,SMDPad,CuDef*%
G36*
G01*
X93865000Y-65620000D02*
X93565000Y-65620000D01*
G75*
G02*
X93415000Y-65470000I0J150000D01*
G01*
X93415000Y-63820000D01*
G75*
G02*
X93565000Y-63670000I150000J0D01*
G01*
X93865000Y-63670000D01*
G75*
G02*
X94015000Y-63820000I0J-150000D01*
G01*
X94015000Y-65470000D01*
G75*
G02*
X93865000Y-65620000I-150000J0D01*
G01*
G37*
%TD.AperFunction*%
%TO.P,U5,11*%
%TO.N,+12V*%
%TA.AperFunction,SMDPad,CuDef*%
G36*
G01*
X95135000Y-65620000D02*
X94835000Y-65620000D01*
G75*
G02*
X94685000Y-65470000I0J150000D01*
G01*
X94685000Y-63820000D01*
G75*
G02*
X94835000Y-63670000I150000J0D01*
G01*
X95135000Y-63670000D01*
G75*
G02*
X95285000Y-63820000I0J-150000D01*
G01*
X95285000Y-65470000D01*
G75*
G02*
X95135000Y-65620000I-150000J0D01*
G01*
G37*
%TD.AperFunction*%
%TO.P,U5,10*%
%TO.N,/PWM_L1*%
%TA.AperFunction,SMDPad,CuDef*%
G36*
G01*
X96405000Y-65620000D02*
X96105000Y-65620000D01*
G75*
G02*
X95955000Y-65470000I0J150000D01*
G01*
X95955000Y-63820000D01*
G75*
G02*
X96105000Y-63670000I150000J0D01*
G01*
X96405000Y-63670000D01*
G75*
G02*
X96555000Y-63820000I0J-150000D01*
G01*
X96555000Y-65470000D01*
G75*
G02*
X96405000Y-65620000I-150000J0D01*
G01*
G37*
%TD.AperFunction*%
%TO.P,U5,9*%
%TO.N,GNDREF*%
%TA.AperFunction,SMDPad,CuDef*%
G36*
G01*
X97675000Y-65620000D02*
X97375000Y-65620000D01*
G75*
G02*
X97225000Y-65470000I0J150000D01*
G01*
X97225000Y-63820000D01*
G75*
G02*
X97375000Y-63670000I150000J0D01*
G01*
X97675000Y-63670000D01*
G75*
G02*
X97825000Y-63820000I0J-150000D01*
G01*
X97825000Y-65470000D01*
G75*
G02*
X97675000Y-65620000I-150000J0D01*
G01*
G37*
%TD.AperFunction*%
%TO.P,U5,8*%
%TO.N,+5VD*%
%TA.AperFunction,SMDPad,CuDef*%
G36*
G01*
X97675000Y-70570000D02*
X97375000Y-70570000D01*
G75*
G02*
X97225000Y-70420000I0J150000D01*
G01*
X97225000Y-68770000D01*
G75*
G02*
X97375000Y-68620000I150000J0D01*
G01*
X97675000Y-68620000D01*
G75*
G02*
X97825000Y-68770000I0J-150000D01*
G01*
X97825000Y-70420000D01*
G75*
G02*
X97675000Y-70570000I-150000J0D01*
G01*
G37*
%TD.AperFunction*%
%TO.P,U5,7*%
%TO.N,Net-(U5-Pad7)*%
%TA.AperFunction,SMDPad,CuDef*%
G36*
G01*
X96405000Y-70570000D02*
X96105000Y-70570000D01*
G75*
G02*
X95955000Y-70420000I0J150000D01*
G01*
X95955000Y-68770000D01*
G75*
G02*
X96105000Y-68620000I150000J0D01*
G01*
X96405000Y-68620000D01*
G75*
G02*
X96555000Y-68770000I0J-150000D01*
G01*
X96555000Y-70420000D01*
G75*
G02*
X96405000Y-70570000I-150000J0D01*
G01*
G37*
%TD.AperFunction*%
%TO.P,U5,6*%
%TO.N,Net-(C20-Pad1)*%
%TA.AperFunction,SMDPad,CuDef*%
G36*
G01*
X95135000Y-70570000D02*
X94835000Y-70570000D01*
G75*
G02*
X94685000Y-70420000I0J150000D01*
G01*
X94685000Y-68770000D01*
G75*
G02*
X94835000Y-68620000I150000J0D01*
G01*
X95135000Y-68620000D01*
G75*
G02*
X95285000Y-68770000I0J-150000D01*
G01*
X95285000Y-70420000D01*
G75*
G02*
X95135000Y-70570000I-150000J0D01*
G01*
G37*
%TD.AperFunction*%
%TO.P,U5,5*%
%TO.N,GNDD*%
%TA.AperFunction,SMDPad,CuDef*%
G36*
G01*
X93865000Y-70570000D02*
X93565000Y-70570000D01*
G75*
G02*
X93415000Y-70420000I0J150000D01*
G01*
X93415000Y-68770000D01*
G75*
G02*
X93565000Y-68620000I150000J0D01*
G01*
X93865000Y-68620000D01*
G75*
G02*
X94015000Y-68770000I0J-150000D01*
G01*
X94015000Y-70420000D01*
G75*
G02*
X93865000Y-70570000I-150000J0D01*
G01*
G37*
%TD.AperFunction*%
%TO.P,U5,4*%
%TA.AperFunction,SMDPad,CuDef*%
G36*
G01*
X92595000Y-70570000D02*
X92295000Y-70570000D01*
G75*
G02*
X92145000Y-70420000I0J150000D01*
G01*
X92145000Y-68770000D01*
G75*
G02*
X92295000Y-68620000I150000J0D01*
G01*
X92595000Y-68620000D01*
G75*
G02*
X92745000Y-68770000I0J-150000D01*
G01*
X92745000Y-70420000D01*
G75*
G02*
X92595000Y-70570000I-150000J0D01*
G01*
G37*
%TD.AperFunction*%
%TO.P,U5,3*%
%TO.N,+5VD*%
%TA.AperFunction,SMDPad,CuDef*%
G36*
G01*
X91325000Y-70570000D02*
X91025000Y-70570000D01*
G75*
G02*
X90875000Y-70420000I0J150000D01*
G01*
X90875000Y-68770000D01*
G75*
G02*
X91025000Y-68620000I150000J0D01*
G01*
X91325000Y-68620000D01*
G75*
G02*
X91475000Y-68770000I0J-150000D01*
G01*
X91475000Y-70420000D01*
G75*
G02*
X91325000Y-70570000I-150000J0D01*
G01*
G37*
%TD.AperFunction*%
%TO.P,U5,2*%
%TO.N,Net-(C18-Pad1)*%
%TA.AperFunction,SMDPad,CuDef*%
G36*
G01*
X90055000Y-70570000D02*
X89755000Y-70570000D01*
G75*
G02*
X89605000Y-70420000I0J150000D01*
G01*
X89605000Y-68770000D01*
G75*
G02*
X89755000Y-68620000I150000J0D01*
G01*
X90055000Y-68620000D01*
G75*
G02*
X90205000Y-68770000I0J-150000D01*
G01*
X90205000Y-70420000D01*
G75*
G02*
X90055000Y-70570000I-150000J0D01*
G01*
G37*
%TD.AperFunction*%
%TO.P,U5,1*%
%TO.N,Net-(C17-Pad2)*%
%TA.AperFunction,SMDPad,CuDef*%
G36*
G01*
X88785000Y-70570000D02*
X88485000Y-70570000D01*
G75*
G02*
X88335000Y-70420000I0J150000D01*
G01*
X88335000Y-68770000D01*
G75*
G02*
X88485000Y-68620000I150000J0D01*
G01*
X88785000Y-68620000D01*
G75*
G02*
X88935000Y-68770000I0J-150000D01*
G01*
X88935000Y-70420000D01*
G75*
G02*
X88785000Y-70570000I-150000J0D01*
G01*
G37*
%TD.AperFunction*%
%TD*%
D16*
%TO.P,J3,8*%
%TO.N,Net-(J3-Pad8)*%
X109512000Y-52330000D03*
D17*
%TO.P,J3,SH*%
%TO.N,GNDD*%
X115989000Y-44200000D03*
X96050000Y-44200000D03*
D16*
%TO.P,J3,12*%
%TO.N,+3V3*%
X112496500Y-54614000D03*
%TO.P,J3,10*%
%TO.N,/PWR_CAN2*%
X101701500Y-54614000D03*
%TO.P,J3,5*%
X106464000Y-50550000D03*
D18*
%TO.P,J3,1*%
%TO.N,/CAN_H*%
X102400000Y-50550000D03*
D16*
%TO.P,J3,7*%
%TO.N,/GND_CAN*%
X108496000Y-50550000D03*
%TO.P,J3,9*%
%TO.N,Net-(J3-Pad9)*%
X99415500Y-54614000D03*
%TO.P,J3,3*%
%TO.N,/GND_CAN*%
X104432000Y-50550000D03*
%TO.P,J3,11*%
%TO.N,Net-(J3-Pad11)*%
X110210500Y-54614000D03*
%TO.P,J3,2*%
%TO.N,/CAN_L*%
X103416000Y-52330000D03*
%TO.P,J3,4*%
%TO.N,/PWR_CAN2*%
X105448000Y-52330000D03*
%TO.P,J3,6*%
%TO.N,Net-(J3-Pad6)*%
X107480000Y-52330000D03*
%TD*%
%TO.P,J2,8*%
%TO.N,Net-(J2-Pad8)*%
X68812000Y-52280000D03*
D17*
%TO.P,J2,SH*%
%TO.N,GNDD*%
X75289000Y-44150000D03*
X55350000Y-44150000D03*
D16*
%TO.P,J2,12*%
%TO.N,+3V3*%
X71796500Y-54564000D03*
%TO.P,J2,10*%
%TO.N,/PWR_CAN1*%
X61001500Y-54564000D03*
%TO.P,J2,5*%
X65764000Y-50500000D03*
D18*
%TO.P,J2,1*%
%TO.N,/CAN_H*%
X61700000Y-50500000D03*
D16*
%TO.P,J2,7*%
%TO.N,/GND_CAN*%
X67796000Y-50500000D03*
%TO.P,J2,9*%
%TO.N,Net-(J2-Pad9)*%
X58715500Y-54564000D03*
%TO.P,J2,3*%
%TO.N,/GND_CAN*%
X63732000Y-50500000D03*
%TO.P,J2,11*%
%TO.N,Net-(J2-Pad11)*%
X69510500Y-54564000D03*
%TO.P,J2,2*%
%TO.N,/CAN_L*%
X62716000Y-52280000D03*
%TO.P,J2,4*%
%TO.N,/PWR_CAN1*%
X64748000Y-52280000D03*
%TO.P,J2,6*%
%TO.N,Net-(J2-Pad6)*%
X66780000Y-52280000D03*
%TD*%
D19*
%TO.P,PS4,5*%
%TO.N,N/C*%
X65500000Y-112900000D03*
%TO.P,PS4,1*%
X55340000Y-133220000D03*
%TO.P,PS4,4*%
%TO.N,/+5VJP*%
X75660000Y-112900000D03*
%TO.P,PS4,6*%
%TO.N,GNDD*%
X55340000Y-112900000D03*
%TO.P,PS4,3*%
%TO.N,/VI_high*%
X68040000Y-133220000D03*
%TO.P,PS4,2*%
%TO.N,GNDREF*%
X62960000Y-133220000D03*
%TD*%
D20*
%TO.P,BT1,2*%
%TO.N,GNDD*%
X128205000Y-108749000D03*
D21*
%TO.P,BT1,1*%
%TO.N,Net-(BT1-Pad1)*%
X128205000Y-88749000D03*
%TD*%
%TO.P,U3,8*%
%TO.N,/CAN1_STB*%
%TA.AperFunction,SMDPad,CuDef*%
G36*
G01*
X62565000Y-71260000D02*
X62265000Y-71260000D01*
G75*
G02*
X62115000Y-71110000I0J150000D01*
G01*
X62115000Y-69460000D01*
G75*
G02*
X62265000Y-69310000I150000J0D01*
G01*
X62565000Y-69310000D01*
G75*
G02*
X62715000Y-69460000I0J-150000D01*
G01*
X62715000Y-71110000D01*
G75*
G02*
X62565000Y-71260000I-150000J0D01*
G01*
G37*
%TD.AperFunction*%
%TO.P,U3,7*%
%TO.N,/CAN_H*%
%TA.AperFunction,SMDPad,CuDef*%
G36*
G01*
X63835000Y-71260000D02*
X63535000Y-71260000D01*
G75*
G02*
X63385000Y-71110000I0J150000D01*
G01*
X63385000Y-69460000D01*
G75*
G02*
X63535000Y-69310000I150000J0D01*
G01*
X63835000Y-69310000D01*
G75*
G02*
X63985000Y-69460000I0J-150000D01*
G01*
X63985000Y-71110000D01*
G75*
G02*
X63835000Y-71260000I-150000J0D01*
G01*
G37*
%TD.AperFunction*%
%TO.P,U3,6*%
%TO.N,/CAN_L*%
%TA.AperFunction,SMDPad,CuDef*%
G36*
G01*
X65105000Y-71260000D02*
X64805000Y-71260000D01*
G75*
G02*
X64655000Y-71110000I0J150000D01*
G01*
X64655000Y-69460000D01*
G75*
G02*
X64805000Y-69310000I150000J0D01*
G01*
X65105000Y-69310000D01*
G75*
G02*
X65255000Y-69460000I0J-150000D01*
G01*
X65255000Y-71110000D01*
G75*
G02*
X65105000Y-71260000I-150000J0D01*
G01*
G37*
%TD.AperFunction*%
%TO.P,U3,5*%
%TO.N,Net-(U3-Pad5)*%
%TA.AperFunction,SMDPad,CuDef*%
G36*
G01*
X66375000Y-71260000D02*
X66075000Y-71260000D01*
G75*
G02*
X65925000Y-71110000I0J150000D01*
G01*
X65925000Y-69460000D01*
G75*
G02*
X66075000Y-69310000I150000J0D01*
G01*
X66375000Y-69310000D01*
G75*
G02*
X66525000Y-69460000I0J-150000D01*
G01*
X66525000Y-71110000D01*
G75*
G02*
X66375000Y-71260000I-150000J0D01*
G01*
G37*
%TD.AperFunction*%
%TO.P,U3,4*%
%TO.N,/FDCAN1_RX*%
%TA.AperFunction,SMDPad,CuDef*%
G36*
G01*
X66375000Y-76210000D02*
X66075000Y-76210000D01*
G75*
G02*
X65925000Y-76060000I0J150000D01*
G01*
X65925000Y-74410000D01*
G75*
G02*
X66075000Y-74260000I150000J0D01*
G01*
X66375000Y-74260000D01*
G75*
G02*
X66525000Y-74410000I0J-150000D01*
G01*
X66525000Y-76060000D01*
G75*
G02*
X66375000Y-76210000I-150000J0D01*
G01*
G37*
%TD.AperFunction*%
%TO.P,U3,3*%
%TO.N,+3V3*%
%TA.AperFunction,SMDPad,CuDef*%
G36*
G01*
X65105000Y-76210000D02*
X64805000Y-76210000D01*
G75*
G02*
X64655000Y-76060000I0J150000D01*
G01*
X64655000Y-74410000D01*
G75*
G02*
X64805000Y-74260000I150000J0D01*
G01*
X65105000Y-74260000D01*
G75*
G02*
X65255000Y-74410000I0J-150000D01*
G01*
X65255000Y-76060000D01*
G75*
G02*
X65105000Y-76210000I-150000J0D01*
G01*
G37*
%TD.AperFunction*%
%TO.P,U3,2*%
%TO.N,GNDD*%
%TA.AperFunction,SMDPad,CuDef*%
G36*
G01*
X63835000Y-76210000D02*
X63535000Y-76210000D01*
G75*
G02*
X63385000Y-76060000I0J150000D01*
G01*
X63385000Y-74410000D01*
G75*
G02*
X63535000Y-74260000I150000J0D01*
G01*
X63835000Y-74260000D01*
G75*
G02*
X63985000Y-74410000I0J-150000D01*
G01*
X63985000Y-76060000D01*
G75*
G02*
X63835000Y-76210000I-150000J0D01*
G01*
G37*
%TD.AperFunction*%
%TO.P,U3,1*%
%TO.N,/FDCAN1_TX*%
%TA.AperFunction,SMDPad,CuDef*%
G36*
G01*
X62565000Y-76210000D02*
X62265000Y-76210000D01*
G75*
G02*
X62115000Y-76060000I0J150000D01*
G01*
X62115000Y-74410000D01*
G75*
G02*
X62265000Y-74260000I150000J0D01*
G01*
X62565000Y-74260000D01*
G75*
G02*
X62715000Y-74410000I0J-150000D01*
G01*
X62715000Y-76060000D01*
G75*
G02*
X62565000Y-76210000I-150000J0D01*
G01*
G37*
%TD.AperFunction*%
%TD*%
%TO.P,U2,8*%
%TO.N,+3V3*%
%TA.AperFunction,SMDPad,CuDef*%
G36*
G01*
X109798367Y-88780312D02*
X109586235Y-88992444D01*
G75*
G02*
X109374103Y-88992444I-106066J106066D01*
G01*
X108207377Y-87825718D01*
G75*
G02*
X108207377Y-87613586I106066J106066D01*
G01*
X108419509Y-87401454D01*
G75*
G02*
X108631641Y-87401454I106066J-106066D01*
G01*
X109798367Y-88568180D01*
G75*
G02*
X109798367Y-88780312I-106066J-106066D01*
G01*
G37*
%TD.AperFunction*%
%TO.P,U2,7*%
%TO.N,/EEPROM_HOLD*%
%TA.AperFunction,SMDPad,CuDef*%
G36*
G01*
X110696393Y-87882287D02*
X110484261Y-88094419D01*
G75*
G02*
X110272129Y-88094419I-106066J106066D01*
G01*
X109105403Y-86927693D01*
G75*
G02*
X109105403Y-86715561I106066J106066D01*
G01*
X109317535Y-86503429D01*
G75*
G02*
X109529667Y-86503429I106066J-106066D01*
G01*
X110696393Y-87670155D01*
G75*
G02*
X110696393Y-87882287I-106066J-106066D01*
G01*
G37*
%TD.AperFunction*%
%TO.P,U2,6*%
%TO.N,/SPI3_SCK*%
%TA.AperFunction,SMDPad,CuDef*%
G36*
G01*
X111594419Y-86984261D02*
X111382287Y-87196393D01*
G75*
G02*
X111170155Y-87196393I-106066J106066D01*
G01*
X110003429Y-86029667D01*
G75*
G02*
X110003429Y-85817535I106066J106066D01*
G01*
X110215561Y-85605403D01*
G75*
G02*
X110427693Y-85605403I106066J-106066D01*
G01*
X111594419Y-86772129D01*
G75*
G02*
X111594419Y-86984261I-106066J-106066D01*
G01*
G37*
%TD.AperFunction*%
%TO.P,U2,5*%
%TO.N,/SPI3_MOSI*%
%TA.AperFunction,SMDPad,CuDef*%
G36*
G01*
X112492444Y-86086235D02*
X112280312Y-86298367D01*
G75*
G02*
X112068180Y-86298367I-106066J106066D01*
G01*
X110901454Y-85131641D01*
G75*
G02*
X110901454Y-84919509I106066J106066D01*
G01*
X111113586Y-84707377D01*
G75*
G02*
X111325718Y-84707377I106066J-106066D01*
G01*
X112492444Y-85874103D01*
G75*
G02*
X112492444Y-86086235I-106066J-106066D01*
G01*
G37*
%TD.AperFunction*%
%TO.P,U2,4*%
%TO.N,GNDD*%
%TA.AperFunction,SMDPad,CuDef*%
G36*
G01*
X115992623Y-89586414D02*
X115780491Y-89798546D01*
G75*
G02*
X115568359Y-89798546I-106066J106066D01*
G01*
X114401633Y-88631820D01*
G75*
G02*
X114401633Y-88419688I106066J106066D01*
G01*
X114613765Y-88207556D01*
G75*
G02*
X114825897Y-88207556I106066J-106066D01*
G01*
X115992623Y-89374282D01*
G75*
G02*
X115992623Y-89586414I-106066J-106066D01*
G01*
G37*
%TD.AperFunction*%
%TO.P,U2,3*%
%TO.N,/EEPROM_WP*%
%TA.AperFunction,SMDPad,CuDef*%
G36*
G01*
X115094597Y-90484439D02*
X114882465Y-90696571D01*
G75*
G02*
X114670333Y-90696571I-106066J106066D01*
G01*
X113503607Y-89529845D01*
G75*
G02*
X113503607Y-89317713I106066J106066D01*
G01*
X113715739Y-89105581D01*
G75*
G02*
X113927871Y-89105581I106066J-106066D01*
G01*
X115094597Y-90272307D01*
G75*
G02*
X115094597Y-90484439I-106066J-106066D01*
G01*
G37*
%TD.AperFunction*%
%TO.P,U2,2*%
%TO.N,/SPI3_MISO*%
%TA.AperFunction,SMDPad,CuDef*%
G36*
G01*
X114196571Y-91382465D02*
X113984439Y-91594597D01*
G75*
G02*
X113772307Y-91594597I-106066J106066D01*
G01*
X112605581Y-90427871D01*
G75*
G02*
X112605581Y-90215739I106066J106066D01*
G01*
X112817713Y-90003607D01*
G75*
G02*
X113029845Y-90003607I106066J-106066D01*
G01*
X114196571Y-91170333D01*
G75*
G02*
X114196571Y-91382465I-106066J-106066D01*
G01*
G37*
%TD.AperFunction*%
%TO.P,U2,1*%
%TO.N,/SPI3_CS*%
%TA.AperFunction,SMDPad,CuDef*%
G36*
G01*
X113298546Y-92280491D02*
X113086414Y-92492623D01*
G75*
G02*
X112874282Y-92492623I-106066J106066D01*
G01*
X111707556Y-91325897D01*
G75*
G02*
X111707556Y-91113765I106066J106066D01*
G01*
X111919688Y-90901633D01*
G75*
G02*
X112131820Y-90901633I106066J-106066D01*
G01*
X113298546Y-92068359D01*
G75*
G02*
X113298546Y-92280491I-106066J-106066D01*
G01*
G37*
%TD.AperFunction*%
%TD*%
D22*
%TO.P,U9,1*%
%TO.N,GNDD*%
X107900000Y-71400000D03*
D23*
%TO.P,U9,2*%
%TO.N,+5VD*%
X107900000Y-68860000D03*
%TO.P,U9,3*%
%TO.N,GNDREF*%
X107900000Y-66320000D03*
%TO.P,U9,4*%
%TO.N,+12V*%
X107900000Y-63780000D03*
%TD*%
D24*
%TO.P,U8,1*%
%TO.N,GNDD*%
X117820000Y-120800000D03*
D25*
%TO.P,U8,2*%
%TO.N,+5VD*%
X120360000Y-120800000D03*
%TO.P,U8,3*%
%TO.N,/N*%
X122900000Y-120800000D03*
%TO.P,U8,4*%
%TO.N,+5V*%
X125440000Y-120800000D03*
%TD*%
D26*
%TO.P,TP33,1*%
%TO.N,/GND_CAN*%
X49290000Y-55000000D03*
%TD*%
%TO.P,TP32,1*%
%TO.N,/V_BUS_CAN*%
X49290000Y-58750000D03*
%TD*%
%TO.P,TP15,1*%
%TO.N,/CAN1_STB*%
X75200000Y-69500000D03*
%TD*%
%TO.P,TP14,1*%
%TO.N,/FDCAN1_RX*%
X71100000Y-73000000D03*
%TD*%
%TO.P,TP13,1*%
%TO.N,/FDCAN1_TX*%
X71100000Y-69500000D03*
%TD*%
%TO.P,TP12,1*%
%TO.N,GNDD*%
X108700000Y-81250000D03*
%TD*%
%TO.P,TP8,1*%
%TO.N,/VREF2048*%
X105950000Y-81250000D03*
%TD*%
%TO.P,TP7,1*%
%TO.N,/HRTIM1_CHB2*%
X105950000Y-78500000D03*
%TD*%
%TO.P,TP6,1*%
%TO.N,/HRTIM1_CHB1*%
X108700000Y-78500000D03*
%TD*%
%TO.P,TP5,1*%
%TO.N,/HRTIM1_CHA2*%
X89000000Y-79250000D03*
%TD*%
%TO.P,TP4,1*%
%TO.N,/HRTIM1_CHA1*%
X85950000Y-79250000D03*
%TD*%
%TO.P,TP3,1*%
%TO.N,+BATT*%
X118100000Y-87700000D03*
%TD*%
%TO.P,TP2,1*%
%TO.N,+3V3*%
X116500000Y-96000000D03*
%TD*%
%TO.P,TP1,1*%
%TO.N,GNDD*%
X75200000Y-73000000D03*
%TD*%
%TO.P,U1,64*%
%TO.N,+3V3*%
%TA.AperFunction,SMDPad,CuDef*%
G36*
G01*
X86284428Y-89499860D02*
X85294478Y-88509910D01*
G75*
G02*
X85294478Y-88403844I53033J53033D01*
G01*
X85400544Y-88297778D01*
G75*
G02*
X85506610Y-88297778I53033J-53033D01*
G01*
X86496560Y-89287728D01*
G75*
G02*
X86496560Y-89393794I-53033J-53033D01*
G01*
X86390494Y-89499860D01*
G75*
G02*
X86284428Y-89499860I-53033J53033D01*
G01*
G37*
%TD.AperFunction*%
%TO.P,U1,63*%
%TO.N,GNDD*%
%TA.AperFunction,SMDPad,CuDef*%
G36*
G01*
X86637981Y-89146307D02*
X85648031Y-88156357D01*
G75*
G02*
X85648031Y-88050291I53033J53033D01*
G01*
X85754097Y-87944225D01*
G75*
G02*
X85860163Y-87944225I53033J-53033D01*
G01*
X86850113Y-88934175D01*
G75*
G02*
X86850113Y-89040241I-53033J-53033D01*
G01*
X86744047Y-89146307D01*
G75*
G02*
X86637981Y-89146307I-53033J53033D01*
G01*
G37*
%TD.AperFunction*%
%TO.P,U1,62*%
%TO.N,/FDCAN1_TX*%
%TA.AperFunction,SMDPad,CuDef*%
G36*
G01*
X86991534Y-88792754D02*
X86001584Y-87802804D01*
G75*
G02*
X86001584Y-87696738I53033J53033D01*
G01*
X86107650Y-87590672D01*
G75*
G02*
X86213716Y-87590672I53033J-53033D01*
G01*
X87203666Y-88580622D01*
G75*
G02*
X87203666Y-88686688I-53033J-53033D01*
G01*
X87097600Y-88792754D01*
G75*
G02*
X86991534Y-88792754I-53033J53033D01*
G01*
G37*
%TD.AperFunction*%
%TO.P,U1,61*%
%TO.N,/FDCAN1_RX*%
%TA.AperFunction,SMDPad,CuDef*%
G36*
G01*
X87345088Y-88439200D02*
X86355138Y-87449250D01*
G75*
G02*
X86355138Y-87343184I53033J53033D01*
G01*
X86461204Y-87237118D01*
G75*
G02*
X86567270Y-87237118I53033J-53033D01*
G01*
X87557220Y-88227068D01*
G75*
G02*
X87557220Y-88333134I-53033J-53033D01*
G01*
X87451154Y-88439200D01*
G75*
G02*
X87345088Y-88439200I-53033J53033D01*
G01*
G37*
%TD.AperFunction*%
%TO.P,U1,60*%
%TO.N,/USART1_RX*%
%TA.AperFunction,SMDPad,CuDef*%
G36*
G01*
X87698641Y-88085647D02*
X86708691Y-87095697D01*
G75*
G02*
X86708691Y-86989631I53033J53033D01*
G01*
X86814757Y-86883565D01*
G75*
G02*
X86920823Y-86883565I53033J-53033D01*
G01*
X87910773Y-87873515D01*
G75*
G02*
X87910773Y-87979581I-53033J-53033D01*
G01*
X87804707Y-88085647D01*
G75*
G02*
X87698641Y-88085647I-53033J53033D01*
G01*
G37*
%TD.AperFunction*%
%TO.P,U1,59*%
%TO.N,/USART1_TX*%
%TA.AperFunction,SMDPad,CuDef*%
G36*
G01*
X88052195Y-87732093D02*
X87062245Y-86742143D01*
G75*
G02*
X87062245Y-86636077I53033J53033D01*
G01*
X87168311Y-86530011D01*
G75*
G02*
X87274377Y-86530011I53033J-53033D01*
G01*
X88264327Y-87519961D01*
G75*
G02*
X88264327Y-87626027I-53033J-53033D01*
G01*
X88158261Y-87732093D01*
G75*
G02*
X88052195Y-87732093I-53033J53033D01*
G01*
G37*
%TD.AperFunction*%
%TO.P,U1,58*%
%TO.N,/SPI3_MOSI*%
%TA.AperFunction,SMDPad,CuDef*%
G36*
G01*
X88405748Y-87378540D02*
X87415798Y-86388590D01*
G75*
G02*
X87415798Y-86282524I53033J53033D01*
G01*
X87521864Y-86176458D01*
G75*
G02*
X87627930Y-86176458I53033J-53033D01*
G01*
X88617880Y-87166408D01*
G75*
G02*
X88617880Y-87272474I-53033J-53033D01*
G01*
X88511814Y-87378540D01*
G75*
G02*
X88405748Y-87378540I-53033J53033D01*
G01*
G37*
%TD.AperFunction*%
%TO.P,U1,57*%
%TO.N,/SPI3_MISO*%
%TA.AperFunction,SMDPad,CuDef*%
G36*
G01*
X88759301Y-87024987D02*
X87769351Y-86035037D01*
G75*
G02*
X87769351Y-85928971I53033J53033D01*
G01*
X87875417Y-85822905D01*
G75*
G02*
X87981483Y-85822905I53033J-53033D01*
G01*
X88971433Y-86812855D01*
G75*
G02*
X88971433Y-86918921I-53033J-53033D01*
G01*
X88865367Y-87024987D01*
G75*
G02*
X88759301Y-87024987I-53033J53033D01*
G01*
G37*
%TD.AperFunction*%
%TO.P,U1,56*%
%TO.N,/SWO*%
%TA.AperFunction,SMDPad,CuDef*%
G36*
G01*
X89112855Y-86671433D02*
X88122905Y-85681483D01*
G75*
G02*
X88122905Y-85575417I53033J53033D01*
G01*
X88228971Y-85469351D01*
G75*
G02*
X88335037Y-85469351I53033J-53033D01*
G01*
X89324987Y-86459301D01*
G75*
G02*
X89324987Y-86565367I-53033J-53033D01*
G01*
X89218921Y-86671433D01*
G75*
G02*
X89112855Y-86671433I-53033J53033D01*
G01*
G37*
%TD.AperFunction*%
%TO.P,U1,55*%
%TO.N,N/C*%
%TA.AperFunction,SMDPad,CuDef*%
G36*
G01*
X89466408Y-86317880D02*
X88476458Y-85327930D01*
G75*
G02*
X88476458Y-85221864I53033J53033D01*
G01*
X88582524Y-85115798D01*
G75*
G02*
X88688590Y-85115798I53033J-53033D01*
G01*
X89678540Y-86105748D01*
G75*
G02*
X89678540Y-86211814I-53033J-53033D01*
G01*
X89572474Y-86317880D01*
G75*
G02*
X89466408Y-86317880I-53033J53033D01*
G01*
G37*
%TD.AperFunction*%
%TO.P,U1,54*%
%TO.N,/HRTIM_EEV2*%
%TA.AperFunction,SMDPad,CuDef*%
G36*
G01*
X89819961Y-85964327D02*
X88830011Y-84974377D01*
G75*
G02*
X88830011Y-84868311I53033J53033D01*
G01*
X88936077Y-84762245D01*
G75*
G02*
X89042143Y-84762245I53033J-53033D01*
G01*
X90032093Y-85752195D01*
G75*
G02*
X90032093Y-85858261I-53033J-53033D01*
G01*
X89926027Y-85964327D01*
G75*
G02*
X89819961Y-85964327I-53033J53033D01*
G01*
G37*
%TD.AperFunction*%
%TO.P,U1,53*%
%TO.N,/HRTIM_EEV1*%
%TA.AperFunction,SMDPad,CuDef*%
G36*
G01*
X90173515Y-85610773D02*
X89183565Y-84620823D01*
G75*
G02*
X89183565Y-84514757I53033J53033D01*
G01*
X89289631Y-84408691D01*
G75*
G02*
X89395697Y-84408691I53033J-53033D01*
G01*
X90385647Y-85398641D01*
G75*
G02*
X90385647Y-85504707I-53033J-53033D01*
G01*
X90279581Y-85610773D01*
G75*
G02*
X90173515Y-85610773I-53033J53033D01*
G01*
G37*
%TD.AperFunction*%
%TO.P,U1,52*%
%TO.N,/SPI3_SCK*%
%TA.AperFunction,SMDPad,CuDef*%
G36*
G01*
X90527068Y-85257220D02*
X89537118Y-84267270D01*
G75*
G02*
X89537118Y-84161204I53033J53033D01*
G01*
X89643184Y-84055138D01*
G75*
G02*
X89749250Y-84055138I53033J-53033D01*
G01*
X90739200Y-85045088D01*
G75*
G02*
X90739200Y-85151154I-53033J-53033D01*
G01*
X90633134Y-85257220D01*
G75*
G02*
X90527068Y-85257220I-53033J53033D01*
G01*
G37*
%TD.AperFunction*%
%TO.P,U1,51*%
%TO.N,/HRTIM1_FLT2*%
%TA.AperFunction,SMDPad,CuDef*%
G36*
G01*
X90880622Y-84903666D02*
X89890672Y-83913716D01*
G75*
G02*
X89890672Y-83807650I53033J53033D01*
G01*
X89996738Y-83701584D01*
G75*
G02*
X90102804Y-83701584I53033J-53033D01*
G01*
X91092754Y-84691534D01*
G75*
G02*
X91092754Y-84797600I-53033J-53033D01*
G01*
X90986688Y-84903666D01*
G75*
G02*
X90880622Y-84903666I-53033J53033D01*
G01*
G37*
%TD.AperFunction*%
%TO.P,U1,50*%
%TO.N,/SWCLK*%
%TA.AperFunction,SMDPad,CuDef*%
G36*
G01*
X91234175Y-84550113D02*
X90244225Y-83560163D01*
G75*
G02*
X90244225Y-83454097I53033J53033D01*
G01*
X90350291Y-83348031D01*
G75*
G02*
X90456357Y-83348031I53033J-53033D01*
G01*
X91446307Y-84337981D01*
G75*
G02*
X91446307Y-84444047I-53033J-53033D01*
G01*
X91340241Y-84550113D01*
G75*
G02*
X91234175Y-84550113I-53033J53033D01*
G01*
G37*
%TD.AperFunction*%
%TO.P,U1,49*%
%TO.N,/SWDIO*%
%TA.AperFunction,SMDPad,CuDef*%
G36*
G01*
X91587728Y-84196560D02*
X90597778Y-83206610D01*
G75*
G02*
X90597778Y-83100544I53033J53033D01*
G01*
X90703844Y-82994478D01*
G75*
G02*
X90809910Y-82994478I53033J-53033D01*
G01*
X91799860Y-83984428D01*
G75*
G02*
X91799860Y-84090494I-53033J-53033D01*
G01*
X91693794Y-84196560D01*
G75*
G02*
X91587728Y-84196560I-53033J53033D01*
G01*
G37*
%TD.AperFunction*%
%TO.P,U1,48*%
%TO.N,+3V3*%
%TA.AperFunction,SMDPad,CuDef*%
G36*
G01*
X93426206Y-84196560D02*
X93320140Y-84090494D01*
G75*
G02*
X93320140Y-83984428I53033J53033D01*
G01*
X94310090Y-82994478D01*
G75*
G02*
X94416156Y-82994478I53033J-53033D01*
G01*
X94522222Y-83100544D01*
G75*
G02*
X94522222Y-83206610I-53033J-53033D01*
G01*
X93532272Y-84196560D01*
G75*
G02*
X93426206Y-84196560I-53033J53033D01*
G01*
G37*
%TD.AperFunction*%
%TO.P,U1,47*%
%TO.N,GNDD*%
%TA.AperFunction,SMDPad,CuDef*%
G36*
G01*
X93779759Y-84550113D02*
X93673693Y-84444047D01*
G75*
G02*
X93673693Y-84337981I53033J53033D01*
G01*
X94663643Y-83348031D01*
G75*
G02*
X94769709Y-83348031I53033J-53033D01*
G01*
X94875775Y-83454097D01*
G75*
G02*
X94875775Y-83560163I-53033J-53033D01*
G01*
X93885825Y-84550113D01*
G75*
G02*
X93779759Y-84550113I-53033J53033D01*
G01*
G37*
%TD.AperFunction*%
%TO.P,U1,46*%
%TO.N,/HRTIM1_FLT1*%
%TA.AperFunction,SMDPad,CuDef*%
G36*
G01*
X94133312Y-84903666D02*
X94027246Y-84797600D01*
G75*
G02*
X94027246Y-84691534I53033J53033D01*
G01*
X95017196Y-83701584D01*
G75*
G02*
X95123262Y-83701584I53033J-53033D01*
G01*
X95229328Y-83807650D01*
G75*
G02*
X95229328Y-83913716I-53033J-53033D01*
G01*
X94239378Y-84903666D01*
G75*
G02*
X94133312Y-84903666I-53033J53033D01*
G01*
G37*
%TD.AperFunction*%
%TO.P,U1,45*%
%TO.N,/HRTIM1_CHB2*%
%TA.AperFunction,SMDPad,CuDef*%
G36*
G01*
X94486866Y-85257220D02*
X94380800Y-85151154D01*
G75*
G02*
X94380800Y-85045088I53033J53033D01*
G01*
X95370750Y-84055138D01*
G75*
G02*
X95476816Y-84055138I53033J-53033D01*
G01*
X95582882Y-84161204D01*
G75*
G02*
X95582882Y-84267270I-53033J-53033D01*
G01*
X94592932Y-85257220D01*
G75*
G02*
X94486866Y-85257220I-53033J53033D01*
G01*
G37*
%TD.AperFunction*%
%TO.P,U1,44*%
%TO.N,/HRTIM1_CHB1*%
%TA.AperFunction,SMDPad,CuDef*%
G36*
G01*
X94840419Y-85610773D02*
X94734353Y-85504707D01*
G75*
G02*
X94734353Y-85398641I53033J53033D01*
G01*
X95724303Y-84408691D01*
G75*
G02*
X95830369Y-84408691I53033J-53033D01*
G01*
X95936435Y-84514757D01*
G75*
G02*
X95936435Y-84620823I-53033J-53033D01*
G01*
X94946485Y-85610773D01*
G75*
G02*
X94840419Y-85610773I-53033J53033D01*
G01*
G37*
%TD.AperFunction*%
%TO.P,U1,43*%
%TO.N,/HRTIM1_CHA2*%
%TA.AperFunction,SMDPad,CuDef*%
G36*
G01*
X95193973Y-85964327D02*
X95087907Y-85858261D01*
G75*
G02*
X95087907Y-85752195I53033J53033D01*
G01*
X96077857Y-84762245D01*
G75*
G02*
X96183923Y-84762245I53033J-53033D01*
G01*
X96289989Y-84868311D01*
G75*
G02*
X96289989Y-84974377I-53033J-53033D01*
G01*
X95300039Y-85964327D01*
G75*
G02*
X95193973Y-85964327I-53033J53033D01*
G01*
G37*
%TD.AperFunction*%
%TO.P,U1,42*%
%TO.N,/HRTIM1_CHA1*%
%TA.AperFunction,SMDPad,CuDef*%
G36*
G01*
X95547526Y-86317880D02*
X95441460Y-86211814D01*
G75*
G02*
X95441460Y-86105748I53033J53033D01*
G01*
X96431410Y-85115798D01*
G75*
G02*
X96537476Y-85115798I53033J-53033D01*
G01*
X96643542Y-85221864D01*
G75*
G02*
X96643542Y-85327930I-53033J-53033D01*
G01*
X95653592Y-86317880D01*
G75*
G02*
X95547526Y-86317880I-53033J53033D01*
G01*
G37*
%TD.AperFunction*%
%TO.P,U1,41*%
%TO.N,Net-(U1-Pad41)*%
%TA.AperFunction,SMDPad,CuDef*%
G36*
G01*
X95901079Y-86671433D02*
X95795013Y-86565367D01*
G75*
G02*
X95795013Y-86459301I53033J53033D01*
G01*
X96784963Y-85469351D01*
G75*
G02*
X96891029Y-85469351I53033J-53033D01*
G01*
X96997095Y-85575417D01*
G75*
G02*
X96997095Y-85681483I-53033J-53033D01*
G01*
X96007145Y-86671433D01*
G75*
G02*
X95901079Y-86671433I-53033J53033D01*
G01*
G37*
%TD.AperFunction*%
%TO.P,U1,40*%
%TO.N,Net-(U1-Pad40)*%
%TA.AperFunction,SMDPad,CuDef*%
G36*
G01*
X96254633Y-87024987D02*
X96148567Y-86918921D01*
G75*
G02*
X96148567Y-86812855I53033J53033D01*
G01*
X97138517Y-85822905D01*
G75*
G02*
X97244583Y-85822905I53033J-53033D01*
G01*
X97350649Y-85928971D01*
G75*
G02*
X97350649Y-86035037I-53033J-53033D01*
G01*
X96360699Y-87024987D01*
G75*
G02*
X96254633Y-87024987I-53033J53033D01*
G01*
G37*
%TD.AperFunction*%
%TO.P,U1,39*%
%TO.N,Net-(U1-Pad39)*%
%TA.AperFunction,SMDPad,CuDef*%
G36*
G01*
X96608186Y-87378540D02*
X96502120Y-87272474D01*
G75*
G02*
X96502120Y-87166408I53033J53033D01*
G01*
X97492070Y-86176458D01*
G75*
G02*
X97598136Y-86176458I53033J-53033D01*
G01*
X97704202Y-86282524D01*
G75*
G02*
X97704202Y-86388590I-53033J-53033D01*
G01*
X96714252Y-87378540D01*
G75*
G02*
X96608186Y-87378540I-53033J53033D01*
G01*
G37*
%TD.AperFunction*%
%TO.P,U1,38*%
%TO.N,Net-(U1-Pad38)*%
%TA.AperFunction,SMDPad,CuDef*%
G36*
G01*
X96961739Y-87732093D02*
X96855673Y-87626027D01*
G75*
G02*
X96855673Y-87519961I53033J53033D01*
G01*
X97845623Y-86530011D01*
G75*
G02*
X97951689Y-86530011I53033J-53033D01*
G01*
X98057755Y-86636077D01*
G75*
G02*
X98057755Y-86742143I-53033J-53033D01*
G01*
X97067805Y-87732093D01*
G75*
G02*
X96961739Y-87732093I-53033J53033D01*
G01*
G37*
%TD.AperFunction*%
%TO.P,U1,37*%
%TO.N,Net-(U1-Pad37)*%
%TA.AperFunction,SMDPad,CuDef*%
G36*
G01*
X97315293Y-88085647D02*
X97209227Y-87979581D01*
G75*
G02*
X97209227Y-87873515I53033J53033D01*
G01*
X98199177Y-86883565D01*
G75*
G02*
X98305243Y-86883565I53033J-53033D01*
G01*
X98411309Y-86989631D01*
G75*
G02*
X98411309Y-87095697I-53033J-53033D01*
G01*
X97421359Y-88085647D01*
G75*
G02*
X97315293Y-88085647I-53033J53033D01*
G01*
G37*
%TD.AperFunction*%
%TO.P,U1,36*%
%TO.N,Net-(U1-Pad36)*%
%TA.AperFunction,SMDPad,CuDef*%
G36*
G01*
X97668846Y-88439200D02*
X97562780Y-88333134D01*
G75*
G02*
X97562780Y-88227068I53033J53033D01*
G01*
X98552730Y-87237118D01*
G75*
G02*
X98658796Y-87237118I53033J-53033D01*
G01*
X98764862Y-87343184D01*
G75*
G02*
X98764862Y-87449250I-53033J-53033D01*
G01*
X97774912Y-88439200D01*
G75*
G02*
X97668846Y-88439200I-53033J53033D01*
G01*
G37*
%TD.AperFunction*%
%TO.P,U1,35*%
%TO.N,Net-(U1-Pad35)*%
%TA.AperFunction,SMDPad,CuDef*%
G36*
G01*
X98022400Y-88792754D02*
X97916334Y-88686688D01*
G75*
G02*
X97916334Y-88580622I53033J53033D01*
G01*
X98906284Y-87590672D01*
G75*
G02*
X99012350Y-87590672I53033J-53033D01*
G01*
X99118416Y-87696738D01*
G75*
G02*
X99118416Y-87802804I-53033J-53033D01*
G01*
X98128466Y-88792754D01*
G75*
G02*
X98022400Y-88792754I-53033J53033D01*
G01*
G37*
%TD.AperFunction*%
%TO.P,U1,34*%
%TO.N,Net-(U1-Pad34)*%
%TA.AperFunction,SMDPad,CuDef*%
G36*
G01*
X98375953Y-89146307D02*
X98269887Y-89040241D01*
G75*
G02*
X98269887Y-88934175I53033J53033D01*
G01*
X99259837Y-87944225D01*
G75*
G02*
X99365903Y-87944225I53033J-53033D01*
G01*
X99471969Y-88050291D01*
G75*
G02*
X99471969Y-88156357I-53033J-53033D01*
G01*
X98482019Y-89146307D01*
G75*
G02*
X98375953Y-89146307I-53033J53033D01*
G01*
G37*
%TD.AperFunction*%
%TO.P,U1,33*%
%TO.N,/N_GND*%
%TA.AperFunction,SMDPad,CuDef*%
G36*
G01*
X98729506Y-89499860D02*
X98623440Y-89393794D01*
G75*
G02*
X98623440Y-89287728I53033J53033D01*
G01*
X99613390Y-88297778D01*
G75*
G02*
X99719456Y-88297778I53033J-53033D01*
G01*
X99825522Y-88403844D01*
G75*
G02*
X99825522Y-88509910I-53033J-53033D01*
G01*
X98835572Y-89499860D01*
G75*
G02*
X98729506Y-89499860I-53033J53033D01*
G01*
G37*
%TD.AperFunction*%
%TO.P,U1,32*%
%TO.N,+3V3*%
%TA.AperFunction,SMDPad,CuDef*%
G36*
G01*
X99613390Y-92222222D02*
X98623440Y-91232272D01*
G75*
G02*
X98623440Y-91126206I53033J53033D01*
G01*
X98729506Y-91020140D01*
G75*
G02*
X98835572Y-91020140I53033J-53033D01*
G01*
X99825522Y-92010090D01*
G75*
G02*
X99825522Y-92116156I-53033J-53033D01*
G01*
X99719456Y-92222222D01*
G75*
G02*
X99613390Y-92222222I-53033J53033D01*
G01*
G37*
%TD.AperFunction*%
%TO.P,U1,31*%
%TO.N,GNDD*%
%TA.AperFunction,SMDPad,CuDef*%
G36*
G01*
X99259837Y-92575775D02*
X98269887Y-91585825D01*
G75*
G02*
X98269887Y-91479759I53033J53033D01*
G01*
X98375953Y-91373693D01*
G75*
G02*
X98482019Y-91373693I53033J-53033D01*
G01*
X99471969Y-92363643D01*
G75*
G02*
X99471969Y-92469709I-53033J-53033D01*
G01*
X99365903Y-92575775D01*
G75*
G02*
X99259837Y-92575775I-53033J53033D01*
G01*
G37*
%TD.AperFunction*%
%TO.P,U1,30*%
%TO.N,/CAN1_STB*%
%TA.AperFunction,SMDPad,CuDef*%
G36*
G01*
X98906284Y-92929328D02*
X97916334Y-91939378D01*
G75*
G02*
X97916334Y-91833312I53033J53033D01*
G01*
X98022400Y-91727246D01*
G75*
G02*
X98128466Y-91727246I53033J-53033D01*
G01*
X99118416Y-92717196D01*
G75*
G02*
X99118416Y-92823262I-53033J-53033D01*
G01*
X99012350Y-92929328D01*
G75*
G02*
X98906284Y-92929328I-53033J53033D01*
G01*
G37*
%TD.AperFunction*%
%TO.P,U1,29*%
%TO.N,+3.3VA*%
%TA.AperFunction,SMDPad,CuDef*%
G36*
G01*
X98552730Y-93282882D02*
X97562780Y-92292932D01*
G75*
G02*
X97562780Y-92186866I53033J53033D01*
G01*
X97668846Y-92080800D01*
G75*
G02*
X97774912Y-92080800I53033J-53033D01*
G01*
X98764862Y-93070750D01*
G75*
G02*
X98764862Y-93176816I-53033J-53033D01*
G01*
X98658796Y-93282882D01*
G75*
G02*
X98552730Y-93282882I-53033J53033D01*
G01*
G37*
%TD.AperFunction*%
%TO.P,U1,28*%
%TO.N,/VREF2048*%
%TA.AperFunction,SMDPad,CuDef*%
G36*
G01*
X98199177Y-93636435D02*
X97209227Y-92646485D01*
G75*
G02*
X97209227Y-92540419I53033J53033D01*
G01*
X97315293Y-92434353D01*
G75*
G02*
X97421359Y-92434353I53033J-53033D01*
G01*
X98411309Y-93424303D01*
G75*
G02*
X98411309Y-93530369I-53033J-53033D01*
G01*
X98305243Y-93636435D01*
G75*
G02*
X98199177Y-93636435I-53033J53033D01*
G01*
G37*
%TD.AperFunction*%
%TO.P,U1,27*%
%TO.N,GNDD*%
%TA.AperFunction,SMDPad,CuDef*%
G36*
G01*
X97845623Y-93989989D02*
X96855673Y-93000039D01*
G75*
G02*
X96855673Y-92893973I53033J53033D01*
G01*
X96961739Y-92787907D01*
G75*
G02*
X97067805Y-92787907I53033J-53033D01*
G01*
X98057755Y-93777857D01*
G75*
G02*
X98057755Y-93883923I-53033J-53033D01*
G01*
X97951689Y-93989989D01*
G75*
G02*
X97845623Y-93989989I-53033J53033D01*
G01*
G37*
%TD.AperFunction*%
%TO.P,U1,26*%
%TO.N,Net-(U1-Pad26)*%
%TA.AperFunction,SMDPad,CuDef*%
G36*
G01*
X97492070Y-94343542D02*
X96502120Y-93353592D01*
G75*
G02*
X96502120Y-93247526I53033J53033D01*
G01*
X96608186Y-93141460D01*
G75*
G02*
X96714252Y-93141460I53033J-53033D01*
G01*
X97704202Y-94131410D01*
G75*
G02*
X97704202Y-94237476I-53033J-53033D01*
G01*
X97598136Y-94343542D01*
G75*
G02*
X97492070Y-94343542I-53033J53033D01*
G01*
G37*
%TD.AperFunction*%
%TO.P,U1,25*%
%TO.N,/Temp_mcu*%
%TA.AperFunction,SMDPad,CuDef*%
G36*
G01*
X97138517Y-94697095D02*
X96148567Y-93707145D01*
G75*
G02*
X96148567Y-93601079I53033J53033D01*
G01*
X96254633Y-93495013D01*
G75*
G02*
X96360699Y-93495013I53033J-53033D01*
G01*
X97350649Y-94484963D01*
G75*
G02*
X97350649Y-94591029I-53033J-53033D01*
G01*
X97244583Y-94697095D01*
G75*
G02*
X97138517Y-94697095I-53033J53033D01*
G01*
G37*
%TD.AperFunction*%
%TO.P,U1,24*%
%TO.N,/EEPROM_HOLD*%
%TA.AperFunction,SMDPad,CuDef*%
G36*
G01*
X96784963Y-95050649D02*
X95795013Y-94060699D01*
G75*
G02*
X95795013Y-93954633I53033J53033D01*
G01*
X95901079Y-93848567D01*
G75*
G02*
X96007145Y-93848567I53033J-53033D01*
G01*
X96997095Y-94838517D01*
G75*
G02*
X96997095Y-94944583I-53033J-53033D01*
G01*
X96891029Y-95050649D01*
G75*
G02*
X96784963Y-95050649I-53033J53033D01*
G01*
G37*
%TD.AperFunction*%
%TO.P,U1,23*%
%TO.N,Net-(U1-Pad23)*%
%TA.AperFunction,SMDPad,CuDef*%
G36*
G01*
X96431410Y-95404202D02*
X95441460Y-94414252D01*
G75*
G02*
X95441460Y-94308186I53033J53033D01*
G01*
X95547526Y-94202120D01*
G75*
G02*
X95653592Y-94202120I53033J-53033D01*
G01*
X96643542Y-95192070D01*
G75*
G02*
X96643542Y-95298136I-53033J-53033D01*
G01*
X96537476Y-95404202D01*
G75*
G02*
X96431410Y-95404202I-53033J53033D01*
G01*
G37*
%TD.AperFunction*%
%TO.P,U1,22*%
%TO.N,/SPI3_CS2*%
%TA.AperFunction,SMDPad,CuDef*%
G36*
G01*
X96077857Y-95757755D02*
X95087907Y-94767805D01*
G75*
G02*
X95087907Y-94661739I53033J53033D01*
G01*
X95193973Y-94555673D01*
G75*
G02*
X95300039Y-94555673I53033J-53033D01*
G01*
X96289989Y-95545623D01*
G75*
G02*
X96289989Y-95651689I-53033J-53033D01*
G01*
X96183923Y-95757755D01*
G75*
G02*
X96077857Y-95757755I-53033J53033D01*
G01*
G37*
%TD.AperFunction*%
%TO.P,U1,21*%
%TO.N,/EEPROM_WP*%
%TA.AperFunction,SMDPad,CuDef*%
G36*
G01*
X95724303Y-96111309D02*
X94734353Y-95121359D01*
G75*
G02*
X94734353Y-95015293I53033J53033D01*
G01*
X94840419Y-94909227D01*
G75*
G02*
X94946485Y-94909227I53033J-53033D01*
G01*
X95936435Y-95899177D01*
G75*
G02*
X95936435Y-96005243I-53033J-53033D01*
G01*
X95830369Y-96111309D01*
G75*
G02*
X95724303Y-96111309I-53033J53033D01*
G01*
G37*
%TD.AperFunction*%
%TO.P,U1,20*%
%TO.N,/DAC2*%
%TA.AperFunction,SMDPad,CuDef*%
G36*
G01*
X95370750Y-96464862D02*
X94380800Y-95474912D01*
G75*
G02*
X94380800Y-95368846I53033J53033D01*
G01*
X94486866Y-95262780D01*
G75*
G02*
X94592932Y-95262780I53033J-53033D01*
G01*
X95582882Y-96252730D01*
G75*
G02*
X95582882Y-96358796I-53033J-53033D01*
G01*
X95476816Y-96464862D01*
G75*
G02*
X95370750Y-96464862I-53033J53033D01*
G01*
G37*
%TD.AperFunction*%
%TO.P,U1,19*%
%TO.N,/LED_BUILTIN*%
%TA.AperFunction,SMDPad,CuDef*%
G36*
G01*
X95017196Y-96818416D02*
X94027246Y-95828466D01*
G75*
G02*
X94027246Y-95722400I53033J53033D01*
G01*
X94133312Y-95616334D01*
G75*
G02*
X94239378Y-95616334I53033J-53033D01*
G01*
X95229328Y-96606284D01*
G75*
G02*
X95229328Y-96712350I-53033J-53033D01*
G01*
X95123262Y-96818416D01*
G75*
G02*
X95017196Y-96818416I-53033J53033D01*
G01*
G37*
%TD.AperFunction*%
%TO.P,U1,18*%
%TO.N,/SPI3_CS*%
%TA.AperFunction,SMDPad,CuDef*%
G36*
G01*
X94663643Y-97171969D02*
X93673693Y-96182019D01*
G75*
G02*
X93673693Y-96075953I53033J53033D01*
G01*
X93779759Y-95969887D01*
G75*
G02*
X93885825Y-95969887I53033J-53033D01*
G01*
X94875775Y-96959837D01*
G75*
G02*
X94875775Y-97065903I-53033J-53033D01*
G01*
X94769709Y-97171969D01*
G75*
G02*
X94663643Y-97171969I-53033J53033D01*
G01*
G37*
%TD.AperFunction*%
%TO.P,U1,17*%
%TO.N,/STLINK_TX*%
%TA.AperFunction,SMDPad,CuDef*%
G36*
G01*
X94310090Y-97525522D02*
X93320140Y-96535572D01*
G75*
G02*
X93320140Y-96429506I53033J53033D01*
G01*
X93426206Y-96323440D01*
G75*
G02*
X93532272Y-96323440I53033J-53033D01*
G01*
X94522222Y-97313390D01*
G75*
G02*
X94522222Y-97419456I-53033J-53033D01*
G01*
X94416156Y-97525522D01*
G75*
G02*
X94310090Y-97525522I-53033J53033D01*
G01*
G37*
%TD.AperFunction*%
%TO.P,U1,16*%
%TO.N,+3V3*%
%TA.AperFunction,SMDPad,CuDef*%
G36*
G01*
X90703844Y-97525522D02*
X90597778Y-97419456D01*
G75*
G02*
X90597778Y-97313390I53033J53033D01*
G01*
X91587728Y-96323440D01*
G75*
G02*
X91693794Y-96323440I53033J-53033D01*
G01*
X91799860Y-96429506D01*
G75*
G02*
X91799860Y-96535572I-53033J-53033D01*
G01*
X90809910Y-97525522D01*
G75*
G02*
X90703844Y-97525522I-53033J53033D01*
G01*
G37*
%TD.AperFunction*%
%TO.P,U1,15*%
%TO.N,GNDD*%
%TA.AperFunction,SMDPad,CuDef*%
G36*
G01*
X90350291Y-97171969D02*
X90244225Y-97065903D01*
G75*
G02*
X90244225Y-96959837I53033J53033D01*
G01*
X91234175Y-95969887D01*
G75*
G02*
X91340241Y-95969887I53033J-53033D01*
G01*
X91446307Y-96075953D01*
G75*
G02*
X91446307Y-96182019I-53033J-53033D01*
G01*
X90456357Y-97171969D01*
G75*
G02*
X90350291Y-97171969I-53033J53033D01*
G01*
G37*
%TD.AperFunction*%
%TO.P,U1,14*%
%TO.N,/STLINK_RX*%
%TA.AperFunction,SMDPad,CuDef*%
G36*
G01*
X89996738Y-96818416D02*
X89890672Y-96712350D01*
G75*
G02*
X89890672Y-96606284I53033J53033D01*
G01*
X90880622Y-95616334D01*
G75*
G02*
X90986688Y-95616334I53033J-53033D01*
G01*
X91092754Y-95722400D01*
G75*
G02*
X91092754Y-95828466I-53033J-53033D01*
G01*
X90102804Y-96818416D01*
G75*
G02*
X89996738Y-96818416I-53033J53033D01*
G01*
G37*
%TD.AperFunction*%
%TO.P,U1,13*%
%TO.N,/I1_low_mcu*%
%TA.AperFunction,SMDPad,CuDef*%
G36*
G01*
X89643184Y-96464862D02*
X89537118Y-96358796D01*
G75*
G02*
X89537118Y-96252730I53033J53033D01*
G01*
X90527068Y-95262780D01*
G75*
G02*
X90633134Y-95262780I53033J-53033D01*
G01*
X90739200Y-95368846D01*
G75*
G02*
X90739200Y-95474912I-53033J-53033D01*
G01*
X89749250Y-96464862D01*
G75*
G02*
X89643184Y-96464862I-53033J53033D01*
G01*
G37*
%TD.AperFunction*%
%TO.P,U1,12*%
%TO.N,/V1_low_mcu*%
%TA.AperFunction,SMDPad,CuDef*%
G36*
G01*
X89289631Y-96111309D02*
X89183565Y-96005243D01*
G75*
G02*
X89183565Y-95899177I53033J53033D01*
G01*
X90173515Y-94909227D01*
G75*
G02*
X90279581Y-94909227I53033J-53033D01*
G01*
X90385647Y-95015293D01*
G75*
G02*
X90385647Y-95121359I-53033J-53033D01*
G01*
X89395697Y-96111309D01*
G75*
G02*
X89289631Y-96111309I-53033J53033D01*
G01*
G37*
%TD.AperFunction*%
%TO.P,U1,11*%
%TO.N,/V_high_mcu*%
%TA.AperFunction,SMDPad,CuDef*%
G36*
G01*
X88936077Y-95757755D02*
X88830011Y-95651689D01*
G75*
G02*
X88830011Y-95545623I53033J53033D01*
G01*
X89819961Y-94555673D01*
G75*
G02*
X89926027Y-94555673I53033J-53033D01*
G01*
X90032093Y-94661739D01*
G75*
G02*
X90032093Y-94767805I-53033J-53033D01*
G01*
X89042143Y-95757755D01*
G75*
G02*
X88936077Y-95757755I-53033J53033D01*
G01*
G37*
%TD.AperFunction*%
%TO.P,U1,10*%
%TO.N,/I_high_mcu*%
%TA.AperFunction,SMDPad,CuDef*%
G36*
G01*
X88582524Y-95404202D02*
X88476458Y-95298136D01*
G75*
G02*
X88476458Y-95192070I53033J53033D01*
G01*
X89466408Y-94202120D01*
G75*
G02*
X89572474Y-94202120I53033J-53033D01*
G01*
X89678540Y-94308186D01*
G75*
G02*
X89678540Y-94414252I-53033J-53033D01*
G01*
X88688590Y-95404202D01*
G75*
G02*
X88582524Y-95404202I-53033J53033D01*
G01*
G37*
%TD.AperFunction*%
%TO.P,U1,9*%
%TO.N,/I2_low_mcu*%
%TA.AperFunction,SMDPad,CuDef*%
G36*
G01*
X88228971Y-95050649D02*
X88122905Y-94944583D01*
G75*
G02*
X88122905Y-94838517I53033J53033D01*
G01*
X89112855Y-93848567D01*
G75*
G02*
X89218921Y-93848567I53033J-53033D01*
G01*
X89324987Y-93954633D01*
G75*
G02*
X89324987Y-94060699I-53033J-53033D01*
G01*
X88335037Y-95050649D01*
G75*
G02*
X88228971Y-95050649I-53033J53033D01*
G01*
G37*
%TD.AperFunction*%
%TO.P,U1,8*%
%TO.N,/V2_low_mcu*%
%TA.AperFunction,SMDPad,CuDef*%
G36*
G01*
X87875417Y-94697095D02*
X87769351Y-94591029D01*
G75*
G02*
X87769351Y-94484963I53033J53033D01*
G01*
X88759301Y-93495013D01*
G75*
G02*
X88865367Y-93495013I53033J-53033D01*
G01*
X88971433Y-93601079D01*
G75*
G02*
X88971433Y-93707145I-53033J-53033D01*
G01*
X87981483Y-94697095D01*
G75*
G02*
X87875417Y-94697095I-53033J53033D01*
G01*
G37*
%TD.AperFunction*%
%TO.P,U1,7*%
%TO.N,/NRST*%
%TA.AperFunction,SMDPad,CuDef*%
G36*
G01*
X87521864Y-94343542D02*
X87415798Y-94237476D01*
G75*
G02*
X87415798Y-94131410I53033J53033D01*
G01*
X88405748Y-93141460D01*
G75*
G02*
X88511814Y-93141460I53033J-53033D01*
G01*
X88617880Y-93247526D01*
G75*
G02*
X88617880Y-93353592I-53033J-53033D01*
G01*
X87627930Y-94343542D01*
G75*
G02*
X87521864Y-94343542I-53033J53033D01*
G01*
G37*
%TD.AperFunction*%
%TO.P,U1,6*%
%TO.N,/HSE_OUT*%
%TA.AperFunction,SMDPad,CuDef*%
G36*
G01*
X87168311Y-93989989D02*
X87062245Y-93883923D01*
G75*
G02*
X87062245Y-93777857I53033J53033D01*
G01*
X88052195Y-92787907D01*
G75*
G02*
X88158261Y-92787907I53033J-53033D01*
G01*
X88264327Y-92893973D01*
G75*
G02*
X88264327Y-93000039I-53033J-53033D01*
G01*
X87274377Y-93989989D01*
G75*
G02*
X87168311Y-93989989I-53033J53033D01*
G01*
G37*
%TD.AperFunction*%
%TO.P,U1,5*%
%TO.N,/HSE_IN*%
%TA.AperFunction,SMDPad,CuDef*%
G36*
G01*
X86814757Y-93636435D02*
X86708691Y-93530369D01*
G75*
G02*
X86708691Y-93424303I53033J53033D01*
G01*
X87698641Y-92434353D01*
G75*
G02*
X87804707Y-92434353I53033J-53033D01*
G01*
X87910773Y-92540419D01*
G75*
G02*
X87910773Y-92646485I-53033J-53033D01*
G01*
X86920823Y-93636435D01*
G75*
G02*
X86814757Y-93636435I-53033J53033D01*
G01*
G37*
%TD.AperFunction*%
%TO.P,U1,4*%
%TO.N,Net-(U1-Pad4)*%
%TA.AperFunction,SMDPad,CuDef*%
G36*
G01*
X86461204Y-93282882D02*
X86355138Y-93176816D01*
G75*
G02*
X86355138Y-93070750I53033J53033D01*
G01*
X87345088Y-92080800D01*
G75*
G02*
X87451154Y-92080800I53033J-53033D01*
G01*
X87557220Y-92186866D01*
G75*
G02*
X87557220Y-92292932I-53033J-53033D01*
G01*
X86567270Y-93282882D01*
G75*
G02*
X86461204Y-93282882I-53033J53033D01*
G01*
G37*
%TD.AperFunction*%
%TO.P,U1,3*%
%TO.N,Net-(U1-Pad3)*%
%TA.AperFunction,SMDPad,CuDef*%
G36*
G01*
X86107650Y-92929328D02*
X86001584Y-92823262D01*
G75*
G02*
X86001584Y-92717196I53033J53033D01*
G01*
X86991534Y-91727246D01*
G75*
G02*
X87097600Y-91727246I53033J-53033D01*
G01*
X87203666Y-91833312D01*
G75*
G02*
X87203666Y-91939378I-53033J-53033D01*
G01*
X86213716Y-92929328D01*
G75*
G02*
X86107650Y-92929328I-53033J53033D01*
G01*
G37*
%TD.AperFunction*%
%TO.P,U1,2*%
%TO.N,Net-(U1-Pad2)*%
%TA.AperFunction,SMDPad,CuDef*%
G36*
G01*
X85754097Y-92575775D02*
X85648031Y-92469709D01*
G75*
G02*
X85648031Y-92363643I53033J53033D01*
G01*
X86637981Y-91373693D01*
G75*
G02*
X86744047Y-91373693I53033J-53033D01*
G01*
X86850113Y-91479759D01*
G75*
G02*
X86850113Y-91585825I-53033J-53033D01*
G01*
X85860163Y-92575775D01*
G75*
G02*
X85754097Y-92575775I-53033J53033D01*
G01*
G37*
%TD.AperFunction*%
%TO.P,U1,1*%
%TO.N,+BATT*%
%TA.AperFunction,SMDPad,CuDef*%
G36*
G01*
X85400544Y-92222222D02*
X85294478Y-92116156D01*
G75*
G02*
X85294478Y-92010090I53033J53033D01*
G01*
X86284428Y-91020140D01*
G75*
G02*
X86390494Y-91020140I53033J-53033D01*
G01*
X86496560Y-91126206D01*
G75*
G02*
X86496560Y-91232272I-53033J-53033D01*
G01*
X85506610Y-92222222D01*
G75*
G02*
X85400544Y-92222222I-53033J53033D01*
G01*
G37*
%TD.AperFunction*%
%TD*%
%TO.P,R23,2*%
%TO.N,/HSE_OUT*%
%TA.AperFunction,SMDPad,CuDef*%
G36*
G01*
X81901042Y-97835356D02*
X81264644Y-97198958D01*
G75*
G02*
X81264644Y-96845406I176776J176776D01*
G01*
X81635876Y-96474174D01*
G75*
G02*
X81989428Y-96474174I176776J-176776D01*
G01*
X82625826Y-97110572D01*
G75*
G02*
X82625826Y-97464124I-176776J-176776D01*
G01*
X82254594Y-97835356D01*
G75*
G02*
X81901042Y-97835356I-176776J176776D01*
G01*
G37*
%TD.AperFunction*%
%TO.P,R23,1*%
%TO.N,Net-(C4-Pad1)*%
%TA.AperFunction,SMDPad,CuDef*%
G36*
G01*
X80610572Y-99125826D02*
X79974174Y-98489428D01*
G75*
G02*
X79974174Y-98135876I176776J176776D01*
G01*
X80345406Y-97764644D01*
G75*
G02*
X80698958Y-97764644I176776J-176776D01*
G01*
X81335356Y-98401042D01*
G75*
G02*
X81335356Y-98754594I-176776J-176776D01*
G01*
X80964124Y-99125826D01*
G75*
G02*
X80610572Y-99125826I-176776J176776D01*
G01*
G37*
%TD.AperFunction*%
%TD*%
%TO.P,R28,2*%
%TO.N,GNDD*%
%TA.AperFunction,SMDPad,CuDef*%
G36*
G01*
X99609879Y-101846277D02*
X100246277Y-101209879D01*
G75*
G02*
X100599829Y-101209879I176776J-176776D01*
G01*
X100971061Y-101581111D01*
G75*
G02*
X100971061Y-101934663I-176776J-176776D01*
G01*
X100334663Y-102571061D01*
G75*
G02*
X99981111Y-102571061I-176776J176776D01*
G01*
X99609879Y-102199829D01*
G75*
G02*
X99609879Y-101846277I176776J176776D01*
G01*
G37*
%TD.AperFunction*%
%TO.P,R28,1*%
%TO.N,Net-(LED1-Pad1)*%
%TA.AperFunction,SMDPad,CuDef*%
G36*
G01*
X98319409Y-100555807D02*
X98955807Y-99919409D01*
G75*
G02*
X99309359Y-99919409I176776J-176776D01*
G01*
X99680591Y-100290641D01*
G75*
G02*
X99680591Y-100644193I-176776J-176776D01*
G01*
X99044193Y-101280591D01*
G75*
G02*
X98690641Y-101280591I-176776J176776D01*
G01*
X98319409Y-100909359D01*
G75*
G02*
X98319409Y-100555807I176776J176776D01*
G01*
G37*
%TD.AperFunction*%
%TD*%
%TO.P,LED1,2*%
%TO.N,/LED_BUILTIN*%
%TA.AperFunction,SMDPad,CuDef*%
G36*
G01*
X97104419Y-98059184D02*
X96459184Y-98704419D01*
G75*
G02*
X96114470Y-98704419I-172357J172357D01*
G01*
X95769755Y-98359704D01*
G75*
G02*
X95769755Y-98014990I172357J172357D01*
G01*
X96414990Y-97369755D01*
G75*
G02*
X96759704Y-97369755I172357J-172357D01*
G01*
X97104419Y-97714470D01*
G75*
G02*
X97104419Y-98059184I-172357J-172357D01*
G01*
G37*
%TD.AperFunction*%
%TO.P,LED1,1*%
%TO.N,Net-(LED1-Pad1)*%
%TA.AperFunction,SMDPad,CuDef*%
G36*
G01*
X98430245Y-99385010D02*
X97785010Y-100030245D01*
G75*
G02*
X97440296Y-100030245I-172357J172357D01*
G01*
X97095581Y-99685530D01*
G75*
G02*
X97095581Y-99340816I172357J172357D01*
G01*
X97740816Y-98695581D01*
G75*
G02*
X98085530Y-98695581I172357J-172357D01*
G01*
X98430245Y-99040296D01*
G75*
G02*
X98430245Y-99385010I-172357J-172357D01*
G01*
G37*
%TD.AperFunction*%
%TD*%
D27*
%TO.P,JP3,1*%
%TO.N,/DAC2*%
X95200000Y-103200000D03*
%TO.P,JP3,2*%
%TO.N,/VREF1024*%
X95200000Y-104500000D03*
%TD*%
%TO.P,C40,2*%
%TO.N,GNDD*%
%TA.AperFunction,SMDPad,CuDef*%
G36*
G01*
X108000001Y-101025000D02*
X105799999Y-101025000D01*
G75*
G02*
X105550000Y-100775001I0J249999D01*
G01*
X105550000Y-100124999D01*
G75*
G02*
X105799999Y-99875000I249999J0D01*
G01*
X108000001Y-99875000D01*
G75*
G02*
X108250000Y-100124999I0J-249999D01*
G01*
X108250000Y-100775001D01*
G75*
G02*
X108000001Y-101025000I-249999J0D01*
G01*
G37*
%TD.AperFunction*%
%TO.P,C40,1*%
%TO.N,+5VD*%
%TA.AperFunction,SMDPad,CuDef*%
G36*
G01*
X108000001Y-103975000D02*
X105799999Y-103975000D01*
G75*
G02*
X105550000Y-103725001I0J249999D01*
G01*
X105550000Y-103074999D01*
G75*
G02*
X105799999Y-102825000I249999J0D01*
G01*
X108000001Y-102825000D01*
G75*
G02*
X108250000Y-103074999I0J-249999D01*
G01*
X108250000Y-103725001D01*
G75*
G02*
X108000001Y-103975000I-249999J0D01*
G01*
G37*
%TD.AperFunction*%
%TD*%
%TO.P,C39,2*%
%TO.N,GNDD*%
%TA.AperFunction,SMDPad,CuDef*%
G36*
G01*
X111625000Y-94499999D02*
X111625000Y-96700001D01*
G75*
G02*
X111375001Y-96950000I-249999J0D01*
G01*
X110724999Y-96950000D01*
G75*
G02*
X110475000Y-96700001I0J249999D01*
G01*
X110475000Y-94499999D01*
G75*
G02*
X110724999Y-94250000I249999J0D01*
G01*
X111375001Y-94250000D01*
G75*
G02*
X111625000Y-94499999I0J-249999D01*
G01*
G37*
%TD.AperFunction*%
%TO.P,C39,1*%
%TO.N,+3V3*%
%TA.AperFunction,SMDPad,CuDef*%
G36*
G01*
X114575000Y-94499999D02*
X114575000Y-96700001D01*
G75*
G02*
X114325001Y-96950000I-249999J0D01*
G01*
X113674999Y-96950000D01*
G75*
G02*
X113425000Y-96700001I0J249999D01*
G01*
X113425000Y-94499999D01*
G75*
G02*
X113674999Y-94250000I249999J0D01*
G01*
X114325001Y-94250000D01*
G75*
G02*
X114575000Y-94499999I0J-249999D01*
G01*
G37*
%TD.AperFunction*%
%TD*%
%TO.P,C38,2*%
%TO.N,GNDD*%
%TA.AperFunction,SMDPad,CuDef*%
G36*
G01*
X110199999Y-71375000D02*
X112400001Y-71375000D01*
G75*
G02*
X112650000Y-71624999I0J-249999D01*
G01*
X112650000Y-72275001D01*
G75*
G02*
X112400001Y-72525000I-249999J0D01*
G01*
X110199999Y-72525000D01*
G75*
G02*
X109950000Y-72275001I0J249999D01*
G01*
X109950000Y-71624999D01*
G75*
G02*
X110199999Y-71375000I249999J0D01*
G01*
G37*
%TD.AperFunction*%
%TO.P,C38,1*%
%TO.N,+5VD*%
%TA.AperFunction,SMDPad,CuDef*%
G36*
G01*
X110199999Y-68425000D02*
X112400001Y-68425000D01*
G75*
G02*
X112650000Y-68674999I0J-249999D01*
G01*
X112650000Y-69325001D01*
G75*
G02*
X112400001Y-69575000I-249999J0D01*
G01*
X110199999Y-69575000D01*
G75*
G02*
X109950000Y-69325001I0J249999D01*
G01*
X109950000Y-68674999D01*
G75*
G02*
X110199999Y-68425000I249999J0D01*
G01*
G37*
%TD.AperFunction*%
%TD*%
%TO.P,C37,2*%
%TO.N,GNDD*%
%TA.AperFunction,SMDPad,CuDef*%
G36*
G01*
X118000000Y-122699999D02*
X118000000Y-124900001D01*
G75*
G02*
X117750001Y-125150000I-249999J0D01*
G01*
X117099999Y-125150000D01*
G75*
G02*
X116850000Y-124900001I0J249999D01*
G01*
X116850000Y-122699999D01*
G75*
G02*
X117099999Y-122450000I249999J0D01*
G01*
X117750001Y-122450000D01*
G75*
G02*
X118000000Y-122699999I0J-249999D01*
G01*
G37*
%TD.AperFunction*%
%TO.P,C37,1*%
%TO.N,+5VD*%
%TA.AperFunction,SMDPad,CuDef*%
G36*
G01*
X120950000Y-122699999D02*
X120950000Y-124900001D01*
G75*
G02*
X120700001Y-125150000I-249999J0D01*
G01*
X120049999Y-125150000D01*
G75*
G02*
X119800000Y-124900001I0J249999D01*
G01*
X119800000Y-122699999D01*
G75*
G02*
X120049999Y-122450000I249999J0D01*
G01*
X120700001Y-122450000D01*
G75*
G02*
X120950000Y-122699999I0J-249999D01*
G01*
G37*
%TD.AperFunction*%
%TD*%
%TO.P,C36,2*%
%TO.N,GNDREF*%
%TA.AperFunction,SMDPad,CuDef*%
G36*
G01*
X110199999Y-65300000D02*
X112400001Y-65300000D01*
G75*
G02*
X112650000Y-65549999I0J-249999D01*
G01*
X112650000Y-66200001D01*
G75*
G02*
X112400001Y-66450000I-249999J0D01*
G01*
X110199999Y-66450000D01*
G75*
G02*
X109950000Y-66200001I0J249999D01*
G01*
X109950000Y-65549999D01*
G75*
G02*
X110199999Y-65300000I249999J0D01*
G01*
G37*
%TD.AperFunction*%
%TO.P,C36,1*%
%TO.N,+12V*%
%TA.AperFunction,SMDPad,CuDef*%
G36*
G01*
X110199999Y-62350000D02*
X112400001Y-62350000D01*
G75*
G02*
X112650000Y-62599999I0J-249999D01*
G01*
X112650000Y-63250001D01*
G75*
G02*
X112400001Y-63500000I-249999J0D01*
G01*
X110199999Y-63500000D01*
G75*
G02*
X109950000Y-63250001I0J249999D01*
G01*
X109950000Y-62599999D01*
G75*
G02*
X110199999Y-62350000I249999J0D01*
G01*
G37*
%TD.AperFunction*%
%TD*%
%TO.P,C35,2*%
%TO.N,/N*%
%TA.AperFunction,SMDPad,CuDef*%
G36*
G01*
X123100000Y-112899999D02*
X123100000Y-115100001D01*
G75*
G02*
X122850001Y-115350000I-249999J0D01*
G01*
X122199999Y-115350000D01*
G75*
G02*
X121950000Y-115100001I0J249999D01*
G01*
X121950000Y-112899999D01*
G75*
G02*
X122199999Y-112650000I249999J0D01*
G01*
X122850001Y-112650000D01*
G75*
G02*
X123100000Y-112899999I0J-249999D01*
G01*
G37*
%TD.AperFunction*%
%TO.P,C35,1*%
%TO.N,+5V*%
%TA.AperFunction,SMDPad,CuDef*%
G36*
G01*
X126050000Y-112899999D02*
X126050000Y-115100001D01*
G75*
G02*
X125800001Y-115350000I-249999J0D01*
G01*
X125149999Y-115350000D01*
G75*
G02*
X124900000Y-115100001I0J249999D01*
G01*
X124900000Y-112899999D01*
G75*
G02*
X125149999Y-112650000I249999J0D01*
G01*
X125800001Y-112650000D01*
G75*
G02*
X126050000Y-112899999I0J-249999D01*
G01*
G37*
%TD.AperFunction*%
%TD*%
%TO.P,C29,2*%
%TO.N,GNDREF*%
%TA.AperFunction,SMDPad,CuDef*%
G36*
G01*
X86375000Y-132000000D02*
X86375000Y-130600000D01*
G75*
G02*
X86625000Y-130350000I250000J0D01*
G01*
X90275000Y-130350000D01*
G75*
G02*
X90525000Y-130600000I0J-250000D01*
G01*
X90525000Y-132000000D01*
G75*
G02*
X90275000Y-132250000I-250000J0D01*
G01*
X86625000Y-132250000D01*
G75*
G02*
X86375000Y-132000000I0J250000D01*
G01*
G37*
%TD.AperFunction*%
%TO.P,C29,1*%
%TO.N,/VI_high*%
%TA.AperFunction,SMDPad,CuDef*%
G36*
G01*
X79425000Y-132000000D02*
X79425000Y-130600000D01*
G75*
G02*
X79675000Y-130350000I250000J0D01*
G01*
X83325000Y-130350000D01*
G75*
G02*
X83575000Y-130600000I0J-250000D01*
G01*
X83575000Y-132000000D01*
G75*
G02*
X83325000Y-132250000I-250000J0D01*
G01*
X79675000Y-132250000D01*
G75*
G02*
X79425000Y-132000000I0J250000D01*
G01*
G37*
%TD.AperFunction*%
%TD*%
%TO.P,C19,2*%
%TO.N,GNDD*%
%TA.AperFunction,SMDPad,CuDef*%
G36*
G01*
X73325000Y-107299999D02*
X73325000Y-109500001D01*
G75*
G02*
X73075001Y-109750000I-249999J0D01*
G01*
X72424999Y-109750000D01*
G75*
G02*
X72175000Y-109500001I0J249999D01*
G01*
X72175000Y-107299999D01*
G75*
G02*
X72424999Y-107050000I249999J0D01*
G01*
X73075001Y-107050000D01*
G75*
G02*
X73325000Y-107299999I0J-249999D01*
G01*
G37*
%TD.AperFunction*%
%TO.P,C19,1*%
%TO.N,/+5VJP*%
%TA.AperFunction,SMDPad,CuDef*%
G36*
G01*
X76275000Y-107299999D02*
X76275000Y-109500001D01*
G75*
G02*
X76025001Y-109750000I-249999J0D01*
G01*
X75374999Y-109750000D01*
G75*
G02*
X75125000Y-109500001I0J249999D01*
G01*
X75125000Y-107299999D01*
G75*
G02*
X75374999Y-107050000I249999J0D01*
G01*
X76025001Y-107050000D01*
G75*
G02*
X76275000Y-107299999I0J-249999D01*
G01*
G37*
%TD.AperFunction*%
%TD*%
D28*
%TO.P,TH1,2*%
%TO.N,GNDD*%
X109530000Y-110000000D03*
D29*
%TO.P,TH1,1*%
%TO.N,/Temp*%
X110800000Y-110000000D03*
%TD*%
%TO.P,R25,2*%
%TO.N,+3V3*%
%TA.AperFunction,SMDPad,CuDef*%
G36*
G01*
X112050001Y-107087500D02*
X111149999Y-107087500D01*
G75*
G02*
X110900000Y-106837501I0J249999D01*
G01*
X110900000Y-106312499D01*
G75*
G02*
X111149999Y-106062500I249999J0D01*
G01*
X112050001Y-106062500D01*
G75*
G02*
X112300000Y-106312499I0J-249999D01*
G01*
X112300000Y-106837501D01*
G75*
G02*
X112050001Y-107087500I-249999J0D01*
G01*
G37*
%TD.AperFunction*%
%TO.P,R25,1*%
%TO.N,/Temp*%
%TA.AperFunction,SMDPad,CuDef*%
G36*
G01*
X112050001Y-108912500D02*
X111149999Y-108912500D01*
G75*
G02*
X110900000Y-108662501I0J249999D01*
G01*
X110900000Y-108137499D01*
G75*
G02*
X111149999Y-107887500I249999J0D01*
G01*
X112050001Y-107887500D01*
G75*
G02*
X112300000Y-108137499I0J-249999D01*
G01*
X112300000Y-108662501D01*
G75*
G02*
X112050001Y-108912500I-249999J0D01*
G01*
G37*
%TD.AperFunction*%
%TD*%
D30*
%TO.P,SW1,2*%
%TO.N,/NRST*%
X70900000Y-102200000D03*
%TO.P,SW1,1*%
%TO.N,GNDD*%
X70900000Y-103800000D03*
%TO.P,SW1,2*%
%TO.N,/NRST*%
X75000000Y-102200000D03*
%TO.P,SW1,1*%
%TO.N,GNDD*%
X75000000Y-103800000D03*
%TD*%
%TO.P,C16,2*%
%TO.N,GNDREF*%
%TA.AperFunction,SMDPad,CuDef*%
G36*
G01*
X105650000Y-129250000D02*
X104550000Y-129250000D01*
G75*
G02*
X104300000Y-129000000I0J250000D01*
G01*
X104300000Y-126000000D01*
G75*
G02*
X104550000Y-125750000I250000J0D01*
G01*
X105650000Y-125750000D01*
G75*
G02*
X105900000Y-126000000I0J-250000D01*
G01*
X105900000Y-129000000D01*
G75*
G02*
X105650000Y-129250000I-250000J0D01*
G01*
G37*
%TD.AperFunction*%
%TO.P,C16,1*%
%TO.N,+12V*%
%TA.AperFunction,SMDPad,CuDef*%
G36*
G01*
X105650000Y-134650000D02*
X104550000Y-134650000D01*
G75*
G02*
X104300000Y-134400000I0J250000D01*
G01*
X104300000Y-131400000D01*
G75*
G02*
X104550000Y-131150000I250000J0D01*
G01*
X105650000Y-131150000D01*
G75*
G02*
X105900000Y-131400000I0J-250000D01*
G01*
X105900000Y-134400000D01*
G75*
G02*
X105650000Y-134650000I-250000J0D01*
G01*
G37*
%TD.AperFunction*%
%TD*%
%TO.P,C15,2*%
%TO.N,GNDD*%
%TA.AperFunction,SMDPad,CuDef*%
G36*
G01*
X125250000Y-128250000D02*
X124150000Y-128250000D01*
G75*
G02*
X123900000Y-128000000I0J250000D01*
G01*
X123900000Y-125000000D01*
G75*
G02*
X124150000Y-124750000I250000J0D01*
G01*
X125250000Y-124750000D01*
G75*
G02*
X125500000Y-125000000I0J-250000D01*
G01*
X125500000Y-128000000D01*
G75*
G02*
X125250000Y-128250000I-250000J0D01*
G01*
G37*
%TD.AperFunction*%
%TO.P,C15,1*%
%TO.N,/+12VD*%
%TA.AperFunction,SMDPad,CuDef*%
G36*
G01*
X125250000Y-133650000D02*
X124150000Y-133650000D01*
G75*
G02*
X123900000Y-133400000I0J250000D01*
G01*
X123900000Y-130400000D01*
G75*
G02*
X124150000Y-130150000I250000J0D01*
G01*
X125250000Y-130150000D01*
G75*
G02*
X125500000Y-130400000I0J-250000D01*
G01*
X125500000Y-133400000D01*
G75*
G02*
X125250000Y-133650000I-250000J0D01*
G01*
G37*
%TD.AperFunction*%
%TD*%
%TO.P,R13,2*%
%TO.N,Net-(J3-Pad9)*%
%TA.AperFunction,SMDPad,CuDef*%
G36*
G01*
X96049999Y-54087500D02*
X96950001Y-54087500D01*
G75*
G02*
X97200000Y-54337499I0J-249999D01*
G01*
X97200000Y-54862501D01*
G75*
G02*
X96950001Y-55112500I-249999J0D01*
G01*
X96049999Y-55112500D01*
G75*
G02*
X95800000Y-54862501I0J249999D01*
G01*
X95800000Y-54337499D01*
G75*
G02*
X96049999Y-54087500I249999J0D01*
G01*
G37*
%TD.AperFunction*%
%TO.P,R13,1*%
%TO.N,/GND_CAN*%
%TA.AperFunction,SMDPad,CuDef*%
G36*
G01*
X96049999Y-52262500D02*
X96950001Y-52262500D01*
G75*
G02*
X97200000Y-52512499I0J-249999D01*
G01*
X97200000Y-53037501D01*
G75*
G02*
X96950001Y-53287500I-249999J0D01*
G01*
X96049999Y-53287500D01*
G75*
G02*
X95800000Y-53037501I0J249999D01*
G01*
X95800000Y-52512499D01*
G75*
G02*
X96049999Y-52262500I249999J0D01*
G01*
G37*
%TD.AperFunction*%
%TD*%
D10*
%TO.P,SWD1,6*%
%TO.N,/SWO*%
X51500000Y-106300000D03*
%TO.P,SWD1,5*%
%TO.N,/NRST*%
X51500000Y-103760000D03*
%TO.P,SWD1,4*%
%TO.N,/SWDIO*%
X51500000Y-101220000D03*
%TO.P,SWD1,3*%
%TO.N,GNDD*%
X51500000Y-98680000D03*
%TO.P,SWD1,2*%
%TO.N,/SWCLK*%
X51500000Y-96140000D03*
D11*
%TO.P,SWD1,1*%
%TO.N,+3V3*%
X51500000Y-93600000D03*
%TD*%
%TO.P,R24,2*%
%TO.N,Net-(J8-Pad11)*%
%TA.AperFunction,SMDPad,CuDef*%
G36*
G01*
X57412500Y-97850001D02*
X57412500Y-96949999D01*
G75*
G02*
X57662499Y-96700000I249999J0D01*
G01*
X58187501Y-96700000D01*
G75*
G02*
X58437500Y-96949999I0J-249999D01*
G01*
X58437500Y-97850001D01*
G75*
G02*
X58187501Y-98100000I-249999J0D01*
G01*
X57662499Y-98100000D01*
G75*
G02*
X57412500Y-97850001I0J249999D01*
G01*
G37*
%TD.AperFunction*%
%TO.P,R24,1*%
%TO.N,GNDD*%
%TA.AperFunction,SMDPad,CuDef*%
G36*
G01*
X55587500Y-97850001D02*
X55587500Y-96949999D01*
G75*
G02*
X55837499Y-96700000I249999J0D01*
G01*
X56362501Y-96700000D01*
G75*
G02*
X56612500Y-96949999I0J-249999D01*
G01*
X56612500Y-97850001D01*
G75*
G02*
X56362501Y-98100000I-249999J0D01*
G01*
X55837499Y-98100000D01*
G75*
G02*
X55587500Y-97850001I0J249999D01*
G01*
G37*
%TD.AperFunction*%
%TD*%
D31*
%TO.P,J8,14*%
%TO.N,/STLINK_TX*%
X65000000Y-98680000D03*
%TO.P,J8,13*%
%TO.N,/STLINK_RX*%
X61100000Y-98680000D03*
%TO.P,J8,12*%
%TO.N,/NRST*%
X65000000Y-97410000D03*
%TO.P,J8,11*%
%TO.N,Net-(J8-Pad11)*%
X61100000Y-97410000D03*
%TO.P,J8,10*%
%TO.N,Net-(J8-Pad10)*%
X65000000Y-96140000D03*
%TO.P,J8,9*%
%TO.N,Net-(J8-Pad9)*%
X61100000Y-96140000D03*
%TO.P,J8,8*%
%TO.N,/SWO*%
X65000000Y-94870000D03*
%TO.P,J8,7*%
%TO.N,GNDD*%
X61100000Y-94870000D03*
%TO.P,J8,6*%
%TO.N,/SWCLK*%
X65000000Y-93600000D03*
%TO.P,J8,5*%
%TO.N,GNDD*%
X61100000Y-93600000D03*
%TO.P,J8,4*%
%TO.N,/SWDIO*%
X65000000Y-92330000D03*
%TO.P,J8,3*%
%TO.N,+3V3*%
X61100000Y-92330000D03*
%TO.P,J8,2*%
%TO.N,Net-(J8-Pad2)*%
X65000000Y-91060000D03*
%TO.P,J8,1*%
%TO.N,Net-(J8-Pad1)*%
X61100000Y-91060000D03*
%TD*%
%TO.P,R17,2*%
%TO.N,Net-(C27-Pad2)*%
%TA.AperFunction,SMDPad,CuDef*%
G36*
G01*
X120060001Y-73930000D02*
X119159999Y-73930000D01*
G75*
G02*
X118910000Y-73680001I0J249999D01*
G01*
X118910000Y-73154999D01*
G75*
G02*
X119159999Y-72905000I249999J0D01*
G01*
X120060001Y-72905000D01*
G75*
G02*
X120310000Y-73154999I0J-249999D01*
G01*
X120310000Y-73680001D01*
G75*
G02*
X120060001Y-73930000I-249999J0D01*
G01*
G37*
%TD.AperFunction*%
%TO.P,R17,1*%
%TO.N,/HRTIM1_CHB1*%
%TA.AperFunction,SMDPad,CuDef*%
G36*
G01*
X120060001Y-75755000D02*
X119159999Y-75755000D01*
G75*
G02*
X118910000Y-75505001I0J249999D01*
G01*
X118910000Y-74979999D01*
G75*
G02*
X119159999Y-74730000I249999J0D01*
G01*
X120060001Y-74730000D01*
G75*
G02*
X120310000Y-74979999I0J-249999D01*
G01*
X120310000Y-75505001D01*
G75*
G02*
X120060001Y-75755000I-249999J0D01*
G01*
G37*
%TD.AperFunction*%
%TD*%
%TA.AperFunction,SMDPad,CuDef*%
D32*
%TO.P,Y1,4*%
%TO.N,GNDD*%
G36*
X81049569Y-94603984D02*
G01*
X81898097Y-95452512D01*
X80908147Y-96442462D01*
X80059619Y-95593934D01*
X81049569Y-94603984D01*
G37*
%TD.AperFunction*%
%TA.AperFunction,SMDPad,CuDef*%
%TO.P,Y1,3*%
%TO.N,Net-(C4-Pad1)*%
G36*
X79493934Y-96159619D02*
G01*
X80342462Y-97008147D01*
X79352512Y-97998097D01*
X78503984Y-97149569D01*
X79493934Y-96159619D01*
G37*
%TD.AperFunction*%
%TA.AperFunction,SMDPad,CuDef*%
%TO.P,Y1,2*%
%TO.N,GNDD*%
G36*
X78291853Y-94957538D02*
G01*
X79140381Y-95806066D01*
X78150431Y-96796016D01*
X77301903Y-95947488D01*
X78291853Y-94957538D01*
G37*
%TD.AperFunction*%
%TA.AperFunction,SMDPad,CuDef*%
%TO.P,Y1,1*%
%TO.N,/HSE_IN*%
G36*
X79847488Y-93401903D02*
G01*
X80696016Y-94250431D01*
X79706066Y-95240381D01*
X78857538Y-94391853D01*
X79847488Y-93401903D01*
G37*
%TD.AperFunction*%
%TD*%
D33*
%TO.P,U7,4*%
%TO.N,+12V*%
X100070000Y-126590000D03*
%TO.P,U7,2*%
%TO.N,Net-(R21-Pad2)*%
X97530000Y-118970000D03*
%TO.P,U7,3*%
%TO.N,/Neutral_GND_cmd*%
X97530000Y-126590000D03*
%TO.P,U7,1*%
%TO.N,/N_GND*%
X100070000Y-118970000D03*
%TD*%
%TO.P,R22,2*%
%TO.N,/Neutral_GND_cmd*%
%TA.AperFunction,SMDPad,CuDef*%
G36*
G01*
X97950001Y-129112500D02*
X97049999Y-129112500D01*
G75*
G02*
X96800000Y-128862501I0J249999D01*
G01*
X96800000Y-128337499D01*
G75*
G02*
X97049999Y-128087500I249999J0D01*
G01*
X97950001Y-128087500D01*
G75*
G02*
X98200000Y-128337499I0J-249999D01*
G01*
X98200000Y-128862501D01*
G75*
G02*
X97950001Y-129112500I-249999J0D01*
G01*
G37*
%TD.AperFunction*%
%TO.P,R22,1*%
%TO.N,GNDREF*%
%TA.AperFunction,SMDPad,CuDef*%
G36*
G01*
X97950001Y-130937500D02*
X97049999Y-130937500D01*
G75*
G02*
X96800000Y-130687501I0J249999D01*
G01*
X96800000Y-130162499D01*
G75*
G02*
X97049999Y-129912500I249999J0D01*
G01*
X97950001Y-129912500D01*
G75*
G02*
X98200000Y-130162499I0J-249999D01*
G01*
X98200000Y-130687501D01*
G75*
G02*
X97950001Y-130937500I-249999J0D01*
G01*
G37*
%TD.AperFunction*%
%TD*%
%TO.P,R21,2*%
%TO.N,Net-(R21-Pad2)*%
%TA.AperFunction,SMDPad,CuDef*%
G36*
G01*
X94900000Y-119650001D02*
X94900000Y-118749999D01*
G75*
G02*
X95149999Y-118500000I249999J0D01*
G01*
X95675001Y-118500000D01*
G75*
G02*
X95925000Y-118749999I0J-249999D01*
G01*
X95925000Y-119650001D01*
G75*
G02*
X95675001Y-119900000I-249999J0D01*
G01*
X95149999Y-119900000D01*
G75*
G02*
X94900000Y-119650001I0J249999D01*
G01*
G37*
%TD.AperFunction*%
%TO.P,R21,1*%
%TO.N,GNDD*%
%TA.AperFunction,SMDPad,CuDef*%
G36*
G01*
X93075000Y-119650001D02*
X93075000Y-118749999D01*
G75*
G02*
X93324999Y-118500000I249999J0D01*
G01*
X93850001Y-118500000D01*
G75*
G02*
X94100000Y-118749999I0J-249999D01*
G01*
X94100000Y-119650001D01*
G75*
G02*
X93850001Y-119900000I-249999J0D01*
G01*
X93324999Y-119900000D01*
G75*
G02*
X93075000Y-119650001I0J249999D01*
G01*
G37*
%TD.AperFunction*%
%TD*%
%TO.P,R20,2*%
%TO.N,+12V*%
%TA.AperFunction,SMDPad,CuDef*%
G36*
G01*
X125412500Y-58550001D02*
X125412500Y-57649999D01*
G75*
G02*
X125662499Y-57400000I249999J0D01*
G01*
X126187501Y-57400000D01*
G75*
G02*
X126437500Y-57649999I0J-249999D01*
G01*
X126437500Y-58550001D01*
G75*
G02*
X126187501Y-58800000I-249999J0D01*
G01*
X125662499Y-58800000D01*
G75*
G02*
X125412500Y-58550001I0J249999D01*
G01*
G37*
%TD.AperFunction*%
%TO.P,R20,1*%
%TO.N,Net-(D11-Pad2)*%
%TA.AperFunction,SMDPad,CuDef*%
G36*
G01*
X123587500Y-58550001D02*
X123587500Y-57649999D01*
G75*
G02*
X123837499Y-57400000I249999J0D01*
G01*
X124362501Y-57400000D01*
G75*
G02*
X124612500Y-57649999I0J-249999D01*
G01*
X124612500Y-58550001D01*
G75*
G02*
X124362501Y-58800000I-249999J0D01*
G01*
X123837499Y-58800000D01*
G75*
G02*
X123587500Y-58550001I0J249999D01*
G01*
G37*
%TD.AperFunction*%
%TD*%
%TO.P,R19,2*%
%TO.N,Net-(C30-Pad1)*%
%TA.AperFunction,SMDPad,CuDef*%
G36*
G01*
X127997500Y-71559999D02*
X127997500Y-72460001D01*
G75*
G02*
X127747501Y-72710000I-249999J0D01*
G01*
X127222499Y-72710000D01*
G75*
G02*
X126972500Y-72460001I0J249999D01*
G01*
X126972500Y-71559999D01*
G75*
G02*
X127222499Y-71310000I249999J0D01*
G01*
X127747501Y-71310000D01*
G75*
G02*
X127997500Y-71559999I0J-249999D01*
G01*
G37*
%TD.AperFunction*%
%TO.P,R19,1*%
%TO.N,GNDD*%
%TA.AperFunction,SMDPad,CuDef*%
G36*
G01*
X129822500Y-71559999D02*
X129822500Y-72460001D01*
G75*
G02*
X129572501Y-72710000I-249999J0D01*
G01*
X129047499Y-72710000D01*
G75*
G02*
X128797500Y-72460001I0J249999D01*
G01*
X128797500Y-71559999D01*
G75*
G02*
X129047499Y-71310000I249999J0D01*
G01*
X129572501Y-71310000D01*
G75*
G02*
X129822500Y-71559999I0J-249999D01*
G01*
G37*
%TD.AperFunction*%
%TD*%
%TO.P,R18,2*%
%TO.N,Net-(C28-Pad1)*%
%TA.AperFunction,SMDPad,CuDef*%
G36*
G01*
X121860001Y-73930000D02*
X120959999Y-73930000D01*
G75*
G02*
X120710000Y-73680001I0J249999D01*
G01*
X120710000Y-73154999D01*
G75*
G02*
X120959999Y-72905000I249999J0D01*
G01*
X121860001Y-72905000D01*
G75*
G02*
X122110000Y-73154999I0J-249999D01*
G01*
X122110000Y-73680001D01*
G75*
G02*
X121860001Y-73930000I-249999J0D01*
G01*
G37*
%TD.AperFunction*%
%TO.P,R18,1*%
%TO.N,/HRTIM1_CHB2*%
%TA.AperFunction,SMDPad,CuDef*%
G36*
G01*
X121860001Y-75755000D02*
X120959999Y-75755000D01*
G75*
G02*
X120710000Y-75505001I0J249999D01*
G01*
X120710000Y-74979999D01*
G75*
G02*
X120959999Y-74730000I249999J0D01*
G01*
X121860001Y-74730000D01*
G75*
G02*
X122110000Y-74979999I0J-249999D01*
G01*
X122110000Y-75505001D01*
G75*
G02*
X121860001Y-75755000I-249999J0D01*
G01*
G37*
%TD.AperFunction*%
%TD*%
%TO.P,R16,2*%
%TO.N,+12V*%
%TA.AperFunction,SMDPad,CuDef*%
G36*
G01*
X93012500Y-58250001D02*
X93012500Y-57349999D01*
G75*
G02*
X93262499Y-57100000I249999J0D01*
G01*
X93787501Y-57100000D01*
G75*
G02*
X94037500Y-57349999I0J-249999D01*
G01*
X94037500Y-58250001D01*
G75*
G02*
X93787501Y-58500000I-249999J0D01*
G01*
X93262499Y-58500000D01*
G75*
G02*
X93012500Y-58250001I0J249999D01*
G01*
G37*
%TD.AperFunction*%
%TO.P,R16,1*%
%TO.N,Net-(D10-Pad2)*%
%TA.AperFunction,SMDPad,CuDef*%
G36*
G01*
X91187500Y-58250001D02*
X91187500Y-57349999D01*
G75*
G02*
X91437499Y-57100000I249999J0D01*
G01*
X91962501Y-57100000D01*
G75*
G02*
X92212500Y-57349999I0J-249999D01*
G01*
X92212500Y-58250001D01*
G75*
G02*
X91962501Y-58500000I-249999J0D01*
G01*
X91437499Y-58500000D01*
G75*
G02*
X91187500Y-58250001I0J249999D01*
G01*
G37*
%TD.AperFunction*%
%TD*%
%TO.P,R15,2*%
%TO.N,Net-(C20-Pad1)*%
%TA.AperFunction,SMDPad,CuDef*%
G36*
G01*
X95967500Y-71469999D02*
X95967500Y-72370001D01*
G75*
G02*
X95717501Y-72620000I-249999J0D01*
G01*
X95192499Y-72620000D01*
G75*
G02*
X94942500Y-72370001I0J249999D01*
G01*
X94942500Y-71469999D01*
G75*
G02*
X95192499Y-71220000I249999J0D01*
G01*
X95717501Y-71220000D01*
G75*
G02*
X95967500Y-71469999I0J-249999D01*
G01*
G37*
%TD.AperFunction*%
%TO.P,R15,1*%
%TO.N,GNDD*%
%TA.AperFunction,SMDPad,CuDef*%
G36*
G01*
X97792500Y-71469999D02*
X97792500Y-72370001D01*
G75*
G02*
X97542501Y-72620000I-249999J0D01*
G01*
X97017499Y-72620000D01*
G75*
G02*
X96767500Y-72370001I0J249999D01*
G01*
X96767500Y-71469999D01*
G75*
G02*
X97017499Y-71220000I249999J0D01*
G01*
X97542501Y-71220000D01*
G75*
G02*
X97792500Y-71469999I0J-249999D01*
G01*
G37*
%TD.AperFunction*%
%TD*%
%TO.P,R14,2*%
%TO.N,Net-(C18-Pad1)*%
%TA.AperFunction,SMDPad,CuDef*%
G36*
G01*
X90330001Y-74520000D02*
X89429999Y-74520000D01*
G75*
G02*
X89180000Y-74270001I0J249999D01*
G01*
X89180000Y-73744999D01*
G75*
G02*
X89429999Y-73495000I249999J0D01*
G01*
X90330001Y-73495000D01*
G75*
G02*
X90580000Y-73744999I0J-249999D01*
G01*
X90580000Y-74270001D01*
G75*
G02*
X90330001Y-74520000I-249999J0D01*
G01*
G37*
%TD.AperFunction*%
%TO.P,R14,1*%
%TO.N,/HRTIM1_CHA2*%
%TA.AperFunction,SMDPad,CuDef*%
G36*
G01*
X90330001Y-76345000D02*
X89429999Y-76345000D01*
G75*
G02*
X89180000Y-76095001I0J249999D01*
G01*
X89180000Y-75569999D01*
G75*
G02*
X89429999Y-75320000I249999J0D01*
G01*
X90330001Y-75320000D01*
G75*
G02*
X90580000Y-75569999I0J-249999D01*
G01*
X90580000Y-76095001D01*
G75*
G02*
X90330001Y-76345000I-249999J0D01*
G01*
G37*
%TD.AperFunction*%
%TD*%
%TO.P,R9,2*%
%TO.N,Net-(C17-Pad2)*%
%TA.AperFunction,SMDPad,CuDef*%
G36*
G01*
X88330001Y-74520000D02*
X87429999Y-74520000D01*
G75*
G02*
X87180000Y-74270001I0J249999D01*
G01*
X87180000Y-73744999D01*
G75*
G02*
X87429999Y-73495000I249999J0D01*
G01*
X88330001Y-73495000D01*
G75*
G02*
X88580000Y-73744999I0J-249999D01*
G01*
X88580000Y-74270001D01*
G75*
G02*
X88330001Y-74520000I-249999J0D01*
G01*
G37*
%TD.AperFunction*%
%TO.P,R9,1*%
%TO.N,/HRTIM1_CHA1*%
%TA.AperFunction,SMDPad,CuDef*%
G36*
G01*
X88330001Y-76345000D02*
X87429999Y-76345000D01*
G75*
G02*
X87180000Y-76095001I0J249999D01*
G01*
X87180000Y-75569999D01*
G75*
G02*
X87429999Y-75320000I249999J0D01*
G01*
X88330001Y-75320000D01*
G75*
G02*
X88580000Y-75569999I0J-249999D01*
G01*
X88580000Y-76095001D01*
G75*
G02*
X88330001Y-76345000I-249999J0D01*
G01*
G37*
%TD.AperFunction*%
%TD*%
D34*
%TO.P,D11,2*%
%TO.N,Net-(D11-Pad2)*%
X117900000Y-58850000D03*
%TO.P,D11,1*%
%TO.N,Net-(C31-Pad1)*%
X117900000Y-63150000D03*
%TD*%
%TO.P,D10,2*%
%TO.N,Net-(D10-Pad2)*%
X85500000Y-58650000D03*
%TO.P,D10,1*%
%TO.N,Net-(C21-Pad1)*%
X85500000Y-62950000D03*
%TD*%
%TO.P,C34,2*%
%TO.N,GNDREF*%
%TA.AperFunction,SMDPad,CuDef*%
G36*
G01*
X129785000Y-60200001D02*
X129785000Y-57999999D01*
G75*
G02*
X130034999Y-57750000I249999J0D01*
G01*
X130685001Y-57750000D01*
G75*
G02*
X130935000Y-57999999I0J-249999D01*
G01*
X130935000Y-60200001D01*
G75*
G02*
X130685001Y-60450000I-249999J0D01*
G01*
X130034999Y-60450000D01*
G75*
G02*
X129785000Y-60200001I0J249999D01*
G01*
G37*
%TD.AperFunction*%
%TO.P,C34,1*%
%TO.N,+12V*%
%TA.AperFunction,SMDPad,CuDef*%
G36*
G01*
X126835000Y-60200001D02*
X126835000Y-57999999D01*
G75*
G02*
X127084999Y-57750000I249999J0D01*
G01*
X127735001Y-57750000D01*
G75*
G02*
X127985000Y-57999999I0J-249999D01*
G01*
X127985000Y-60200001D01*
G75*
G02*
X127735001Y-60450000I-249999J0D01*
G01*
X127084999Y-60450000D01*
G75*
G02*
X126835000Y-60200001I0J249999D01*
G01*
G37*
%TD.AperFunction*%
%TD*%
%TO.P,C33,2*%
%TO.N,/SW_Node2*%
%TA.AperFunction,SMDPad,CuDef*%
G36*
G01*
X122510000Y-60285000D02*
X122510000Y-59335000D01*
G75*
G02*
X122760000Y-59085000I250000J0D01*
G01*
X123260000Y-59085000D01*
G75*
G02*
X123510000Y-59335000I0J-250000D01*
G01*
X123510000Y-60285000D01*
G75*
G02*
X123260000Y-60535000I-250000J0D01*
G01*
X122760000Y-60535000D01*
G75*
G02*
X122510000Y-60285000I0J250000D01*
G01*
G37*
%TD.AperFunction*%
%TO.P,C33,1*%
%TO.N,Net-(C31-Pad1)*%
%TA.AperFunction,SMDPad,CuDef*%
G36*
G01*
X120610000Y-60285000D02*
X120610000Y-59335000D01*
G75*
G02*
X120860000Y-59085000I250000J0D01*
G01*
X121360000Y-59085000D01*
G75*
G02*
X121610000Y-59335000I0J-250000D01*
G01*
X121610000Y-60285000D01*
G75*
G02*
X121360000Y-60535000I-250000J0D01*
G01*
X120860000Y-60535000D01*
G75*
G02*
X120610000Y-60285000I0J250000D01*
G01*
G37*
%TD.AperFunction*%
%TD*%
%TO.P,C32,2*%
%TO.N,GNDREF*%
%TA.AperFunction,SMDPad,CuDef*%
G36*
G01*
X129350000Y-62075000D02*
X129350000Y-61125000D01*
G75*
G02*
X129600000Y-60875000I250000J0D01*
G01*
X130100000Y-60875000D01*
G75*
G02*
X130350000Y-61125000I0J-250000D01*
G01*
X130350000Y-62075000D01*
G75*
G02*
X130100000Y-62325000I-250000J0D01*
G01*
X129600000Y-62325000D01*
G75*
G02*
X129350000Y-62075000I0J250000D01*
G01*
G37*
%TD.AperFunction*%
%TO.P,C32,1*%
%TO.N,+12V*%
%TA.AperFunction,SMDPad,CuDef*%
G36*
G01*
X127450000Y-62075000D02*
X127450000Y-61125000D01*
G75*
G02*
X127700000Y-60875000I250000J0D01*
G01*
X128200000Y-60875000D01*
G75*
G02*
X128450000Y-61125000I0J-250000D01*
G01*
X128450000Y-62075000D01*
G75*
G02*
X128200000Y-62325000I-250000J0D01*
G01*
X127700000Y-62325000D01*
G75*
G02*
X127450000Y-62075000I0J250000D01*
G01*
G37*
%TD.AperFunction*%
%TD*%
%TO.P,C31,2*%
%TO.N,/SW_Node2*%
%TA.AperFunction,SMDPad,CuDef*%
G36*
G01*
X122510000Y-62085000D02*
X122510000Y-61135000D01*
G75*
G02*
X122760000Y-60885000I250000J0D01*
G01*
X123260000Y-60885000D01*
G75*
G02*
X123510000Y-61135000I0J-250000D01*
G01*
X123510000Y-62085000D01*
G75*
G02*
X123260000Y-62335000I-250000J0D01*
G01*
X122760000Y-62335000D01*
G75*
G02*
X122510000Y-62085000I0J250000D01*
G01*
G37*
%TD.AperFunction*%
%TO.P,C31,1*%
%TO.N,Net-(C31-Pad1)*%
%TA.AperFunction,SMDPad,CuDef*%
G36*
G01*
X120610000Y-62085000D02*
X120610000Y-61135000D01*
G75*
G02*
X120860000Y-60885000I250000J0D01*
G01*
X121360000Y-60885000D01*
G75*
G02*
X121610000Y-61135000I0J-250000D01*
G01*
X121610000Y-62085000D01*
G75*
G02*
X121360000Y-62335000I-250000J0D01*
G01*
X120860000Y-62335000D01*
G75*
G02*
X120610000Y-62085000I0J250000D01*
G01*
G37*
%TD.AperFunction*%
%TD*%
%TO.P,C30,2*%
%TO.N,GNDD*%
%TA.AperFunction,SMDPad,CuDef*%
G36*
G01*
X128867500Y-74285000D02*
X128867500Y-73335000D01*
G75*
G02*
X129117500Y-73085000I250000J0D01*
G01*
X129617500Y-73085000D01*
G75*
G02*
X129867500Y-73335000I0J-250000D01*
G01*
X129867500Y-74285000D01*
G75*
G02*
X129617500Y-74535000I-250000J0D01*
G01*
X129117500Y-74535000D01*
G75*
G02*
X128867500Y-74285000I0J250000D01*
G01*
G37*
%TD.AperFunction*%
%TO.P,C30,1*%
%TO.N,Net-(C30-Pad1)*%
%TA.AperFunction,SMDPad,CuDef*%
G36*
G01*
X126967500Y-74285000D02*
X126967500Y-73335000D01*
G75*
G02*
X127217500Y-73085000I250000J0D01*
G01*
X127717500Y-73085000D01*
G75*
G02*
X127967500Y-73335000I0J-250000D01*
G01*
X127967500Y-74285000D01*
G75*
G02*
X127717500Y-74535000I-250000J0D01*
G01*
X127217500Y-74535000D01*
G75*
G02*
X126967500Y-74285000I0J250000D01*
G01*
G37*
%TD.AperFunction*%
%TD*%
%TO.P,C28,2*%
%TO.N,GNDD*%
%TA.AperFunction,SMDPad,CuDef*%
G36*
G01*
X122735000Y-74800000D02*
X123685000Y-74800000D01*
G75*
G02*
X123935000Y-75050000I0J-250000D01*
G01*
X123935000Y-75550000D01*
G75*
G02*
X123685000Y-75800000I-250000J0D01*
G01*
X122735000Y-75800000D01*
G75*
G02*
X122485000Y-75550000I0J250000D01*
G01*
X122485000Y-75050000D01*
G75*
G02*
X122735000Y-74800000I250000J0D01*
G01*
G37*
%TD.AperFunction*%
%TO.P,C28,1*%
%TO.N,Net-(C28-Pad1)*%
%TA.AperFunction,SMDPad,CuDef*%
G36*
G01*
X122735000Y-72900000D02*
X123685000Y-72900000D01*
G75*
G02*
X123935000Y-73150000I0J-250000D01*
G01*
X123935000Y-73650000D01*
G75*
G02*
X123685000Y-73900000I-250000J0D01*
G01*
X122735000Y-73900000D01*
G75*
G02*
X122485000Y-73650000I0J250000D01*
G01*
X122485000Y-73150000D01*
G75*
G02*
X122735000Y-72900000I250000J0D01*
G01*
G37*
%TD.AperFunction*%
%TD*%
%TO.P,C27,2*%
%TO.N,Net-(C27-Pad2)*%
%TA.AperFunction,SMDPad,CuDef*%
G36*
G01*
X118275000Y-73900000D02*
X117325000Y-73900000D01*
G75*
G02*
X117075000Y-73650000I0J250000D01*
G01*
X117075000Y-73150000D01*
G75*
G02*
X117325000Y-72900000I250000J0D01*
G01*
X118275000Y-72900000D01*
G75*
G02*
X118525000Y-73150000I0J-250000D01*
G01*
X118525000Y-73650000D01*
G75*
G02*
X118275000Y-73900000I-250000J0D01*
G01*
G37*
%TD.AperFunction*%
%TO.P,C27,1*%
%TO.N,GNDD*%
%TA.AperFunction,SMDPad,CuDef*%
G36*
G01*
X118275000Y-75800000D02*
X117325000Y-75800000D01*
G75*
G02*
X117075000Y-75550000I0J250000D01*
G01*
X117075000Y-75050000D01*
G75*
G02*
X117325000Y-74800000I250000J0D01*
G01*
X118275000Y-74800000D01*
G75*
G02*
X118525000Y-75050000I0J-250000D01*
G01*
X118525000Y-75550000D01*
G75*
G02*
X118275000Y-75800000I-250000J0D01*
G01*
G37*
%TD.AperFunction*%
%TD*%
%TO.P,C26,2*%
%TO.N,GNDD*%
%TA.AperFunction,SMDPad,CuDef*%
G36*
G01*
X131225000Y-71250000D02*
X132175000Y-71250000D01*
G75*
G02*
X132425000Y-71500000I0J-250000D01*
G01*
X132425000Y-72000000D01*
G75*
G02*
X132175000Y-72250000I-250000J0D01*
G01*
X131225000Y-72250000D01*
G75*
G02*
X130975000Y-72000000I0J250000D01*
G01*
X130975000Y-71500000D01*
G75*
G02*
X131225000Y-71250000I250000J0D01*
G01*
G37*
%TD.AperFunction*%
%TO.P,C26,1*%
%TO.N,+5VD*%
%TA.AperFunction,SMDPad,CuDef*%
G36*
G01*
X131225000Y-69350000D02*
X132175000Y-69350000D01*
G75*
G02*
X132425000Y-69600000I0J-250000D01*
G01*
X132425000Y-70100000D01*
G75*
G02*
X132175000Y-70350000I-250000J0D01*
G01*
X131225000Y-70350000D01*
G75*
G02*
X130975000Y-70100000I0J250000D01*
G01*
X130975000Y-69600000D01*
G75*
G02*
X131225000Y-69350000I250000J0D01*
G01*
G37*
%TD.AperFunction*%
%TD*%
%TO.P,C25,2*%
%TO.N,GNDD*%
%TA.AperFunction,SMDPad,CuDef*%
G36*
G01*
X125100000Y-72275000D02*
X125100000Y-71325000D01*
G75*
G02*
X125350000Y-71075000I250000J0D01*
G01*
X125850000Y-71075000D01*
G75*
G02*
X126100000Y-71325000I0J-250000D01*
G01*
X126100000Y-72275000D01*
G75*
G02*
X125850000Y-72525000I-250000J0D01*
G01*
X125350000Y-72525000D01*
G75*
G02*
X125100000Y-72275000I0J250000D01*
G01*
G37*
%TD.AperFunction*%
%TO.P,C25,1*%
%TO.N,+5VD*%
%TA.AperFunction,SMDPad,CuDef*%
G36*
G01*
X123200000Y-72275000D02*
X123200000Y-71325000D01*
G75*
G02*
X123450000Y-71075000I250000J0D01*
G01*
X123950000Y-71075000D01*
G75*
G02*
X124200000Y-71325000I0J-250000D01*
G01*
X124200000Y-72275000D01*
G75*
G02*
X123950000Y-72525000I-250000J0D01*
G01*
X123450000Y-72525000D01*
G75*
G02*
X123200000Y-72275000I0J250000D01*
G01*
G37*
%TD.AperFunction*%
%TD*%
%TO.P,C24,2*%
%TO.N,GNDREF*%
%TA.AperFunction,SMDPad,CuDef*%
G36*
G01*
X97355000Y-60050001D02*
X97355000Y-57849999D01*
G75*
G02*
X97604999Y-57600000I249999J0D01*
G01*
X98255001Y-57600000D01*
G75*
G02*
X98505000Y-57849999I0J-249999D01*
G01*
X98505000Y-60050001D01*
G75*
G02*
X98255001Y-60300000I-249999J0D01*
G01*
X97604999Y-60300000D01*
G75*
G02*
X97355000Y-60050001I0J249999D01*
G01*
G37*
%TD.AperFunction*%
%TO.P,C24,1*%
%TO.N,+12V*%
%TA.AperFunction,SMDPad,CuDef*%
G36*
G01*
X94405000Y-60050001D02*
X94405000Y-57849999D01*
G75*
G02*
X94654999Y-57600000I249999J0D01*
G01*
X95305001Y-57600000D01*
G75*
G02*
X95555000Y-57849999I0J-249999D01*
G01*
X95555000Y-60050001D01*
G75*
G02*
X95305001Y-60300000I-249999J0D01*
G01*
X94654999Y-60300000D01*
G75*
G02*
X94405000Y-60050001I0J249999D01*
G01*
G37*
%TD.AperFunction*%
%TD*%
%TO.P,C23,2*%
%TO.N,/SW_Node1*%
%TA.AperFunction,SMDPad,CuDef*%
G36*
G01*
X90030000Y-60395000D02*
X90030000Y-59445000D01*
G75*
G02*
X90280000Y-59195000I250000J0D01*
G01*
X90780000Y-59195000D01*
G75*
G02*
X91030000Y-59445000I0J-250000D01*
G01*
X91030000Y-60395000D01*
G75*
G02*
X90780000Y-60645000I-250000J0D01*
G01*
X90280000Y-60645000D01*
G75*
G02*
X90030000Y-60395000I0J250000D01*
G01*
G37*
%TD.AperFunction*%
%TO.P,C23,1*%
%TO.N,Net-(C21-Pad1)*%
%TA.AperFunction,SMDPad,CuDef*%
G36*
G01*
X88130000Y-60395000D02*
X88130000Y-59445000D01*
G75*
G02*
X88380000Y-59195000I250000J0D01*
G01*
X88880000Y-59195000D01*
G75*
G02*
X89130000Y-59445000I0J-250000D01*
G01*
X89130000Y-60395000D01*
G75*
G02*
X88880000Y-60645000I-250000J0D01*
G01*
X88380000Y-60645000D01*
G75*
G02*
X88130000Y-60395000I0J250000D01*
G01*
G37*
%TD.AperFunction*%
%TD*%
%TO.P,C22,2*%
%TO.N,GNDREF*%
%TA.AperFunction,SMDPad,CuDef*%
G36*
G01*
X96800000Y-62075000D02*
X96800000Y-61125000D01*
G75*
G02*
X97050000Y-60875000I250000J0D01*
G01*
X97550000Y-60875000D01*
G75*
G02*
X97800000Y-61125000I0J-250000D01*
G01*
X97800000Y-62075000D01*
G75*
G02*
X97550000Y-62325000I-250000J0D01*
G01*
X97050000Y-62325000D01*
G75*
G02*
X96800000Y-62075000I0J250000D01*
G01*
G37*
%TD.AperFunction*%
%TO.P,C22,1*%
%TO.N,+12V*%
%TA.AperFunction,SMDPad,CuDef*%
G36*
G01*
X94900000Y-62075000D02*
X94900000Y-61125000D01*
G75*
G02*
X95150000Y-60875000I250000J0D01*
G01*
X95650000Y-60875000D01*
G75*
G02*
X95900000Y-61125000I0J-250000D01*
G01*
X95900000Y-62075000D01*
G75*
G02*
X95650000Y-62325000I-250000J0D01*
G01*
X95150000Y-62325000D01*
G75*
G02*
X94900000Y-62075000I0J250000D01*
G01*
G37*
%TD.AperFunction*%
%TD*%
%TO.P,C21,2*%
%TO.N,/SW_Node1*%
%TA.AperFunction,SMDPad,CuDef*%
G36*
G01*
X90030000Y-62195000D02*
X90030000Y-61245000D01*
G75*
G02*
X90280000Y-60995000I250000J0D01*
G01*
X90780000Y-60995000D01*
G75*
G02*
X91030000Y-61245000I0J-250000D01*
G01*
X91030000Y-62195000D01*
G75*
G02*
X90780000Y-62445000I-250000J0D01*
G01*
X90280000Y-62445000D01*
G75*
G02*
X90030000Y-62195000I0J250000D01*
G01*
G37*
%TD.AperFunction*%
%TO.P,C21,1*%
%TO.N,Net-(C21-Pad1)*%
%TA.AperFunction,SMDPad,CuDef*%
G36*
G01*
X88130000Y-62195000D02*
X88130000Y-61245000D01*
G75*
G02*
X88380000Y-60995000I250000J0D01*
G01*
X88880000Y-60995000D01*
G75*
G02*
X89130000Y-61245000I0J-250000D01*
G01*
X89130000Y-62195000D01*
G75*
G02*
X88880000Y-62445000I-250000J0D01*
G01*
X88380000Y-62445000D01*
G75*
G02*
X88130000Y-62195000I0J250000D01*
G01*
G37*
%TD.AperFunction*%
%TD*%
%TO.P,C20,2*%
%TO.N,GNDD*%
%TA.AperFunction,SMDPad,CuDef*%
G36*
G01*
X96800000Y-74195000D02*
X96800000Y-73245000D01*
G75*
G02*
X97050000Y-72995000I250000J0D01*
G01*
X97550000Y-72995000D01*
G75*
G02*
X97800000Y-73245000I0J-250000D01*
G01*
X97800000Y-74195000D01*
G75*
G02*
X97550000Y-74445000I-250000J0D01*
G01*
X97050000Y-74445000D01*
G75*
G02*
X96800000Y-74195000I0J250000D01*
G01*
G37*
%TD.AperFunction*%
%TO.P,C20,1*%
%TO.N,Net-(C20-Pad1)*%
%TA.AperFunction,SMDPad,CuDef*%
G36*
G01*
X94900000Y-74195000D02*
X94900000Y-73245000D01*
G75*
G02*
X95150000Y-72995000I250000J0D01*
G01*
X95650000Y-72995000D01*
G75*
G02*
X95900000Y-73245000I0J-250000D01*
G01*
X95900000Y-74195000D01*
G75*
G02*
X95650000Y-74445000I-250000J0D01*
G01*
X95150000Y-74445000D01*
G75*
G02*
X94900000Y-74195000I0J250000D01*
G01*
G37*
%TD.AperFunction*%
%TD*%
%TO.P,C18,2*%
%TO.N,GNDD*%
%TA.AperFunction,SMDPad,CuDef*%
G36*
G01*
X91425000Y-75390000D02*
X92375000Y-75390000D01*
G75*
G02*
X92625000Y-75640000I0J-250000D01*
G01*
X92625000Y-76140000D01*
G75*
G02*
X92375000Y-76390000I-250000J0D01*
G01*
X91425000Y-76390000D01*
G75*
G02*
X91175000Y-76140000I0J250000D01*
G01*
X91175000Y-75640000D01*
G75*
G02*
X91425000Y-75390000I250000J0D01*
G01*
G37*
%TD.AperFunction*%
%TO.P,C18,1*%
%TO.N,Net-(C18-Pad1)*%
%TA.AperFunction,SMDPad,CuDef*%
G36*
G01*
X91425000Y-73490000D02*
X92375000Y-73490000D01*
G75*
G02*
X92625000Y-73740000I0J-250000D01*
G01*
X92625000Y-74240000D01*
G75*
G02*
X92375000Y-74490000I-250000J0D01*
G01*
X91425000Y-74490000D01*
G75*
G02*
X91175000Y-74240000I0J250000D01*
G01*
X91175000Y-73740000D01*
G75*
G02*
X91425000Y-73490000I250000J0D01*
G01*
G37*
%TD.AperFunction*%
%TD*%
%TO.P,C17,2*%
%TO.N,Net-(C17-Pad2)*%
%TA.AperFunction,SMDPad,CuDef*%
G36*
G01*
X86275000Y-74490000D02*
X85325000Y-74490000D01*
G75*
G02*
X85075000Y-74240000I0J250000D01*
G01*
X85075000Y-73740000D01*
G75*
G02*
X85325000Y-73490000I250000J0D01*
G01*
X86275000Y-73490000D01*
G75*
G02*
X86525000Y-73740000I0J-250000D01*
G01*
X86525000Y-74240000D01*
G75*
G02*
X86275000Y-74490000I-250000J0D01*
G01*
G37*
%TD.AperFunction*%
%TO.P,C17,1*%
%TO.N,GNDD*%
%TA.AperFunction,SMDPad,CuDef*%
G36*
G01*
X86275000Y-76390000D02*
X85325000Y-76390000D01*
G75*
G02*
X85075000Y-76140000I0J250000D01*
G01*
X85075000Y-75640000D01*
G75*
G02*
X85325000Y-75390000I250000J0D01*
G01*
X86275000Y-75390000D01*
G75*
G02*
X86525000Y-75640000I0J-250000D01*
G01*
X86525000Y-76140000D01*
G75*
G02*
X86275000Y-76390000I-250000J0D01*
G01*
G37*
%TD.AperFunction*%
%TD*%
%TO.P,C13,2*%
%TO.N,GNDD*%
%TA.AperFunction,SMDPad,CuDef*%
G36*
G01*
X98825000Y-71000000D02*
X99775000Y-71000000D01*
G75*
G02*
X100025000Y-71250000I0J-250000D01*
G01*
X100025000Y-71750000D01*
G75*
G02*
X99775000Y-72000000I-250000J0D01*
G01*
X98825000Y-72000000D01*
G75*
G02*
X98575000Y-71750000I0J250000D01*
G01*
X98575000Y-71250000D01*
G75*
G02*
X98825000Y-71000000I250000J0D01*
G01*
G37*
%TD.AperFunction*%
%TO.P,C13,1*%
%TO.N,+5VD*%
%TA.AperFunction,SMDPad,CuDef*%
G36*
G01*
X98825000Y-69100000D02*
X99775000Y-69100000D01*
G75*
G02*
X100025000Y-69350000I0J-250000D01*
G01*
X100025000Y-69850000D01*
G75*
G02*
X99775000Y-70100000I-250000J0D01*
G01*
X98825000Y-70100000D01*
G75*
G02*
X98575000Y-69850000I0J250000D01*
G01*
X98575000Y-69350000D01*
G75*
G02*
X98825000Y-69100000I250000J0D01*
G01*
G37*
%TD.AperFunction*%
%TD*%
%TO.P,C11,2*%
%TO.N,GNDD*%
%TA.AperFunction,SMDPad,CuDef*%
G36*
G01*
X92900000Y-72275000D02*
X92900000Y-71325000D01*
G75*
G02*
X93150000Y-71075000I250000J0D01*
G01*
X93650000Y-71075000D01*
G75*
G02*
X93900000Y-71325000I0J-250000D01*
G01*
X93900000Y-72275000D01*
G75*
G02*
X93650000Y-72525000I-250000J0D01*
G01*
X93150000Y-72525000D01*
G75*
G02*
X92900000Y-72275000I0J250000D01*
G01*
G37*
%TD.AperFunction*%
%TO.P,C11,1*%
%TO.N,+5VD*%
%TA.AperFunction,SMDPad,CuDef*%
G36*
G01*
X91000000Y-72275000D02*
X91000000Y-71325000D01*
G75*
G02*
X91250000Y-71075000I250000J0D01*
G01*
X91750000Y-71075000D01*
G75*
G02*
X92000000Y-71325000I0J-250000D01*
G01*
X92000000Y-72275000D01*
G75*
G02*
X91750000Y-72525000I-250000J0D01*
G01*
X91250000Y-72525000D01*
G75*
G02*
X91000000Y-72275000I0J250000D01*
G01*
G37*
%TD.AperFunction*%
%TD*%
%TO.P,R8,2*%
%TO.N,/Temp*%
%TA.AperFunction,SMDPad,CuDef*%
G36*
G01*
X103949999Y-115200000D02*
X104850001Y-115200000D01*
G75*
G02*
X105100000Y-115449999I0J-249999D01*
G01*
X105100000Y-115975001D01*
G75*
G02*
X104850001Y-116225000I-249999J0D01*
G01*
X103949999Y-116225000D01*
G75*
G02*
X103700000Y-115975001I0J249999D01*
G01*
X103700000Y-115449999D01*
G75*
G02*
X103949999Y-115200000I249999J0D01*
G01*
G37*
%TD.AperFunction*%
%TO.P,R8,1*%
%TO.N,/Temp_mcu*%
%TA.AperFunction,SMDPad,CuDef*%
G36*
G01*
X103949999Y-113375000D02*
X104850001Y-113375000D01*
G75*
G02*
X105100000Y-113624999I0J-249999D01*
G01*
X105100000Y-114150001D01*
G75*
G02*
X104850001Y-114400000I-249999J0D01*
G01*
X103949999Y-114400000D01*
G75*
G02*
X103700000Y-114150001I0J249999D01*
G01*
X103700000Y-113624999D01*
G75*
G02*
X103949999Y-113375000I249999J0D01*
G01*
G37*
%TD.AperFunction*%
%TD*%
%TO.P,R6,2*%
%TO.N,/I_high_op*%
%TA.AperFunction,SMDPad,CuDef*%
G36*
G01*
X85119999Y-104700000D02*
X86020001Y-104700000D01*
G75*
G02*
X86270000Y-104949999I0J-249999D01*
G01*
X86270000Y-105475001D01*
G75*
G02*
X86020001Y-105725000I-249999J0D01*
G01*
X85119999Y-105725000D01*
G75*
G02*
X84870000Y-105475001I0J249999D01*
G01*
X84870000Y-104949999D01*
G75*
G02*
X85119999Y-104700000I249999J0D01*
G01*
G37*
%TD.AperFunction*%
%TO.P,R6,1*%
%TO.N,/I_high_mcu*%
%TA.AperFunction,SMDPad,CuDef*%
G36*
G01*
X85119999Y-102875000D02*
X86020001Y-102875000D01*
G75*
G02*
X86270000Y-103124999I0J-249999D01*
G01*
X86270000Y-103650001D01*
G75*
G02*
X86020001Y-103900000I-249999J0D01*
G01*
X85119999Y-103900000D01*
G75*
G02*
X84870000Y-103650001I0J249999D01*
G01*
X84870000Y-103124999D01*
G75*
G02*
X85119999Y-102875000I249999J0D01*
G01*
G37*
%TD.AperFunction*%
%TD*%
%TO.P,R4,2*%
%TO.N,/I2_low_op*%
%TA.AperFunction,SMDPad,CuDef*%
G36*
G01*
X85149999Y-116112500D02*
X86050001Y-116112500D01*
G75*
G02*
X86300000Y-116362499I0J-249999D01*
G01*
X86300000Y-116887501D01*
G75*
G02*
X86050001Y-117137500I-249999J0D01*
G01*
X85149999Y-117137500D01*
G75*
G02*
X84900000Y-116887501I0J249999D01*
G01*
X84900000Y-116362499D01*
G75*
G02*
X85149999Y-116112500I249999J0D01*
G01*
G37*
%TD.AperFunction*%
%TO.P,R4,1*%
%TO.N,/I2_low_mcu*%
%TA.AperFunction,SMDPad,CuDef*%
G36*
G01*
X85149999Y-114287500D02*
X86050001Y-114287500D01*
G75*
G02*
X86300000Y-114537499I0J-249999D01*
G01*
X86300000Y-115062501D01*
G75*
G02*
X86050001Y-115312500I-249999J0D01*
G01*
X85149999Y-115312500D01*
G75*
G02*
X84900000Y-115062501I0J249999D01*
G01*
X84900000Y-114537499D01*
G75*
G02*
X85149999Y-114287500I249999J0D01*
G01*
G37*
%TD.AperFunction*%
%TD*%
%TO.P,R2,2*%
%TO.N,/I1_low_op*%
%TA.AperFunction,SMDPad,CuDef*%
G36*
G01*
X100549999Y-115200000D02*
X101450001Y-115200000D01*
G75*
G02*
X101700000Y-115449999I0J-249999D01*
G01*
X101700000Y-115975001D01*
G75*
G02*
X101450001Y-116225000I-249999J0D01*
G01*
X100549999Y-116225000D01*
G75*
G02*
X100300000Y-115975001I0J249999D01*
G01*
X100300000Y-115449999D01*
G75*
G02*
X100549999Y-115200000I249999J0D01*
G01*
G37*
%TD.AperFunction*%
%TO.P,R2,1*%
%TO.N,/I1_low_mcu*%
%TA.AperFunction,SMDPad,CuDef*%
G36*
G01*
X100549999Y-113375000D02*
X101450001Y-113375000D01*
G75*
G02*
X101700000Y-113624999I0J-249999D01*
G01*
X101700000Y-114150001D01*
G75*
G02*
X101450001Y-114400000I-249999J0D01*
G01*
X100549999Y-114400000D01*
G75*
G02*
X100300000Y-114150001I0J249999D01*
G01*
X100300000Y-113624999D01*
G75*
G02*
X100549999Y-113375000I249999J0D01*
G01*
G37*
%TD.AperFunction*%
%TD*%
%TO.P,FB1,2*%
%TO.N,+3V3*%
%TA.AperFunction,SMDPad,CuDef*%
G36*
G01*
X106801042Y-94835356D02*
X106164644Y-94198958D01*
G75*
G02*
X106164644Y-93845406I176776J176776D01*
G01*
X106535876Y-93474174D01*
G75*
G02*
X106889428Y-93474174I176776J-176776D01*
G01*
X107525826Y-94110572D01*
G75*
G02*
X107525826Y-94464124I-176776J-176776D01*
G01*
X107154594Y-94835356D01*
G75*
G02*
X106801042Y-94835356I-176776J176776D01*
G01*
G37*
%TD.AperFunction*%
%TO.P,FB1,1*%
%TO.N,+3.3VA*%
%TA.AperFunction,SMDPad,CuDef*%
G36*
G01*
X105510572Y-96125826D02*
X104874174Y-95489428D01*
G75*
G02*
X104874174Y-95135876I176776J176776D01*
G01*
X105245406Y-94764644D01*
G75*
G02*
X105598958Y-94764644I176776J-176776D01*
G01*
X106235356Y-95401042D01*
G75*
G02*
X106235356Y-95754594I-176776J-176776D01*
G01*
X105864124Y-96125826D01*
G75*
G02*
X105510572Y-96125826I-176776J176776D01*
G01*
G37*
%TD.AperFunction*%
%TD*%
D35*
%TO.P,D9,2*%
%TO.N,GNDD*%
X106400000Y-116450000D03*
%TO.P,D9,1*%
%TO.N,/Temp_mcu*%
X106400000Y-113150000D03*
%TD*%
%TO.P,D8,2*%
%TO.N,GNDD*%
X87610000Y-110880000D03*
%TO.P,D8,1*%
%TO.N,/V_high_mcu*%
X87610000Y-107580000D03*
%TD*%
%TO.P,D7,2*%
%TO.N,GNDD*%
X106410000Y-111080000D03*
%TO.P,D7,1*%
%TO.N,/V2_low_mcu*%
X106410000Y-107780000D03*
%TD*%
%TO.P,D6,2*%
%TO.N,GNDD*%
X87600000Y-105200000D03*
%TO.P,D6,1*%
%TO.N,/I_high_mcu*%
X87600000Y-101900000D03*
%TD*%
%TO.P,D5,2*%
%TO.N,GNDD*%
X87500000Y-117000000D03*
%TO.P,D5,1*%
%TO.N,/I2_low_mcu*%
X87500000Y-113700000D03*
%TD*%
%TO.P,D4,2*%
%TO.N,GNDD*%
X99000000Y-111080000D03*
%TO.P,D4,1*%
%TO.N,/V1_low_mcu*%
X99000000Y-107780000D03*
%TD*%
%TO.P,D3,2*%
%TO.N,GNDD*%
X99000000Y-116450000D03*
%TO.P,D3,1*%
%TO.N,/I1_low_mcu*%
X99000000Y-113150000D03*
%TD*%
D36*
%TO.P,U4,1*%
%TO.N,GNDD*%
X109850000Y-98700000D03*
%TO.P,U4,3*%
%TO.N,+5VD*%
X109850000Y-103300000D03*
%TO.P,U4,2*%
%TO.N,+3V3*%
X109850000Y-101000000D03*
D37*
X116150000Y-101000000D03*
%TD*%
%TO.P,R7,2*%
%TO.N,/V_high_op*%
%TA.AperFunction,SMDPad,CuDef*%
G36*
G01*
X85119999Y-110012500D02*
X86020001Y-110012500D01*
G75*
G02*
X86270000Y-110262499I0J-249999D01*
G01*
X86270000Y-110787501D01*
G75*
G02*
X86020001Y-111037500I-249999J0D01*
G01*
X85119999Y-111037500D01*
G75*
G02*
X84870000Y-110787501I0J249999D01*
G01*
X84870000Y-110262499D01*
G75*
G02*
X85119999Y-110012500I249999J0D01*
G01*
G37*
%TD.AperFunction*%
%TO.P,R7,1*%
%TO.N,/V_high_mcu*%
%TA.AperFunction,SMDPad,CuDef*%
G36*
G01*
X85119999Y-108187500D02*
X86020001Y-108187500D01*
G75*
G02*
X86270000Y-108437499I0J-249999D01*
G01*
X86270000Y-108962501D01*
G75*
G02*
X86020001Y-109212500I-249999J0D01*
G01*
X85119999Y-109212500D01*
G75*
G02*
X84870000Y-108962501I0J249999D01*
G01*
X84870000Y-108437499D01*
G75*
G02*
X85119999Y-108187500I249999J0D01*
G01*
G37*
%TD.AperFunction*%
%TD*%
%TO.P,R5,2*%
%TO.N,/V2_low_op*%
%TA.AperFunction,SMDPad,CuDef*%
G36*
G01*
X103949999Y-110212500D02*
X104850001Y-110212500D01*
G75*
G02*
X105100000Y-110462499I0J-249999D01*
G01*
X105100000Y-110987501D01*
G75*
G02*
X104850001Y-111237500I-249999J0D01*
G01*
X103949999Y-111237500D01*
G75*
G02*
X103700000Y-110987501I0J249999D01*
G01*
X103700000Y-110462499D01*
G75*
G02*
X103949999Y-110212500I249999J0D01*
G01*
G37*
%TD.AperFunction*%
%TO.P,R5,1*%
%TO.N,/V2_low_mcu*%
%TA.AperFunction,SMDPad,CuDef*%
G36*
G01*
X103949999Y-108387500D02*
X104850001Y-108387500D01*
G75*
G02*
X105100000Y-108637499I0J-249999D01*
G01*
X105100000Y-109162501D01*
G75*
G02*
X104850001Y-109412500I-249999J0D01*
G01*
X103949999Y-109412500D01*
G75*
G02*
X103700000Y-109162501I0J249999D01*
G01*
X103700000Y-108637499D01*
G75*
G02*
X103949999Y-108387500I249999J0D01*
G01*
G37*
%TD.AperFunction*%
%TD*%
%TO.P,R3,2*%
%TO.N,/V1_low_op*%
%TA.AperFunction,SMDPad,CuDef*%
G36*
G01*
X100549999Y-110212500D02*
X101450001Y-110212500D01*
G75*
G02*
X101700000Y-110462499I0J-249999D01*
G01*
X101700000Y-110987501D01*
G75*
G02*
X101450001Y-111237500I-249999J0D01*
G01*
X100549999Y-111237500D01*
G75*
G02*
X100300000Y-110987501I0J249999D01*
G01*
X100300000Y-110462499D01*
G75*
G02*
X100549999Y-110212500I249999J0D01*
G01*
G37*
%TD.AperFunction*%
%TO.P,R3,1*%
%TO.N,/V1_low_mcu*%
%TA.AperFunction,SMDPad,CuDef*%
G36*
G01*
X100549999Y-108387500D02*
X101450001Y-108387500D01*
G75*
G02*
X101700000Y-108637499I0J-249999D01*
G01*
X101700000Y-109162501D01*
G75*
G02*
X101450001Y-109412500I-249999J0D01*
G01*
X100549999Y-109412500D01*
G75*
G02*
X100300000Y-109162501I0J249999D01*
G01*
X100300000Y-108637499D01*
G75*
G02*
X100549999Y-108387500I249999J0D01*
G01*
G37*
%TD.AperFunction*%
%TD*%
%TO.P,C12,2*%
%TO.N,GNDD*%
%TA.AperFunction,SMDPad,CuDef*%
G36*
G01*
X103145927Y-97182322D02*
X103817678Y-97854073D01*
G75*
G02*
X103817678Y-98207627I-176777J-176777D01*
G01*
X103464125Y-98561180D01*
G75*
G02*
X103110571Y-98561180I-176777J176777D01*
G01*
X102438820Y-97889429D01*
G75*
G02*
X102438820Y-97535875I176777J176777D01*
G01*
X102792373Y-97182322D01*
G75*
G02*
X103145927Y-97182322I176777J-176777D01*
G01*
G37*
%TD.AperFunction*%
%TO.P,C12,1*%
%TO.N,+3.3VA*%
%TA.AperFunction,SMDPad,CuDef*%
G36*
G01*
X104489429Y-95838820D02*
X105161180Y-96510571D01*
G75*
G02*
X105161180Y-96864125I-176777J-176777D01*
G01*
X104807627Y-97217678D01*
G75*
G02*
X104454073Y-97217678I-176777J176777D01*
G01*
X103782322Y-96545927D01*
G75*
G02*
X103782322Y-96192373I176777J176777D01*
G01*
X104135875Y-95838820D01*
G75*
G02*
X104489429Y-95838820I176777J-176777D01*
G01*
G37*
%TD.AperFunction*%
%TD*%
%TO.P,C10,2*%
%TO.N,GNDD*%
%TA.AperFunction,SMDPad,CuDef*%
G36*
G01*
X89374176Y-99254073D02*
X90045927Y-99925824D01*
G75*
G02*
X90045927Y-100279378I-176777J-176777D01*
G01*
X89692374Y-100632931D01*
G75*
G02*
X89338820Y-100632931I-176777J176777D01*
G01*
X88667069Y-99961180D01*
G75*
G02*
X88667069Y-99607626I176777J176777D01*
G01*
X89020622Y-99254073D01*
G75*
G02*
X89374176Y-99254073I176777J-176777D01*
G01*
G37*
%TD.AperFunction*%
%TO.P,C10,1*%
%TO.N,+3V3*%
%TA.AperFunction,SMDPad,CuDef*%
G36*
G01*
X90717678Y-97910571D02*
X91389429Y-98582322D01*
G75*
G02*
X91389429Y-98935876I-176777J-176777D01*
G01*
X91035876Y-99289429D01*
G75*
G02*
X90682322Y-99289429I-176777J176777D01*
G01*
X90010571Y-98617678D01*
G75*
G02*
X90010571Y-98264124I176777J176777D01*
G01*
X90364124Y-97910571D01*
G75*
G02*
X90717678Y-97910571I176777J-176777D01*
G01*
G37*
%TD.AperFunction*%
%TD*%
%TO.P,C9,2*%
%TO.N,GNDD*%
%TA.AperFunction,SMDPad,CuDef*%
G36*
G01*
X103910571Y-92982322D02*
X104582322Y-92310571D01*
G75*
G02*
X104935876Y-92310571I176777J-176777D01*
G01*
X105289429Y-92664124D01*
G75*
G02*
X105289429Y-93017678I-176777J-176777D01*
G01*
X104617678Y-93689429D01*
G75*
G02*
X104264124Y-93689429I-176777J176777D01*
G01*
X103910571Y-93335876D01*
G75*
G02*
X103910571Y-92982322I176777J176777D01*
G01*
G37*
%TD.AperFunction*%
%TO.P,C9,1*%
%TO.N,+3V3*%
%TA.AperFunction,SMDPad,CuDef*%
G36*
G01*
X102567069Y-91638820D02*
X103238820Y-90967069D01*
G75*
G02*
X103592374Y-90967069I176777J-176777D01*
G01*
X103945927Y-91320622D01*
G75*
G02*
X103945927Y-91674176I-176777J-176777D01*
G01*
X103274176Y-92345927D01*
G75*
G02*
X102920622Y-92345927I-176777J176777D01*
G01*
X102567069Y-91992374D01*
G75*
G02*
X102567069Y-91638820I176777J176777D01*
G01*
G37*
%TD.AperFunction*%
%TD*%
%TO.P,C8,2*%
%TO.N,GNDD*%
%TA.AperFunction,SMDPad,CuDef*%
G36*
G01*
X95082322Y-82454073D02*
X95754073Y-81782322D01*
G75*
G02*
X96107627Y-81782322I176777J-176777D01*
G01*
X96461180Y-82135875D01*
G75*
G02*
X96461180Y-82489429I-176777J-176777D01*
G01*
X95789429Y-83161180D01*
G75*
G02*
X95435875Y-83161180I-176777J176777D01*
G01*
X95082322Y-82807627D01*
G75*
G02*
X95082322Y-82454073I176777J176777D01*
G01*
G37*
%TD.AperFunction*%
%TO.P,C8,1*%
%TO.N,+3V3*%
%TA.AperFunction,SMDPad,CuDef*%
G36*
G01*
X93738820Y-81110571D02*
X94410571Y-80438820D01*
G75*
G02*
X94764125Y-80438820I176777J-176777D01*
G01*
X95117678Y-80792373D01*
G75*
G02*
X95117678Y-81145927I-176777J-176777D01*
G01*
X94445927Y-81817678D01*
G75*
G02*
X94092373Y-81817678I-176777J176777D01*
G01*
X93738820Y-81464125D01*
G75*
G02*
X93738820Y-81110571I176777J176777D01*
G01*
G37*
%TD.AperFunction*%
%TD*%
%TO.P,C7,2*%
%TO.N,GNDD*%
%TA.AperFunction,SMDPad,CuDef*%
G36*
G01*
X84015927Y-85824176D02*
X83344176Y-86495927D01*
G75*
G02*
X82990622Y-86495927I-176777J176777D01*
G01*
X82637069Y-86142374D01*
G75*
G02*
X82637069Y-85788820I176777J176777D01*
G01*
X83308820Y-85117069D01*
G75*
G02*
X83662374Y-85117069I176777J-176777D01*
G01*
X84015927Y-85470622D01*
G75*
G02*
X84015927Y-85824176I-176777J-176777D01*
G01*
G37*
%TD.AperFunction*%
%TO.P,C7,1*%
%TO.N,+3V3*%
%TA.AperFunction,SMDPad,CuDef*%
G36*
G01*
X85359429Y-87167678D02*
X84687678Y-87839429D01*
G75*
G02*
X84334124Y-87839429I-176777J176777D01*
G01*
X83980571Y-87485876D01*
G75*
G02*
X83980571Y-87132322I176777J176777D01*
G01*
X84652322Y-86460571D01*
G75*
G02*
X85005876Y-86460571I176777J-176777D01*
G01*
X85359429Y-86814124D01*
G75*
G02*
X85359429Y-87167678I-176777J-176777D01*
G01*
G37*
%TD.AperFunction*%
%TD*%
%TO.P,C6,2*%
%TO.N,GNDD*%
%TA.AperFunction,SMDPad,CuDef*%
G36*
G01*
X82617678Y-87145927D02*
X81945927Y-87817678D01*
G75*
G02*
X81592373Y-87817678I-176777J176777D01*
G01*
X81238820Y-87464125D01*
G75*
G02*
X81238820Y-87110571I176777J176777D01*
G01*
X81910571Y-86438820D01*
G75*
G02*
X82264125Y-86438820I176777J-176777D01*
G01*
X82617678Y-86792373D01*
G75*
G02*
X82617678Y-87145927I-176777J-176777D01*
G01*
G37*
%TD.AperFunction*%
%TO.P,C6,1*%
%TO.N,+3V3*%
%TA.AperFunction,SMDPad,CuDef*%
G36*
G01*
X83961180Y-88489429D02*
X83289429Y-89161180D01*
G75*
G02*
X82935875Y-89161180I-176777J176777D01*
G01*
X82582322Y-88807627D01*
G75*
G02*
X82582322Y-88454073I176777J176777D01*
G01*
X83254073Y-87782322D01*
G75*
G02*
X83607627Y-87782322I176777J-176777D01*
G01*
X83961180Y-88135875D01*
G75*
G02*
X83961180Y-88489429I-176777J-176777D01*
G01*
G37*
%TD.AperFunction*%
%TD*%
%TO.P,C5,2*%
%TO.N,GNDD*%
%TA.AperFunction,SMDPad,CuDef*%
G36*
G01*
X84245927Y-98182322D02*
X84917678Y-98854073D01*
G75*
G02*
X84917678Y-99207627I-176777J-176777D01*
G01*
X84564125Y-99561180D01*
G75*
G02*
X84210571Y-99561180I-176777J176777D01*
G01*
X83538820Y-98889429D01*
G75*
G02*
X83538820Y-98535875I176777J176777D01*
G01*
X83892373Y-98182322D01*
G75*
G02*
X84245927Y-98182322I176777J-176777D01*
G01*
G37*
%TD.AperFunction*%
%TO.P,C5,1*%
%TO.N,/NRST*%
%TA.AperFunction,SMDPad,CuDef*%
G36*
G01*
X85589429Y-96838820D02*
X86261180Y-97510571D01*
G75*
G02*
X86261180Y-97864125I-176777J-176777D01*
G01*
X85907627Y-98217678D01*
G75*
G02*
X85554073Y-98217678I-176777J176777D01*
G01*
X84882322Y-97545927D01*
G75*
G02*
X84882322Y-97192373I176777J176777D01*
G01*
X85235875Y-96838820D01*
G75*
G02*
X85589429Y-96838820I176777J-176777D01*
G01*
G37*
%TD.AperFunction*%
%TD*%
%TO.P,C4,2*%
%TO.N,GNDD*%
%TA.AperFunction,SMDPad,CuDef*%
G36*
G01*
X77489429Y-97217678D02*
X76817678Y-97889429D01*
G75*
G02*
X76464124Y-97889429I-176777J176777D01*
G01*
X76110571Y-97535876D01*
G75*
G02*
X76110571Y-97182322I176777J176777D01*
G01*
X76782322Y-96510571D01*
G75*
G02*
X77135876Y-96510571I176777J-176777D01*
G01*
X77489429Y-96864124D01*
G75*
G02*
X77489429Y-97217678I-176777J-176777D01*
G01*
G37*
%TD.AperFunction*%
%TO.P,C4,1*%
%TO.N,Net-(C4-Pad1)*%
%TA.AperFunction,SMDPad,CuDef*%
G36*
G01*
X78832931Y-98561180D02*
X78161180Y-99232931D01*
G75*
G02*
X77807626Y-99232931I-176777J176777D01*
G01*
X77454073Y-98879378D01*
G75*
G02*
X77454073Y-98525824I176777J176777D01*
G01*
X78125824Y-97854073D01*
G75*
G02*
X78479378Y-97854073I176777J-176777D01*
G01*
X78832931Y-98207626D01*
G75*
G02*
X78832931Y-98561180I-176777J-176777D01*
G01*
G37*
%TD.AperFunction*%
%TD*%
%TO.P,C3,2*%
%TO.N,GNDD*%
%TA.AperFunction,SMDPad,CuDef*%
G36*
G01*
X81782322Y-94154073D02*
X82454073Y-93482322D01*
G75*
G02*
X82807627Y-93482322I176777J-176777D01*
G01*
X83161180Y-93835875D01*
G75*
G02*
X83161180Y-94189429I-176777J-176777D01*
G01*
X82489429Y-94861180D01*
G75*
G02*
X82135875Y-94861180I-176777J176777D01*
G01*
X81782322Y-94507627D01*
G75*
G02*
X81782322Y-94154073I176777J176777D01*
G01*
G37*
%TD.AperFunction*%
%TO.P,C3,1*%
%TO.N,/HSE_IN*%
%TA.AperFunction,SMDPad,CuDef*%
G36*
G01*
X80438820Y-92810571D02*
X81110571Y-92138820D01*
G75*
G02*
X81464125Y-92138820I176777J-176777D01*
G01*
X81817678Y-92492373D01*
G75*
G02*
X81817678Y-92845927I-176777J-176777D01*
G01*
X81145927Y-93517678D01*
G75*
G02*
X80792373Y-93517678I-176777J176777D01*
G01*
X80438820Y-93164125D01*
G75*
G02*
X80438820Y-92810571I176777J176777D01*
G01*
G37*
%TD.AperFunction*%
%TD*%
%TO.P,F2,2*%
%TO.N,Net-(D1-Pad1)*%
%TA.AperFunction,SMDPad,CuDef*%
G36*
G01*
X69749999Y-62975000D02*
X72650001Y-62975000D01*
G75*
G02*
X72900000Y-63224999I0J-249999D01*
G01*
X72900000Y-63850001D01*
G75*
G02*
X72650001Y-64100000I-249999J0D01*
G01*
X69749999Y-64100000D01*
G75*
G02*
X69500000Y-63850001I0J249999D01*
G01*
X69500000Y-63224999D01*
G75*
G02*
X69749999Y-62975000I249999J0D01*
G01*
G37*
%TD.AperFunction*%
%TO.P,F2,1*%
%TO.N,/PWR_CAN2*%
%TA.AperFunction,SMDPad,CuDef*%
G36*
G01*
X69749999Y-58700000D02*
X72650001Y-58700000D01*
G75*
G02*
X72900000Y-58949999I0J-249999D01*
G01*
X72900000Y-59575001D01*
G75*
G02*
X72650001Y-59825000I-249999J0D01*
G01*
X69749999Y-59825000D01*
G75*
G02*
X69500000Y-59575001I0J249999D01*
G01*
X69500000Y-58949999D01*
G75*
G02*
X69749999Y-58700000I249999J0D01*
G01*
G37*
%TD.AperFunction*%
%TD*%
%TO.P,F1,2*%
%TO.N,/PWR_CAN1*%
%TA.AperFunction,SMDPad,CuDef*%
G36*
G01*
X62450001Y-59825000D02*
X59549999Y-59825000D01*
G75*
G02*
X59300000Y-59575001I0J249999D01*
G01*
X59300000Y-58949999D01*
G75*
G02*
X59549999Y-58700000I249999J0D01*
G01*
X62450001Y-58700000D01*
G75*
G02*
X62700000Y-58949999I0J-249999D01*
G01*
X62700000Y-59575001D01*
G75*
G02*
X62450001Y-59825000I-249999J0D01*
G01*
G37*
%TD.AperFunction*%
%TO.P,F1,1*%
%TO.N,Net-(D1-Pad1)*%
%TA.AperFunction,SMDPad,CuDef*%
G36*
G01*
X62450001Y-64100000D02*
X59549999Y-64100000D01*
G75*
G02*
X59300000Y-63850001I0J249999D01*
G01*
X59300000Y-63224999D01*
G75*
G02*
X59549999Y-62975000I249999J0D01*
G01*
X62450001Y-62975000D01*
G75*
G02*
X62700000Y-63224999I0J-249999D01*
G01*
X62700000Y-63850001D01*
G75*
G02*
X62450001Y-64100000I-249999J0D01*
G01*
G37*
%TD.AperFunction*%
%TD*%
D38*
%TO.P,JP1,1*%
%TO.N,/CAN_H*%
X62070000Y-67660000D03*
%TO.P,JP1,2*%
%TO.N,Net-(JP1-Pad2)*%
X63370000Y-67660000D03*
%TD*%
%TO.P,R12,2*%
%TO.N,Net-(J3-Pad11)*%
%TA.AperFunction,SMDPad,CuDef*%
G36*
G01*
X115149999Y-54200000D02*
X116050001Y-54200000D01*
G75*
G02*
X116300000Y-54449999I0J-249999D01*
G01*
X116300000Y-54975001D01*
G75*
G02*
X116050001Y-55225000I-249999J0D01*
G01*
X115149999Y-55225000D01*
G75*
G02*
X114900000Y-54975001I0J249999D01*
G01*
X114900000Y-54449999D01*
G75*
G02*
X115149999Y-54200000I249999J0D01*
G01*
G37*
%TD.AperFunction*%
%TO.P,R12,1*%
%TO.N,/CAN_L*%
%TA.AperFunction,SMDPad,CuDef*%
G36*
G01*
X115149999Y-52375000D02*
X116050001Y-52375000D01*
G75*
G02*
X116300000Y-52624999I0J-249999D01*
G01*
X116300000Y-53150001D01*
G75*
G02*
X116050001Y-53400000I-249999J0D01*
G01*
X115149999Y-53400000D01*
G75*
G02*
X114900000Y-53150001I0J249999D01*
G01*
X114900000Y-52624999D01*
G75*
G02*
X115149999Y-52375000I249999J0D01*
G01*
G37*
%TD.AperFunction*%
%TD*%
%TO.P,R11,2*%
%TO.N,Net-(J2-Pad9)*%
%TA.AperFunction,SMDPad,CuDef*%
G36*
G01*
X55049999Y-54000000D02*
X55950001Y-54000000D01*
G75*
G02*
X56200000Y-54249999I0J-249999D01*
G01*
X56200000Y-54775001D01*
G75*
G02*
X55950001Y-55025000I-249999J0D01*
G01*
X55049999Y-55025000D01*
G75*
G02*
X54800000Y-54775001I0J249999D01*
G01*
X54800000Y-54249999D01*
G75*
G02*
X55049999Y-54000000I249999J0D01*
G01*
G37*
%TD.AperFunction*%
%TO.P,R11,1*%
%TO.N,/GND_CAN*%
%TA.AperFunction,SMDPad,CuDef*%
G36*
G01*
X55049999Y-52175000D02*
X55950001Y-52175000D01*
G75*
G02*
X56200000Y-52424999I0J-249999D01*
G01*
X56200000Y-52950001D01*
G75*
G02*
X55950001Y-53200000I-249999J0D01*
G01*
X55049999Y-53200000D01*
G75*
G02*
X54800000Y-52950001I0J249999D01*
G01*
X54800000Y-52424999D01*
G75*
G02*
X55049999Y-52175000I249999J0D01*
G01*
G37*
%TD.AperFunction*%
%TD*%
%TO.P,R10,2*%
%TO.N,Net-(J2-Pad11)*%
%TA.AperFunction,SMDPad,CuDef*%
G36*
G01*
X74549999Y-53987500D02*
X75450001Y-53987500D01*
G75*
G02*
X75700000Y-54237499I0J-249999D01*
G01*
X75700000Y-54762501D01*
G75*
G02*
X75450001Y-55012500I-249999J0D01*
G01*
X74549999Y-55012500D01*
G75*
G02*
X74300000Y-54762501I0J249999D01*
G01*
X74300000Y-54237499D01*
G75*
G02*
X74549999Y-53987500I249999J0D01*
G01*
G37*
%TD.AperFunction*%
%TO.P,R10,1*%
%TO.N,/CAN_L*%
%TA.AperFunction,SMDPad,CuDef*%
G36*
G01*
X74549999Y-52162500D02*
X75450001Y-52162500D01*
G75*
G02*
X75700000Y-52412499I0J-249999D01*
G01*
X75700000Y-52937501D01*
G75*
G02*
X75450001Y-53187500I-249999J0D01*
G01*
X74549999Y-53187500D01*
G75*
G02*
X74300000Y-52937501I0J249999D01*
G01*
X74300000Y-52412499D01*
G75*
G02*
X74549999Y-52162500I249999J0D01*
G01*
G37*
%TD.AperFunction*%
%TD*%
D35*
%TO.P,D2,2*%
%TO.N,/GND_CAN*%
X67800000Y-59850000D03*
%TO.P,D2,1*%
%TO.N,GNDD*%
X67800000Y-63150000D03*
%TD*%
%TO.P,D1,2*%
%TO.N,/V_BUS_CAN*%
X57600000Y-59850000D03*
%TO.P,D1,1*%
%TO.N,Net-(D1-Pad1)*%
X57600000Y-63150000D03*
%TD*%
D10*
%TO.P,JP2,2*%
%TO.N,+BATT*%
X120865000Y-87649000D03*
D11*
%TO.P,JP2,1*%
%TO.N,Net-(BT1-Pad1)*%
X123405000Y-87649000D03*
%TD*%
%TO.P,R1,2*%
%TO.N,/CAN_L*%
%TA.AperFunction,SMDPad,CuDef*%
G36*
G01*
X65770000Y-68110001D02*
X65770000Y-67209999D01*
G75*
G02*
X66019999Y-66960000I249999J0D01*
G01*
X66545001Y-66960000D01*
G75*
G02*
X66795000Y-67209999I0J-249999D01*
G01*
X66795000Y-68110001D01*
G75*
G02*
X66545001Y-68360000I-249999J0D01*
G01*
X66019999Y-68360000D01*
G75*
G02*
X65770000Y-68110001I0J249999D01*
G01*
G37*
%TD.AperFunction*%
%TO.P,R1,1*%
%TO.N,Net-(JP1-Pad2)*%
%TA.AperFunction,SMDPad,CuDef*%
G36*
G01*
X63945000Y-68110001D02*
X63945000Y-67209999D01*
G75*
G02*
X64194999Y-66960000I249999J0D01*
G01*
X64720001Y-66960000D01*
G75*
G02*
X64970000Y-67209999I0J-249999D01*
G01*
X64970000Y-68110001D01*
G75*
G02*
X64720001Y-68360000I-249999J0D01*
G01*
X64194999Y-68360000D01*
G75*
G02*
X63945000Y-68110001I0J249999D01*
G01*
G37*
%TD.AperFunction*%
%TD*%
%TO.P,C2,2*%
%TO.N,GNDD*%
%TA.AperFunction,SMDPad,CuDef*%
G36*
G01*
X63850000Y-77325000D02*
X63850000Y-78275000D01*
G75*
G02*
X63600000Y-78525000I-250000J0D01*
G01*
X63100000Y-78525000D01*
G75*
G02*
X62850000Y-78275000I0J250000D01*
G01*
X62850000Y-77325000D01*
G75*
G02*
X63100000Y-77075000I250000J0D01*
G01*
X63600000Y-77075000D01*
G75*
G02*
X63850000Y-77325000I0J-250000D01*
G01*
G37*
%TD.AperFunction*%
%TO.P,C2,1*%
%TO.N,+3V3*%
%TA.AperFunction,SMDPad,CuDef*%
G36*
G01*
X65750000Y-77325000D02*
X65750000Y-78275000D01*
G75*
G02*
X65500000Y-78525000I-250000J0D01*
G01*
X65000000Y-78525000D01*
G75*
G02*
X64750000Y-78275000I0J250000D01*
G01*
X64750000Y-77325000D01*
G75*
G02*
X65000000Y-77075000I250000J0D01*
G01*
X65500000Y-77075000D01*
G75*
G02*
X65750000Y-77325000I0J-250000D01*
G01*
G37*
%TD.AperFunction*%
%TD*%
%TO.P,C1,2*%
%TO.N,GNDD*%
%TA.AperFunction,SMDPad,CuDef*%
G36*
G01*
X106225000Y-87800000D02*
X107175000Y-87800000D01*
G75*
G02*
X107425000Y-88050000I0J-250000D01*
G01*
X107425000Y-88550000D01*
G75*
G02*
X107175000Y-88800000I-250000J0D01*
G01*
X106225000Y-88800000D01*
G75*
G02*
X105975000Y-88550000I0J250000D01*
G01*
X105975000Y-88050000D01*
G75*
G02*
X106225000Y-87800000I250000J0D01*
G01*
G37*
%TD.AperFunction*%
%TO.P,C1,1*%
%TO.N,+3V3*%
%TA.AperFunction,SMDPad,CuDef*%
G36*
G01*
X106225000Y-85900000D02*
X107175000Y-85900000D01*
G75*
G02*
X107425000Y-86150000I0J-250000D01*
G01*
X107425000Y-86650000D01*
G75*
G02*
X107175000Y-86900000I-250000J0D01*
G01*
X106225000Y-86900000D01*
G75*
G02*
X105975000Y-86650000I0J250000D01*
G01*
X105975000Y-86150000D01*
G75*
G02*
X106225000Y-85900000I250000J0D01*
G01*
G37*
%TD.AperFunction*%
%TD*%
D39*
%TO.N,+BATT*%
X90669875Y-93274990D03*
%TO.N,GNDD*%
X131500000Y-73400000D03*
X96700000Y-81600000D03*
X63700000Y-79200006D03*
X55100000Y-97400000D03*
X69900000Y-103800000D03*
X76100000Y-103800000D03*
X98700000Y-73800000D03*
X92700000Y-118400000D03*
X125900000Y-73400000D03*
X82500000Y-84800000D03*
X107500000Y-89100000D03*
X88500000Y-90003814D03*
X71700000Y-107200000D03*
X71700000Y-109200000D03*
X71700000Y-108200000D03*
X58900000Y-93600000D03*
X58900000Y-94800000D03*
X94100000Y-73400000D03*
X123100000Y-76400000D03*
X116900000Y-76400000D03*
X116300000Y-90000000D03*
X109700000Y-97000000D03*
X107700000Y-98800000D03*
X106500000Y-98800000D03*
X109700000Y-95400000D03*
X123300000Y-125200000D03*
X126100000Y-125200000D03*
X130500000Y-73400000D03*
X130500000Y-72400000D03*
X98700000Y-72400000D03*
X134900000Y-126000000D03*
X135900000Y-126000000D03*
X83300000Y-94800000D03*
X76100000Y-96500000D03*
X81900000Y-85424891D03*
X83100002Y-99800000D03*
X66449998Y-63250000D03*
X85700000Y-76900000D03*
X93300000Y-75900000D03*
X103600000Y-98400000D03*
X116100000Y-122600000D03*
X99000000Y-102600000D03*
X105800000Y-92400000D03*
X119800000Y-109000000D03*
X90111998Y-100800254D03*
X103200000Y-101200000D03*
X97437342Y-104662662D03*
X100200000Y-103600004D03*
X89600000Y-103800000D03*
X106400000Y-117400000D03*
X85950000Y-111950000D03*
X89000000Y-102800000D03*
X88000000Y-103800000D03*
X106400000Y-109800006D03*
X96999996Y-111000000D03*
X99000000Y-115400000D03*
X87400000Y-118099990D03*
%TO.N,/HRTIM1_CHB2*%
X121300000Y-76399994D03*
X96600000Y-83600000D03*
%TO.N,/HRTIM1_CHB1*%
X118300000Y-76400000D03*
X98112656Y-83487335D03*
%TO.N,/N_GND*%
X100224990Y-87800000D03*
X107799998Y-117400000D03*
%TO.N,/SPI3_MOSI*%
X112700000Y-86800000D03*
X93975043Y-89000000D03*
X90900000Y-88800000D03*
%TO.N,/CAN1_STB*%
X96900000Y-79200000D03*
X61500000Y-69200000D03*
X97400000Y-91200000D03*
X103400273Y-88400269D03*
%TO.N,/FDCAN1_RX*%
X88554689Y-88429370D03*
X63300000Y-82600000D03*
%TO.N,/USART1_TX*%
X64500000Y-83600000D03*
X86876906Y-85613724D03*
%TO.N,/SPI3_MISO*%
X87700000Y-85000000D03*
X112300000Y-89600000D03*
X95300000Y-88600000D03*
%TO.N,/FDCAN1_TX*%
X89492824Y-89278804D03*
X62312660Y-81787340D03*
%TO.N,/SPI3_SCK*%
X109500000Y-85400000D03*
X91652781Y-86894438D03*
%TO.N,+3V3*%
X64885905Y-79167382D03*
X95228249Y-80328249D03*
X105500000Y-86400000D03*
X58900000Y-91200000D03*
X116100000Y-98400000D03*
X115100000Y-97000000D03*
X111900000Y-101200000D03*
X84586897Y-88625167D03*
X107600000Y-93400000D03*
X102800000Y-90800000D03*
X91500131Y-99599937D03*
%TO.N,Net-(D1-Pad1)*%
X71200006Y-64500008D03*
X60950000Y-64250000D03*
%TO.N,/GND_CAN*%
X94900000Y-52499990D03*
X55950000Y-51750000D03*
X67700000Y-58200000D03*
%TO.N,/PWR_CAN1*%
X61001500Y-58298500D03*
%TO.N,/PWR_CAN2*%
X71300000Y-58200000D03*
%TO.N,/SPI3_CS*%
X111500000Y-92200000D03*
X93463696Y-95068425D03*
%TO.N,/USART1_RX*%
X65500000Y-84400000D03*
X85567136Y-85175021D03*
%TO.N,/N*%
X121300000Y-114000000D03*
%TO.N,+5VD*%
X106900000Y-104600000D03*
X108100000Y-104600000D03*
X109300000Y-104600000D03*
X100500000Y-69600000D03*
X124700000Y-73400000D03*
X131700000Y-68800000D03*
X90700000Y-72800000D03*
%TO.N,+12V*%
X112300000Y-128000000D03*
X112300000Y-127000000D03*
X112300000Y-129000000D03*
X94500000Y-57200000D03*
X95300000Y-57200000D03*
X93950000Y-58950000D03*
X126200000Y-59100000D03*
X125899996Y-59999993D03*
X103500000Y-131799982D03*
X106500000Y-132000006D03*
X96000000Y-125725000D03*
X100000000Y-128200000D03*
%TO.N,GNDREF*%
X98900000Y-58800000D03*
X98900000Y-60400000D03*
X98900000Y-59600000D03*
X131500000Y-59400000D03*
X131500000Y-60200000D03*
X97300000Y-131400000D03*
X91300000Y-131200000D03*
X91300000Y-130000000D03*
X91300000Y-132400000D03*
X106500000Y-126200000D03*
X103700000Y-126200000D03*
X97930000Y-63000000D03*
X131500000Y-58600000D03*
X130360000Y-63000000D03*
X116899990Y-130399918D03*
X115500030Y-130599970D03*
X112799989Y-65000008D03*
X112699996Y-66200000D03*
X55500000Y-116500000D03*
X55500000Y-117500000D03*
X96400000Y-131800000D03*
X92000000Y-125200000D03*
X90400000Y-127000004D03*
%TO.N,/SW_Node1*%
X91300000Y-63000000D03*
%TO.N,/SW_Node2*%
X123605000Y-63000000D03*
%TO.N,/Neutral_GND_cmd*%
X93799996Y-125000000D03*
%TO.N,/PWM_H1*%
X89900000Y-63000000D03*
%TO.N,/PWM_L1*%
X96255000Y-63000000D03*
%TO.N,/PWM_H2*%
X122335000Y-63035000D03*
%TO.N,/PWM_L2*%
X128729506Y-63033300D03*
%TO.N,/I1_low_op*%
X102387502Y-115812502D03*
%TO.N,/V1_low_op*%
X97000000Y-109400000D03*
%TO.N,/I2_low_op*%
X92800000Y-104800000D03*
%TO.N,/V2_low_op*%
X103200000Y-110999996D03*
%TO.N,/I_high_op*%
X84200000Y-105200000D03*
%TO.N,/V_high_op*%
X84400000Y-110600000D03*
%TO.N,/STLINK_TX*%
X65100000Y-100525010D03*
X94800004Y-98400000D03*
%TO.N,/STLINK_RX*%
X59100000Y-98600000D03*
X91474990Y-95325010D03*
%TO.N,/SWO*%
X67336015Y-90325010D03*
X90300000Y-87000000D03*
%TO.N,/SWCLK*%
X66900000Y-93400000D03*
X92300000Y-86000000D03*
%TO.N,/SWDIO*%
X56500000Y-92200000D03*
X90232515Y-82629215D03*
%TO.N,+5V*%
X126700000Y-113800000D03*
%TO.N,/Temp_mcu*%
X95800000Y-92662230D03*
X103200000Y-112800000D03*
%TO.N,/VREF1024*%
X95200000Y-107600004D03*
%TO.N,/DAC2*%
X93623520Y-94081267D03*
X94800000Y-101800000D03*
%TO.N,/VREF2048*%
X101050005Y-82750006D03*
X101200000Y-88600000D03*
X101800000Y-97256498D03*
%TO.N,/+12VD*%
X66500000Y-127800000D03*
X64300000Y-125800000D03*
X62300000Y-127800000D03*
X123700000Y-134400000D03*
X123700000Y-133600000D03*
%TO.N,+5P*%
X91400000Y-128800000D03*
%TD*%
D40*
%TO.N,+BATT*%
X118151000Y-87649000D02*
X118100000Y-87700000D01*
X120865000Y-87649000D02*
X118151000Y-87649000D01*
X90669875Y-93269875D02*
X90669875Y-93274990D01*
X89800000Y-92400000D02*
X90669875Y-93269875D01*
X88717764Y-92400000D02*
X89800000Y-92400000D01*
X87317765Y-91000001D02*
X88717764Y-92400000D01*
X86516699Y-91000001D02*
X87317765Y-91000001D01*
X85895519Y-91621181D02*
X86516699Y-91000001D01*
%TO.N,GNDD*%
X95943502Y-82356498D02*
X96700000Y-81600000D01*
X56100000Y-97400000D02*
X55100000Y-97400000D01*
X71050000Y-103800000D02*
X69900000Y-103800000D01*
X75150000Y-103800000D02*
X76100000Y-103800000D01*
D41*
X93715000Y-69595000D02*
X92905000Y-69595000D01*
X93400000Y-71800000D02*
X93400000Y-70100000D01*
X92905000Y-69595000D02*
X92900000Y-69600000D01*
X93400000Y-70100000D02*
X92900000Y-69600000D01*
X125515000Y-71715000D02*
X125600000Y-71800000D01*
X125515000Y-69585000D02*
X125515000Y-71715000D01*
X124875000Y-69585000D02*
X125515000Y-69585000D01*
X125515000Y-69585000D02*
X126145000Y-69585000D01*
D40*
X95752055Y-82471751D02*
X94274734Y-83949072D01*
X95771751Y-82471751D02*
X95752055Y-82471751D01*
X93587500Y-119200000D02*
X93500000Y-119200000D01*
X93500000Y-119200000D02*
X92700000Y-118400000D01*
X125600000Y-71800000D02*
X125600000Y-73100000D01*
X125600000Y-73100000D02*
X125900000Y-73400000D01*
X82545032Y-85025032D02*
X82520000Y-85025032D01*
X83326498Y-85806498D02*
X82545032Y-85025032D01*
X106700000Y-88300000D02*
X107500000Y-89100000D01*
X87707620Y-90003814D02*
X88500000Y-90003814D01*
X86249072Y-88545266D02*
X87707620Y-90003814D01*
D41*
X72750000Y-108250000D02*
X71700000Y-107200000D01*
X72750000Y-108400000D02*
X72750000Y-108250000D01*
X72500000Y-108400000D02*
X71700000Y-109200000D01*
X72750000Y-108400000D02*
X72500000Y-108400000D01*
X71900000Y-108400000D02*
X71700000Y-108200000D01*
X72750000Y-108400000D02*
X71900000Y-108400000D01*
D40*
X63300000Y-78800006D02*
X63700000Y-79200006D01*
X63300000Y-75620000D02*
X63300000Y-78800006D01*
X63685000Y-75235000D02*
X63300000Y-75620000D01*
X61100000Y-93600000D02*
X58900000Y-93600000D01*
X58970000Y-94870000D02*
X58900000Y-94800000D01*
X61100000Y-94870000D02*
X58970000Y-94870000D01*
X93400000Y-71800000D02*
X94100004Y-72500004D01*
X94100004Y-72500004D02*
X94100004Y-73400000D01*
X123210000Y-76290000D02*
X123100000Y-76400000D01*
X123210000Y-75300000D02*
X123210000Y-76290000D01*
X117800000Y-75300000D02*
X116900000Y-76200000D01*
X116900000Y-76200000D02*
X116900000Y-76400000D01*
X115197128Y-89003051D02*
X115303051Y-89003051D01*
X115303051Y-89003051D02*
X116300000Y-90000000D01*
D41*
X60400000Y-112900000D02*
X55340000Y-112900000D01*
X64300000Y-116800000D02*
X60400000Y-112900000D01*
X124600000Y-126500000D02*
X123300000Y-125200000D01*
X124700000Y-126500000D02*
X124600000Y-126500000D01*
X124800000Y-126500000D02*
X126100000Y-125200000D01*
X124700000Y-126500000D02*
X124800000Y-126500000D01*
X130090000Y-73810000D02*
X130500000Y-73400000D01*
X129367500Y-73810000D02*
X130090000Y-73810000D01*
X131150000Y-71750000D02*
X130500000Y-72400000D01*
X131700000Y-71750000D02*
X131150000Y-71750000D01*
X99300000Y-71800000D02*
X98700000Y-72400000D01*
X99300000Y-71500000D02*
X99300000Y-71800000D01*
X135650000Y-126750000D02*
X134900000Y-126000000D01*
X135650000Y-128150000D02*
X135650000Y-126750000D01*
X135650000Y-126250000D02*
X135900000Y-126000000D01*
X135650000Y-128150000D02*
X135650000Y-126250000D01*
X81120279Y-95523223D02*
X82471751Y-94171751D01*
X80978858Y-95523223D02*
X81120279Y-95523223D01*
X78123223Y-95876777D02*
X76800000Y-97200000D01*
X78221142Y-95876777D02*
X78123223Y-95876777D01*
D40*
X76800000Y-97200000D02*
X76100000Y-96500000D01*
X76100000Y-96500000D02*
X76100000Y-96500000D01*
X83100000Y-94800000D02*
X83300000Y-94800000D01*
X82471751Y-94171751D02*
X83100000Y-94800000D01*
X81928249Y-87128249D02*
X81928249Y-85453140D01*
X81928249Y-85453140D02*
X81900000Y-85424891D01*
X83300000Y-99800000D02*
X83100002Y-99800000D01*
X84228249Y-98871751D02*
X83300000Y-99800000D01*
X67800000Y-63150000D02*
X66549998Y-63150000D01*
X66549998Y-63150000D02*
X66449998Y-63250000D01*
X85800000Y-75890000D02*
X85800000Y-76800000D01*
X85800000Y-76800000D02*
X85700000Y-76900000D01*
X93290000Y-75890000D02*
X93300000Y-75900000D01*
X91900000Y-75890000D02*
X93290000Y-75890000D01*
D41*
X117425000Y-121446000D02*
X117425000Y-123671000D01*
X117877000Y-120994000D02*
X117425000Y-121446000D01*
X117300000Y-123800000D02*
X116100000Y-122600000D01*
X117425000Y-123800000D02*
X117300000Y-123800000D01*
X109500000Y-71400000D02*
X107900000Y-71400000D01*
X110750000Y-71400000D02*
X109500000Y-71400000D01*
X111300000Y-71950000D02*
X110750000Y-71400000D01*
D40*
X103187340Y-97987340D02*
X103600000Y-98400000D01*
X103100336Y-97987340D02*
X103187340Y-97987340D01*
X104000000Y-93200000D02*
X104200000Y-93400000D01*
X102000000Y-93200000D02*
X104000000Y-93200000D01*
X101400000Y-92600000D02*
X102000000Y-93200000D01*
X99496194Y-92600000D02*
X101400000Y-92600000D01*
X98870928Y-91974734D02*
X99496194Y-92600000D01*
X100290470Y-101890470D02*
X99709530Y-101890470D01*
X98456498Y-94856498D02*
X98456498Y-96543502D01*
X98456498Y-94388732D02*
X98456498Y-94856498D01*
X97456714Y-93388948D02*
X98456498Y-94388732D01*
D41*
X98456498Y-96600000D02*
X99728249Y-97871751D01*
X98456498Y-96543502D02*
X98456498Y-96600000D01*
X101928249Y-99000000D02*
X102728249Y-98200000D01*
X100856498Y-99000000D02*
X101928249Y-99000000D01*
X99728249Y-97871751D02*
X100856498Y-99000000D01*
D42*
X102728249Y-97528249D02*
X103600000Y-98400000D01*
X102728249Y-97471751D02*
X102728249Y-97528249D01*
X103000000Y-97200000D02*
X102728249Y-97471751D01*
X103000000Y-96000000D02*
X103000000Y-97200000D01*
X102271751Y-95271751D02*
X103000000Y-96000000D01*
D40*
X105200000Y-92400000D02*
X105800000Y-92400000D01*
X104600000Y-93000000D02*
X105200000Y-92400000D01*
X109600000Y-110070000D02*
X109530000Y-110000000D01*
X118442500Y-109000000D02*
X119800000Y-109000000D01*
X87600000Y-105200000D02*
X87450000Y-105200000D01*
X89612338Y-100300594D02*
X90111998Y-100800254D01*
X90845266Y-96570928D02*
X89612338Y-97803856D01*
X89612338Y-97803856D02*
X89612338Y-100300594D01*
X102509530Y-101890470D02*
X103200000Y-101200000D01*
X100290470Y-101890470D02*
X102509530Y-101890470D01*
X106400000Y-116300000D02*
X106400000Y-117400000D01*
X87020000Y-110880000D02*
X85950000Y-111950000D01*
X87610000Y-110880000D02*
X87020000Y-110880000D01*
D42*
X87600000Y-105200000D02*
X87600001Y-104199999D01*
X87600001Y-104199999D02*
X88000000Y-103800000D01*
D40*
X106410000Y-111080000D02*
X106410000Y-109810006D01*
X106410000Y-109810006D02*
X106400000Y-109800006D01*
X97399996Y-111400000D02*
X96999996Y-111000000D01*
X98680000Y-111400000D02*
X97399996Y-111400000D01*
X99000000Y-111080000D02*
X98680000Y-111400000D01*
X99000000Y-116450000D02*
X99000000Y-115400000D01*
X87500000Y-117000000D02*
X87500000Y-117999990D01*
X87500000Y-117999990D02*
X87400000Y-118099990D01*
%TO.N,/HRTIM1_CHB2*%
X121410000Y-75242500D02*
X121410000Y-76289994D01*
X121410000Y-76289994D02*
X121300000Y-76399994D01*
X96038020Y-83600000D02*
X96600000Y-83600000D01*
X94981841Y-84656179D02*
X96038020Y-83600000D01*
%TO.N,/HRTIM1_CHA1*%
X85700000Y-79250000D02*
X87880000Y-77070000D01*
X85200000Y-79250000D02*
X85700000Y-79250000D01*
X90163590Y-81000000D02*
X86950000Y-81000000D01*
X92249989Y-83086399D02*
X90163590Y-81000000D01*
X87880000Y-77070000D02*
X87880000Y-75832500D01*
X86950000Y-81000000D02*
X85200000Y-79250000D01*
X92249989Y-84386400D02*
X92249989Y-83086399D01*
X94271350Y-86407761D02*
X92249989Y-84386400D01*
X95351579Y-86407761D02*
X94271350Y-86407761D01*
X96042501Y-85716839D02*
X95351579Y-86407761D01*
%TO.N,/HRTIM1_CHA2*%
X89600000Y-76112500D02*
X89880000Y-75832500D01*
X89600000Y-79800000D02*
X89600000Y-76112500D01*
X92700000Y-82900000D02*
X89600000Y-79800000D01*
X92700000Y-84200000D02*
X92700000Y-82900000D01*
X94457750Y-85957750D02*
X92700000Y-84200000D01*
X95059144Y-85957750D02*
X94457750Y-85957750D01*
X95653608Y-85363286D02*
X95059144Y-85957750D01*
X95688948Y-85363286D02*
X95653608Y-85363286D01*
%TO.N,/HRTIM1_CHB1*%
X118452500Y-76400000D02*
X118300000Y-76400000D01*
X119610000Y-75242500D02*
X118452500Y-76400000D01*
X97184723Y-84415268D02*
X98112656Y-83487335D01*
X95335394Y-85009732D02*
X95929858Y-84415268D01*
X95929858Y-84415268D02*
X97184723Y-84415268D01*
%TO.N,/N_GND*%
X100224990Y-87898310D02*
X100224990Y-87800000D01*
X99224481Y-88898819D02*
X100224990Y-87898310D01*
X106229998Y-118970000D02*
X107799998Y-117400000D01*
X100070000Y-118970000D02*
X106229998Y-118970000D01*
%TO.N,/SPI3_MOSI*%
X111696949Y-85502872D02*
X111696949Y-85796949D01*
X111696949Y-85796949D02*
X112700000Y-86800000D01*
X88016839Y-86777499D02*
X90039340Y-88800000D01*
X90039340Y-88800000D02*
X90900000Y-88800000D01*
X93775043Y-88800000D02*
X90900000Y-88800000D01*
X93975043Y-89000000D02*
X93775043Y-88800000D01*
%TO.N,/CAN1_STB*%
X62185000Y-70285000D02*
X62415000Y-70285000D01*
X61500000Y-69600000D02*
X62185000Y-70285000D01*
X61500000Y-69200000D02*
X61500000Y-69600000D01*
X62415000Y-71260000D02*
X62415000Y-70285000D01*
X63405000Y-72250000D02*
X62415000Y-71260000D01*
X66950000Y-72250000D02*
X63405000Y-72250000D01*
X69200000Y-70000000D02*
X66950000Y-72250000D01*
X70450000Y-67500000D02*
X69200000Y-68750000D01*
X73200000Y-67500000D02*
X70450000Y-67500000D01*
X75200000Y-69500000D02*
X73200000Y-67500000D01*
X69200000Y-68750000D02*
X69200000Y-70000000D01*
X98200000Y-92010912D02*
X98200000Y-91975574D01*
X98517375Y-92328287D02*
X98200000Y-92010912D01*
X98517375Y-92328287D02*
X98517375Y-92317375D01*
X98517375Y-92317375D02*
X97400000Y-91200000D01*
X96900000Y-79200000D02*
X98861509Y-79200000D01*
X98861509Y-79200000D02*
X103400273Y-83738764D01*
X103400273Y-83738764D02*
X103400273Y-88400269D01*
%TO.N,/FDCAN1_RX*%
X86956179Y-87838159D02*
X87550644Y-88432624D01*
X87550644Y-88432624D02*
X88551435Y-88432624D01*
X88551435Y-88432624D02*
X88554689Y-88429370D01*
X66225000Y-79675000D02*
X63300000Y-82600000D01*
X66225000Y-75235000D02*
X66225000Y-79675000D01*
X66225000Y-75235000D02*
X67700000Y-73760000D01*
X70340000Y-73760000D02*
X71100000Y-73000000D01*
X67700000Y-73760000D02*
X70340000Y-73760000D01*
%TO.N,/USART1_TX*%
X86876906Y-86179409D02*
X86876906Y-85613724D01*
X86876906Y-86344672D02*
X86876906Y-86179409D01*
X87663286Y-87131052D02*
X86876906Y-86344672D01*
X50480000Y-68920000D02*
X51500000Y-68920000D01*
X49400000Y-70000000D02*
X50480000Y-68920000D01*
X49400000Y-74400000D02*
X49400000Y-70000000D01*
X50600000Y-75600000D02*
X49400000Y-74400000D01*
X55100000Y-75600000D02*
X50600000Y-75600000D01*
X63100000Y-83600000D02*
X55100000Y-75600000D01*
X64500000Y-83600000D02*
X63100000Y-83600000D01*
%TO.N,/Temp*%
X111600000Y-109200000D02*
X110800000Y-110000000D01*
X111600000Y-108400000D02*
X111600000Y-109200000D01*
X104827499Y-115912500D02*
X104400000Y-115912500D01*
X105539999Y-115200000D02*
X104827499Y-115912500D01*
X107400000Y-115200000D02*
X105539999Y-115200000D01*
X110800000Y-111800000D02*
X107400000Y-115200000D01*
X110800000Y-110000000D02*
X110800000Y-111800000D01*
%TO.N,/SPI3_MISO*%
X88370392Y-86388606D02*
X87700000Y-85718214D01*
X88370392Y-86423946D02*
X88370392Y-86388606D01*
X87700000Y-85718214D02*
X87700000Y-85000000D01*
X113401076Y-90799102D02*
X113401076Y-90701076D01*
X113401076Y-90701076D02*
X112300000Y-89600000D01*
X94700000Y-88000000D02*
X89946446Y-88000000D01*
X89946446Y-88000000D02*
X88370392Y-86423946D01*
X95300000Y-88600000D02*
X94700000Y-88000000D01*
%TO.N,/FDCAN1_TX*%
X86602625Y-88191713D02*
X87689716Y-89278804D01*
X88927139Y-89278804D02*
X89492824Y-89278804D01*
X87689716Y-89278804D02*
X88927139Y-89278804D01*
X62415000Y-75235000D02*
X62415000Y-81685000D01*
X62415000Y-81685000D02*
X62312660Y-81787340D01*
X62415000Y-74260000D02*
X62415000Y-75235000D01*
X71100000Y-69500000D02*
X67899989Y-72700011D01*
X67899989Y-72700011D02*
X63974989Y-72700011D01*
X63974989Y-72700011D02*
X62415000Y-74260000D01*
%TO.N,/SPI3_SCK*%
X110798924Y-86400898D02*
X110500898Y-86400898D01*
X110500898Y-86400898D02*
X109500000Y-85400000D01*
X91252782Y-86494439D02*
X91652781Y-86894438D01*
X91252782Y-85770802D02*
X91252782Y-86494439D01*
X90138159Y-84656179D02*
X91252782Y-85770802D01*
%TO.N,/EEPROM_HOLD*%
X109900898Y-87298924D02*
X110400000Y-87798026D01*
X94418500Y-92472054D02*
X96396054Y-94449608D01*
X94418500Y-91559887D02*
X94418500Y-92472054D01*
X109450010Y-89949990D02*
X96028397Y-89949990D01*
X96028397Y-89949990D02*
X94418500Y-91559887D01*
X110302872Y-89097128D02*
X109450010Y-89949990D01*
X110302872Y-87700898D02*
X110302872Y-89097128D01*
X109900898Y-87298924D02*
X110302872Y-87700898D01*
%TO.N,/EEPROM_WP*%
X96600000Y-96400000D02*
X96225126Y-96400000D01*
X109473002Y-93600000D02*
X103073002Y-100000000D01*
X96225126Y-96400000D02*
X95335394Y-95510268D01*
X115000000Y-91038673D02*
X112438673Y-93600000D01*
X100200000Y-100000000D02*
X96600000Y-96400000D01*
X103073002Y-100000000D02*
X100200000Y-100000000D01*
X112438673Y-93600000D02*
X109473002Y-93600000D01*
X115000000Y-90601974D02*
X115000000Y-91038673D01*
X114299102Y-89901076D02*
X115000000Y-90601974D01*
D41*
%TO.N,+3V3*%
X83148249Y-88671751D02*
X84670000Y-87150000D01*
X83071751Y-88671751D02*
X83148249Y-88671751D01*
D40*
X84670000Y-87150000D02*
X85250000Y-87150000D01*
X85300000Y-88303300D02*
X85895519Y-88898819D01*
X84670000Y-87673300D02*
X84670000Y-87150000D01*
X86395519Y-89398819D02*
X84670000Y-87673300D01*
X94428249Y-83088451D02*
X94428249Y-81128249D01*
X93921181Y-83595519D02*
X94428249Y-83088451D01*
X94428249Y-81128249D02*
X95228249Y-80328249D01*
X83271751Y-88471751D02*
X82803227Y-88471751D01*
X107100000Y-86400000D02*
X106700000Y-86400000D01*
X108896949Y-88196949D02*
X107100000Y-86400000D01*
X109002872Y-88196949D02*
X108896949Y-88196949D01*
X106700000Y-86400000D02*
X105500000Y-86400000D01*
X65300000Y-78753287D02*
X64885905Y-79167382D01*
X65300000Y-75580000D02*
X65300000Y-78753287D01*
X64955000Y-75235000D02*
X65300000Y-75580000D01*
X61100000Y-92330000D02*
X61100000Y-92400000D01*
X60100000Y-92400000D02*
X58900000Y-91200000D01*
X61100000Y-92400000D02*
X60100000Y-92400000D01*
X116150000Y-98450000D02*
X116100000Y-98400000D01*
X116150000Y-101000000D02*
X116150000Y-98450000D01*
X114000000Y-95900000D02*
X115100000Y-97000000D01*
X114000000Y-95600000D02*
X114000000Y-95900000D01*
X111700000Y-101000000D02*
X111900000Y-101200000D01*
X109850000Y-101000000D02*
X111700000Y-101000000D01*
X112500000Y-101800000D02*
X111900000Y-101200000D01*
X112500000Y-105537500D02*
X112500000Y-101800000D01*
X111600000Y-106437500D02*
X112500000Y-105537500D01*
X111600000Y-106575000D02*
X111600000Y-106437500D01*
X83271751Y-88471751D02*
X84433481Y-88471751D01*
X84433481Y-88471751D02*
X84586897Y-88625167D01*
X90700000Y-97800000D02*
X91198819Y-97301181D01*
X91198819Y-97301181D02*
X91198819Y-96924481D01*
X90700000Y-98600000D02*
X90700000Y-97800000D01*
X106400000Y-93800000D02*
X107200001Y-93799999D01*
X107200001Y-93799999D02*
X107600000Y-93400000D01*
X103256498Y-91656498D02*
X102800000Y-91200000D01*
X102800000Y-91200000D02*
X102800000Y-90800000D01*
X102912996Y-92000000D02*
X103256498Y-91656498D01*
X99603300Y-92000000D02*
X102912996Y-92000000D01*
X99224481Y-91621181D02*
X99603300Y-92000000D01*
X118507500Y-106915000D02*
X118507500Y-104507500D01*
X118507500Y-104507500D02*
X117400000Y-103400000D01*
X90700000Y-98600000D02*
X91500131Y-99400131D01*
X91500131Y-99400131D02*
X91500131Y-99599937D01*
D41*
%TO.N,/V_BUS_CAN*%
X57200000Y-58750000D02*
X49290000Y-58750000D01*
X57600000Y-59150000D02*
X57200000Y-58750000D01*
X57600000Y-59850000D02*
X57600000Y-59150000D01*
D40*
%TO.N,Net-(D1-Pad1)*%
X60612500Y-63150000D02*
X61000000Y-63537500D01*
X57600000Y-63150000D02*
X60612500Y-63150000D01*
D41*
X71200000Y-64500002D02*
X71200006Y-64500008D01*
X71200000Y-63537500D02*
X71200000Y-64500002D01*
X61000000Y-63537500D02*
X61000000Y-64200000D01*
X61000000Y-64200000D02*
X60950000Y-64250000D01*
D40*
%TO.N,/GND_CAN*%
X96500000Y-52775000D02*
X95175010Y-52775000D01*
X95175010Y-52775000D02*
X94900000Y-52499990D01*
D42*
X55500000Y-52200000D02*
X55950000Y-51750000D01*
X55500000Y-52687500D02*
X55500000Y-52200000D01*
X67800000Y-59850000D02*
X67800000Y-58300000D01*
X67800000Y-58300000D02*
X67700000Y-58200000D01*
X67700000Y-58200000D02*
X69100000Y-56800000D01*
X69100000Y-56800000D02*
X75300000Y-56800000D01*
X75300000Y-56800000D02*
X77700000Y-54400000D01*
X92999990Y-54400000D02*
X94900000Y-52499990D01*
X77700000Y-54400000D02*
X92999990Y-54400000D01*
D41*
%TO.N,/PWR_CAN1*%
X61000000Y-54565500D02*
X61001500Y-54564000D01*
X61001500Y-59261000D02*
X61000000Y-59262500D01*
X61001500Y-58298500D02*
X61001500Y-59261000D01*
D40*
%TO.N,/CAN_L*%
X64955000Y-68987500D02*
X66282500Y-67660000D01*
X64955000Y-70285000D02*
X64955000Y-68987500D01*
X62716000Y-53516000D02*
X62716000Y-52280000D01*
X64800000Y-55600000D02*
X62716000Y-53516000D01*
X64800000Y-64300000D02*
X64800000Y-55600000D01*
X66282500Y-65782500D02*
X64800000Y-64300000D01*
X66282500Y-67660000D02*
X66282500Y-65782500D01*
X102030000Y-52330000D02*
X103416000Y-52330000D01*
X100900000Y-51200000D02*
X102030000Y-52330000D01*
X92200000Y-51200000D02*
X100900000Y-51200000D01*
X90725000Y-52675000D02*
X92200000Y-51200000D01*
X75000000Y-52675000D02*
X90725000Y-52675000D01*
X73200000Y-52800000D02*
X74875000Y-52800000D01*
X72644999Y-53355001D02*
X73200000Y-52800000D01*
X74875000Y-52800000D02*
X75000000Y-52675000D01*
X68444999Y-53355001D02*
X72644999Y-53355001D01*
X66200000Y-55600000D02*
X68444999Y-53355001D01*
X64800000Y-55600000D02*
X66200000Y-55600000D01*
X104624999Y-53538999D02*
X103416000Y-52330000D01*
X109961001Y-53538999D02*
X104624999Y-53538999D01*
X110612500Y-52887500D02*
X109961001Y-53538999D01*
X115600000Y-52887500D02*
X110612500Y-52887500D01*
%TO.N,/CAN_H*%
X62070000Y-68195002D02*
X62070000Y-67660000D01*
X63685000Y-69810002D02*
X62070000Y-68195002D01*
X63685000Y-70285000D02*
X63685000Y-69810002D01*
X62070000Y-67660000D02*
X62070000Y-66530000D01*
X62070000Y-66530000D02*
X64349990Y-64250010D01*
X64349990Y-55786400D02*
X61463590Y-52900000D01*
X64349990Y-64250010D02*
X64349990Y-55786400D01*
X61463590Y-50736410D02*
X61700000Y-50500000D01*
X61463590Y-52900000D02*
X61463590Y-50736410D01*
D41*
%TO.N,/PWR_CAN2*%
X71300000Y-58200000D02*
X71300000Y-59162500D01*
X71300000Y-59162500D02*
X71200000Y-59262500D01*
D40*
%TO.N,Net-(JP1-Pad2)*%
X63370000Y-67660000D02*
X64457500Y-67660000D01*
%TO.N,/SPI3_CS*%
X112503051Y-91697128D02*
X112002872Y-91697128D01*
X112002872Y-91697128D02*
X111500000Y-92200000D01*
X94274734Y-96570928D02*
X93463696Y-95759890D01*
X93463696Y-95759890D02*
X93463696Y-95068425D01*
D41*
%TO.N,Net-(BT1-Pad1)*%
X128205000Y-88749000D02*
X126449000Y-88749000D01*
X125349000Y-87649000D02*
X123405000Y-87649000D01*
X126449000Y-88749000D02*
X125349000Y-87649000D01*
D40*
%TO.N,/USART1_RX*%
X85567136Y-85742010D02*
X85567136Y-85175021D01*
X87309732Y-87484606D02*
X85567136Y-85742010D01*
X51020000Y-66380000D02*
X51500000Y-66380000D01*
X48800000Y-68600000D02*
X51020000Y-66380000D01*
X48800000Y-74700000D02*
X48800000Y-68600000D01*
X50150011Y-76050011D02*
X48800000Y-74700000D01*
X54550011Y-76050011D02*
X50150011Y-76050011D01*
X62900000Y-84400000D02*
X54550011Y-76050011D01*
X65500000Y-84400000D02*
X62900000Y-84400000D01*
%TO.N,/SPI3_CS2*%
X57200000Y-87600000D02*
X54600000Y-90200000D01*
X67300000Y-87600000D02*
X57200000Y-87600000D01*
X87154175Y-90200000D02*
X69900000Y-90200000D01*
X69900000Y-90200000D02*
X67300000Y-87600000D01*
X91800000Y-91200000D02*
X88154175Y-91200000D01*
X93200000Y-92600000D02*
X91800000Y-91200000D01*
X88154175Y-91200000D02*
X87154175Y-90200000D01*
X93200000Y-92632428D02*
X93200000Y-92600000D01*
X95688948Y-95121376D02*
X93200000Y-92632428D01*
X54600000Y-90200000D02*
X51500000Y-90200000D01*
X95688948Y-95156714D02*
X95688948Y-95121376D01*
%TO.N,Net-(J2-Pad11)*%
X75000000Y-55050000D02*
X75000000Y-54500000D01*
X74250000Y-55800000D02*
X75000000Y-55050000D01*
X70400000Y-55800000D02*
X74250000Y-55800000D01*
X69510500Y-54910500D02*
X70400000Y-55800000D01*
X69510500Y-54564000D02*
X69510500Y-54910500D01*
%TO.N,Net-(J2-Pad9)*%
X58664000Y-54512500D02*
X58715500Y-54564000D01*
X55500000Y-54512500D02*
X58664000Y-54512500D01*
%TO.N,Net-(J3-Pad11)*%
X111424500Y-53400000D02*
X110210500Y-54614000D01*
X114275000Y-53400000D02*
X111424500Y-53400000D01*
X115587500Y-54712500D02*
X114275000Y-53400000D01*
X115600000Y-54712500D02*
X115587500Y-54712500D01*
%TO.N,Net-(J3-Pad9)*%
X96514000Y-54614000D02*
X96500000Y-54600000D01*
X99415500Y-54614000D02*
X96514000Y-54614000D01*
%TO.N,Net-(C4-Pad1)*%
X79423223Y-97263781D02*
X78143502Y-98543502D01*
X79423223Y-97078858D02*
X79423223Y-97263781D01*
X80654765Y-98310400D02*
X79423223Y-97078858D01*
X80654765Y-98445235D02*
X80654765Y-98310400D01*
%TO.N,+3.3VA*%
X98163821Y-92681841D02*
X99210229Y-93728249D01*
D41*
X104471751Y-96528249D02*
X105509530Y-95490470D01*
D40*
X99410229Y-93928249D02*
X99210229Y-93728249D01*
X100928249Y-93928249D02*
X99410229Y-93928249D01*
D42*
X105100000Y-95900000D02*
X104900000Y-95900000D01*
X105509530Y-95490470D02*
X105100000Y-95900000D01*
X103128249Y-93928249D02*
X100928249Y-93928249D01*
X105100000Y-95900000D02*
X103128249Y-93928249D01*
D41*
%TO.N,/N*%
X122525000Y-114000000D02*
X121300000Y-114000000D01*
X122525000Y-116025000D02*
X122525000Y-114000000D01*
X122900000Y-116400000D02*
X122525000Y-116025000D01*
X122900000Y-120800000D02*
X122900000Y-116400000D01*
%TO.N,+5VD*%
X120417000Y-120994000D02*
X120417000Y-123713000D01*
D40*
X106500000Y-104475000D02*
X106625000Y-104600000D01*
X106500000Y-104400000D02*
X106500000Y-104475000D01*
X97530000Y-69600000D02*
X97525000Y-69595000D01*
X99500000Y-69600000D02*
X97530000Y-69600000D01*
X99500000Y-69600000D02*
X100500000Y-69600000D01*
X123605000Y-71705000D02*
X123700000Y-71800000D01*
X123605000Y-69585000D02*
X123605000Y-71705000D01*
X131450000Y-69600000D02*
X131700000Y-69850000D01*
X129970000Y-69600000D02*
X131450000Y-69600000D01*
X129955000Y-69585000D02*
X129970000Y-69600000D01*
X123700000Y-71800000D02*
X123900000Y-71800000D01*
X123900000Y-71800000D02*
X123900000Y-72200000D01*
X124700000Y-73000000D02*
X124700000Y-73400000D01*
X123900000Y-72200000D02*
X124700000Y-73000000D01*
X131700000Y-69850000D02*
X131700000Y-68800000D01*
X91500000Y-72000000D02*
X90700000Y-72800000D01*
X91500000Y-69920000D02*
X91500000Y-72000000D01*
X91175000Y-69595000D02*
X91500000Y-69920000D01*
D41*
X108040000Y-69000000D02*
X107900000Y-68860000D01*
X111300000Y-69000000D02*
X108040000Y-69000000D01*
%TO.N,+12V*%
X94980000Y-64640000D02*
X94985000Y-64645000D01*
X95300000Y-62200000D02*
X94980000Y-61880000D01*
X95400000Y-62200000D02*
X95300000Y-62200000D01*
X94980000Y-61880000D02*
X94980000Y-64640000D01*
X127410000Y-64630000D02*
X127415000Y-64635000D01*
X127710000Y-62210000D02*
X127410000Y-61910000D01*
X128000000Y-62210000D02*
X127710000Y-62210000D01*
X127410000Y-61910000D02*
X127410000Y-64630000D01*
X94980000Y-61880000D02*
X94980000Y-58950000D01*
X127410000Y-59100000D02*
X126410000Y-58100000D01*
X126410000Y-58100000D02*
X125925000Y-58100000D01*
X127410000Y-61910000D02*
X127410000Y-59100000D01*
X112450000Y-128150000D02*
X112300000Y-128000000D01*
X113750000Y-128150000D02*
X112450000Y-128150000D01*
X113450000Y-128150000D02*
X112300000Y-127000000D01*
X113750000Y-128150000D02*
X113450000Y-128150000D01*
X113150000Y-128150000D02*
X112300000Y-129000000D01*
X113750000Y-128150000D02*
X113150000Y-128150000D01*
X93900000Y-57800000D02*
X93525000Y-57800000D01*
X94500000Y-57200000D02*
X93900000Y-57800000D01*
X94500000Y-58470000D02*
X94500000Y-57200000D01*
X94980000Y-58950000D02*
X94500000Y-58470000D01*
X94980000Y-57520000D02*
X95300000Y-57200000D01*
X94980000Y-58950000D02*
X94980000Y-57520000D01*
X94980000Y-58950000D02*
X93950000Y-58950000D01*
X127410000Y-59100000D02*
X126200000Y-59100000D01*
X125925000Y-58100000D02*
X126200000Y-58100000D01*
X127410000Y-59100000D02*
X126510007Y-59999993D01*
X126510007Y-59999993D02*
X125899996Y-59999993D01*
X105100000Y-132900000D02*
X103999982Y-131799982D01*
X103999982Y-131799982D02*
X103500000Y-131799982D01*
X105999994Y-132000006D02*
X106500000Y-132000006D01*
X105100000Y-132900000D02*
X105999994Y-132000006D01*
X107900000Y-64080000D02*
X107900000Y-63800000D01*
X108755000Y-62925000D02*
X107900000Y-63780000D01*
X111300000Y-62925000D02*
X108755000Y-62925000D01*
X95400000Y-129150000D02*
X95400000Y-126450000D01*
X95400000Y-126450000D02*
X95350000Y-126400000D01*
D40*
X95350000Y-126375000D02*
X96000000Y-125725000D01*
X95350000Y-126400000D02*
X95350000Y-126375000D01*
D41*
X100070000Y-128130000D02*
X100000000Y-128200000D01*
X100070000Y-126590000D02*
X100070000Y-128130000D01*
%TO.N,GNDREF*%
X97930000Y-64240000D02*
X97525000Y-64645000D01*
X97930000Y-62570000D02*
X97930000Y-63170000D01*
X97510000Y-62150000D02*
X97930000Y-62570000D01*
X98150000Y-59550000D02*
X98900000Y-58800000D01*
X97930000Y-59550000D02*
X98150000Y-59550000D01*
X98780000Y-60400000D02*
X98900000Y-60400000D01*
X97930000Y-59550000D02*
X98780000Y-60400000D01*
X98850000Y-59550000D02*
X98900000Y-59600000D01*
X97930000Y-59550000D02*
X98850000Y-59550000D01*
X130360000Y-64230000D02*
X129955000Y-64635000D01*
X129900000Y-62200000D02*
X130360000Y-61740000D01*
X129900000Y-62210000D02*
X129900000Y-62200000D01*
X130360000Y-61740000D02*
X130360000Y-62940000D01*
X130360000Y-59500000D02*
X130360000Y-61740000D01*
X131400000Y-59500000D02*
X131500000Y-59400000D01*
X130360000Y-59500000D02*
X131400000Y-59500000D01*
X130800000Y-59500000D02*
X131500000Y-60200000D01*
X130360000Y-59500000D02*
X130800000Y-59500000D01*
D40*
X97500000Y-131200000D02*
X97300000Y-131400000D01*
X97500000Y-130425000D02*
X97500000Y-131200000D01*
D41*
X91200000Y-131300000D02*
X91300000Y-131200000D01*
X88450000Y-131300000D02*
X91200000Y-131300000D01*
X90000000Y-131300000D02*
X91300000Y-130000000D01*
X88450000Y-131300000D02*
X90000000Y-131300000D01*
X90200000Y-131300000D02*
X91300000Y-132400000D01*
X88450000Y-131300000D02*
X90200000Y-131300000D01*
X105100000Y-127500000D02*
X105200000Y-127500000D01*
X105000000Y-127500000D02*
X103700000Y-126200000D01*
X105100000Y-127500000D02*
X105000000Y-127500000D01*
X97930000Y-58950000D02*
X97930000Y-62570000D01*
X97930000Y-63170000D02*
X97930000Y-64240000D01*
X130600000Y-59500000D02*
X131500000Y-58600000D01*
X130360000Y-59500000D02*
X130600000Y-59500000D01*
X130360000Y-62940000D02*
X130360000Y-64230000D01*
X116250000Y-128150000D02*
X116250000Y-129749928D01*
X116250000Y-129749928D02*
X116899990Y-130399918D01*
X116250000Y-128150000D02*
X116250000Y-129850000D01*
X116250000Y-129850000D02*
X115500030Y-130599970D01*
X108345000Y-65875000D02*
X107900000Y-66320000D01*
X111300000Y-65875000D02*
X108345000Y-65875000D01*
X112799989Y-66100007D02*
X112699996Y-66200000D01*
X112799989Y-65000008D02*
X112799989Y-66100007D01*
X93400000Y-126450000D02*
X93450000Y-126400000D01*
X93400000Y-128200000D02*
X93400000Y-126450000D01*
X95350000Y-131800000D02*
X96000000Y-131800000D01*
X93450000Y-126400000D02*
X93200000Y-126400000D01*
X93200000Y-126400000D02*
X92000000Y-125200000D01*
X105200000Y-127500000D02*
X106500000Y-126200000D01*
D40*
%TO.N,/I1_low_mcu*%
X99350000Y-113150000D02*
X100000000Y-113800000D01*
X99000000Y-113150000D02*
X99350000Y-113150000D01*
X100812500Y-113800000D02*
X101000000Y-113987500D01*
X100000000Y-113800000D02*
X100812500Y-113800000D01*
X89561665Y-101525255D02*
X92598257Y-101525255D01*
X92598257Y-101525255D02*
X93600000Y-102526998D01*
X89000000Y-97800000D02*
X88000000Y-98800000D01*
X90138159Y-95863821D02*
X90136179Y-95863821D01*
X93600000Y-109273002D02*
X97476998Y-113150000D01*
X88000000Y-98800000D02*
X88000000Y-99963590D01*
X89000000Y-97000000D02*
X89000000Y-97800000D01*
X88000000Y-99963590D02*
X89561665Y-101525255D01*
X97476998Y-113150000D02*
X99000000Y-113150000D01*
X90136179Y-95863821D02*
X89000000Y-97000000D01*
X93600000Y-102526998D02*
X93600000Y-109273002D01*
%TO.N,/V1_low_mcu*%
X90694874Y-94600000D02*
X89784606Y-95510268D01*
X92000000Y-94600000D02*
X90694874Y-94600000D01*
X92200000Y-94800001D02*
X92000000Y-94600000D01*
X92200000Y-97709412D02*
X92200000Y-94800001D01*
X99000000Y-104509412D02*
X92200000Y-97709412D01*
X99000000Y-107780000D02*
X99000000Y-104509412D01*
X100300000Y-108900000D02*
X101000000Y-108900000D01*
X99180000Y-107780000D02*
X100300000Y-108900000D01*
X99000000Y-107780000D02*
X99180000Y-107780000D01*
%TO.N,/V2_low_mcu*%
X104500000Y-108800000D02*
X104400000Y-108900000D01*
X105800000Y-108800000D02*
X104500000Y-108800000D01*
X106410000Y-108190000D02*
X105800000Y-108800000D01*
X106410000Y-107780000D02*
X106410000Y-108190000D01*
X88964856Y-93501590D02*
X88370392Y-94096054D01*
X89860074Y-93501590D02*
X88964856Y-93501590D01*
X92186400Y-94149989D02*
X90508473Y-94149990D01*
X92738695Y-94702285D02*
X92186400Y-94149989D01*
X92738695Y-97611697D02*
X92738695Y-94702285D01*
X90508473Y-94149990D02*
X89860074Y-93501590D01*
X104026998Y-108900000D02*
X92738695Y-97611697D01*
X104400000Y-108900000D02*
X104026998Y-108900000D01*
D41*
%TO.N,/I_high_mcu*%
X86112500Y-103387500D02*
X87600000Y-101900000D01*
X85570000Y-103387500D02*
X86112500Y-103387500D01*
D40*
X87749989Y-96130671D02*
X89077499Y-94803161D01*
X87749989Y-97613601D02*
X87749989Y-96130671D01*
X86749989Y-98613600D02*
X87749989Y-97613601D01*
X86749989Y-101049989D02*
X86749989Y-98613600D01*
X87600000Y-101900000D02*
X86749989Y-101049989D01*
D41*
%TO.N,/V_high_mcu*%
X86490000Y-108700000D02*
X87610000Y-107580000D01*
X85570000Y-108700000D02*
X86490000Y-108700000D01*
D40*
X90400000Y-104790000D02*
X87610000Y-107580000D01*
X90400000Y-103000000D02*
X90400000Y-104790000D01*
X87610000Y-107580000D02*
X87610000Y-107180000D01*
X87200000Y-99800000D02*
X90400000Y-103000000D01*
X87200000Y-98800000D02*
X87200000Y-99800000D01*
X88200000Y-97800000D02*
X87200000Y-98800000D01*
X88200000Y-96387766D02*
X88200000Y-97800000D01*
X89431052Y-95156714D02*
X88200000Y-96387766D01*
D41*
%TO.N,/VI_high*%
X78600000Y-131300000D02*
X81500000Y-131300000D01*
X76680000Y-133220000D02*
X78600000Y-131300000D01*
X68040000Y-133220000D02*
X76680000Y-133220000D01*
D40*
%TO.N,Net-(C17-Pad2)*%
X88635000Y-73252500D02*
X88635000Y-69595000D01*
X87880000Y-74007500D02*
X88635000Y-73252500D01*
X85817500Y-74007500D02*
X87880000Y-74007500D01*
X85800000Y-73990000D02*
X85817500Y-74007500D01*
%TO.N,Net-(C18-Pad1)*%
X89905000Y-73990000D02*
X89905000Y-69595000D01*
X91900000Y-73990000D02*
X89905000Y-73990000D01*
%TO.N,Net-(C20-Pad1)*%
X95455000Y-71155000D02*
X95455000Y-71920000D01*
X94985000Y-70685000D02*
X95455000Y-71155000D01*
X94985000Y-69595000D02*
X94985000Y-70685000D01*
X95400000Y-71975000D02*
X95400000Y-73720000D01*
X95455000Y-71920000D02*
X95400000Y-71975000D01*
%TO.N,/SW_Node1*%
X91175000Y-63075000D02*
X91100000Y-63000000D01*
X91175000Y-64645000D02*
X91175000Y-63075000D01*
D41*
X91300000Y-62200000D02*
X91300000Y-63000000D01*
X90530000Y-61430000D02*
X91300000Y-62200000D01*
X90530000Y-60320000D02*
X90530000Y-61430000D01*
X91300000Y-63000000D02*
X91300000Y-63600000D01*
%TO.N,Net-(C21-Pad1)*%
X88630000Y-64640000D02*
X88635000Y-64645000D01*
X88630000Y-59920000D02*
X88630000Y-64640000D01*
X87680000Y-59920000D02*
X88630000Y-59920000D01*
X85500000Y-62100000D02*
X87680000Y-59920000D01*
D40*
%TO.N,Net-(C27-Pad2)*%
X121065000Y-69585000D02*
X121065000Y-71035000D01*
X119610000Y-72490000D02*
X119610000Y-73417500D01*
X121065000Y-71035000D02*
X119610000Y-72490000D01*
X119592500Y-73400000D02*
X119610000Y-73417500D01*
X117800000Y-73400000D02*
X119592500Y-73400000D01*
%TO.N,Net-(C28-Pad1)*%
X121427500Y-73400000D02*
X121410000Y-73417500D01*
X123210000Y-73400000D02*
X121427500Y-73400000D01*
X122335000Y-69585000D02*
X122335000Y-71365000D01*
X122335000Y-71365000D02*
X121410000Y-72290000D01*
X121410000Y-72290000D02*
X121410000Y-73417500D01*
%TO.N,Net-(C30-Pad1)*%
X127415000Y-73757500D02*
X127467500Y-73810000D01*
X127415000Y-69585000D02*
X127415000Y-73757500D01*
%TO.N,/SW_Node2*%
X123605000Y-63505000D02*
X123500000Y-63400000D01*
X123605000Y-64635000D02*
X123605000Y-63505000D01*
D41*
X123605000Y-62305000D02*
X123605000Y-62895000D01*
X123010000Y-61710000D02*
X123605000Y-62305000D01*
X123010000Y-60410000D02*
X123010000Y-61710000D01*
X123605000Y-62895000D02*
X123605000Y-63505000D01*
%TO.N,Net-(C31-Pad1)*%
X121110000Y-64590000D02*
X121065000Y-64635000D01*
X121110000Y-60410000D02*
X121110000Y-64590000D01*
X117900000Y-62200000D02*
X118100000Y-62200000D01*
X119890000Y-60410000D02*
X121110000Y-60410000D01*
X118100000Y-62200000D02*
X119890000Y-60410000D01*
%TO.N,Net-(D10-Pad2)*%
X91700000Y-57800000D02*
X85500000Y-57800000D01*
%TO.N,Net-(D11-Pad2)*%
X124100000Y-58100000D02*
X118100000Y-58100000D01*
D40*
%TO.N,Net-(R21-Pad2)*%
X97300000Y-119200000D02*
X97530000Y-118970000D01*
X95412500Y-119200000D02*
X97300000Y-119200000D01*
%TO.N,/Neutral_GND_cmd*%
X97530000Y-128570000D02*
X97500000Y-128600000D01*
X97530000Y-126590000D02*
X97530000Y-128570000D01*
X97530000Y-126590000D02*
X97530000Y-125730000D01*
X97530000Y-125730000D02*
X96800000Y-125000000D01*
X96800000Y-125000000D02*
X93799996Y-125000000D01*
%TO.N,/PWM_H1*%
X89905000Y-64645000D02*
X89905000Y-63200000D01*
X89905000Y-63005000D02*
X89900000Y-63000000D01*
X89905000Y-63200000D02*
X89905000Y-63005000D01*
%TO.N,/PWM_L1*%
X96255000Y-64645000D02*
X96255000Y-63045000D01*
%TO.N,/PWM_H2*%
X122335000Y-64635000D02*
X122335000Y-63035000D01*
%TO.N,/PWM_L2*%
X128685000Y-63077806D02*
X128729506Y-63033300D01*
X128685000Y-64635000D02*
X128685000Y-63077806D01*
%TO.N,/I1_low_op*%
X102387500Y-115812500D02*
X102387502Y-115812502D01*
X101000000Y-115812500D02*
X102387500Y-115812500D01*
%TO.N,/V1_low_op*%
X99675000Y-109400000D02*
X97000000Y-109400000D01*
X101000000Y-110725000D02*
X99675000Y-109400000D01*
%TO.N,/I2_low_op*%
X92800000Y-109000000D02*
X92800000Y-104800000D01*
X89000000Y-112800000D02*
X92800000Y-109000000D01*
X89000000Y-114800000D02*
X89000000Y-112800000D01*
X88400000Y-115400000D02*
X89000000Y-114800000D01*
X87000000Y-115400000D02*
X88400000Y-115400000D01*
X85775000Y-116625000D02*
X87000000Y-115400000D01*
X85600000Y-116625000D02*
X85775000Y-116625000D01*
%TO.N,/V2_low_op*%
X104400000Y-110725000D02*
X103474996Y-110725000D01*
X103474996Y-110725000D02*
X103200000Y-110999996D01*
%TO.N,/I_high_op*%
X85557500Y-105200000D02*
X85570000Y-105212500D01*
X84200000Y-105200000D02*
X85557500Y-105200000D01*
%TO.N,/V_high_op*%
X85495000Y-110600000D02*
X85570000Y-110525000D01*
X84400000Y-110600000D02*
X85495000Y-110600000D01*
%TO.N,/HSE_IN*%
X84649989Y-94549989D02*
X85795137Y-94549989D01*
X82500000Y-92400000D02*
X84649989Y-94549989D01*
X81697919Y-92400000D02*
X82500000Y-92400000D01*
X85795137Y-94549989D02*
X87309732Y-93035394D01*
X79776777Y-94321142D02*
X81697919Y-92400000D01*
%TO.N,/HSE_OUT*%
X82145235Y-97154765D02*
X81945235Y-97154765D01*
X84300000Y-95000000D02*
X82145235Y-97154765D01*
X87033482Y-93983412D02*
X86998124Y-93983412D01*
X86998124Y-93983412D02*
X85981536Y-95000000D01*
X87627946Y-93388948D02*
X87033482Y-93983412D01*
X85981536Y-95000000D02*
X84300000Y-95000000D01*
X87663286Y-93388948D02*
X87627946Y-93388948D01*
%TO.N,/NRST*%
X60850000Y-101250000D02*
X60850000Y-102200000D01*
X63100000Y-99000000D02*
X60850000Y-101250000D01*
X63690000Y-97410000D02*
X63100000Y-98000000D01*
X63100000Y-98000000D02*
X63100000Y-99000000D01*
X65000000Y-97410000D02*
X63690000Y-97410000D01*
X53060000Y-102200000D02*
X51500000Y-103760000D01*
X60850000Y-102200000D02*
X53060000Y-102200000D01*
X88016839Y-93742501D02*
X85571751Y-96187589D01*
X85571751Y-96187589D02*
X85571751Y-97528249D01*
X84086811Y-97528249D02*
X79415060Y-102200000D01*
X85571751Y-97528249D02*
X84086811Y-97528249D01*
X64950000Y-102200000D02*
X60850000Y-102200000D01*
X79415060Y-102200000D02*
X64950000Y-102200000D01*
%TO.N,/STLINK_TX*%
X65000000Y-100425010D02*
X65100000Y-100525010D01*
X65000000Y-98680000D02*
X65000000Y-100425010D01*
X93921181Y-96924481D02*
X93921181Y-97521177D01*
X93921181Y-97521177D02*
X94800004Y-98400000D01*
%TO.N,/STLINK_RX*%
X61020000Y-98600000D02*
X61100000Y-98680000D01*
X59100000Y-98600000D02*
X61020000Y-98600000D01*
X91384078Y-95325010D02*
X91474990Y-95325010D01*
X90491713Y-96217375D02*
X91384078Y-95325010D01*
%TO.N,Net-(J8-Pad11)*%
X57935000Y-97410000D02*
X57925000Y-97400000D01*
X61100000Y-97410000D02*
X57935000Y-97410000D01*
%TO.N,/SWO*%
X88723946Y-86070392D02*
X89653554Y-87000000D01*
X89653554Y-87000000D02*
X90300000Y-87000000D01*
X49700000Y-106300000D02*
X51500000Y-106300000D01*
X48500000Y-105100000D02*
X49700000Y-106300000D01*
X54900000Y-91800000D02*
X49600000Y-91800000D01*
X67700000Y-90834315D02*
X65865685Y-89000000D01*
X49600000Y-91800000D02*
X48500000Y-92900000D01*
X57700000Y-89000000D02*
X54900000Y-91800000D01*
X67700000Y-94273002D02*
X67700000Y-90834315D01*
X67103002Y-94870000D02*
X67700000Y-94273002D01*
X48500000Y-92900000D02*
X48500000Y-105100000D01*
X65865685Y-89000000D02*
X57700000Y-89000000D01*
X65000000Y-94870000D02*
X67103002Y-94870000D01*
%TO.N,/SWCLK*%
X66700000Y-93600000D02*
X66900000Y-93400000D01*
X65000000Y-93600000D02*
X66700000Y-93600000D01*
X58189989Y-89450011D02*
X52349999Y-95290001D01*
X66900000Y-93400000D02*
X66611014Y-93111014D01*
X66611014Y-90545329D02*
X65515696Y-89450011D01*
X66611014Y-93111014D02*
X66611014Y-90545329D01*
X52349999Y-95290001D02*
X51500000Y-96140000D01*
X65515696Y-89450011D02*
X58189989Y-89450011D01*
X91500000Y-85200000D02*
X92300000Y-86000000D01*
X91500000Y-84603806D02*
X91500000Y-85200000D01*
X90845266Y-83949072D02*
X91500000Y-84603806D01*
%TO.N,/SWDIO*%
X58799978Y-89900022D02*
X56500000Y-92200000D01*
X53100000Y-95600000D02*
X56500000Y-92200000D01*
X63100000Y-90634315D02*
X62365707Y-89900022D01*
X51500000Y-101220000D02*
X53100000Y-99620000D01*
X62365707Y-89900022D02*
X58799978Y-89900022D01*
X63550000Y-92330000D02*
X63100000Y-91880000D01*
X53100000Y-99620000D02*
X53100000Y-95600000D01*
X63100000Y-91880000D02*
X63100000Y-90634315D01*
X65000000Y-92330000D02*
X63550000Y-92330000D01*
X91198819Y-83595519D02*
X90232515Y-82629215D01*
D41*
%TO.N,+5V*%
X125675000Y-113800000D02*
X125475000Y-114000000D01*
X126700000Y-113800000D02*
X125675000Y-113800000D01*
X125475000Y-120765000D02*
X125440000Y-120800000D01*
X125475000Y-114000000D02*
X125475000Y-120765000D01*
D40*
%TO.N,/I2_low_mcu*%
X86650000Y-113700000D02*
X87500000Y-113700000D01*
X86650000Y-113750000D02*
X85600000Y-114800000D01*
X86650000Y-113700000D02*
X86650000Y-113750000D01*
X83400000Y-112600000D02*
X85600000Y-114800000D01*
X83400000Y-101927180D02*
X83400000Y-112600000D01*
X86299978Y-99027202D02*
X83400000Y-101927180D01*
X86299978Y-98427200D02*
X86299978Y-99027202D01*
X87299978Y-97427202D02*
X86299978Y-98427200D01*
X87299978Y-95873576D02*
X87299978Y-97427202D01*
X88723946Y-94449608D02*
X87299978Y-95873576D01*
%TO.N,/Temp_mcu*%
X95800000Y-93146446D02*
X95800000Y-92662230D01*
X96749608Y-94096054D02*
X95800000Y-93146446D01*
X105112500Y-114087500D02*
X104400000Y-114087500D01*
X106400000Y-113000000D02*
X106200000Y-113000000D01*
X106200000Y-113000000D02*
X105112500Y-114087500D01*
X106500000Y-112900000D02*
X106400000Y-113000000D01*
X103600000Y-112800000D02*
X103200000Y-112800000D01*
X104400000Y-113600000D02*
X103600000Y-112800000D01*
X104400000Y-114087500D02*
X104400000Y-113600000D01*
%TO.N,/VREF1024*%
X95200000Y-104500000D02*
X95200000Y-107600004D01*
%TO.N,/DAC2*%
X94981841Y-95863821D02*
X94274989Y-95156969D01*
X94274989Y-94732736D02*
X93623520Y-94081267D01*
X94274989Y-95156969D02*
X94274989Y-94732736D01*
X95199999Y-102199999D02*
X94800000Y-101800000D01*
X95200000Y-103200000D02*
X95199999Y-102199999D01*
%TO.N,/VREF2048*%
X97810268Y-93035394D02*
X97810268Y-93000056D01*
X101050005Y-83315691D02*
X101050005Y-82750006D01*
X101200000Y-83465686D02*
X101050005Y-83315691D01*
X101200000Y-88600000D02*
X101200000Y-83465686D01*
X97810268Y-93035394D02*
X99528249Y-94753375D01*
D41*
X99800000Y-95256498D02*
X101071751Y-96528249D01*
X99800000Y-95200000D02*
X99800000Y-95256498D01*
D40*
X101071751Y-96528249D02*
X101800000Y-97256498D01*
D41*
%TO.N,/+12VD*%
X64300000Y-127800000D02*
X66500000Y-127800000D01*
X64300000Y-127800000D02*
X64300000Y-125800000D01*
X64300000Y-127800000D02*
X62300000Y-127800000D01*
X133150000Y-128150000D02*
X133050000Y-128150000D01*
X133050000Y-128150000D02*
X132500000Y-127600000D01*
X132500000Y-127600000D02*
X128900000Y-127600000D01*
X124700000Y-130800000D02*
X124700000Y-131900000D01*
X128900000Y-127600000D02*
X127900000Y-127600000D01*
X125700000Y-129800000D02*
X124700000Y-130800000D01*
X127900000Y-127600000D02*
X126400000Y-129100000D01*
X126400000Y-129100000D02*
X125700000Y-129800000D01*
X126400000Y-129100000D02*
X126399996Y-129099996D01*
X125700000Y-129800000D02*
X125699990Y-129800000D01*
X124700000Y-131900000D02*
X123700000Y-132900000D01*
X123700000Y-132900000D02*
X123700000Y-133600000D01*
X123700000Y-133600000D02*
X123700000Y-134400000D01*
D40*
%TO.N,/LED_BUILTIN*%
X94628287Y-96228287D02*
X94628287Y-96217375D01*
X96437087Y-98037087D02*
X94628287Y-96228287D01*
%TO.N,Net-(LED1-Pad1)*%
X97762913Y-99362913D02*
X99100000Y-100700000D01*
%TO.N,Net-(LED2-Pad1)*%
X116632500Y-108985000D02*
X116617500Y-109000000D01*
X116632500Y-106915000D02*
X116632500Y-108985000D01*
D41*
%TO.N,+5P*%
X93450000Y-130150000D02*
X93400000Y-130100000D01*
X93450000Y-131800000D02*
X93450000Y-130150000D01*
D40*
X92574990Y-129974990D02*
X91400000Y-128800000D01*
X92574990Y-130924990D02*
X92574990Y-129974990D01*
X93450000Y-131800000D02*
X92574990Y-130924990D01*
D41*
%TO.N,/+5VJP*%
X76300000Y-113540000D02*
X75660000Y-112900000D01*
X76300000Y-116800000D02*
X76300000Y-113540000D01*
X66600000Y-107940000D02*
X66540000Y-108000000D01*
X66600000Y-106600000D02*
X66600000Y-107940000D01*
X67200000Y-106000000D02*
X66600000Y-106600000D01*
X75000000Y-106000000D02*
X67200000Y-106000000D01*
X75660000Y-106660000D02*
X75000000Y-106000000D01*
X75660000Y-112900000D02*
X75660000Y-106660000D01*
%TD*%
D43*
%TO.N,GNDD*%
X100373000Y-74273000D02*
X97027000Y-74273000D01*
X97027000Y-71327000D01*
X100373000Y-71327000D01*
X100373000Y-74273000D01*
%TA.AperFunction,Conductor*%
D44*
G36*
X100373000Y-74273000D02*
G01*
X97027000Y-74273000D01*
X97027000Y-71327000D01*
X100373000Y-71327000D01*
X100373000Y-74273000D01*
G37*
%TD.AperFunction*%
%TD*%
D43*
%TO.N,GNDD*%
X132373000Y-74273000D02*
X129027000Y-74273000D01*
X129027000Y-71327000D01*
X132373000Y-71327000D01*
X132373000Y-74273000D01*
%TA.AperFunction,Conductor*%
D44*
G36*
X132373000Y-74273000D02*
G01*
X129027000Y-74273000D01*
X129027000Y-71327000D01*
X132373000Y-71327000D01*
X132373000Y-74273000D01*
G37*
%TD.AperFunction*%
%TD*%
D43*
%TO.N,GNDD*%
X111385955Y-94377923D02*
X111462976Y-94437024D01*
X111522077Y-94514045D01*
X111559231Y-94603743D01*
X111573000Y-94708328D01*
X111573000Y-98691672D01*
X111559231Y-98796257D01*
X111522077Y-98885955D01*
X111462976Y-98962976D01*
X111385955Y-99022077D01*
X111296257Y-99059231D01*
X111191672Y-99073000D01*
X109000000Y-99073000D01*
X108983423Y-99074086D01*
X108854013Y-99091123D01*
X108821989Y-99099704D01*
X108701399Y-99149654D01*
X108672687Y-99166232D01*
X108569134Y-99245692D01*
X108545692Y-99269134D01*
X108466232Y-99372687D01*
X108449654Y-99401399D01*
X108399704Y-99521989D01*
X108391123Y-99554013D01*
X108374086Y-99683423D01*
X108373000Y-99700000D01*
X108373000Y-99830271D01*
X108319463Y-99895506D01*
X108260498Y-100005820D01*
X108224188Y-100125518D01*
X108211928Y-100250000D01*
X108211928Y-100802147D01*
X108185955Y-100822077D01*
X108096257Y-100859231D01*
X107991672Y-100873000D01*
X105808328Y-100873000D01*
X105703743Y-100859231D01*
X105614045Y-100822077D01*
X105537024Y-100762976D01*
X105477923Y-100685955D01*
X105440769Y-100596257D01*
X105427000Y-100491672D01*
X105427000Y-98815435D01*
X105440769Y-98710850D01*
X105443467Y-98704336D01*
X109787804Y-94360000D01*
X111342685Y-94360000D01*
X111385955Y-94377923D01*
%TA.AperFunction,Conductor*%
D44*
G36*
X111385955Y-94377923D02*
G01*
X111462976Y-94437024D01*
X111522077Y-94514045D01*
X111559231Y-94603743D01*
X111573000Y-94708328D01*
X111573000Y-98691672D01*
X111559231Y-98796257D01*
X111522077Y-98885955D01*
X111462976Y-98962976D01*
X111385955Y-99022077D01*
X111296257Y-99059231D01*
X111191672Y-99073000D01*
X109000000Y-99073000D01*
X108983423Y-99074086D01*
X108854013Y-99091123D01*
X108821989Y-99099704D01*
X108701399Y-99149654D01*
X108672687Y-99166232D01*
X108569134Y-99245692D01*
X108545692Y-99269134D01*
X108466232Y-99372687D01*
X108449654Y-99401399D01*
X108399704Y-99521989D01*
X108391123Y-99554013D01*
X108374086Y-99683423D01*
X108373000Y-99700000D01*
X108373000Y-99830271D01*
X108319463Y-99895506D01*
X108260498Y-100005820D01*
X108224188Y-100125518D01*
X108211928Y-100250000D01*
X108211928Y-100802147D01*
X108185955Y-100822077D01*
X108096257Y-100859231D01*
X107991672Y-100873000D01*
X105808328Y-100873000D01*
X105703743Y-100859231D01*
X105614045Y-100822077D01*
X105537024Y-100762976D01*
X105477923Y-100685955D01*
X105440769Y-100596257D01*
X105427000Y-100491672D01*
X105427000Y-98815435D01*
X105440769Y-98710850D01*
X105443467Y-98704336D01*
X109787804Y-94360000D01*
X111342685Y-94360000D01*
X111385955Y-94377923D01*
G37*
%TD.AperFunction*%
%TD*%
D43*
%TO.N,+3V3*%
X117696257Y-94340769D02*
X117785955Y-94377923D01*
X117862976Y-94437024D01*
X117922077Y-94514045D01*
X117959231Y-94603743D01*
X117973000Y-94708328D01*
X117973000Y-103891672D01*
X117959231Y-103996257D01*
X117922077Y-104085955D01*
X117862976Y-104162976D01*
X117785955Y-104222077D01*
X117696257Y-104259231D01*
X117591672Y-104273000D01*
X112608328Y-104273000D01*
X112503743Y-104259231D01*
X112414045Y-104222077D01*
X112337024Y-104162976D01*
X112277923Y-104085955D01*
X112240769Y-103996257D01*
X112227000Y-103891672D01*
X112227000Y-102500000D01*
X112225914Y-102483423D01*
X112208877Y-102354013D01*
X112200296Y-102321989D01*
X112150346Y-102201399D01*
X112133768Y-102172687D01*
X112054308Y-102069134D01*
X112030866Y-102045692D01*
X111927313Y-101966232D01*
X111898601Y-101949654D01*
X111778011Y-101899704D01*
X111745987Y-101891123D01*
X111616577Y-101874086D01*
X111600000Y-101873000D01*
X109208328Y-101873000D01*
X109103743Y-101859231D01*
X109014045Y-101822077D01*
X108937024Y-101762976D01*
X108877923Y-101685955D01*
X108840769Y-101596257D01*
X108827000Y-101491672D01*
X108827000Y-101093331D01*
X108871008Y-100948255D01*
X108888072Y-100775001D01*
X108888072Y-100500819D01*
X108937024Y-100437024D01*
X109014045Y-100377923D01*
X109103743Y-100340769D01*
X109208328Y-100327000D01*
X111600000Y-100327000D01*
X111616577Y-100325914D01*
X111745987Y-100308877D01*
X111778011Y-100300296D01*
X111898601Y-100250346D01*
X111927313Y-100233768D01*
X112030866Y-100154308D01*
X112054308Y-100130866D01*
X112133768Y-100027313D01*
X112150346Y-99998601D01*
X112200296Y-99878011D01*
X112208877Y-99845987D01*
X112225914Y-99716577D01*
X112227000Y-99700000D01*
X112227000Y-96935916D01*
X112246008Y-96873255D01*
X112263072Y-96700001D01*
X112263072Y-94549899D01*
X112277923Y-94514045D01*
X112337024Y-94437024D01*
X112414045Y-94377923D01*
X112451488Y-94362414D01*
X112475995Y-94360000D01*
X112476006Y-94360000D01*
X112587659Y-94349003D01*
X112660194Y-94327000D01*
X117591672Y-94327000D01*
X117696257Y-94340769D01*
%TA.AperFunction,Conductor*%
D44*
G36*
X117696257Y-94340769D02*
G01*
X117785955Y-94377923D01*
X117862976Y-94437024D01*
X117922077Y-94514045D01*
X117959231Y-94603743D01*
X117973000Y-94708328D01*
X117973000Y-103891672D01*
X117959231Y-103996257D01*
X117922077Y-104085955D01*
X117862976Y-104162976D01*
X117785955Y-104222077D01*
X117696257Y-104259231D01*
X117591672Y-104273000D01*
X112608328Y-104273000D01*
X112503743Y-104259231D01*
X112414045Y-104222077D01*
X112337024Y-104162976D01*
X112277923Y-104085955D01*
X112240769Y-103996257D01*
X112227000Y-103891672D01*
X112227000Y-102500000D01*
X112225914Y-102483423D01*
X112208877Y-102354013D01*
X112200296Y-102321989D01*
X112150346Y-102201399D01*
X112133768Y-102172687D01*
X112054308Y-102069134D01*
X112030866Y-102045692D01*
X111927313Y-101966232D01*
X111898601Y-101949654D01*
X111778011Y-101899704D01*
X111745987Y-101891123D01*
X111616577Y-101874086D01*
X111600000Y-101873000D01*
X109208328Y-101873000D01*
X109103743Y-101859231D01*
X109014045Y-101822077D01*
X108937024Y-101762976D01*
X108877923Y-101685955D01*
X108840769Y-101596257D01*
X108827000Y-101491672D01*
X108827000Y-101093331D01*
X108871008Y-100948255D01*
X108888072Y-100775001D01*
X108888072Y-100500819D01*
X108937024Y-100437024D01*
X109014045Y-100377923D01*
X109103743Y-100340769D01*
X109208328Y-100327000D01*
X111600000Y-100327000D01*
X111616577Y-100325914D01*
X111745987Y-100308877D01*
X111778011Y-100300296D01*
X111898601Y-100250346D01*
X111927313Y-100233768D01*
X112030866Y-100154308D01*
X112054308Y-100130866D01*
X112133768Y-100027313D01*
X112150346Y-99998601D01*
X112200296Y-99878011D01*
X112208877Y-99845987D01*
X112225914Y-99716577D01*
X112227000Y-99700000D01*
X112227000Y-96935916D01*
X112246008Y-96873255D01*
X112263072Y-96700001D01*
X112263072Y-94549899D01*
X112277923Y-94514045D01*
X112337024Y-94437024D01*
X112414045Y-94377923D01*
X112451488Y-94362414D01*
X112475995Y-94360000D01*
X112476006Y-94360000D01*
X112587659Y-94349003D01*
X112660194Y-94327000D01*
X117591672Y-94327000D01*
X117696257Y-94340769D01*
G37*
%TD.AperFunction*%
%TD*%
D43*
%TO.N,+5VD*%
X110348864Y-102544743D02*
X110448229Y-102592289D01*
X110529284Y-102666871D01*
X110584916Y-102761943D01*
X110612431Y-102878456D01*
X110727584Y-104260287D01*
X110721516Y-104371134D01*
X110688380Y-104467768D01*
X110630190Y-104551738D01*
X110551340Y-104616701D01*
X110457795Y-104657747D01*
X110347831Y-104673000D01*
X105808328Y-104673000D01*
X105703743Y-104659231D01*
X105614045Y-104622077D01*
X105537024Y-104562976D01*
X105477923Y-104485955D01*
X105440769Y-104396257D01*
X105427000Y-104291672D01*
X105427000Y-102908328D01*
X105440769Y-102803743D01*
X105477923Y-102714045D01*
X105537024Y-102637024D01*
X105614045Y-102577923D01*
X105703743Y-102540769D01*
X105808328Y-102527000D01*
X110230472Y-102527000D01*
X110348864Y-102544743D01*
%TA.AperFunction,Conductor*%
D44*
G36*
X110348864Y-102544743D02*
G01*
X110448229Y-102592289D01*
X110529284Y-102666871D01*
X110584916Y-102761943D01*
X110612431Y-102878456D01*
X110727584Y-104260287D01*
X110721516Y-104371134D01*
X110688380Y-104467768D01*
X110630190Y-104551738D01*
X110551340Y-104616701D01*
X110457795Y-104657747D01*
X110347831Y-104673000D01*
X105808328Y-104673000D01*
X105703743Y-104659231D01*
X105614045Y-104622077D01*
X105537024Y-104562976D01*
X105477923Y-104485955D01*
X105440769Y-104396257D01*
X105427000Y-104291672D01*
X105427000Y-102908328D01*
X105440769Y-102803743D01*
X105477923Y-102714045D01*
X105537024Y-102637024D01*
X105614045Y-102577923D01*
X105703743Y-102540769D01*
X105808328Y-102527000D01*
X110230472Y-102527000D01*
X110348864Y-102544743D01*
G37*
%TD.AperFunction*%
%TD*%
D43*
%TO.N,GNDREF*%
X91173357Y-129547141D02*
X91323472Y-129577000D01*
X91467065Y-129577000D01*
X92072991Y-130182926D01*
X92072990Y-130900347D01*
X92070563Y-130924990D01*
X92072990Y-130949633D01*
X92072990Y-130949642D01*
X92080254Y-131023398D01*
X92108959Y-131118025D01*
X92155573Y-131205235D01*
X92218306Y-131281674D01*
X92237457Y-131297391D01*
X92571176Y-131631110D01*
X92571176Y-132275000D01*
X92583259Y-132397677D01*
X92619042Y-132515641D01*
X92677152Y-132624356D01*
X92717073Y-132673000D01*
X91127000Y-132673000D01*
X91127000Y-129527939D01*
X91173357Y-129547141D01*
%TA.AperFunction,Conductor*%
D44*
G36*
X91173357Y-129547141D02*
G01*
X91323472Y-129577000D01*
X91467065Y-129577000D01*
X92072991Y-130182926D01*
X92072990Y-130900347D01*
X92070563Y-130924990D01*
X92072990Y-130949633D01*
X92072990Y-130949642D01*
X92080254Y-131023398D01*
X92108959Y-131118025D01*
X92155573Y-131205235D01*
X92218306Y-131281674D01*
X92237457Y-131297391D01*
X92571176Y-131631110D01*
X92571176Y-132275000D01*
X92583259Y-132397677D01*
X92619042Y-132515641D01*
X92677152Y-132624356D01*
X92717073Y-132673000D01*
X91127000Y-132673000D01*
X91127000Y-129527939D01*
X91173357Y-129547141D01*
G37*
%TD.AperFunction*%
D43*
X93052855Y-124773357D02*
X93022996Y-124923472D01*
X93022996Y-125076528D01*
X93052855Y-125226643D01*
X93111427Y-125368048D01*
X93196460Y-125495309D01*
X93304687Y-125603536D01*
X93431948Y-125688569D01*
X93573353Y-125747141D01*
X93723468Y-125777000D01*
X93876524Y-125777000D01*
X94026639Y-125747141D01*
X94168044Y-125688569D01*
X94295305Y-125603536D01*
X94396841Y-125502000D01*
X94637590Y-125502000D01*
X94577152Y-125575644D01*
X94519042Y-125684359D01*
X94483259Y-125802323D01*
X94471176Y-125925000D01*
X94471176Y-126375440D01*
X94468757Y-126400000D01*
X94471176Y-126424560D01*
X94471176Y-126875000D01*
X94483259Y-126997677D01*
X94519042Y-127115641D01*
X94523001Y-127123047D01*
X94523000Y-129193078D01*
X94535690Y-129321921D01*
X94571176Y-129438902D01*
X94571176Y-129550000D01*
X94578455Y-129623905D01*
X94600012Y-129694970D01*
X94635019Y-129760463D01*
X94682131Y-129817869D01*
X94739537Y-129864981D01*
X94805030Y-129899988D01*
X94876095Y-129921545D01*
X94950000Y-129928824D01*
X94996650Y-129928824D01*
X95062763Y-129964162D01*
X95228078Y-130014310D01*
X95400000Y-130031243D01*
X95571921Y-130014310D01*
X95737236Y-129964162D01*
X95803349Y-129928824D01*
X95850000Y-129928824D01*
X95923905Y-129921545D01*
X95994970Y-129899988D01*
X96060463Y-129864981D01*
X96117869Y-129817869D01*
X96164981Y-129760463D01*
X96199988Y-129694970D01*
X96221545Y-129623905D01*
X96228824Y-129550000D01*
X96228824Y-129438903D01*
X96264310Y-129321922D01*
X96277000Y-129193079D01*
X96277000Y-127692075D01*
X96290012Y-127734970D01*
X96325019Y-127800463D01*
X96372131Y-127857869D01*
X96429537Y-127904981D01*
X96473000Y-127928213D01*
X96473000Y-128089454D01*
X96469042Y-128096859D01*
X96433259Y-128214822D01*
X96421176Y-128337499D01*
X96421176Y-128862501D01*
X96433259Y-128985178D01*
X96469042Y-129103141D01*
X96473000Y-129110546D01*
X96473000Y-132673000D01*
X94182927Y-132673000D01*
X94222848Y-132624356D01*
X94280958Y-132515641D01*
X94316741Y-132397677D01*
X94328824Y-132275000D01*
X94328824Y-131325000D01*
X94327000Y-131306481D01*
X94327000Y-130193079D01*
X94331243Y-130150000D01*
X94314310Y-129978078D01*
X94297161Y-129921545D01*
X94264162Y-129812763D01*
X94228824Y-129746650D01*
X94228824Y-129700000D01*
X94221545Y-129626095D01*
X94199988Y-129555030D01*
X94164981Y-129489537D01*
X94117869Y-129432131D01*
X94060463Y-129385019D01*
X93994970Y-129350012D01*
X93923905Y-129328455D01*
X93850000Y-129321176D01*
X93803349Y-129321176D01*
X93737236Y-129285838D01*
X93571922Y-129235690D01*
X93400000Y-129218757D01*
X93228078Y-129235690D01*
X93062764Y-129285838D01*
X92996651Y-129321176D01*
X92950000Y-129321176D01*
X92876095Y-129328455D01*
X92805030Y-129350012D01*
X92739537Y-129385019D01*
X92715050Y-129405115D01*
X92177000Y-128867065D01*
X92177000Y-128723472D01*
X92147141Y-128573357D01*
X92088569Y-128431952D01*
X92003536Y-128304691D01*
X91895309Y-128196464D01*
X91768048Y-128111431D01*
X91626643Y-128052859D01*
X91476528Y-128023000D01*
X91323472Y-128023000D01*
X91173357Y-128052859D01*
X91127000Y-128072061D01*
X91127000Y-124727000D01*
X93072057Y-124727000D01*
X93052855Y-124773357D01*
%TA.AperFunction,Conductor*%
D44*
G36*
X93052855Y-124773357D02*
G01*
X93022996Y-124923472D01*
X93022996Y-125076528D01*
X93052855Y-125226643D01*
X93111427Y-125368048D01*
X93196460Y-125495309D01*
X93304687Y-125603536D01*
X93431948Y-125688569D01*
X93573353Y-125747141D01*
X93723468Y-125777000D01*
X93876524Y-125777000D01*
X94026639Y-125747141D01*
X94168044Y-125688569D01*
X94295305Y-125603536D01*
X94396841Y-125502000D01*
X94637590Y-125502000D01*
X94577152Y-125575644D01*
X94519042Y-125684359D01*
X94483259Y-125802323D01*
X94471176Y-125925000D01*
X94471176Y-126375440D01*
X94468757Y-126400000D01*
X94471176Y-126424560D01*
X94471176Y-126875000D01*
X94483259Y-126997677D01*
X94519042Y-127115641D01*
X94523001Y-127123047D01*
X94523000Y-129193078D01*
X94535690Y-129321921D01*
X94571176Y-129438902D01*
X94571176Y-129550000D01*
X94578455Y-129623905D01*
X94600012Y-129694970D01*
X94635019Y-129760463D01*
X94682131Y-129817869D01*
X94739537Y-129864981D01*
X94805030Y-129899988D01*
X94876095Y-129921545D01*
X94950000Y-129928824D01*
X94996650Y-129928824D01*
X95062763Y-129964162D01*
X95228078Y-130014310D01*
X95400000Y-130031243D01*
X95571921Y-130014310D01*
X95737236Y-129964162D01*
X95803349Y-129928824D01*
X95850000Y-129928824D01*
X95923905Y-129921545D01*
X95994970Y-129899988D01*
X96060463Y-129864981D01*
X96117869Y-129817869D01*
X96164981Y-129760463D01*
X96199988Y-129694970D01*
X96221545Y-129623905D01*
X96228824Y-129550000D01*
X96228824Y-129438903D01*
X96264310Y-129321922D01*
X96277000Y-129193079D01*
X96277000Y-127692075D01*
X96290012Y-127734970D01*
X96325019Y-127800463D01*
X96372131Y-127857869D01*
X96429537Y-127904981D01*
X96473000Y-127928213D01*
X96473000Y-128089454D01*
X96469042Y-128096859D01*
X96433259Y-128214822D01*
X96421176Y-128337499D01*
X96421176Y-128862501D01*
X96433259Y-128985178D01*
X96469042Y-129103141D01*
X96473000Y-129110546D01*
X96473000Y-132673000D01*
X94182927Y-132673000D01*
X94222848Y-132624356D01*
X94280958Y-132515641D01*
X94316741Y-132397677D01*
X94328824Y-132275000D01*
X94328824Y-131325000D01*
X94327000Y-131306481D01*
X94327000Y-130193079D01*
X94331243Y-130150000D01*
X94314310Y-129978078D01*
X94297161Y-129921545D01*
X94264162Y-129812763D01*
X94228824Y-129746650D01*
X94228824Y-129700000D01*
X94221545Y-129626095D01*
X94199988Y-129555030D01*
X94164981Y-129489537D01*
X94117869Y-129432131D01*
X94060463Y-129385019D01*
X93994970Y-129350012D01*
X93923905Y-129328455D01*
X93850000Y-129321176D01*
X93803349Y-129321176D01*
X93737236Y-129285838D01*
X93571922Y-129235690D01*
X93400000Y-129218757D01*
X93228078Y-129235690D01*
X93062764Y-129285838D01*
X92996651Y-129321176D01*
X92950000Y-129321176D01*
X92876095Y-129328455D01*
X92805030Y-129350012D01*
X92739537Y-129385019D01*
X92715050Y-129405115D01*
X92177000Y-128867065D01*
X92177000Y-128723472D01*
X92147141Y-128573357D01*
X92088569Y-128431952D01*
X92003536Y-128304691D01*
X91895309Y-128196464D01*
X91768048Y-128111431D01*
X91626643Y-128052859D01*
X91476528Y-128023000D01*
X91323472Y-128023000D01*
X91173357Y-128052859D01*
X91127000Y-128072061D01*
X91127000Y-124727000D01*
X93072057Y-124727000D01*
X93052855Y-124773357D01*
G37*
%TD.AperFunction*%
%TD*%
M02*
