%TF.GenerationSoftware,KiCad,Pcbnew,5.1.7-a382d34a8~88~ubuntu20.04.1*%
%TF.CreationDate,2021-06-18T16:23:43+02:00*%
%TF.ProjectId,Shield_Nucleo,53686965-6c64-45f4-9e75-636c656f2e6b,rev?*%
%TF.SameCoordinates,Original*%
%TF.FileFunction,Paste,Top*%
%TF.FilePolarity,Positive*%
%FSLAX46Y46*%
G04 Gerber Fmt 4.6, Leading zero omitted, Abs format (unit mm)*
G04 Created by KiCad (PCBNEW 5.1.7-a382d34a8~88~ubuntu20.04.1) date 2021-06-18 16:23:43*
%MOMM*%
%LPD*%
G01*
G04 APERTURE LIST*
%ADD10R,0.900000X0.800000*%
%ADD11R,2.200000X5.600000*%
%ADD12R,1.200000X3.200000*%
%ADD13R,2.500000X2.500000*%
%ADD14R,0.900000X1.000000*%
%ADD15R,2.400000X0.740000*%
%ADD16C,0.150000*%
%ADD17R,1.780000X2.000000*%
%ADD18R,2.300000X2.500000*%
%ADD19R,1.200000X0.900000*%
%ADD20R,2.000000X1.500000*%
%ADD21R,2.000000X3.800000*%
G04 APERTURE END LIST*
D10*
%TO.C,U10*%
X95400000Y-129150000D03*
X93400000Y-130100000D03*
X93400000Y-128200000D03*
%TD*%
%TO.C,C44*%
G36*
G01*
X93950000Y-125925000D02*
X93950000Y-126875000D01*
G75*
G02*
X93700000Y-127125000I-250000J0D01*
G01*
X93200000Y-127125000D01*
G75*
G02*
X92950000Y-126875000I0J250000D01*
G01*
X92950000Y-125925000D01*
G75*
G02*
X93200000Y-125675000I250000J0D01*
G01*
X93700000Y-125675000D01*
G75*
G02*
X93950000Y-125925000I0J-250000D01*
G01*
G37*
G36*
G01*
X95850000Y-125925000D02*
X95850000Y-126875000D01*
G75*
G02*
X95600000Y-127125000I-250000J0D01*
G01*
X95100000Y-127125000D01*
G75*
G02*
X94850000Y-126875000I0J250000D01*
G01*
X94850000Y-125925000D01*
G75*
G02*
X95100000Y-125675000I250000J0D01*
G01*
X95600000Y-125675000D01*
G75*
G02*
X95850000Y-125925000I0J-250000D01*
G01*
G37*
%TD*%
%TO.C,C43*%
G36*
G01*
X94850000Y-132275000D02*
X94850000Y-131325000D01*
G75*
G02*
X95100000Y-131075000I250000J0D01*
G01*
X95600000Y-131075000D01*
G75*
G02*
X95850000Y-131325000I0J-250000D01*
G01*
X95850000Y-132275000D01*
G75*
G02*
X95600000Y-132525000I-250000J0D01*
G01*
X95100000Y-132525000D01*
G75*
G02*
X94850000Y-132275000I0J250000D01*
G01*
G37*
G36*
G01*
X92950000Y-132275000D02*
X92950000Y-131325000D01*
G75*
G02*
X93200000Y-131075000I250000J0D01*
G01*
X93700000Y-131075000D01*
G75*
G02*
X93950000Y-131325000I0J-250000D01*
G01*
X93950000Y-132275000D01*
G75*
G02*
X93700000Y-132525000I-250000J0D01*
G01*
X93200000Y-132525000D01*
G75*
G02*
X92950000Y-132275000I0J250000D01*
G01*
G37*
%TD*%
%TO.C,C14*%
G36*
G01*
X101582322Y-95254073D02*
X102254073Y-94582322D01*
G75*
G02*
X102607627Y-94582322I176777J-176777D01*
G01*
X102961180Y-94935875D01*
G75*
G02*
X102961180Y-95289429I-176777J-176777D01*
G01*
X102289429Y-95961180D01*
G75*
G02*
X101935875Y-95961180I-176777J176777D01*
G01*
X101582322Y-95607627D01*
G75*
G02*
X101582322Y-95254073I176777J176777D01*
G01*
G37*
G36*
G01*
X100238820Y-93910571D02*
X100910571Y-93238820D01*
G75*
G02*
X101264125Y-93238820I176777J-176777D01*
G01*
X101617678Y-93592373D01*
G75*
G02*
X101617678Y-93945927I-176777J-176777D01*
G01*
X100945927Y-94617678D01*
G75*
G02*
X100592373Y-94617678I-176777J176777D01*
G01*
X100238820Y-94264125D01*
G75*
G02*
X100238820Y-93910571I176777J176777D01*
G01*
G37*
%TD*%
%TO.C,R26*%
G36*
G01*
X117930000Y-109450001D02*
X117930000Y-108549999D01*
G75*
G02*
X118179999Y-108300000I249999J0D01*
G01*
X118705001Y-108300000D01*
G75*
G02*
X118955000Y-108549999I0J-249999D01*
G01*
X118955000Y-109450001D01*
G75*
G02*
X118705001Y-109700000I-249999J0D01*
G01*
X118179999Y-109700000D01*
G75*
G02*
X117930000Y-109450001I0J249999D01*
G01*
G37*
G36*
G01*
X116105000Y-109450001D02*
X116105000Y-108549999D01*
G75*
G02*
X116354999Y-108300000I249999J0D01*
G01*
X116880001Y-108300000D01*
G75*
G02*
X117130000Y-108549999I0J-249999D01*
G01*
X117130000Y-109450001D01*
G75*
G02*
X116880001Y-109700000I-249999J0D01*
G01*
X116354999Y-109700000D01*
G75*
G02*
X116105000Y-109450001I0J249999D01*
G01*
G37*
%TD*%
%TO.C,LED2*%
G36*
G01*
X118020000Y-107371250D02*
X118020000Y-106458750D01*
G75*
G02*
X118263750Y-106215000I243750J0D01*
G01*
X118751250Y-106215000D01*
G75*
G02*
X118995000Y-106458750I0J-243750D01*
G01*
X118995000Y-107371250D01*
G75*
G02*
X118751250Y-107615000I-243750J0D01*
G01*
X118263750Y-107615000D01*
G75*
G02*
X118020000Y-107371250I0J243750D01*
G01*
G37*
G36*
G01*
X116145000Y-107371250D02*
X116145000Y-106458750D01*
G75*
G02*
X116388750Y-106215000I243750J0D01*
G01*
X116876250Y-106215000D01*
G75*
G02*
X117120000Y-106458750I0J-243750D01*
G01*
X117120000Y-107371250D01*
G75*
G02*
X116876250Y-107615000I-243750J0D01*
G01*
X116388750Y-107615000D01*
G75*
G02*
X116145000Y-107371250I0J243750D01*
G01*
G37*
%TD*%
%TO.C,C42*%
G36*
G01*
X99745927Y-97182322D02*
X100417678Y-97854073D01*
G75*
G02*
X100417678Y-98207627I-176777J-176777D01*
G01*
X100064125Y-98561180D01*
G75*
G02*
X99710571Y-98561180I-176777J176777D01*
G01*
X99038820Y-97889429D01*
G75*
G02*
X99038820Y-97535875I176777J176777D01*
G01*
X99392373Y-97182322D01*
G75*
G02*
X99745927Y-97182322I176777J-176777D01*
G01*
G37*
G36*
G01*
X101089429Y-95838820D02*
X101761180Y-96510571D01*
G75*
G02*
X101761180Y-96864125I-176777J-176777D01*
G01*
X101407627Y-97217678D01*
G75*
G02*
X101054073Y-97217678I-176777J176777D01*
G01*
X100382322Y-96545927D01*
G75*
G02*
X100382322Y-96192373I176777J176777D01*
G01*
X100735875Y-95838820D01*
G75*
G02*
X101089429Y-95838820I176777J-176777D01*
G01*
G37*
%TD*%
%TO.C,C41*%
G36*
G01*
X98474176Y-95854073D02*
X99145927Y-96525824D01*
G75*
G02*
X99145927Y-96879378I-176777J-176777D01*
G01*
X98792374Y-97232931D01*
G75*
G02*
X98438820Y-97232931I-176777J176777D01*
G01*
X97767069Y-96561180D01*
G75*
G02*
X97767069Y-96207626I176777J176777D01*
G01*
X98120622Y-95854073D01*
G75*
G02*
X98474176Y-95854073I176777J-176777D01*
G01*
G37*
G36*
G01*
X99817678Y-94510571D02*
X100489429Y-95182322D01*
G75*
G02*
X100489429Y-95535876I-176777J-176777D01*
G01*
X100135876Y-95889429D01*
G75*
G02*
X99782322Y-95889429I-176777J176777D01*
G01*
X99110571Y-95217678D01*
G75*
G02*
X99110571Y-94864124I176777J176777D01*
G01*
X99464124Y-94510571D01*
G75*
G02*
X99817678Y-94510571I176777J-176777D01*
G01*
G37*
%TD*%
D11*
%TO.C,J6*%
X119500000Y-132400000D03*
D12*
X116250000Y-128150000D03*
X113750000Y-128150000D03*
D11*
X110500000Y-132400000D03*
%TD*%
%TO.C,J1*%
X138900000Y-132400000D03*
D12*
X135650000Y-128150000D03*
X133150000Y-128150000D03*
D11*
X129900000Y-132400000D03*
%TD*%
D13*
%TO.C,PS5*%
X64300000Y-127800000D03*
X64300000Y-116800000D03*
X76300000Y-116800000D03*
X76300000Y-127800000D03*
%TD*%
%TO.C,U6*%
G36*
G01*
X121215000Y-65610000D02*
X120915000Y-65610000D01*
G75*
G02*
X120765000Y-65460000I0J150000D01*
G01*
X120765000Y-63810000D01*
G75*
G02*
X120915000Y-63660000I150000J0D01*
G01*
X121215000Y-63660000D01*
G75*
G02*
X121365000Y-63810000I0J-150000D01*
G01*
X121365000Y-65460000D01*
G75*
G02*
X121215000Y-65610000I-150000J0D01*
G01*
G37*
G36*
G01*
X122485000Y-65610000D02*
X122185000Y-65610000D01*
G75*
G02*
X122035000Y-65460000I0J150000D01*
G01*
X122035000Y-63810000D01*
G75*
G02*
X122185000Y-63660000I150000J0D01*
G01*
X122485000Y-63660000D01*
G75*
G02*
X122635000Y-63810000I0J-150000D01*
G01*
X122635000Y-65460000D01*
G75*
G02*
X122485000Y-65610000I-150000J0D01*
G01*
G37*
G36*
G01*
X123755000Y-65610000D02*
X123455000Y-65610000D01*
G75*
G02*
X123305000Y-65460000I0J150000D01*
G01*
X123305000Y-63810000D01*
G75*
G02*
X123455000Y-63660000I150000J0D01*
G01*
X123755000Y-63660000D01*
G75*
G02*
X123905000Y-63810000I0J-150000D01*
G01*
X123905000Y-65460000D01*
G75*
G02*
X123755000Y-65610000I-150000J0D01*
G01*
G37*
G36*
G01*
X125025000Y-65610000D02*
X124725000Y-65610000D01*
G75*
G02*
X124575000Y-65460000I0J150000D01*
G01*
X124575000Y-63810000D01*
G75*
G02*
X124725000Y-63660000I150000J0D01*
G01*
X125025000Y-63660000D01*
G75*
G02*
X125175000Y-63810000I0J-150000D01*
G01*
X125175000Y-65460000D01*
G75*
G02*
X125025000Y-65610000I-150000J0D01*
G01*
G37*
G36*
G01*
X126295000Y-65610000D02*
X125995000Y-65610000D01*
G75*
G02*
X125845000Y-65460000I0J150000D01*
G01*
X125845000Y-63810000D01*
G75*
G02*
X125995000Y-63660000I150000J0D01*
G01*
X126295000Y-63660000D01*
G75*
G02*
X126445000Y-63810000I0J-150000D01*
G01*
X126445000Y-65460000D01*
G75*
G02*
X126295000Y-65610000I-150000J0D01*
G01*
G37*
G36*
G01*
X127565000Y-65610000D02*
X127265000Y-65610000D01*
G75*
G02*
X127115000Y-65460000I0J150000D01*
G01*
X127115000Y-63810000D01*
G75*
G02*
X127265000Y-63660000I150000J0D01*
G01*
X127565000Y-63660000D01*
G75*
G02*
X127715000Y-63810000I0J-150000D01*
G01*
X127715000Y-65460000D01*
G75*
G02*
X127565000Y-65610000I-150000J0D01*
G01*
G37*
G36*
G01*
X128835000Y-65610000D02*
X128535000Y-65610000D01*
G75*
G02*
X128385000Y-65460000I0J150000D01*
G01*
X128385000Y-63810000D01*
G75*
G02*
X128535000Y-63660000I150000J0D01*
G01*
X128835000Y-63660000D01*
G75*
G02*
X128985000Y-63810000I0J-150000D01*
G01*
X128985000Y-65460000D01*
G75*
G02*
X128835000Y-65610000I-150000J0D01*
G01*
G37*
G36*
G01*
X130105000Y-65610000D02*
X129805000Y-65610000D01*
G75*
G02*
X129655000Y-65460000I0J150000D01*
G01*
X129655000Y-63810000D01*
G75*
G02*
X129805000Y-63660000I150000J0D01*
G01*
X130105000Y-63660000D01*
G75*
G02*
X130255000Y-63810000I0J-150000D01*
G01*
X130255000Y-65460000D01*
G75*
G02*
X130105000Y-65610000I-150000J0D01*
G01*
G37*
G36*
G01*
X130105000Y-70560000D02*
X129805000Y-70560000D01*
G75*
G02*
X129655000Y-70410000I0J150000D01*
G01*
X129655000Y-68760000D01*
G75*
G02*
X129805000Y-68610000I150000J0D01*
G01*
X130105000Y-68610000D01*
G75*
G02*
X130255000Y-68760000I0J-150000D01*
G01*
X130255000Y-70410000D01*
G75*
G02*
X130105000Y-70560000I-150000J0D01*
G01*
G37*
G36*
G01*
X128835000Y-70560000D02*
X128535000Y-70560000D01*
G75*
G02*
X128385000Y-70410000I0J150000D01*
G01*
X128385000Y-68760000D01*
G75*
G02*
X128535000Y-68610000I150000J0D01*
G01*
X128835000Y-68610000D01*
G75*
G02*
X128985000Y-68760000I0J-150000D01*
G01*
X128985000Y-70410000D01*
G75*
G02*
X128835000Y-70560000I-150000J0D01*
G01*
G37*
G36*
G01*
X127565000Y-70560000D02*
X127265000Y-70560000D01*
G75*
G02*
X127115000Y-70410000I0J150000D01*
G01*
X127115000Y-68760000D01*
G75*
G02*
X127265000Y-68610000I150000J0D01*
G01*
X127565000Y-68610000D01*
G75*
G02*
X127715000Y-68760000I0J-150000D01*
G01*
X127715000Y-70410000D01*
G75*
G02*
X127565000Y-70560000I-150000J0D01*
G01*
G37*
G36*
G01*
X126295000Y-70560000D02*
X125995000Y-70560000D01*
G75*
G02*
X125845000Y-70410000I0J150000D01*
G01*
X125845000Y-68760000D01*
G75*
G02*
X125995000Y-68610000I150000J0D01*
G01*
X126295000Y-68610000D01*
G75*
G02*
X126445000Y-68760000I0J-150000D01*
G01*
X126445000Y-70410000D01*
G75*
G02*
X126295000Y-70560000I-150000J0D01*
G01*
G37*
G36*
G01*
X125025000Y-70560000D02*
X124725000Y-70560000D01*
G75*
G02*
X124575000Y-70410000I0J150000D01*
G01*
X124575000Y-68760000D01*
G75*
G02*
X124725000Y-68610000I150000J0D01*
G01*
X125025000Y-68610000D01*
G75*
G02*
X125175000Y-68760000I0J-150000D01*
G01*
X125175000Y-70410000D01*
G75*
G02*
X125025000Y-70560000I-150000J0D01*
G01*
G37*
G36*
G01*
X123755000Y-70560000D02*
X123455000Y-70560000D01*
G75*
G02*
X123305000Y-70410000I0J150000D01*
G01*
X123305000Y-68760000D01*
G75*
G02*
X123455000Y-68610000I150000J0D01*
G01*
X123755000Y-68610000D01*
G75*
G02*
X123905000Y-68760000I0J-150000D01*
G01*
X123905000Y-70410000D01*
G75*
G02*
X123755000Y-70560000I-150000J0D01*
G01*
G37*
G36*
G01*
X122485000Y-70560000D02*
X122185000Y-70560000D01*
G75*
G02*
X122035000Y-70410000I0J150000D01*
G01*
X122035000Y-68760000D01*
G75*
G02*
X122185000Y-68610000I150000J0D01*
G01*
X122485000Y-68610000D01*
G75*
G02*
X122635000Y-68760000I0J-150000D01*
G01*
X122635000Y-70410000D01*
G75*
G02*
X122485000Y-70560000I-150000J0D01*
G01*
G37*
G36*
G01*
X121215000Y-70560000D02*
X120915000Y-70560000D01*
G75*
G02*
X120765000Y-70410000I0J150000D01*
G01*
X120765000Y-68760000D01*
G75*
G02*
X120915000Y-68610000I150000J0D01*
G01*
X121215000Y-68610000D01*
G75*
G02*
X121365000Y-68760000I0J-150000D01*
G01*
X121365000Y-70410000D01*
G75*
G02*
X121215000Y-70560000I-150000J0D01*
G01*
G37*
%TD*%
%TO.C,U5*%
G36*
G01*
X88785000Y-65620000D02*
X88485000Y-65620000D01*
G75*
G02*
X88335000Y-65470000I0J150000D01*
G01*
X88335000Y-63820000D01*
G75*
G02*
X88485000Y-63670000I150000J0D01*
G01*
X88785000Y-63670000D01*
G75*
G02*
X88935000Y-63820000I0J-150000D01*
G01*
X88935000Y-65470000D01*
G75*
G02*
X88785000Y-65620000I-150000J0D01*
G01*
G37*
G36*
G01*
X90055000Y-65620000D02*
X89755000Y-65620000D01*
G75*
G02*
X89605000Y-65470000I0J150000D01*
G01*
X89605000Y-63820000D01*
G75*
G02*
X89755000Y-63670000I150000J0D01*
G01*
X90055000Y-63670000D01*
G75*
G02*
X90205000Y-63820000I0J-150000D01*
G01*
X90205000Y-65470000D01*
G75*
G02*
X90055000Y-65620000I-150000J0D01*
G01*
G37*
G36*
G01*
X91325000Y-65620000D02*
X91025000Y-65620000D01*
G75*
G02*
X90875000Y-65470000I0J150000D01*
G01*
X90875000Y-63820000D01*
G75*
G02*
X91025000Y-63670000I150000J0D01*
G01*
X91325000Y-63670000D01*
G75*
G02*
X91475000Y-63820000I0J-150000D01*
G01*
X91475000Y-65470000D01*
G75*
G02*
X91325000Y-65620000I-150000J0D01*
G01*
G37*
G36*
G01*
X92595000Y-65620000D02*
X92295000Y-65620000D01*
G75*
G02*
X92145000Y-65470000I0J150000D01*
G01*
X92145000Y-63820000D01*
G75*
G02*
X92295000Y-63670000I150000J0D01*
G01*
X92595000Y-63670000D01*
G75*
G02*
X92745000Y-63820000I0J-150000D01*
G01*
X92745000Y-65470000D01*
G75*
G02*
X92595000Y-65620000I-150000J0D01*
G01*
G37*
G36*
G01*
X93865000Y-65620000D02*
X93565000Y-65620000D01*
G75*
G02*
X93415000Y-65470000I0J150000D01*
G01*
X93415000Y-63820000D01*
G75*
G02*
X93565000Y-63670000I150000J0D01*
G01*
X93865000Y-63670000D01*
G75*
G02*
X94015000Y-63820000I0J-150000D01*
G01*
X94015000Y-65470000D01*
G75*
G02*
X93865000Y-65620000I-150000J0D01*
G01*
G37*
G36*
G01*
X95135000Y-65620000D02*
X94835000Y-65620000D01*
G75*
G02*
X94685000Y-65470000I0J150000D01*
G01*
X94685000Y-63820000D01*
G75*
G02*
X94835000Y-63670000I150000J0D01*
G01*
X95135000Y-63670000D01*
G75*
G02*
X95285000Y-63820000I0J-150000D01*
G01*
X95285000Y-65470000D01*
G75*
G02*
X95135000Y-65620000I-150000J0D01*
G01*
G37*
G36*
G01*
X96405000Y-65620000D02*
X96105000Y-65620000D01*
G75*
G02*
X95955000Y-65470000I0J150000D01*
G01*
X95955000Y-63820000D01*
G75*
G02*
X96105000Y-63670000I150000J0D01*
G01*
X96405000Y-63670000D01*
G75*
G02*
X96555000Y-63820000I0J-150000D01*
G01*
X96555000Y-65470000D01*
G75*
G02*
X96405000Y-65620000I-150000J0D01*
G01*
G37*
G36*
G01*
X97675000Y-65620000D02*
X97375000Y-65620000D01*
G75*
G02*
X97225000Y-65470000I0J150000D01*
G01*
X97225000Y-63820000D01*
G75*
G02*
X97375000Y-63670000I150000J0D01*
G01*
X97675000Y-63670000D01*
G75*
G02*
X97825000Y-63820000I0J-150000D01*
G01*
X97825000Y-65470000D01*
G75*
G02*
X97675000Y-65620000I-150000J0D01*
G01*
G37*
G36*
G01*
X97675000Y-70570000D02*
X97375000Y-70570000D01*
G75*
G02*
X97225000Y-70420000I0J150000D01*
G01*
X97225000Y-68770000D01*
G75*
G02*
X97375000Y-68620000I150000J0D01*
G01*
X97675000Y-68620000D01*
G75*
G02*
X97825000Y-68770000I0J-150000D01*
G01*
X97825000Y-70420000D01*
G75*
G02*
X97675000Y-70570000I-150000J0D01*
G01*
G37*
G36*
G01*
X96405000Y-70570000D02*
X96105000Y-70570000D01*
G75*
G02*
X95955000Y-70420000I0J150000D01*
G01*
X95955000Y-68770000D01*
G75*
G02*
X96105000Y-68620000I150000J0D01*
G01*
X96405000Y-68620000D01*
G75*
G02*
X96555000Y-68770000I0J-150000D01*
G01*
X96555000Y-70420000D01*
G75*
G02*
X96405000Y-70570000I-150000J0D01*
G01*
G37*
G36*
G01*
X95135000Y-70570000D02*
X94835000Y-70570000D01*
G75*
G02*
X94685000Y-70420000I0J150000D01*
G01*
X94685000Y-68770000D01*
G75*
G02*
X94835000Y-68620000I150000J0D01*
G01*
X95135000Y-68620000D01*
G75*
G02*
X95285000Y-68770000I0J-150000D01*
G01*
X95285000Y-70420000D01*
G75*
G02*
X95135000Y-70570000I-150000J0D01*
G01*
G37*
G36*
G01*
X93865000Y-70570000D02*
X93565000Y-70570000D01*
G75*
G02*
X93415000Y-70420000I0J150000D01*
G01*
X93415000Y-68770000D01*
G75*
G02*
X93565000Y-68620000I150000J0D01*
G01*
X93865000Y-68620000D01*
G75*
G02*
X94015000Y-68770000I0J-150000D01*
G01*
X94015000Y-70420000D01*
G75*
G02*
X93865000Y-70570000I-150000J0D01*
G01*
G37*
G36*
G01*
X92595000Y-70570000D02*
X92295000Y-70570000D01*
G75*
G02*
X92145000Y-70420000I0J150000D01*
G01*
X92145000Y-68770000D01*
G75*
G02*
X92295000Y-68620000I150000J0D01*
G01*
X92595000Y-68620000D01*
G75*
G02*
X92745000Y-68770000I0J-150000D01*
G01*
X92745000Y-70420000D01*
G75*
G02*
X92595000Y-70570000I-150000J0D01*
G01*
G37*
G36*
G01*
X91325000Y-70570000D02*
X91025000Y-70570000D01*
G75*
G02*
X90875000Y-70420000I0J150000D01*
G01*
X90875000Y-68770000D01*
G75*
G02*
X91025000Y-68620000I150000J0D01*
G01*
X91325000Y-68620000D01*
G75*
G02*
X91475000Y-68770000I0J-150000D01*
G01*
X91475000Y-70420000D01*
G75*
G02*
X91325000Y-70570000I-150000J0D01*
G01*
G37*
G36*
G01*
X90055000Y-70570000D02*
X89755000Y-70570000D01*
G75*
G02*
X89605000Y-70420000I0J150000D01*
G01*
X89605000Y-68770000D01*
G75*
G02*
X89755000Y-68620000I150000J0D01*
G01*
X90055000Y-68620000D01*
G75*
G02*
X90205000Y-68770000I0J-150000D01*
G01*
X90205000Y-70420000D01*
G75*
G02*
X90055000Y-70570000I-150000J0D01*
G01*
G37*
G36*
G01*
X88785000Y-70570000D02*
X88485000Y-70570000D01*
G75*
G02*
X88335000Y-70420000I0J150000D01*
G01*
X88335000Y-68770000D01*
G75*
G02*
X88485000Y-68620000I150000J0D01*
G01*
X88785000Y-68620000D01*
G75*
G02*
X88935000Y-68770000I0J-150000D01*
G01*
X88935000Y-70420000D01*
G75*
G02*
X88785000Y-70570000I-150000J0D01*
G01*
G37*
%TD*%
%TO.C,U3*%
G36*
G01*
X62565000Y-71260000D02*
X62265000Y-71260000D01*
G75*
G02*
X62115000Y-71110000I0J150000D01*
G01*
X62115000Y-69460000D01*
G75*
G02*
X62265000Y-69310000I150000J0D01*
G01*
X62565000Y-69310000D01*
G75*
G02*
X62715000Y-69460000I0J-150000D01*
G01*
X62715000Y-71110000D01*
G75*
G02*
X62565000Y-71260000I-150000J0D01*
G01*
G37*
G36*
G01*
X63835000Y-71260000D02*
X63535000Y-71260000D01*
G75*
G02*
X63385000Y-71110000I0J150000D01*
G01*
X63385000Y-69460000D01*
G75*
G02*
X63535000Y-69310000I150000J0D01*
G01*
X63835000Y-69310000D01*
G75*
G02*
X63985000Y-69460000I0J-150000D01*
G01*
X63985000Y-71110000D01*
G75*
G02*
X63835000Y-71260000I-150000J0D01*
G01*
G37*
G36*
G01*
X65105000Y-71260000D02*
X64805000Y-71260000D01*
G75*
G02*
X64655000Y-71110000I0J150000D01*
G01*
X64655000Y-69460000D01*
G75*
G02*
X64805000Y-69310000I150000J0D01*
G01*
X65105000Y-69310000D01*
G75*
G02*
X65255000Y-69460000I0J-150000D01*
G01*
X65255000Y-71110000D01*
G75*
G02*
X65105000Y-71260000I-150000J0D01*
G01*
G37*
G36*
G01*
X66375000Y-71260000D02*
X66075000Y-71260000D01*
G75*
G02*
X65925000Y-71110000I0J150000D01*
G01*
X65925000Y-69460000D01*
G75*
G02*
X66075000Y-69310000I150000J0D01*
G01*
X66375000Y-69310000D01*
G75*
G02*
X66525000Y-69460000I0J-150000D01*
G01*
X66525000Y-71110000D01*
G75*
G02*
X66375000Y-71260000I-150000J0D01*
G01*
G37*
G36*
G01*
X66375000Y-76210000D02*
X66075000Y-76210000D01*
G75*
G02*
X65925000Y-76060000I0J150000D01*
G01*
X65925000Y-74410000D01*
G75*
G02*
X66075000Y-74260000I150000J0D01*
G01*
X66375000Y-74260000D01*
G75*
G02*
X66525000Y-74410000I0J-150000D01*
G01*
X66525000Y-76060000D01*
G75*
G02*
X66375000Y-76210000I-150000J0D01*
G01*
G37*
G36*
G01*
X65105000Y-76210000D02*
X64805000Y-76210000D01*
G75*
G02*
X64655000Y-76060000I0J150000D01*
G01*
X64655000Y-74410000D01*
G75*
G02*
X64805000Y-74260000I150000J0D01*
G01*
X65105000Y-74260000D01*
G75*
G02*
X65255000Y-74410000I0J-150000D01*
G01*
X65255000Y-76060000D01*
G75*
G02*
X65105000Y-76210000I-150000J0D01*
G01*
G37*
G36*
G01*
X63835000Y-76210000D02*
X63535000Y-76210000D01*
G75*
G02*
X63385000Y-76060000I0J150000D01*
G01*
X63385000Y-74410000D01*
G75*
G02*
X63535000Y-74260000I150000J0D01*
G01*
X63835000Y-74260000D01*
G75*
G02*
X63985000Y-74410000I0J-150000D01*
G01*
X63985000Y-76060000D01*
G75*
G02*
X63835000Y-76210000I-150000J0D01*
G01*
G37*
G36*
G01*
X62565000Y-76210000D02*
X62265000Y-76210000D01*
G75*
G02*
X62115000Y-76060000I0J150000D01*
G01*
X62115000Y-74410000D01*
G75*
G02*
X62265000Y-74260000I150000J0D01*
G01*
X62565000Y-74260000D01*
G75*
G02*
X62715000Y-74410000I0J-150000D01*
G01*
X62715000Y-76060000D01*
G75*
G02*
X62565000Y-76210000I-150000J0D01*
G01*
G37*
%TD*%
%TO.C,U2*%
G36*
G01*
X109798367Y-88780312D02*
X109586235Y-88992444D01*
G75*
G02*
X109374103Y-88992444I-106066J106066D01*
G01*
X108207377Y-87825718D01*
G75*
G02*
X108207377Y-87613586I106066J106066D01*
G01*
X108419509Y-87401454D01*
G75*
G02*
X108631641Y-87401454I106066J-106066D01*
G01*
X109798367Y-88568180D01*
G75*
G02*
X109798367Y-88780312I-106066J-106066D01*
G01*
G37*
G36*
G01*
X110696393Y-87882287D02*
X110484261Y-88094419D01*
G75*
G02*
X110272129Y-88094419I-106066J106066D01*
G01*
X109105403Y-86927693D01*
G75*
G02*
X109105403Y-86715561I106066J106066D01*
G01*
X109317535Y-86503429D01*
G75*
G02*
X109529667Y-86503429I106066J-106066D01*
G01*
X110696393Y-87670155D01*
G75*
G02*
X110696393Y-87882287I-106066J-106066D01*
G01*
G37*
G36*
G01*
X111594419Y-86984261D02*
X111382287Y-87196393D01*
G75*
G02*
X111170155Y-87196393I-106066J106066D01*
G01*
X110003429Y-86029667D01*
G75*
G02*
X110003429Y-85817535I106066J106066D01*
G01*
X110215561Y-85605403D01*
G75*
G02*
X110427693Y-85605403I106066J-106066D01*
G01*
X111594419Y-86772129D01*
G75*
G02*
X111594419Y-86984261I-106066J-106066D01*
G01*
G37*
G36*
G01*
X112492444Y-86086235D02*
X112280312Y-86298367D01*
G75*
G02*
X112068180Y-86298367I-106066J106066D01*
G01*
X110901454Y-85131641D01*
G75*
G02*
X110901454Y-84919509I106066J106066D01*
G01*
X111113586Y-84707377D01*
G75*
G02*
X111325718Y-84707377I106066J-106066D01*
G01*
X112492444Y-85874103D01*
G75*
G02*
X112492444Y-86086235I-106066J-106066D01*
G01*
G37*
G36*
G01*
X115992623Y-89586414D02*
X115780491Y-89798546D01*
G75*
G02*
X115568359Y-89798546I-106066J106066D01*
G01*
X114401633Y-88631820D01*
G75*
G02*
X114401633Y-88419688I106066J106066D01*
G01*
X114613765Y-88207556D01*
G75*
G02*
X114825897Y-88207556I106066J-106066D01*
G01*
X115992623Y-89374282D01*
G75*
G02*
X115992623Y-89586414I-106066J-106066D01*
G01*
G37*
G36*
G01*
X115094597Y-90484439D02*
X114882465Y-90696571D01*
G75*
G02*
X114670333Y-90696571I-106066J106066D01*
G01*
X113503607Y-89529845D01*
G75*
G02*
X113503607Y-89317713I106066J106066D01*
G01*
X113715739Y-89105581D01*
G75*
G02*
X113927871Y-89105581I106066J-106066D01*
G01*
X115094597Y-90272307D01*
G75*
G02*
X115094597Y-90484439I-106066J-106066D01*
G01*
G37*
G36*
G01*
X114196571Y-91382465D02*
X113984439Y-91594597D01*
G75*
G02*
X113772307Y-91594597I-106066J106066D01*
G01*
X112605581Y-90427871D01*
G75*
G02*
X112605581Y-90215739I106066J106066D01*
G01*
X112817713Y-90003607D01*
G75*
G02*
X113029845Y-90003607I106066J-106066D01*
G01*
X114196571Y-91170333D01*
G75*
G02*
X114196571Y-91382465I-106066J-106066D01*
G01*
G37*
G36*
G01*
X113298546Y-92280491D02*
X113086414Y-92492623D01*
G75*
G02*
X112874282Y-92492623I-106066J106066D01*
G01*
X111707556Y-91325897D01*
G75*
G02*
X111707556Y-91113765I106066J106066D01*
G01*
X111919688Y-90901633D01*
G75*
G02*
X112131820Y-90901633I106066J-106066D01*
G01*
X113298546Y-92068359D01*
G75*
G02*
X113298546Y-92280491I-106066J-106066D01*
G01*
G37*
%TD*%
%TO.C,U1*%
G36*
G01*
X86284428Y-89499860D02*
X85294478Y-88509910D01*
G75*
G02*
X85294478Y-88403844I53033J53033D01*
G01*
X85400544Y-88297778D01*
G75*
G02*
X85506610Y-88297778I53033J-53033D01*
G01*
X86496560Y-89287728D01*
G75*
G02*
X86496560Y-89393794I-53033J-53033D01*
G01*
X86390494Y-89499860D01*
G75*
G02*
X86284428Y-89499860I-53033J53033D01*
G01*
G37*
G36*
G01*
X86637981Y-89146307D02*
X85648031Y-88156357D01*
G75*
G02*
X85648031Y-88050291I53033J53033D01*
G01*
X85754097Y-87944225D01*
G75*
G02*
X85860163Y-87944225I53033J-53033D01*
G01*
X86850113Y-88934175D01*
G75*
G02*
X86850113Y-89040241I-53033J-53033D01*
G01*
X86744047Y-89146307D01*
G75*
G02*
X86637981Y-89146307I-53033J53033D01*
G01*
G37*
G36*
G01*
X86991534Y-88792754D02*
X86001584Y-87802804D01*
G75*
G02*
X86001584Y-87696738I53033J53033D01*
G01*
X86107650Y-87590672D01*
G75*
G02*
X86213716Y-87590672I53033J-53033D01*
G01*
X87203666Y-88580622D01*
G75*
G02*
X87203666Y-88686688I-53033J-53033D01*
G01*
X87097600Y-88792754D01*
G75*
G02*
X86991534Y-88792754I-53033J53033D01*
G01*
G37*
G36*
G01*
X87345088Y-88439200D02*
X86355138Y-87449250D01*
G75*
G02*
X86355138Y-87343184I53033J53033D01*
G01*
X86461204Y-87237118D01*
G75*
G02*
X86567270Y-87237118I53033J-53033D01*
G01*
X87557220Y-88227068D01*
G75*
G02*
X87557220Y-88333134I-53033J-53033D01*
G01*
X87451154Y-88439200D01*
G75*
G02*
X87345088Y-88439200I-53033J53033D01*
G01*
G37*
G36*
G01*
X87698641Y-88085647D02*
X86708691Y-87095697D01*
G75*
G02*
X86708691Y-86989631I53033J53033D01*
G01*
X86814757Y-86883565D01*
G75*
G02*
X86920823Y-86883565I53033J-53033D01*
G01*
X87910773Y-87873515D01*
G75*
G02*
X87910773Y-87979581I-53033J-53033D01*
G01*
X87804707Y-88085647D01*
G75*
G02*
X87698641Y-88085647I-53033J53033D01*
G01*
G37*
G36*
G01*
X88052195Y-87732093D02*
X87062245Y-86742143D01*
G75*
G02*
X87062245Y-86636077I53033J53033D01*
G01*
X87168311Y-86530011D01*
G75*
G02*
X87274377Y-86530011I53033J-53033D01*
G01*
X88264327Y-87519961D01*
G75*
G02*
X88264327Y-87626027I-53033J-53033D01*
G01*
X88158261Y-87732093D01*
G75*
G02*
X88052195Y-87732093I-53033J53033D01*
G01*
G37*
G36*
G01*
X88405748Y-87378540D02*
X87415798Y-86388590D01*
G75*
G02*
X87415798Y-86282524I53033J53033D01*
G01*
X87521864Y-86176458D01*
G75*
G02*
X87627930Y-86176458I53033J-53033D01*
G01*
X88617880Y-87166408D01*
G75*
G02*
X88617880Y-87272474I-53033J-53033D01*
G01*
X88511814Y-87378540D01*
G75*
G02*
X88405748Y-87378540I-53033J53033D01*
G01*
G37*
G36*
G01*
X88759301Y-87024987D02*
X87769351Y-86035037D01*
G75*
G02*
X87769351Y-85928971I53033J53033D01*
G01*
X87875417Y-85822905D01*
G75*
G02*
X87981483Y-85822905I53033J-53033D01*
G01*
X88971433Y-86812855D01*
G75*
G02*
X88971433Y-86918921I-53033J-53033D01*
G01*
X88865367Y-87024987D01*
G75*
G02*
X88759301Y-87024987I-53033J53033D01*
G01*
G37*
G36*
G01*
X89112855Y-86671433D02*
X88122905Y-85681483D01*
G75*
G02*
X88122905Y-85575417I53033J53033D01*
G01*
X88228971Y-85469351D01*
G75*
G02*
X88335037Y-85469351I53033J-53033D01*
G01*
X89324987Y-86459301D01*
G75*
G02*
X89324987Y-86565367I-53033J-53033D01*
G01*
X89218921Y-86671433D01*
G75*
G02*
X89112855Y-86671433I-53033J53033D01*
G01*
G37*
G36*
G01*
X89466408Y-86317880D02*
X88476458Y-85327930D01*
G75*
G02*
X88476458Y-85221864I53033J53033D01*
G01*
X88582524Y-85115798D01*
G75*
G02*
X88688590Y-85115798I53033J-53033D01*
G01*
X89678540Y-86105748D01*
G75*
G02*
X89678540Y-86211814I-53033J-53033D01*
G01*
X89572474Y-86317880D01*
G75*
G02*
X89466408Y-86317880I-53033J53033D01*
G01*
G37*
G36*
G01*
X89819961Y-85964327D02*
X88830011Y-84974377D01*
G75*
G02*
X88830011Y-84868311I53033J53033D01*
G01*
X88936077Y-84762245D01*
G75*
G02*
X89042143Y-84762245I53033J-53033D01*
G01*
X90032093Y-85752195D01*
G75*
G02*
X90032093Y-85858261I-53033J-53033D01*
G01*
X89926027Y-85964327D01*
G75*
G02*
X89819961Y-85964327I-53033J53033D01*
G01*
G37*
G36*
G01*
X90173515Y-85610773D02*
X89183565Y-84620823D01*
G75*
G02*
X89183565Y-84514757I53033J53033D01*
G01*
X89289631Y-84408691D01*
G75*
G02*
X89395697Y-84408691I53033J-53033D01*
G01*
X90385647Y-85398641D01*
G75*
G02*
X90385647Y-85504707I-53033J-53033D01*
G01*
X90279581Y-85610773D01*
G75*
G02*
X90173515Y-85610773I-53033J53033D01*
G01*
G37*
G36*
G01*
X90527068Y-85257220D02*
X89537118Y-84267270D01*
G75*
G02*
X89537118Y-84161204I53033J53033D01*
G01*
X89643184Y-84055138D01*
G75*
G02*
X89749250Y-84055138I53033J-53033D01*
G01*
X90739200Y-85045088D01*
G75*
G02*
X90739200Y-85151154I-53033J-53033D01*
G01*
X90633134Y-85257220D01*
G75*
G02*
X90527068Y-85257220I-53033J53033D01*
G01*
G37*
G36*
G01*
X90880622Y-84903666D02*
X89890672Y-83913716D01*
G75*
G02*
X89890672Y-83807650I53033J53033D01*
G01*
X89996738Y-83701584D01*
G75*
G02*
X90102804Y-83701584I53033J-53033D01*
G01*
X91092754Y-84691534D01*
G75*
G02*
X91092754Y-84797600I-53033J-53033D01*
G01*
X90986688Y-84903666D01*
G75*
G02*
X90880622Y-84903666I-53033J53033D01*
G01*
G37*
G36*
G01*
X91234175Y-84550113D02*
X90244225Y-83560163D01*
G75*
G02*
X90244225Y-83454097I53033J53033D01*
G01*
X90350291Y-83348031D01*
G75*
G02*
X90456357Y-83348031I53033J-53033D01*
G01*
X91446307Y-84337981D01*
G75*
G02*
X91446307Y-84444047I-53033J-53033D01*
G01*
X91340241Y-84550113D01*
G75*
G02*
X91234175Y-84550113I-53033J53033D01*
G01*
G37*
G36*
G01*
X91587728Y-84196560D02*
X90597778Y-83206610D01*
G75*
G02*
X90597778Y-83100544I53033J53033D01*
G01*
X90703844Y-82994478D01*
G75*
G02*
X90809910Y-82994478I53033J-53033D01*
G01*
X91799860Y-83984428D01*
G75*
G02*
X91799860Y-84090494I-53033J-53033D01*
G01*
X91693794Y-84196560D01*
G75*
G02*
X91587728Y-84196560I-53033J53033D01*
G01*
G37*
G36*
G01*
X93426206Y-84196560D02*
X93320140Y-84090494D01*
G75*
G02*
X93320140Y-83984428I53033J53033D01*
G01*
X94310090Y-82994478D01*
G75*
G02*
X94416156Y-82994478I53033J-53033D01*
G01*
X94522222Y-83100544D01*
G75*
G02*
X94522222Y-83206610I-53033J-53033D01*
G01*
X93532272Y-84196560D01*
G75*
G02*
X93426206Y-84196560I-53033J53033D01*
G01*
G37*
G36*
G01*
X93779759Y-84550113D02*
X93673693Y-84444047D01*
G75*
G02*
X93673693Y-84337981I53033J53033D01*
G01*
X94663643Y-83348031D01*
G75*
G02*
X94769709Y-83348031I53033J-53033D01*
G01*
X94875775Y-83454097D01*
G75*
G02*
X94875775Y-83560163I-53033J-53033D01*
G01*
X93885825Y-84550113D01*
G75*
G02*
X93779759Y-84550113I-53033J53033D01*
G01*
G37*
G36*
G01*
X94133312Y-84903666D02*
X94027246Y-84797600D01*
G75*
G02*
X94027246Y-84691534I53033J53033D01*
G01*
X95017196Y-83701584D01*
G75*
G02*
X95123262Y-83701584I53033J-53033D01*
G01*
X95229328Y-83807650D01*
G75*
G02*
X95229328Y-83913716I-53033J-53033D01*
G01*
X94239378Y-84903666D01*
G75*
G02*
X94133312Y-84903666I-53033J53033D01*
G01*
G37*
G36*
G01*
X94486866Y-85257220D02*
X94380800Y-85151154D01*
G75*
G02*
X94380800Y-85045088I53033J53033D01*
G01*
X95370750Y-84055138D01*
G75*
G02*
X95476816Y-84055138I53033J-53033D01*
G01*
X95582882Y-84161204D01*
G75*
G02*
X95582882Y-84267270I-53033J-53033D01*
G01*
X94592932Y-85257220D01*
G75*
G02*
X94486866Y-85257220I-53033J53033D01*
G01*
G37*
G36*
G01*
X94840419Y-85610773D02*
X94734353Y-85504707D01*
G75*
G02*
X94734353Y-85398641I53033J53033D01*
G01*
X95724303Y-84408691D01*
G75*
G02*
X95830369Y-84408691I53033J-53033D01*
G01*
X95936435Y-84514757D01*
G75*
G02*
X95936435Y-84620823I-53033J-53033D01*
G01*
X94946485Y-85610773D01*
G75*
G02*
X94840419Y-85610773I-53033J53033D01*
G01*
G37*
G36*
G01*
X95193973Y-85964327D02*
X95087907Y-85858261D01*
G75*
G02*
X95087907Y-85752195I53033J53033D01*
G01*
X96077857Y-84762245D01*
G75*
G02*
X96183923Y-84762245I53033J-53033D01*
G01*
X96289989Y-84868311D01*
G75*
G02*
X96289989Y-84974377I-53033J-53033D01*
G01*
X95300039Y-85964327D01*
G75*
G02*
X95193973Y-85964327I-53033J53033D01*
G01*
G37*
G36*
G01*
X95547526Y-86317880D02*
X95441460Y-86211814D01*
G75*
G02*
X95441460Y-86105748I53033J53033D01*
G01*
X96431410Y-85115798D01*
G75*
G02*
X96537476Y-85115798I53033J-53033D01*
G01*
X96643542Y-85221864D01*
G75*
G02*
X96643542Y-85327930I-53033J-53033D01*
G01*
X95653592Y-86317880D01*
G75*
G02*
X95547526Y-86317880I-53033J53033D01*
G01*
G37*
G36*
G01*
X95901079Y-86671433D02*
X95795013Y-86565367D01*
G75*
G02*
X95795013Y-86459301I53033J53033D01*
G01*
X96784963Y-85469351D01*
G75*
G02*
X96891029Y-85469351I53033J-53033D01*
G01*
X96997095Y-85575417D01*
G75*
G02*
X96997095Y-85681483I-53033J-53033D01*
G01*
X96007145Y-86671433D01*
G75*
G02*
X95901079Y-86671433I-53033J53033D01*
G01*
G37*
G36*
G01*
X96254633Y-87024987D02*
X96148567Y-86918921D01*
G75*
G02*
X96148567Y-86812855I53033J53033D01*
G01*
X97138517Y-85822905D01*
G75*
G02*
X97244583Y-85822905I53033J-53033D01*
G01*
X97350649Y-85928971D01*
G75*
G02*
X97350649Y-86035037I-53033J-53033D01*
G01*
X96360699Y-87024987D01*
G75*
G02*
X96254633Y-87024987I-53033J53033D01*
G01*
G37*
G36*
G01*
X96608186Y-87378540D02*
X96502120Y-87272474D01*
G75*
G02*
X96502120Y-87166408I53033J53033D01*
G01*
X97492070Y-86176458D01*
G75*
G02*
X97598136Y-86176458I53033J-53033D01*
G01*
X97704202Y-86282524D01*
G75*
G02*
X97704202Y-86388590I-53033J-53033D01*
G01*
X96714252Y-87378540D01*
G75*
G02*
X96608186Y-87378540I-53033J53033D01*
G01*
G37*
G36*
G01*
X96961739Y-87732093D02*
X96855673Y-87626027D01*
G75*
G02*
X96855673Y-87519961I53033J53033D01*
G01*
X97845623Y-86530011D01*
G75*
G02*
X97951689Y-86530011I53033J-53033D01*
G01*
X98057755Y-86636077D01*
G75*
G02*
X98057755Y-86742143I-53033J-53033D01*
G01*
X97067805Y-87732093D01*
G75*
G02*
X96961739Y-87732093I-53033J53033D01*
G01*
G37*
G36*
G01*
X97315293Y-88085647D02*
X97209227Y-87979581D01*
G75*
G02*
X97209227Y-87873515I53033J53033D01*
G01*
X98199177Y-86883565D01*
G75*
G02*
X98305243Y-86883565I53033J-53033D01*
G01*
X98411309Y-86989631D01*
G75*
G02*
X98411309Y-87095697I-53033J-53033D01*
G01*
X97421359Y-88085647D01*
G75*
G02*
X97315293Y-88085647I-53033J53033D01*
G01*
G37*
G36*
G01*
X97668846Y-88439200D02*
X97562780Y-88333134D01*
G75*
G02*
X97562780Y-88227068I53033J53033D01*
G01*
X98552730Y-87237118D01*
G75*
G02*
X98658796Y-87237118I53033J-53033D01*
G01*
X98764862Y-87343184D01*
G75*
G02*
X98764862Y-87449250I-53033J-53033D01*
G01*
X97774912Y-88439200D01*
G75*
G02*
X97668846Y-88439200I-53033J53033D01*
G01*
G37*
G36*
G01*
X98022400Y-88792754D02*
X97916334Y-88686688D01*
G75*
G02*
X97916334Y-88580622I53033J53033D01*
G01*
X98906284Y-87590672D01*
G75*
G02*
X99012350Y-87590672I53033J-53033D01*
G01*
X99118416Y-87696738D01*
G75*
G02*
X99118416Y-87802804I-53033J-53033D01*
G01*
X98128466Y-88792754D01*
G75*
G02*
X98022400Y-88792754I-53033J53033D01*
G01*
G37*
G36*
G01*
X98375953Y-89146307D02*
X98269887Y-89040241D01*
G75*
G02*
X98269887Y-88934175I53033J53033D01*
G01*
X99259837Y-87944225D01*
G75*
G02*
X99365903Y-87944225I53033J-53033D01*
G01*
X99471969Y-88050291D01*
G75*
G02*
X99471969Y-88156357I-53033J-53033D01*
G01*
X98482019Y-89146307D01*
G75*
G02*
X98375953Y-89146307I-53033J53033D01*
G01*
G37*
G36*
G01*
X98729506Y-89499860D02*
X98623440Y-89393794D01*
G75*
G02*
X98623440Y-89287728I53033J53033D01*
G01*
X99613390Y-88297778D01*
G75*
G02*
X99719456Y-88297778I53033J-53033D01*
G01*
X99825522Y-88403844D01*
G75*
G02*
X99825522Y-88509910I-53033J-53033D01*
G01*
X98835572Y-89499860D01*
G75*
G02*
X98729506Y-89499860I-53033J53033D01*
G01*
G37*
G36*
G01*
X99613390Y-92222222D02*
X98623440Y-91232272D01*
G75*
G02*
X98623440Y-91126206I53033J53033D01*
G01*
X98729506Y-91020140D01*
G75*
G02*
X98835572Y-91020140I53033J-53033D01*
G01*
X99825522Y-92010090D01*
G75*
G02*
X99825522Y-92116156I-53033J-53033D01*
G01*
X99719456Y-92222222D01*
G75*
G02*
X99613390Y-92222222I-53033J53033D01*
G01*
G37*
G36*
G01*
X99259837Y-92575775D02*
X98269887Y-91585825D01*
G75*
G02*
X98269887Y-91479759I53033J53033D01*
G01*
X98375953Y-91373693D01*
G75*
G02*
X98482019Y-91373693I53033J-53033D01*
G01*
X99471969Y-92363643D01*
G75*
G02*
X99471969Y-92469709I-53033J-53033D01*
G01*
X99365903Y-92575775D01*
G75*
G02*
X99259837Y-92575775I-53033J53033D01*
G01*
G37*
G36*
G01*
X98906284Y-92929328D02*
X97916334Y-91939378D01*
G75*
G02*
X97916334Y-91833312I53033J53033D01*
G01*
X98022400Y-91727246D01*
G75*
G02*
X98128466Y-91727246I53033J-53033D01*
G01*
X99118416Y-92717196D01*
G75*
G02*
X99118416Y-92823262I-53033J-53033D01*
G01*
X99012350Y-92929328D01*
G75*
G02*
X98906284Y-92929328I-53033J53033D01*
G01*
G37*
G36*
G01*
X98552730Y-93282882D02*
X97562780Y-92292932D01*
G75*
G02*
X97562780Y-92186866I53033J53033D01*
G01*
X97668846Y-92080800D01*
G75*
G02*
X97774912Y-92080800I53033J-53033D01*
G01*
X98764862Y-93070750D01*
G75*
G02*
X98764862Y-93176816I-53033J-53033D01*
G01*
X98658796Y-93282882D01*
G75*
G02*
X98552730Y-93282882I-53033J53033D01*
G01*
G37*
G36*
G01*
X98199177Y-93636435D02*
X97209227Y-92646485D01*
G75*
G02*
X97209227Y-92540419I53033J53033D01*
G01*
X97315293Y-92434353D01*
G75*
G02*
X97421359Y-92434353I53033J-53033D01*
G01*
X98411309Y-93424303D01*
G75*
G02*
X98411309Y-93530369I-53033J-53033D01*
G01*
X98305243Y-93636435D01*
G75*
G02*
X98199177Y-93636435I-53033J53033D01*
G01*
G37*
G36*
G01*
X97845623Y-93989989D02*
X96855673Y-93000039D01*
G75*
G02*
X96855673Y-92893973I53033J53033D01*
G01*
X96961739Y-92787907D01*
G75*
G02*
X97067805Y-92787907I53033J-53033D01*
G01*
X98057755Y-93777857D01*
G75*
G02*
X98057755Y-93883923I-53033J-53033D01*
G01*
X97951689Y-93989989D01*
G75*
G02*
X97845623Y-93989989I-53033J53033D01*
G01*
G37*
G36*
G01*
X97492070Y-94343542D02*
X96502120Y-93353592D01*
G75*
G02*
X96502120Y-93247526I53033J53033D01*
G01*
X96608186Y-93141460D01*
G75*
G02*
X96714252Y-93141460I53033J-53033D01*
G01*
X97704202Y-94131410D01*
G75*
G02*
X97704202Y-94237476I-53033J-53033D01*
G01*
X97598136Y-94343542D01*
G75*
G02*
X97492070Y-94343542I-53033J53033D01*
G01*
G37*
G36*
G01*
X97138517Y-94697095D02*
X96148567Y-93707145D01*
G75*
G02*
X96148567Y-93601079I53033J53033D01*
G01*
X96254633Y-93495013D01*
G75*
G02*
X96360699Y-93495013I53033J-53033D01*
G01*
X97350649Y-94484963D01*
G75*
G02*
X97350649Y-94591029I-53033J-53033D01*
G01*
X97244583Y-94697095D01*
G75*
G02*
X97138517Y-94697095I-53033J53033D01*
G01*
G37*
G36*
G01*
X96784963Y-95050649D02*
X95795013Y-94060699D01*
G75*
G02*
X95795013Y-93954633I53033J53033D01*
G01*
X95901079Y-93848567D01*
G75*
G02*
X96007145Y-93848567I53033J-53033D01*
G01*
X96997095Y-94838517D01*
G75*
G02*
X96997095Y-94944583I-53033J-53033D01*
G01*
X96891029Y-95050649D01*
G75*
G02*
X96784963Y-95050649I-53033J53033D01*
G01*
G37*
G36*
G01*
X96431410Y-95404202D02*
X95441460Y-94414252D01*
G75*
G02*
X95441460Y-94308186I53033J53033D01*
G01*
X95547526Y-94202120D01*
G75*
G02*
X95653592Y-94202120I53033J-53033D01*
G01*
X96643542Y-95192070D01*
G75*
G02*
X96643542Y-95298136I-53033J-53033D01*
G01*
X96537476Y-95404202D01*
G75*
G02*
X96431410Y-95404202I-53033J53033D01*
G01*
G37*
G36*
G01*
X96077857Y-95757755D02*
X95087907Y-94767805D01*
G75*
G02*
X95087907Y-94661739I53033J53033D01*
G01*
X95193973Y-94555673D01*
G75*
G02*
X95300039Y-94555673I53033J-53033D01*
G01*
X96289989Y-95545623D01*
G75*
G02*
X96289989Y-95651689I-53033J-53033D01*
G01*
X96183923Y-95757755D01*
G75*
G02*
X96077857Y-95757755I-53033J53033D01*
G01*
G37*
G36*
G01*
X95724303Y-96111309D02*
X94734353Y-95121359D01*
G75*
G02*
X94734353Y-95015293I53033J53033D01*
G01*
X94840419Y-94909227D01*
G75*
G02*
X94946485Y-94909227I53033J-53033D01*
G01*
X95936435Y-95899177D01*
G75*
G02*
X95936435Y-96005243I-53033J-53033D01*
G01*
X95830369Y-96111309D01*
G75*
G02*
X95724303Y-96111309I-53033J53033D01*
G01*
G37*
G36*
G01*
X95370750Y-96464862D02*
X94380800Y-95474912D01*
G75*
G02*
X94380800Y-95368846I53033J53033D01*
G01*
X94486866Y-95262780D01*
G75*
G02*
X94592932Y-95262780I53033J-53033D01*
G01*
X95582882Y-96252730D01*
G75*
G02*
X95582882Y-96358796I-53033J-53033D01*
G01*
X95476816Y-96464862D01*
G75*
G02*
X95370750Y-96464862I-53033J53033D01*
G01*
G37*
G36*
G01*
X95017196Y-96818416D02*
X94027246Y-95828466D01*
G75*
G02*
X94027246Y-95722400I53033J53033D01*
G01*
X94133312Y-95616334D01*
G75*
G02*
X94239378Y-95616334I53033J-53033D01*
G01*
X95229328Y-96606284D01*
G75*
G02*
X95229328Y-96712350I-53033J-53033D01*
G01*
X95123262Y-96818416D01*
G75*
G02*
X95017196Y-96818416I-53033J53033D01*
G01*
G37*
G36*
G01*
X94663643Y-97171969D02*
X93673693Y-96182019D01*
G75*
G02*
X93673693Y-96075953I53033J53033D01*
G01*
X93779759Y-95969887D01*
G75*
G02*
X93885825Y-95969887I53033J-53033D01*
G01*
X94875775Y-96959837D01*
G75*
G02*
X94875775Y-97065903I-53033J-53033D01*
G01*
X94769709Y-97171969D01*
G75*
G02*
X94663643Y-97171969I-53033J53033D01*
G01*
G37*
G36*
G01*
X94310090Y-97525522D02*
X93320140Y-96535572D01*
G75*
G02*
X93320140Y-96429506I53033J53033D01*
G01*
X93426206Y-96323440D01*
G75*
G02*
X93532272Y-96323440I53033J-53033D01*
G01*
X94522222Y-97313390D01*
G75*
G02*
X94522222Y-97419456I-53033J-53033D01*
G01*
X94416156Y-97525522D01*
G75*
G02*
X94310090Y-97525522I-53033J53033D01*
G01*
G37*
G36*
G01*
X90703844Y-97525522D02*
X90597778Y-97419456D01*
G75*
G02*
X90597778Y-97313390I53033J53033D01*
G01*
X91587728Y-96323440D01*
G75*
G02*
X91693794Y-96323440I53033J-53033D01*
G01*
X91799860Y-96429506D01*
G75*
G02*
X91799860Y-96535572I-53033J-53033D01*
G01*
X90809910Y-97525522D01*
G75*
G02*
X90703844Y-97525522I-53033J53033D01*
G01*
G37*
G36*
G01*
X90350291Y-97171969D02*
X90244225Y-97065903D01*
G75*
G02*
X90244225Y-96959837I53033J53033D01*
G01*
X91234175Y-95969887D01*
G75*
G02*
X91340241Y-95969887I53033J-53033D01*
G01*
X91446307Y-96075953D01*
G75*
G02*
X91446307Y-96182019I-53033J-53033D01*
G01*
X90456357Y-97171969D01*
G75*
G02*
X90350291Y-97171969I-53033J53033D01*
G01*
G37*
G36*
G01*
X89996738Y-96818416D02*
X89890672Y-96712350D01*
G75*
G02*
X89890672Y-96606284I53033J53033D01*
G01*
X90880622Y-95616334D01*
G75*
G02*
X90986688Y-95616334I53033J-53033D01*
G01*
X91092754Y-95722400D01*
G75*
G02*
X91092754Y-95828466I-53033J-53033D01*
G01*
X90102804Y-96818416D01*
G75*
G02*
X89996738Y-96818416I-53033J53033D01*
G01*
G37*
G36*
G01*
X89643184Y-96464862D02*
X89537118Y-96358796D01*
G75*
G02*
X89537118Y-96252730I53033J53033D01*
G01*
X90527068Y-95262780D01*
G75*
G02*
X90633134Y-95262780I53033J-53033D01*
G01*
X90739200Y-95368846D01*
G75*
G02*
X90739200Y-95474912I-53033J-53033D01*
G01*
X89749250Y-96464862D01*
G75*
G02*
X89643184Y-96464862I-53033J53033D01*
G01*
G37*
G36*
G01*
X89289631Y-96111309D02*
X89183565Y-96005243D01*
G75*
G02*
X89183565Y-95899177I53033J53033D01*
G01*
X90173515Y-94909227D01*
G75*
G02*
X90279581Y-94909227I53033J-53033D01*
G01*
X90385647Y-95015293D01*
G75*
G02*
X90385647Y-95121359I-53033J-53033D01*
G01*
X89395697Y-96111309D01*
G75*
G02*
X89289631Y-96111309I-53033J53033D01*
G01*
G37*
G36*
G01*
X88936077Y-95757755D02*
X88830011Y-95651689D01*
G75*
G02*
X88830011Y-95545623I53033J53033D01*
G01*
X89819961Y-94555673D01*
G75*
G02*
X89926027Y-94555673I53033J-53033D01*
G01*
X90032093Y-94661739D01*
G75*
G02*
X90032093Y-94767805I-53033J-53033D01*
G01*
X89042143Y-95757755D01*
G75*
G02*
X88936077Y-95757755I-53033J53033D01*
G01*
G37*
G36*
G01*
X88582524Y-95404202D02*
X88476458Y-95298136D01*
G75*
G02*
X88476458Y-95192070I53033J53033D01*
G01*
X89466408Y-94202120D01*
G75*
G02*
X89572474Y-94202120I53033J-53033D01*
G01*
X89678540Y-94308186D01*
G75*
G02*
X89678540Y-94414252I-53033J-53033D01*
G01*
X88688590Y-95404202D01*
G75*
G02*
X88582524Y-95404202I-53033J53033D01*
G01*
G37*
G36*
G01*
X88228971Y-95050649D02*
X88122905Y-94944583D01*
G75*
G02*
X88122905Y-94838517I53033J53033D01*
G01*
X89112855Y-93848567D01*
G75*
G02*
X89218921Y-93848567I53033J-53033D01*
G01*
X89324987Y-93954633D01*
G75*
G02*
X89324987Y-94060699I-53033J-53033D01*
G01*
X88335037Y-95050649D01*
G75*
G02*
X88228971Y-95050649I-53033J53033D01*
G01*
G37*
G36*
G01*
X87875417Y-94697095D02*
X87769351Y-94591029D01*
G75*
G02*
X87769351Y-94484963I53033J53033D01*
G01*
X88759301Y-93495013D01*
G75*
G02*
X88865367Y-93495013I53033J-53033D01*
G01*
X88971433Y-93601079D01*
G75*
G02*
X88971433Y-93707145I-53033J-53033D01*
G01*
X87981483Y-94697095D01*
G75*
G02*
X87875417Y-94697095I-53033J53033D01*
G01*
G37*
G36*
G01*
X87521864Y-94343542D02*
X87415798Y-94237476D01*
G75*
G02*
X87415798Y-94131410I53033J53033D01*
G01*
X88405748Y-93141460D01*
G75*
G02*
X88511814Y-93141460I53033J-53033D01*
G01*
X88617880Y-93247526D01*
G75*
G02*
X88617880Y-93353592I-53033J-53033D01*
G01*
X87627930Y-94343542D01*
G75*
G02*
X87521864Y-94343542I-53033J53033D01*
G01*
G37*
G36*
G01*
X87168311Y-93989989D02*
X87062245Y-93883923D01*
G75*
G02*
X87062245Y-93777857I53033J53033D01*
G01*
X88052195Y-92787907D01*
G75*
G02*
X88158261Y-92787907I53033J-53033D01*
G01*
X88264327Y-92893973D01*
G75*
G02*
X88264327Y-93000039I-53033J-53033D01*
G01*
X87274377Y-93989989D01*
G75*
G02*
X87168311Y-93989989I-53033J53033D01*
G01*
G37*
G36*
G01*
X86814757Y-93636435D02*
X86708691Y-93530369D01*
G75*
G02*
X86708691Y-93424303I53033J53033D01*
G01*
X87698641Y-92434353D01*
G75*
G02*
X87804707Y-92434353I53033J-53033D01*
G01*
X87910773Y-92540419D01*
G75*
G02*
X87910773Y-92646485I-53033J-53033D01*
G01*
X86920823Y-93636435D01*
G75*
G02*
X86814757Y-93636435I-53033J53033D01*
G01*
G37*
G36*
G01*
X86461204Y-93282882D02*
X86355138Y-93176816D01*
G75*
G02*
X86355138Y-93070750I53033J53033D01*
G01*
X87345088Y-92080800D01*
G75*
G02*
X87451154Y-92080800I53033J-53033D01*
G01*
X87557220Y-92186866D01*
G75*
G02*
X87557220Y-92292932I-53033J-53033D01*
G01*
X86567270Y-93282882D01*
G75*
G02*
X86461204Y-93282882I-53033J53033D01*
G01*
G37*
G36*
G01*
X86107650Y-92929328D02*
X86001584Y-92823262D01*
G75*
G02*
X86001584Y-92717196I53033J53033D01*
G01*
X86991534Y-91727246D01*
G75*
G02*
X87097600Y-91727246I53033J-53033D01*
G01*
X87203666Y-91833312D01*
G75*
G02*
X87203666Y-91939378I-53033J-53033D01*
G01*
X86213716Y-92929328D01*
G75*
G02*
X86107650Y-92929328I-53033J53033D01*
G01*
G37*
G36*
G01*
X85754097Y-92575775D02*
X85648031Y-92469709D01*
G75*
G02*
X85648031Y-92363643I53033J53033D01*
G01*
X86637981Y-91373693D01*
G75*
G02*
X86744047Y-91373693I53033J-53033D01*
G01*
X86850113Y-91479759D01*
G75*
G02*
X86850113Y-91585825I-53033J-53033D01*
G01*
X85860163Y-92575775D01*
G75*
G02*
X85754097Y-92575775I-53033J53033D01*
G01*
G37*
G36*
G01*
X85400544Y-92222222D02*
X85294478Y-92116156D01*
G75*
G02*
X85294478Y-92010090I53033J53033D01*
G01*
X86284428Y-91020140D01*
G75*
G02*
X86390494Y-91020140I53033J-53033D01*
G01*
X86496560Y-91126206D01*
G75*
G02*
X86496560Y-91232272I-53033J-53033D01*
G01*
X85506610Y-92222222D01*
G75*
G02*
X85400544Y-92222222I-53033J53033D01*
G01*
G37*
%TD*%
%TO.C,R23*%
G36*
G01*
X81901042Y-97835356D02*
X81264644Y-97198958D01*
G75*
G02*
X81264644Y-96845406I176776J176776D01*
G01*
X81635876Y-96474174D01*
G75*
G02*
X81989428Y-96474174I176776J-176776D01*
G01*
X82625826Y-97110572D01*
G75*
G02*
X82625826Y-97464124I-176776J-176776D01*
G01*
X82254594Y-97835356D01*
G75*
G02*
X81901042Y-97835356I-176776J176776D01*
G01*
G37*
G36*
G01*
X80610572Y-99125826D02*
X79974174Y-98489428D01*
G75*
G02*
X79974174Y-98135876I176776J176776D01*
G01*
X80345406Y-97764644D01*
G75*
G02*
X80698958Y-97764644I176776J-176776D01*
G01*
X81335356Y-98401042D01*
G75*
G02*
X81335356Y-98754594I-176776J-176776D01*
G01*
X80964124Y-99125826D01*
G75*
G02*
X80610572Y-99125826I-176776J176776D01*
G01*
G37*
%TD*%
%TO.C,R28*%
G36*
G01*
X99609879Y-101846277D02*
X100246277Y-101209879D01*
G75*
G02*
X100599829Y-101209879I176776J-176776D01*
G01*
X100971061Y-101581111D01*
G75*
G02*
X100971061Y-101934663I-176776J-176776D01*
G01*
X100334663Y-102571061D01*
G75*
G02*
X99981111Y-102571061I-176776J176776D01*
G01*
X99609879Y-102199829D01*
G75*
G02*
X99609879Y-101846277I176776J176776D01*
G01*
G37*
G36*
G01*
X98319409Y-100555807D02*
X98955807Y-99919409D01*
G75*
G02*
X99309359Y-99919409I176776J-176776D01*
G01*
X99680591Y-100290641D01*
G75*
G02*
X99680591Y-100644193I-176776J-176776D01*
G01*
X99044193Y-101280591D01*
G75*
G02*
X98690641Y-101280591I-176776J176776D01*
G01*
X98319409Y-100909359D01*
G75*
G02*
X98319409Y-100555807I176776J176776D01*
G01*
G37*
%TD*%
%TO.C,LED1*%
G36*
G01*
X97104419Y-98059184D02*
X96459184Y-98704419D01*
G75*
G02*
X96114470Y-98704419I-172357J172357D01*
G01*
X95769755Y-98359704D01*
G75*
G02*
X95769755Y-98014990I172357J172357D01*
G01*
X96414990Y-97369755D01*
G75*
G02*
X96759704Y-97369755I172357J-172357D01*
G01*
X97104419Y-97714470D01*
G75*
G02*
X97104419Y-98059184I-172357J-172357D01*
G01*
G37*
G36*
G01*
X98430245Y-99385010D02*
X97785010Y-100030245D01*
G75*
G02*
X97440296Y-100030245I-172357J172357D01*
G01*
X97095581Y-99685530D01*
G75*
G02*
X97095581Y-99340816I172357J172357D01*
G01*
X97740816Y-98695581D01*
G75*
G02*
X98085530Y-98695581I172357J-172357D01*
G01*
X98430245Y-99040296D01*
G75*
G02*
X98430245Y-99385010I-172357J-172357D01*
G01*
G37*
%TD*%
%TO.C,C40*%
G36*
G01*
X108000001Y-101025000D02*
X105799999Y-101025000D01*
G75*
G02*
X105550000Y-100775001I0J249999D01*
G01*
X105550000Y-100124999D01*
G75*
G02*
X105799999Y-99875000I249999J0D01*
G01*
X108000001Y-99875000D01*
G75*
G02*
X108250000Y-100124999I0J-249999D01*
G01*
X108250000Y-100775001D01*
G75*
G02*
X108000001Y-101025000I-249999J0D01*
G01*
G37*
G36*
G01*
X108000001Y-103975000D02*
X105799999Y-103975000D01*
G75*
G02*
X105550000Y-103725001I0J249999D01*
G01*
X105550000Y-103074999D01*
G75*
G02*
X105799999Y-102825000I249999J0D01*
G01*
X108000001Y-102825000D01*
G75*
G02*
X108250000Y-103074999I0J-249999D01*
G01*
X108250000Y-103725001D01*
G75*
G02*
X108000001Y-103975000I-249999J0D01*
G01*
G37*
%TD*%
%TO.C,C39*%
G36*
G01*
X111625000Y-94499999D02*
X111625000Y-96700001D01*
G75*
G02*
X111375001Y-96950000I-249999J0D01*
G01*
X110724999Y-96950000D01*
G75*
G02*
X110475000Y-96700001I0J249999D01*
G01*
X110475000Y-94499999D01*
G75*
G02*
X110724999Y-94250000I249999J0D01*
G01*
X111375001Y-94250000D01*
G75*
G02*
X111625000Y-94499999I0J-249999D01*
G01*
G37*
G36*
G01*
X114575000Y-94499999D02*
X114575000Y-96700001D01*
G75*
G02*
X114325001Y-96950000I-249999J0D01*
G01*
X113674999Y-96950000D01*
G75*
G02*
X113425000Y-96700001I0J249999D01*
G01*
X113425000Y-94499999D01*
G75*
G02*
X113674999Y-94250000I249999J0D01*
G01*
X114325001Y-94250000D01*
G75*
G02*
X114575000Y-94499999I0J-249999D01*
G01*
G37*
%TD*%
%TO.C,C38*%
G36*
G01*
X110199999Y-71375000D02*
X112400001Y-71375000D01*
G75*
G02*
X112650000Y-71624999I0J-249999D01*
G01*
X112650000Y-72275001D01*
G75*
G02*
X112400001Y-72525000I-249999J0D01*
G01*
X110199999Y-72525000D01*
G75*
G02*
X109950000Y-72275001I0J249999D01*
G01*
X109950000Y-71624999D01*
G75*
G02*
X110199999Y-71375000I249999J0D01*
G01*
G37*
G36*
G01*
X110199999Y-68425000D02*
X112400001Y-68425000D01*
G75*
G02*
X112650000Y-68674999I0J-249999D01*
G01*
X112650000Y-69325001D01*
G75*
G02*
X112400001Y-69575000I-249999J0D01*
G01*
X110199999Y-69575000D01*
G75*
G02*
X109950000Y-69325001I0J249999D01*
G01*
X109950000Y-68674999D01*
G75*
G02*
X110199999Y-68425000I249999J0D01*
G01*
G37*
%TD*%
%TO.C,C37*%
G36*
G01*
X118000000Y-122699999D02*
X118000000Y-124900001D01*
G75*
G02*
X117750001Y-125150000I-249999J0D01*
G01*
X117099999Y-125150000D01*
G75*
G02*
X116850000Y-124900001I0J249999D01*
G01*
X116850000Y-122699999D01*
G75*
G02*
X117099999Y-122450000I249999J0D01*
G01*
X117750001Y-122450000D01*
G75*
G02*
X118000000Y-122699999I0J-249999D01*
G01*
G37*
G36*
G01*
X120950000Y-122699999D02*
X120950000Y-124900001D01*
G75*
G02*
X120700001Y-125150000I-249999J0D01*
G01*
X120049999Y-125150000D01*
G75*
G02*
X119800000Y-124900001I0J249999D01*
G01*
X119800000Y-122699999D01*
G75*
G02*
X120049999Y-122450000I249999J0D01*
G01*
X120700001Y-122450000D01*
G75*
G02*
X120950000Y-122699999I0J-249999D01*
G01*
G37*
%TD*%
%TO.C,C36*%
G36*
G01*
X110199999Y-65300000D02*
X112400001Y-65300000D01*
G75*
G02*
X112650000Y-65549999I0J-249999D01*
G01*
X112650000Y-66200001D01*
G75*
G02*
X112400001Y-66450000I-249999J0D01*
G01*
X110199999Y-66450000D01*
G75*
G02*
X109950000Y-66200001I0J249999D01*
G01*
X109950000Y-65549999D01*
G75*
G02*
X110199999Y-65300000I249999J0D01*
G01*
G37*
G36*
G01*
X110199999Y-62350000D02*
X112400001Y-62350000D01*
G75*
G02*
X112650000Y-62599999I0J-249999D01*
G01*
X112650000Y-63250001D01*
G75*
G02*
X112400001Y-63500000I-249999J0D01*
G01*
X110199999Y-63500000D01*
G75*
G02*
X109950000Y-63250001I0J249999D01*
G01*
X109950000Y-62599999D01*
G75*
G02*
X110199999Y-62350000I249999J0D01*
G01*
G37*
%TD*%
%TO.C,C35*%
G36*
G01*
X123100000Y-112899999D02*
X123100000Y-115100001D01*
G75*
G02*
X122850001Y-115350000I-249999J0D01*
G01*
X122199999Y-115350000D01*
G75*
G02*
X121950000Y-115100001I0J249999D01*
G01*
X121950000Y-112899999D01*
G75*
G02*
X122199999Y-112650000I249999J0D01*
G01*
X122850001Y-112650000D01*
G75*
G02*
X123100000Y-112899999I0J-249999D01*
G01*
G37*
G36*
G01*
X126050000Y-112899999D02*
X126050000Y-115100001D01*
G75*
G02*
X125800001Y-115350000I-249999J0D01*
G01*
X125149999Y-115350000D01*
G75*
G02*
X124900000Y-115100001I0J249999D01*
G01*
X124900000Y-112899999D01*
G75*
G02*
X125149999Y-112650000I249999J0D01*
G01*
X125800001Y-112650000D01*
G75*
G02*
X126050000Y-112899999I0J-249999D01*
G01*
G37*
%TD*%
%TO.C,C29*%
G36*
G01*
X86375000Y-132000000D02*
X86375000Y-130600000D01*
G75*
G02*
X86625000Y-130350000I250000J0D01*
G01*
X90275000Y-130350000D01*
G75*
G02*
X90525000Y-130600000I0J-250000D01*
G01*
X90525000Y-132000000D01*
G75*
G02*
X90275000Y-132250000I-250000J0D01*
G01*
X86625000Y-132250000D01*
G75*
G02*
X86375000Y-132000000I0J250000D01*
G01*
G37*
G36*
G01*
X79425000Y-132000000D02*
X79425000Y-130600000D01*
G75*
G02*
X79675000Y-130350000I250000J0D01*
G01*
X83325000Y-130350000D01*
G75*
G02*
X83575000Y-130600000I0J-250000D01*
G01*
X83575000Y-132000000D01*
G75*
G02*
X83325000Y-132250000I-250000J0D01*
G01*
X79675000Y-132250000D01*
G75*
G02*
X79425000Y-132000000I0J250000D01*
G01*
G37*
%TD*%
%TO.C,C19*%
G36*
G01*
X73325000Y-107299999D02*
X73325000Y-109500001D01*
G75*
G02*
X73075001Y-109750000I-249999J0D01*
G01*
X72424999Y-109750000D01*
G75*
G02*
X72175000Y-109500001I0J249999D01*
G01*
X72175000Y-107299999D01*
G75*
G02*
X72424999Y-107050000I249999J0D01*
G01*
X73075001Y-107050000D01*
G75*
G02*
X73325000Y-107299999I0J-249999D01*
G01*
G37*
G36*
G01*
X76275000Y-107299999D02*
X76275000Y-109500001D01*
G75*
G02*
X76025001Y-109750000I-249999J0D01*
G01*
X75374999Y-109750000D01*
G75*
G02*
X75125000Y-109500001I0J249999D01*
G01*
X75125000Y-107299999D01*
G75*
G02*
X75374999Y-107050000I249999J0D01*
G01*
X76025001Y-107050000D01*
G75*
G02*
X76275000Y-107299999I0J-249999D01*
G01*
G37*
%TD*%
%TO.C,R25*%
G36*
G01*
X112050001Y-107087500D02*
X111149999Y-107087500D01*
G75*
G02*
X110900000Y-106837501I0J249999D01*
G01*
X110900000Y-106312499D01*
G75*
G02*
X111149999Y-106062500I249999J0D01*
G01*
X112050001Y-106062500D01*
G75*
G02*
X112300000Y-106312499I0J-249999D01*
G01*
X112300000Y-106837501D01*
G75*
G02*
X112050001Y-107087500I-249999J0D01*
G01*
G37*
G36*
G01*
X112050001Y-108912500D02*
X111149999Y-108912500D01*
G75*
G02*
X110900000Y-108662501I0J249999D01*
G01*
X110900000Y-108137499D01*
G75*
G02*
X111149999Y-107887500I249999J0D01*
G01*
X112050001Y-107887500D01*
G75*
G02*
X112300000Y-108137499I0J-249999D01*
G01*
X112300000Y-108662501D01*
G75*
G02*
X112050001Y-108912500I-249999J0D01*
G01*
G37*
%TD*%
D14*
%TO.C,SW1*%
X70900000Y-102200000D03*
X70900000Y-103800000D03*
X75000000Y-102200000D03*
X75000000Y-103800000D03*
%TD*%
%TO.C,C16*%
G36*
G01*
X105650000Y-129250000D02*
X104550000Y-129250000D01*
G75*
G02*
X104300000Y-129000000I0J250000D01*
G01*
X104300000Y-126000000D01*
G75*
G02*
X104550000Y-125750000I250000J0D01*
G01*
X105650000Y-125750000D01*
G75*
G02*
X105900000Y-126000000I0J-250000D01*
G01*
X105900000Y-129000000D01*
G75*
G02*
X105650000Y-129250000I-250000J0D01*
G01*
G37*
G36*
G01*
X105650000Y-134650000D02*
X104550000Y-134650000D01*
G75*
G02*
X104300000Y-134400000I0J250000D01*
G01*
X104300000Y-131400000D01*
G75*
G02*
X104550000Y-131150000I250000J0D01*
G01*
X105650000Y-131150000D01*
G75*
G02*
X105900000Y-131400000I0J-250000D01*
G01*
X105900000Y-134400000D01*
G75*
G02*
X105650000Y-134650000I-250000J0D01*
G01*
G37*
%TD*%
%TO.C,C15*%
G36*
G01*
X125250000Y-128250000D02*
X124150000Y-128250000D01*
G75*
G02*
X123900000Y-128000000I0J250000D01*
G01*
X123900000Y-125000000D01*
G75*
G02*
X124150000Y-124750000I250000J0D01*
G01*
X125250000Y-124750000D01*
G75*
G02*
X125500000Y-125000000I0J-250000D01*
G01*
X125500000Y-128000000D01*
G75*
G02*
X125250000Y-128250000I-250000J0D01*
G01*
G37*
G36*
G01*
X125250000Y-133650000D02*
X124150000Y-133650000D01*
G75*
G02*
X123900000Y-133400000I0J250000D01*
G01*
X123900000Y-130400000D01*
G75*
G02*
X124150000Y-130150000I250000J0D01*
G01*
X125250000Y-130150000D01*
G75*
G02*
X125500000Y-130400000I0J-250000D01*
G01*
X125500000Y-133400000D01*
G75*
G02*
X125250000Y-133650000I-250000J0D01*
G01*
G37*
%TD*%
%TO.C,R13*%
G36*
G01*
X96049999Y-54087500D02*
X96950001Y-54087500D01*
G75*
G02*
X97200000Y-54337499I0J-249999D01*
G01*
X97200000Y-54862501D01*
G75*
G02*
X96950001Y-55112500I-249999J0D01*
G01*
X96049999Y-55112500D01*
G75*
G02*
X95800000Y-54862501I0J249999D01*
G01*
X95800000Y-54337499D01*
G75*
G02*
X96049999Y-54087500I249999J0D01*
G01*
G37*
G36*
G01*
X96049999Y-52262500D02*
X96950001Y-52262500D01*
G75*
G02*
X97200000Y-52512499I0J-249999D01*
G01*
X97200000Y-53037501D01*
G75*
G02*
X96950001Y-53287500I-249999J0D01*
G01*
X96049999Y-53287500D01*
G75*
G02*
X95800000Y-53037501I0J249999D01*
G01*
X95800000Y-52512499D01*
G75*
G02*
X96049999Y-52262500I249999J0D01*
G01*
G37*
%TD*%
%TO.C,R24*%
G36*
G01*
X57412500Y-97850001D02*
X57412500Y-96949999D01*
G75*
G02*
X57662499Y-96700000I249999J0D01*
G01*
X58187501Y-96700000D01*
G75*
G02*
X58437500Y-96949999I0J-249999D01*
G01*
X58437500Y-97850001D01*
G75*
G02*
X58187501Y-98100000I-249999J0D01*
G01*
X57662499Y-98100000D01*
G75*
G02*
X57412500Y-97850001I0J249999D01*
G01*
G37*
G36*
G01*
X55587500Y-97850001D02*
X55587500Y-96949999D01*
G75*
G02*
X55837499Y-96700000I249999J0D01*
G01*
X56362501Y-96700000D01*
G75*
G02*
X56612500Y-96949999I0J-249999D01*
G01*
X56612500Y-97850001D01*
G75*
G02*
X56362501Y-98100000I-249999J0D01*
G01*
X55837499Y-98100000D01*
G75*
G02*
X55587500Y-97850001I0J249999D01*
G01*
G37*
%TD*%
D15*
%TO.C,J8*%
X65000000Y-98680000D03*
X61100000Y-98680000D03*
X65000000Y-97410000D03*
X61100000Y-97410000D03*
X65000000Y-96140000D03*
X61100000Y-96140000D03*
X65000000Y-94870000D03*
X61100000Y-94870000D03*
X65000000Y-93600000D03*
X61100000Y-93600000D03*
X65000000Y-92330000D03*
X61100000Y-92330000D03*
X65000000Y-91060000D03*
X61100000Y-91060000D03*
%TD*%
%TO.C,R17*%
G36*
G01*
X120060001Y-73930000D02*
X119159999Y-73930000D01*
G75*
G02*
X118910000Y-73680001I0J249999D01*
G01*
X118910000Y-73154999D01*
G75*
G02*
X119159999Y-72905000I249999J0D01*
G01*
X120060001Y-72905000D01*
G75*
G02*
X120310000Y-73154999I0J-249999D01*
G01*
X120310000Y-73680001D01*
G75*
G02*
X120060001Y-73930000I-249999J0D01*
G01*
G37*
G36*
G01*
X120060001Y-75755000D02*
X119159999Y-75755000D01*
G75*
G02*
X118910000Y-75505001I0J249999D01*
G01*
X118910000Y-74979999D01*
G75*
G02*
X119159999Y-74730000I249999J0D01*
G01*
X120060001Y-74730000D01*
G75*
G02*
X120310000Y-74979999I0J-249999D01*
G01*
X120310000Y-75505001D01*
G75*
G02*
X120060001Y-75755000I-249999J0D01*
G01*
G37*
%TD*%
D16*
%TO.C,Y1*%
G36*
X81049569Y-94603984D02*
G01*
X81898097Y-95452512D01*
X80908147Y-96442462D01*
X80059619Y-95593934D01*
X81049569Y-94603984D01*
G37*
G36*
X79493934Y-96159619D02*
G01*
X80342462Y-97008147D01*
X79352512Y-97998097D01*
X78503984Y-97149569D01*
X79493934Y-96159619D01*
G37*
G36*
X78291853Y-94957538D02*
G01*
X79140381Y-95806066D01*
X78150431Y-96796016D01*
X77301903Y-95947488D01*
X78291853Y-94957538D01*
G37*
G36*
X79847488Y-93401903D02*
G01*
X80696016Y-94250431D01*
X79706066Y-95240381D01*
X78857538Y-94391853D01*
X79847488Y-93401903D01*
G37*
%TD*%
D17*
%TO.C,U7*%
X100070000Y-126590000D03*
X97530000Y-118970000D03*
X97530000Y-126590000D03*
X100070000Y-118970000D03*
%TD*%
%TO.C,R22*%
G36*
G01*
X97950001Y-129112500D02*
X97049999Y-129112500D01*
G75*
G02*
X96800000Y-128862501I0J249999D01*
G01*
X96800000Y-128337499D01*
G75*
G02*
X97049999Y-128087500I249999J0D01*
G01*
X97950001Y-128087500D01*
G75*
G02*
X98200000Y-128337499I0J-249999D01*
G01*
X98200000Y-128862501D01*
G75*
G02*
X97950001Y-129112500I-249999J0D01*
G01*
G37*
G36*
G01*
X97950001Y-130937500D02*
X97049999Y-130937500D01*
G75*
G02*
X96800000Y-130687501I0J249999D01*
G01*
X96800000Y-130162499D01*
G75*
G02*
X97049999Y-129912500I249999J0D01*
G01*
X97950001Y-129912500D01*
G75*
G02*
X98200000Y-130162499I0J-249999D01*
G01*
X98200000Y-130687501D01*
G75*
G02*
X97950001Y-130937500I-249999J0D01*
G01*
G37*
%TD*%
%TO.C,R21*%
G36*
G01*
X94900000Y-119650001D02*
X94900000Y-118749999D01*
G75*
G02*
X95149999Y-118500000I249999J0D01*
G01*
X95675001Y-118500000D01*
G75*
G02*
X95925000Y-118749999I0J-249999D01*
G01*
X95925000Y-119650001D01*
G75*
G02*
X95675001Y-119900000I-249999J0D01*
G01*
X95149999Y-119900000D01*
G75*
G02*
X94900000Y-119650001I0J249999D01*
G01*
G37*
G36*
G01*
X93075000Y-119650001D02*
X93075000Y-118749999D01*
G75*
G02*
X93324999Y-118500000I249999J0D01*
G01*
X93850001Y-118500000D01*
G75*
G02*
X94100000Y-118749999I0J-249999D01*
G01*
X94100000Y-119650001D01*
G75*
G02*
X93850001Y-119900000I-249999J0D01*
G01*
X93324999Y-119900000D01*
G75*
G02*
X93075000Y-119650001I0J249999D01*
G01*
G37*
%TD*%
%TO.C,R20*%
G36*
G01*
X125412500Y-58550001D02*
X125412500Y-57649999D01*
G75*
G02*
X125662499Y-57400000I249999J0D01*
G01*
X126187501Y-57400000D01*
G75*
G02*
X126437500Y-57649999I0J-249999D01*
G01*
X126437500Y-58550001D01*
G75*
G02*
X126187501Y-58800000I-249999J0D01*
G01*
X125662499Y-58800000D01*
G75*
G02*
X125412500Y-58550001I0J249999D01*
G01*
G37*
G36*
G01*
X123587500Y-58550001D02*
X123587500Y-57649999D01*
G75*
G02*
X123837499Y-57400000I249999J0D01*
G01*
X124362501Y-57400000D01*
G75*
G02*
X124612500Y-57649999I0J-249999D01*
G01*
X124612500Y-58550001D01*
G75*
G02*
X124362501Y-58800000I-249999J0D01*
G01*
X123837499Y-58800000D01*
G75*
G02*
X123587500Y-58550001I0J249999D01*
G01*
G37*
%TD*%
%TO.C,R19*%
G36*
G01*
X127997500Y-71559999D02*
X127997500Y-72460001D01*
G75*
G02*
X127747501Y-72710000I-249999J0D01*
G01*
X127222499Y-72710000D01*
G75*
G02*
X126972500Y-72460001I0J249999D01*
G01*
X126972500Y-71559999D01*
G75*
G02*
X127222499Y-71310000I249999J0D01*
G01*
X127747501Y-71310000D01*
G75*
G02*
X127997500Y-71559999I0J-249999D01*
G01*
G37*
G36*
G01*
X129822500Y-71559999D02*
X129822500Y-72460001D01*
G75*
G02*
X129572501Y-72710000I-249999J0D01*
G01*
X129047499Y-72710000D01*
G75*
G02*
X128797500Y-72460001I0J249999D01*
G01*
X128797500Y-71559999D01*
G75*
G02*
X129047499Y-71310000I249999J0D01*
G01*
X129572501Y-71310000D01*
G75*
G02*
X129822500Y-71559999I0J-249999D01*
G01*
G37*
%TD*%
%TO.C,R18*%
G36*
G01*
X121860001Y-73930000D02*
X120959999Y-73930000D01*
G75*
G02*
X120710000Y-73680001I0J249999D01*
G01*
X120710000Y-73154999D01*
G75*
G02*
X120959999Y-72905000I249999J0D01*
G01*
X121860001Y-72905000D01*
G75*
G02*
X122110000Y-73154999I0J-249999D01*
G01*
X122110000Y-73680001D01*
G75*
G02*
X121860001Y-73930000I-249999J0D01*
G01*
G37*
G36*
G01*
X121860001Y-75755000D02*
X120959999Y-75755000D01*
G75*
G02*
X120710000Y-75505001I0J249999D01*
G01*
X120710000Y-74979999D01*
G75*
G02*
X120959999Y-74730000I249999J0D01*
G01*
X121860001Y-74730000D01*
G75*
G02*
X122110000Y-74979999I0J-249999D01*
G01*
X122110000Y-75505001D01*
G75*
G02*
X121860001Y-75755000I-249999J0D01*
G01*
G37*
%TD*%
%TO.C,R16*%
G36*
G01*
X93012500Y-58250001D02*
X93012500Y-57349999D01*
G75*
G02*
X93262499Y-57100000I249999J0D01*
G01*
X93787501Y-57100000D01*
G75*
G02*
X94037500Y-57349999I0J-249999D01*
G01*
X94037500Y-58250001D01*
G75*
G02*
X93787501Y-58500000I-249999J0D01*
G01*
X93262499Y-58500000D01*
G75*
G02*
X93012500Y-58250001I0J249999D01*
G01*
G37*
G36*
G01*
X91187500Y-58250001D02*
X91187500Y-57349999D01*
G75*
G02*
X91437499Y-57100000I249999J0D01*
G01*
X91962501Y-57100000D01*
G75*
G02*
X92212500Y-57349999I0J-249999D01*
G01*
X92212500Y-58250001D01*
G75*
G02*
X91962501Y-58500000I-249999J0D01*
G01*
X91437499Y-58500000D01*
G75*
G02*
X91187500Y-58250001I0J249999D01*
G01*
G37*
%TD*%
%TO.C,R15*%
G36*
G01*
X95967500Y-71469999D02*
X95967500Y-72370001D01*
G75*
G02*
X95717501Y-72620000I-249999J0D01*
G01*
X95192499Y-72620000D01*
G75*
G02*
X94942500Y-72370001I0J249999D01*
G01*
X94942500Y-71469999D01*
G75*
G02*
X95192499Y-71220000I249999J0D01*
G01*
X95717501Y-71220000D01*
G75*
G02*
X95967500Y-71469999I0J-249999D01*
G01*
G37*
G36*
G01*
X97792500Y-71469999D02*
X97792500Y-72370001D01*
G75*
G02*
X97542501Y-72620000I-249999J0D01*
G01*
X97017499Y-72620000D01*
G75*
G02*
X96767500Y-72370001I0J249999D01*
G01*
X96767500Y-71469999D01*
G75*
G02*
X97017499Y-71220000I249999J0D01*
G01*
X97542501Y-71220000D01*
G75*
G02*
X97792500Y-71469999I0J-249999D01*
G01*
G37*
%TD*%
%TO.C,R14*%
G36*
G01*
X90330001Y-74520000D02*
X89429999Y-74520000D01*
G75*
G02*
X89180000Y-74270001I0J249999D01*
G01*
X89180000Y-73744999D01*
G75*
G02*
X89429999Y-73495000I249999J0D01*
G01*
X90330001Y-73495000D01*
G75*
G02*
X90580000Y-73744999I0J-249999D01*
G01*
X90580000Y-74270001D01*
G75*
G02*
X90330001Y-74520000I-249999J0D01*
G01*
G37*
G36*
G01*
X90330001Y-76345000D02*
X89429999Y-76345000D01*
G75*
G02*
X89180000Y-76095001I0J249999D01*
G01*
X89180000Y-75569999D01*
G75*
G02*
X89429999Y-75320000I249999J0D01*
G01*
X90330001Y-75320000D01*
G75*
G02*
X90580000Y-75569999I0J-249999D01*
G01*
X90580000Y-76095001D01*
G75*
G02*
X90330001Y-76345000I-249999J0D01*
G01*
G37*
%TD*%
%TO.C,R9*%
G36*
G01*
X88330001Y-74520000D02*
X87429999Y-74520000D01*
G75*
G02*
X87180000Y-74270001I0J249999D01*
G01*
X87180000Y-73744999D01*
G75*
G02*
X87429999Y-73495000I249999J0D01*
G01*
X88330001Y-73495000D01*
G75*
G02*
X88580000Y-73744999I0J-249999D01*
G01*
X88580000Y-74270001D01*
G75*
G02*
X88330001Y-74520000I-249999J0D01*
G01*
G37*
G36*
G01*
X88330001Y-76345000D02*
X87429999Y-76345000D01*
G75*
G02*
X87180000Y-76095001I0J249999D01*
G01*
X87180000Y-75569999D01*
G75*
G02*
X87429999Y-75320000I249999J0D01*
G01*
X88330001Y-75320000D01*
G75*
G02*
X88580000Y-75569999I0J-249999D01*
G01*
X88580000Y-76095001D01*
G75*
G02*
X88330001Y-76345000I-249999J0D01*
G01*
G37*
%TD*%
D18*
%TO.C,D11*%
X117900000Y-58850000D03*
X117900000Y-63150000D03*
%TD*%
%TO.C,D10*%
X85500000Y-58650000D03*
X85500000Y-62950000D03*
%TD*%
%TO.C,C34*%
G36*
G01*
X129785000Y-60200001D02*
X129785000Y-57999999D01*
G75*
G02*
X130034999Y-57750000I249999J0D01*
G01*
X130685001Y-57750000D01*
G75*
G02*
X130935000Y-57999999I0J-249999D01*
G01*
X130935000Y-60200001D01*
G75*
G02*
X130685001Y-60450000I-249999J0D01*
G01*
X130034999Y-60450000D01*
G75*
G02*
X129785000Y-60200001I0J249999D01*
G01*
G37*
G36*
G01*
X126835000Y-60200001D02*
X126835000Y-57999999D01*
G75*
G02*
X127084999Y-57750000I249999J0D01*
G01*
X127735001Y-57750000D01*
G75*
G02*
X127985000Y-57999999I0J-249999D01*
G01*
X127985000Y-60200001D01*
G75*
G02*
X127735001Y-60450000I-249999J0D01*
G01*
X127084999Y-60450000D01*
G75*
G02*
X126835000Y-60200001I0J249999D01*
G01*
G37*
%TD*%
%TO.C,C33*%
G36*
G01*
X122510000Y-60285000D02*
X122510000Y-59335000D01*
G75*
G02*
X122760000Y-59085000I250000J0D01*
G01*
X123260000Y-59085000D01*
G75*
G02*
X123510000Y-59335000I0J-250000D01*
G01*
X123510000Y-60285000D01*
G75*
G02*
X123260000Y-60535000I-250000J0D01*
G01*
X122760000Y-60535000D01*
G75*
G02*
X122510000Y-60285000I0J250000D01*
G01*
G37*
G36*
G01*
X120610000Y-60285000D02*
X120610000Y-59335000D01*
G75*
G02*
X120860000Y-59085000I250000J0D01*
G01*
X121360000Y-59085000D01*
G75*
G02*
X121610000Y-59335000I0J-250000D01*
G01*
X121610000Y-60285000D01*
G75*
G02*
X121360000Y-60535000I-250000J0D01*
G01*
X120860000Y-60535000D01*
G75*
G02*
X120610000Y-60285000I0J250000D01*
G01*
G37*
%TD*%
%TO.C,C32*%
G36*
G01*
X129350000Y-62075000D02*
X129350000Y-61125000D01*
G75*
G02*
X129600000Y-60875000I250000J0D01*
G01*
X130100000Y-60875000D01*
G75*
G02*
X130350000Y-61125000I0J-250000D01*
G01*
X130350000Y-62075000D01*
G75*
G02*
X130100000Y-62325000I-250000J0D01*
G01*
X129600000Y-62325000D01*
G75*
G02*
X129350000Y-62075000I0J250000D01*
G01*
G37*
G36*
G01*
X127450000Y-62075000D02*
X127450000Y-61125000D01*
G75*
G02*
X127700000Y-60875000I250000J0D01*
G01*
X128200000Y-60875000D01*
G75*
G02*
X128450000Y-61125000I0J-250000D01*
G01*
X128450000Y-62075000D01*
G75*
G02*
X128200000Y-62325000I-250000J0D01*
G01*
X127700000Y-62325000D01*
G75*
G02*
X127450000Y-62075000I0J250000D01*
G01*
G37*
%TD*%
%TO.C,C31*%
G36*
G01*
X122510000Y-62085000D02*
X122510000Y-61135000D01*
G75*
G02*
X122760000Y-60885000I250000J0D01*
G01*
X123260000Y-60885000D01*
G75*
G02*
X123510000Y-61135000I0J-250000D01*
G01*
X123510000Y-62085000D01*
G75*
G02*
X123260000Y-62335000I-250000J0D01*
G01*
X122760000Y-62335000D01*
G75*
G02*
X122510000Y-62085000I0J250000D01*
G01*
G37*
G36*
G01*
X120610000Y-62085000D02*
X120610000Y-61135000D01*
G75*
G02*
X120860000Y-60885000I250000J0D01*
G01*
X121360000Y-60885000D01*
G75*
G02*
X121610000Y-61135000I0J-250000D01*
G01*
X121610000Y-62085000D01*
G75*
G02*
X121360000Y-62335000I-250000J0D01*
G01*
X120860000Y-62335000D01*
G75*
G02*
X120610000Y-62085000I0J250000D01*
G01*
G37*
%TD*%
%TO.C,C30*%
G36*
G01*
X128867500Y-74285000D02*
X128867500Y-73335000D01*
G75*
G02*
X129117500Y-73085000I250000J0D01*
G01*
X129617500Y-73085000D01*
G75*
G02*
X129867500Y-73335000I0J-250000D01*
G01*
X129867500Y-74285000D01*
G75*
G02*
X129617500Y-74535000I-250000J0D01*
G01*
X129117500Y-74535000D01*
G75*
G02*
X128867500Y-74285000I0J250000D01*
G01*
G37*
G36*
G01*
X126967500Y-74285000D02*
X126967500Y-73335000D01*
G75*
G02*
X127217500Y-73085000I250000J0D01*
G01*
X127717500Y-73085000D01*
G75*
G02*
X127967500Y-73335000I0J-250000D01*
G01*
X127967500Y-74285000D01*
G75*
G02*
X127717500Y-74535000I-250000J0D01*
G01*
X127217500Y-74535000D01*
G75*
G02*
X126967500Y-74285000I0J250000D01*
G01*
G37*
%TD*%
%TO.C,C28*%
G36*
G01*
X122735000Y-74800000D02*
X123685000Y-74800000D01*
G75*
G02*
X123935000Y-75050000I0J-250000D01*
G01*
X123935000Y-75550000D01*
G75*
G02*
X123685000Y-75800000I-250000J0D01*
G01*
X122735000Y-75800000D01*
G75*
G02*
X122485000Y-75550000I0J250000D01*
G01*
X122485000Y-75050000D01*
G75*
G02*
X122735000Y-74800000I250000J0D01*
G01*
G37*
G36*
G01*
X122735000Y-72900000D02*
X123685000Y-72900000D01*
G75*
G02*
X123935000Y-73150000I0J-250000D01*
G01*
X123935000Y-73650000D01*
G75*
G02*
X123685000Y-73900000I-250000J0D01*
G01*
X122735000Y-73900000D01*
G75*
G02*
X122485000Y-73650000I0J250000D01*
G01*
X122485000Y-73150000D01*
G75*
G02*
X122735000Y-72900000I250000J0D01*
G01*
G37*
%TD*%
%TO.C,C27*%
G36*
G01*
X118275000Y-73900000D02*
X117325000Y-73900000D01*
G75*
G02*
X117075000Y-73650000I0J250000D01*
G01*
X117075000Y-73150000D01*
G75*
G02*
X117325000Y-72900000I250000J0D01*
G01*
X118275000Y-72900000D01*
G75*
G02*
X118525000Y-73150000I0J-250000D01*
G01*
X118525000Y-73650000D01*
G75*
G02*
X118275000Y-73900000I-250000J0D01*
G01*
G37*
G36*
G01*
X118275000Y-75800000D02*
X117325000Y-75800000D01*
G75*
G02*
X117075000Y-75550000I0J250000D01*
G01*
X117075000Y-75050000D01*
G75*
G02*
X117325000Y-74800000I250000J0D01*
G01*
X118275000Y-74800000D01*
G75*
G02*
X118525000Y-75050000I0J-250000D01*
G01*
X118525000Y-75550000D01*
G75*
G02*
X118275000Y-75800000I-250000J0D01*
G01*
G37*
%TD*%
%TO.C,C26*%
G36*
G01*
X131225000Y-71250000D02*
X132175000Y-71250000D01*
G75*
G02*
X132425000Y-71500000I0J-250000D01*
G01*
X132425000Y-72000000D01*
G75*
G02*
X132175000Y-72250000I-250000J0D01*
G01*
X131225000Y-72250000D01*
G75*
G02*
X130975000Y-72000000I0J250000D01*
G01*
X130975000Y-71500000D01*
G75*
G02*
X131225000Y-71250000I250000J0D01*
G01*
G37*
G36*
G01*
X131225000Y-69350000D02*
X132175000Y-69350000D01*
G75*
G02*
X132425000Y-69600000I0J-250000D01*
G01*
X132425000Y-70100000D01*
G75*
G02*
X132175000Y-70350000I-250000J0D01*
G01*
X131225000Y-70350000D01*
G75*
G02*
X130975000Y-70100000I0J250000D01*
G01*
X130975000Y-69600000D01*
G75*
G02*
X131225000Y-69350000I250000J0D01*
G01*
G37*
%TD*%
%TO.C,C25*%
G36*
G01*
X125100000Y-72275000D02*
X125100000Y-71325000D01*
G75*
G02*
X125350000Y-71075000I250000J0D01*
G01*
X125850000Y-71075000D01*
G75*
G02*
X126100000Y-71325000I0J-250000D01*
G01*
X126100000Y-72275000D01*
G75*
G02*
X125850000Y-72525000I-250000J0D01*
G01*
X125350000Y-72525000D01*
G75*
G02*
X125100000Y-72275000I0J250000D01*
G01*
G37*
G36*
G01*
X123200000Y-72275000D02*
X123200000Y-71325000D01*
G75*
G02*
X123450000Y-71075000I250000J0D01*
G01*
X123950000Y-71075000D01*
G75*
G02*
X124200000Y-71325000I0J-250000D01*
G01*
X124200000Y-72275000D01*
G75*
G02*
X123950000Y-72525000I-250000J0D01*
G01*
X123450000Y-72525000D01*
G75*
G02*
X123200000Y-72275000I0J250000D01*
G01*
G37*
%TD*%
%TO.C,C24*%
G36*
G01*
X97355000Y-60050001D02*
X97355000Y-57849999D01*
G75*
G02*
X97604999Y-57600000I249999J0D01*
G01*
X98255001Y-57600000D01*
G75*
G02*
X98505000Y-57849999I0J-249999D01*
G01*
X98505000Y-60050001D01*
G75*
G02*
X98255001Y-60300000I-249999J0D01*
G01*
X97604999Y-60300000D01*
G75*
G02*
X97355000Y-60050001I0J249999D01*
G01*
G37*
G36*
G01*
X94405000Y-60050001D02*
X94405000Y-57849999D01*
G75*
G02*
X94654999Y-57600000I249999J0D01*
G01*
X95305001Y-57600000D01*
G75*
G02*
X95555000Y-57849999I0J-249999D01*
G01*
X95555000Y-60050001D01*
G75*
G02*
X95305001Y-60300000I-249999J0D01*
G01*
X94654999Y-60300000D01*
G75*
G02*
X94405000Y-60050001I0J249999D01*
G01*
G37*
%TD*%
%TO.C,C23*%
G36*
G01*
X90030000Y-60395000D02*
X90030000Y-59445000D01*
G75*
G02*
X90280000Y-59195000I250000J0D01*
G01*
X90780000Y-59195000D01*
G75*
G02*
X91030000Y-59445000I0J-250000D01*
G01*
X91030000Y-60395000D01*
G75*
G02*
X90780000Y-60645000I-250000J0D01*
G01*
X90280000Y-60645000D01*
G75*
G02*
X90030000Y-60395000I0J250000D01*
G01*
G37*
G36*
G01*
X88130000Y-60395000D02*
X88130000Y-59445000D01*
G75*
G02*
X88380000Y-59195000I250000J0D01*
G01*
X88880000Y-59195000D01*
G75*
G02*
X89130000Y-59445000I0J-250000D01*
G01*
X89130000Y-60395000D01*
G75*
G02*
X88880000Y-60645000I-250000J0D01*
G01*
X88380000Y-60645000D01*
G75*
G02*
X88130000Y-60395000I0J250000D01*
G01*
G37*
%TD*%
%TO.C,C22*%
G36*
G01*
X96800000Y-62075000D02*
X96800000Y-61125000D01*
G75*
G02*
X97050000Y-60875000I250000J0D01*
G01*
X97550000Y-60875000D01*
G75*
G02*
X97800000Y-61125000I0J-250000D01*
G01*
X97800000Y-62075000D01*
G75*
G02*
X97550000Y-62325000I-250000J0D01*
G01*
X97050000Y-62325000D01*
G75*
G02*
X96800000Y-62075000I0J250000D01*
G01*
G37*
G36*
G01*
X94900000Y-62075000D02*
X94900000Y-61125000D01*
G75*
G02*
X95150000Y-60875000I250000J0D01*
G01*
X95650000Y-60875000D01*
G75*
G02*
X95900000Y-61125000I0J-250000D01*
G01*
X95900000Y-62075000D01*
G75*
G02*
X95650000Y-62325000I-250000J0D01*
G01*
X95150000Y-62325000D01*
G75*
G02*
X94900000Y-62075000I0J250000D01*
G01*
G37*
%TD*%
%TO.C,C21*%
G36*
G01*
X90030000Y-62195000D02*
X90030000Y-61245000D01*
G75*
G02*
X90280000Y-60995000I250000J0D01*
G01*
X90780000Y-60995000D01*
G75*
G02*
X91030000Y-61245000I0J-250000D01*
G01*
X91030000Y-62195000D01*
G75*
G02*
X90780000Y-62445000I-250000J0D01*
G01*
X90280000Y-62445000D01*
G75*
G02*
X90030000Y-62195000I0J250000D01*
G01*
G37*
G36*
G01*
X88130000Y-62195000D02*
X88130000Y-61245000D01*
G75*
G02*
X88380000Y-60995000I250000J0D01*
G01*
X88880000Y-60995000D01*
G75*
G02*
X89130000Y-61245000I0J-250000D01*
G01*
X89130000Y-62195000D01*
G75*
G02*
X88880000Y-62445000I-250000J0D01*
G01*
X88380000Y-62445000D01*
G75*
G02*
X88130000Y-62195000I0J250000D01*
G01*
G37*
%TD*%
%TO.C,C20*%
G36*
G01*
X96800000Y-74195000D02*
X96800000Y-73245000D01*
G75*
G02*
X97050000Y-72995000I250000J0D01*
G01*
X97550000Y-72995000D01*
G75*
G02*
X97800000Y-73245000I0J-250000D01*
G01*
X97800000Y-74195000D01*
G75*
G02*
X97550000Y-74445000I-250000J0D01*
G01*
X97050000Y-74445000D01*
G75*
G02*
X96800000Y-74195000I0J250000D01*
G01*
G37*
G36*
G01*
X94900000Y-74195000D02*
X94900000Y-73245000D01*
G75*
G02*
X95150000Y-72995000I250000J0D01*
G01*
X95650000Y-72995000D01*
G75*
G02*
X95900000Y-73245000I0J-250000D01*
G01*
X95900000Y-74195000D01*
G75*
G02*
X95650000Y-74445000I-250000J0D01*
G01*
X95150000Y-74445000D01*
G75*
G02*
X94900000Y-74195000I0J250000D01*
G01*
G37*
%TD*%
%TO.C,C18*%
G36*
G01*
X91425000Y-75390000D02*
X92375000Y-75390000D01*
G75*
G02*
X92625000Y-75640000I0J-250000D01*
G01*
X92625000Y-76140000D01*
G75*
G02*
X92375000Y-76390000I-250000J0D01*
G01*
X91425000Y-76390000D01*
G75*
G02*
X91175000Y-76140000I0J250000D01*
G01*
X91175000Y-75640000D01*
G75*
G02*
X91425000Y-75390000I250000J0D01*
G01*
G37*
G36*
G01*
X91425000Y-73490000D02*
X92375000Y-73490000D01*
G75*
G02*
X92625000Y-73740000I0J-250000D01*
G01*
X92625000Y-74240000D01*
G75*
G02*
X92375000Y-74490000I-250000J0D01*
G01*
X91425000Y-74490000D01*
G75*
G02*
X91175000Y-74240000I0J250000D01*
G01*
X91175000Y-73740000D01*
G75*
G02*
X91425000Y-73490000I250000J0D01*
G01*
G37*
%TD*%
%TO.C,C17*%
G36*
G01*
X86275000Y-74490000D02*
X85325000Y-74490000D01*
G75*
G02*
X85075000Y-74240000I0J250000D01*
G01*
X85075000Y-73740000D01*
G75*
G02*
X85325000Y-73490000I250000J0D01*
G01*
X86275000Y-73490000D01*
G75*
G02*
X86525000Y-73740000I0J-250000D01*
G01*
X86525000Y-74240000D01*
G75*
G02*
X86275000Y-74490000I-250000J0D01*
G01*
G37*
G36*
G01*
X86275000Y-76390000D02*
X85325000Y-76390000D01*
G75*
G02*
X85075000Y-76140000I0J250000D01*
G01*
X85075000Y-75640000D01*
G75*
G02*
X85325000Y-75390000I250000J0D01*
G01*
X86275000Y-75390000D01*
G75*
G02*
X86525000Y-75640000I0J-250000D01*
G01*
X86525000Y-76140000D01*
G75*
G02*
X86275000Y-76390000I-250000J0D01*
G01*
G37*
%TD*%
%TO.C,C13*%
G36*
G01*
X98825000Y-71000000D02*
X99775000Y-71000000D01*
G75*
G02*
X100025000Y-71250000I0J-250000D01*
G01*
X100025000Y-71750000D01*
G75*
G02*
X99775000Y-72000000I-250000J0D01*
G01*
X98825000Y-72000000D01*
G75*
G02*
X98575000Y-71750000I0J250000D01*
G01*
X98575000Y-71250000D01*
G75*
G02*
X98825000Y-71000000I250000J0D01*
G01*
G37*
G36*
G01*
X98825000Y-69100000D02*
X99775000Y-69100000D01*
G75*
G02*
X100025000Y-69350000I0J-250000D01*
G01*
X100025000Y-69850000D01*
G75*
G02*
X99775000Y-70100000I-250000J0D01*
G01*
X98825000Y-70100000D01*
G75*
G02*
X98575000Y-69850000I0J250000D01*
G01*
X98575000Y-69350000D01*
G75*
G02*
X98825000Y-69100000I250000J0D01*
G01*
G37*
%TD*%
%TO.C,C11*%
G36*
G01*
X92900000Y-72275000D02*
X92900000Y-71325000D01*
G75*
G02*
X93150000Y-71075000I250000J0D01*
G01*
X93650000Y-71075000D01*
G75*
G02*
X93900000Y-71325000I0J-250000D01*
G01*
X93900000Y-72275000D01*
G75*
G02*
X93650000Y-72525000I-250000J0D01*
G01*
X93150000Y-72525000D01*
G75*
G02*
X92900000Y-72275000I0J250000D01*
G01*
G37*
G36*
G01*
X91000000Y-72275000D02*
X91000000Y-71325000D01*
G75*
G02*
X91250000Y-71075000I250000J0D01*
G01*
X91750000Y-71075000D01*
G75*
G02*
X92000000Y-71325000I0J-250000D01*
G01*
X92000000Y-72275000D01*
G75*
G02*
X91750000Y-72525000I-250000J0D01*
G01*
X91250000Y-72525000D01*
G75*
G02*
X91000000Y-72275000I0J250000D01*
G01*
G37*
%TD*%
%TO.C,R8*%
G36*
G01*
X103949999Y-115200000D02*
X104850001Y-115200000D01*
G75*
G02*
X105100000Y-115449999I0J-249999D01*
G01*
X105100000Y-115975001D01*
G75*
G02*
X104850001Y-116225000I-249999J0D01*
G01*
X103949999Y-116225000D01*
G75*
G02*
X103700000Y-115975001I0J249999D01*
G01*
X103700000Y-115449999D01*
G75*
G02*
X103949999Y-115200000I249999J0D01*
G01*
G37*
G36*
G01*
X103949999Y-113375000D02*
X104850001Y-113375000D01*
G75*
G02*
X105100000Y-113624999I0J-249999D01*
G01*
X105100000Y-114150001D01*
G75*
G02*
X104850001Y-114400000I-249999J0D01*
G01*
X103949999Y-114400000D01*
G75*
G02*
X103700000Y-114150001I0J249999D01*
G01*
X103700000Y-113624999D01*
G75*
G02*
X103949999Y-113375000I249999J0D01*
G01*
G37*
%TD*%
%TO.C,R6*%
G36*
G01*
X85119999Y-104700000D02*
X86020001Y-104700000D01*
G75*
G02*
X86270000Y-104949999I0J-249999D01*
G01*
X86270000Y-105475001D01*
G75*
G02*
X86020001Y-105725000I-249999J0D01*
G01*
X85119999Y-105725000D01*
G75*
G02*
X84870000Y-105475001I0J249999D01*
G01*
X84870000Y-104949999D01*
G75*
G02*
X85119999Y-104700000I249999J0D01*
G01*
G37*
G36*
G01*
X85119999Y-102875000D02*
X86020001Y-102875000D01*
G75*
G02*
X86270000Y-103124999I0J-249999D01*
G01*
X86270000Y-103650001D01*
G75*
G02*
X86020001Y-103900000I-249999J0D01*
G01*
X85119999Y-103900000D01*
G75*
G02*
X84870000Y-103650001I0J249999D01*
G01*
X84870000Y-103124999D01*
G75*
G02*
X85119999Y-102875000I249999J0D01*
G01*
G37*
%TD*%
%TO.C,R4*%
G36*
G01*
X85149999Y-116112500D02*
X86050001Y-116112500D01*
G75*
G02*
X86300000Y-116362499I0J-249999D01*
G01*
X86300000Y-116887501D01*
G75*
G02*
X86050001Y-117137500I-249999J0D01*
G01*
X85149999Y-117137500D01*
G75*
G02*
X84900000Y-116887501I0J249999D01*
G01*
X84900000Y-116362499D01*
G75*
G02*
X85149999Y-116112500I249999J0D01*
G01*
G37*
G36*
G01*
X85149999Y-114287500D02*
X86050001Y-114287500D01*
G75*
G02*
X86300000Y-114537499I0J-249999D01*
G01*
X86300000Y-115062501D01*
G75*
G02*
X86050001Y-115312500I-249999J0D01*
G01*
X85149999Y-115312500D01*
G75*
G02*
X84900000Y-115062501I0J249999D01*
G01*
X84900000Y-114537499D01*
G75*
G02*
X85149999Y-114287500I249999J0D01*
G01*
G37*
%TD*%
%TO.C,R2*%
G36*
G01*
X100549999Y-115200000D02*
X101450001Y-115200000D01*
G75*
G02*
X101700000Y-115449999I0J-249999D01*
G01*
X101700000Y-115975001D01*
G75*
G02*
X101450001Y-116225000I-249999J0D01*
G01*
X100549999Y-116225000D01*
G75*
G02*
X100300000Y-115975001I0J249999D01*
G01*
X100300000Y-115449999D01*
G75*
G02*
X100549999Y-115200000I249999J0D01*
G01*
G37*
G36*
G01*
X100549999Y-113375000D02*
X101450001Y-113375000D01*
G75*
G02*
X101700000Y-113624999I0J-249999D01*
G01*
X101700000Y-114150001D01*
G75*
G02*
X101450001Y-114400000I-249999J0D01*
G01*
X100549999Y-114400000D01*
G75*
G02*
X100300000Y-114150001I0J249999D01*
G01*
X100300000Y-113624999D01*
G75*
G02*
X100549999Y-113375000I249999J0D01*
G01*
G37*
%TD*%
%TO.C,FB1*%
G36*
G01*
X106801042Y-94835356D02*
X106164644Y-94198958D01*
G75*
G02*
X106164644Y-93845406I176776J176776D01*
G01*
X106535876Y-93474174D01*
G75*
G02*
X106889428Y-93474174I176776J-176776D01*
G01*
X107525826Y-94110572D01*
G75*
G02*
X107525826Y-94464124I-176776J-176776D01*
G01*
X107154594Y-94835356D01*
G75*
G02*
X106801042Y-94835356I-176776J176776D01*
G01*
G37*
G36*
G01*
X105510572Y-96125826D02*
X104874174Y-95489428D01*
G75*
G02*
X104874174Y-95135876I176776J176776D01*
G01*
X105245406Y-94764644D01*
G75*
G02*
X105598958Y-94764644I176776J-176776D01*
G01*
X106235356Y-95401042D01*
G75*
G02*
X106235356Y-95754594I-176776J-176776D01*
G01*
X105864124Y-96125826D01*
G75*
G02*
X105510572Y-96125826I-176776J176776D01*
G01*
G37*
%TD*%
D19*
%TO.C,D9*%
X106400000Y-116450000D03*
X106400000Y-113150000D03*
%TD*%
%TO.C,D8*%
X87610000Y-110880000D03*
X87610000Y-107580000D03*
%TD*%
%TO.C,D7*%
X106410000Y-111080000D03*
X106410000Y-107780000D03*
%TD*%
%TO.C,D6*%
X87600000Y-105200000D03*
X87600000Y-101900000D03*
%TD*%
%TO.C,D5*%
X87500000Y-117000000D03*
X87500000Y-113700000D03*
%TD*%
%TO.C,D4*%
X99000000Y-111080000D03*
X99000000Y-107780000D03*
%TD*%
%TO.C,D3*%
X99000000Y-116450000D03*
X99000000Y-113150000D03*
%TD*%
D20*
%TO.C,U4*%
X109850000Y-98700000D03*
X109850000Y-103300000D03*
X109850000Y-101000000D03*
D21*
X116150000Y-101000000D03*
%TD*%
%TO.C,R7*%
G36*
G01*
X85119999Y-110012500D02*
X86020001Y-110012500D01*
G75*
G02*
X86270000Y-110262499I0J-249999D01*
G01*
X86270000Y-110787501D01*
G75*
G02*
X86020001Y-111037500I-249999J0D01*
G01*
X85119999Y-111037500D01*
G75*
G02*
X84870000Y-110787501I0J249999D01*
G01*
X84870000Y-110262499D01*
G75*
G02*
X85119999Y-110012500I249999J0D01*
G01*
G37*
G36*
G01*
X85119999Y-108187500D02*
X86020001Y-108187500D01*
G75*
G02*
X86270000Y-108437499I0J-249999D01*
G01*
X86270000Y-108962501D01*
G75*
G02*
X86020001Y-109212500I-249999J0D01*
G01*
X85119999Y-109212500D01*
G75*
G02*
X84870000Y-108962501I0J249999D01*
G01*
X84870000Y-108437499D01*
G75*
G02*
X85119999Y-108187500I249999J0D01*
G01*
G37*
%TD*%
%TO.C,R5*%
G36*
G01*
X103949999Y-110212500D02*
X104850001Y-110212500D01*
G75*
G02*
X105100000Y-110462499I0J-249999D01*
G01*
X105100000Y-110987501D01*
G75*
G02*
X104850001Y-111237500I-249999J0D01*
G01*
X103949999Y-111237500D01*
G75*
G02*
X103700000Y-110987501I0J249999D01*
G01*
X103700000Y-110462499D01*
G75*
G02*
X103949999Y-110212500I249999J0D01*
G01*
G37*
G36*
G01*
X103949999Y-108387500D02*
X104850001Y-108387500D01*
G75*
G02*
X105100000Y-108637499I0J-249999D01*
G01*
X105100000Y-109162501D01*
G75*
G02*
X104850001Y-109412500I-249999J0D01*
G01*
X103949999Y-109412500D01*
G75*
G02*
X103700000Y-109162501I0J249999D01*
G01*
X103700000Y-108637499D01*
G75*
G02*
X103949999Y-108387500I249999J0D01*
G01*
G37*
%TD*%
%TO.C,R3*%
G36*
G01*
X100549999Y-110212500D02*
X101450001Y-110212500D01*
G75*
G02*
X101700000Y-110462499I0J-249999D01*
G01*
X101700000Y-110987501D01*
G75*
G02*
X101450001Y-111237500I-249999J0D01*
G01*
X100549999Y-111237500D01*
G75*
G02*
X100300000Y-110987501I0J249999D01*
G01*
X100300000Y-110462499D01*
G75*
G02*
X100549999Y-110212500I249999J0D01*
G01*
G37*
G36*
G01*
X100549999Y-108387500D02*
X101450001Y-108387500D01*
G75*
G02*
X101700000Y-108637499I0J-249999D01*
G01*
X101700000Y-109162501D01*
G75*
G02*
X101450001Y-109412500I-249999J0D01*
G01*
X100549999Y-109412500D01*
G75*
G02*
X100300000Y-109162501I0J249999D01*
G01*
X100300000Y-108637499D01*
G75*
G02*
X100549999Y-108387500I249999J0D01*
G01*
G37*
%TD*%
%TO.C,C12*%
G36*
G01*
X103145927Y-97182322D02*
X103817678Y-97854073D01*
G75*
G02*
X103817678Y-98207627I-176777J-176777D01*
G01*
X103464125Y-98561180D01*
G75*
G02*
X103110571Y-98561180I-176777J176777D01*
G01*
X102438820Y-97889429D01*
G75*
G02*
X102438820Y-97535875I176777J176777D01*
G01*
X102792373Y-97182322D01*
G75*
G02*
X103145927Y-97182322I176777J-176777D01*
G01*
G37*
G36*
G01*
X104489429Y-95838820D02*
X105161180Y-96510571D01*
G75*
G02*
X105161180Y-96864125I-176777J-176777D01*
G01*
X104807627Y-97217678D01*
G75*
G02*
X104454073Y-97217678I-176777J176777D01*
G01*
X103782322Y-96545927D01*
G75*
G02*
X103782322Y-96192373I176777J176777D01*
G01*
X104135875Y-95838820D01*
G75*
G02*
X104489429Y-95838820I176777J-176777D01*
G01*
G37*
%TD*%
%TO.C,C10*%
G36*
G01*
X89374176Y-99254073D02*
X90045927Y-99925824D01*
G75*
G02*
X90045927Y-100279378I-176777J-176777D01*
G01*
X89692374Y-100632931D01*
G75*
G02*
X89338820Y-100632931I-176777J176777D01*
G01*
X88667069Y-99961180D01*
G75*
G02*
X88667069Y-99607626I176777J176777D01*
G01*
X89020622Y-99254073D01*
G75*
G02*
X89374176Y-99254073I176777J-176777D01*
G01*
G37*
G36*
G01*
X90717678Y-97910571D02*
X91389429Y-98582322D01*
G75*
G02*
X91389429Y-98935876I-176777J-176777D01*
G01*
X91035876Y-99289429D01*
G75*
G02*
X90682322Y-99289429I-176777J176777D01*
G01*
X90010571Y-98617678D01*
G75*
G02*
X90010571Y-98264124I176777J176777D01*
G01*
X90364124Y-97910571D01*
G75*
G02*
X90717678Y-97910571I176777J-176777D01*
G01*
G37*
%TD*%
%TO.C,C9*%
G36*
G01*
X103910571Y-92982322D02*
X104582322Y-92310571D01*
G75*
G02*
X104935876Y-92310571I176777J-176777D01*
G01*
X105289429Y-92664124D01*
G75*
G02*
X105289429Y-93017678I-176777J-176777D01*
G01*
X104617678Y-93689429D01*
G75*
G02*
X104264124Y-93689429I-176777J176777D01*
G01*
X103910571Y-93335876D01*
G75*
G02*
X103910571Y-92982322I176777J176777D01*
G01*
G37*
G36*
G01*
X102567069Y-91638820D02*
X103238820Y-90967069D01*
G75*
G02*
X103592374Y-90967069I176777J-176777D01*
G01*
X103945927Y-91320622D01*
G75*
G02*
X103945927Y-91674176I-176777J-176777D01*
G01*
X103274176Y-92345927D01*
G75*
G02*
X102920622Y-92345927I-176777J176777D01*
G01*
X102567069Y-91992374D01*
G75*
G02*
X102567069Y-91638820I176777J176777D01*
G01*
G37*
%TD*%
%TO.C,C8*%
G36*
G01*
X95082322Y-82454073D02*
X95754073Y-81782322D01*
G75*
G02*
X96107627Y-81782322I176777J-176777D01*
G01*
X96461180Y-82135875D01*
G75*
G02*
X96461180Y-82489429I-176777J-176777D01*
G01*
X95789429Y-83161180D01*
G75*
G02*
X95435875Y-83161180I-176777J176777D01*
G01*
X95082322Y-82807627D01*
G75*
G02*
X95082322Y-82454073I176777J176777D01*
G01*
G37*
G36*
G01*
X93738820Y-81110571D02*
X94410571Y-80438820D01*
G75*
G02*
X94764125Y-80438820I176777J-176777D01*
G01*
X95117678Y-80792373D01*
G75*
G02*
X95117678Y-81145927I-176777J-176777D01*
G01*
X94445927Y-81817678D01*
G75*
G02*
X94092373Y-81817678I-176777J176777D01*
G01*
X93738820Y-81464125D01*
G75*
G02*
X93738820Y-81110571I176777J176777D01*
G01*
G37*
%TD*%
%TO.C,C7*%
G36*
G01*
X84015927Y-85824176D02*
X83344176Y-86495927D01*
G75*
G02*
X82990622Y-86495927I-176777J176777D01*
G01*
X82637069Y-86142374D01*
G75*
G02*
X82637069Y-85788820I176777J176777D01*
G01*
X83308820Y-85117069D01*
G75*
G02*
X83662374Y-85117069I176777J-176777D01*
G01*
X84015927Y-85470622D01*
G75*
G02*
X84015927Y-85824176I-176777J-176777D01*
G01*
G37*
G36*
G01*
X85359429Y-87167678D02*
X84687678Y-87839429D01*
G75*
G02*
X84334124Y-87839429I-176777J176777D01*
G01*
X83980571Y-87485876D01*
G75*
G02*
X83980571Y-87132322I176777J176777D01*
G01*
X84652322Y-86460571D01*
G75*
G02*
X85005876Y-86460571I176777J-176777D01*
G01*
X85359429Y-86814124D01*
G75*
G02*
X85359429Y-87167678I-176777J-176777D01*
G01*
G37*
%TD*%
%TO.C,C6*%
G36*
G01*
X82617678Y-87145927D02*
X81945927Y-87817678D01*
G75*
G02*
X81592373Y-87817678I-176777J176777D01*
G01*
X81238820Y-87464125D01*
G75*
G02*
X81238820Y-87110571I176777J176777D01*
G01*
X81910571Y-86438820D01*
G75*
G02*
X82264125Y-86438820I176777J-176777D01*
G01*
X82617678Y-86792373D01*
G75*
G02*
X82617678Y-87145927I-176777J-176777D01*
G01*
G37*
G36*
G01*
X83961180Y-88489429D02*
X83289429Y-89161180D01*
G75*
G02*
X82935875Y-89161180I-176777J176777D01*
G01*
X82582322Y-88807627D01*
G75*
G02*
X82582322Y-88454073I176777J176777D01*
G01*
X83254073Y-87782322D01*
G75*
G02*
X83607627Y-87782322I176777J-176777D01*
G01*
X83961180Y-88135875D01*
G75*
G02*
X83961180Y-88489429I-176777J-176777D01*
G01*
G37*
%TD*%
%TO.C,C5*%
G36*
G01*
X84245927Y-98182322D02*
X84917678Y-98854073D01*
G75*
G02*
X84917678Y-99207627I-176777J-176777D01*
G01*
X84564125Y-99561180D01*
G75*
G02*
X84210571Y-99561180I-176777J176777D01*
G01*
X83538820Y-98889429D01*
G75*
G02*
X83538820Y-98535875I176777J176777D01*
G01*
X83892373Y-98182322D01*
G75*
G02*
X84245927Y-98182322I176777J-176777D01*
G01*
G37*
G36*
G01*
X85589429Y-96838820D02*
X86261180Y-97510571D01*
G75*
G02*
X86261180Y-97864125I-176777J-176777D01*
G01*
X85907627Y-98217678D01*
G75*
G02*
X85554073Y-98217678I-176777J176777D01*
G01*
X84882322Y-97545927D01*
G75*
G02*
X84882322Y-97192373I176777J176777D01*
G01*
X85235875Y-96838820D01*
G75*
G02*
X85589429Y-96838820I176777J-176777D01*
G01*
G37*
%TD*%
%TO.C,C4*%
G36*
G01*
X77489429Y-97217678D02*
X76817678Y-97889429D01*
G75*
G02*
X76464124Y-97889429I-176777J176777D01*
G01*
X76110571Y-97535876D01*
G75*
G02*
X76110571Y-97182322I176777J176777D01*
G01*
X76782322Y-96510571D01*
G75*
G02*
X77135876Y-96510571I176777J-176777D01*
G01*
X77489429Y-96864124D01*
G75*
G02*
X77489429Y-97217678I-176777J-176777D01*
G01*
G37*
G36*
G01*
X78832931Y-98561180D02*
X78161180Y-99232931D01*
G75*
G02*
X77807626Y-99232931I-176777J176777D01*
G01*
X77454073Y-98879378D01*
G75*
G02*
X77454073Y-98525824I176777J176777D01*
G01*
X78125824Y-97854073D01*
G75*
G02*
X78479378Y-97854073I176777J-176777D01*
G01*
X78832931Y-98207626D01*
G75*
G02*
X78832931Y-98561180I-176777J-176777D01*
G01*
G37*
%TD*%
%TO.C,C3*%
G36*
G01*
X81782322Y-94154073D02*
X82454073Y-93482322D01*
G75*
G02*
X82807627Y-93482322I176777J-176777D01*
G01*
X83161180Y-93835875D01*
G75*
G02*
X83161180Y-94189429I-176777J-176777D01*
G01*
X82489429Y-94861180D01*
G75*
G02*
X82135875Y-94861180I-176777J176777D01*
G01*
X81782322Y-94507627D01*
G75*
G02*
X81782322Y-94154073I176777J176777D01*
G01*
G37*
G36*
G01*
X80438820Y-92810571D02*
X81110571Y-92138820D01*
G75*
G02*
X81464125Y-92138820I176777J-176777D01*
G01*
X81817678Y-92492373D01*
G75*
G02*
X81817678Y-92845927I-176777J-176777D01*
G01*
X81145927Y-93517678D01*
G75*
G02*
X80792373Y-93517678I-176777J176777D01*
G01*
X80438820Y-93164125D01*
G75*
G02*
X80438820Y-92810571I176777J176777D01*
G01*
G37*
%TD*%
%TO.C,F2*%
G36*
G01*
X69749999Y-62975000D02*
X72650001Y-62975000D01*
G75*
G02*
X72900000Y-63224999I0J-249999D01*
G01*
X72900000Y-63850001D01*
G75*
G02*
X72650001Y-64100000I-249999J0D01*
G01*
X69749999Y-64100000D01*
G75*
G02*
X69500000Y-63850001I0J249999D01*
G01*
X69500000Y-63224999D01*
G75*
G02*
X69749999Y-62975000I249999J0D01*
G01*
G37*
G36*
G01*
X69749999Y-58700000D02*
X72650001Y-58700000D01*
G75*
G02*
X72900000Y-58949999I0J-249999D01*
G01*
X72900000Y-59575001D01*
G75*
G02*
X72650001Y-59825000I-249999J0D01*
G01*
X69749999Y-59825000D01*
G75*
G02*
X69500000Y-59575001I0J249999D01*
G01*
X69500000Y-58949999D01*
G75*
G02*
X69749999Y-58700000I249999J0D01*
G01*
G37*
%TD*%
%TO.C,F1*%
G36*
G01*
X62450001Y-59825000D02*
X59549999Y-59825000D01*
G75*
G02*
X59300000Y-59575001I0J249999D01*
G01*
X59300000Y-58949999D01*
G75*
G02*
X59549999Y-58700000I249999J0D01*
G01*
X62450001Y-58700000D01*
G75*
G02*
X62700000Y-58949999I0J-249999D01*
G01*
X62700000Y-59575001D01*
G75*
G02*
X62450001Y-59825000I-249999J0D01*
G01*
G37*
G36*
G01*
X62450001Y-64100000D02*
X59549999Y-64100000D01*
G75*
G02*
X59300000Y-63850001I0J249999D01*
G01*
X59300000Y-63224999D01*
G75*
G02*
X59549999Y-62975000I249999J0D01*
G01*
X62450001Y-62975000D01*
G75*
G02*
X62700000Y-63224999I0J-249999D01*
G01*
X62700000Y-63850001D01*
G75*
G02*
X62450001Y-64100000I-249999J0D01*
G01*
G37*
%TD*%
%TO.C,R12*%
G36*
G01*
X115149999Y-54200000D02*
X116050001Y-54200000D01*
G75*
G02*
X116300000Y-54449999I0J-249999D01*
G01*
X116300000Y-54975001D01*
G75*
G02*
X116050001Y-55225000I-249999J0D01*
G01*
X115149999Y-55225000D01*
G75*
G02*
X114900000Y-54975001I0J249999D01*
G01*
X114900000Y-54449999D01*
G75*
G02*
X115149999Y-54200000I249999J0D01*
G01*
G37*
G36*
G01*
X115149999Y-52375000D02*
X116050001Y-52375000D01*
G75*
G02*
X116300000Y-52624999I0J-249999D01*
G01*
X116300000Y-53150001D01*
G75*
G02*
X116050001Y-53400000I-249999J0D01*
G01*
X115149999Y-53400000D01*
G75*
G02*
X114900000Y-53150001I0J249999D01*
G01*
X114900000Y-52624999D01*
G75*
G02*
X115149999Y-52375000I249999J0D01*
G01*
G37*
%TD*%
%TO.C,R11*%
G36*
G01*
X55049999Y-54000000D02*
X55950001Y-54000000D01*
G75*
G02*
X56200000Y-54249999I0J-249999D01*
G01*
X56200000Y-54775001D01*
G75*
G02*
X55950001Y-55025000I-249999J0D01*
G01*
X55049999Y-55025000D01*
G75*
G02*
X54800000Y-54775001I0J249999D01*
G01*
X54800000Y-54249999D01*
G75*
G02*
X55049999Y-54000000I249999J0D01*
G01*
G37*
G36*
G01*
X55049999Y-52175000D02*
X55950001Y-52175000D01*
G75*
G02*
X56200000Y-52424999I0J-249999D01*
G01*
X56200000Y-52950001D01*
G75*
G02*
X55950001Y-53200000I-249999J0D01*
G01*
X55049999Y-53200000D01*
G75*
G02*
X54800000Y-52950001I0J249999D01*
G01*
X54800000Y-52424999D01*
G75*
G02*
X55049999Y-52175000I249999J0D01*
G01*
G37*
%TD*%
%TO.C,R10*%
G36*
G01*
X74549999Y-53987500D02*
X75450001Y-53987500D01*
G75*
G02*
X75700000Y-54237499I0J-249999D01*
G01*
X75700000Y-54762501D01*
G75*
G02*
X75450001Y-55012500I-249999J0D01*
G01*
X74549999Y-55012500D01*
G75*
G02*
X74300000Y-54762501I0J249999D01*
G01*
X74300000Y-54237499D01*
G75*
G02*
X74549999Y-53987500I249999J0D01*
G01*
G37*
G36*
G01*
X74549999Y-52162500D02*
X75450001Y-52162500D01*
G75*
G02*
X75700000Y-52412499I0J-249999D01*
G01*
X75700000Y-52937501D01*
G75*
G02*
X75450001Y-53187500I-249999J0D01*
G01*
X74549999Y-53187500D01*
G75*
G02*
X74300000Y-52937501I0J249999D01*
G01*
X74300000Y-52412499D01*
G75*
G02*
X74549999Y-52162500I249999J0D01*
G01*
G37*
%TD*%
D19*
%TO.C,D2*%
X67800000Y-59850000D03*
X67800000Y-63150000D03*
%TD*%
%TO.C,D1*%
X57600000Y-59850000D03*
X57600000Y-63150000D03*
%TD*%
%TO.C,R1*%
G36*
G01*
X65770000Y-68110001D02*
X65770000Y-67209999D01*
G75*
G02*
X66019999Y-66960000I249999J0D01*
G01*
X66545001Y-66960000D01*
G75*
G02*
X66795000Y-67209999I0J-249999D01*
G01*
X66795000Y-68110001D01*
G75*
G02*
X66545001Y-68360000I-249999J0D01*
G01*
X66019999Y-68360000D01*
G75*
G02*
X65770000Y-68110001I0J249999D01*
G01*
G37*
G36*
G01*
X63945000Y-68110001D02*
X63945000Y-67209999D01*
G75*
G02*
X64194999Y-66960000I249999J0D01*
G01*
X64720001Y-66960000D01*
G75*
G02*
X64970000Y-67209999I0J-249999D01*
G01*
X64970000Y-68110001D01*
G75*
G02*
X64720001Y-68360000I-249999J0D01*
G01*
X64194999Y-68360000D01*
G75*
G02*
X63945000Y-68110001I0J249999D01*
G01*
G37*
%TD*%
%TO.C,C2*%
G36*
G01*
X63850000Y-77325000D02*
X63850000Y-78275000D01*
G75*
G02*
X63600000Y-78525000I-250000J0D01*
G01*
X63100000Y-78525000D01*
G75*
G02*
X62850000Y-78275000I0J250000D01*
G01*
X62850000Y-77325000D01*
G75*
G02*
X63100000Y-77075000I250000J0D01*
G01*
X63600000Y-77075000D01*
G75*
G02*
X63850000Y-77325000I0J-250000D01*
G01*
G37*
G36*
G01*
X65750000Y-77325000D02*
X65750000Y-78275000D01*
G75*
G02*
X65500000Y-78525000I-250000J0D01*
G01*
X65000000Y-78525000D01*
G75*
G02*
X64750000Y-78275000I0J250000D01*
G01*
X64750000Y-77325000D01*
G75*
G02*
X65000000Y-77075000I250000J0D01*
G01*
X65500000Y-77075000D01*
G75*
G02*
X65750000Y-77325000I0J-250000D01*
G01*
G37*
%TD*%
%TO.C,C1*%
G36*
G01*
X106225000Y-87800000D02*
X107175000Y-87800000D01*
G75*
G02*
X107425000Y-88050000I0J-250000D01*
G01*
X107425000Y-88550000D01*
G75*
G02*
X107175000Y-88800000I-250000J0D01*
G01*
X106225000Y-88800000D01*
G75*
G02*
X105975000Y-88550000I0J250000D01*
G01*
X105975000Y-88050000D01*
G75*
G02*
X106225000Y-87800000I250000J0D01*
G01*
G37*
G36*
G01*
X106225000Y-85900000D02*
X107175000Y-85900000D01*
G75*
G02*
X107425000Y-86150000I0J-250000D01*
G01*
X107425000Y-86650000D01*
G75*
G02*
X107175000Y-86900000I-250000J0D01*
G01*
X106225000Y-86900000D01*
G75*
G02*
X105975000Y-86650000I0J250000D01*
G01*
X105975000Y-86150000D01*
G75*
G02*
X106225000Y-85900000I250000J0D01*
G01*
G37*
%TD*%
M02*
