%TF.GenerationSoftware,KiCad,Pcbnew,5.1.7-a382d34a8~88~ubuntu20.04.1*%
%TF.CreationDate,2021-06-18T16:23:43+02:00*%
%TF.ProjectId,Shield_Nucleo,53686965-6c64-45f4-9e75-636c656f2e6b,rev?*%
%TF.SameCoordinates,Original*%
%TF.FileFunction,Soldermask,Top*%
%TF.FilePolarity,Negative*%
%FSLAX46Y46*%
G04 Gerber Fmt 4.6, Leading zero omitted, Abs format (unit mm)*
G04 Created by KiCad (PCBNEW 5.1.7-a382d34a8~88~ubuntu20.04.1) date 2021-06-18 16:23:43*
%MOMM*%
%LPD*%
G01*
G04 APERTURE LIST*
%ADD10O,1.800000X1.800000*%
%ADD11C,3.300000*%
%ADD12C,3.100000*%
%ADD13C,1.400000*%
%ADD14C,3.600000*%
%ADD15C,6.100000*%
%ADD16O,1.900000X1.500000*%
%ADD17O,1.500000X1.900000*%
%ADD18C,2.100000*%
%ADD19O,1.100000X1.100000*%
G04 APERTURE END LIST*
D10*
%TO.C,J5*%
X51500000Y-90200000D03*
X51500000Y-87660000D03*
X51500000Y-85120000D03*
X51500000Y-82580000D03*
X51500000Y-80040000D03*
G36*
G01*
X50600000Y-78350000D02*
X50600000Y-76650000D01*
G75*
G02*
X50650000Y-76600000I50000J0D01*
G01*
X52350000Y-76600000D01*
G75*
G02*
X52400000Y-76650000I0J-50000D01*
G01*
X52400000Y-78350000D01*
G75*
G02*
X52350000Y-78400000I-50000J0D01*
G01*
X50650000Y-78400000D01*
G75*
G02*
X50600000Y-78350000I0J50000D01*
G01*
G37*
%TD*%
%TO.C,J4*%
X51500000Y-74000000D03*
X51500000Y-71460000D03*
X51500000Y-68920000D03*
X51500000Y-66380000D03*
X51500000Y-63840000D03*
G36*
G01*
X50600000Y-62150000D02*
X50600000Y-60450000D01*
G75*
G02*
X50650000Y-60400000I50000J0D01*
G01*
X52350000Y-60400000D01*
G75*
G02*
X52400000Y-60450000I0J-50000D01*
G01*
X52400000Y-62150000D01*
G75*
G02*
X52350000Y-62200000I-50000J0D01*
G01*
X50650000Y-62200000D01*
G75*
G02*
X50600000Y-62150000I0J50000D01*
G01*
G37*
%TD*%
%TO.C,JP4*%
X66540000Y-108000000D03*
G36*
G01*
X64850000Y-108900000D02*
X63150000Y-108900000D01*
G75*
G02*
X63100000Y-108850000I0J50000D01*
G01*
X63100000Y-107150000D01*
G75*
G02*
X63150000Y-107100000I50000J0D01*
G01*
X64850000Y-107100000D01*
G75*
G02*
X64900000Y-107150000I0J-50000D01*
G01*
X64900000Y-108850000D01*
G75*
G02*
X64850000Y-108900000I-50000J0D01*
G01*
G37*
%TD*%
%TO.C,J9*%
X55460000Y-108000000D03*
X58000000Y-108000000D03*
G36*
G01*
X59690000Y-107100000D02*
X61390000Y-107100000D01*
G75*
G02*
X61440000Y-107150000I0J-50000D01*
G01*
X61440000Y-108850000D01*
G75*
G02*
X61390000Y-108900000I-50000J0D01*
G01*
X59690000Y-108900000D01*
G75*
G02*
X59640000Y-108850000I0J50000D01*
G01*
X59640000Y-107150000D01*
G75*
G02*
X59690000Y-107100000I50000J0D01*
G01*
G37*
%TD*%
%TO.C,U10*%
G36*
G01*
X94900000Y-129550000D02*
X94900000Y-128750000D01*
G75*
G02*
X94950000Y-128700000I50000J0D01*
G01*
X95850000Y-128700000D01*
G75*
G02*
X95900000Y-128750000I0J-50000D01*
G01*
X95900000Y-129550000D01*
G75*
G02*
X95850000Y-129600000I-50000J0D01*
G01*
X94950000Y-129600000D01*
G75*
G02*
X94900000Y-129550000I0J50000D01*
G01*
G37*
G36*
G01*
X92900000Y-130500000D02*
X92900000Y-129700000D01*
G75*
G02*
X92950000Y-129650000I50000J0D01*
G01*
X93850000Y-129650000D01*
G75*
G02*
X93900000Y-129700000I0J-50000D01*
G01*
X93900000Y-130500000D01*
G75*
G02*
X93850000Y-130550000I-50000J0D01*
G01*
X92950000Y-130550000D01*
G75*
G02*
X92900000Y-130500000I0J50000D01*
G01*
G37*
G36*
G01*
X92900000Y-128600000D02*
X92900000Y-127800000D01*
G75*
G02*
X92950000Y-127750000I50000J0D01*
G01*
X93850000Y-127750000D01*
G75*
G02*
X93900000Y-127800000I0J-50000D01*
G01*
X93900000Y-128600000D01*
G75*
G02*
X93850000Y-128650000I-50000J0D01*
G01*
X92950000Y-128650000D01*
G75*
G02*
X92900000Y-128600000I0J50000D01*
G01*
G37*
%TD*%
%TO.C,C44*%
G36*
G01*
X94000000Y-125900000D02*
X94000000Y-126900000D01*
G75*
G02*
X93725000Y-127175000I-275000J0D01*
G01*
X93175000Y-127175000D01*
G75*
G02*
X92900000Y-126900000I0J275000D01*
G01*
X92900000Y-125900000D01*
G75*
G02*
X93175000Y-125625000I275000J0D01*
G01*
X93725000Y-125625000D01*
G75*
G02*
X94000000Y-125900000I0J-275000D01*
G01*
G37*
G36*
G01*
X95900000Y-125900000D02*
X95900000Y-126900000D01*
G75*
G02*
X95625000Y-127175000I-275000J0D01*
G01*
X95075000Y-127175000D01*
G75*
G02*
X94800000Y-126900000I0J275000D01*
G01*
X94800000Y-125900000D01*
G75*
G02*
X95075000Y-125625000I275000J0D01*
G01*
X95625000Y-125625000D01*
G75*
G02*
X95900000Y-125900000I0J-275000D01*
G01*
G37*
%TD*%
%TO.C,C43*%
G36*
G01*
X94800000Y-132300000D02*
X94800000Y-131300000D01*
G75*
G02*
X95075000Y-131025000I275000J0D01*
G01*
X95625000Y-131025000D01*
G75*
G02*
X95900000Y-131300000I0J-275000D01*
G01*
X95900000Y-132300000D01*
G75*
G02*
X95625000Y-132575000I-275000J0D01*
G01*
X95075000Y-132575000D01*
G75*
G02*
X94800000Y-132300000I0J275000D01*
G01*
G37*
G36*
G01*
X92900000Y-132300000D02*
X92900000Y-131300000D01*
G75*
G02*
X93175000Y-131025000I275000J0D01*
G01*
X93725000Y-131025000D01*
G75*
G02*
X94000000Y-131300000I0J-275000D01*
G01*
X94000000Y-132300000D01*
G75*
G02*
X93725000Y-132575000I-275000J0D01*
G01*
X93175000Y-132575000D01*
G75*
G02*
X92900000Y-132300000I0J275000D01*
G01*
G37*
%TD*%
%TO.C,C14*%
G36*
G01*
X101529289Y-95236396D02*
X102236396Y-94529289D01*
G75*
G02*
X102625304Y-94529289I194454J-194454D01*
G01*
X103014213Y-94918198D01*
G75*
G02*
X103014213Y-95307106I-194454J-194454D01*
G01*
X102307106Y-96014213D01*
G75*
G02*
X101918198Y-96014213I-194454J194454D01*
G01*
X101529289Y-95625304D01*
G75*
G02*
X101529289Y-95236396I194454J194454D01*
G01*
G37*
G36*
G01*
X100185787Y-93892894D02*
X100892894Y-93185787D01*
G75*
G02*
X101281802Y-93185787I194454J-194454D01*
G01*
X101670711Y-93574696D01*
G75*
G02*
X101670711Y-93963604I-194454J-194454D01*
G01*
X100963604Y-94670711D01*
G75*
G02*
X100574696Y-94670711I-194454J194454D01*
G01*
X100185787Y-94281802D01*
G75*
G02*
X100185787Y-93892894I194454J194454D01*
G01*
G37*
%TD*%
%TO.C,R26*%
G36*
G01*
X117880000Y-109475611D02*
X117880000Y-108524389D01*
G75*
G02*
X118154389Y-108250000I274389J0D01*
G01*
X118730611Y-108250000D01*
G75*
G02*
X119005000Y-108524389I0J-274389D01*
G01*
X119005000Y-109475611D01*
G75*
G02*
X118730611Y-109750000I-274389J0D01*
G01*
X118154389Y-109750000D01*
G75*
G02*
X117880000Y-109475611I0J274389D01*
G01*
G37*
G36*
G01*
X116055000Y-109475611D02*
X116055000Y-108524389D01*
G75*
G02*
X116329389Y-108250000I274389J0D01*
G01*
X116905611Y-108250000D01*
G75*
G02*
X117180000Y-108524389I0J-274389D01*
G01*
X117180000Y-109475611D01*
G75*
G02*
X116905611Y-109750000I-274389J0D01*
G01*
X116329389Y-109750000D01*
G75*
G02*
X116055000Y-109475611I0J274389D01*
G01*
G37*
%TD*%
%TO.C,LED2*%
G36*
G01*
X117970000Y-107396250D02*
X117970000Y-106433750D01*
G75*
G02*
X118238750Y-106165000I268750J0D01*
G01*
X118776250Y-106165000D01*
G75*
G02*
X119045000Y-106433750I0J-268750D01*
G01*
X119045000Y-107396250D01*
G75*
G02*
X118776250Y-107665000I-268750J0D01*
G01*
X118238750Y-107665000D01*
G75*
G02*
X117970000Y-107396250I0J268750D01*
G01*
G37*
G36*
G01*
X116095000Y-107396250D02*
X116095000Y-106433750D01*
G75*
G02*
X116363750Y-106165000I268750J0D01*
G01*
X116901250Y-106165000D01*
G75*
G02*
X117170000Y-106433750I0J-268750D01*
G01*
X117170000Y-107396250D01*
G75*
G02*
X116901250Y-107665000I-268750J0D01*
G01*
X116363750Y-107665000D01*
G75*
G02*
X116095000Y-107396250I0J268750D01*
G01*
G37*
%TD*%
%TO.C,C42*%
G36*
G01*
X99763604Y-97129289D02*
X100470711Y-97836396D01*
G75*
G02*
X100470711Y-98225304I-194454J-194454D01*
G01*
X100081802Y-98614213D01*
G75*
G02*
X99692894Y-98614213I-194454J194454D01*
G01*
X98985787Y-97907106D01*
G75*
G02*
X98985787Y-97518198I194454J194454D01*
G01*
X99374696Y-97129289D01*
G75*
G02*
X99763604Y-97129289I194454J-194454D01*
G01*
G37*
G36*
G01*
X101107106Y-95785787D02*
X101814213Y-96492894D01*
G75*
G02*
X101814213Y-96881802I-194454J-194454D01*
G01*
X101425304Y-97270711D01*
G75*
G02*
X101036396Y-97270711I-194454J194454D01*
G01*
X100329289Y-96563604D01*
G75*
G02*
X100329289Y-96174696I194454J194454D01*
G01*
X100718198Y-95785787D01*
G75*
G02*
X101107106Y-95785787I194454J-194454D01*
G01*
G37*
%TD*%
%TO.C,C41*%
G36*
G01*
X98491853Y-95801040D02*
X99198960Y-96508147D01*
G75*
G02*
X99198960Y-96897055I-194454J-194454D01*
G01*
X98810051Y-97285964D01*
G75*
G02*
X98421143Y-97285964I-194454J194454D01*
G01*
X97714036Y-96578857D01*
G75*
G02*
X97714036Y-96189949I194454J194454D01*
G01*
X98102945Y-95801040D01*
G75*
G02*
X98491853Y-95801040I194454J-194454D01*
G01*
G37*
G36*
G01*
X99835355Y-94457538D02*
X100542462Y-95164645D01*
G75*
G02*
X100542462Y-95553553I-194454J-194454D01*
G01*
X100153553Y-95942462D01*
G75*
G02*
X99764645Y-95942462I-194454J194454D01*
G01*
X99057538Y-95235355D01*
G75*
G02*
X99057538Y-94846447I194454J194454D01*
G01*
X99446447Y-94457538D01*
G75*
G02*
X99835355Y-94457538I194454J-194454D01*
G01*
G37*
%TD*%
D11*
%TO.C,J7*%
X139200000Y-114500000D03*
X94200000Y-114500000D03*
D12*
X49200000Y-114500000D03*
D11*
X69200000Y-81500000D03*
X119200000Y-81500000D03*
D12*
X138650000Y-40200000D03*
D11*
X49750000Y-40200000D03*
%TD*%
%TO.C,J6*%
G36*
G01*
X118350000Y-135200000D02*
X118350000Y-129600000D01*
G75*
G02*
X118400000Y-129550000I50000J0D01*
G01*
X120600000Y-129550000D01*
G75*
G02*
X120650000Y-129600000I0J-50000D01*
G01*
X120650000Y-135200000D01*
G75*
G02*
X120600000Y-135250000I-50000J0D01*
G01*
X118400000Y-135250000D01*
G75*
G02*
X118350000Y-135200000I0J50000D01*
G01*
G37*
G36*
G01*
X115600000Y-129750000D02*
X115600000Y-126550000D01*
G75*
G02*
X115650000Y-126500000I50000J0D01*
G01*
X116850000Y-126500000D01*
G75*
G02*
X116900000Y-126550000I0J-50000D01*
G01*
X116900000Y-129750000D01*
G75*
G02*
X116850000Y-129800000I-50000J0D01*
G01*
X115650000Y-129800000D01*
G75*
G02*
X115600000Y-129750000I0J50000D01*
G01*
G37*
G36*
G01*
X113100000Y-129750000D02*
X113100000Y-126550000D01*
G75*
G02*
X113150000Y-126500000I50000J0D01*
G01*
X114350000Y-126500000D01*
G75*
G02*
X114400000Y-126550000I0J-50000D01*
G01*
X114400000Y-129750000D01*
G75*
G02*
X114350000Y-129800000I-50000J0D01*
G01*
X113150000Y-129800000D01*
G75*
G02*
X113100000Y-129750000I0J50000D01*
G01*
G37*
G36*
G01*
X109350000Y-135200000D02*
X109350000Y-129600000D01*
G75*
G02*
X109400000Y-129550000I50000J0D01*
G01*
X111600000Y-129550000D01*
G75*
G02*
X111650000Y-129600000I0J-50000D01*
G01*
X111650000Y-135200000D01*
G75*
G02*
X111600000Y-135250000I-50000J0D01*
G01*
X109400000Y-135250000D01*
G75*
G02*
X109350000Y-135200000I0J50000D01*
G01*
G37*
%TD*%
%TO.C,J1*%
G36*
G01*
X137750000Y-135200000D02*
X137750000Y-129600000D01*
G75*
G02*
X137800000Y-129550000I50000J0D01*
G01*
X140000000Y-129550000D01*
G75*
G02*
X140050000Y-129600000I0J-50000D01*
G01*
X140050000Y-135200000D01*
G75*
G02*
X140000000Y-135250000I-50000J0D01*
G01*
X137800000Y-135250000D01*
G75*
G02*
X137750000Y-135200000I0J50000D01*
G01*
G37*
G36*
G01*
X135000000Y-129750000D02*
X135000000Y-126550000D01*
G75*
G02*
X135050000Y-126500000I50000J0D01*
G01*
X136250000Y-126500000D01*
G75*
G02*
X136300000Y-126550000I0J-50000D01*
G01*
X136300000Y-129750000D01*
G75*
G02*
X136250000Y-129800000I-50000J0D01*
G01*
X135050000Y-129800000D01*
G75*
G02*
X135000000Y-129750000I0J50000D01*
G01*
G37*
G36*
G01*
X132500000Y-129750000D02*
X132500000Y-126550000D01*
G75*
G02*
X132550000Y-126500000I50000J0D01*
G01*
X133750000Y-126500000D01*
G75*
G02*
X133800000Y-126550000I0J-50000D01*
G01*
X133800000Y-129750000D01*
G75*
G02*
X133750000Y-129800000I-50000J0D01*
G01*
X132550000Y-129800000D01*
G75*
G02*
X132500000Y-129750000I0J50000D01*
G01*
G37*
G36*
G01*
X128750000Y-135200000D02*
X128750000Y-129600000D01*
G75*
G02*
X128800000Y-129550000I50000J0D01*
G01*
X131000000Y-129550000D01*
G75*
G02*
X131050000Y-129600000I0J-50000D01*
G01*
X131050000Y-135200000D01*
G75*
G02*
X131000000Y-135250000I-50000J0D01*
G01*
X128800000Y-135250000D01*
G75*
G02*
X128750000Y-135200000I0J50000D01*
G01*
G37*
%TD*%
%TO.C,PS5*%
G36*
G01*
X65550000Y-129100000D02*
X63050000Y-129100000D01*
G75*
G02*
X63000000Y-129050000I0J50000D01*
G01*
X63000000Y-126550000D01*
G75*
G02*
X63050000Y-126500000I50000J0D01*
G01*
X65550000Y-126500000D01*
G75*
G02*
X65600000Y-126550000I0J-50000D01*
G01*
X65600000Y-129050000D01*
G75*
G02*
X65550000Y-129100000I-50000J0D01*
G01*
G37*
G36*
G01*
X65550000Y-118100000D02*
X63050000Y-118100000D01*
G75*
G02*
X63000000Y-118050000I0J50000D01*
G01*
X63000000Y-115550000D01*
G75*
G02*
X63050000Y-115500000I50000J0D01*
G01*
X65550000Y-115500000D01*
G75*
G02*
X65600000Y-115550000I0J-50000D01*
G01*
X65600000Y-118050000D01*
G75*
G02*
X65550000Y-118100000I-50000J0D01*
G01*
G37*
G36*
G01*
X77550000Y-118100000D02*
X75050000Y-118100000D01*
G75*
G02*
X75000000Y-118050000I0J50000D01*
G01*
X75000000Y-115550000D01*
G75*
G02*
X75050000Y-115500000I50000J0D01*
G01*
X77550000Y-115500000D01*
G75*
G02*
X77600000Y-115550000I0J-50000D01*
G01*
X77600000Y-118050000D01*
G75*
G02*
X77550000Y-118100000I-50000J0D01*
G01*
G37*
G36*
G01*
X77550000Y-129100000D02*
X75050000Y-129100000D01*
G75*
G02*
X75000000Y-129050000I0J50000D01*
G01*
X75000000Y-126550000D01*
G75*
G02*
X75050000Y-126500000I50000J0D01*
G01*
X77550000Y-126500000D01*
G75*
G02*
X77600000Y-126550000I0J-50000D01*
G01*
X77600000Y-129050000D01*
G75*
G02*
X77550000Y-129100000I-50000J0D01*
G01*
G37*
%TD*%
%TO.C,U6*%
G36*
G01*
X121240000Y-65660000D02*
X120890000Y-65660000D01*
G75*
G02*
X120715000Y-65485000I0J175000D01*
G01*
X120715000Y-63785000D01*
G75*
G02*
X120890000Y-63610000I175000J0D01*
G01*
X121240000Y-63610000D01*
G75*
G02*
X121415000Y-63785000I0J-175000D01*
G01*
X121415000Y-65485000D01*
G75*
G02*
X121240000Y-65660000I-175000J0D01*
G01*
G37*
G36*
G01*
X122510000Y-65660000D02*
X122160000Y-65660000D01*
G75*
G02*
X121985000Y-65485000I0J175000D01*
G01*
X121985000Y-63785000D01*
G75*
G02*
X122160000Y-63610000I175000J0D01*
G01*
X122510000Y-63610000D01*
G75*
G02*
X122685000Y-63785000I0J-175000D01*
G01*
X122685000Y-65485000D01*
G75*
G02*
X122510000Y-65660000I-175000J0D01*
G01*
G37*
G36*
G01*
X123780000Y-65660000D02*
X123430000Y-65660000D01*
G75*
G02*
X123255000Y-65485000I0J175000D01*
G01*
X123255000Y-63785000D01*
G75*
G02*
X123430000Y-63610000I175000J0D01*
G01*
X123780000Y-63610000D01*
G75*
G02*
X123955000Y-63785000I0J-175000D01*
G01*
X123955000Y-65485000D01*
G75*
G02*
X123780000Y-65660000I-175000J0D01*
G01*
G37*
G36*
G01*
X125050000Y-65660000D02*
X124700000Y-65660000D01*
G75*
G02*
X124525000Y-65485000I0J175000D01*
G01*
X124525000Y-63785000D01*
G75*
G02*
X124700000Y-63610000I175000J0D01*
G01*
X125050000Y-63610000D01*
G75*
G02*
X125225000Y-63785000I0J-175000D01*
G01*
X125225000Y-65485000D01*
G75*
G02*
X125050000Y-65660000I-175000J0D01*
G01*
G37*
G36*
G01*
X126320000Y-65660000D02*
X125970000Y-65660000D01*
G75*
G02*
X125795000Y-65485000I0J175000D01*
G01*
X125795000Y-63785000D01*
G75*
G02*
X125970000Y-63610000I175000J0D01*
G01*
X126320000Y-63610000D01*
G75*
G02*
X126495000Y-63785000I0J-175000D01*
G01*
X126495000Y-65485000D01*
G75*
G02*
X126320000Y-65660000I-175000J0D01*
G01*
G37*
G36*
G01*
X127590000Y-65660000D02*
X127240000Y-65660000D01*
G75*
G02*
X127065000Y-65485000I0J175000D01*
G01*
X127065000Y-63785000D01*
G75*
G02*
X127240000Y-63610000I175000J0D01*
G01*
X127590000Y-63610000D01*
G75*
G02*
X127765000Y-63785000I0J-175000D01*
G01*
X127765000Y-65485000D01*
G75*
G02*
X127590000Y-65660000I-175000J0D01*
G01*
G37*
G36*
G01*
X128860000Y-65660000D02*
X128510000Y-65660000D01*
G75*
G02*
X128335000Y-65485000I0J175000D01*
G01*
X128335000Y-63785000D01*
G75*
G02*
X128510000Y-63610000I175000J0D01*
G01*
X128860000Y-63610000D01*
G75*
G02*
X129035000Y-63785000I0J-175000D01*
G01*
X129035000Y-65485000D01*
G75*
G02*
X128860000Y-65660000I-175000J0D01*
G01*
G37*
G36*
G01*
X130130000Y-65660000D02*
X129780000Y-65660000D01*
G75*
G02*
X129605000Y-65485000I0J175000D01*
G01*
X129605000Y-63785000D01*
G75*
G02*
X129780000Y-63610000I175000J0D01*
G01*
X130130000Y-63610000D01*
G75*
G02*
X130305000Y-63785000I0J-175000D01*
G01*
X130305000Y-65485000D01*
G75*
G02*
X130130000Y-65660000I-175000J0D01*
G01*
G37*
G36*
G01*
X130130000Y-70610000D02*
X129780000Y-70610000D01*
G75*
G02*
X129605000Y-70435000I0J175000D01*
G01*
X129605000Y-68735000D01*
G75*
G02*
X129780000Y-68560000I175000J0D01*
G01*
X130130000Y-68560000D01*
G75*
G02*
X130305000Y-68735000I0J-175000D01*
G01*
X130305000Y-70435000D01*
G75*
G02*
X130130000Y-70610000I-175000J0D01*
G01*
G37*
G36*
G01*
X128860000Y-70610000D02*
X128510000Y-70610000D01*
G75*
G02*
X128335000Y-70435000I0J175000D01*
G01*
X128335000Y-68735000D01*
G75*
G02*
X128510000Y-68560000I175000J0D01*
G01*
X128860000Y-68560000D01*
G75*
G02*
X129035000Y-68735000I0J-175000D01*
G01*
X129035000Y-70435000D01*
G75*
G02*
X128860000Y-70610000I-175000J0D01*
G01*
G37*
G36*
G01*
X127590000Y-70610000D02*
X127240000Y-70610000D01*
G75*
G02*
X127065000Y-70435000I0J175000D01*
G01*
X127065000Y-68735000D01*
G75*
G02*
X127240000Y-68560000I175000J0D01*
G01*
X127590000Y-68560000D01*
G75*
G02*
X127765000Y-68735000I0J-175000D01*
G01*
X127765000Y-70435000D01*
G75*
G02*
X127590000Y-70610000I-175000J0D01*
G01*
G37*
G36*
G01*
X126320000Y-70610000D02*
X125970000Y-70610000D01*
G75*
G02*
X125795000Y-70435000I0J175000D01*
G01*
X125795000Y-68735000D01*
G75*
G02*
X125970000Y-68560000I175000J0D01*
G01*
X126320000Y-68560000D01*
G75*
G02*
X126495000Y-68735000I0J-175000D01*
G01*
X126495000Y-70435000D01*
G75*
G02*
X126320000Y-70610000I-175000J0D01*
G01*
G37*
G36*
G01*
X125050000Y-70610000D02*
X124700000Y-70610000D01*
G75*
G02*
X124525000Y-70435000I0J175000D01*
G01*
X124525000Y-68735000D01*
G75*
G02*
X124700000Y-68560000I175000J0D01*
G01*
X125050000Y-68560000D01*
G75*
G02*
X125225000Y-68735000I0J-175000D01*
G01*
X125225000Y-70435000D01*
G75*
G02*
X125050000Y-70610000I-175000J0D01*
G01*
G37*
G36*
G01*
X123780000Y-70610000D02*
X123430000Y-70610000D01*
G75*
G02*
X123255000Y-70435000I0J175000D01*
G01*
X123255000Y-68735000D01*
G75*
G02*
X123430000Y-68560000I175000J0D01*
G01*
X123780000Y-68560000D01*
G75*
G02*
X123955000Y-68735000I0J-175000D01*
G01*
X123955000Y-70435000D01*
G75*
G02*
X123780000Y-70610000I-175000J0D01*
G01*
G37*
G36*
G01*
X122510000Y-70610000D02*
X122160000Y-70610000D01*
G75*
G02*
X121985000Y-70435000I0J175000D01*
G01*
X121985000Y-68735000D01*
G75*
G02*
X122160000Y-68560000I175000J0D01*
G01*
X122510000Y-68560000D01*
G75*
G02*
X122685000Y-68735000I0J-175000D01*
G01*
X122685000Y-70435000D01*
G75*
G02*
X122510000Y-70610000I-175000J0D01*
G01*
G37*
G36*
G01*
X121240000Y-70610000D02*
X120890000Y-70610000D01*
G75*
G02*
X120715000Y-70435000I0J175000D01*
G01*
X120715000Y-68735000D01*
G75*
G02*
X120890000Y-68560000I175000J0D01*
G01*
X121240000Y-68560000D01*
G75*
G02*
X121415000Y-68735000I0J-175000D01*
G01*
X121415000Y-70435000D01*
G75*
G02*
X121240000Y-70610000I-175000J0D01*
G01*
G37*
%TD*%
%TO.C,U5*%
G36*
G01*
X88810000Y-65670000D02*
X88460000Y-65670000D01*
G75*
G02*
X88285000Y-65495000I0J175000D01*
G01*
X88285000Y-63795000D01*
G75*
G02*
X88460000Y-63620000I175000J0D01*
G01*
X88810000Y-63620000D01*
G75*
G02*
X88985000Y-63795000I0J-175000D01*
G01*
X88985000Y-65495000D01*
G75*
G02*
X88810000Y-65670000I-175000J0D01*
G01*
G37*
G36*
G01*
X90080000Y-65670000D02*
X89730000Y-65670000D01*
G75*
G02*
X89555000Y-65495000I0J175000D01*
G01*
X89555000Y-63795000D01*
G75*
G02*
X89730000Y-63620000I175000J0D01*
G01*
X90080000Y-63620000D01*
G75*
G02*
X90255000Y-63795000I0J-175000D01*
G01*
X90255000Y-65495000D01*
G75*
G02*
X90080000Y-65670000I-175000J0D01*
G01*
G37*
G36*
G01*
X91350000Y-65670000D02*
X91000000Y-65670000D01*
G75*
G02*
X90825000Y-65495000I0J175000D01*
G01*
X90825000Y-63795000D01*
G75*
G02*
X91000000Y-63620000I175000J0D01*
G01*
X91350000Y-63620000D01*
G75*
G02*
X91525000Y-63795000I0J-175000D01*
G01*
X91525000Y-65495000D01*
G75*
G02*
X91350000Y-65670000I-175000J0D01*
G01*
G37*
G36*
G01*
X92620000Y-65670000D02*
X92270000Y-65670000D01*
G75*
G02*
X92095000Y-65495000I0J175000D01*
G01*
X92095000Y-63795000D01*
G75*
G02*
X92270000Y-63620000I175000J0D01*
G01*
X92620000Y-63620000D01*
G75*
G02*
X92795000Y-63795000I0J-175000D01*
G01*
X92795000Y-65495000D01*
G75*
G02*
X92620000Y-65670000I-175000J0D01*
G01*
G37*
G36*
G01*
X93890000Y-65670000D02*
X93540000Y-65670000D01*
G75*
G02*
X93365000Y-65495000I0J175000D01*
G01*
X93365000Y-63795000D01*
G75*
G02*
X93540000Y-63620000I175000J0D01*
G01*
X93890000Y-63620000D01*
G75*
G02*
X94065000Y-63795000I0J-175000D01*
G01*
X94065000Y-65495000D01*
G75*
G02*
X93890000Y-65670000I-175000J0D01*
G01*
G37*
G36*
G01*
X95160000Y-65670000D02*
X94810000Y-65670000D01*
G75*
G02*
X94635000Y-65495000I0J175000D01*
G01*
X94635000Y-63795000D01*
G75*
G02*
X94810000Y-63620000I175000J0D01*
G01*
X95160000Y-63620000D01*
G75*
G02*
X95335000Y-63795000I0J-175000D01*
G01*
X95335000Y-65495000D01*
G75*
G02*
X95160000Y-65670000I-175000J0D01*
G01*
G37*
G36*
G01*
X96430000Y-65670000D02*
X96080000Y-65670000D01*
G75*
G02*
X95905000Y-65495000I0J175000D01*
G01*
X95905000Y-63795000D01*
G75*
G02*
X96080000Y-63620000I175000J0D01*
G01*
X96430000Y-63620000D01*
G75*
G02*
X96605000Y-63795000I0J-175000D01*
G01*
X96605000Y-65495000D01*
G75*
G02*
X96430000Y-65670000I-175000J0D01*
G01*
G37*
G36*
G01*
X97700000Y-65670000D02*
X97350000Y-65670000D01*
G75*
G02*
X97175000Y-65495000I0J175000D01*
G01*
X97175000Y-63795000D01*
G75*
G02*
X97350000Y-63620000I175000J0D01*
G01*
X97700000Y-63620000D01*
G75*
G02*
X97875000Y-63795000I0J-175000D01*
G01*
X97875000Y-65495000D01*
G75*
G02*
X97700000Y-65670000I-175000J0D01*
G01*
G37*
G36*
G01*
X97700000Y-70620000D02*
X97350000Y-70620000D01*
G75*
G02*
X97175000Y-70445000I0J175000D01*
G01*
X97175000Y-68745000D01*
G75*
G02*
X97350000Y-68570000I175000J0D01*
G01*
X97700000Y-68570000D01*
G75*
G02*
X97875000Y-68745000I0J-175000D01*
G01*
X97875000Y-70445000D01*
G75*
G02*
X97700000Y-70620000I-175000J0D01*
G01*
G37*
G36*
G01*
X96430000Y-70620000D02*
X96080000Y-70620000D01*
G75*
G02*
X95905000Y-70445000I0J175000D01*
G01*
X95905000Y-68745000D01*
G75*
G02*
X96080000Y-68570000I175000J0D01*
G01*
X96430000Y-68570000D01*
G75*
G02*
X96605000Y-68745000I0J-175000D01*
G01*
X96605000Y-70445000D01*
G75*
G02*
X96430000Y-70620000I-175000J0D01*
G01*
G37*
G36*
G01*
X95160000Y-70620000D02*
X94810000Y-70620000D01*
G75*
G02*
X94635000Y-70445000I0J175000D01*
G01*
X94635000Y-68745000D01*
G75*
G02*
X94810000Y-68570000I175000J0D01*
G01*
X95160000Y-68570000D01*
G75*
G02*
X95335000Y-68745000I0J-175000D01*
G01*
X95335000Y-70445000D01*
G75*
G02*
X95160000Y-70620000I-175000J0D01*
G01*
G37*
G36*
G01*
X93890000Y-70620000D02*
X93540000Y-70620000D01*
G75*
G02*
X93365000Y-70445000I0J175000D01*
G01*
X93365000Y-68745000D01*
G75*
G02*
X93540000Y-68570000I175000J0D01*
G01*
X93890000Y-68570000D01*
G75*
G02*
X94065000Y-68745000I0J-175000D01*
G01*
X94065000Y-70445000D01*
G75*
G02*
X93890000Y-70620000I-175000J0D01*
G01*
G37*
G36*
G01*
X92620000Y-70620000D02*
X92270000Y-70620000D01*
G75*
G02*
X92095000Y-70445000I0J175000D01*
G01*
X92095000Y-68745000D01*
G75*
G02*
X92270000Y-68570000I175000J0D01*
G01*
X92620000Y-68570000D01*
G75*
G02*
X92795000Y-68745000I0J-175000D01*
G01*
X92795000Y-70445000D01*
G75*
G02*
X92620000Y-70620000I-175000J0D01*
G01*
G37*
G36*
G01*
X91350000Y-70620000D02*
X91000000Y-70620000D01*
G75*
G02*
X90825000Y-70445000I0J175000D01*
G01*
X90825000Y-68745000D01*
G75*
G02*
X91000000Y-68570000I175000J0D01*
G01*
X91350000Y-68570000D01*
G75*
G02*
X91525000Y-68745000I0J-175000D01*
G01*
X91525000Y-70445000D01*
G75*
G02*
X91350000Y-70620000I-175000J0D01*
G01*
G37*
G36*
G01*
X90080000Y-70620000D02*
X89730000Y-70620000D01*
G75*
G02*
X89555000Y-70445000I0J175000D01*
G01*
X89555000Y-68745000D01*
G75*
G02*
X89730000Y-68570000I175000J0D01*
G01*
X90080000Y-68570000D01*
G75*
G02*
X90255000Y-68745000I0J-175000D01*
G01*
X90255000Y-70445000D01*
G75*
G02*
X90080000Y-70620000I-175000J0D01*
G01*
G37*
G36*
G01*
X88810000Y-70620000D02*
X88460000Y-70620000D01*
G75*
G02*
X88285000Y-70445000I0J175000D01*
G01*
X88285000Y-68745000D01*
G75*
G02*
X88460000Y-68570000I175000J0D01*
G01*
X88810000Y-68570000D01*
G75*
G02*
X88985000Y-68745000I0J-175000D01*
G01*
X88985000Y-70445000D01*
G75*
G02*
X88810000Y-70620000I-175000J0D01*
G01*
G37*
%TD*%
D13*
%TO.C,J3*%
X109512000Y-52330000D03*
D14*
X115989000Y-44200000D03*
X96050000Y-44200000D03*
D13*
X112496500Y-54614000D03*
X101701500Y-54614000D03*
X106464000Y-50550000D03*
G36*
G01*
X101700000Y-51200000D02*
X101700000Y-49900000D01*
G75*
G02*
X101750000Y-49850000I50000J0D01*
G01*
X103050000Y-49850000D01*
G75*
G02*
X103100000Y-49900000I0J-50000D01*
G01*
X103100000Y-51200000D01*
G75*
G02*
X103050000Y-51250000I-50000J0D01*
G01*
X101750000Y-51250000D01*
G75*
G02*
X101700000Y-51200000I0J50000D01*
G01*
G37*
X108496000Y-50550000D03*
X99415500Y-54614000D03*
X104432000Y-50550000D03*
X110210500Y-54614000D03*
X103416000Y-52330000D03*
X105448000Y-52330000D03*
X107480000Y-52330000D03*
%TD*%
%TO.C,J2*%
X68812000Y-52280000D03*
D14*
X75289000Y-44150000D03*
X55350000Y-44150000D03*
D13*
X71796500Y-54564000D03*
X61001500Y-54564000D03*
X65764000Y-50500000D03*
G36*
G01*
X61000000Y-51150000D02*
X61000000Y-49850000D01*
G75*
G02*
X61050000Y-49800000I50000J0D01*
G01*
X62350000Y-49800000D01*
G75*
G02*
X62400000Y-49850000I0J-50000D01*
G01*
X62400000Y-51150000D01*
G75*
G02*
X62350000Y-51200000I-50000J0D01*
G01*
X61050000Y-51200000D01*
G75*
G02*
X61000000Y-51150000I0J50000D01*
G01*
G37*
X67796000Y-50500000D03*
X58715500Y-54564000D03*
X63732000Y-50500000D03*
X69510500Y-54564000D03*
X62716000Y-52280000D03*
X64748000Y-52280000D03*
X66780000Y-52280000D03*
%TD*%
D12*
%TO.C,PS4*%
X65500000Y-112900000D03*
X55340000Y-133220000D03*
X75660000Y-112900000D03*
X55340000Y-112900000D03*
X68040000Y-133220000D03*
X62960000Y-133220000D03*
%TD*%
D15*
%TO.C,BT1*%
X128205000Y-108749000D03*
G36*
G01*
X130705000Y-91299000D02*
X125705000Y-91299000D01*
G75*
G02*
X125655000Y-91249000I0J50000D01*
G01*
X125655000Y-86249000D01*
G75*
G02*
X125705000Y-86199000I50000J0D01*
G01*
X130705000Y-86199000D01*
G75*
G02*
X130755000Y-86249000I0J-50000D01*
G01*
X130755000Y-91249000D01*
G75*
G02*
X130705000Y-91299000I-50000J0D01*
G01*
G37*
%TD*%
%TO.C,U3*%
G36*
G01*
X62590000Y-71310000D02*
X62240000Y-71310000D01*
G75*
G02*
X62065000Y-71135000I0J175000D01*
G01*
X62065000Y-69435000D01*
G75*
G02*
X62240000Y-69260000I175000J0D01*
G01*
X62590000Y-69260000D01*
G75*
G02*
X62765000Y-69435000I0J-175000D01*
G01*
X62765000Y-71135000D01*
G75*
G02*
X62590000Y-71310000I-175000J0D01*
G01*
G37*
G36*
G01*
X63860000Y-71310000D02*
X63510000Y-71310000D01*
G75*
G02*
X63335000Y-71135000I0J175000D01*
G01*
X63335000Y-69435000D01*
G75*
G02*
X63510000Y-69260000I175000J0D01*
G01*
X63860000Y-69260000D01*
G75*
G02*
X64035000Y-69435000I0J-175000D01*
G01*
X64035000Y-71135000D01*
G75*
G02*
X63860000Y-71310000I-175000J0D01*
G01*
G37*
G36*
G01*
X65130000Y-71310000D02*
X64780000Y-71310000D01*
G75*
G02*
X64605000Y-71135000I0J175000D01*
G01*
X64605000Y-69435000D01*
G75*
G02*
X64780000Y-69260000I175000J0D01*
G01*
X65130000Y-69260000D01*
G75*
G02*
X65305000Y-69435000I0J-175000D01*
G01*
X65305000Y-71135000D01*
G75*
G02*
X65130000Y-71310000I-175000J0D01*
G01*
G37*
G36*
G01*
X66400000Y-71310000D02*
X66050000Y-71310000D01*
G75*
G02*
X65875000Y-71135000I0J175000D01*
G01*
X65875000Y-69435000D01*
G75*
G02*
X66050000Y-69260000I175000J0D01*
G01*
X66400000Y-69260000D01*
G75*
G02*
X66575000Y-69435000I0J-175000D01*
G01*
X66575000Y-71135000D01*
G75*
G02*
X66400000Y-71310000I-175000J0D01*
G01*
G37*
G36*
G01*
X66400000Y-76260000D02*
X66050000Y-76260000D01*
G75*
G02*
X65875000Y-76085000I0J175000D01*
G01*
X65875000Y-74385000D01*
G75*
G02*
X66050000Y-74210000I175000J0D01*
G01*
X66400000Y-74210000D01*
G75*
G02*
X66575000Y-74385000I0J-175000D01*
G01*
X66575000Y-76085000D01*
G75*
G02*
X66400000Y-76260000I-175000J0D01*
G01*
G37*
G36*
G01*
X65130000Y-76260000D02*
X64780000Y-76260000D01*
G75*
G02*
X64605000Y-76085000I0J175000D01*
G01*
X64605000Y-74385000D01*
G75*
G02*
X64780000Y-74210000I175000J0D01*
G01*
X65130000Y-74210000D01*
G75*
G02*
X65305000Y-74385000I0J-175000D01*
G01*
X65305000Y-76085000D01*
G75*
G02*
X65130000Y-76260000I-175000J0D01*
G01*
G37*
G36*
G01*
X63860000Y-76260000D02*
X63510000Y-76260000D01*
G75*
G02*
X63335000Y-76085000I0J175000D01*
G01*
X63335000Y-74385000D01*
G75*
G02*
X63510000Y-74210000I175000J0D01*
G01*
X63860000Y-74210000D01*
G75*
G02*
X64035000Y-74385000I0J-175000D01*
G01*
X64035000Y-76085000D01*
G75*
G02*
X63860000Y-76260000I-175000J0D01*
G01*
G37*
G36*
G01*
X62590000Y-76260000D02*
X62240000Y-76260000D01*
G75*
G02*
X62065000Y-76085000I0J175000D01*
G01*
X62065000Y-74385000D01*
G75*
G02*
X62240000Y-74210000I175000J0D01*
G01*
X62590000Y-74210000D01*
G75*
G02*
X62765000Y-74385000I0J-175000D01*
G01*
X62765000Y-76085000D01*
G75*
G02*
X62590000Y-76260000I-175000J0D01*
G01*
G37*
%TD*%
%TO.C,U2*%
G36*
G01*
X109851400Y-88797990D02*
X109603913Y-89045477D01*
G75*
G02*
X109356425Y-89045477I-123744J123744D01*
G01*
X108154344Y-87843396D01*
G75*
G02*
X108154344Y-87595908I123744J123744D01*
G01*
X108401831Y-87348421D01*
G75*
G02*
X108649319Y-87348421I123744J-123744D01*
G01*
X109851400Y-88550502D01*
G75*
G02*
X109851400Y-88797990I-123744J-123744D01*
G01*
G37*
G36*
G01*
X110749426Y-87899965D02*
X110501939Y-88147452D01*
G75*
G02*
X110254451Y-88147452I-123744J123744D01*
G01*
X109052370Y-86945371D01*
G75*
G02*
X109052370Y-86697883I123744J123744D01*
G01*
X109299857Y-86450396D01*
G75*
G02*
X109547345Y-86450396I123744J-123744D01*
G01*
X110749426Y-87652477D01*
G75*
G02*
X110749426Y-87899965I-123744J-123744D01*
G01*
G37*
G36*
G01*
X111647452Y-87001939D02*
X111399965Y-87249426D01*
G75*
G02*
X111152477Y-87249426I-123744J123744D01*
G01*
X109950396Y-86047345D01*
G75*
G02*
X109950396Y-85799857I123744J123744D01*
G01*
X110197883Y-85552370D01*
G75*
G02*
X110445371Y-85552370I123744J-123744D01*
G01*
X111647452Y-86754451D01*
G75*
G02*
X111647452Y-87001939I-123744J-123744D01*
G01*
G37*
G36*
G01*
X112545477Y-86103913D02*
X112297990Y-86351400D01*
G75*
G02*
X112050502Y-86351400I-123744J123744D01*
G01*
X110848421Y-85149319D01*
G75*
G02*
X110848421Y-84901831I123744J123744D01*
G01*
X111095908Y-84654344D01*
G75*
G02*
X111343396Y-84654344I123744J-123744D01*
G01*
X112545477Y-85856425D01*
G75*
G02*
X112545477Y-86103913I-123744J-123744D01*
G01*
G37*
G36*
G01*
X116045656Y-89604092D02*
X115798169Y-89851579D01*
G75*
G02*
X115550681Y-89851579I-123744J123744D01*
G01*
X114348600Y-88649498D01*
G75*
G02*
X114348600Y-88402010I123744J123744D01*
G01*
X114596087Y-88154523D01*
G75*
G02*
X114843575Y-88154523I123744J-123744D01*
G01*
X116045656Y-89356604D01*
G75*
G02*
X116045656Y-89604092I-123744J-123744D01*
G01*
G37*
G36*
G01*
X115147630Y-90502117D02*
X114900143Y-90749604D01*
G75*
G02*
X114652655Y-90749604I-123744J123744D01*
G01*
X113450574Y-89547523D01*
G75*
G02*
X113450574Y-89300035I123744J123744D01*
G01*
X113698061Y-89052548D01*
G75*
G02*
X113945549Y-89052548I123744J-123744D01*
G01*
X115147630Y-90254629D01*
G75*
G02*
X115147630Y-90502117I-123744J-123744D01*
G01*
G37*
G36*
G01*
X114249604Y-91400143D02*
X114002117Y-91647630D01*
G75*
G02*
X113754629Y-91647630I-123744J123744D01*
G01*
X112552548Y-90445549D01*
G75*
G02*
X112552548Y-90198061I123744J123744D01*
G01*
X112800035Y-89950574D01*
G75*
G02*
X113047523Y-89950574I123744J-123744D01*
G01*
X114249604Y-91152655D01*
G75*
G02*
X114249604Y-91400143I-123744J-123744D01*
G01*
G37*
G36*
G01*
X113351579Y-92298169D02*
X113104092Y-92545656D01*
G75*
G02*
X112856604Y-92545656I-123744J123744D01*
G01*
X111654523Y-91343575D01*
G75*
G02*
X111654523Y-91096087I123744J123744D01*
G01*
X111902010Y-90848600D01*
G75*
G02*
X112149498Y-90848600I123744J-123744D01*
G01*
X113351579Y-92050681D01*
G75*
G02*
X113351579Y-92298169I-123744J-123744D01*
G01*
G37*
%TD*%
%TO.C,U9*%
G36*
G01*
X108800000Y-72150000D02*
X107000000Y-72150000D01*
G75*
G02*
X106950000Y-72100000I0J50000D01*
G01*
X106950000Y-70700000D01*
G75*
G02*
X107000000Y-70650000I50000J0D01*
G01*
X108800000Y-70650000D01*
G75*
G02*
X108850000Y-70700000I0J-50000D01*
G01*
X108850000Y-72100000D01*
G75*
G02*
X108800000Y-72150000I-50000J0D01*
G01*
G37*
D16*
X107900000Y-68860000D03*
X107900000Y-66320000D03*
X107900000Y-63780000D03*
%TD*%
%TO.C,U8*%
G36*
G01*
X117070000Y-121700000D02*
X117070000Y-119900000D01*
G75*
G02*
X117120000Y-119850000I50000J0D01*
G01*
X118520000Y-119850000D01*
G75*
G02*
X118570000Y-119900000I0J-50000D01*
G01*
X118570000Y-121700000D01*
G75*
G02*
X118520000Y-121750000I-50000J0D01*
G01*
X117120000Y-121750000D01*
G75*
G02*
X117070000Y-121700000I0J50000D01*
G01*
G37*
D17*
X120360000Y-120800000D03*
X122900000Y-120800000D03*
X125440000Y-120800000D03*
%TD*%
D18*
%TO.C,TP33*%
X49290000Y-55000000D03*
%TD*%
%TO.C,TP32*%
X49290000Y-58750000D03*
%TD*%
%TO.C,TP15*%
X75200000Y-69500000D03*
%TD*%
%TO.C,TP14*%
X71100000Y-73000000D03*
%TD*%
%TO.C,TP13*%
X71100000Y-69500000D03*
%TD*%
%TO.C,TP12*%
X108700000Y-81250000D03*
%TD*%
%TO.C,TP8*%
X105950000Y-81250000D03*
%TD*%
%TO.C,TP7*%
X105950000Y-78500000D03*
%TD*%
%TO.C,TP6*%
X108700000Y-78500000D03*
%TD*%
%TO.C,TP5*%
X89000000Y-79250000D03*
%TD*%
%TO.C,TP4*%
X85950000Y-79250000D03*
%TD*%
%TO.C,TP3*%
X118100000Y-87700000D03*
%TD*%
%TO.C,TP2*%
X116500000Y-96000000D03*
%TD*%
%TO.C,TP1*%
X75200000Y-73000000D03*
%TD*%
%TO.C,U1*%
G36*
G01*
X86266750Y-89552893D02*
X85241445Y-88527588D01*
G75*
G02*
X85241445Y-88386166I70711J70711D01*
G01*
X85382866Y-88244745D01*
G75*
G02*
X85524288Y-88244745I70711J-70711D01*
G01*
X86549593Y-89270050D01*
G75*
G02*
X86549593Y-89411472I-70711J-70711D01*
G01*
X86408172Y-89552893D01*
G75*
G02*
X86266750Y-89552893I-70711J70711D01*
G01*
G37*
G36*
G01*
X86620303Y-89199340D02*
X85594998Y-88174035D01*
G75*
G02*
X85594998Y-88032613I70711J70711D01*
G01*
X85736419Y-87891192D01*
G75*
G02*
X85877841Y-87891192I70711J-70711D01*
G01*
X86903146Y-88916497D01*
G75*
G02*
X86903146Y-89057919I-70711J-70711D01*
G01*
X86761725Y-89199340D01*
G75*
G02*
X86620303Y-89199340I-70711J70711D01*
G01*
G37*
G36*
G01*
X86973856Y-88845787D02*
X85948551Y-87820482D01*
G75*
G02*
X85948551Y-87679060I70711J70711D01*
G01*
X86089972Y-87537639D01*
G75*
G02*
X86231394Y-87537639I70711J-70711D01*
G01*
X87256699Y-88562944D01*
G75*
G02*
X87256699Y-88704366I-70711J-70711D01*
G01*
X87115278Y-88845787D01*
G75*
G02*
X86973856Y-88845787I-70711J70711D01*
G01*
G37*
G36*
G01*
X87327410Y-88492233D02*
X86302105Y-87466928D01*
G75*
G02*
X86302105Y-87325506I70711J70711D01*
G01*
X86443526Y-87184085D01*
G75*
G02*
X86584948Y-87184085I70711J-70711D01*
G01*
X87610253Y-88209390D01*
G75*
G02*
X87610253Y-88350812I-70711J-70711D01*
G01*
X87468832Y-88492233D01*
G75*
G02*
X87327410Y-88492233I-70711J70711D01*
G01*
G37*
G36*
G01*
X87680963Y-88138680D02*
X86655658Y-87113375D01*
G75*
G02*
X86655658Y-86971953I70711J70711D01*
G01*
X86797079Y-86830532D01*
G75*
G02*
X86938501Y-86830532I70711J-70711D01*
G01*
X87963806Y-87855837D01*
G75*
G02*
X87963806Y-87997259I-70711J-70711D01*
G01*
X87822385Y-88138680D01*
G75*
G02*
X87680963Y-88138680I-70711J70711D01*
G01*
G37*
G36*
G01*
X88034517Y-87785126D02*
X87009212Y-86759821D01*
G75*
G02*
X87009212Y-86618399I70711J70711D01*
G01*
X87150633Y-86476978D01*
G75*
G02*
X87292055Y-86476978I70711J-70711D01*
G01*
X88317360Y-87502283D01*
G75*
G02*
X88317360Y-87643705I-70711J-70711D01*
G01*
X88175939Y-87785126D01*
G75*
G02*
X88034517Y-87785126I-70711J70711D01*
G01*
G37*
G36*
G01*
X88388070Y-87431573D02*
X87362765Y-86406268D01*
G75*
G02*
X87362765Y-86264846I70711J70711D01*
G01*
X87504186Y-86123425D01*
G75*
G02*
X87645608Y-86123425I70711J-70711D01*
G01*
X88670913Y-87148730D01*
G75*
G02*
X88670913Y-87290152I-70711J-70711D01*
G01*
X88529492Y-87431573D01*
G75*
G02*
X88388070Y-87431573I-70711J70711D01*
G01*
G37*
G36*
G01*
X88741623Y-87078020D02*
X87716318Y-86052715D01*
G75*
G02*
X87716318Y-85911293I70711J70711D01*
G01*
X87857739Y-85769872D01*
G75*
G02*
X87999161Y-85769872I70711J-70711D01*
G01*
X89024466Y-86795177D01*
G75*
G02*
X89024466Y-86936599I-70711J-70711D01*
G01*
X88883045Y-87078020D01*
G75*
G02*
X88741623Y-87078020I-70711J70711D01*
G01*
G37*
G36*
G01*
X89095177Y-86724466D02*
X88069872Y-85699161D01*
G75*
G02*
X88069872Y-85557739I70711J70711D01*
G01*
X88211293Y-85416318D01*
G75*
G02*
X88352715Y-85416318I70711J-70711D01*
G01*
X89378020Y-86441623D01*
G75*
G02*
X89378020Y-86583045I-70711J-70711D01*
G01*
X89236599Y-86724466D01*
G75*
G02*
X89095177Y-86724466I-70711J70711D01*
G01*
G37*
G36*
G01*
X89448730Y-86370913D02*
X88423425Y-85345608D01*
G75*
G02*
X88423425Y-85204186I70711J70711D01*
G01*
X88564846Y-85062765D01*
G75*
G02*
X88706268Y-85062765I70711J-70711D01*
G01*
X89731573Y-86088070D01*
G75*
G02*
X89731573Y-86229492I-70711J-70711D01*
G01*
X89590152Y-86370913D01*
G75*
G02*
X89448730Y-86370913I-70711J70711D01*
G01*
G37*
G36*
G01*
X89802283Y-86017360D02*
X88776978Y-84992055D01*
G75*
G02*
X88776978Y-84850633I70711J70711D01*
G01*
X88918399Y-84709212D01*
G75*
G02*
X89059821Y-84709212I70711J-70711D01*
G01*
X90085126Y-85734517D01*
G75*
G02*
X90085126Y-85875939I-70711J-70711D01*
G01*
X89943705Y-86017360D01*
G75*
G02*
X89802283Y-86017360I-70711J70711D01*
G01*
G37*
G36*
G01*
X90155837Y-85663806D02*
X89130532Y-84638501D01*
G75*
G02*
X89130532Y-84497079I70711J70711D01*
G01*
X89271953Y-84355658D01*
G75*
G02*
X89413375Y-84355658I70711J-70711D01*
G01*
X90438680Y-85380963D01*
G75*
G02*
X90438680Y-85522385I-70711J-70711D01*
G01*
X90297259Y-85663806D01*
G75*
G02*
X90155837Y-85663806I-70711J70711D01*
G01*
G37*
G36*
G01*
X90509390Y-85310253D02*
X89484085Y-84284948D01*
G75*
G02*
X89484085Y-84143526I70711J70711D01*
G01*
X89625506Y-84002105D01*
G75*
G02*
X89766928Y-84002105I70711J-70711D01*
G01*
X90792233Y-85027410D01*
G75*
G02*
X90792233Y-85168832I-70711J-70711D01*
G01*
X90650812Y-85310253D01*
G75*
G02*
X90509390Y-85310253I-70711J70711D01*
G01*
G37*
G36*
G01*
X90862944Y-84956699D02*
X89837639Y-83931394D01*
G75*
G02*
X89837639Y-83789972I70711J70711D01*
G01*
X89979060Y-83648551D01*
G75*
G02*
X90120482Y-83648551I70711J-70711D01*
G01*
X91145787Y-84673856D01*
G75*
G02*
X91145787Y-84815278I-70711J-70711D01*
G01*
X91004366Y-84956699D01*
G75*
G02*
X90862944Y-84956699I-70711J70711D01*
G01*
G37*
G36*
G01*
X91216497Y-84603146D02*
X90191192Y-83577841D01*
G75*
G02*
X90191192Y-83436419I70711J70711D01*
G01*
X90332613Y-83294998D01*
G75*
G02*
X90474035Y-83294998I70711J-70711D01*
G01*
X91499340Y-84320303D01*
G75*
G02*
X91499340Y-84461725I-70711J-70711D01*
G01*
X91357919Y-84603146D01*
G75*
G02*
X91216497Y-84603146I-70711J70711D01*
G01*
G37*
G36*
G01*
X91570050Y-84249593D02*
X90544745Y-83224288D01*
G75*
G02*
X90544745Y-83082866I70711J70711D01*
G01*
X90686166Y-82941445D01*
G75*
G02*
X90827588Y-82941445I70711J-70711D01*
G01*
X91852893Y-83966750D01*
G75*
G02*
X91852893Y-84108172I-70711J-70711D01*
G01*
X91711472Y-84249593D01*
G75*
G02*
X91570050Y-84249593I-70711J70711D01*
G01*
G37*
G36*
G01*
X93408528Y-84249593D02*
X93267107Y-84108172D01*
G75*
G02*
X93267107Y-83966750I70711J70711D01*
G01*
X94292412Y-82941445D01*
G75*
G02*
X94433834Y-82941445I70711J-70711D01*
G01*
X94575255Y-83082866D01*
G75*
G02*
X94575255Y-83224288I-70711J-70711D01*
G01*
X93549950Y-84249593D01*
G75*
G02*
X93408528Y-84249593I-70711J70711D01*
G01*
G37*
G36*
G01*
X93762081Y-84603146D02*
X93620660Y-84461725D01*
G75*
G02*
X93620660Y-84320303I70711J70711D01*
G01*
X94645965Y-83294998D01*
G75*
G02*
X94787387Y-83294998I70711J-70711D01*
G01*
X94928808Y-83436419D01*
G75*
G02*
X94928808Y-83577841I-70711J-70711D01*
G01*
X93903503Y-84603146D01*
G75*
G02*
X93762081Y-84603146I-70711J70711D01*
G01*
G37*
G36*
G01*
X94115634Y-84956699D02*
X93974213Y-84815278D01*
G75*
G02*
X93974213Y-84673856I70711J70711D01*
G01*
X94999518Y-83648551D01*
G75*
G02*
X95140940Y-83648551I70711J-70711D01*
G01*
X95282361Y-83789972D01*
G75*
G02*
X95282361Y-83931394I-70711J-70711D01*
G01*
X94257056Y-84956699D01*
G75*
G02*
X94115634Y-84956699I-70711J70711D01*
G01*
G37*
G36*
G01*
X94469188Y-85310253D02*
X94327767Y-85168832D01*
G75*
G02*
X94327767Y-85027410I70711J70711D01*
G01*
X95353072Y-84002105D01*
G75*
G02*
X95494494Y-84002105I70711J-70711D01*
G01*
X95635915Y-84143526D01*
G75*
G02*
X95635915Y-84284948I-70711J-70711D01*
G01*
X94610610Y-85310253D01*
G75*
G02*
X94469188Y-85310253I-70711J70711D01*
G01*
G37*
G36*
G01*
X94822741Y-85663806D02*
X94681320Y-85522385D01*
G75*
G02*
X94681320Y-85380963I70711J70711D01*
G01*
X95706625Y-84355658D01*
G75*
G02*
X95848047Y-84355658I70711J-70711D01*
G01*
X95989468Y-84497079D01*
G75*
G02*
X95989468Y-84638501I-70711J-70711D01*
G01*
X94964163Y-85663806D01*
G75*
G02*
X94822741Y-85663806I-70711J70711D01*
G01*
G37*
G36*
G01*
X95176295Y-86017360D02*
X95034874Y-85875939D01*
G75*
G02*
X95034874Y-85734517I70711J70711D01*
G01*
X96060179Y-84709212D01*
G75*
G02*
X96201601Y-84709212I70711J-70711D01*
G01*
X96343022Y-84850633D01*
G75*
G02*
X96343022Y-84992055I-70711J-70711D01*
G01*
X95317717Y-86017360D01*
G75*
G02*
X95176295Y-86017360I-70711J70711D01*
G01*
G37*
G36*
G01*
X95529848Y-86370913D02*
X95388427Y-86229492D01*
G75*
G02*
X95388427Y-86088070I70711J70711D01*
G01*
X96413732Y-85062765D01*
G75*
G02*
X96555154Y-85062765I70711J-70711D01*
G01*
X96696575Y-85204186D01*
G75*
G02*
X96696575Y-85345608I-70711J-70711D01*
G01*
X95671270Y-86370913D01*
G75*
G02*
X95529848Y-86370913I-70711J70711D01*
G01*
G37*
G36*
G01*
X95883401Y-86724466D02*
X95741980Y-86583045D01*
G75*
G02*
X95741980Y-86441623I70711J70711D01*
G01*
X96767285Y-85416318D01*
G75*
G02*
X96908707Y-85416318I70711J-70711D01*
G01*
X97050128Y-85557739D01*
G75*
G02*
X97050128Y-85699161I-70711J-70711D01*
G01*
X96024823Y-86724466D01*
G75*
G02*
X95883401Y-86724466I-70711J70711D01*
G01*
G37*
G36*
G01*
X96236955Y-87078020D02*
X96095534Y-86936599D01*
G75*
G02*
X96095534Y-86795177I70711J70711D01*
G01*
X97120839Y-85769872D01*
G75*
G02*
X97262261Y-85769872I70711J-70711D01*
G01*
X97403682Y-85911293D01*
G75*
G02*
X97403682Y-86052715I-70711J-70711D01*
G01*
X96378377Y-87078020D01*
G75*
G02*
X96236955Y-87078020I-70711J70711D01*
G01*
G37*
G36*
G01*
X96590508Y-87431573D02*
X96449087Y-87290152D01*
G75*
G02*
X96449087Y-87148730I70711J70711D01*
G01*
X97474392Y-86123425D01*
G75*
G02*
X97615814Y-86123425I70711J-70711D01*
G01*
X97757235Y-86264846D01*
G75*
G02*
X97757235Y-86406268I-70711J-70711D01*
G01*
X96731930Y-87431573D01*
G75*
G02*
X96590508Y-87431573I-70711J70711D01*
G01*
G37*
G36*
G01*
X96944061Y-87785126D02*
X96802640Y-87643705D01*
G75*
G02*
X96802640Y-87502283I70711J70711D01*
G01*
X97827945Y-86476978D01*
G75*
G02*
X97969367Y-86476978I70711J-70711D01*
G01*
X98110788Y-86618399D01*
G75*
G02*
X98110788Y-86759821I-70711J-70711D01*
G01*
X97085483Y-87785126D01*
G75*
G02*
X96944061Y-87785126I-70711J70711D01*
G01*
G37*
G36*
G01*
X97297615Y-88138680D02*
X97156194Y-87997259D01*
G75*
G02*
X97156194Y-87855837I70711J70711D01*
G01*
X98181499Y-86830532D01*
G75*
G02*
X98322921Y-86830532I70711J-70711D01*
G01*
X98464342Y-86971953D01*
G75*
G02*
X98464342Y-87113375I-70711J-70711D01*
G01*
X97439037Y-88138680D01*
G75*
G02*
X97297615Y-88138680I-70711J70711D01*
G01*
G37*
G36*
G01*
X97651168Y-88492233D02*
X97509747Y-88350812D01*
G75*
G02*
X97509747Y-88209390I70711J70711D01*
G01*
X98535052Y-87184085D01*
G75*
G02*
X98676474Y-87184085I70711J-70711D01*
G01*
X98817895Y-87325506D01*
G75*
G02*
X98817895Y-87466928I-70711J-70711D01*
G01*
X97792590Y-88492233D01*
G75*
G02*
X97651168Y-88492233I-70711J70711D01*
G01*
G37*
G36*
G01*
X98004722Y-88845787D02*
X97863301Y-88704366D01*
G75*
G02*
X97863301Y-88562944I70711J70711D01*
G01*
X98888606Y-87537639D01*
G75*
G02*
X99030028Y-87537639I70711J-70711D01*
G01*
X99171449Y-87679060D01*
G75*
G02*
X99171449Y-87820482I-70711J-70711D01*
G01*
X98146144Y-88845787D01*
G75*
G02*
X98004722Y-88845787I-70711J70711D01*
G01*
G37*
G36*
G01*
X98358275Y-89199340D02*
X98216854Y-89057919D01*
G75*
G02*
X98216854Y-88916497I70711J70711D01*
G01*
X99242159Y-87891192D01*
G75*
G02*
X99383581Y-87891192I70711J-70711D01*
G01*
X99525002Y-88032613D01*
G75*
G02*
X99525002Y-88174035I-70711J-70711D01*
G01*
X98499697Y-89199340D01*
G75*
G02*
X98358275Y-89199340I-70711J70711D01*
G01*
G37*
G36*
G01*
X98711828Y-89552893D02*
X98570407Y-89411472D01*
G75*
G02*
X98570407Y-89270050I70711J70711D01*
G01*
X99595712Y-88244745D01*
G75*
G02*
X99737134Y-88244745I70711J-70711D01*
G01*
X99878555Y-88386166D01*
G75*
G02*
X99878555Y-88527588I-70711J-70711D01*
G01*
X98853250Y-89552893D01*
G75*
G02*
X98711828Y-89552893I-70711J70711D01*
G01*
G37*
G36*
G01*
X99595712Y-92275255D02*
X98570407Y-91249950D01*
G75*
G02*
X98570407Y-91108528I70711J70711D01*
G01*
X98711828Y-90967107D01*
G75*
G02*
X98853250Y-90967107I70711J-70711D01*
G01*
X99878555Y-91992412D01*
G75*
G02*
X99878555Y-92133834I-70711J-70711D01*
G01*
X99737134Y-92275255D01*
G75*
G02*
X99595712Y-92275255I-70711J70711D01*
G01*
G37*
G36*
G01*
X99242159Y-92628808D02*
X98216854Y-91603503D01*
G75*
G02*
X98216854Y-91462081I70711J70711D01*
G01*
X98358275Y-91320660D01*
G75*
G02*
X98499697Y-91320660I70711J-70711D01*
G01*
X99525002Y-92345965D01*
G75*
G02*
X99525002Y-92487387I-70711J-70711D01*
G01*
X99383581Y-92628808D01*
G75*
G02*
X99242159Y-92628808I-70711J70711D01*
G01*
G37*
G36*
G01*
X98888606Y-92982361D02*
X97863301Y-91957056D01*
G75*
G02*
X97863301Y-91815634I70711J70711D01*
G01*
X98004722Y-91674213D01*
G75*
G02*
X98146144Y-91674213I70711J-70711D01*
G01*
X99171449Y-92699518D01*
G75*
G02*
X99171449Y-92840940I-70711J-70711D01*
G01*
X99030028Y-92982361D01*
G75*
G02*
X98888606Y-92982361I-70711J70711D01*
G01*
G37*
G36*
G01*
X98535052Y-93335915D02*
X97509747Y-92310610D01*
G75*
G02*
X97509747Y-92169188I70711J70711D01*
G01*
X97651168Y-92027767D01*
G75*
G02*
X97792590Y-92027767I70711J-70711D01*
G01*
X98817895Y-93053072D01*
G75*
G02*
X98817895Y-93194494I-70711J-70711D01*
G01*
X98676474Y-93335915D01*
G75*
G02*
X98535052Y-93335915I-70711J70711D01*
G01*
G37*
G36*
G01*
X98181499Y-93689468D02*
X97156194Y-92664163D01*
G75*
G02*
X97156194Y-92522741I70711J70711D01*
G01*
X97297615Y-92381320D01*
G75*
G02*
X97439037Y-92381320I70711J-70711D01*
G01*
X98464342Y-93406625D01*
G75*
G02*
X98464342Y-93548047I-70711J-70711D01*
G01*
X98322921Y-93689468D01*
G75*
G02*
X98181499Y-93689468I-70711J70711D01*
G01*
G37*
G36*
G01*
X97827945Y-94043022D02*
X96802640Y-93017717D01*
G75*
G02*
X96802640Y-92876295I70711J70711D01*
G01*
X96944061Y-92734874D01*
G75*
G02*
X97085483Y-92734874I70711J-70711D01*
G01*
X98110788Y-93760179D01*
G75*
G02*
X98110788Y-93901601I-70711J-70711D01*
G01*
X97969367Y-94043022D01*
G75*
G02*
X97827945Y-94043022I-70711J70711D01*
G01*
G37*
G36*
G01*
X97474392Y-94396575D02*
X96449087Y-93371270D01*
G75*
G02*
X96449087Y-93229848I70711J70711D01*
G01*
X96590508Y-93088427D01*
G75*
G02*
X96731930Y-93088427I70711J-70711D01*
G01*
X97757235Y-94113732D01*
G75*
G02*
X97757235Y-94255154I-70711J-70711D01*
G01*
X97615814Y-94396575D01*
G75*
G02*
X97474392Y-94396575I-70711J70711D01*
G01*
G37*
G36*
G01*
X97120839Y-94750128D02*
X96095534Y-93724823D01*
G75*
G02*
X96095534Y-93583401I70711J70711D01*
G01*
X96236955Y-93441980D01*
G75*
G02*
X96378377Y-93441980I70711J-70711D01*
G01*
X97403682Y-94467285D01*
G75*
G02*
X97403682Y-94608707I-70711J-70711D01*
G01*
X97262261Y-94750128D01*
G75*
G02*
X97120839Y-94750128I-70711J70711D01*
G01*
G37*
G36*
G01*
X96767285Y-95103682D02*
X95741980Y-94078377D01*
G75*
G02*
X95741980Y-93936955I70711J70711D01*
G01*
X95883401Y-93795534D01*
G75*
G02*
X96024823Y-93795534I70711J-70711D01*
G01*
X97050128Y-94820839D01*
G75*
G02*
X97050128Y-94962261I-70711J-70711D01*
G01*
X96908707Y-95103682D01*
G75*
G02*
X96767285Y-95103682I-70711J70711D01*
G01*
G37*
G36*
G01*
X96413732Y-95457235D02*
X95388427Y-94431930D01*
G75*
G02*
X95388427Y-94290508I70711J70711D01*
G01*
X95529848Y-94149087D01*
G75*
G02*
X95671270Y-94149087I70711J-70711D01*
G01*
X96696575Y-95174392D01*
G75*
G02*
X96696575Y-95315814I-70711J-70711D01*
G01*
X96555154Y-95457235D01*
G75*
G02*
X96413732Y-95457235I-70711J70711D01*
G01*
G37*
G36*
G01*
X96060179Y-95810788D02*
X95034874Y-94785483D01*
G75*
G02*
X95034874Y-94644061I70711J70711D01*
G01*
X95176295Y-94502640D01*
G75*
G02*
X95317717Y-94502640I70711J-70711D01*
G01*
X96343022Y-95527945D01*
G75*
G02*
X96343022Y-95669367I-70711J-70711D01*
G01*
X96201601Y-95810788D01*
G75*
G02*
X96060179Y-95810788I-70711J70711D01*
G01*
G37*
G36*
G01*
X95706625Y-96164342D02*
X94681320Y-95139037D01*
G75*
G02*
X94681320Y-94997615I70711J70711D01*
G01*
X94822741Y-94856194D01*
G75*
G02*
X94964163Y-94856194I70711J-70711D01*
G01*
X95989468Y-95881499D01*
G75*
G02*
X95989468Y-96022921I-70711J-70711D01*
G01*
X95848047Y-96164342D01*
G75*
G02*
X95706625Y-96164342I-70711J70711D01*
G01*
G37*
G36*
G01*
X95353072Y-96517895D02*
X94327767Y-95492590D01*
G75*
G02*
X94327767Y-95351168I70711J70711D01*
G01*
X94469188Y-95209747D01*
G75*
G02*
X94610610Y-95209747I70711J-70711D01*
G01*
X95635915Y-96235052D01*
G75*
G02*
X95635915Y-96376474I-70711J-70711D01*
G01*
X95494494Y-96517895D01*
G75*
G02*
X95353072Y-96517895I-70711J70711D01*
G01*
G37*
G36*
G01*
X94999518Y-96871449D02*
X93974213Y-95846144D01*
G75*
G02*
X93974213Y-95704722I70711J70711D01*
G01*
X94115634Y-95563301D01*
G75*
G02*
X94257056Y-95563301I70711J-70711D01*
G01*
X95282361Y-96588606D01*
G75*
G02*
X95282361Y-96730028I-70711J-70711D01*
G01*
X95140940Y-96871449D01*
G75*
G02*
X94999518Y-96871449I-70711J70711D01*
G01*
G37*
G36*
G01*
X94645965Y-97225002D02*
X93620660Y-96199697D01*
G75*
G02*
X93620660Y-96058275I70711J70711D01*
G01*
X93762081Y-95916854D01*
G75*
G02*
X93903503Y-95916854I70711J-70711D01*
G01*
X94928808Y-96942159D01*
G75*
G02*
X94928808Y-97083581I-70711J-70711D01*
G01*
X94787387Y-97225002D01*
G75*
G02*
X94645965Y-97225002I-70711J70711D01*
G01*
G37*
G36*
G01*
X94292412Y-97578555D02*
X93267107Y-96553250D01*
G75*
G02*
X93267107Y-96411828I70711J70711D01*
G01*
X93408528Y-96270407D01*
G75*
G02*
X93549950Y-96270407I70711J-70711D01*
G01*
X94575255Y-97295712D01*
G75*
G02*
X94575255Y-97437134I-70711J-70711D01*
G01*
X94433834Y-97578555D01*
G75*
G02*
X94292412Y-97578555I-70711J70711D01*
G01*
G37*
G36*
G01*
X90686166Y-97578555D02*
X90544745Y-97437134D01*
G75*
G02*
X90544745Y-97295712I70711J70711D01*
G01*
X91570050Y-96270407D01*
G75*
G02*
X91711472Y-96270407I70711J-70711D01*
G01*
X91852893Y-96411828D01*
G75*
G02*
X91852893Y-96553250I-70711J-70711D01*
G01*
X90827588Y-97578555D01*
G75*
G02*
X90686166Y-97578555I-70711J70711D01*
G01*
G37*
G36*
G01*
X90332613Y-97225002D02*
X90191192Y-97083581D01*
G75*
G02*
X90191192Y-96942159I70711J70711D01*
G01*
X91216497Y-95916854D01*
G75*
G02*
X91357919Y-95916854I70711J-70711D01*
G01*
X91499340Y-96058275D01*
G75*
G02*
X91499340Y-96199697I-70711J-70711D01*
G01*
X90474035Y-97225002D01*
G75*
G02*
X90332613Y-97225002I-70711J70711D01*
G01*
G37*
G36*
G01*
X89979060Y-96871449D02*
X89837639Y-96730028D01*
G75*
G02*
X89837639Y-96588606I70711J70711D01*
G01*
X90862944Y-95563301D01*
G75*
G02*
X91004366Y-95563301I70711J-70711D01*
G01*
X91145787Y-95704722D01*
G75*
G02*
X91145787Y-95846144I-70711J-70711D01*
G01*
X90120482Y-96871449D01*
G75*
G02*
X89979060Y-96871449I-70711J70711D01*
G01*
G37*
G36*
G01*
X89625506Y-96517895D02*
X89484085Y-96376474D01*
G75*
G02*
X89484085Y-96235052I70711J70711D01*
G01*
X90509390Y-95209747D01*
G75*
G02*
X90650812Y-95209747I70711J-70711D01*
G01*
X90792233Y-95351168D01*
G75*
G02*
X90792233Y-95492590I-70711J-70711D01*
G01*
X89766928Y-96517895D01*
G75*
G02*
X89625506Y-96517895I-70711J70711D01*
G01*
G37*
G36*
G01*
X89271953Y-96164342D02*
X89130532Y-96022921D01*
G75*
G02*
X89130532Y-95881499I70711J70711D01*
G01*
X90155837Y-94856194D01*
G75*
G02*
X90297259Y-94856194I70711J-70711D01*
G01*
X90438680Y-94997615D01*
G75*
G02*
X90438680Y-95139037I-70711J-70711D01*
G01*
X89413375Y-96164342D01*
G75*
G02*
X89271953Y-96164342I-70711J70711D01*
G01*
G37*
G36*
G01*
X88918399Y-95810788D02*
X88776978Y-95669367D01*
G75*
G02*
X88776978Y-95527945I70711J70711D01*
G01*
X89802283Y-94502640D01*
G75*
G02*
X89943705Y-94502640I70711J-70711D01*
G01*
X90085126Y-94644061D01*
G75*
G02*
X90085126Y-94785483I-70711J-70711D01*
G01*
X89059821Y-95810788D01*
G75*
G02*
X88918399Y-95810788I-70711J70711D01*
G01*
G37*
G36*
G01*
X88564846Y-95457235D02*
X88423425Y-95315814D01*
G75*
G02*
X88423425Y-95174392I70711J70711D01*
G01*
X89448730Y-94149087D01*
G75*
G02*
X89590152Y-94149087I70711J-70711D01*
G01*
X89731573Y-94290508D01*
G75*
G02*
X89731573Y-94431930I-70711J-70711D01*
G01*
X88706268Y-95457235D01*
G75*
G02*
X88564846Y-95457235I-70711J70711D01*
G01*
G37*
G36*
G01*
X88211293Y-95103682D02*
X88069872Y-94962261D01*
G75*
G02*
X88069872Y-94820839I70711J70711D01*
G01*
X89095177Y-93795534D01*
G75*
G02*
X89236599Y-93795534I70711J-70711D01*
G01*
X89378020Y-93936955D01*
G75*
G02*
X89378020Y-94078377I-70711J-70711D01*
G01*
X88352715Y-95103682D01*
G75*
G02*
X88211293Y-95103682I-70711J70711D01*
G01*
G37*
G36*
G01*
X87857739Y-94750128D02*
X87716318Y-94608707D01*
G75*
G02*
X87716318Y-94467285I70711J70711D01*
G01*
X88741623Y-93441980D01*
G75*
G02*
X88883045Y-93441980I70711J-70711D01*
G01*
X89024466Y-93583401D01*
G75*
G02*
X89024466Y-93724823I-70711J-70711D01*
G01*
X87999161Y-94750128D01*
G75*
G02*
X87857739Y-94750128I-70711J70711D01*
G01*
G37*
G36*
G01*
X87504186Y-94396575D02*
X87362765Y-94255154D01*
G75*
G02*
X87362765Y-94113732I70711J70711D01*
G01*
X88388070Y-93088427D01*
G75*
G02*
X88529492Y-93088427I70711J-70711D01*
G01*
X88670913Y-93229848D01*
G75*
G02*
X88670913Y-93371270I-70711J-70711D01*
G01*
X87645608Y-94396575D01*
G75*
G02*
X87504186Y-94396575I-70711J70711D01*
G01*
G37*
G36*
G01*
X87150633Y-94043022D02*
X87009212Y-93901601D01*
G75*
G02*
X87009212Y-93760179I70711J70711D01*
G01*
X88034517Y-92734874D01*
G75*
G02*
X88175939Y-92734874I70711J-70711D01*
G01*
X88317360Y-92876295D01*
G75*
G02*
X88317360Y-93017717I-70711J-70711D01*
G01*
X87292055Y-94043022D01*
G75*
G02*
X87150633Y-94043022I-70711J70711D01*
G01*
G37*
G36*
G01*
X86797079Y-93689468D02*
X86655658Y-93548047D01*
G75*
G02*
X86655658Y-93406625I70711J70711D01*
G01*
X87680963Y-92381320D01*
G75*
G02*
X87822385Y-92381320I70711J-70711D01*
G01*
X87963806Y-92522741D01*
G75*
G02*
X87963806Y-92664163I-70711J-70711D01*
G01*
X86938501Y-93689468D01*
G75*
G02*
X86797079Y-93689468I-70711J70711D01*
G01*
G37*
G36*
G01*
X86443526Y-93335915D02*
X86302105Y-93194494D01*
G75*
G02*
X86302105Y-93053072I70711J70711D01*
G01*
X87327410Y-92027767D01*
G75*
G02*
X87468832Y-92027767I70711J-70711D01*
G01*
X87610253Y-92169188D01*
G75*
G02*
X87610253Y-92310610I-70711J-70711D01*
G01*
X86584948Y-93335915D01*
G75*
G02*
X86443526Y-93335915I-70711J70711D01*
G01*
G37*
G36*
G01*
X86089972Y-92982361D02*
X85948551Y-92840940D01*
G75*
G02*
X85948551Y-92699518I70711J70711D01*
G01*
X86973856Y-91674213D01*
G75*
G02*
X87115278Y-91674213I70711J-70711D01*
G01*
X87256699Y-91815634D01*
G75*
G02*
X87256699Y-91957056I-70711J-70711D01*
G01*
X86231394Y-92982361D01*
G75*
G02*
X86089972Y-92982361I-70711J70711D01*
G01*
G37*
G36*
G01*
X85736419Y-92628808D02*
X85594998Y-92487387D01*
G75*
G02*
X85594998Y-92345965I70711J70711D01*
G01*
X86620303Y-91320660D01*
G75*
G02*
X86761725Y-91320660I70711J-70711D01*
G01*
X86903146Y-91462081D01*
G75*
G02*
X86903146Y-91603503I-70711J-70711D01*
G01*
X85877841Y-92628808D01*
G75*
G02*
X85736419Y-92628808I-70711J70711D01*
G01*
G37*
G36*
G01*
X85382866Y-92275255D02*
X85241445Y-92133834D01*
G75*
G02*
X85241445Y-91992412I70711J70711D01*
G01*
X86266750Y-90967107D01*
G75*
G02*
X86408172Y-90967107I70711J-70711D01*
G01*
X86549593Y-91108528D01*
G75*
G02*
X86549593Y-91249950I-70711J-70711D01*
G01*
X85524288Y-92275255D01*
G75*
G02*
X85382866Y-92275255I-70711J70711D01*
G01*
G37*
%TD*%
%TO.C,R23*%
G36*
G01*
X81883796Y-97888820D02*
X81211180Y-97216204D01*
G75*
G02*
X81211180Y-96828160I194022J194022D01*
G01*
X81618630Y-96420710D01*
G75*
G02*
X82006674Y-96420710I194022J-194022D01*
G01*
X82679290Y-97093326D01*
G75*
G02*
X82679290Y-97481370I-194022J-194022D01*
G01*
X82271840Y-97888820D01*
G75*
G02*
X81883796Y-97888820I-194022J194022D01*
G01*
G37*
G36*
G01*
X80593326Y-99179290D02*
X79920710Y-98506674D01*
G75*
G02*
X79920710Y-98118630I194022J194022D01*
G01*
X80328160Y-97711180D01*
G75*
G02*
X80716204Y-97711180I194022J-194022D01*
G01*
X81388820Y-98383796D01*
G75*
G02*
X81388820Y-98771840I-194022J-194022D01*
G01*
X80981370Y-99179290D01*
G75*
G02*
X80593326Y-99179290I-194022J194022D01*
G01*
G37*
%TD*%
%TO.C,R28*%
G36*
G01*
X99556415Y-101829031D02*
X100229031Y-101156415D01*
G75*
G02*
X100617075Y-101156415I194022J-194022D01*
G01*
X101024525Y-101563865D01*
G75*
G02*
X101024525Y-101951909I-194022J-194022D01*
G01*
X100351909Y-102624525D01*
G75*
G02*
X99963865Y-102624525I-194022J194022D01*
G01*
X99556415Y-102217075D01*
G75*
G02*
X99556415Y-101829031I194022J194022D01*
G01*
G37*
G36*
G01*
X98265945Y-100538561D02*
X98938561Y-99865945D01*
G75*
G02*
X99326605Y-99865945I194022J-194022D01*
G01*
X99734055Y-100273395D01*
G75*
G02*
X99734055Y-100661439I-194022J-194022D01*
G01*
X99061439Y-101334055D01*
G75*
G02*
X98673395Y-101334055I-194022J194022D01*
G01*
X98265945Y-100926605D01*
G75*
G02*
X98265945Y-100538561I194022J194022D01*
G01*
G37*
%TD*%
%TO.C,LED1*%
G36*
G01*
X97157452Y-98076862D02*
X96476862Y-98757452D01*
G75*
G02*
X96096792Y-98757452I-190035J190035D01*
G01*
X95716722Y-98377382D01*
G75*
G02*
X95716722Y-97997312I190035J190035D01*
G01*
X96397312Y-97316722D01*
G75*
G02*
X96777382Y-97316722I190035J-190035D01*
G01*
X97157452Y-97696792D01*
G75*
G02*
X97157452Y-98076862I-190035J-190035D01*
G01*
G37*
G36*
G01*
X98483278Y-99402688D02*
X97802688Y-100083278D01*
G75*
G02*
X97422618Y-100083278I-190035J190035D01*
G01*
X97042548Y-99703208D01*
G75*
G02*
X97042548Y-99323138I190035J190035D01*
G01*
X97723138Y-98642548D01*
G75*
G02*
X98103208Y-98642548I190035J-190035D01*
G01*
X98483278Y-99022618D01*
G75*
G02*
X98483278Y-99402688I-190035J-190035D01*
G01*
G37*
%TD*%
%TO.C,JP3*%
G36*
G01*
X94450000Y-102650000D02*
X95950000Y-102650000D01*
G75*
G02*
X96000000Y-102700000I0J-50000D01*
G01*
X96000000Y-103700000D01*
G75*
G02*
X95950000Y-103750000I-50000J0D01*
G01*
X94450000Y-103750000D01*
G75*
G02*
X94400000Y-103700000I0J50000D01*
G01*
X94400000Y-102700000D01*
G75*
G02*
X94450000Y-102650000I50000J0D01*
G01*
G37*
G36*
G01*
X94450000Y-103950000D02*
X95950000Y-103950000D01*
G75*
G02*
X96000000Y-104000000I0J-50000D01*
G01*
X96000000Y-105000000D01*
G75*
G02*
X95950000Y-105050000I-50000J0D01*
G01*
X94450000Y-105050000D01*
G75*
G02*
X94400000Y-105000000I0J50000D01*
G01*
X94400000Y-104000000D01*
G75*
G02*
X94450000Y-103950000I50000J0D01*
G01*
G37*
%TD*%
%TO.C,C40*%
G36*
G01*
X108028262Y-101075000D02*
X105771738Y-101075000D01*
G75*
G02*
X105500000Y-100803262I0J271738D01*
G01*
X105500000Y-100096738D01*
G75*
G02*
X105771738Y-99825000I271738J0D01*
G01*
X108028262Y-99825000D01*
G75*
G02*
X108300000Y-100096738I0J-271738D01*
G01*
X108300000Y-100803262D01*
G75*
G02*
X108028262Y-101075000I-271738J0D01*
G01*
G37*
G36*
G01*
X108028262Y-104025000D02*
X105771738Y-104025000D01*
G75*
G02*
X105500000Y-103753262I0J271738D01*
G01*
X105500000Y-103046738D01*
G75*
G02*
X105771738Y-102775000I271738J0D01*
G01*
X108028262Y-102775000D01*
G75*
G02*
X108300000Y-103046738I0J-271738D01*
G01*
X108300000Y-103753262D01*
G75*
G02*
X108028262Y-104025000I-271738J0D01*
G01*
G37*
%TD*%
%TO.C,C39*%
G36*
G01*
X111675000Y-94471738D02*
X111675000Y-96728262D01*
G75*
G02*
X111403262Y-97000000I-271738J0D01*
G01*
X110696738Y-97000000D01*
G75*
G02*
X110425000Y-96728262I0J271738D01*
G01*
X110425000Y-94471738D01*
G75*
G02*
X110696738Y-94200000I271738J0D01*
G01*
X111403262Y-94200000D01*
G75*
G02*
X111675000Y-94471738I0J-271738D01*
G01*
G37*
G36*
G01*
X114625000Y-94471738D02*
X114625000Y-96728262D01*
G75*
G02*
X114353262Y-97000000I-271738J0D01*
G01*
X113646738Y-97000000D01*
G75*
G02*
X113375000Y-96728262I0J271738D01*
G01*
X113375000Y-94471738D01*
G75*
G02*
X113646738Y-94200000I271738J0D01*
G01*
X114353262Y-94200000D01*
G75*
G02*
X114625000Y-94471738I0J-271738D01*
G01*
G37*
%TD*%
%TO.C,C38*%
G36*
G01*
X110171738Y-71325000D02*
X112428262Y-71325000D01*
G75*
G02*
X112700000Y-71596738I0J-271738D01*
G01*
X112700000Y-72303262D01*
G75*
G02*
X112428262Y-72575000I-271738J0D01*
G01*
X110171738Y-72575000D01*
G75*
G02*
X109900000Y-72303262I0J271738D01*
G01*
X109900000Y-71596738D01*
G75*
G02*
X110171738Y-71325000I271738J0D01*
G01*
G37*
G36*
G01*
X110171738Y-68375000D02*
X112428262Y-68375000D01*
G75*
G02*
X112700000Y-68646738I0J-271738D01*
G01*
X112700000Y-69353262D01*
G75*
G02*
X112428262Y-69625000I-271738J0D01*
G01*
X110171738Y-69625000D01*
G75*
G02*
X109900000Y-69353262I0J271738D01*
G01*
X109900000Y-68646738D01*
G75*
G02*
X110171738Y-68375000I271738J0D01*
G01*
G37*
%TD*%
%TO.C,C37*%
G36*
G01*
X118050000Y-122671738D02*
X118050000Y-124928262D01*
G75*
G02*
X117778262Y-125200000I-271738J0D01*
G01*
X117071738Y-125200000D01*
G75*
G02*
X116800000Y-124928262I0J271738D01*
G01*
X116800000Y-122671738D01*
G75*
G02*
X117071738Y-122400000I271738J0D01*
G01*
X117778262Y-122400000D01*
G75*
G02*
X118050000Y-122671738I0J-271738D01*
G01*
G37*
G36*
G01*
X121000000Y-122671738D02*
X121000000Y-124928262D01*
G75*
G02*
X120728262Y-125200000I-271738J0D01*
G01*
X120021738Y-125200000D01*
G75*
G02*
X119750000Y-124928262I0J271738D01*
G01*
X119750000Y-122671738D01*
G75*
G02*
X120021738Y-122400000I271738J0D01*
G01*
X120728262Y-122400000D01*
G75*
G02*
X121000000Y-122671738I0J-271738D01*
G01*
G37*
%TD*%
%TO.C,C36*%
G36*
G01*
X110171738Y-65250000D02*
X112428262Y-65250000D01*
G75*
G02*
X112700000Y-65521738I0J-271738D01*
G01*
X112700000Y-66228262D01*
G75*
G02*
X112428262Y-66500000I-271738J0D01*
G01*
X110171738Y-66500000D01*
G75*
G02*
X109900000Y-66228262I0J271738D01*
G01*
X109900000Y-65521738D01*
G75*
G02*
X110171738Y-65250000I271738J0D01*
G01*
G37*
G36*
G01*
X110171738Y-62300000D02*
X112428262Y-62300000D01*
G75*
G02*
X112700000Y-62571738I0J-271738D01*
G01*
X112700000Y-63278262D01*
G75*
G02*
X112428262Y-63550000I-271738J0D01*
G01*
X110171738Y-63550000D01*
G75*
G02*
X109900000Y-63278262I0J271738D01*
G01*
X109900000Y-62571738D01*
G75*
G02*
X110171738Y-62300000I271738J0D01*
G01*
G37*
%TD*%
%TO.C,C35*%
G36*
G01*
X123150000Y-112871738D02*
X123150000Y-115128262D01*
G75*
G02*
X122878262Y-115400000I-271738J0D01*
G01*
X122171738Y-115400000D01*
G75*
G02*
X121900000Y-115128262I0J271738D01*
G01*
X121900000Y-112871738D01*
G75*
G02*
X122171738Y-112600000I271738J0D01*
G01*
X122878262Y-112600000D01*
G75*
G02*
X123150000Y-112871738I0J-271738D01*
G01*
G37*
G36*
G01*
X126100000Y-112871738D02*
X126100000Y-115128262D01*
G75*
G02*
X125828262Y-115400000I-271738J0D01*
G01*
X125121738Y-115400000D01*
G75*
G02*
X124850000Y-115128262I0J271738D01*
G01*
X124850000Y-112871738D01*
G75*
G02*
X125121738Y-112600000I271738J0D01*
G01*
X125828262Y-112600000D01*
G75*
G02*
X126100000Y-112871738I0J-271738D01*
G01*
G37*
%TD*%
%TO.C,C29*%
G36*
G01*
X86325000Y-132036843D02*
X86325000Y-130563157D01*
G75*
G02*
X86588157Y-130300000I263157J0D01*
G01*
X90311843Y-130300000D01*
G75*
G02*
X90575000Y-130563157I0J-263157D01*
G01*
X90575000Y-132036843D01*
G75*
G02*
X90311843Y-132300000I-263157J0D01*
G01*
X86588157Y-132300000D01*
G75*
G02*
X86325000Y-132036843I0J263157D01*
G01*
G37*
G36*
G01*
X79375000Y-132036843D02*
X79375000Y-130563157D01*
G75*
G02*
X79638157Y-130300000I263157J0D01*
G01*
X83361843Y-130300000D01*
G75*
G02*
X83625000Y-130563157I0J-263157D01*
G01*
X83625000Y-132036843D01*
G75*
G02*
X83361843Y-132300000I-263157J0D01*
G01*
X79638157Y-132300000D01*
G75*
G02*
X79375000Y-132036843I0J263157D01*
G01*
G37*
%TD*%
%TO.C,C19*%
G36*
G01*
X73375000Y-107271738D02*
X73375000Y-109528262D01*
G75*
G02*
X73103262Y-109800000I-271738J0D01*
G01*
X72396738Y-109800000D01*
G75*
G02*
X72125000Y-109528262I0J271738D01*
G01*
X72125000Y-107271738D01*
G75*
G02*
X72396738Y-107000000I271738J0D01*
G01*
X73103262Y-107000000D01*
G75*
G02*
X73375000Y-107271738I0J-271738D01*
G01*
G37*
G36*
G01*
X76325000Y-107271738D02*
X76325000Y-109528262D01*
G75*
G02*
X76053262Y-109800000I-271738J0D01*
G01*
X75346738Y-109800000D01*
G75*
G02*
X75075000Y-109528262I0J271738D01*
G01*
X75075000Y-107271738D01*
G75*
G02*
X75346738Y-107000000I271738J0D01*
G01*
X76053262Y-107000000D01*
G75*
G02*
X76325000Y-107271738I0J-271738D01*
G01*
G37*
%TD*%
D19*
%TO.C,TH1*%
X109530000Y-110000000D03*
G36*
G01*
X111300000Y-110550000D02*
X110300000Y-110550000D01*
G75*
G02*
X110250000Y-110500000I0J50000D01*
G01*
X110250000Y-109500000D01*
G75*
G02*
X110300000Y-109450000I50000J0D01*
G01*
X111300000Y-109450000D01*
G75*
G02*
X111350000Y-109500000I0J-50000D01*
G01*
X111350000Y-110500000D01*
G75*
G02*
X111300000Y-110550000I-50000J0D01*
G01*
G37*
%TD*%
%TO.C,R25*%
G36*
G01*
X112075611Y-107137500D02*
X111124389Y-107137500D01*
G75*
G02*
X110850000Y-106863111I0J274389D01*
G01*
X110850000Y-106286889D01*
G75*
G02*
X111124389Y-106012500I274389J0D01*
G01*
X112075611Y-106012500D01*
G75*
G02*
X112350000Y-106286889I0J-274389D01*
G01*
X112350000Y-106863111D01*
G75*
G02*
X112075611Y-107137500I-274389J0D01*
G01*
G37*
G36*
G01*
X112075611Y-108962500D02*
X111124389Y-108962500D01*
G75*
G02*
X110850000Y-108688111I0J274389D01*
G01*
X110850000Y-108111889D01*
G75*
G02*
X111124389Y-107837500I274389J0D01*
G01*
X112075611Y-107837500D01*
G75*
G02*
X112350000Y-108111889I0J-274389D01*
G01*
X112350000Y-108688111D01*
G75*
G02*
X112075611Y-108962500I-274389J0D01*
G01*
G37*
%TD*%
%TO.C,SW1*%
G36*
G01*
X71400000Y-101700000D02*
X71400000Y-102700000D01*
G75*
G02*
X71350000Y-102750000I-50000J0D01*
G01*
X70450000Y-102750000D01*
G75*
G02*
X70400000Y-102700000I0J50000D01*
G01*
X70400000Y-101700000D01*
G75*
G02*
X70450000Y-101650000I50000J0D01*
G01*
X71350000Y-101650000D01*
G75*
G02*
X71400000Y-101700000I0J-50000D01*
G01*
G37*
G36*
G01*
X71400000Y-103300000D02*
X71400000Y-104300000D01*
G75*
G02*
X71350000Y-104350000I-50000J0D01*
G01*
X70450000Y-104350000D01*
G75*
G02*
X70400000Y-104300000I0J50000D01*
G01*
X70400000Y-103300000D01*
G75*
G02*
X70450000Y-103250000I50000J0D01*
G01*
X71350000Y-103250000D01*
G75*
G02*
X71400000Y-103300000I0J-50000D01*
G01*
G37*
G36*
G01*
X75500000Y-101700000D02*
X75500000Y-102700000D01*
G75*
G02*
X75450000Y-102750000I-50000J0D01*
G01*
X74550000Y-102750000D01*
G75*
G02*
X74500000Y-102700000I0J50000D01*
G01*
X74500000Y-101700000D01*
G75*
G02*
X74550000Y-101650000I50000J0D01*
G01*
X75450000Y-101650000D01*
G75*
G02*
X75500000Y-101700000I0J-50000D01*
G01*
G37*
G36*
G01*
X75500000Y-103300000D02*
X75500000Y-104300000D01*
G75*
G02*
X75450000Y-104350000I-50000J0D01*
G01*
X74550000Y-104350000D01*
G75*
G02*
X74500000Y-104300000I0J50000D01*
G01*
X74500000Y-103300000D01*
G75*
G02*
X74550000Y-103250000I50000J0D01*
G01*
X75450000Y-103250000D01*
G75*
G02*
X75500000Y-103300000I0J-50000D01*
G01*
G37*
%TD*%
%TO.C,C16*%
G36*
G01*
X105684375Y-129300000D02*
X104515625Y-129300000D01*
G75*
G02*
X104250000Y-129034375I0J265625D01*
G01*
X104250000Y-125965625D01*
G75*
G02*
X104515625Y-125700000I265625J0D01*
G01*
X105684375Y-125700000D01*
G75*
G02*
X105950000Y-125965625I0J-265625D01*
G01*
X105950000Y-129034375D01*
G75*
G02*
X105684375Y-129300000I-265625J0D01*
G01*
G37*
G36*
G01*
X105684375Y-134700000D02*
X104515625Y-134700000D01*
G75*
G02*
X104250000Y-134434375I0J265625D01*
G01*
X104250000Y-131365625D01*
G75*
G02*
X104515625Y-131100000I265625J0D01*
G01*
X105684375Y-131100000D01*
G75*
G02*
X105950000Y-131365625I0J-265625D01*
G01*
X105950000Y-134434375D01*
G75*
G02*
X105684375Y-134700000I-265625J0D01*
G01*
G37*
%TD*%
%TO.C,C15*%
G36*
G01*
X125284375Y-128300000D02*
X124115625Y-128300000D01*
G75*
G02*
X123850000Y-128034375I0J265625D01*
G01*
X123850000Y-124965625D01*
G75*
G02*
X124115625Y-124700000I265625J0D01*
G01*
X125284375Y-124700000D01*
G75*
G02*
X125550000Y-124965625I0J-265625D01*
G01*
X125550000Y-128034375D01*
G75*
G02*
X125284375Y-128300000I-265625J0D01*
G01*
G37*
G36*
G01*
X125284375Y-133700000D02*
X124115625Y-133700000D01*
G75*
G02*
X123850000Y-133434375I0J265625D01*
G01*
X123850000Y-130365625D01*
G75*
G02*
X124115625Y-130100000I265625J0D01*
G01*
X125284375Y-130100000D01*
G75*
G02*
X125550000Y-130365625I0J-265625D01*
G01*
X125550000Y-133434375D01*
G75*
G02*
X125284375Y-133700000I-265625J0D01*
G01*
G37*
%TD*%
%TO.C,R13*%
G36*
G01*
X96024389Y-54037500D02*
X96975611Y-54037500D01*
G75*
G02*
X97250000Y-54311889I0J-274389D01*
G01*
X97250000Y-54888111D01*
G75*
G02*
X96975611Y-55162500I-274389J0D01*
G01*
X96024389Y-55162500D01*
G75*
G02*
X95750000Y-54888111I0J274389D01*
G01*
X95750000Y-54311889D01*
G75*
G02*
X96024389Y-54037500I274389J0D01*
G01*
G37*
G36*
G01*
X96024389Y-52212500D02*
X96975611Y-52212500D01*
G75*
G02*
X97250000Y-52486889I0J-274389D01*
G01*
X97250000Y-53063111D01*
G75*
G02*
X96975611Y-53337500I-274389J0D01*
G01*
X96024389Y-53337500D01*
G75*
G02*
X95750000Y-53063111I0J274389D01*
G01*
X95750000Y-52486889D01*
G75*
G02*
X96024389Y-52212500I274389J0D01*
G01*
G37*
%TD*%
D10*
%TO.C,SWD1*%
X51500000Y-106300000D03*
X51500000Y-103760000D03*
X51500000Y-101220000D03*
X51500000Y-98680000D03*
X51500000Y-96140000D03*
G36*
G01*
X50600000Y-94450000D02*
X50600000Y-92750000D01*
G75*
G02*
X50650000Y-92700000I50000J0D01*
G01*
X52350000Y-92700000D01*
G75*
G02*
X52400000Y-92750000I0J-50000D01*
G01*
X52400000Y-94450000D01*
G75*
G02*
X52350000Y-94500000I-50000J0D01*
G01*
X50650000Y-94500000D01*
G75*
G02*
X50600000Y-94450000I0J50000D01*
G01*
G37*
%TD*%
%TO.C,R24*%
G36*
G01*
X57362500Y-97875611D02*
X57362500Y-96924389D01*
G75*
G02*
X57636889Y-96650000I274389J0D01*
G01*
X58213111Y-96650000D01*
G75*
G02*
X58487500Y-96924389I0J-274389D01*
G01*
X58487500Y-97875611D01*
G75*
G02*
X58213111Y-98150000I-274389J0D01*
G01*
X57636889Y-98150000D01*
G75*
G02*
X57362500Y-97875611I0J274389D01*
G01*
G37*
G36*
G01*
X55537500Y-97875611D02*
X55537500Y-96924389D01*
G75*
G02*
X55811889Y-96650000I274389J0D01*
G01*
X56388111Y-96650000D01*
G75*
G02*
X56662500Y-96924389I0J-274389D01*
G01*
X56662500Y-97875611D01*
G75*
G02*
X56388111Y-98150000I-274389J0D01*
G01*
X55811889Y-98150000D01*
G75*
G02*
X55537500Y-97875611I0J274389D01*
G01*
G37*
%TD*%
%TO.C,J8*%
G36*
G01*
X63750000Y-99050000D02*
X63750000Y-98310000D01*
G75*
G02*
X63800000Y-98260000I50000J0D01*
G01*
X66200000Y-98260000D01*
G75*
G02*
X66250000Y-98310000I0J-50000D01*
G01*
X66250000Y-99050000D01*
G75*
G02*
X66200000Y-99100000I-50000J0D01*
G01*
X63800000Y-99100000D01*
G75*
G02*
X63750000Y-99050000I0J50000D01*
G01*
G37*
G36*
G01*
X59850000Y-99050000D02*
X59850000Y-98310000D01*
G75*
G02*
X59900000Y-98260000I50000J0D01*
G01*
X62300000Y-98260000D01*
G75*
G02*
X62350000Y-98310000I0J-50000D01*
G01*
X62350000Y-99050000D01*
G75*
G02*
X62300000Y-99100000I-50000J0D01*
G01*
X59900000Y-99100000D01*
G75*
G02*
X59850000Y-99050000I0J50000D01*
G01*
G37*
G36*
G01*
X63750000Y-97780000D02*
X63750000Y-97040000D01*
G75*
G02*
X63800000Y-96990000I50000J0D01*
G01*
X66200000Y-96990000D01*
G75*
G02*
X66250000Y-97040000I0J-50000D01*
G01*
X66250000Y-97780000D01*
G75*
G02*
X66200000Y-97830000I-50000J0D01*
G01*
X63800000Y-97830000D01*
G75*
G02*
X63750000Y-97780000I0J50000D01*
G01*
G37*
G36*
G01*
X59850000Y-97780000D02*
X59850000Y-97040000D01*
G75*
G02*
X59900000Y-96990000I50000J0D01*
G01*
X62300000Y-96990000D01*
G75*
G02*
X62350000Y-97040000I0J-50000D01*
G01*
X62350000Y-97780000D01*
G75*
G02*
X62300000Y-97830000I-50000J0D01*
G01*
X59900000Y-97830000D01*
G75*
G02*
X59850000Y-97780000I0J50000D01*
G01*
G37*
G36*
G01*
X63750000Y-96510000D02*
X63750000Y-95770000D01*
G75*
G02*
X63800000Y-95720000I50000J0D01*
G01*
X66200000Y-95720000D01*
G75*
G02*
X66250000Y-95770000I0J-50000D01*
G01*
X66250000Y-96510000D01*
G75*
G02*
X66200000Y-96560000I-50000J0D01*
G01*
X63800000Y-96560000D01*
G75*
G02*
X63750000Y-96510000I0J50000D01*
G01*
G37*
G36*
G01*
X59850000Y-96510000D02*
X59850000Y-95770000D01*
G75*
G02*
X59900000Y-95720000I50000J0D01*
G01*
X62300000Y-95720000D01*
G75*
G02*
X62350000Y-95770000I0J-50000D01*
G01*
X62350000Y-96510000D01*
G75*
G02*
X62300000Y-96560000I-50000J0D01*
G01*
X59900000Y-96560000D01*
G75*
G02*
X59850000Y-96510000I0J50000D01*
G01*
G37*
G36*
G01*
X63750000Y-95240000D02*
X63750000Y-94500000D01*
G75*
G02*
X63800000Y-94450000I50000J0D01*
G01*
X66200000Y-94450000D01*
G75*
G02*
X66250000Y-94500000I0J-50000D01*
G01*
X66250000Y-95240000D01*
G75*
G02*
X66200000Y-95290000I-50000J0D01*
G01*
X63800000Y-95290000D01*
G75*
G02*
X63750000Y-95240000I0J50000D01*
G01*
G37*
G36*
G01*
X59850000Y-95240000D02*
X59850000Y-94500000D01*
G75*
G02*
X59900000Y-94450000I50000J0D01*
G01*
X62300000Y-94450000D01*
G75*
G02*
X62350000Y-94500000I0J-50000D01*
G01*
X62350000Y-95240000D01*
G75*
G02*
X62300000Y-95290000I-50000J0D01*
G01*
X59900000Y-95290000D01*
G75*
G02*
X59850000Y-95240000I0J50000D01*
G01*
G37*
G36*
G01*
X63750000Y-93970000D02*
X63750000Y-93230000D01*
G75*
G02*
X63800000Y-93180000I50000J0D01*
G01*
X66200000Y-93180000D01*
G75*
G02*
X66250000Y-93230000I0J-50000D01*
G01*
X66250000Y-93970000D01*
G75*
G02*
X66200000Y-94020000I-50000J0D01*
G01*
X63800000Y-94020000D01*
G75*
G02*
X63750000Y-93970000I0J50000D01*
G01*
G37*
G36*
G01*
X59850000Y-93970000D02*
X59850000Y-93230000D01*
G75*
G02*
X59900000Y-93180000I50000J0D01*
G01*
X62300000Y-93180000D01*
G75*
G02*
X62350000Y-93230000I0J-50000D01*
G01*
X62350000Y-93970000D01*
G75*
G02*
X62300000Y-94020000I-50000J0D01*
G01*
X59900000Y-94020000D01*
G75*
G02*
X59850000Y-93970000I0J50000D01*
G01*
G37*
G36*
G01*
X63750000Y-92700000D02*
X63750000Y-91960000D01*
G75*
G02*
X63800000Y-91910000I50000J0D01*
G01*
X66200000Y-91910000D01*
G75*
G02*
X66250000Y-91960000I0J-50000D01*
G01*
X66250000Y-92700000D01*
G75*
G02*
X66200000Y-92750000I-50000J0D01*
G01*
X63800000Y-92750000D01*
G75*
G02*
X63750000Y-92700000I0J50000D01*
G01*
G37*
G36*
G01*
X59850000Y-92700000D02*
X59850000Y-91960000D01*
G75*
G02*
X59900000Y-91910000I50000J0D01*
G01*
X62300000Y-91910000D01*
G75*
G02*
X62350000Y-91960000I0J-50000D01*
G01*
X62350000Y-92700000D01*
G75*
G02*
X62300000Y-92750000I-50000J0D01*
G01*
X59900000Y-92750000D01*
G75*
G02*
X59850000Y-92700000I0J50000D01*
G01*
G37*
G36*
G01*
X63750000Y-91430000D02*
X63750000Y-90690000D01*
G75*
G02*
X63800000Y-90640000I50000J0D01*
G01*
X66200000Y-90640000D01*
G75*
G02*
X66250000Y-90690000I0J-50000D01*
G01*
X66250000Y-91430000D01*
G75*
G02*
X66200000Y-91480000I-50000J0D01*
G01*
X63800000Y-91480000D01*
G75*
G02*
X63750000Y-91430000I0J50000D01*
G01*
G37*
G36*
G01*
X59850000Y-91430000D02*
X59850000Y-90690000D01*
G75*
G02*
X59900000Y-90640000I50000J0D01*
G01*
X62300000Y-90640000D01*
G75*
G02*
X62350000Y-90690000I0J-50000D01*
G01*
X62350000Y-91430000D01*
G75*
G02*
X62300000Y-91480000I-50000J0D01*
G01*
X59900000Y-91480000D01*
G75*
G02*
X59850000Y-91430000I0J50000D01*
G01*
G37*
%TD*%
%TO.C,R17*%
G36*
G01*
X120085611Y-73980000D02*
X119134389Y-73980000D01*
G75*
G02*
X118860000Y-73705611I0J274389D01*
G01*
X118860000Y-73129389D01*
G75*
G02*
X119134389Y-72855000I274389J0D01*
G01*
X120085611Y-72855000D01*
G75*
G02*
X120360000Y-73129389I0J-274389D01*
G01*
X120360000Y-73705611D01*
G75*
G02*
X120085611Y-73980000I-274389J0D01*
G01*
G37*
G36*
G01*
X120085611Y-75805000D02*
X119134389Y-75805000D01*
G75*
G02*
X118860000Y-75530611I0J274389D01*
G01*
X118860000Y-74954389D01*
G75*
G02*
X119134389Y-74680000I274389J0D01*
G01*
X120085611Y-74680000D01*
G75*
G02*
X120360000Y-74954389I0J-274389D01*
G01*
X120360000Y-75530611D01*
G75*
G02*
X120085611Y-75805000I-274389J0D01*
G01*
G37*
%TD*%
%TO.C,Y1*%
G36*
G01*
X81084924Y-94568629D02*
X81933452Y-95417157D01*
G75*
G02*
X81933452Y-95487867I-35355J-35355D01*
G01*
X80943502Y-96477817D01*
G75*
G02*
X80872792Y-96477817I-35355J35355D01*
G01*
X80024264Y-95629289D01*
G75*
G02*
X80024264Y-95558579I35355J35355D01*
G01*
X81014214Y-94568629D01*
G75*
G02*
X81084924Y-94568629I35355J-35355D01*
G01*
G37*
G36*
G01*
X79529289Y-96124264D02*
X80377817Y-96972792D01*
G75*
G02*
X80377817Y-97043502I-35355J-35355D01*
G01*
X79387867Y-98033452D01*
G75*
G02*
X79317157Y-98033452I-35355J35355D01*
G01*
X78468629Y-97184924D01*
G75*
G02*
X78468629Y-97114214I35355J35355D01*
G01*
X79458579Y-96124264D01*
G75*
G02*
X79529289Y-96124264I35355J-35355D01*
G01*
G37*
G36*
G01*
X78327208Y-94922183D02*
X79175736Y-95770711D01*
G75*
G02*
X79175736Y-95841421I-35355J-35355D01*
G01*
X78185786Y-96831371D01*
G75*
G02*
X78115076Y-96831371I-35355J35355D01*
G01*
X77266548Y-95982843D01*
G75*
G02*
X77266548Y-95912133I35355J35355D01*
G01*
X78256498Y-94922183D01*
G75*
G02*
X78327208Y-94922183I35355J-35355D01*
G01*
G37*
G36*
G01*
X79882843Y-93366548D02*
X80731371Y-94215076D01*
G75*
G02*
X80731371Y-94285786I-35355J-35355D01*
G01*
X79741421Y-95275736D01*
G75*
G02*
X79670711Y-95275736I-35355J35355D01*
G01*
X78822183Y-94427208D01*
G75*
G02*
X78822183Y-94356498I35355J35355D01*
G01*
X79812133Y-93366548D01*
G75*
G02*
X79882843Y-93366548I35355J-35355D01*
G01*
G37*
%TD*%
%TO.C,U7*%
G36*
G01*
X99180000Y-125540000D02*
X100960000Y-125540000D01*
G75*
G02*
X101010000Y-125590000I0J-50000D01*
G01*
X101010000Y-127590000D01*
G75*
G02*
X100960000Y-127640000I-50000J0D01*
G01*
X99180000Y-127640000D01*
G75*
G02*
X99130000Y-127590000I0J50000D01*
G01*
X99130000Y-125590000D01*
G75*
G02*
X99180000Y-125540000I50000J0D01*
G01*
G37*
G36*
G01*
X96640000Y-117920000D02*
X98420000Y-117920000D01*
G75*
G02*
X98470000Y-117970000I0J-50000D01*
G01*
X98470000Y-119970000D01*
G75*
G02*
X98420000Y-120020000I-50000J0D01*
G01*
X96640000Y-120020000D01*
G75*
G02*
X96590000Y-119970000I0J50000D01*
G01*
X96590000Y-117970000D01*
G75*
G02*
X96640000Y-117920000I50000J0D01*
G01*
G37*
G36*
G01*
X96640000Y-125540000D02*
X98420000Y-125540000D01*
G75*
G02*
X98470000Y-125590000I0J-50000D01*
G01*
X98470000Y-127590000D01*
G75*
G02*
X98420000Y-127640000I-50000J0D01*
G01*
X96640000Y-127640000D01*
G75*
G02*
X96590000Y-127590000I0J50000D01*
G01*
X96590000Y-125590000D01*
G75*
G02*
X96640000Y-125540000I50000J0D01*
G01*
G37*
G36*
G01*
X99180000Y-117920000D02*
X100960000Y-117920000D01*
G75*
G02*
X101010000Y-117970000I0J-50000D01*
G01*
X101010000Y-119970000D01*
G75*
G02*
X100960000Y-120020000I-50000J0D01*
G01*
X99180000Y-120020000D01*
G75*
G02*
X99130000Y-119970000I0J50000D01*
G01*
X99130000Y-117970000D01*
G75*
G02*
X99180000Y-117920000I50000J0D01*
G01*
G37*
%TD*%
%TO.C,R22*%
G36*
G01*
X97975611Y-129162500D02*
X97024389Y-129162500D01*
G75*
G02*
X96750000Y-128888111I0J274389D01*
G01*
X96750000Y-128311889D01*
G75*
G02*
X97024389Y-128037500I274389J0D01*
G01*
X97975611Y-128037500D01*
G75*
G02*
X98250000Y-128311889I0J-274389D01*
G01*
X98250000Y-128888111D01*
G75*
G02*
X97975611Y-129162500I-274389J0D01*
G01*
G37*
G36*
G01*
X97975611Y-130987500D02*
X97024389Y-130987500D01*
G75*
G02*
X96750000Y-130713111I0J274389D01*
G01*
X96750000Y-130136889D01*
G75*
G02*
X97024389Y-129862500I274389J0D01*
G01*
X97975611Y-129862500D01*
G75*
G02*
X98250000Y-130136889I0J-274389D01*
G01*
X98250000Y-130713111D01*
G75*
G02*
X97975611Y-130987500I-274389J0D01*
G01*
G37*
%TD*%
%TO.C,R21*%
G36*
G01*
X94850000Y-119675611D02*
X94850000Y-118724389D01*
G75*
G02*
X95124389Y-118450000I274389J0D01*
G01*
X95700611Y-118450000D01*
G75*
G02*
X95975000Y-118724389I0J-274389D01*
G01*
X95975000Y-119675611D01*
G75*
G02*
X95700611Y-119950000I-274389J0D01*
G01*
X95124389Y-119950000D01*
G75*
G02*
X94850000Y-119675611I0J274389D01*
G01*
G37*
G36*
G01*
X93025000Y-119675611D02*
X93025000Y-118724389D01*
G75*
G02*
X93299389Y-118450000I274389J0D01*
G01*
X93875611Y-118450000D01*
G75*
G02*
X94150000Y-118724389I0J-274389D01*
G01*
X94150000Y-119675611D01*
G75*
G02*
X93875611Y-119950000I-274389J0D01*
G01*
X93299389Y-119950000D01*
G75*
G02*
X93025000Y-119675611I0J274389D01*
G01*
G37*
%TD*%
%TO.C,R20*%
G36*
G01*
X125362500Y-58575611D02*
X125362500Y-57624389D01*
G75*
G02*
X125636889Y-57350000I274389J0D01*
G01*
X126213111Y-57350000D01*
G75*
G02*
X126487500Y-57624389I0J-274389D01*
G01*
X126487500Y-58575611D01*
G75*
G02*
X126213111Y-58850000I-274389J0D01*
G01*
X125636889Y-58850000D01*
G75*
G02*
X125362500Y-58575611I0J274389D01*
G01*
G37*
G36*
G01*
X123537500Y-58575611D02*
X123537500Y-57624389D01*
G75*
G02*
X123811889Y-57350000I274389J0D01*
G01*
X124388111Y-57350000D01*
G75*
G02*
X124662500Y-57624389I0J-274389D01*
G01*
X124662500Y-58575611D01*
G75*
G02*
X124388111Y-58850000I-274389J0D01*
G01*
X123811889Y-58850000D01*
G75*
G02*
X123537500Y-58575611I0J274389D01*
G01*
G37*
%TD*%
%TO.C,R19*%
G36*
G01*
X128047500Y-71534389D02*
X128047500Y-72485611D01*
G75*
G02*
X127773111Y-72760000I-274389J0D01*
G01*
X127196889Y-72760000D01*
G75*
G02*
X126922500Y-72485611I0J274389D01*
G01*
X126922500Y-71534389D01*
G75*
G02*
X127196889Y-71260000I274389J0D01*
G01*
X127773111Y-71260000D01*
G75*
G02*
X128047500Y-71534389I0J-274389D01*
G01*
G37*
G36*
G01*
X129872500Y-71534389D02*
X129872500Y-72485611D01*
G75*
G02*
X129598111Y-72760000I-274389J0D01*
G01*
X129021889Y-72760000D01*
G75*
G02*
X128747500Y-72485611I0J274389D01*
G01*
X128747500Y-71534389D01*
G75*
G02*
X129021889Y-71260000I274389J0D01*
G01*
X129598111Y-71260000D01*
G75*
G02*
X129872500Y-71534389I0J-274389D01*
G01*
G37*
%TD*%
%TO.C,R18*%
G36*
G01*
X121885611Y-73980000D02*
X120934389Y-73980000D01*
G75*
G02*
X120660000Y-73705611I0J274389D01*
G01*
X120660000Y-73129389D01*
G75*
G02*
X120934389Y-72855000I274389J0D01*
G01*
X121885611Y-72855000D01*
G75*
G02*
X122160000Y-73129389I0J-274389D01*
G01*
X122160000Y-73705611D01*
G75*
G02*
X121885611Y-73980000I-274389J0D01*
G01*
G37*
G36*
G01*
X121885611Y-75805000D02*
X120934389Y-75805000D01*
G75*
G02*
X120660000Y-75530611I0J274389D01*
G01*
X120660000Y-74954389D01*
G75*
G02*
X120934389Y-74680000I274389J0D01*
G01*
X121885611Y-74680000D01*
G75*
G02*
X122160000Y-74954389I0J-274389D01*
G01*
X122160000Y-75530611D01*
G75*
G02*
X121885611Y-75805000I-274389J0D01*
G01*
G37*
%TD*%
%TO.C,R16*%
G36*
G01*
X92962500Y-58275611D02*
X92962500Y-57324389D01*
G75*
G02*
X93236889Y-57050000I274389J0D01*
G01*
X93813111Y-57050000D01*
G75*
G02*
X94087500Y-57324389I0J-274389D01*
G01*
X94087500Y-58275611D01*
G75*
G02*
X93813111Y-58550000I-274389J0D01*
G01*
X93236889Y-58550000D01*
G75*
G02*
X92962500Y-58275611I0J274389D01*
G01*
G37*
G36*
G01*
X91137500Y-58275611D02*
X91137500Y-57324389D01*
G75*
G02*
X91411889Y-57050000I274389J0D01*
G01*
X91988111Y-57050000D01*
G75*
G02*
X92262500Y-57324389I0J-274389D01*
G01*
X92262500Y-58275611D01*
G75*
G02*
X91988111Y-58550000I-274389J0D01*
G01*
X91411889Y-58550000D01*
G75*
G02*
X91137500Y-58275611I0J274389D01*
G01*
G37*
%TD*%
%TO.C,R15*%
G36*
G01*
X96017500Y-71444389D02*
X96017500Y-72395611D01*
G75*
G02*
X95743111Y-72670000I-274389J0D01*
G01*
X95166889Y-72670000D01*
G75*
G02*
X94892500Y-72395611I0J274389D01*
G01*
X94892500Y-71444389D01*
G75*
G02*
X95166889Y-71170000I274389J0D01*
G01*
X95743111Y-71170000D01*
G75*
G02*
X96017500Y-71444389I0J-274389D01*
G01*
G37*
G36*
G01*
X97842500Y-71444389D02*
X97842500Y-72395611D01*
G75*
G02*
X97568111Y-72670000I-274389J0D01*
G01*
X96991889Y-72670000D01*
G75*
G02*
X96717500Y-72395611I0J274389D01*
G01*
X96717500Y-71444389D01*
G75*
G02*
X96991889Y-71170000I274389J0D01*
G01*
X97568111Y-71170000D01*
G75*
G02*
X97842500Y-71444389I0J-274389D01*
G01*
G37*
%TD*%
%TO.C,R14*%
G36*
G01*
X90355611Y-74570000D02*
X89404389Y-74570000D01*
G75*
G02*
X89130000Y-74295611I0J274389D01*
G01*
X89130000Y-73719389D01*
G75*
G02*
X89404389Y-73445000I274389J0D01*
G01*
X90355611Y-73445000D01*
G75*
G02*
X90630000Y-73719389I0J-274389D01*
G01*
X90630000Y-74295611D01*
G75*
G02*
X90355611Y-74570000I-274389J0D01*
G01*
G37*
G36*
G01*
X90355611Y-76395000D02*
X89404389Y-76395000D01*
G75*
G02*
X89130000Y-76120611I0J274389D01*
G01*
X89130000Y-75544389D01*
G75*
G02*
X89404389Y-75270000I274389J0D01*
G01*
X90355611Y-75270000D01*
G75*
G02*
X90630000Y-75544389I0J-274389D01*
G01*
X90630000Y-76120611D01*
G75*
G02*
X90355611Y-76395000I-274389J0D01*
G01*
G37*
%TD*%
%TO.C,R9*%
G36*
G01*
X88355611Y-74570000D02*
X87404389Y-74570000D01*
G75*
G02*
X87130000Y-74295611I0J274389D01*
G01*
X87130000Y-73719389D01*
G75*
G02*
X87404389Y-73445000I274389J0D01*
G01*
X88355611Y-73445000D01*
G75*
G02*
X88630000Y-73719389I0J-274389D01*
G01*
X88630000Y-74295611D01*
G75*
G02*
X88355611Y-74570000I-274389J0D01*
G01*
G37*
G36*
G01*
X88355611Y-76395000D02*
X87404389Y-76395000D01*
G75*
G02*
X87130000Y-76120611I0J274389D01*
G01*
X87130000Y-75544389D01*
G75*
G02*
X87404389Y-75270000I274389J0D01*
G01*
X88355611Y-75270000D01*
G75*
G02*
X88630000Y-75544389I0J-274389D01*
G01*
X88630000Y-76120611D01*
G75*
G02*
X88355611Y-76395000I-274389J0D01*
G01*
G37*
%TD*%
%TO.C,D11*%
G36*
G01*
X119050000Y-60150000D02*
X116750000Y-60150000D01*
G75*
G02*
X116700000Y-60100000I0J50000D01*
G01*
X116700000Y-57600000D01*
G75*
G02*
X116750000Y-57550000I50000J0D01*
G01*
X119050000Y-57550000D01*
G75*
G02*
X119100000Y-57600000I0J-50000D01*
G01*
X119100000Y-60100000D01*
G75*
G02*
X119050000Y-60150000I-50000J0D01*
G01*
G37*
G36*
G01*
X119050000Y-64450000D02*
X116750000Y-64450000D01*
G75*
G02*
X116700000Y-64400000I0J50000D01*
G01*
X116700000Y-61900000D01*
G75*
G02*
X116750000Y-61850000I50000J0D01*
G01*
X119050000Y-61850000D01*
G75*
G02*
X119100000Y-61900000I0J-50000D01*
G01*
X119100000Y-64400000D01*
G75*
G02*
X119050000Y-64450000I-50000J0D01*
G01*
G37*
%TD*%
%TO.C,D10*%
G36*
G01*
X86650000Y-59950000D02*
X84350000Y-59950000D01*
G75*
G02*
X84300000Y-59900000I0J50000D01*
G01*
X84300000Y-57400000D01*
G75*
G02*
X84350000Y-57350000I50000J0D01*
G01*
X86650000Y-57350000D01*
G75*
G02*
X86700000Y-57400000I0J-50000D01*
G01*
X86700000Y-59900000D01*
G75*
G02*
X86650000Y-59950000I-50000J0D01*
G01*
G37*
G36*
G01*
X86650000Y-64250000D02*
X84350000Y-64250000D01*
G75*
G02*
X84300000Y-64200000I0J50000D01*
G01*
X84300000Y-61700000D01*
G75*
G02*
X84350000Y-61650000I50000J0D01*
G01*
X86650000Y-61650000D01*
G75*
G02*
X86700000Y-61700000I0J-50000D01*
G01*
X86700000Y-64200000D01*
G75*
G02*
X86650000Y-64250000I-50000J0D01*
G01*
G37*
%TD*%
%TO.C,C34*%
G36*
G01*
X129735000Y-60228262D02*
X129735000Y-57971738D01*
G75*
G02*
X130006738Y-57700000I271738J0D01*
G01*
X130713262Y-57700000D01*
G75*
G02*
X130985000Y-57971738I0J-271738D01*
G01*
X130985000Y-60228262D01*
G75*
G02*
X130713262Y-60500000I-271738J0D01*
G01*
X130006738Y-60500000D01*
G75*
G02*
X129735000Y-60228262I0J271738D01*
G01*
G37*
G36*
G01*
X126785000Y-60228262D02*
X126785000Y-57971738D01*
G75*
G02*
X127056738Y-57700000I271738J0D01*
G01*
X127763262Y-57700000D01*
G75*
G02*
X128035000Y-57971738I0J-271738D01*
G01*
X128035000Y-60228262D01*
G75*
G02*
X127763262Y-60500000I-271738J0D01*
G01*
X127056738Y-60500000D01*
G75*
G02*
X126785000Y-60228262I0J271738D01*
G01*
G37*
%TD*%
%TO.C,C33*%
G36*
G01*
X122460000Y-60310000D02*
X122460000Y-59310000D01*
G75*
G02*
X122735000Y-59035000I275000J0D01*
G01*
X123285000Y-59035000D01*
G75*
G02*
X123560000Y-59310000I0J-275000D01*
G01*
X123560000Y-60310000D01*
G75*
G02*
X123285000Y-60585000I-275000J0D01*
G01*
X122735000Y-60585000D01*
G75*
G02*
X122460000Y-60310000I0J275000D01*
G01*
G37*
G36*
G01*
X120560000Y-60310000D02*
X120560000Y-59310000D01*
G75*
G02*
X120835000Y-59035000I275000J0D01*
G01*
X121385000Y-59035000D01*
G75*
G02*
X121660000Y-59310000I0J-275000D01*
G01*
X121660000Y-60310000D01*
G75*
G02*
X121385000Y-60585000I-275000J0D01*
G01*
X120835000Y-60585000D01*
G75*
G02*
X120560000Y-60310000I0J275000D01*
G01*
G37*
%TD*%
%TO.C,C32*%
G36*
G01*
X129300000Y-62100000D02*
X129300000Y-61100000D01*
G75*
G02*
X129575000Y-60825000I275000J0D01*
G01*
X130125000Y-60825000D01*
G75*
G02*
X130400000Y-61100000I0J-275000D01*
G01*
X130400000Y-62100000D01*
G75*
G02*
X130125000Y-62375000I-275000J0D01*
G01*
X129575000Y-62375000D01*
G75*
G02*
X129300000Y-62100000I0J275000D01*
G01*
G37*
G36*
G01*
X127400000Y-62100000D02*
X127400000Y-61100000D01*
G75*
G02*
X127675000Y-60825000I275000J0D01*
G01*
X128225000Y-60825000D01*
G75*
G02*
X128500000Y-61100000I0J-275000D01*
G01*
X128500000Y-62100000D01*
G75*
G02*
X128225000Y-62375000I-275000J0D01*
G01*
X127675000Y-62375000D01*
G75*
G02*
X127400000Y-62100000I0J275000D01*
G01*
G37*
%TD*%
%TO.C,C31*%
G36*
G01*
X122460000Y-62110000D02*
X122460000Y-61110000D01*
G75*
G02*
X122735000Y-60835000I275000J0D01*
G01*
X123285000Y-60835000D01*
G75*
G02*
X123560000Y-61110000I0J-275000D01*
G01*
X123560000Y-62110000D01*
G75*
G02*
X123285000Y-62385000I-275000J0D01*
G01*
X122735000Y-62385000D01*
G75*
G02*
X122460000Y-62110000I0J275000D01*
G01*
G37*
G36*
G01*
X120560000Y-62110000D02*
X120560000Y-61110000D01*
G75*
G02*
X120835000Y-60835000I275000J0D01*
G01*
X121385000Y-60835000D01*
G75*
G02*
X121660000Y-61110000I0J-275000D01*
G01*
X121660000Y-62110000D01*
G75*
G02*
X121385000Y-62385000I-275000J0D01*
G01*
X120835000Y-62385000D01*
G75*
G02*
X120560000Y-62110000I0J275000D01*
G01*
G37*
%TD*%
%TO.C,C30*%
G36*
G01*
X128817500Y-74310000D02*
X128817500Y-73310000D01*
G75*
G02*
X129092500Y-73035000I275000J0D01*
G01*
X129642500Y-73035000D01*
G75*
G02*
X129917500Y-73310000I0J-275000D01*
G01*
X129917500Y-74310000D01*
G75*
G02*
X129642500Y-74585000I-275000J0D01*
G01*
X129092500Y-74585000D01*
G75*
G02*
X128817500Y-74310000I0J275000D01*
G01*
G37*
G36*
G01*
X126917500Y-74310000D02*
X126917500Y-73310000D01*
G75*
G02*
X127192500Y-73035000I275000J0D01*
G01*
X127742500Y-73035000D01*
G75*
G02*
X128017500Y-73310000I0J-275000D01*
G01*
X128017500Y-74310000D01*
G75*
G02*
X127742500Y-74585000I-275000J0D01*
G01*
X127192500Y-74585000D01*
G75*
G02*
X126917500Y-74310000I0J275000D01*
G01*
G37*
%TD*%
%TO.C,C28*%
G36*
G01*
X122710000Y-74750000D02*
X123710000Y-74750000D01*
G75*
G02*
X123985000Y-75025000I0J-275000D01*
G01*
X123985000Y-75575000D01*
G75*
G02*
X123710000Y-75850000I-275000J0D01*
G01*
X122710000Y-75850000D01*
G75*
G02*
X122435000Y-75575000I0J275000D01*
G01*
X122435000Y-75025000D01*
G75*
G02*
X122710000Y-74750000I275000J0D01*
G01*
G37*
G36*
G01*
X122710000Y-72850000D02*
X123710000Y-72850000D01*
G75*
G02*
X123985000Y-73125000I0J-275000D01*
G01*
X123985000Y-73675000D01*
G75*
G02*
X123710000Y-73950000I-275000J0D01*
G01*
X122710000Y-73950000D01*
G75*
G02*
X122435000Y-73675000I0J275000D01*
G01*
X122435000Y-73125000D01*
G75*
G02*
X122710000Y-72850000I275000J0D01*
G01*
G37*
%TD*%
%TO.C,C27*%
G36*
G01*
X118300000Y-73950000D02*
X117300000Y-73950000D01*
G75*
G02*
X117025000Y-73675000I0J275000D01*
G01*
X117025000Y-73125000D01*
G75*
G02*
X117300000Y-72850000I275000J0D01*
G01*
X118300000Y-72850000D01*
G75*
G02*
X118575000Y-73125000I0J-275000D01*
G01*
X118575000Y-73675000D01*
G75*
G02*
X118300000Y-73950000I-275000J0D01*
G01*
G37*
G36*
G01*
X118300000Y-75850000D02*
X117300000Y-75850000D01*
G75*
G02*
X117025000Y-75575000I0J275000D01*
G01*
X117025000Y-75025000D01*
G75*
G02*
X117300000Y-74750000I275000J0D01*
G01*
X118300000Y-74750000D01*
G75*
G02*
X118575000Y-75025000I0J-275000D01*
G01*
X118575000Y-75575000D01*
G75*
G02*
X118300000Y-75850000I-275000J0D01*
G01*
G37*
%TD*%
%TO.C,C26*%
G36*
G01*
X131200000Y-71200000D02*
X132200000Y-71200000D01*
G75*
G02*
X132475000Y-71475000I0J-275000D01*
G01*
X132475000Y-72025000D01*
G75*
G02*
X132200000Y-72300000I-275000J0D01*
G01*
X131200000Y-72300000D01*
G75*
G02*
X130925000Y-72025000I0J275000D01*
G01*
X130925000Y-71475000D01*
G75*
G02*
X131200000Y-71200000I275000J0D01*
G01*
G37*
G36*
G01*
X131200000Y-69300000D02*
X132200000Y-69300000D01*
G75*
G02*
X132475000Y-69575000I0J-275000D01*
G01*
X132475000Y-70125000D01*
G75*
G02*
X132200000Y-70400000I-275000J0D01*
G01*
X131200000Y-70400000D01*
G75*
G02*
X130925000Y-70125000I0J275000D01*
G01*
X130925000Y-69575000D01*
G75*
G02*
X131200000Y-69300000I275000J0D01*
G01*
G37*
%TD*%
%TO.C,C25*%
G36*
G01*
X125050000Y-72300000D02*
X125050000Y-71300000D01*
G75*
G02*
X125325000Y-71025000I275000J0D01*
G01*
X125875000Y-71025000D01*
G75*
G02*
X126150000Y-71300000I0J-275000D01*
G01*
X126150000Y-72300000D01*
G75*
G02*
X125875000Y-72575000I-275000J0D01*
G01*
X125325000Y-72575000D01*
G75*
G02*
X125050000Y-72300000I0J275000D01*
G01*
G37*
G36*
G01*
X123150000Y-72300000D02*
X123150000Y-71300000D01*
G75*
G02*
X123425000Y-71025000I275000J0D01*
G01*
X123975000Y-71025000D01*
G75*
G02*
X124250000Y-71300000I0J-275000D01*
G01*
X124250000Y-72300000D01*
G75*
G02*
X123975000Y-72575000I-275000J0D01*
G01*
X123425000Y-72575000D01*
G75*
G02*
X123150000Y-72300000I0J275000D01*
G01*
G37*
%TD*%
%TO.C,C24*%
G36*
G01*
X97305000Y-60078262D02*
X97305000Y-57821738D01*
G75*
G02*
X97576738Y-57550000I271738J0D01*
G01*
X98283262Y-57550000D01*
G75*
G02*
X98555000Y-57821738I0J-271738D01*
G01*
X98555000Y-60078262D01*
G75*
G02*
X98283262Y-60350000I-271738J0D01*
G01*
X97576738Y-60350000D01*
G75*
G02*
X97305000Y-60078262I0J271738D01*
G01*
G37*
G36*
G01*
X94355000Y-60078262D02*
X94355000Y-57821738D01*
G75*
G02*
X94626738Y-57550000I271738J0D01*
G01*
X95333262Y-57550000D01*
G75*
G02*
X95605000Y-57821738I0J-271738D01*
G01*
X95605000Y-60078262D01*
G75*
G02*
X95333262Y-60350000I-271738J0D01*
G01*
X94626738Y-60350000D01*
G75*
G02*
X94355000Y-60078262I0J271738D01*
G01*
G37*
%TD*%
%TO.C,C23*%
G36*
G01*
X89980000Y-60420000D02*
X89980000Y-59420000D01*
G75*
G02*
X90255000Y-59145000I275000J0D01*
G01*
X90805000Y-59145000D01*
G75*
G02*
X91080000Y-59420000I0J-275000D01*
G01*
X91080000Y-60420000D01*
G75*
G02*
X90805000Y-60695000I-275000J0D01*
G01*
X90255000Y-60695000D01*
G75*
G02*
X89980000Y-60420000I0J275000D01*
G01*
G37*
G36*
G01*
X88080000Y-60420000D02*
X88080000Y-59420000D01*
G75*
G02*
X88355000Y-59145000I275000J0D01*
G01*
X88905000Y-59145000D01*
G75*
G02*
X89180000Y-59420000I0J-275000D01*
G01*
X89180000Y-60420000D01*
G75*
G02*
X88905000Y-60695000I-275000J0D01*
G01*
X88355000Y-60695000D01*
G75*
G02*
X88080000Y-60420000I0J275000D01*
G01*
G37*
%TD*%
%TO.C,C22*%
G36*
G01*
X96750000Y-62100000D02*
X96750000Y-61100000D01*
G75*
G02*
X97025000Y-60825000I275000J0D01*
G01*
X97575000Y-60825000D01*
G75*
G02*
X97850000Y-61100000I0J-275000D01*
G01*
X97850000Y-62100000D01*
G75*
G02*
X97575000Y-62375000I-275000J0D01*
G01*
X97025000Y-62375000D01*
G75*
G02*
X96750000Y-62100000I0J275000D01*
G01*
G37*
G36*
G01*
X94850000Y-62100000D02*
X94850000Y-61100000D01*
G75*
G02*
X95125000Y-60825000I275000J0D01*
G01*
X95675000Y-60825000D01*
G75*
G02*
X95950000Y-61100000I0J-275000D01*
G01*
X95950000Y-62100000D01*
G75*
G02*
X95675000Y-62375000I-275000J0D01*
G01*
X95125000Y-62375000D01*
G75*
G02*
X94850000Y-62100000I0J275000D01*
G01*
G37*
%TD*%
%TO.C,C21*%
G36*
G01*
X89980000Y-62220000D02*
X89980000Y-61220000D01*
G75*
G02*
X90255000Y-60945000I275000J0D01*
G01*
X90805000Y-60945000D01*
G75*
G02*
X91080000Y-61220000I0J-275000D01*
G01*
X91080000Y-62220000D01*
G75*
G02*
X90805000Y-62495000I-275000J0D01*
G01*
X90255000Y-62495000D01*
G75*
G02*
X89980000Y-62220000I0J275000D01*
G01*
G37*
G36*
G01*
X88080000Y-62220000D02*
X88080000Y-61220000D01*
G75*
G02*
X88355000Y-60945000I275000J0D01*
G01*
X88905000Y-60945000D01*
G75*
G02*
X89180000Y-61220000I0J-275000D01*
G01*
X89180000Y-62220000D01*
G75*
G02*
X88905000Y-62495000I-275000J0D01*
G01*
X88355000Y-62495000D01*
G75*
G02*
X88080000Y-62220000I0J275000D01*
G01*
G37*
%TD*%
%TO.C,C20*%
G36*
G01*
X96750000Y-74220000D02*
X96750000Y-73220000D01*
G75*
G02*
X97025000Y-72945000I275000J0D01*
G01*
X97575000Y-72945000D01*
G75*
G02*
X97850000Y-73220000I0J-275000D01*
G01*
X97850000Y-74220000D01*
G75*
G02*
X97575000Y-74495000I-275000J0D01*
G01*
X97025000Y-74495000D01*
G75*
G02*
X96750000Y-74220000I0J275000D01*
G01*
G37*
G36*
G01*
X94850000Y-74220000D02*
X94850000Y-73220000D01*
G75*
G02*
X95125000Y-72945000I275000J0D01*
G01*
X95675000Y-72945000D01*
G75*
G02*
X95950000Y-73220000I0J-275000D01*
G01*
X95950000Y-74220000D01*
G75*
G02*
X95675000Y-74495000I-275000J0D01*
G01*
X95125000Y-74495000D01*
G75*
G02*
X94850000Y-74220000I0J275000D01*
G01*
G37*
%TD*%
%TO.C,C18*%
G36*
G01*
X91400000Y-75340000D02*
X92400000Y-75340000D01*
G75*
G02*
X92675000Y-75615000I0J-275000D01*
G01*
X92675000Y-76165000D01*
G75*
G02*
X92400000Y-76440000I-275000J0D01*
G01*
X91400000Y-76440000D01*
G75*
G02*
X91125000Y-76165000I0J275000D01*
G01*
X91125000Y-75615000D01*
G75*
G02*
X91400000Y-75340000I275000J0D01*
G01*
G37*
G36*
G01*
X91400000Y-73440000D02*
X92400000Y-73440000D01*
G75*
G02*
X92675000Y-73715000I0J-275000D01*
G01*
X92675000Y-74265000D01*
G75*
G02*
X92400000Y-74540000I-275000J0D01*
G01*
X91400000Y-74540000D01*
G75*
G02*
X91125000Y-74265000I0J275000D01*
G01*
X91125000Y-73715000D01*
G75*
G02*
X91400000Y-73440000I275000J0D01*
G01*
G37*
%TD*%
%TO.C,C17*%
G36*
G01*
X86300000Y-74540000D02*
X85300000Y-74540000D01*
G75*
G02*
X85025000Y-74265000I0J275000D01*
G01*
X85025000Y-73715000D01*
G75*
G02*
X85300000Y-73440000I275000J0D01*
G01*
X86300000Y-73440000D01*
G75*
G02*
X86575000Y-73715000I0J-275000D01*
G01*
X86575000Y-74265000D01*
G75*
G02*
X86300000Y-74540000I-275000J0D01*
G01*
G37*
G36*
G01*
X86300000Y-76440000D02*
X85300000Y-76440000D01*
G75*
G02*
X85025000Y-76165000I0J275000D01*
G01*
X85025000Y-75615000D01*
G75*
G02*
X85300000Y-75340000I275000J0D01*
G01*
X86300000Y-75340000D01*
G75*
G02*
X86575000Y-75615000I0J-275000D01*
G01*
X86575000Y-76165000D01*
G75*
G02*
X86300000Y-76440000I-275000J0D01*
G01*
G37*
%TD*%
%TO.C,C13*%
G36*
G01*
X98800000Y-70950000D02*
X99800000Y-70950000D01*
G75*
G02*
X100075000Y-71225000I0J-275000D01*
G01*
X100075000Y-71775000D01*
G75*
G02*
X99800000Y-72050000I-275000J0D01*
G01*
X98800000Y-72050000D01*
G75*
G02*
X98525000Y-71775000I0J275000D01*
G01*
X98525000Y-71225000D01*
G75*
G02*
X98800000Y-70950000I275000J0D01*
G01*
G37*
G36*
G01*
X98800000Y-69050000D02*
X99800000Y-69050000D01*
G75*
G02*
X100075000Y-69325000I0J-275000D01*
G01*
X100075000Y-69875000D01*
G75*
G02*
X99800000Y-70150000I-275000J0D01*
G01*
X98800000Y-70150000D01*
G75*
G02*
X98525000Y-69875000I0J275000D01*
G01*
X98525000Y-69325000D01*
G75*
G02*
X98800000Y-69050000I275000J0D01*
G01*
G37*
%TD*%
%TO.C,C11*%
G36*
G01*
X92850000Y-72300000D02*
X92850000Y-71300000D01*
G75*
G02*
X93125000Y-71025000I275000J0D01*
G01*
X93675000Y-71025000D01*
G75*
G02*
X93950000Y-71300000I0J-275000D01*
G01*
X93950000Y-72300000D01*
G75*
G02*
X93675000Y-72575000I-275000J0D01*
G01*
X93125000Y-72575000D01*
G75*
G02*
X92850000Y-72300000I0J275000D01*
G01*
G37*
G36*
G01*
X90950000Y-72300000D02*
X90950000Y-71300000D01*
G75*
G02*
X91225000Y-71025000I275000J0D01*
G01*
X91775000Y-71025000D01*
G75*
G02*
X92050000Y-71300000I0J-275000D01*
G01*
X92050000Y-72300000D01*
G75*
G02*
X91775000Y-72575000I-275000J0D01*
G01*
X91225000Y-72575000D01*
G75*
G02*
X90950000Y-72300000I0J275000D01*
G01*
G37*
%TD*%
%TO.C,R8*%
G36*
G01*
X103924389Y-115150000D02*
X104875611Y-115150000D01*
G75*
G02*
X105150000Y-115424389I0J-274389D01*
G01*
X105150000Y-116000611D01*
G75*
G02*
X104875611Y-116275000I-274389J0D01*
G01*
X103924389Y-116275000D01*
G75*
G02*
X103650000Y-116000611I0J274389D01*
G01*
X103650000Y-115424389D01*
G75*
G02*
X103924389Y-115150000I274389J0D01*
G01*
G37*
G36*
G01*
X103924389Y-113325000D02*
X104875611Y-113325000D01*
G75*
G02*
X105150000Y-113599389I0J-274389D01*
G01*
X105150000Y-114175611D01*
G75*
G02*
X104875611Y-114450000I-274389J0D01*
G01*
X103924389Y-114450000D01*
G75*
G02*
X103650000Y-114175611I0J274389D01*
G01*
X103650000Y-113599389D01*
G75*
G02*
X103924389Y-113325000I274389J0D01*
G01*
G37*
%TD*%
%TO.C,R6*%
G36*
G01*
X85094389Y-104650000D02*
X86045611Y-104650000D01*
G75*
G02*
X86320000Y-104924389I0J-274389D01*
G01*
X86320000Y-105500611D01*
G75*
G02*
X86045611Y-105775000I-274389J0D01*
G01*
X85094389Y-105775000D01*
G75*
G02*
X84820000Y-105500611I0J274389D01*
G01*
X84820000Y-104924389D01*
G75*
G02*
X85094389Y-104650000I274389J0D01*
G01*
G37*
G36*
G01*
X85094389Y-102825000D02*
X86045611Y-102825000D01*
G75*
G02*
X86320000Y-103099389I0J-274389D01*
G01*
X86320000Y-103675611D01*
G75*
G02*
X86045611Y-103950000I-274389J0D01*
G01*
X85094389Y-103950000D01*
G75*
G02*
X84820000Y-103675611I0J274389D01*
G01*
X84820000Y-103099389D01*
G75*
G02*
X85094389Y-102825000I274389J0D01*
G01*
G37*
%TD*%
%TO.C,R4*%
G36*
G01*
X85124389Y-116062500D02*
X86075611Y-116062500D01*
G75*
G02*
X86350000Y-116336889I0J-274389D01*
G01*
X86350000Y-116913111D01*
G75*
G02*
X86075611Y-117187500I-274389J0D01*
G01*
X85124389Y-117187500D01*
G75*
G02*
X84850000Y-116913111I0J274389D01*
G01*
X84850000Y-116336889D01*
G75*
G02*
X85124389Y-116062500I274389J0D01*
G01*
G37*
G36*
G01*
X85124389Y-114237500D02*
X86075611Y-114237500D01*
G75*
G02*
X86350000Y-114511889I0J-274389D01*
G01*
X86350000Y-115088111D01*
G75*
G02*
X86075611Y-115362500I-274389J0D01*
G01*
X85124389Y-115362500D01*
G75*
G02*
X84850000Y-115088111I0J274389D01*
G01*
X84850000Y-114511889D01*
G75*
G02*
X85124389Y-114237500I274389J0D01*
G01*
G37*
%TD*%
%TO.C,R2*%
G36*
G01*
X100524389Y-115150000D02*
X101475611Y-115150000D01*
G75*
G02*
X101750000Y-115424389I0J-274389D01*
G01*
X101750000Y-116000611D01*
G75*
G02*
X101475611Y-116275000I-274389J0D01*
G01*
X100524389Y-116275000D01*
G75*
G02*
X100250000Y-116000611I0J274389D01*
G01*
X100250000Y-115424389D01*
G75*
G02*
X100524389Y-115150000I274389J0D01*
G01*
G37*
G36*
G01*
X100524389Y-113325000D02*
X101475611Y-113325000D01*
G75*
G02*
X101750000Y-113599389I0J-274389D01*
G01*
X101750000Y-114175611D01*
G75*
G02*
X101475611Y-114450000I-274389J0D01*
G01*
X100524389Y-114450000D01*
G75*
G02*
X100250000Y-114175611I0J274389D01*
G01*
X100250000Y-113599389D01*
G75*
G02*
X100524389Y-113325000I274389J0D01*
G01*
G37*
%TD*%
%TO.C,FB1*%
G36*
G01*
X106783796Y-94888820D02*
X106111180Y-94216204D01*
G75*
G02*
X106111180Y-93828160I194022J194022D01*
G01*
X106518630Y-93420710D01*
G75*
G02*
X106906674Y-93420710I194022J-194022D01*
G01*
X107579290Y-94093326D01*
G75*
G02*
X107579290Y-94481370I-194022J-194022D01*
G01*
X107171840Y-94888820D01*
G75*
G02*
X106783796Y-94888820I-194022J194022D01*
G01*
G37*
G36*
G01*
X105493326Y-96179290D02*
X104820710Y-95506674D01*
G75*
G02*
X104820710Y-95118630I194022J194022D01*
G01*
X105228160Y-94711180D01*
G75*
G02*
X105616204Y-94711180I194022J-194022D01*
G01*
X106288820Y-95383796D01*
G75*
G02*
X106288820Y-95771840I-194022J-194022D01*
G01*
X105881370Y-96179290D01*
G75*
G02*
X105493326Y-96179290I-194022J194022D01*
G01*
G37*
%TD*%
%TO.C,D9*%
G36*
G01*
X105800000Y-115950000D02*
X107000000Y-115950000D01*
G75*
G02*
X107050000Y-116000000I0J-50000D01*
G01*
X107050000Y-116900000D01*
G75*
G02*
X107000000Y-116950000I-50000J0D01*
G01*
X105800000Y-116950000D01*
G75*
G02*
X105750000Y-116900000I0J50000D01*
G01*
X105750000Y-116000000D01*
G75*
G02*
X105800000Y-115950000I50000J0D01*
G01*
G37*
G36*
G01*
X105800000Y-112650000D02*
X107000000Y-112650000D01*
G75*
G02*
X107050000Y-112700000I0J-50000D01*
G01*
X107050000Y-113600000D01*
G75*
G02*
X107000000Y-113650000I-50000J0D01*
G01*
X105800000Y-113650000D01*
G75*
G02*
X105750000Y-113600000I0J50000D01*
G01*
X105750000Y-112700000D01*
G75*
G02*
X105800000Y-112650000I50000J0D01*
G01*
G37*
%TD*%
%TO.C,D8*%
G36*
G01*
X87010000Y-110380000D02*
X88210000Y-110380000D01*
G75*
G02*
X88260000Y-110430000I0J-50000D01*
G01*
X88260000Y-111330000D01*
G75*
G02*
X88210000Y-111380000I-50000J0D01*
G01*
X87010000Y-111380000D01*
G75*
G02*
X86960000Y-111330000I0J50000D01*
G01*
X86960000Y-110430000D01*
G75*
G02*
X87010000Y-110380000I50000J0D01*
G01*
G37*
G36*
G01*
X87010000Y-107080000D02*
X88210000Y-107080000D01*
G75*
G02*
X88260000Y-107130000I0J-50000D01*
G01*
X88260000Y-108030000D01*
G75*
G02*
X88210000Y-108080000I-50000J0D01*
G01*
X87010000Y-108080000D01*
G75*
G02*
X86960000Y-108030000I0J50000D01*
G01*
X86960000Y-107130000D01*
G75*
G02*
X87010000Y-107080000I50000J0D01*
G01*
G37*
%TD*%
%TO.C,D7*%
G36*
G01*
X105810000Y-110580000D02*
X107010000Y-110580000D01*
G75*
G02*
X107060000Y-110630000I0J-50000D01*
G01*
X107060000Y-111530000D01*
G75*
G02*
X107010000Y-111580000I-50000J0D01*
G01*
X105810000Y-111580000D01*
G75*
G02*
X105760000Y-111530000I0J50000D01*
G01*
X105760000Y-110630000D01*
G75*
G02*
X105810000Y-110580000I50000J0D01*
G01*
G37*
G36*
G01*
X105810000Y-107280000D02*
X107010000Y-107280000D01*
G75*
G02*
X107060000Y-107330000I0J-50000D01*
G01*
X107060000Y-108230000D01*
G75*
G02*
X107010000Y-108280000I-50000J0D01*
G01*
X105810000Y-108280000D01*
G75*
G02*
X105760000Y-108230000I0J50000D01*
G01*
X105760000Y-107330000D01*
G75*
G02*
X105810000Y-107280000I50000J0D01*
G01*
G37*
%TD*%
%TO.C,D6*%
G36*
G01*
X87000000Y-104700000D02*
X88200000Y-104700000D01*
G75*
G02*
X88250000Y-104750000I0J-50000D01*
G01*
X88250000Y-105650000D01*
G75*
G02*
X88200000Y-105700000I-50000J0D01*
G01*
X87000000Y-105700000D01*
G75*
G02*
X86950000Y-105650000I0J50000D01*
G01*
X86950000Y-104750000D01*
G75*
G02*
X87000000Y-104700000I50000J0D01*
G01*
G37*
G36*
G01*
X87000000Y-101400000D02*
X88200000Y-101400000D01*
G75*
G02*
X88250000Y-101450000I0J-50000D01*
G01*
X88250000Y-102350000D01*
G75*
G02*
X88200000Y-102400000I-50000J0D01*
G01*
X87000000Y-102400000D01*
G75*
G02*
X86950000Y-102350000I0J50000D01*
G01*
X86950000Y-101450000D01*
G75*
G02*
X87000000Y-101400000I50000J0D01*
G01*
G37*
%TD*%
%TO.C,D5*%
G36*
G01*
X86900000Y-116500000D02*
X88100000Y-116500000D01*
G75*
G02*
X88150000Y-116550000I0J-50000D01*
G01*
X88150000Y-117450000D01*
G75*
G02*
X88100000Y-117500000I-50000J0D01*
G01*
X86900000Y-117500000D01*
G75*
G02*
X86850000Y-117450000I0J50000D01*
G01*
X86850000Y-116550000D01*
G75*
G02*
X86900000Y-116500000I50000J0D01*
G01*
G37*
G36*
G01*
X86900000Y-113200000D02*
X88100000Y-113200000D01*
G75*
G02*
X88150000Y-113250000I0J-50000D01*
G01*
X88150000Y-114150000D01*
G75*
G02*
X88100000Y-114200000I-50000J0D01*
G01*
X86900000Y-114200000D01*
G75*
G02*
X86850000Y-114150000I0J50000D01*
G01*
X86850000Y-113250000D01*
G75*
G02*
X86900000Y-113200000I50000J0D01*
G01*
G37*
%TD*%
%TO.C,D4*%
G36*
G01*
X98400000Y-110580000D02*
X99600000Y-110580000D01*
G75*
G02*
X99650000Y-110630000I0J-50000D01*
G01*
X99650000Y-111530000D01*
G75*
G02*
X99600000Y-111580000I-50000J0D01*
G01*
X98400000Y-111580000D01*
G75*
G02*
X98350000Y-111530000I0J50000D01*
G01*
X98350000Y-110630000D01*
G75*
G02*
X98400000Y-110580000I50000J0D01*
G01*
G37*
G36*
G01*
X98400000Y-107280000D02*
X99600000Y-107280000D01*
G75*
G02*
X99650000Y-107330000I0J-50000D01*
G01*
X99650000Y-108230000D01*
G75*
G02*
X99600000Y-108280000I-50000J0D01*
G01*
X98400000Y-108280000D01*
G75*
G02*
X98350000Y-108230000I0J50000D01*
G01*
X98350000Y-107330000D01*
G75*
G02*
X98400000Y-107280000I50000J0D01*
G01*
G37*
%TD*%
%TO.C,D3*%
G36*
G01*
X98400000Y-115950000D02*
X99600000Y-115950000D01*
G75*
G02*
X99650000Y-116000000I0J-50000D01*
G01*
X99650000Y-116900000D01*
G75*
G02*
X99600000Y-116950000I-50000J0D01*
G01*
X98400000Y-116950000D01*
G75*
G02*
X98350000Y-116900000I0J50000D01*
G01*
X98350000Y-116000000D01*
G75*
G02*
X98400000Y-115950000I50000J0D01*
G01*
G37*
G36*
G01*
X98400000Y-112650000D02*
X99600000Y-112650000D01*
G75*
G02*
X99650000Y-112700000I0J-50000D01*
G01*
X99650000Y-113600000D01*
G75*
G02*
X99600000Y-113650000I-50000J0D01*
G01*
X98400000Y-113650000D01*
G75*
G02*
X98350000Y-113600000I0J50000D01*
G01*
X98350000Y-112700000D01*
G75*
G02*
X98400000Y-112650000I50000J0D01*
G01*
G37*
%TD*%
%TO.C,U4*%
G36*
G01*
X108800000Y-99450000D02*
X108800000Y-97950000D01*
G75*
G02*
X108850000Y-97900000I50000J0D01*
G01*
X110850000Y-97900000D01*
G75*
G02*
X110900000Y-97950000I0J-50000D01*
G01*
X110900000Y-99450000D01*
G75*
G02*
X110850000Y-99500000I-50000J0D01*
G01*
X108850000Y-99500000D01*
G75*
G02*
X108800000Y-99450000I0J50000D01*
G01*
G37*
G36*
G01*
X108800000Y-104050000D02*
X108800000Y-102550000D01*
G75*
G02*
X108850000Y-102500000I50000J0D01*
G01*
X110850000Y-102500000D01*
G75*
G02*
X110900000Y-102550000I0J-50000D01*
G01*
X110900000Y-104050000D01*
G75*
G02*
X110850000Y-104100000I-50000J0D01*
G01*
X108850000Y-104100000D01*
G75*
G02*
X108800000Y-104050000I0J50000D01*
G01*
G37*
G36*
G01*
X108800000Y-101750000D02*
X108800000Y-100250000D01*
G75*
G02*
X108850000Y-100200000I50000J0D01*
G01*
X110850000Y-100200000D01*
G75*
G02*
X110900000Y-100250000I0J-50000D01*
G01*
X110900000Y-101750000D01*
G75*
G02*
X110850000Y-101800000I-50000J0D01*
G01*
X108850000Y-101800000D01*
G75*
G02*
X108800000Y-101750000I0J50000D01*
G01*
G37*
G36*
G01*
X115100000Y-102900000D02*
X115100000Y-99100000D01*
G75*
G02*
X115150000Y-99050000I50000J0D01*
G01*
X117150000Y-99050000D01*
G75*
G02*
X117200000Y-99100000I0J-50000D01*
G01*
X117200000Y-102900000D01*
G75*
G02*
X117150000Y-102950000I-50000J0D01*
G01*
X115150000Y-102950000D01*
G75*
G02*
X115100000Y-102900000I0J50000D01*
G01*
G37*
%TD*%
%TO.C,R7*%
G36*
G01*
X85094389Y-109962500D02*
X86045611Y-109962500D01*
G75*
G02*
X86320000Y-110236889I0J-274389D01*
G01*
X86320000Y-110813111D01*
G75*
G02*
X86045611Y-111087500I-274389J0D01*
G01*
X85094389Y-111087500D01*
G75*
G02*
X84820000Y-110813111I0J274389D01*
G01*
X84820000Y-110236889D01*
G75*
G02*
X85094389Y-109962500I274389J0D01*
G01*
G37*
G36*
G01*
X85094389Y-108137500D02*
X86045611Y-108137500D01*
G75*
G02*
X86320000Y-108411889I0J-274389D01*
G01*
X86320000Y-108988111D01*
G75*
G02*
X86045611Y-109262500I-274389J0D01*
G01*
X85094389Y-109262500D01*
G75*
G02*
X84820000Y-108988111I0J274389D01*
G01*
X84820000Y-108411889D01*
G75*
G02*
X85094389Y-108137500I274389J0D01*
G01*
G37*
%TD*%
%TO.C,R5*%
G36*
G01*
X103924389Y-110162500D02*
X104875611Y-110162500D01*
G75*
G02*
X105150000Y-110436889I0J-274389D01*
G01*
X105150000Y-111013111D01*
G75*
G02*
X104875611Y-111287500I-274389J0D01*
G01*
X103924389Y-111287500D01*
G75*
G02*
X103650000Y-111013111I0J274389D01*
G01*
X103650000Y-110436889D01*
G75*
G02*
X103924389Y-110162500I274389J0D01*
G01*
G37*
G36*
G01*
X103924389Y-108337500D02*
X104875611Y-108337500D01*
G75*
G02*
X105150000Y-108611889I0J-274389D01*
G01*
X105150000Y-109188111D01*
G75*
G02*
X104875611Y-109462500I-274389J0D01*
G01*
X103924389Y-109462500D01*
G75*
G02*
X103650000Y-109188111I0J274389D01*
G01*
X103650000Y-108611889D01*
G75*
G02*
X103924389Y-108337500I274389J0D01*
G01*
G37*
%TD*%
%TO.C,R3*%
G36*
G01*
X100524389Y-110162500D02*
X101475611Y-110162500D01*
G75*
G02*
X101750000Y-110436889I0J-274389D01*
G01*
X101750000Y-111013111D01*
G75*
G02*
X101475611Y-111287500I-274389J0D01*
G01*
X100524389Y-111287500D01*
G75*
G02*
X100250000Y-111013111I0J274389D01*
G01*
X100250000Y-110436889D01*
G75*
G02*
X100524389Y-110162500I274389J0D01*
G01*
G37*
G36*
G01*
X100524389Y-108337500D02*
X101475611Y-108337500D01*
G75*
G02*
X101750000Y-108611889I0J-274389D01*
G01*
X101750000Y-109188111D01*
G75*
G02*
X101475611Y-109462500I-274389J0D01*
G01*
X100524389Y-109462500D01*
G75*
G02*
X100250000Y-109188111I0J274389D01*
G01*
X100250000Y-108611889D01*
G75*
G02*
X100524389Y-108337500I274389J0D01*
G01*
G37*
%TD*%
%TO.C,C12*%
G36*
G01*
X103163604Y-97129289D02*
X103870711Y-97836396D01*
G75*
G02*
X103870711Y-98225304I-194454J-194454D01*
G01*
X103481802Y-98614213D01*
G75*
G02*
X103092894Y-98614213I-194454J194454D01*
G01*
X102385787Y-97907106D01*
G75*
G02*
X102385787Y-97518198I194454J194454D01*
G01*
X102774696Y-97129289D01*
G75*
G02*
X103163604Y-97129289I194454J-194454D01*
G01*
G37*
G36*
G01*
X104507106Y-95785787D02*
X105214213Y-96492894D01*
G75*
G02*
X105214213Y-96881802I-194454J-194454D01*
G01*
X104825304Y-97270711D01*
G75*
G02*
X104436396Y-97270711I-194454J194454D01*
G01*
X103729289Y-96563604D01*
G75*
G02*
X103729289Y-96174696I194454J194454D01*
G01*
X104118198Y-95785787D01*
G75*
G02*
X104507106Y-95785787I194454J-194454D01*
G01*
G37*
%TD*%
%TO.C,C10*%
G36*
G01*
X89391853Y-99201040D02*
X90098960Y-99908147D01*
G75*
G02*
X90098960Y-100297055I-194454J-194454D01*
G01*
X89710051Y-100685964D01*
G75*
G02*
X89321143Y-100685964I-194454J194454D01*
G01*
X88614036Y-99978857D01*
G75*
G02*
X88614036Y-99589949I194454J194454D01*
G01*
X89002945Y-99201040D01*
G75*
G02*
X89391853Y-99201040I194454J-194454D01*
G01*
G37*
G36*
G01*
X90735355Y-97857538D02*
X91442462Y-98564645D01*
G75*
G02*
X91442462Y-98953553I-194454J-194454D01*
G01*
X91053553Y-99342462D01*
G75*
G02*
X90664645Y-99342462I-194454J194454D01*
G01*
X89957538Y-98635355D01*
G75*
G02*
X89957538Y-98246447I194454J194454D01*
G01*
X90346447Y-97857538D01*
G75*
G02*
X90735355Y-97857538I194454J-194454D01*
G01*
G37*
%TD*%
%TO.C,C9*%
G36*
G01*
X103857538Y-92964645D02*
X104564645Y-92257538D01*
G75*
G02*
X104953553Y-92257538I194454J-194454D01*
G01*
X105342462Y-92646447D01*
G75*
G02*
X105342462Y-93035355I-194454J-194454D01*
G01*
X104635355Y-93742462D01*
G75*
G02*
X104246447Y-93742462I-194454J194454D01*
G01*
X103857538Y-93353553D01*
G75*
G02*
X103857538Y-92964645I194454J194454D01*
G01*
G37*
G36*
G01*
X102514036Y-91621143D02*
X103221143Y-90914036D01*
G75*
G02*
X103610051Y-90914036I194454J-194454D01*
G01*
X103998960Y-91302945D01*
G75*
G02*
X103998960Y-91691853I-194454J-194454D01*
G01*
X103291853Y-92398960D01*
G75*
G02*
X102902945Y-92398960I-194454J194454D01*
G01*
X102514036Y-92010051D01*
G75*
G02*
X102514036Y-91621143I194454J194454D01*
G01*
G37*
%TD*%
%TO.C,C8*%
G36*
G01*
X95029289Y-82436396D02*
X95736396Y-81729289D01*
G75*
G02*
X96125304Y-81729289I194454J-194454D01*
G01*
X96514213Y-82118198D01*
G75*
G02*
X96514213Y-82507106I-194454J-194454D01*
G01*
X95807106Y-83214213D01*
G75*
G02*
X95418198Y-83214213I-194454J194454D01*
G01*
X95029289Y-82825304D01*
G75*
G02*
X95029289Y-82436396I194454J194454D01*
G01*
G37*
G36*
G01*
X93685787Y-81092894D02*
X94392894Y-80385787D01*
G75*
G02*
X94781802Y-80385787I194454J-194454D01*
G01*
X95170711Y-80774696D01*
G75*
G02*
X95170711Y-81163604I-194454J-194454D01*
G01*
X94463604Y-81870711D01*
G75*
G02*
X94074696Y-81870711I-194454J194454D01*
G01*
X93685787Y-81481802D01*
G75*
G02*
X93685787Y-81092894I194454J194454D01*
G01*
G37*
%TD*%
%TO.C,C7*%
G36*
G01*
X84068960Y-85841853D02*
X83361853Y-86548960D01*
G75*
G02*
X82972945Y-86548960I-194454J194454D01*
G01*
X82584036Y-86160051D01*
G75*
G02*
X82584036Y-85771143I194454J194454D01*
G01*
X83291143Y-85064036D01*
G75*
G02*
X83680051Y-85064036I194454J-194454D01*
G01*
X84068960Y-85452945D01*
G75*
G02*
X84068960Y-85841853I-194454J-194454D01*
G01*
G37*
G36*
G01*
X85412462Y-87185355D02*
X84705355Y-87892462D01*
G75*
G02*
X84316447Y-87892462I-194454J194454D01*
G01*
X83927538Y-87503553D01*
G75*
G02*
X83927538Y-87114645I194454J194454D01*
G01*
X84634645Y-86407538D01*
G75*
G02*
X85023553Y-86407538I194454J-194454D01*
G01*
X85412462Y-86796447D01*
G75*
G02*
X85412462Y-87185355I-194454J-194454D01*
G01*
G37*
%TD*%
%TO.C,C6*%
G36*
G01*
X82670711Y-87163604D02*
X81963604Y-87870711D01*
G75*
G02*
X81574696Y-87870711I-194454J194454D01*
G01*
X81185787Y-87481802D01*
G75*
G02*
X81185787Y-87092894I194454J194454D01*
G01*
X81892894Y-86385787D01*
G75*
G02*
X82281802Y-86385787I194454J-194454D01*
G01*
X82670711Y-86774696D01*
G75*
G02*
X82670711Y-87163604I-194454J-194454D01*
G01*
G37*
G36*
G01*
X84014213Y-88507106D02*
X83307106Y-89214213D01*
G75*
G02*
X82918198Y-89214213I-194454J194454D01*
G01*
X82529289Y-88825304D01*
G75*
G02*
X82529289Y-88436396I194454J194454D01*
G01*
X83236396Y-87729289D01*
G75*
G02*
X83625304Y-87729289I194454J-194454D01*
G01*
X84014213Y-88118198D01*
G75*
G02*
X84014213Y-88507106I-194454J-194454D01*
G01*
G37*
%TD*%
%TO.C,C5*%
G36*
G01*
X84263604Y-98129289D02*
X84970711Y-98836396D01*
G75*
G02*
X84970711Y-99225304I-194454J-194454D01*
G01*
X84581802Y-99614213D01*
G75*
G02*
X84192894Y-99614213I-194454J194454D01*
G01*
X83485787Y-98907106D01*
G75*
G02*
X83485787Y-98518198I194454J194454D01*
G01*
X83874696Y-98129289D01*
G75*
G02*
X84263604Y-98129289I194454J-194454D01*
G01*
G37*
G36*
G01*
X85607106Y-96785787D02*
X86314213Y-97492894D01*
G75*
G02*
X86314213Y-97881802I-194454J-194454D01*
G01*
X85925304Y-98270711D01*
G75*
G02*
X85536396Y-98270711I-194454J194454D01*
G01*
X84829289Y-97563604D01*
G75*
G02*
X84829289Y-97174696I194454J194454D01*
G01*
X85218198Y-96785787D01*
G75*
G02*
X85607106Y-96785787I194454J-194454D01*
G01*
G37*
%TD*%
%TO.C,C4*%
G36*
G01*
X77542462Y-97235355D02*
X76835355Y-97942462D01*
G75*
G02*
X76446447Y-97942462I-194454J194454D01*
G01*
X76057538Y-97553553D01*
G75*
G02*
X76057538Y-97164645I194454J194454D01*
G01*
X76764645Y-96457538D01*
G75*
G02*
X77153553Y-96457538I194454J-194454D01*
G01*
X77542462Y-96846447D01*
G75*
G02*
X77542462Y-97235355I-194454J-194454D01*
G01*
G37*
G36*
G01*
X78885964Y-98578857D02*
X78178857Y-99285964D01*
G75*
G02*
X77789949Y-99285964I-194454J194454D01*
G01*
X77401040Y-98897055D01*
G75*
G02*
X77401040Y-98508147I194454J194454D01*
G01*
X78108147Y-97801040D01*
G75*
G02*
X78497055Y-97801040I194454J-194454D01*
G01*
X78885964Y-98189949D01*
G75*
G02*
X78885964Y-98578857I-194454J-194454D01*
G01*
G37*
%TD*%
%TO.C,C3*%
G36*
G01*
X81729289Y-94136396D02*
X82436396Y-93429289D01*
G75*
G02*
X82825304Y-93429289I194454J-194454D01*
G01*
X83214213Y-93818198D01*
G75*
G02*
X83214213Y-94207106I-194454J-194454D01*
G01*
X82507106Y-94914213D01*
G75*
G02*
X82118198Y-94914213I-194454J194454D01*
G01*
X81729289Y-94525304D01*
G75*
G02*
X81729289Y-94136396I194454J194454D01*
G01*
G37*
G36*
G01*
X80385787Y-92792894D02*
X81092894Y-92085787D01*
G75*
G02*
X81481802Y-92085787I194454J-194454D01*
G01*
X81870711Y-92474696D01*
G75*
G02*
X81870711Y-92863604I-194454J-194454D01*
G01*
X81163604Y-93570711D01*
G75*
G02*
X80774696Y-93570711I-194454J194454D01*
G01*
X80385787Y-93181802D01*
G75*
G02*
X80385787Y-92792894I194454J194454D01*
G01*
G37*
%TD*%
%TO.C,F2*%
G36*
G01*
X69722221Y-62925000D02*
X72677779Y-62925000D01*
G75*
G02*
X72950000Y-63197221I0J-272221D01*
G01*
X72950000Y-63877779D01*
G75*
G02*
X72677779Y-64150000I-272221J0D01*
G01*
X69722221Y-64150000D01*
G75*
G02*
X69450000Y-63877779I0J272221D01*
G01*
X69450000Y-63197221D01*
G75*
G02*
X69722221Y-62925000I272221J0D01*
G01*
G37*
G36*
G01*
X69722221Y-58650000D02*
X72677779Y-58650000D01*
G75*
G02*
X72950000Y-58922221I0J-272221D01*
G01*
X72950000Y-59602779D01*
G75*
G02*
X72677779Y-59875000I-272221J0D01*
G01*
X69722221Y-59875000D01*
G75*
G02*
X69450000Y-59602779I0J272221D01*
G01*
X69450000Y-58922221D01*
G75*
G02*
X69722221Y-58650000I272221J0D01*
G01*
G37*
%TD*%
%TO.C,F1*%
G36*
G01*
X62477779Y-59875000D02*
X59522221Y-59875000D01*
G75*
G02*
X59250000Y-59602779I0J272221D01*
G01*
X59250000Y-58922221D01*
G75*
G02*
X59522221Y-58650000I272221J0D01*
G01*
X62477779Y-58650000D01*
G75*
G02*
X62750000Y-58922221I0J-272221D01*
G01*
X62750000Y-59602779D01*
G75*
G02*
X62477779Y-59875000I-272221J0D01*
G01*
G37*
G36*
G01*
X62477779Y-64150000D02*
X59522221Y-64150000D01*
G75*
G02*
X59250000Y-63877779I0J272221D01*
G01*
X59250000Y-63197221D01*
G75*
G02*
X59522221Y-62925000I272221J0D01*
G01*
X62477779Y-62925000D01*
G75*
G02*
X62750000Y-63197221I0J-272221D01*
G01*
X62750000Y-63877779D01*
G75*
G02*
X62477779Y-64150000I-272221J0D01*
G01*
G37*
%TD*%
%TO.C,JP1*%
G36*
G01*
X61520000Y-68410000D02*
X61520000Y-66910000D01*
G75*
G02*
X61570000Y-66860000I50000J0D01*
G01*
X62570000Y-66860000D01*
G75*
G02*
X62620000Y-66910000I0J-50000D01*
G01*
X62620000Y-68410000D01*
G75*
G02*
X62570000Y-68460000I-50000J0D01*
G01*
X61570000Y-68460000D01*
G75*
G02*
X61520000Y-68410000I0J50000D01*
G01*
G37*
G36*
G01*
X62820000Y-68410000D02*
X62820000Y-66910000D01*
G75*
G02*
X62870000Y-66860000I50000J0D01*
G01*
X63870000Y-66860000D01*
G75*
G02*
X63920000Y-66910000I0J-50000D01*
G01*
X63920000Y-68410000D01*
G75*
G02*
X63870000Y-68460000I-50000J0D01*
G01*
X62870000Y-68460000D01*
G75*
G02*
X62820000Y-68410000I0J50000D01*
G01*
G37*
%TD*%
%TO.C,R12*%
G36*
G01*
X115124389Y-54150000D02*
X116075611Y-54150000D01*
G75*
G02*
X116350000Y-54424389I0J-274389D01*
G01*
X116350000Y-55000611D01*
G75*
G02*
X116075611Y-55275000I-274389J0D01*
G01*
X115124389Y-55275000D01*
G75*
G02*
X114850000Y-55000611I0J274389D01*
G01*
X114850000Y-54424389D01*
G75*
G02*
X115124389Y-54150000I274389J0D01*
G01*
G37*
G36*
G01*
X115124389Y-52325000D02*
X116075611Y-52325000D01*
G75*
G02*
X116350000Y-52599389I0J-274389D01*
G01*
X116350000Y-53175611D01*
G75*
G02*
X116075611Y-53450000I-274389J0D01*
G01*
X115124389Y-53450000D01*
G75*
G02*
X114850000Y-53175611I0J274389D01*
G01*
X114850000Y-52599389D01*
G75*
G02*
X115124389Y-52325000I274389J0D01*
G01*
G37*
%TD*%
%TO.C,R11*%
G36*
G01*
X55024389Y-53950000D02*
X55975611Y-53950000D01*
G75*
G02*
X56250000Y-54224389I0J-274389D01*
G01*
X56250000Y-54800611D01*
G75*
G02*
X55975611Y-55075000I-274389J0D01*
G01*
X55024389Y-55075000D01*
G75*
G02*
X54750000Y-54800611I0J274389D01*
G01*
X54750000Y-54224389D01*
G75*
G02*
X55024389Y-53950000I274389J0D01*
G01*
G37*
G36*
G01*
X55024389Y-52125000D02*
X55975611Y-52125000D01*
G75*
G02*
X56250000Y-52399389I0J-274389D01*
G01*
X56250000Y-52975611D01*
G75*
G02*
X55975611Y-53250000I-274389J0D01*
G01*
X55024389Y-53250000D01*
G75*
G02*
X54750000Y-52975611I0J274389D01*
G01*
X54750000Y-52399389D01*
G75*
G02*
X55024389Y-52125000I274389J0D01*
G01*
G37*
%TD*%
%TO.C,R10*%
G36*
G01*
X74524389Y-53937500D02*
X75475611Y-53937500D01*
G75*
G02*
X75750000Y-54211889I0J-274389D01*
G01*
X75750000Y-54788111D01*
G75*
G02*
X75475611Y-55062500I-274389J0D01*
G01*
X74524389Y-55062500D01*
G75*
G02*
X74250000Y-54788111I0J274389D01*
G01*
X74250000Y-54211889D01*
G75*
G02*
X74524389Y-53937500I274389J0D01*
G01*
G37*
G36*
G01*
X74524389Y-52112500D02*
X75475611Y-52112500D01*
G75*
G02*
X75750000Y-52386889I0J-274389D01*
G01*
X75750000Y-52963111D01*
G75*
G02*
X75475611Y-53237500I-274389J0D01*
G01*
X74524389Y-53237500D01*
G75*
G02*
X74250000Y-52963111I0J274389D01*
G01*
X74250000Y-52386889D01*
G75*
G02*
X74524389Y-52112500I274389J0D01*
G01*
G37*
%TD*%
%TO.C,D2*%
G36*
G01*
X68400000Y-60350000D02*
X67200000Y-60350000D01*
G75*
G02*
X67150000Y-60300000I0J50000D01*
G01*
X67150000Y-59400000D01*
G75*
G02*
X67200000Y-59350000I50000J0D01*
G01*
X68400000Y-59350000D01*
G75*
G02*
X68450000Y-59400000I0J-50000D01*
G01*
X68450000Y-60300000D01*
G75*
G02*
X68400000Y-60350000I-50000J0D01*
G01*
G37*
G36*
G01*
X68400000Y-63650000D02*
X67200000Y-63650000D01*
G75*
G02*
X67150000Y-63600000I0J50000D01*
G01*
X67150000Y-62700000D01*
G75*
G02*
X67200000Y-62650000I50000J0D01*
G01*
X68400000Y-62650000D01*
G75*
G02*
X68450000Y-62700000I0J-50000D01*
G01*
X68450000Y-63600000D01*
G75*
G02*
X68400000Y-63650000I-50000J0D01*
G01*
G37*
%TD*%
%TO.C,D1*%
G36*
G01*
X58200000Y-60350000D02*
X57000000Y-60350000D01*
G75*
G02*
X56950000Y-60300000I0J50000D01*
G01*
X56950000Y-59400000D01*
G75*
G02*
X57000000Y-59350000I50000J0D01*
G01*
X58200000Y-59350000D01*
G75*
G02*
X58250000Y-59400000I0J-50000D01*
G01*
X58250000Y-60300000D01*
G75*
G02*
X58200000Y-60350000I-50000J0D01*
G01*
G37*
G36*
G01*
X58200000Y-63650000D02*
X57000000Y-63650000D01*
G75*
G02*
X56950000Y-63600000I0J50000D01*
G01*
X56950000Y-62700000D01*
G75*
G02*
X57000000Y-62650000I50000J0D01*
G01*
X58200000Y-62650000D01*
G75*
G02*
X58250000Y-62700000I0J-50000D01*
G01*
X58250000Y-63600000D01*
G75*
G02*
X58200000Y-63650000I-50000J0D01*
G01*
G37*
%TD*%
%TO.C,JP2*%
X120865000Y-87649000D03*
G36*
G01*
X122555000Y-86749000D02*
X124255000Y-86749000D01*
G75*
G02*
X124305000Y-86799000I0J-50000D01*
G01*
X124305000Y-88499000D01*
G75*
G02*
X124255000Y-88549000I-50000J0D01*
G01*
X122555000Y-88549000D01*
G75*
G02*
X122505000Y-88499000I0J50000D01*
G01*
X122505000Y-86799000D01*
G75*
G02*
X122555000Y-86749000I50000J0D01*
G01*
G37*
%TD*%
%TO.C,R1*%
G36*
G01*
X65720000Y-68135611D02*
X65720000Y-67184389D01*
G75*
G02*
X65994389Y-66910000I274389J0D01*
G01*
X66570611Y-66910000D01*
G75*
G02*
X66845000Y-67184389I0J-274389D01*
G01*
X66845000Y-68135611D01*
G75*
G02*
X66570611Y-68410000I-274389J0D01*
G01*
X65994389Y-68410000D01*
G75*
G02*
X65720000Y-68135611I0J274389D01*
G01*
G37*
G36*
G01*
X63895000Y-68135611D02*
X63895000Y-67184389D01*
G75*
G02*
X64169389Y-66910000I274389J0D01*
G01*
X64745611Y-66910000D01*
G75*
G02*
X65020000Y-67184389I0J-274389D01*
G01*
X65020000Y-68135611D01*
G75*
G02*
X64745611Y-68410000I-274389J0D01*
G01*
X64169389Y-68410000D01*
G75*
G02*
X63895000Y-68135611I0J274389D01*
G01*
G37*
%TD*%
%TO.C,C2*%
G36*
G01*
X63900000Y-77300000D02*
X63900000Y-78300000D01*
G75*
G02*
X63625000Y-78575000I-275000J0D01*
G01*
X63075000Y-78575000D01*
G75*
G02*
X62800000Y-78300000I0J275000D01*
G01*
X62800000Y-77300000D01*
G75*
G02*
X63075000Y-77025000I275000J0D01*
G01*
X63625000Y-77025000D01*
G75*
G02*
X63900000Y-77300000I0J-275000D01*
G01*
G37*
G36*
G01*
X65800000Y-77300000D02*
X65800000Y-78300000D01*
G75*
G02*
X65525000Y-78575000I-275000J0D01*
G01*
X64975000Y-78575000D01*
G75*
G02*
X64700000Y-78300000I0J275000D01*
G01*
X64700000Y-77300000D01*
G75*
G02*
X64975000Y-77025000I275000J0D01*
G01*
X65525000Y-77025000D01*
G75*
G02*
X65800000Y-77300000I0J-275000D01*
G01*
G37*
%TD*%
%TO.C,C1*%
G36*
G01*
X106200000Y-87750000D02*
X107200000Y-87750000D01*
G75*
G02*
X107475000Y-88025000I0J-275000D01*
G01*
X107475000Y-88575000D01*
G75*
G02*
X107200000Y-88850000I-275000J0D01*
G01*
X106200000Y-88850000D01*
G75*
G02*
X105925000Y-88575000I0J275000D01*
G01*
X105925000Y-88025000D01*
G75*
G02*
X106200000Y-87750000I275000J0D01*
G01*
G37*
G36*
G01*
X106200000Y-85850000D02*
X107200000Y-85850000D01*
G75*
G02*
X107475000Y-86125000I0J-275000D01*
G01*
X107475000Y-86675000D01*
G75*
G02*
X107200000Y-86950000I-275000J0D01*
G01*
X106200000Y-86950000D01*
G75*
G02*
X105925000Y-86675000I0J275000D01*
G01*
X105925000Y-86125000D01*
G75*
G02*
X106200000Y-85850000I275000J0D01*
G01*
G37*
%TD*%
M02*
