M48
; DRILL file {KiCad 5.1.7-a382d34a8~88~ubuntu20.04.1} date Fri Jun 18 16:18:56 2021
; FORMAT={-:-/ absolute / inch / decimal}
; #@! TF.CreationDate,2021-06-18T16:18:56+02:00
; #@! TF.GenerationSoftware,Kicad,Pcbnew,5.1.7-a382d34a8~88~ubuntu20.04.1
FMAT,2
INCH
T1C0.0157
T2C0.0256
T3C0.0354
T4C0.0394
T5C0.0591
T6C0.0984
T7C0.1575
T8C0.1181
T9C0.1260
%
G90
G05
T1
X2.1693Y-3.8346
X2.185Y-4.5866
X2.185Y-4.626
X2.2028Y-2.0374
X2.2244Y-3.6299
X2.3189Y-3.5906
X2.3189Y-3.685
X2.3189Y-3.7323
X2.3268Y-3.8819
X2.3996Y-2.5295
X2.4016Y-2.2952
X2.4213Y-2.7244
X2.4528Y-5.0315
X2.4533Y-3.22
X2.4921Y-3.252
X2.5079Y-3.1181
X2.5315Y-4.9528
X2.5394Y-3.2913
X2.5546Y-3.1168
X2.563Y-3.9577
X2.5787Y-3.3228
X2.6161Y-2.4902
X2.6181Y-5.0315
X2.6339Y-3.6772
X2.651Y-3.5561
X2.6654Y-2.2913
X2.752Y-4.0866
X2.8031Y-2.5394
X2.8071Y-2.2913
X2.8228Y-4.2205
X2.8228Y-4.2598
X2.8228Y-4.2992
X2.9961Y-3.7992
X2.9961Y-4.0866
X3.2244Y-3.3632
X3.248Y-3.3386
X3.2717Y-3.9291
X3.2795Y-3.7323
X3.315Y-4.1417
X3.3228Y-4.3543
X3.3302Y-3.4892
X3.3688Y-3.3533
X3.374Y-3.0276
X3.3839Y-4.4075
X3.4204Y-3.3706
X3.4409Y-4.6496
X3.4528Y-3.3465
X3.4646Y-4.0866
X3.4843Y-3.5435
X3.4864Y-3.4815
X3.5039Y-4.0472
X3.5233Y-3.5149
X3.5276Y-4.0866
X3.5394Y-2.4803
X3.5477Y-3.9685
X3.5525Y-3.2531
X3.5551Y-3.4252
X3.5591Y-5.0
X3.5697Y-3.6722
X3.5709Y-2.8661
X3.5787Y-3.4961
X3.5945Y-2.4803
X3.5945Y-5.1181
X3.5945Y-5.1654
X3.5945Y-5.2126
X3.5984Y-5.0709
X3.6014Y-3.753
X3.6024Y-3.9213
X3.6084Y-3.421
X3.622Y-4.9291
X3.6339Y-3.3858
X3.6496Y-4.6614
X3.6535Y-4.126
X3.6732Y-2.9882
X3.6797Y-3.7429
X3.686Y-3.704
X3.6929Y-4.9213
X3.6988Y-2.3209
X3.6998Y-3.5039
X3.7047Y-2.8898
X3.7205Y-2.252
X3.7323Y-4.0079
X3.7323Y-3.874
X3.7362Y-2.0669
X3.748Y-4.2362
X3.7491Y-3.1625
X3.752Y-2.252
X3.752Y-3.4882
X3.7717Y-3.6481
X3.7795Y-4.9498
X3.7848Y-3.2928
X3.7896Y-2.4803
X3.7953Y-5.189
X3.8071Y-3.2126
X3.815Y-3.1181
X3.8189Y-4.3701
X3.8189Y-4.3071
X3.8307Y-3.2913
X3.8307Y-5.1732
X3.8346Y-3.5906
X3.8361Y-4.1206
X3.8555Y-2.4803
X3.8858Y-2.8504
X3.8858Y-2.9055
X3.8937Y-2.315
X3.8937Y-2.3465
X3.8937Y-2.378
X3.8976Y-4.0394
X3.8976Y-4.5433
X3.937Y-5.0472
X3.9449Y-4.0787
X3.9459Y-3.4567
X3.9567Y-2.7402
X3.9783Y-3.2579
X3.9843Y-3.4882
X4.0079Y-3.829
X4.031Y-4.5595
X4.0472Y-3.5748
X4.063Y-3.9843
X4.063Y-4.3701
X4.063Y-4.4409
X4.0709Y-3.4803
X4.0748Y-5.189
X4.0787Y-3.874
X4.0827Y-4.9685
X4.1535Y-3.4016
X4.1654Y-3.6378
X4.189Y-4.3228
X4.189Y-4.622
X4.1929Y-3.8898
X4.1929Y-4.9685
X4.1929Y-5.1969
X4.2087Y-4.1181
X4.2323Y-3.5079
X4.2362Y-3.6772
X4.2402Y-3.8898
X4.2441Y-4.622
X4.2559Y-4.1181
X4.3031Y-4.1181
X4.311Y-3.3622
X4.3189Y-3.7559
X4.3189Y-3.8189
X4.3898Y-3.6299
X4.4055Y-3.9843
X4.4213Y-3.5276
X4.4213Y-5.0
X4.4213Y-5.0394
X4.4213Y-5.0787
X4.437Y-2.6063
X4.437Y-3.4173
X4.4409Y-2.5591
X4.5315Y-3.8189
X4.5472Y-5.1417
X4.5709Y-3.874
X4.5709Y-4.8268
X4.5787Y-3.5433
X4.6024Y-5.1339
X4.6024Y-3.0079
X4.6575Y-3.0079
X4.7165Y-4.2913
X4.7756Y-3.0079
X4.7756Y-4.4882
X4.8163Y-2.4817
X4.8465Y-3.0079
X4.8543Y-4.9291
X4.8663Y-2.4803
X4.8701Y-5.2598
X4.8701Y-5.2913
X4.9094Y-2.8898
X4.9567Y-2.3622
X4.9567Y-2.8898
X4.9646Y-4.9291
X4.9685Y-2.3268
X4.9882Y-4.4803
X5.0681Y-2.4816
X5.1323Y-2.4803
X5.1378Y-2.8504
X5.1378Y-2.8898
X5.1772Y-2.3071
X5.1772Y-2.3386
X5.1772Y-2.3701
X5.1772Y-2.8898
X5.185Y-2.7087
X5.311Y-4.9606
X5.3504Y-4.9606
T2
X4.3122Y-4.3307
X4.3622Y-4.3307
T3
X2.3116Y-2.1482
X2.4016Y-2.1482
X2.4291Y-1.9882
X2.4691Y-2.0583
X2.5091Y-1.9882
X2.5491Y-2.0583
X2.5891Y-1.9882
X2.6291Y-2.0583
X2.6691Y-1.9882
X2.7091Y-2.0583
X2.7366Y-2.1482
X2.8266Y-2.1482
X3.914Y-2.1502
X4.004Y-2.1502
X4.0315Y-1.9902
X4.0715Y-2.0602
X4.1115Y-1.9902
X4.1515Y-2.0602
X4.1915Y-1.9902
X4.2315Y-2.0602
X4.2715Y-1.9902
X4.3115Y-2.0602
X4.339Y-2.1502
X4.429Y-2.1502
T4
X2.5197Y-4.252
X2.6197Y-4.252
X1.9406Y-2.1654
X3.5039Y-3.1201
X4.2795Y-3.0906
X2.1835Y-4.252
X2.2835Y-4.252
X2.3835Y-4.252
X1.9406Y-2.313
X4.6496Y-3.4528
X2.0276Y-3.0512
X2.0276Y-3.1512
X2.0276Y-3.2512
X2.0276Y-3.3512
X2.0276Y-3.4512
X2.0276Y-3.5512
X4.5866Y-3.7795
X4.2795Y-3.1988
X3.3839Y-3.1201
X4.7585Y-3.4507
X4.8585Y-3.4507
X4.248Y-2.511
X4.248Y-2.611
X4.248Y-2.711
X4.248Y-2.811
X4.1713Y-3.1988
X2.9606Y-2.874
X2.0276Y-3.685
X2.0276Y-3.785
X2.0276Y-3.885
X2.0276Y-3.985
X2.0276Y-4.085
X2.0276Y-4.185
X2.9606Y-2.7362
X2.7992Y-2.874
X4.1713Y-3.0906
X2.7992Y-2.7362
X4.6386Y-4.7559
X4.7386Y-4.7559
X4.8386Y-4.7559
X4.9386Y-4.7559
X2.0276Y-2.4134
X2.0276Y-2.5134
X2.0276Y-2.6134
X2.0276Y-2.7134
X2.0276Y-2.8134
X2.0276Y-2.9134
T5
X2.1787Y-4.4449
X2.1787Y-5.2449
X2.4787Y-5.2449
X2.5787Y-4.4449
X2.6787Y-5.2449
X2.9787Y-4.4449
T6
X2.1791Y-1.7382
X2.9641Y-1.7382
X3.7815Y-1.7402
X4.5665Y-1.7402
T7
X5.0474Y-3.4941
X5.0474Y-4.2815
T8
X1.937Y-4.5079
X5.4587Y-1.5827
T9
X1.9587Y-1.5827
X2.7244Y-3.2087
X3.7087Y-4.5079
X4.6929Y-3.2087
X5.4803Y-4.5079
T0
M30
