M48
INCH
T1C0.0157
T2C0.0200
T3C0.0510
T4C0.0866
T5C0.1260
%
G90
G05
T1
X1.7717Y-4.9803
X1.7717Y-5.0591
X1.7717Y-5.1378
X1.811Y-1.7126
X1.811Y-1.8701
X1.811Y-2.0276
X1.811Y-2.185
X1.811Y-2.3425
X1.811Y-2.5
X1.811Y-2.6575
X1.811Y-2.815
X1.811Y-2.9724
X1.811Y-3.1299
X1.811Y-3.2874
X1.811Y-3.4449
X1.811Y-3.6024
X1.811Y-3.7598
X1.811Y-3.9173
X1.811Y-4.0748
X1.811Y-4.2323
X1.811Y-4.3898
X1.811Y-4.5472
X1.8504Y-4.9803
X1.9291Y-3.7598
X1.9291Y-3.8189
X1.9291Y-3.878
X1.9291Y-3.937
X1.9291Y-3.9961
X1.9291Y-4.0551
X1.9291Y-4.1142
X1.9291Y-4.1732
X1.9291Y-4.2323
X1.9291Y-4.2913
X1.9291Y-4.3504
X1.9291Y-4.4094
X1.9291Y-4.4685
X1.9291Y-4.5276
X1.9291Y-4.9803
X1.9685Y-1.7126
X1.9685Y-1.7913
X2.126Y-1.7126
X2.126Y-1.7913
X2.185Y-3.9764
X2.185Y-4.0354
X2.185Y-4.0945
X2.185Y-4.1732
X2.185Y-4.2323
X2.185Y-4.2913
X2.2047Y-4.5472
X2.2047Y-4.6161
X2.2047Y-4.6752
X2.2283Y-2.1102
X2.2283Y-2.3071
X2.2283Y-2.3701
X2.2441Y-2.9921
X2.2441Y-3.0551
X2.2441Y-3.9764
X2.2441Y-4.0354
X2.2441Y-4.0945
X2.2441Y-4.1732
X2.2441Y-4.2323
X2.2441Y-4.2913
X2.248Y-2.685
X2.248Y-2.7441
X2.248Y-2.7953
X2.2638Y-4.5472
X2.2638Y-4.6161
X2.2638Y-4.6752
X2.2831Y-2.9846
X2.2835Y-1.7126
X2.2835Y-1.7913
X2.2835Y-2.1811
X2.2835Y-2.2441
X2.2835Y-2.3071
X2.2835Y-2.3701
X2.2835Y-2.8504
X2.2835Y-2.9134
X2.2835Y-3.0551
X2.3071Y-2.685
X2.3071Y-2.7441
X2.3071Y-2.7953
X2.3421Y-2.9846
X2.3425Y-2.1811
X2.3425Y-2.2441
X2.3425Y-2.3071
X2.3425Y-2.3701
X2.3425Y-2.8504
X2.3425Y-2.9134
X2.3425Y-3.0551
X2.3425Y-4.6654
X2.3661Y-2.685
X2.3661Y-2.7441
X2.3661Y-2.7953
X2.372Y-3.9724
X2.4012Y-2.9846
X2.4016Y-2.1811
X2.4016Y-2.2441
X2.4016Y-2.3071
X2.4016Y-2.3701
X2.4016Y-2.8504
X2.4016Y-2.9134
X2.4016Y-3.0551
X2.4173Y-3.1811
X2.4173Y-3.248
X2.4173Y-3.3071
X2.4252Y-2.4803
X2.4252Y-2.5748
X2.4252Y-2.685
X2.4252Y-2.7441
X2.4252Y-2.7953
X2.4331Y-2.1102
X2.4409Y-1.7126
X2.4409Y-1.7913
X2.4602Y-2.9846
X2.4606Y-2.1811
X2.4606Y-2.2441
X2.4606Y-2.3071
X2.4606Y-2.3701
X2.4606Y-2.8504
X2.4606Y-2.9134
X2.4606Y-3.0551
X2.4606Y-4.2323
X2.4803Y-2.1102
X2.4882Y-4.6299
X2.4961Y-4.4173
X2.5118Y-2.5748
X2.5193Y-2.9846
X2.5197Y-2.1811
X2.5197Y-2.2441
X2.5197Y-2.3071
X2.5197Y-2.3701
X2.5197Y-2.8504
X2.5197Y-2.9134
X2.5197Y-3.0551
X2.5197Y-4.2441
X2.5197Y-4.9705
X2.5197Y-5.0492
X2.5197Y-5.128
X2.5256Y-1.9606
X2.5276Y-3.2441
X2.5276Y-3.3031
X2.565Y-1.9606
X2.5748Y-3.8189
X2.5748Y-3.8819
X2.5866Y-3.2441
X2.5866Y-3.3031
X2.5984Y-1.7126
X2.5984Y-1.7913
X2.5984Y-4.9705
X2.6043Y-1.9606
X2.6457Y-2.0945
X2.6457Y-2.1535
X2.6457Y-2.2126
X2.6457Y-3.2441
X2.6457Y-3.3031
X2.687Y-4.9705
X2.7047Y-2.0945
X2.7047Y-2.1535
X2.7047Y-2.2126
X2.7047Y-3.2441
X2.7047Y-3.3031
X2.7559Y-1.7126
X2.7559Y-1.7913
X2.7638Y-2.0945
X2.7638Y-2.1535
X2.7638Y-2.2126
X2.7638Y-3.2441
X2.7638Y-3.3031
X2.8346Y-3.9213
X2.8543Y-2.8031
X2.9134Y-1.7126
X2.9134Y-1.7913
X2.9134Y-2.8031
X2.9173Y-2.4961
X2.9173Y-2.5433
X2.9173Y-3.189
X2.9173Y-3.2402
X2.9547Y-4.6949
X2.9626Y-4.2618
X2.9634Y-4.1144
X2.9724Y-2.8031
X2.9764Y-2.4961
X2.9764Y-2.5433
X2.9764Y-3.189
X2.9764Y-3.2402
X3.0Y-4.2992
X3.0079Y-3.9606
X3.0315Y-2.8031
X3.063Y-4.0551
X3.0709Y-1.7126
X3.0709Y-1.7913
X3.0906Y-4.3602
X3.1378Y-2.9528
X3.1378Y-3.0118
X3.1378Y-3.0709
X3.1575Y-3.9291
X3.1594Y-3.8386
X3.1969Y-2.9528
X3.1969Y-3.0118
X3.1969Y-3.0709
X3.1988Y-4.001
X3.2283Y-1.7126
X3.2283Y-1.7913
X3.2283Y-2.5669
X3.2283Y-2.626
X3.2283Y-2.685
X3.2283Y-2.7441
X3.2283Y-2.8031
X3.2461Y-4.3996
X3.2559Y-2.9528
X3.2559Y-3.0118
X3.2559Y-3.0709
X3.2874Y-2.5669
X3.2874Y-2.626
X3.2874Y-2.685
X3.2874Y-2.7441
X3.2874Y-2.8031
X3.2972Y-4.1142
X3.3012Y-4.0512
X3.3031Y-3.8937
X3.3169Y-4.4094
X3.3465Y-2.5669
X3.3465Y-2.626
X3.3701Y-3.189
X3.3701Y-3.248
X3.3701Y-3.3071
X3.376Y-4.4685
X3.3858Y-1.7126
X3.3858Y-1.7913
X3.4055Y-2.5669
X3.4055Y-2.626
X3.4252Y-4.8622
X3.4252Y-4.9213
X3.4252Y-4.9803
X3.4252Y-5.0394
X3.4252Y-5.0984
X3.4291Y-3.189
X3.4291Y-3.248
X3.4291Y-3.3071
X3.435Y-3.8189
X3.4646Y-2.5669
X3.4646Y-2.626
X3.4843Y-4.8622
X3.4843Y-4.9213
X3.4843Y-4.9803
X3.4843Y-5.0394
X3.4843Y-5.0984
X3.4882Y-3.189
X3.4882Y-3.248
X3.4882Y-3.3071
X3.5433Y-1.7126
X3.5433Y-1.7913
X3.5433Y-4.8622
X3.5433Y-4.9213
X3.5433Y-4.9803
X3.5433Y-5.0394
X3.5433Y-5.0984
X3.5925Y-3.8583
X3.6024Y-4.8622
X3.6024Y-4.9213
X3.6024Y-4.9803
X3.6024Y-5.0394
X3.6024Y-5.0984
X3.6614Y-4.8622
X3.6614Y-4.9213
X3.6614Y-4.9803
X3.6614Y-5.0394
X3.6614Y-5.0984
X3.7008Y-1.7126
X3.7008Y-1.7913
X3.7106Y-3.1102
X3.7106Y-3.1594
X3.7205Y-4.8622
X3.7205Y-4.9213
X3.7205Y-4.9803
X3.7205Y-5.0394
X3.7205Y-5.0984
X3.7402Y-4.1043
X3.7697Y-3.1594
X3.7795Y-4.8622
X3.7795Y-4.9213
X3.7795Y-4.9803
X3.7795Y-5.0394
X3.7795Y-5.0984
X3.8169Y-4.1024
X3.8287Y-3.1594
X3.8385Y-4.6999
X3.8392Y-4.6605
X3.8583Y-1.7126
X3.8583Y-1.7913
X3.878Y-4.8622
X3.878Y-4.9803
X3.8878Y-3.1102
X3.8878Y-3.1594
X3.9213Y-2.6614
X3.9213Y-2.7087
X3.9213Y-2.7559
X3.9213Y-2.8031
X3.937Y-4.8622
X3.937Y-4.9803
X3.9665Y-4.065
X3.9764Y-2.6614
X3.9764Y-2.7087
X3.9764Y-2.7559
X3.9764Y-2.8031
X3.9764Y-3.6043
X3.9764Y-3.6634
X3.9961Y-4.3602
X3.9961Y-4.8622
X3.9961Y-4.9213
X3.9961Y-4.9803
X4.0059Y-3.8583
X4.0157Y-1.7126
X4.0157Y-1.7913
X4.0354Y-3.6043
X4.0354Y-3.6634
X4.0945Y-3.6043
X4.0945Y-3.6634
X4.124Y-4.4094
X4.124Y-4.6654
X4.1339Y-4.0846
X4.1437Y-3.9961
X4.1732Y-1.7126
X4.1732Y-1.7913
X4.177Y-4.4329
X4.2677Y-4.0394
X4.2717Y-3.4843
X4.2717Y-3.5335
X4.2717Y-3.5827
X4.2815Y-4.6654
X4.2913Y-4.3307
X4.311Y-4.2717
X4.3209Y-3.4843
X4.3209Y-3.5335
X4.3209Y-3.5827
X4.3307Y-1.7126
X4.3307Y-1.7913
X4.3465Y-3.9843
X4.3543Y-2.1457
X4.3543Y-2.2047
X4.3543Y-2.2677
X4.3543Y-2.3307
X4.3543Y-2.6772
X4.3543Y-2.7362
X4.3543Y-2.7953
X4.3543Y-2.8583
X4.3543Y-2.9291
X4.3543Y-2.9921
X4.3543Y-3.0551
X4.4016Y-2.8504
X4.4016Y-2.9213
X4.4016Y-2.9843
X4.4016Y-3.0551
X4.4094Y-2.1102
X4.4094Y-2.1457
X4.4134Y-2.2047
X4.4134Y-2.2677
X4.4134Y-2.3307
X4.4134Y-2.6772
X4.4134Y-2.7362
X4.4134Y-2.7953
X4.4252Y-3.9843
X4.4291Y-4.3307
X4.4606Y-2.8504
X4.4606Y-2.9213
X4.4606Y-2.9843
X4.4606Y-3.0551
X4.4685Y-2.1457
X4.4724Y-2.2047
X4.4724Y-2.2677
X4.4724Y-2.3307
X4.4724Y-2.6772
X4.4724Y-2.7362
X4.4724Y-2.7953
X4.4882Y-1.7126
X4.4882Y-1.7913
X4.5197Y-2.8504
X4.5197Y-2.9213
X4.5197Y-2.9843
X4.5197Y-3.0551
X4.5276Y-2.1457
X4.5276Y-3.1811
X4.5276Y-3.252
X4.5276Y-3.3071
X4.5315Y-2.2047
X4.5315Y-2.2677
X4.5315Y-2.3307
X4.5315Y-2.6772
X4.5315Y-2.7362
X4.5315Y-2.7953
X4.5433Y-2.4646
X4.5433Y-2.5827
X4.5787Y-2.8504
X4.5787Y-2.9213
X4.5787Y-2.9843
X4.5787Y-3.0551
X4.5866Y-2.1457
X4.5906Y-2.2047
X4.5906Y-2.2677
X4.5906Y-2.3307
X4.5906Y-2.6772
X4.5906Y-2.7362
X4.5906Y-2.7953
X4.5984Y-2.1102
X4.6142Y-4.2598
X4.6142Y-4.3071
X4.622Y-2.5827
X4.6378Y-2.8504
X4.6378Y-2.9213
X4.6378Y-2.9843
X4.6378Y-3.0551
X4.6378Y-3.252
X4.6378Y-3.3071
X4.6457Y-1.7126
X4.6457Y-1.7913
X4.6457Y-1.9685
X4.6555Y-4.3996
X4.6555Y-4.7539
X4.6693Y-4.2598
X4.6693Y-4.3071
X4.685Y-1.9685
X4.6929Y-3.252
X4.7146Y-4.6654
X4.7244Y-1.9685
X4.7244Y-4.1654
X4.7244Y-4.2126
X4.7244Y-4.2598
X4.7244Y-4.3071
X4.7638Y-4.3701
X4.7953Y-2.0945
X4.7953Y-2.1535
X4.7953Y-2.2126
X4.8031Y-1.7126
X4.8031Y-1.7913
X4.811Y-3.3622
X4.811Y-3.4213
X4.811Y-3.4803
X4.8543Y-2.0945
X4.8543Y-2.1535
X4.8543Y-2.2126
X4.8701Y-3.3622
X4.8701Y-3.4213
X4.8701Y-3.4803
X4.9134Y-2.0945
X4.9134Y-2.1535
X4.9134Y-2.2126
X4.9606Y-1.7126
X4.9606Y-1.7913
X4.9764Y-2.0945
X5.0394Y-2.8031
X5.0472Y-2.4961
X5.0472Y-2.5512
X5.0551Y-3.2047
X5.0551Y-3.2638
X5.0591Y-4.9803
X5.0591Y-5.0394
X5.1024Y-2.8031
X5.1102Y-2.4961
X5.1102Y-2.5512
X5.1142Y-3.2047
X5.1142Y-3.2638
X5.1181Y-1.7126
X5.1181Y-1.7913
X5.1181Y-4.9803
X5.1181Y-5.0394
X5.1654Y-2.8031
X5.1772Y-4.9803
X5.1772Y-5.0394
X5.2205Y-2.0945
X5.2283Y-2.3543
X5.2362Y-4.9803
X5.2362Y-5.0394
X5.2756Y-1.7126
X5.2756Y-1.7913
X5.2913Y-3.1772
X5.2913Y-3.2362
X5.2913Y-3.2953
X5.2913Y-3.3543
X5.2913Y-3.4134
X5.2913Y-3.4724
X5.2913Y-3.5315
X5.2913Y-3.5906
X5.2913Y-3.6496
X5.2913Y-3.7087
X5.2913Y-3.7677
X5.2913Y-3.8268
X5.2913Y-3.8858
X5.2913Y-3.9449
X5.2913Y-4.0039
X5.2913Y-4.063
X5.2913Y-4.122
X5.2913Y-4.1811
X5.2913Y-4.2402
X5.2913Y-4.2992
X5.2953Y-4.9803
X5.2953Y-5.0394
X5.3543Y-4.9803
X5.3543Y-5.0394
X5.4331Y-1.7126
X5.4331Y-1.8701
X5.4331Y-2.0276
X5.4331Y-2.185
X5.4331Y-2.3425
X5.4331Y-2.5
X5.4331Y-2.6575
X5.4331Y-2.815
X5.4331Y-2.9724
X5.4331Y-3.1299
X5.4331Y-3.2874
X5.4331Y-3.4449
X5.4331Y-3.6024
X5.4331Y-3.7598
X5.4331Y-3.9173
X5.4331Y-4.0748
X5.4331Y-4.2323
X5.4331Y-4.3898
X5.4331Y-4.5472
T2
X2.4Y-4.7
X3.9315Y-4.2
X3.5354Y-4.3
X3.4409Y-4.6
X3.3315Y-4.3
X5.2Y-4.8
X3.5354Y-4.4
X2.0Y-3.4
X3.7315Y-4.2
X3.7315Y-4.3
X3.6Y-5.2
X3.7Y-5.2
X4.1Y-3.4
X3.5354Y-4.2
X4.1Y-2.7
X3.4409Y-4.5
X3.3315Y-4.2
X5.2Y-4.9
X2.0Y-2.7
X3.8315Y-4.6
X3.9315Y-4.3
X4.1Y-3.3
X3.7315Y-4.4
X3.8315Y-4.5
X2.0Y-2.6
X4.1Y-2.6
X2.0Y-3.3
X3.4409Y-4.2
X3.8315Y-4.2
X2.5Y-4.7
T3
X2.1063Y-5.0
X2.1063Y-5.3228
X2.3031Y-5.0
X2.3031Y-5.3228
X4.1732Y-5.0
X4.1732Y-5.3228
X4.3701Y-5.0
X4.3701Y-5.3228
X4.5866Y-5.0
X4.5866Y-5.3228
X4.7835Y-5.0
X4.7835Y-5.3228
X2.9921Y-5.0
X2.9921Y-5.3228
X3.189Y-5.0
X3.189Y-5.3228
T4
X3.622Y-4.5276
X4.4488Y-3.8189
X2.7559Y-3.8189
T5
X1.8504Y-4.7244
X1.872Y-1.7992
X2.6378Y-3.4252
X3.622Y-4.7244
X4.6063Y-3.4252
X5.372Y-1.7992
X5.3937Y-4.7244
T0
M30
