G04 #@! TF.GenerationSoftware,KiCad,Pcbnew,5.1.7-a382d34a8~88~ubuntu20.04.1*
G04 #@! TF.CreationDate,2021-05-21T20:55:17+02:00*
G04 #@! TF.ProjectId,Power,506f7765-722e-46b6-9963-61645f706362,rev?*
G04 #@! TF.SameCoordinates,Original*
G04 #@! TF.FileFunction,Paste,Top*
G04 #@! TF.FilePolarity,Positive*
%FSLAX46Y46*%
G04 Gerber Fmt 4.6, Leading zero omitted, Abs format (unit mm)*
G04 Created by KiCad (PCBNEW 5.1.7-a382d34a8~88~ubuntu20.04.1) date 2021-05-21 20:55:17*
%MOMM*%
%LPD*%
G01*
G04 APERTURE LIST*
%ADD10R,3.810000X4.240000*%
%ADD11R,3.050000X2.750000*%
%ADD12R,2.200000X1.200000*%
%ADD13R,0.650000X0.400000*%
%ADD14R,1.200000X0.900000*%
%ADD15R,2.750000X3.050000*%
%ADD16R,1.200000X2.200000*%
%ADD17R,5.000000X5.000000*%
G04 APERTURE END LIST*
G04 #@! TO.C,U7*
G36*
G01*
X62800000Y-110952500D02*
X62800000Y-110627500D01*
G75*
G02*
X62962500Y-110465000I162500J0D01*
G01*
X64987500Y-110465000D01*
G75*
G02*
X65150000Y-110627500I0J-162500D01*
G01*
X65150000Y-110952500D01*
G75*
G02*
X64987500Y-111115000I-162500J0D01*
G01*
X62962500Y-111115000D01*
G75*
G02*
X62800000Y-110952500I0J162500D01*
G01*
G37*
G36*
G01*
X62800000Y-113492500D02*
X62800000Y-113167500D01*
G75*
G02*
X62962500Y-113005000I162500J0D01*
G01*
X64987500Y-113005000D01*
G75*
G02*
X65150000Y-113167500I0J-162500D01*
G01*
X65150000Y-113492500D01*
G75*
G02*
X64987500Y-113655000I-162500J0D01*
G01*
X62962500Y-113655000D01*
G75*
G02*
X62800000Y-113492500I0J162500D01*
G01*
G37*
G36*
G01*
X62800000Y-116032500D02*
X62800000Y-115707500D01*
G75*
G02*
X62962500Y-115545000I162500J0D01*
G01*
X64987500Y-115545000D01*
G75*
G02*
X65150000Y-115707500I0J-162500D01*
G01*
X65150000Y-116032500D01*
G75*
G02*
X64987500Y-116195000I-162500J0D01*
G01*
X62962500Y-116195000D01*
G75*
G02*
X62800000Y-116032500I0J162500D01*
G01*
G37*
G36*
G01*
X62800000Y-118572500D02*
X62800000Y-118247500D01*
G75*
G02*
X62962500Y-118085000I162500J0D01*
G01*
X64987500Y-118085000D01*
G75*
G02*
X65150000Y-118247500I0J-162500D01*
G01*
X65150000Y-118572500D01*
G75*
G02*
X64987500Y-118735000I-162500J0D01*
G01*
X62962500Y-118735000D01*
G75*
G02*
X62800000Y-118572500I0J162500D01*
G01*
G37*
G36*
G01*
X71850000Y-118572500D02*
X71850000Y-118247500D01*
G75*
G02*
X72012500Y-118085000I162500J0D01*
G01*
X74037500Y-118085000D01*
G75*
G02*
X74200000Y-118247500I0J-162500D01*
G01*
X74200000Y-118572500D01*
G75*
G02*
X74037500Y-118735000I-162500J0D01*
G01*
X72012500Y-118735000D01*
G75*
G02*
X71850000Y-118572500I0J162500D01*
G01*
G37*
G36*
G01*
X71850000Y-116032500D02*
X71850000Y-115707500D01*
G75*
G02*
X72012500Y-115545000I162500J0D01*
G01*
X74037500Y-115545000D01*
G75*
G02*
X74200000Y-115707500I0J-162500D01*
G01*
X74200000Y-116032500D01*
G75*
G02*
X74037500Y-116195000I-162500J0D01*
G01*
X72012500Y-116195000D01*
G75*
G02*
X71850000Y-116032500I0J162500D01*
G01*
G37*
G36*
G01*
X71850000Y-113492500D02*
X71850000Y-113167500D01*
G75*
G02*
X72012500Y-113005000I162500J0D01*
G01*
X74037500Y-113005000D01*
G75*
G02*
X74200000Y-113167500I0J-162500D01*
G01*
X74200000Y-113492500D01*
G75*
G02*
X74037500Y-113655000I-162500J0D01*
G01*
X72012500Y-113655000D01*
G75*
G02*
X71850000Y-113492500I0J162500D01*
G01*
G37*
G36*
G01*
X71850000Y-110952500D02*
X71850000Y-110627500D01*
G75*
G02*
X72012500Y-110465000I162500J0D01*
G01*
X74037500Y-110465000D01*
G75*
G02*
X74200000Y-110627500I0J-162500D01*
G01*
X74200000Y-110952500D01*
G75*
G02*
X74037500Y-111115000I-162500J0D01*
G01*
X72012500Y-111115000D01*
G75*
G02*
X71850000Y-110952500I0J162500D01*
G01*
G37*
G04 #@! TD*
G04 #@! TO.C,U6*
G36*
G01*
X62805001Y-101352500D02*
X62805001Y-101027500D01*
G75*
G02*
X62967501Y-100865000I162500J0D01*
G01*
X64992501Y-100865000D01*
G75*
G02*
X65155001Y-101027500I0J-162500D01*
G01*
X65155001Y-101352500D01*
G75*
G02*
X64992501Y-101515000I-162500J0D01*
G01*
X62967501Y-101515000D01*
G75*
G02*
X62805001Y-101352500I0J162500D01*
G01*
G37*
G36*
G01*
X62805001Y-103892500D02*
X62805001Y-103567500D01*
G75*
G02*
X62967501Y-103405000I162500J0D01*
G01*
X64992501Y-103405000D01*
G75*
G02*
X65155001Y-103567500I0J-162500D01*
G01*
X65155001Y-103892500D01*
G75*
G02*
X64992501Y-104055000I-162500J0D01*
G01*
X62967501Y-104055000D01*
G75*
G02*
X62805001Y-103892500I0J162500D01*
G01*
G37*
G36*
G01*
X62805001Y-106432500D02*
X62805001Y-106107500D01*
G75*
G02*
X62967501Y-105945000I162500J0D01*
G01*
X64992501Y-105945000D01*
G75*
G02*
X65155001Y-106107500I0J-162500D01*
G01*
X65155001Y-106432500D01*
G75*
G02*
X64992501Y-106595000I-162500J0D01*
G01*
X62967501Y-106595000D01*
G75*
G02*
X62805001Y-106432500I0J162500D01*
G01*
G37*
G36*
G01*
X62805001Y-108972500D02*
X62805001Y-108647500D01*
G75*
G02*
X62967501Y-108485000I162500J0D01*
G01*
X64992501Y-108485000D01*
G75*
G02*
X65155001Y-108647500I0J-162500D01*
G01*
X65155001Y-108972500D01*
G75*
G02*
X64992501Y-109135000I-162500J0D01*
G01*
X62967501Y-109135000D01*
G75*
G02*
X62805001Y-108972500I0J162500D01*
G01*
G37*
G36*
G01*
X71855001Y-108972500D02*
X71855001Y-108647500D01*
G75*
G02*
X72017501Y-108485000I162500J0D01*
G01*
X74042501Y-108485000D01*
G75*
G02*
X74205001Y-108647500I0J-162500D01*
G01*
X74205001Y-108972500D01*
G75*
G02*
X74042501Y-109135000I-162500J0D01*
G01*
X72017501Y-109135000D01*
G75*
G02*
X71855001Y-108972500I0J162500D01*
G01*
G37*
G36*
G01*
X71855001Y-106432500D02*
X71855001Y-106107500D01*
G75*
G02*
X72017501Y-105945000I162500J0D01*
G01*
X74042501Y-105945000D01*
G75*
G02*
X74205001Y-106107500I0J-162500D01*
G01*
X74205001Y-106432500D01*
G75*
G02*
X74042501Y-106595000I-162500J0D01*
G01*
X72017501Y-106595000D01*
G75*
G02*
X71855001Y-106432500I0J162500D01*
G01*
G37*
G36*
G01*
X71855001Y-103892500D02*
X71855001Y-103567500D01*
G75*
G02*
X72017501Y-103405000I162500J0D01*
G01*
X74042501Y-103405000D01*
G75*
G02*
X74205001Y-103567500I0J-162500D01*
G01*
X74205001Y-103892500D01*
G75*
G02*
X74042501Y-104055000I-162500J0D01*
G01*
X72017501Y-104055000D01*
G75*
G02*
X71855001Y-103892500I0J162500D01*
G01*
G37*
G36*
G01*
X71855001Y-101352500D02*
X71855001Y-101027500D01*
G75*
G02*
X72017501Y-100865000I162500J0D01*
G01*
X74042501Y-100865000D01*
G75*
G02*
X74205001Y-101027500I0J-162500D01*
G01*
X74205001Y-101352500D01*
G75*
G02*
X74042501Y-101515000I-162500J0D01*
G01*
X72017501Y-101515000D01*
G75*
G02*
X71855001Y-101352500I0J162500D01*
G01*
G37*
G04 #@! TD*
G04 #@! TO.C,JP10*
G36*
G01*
X119100000Y-70950000D02*
X119100000Y-68050000D01*
G75*
G02*
X119350000Y-67800000I250000J0D01*
G01*
X119850000Y-67800000D01*
G75*
G02*
X120100000Y-68050000I0J-250000D01*
G01*
X120100000Y-70950000D01*
G75*
G02*
X119850000Y-71200000I-250000J0D01*
G01*
X119350000Y-71200000D01*
G75*
G02*
X119100000Y-70950000I0J250000D01*
G01*
G37*
G36*
G01*
X117600000Y-70950000D02*
X117600000Y-68050000D01*
G75*
G02*
X117850000Y-67800000I250000J0D01*
G01*
X118350000Y-67800000D01*
G75*
G02*
X118600000Y-68050000I0J-250000D01*
G01*
X118600000Y-70950000D01*
G75*
G02*
X118350000Y-71200000I-250000J0D01*
G01*
X117850000Y-71200000D01*
G75*
G02*
X117600000Y-70950000I0J250000D01*
G01*
G37*
G04 #@! TD*
G04 #@! TO.C,JP9*
G36*
G01*
X64250000Y-70950000D02*
X64250000Y-68050000D01*
G75*
G02*
X64500000Y-67800000I250000J0D01*
G01*
X65000000Y-67800000D01*
G75*
G02*
X65250000Y-68050000I0J-250000D01*
G01*
X65250000Y-70950000D01*
G75*
G02*
X65000000Y-71200000I-250000J0D01*
G01*
X64500000Y-71200000D01*
G75*
G02*
X64250000Y-70950000I0J250000D01*
G01*
G37*
G36*
G01*
X62750000Y-70950000D02*
X62750000Y-68050000D01*
G75*
G02*
X63000000Y-67800000I250000J0D01*
G01*
X63500000Y-67800000D01*
G75*
G02*
X63750000Y-68050000I0J-250000D01*
G01*
X63750000Y-70950000D01*
G75*
G02*
X63500000Y-71200000I-250000J0D01*
G01*
X63000000Y-71200000D01*
G75*
G02*
X62750000Y-70950000I0J250000D01*
G01*
G37*
G04 #@! TD*
G04 #@! TO.C,JP8*
G36*
G01*
X134000000Y-58450000D02*
X134000000Y-55550000D01*
G75*
G02*
X134250000Y-55300000I250000J0D01*
G01*
X134750000Y-55300000D01*
G75*
G02*
X135000000Y-55550000I0J-250000D01*
G01*
X135000000Y-58450000D01*
G75*
G02*
X134750000Y-58700000I-250000J0D01*
G01*
X134250000Y-58700000D01*
G75*
G02*
X134000000Y-58450000I0J250000D01*
G01*
G37*
G36*
G01*
X132500000Y-58450000D02*
X132500000Y-55550000D01*
G75*
G02*
X132750000Y-55300000I250000J0D01*
G01*
X133250000Y-55300000D01*
G75*
G02*
X133500000Y-55550000I0J-250000D01*
G01*
X133500000Y-58450000D01*
G75*
G02*
X133250000Y-58700000I-250000J0D01*
G01*
X132750000Y-58700000D01*
G75*
G02*
X132500000Y-58450000I0J250000D01*
G01*
G37*
G04 #@! TD*
G04 #@! TO.C,JP7*
G36*
G01*
X130450000Y-52000000D02*
X127550000Y-52000000D01*
G75*
G02*
X127300000Y-51750000I0J250000D01*
G01*
X127300000Y-51250000D01*
G75*
G02*
X127550000Y-51000000I250000J0D01*
G01*
X130450000Y-51000000D01*
G75*
G02*
X130700000Y-51250000I0J-250000D01*
G01*
X130700000Y-51750000D01*
G75*
G02*
X130450000Y-52000000I-250000J0D01*
G01*
G37*
G36*
G01*
X130450000Y-53500000D02*
X127550000Y-53500000D01*
G75*
G02*
X127300000Y-53250000I0J250000D01*
G01*
X127300000Y-52750000D01*
G75*
G02*
X127550000Y-52500000I250000J0D01*
G01*
X130450000Y-52500000D01*
G75*
G02*
X130700000Y-52750000I0J-250000D01*
G01*
X130700000Y-53250000D01*
G75*
G02*
X130450000Y-53500000I-250000J0D01*
G01*
G37*
G04 #@! TD*
G04 #@! TO.C,C38*
G36*
G01*
X99025000Y-118500000D02*
X99975000Y-118500000D01*
G75*
G02*
X100225000Y-118750000I0J-250000D01*
G01*
X100225000Y-119250000D01*
G75*
G02*
X99975000Y-119500000I-250000J0D01*
G01*
X99025000Y-119500000D01*
G75*
G02*
X98775000Y-119250000I0J250000D01*
G01*
X98775000Y-118750000D01*
G75*
G02*
X99025000Y-118500000I250000J0D01*
G01*
G37*
G36*
G01*
X99025000Y-116600000D02*
X99975000Y-116600000D01*
G75*
G02*
X100225000Y-116850000I0J-250000D01*
G01*
X100225000Y-117350000D01*
G75*
G02*
X99975000Y-117600000I-250000J0D01*
G01*
X99025000Y-117600000D01*
G75*
G02*
X98775000Y-117350000I0J250000D01*
G01*
X98775000Y-116850000D01*
G75*
G02*
X99025000Y-116600000I250000J0D01*
G01*
G37*
G04 #@! TD*
G04 #@! TO.C,C34*
G36*
G01*
X82975000Y-102800000D02*
X82025000Y-102800000D01*
G75*
G02*
X81775000Y-102550000I0J250000D01*
G01*
X81775000Y-102050000D01*
G75*
G02*
X82025000Y-101800000I250000J0D01*
G01*
X82975000Y-101800000D01*
G75*
G02*
X83225000Y-102050000I0J-250000D01*
G01*
X83225000Y-102550000D01*
G75*
G02*
X82975000Y-102800000I-250000J0D01*
G01*
G37*
G36*
G01*
X82975000Y-104700000D02*
X82025000Y-104700000D01*
G75*
G02*
X81775000Y-104450000I0J250000D01*
G01*
X81775000Y-103950000D01*
G75*
G02*
X82025000Y-103700000I250000J0D01*
G01*
X82975000Y-103700000D01*
G75*
G02*
X83225000Y-103950000I0J-250000D01*
G01*
X83225000Y-104450000D01*
G75*
G02*
X82975000Y-104700000I-250000J0D01*
G01*
G37*
G04 #@! TD*
G04 #@! TO.C,C33*
G36*
G01*
X84725000Y-113550000D02*
X83775000Y-113550000D01*
G75*
G02*
X83525000Y-113300000I0J250000D01*
G01*
X83525000Y-112800000D01*
G75*
G02*
X83775000Y-112550000I250000J0D01*
G01*
X84725000Y-112550000D01*
G75*
G02*
X84975000Y-112800000I0J-250000D01*
G01*
X84975000Y-113300000D01*
G75*
G02*
X84725000Y-113550000I-250000J0D01*
G01*
G37*
G36*
G01*
X84725000Y-115450000D02*
X83775000Y-115450000D01*
G75*
G02*
X83525000Y-115200000I0J250000D01*
G01*
X83525000Y-114700000D01*
G75*
G02*
X83775000Y-114450000I250000J0D01*
G01*
X84725000Y-114450000D01*
G75*
G02*
X84975000Y-114700000I0J-250000D01*
G01*
X84975000Y-115200000D01*
G75*
G02*
X84725000Y-115450000I-250000J0D01*
G01*
G37*
G04 #@! TD*
D10*
G04 #@! TO.C,F4*
X136000000Y-130000000D03*
X136000000Y-136380000D03*
G04 #@! TD*
G04 #@! TO.C,F3*
X66300000Y-136190000D03*
X66300000Y-129810000D03*
G04 #@! TD*
G04 #@! TO.C,F2*
X47400000Y-136000000D03*
X47400000Y-129620000D03*
G04 #@! TD*
G04 #@! TO.C,F1*
X130000000Y-130000000D03*
X130000000Y-136380000D03*
G04 #@! TD*
G04 #@! TO.C,C32*
G36*
G01*
X103950000Y-111225000D02*
X103950000Y-110275000D01*
G75*
G02*
X104200000Y-110025000I250000J0D01*
G01*
X104700000Y-110025000D01*
G75*
G02*
X104950000Y-110275000I0J-250000D01*
G01*
X104950000Y-111225000D01*
G75*
G02*
X104700000Y-111475000I-250000J0D01*
G01*
X104200000Y-111475000D01*
G75*
G02*
X103950000Y-111225000I0J250000D01*
G01*
G37*
G36*
G01*
X102050000Y-111225000D02*
X102050000Y-110275000D01*
G75*
G02*
X102300000Y-110025000I250000J0D01*
G01*
X102800000Y-110025000D01*
G75*
G02*
X103050000Y-110275000I0J-250000D01*
G01*
X103050000Y-111225000D01*
G75*
G02*
X102800000Y-111475000I-250000J0D01*
G01*
X102300000Y-111475000D01*
G75*
G02*
X102050000Y-111225000I0J250000D01*
G01*
G37*
G04 #@! TD*
G04 #@! TO.C,C31*
G36*
G01*
X96450000Y-103475000D02*
X96450000Y-102525000D01*
G75*
G02*
X96700000Y-102275000I250000J0D01*
G01*
X97200000Y-102275000D01*
G75*
G02*
X97450000Y-102525000I0J-250000D01*
G01*
X97450000Y-103475000D01*
G75*
G02*
X97200000Y-103725000I-250000J0D01*
G01*
X96700000Y-103725000D01*
G75*
G02*
X96450000Y-103475000I0J250000D01*
G01*
G37*
G36*
G01*
X94550000Y-103475000D02*
X94550000Y-102525000D01*
G75*
G02*
X94800000Y-102275000I250000J0D01*
G01*
X95300000Y-102275000D01*
G75*
G02*
X95550000Y-102525000I0J-250000D01*
G01*
X95550000Y-103475000D01*
G75*
G02*
X95300000Y-103725000I-250000J0D01*
G01*
X94800000Y-103725000D01*
G75*
G02*
X94550000Y-103475000I0J250000D01*
G01*
G37*
G04 #@! TD*
G04 #@! TO.C,C30*
G36*
G01*
X88750000Y-97525000D02*
X88750000Y-98475000D01*
G75*
G02*
X88500000Y-98725000I-250000J0D01*
G01*
X88000000Y-98725000D01*
G75*
G02*
X87750000Y-98475000I0J250000D01*
G01*
X87750000Y-97525000D01*
G75*
G02*
X88000000Y-97275000I250000J0D01*
G01*
X88500000Y-97275000D01*
G75*
G02*
X88750000Y-97525000I0J-250000D01*
G01*
G37*
G36*
G01*
X90650000Y-97525000D02*
X90650000Y-98475000D01*
G75*
G02*
X90400000Y-98725000I-250000J0D01*
G01*
X89900000Y-98725000D01*
G75*
G02*
X89650000Y-98475000I0J250000D01*
G01*
X89650000Y-97525000D01*
G75*
G02*
X89900000Y-97275000I250000J0D01*
G01*
X90400000Y-97275000D01*
G75*
G02*
X90650000Y-97525000I0J-250000D01*
G01*
G37*
G04 #@! TD*
D11*
G04 #@! TO.C,Q3*
X94325000Y-125725000D03*
X90975000Y-128775000D03*
X94325000Y-128775000D03*
X90975000Y-125725000D03*
D12*
X98950000Y-124970000D03*
X98950000Y-129530000D03*
G04 #@! TD*
D13*
G04 #@! TO.C,U13*
X102550000Y-109150000D03*
X102550000Y-107850000D03*
X104450000Y-108500000D03*
X104450000Y-107850000D03*
X104450000Y-109150000D03*
G04 #@! TD*
G04 #@! TO.C,U3*
G36*
G01*
X113500000Y-106755000D02*
X113500000Y-107055000D01*
G75*
G02*
X113350000Y-107205000I-150000J0D01*
G01*
X111700000Y-107205000D01*
G75*
G02*
X111550000Y-107055000I0J150000D01*
G01*
X111550000Y-106755000D01*
G75*
G02*
X111700000Y-106605000I150000J0D01*
G01*
X113350000Y-106605000D01*
G75*
G02*
X113500000Y-106755000I0J-150000D01*
G01*
G37*
G36*
G01*
X113500000Y-105485000D02*
X113500000Y-105785000D01*
G75*
G02*
X113350000Y-105935000I-150000J0D01*
G01*
X111700000Y-105935000D01*
G75*
G02*
X111550000Y-105785000I0J150000D01*
G01*
X111550000Y-105485000D01*
G75*
G02*
X111700000Y-105335000I150000J0D01*
G01*
X113350000Y-105335000D01*
G75*
G02*
X113500000Y-105485000I0J-150000D01*
G01*
G37*
G36*
G01*
X113500000Y-104215000D02*
X113500000Y-104515000D01*
G75*
G02*
X113350000Y-104665000I-150000J0D01*
G01*
X111700000Y-104665000D01*
G75*
G02*
X111550000Y-104515000I0J150000D01*
G01*
X111550000Y-104215000D01*
G75*
G02*
X111700000Y-104065000I150000J0D01*
G01*
X113350000Y-104065000D01*
G75*
G02*
X113500000Y-104215000I0J-150000D01*
G01*
G37*
G36*
G01*
X113500000Y-102945000D02*
X113500000Y-103245000D01*
G75*
G02*
X113350000Y-103395000I-150000J0D01*
G01*
X111700000Y-103395000D01*
G75*
G02*
X111550000Y-103245000I0J150000D01*
G01*
X111550000Y-102945000D01*
G75*
G02*
X111700000Y-102795000I150000J0D01*
G01*
X113350000Y-102795000D01*
G75*
G02*
X113500000Y-102945000I0J-150000D01*
G01*
G37*
G36*
G01*
X118450000Y-102945000D02*
X118450000Y-103245000D01*
G75*
G02*
X118300000Y-103395000I-150000J0D01*
G01*
X116650000Y-103395000D01*
G75*
G02*
X116500000Y-103245000I0J150000D01*
G01*
X116500000Y-102945000D01*
G75*
G02*
X116650000Y-102795000I150000J0D01*
G01*
X118300000Y-102795000D01*
G75*
G02*
X118450000Y-102945000I0J-150000D01*
G01*
G37*
G36*
G01*
X118450000Y-104215000D02*
X118450000Y-104515000D01*
G75*
G02*
X118300000Y-104665000I-150000J0D01*
G01*
X116650000Y-104665000D01*
G75*
G02*
X116500000Y-104515000I0J150000D01*
G01*
X116500000Y-104215000D01*
G75*
G02*
X116650000Y-104065000I150000J0D01*
G01*
X118300000Y-104065000D01*
G75*
G02*
X118450000Y-104215000I0J-150000D01*
G01*
G37*
G36*
G01*
X118450000Y-105485000D02*
X118450000Y-105785000D01*
G75*
G02*
X118300000Y-105935000I-150000J0D01*
G01*
X116650000Y-105935000D01*
G75*
G02*
X116500000Y-105785000I0J150000D01*
G01*
X116500000Y-105485000D01*
G75*
G02*
X116650000Y-105335000I150000J0D01*
G01*
X118300000Y-105335000D01*
G75*
G02*
X118450000Y-105485000I0J-150000D01*
G01*
G37*
G36*
G01*
X118450000Y-106755000D02*
X118450000Y-107055000D01*
G75*
G02*
X118300000Y-107205000I-150000J0D01*
G01*
X116650000Y-107205000D01*
G75*
G02*
X116500000Y-107055000I0J150000D01*
G01*
X116500000Y-106755000D01*
G75*
G02*
X116650000Y-106605000I150000J0D01*
G01*
X118300000Y-106605000D01*
G75*
G02*
X118450000Y-106755000I0J-150000D01*
G01*
G37*
G04 #@! TD*
G04 #@! TO.C,R30*
G36*
G01*
X102950002Y-105187500D02*
X102049998Y-105187500D01*
G75*
G02*
X101800000Y-104937502I0J249998D01*
G01*
X101800000Y-104412498D01*
G75*
G02*
X102049998Y-104162500I249998J0D01*
G01*
X102950002Y-104162500D01*
G75*
G02*
X103200000Y-104412498I0J-249998D01*
G01*
X103200000Y-104937502D01*
G75*
G02*
X102950002Y-105187500I-249998J0D01*
G01*
G37*
G36*
G01*
X102950002Y-107012500D02*
X102049998Y-107012500D01*
G75*
G02*
X101800000Y-106762502I0J249998D01*
G01*
X101800000Y-106237498D01*
G75*
G02*
X102049998Y-105987500I249998J0D01*
G01*
X102950002Y-105987500D01*
G75*
G02*
X103200000Y-106237498I0J-249998D01*
G01*
X103200000Y-106762502D01*
G75*
G02*
X102950002Y-107012500I-249998J0D01*
G01*
G37*
G04 #@! TD*
G04 #@! TO.C,R25*
G36*
G01*
X107400000Y-110450002D02*
X107400000Y-109549998D01*
G75*
G02*
X107649998Y-109300000I249998J0D01*
G01*
X108175002Y-109300000D01*
G75*
G02*
X108425000Y-109549998I0J-249998D01*
G01*
X108425000Y-110450002D01*
G75*
G02*
X108175002Y-110700000I-249998J0D01*
G01*
X107649998Y-110700000D01*
G75*
G02*
X107400000Y-110450002I0J249998D01*
G01*
G37*
G36*
G01*
X105575000Y-110450002D02*
X105575000Y-109549998D01*
G75*
G02*
X105824998Y-109300000I249998J0D01*
G01*
X106350002Y-109300000D01*
G75*
G02*
X106600000Y-109549998I0J-249998D01*
G01*
X106600000Y-110450002D01*
G75*
G02*
X106350002Y-110700000I-249998J0D01*
G01*
X105824998Y-110700000D01*
G75*
G02*
X105575000Y-110450002I0J249998D01*
G01*
G37*
G04 #@! TD*
G04 #@! TO.C,R22*
G36*
G01*
X104049998Y-105987500D02*
X104950002Y-105987500D01*
G75*
G02*
X105200000Y-106237498I0J-249998D01*
G01*
X105200000Y-106762502D01*
G75*
G02*
X104950002Y-107012500I-249998J0D01*
G01*
X104049998Y-107012500D01*
G75*
G02*
X103800000Y-106762502I0J249998D01*
G01*
X103800000Y-106237498D01*
G75*
G02*
X104049998Y-105987500I249998J0D01*
G01*
G37*
G36*
G01*
X104049998Y-104162500D02*
X104950002Y-104162500D01*
G75*
G02*
X105200000Y-104412498I0J-249998D01*
G01*
X105200000Y-104937502D01*
G75*
G02*
X104950002Y-105187500I-249998J0D01*
G01*
X104049998Y-105187500D01*
G75*
G02*
X103800000Y-104937502I0J249998D01*
G01*
X103800000Y-104412498D01*
G75*
G02*
X104049998Y-104162500I249998J0D01*
G01*
G37*
G04 #@! TD*
G04 #@! TO.C,R21*
G36*
G01*
X106687500Y-107549998D02*
X106687500Y-108450002D01*
G75*
G02*
X106437502Y-108700000I-249998J0D01*
G01*
X105912498Y-108700000D01*
G75*
G02*
X105662500Y-108450002I0J249998D01*
G01*
X105662500Y-107549998D01*
G75*
G02*
X105912498Y-107300000I249998J0D01*
G01*
X106437502Y-107300000D01*
G75*
G02*
X106687500Y-107549998I0J-249998D01*
G01*
G37*
G36*
G01*
X108512500Y-107549998D02*
X108512500Y-108450002D01*
G75*
G02*
X108262502Y-108700000I-249998J0D01*
G01*
X107737498Y-108700000D01*
G75*
G02*
X107487500Y-108450002I0J249998D01*
G01*
X107487500Y-107549998D01*
G75*
G02*
X107737498Y-107300000I249998J0D01*
G01*
X108262502Y-107300000D01*
G75*
G02*
X108512500Y-107549998I0J-249998D01*
G01*
G37*
G04 #@! TD*
G04 #@! TO.C,C5*
G36*
G01*
X109275000Y-103900000D02*
X110225000Y-103900000D01*
G75*
G02*
X110475000Y-104150000I0J-250000D01*
G01*
X110475000Y-104650000D01*
G75*
G02*
X110225000Y-104900000I-250000J0D01*
G01*
X109275000Y-104900000D01*
G75*
G02*
X109025000Y-104650000I0J250000D01*
G01*
X109025000Y-104150000D01*
G75*
G02*
X109275000Y-103900000I250000J0D01*
G01*
G37*
G36*
G01*
X109275000Y-102000000D02*
X110225000Y-102000000D01*
G75*
G02*
X110475000Y-102250000I0J-250000D01*
G01*
X110475000Y-102750000D01*
G75*
G02*
X110225000Y-103000000I-250000J0D01*
G01*
X109275000Y-103000000D01*
G75*
G02*
X109025000Y-102750000I0J250000D01*
G01*
X109025000Y-102250000D01*
G75*
G02*
X109275000Y-102000000I250000J0D01*
G01*
G37*
G04 #@! TD*
G04 #@! TO.C,C4*
G36*
G01*
X112000000Y-109075000D02*
X112000000Y-108125000D01*
G75*
G02*
X112250000Y-107875000I250000J0D01*
G01*
X112750000Y-107875000D01*
G75*
G02*
X113000000Y-108125000I0J-250000D01*
G01*
X113000000Y-109075000D01*
G75*
G02*
X112750000Y-109325000I-250000J0D01*
G01*
X112250000Y-109325000D01*
G75*
G02*
X112000000Y-109075000I0J250000D01*
G01*
G37*
G36*
G01*
X110100000Y-109075000D02*
X110100000Y-108125000D01*
G75*
G02*
X110350000Y-107875000I250000J0D01*
G01*
X110850000Y-107875000D01*
G75*
G02*
X111100000Y-108125000I0J-250000D01*
G01*
X111100000Y-109075000D01*
G75*
G02*
X110850000Y-109325000I-250000J0D01*
G01*
X110350000Y-109325000D01*
G75*
G02*
X110100000Y-109075000I0J250000D01*
G01*
G37*
G04 #@! TD*
G04 #@! TO.C,R27*
G36*
G01*
X85387500Y-98449998D02*
X85387500Y-99350002D01*
G75*
G02*
X85137502Y-99600000I-249998J0D01*
G01*
X84612498Y-99600000D01*
G75*
G02*
X84362500Y-99350002I0J249998D01*
G01*
X84362500Y-98449998D01*
G75*
G02*
X84612498Y-98200000I249998J0D01*
G01*
X85137502Y-98200000D01*
G75*
G02*
X85387500Y-98449998I0J-249998D01*
G01*
G37*
G36*
G01*
X87212500Y-98449998D02*
X87212500Y-99350002D01*
G75*
G02*
X86962502Y-99600000I-249998J0D01*
G01*
X86437498Y-99600000D01*
G75*
G02*
X86187500Y-99350002I0J249998D01*
G01*
X86187500Y-98449998D01*
G75*
G02*
X86437498Y-98200000I249998J0D01*
G01*
X86962502Y-98200000D01*
G75*
G02*
X87212500Y-98449998I0J-249998D01*
G01*
G37*
G04 #@! TD*
G04 #@! TO.C,R29*
G36*
G01*
X89600000Y-103350002D02*
X89600000Y-102449998D01*
G75*
G02*
X89849998Y-102200000I249998J0D01*
G01*
X90375002Y-102200000D01*
G75*
G02*
X90625000Y-102449998I0J-249998D01*
G01*
X90625000Y-103350002D01*
G75*
G02*
X90375002Y-103600000I-249998J0D01*
G01*
X89849998Y-103600000D01*
G75*
G02*
X89600000Y-103350002I0J249998D01*
G01*
G37*
G36*
G01*
X87775000Y-103350002D02*
X87775000Y-102449998D01*
G75*
G02*
X88024998Y-102200000I249998J0D01*
G01*
X88550002Y-102200000D01*
G75*
G02*
X88800000Y-102449998I0J-249998D01*
G01*
X88800000Y-103350002D01*
G75*
G02*
X88550002Y-103600000I-249998J0D01*
G01*
X88024998Y-103600000D01*
G75*
G02*
X87775000Y-103350002I0J249998D01*
G01*
G37*
G04 #@! TD*
G04 #@! TO.C,U1*
G36*
G01*
X77255000Y-96525000D02*
X77555000Y-96525000D01*
G75*
G02*
X77705000Y-96675000I0J-150000D01*
G01*
X77705000Y-98325000D01*
G75*
G02*
X77555000Y-98475000I-150000J0D01*
G01*
X77255000Y-98475000D01*
G75*
G02*
X77105000Y-98325000I0J150000D01*
G01*
X77105000Y-96675000D01*
G75*
G02*
X77255000Y-96525000I150000J0D01*
G01*
G37*
G36*
G01*
X75985000Y-96525000D02*
X76285000Y-96525000D01*
G75*
G02*
X76435000Y-96675000I0J-150000D01*
G01*
X76435000Y-98325000D01*
G75*
G02*
X76285000Y-98475000I-150000J0D01*
G01*
X75985000Y-98475000D01*
G75*
G02*
X75835000Y-98325000I0J150000D01*
G01*
X75835000Y-96675000D01*
G75*
G02*
X75985000Y-96525000I150000J0D01*
G01*
G37*
G36*
G01*
X74715000Y-96525000D02*
X75015000Y-96525000D01*
G75*
G02*
X75165000Y-96675000I0J-150000D01*
G01*
X75165000Y-98325000D01*
G75*
G02*
X75015000Y-98475000I-150000J0D01*
G01*
X74715000Y-98475000D01*
G75*
G02*
X74565000Y-98325000I0J150000D01*
G01*
X74565000Y-96675000D01*
G75*
G02*
X74715000Y-96525000I150000J0D01*
G01*
G37*
G36*
G01*
X73445000Y-96525000D02*
X73745000Y-96525000D01*
G75*
G02*
X73895000Y-96675000I0J-150000D01*
G01*
X73895000Y-98325000D01*
G75*
G02*
X73745000Y-98475000I-150000J0D01*
G01*
X73445000Y-98475000D01*
G75*
G02*
X73295000Y-98325000I0J150000D01*
G01*
X73295000Y-96675000D01*
G75*
G02*
X73445000Y-96525000I150000J0D01*
G01*
G37*
G36*
G01*
X73445000Y-91575000D02*
X73745000Y-91575000D01*
G75*
G02*
X73895000Y-91725000I0J-150000D01*
G01*
X73895000Y-93375000D01*
G75*
G02*
X73745000Y-93525000I-150000J0D01*
G01*
X73445000Y-93525000D01*
G75*
G02*
X73295000Y-93375000I0J150000D01*
G01*
X73295000Y-91725000D01*
G75*
G02*
X73445000Y-91575000I150000J0D01*
G01*
G37*
G36*
G01*
X74715000Y-91575000D02*
X75015000Y-91575000D01*
G75*
G02*
X75165000Y-91725000I0J-150000D01*
G01*
X75165000Y-93375000D01*
G75*
G02*
X75015000Y-93525000I-150000J0D01*
G01*
X74715000Y-93525000D01*
G75*
G02*
X74565000Y-93375000I0J150000D01*
G01*
X74565000Y-91725000D01*
G75*
G02*
X74715000Y-91575000I150000J0D01*
G01*
G37*
G36*
G01*
X75985000Y-91575000D02*
X76285000Y-91575000D01*
G75*
G02*
X76435000Y-91725000I0J-150000D01*
G01*
X76435000Y-93375000D01*
G75*
G02*
X76285000Y-93525000I-150000J0D01*
G01*
X75985000Y-93525000D01*
G75*
G02*
X75835000Y-93375000I0J150000D01*
G01*
X75835000Y-91725000D01*
G75*
G02*
X75985000Y-91575000I150000J0D01*
G01*
G37*
G36*
G01*
X77255000Y-91575000D02*
X77555000Y-91575000D01*
G75*
G02*
X77705000Y-91725000I0J-150000D01*
G01*
X77705000Y-93375000D01*
G75*
G02*
X77555000Y-93525000I-150000J0D01*
G01*
X77255000Y-93525000D01*
G75*
G02*
X77105000Y-93375000I0J150000D01*
G01*
X77105000Y-91725000D01*
G75*
G02*
X77255000Y-91575000I150000J0D01*
G01*
G37*
G04 #@! TD*
G04 #@! TO.C,U12*
X90150000Y-99750000D03*
X90150000Y-101050000D03*
X88250000Y-100400000D03*
X88250000Y-101050000D03*
X88250000Y-99750000D03*
G04 #@! TD*
G04 #@! TO.C,U11*
X95000000Y-101150000D03*
X95000000Y-99850000D03*
X96900000Y-100500000D03*
X96900000Y-99850000D03*
X96900000Y-101150000D03*
G04 #@! TD*
G04 #@! TO.C,R28*
G36*
G01*
X95637500Y-97549998D02*
X95637500Y-98450002D01*
G75*
G02*
X95387502Y-98700000I-249998J0D01*
G01*
X94862498Y-98700000D01*
G75*
G02*
X94612500Y-98450002I0J249998D01*
G01*
X94612500Y-97549998D01*
G75*
G02*
X94862498Y-97300000I249998J0D01*
G01*
X95387502Y-97300000D01*
G75*
G02*
X95637500Y-97549998I0J-249998D01*
G01*
G37*
G36*
G01*
X97462500Y-97549998D02*
X97462500Y-98450002D01*
G75*
G02*
X97212502Y-98700000I-249998J0D01*
G01*
X96687498Y-98700000D01*
G75*
G02*
X96437500Y-98450002I0J249998D01*
G01*
X96437500Y-97549998D01*
G75*
G02*
X96687498Y-97300000I249998J0D01*
G01*
X97212502Y-97300000D01*
G75*
G02*
X97462500Y-97549998I0J-249998D01*
G01*
G37*
G04 #@! TD*
G04 #@! TO.C,R26*
G36*
G01*
X99937500Y-102450002D02*
X99937500Y-101549998D01*
G75*
G02*
X100187498Y-101300000I249998J0D01*
G01*
X100712502Y-101300000D01*
G75*
G02*
X100962500Y-101549998I0J-249998D01*
G01*
X100962500Y-102450002D01*
G75*
G02*
X100712502Y-102700000I-249998J0D01*
G01*
X100187498Y-102700000D01*
G75*
G02*
X99937500Y-102450002I0J249998D01*
G01*
G37*
G36*
G01*
X98112500Y-102450002D02*
X98112500Y-101549998D01*
G75*
G02*
X98362498Y-101300000I249998J0D01*
G01*
X98887502Y-101300000D01*
G75*
G02*
X99137500Y-101549998I0J-249998D01*
G01*
X99137500Y-102450002D01*
G75*
G02*
X98887502Y-102700000I-249998J0D01*
G01*
X98362498Y-102700000D01*
G75*
G02*
X98112500Y-102450002I0J249998D01*
G01*
G37*
G04 #@! TD*
G04 #@! TO.C,R24*
G36*
G01*
X99137500Y-97549998D02*
X99137500Y-98450002D01*
G75*
G02*
X98887502Y-98700000I-249998J0D01*
G01*
X98362498Y-98700000D01*
G75*
G02*
X98112500Y-98450002I0J249998D01*
G01*
X98112500Y-97549998D01*
G75*
G02*
X98362498Y-97300000I249998J0D01*
G01*
X98887502Y-97300000D01*
G75*
G02*
X99137500Y-97549998I0J-249998D01*
G01*
G37*
G36*
G01*
X100962500Y-97549998D02*
X100962500Y-98450002D01*
G75*
G02*
X100712502Y-98700000I-249998J0D01*
G01*
X100187498Y-98700000D01*
G75*
G02*
X99937500Y-98450002I0J249998D01*
G01*
X99937500Y-97549998D01*
G75*
G02*
X100187498Y-97300000I249998J0D01*
G01*
X100712502Y-97300000D01*
G75*
G02*
X100962500Y-97549998I0J-249998D01*
G01*
G37*
G04 #@! TD*
G04 #@! TO.C,R23*
G36*
G01*
X99137500Y-99549998D02*
X99137500Y-100450002D01*
G75*
G02*
X98887502Y-100700000I-249998J0D01*
G01*
X98362498Y-100700000D01*
G75*
G02*
X98112500Y-100450002I0J249998D01*
G01*
X98112500Y-99549998D01*
G75*
G02*
X98362498Y-99300000I249998J0D01*
G01*
X98887502Y-99300000D01*
G75*
G02*
X99137500Y-99549998I0J-249998D01*
G01*
G37*
G36*
G01*
X100962500Y-99549998D02*
X100962500Y-100450002D01*
G75*
G02*
X100712502Y-100700000I-249998J0D01*
G01*
X100187498Y-100700000D01*
G75*
G02*
X99937500Y-100450002I0J249998D01*
G01*
X99937500Y-99549998D01*
G75*
G02*
X100187498Y-99300000I249998J0D01*
G01*
X100712502Y-99300000D01*
G75*
G02*
X100962500Y-99549998I0J-249998D01*
G01*
G37*
G04 #@! TD*
G04 #@! TO.C,R20*
G36*
G01*
X86187500Y-103350002D02*
X86187500Y-102449998D01*
G75*
G02*
X86437498Y-102200000I249998J0D01*
G01*
X86962502Y-102200000D01*
G75*
G02*
X87212500Y-102449998I0J-249998D01*
G01*
X87212500Y-103350002D01*
G75*
G02*
X86962502Y-103600000I-249998J0D01*
G01*
X86437498Y-103600000D01*
G75*
G02*
X86187500Y-103350002I0J249998D01*
G01*
G37*
G36*
G01*
X84362500Y-103350002D02*
X84362500Y-102449998D01*
G75*
G02*
X84612498Y-102200000I249998J0D01*
G01*
X85137502Y-102200000D01*
G75*
G02*
X85387500Y-102449998I0J-249998D01*
G01*
X85387500Y-103350002D01*
G75*
G02*
X85137502Y-103600000I-249998J0D01*
G01*
X84612498Y-103600000D01*
G75*
G02*
X84362500Y-103350002I0J249998D01*
G01*
G37*
G04 #@! TD*
G04 #@! TO.C,R19*
G36*
G01*
X86187500Y-101350002D02*
X86187500Y-100449998D01*
G75*
G02*
X86437498Y-100200000I249998J0D01*
G01*
X86962502Y-100200000D01*
G75*
G02*
X87212500Y-100449998I0J-249998D01*
G01*
X87212500Y-101350002D01*
G75*
G02*
X86962502Y-101600000I-249998J0D01*
G01*
X86437498Y-101600000D01*
G75*
G02*
X86187500Y-101350002I0J249998D01*
G01*
G37*
G36*
G01*
X84362500Y-101350002D02*
X84362500Y-100449998D01*
G75*
G02*
X84612498Y-100200000I249998J0D01*
G01*
X85137502Y-100200000D01*
G75*
G02*
X85387500Y-100449998I0J-249998D01*
G01*
X85387500Y-101350002D01*
G75*
G02*
X85137502Y-101600000I-249998J0D01*
G01*
X84612498Y-101600000D01*
G75*
G02*
X84362500Y-101350002I0J249998D01*
G01*
G37*
G04 #@! TD*
G04 #@! TO.C,U5*
G36*
G01*
X108575000Y-116255000D02*
X108575000Y-116555000D01*
G75*
G02*
X108425000Y-116705000I-150000J0D01*
G01*
X106925000Y-116705000D01*
G75*
G02*
X106775000Y-116555000I0J150000D01*
G01*
X106775000Y-116255000D01*
G75*
G02*
X106925000Y-116105000I150000J0D01*
G01*
X108425000Y-116105000D01*
G75*
G02*
X108575000Y-116255000I0J-150000D01*
G01*
G37*
G36*
G01*
X108575000Y-114985000D02*
X108575000Y-115285000D01*
G75*
G02*
X108425000Y-115435000I-150000J0D01*
G01*
X106925000Y-115435000D01*
G75*
G02*
X106775000Y-115285000I0J150000D01*
G01*
X106775000Y-114985000D01*
G75*
G02*
X106925000Y-114835000I150000J0D01*
G01*
X108425000Y-114835000D01*
G75*
G02*
X108575000Y-114985000I0J-150000D01*
G01*
G37*
G36*
G01*
X108575000Y-113715000D02*
X108575000Y-114015000D01*
G75*
G02*
X108425000Y-114165000I-150000J0D01*
G01*
X106925000Y-114165000D01*
G75*
G02*
X106775000Y-114015000I0J150000D01*
G01*
X106775000Y-113715000D01*
G75*
G02*
X106925000Y-113565000I150000J0D01*
G01*
X108425000Y-113565000D01*
G75*
G02*
X108575000Y-113715000I0J-150000D01*
G01*
G37*
G36*
G01*
X108575000Y-112445000D02*
X108575000Y-112745000D01*
G75*
G02*
X108425000Y-112895000I-150000J0D01*
G01*
X106925000Y-112895000D01*
G75*
G02*
X106775000Y-112745000I0J150000D01*
G01*
X106775000Y-112445000D01*
G75*
G02*
X106925000Y-112295000I150000J0D01*
G01*
X108425000Y-112295000D01*
G75*
G02*
X108575000Y-112445000I0J-150000D01*
G01*
G37*
G36*
G01*
X119225000Y-112445000D02*
X119225000Y-112745000D01*
G75*
G02*
X119075000Y-112895000I-150000J0D01*
G01*
X117575000Y-112895000D01*
G75*
G02*
X117425000Y-112745000I0J150000D01*
G01*
X117425000Y-112445000D01*
G75*
G02*
X117575000Y-112295000I150000J0D01*
G01*
X119075000Y-112295000D01*
G75*
G02*
X119225000Y-112445000I0J-150000D01*
G01*
G37*
G36*
G01*
X119225000Y-113715000D02*
X119225000Y-114015000D01*
G75*
G02*
X119075000Y-114165000I-150000J0D01*
G01*
X117575000Y-114165000D01*
G75*
G02*
X117425000Y-114015000I0J150000D01*
G01*
X117425000Y-113715000D01*
G75*
G02*
X117575000Y-113565000I150000J0D01*
G01*
X119075000Y-113565000D01*
G75*
G02*
X119225000Y-113715000I0J-150000D01*
G01*
G37*
G36*
G01*
X119225000Y-114985000D02*
X119225000Y-115285000D01*
G75*
G02*
X119075000Y-115435000I-150000J0D01*
G01*
X117575000Y-115435000D01*
G75*
G02*
X117425000Y-115285000I0J150000D01*
G01*
X117425000Y-114985000D01*
G75*
G02*
X117575000Y-114835000I150000J0D01*
G01*
X119075000Y-114835000D01*
G75*
G02*
X119225000Y-114985000I0J-150000D01*
G01*
G37*
G36*
G01*
X119225000Y-116255000D02*
X119225000Y-116555000D01*
G75*
G02*
X119075000Y-116705000I-150000J0D01*
G01*
X117575000Y-116705000D01*
G75*
G02*
X117425000Y-116555000I0J150000D01*
G01*
X117425000Y-116255000D01*
G75*
G02*
X117575000Y-116105000I150000J0D01*
G01*
X119075000Y-116105000D01*
G75*
G02*
X119225000Y-116255000I0J-150000D01*
G01*
G37*
G04 #@! TD*
G04 #@! TO.C,U10*
X82400000Y-115180000D03*
X82400000Y-116480000D03*
X80500000Y-115830000D03*
X80500000Y-116480000D03*
X80500000Y-115180000D03*
G04 #@! TD*
G04 #@! TO.C,U9*
X82450000Y-105580000D03*
X82450000Y-106880000D03*
X80550000Y-106230000D03*
X80550000Y-106880000D03*
X80550000Y-105580000D03*
G04 #@! TD*
G04 #@! TO.C,U8*
X99625000Y-115950000D03*
X99625000Y-114650000D03*
X101525000Y-115300000D03*
X101525000Y-114650000D03*
X101525000Y-115950000D03*
G04 #@! TD*
G04 #@! TO.C,R18*
G36*
G01*
X81962500Y-118680002D02*
X81962500Y-117779998D01*
G75*
G02*
X82212498Y-117530000I249998J0D01*
G01*
X82737502Y-117530000D01*
G75*
G02*
X82987500Y-117779998I0J-249998D01*
G01*
X82987500Y-118680002D01*
G75*
G02*
X82737502Y-118930000I-249998J0D01*
G01*
X82212498Y-118930000D01*
G75*
G02*
X81962500Y-118680002I0J249998D01*
G01*
G37*
G36*
G01*
X80137500Y-118680002D02*
X80137500Y-117779998D01*
G75*
G02*
X80387498Y-117530000I249998J0D01*
G01*
X80912502Y-117530000D01*
G75*
G02*
X81162500Y-117779998I0J-249998D01*
G01*
X81162500Y-118680002D01*
G75*
G02*
X80912502Y-118930000I-249998J0D01*
G01*
X80387498Y-118930000D01*
G75*
G02*
X80137500Y-118680002I0J249998D01*
G01*
G37*
G04 #@! TD*
G04 #@! TO.C,R17*
G36*
G01*
X81900000Y-109180002D02*
X81900000Y-108279998D01*
G75*
G02*
X82149998Y-108030000I249998J0D01*
G01*
X82675002Y-108030000D01*
G75*
G02*
X82925000Y-108279998I0J-249998D01*
G01*
X82925000Y-109180002D01*
G75*
G02*
X82675002Y-109430000I-249998J0D01*
G01*
X82149998Y-109430000D01*
G75*
G02*
X81900000Y-109180002I0J249998D01*
G01*
G37*
G36*
G01*
X80075000Y-109180002D02*
X80075000Y-108279998D01*
G75*
G02*
X80324998Y-108030000I249998J0D01*
G01*
X80850002Y-108030000D01*
G75*
G02*
X81100000Y-108279998I0J-249998D01*
G01*
X81100000Y-109180002D01*
G75*
G02*
X80850002Y-109430000I-249998J0D01*
G01*
X80324998Y-109430000D01*
G75*
G02*
X80075000Y-109180002I0J249998D01*
G01*
G37*
G04 #@! TD*
G04 #@! TO.C,R16*
G36*
G01*
X100175000Y-112349998D02*
X100175000Y-113250002D01*
G75*
G02*
X99925002Y-113500000I-249998J0D01*
G01*
X99399998Y-113500000D01*
G75*
G02*
X99150000Y-113250002I0J249998D01*
G01*
X99150000Y-112349998D01*
G75*
G02*
X99399998Y-112100000I249998J0D01*
G01*
X99925002Y-112100000D01*
G75*
G02*
X100175000Y-112349998I0J-249998D01*
G01*
G37*
G36*
G01*
X102000000Y-112349998D02*
X102000000Y-113250002D01*
G75*
G02*
X101750002Y-113500000I-249998J0D01*
G01*
X101224998Y-113500000D01*
G75*
G02*
X100975000Y-113250002I0J249998D01*
G01*
X100975000Y-112349998D01*
G75*
G02*
X101224998Y-112100000I249998J0D01*
G01*
X101750002Y-112100000D01*
G75*
G02*
X102000000Y-112349998I0J-249998D01*
G01*
G37*
G04 #@! TD*
G04 #@! TO.C,R15*
G36*
G01*
X81137500Y-112774998D02*
X81137500Y-113675002D01*
G75*
G02*
X80887502Y-113925000I-249998J0D01*
G01*
X80362498Y-113925000D01*
G75*
G02*
X80112500Y-113675002I0J249998D01*
G01*
X80112500Y-112774998D01*
G75*
G02*
X80362498Y-112525000I249998J0D01*
G01*
X80887502Y-112525000D01*
G75*
G02*
X81137500Y-112774998I0J-249998D01*
G01*
G37*
G36*
G01*
X82962500Y-112774998D02*
X82962500Y-113675002D01*
G75*
G02*
X82712502Y-113925000I-249998J0D01*
G01*
X82187498Y-113925000D01*
G75*
G02*
X81937500Y-113675002I0J249998D01*
G01*
X81937500Y-112774998D01*
G75*
G02*
X82187498Y-112525000I249998J0D01*
G01*
X82712502Y-112525000D01*
G75*
G02*
X82962500Y-112774998I0J-249998D01*
G01*
G37*
G04 #@! TD*
G04 #@! TO.C,R14*
G36*
G01*
X79987500Y-103450002D02*
X79987500Y-102549998D01*
G75*
G02*
X80237498Y-102300000I249998J0D01*
G01*
X80762502Y-102300000D01*
G75*
G02*
X81012500Y-102549998I0J-249998D01*
G01*
X81012500Y-103450002D01*
G75*
G02*
X80762502Y-103700000I-249998J0D01*
G01*
X80237498Y-103700000D01*
G75*
G02*
X79987500Y-103450002I0J249998D01*
G01*
G37*
G36*
G01*
X78162500Y-103450002D02*
X78162500Y-102549998D01*
G75*
G02*
X78412498Y-102300000I249998J0D01*
G01*
X78937502Y-102300000D01*
G75*
G02*
X79187500Y-102549998I0J-249998D01*
G01*
X79187500Y-103450002D01*
G75*
G02*
X78937502Y-103700000I-249998J0D01*
G01*
X78412498Y-103700000D01*
G75*
G02*
X78162500Y-103450002I0J249998D01*
G01*
G37*
G04 #@! TD*
G04 #@! TO.C,R13*
G36*
G01*
X101950002Y-117687500D02*
X101049998Y-117687500D01*
G75*
G02*
X100800000Y-117437502I0J249998D01*
G01*
X100800000Y-116912498D01*
G75*
G02*
X101049998Y-116662500I249998J0D01*
G01*
X101950002Y-116662500D01*
G75*
G02*
X102200000Y-116912498I0J-249998D01*
G01*
X102200000Y-117437502D01*
G75*
G02*
X101950002Y-117687500I-249998J0D01*
G01*
G37*
G36*
G01*
X101950002Y-119512500D02*
X101049998Y-119512500D01*
G75*
G02*
X100800000Y-119262502I0J249998D01*
G01*
X100800000Y-118737498D01*
G75*
G02*
X101049998Y-118487500I249998J0D01*
G01*
X101950002Y-118487500D01*
G75*
G02*
X102200000Y-118737498I0J-249998D01*
G01*
X102200000Y-119262502D01*
G75*
G02*
X101950002Y-119512500I-249998J0D01*
G01*
G37*
G04 #@! TD*
G04 #@! TO.C,R12*
G36*
G01*
X78350000Y-117280002D02*
X78350000Y-116379998D01*
G75*
G02*
X78599998Y-116130000I249998J0D01*
G01*
X79125002Y-116130000D01*
G75*
G02*
X79375000Y-116379998I0J-249998D01*
G01*
X79375000Y-117280002D01*
G75*
G02*
X79125002Y-117530000I-249998J0D01*
G01*
X78599998Y-117530000D01*
G75*
G02*
X78350000Y-117280002I0J249998D01*
G01*
G37*
G36*
G01*
X76525000Y-117280002D02*
X76525000Y-116379998D01*
G75*
G02*
X76774998Y-116130000I249998J0D01*
G01*
X77300002Y-116130000D01*
G75*
G02*
X77550000Y-116379998I0J-249998D01*
G01*
X77550000Y-117280002D01*
G75*
G02*
X77300002Y-117530000I-249998J0D01*
G01*
X76774998Y-117530000D01*
G75*
G02*
X76525000Y-117280002I0J249998D01*
G01*
G37*
G04 #@! TD*
G04 #@! TO.C,R11*
G36*
G01*
X78362500Y-115280002D02*
X78362500Y-114379998D01*
G75*
G02*
X78612498Y-114130000I249998J0D01*
G01*
X79137502Y-114130000D01*
G75*
G02*
X79387500Y-114379998I0J-249998D01*
G01*
X79387500Y-115280002D01*
G75*
G02*
X79137502Y-115530000I-249998J0D01*
G01*
X78612498Y-115530000D01*
G75*
G02*
X78362500Y-115280002I0J249998D01*
G01*
G37*
G36*
G01*
X76537500Y-115280002D02*
X76537500Y-114379998D01*
G75*
G02*
X76787498Y-114130000I249998J0D01*
G01*
X77312502Y-114130000D01*
G75*
G02*
X77562500Y-114379998I0J-249998D01*
G01*
X77562500Y-115280002D01*
G75*
G02*
X77312502Y-115530000I-249998J0D01*
G01*
X76787498Y-115530000D01*
G75*
G02*
X76537500Y-115280002I0J249998D01*
G01*
G37*
G04 #@! TD*
G04 #@! TO.C,R10*
G36*
G01*
X78312500Y-107680002D02*
X78312500Y-106779998D01*
G75*
G02*
X78562498Y-106530000I249998J0D01*
G01*
X79087502Y-106530000D01*
G75*
G02*
X79337500Y-106779998I0J-249998D01*
G01*
X79337500Y-107680002D01*
G75*
G02*
X79087502Y-107930000I-249998J0D01*
G01*
X78562498Y-107930000D01*
G75*
G02*
X78312500Y-107680002I0J249998D01*
G01*
G37*
G36*
G01*
X76487500Y-107680002D02*
X76487500Y-106779998D01*
G75*
G02*
X76737498Y-106530000I249998J0D01*
G01*
X77262502Y-106530000D01*
G75*
G02*
X77512500Y-106779998I0J-249998D01*
G01*
X77512500Y-107680002D01*
G75*
G02*
X77262502Y-107930000I-249998J0D01*
G01*
X76737498Y-107930000D01*
G75*
G02*
X76487500Y-107680002I0J249998D01*
G01*
G37*
G04 #@! TD*
G04 #@! TO.C,R9*
G36*
G01*
X78312500Y-105680002D02*
X78312500Y-104779998D01*
G75*
G02*
X78562498Y-104530000I249998J0D01*
G01*
X79087502Y-104530000D01*
G75*
G02*
X79337500Y-104779998I0J-249998D01*
G01*
X79337500Y-105680002D01*
G75*
G02*
X79087502Y-105930000I-249998J0D01*
G01*
X78562498Y-105930000D01*
G75*
G02*
X78312500Y-105680002I0J249998D01*
G01*
G37*
G36*
G01*
X76487500Y-105680002D02*
X76487500Y-104779998D01*
G75*
G02*
X76737498Y-104530000I249998J0D01*
G01*
X77262502Y-104530000D01*
G75*
G02*
X77512500Y-104779998I0J-249998D01*
G01*
X77512500Y-105680002D01*
G75*
G02*
X77262502Y-105930000I-249998J0D01*
G01*
X76737498Y-105930000D01*
G75*
G02*
X76487500Y-105680002I0J249998D01*
G01*
G37*
G04 #@! TD*
G04 #@! TO.C,R8*
G36*
G01*
X104262500Y-113944997D02*
X104262500Y-114845001D01*
G75*
G02*
X104012502Y-115094999I-249998J0D01*
G01*
X103487498Y-115094999D01*
G75*
G02*
X103237500Y-114845001I0J249998D01*
G01*
X103237500Y-113944997D01*
G75*
G02*
X103487498Y-113694999I249998J0D01*
G01*
X104012502Y-113694999D01*
G75*
G02*
X104262500Y-113944997I0J-249998D01*
G01*
G37*
G36*
G01*
X106087500Y-113944997D02*
X106087500Y-114845001D01*
G75*
G02*
X105837502Y-115094999I-249998J0D01*
G01*
X105312498Y-115094999D01*
G75*
G02*
X105062500Y-114845001I0J249998D01*
G01*
X105062500Y-113944997D01*
G75*
G02*
X105312498Y-113694999I249998J0D01*
G01*
X105837502Y-113694999D01*
G75*
G02*
X106087500Y-113944997I0J-249998D01*
G01*
G37*
G04 #@! TD*
G04 #@! TO.C,R7*
G36*
G01*
X104262500Y-115849998D02*
X104262500Y-116750002D01*
G75*
G02*
X104012502Y-117000000I-249998J0D01*
G01*
X103487498Y-117000000D01*
G75*
G02*
X103237500Y-116750002I0J249998D01*
G01*
X103237500Y-115849998D01*
G75*
G02*
X103487498Y-115600000I249998J0D01*
G01*
X104012502Y-115600000D01*
G75*
G02*
X104262500Y-115849998I0J-249998D01*
G01*
G37*
G36*
G01*
X106087500Y-115849998D02*
X106087500Y-116750002D01*
G75*
G02*
X105837502Y-117000000I-249998J0D01*
G01*
X105312498Y-117000000D01*
G75*
G02*
X105062500Y-116750002I0J249998D01*
G01*
X105062500Y-115849998D01*
G75*
G02*
X105312498Y-115600000I249998J0D01*
G01*
X105837502Y-115600000D01*
G75*
G02*
X106087500Y-115849998I0J-249998D01*
G01*
G37*
G04 #@! TD*
G04 #@! TO.C,C37*
G36*
G01*
X106300000Y-118125000D02*
X106300000Y-119075000D01*
G75*
G02*
X106050000Y-119325000I-250000J0D01*
G01*
X105550000Y-119325000D01*
G75*
G02*
X105300000Y-119075000I0J250000D01*
G01*
X105300000Y-118125000D01*
G75*
G02*
X105550000Y-117875000I250000J0D01*
G01*
X106050000Y-117875000D01*
G75*
G02*
X106300000Y-118125000I0J-250000D01*
G01*
G37*
G36*
G01*
X108200000Y-118125000D02*
X108200000Y-119075000D01*
G75*
G02*
X107950000Y-119325000I-250000J0D01*
G01*
X107450000Y-119325000D01*
G75*
G02*
X107200000Y-119075000I0J250000D01*
G01*
X107200000Y-118125000D01*
G75*
G02*
X107450000Y-117875000I250000J0D01*
G01*
X107950000Y-117875000D01*
G75*
G02*
X108200000Y-118125000I0J-250000D01*
G01*
G37*
G04 #@! TD*
G04 #@! TO.C,C36*
G36*
G01*
X76950000Y-111075000D02*
X76950000Y-110125000D01*
G75*
G02*
X77200000Y-109875000I250000J0D01*
G01*
X77700000Y-109875000D01*
G75*
G02*
X77950000Y-110125000I0J-250000D01*
G01*
X77950000Y-111075000D01*
G75*
G02*
X77700000Y-111325000I-250000J0D01*
G01*
X77200000Y-111325000D01*
G75*
G02*
X76950000Y-111075000I0J250000D01*
G01*
G37*
G36*
G01*
X75050000Y-111075000D02*
X75050000Y-110125000D01*
G75*
G02*
X75300000Y-109875000I250000J0D01*
G01*
X75800000Y-109875000D01*
G75*
G02*
X76050000Y-110125000I0J-250000D01*
G01*
X76050000Y-111075000D01*
G75*
G02*
X75800000Y-111325000I-250000J0D01*
G01*
X75300000Y-111325000D01*
G75*
G02*
X75050000Y-111075000I0J250000D01*
G01*
G37*
G04 #@! TD*
G04 #@! TO.C,C35*
G36*
G01*
X75525000Y-102850000D02*
X76475000Y-102850000D01*
G75*
G02*
X76725000Y-103100000I0J-250000D01*
G01*
X76725000Y-103600000D01*
G75*
G02*
X76475000Y-103850000I-250000J0D01*
G01*
X75525000Y-103850000D01*
G75*
G02*
X75275000Y-103600000I0J250000D01*
G01*
X75275000Y-103100000D01*
G75*
G02*
X75525000Y-102850000I250000J0D01*
G01*
G37*
G36*
G01*
X75525000Y-100950000D02*
X76475000Y-100950000D01*
G75*
G02*
X76725000Y-101200000I0J-250000D01*
G01*
X76725000Y-101700000D01*
G75*
G02*
X76475000Y-101950000I-250000J0D01*
G01*
X75525000Y-101950000D01*
G75*
G02*
X75275000Y-101700000I0J250000D01*
G01*
X75275000Y-101200000D01*
G75*
G02*
X75525000Y-100950000I250000J0D01*
G01*
G37*
G04 #@! TD*
G04 #@! TO.C,C29*
G36*
G01*
X60350000Y-110125000D02*
X60350000Y-111075000D01*
G75*
G02*
X60100000Y-111325000I-250000J0D01*
G01*
X59600000Y-111325000D01*
G75*
G02*
X59350000Y-111075000I0J250000D01*
G01*
X59350000Y-110125000D01*
G75*
G02*
X59600000Y-109875000I250000J0D01*
G01*
X60100000Y-109875000D01*
G75*
G02*
X60350000Y-110125000I0J-250000D01*
G01*
G37*
G36*
G01*
X62250000Y-110125000D02*
X62250000Y-111075000D01*
G75*
G02*
X62000000Y-111325000I-250000J0D01*
G01*
X61500000Y-111325000D01*
G75*
G02*
X61250000Y-111075000I0J250000D01*
G01*
X61250000Y-110125000D01*
G75*
G02*
X61500000Y-109875000I250000J0D01*
G01*
X62000000Y-109875000D01*
G75*
G02*
X62250000Y-110125000I0J-250000D01*
G01*
G37*
G04 #@! TD*
G04 #@! TO.C,C28*
G36*
G01*
X64525000Y-98000000D02*
X63575000Y-98000000D01*
G75*
G02*
X63325000Y-97750000I0J250000D01*
G01*
X63325000Y-97250000D01*
G75*
G02*
X63575000Y-97000000I250000J0D01*
G01*
X64525000Y-97000000D01*
G75*
G02*
X64775000Y-97250000I0J-250000D01*
G01*
X64775000Y-97750000D01*
G75*
G02*
X64525000Y-98000000I-250000J0D01*
G01*
G37*
G36*
G01*
X64525000Y-99900000D02*
X63575000Y-99900000D01*
G75*
G02*
X63325000Y-99650000I0J250000D01*
G01*
X63325000Y-99150000D01*
G75*
G02*
X63575000Y-98900000I250000J0D01*
G01*
X64525000Y-98900000D01*
G75*
G02*
X64775000Y-99150000I0J-250000D01*
G01*
X64775000Y-99650000D01*
G75*
G02*
X64525000Y-99900000I-250000J0D01*
G01*
G37*
G04 #@! TD*
G04 #@! TO.C,C27*
G36*
G01*
X117825000Y-119400000D02*
X118775000Y-119400000D01*
G75*
G02*
X119025000Y-119650000I0J-250000D01*
G01*
X119025000Y-120150000D01*
G75*
G02*
X118775000Y-120400000I-250000J0D01*
G01*
X117825000Y-120400000D01*
G75*
G02*
X117575000Y-120150000I0J250000D01*
G01*
X117575000Y-119650000D01*
G75*
G02*
X117825000Y-119400000I250000J0D01*
G01*
G37*
G36*
G01*
X117825000Y-117500000D02*
X118775000Y-117500000D01*
G75*
G02*
X119025000Y-117750000I0J-250000D01*
G01*
X119025000Y-118250000D01*
G75*
G02*
X118775000Y-118500000I-250000J0D01*
G01*
X117825000Y-118500000D01*
G75*
G02*
X117575000Y-118250000I0J250000D01*
G01*
X117575000Y-117750000D01*
G75*
G02*
X117825000Y-117500000I250000J0D01*
G01*
G37*
G04 #@! TD*
G04 #@! TO.C,JP6*
G36*
G01*
X60990000Y-52135000D02*
X58090000Y-52135000D01*
G75*
G02*
X57840000Y-51885000I0J250000D01*
G01*
X57840000Y-51385000D01*
G75*
G02*
X58090000Y-51135000I250000J0D01*
G01*
X60990000Y-51135000D01*
G75*
G02*
X61240000Y-51385000I0J-250000D01*
G01*
X61240000Y-51885000D01*
G75*
G02*
X60990000Y-52135000I-250000J0D01*
G01*
G37*
G36*
G01*
X60990000Y-53635000D02*
X58090000Y-53635000D01*
G75*
G02*
X57840000Y-53385000I0J250000D01*
G01*
X57840000Y-52885000D01*
G75*
G02*
X58090000Y-52635000I250000J0D01*
G01*
X60990000Y-52635000D01*
G75*
G02*
X61240000Y-52885000I0J-250000D01*
G01*
X61240000Y-53385000D01*
G75*
G02*
X60990000Y-53635000I-250000J0D01*
G01*
G37*
G04 #@! TD*
G04 #@! TO.C,JP5*
G36*
G01*
X74990000Y-52135000D02*
X72090000Y-52135000D01*
G75*
G02*
X71840000Y-51885000I0J250000D01*
G01*
X71840000Y-51385000D01*
G75*
G02*
X72090000Y-51135000I250000J0D01*
G01*
X74990000Y-51135000D01*
G75*
G02*
X75240000Y-51385000I0J-250000D01*
G01*
X75240000Y-51885000D01*
G75*
G02*
X74990000Y-52135000I-250000J0D01*
G01*
G37*
G36*
G01*
X74990000Y-53635000D02*
X72090000Y-53635000D01*
G75*
G02*
X71840000Y-53385000I0J250000D01*
G01*
X71840000Y-52885000D01*
G75*
G02*
X72090000Y-52635000I250000J0D01*
G01*
X74990000Y-52635000D01*
G75*
G02*
X75240000Y-52885000I0J-250000D01*
G01*
X75240000Y-53385000D01*
G75*
G02*
X74990000Y-53635000I-250000J0D01*
G01*
G37*
G04 #@! TD*
G04 #@! TO.C,JP4*
G36*
G01*
X134000000Y-70200000D02*
X134000000Y-67300000D01*
G75*
G02*
X134250000Y-67050000I250000J0D01*
G01*
X134750000Y-67050000D01*
G75*
G02*
X135000000Y-67300000I0J-250000D01*
G01*
X135000000Y-70200000D01*
G75*
G02*
X134750000Y-70450000I-250000J0D01*
G01*
X134250000Y-70450000D01*
G75*
G02*
X134000000Y-70200000I0J250000D01*
G01*
G37*
G36*
G01*
X132500000Y-70200000D02*
X132500000Y-67300000D01*
G75*
G02*
X132750000Y-67050000I250000J0D01*
G01*
X133250000Y-67050000D01*
G75*
G02*
X133500000Y-67300000I0J-250000D01*
G01*
X133500000Y-70200000D01*
G75*
G02*
X133250000Y-70450000I-250000J0D01*
G01*
X132750000Y-70450000D01*
G75*
G02*
X132500000Y-70200000I0J250000D01*
G01*
G37*
G04 #@! TD*
G04 #@! TO.C,JP3*
G36*
G01*
X55290000Y-72185000D02*
X55290000Y-75085000D01*
G75*
G02*
X55040000Y-75335000I-250000J0D01*
G01*
X54540000Y-75335000D01*
G75*
G02*
X54290000Y-75085000I0J250000D01*
G01*
X54290000Y-72185000D01*
G75*
G02*
X54540000Y-71935000I250000J0D01*
G01*
X55040000Y-71935000D01*
G75*
G02*
X55290000Y-72185000I0J-250000D01*
G01*
G37*
G36*
G01*
X56790000Y-72185000D02*
X56790000Y-75085000D01*
G75*
G02*
X56540000Y-75335000I-250000J0D01*
G01*
X56040000Y-75335000D01*
G75*
G02*
X55790000Y-75085000I0J250000D01*
G01*
X55790000Y-72185000D01*
G75*
G02*
X56040000Y-71935000I250000J0D01*
G01*
X56540000Y-71935000D01*
G75*
G02*
X56790000Y-72185000I0J-250000D01*
G01*
G37*
G04 #@! TD*
G04 #@! TO.C,JP2*
G36*
G01*
X115950000Y-52000000D02*
X113050000Y-52000000D01*
G75*
G02*
X112800000Y-51750000I0J250000D01*
G01*
X112800000Y-51250000D01*
G75*
G02*
X113050000Y-51000000I250000J0D01*
G01*
X115950000Y-51000000D01*
G75*
G02*
X116200000Y-51250000I0J-250000D01*
G01*
X116200000Y-51750000D01*
G75*
G02*
X115950000Y-52000000I-250000J0D01*
G01*
G37*
G36*
G01*
X115950000Y-53500000D02*
X113050000Y-53500000D01*
G75*
G02*
X112800000Y-53250000I0J250000D01*
G01*
X112800000Y-52750000D01*
G75*
G02*
X113050000Y-52500000I250000J0D01*
G01*
X115950000Y-52500000D01*
G75*
G02*
X116200000Y-52750000I0J-250000D01*
G01*
X116200000Y-53250000D01*
G75*
G02*
X115950000Y-53500000I-250000J0D01*
G01*
G37*
G04 #@! TD*
G04 #@! TO.C,JP1*
G36*
G01*
X55540000Y-54685000D02*
X55540000Y-57585000D01*
G75*
G02*
X55290000Y-57835000I-250000J0D01*
G01*
X54790000Y-57835000D01*
G75*
G02*
X54540000Y-57585000I0J250000D01*
G01*
X54540000Y-54685000D01*
G75*
G02*
X54790000Y-54435000I250000J0D01*
G01*
X55290000Y-54435000D01*
G75*
G02*
X55540000Y-54685000I0J-250000D01*
G01*
G37*
G36*
G01*
X57040000Y-54685000D02*
X57040000Y-57585000D01*
G75*
G02*
X56790000Y-57835000I-250000J0D01*
G01*
X56290000Y-57835000D01*
G75*
G02*
X56040000Y-57585000I0J250000D01*
G01*
X56040000Y-54685000D01*
G75*
G02*
X56290000Y-54435000I250000J0D01*
G01*
X56790000Y-54435000D01*
G75*
G02*
X57040000Y-54685000I0J-250000D01*
G01*
G37*
G04 #@! TD*
G04 #@! TO.C,R31*
G36*
G01*
X114450002Y-64400000D02*
X113549998Y-64400000D01*
G75*
G02*
X113300000Y-64150002I0J249998D01*
G01*
X113300000Y-63624998D01*
G75*
G02*
X113549998Y-63375000I249998J0D01*
G01*
X114450002Y-63375000D01*
G75*
G02*
X114700000Y-63624998I0J-249998D01*
G01*
X114700000Y-64150002D01*
G75*
G02*
X114450002Y-64400000I-249998J0D01*
G01*
G37*
G36*
G01*
X114450002Y-66225000D02*
X113549998Y-66225000D01*
G75*
G02*
X113300000Y-65975002I0J249998D01*
G01*
X113300000Y-65449998D01*
G75*
G02*
X113549998Y-65200000I249998J0D01*
G01*
X114450002Y-65200000D01*
G75*
G02*
X114700000Y-65449998I0J-249998D01*
G01*
X114700000Y-65975002D01*
G75*
G02*
X114450002Y-66225000I-249998J0D01*
G01*
G37*
G04 #@! TD*
G04 #@! TO.C,C1*
G36*
G01*
X74450000Y-100075000D02*
X74450000Y-99125000D01*
G75*
G02*
X74700000Y-98875000I250000J0D01*
G01*
X75200000Y-98875000D01*
G75*
G02*
X75450000Y-99125000I0J-250000D01*
G01*
X75450000Y-100075000D01*
G75*
G02*
X75200000Y-100325000I-250000J0D01*
G01*
X74700000Y-100325000D01*
G75*
G02*
X74450000Y-100075000I0J250000D01*
G01*
G37*
G36*
G01*
X72550000Y-100075000D02*
X72550000Y-99125000D01*
G75*
G02*
X72800000Y-98875000I250000J0D01*
G01*
X73300000Y-98875000D01*
G75*
G02*
X73550000Y-99125000I0J-250000D01*
G01*
X73550000Y-100075000D01*
G75*
G02*
X73300000Y-100325000I-250000J0D01*
G01*
X72800000Y-100325000D01*
G75*
G02*
X72550000Y-100075000I0J250000D01*
G01*
G37*
G04 #@! TD*
G04 #@! TO.C,C2*
G36*
G01*
X79475000Y-98050000D02*
X78525000Y-98050000D01*
G75*
G02*
X78275000Y-97800000I0J250000D01*
G01*
X78275000Y-97300000D01*
G75*
G02*
X78525000Y-97050000I250000J0D01*
G01*
X79475000Y-97050000D01*
G75*
G02*
X79725000Y-97300000I0J-250000D01*
G01*
X79725000Y-97800000D01*
G75*
G02*
X79475000Y-98050000I-250000J0D01*
G01*
G37*
G36*
G01*
X79475000Y-99950000D02*
X78525000Y-99950000D01*
G75*
G02*
X78275000Y-99700000I0J250000D01*
G01*
X78275000Y-99200000D01*
G75*
G02*
X78525000Y-98950000I250000J0D01*
G01*
X79475000Y-98950000D01*
G75*
G02*
X79725000Y-99200000I0J-250000D01*
G01*
X79725000Y-99700000D01*
G75*
G02*
X79475000Y-99950000I-250000J0D01*
G01*
G37*
G04 #@! TD*
G04 #@! TO.C,C11*
G36*
G01*
X120100001Y-51625000D02*
X117899999Y-51625000D01*
G75*
G02*
X117650000Y-51375001I0J249999D01*
G01*
X117650000Y-50724999D01*
G75*
G02*
X117899999Y-50475000I249999J0D01*
G01*
X120100001Y-50475000D01*
G75*
G02*
X120350000Y-50724999I0J-249999D01*
G01*
X120350000Y-51375001D01*
G75*
G02*
X120100001Y-51625000I-249999J0D01*
G01*
G37*
G36*
G01*
X120100001Y-54575000D02*
X117899999Y-54575000D01*
G75*
G02*
X117650000Y-54325001I0J249999D01*
G01*
X117650000Y-53674999D01*
G75*
G02*
X117899999Y-53425000I249999J0D01*
G01*
X120100001Y-53425000D01*
G75*
G02*
X120350000Y-53674999I0J-249999D01*
G01*
X120350000Y-54325001D01*
G75*
G02*
X120100001Y-54575000I-249999J0D01*
G01*
G37*
G04 #@! TD*
G04 #@! TO.C,C12*
G36*
G01*
X66250001Y-51625000D02*
X64049999Y-51625000D01*
G75*
G02*
X63800000Y-51375001I0J249999D01*
G01*
X63800000Y-50724999D01*
G75*
G02*
X64049999Y-50475000I249999J0D01*
G01*
X66250001Y-50475000D01*
G75*
G02*
X66500000Y-50724999I0J-249999D01*
G01*
X66500000Y-51375001D01*
G75*
G02*
X66250001Y-51625000I-249999J0D01*
G01*
G37*
G36*
G01*
X66250001Y-54575000D02*
X64049999Y-54575000D01*
G75*
G02*
X63800000Y-54325001I0J249999D01*
G01*
X63800000Y-53674999D01*
G75*
G02*
X64049999Y-53425000I249999J0D01*
G01*
X66250001Y-53425000D01*
G75*
G02*
X66500000Y-53674999I0J-249999D01*
G01*
X66500000Y-54325001D01*
G75*
G02*
X66250001Y-54575000I-249999J0D01*
G01*
G37*
G04 #@! TD*
G04 #@! TO.C,C13*
G36*
G01*
X126660000Y-90600001D02*
X126660000Y-88399999D01*
G75*
G02*
X126909999Y-88150000I249999J0D01*
G01*
X127560001Y-88150000D01*
G75*
G02*
X127810000Y-88399999I0J-249999D01*
G01*
X127810000Y-90600001D01*
G75*
G02*
X127560001Y-90850000I-249999J0D01*
G01*
X126909999Y-90850000D01*
G75*
G02*
X126660000Y-90600001I0J249999D01*
G01*
G37*
G36*
G01*
X123710000Y-90600001D02*
X123710000Y-88399999D01*
G75*
G02*
X123959999Y-88150000I249999J0D01*
G01*
X124610001Y-88150000D01*
G75*
G02*
X124860000Y-88399999I0J-249999D01*
G01*
X124860000Y-90600001D01*
G75*
G02*
X124610001Y-90850000I-249999J0D01*
G01*
X123959999Y-90850000D01*
G75*
G02*
X123710000Y-90600001I0J249999D01*
G01*
G37*
G04 #@! TD*
G04 #@! TO.C,C22*
G36*
G01*
X106700000Y-100475000D02*
X106700000Y-99525000D01*
G75*
G02*
X106950000Y-99275000I250000J0D01*
G01*
X107450000Y-99275000D01*
G75*
G02*
X107700000Y-99525000I0J-250000D01*
G01*
X107700000Y-100475000D01*
G75*
G02*
X107450000Y-100725000I-250000J0D01*
G01*
X106950000Y-100725000D01*
G75*
G02*
X106700000Y-100475000I0J250000D01*
G01*
G37*
G36*
G01*
X104800000Y-100475000D02*
X104800000Y-99525000D01*
G75*
G02*
X105050000Y-99275000I250000J0D01*
G01*
X105550000Y-99275000D01*
G75*
G02*
X105800000Y-99525000I0J-250000D01*
G01*
X105800000Y-100475000D01*
G75*
G02*
X105550000Y-100725000I-250000J0D01*
G01*
X105050000Y-100725000D01*
G75*
G02*
X104800000Y-100475000I0J250000D01*
G01*
G37*
G04 #@! TD*
G04 #@! TO.C,C24*
G36*
G01*
X110200000Y-99725000D02*
X110200000Y-100675000D01*
G75*
G02*
X109950000Y-100925000I-250000J0D01*
G01*
X109450000Y-100925000D01*
G75*
G02*
X109200000Y-100675000I0J250000D01*
G01*
X109200000Y-99725000D01*
G75*
G02*
X109450000Y-99475000I250000J0D01*
G01*
X109950000Y-99475000D01*
G75*
G02*
X110200000Y-99725000I0J-250000D01*
G01*
G37*
G36*
G01*
X112100000Y-99725000D02*
X112100000Y-100675000D01*
G75*
G02*
X111850000Y-100925000I-250000J0D01*
G01*
X111350000Y-100925000D01*
G75*
G02*
X111100000Y-100675000I0J250000D01*
G01*
X111100000Y-99725000D01*
G75*
G02*
X111350000Y-99475000I250000J0D01*
G01*
X111850000Y-99475000D01*
G75*
G02*
X112100000Y-99725000I0J-250000D01*
G01*
G37*
G04 #@! TD*
G04 #@! TO.C,Cs1*
G36*
G01*
X119025000Y-62400000D02*
X119975000Y-62400000D01*
G75*
G02*
X120225000Y-62650000I0J-250000D01*
G01*
X120225000Y-63150000D01*
G75*
G02*
X119975000Y-63400000I-250000J0D01*
G01*
X119025000Y-63400000D01*
G75*
G02*
X118775000Y-63150000I0J250000D01*
G01*
X118775000Y-62650000D01*
G75*
G02*
X119025000Y-62400000I250000J0D01*
G01*
G37*
G36*
G01*
X119025000Y-60500000D02*
X119975000Y-60500000D01*
G75*
G02*
X120225000Y-60750000I0J-250000D01*
G01*
X120225000Y-61250000D01*
G75*
G02*
X119975000Y-61500000I-250000J0D01*
G01*
X119025000Y-61500000D01*
G75*
G02*
X118775000Y-61250000I0J250000D01*
G01*
X118775000Y-60750000D01*
G75*
G02*
X119025000Y-60500000I250000J0D01*
G01*
G37*
G04 #@! TD*
G04 #@! TO.C,Cs3*
G36*
G01*
X65340000Y-62485000D02*
X66290000Y-62485000D01*
G75*
G02*
X66540000Y-62735000I0J-250000D01*
G01*
X66540000Y-63235000D01*
G75*
G02*
X66290000Y-63485000I-250000J0D01*
G01*
X65340000Y-63485000D01*
G75*
G02*
X65090000Y-63235000I0J250000D01*
G01*
X65090000Y-62735000D01*
G75*
G02*
X65340000Y-62485000I250000J0D01*
G01*
G37*
G36*
G01*
X65340000Y-60585000D02*
X66290000Y-60585000D01*
G75*
G02*
X66540000Y-60835000I0J-250000D01*
G01*
X66540000Y-61335000D01*
G75*
G02*
X66290000Y-61585000I-250000J0D01*
G01*
X65340000Y-61585000D01*
G75*
G02*
X65090000Y-61335000I0J250000D01*
G01*
X65090000Y-60835000D01*
G75*
G02*
X65340000Y-60585000I250000J0D01*
G01*
G37*
G04 #@! TD*
G04 #@! TO.C,Cs2*
G36*
G01*
X119025000Y-80300000D02*
X119975000Y-80300000D01*
G75*
G02*
X120225000Y-80550000I0J-250000D01*
G01*
X120225000Y-81050000D01*
G75*
G02*
X119975000Y-81300000I-250000J0D01*
G01*
X119025000Y-81300000D01*
G75*
G02*
X118775000Y-81050000I0J250000D01*
G01*
X118775000Y-80550000D01*
G75*
G02*
X119025000Y-80300000I250000J0D01*
G01*
G37*
G36*
G01*
X119025000Y-78400000D02*
X119975000Y-78400000D01*
G75*
G02*
X120225000Y-78650000I0J-250000D01*
G01*
X120225000Y-79150000D01*
G75*
G02*
X119975000Y-79400000I-250000J0D01*
G01*
X119025000Y-79400000D01*
G75*
G02*
X118775000Y-79150000I0J250000D01*
G01*
X118775000Y-78650000D01*
G75*
G02*
X119025000Y-78400000I250000J0D01*
G01*
G37*
G04 #@! TD*
G04 #@! TO.C,Cs4*
G36*
G01*
X65540000Y-80585000D02*
X66490000Y-80585000D01*
G75*
G02*
X66740000Y-80835000I0J-250000D01*
G01*
X66740000Y-81335000D01*
G75*
G02*
X66490000Y-81585000I-250000J0D01*
G01*
X65540000Y-81585000D01*
G75*
G02*
X65290000Y-81335000I0J250000D01*
G01*
X65290000Y-80835000D01*
G75*
G02*
X65540000Y-80585000I250000J0D01*
G01*
G37*
G36*
G01*
X65540000Y-78685000D02*
X66490000Y-78685000D01*
G75*
G02*
X66740000Y-78935000I0J-250000D01*
G01*
X66740000Y-79435000D01*
G75*
G02*
X66490000Y-79685000I-250000J0D01*
G01*
X65540000Y-79685000D01*
G75*
G02*
X65290000Y-79435000I0J250000D01*
G01*
X65290000Y-78935000D01*
G75*
G02*
X65540000Y-78685000I250000J0D01*
G01*
G37*
G04 #@! TD*
D14*
G04 #@! TO.C,D2*
X106000000Y-62700000D03*
X106000000Y-66000000D03*
G04 #@! TD*
G04 #@! TO.C,D3*
X106000000Y-80000000D03*
X106000000Y-83300000D03*
G04 #@! TD*
G04 #@! TO.C,D4*
X52540000Y-62635000D03*
X52540000Y-65935000D03*
G04 #@! TD*
G04 #@! TO.C,D5*
X53040000Y-80635000D03*
X53040000Y-83935000D03*
G04 #@! TD*
D15*
G04 #@! TO.C,D_H1*
X130550000Y-59190000D03*
X127500000Y-55840000D03*
X127500000Y-59190000D03*
X130550000Y-55840000D03*
D16*
X131305000Y-63815000D03*
X126745000Y-63815000D03*
G04 #@! TD*
D15*
G04 #@! TO.C,D_H2*
X76350000Y-59190000D03*
X73300000Y-55840000D03*
X73300000Y-59190000D03*
X76350000Y-55840000D03*
D16*
X77105000Y-63815000D03*
X72545000Y-63815000D03*
G04 #@! TD*
D15*
G04 #@! TO.C,D_L1*
X130550000Y-76750000D03*
X127500000Y-73400000D03*
X127500000Y-76750000D03*
X130550000Y-73400000D03*
D16*
X131305000Y-81375000D03*
X126745000Y-81375000D03*
G04 #@! TD*
D15*
G04 #@! TO.C,D_L2*
X76350000Y-76750000D03*
X73300000Y-73400000D03*
X73300000Y-76750000D03*
X76350000Y-73400000D03*
D16*
X77105000Y-81375000D03*
X72545000Y-81375000D03*
G04 #@! TD*
D17*
G04 #@! TO.C,L1*
X87500000Y-70000000D03*
X96500000Y-70000000D03*
X92000000Y-53000000D03*
G04 #@! TD*
G04 #@! TO.C,L2*
X96500000Y-77000000D03*
X87500000Y-77000000D03*
X92000000Y-94000000D03*
G04 #@! TD*
D15*
G04 #@! TO.C,Q1*
X115740000Y-59190000D03*
X112690000Y-55840000D03*
X112690000Y-59190000D03*
X115740000Y-55840000D03*
D16*
X116495000Y-63815000D03*
X111935000Y-63815000D03*
G04 #@! TD*
D15*
G04 #@! TO.C,Q2*
X115740000Y-76750000D03*
X112690000Y-73400000D03*
X112690000Y-76750000D03*
X115740000Y-73400000D03*
D16*
X116495000Y-81375000D03*
X111935000Y-81375000D03*
G04 #@! TD*
D15*
G04 #@! TO.C,Q4*
X61930000Y-59190000D03*
X58880000Y-55840000D03*
X58880000Y-59190000D03*
X61930000Y-55840000D03*
D16*
X62685000Y-63815000D03*
X58125000Y-63815000D03*
G04 #@! TD*
D15*
G04 #@! TO.C,Q5*
X61930000Y-76750000D03*
X58880000Y-73400000D03*
X58880000Y-76750000D03*
X61930000Y-73400000D03*
D16*
X62685000Y-81375000D03*
X58125000Y-81375000D03*
G04 #@! TD*
G04 #@! TO.C,Rs1*
G36*
G01*
X119024998Y-59212500D02*
X119925002Y-59212500D01*
G75*
G02*
X120175000Y-59462498I0J-249998D01*
G01*
X120175000Y-59987502D01*
G75*
G02*
X119925002Y-60237500I-249998J0D01*
G01*
X119024998Y-60237500D01*
G75*
G02*
X118775000Y-59987502I0J249998D01*
G01*
X118775000Y-59462498D01*
G75*
G02*
X119024998Y-59212500I249998J0D01*
G01*
G37*
G36*
G01*
X119024998Y-57387500D02*
X119925002Y-57387500D01*
G75*
G02*
X120175000Y-57637498I0J-249998D01*
G01*
X120175000Y-58162502D01*
G75*
G02*
X119925002Y-58412500I-249998J0D01*
G01*
X119024998Y-58412500D01*
G75*
G02*
X118775000Y-58162502I0J249998D01*
G01*
X118775000Y-57637498D01*
G75*
G02*
X119024998Y-57387500I249998J0D01*
G01*
G37*
G04 #@! TD*
G04 #@! TO.C,Rs3*
G36*
G01*
X65339998Y-59212500D02*
X66240002Y-59212500D01*
G75*
G02*
X66490000Y-59462498I0J-249998D01*
G01*
X66490000Y-59987502D01*
G75*
G02*
X66240002Y-60237500I-249998J0D01*
G01*
X65339998Y-60237500D01*
G75*
G02*
X65090000Y-59987502I0J249998D01*
G01*
X65090000Y-59462498D01*
G75*
G02*
X65339998Y-59212500I249998J0D01*
G01*
G37*
G36*
G01*
X65339998Y-57387500D02*
X66240002Y-57387500D01*
G75*
G02*
X66490000Y-57637498I0J-249998D01*
G01*
X66490000Y-58162502D01*
G75*
G02*
X66240002Y-58412500I-249998J0D01*
G01*
X65339998Y-58412500D01*
G75*
G02*
X65090000Y-58162502I0J249998D01*
G01*
X65090000Y-57637498D01*
G75*
G02*
X65339998Y-57387500I249998J0D01*
G01*
G37*
G04 #@! TD*
G04 #@! TO.C,Rs2*
G36*
G01*
X119024998Y-76800000D02*
X119925002Y-76800000D01*
G75*
G02*
X120175000Y-77049998I0J-249998D01*
G01*
X120175000Y-77575002D01*
G75*
G02*
X119925002Y-77825000I-249998J0D01*
G01*
X119024998Y-77825000D01*
G75*
G02*
X118775000Y-77575002I0J249998D01*
G01*
X118775000Y-77049998D01*
G75*
G02*
X119024998Y-76800000I249998J0D01*
G01*
G37*
G36*
G01*
X119024998Y-74975000D02*
X119925002Y-74975000D01*
G75*
G02*
X120175000Y-75224998I0J-249998D01*
G01*
X120175000Y-75750002D01*
G75*
G02*
X119925002Y-76000000I-249998J0D01*
G01*
X119024998Y-76000000D01*
G75*
G02*
X118775000Y-75750002I0J249998D01*
G01*
X118775000Y-75224998D01*
G75*
G02*
X119024998Y-74975000I249998J0D01*
G01*
G37*
G04 #@! TD*
G04 #@! TO.C,Rs4*
G36*
G01*
X65539998Y-77122500D02*
X66440002Y-77122500D01*
G75*
G02*
X66690000Y-77372498I0J-249998D01*
G01*
X66690000Y-77897502D01*
G75*
G02*
X66440002Y-78147500I-249998J0D01*
G01*
X65539998Y-78147500D01*
G75*
G02*
X65290000Y-77897502I0J249998D01*
G01*
X65290000Y-77372498D01*
G75*
G02*
X65539998Y-77122500I249998J0D01*
G01*
G37*
G36*
G01*
X65539998Y-75297500D02*
X66440002Y-75297500D01*
G75*
G02*
X66690000Y-75547498I0J-249998D01*
G01*
X66690000Y-76072502D01*
G75*
G02*
X66440002Y-76322500I-249998J0D01*
G01*
X65539998Y-76322500D01*
G75*
G02*
X65290000Y-76072502I0J249998D01*
G01*
X65290000Y-75547498D01*
G75*
G02*
X65539998Y-75297500I249998J0D01*
G01*
G37*
G04 #@! TD*
G04 #@! TO.C,R1*
G36*
G01*
X109400000Y-65950002D02*
X109400000Y-65049998D01*
G75*
G02*
X109649998Y-64800000I249998J0D01*
G01*
X110175002Y-64800000D01*
G75*
G02*
X110425000Y-65049998I0J-249998D01*
G01*
X110425000Y-65950002D01*
G75*
G02*
X110175002Y-66200000I-249998J0D01*
G01*
X109649998Y-66200000D01*
G75*
G02*
X109400000Y-65950002I0J249998D01*
G01*
G37*
G36*
G01*
X107575000Y-65950002D02*
X107575000Y-65049998D01*
G75*
G02*
X107824998Y-64800000I249998J0D01*
G01*
X108350002Y-64800000D01*
G75*
G02*
X108600000Y-65049998I0J-249998D01*
G01*
X108600000Y-65950002D01*
G75*
G02*
X108350002Y-66200000I-249998J0D01*
G01*
X107824998Y-66200000D01*
G75*
G02*
X107575000Y-65950002I0J249998D01*
G01*
G37*
G04 #@! TD*
G04 #@! TO.C,R5*
G36*
G01*
X55527500Y-65585002D02*
X55527500Y-64684998D01*
G75*
G02*
X55777498Y-64435000I249998J0D01*
G01*
X56302502Y-64435000D01*
G75*
G02*
X56552500Y-64684998I0J-249998D01*
G01*
X56552500Y-65585002D01*
G75*
G02*
X56302502Y-65835000I-249998J0D01*
G01*
X55777498Y-65835000D01*
G75*
G02*
X55527500Y-65585002I0J249998D01*
G01*
G37*
G36*
G01*
X53702500Y-65585002D02*
X53702500Y-64684998D01*
G75*
G02*
X53952498Y-64435000I249998J0D01*
G01*
X54477502Y-64435000D01*
G75*
G02*
X54727500Y-64684998I0J-249998D01*
G01*
X54727500Y-65585002D01*
G75*
G02*
X54477502Y-65835000I-249998J0D01*
G01*
X53952498Y-65835000D01*
G75*
G02*
X53702500Y-65585002I0J249998D01*
G01*
G37*
G04 #@! TD*
G04 #@! TO.C,R3*
G36*
G01*
X109400000Y-63450002D02*
X109400000Y-62549998D01*
G75*
G02*
X109649998Y-62300000I249998J0D01*
G01*
X110175002Y-62300000D01*
G75*
G02*
X110425000Y-62549998I0J-249998D01*
G01*
X110425000Y-63450002D01*
G75*
G02*
X110175002Y-63700000I-249998J0D01*
G01*
X109649998Y-63700000D01*
G75*
G02*
X109400000Y-63450002I0J249998D01*
G01*
G37*
G36*
G01*
X107575000Y-63450002D02*
X107575000Y-62549998D01*
G75*
G02*
X107824998Y-62300000I249998J0D01*
G01*
X108350002Y-62300000D01*
G75*
G02*
X108600000Y-62549998I0J-249998D01*
G01*
X108600000Y-63450002D01*
G75*
G02*
X108350002Y-63700000I-249998J0D01*
G01*
X107824998Y-63700000D01*
G75*
G02*
X107575000Y-63450002I0J249998D01*
G01*
G37*
G04 #@! TD*
G04 #@! TO.C,R4*
G36*
G01*
X109400000Y-81125002D02*
X109400000Y-80224998D01*
G75*
G02*
X109649998Y-79975000I249998J0D01*
G01*
X110175002Y-79975000D01*
G75*
G02*
X110425000Y-80224998I0J-249998D01*
G01*
X110425000Y-81125002D01*
G75*
G02*
X110175002Y-81375000I-249998J0D01*
G01*
X109649998Y-81375000D01*
G75*
G02*
X109400000Y-81125002I0J249998D01*
G01*
G37*
G36*
G01*
X107575000Y-81125002D02*
X107575000Y-80224998D01*
G75*
G02*
X107824998Y-79975000I249998J0D01*
G01*
X108350002Y-79975000D01*
G75*
G02*
X108600000Y-80224998I0J-249998D01*
G01*
X108600000Y-81125002D01*
G75*
G02*
X108350002Y-81375000I-249998J0D01*
G01*
X107824998Y-81375000D01*
G75*
G02*
X107575000Y-81125002I0J249998D01*
G01*
G37*
G04 #@! TD*
G04 #@! TO.C,R33*
G36*
G01*
X55527500Y-63585002D02*
X55527500Y-62684998D01*
G75*
G02*
X55777498Y-62435000I249998J0D01*
G01*
X56302502Y-62435000D01*
G75*
G02*
X56552500Y-62684998I0J-249998D01*
G01*
X56552500Y-63585002D01*
G75*
G02*
X56302502Y-63835000I-249998J0D01*
G01*
X55777498Y-63835000D01*
G75*
G02*
X55527500Y-63585002I0J249998D01*
G01*
G37*
G36*
G01*
X53702500Y-63585002D02*
X53702500Y-62684998D01*
G75*
G02*
X53952498Y-62435000I249998J0D01*
G01*
X54477502Y-62435000D01*
G75*
G02*
X54727500Y-62684998I0J-249998D01*
G01*
X54727500Y-63585002D01*
G75*
G02*
X54477502Y-63835000I-249998J0D01*
G01*
X53952498Y-63835000D01*
G75*
G02*
X53702500Y-63585002I0J249998D01*
G01*
G37*
G04 #@! TD*
G04 #@! TO.C,R34*
G36*
G01*
X56027500Y-81585002D02*
X56027500Y-80684998D01*
G75*
G02*
X56277498Y-80435000I249998J0D01*
G01*
X56802502Y-80435000D01*
G75*
G02*
X57052500Y-80684998I0J-249998D01*
G01*
X57052500Y-81585002D01*
G75*
G02*
X56802502Y-81835000I-249998J0D01*
G01*
X56277498Y-81835000D01*
G75*
G02*
X56027500Y-81585002I0J249998D01*
G01*
G37*
G36*
G01*
X54202500Y-81585002D02*
X54202500Y-80684998D01*
G75*
G02*
X54452498Y-80435000I249998J0D01*
G01*
X54977502Y-80435000D01*
G75*
G02*
X55227500Y-80684998I0J-249998D01*
G01*
X55227500Y-81585002D01*
G75*
G02*
X54977502Y-81835000I-249998J0D01*
G01*
X54452498Y-81835000D01*
G75*
G02*
X54202500Y-81585002I0J249998D01*
G01*
G37*
G04 #@! TD*
G04 #@! TO.C,R2*
G36*
G01*
X109400000Y-83450002D02*
X109400000Y-82549998D01*
G75*
G02*
X109649998Y-82300000I249998J0D01*
G01*
X110175002Y-82300000D01*
G75*
G02*
X110425000Y-82549998I0J-249998D01*
G01*
X110425000Y-83450002D01*
G75*
G02*
X110175002Y-83700000I-249998J0D01*
G01*
X109649998Y-83700000D01*
G75*
G02*
X109400000Y-83450002I0J249998D01*
G01*
G37*
G36*
G01*
X107575000Y-83450002D02*
X107575000Y-82549998D01*
G75*
G02*
X107824998Y-82300000I249998J0D01*
G01*
X108350002Y-82300000D01*
G75*
G02*
X108600000Y-82549998I0J-249998D01*
G01*
X108600000Y-83450002D01*
G75*
G02*
X108350002Y-83700000I-249998J0D01*
G01*
X107824998Y-83700000D01*
G75*
G02*
X107575000Y-83450002I0J249998D01*
G01*
G37*
G04 #@! TD*
G04 #@! TO.C,R6*
G36*
G01*
X56027500Y-83585002D02*
X56027500Y-82684998D01*
G75*
G02*
X56277498Y-82435000I249998J0D01*
G01*
X56802502Y-82435000D01*
G75*
G02*
X57052500Y-82684998I0J-249998D01*
G01*
X57052500Y-83585002D01*
G75*
G02*
X56802502Y-83835000I-249998J0D01*
G01*
X56277498Y-83835000D01*
G75*
G02*
X56027500Y-83585002I0J249998D01*
G01*
G37*
G36*
G01*
X54202500Y-83585002D02*
X54202500Y-82684998D01*
G75*
G02*
X54452498Y-82435000I249998J0D01*
G01*
X54977502Y-82435000D01*
G75*
G02*
X55227500Y-82684998I0J-249998D01*
G01*
X55227500Y-83585002D01*
G75*
G02*
X54977502Y-83835000I-249998J0D01*
G01*
X54452498Y-83835000D01*
G75*
G02*
X54202500Y-83585002I0J249998D01*
G01*
G37*
G04 #@! TD*
G04 #@! TO.C,R35*
G36*
G01*
X60450002Y-64200000D02*
X59549998Y-64200000D01*
G75*
G02*
X59300000Y-63950002I0J249998D01*
G01*
X59300000Y-63424998D01*
G75*
G02*
X59549998Y-63175000I249998J0D01*
G01*
X60450002Y-63175000D01*
G75*
G02*
X60700000Y-63424998I0J-249998D01*
G01*
X60700000Y-63950002D01*
G75*
G02*
X60450002Y-64200000I-249998J0D01*
G01*
G37*
G36*
G01*
X60450002Y-66025000D02*
X59549998Y-66025000D01*
G75*
G02*
X59300000Y-65775002I0J249998D01*
G01*
X59300000Y-65249998D01*
G75*
G02*
X59549998Y-65000000I249998J0D01*
G01*
X60450002Y-65000000D01*
G75*
G02*
X60700000Y-65249998I0J-249998D01*
G01*
X60700000Y-65775002D01*
G75*
G02*
X60450002Y-66025000I-249998J0D01*
G01*
G37*
G04 #@! TD*
G04 #@! TO.C,R32*
G36*
G01*
X112450002Y-84100000D02*
X111549998Y-84100000D01*
G75*
G02*
X111300000Y-83850002I0J249998D01*
G01*
X111300000Y-83324998D01*
G75*
G02*
X111549998Y-83075000I249998J0D01*
G01*
X112450002Y-83075000D01*
G75*
G02*
X112700000Y-83324998I0J-249998D01*
G01*
X112700000Y-83850002D01*
G75*
G02*
X112450002Y-84100000I-249998J0D01*
G01*
G37*
G36*
G01*
X112450002Y-85925000D02*
X111549998Y-85925000D01*
G75*
G02*
X111300000Y-85675002I0J249998D01*
G01*
X111300000Y-85149998D01*
G75*
G02*
X111549998Y-84900000I249998J0D01*
G01*
X112450002Y-84900000D01*
G75*
G02*
X112700000Y-85149998I0J-249998D01*
G01*
X112700000Y-85675002D01*
G75*
G02*
X112450002Y-85925000I-249998J0D01*
G01*
G37*
G04 #@! TD*
G04 #@! TO.C,R36*
G36*
G01*
X58490002Y-83822500D02*
X57589998Y-83822500D01*
G75*
G02*
X57340000Y-83572502I0J249998D01*
G01*
X57340000Y-83047498D01*
G75*
G02*
X57589998Y-82797500I249998J0D01*
G01*
X58490002Y-82797500D01*
G75*
G02*
X58740000Y-83047498I0J-249998D01*
G01*
X58740000Y-83572502D01*
G75*
G02*
X58490002Y-83822500I-249998J0D01*
G01*
G37*
G36*
G01*
X58490002Y-85647500D02*
X57589998Y-85647500D01*
G75*
G02*
X57340000Y-85397502I0J249998D01*
G01*
X57340000Y-84872498D01*
G75*
G02*
X57589998Y-84622500I249998J0D01*
G01*
X58490002Y-84622500D01*
G75*
G02*
X58740000Y-84872498I0J-249998D01*
G01*
X58740000Y-85397502D01*
G75*
G02*
X58490002Y-85647500I-249998J0D01*
G01*
G37*
G04 #@! TD*
G04 #@! TO.C,U4*
G36*
G01*
X109550000Y-96435000D02*
X109850000Y-96435000D01*
G75*
G02*
X110000000Y-96585000I0J-150000D01*
G01*
X110000000Y-98235000D01*
G75*
G02*
X109850000Y-98385000I-150000J0D01*
G01*
X109550000Y-98385000D01*
G75*
G02*
X109400000Y-98235000I0J150000D01*
G01*
X109400000Y-96585000D01*
G75*
G02*
X109550000Y-96435000I150000J0D01*
G01*
G37*
G36*
G01*
X108280000Y-96435000D02*
X108580000Y-96435000D01*
G75*
G02*
X108730000Y-96585000I0J-150000D01*
G01*
X108730000Y-98235000D01*
G75*
G02*
X108580000Y-98385000I-150000J0D01*
G01*
X108280000Y-98385000D01*
G75*
G02*
X108130000Y-98235000I0J150000D01*
G01*
X108130000Y-96585000D01*
G75*
G02*
X108280000Y-96435000I150000J0D01*
G01*
G37*
G36*
G01*
X107010000Y-96435000D02*
X107310000Y-96435000D01*
G75*
G02*
X107460000Y-96585000I0J-150000D01*
G01*
X107460000Y-98235000D01*
G75*
G02*
X107310000Y-98385000I-150000J0D01*
G01*
X107010000Y-98385000D01*
G75*
G02*
X106860000Y-98235000I0J150000D01*
G01*
X106860000Y-96585000D01*
G75*
G02*
X107010000Y-96435000I150000J0D01*
G01*
G37*
G36*
G01*
X105740000Y-96435000D02*
X106040000Y-96435000D01*
G75*
G02*
X106190000Y-96585000I0J-150000D01*
G01*
X106190000Y-98235000D01*
G75*
G02*
X106040000Y-98385000I-150000J0D01*
G01*
X105740000Y-98385000D01*
G75*
G02*
X105590000Y-98235000I0J150000D01*
G01*
X105590000Y-96585000D01*
G75*
G02*
X105740000Y-96435000I150000J0D01*
G01*
G37*
G36*
G01*
X105740000Y-91485000D02*
X106040000Y-91485000D01*
G75*
G02*
X106190000Y-91635000I0J-150000D01*
G01*
X106190000Y-93285000D01*
G75*
G02*
X106040000Y-93435000I-150000J0D01*
G01*
X105740000Y-93435000D01*
G75*
G02*
X105590000Y-93285000I0J150000D01*
G01*
X105590000Y-91635000D01*
G75*
G02*
X105740000Y-91485000I150000J0D01*
G01*
G37*
G36*
G01*
X107010000Y-91485000D02*
X107310000Y-91485000D01*
G75*
G02*
X107460000Y-91635000I0J-150000D01*
G01*
X107460000Y-93285000D01*
G75*
G02*
X107310000Y-93435000I-150000J0D01*
G01*
X107010000Y-93435000D01*
G75*
G02*
X106860000Y-93285000I0J150000D01*
G01*
X106860000Y-91635000D01*
G75*
G02*
X107010000Y-91485000I150000J0D01*
G01*
G37*
G36*
G01*
X108280000Y-91485000D02*
X108580000Y-91485000D01*
G75*
G02*
X108730000Y-91635000I0J-150000D01*
G01*
X108730000Y-93285000D01*
G75*
G02*
X108580000Y-93435000I-150000J0D01*
G01*
X108280000Y-93435000D01*
G75*
G02*
X108130000Y-93285000I0J150000D01*
G01*
X108130000Y-91635000D01*
G75*
G02*
X108280000Y-91485000I150000J0D01*
G01*
G37*
G36*
G01*
X109550000Y-91485000D02*
X109850000Y-91485000D01*
G75*
G02*
X110000000Y-91635000I0J-150000D01*
G01*
X110000000Y-93285000D01*
G75*
G02*
X109850000Y-93435000I-150000J0D01*
G01*
X109550000Y-93435000D01*
G75*
G02*
X109400000Y-93285000I0J150000D01*
G01*
X109400000Y-91635000D01*
G75*
G02*
X109550000Y-91485000I150000J0D01*
G01*
G37*
G04 #@! TD*
G04 #@! TO.C,Rv1*
G36*
G01*
X59799998Y-113670500D02*
X60700002Y-113670500D01*
G75*
G02*
X60950000Y-113920498I0J-249998D01*
G01*
X60950000Y-114445502D01*
G75*
G02*
X60700002Y-114695500I-249998J0D01*
G01*
X59799998Y-114695500D01*
G75*
G02*
X59550000Y-114445502I0J249998D01*
G01*
X59550000Y-113920498D01*
G75*
G02*
X59799998Y-113670500I249998J0D01*
G01*
G37*
G36*
G01*
X59799998Y-111845500D02*
X60700002Y-111845500D01*
G75*
G02*
X60950000Y-112095498I0J-249998D01*
G01*
X60950000Y-112620502D01*
G75*
G02*
X60700002Y-112870500I-249998J0D01*
G01*
X59799998Y-112870500D01*
G75*
G02*
X59550000Y-112620502I0J249998D01*
G01*
X59550000Y-112095498D01*
G75*
G02*
X59799998Y-111845500I249998J0D01*
G01*
G37*
G04 #@! TD*
G04 #@! TO.C,Rv2*
G36*
G01*
X59799998Y-117045500D02*
X60700002Y-117045500D01*
G75*
G02*
X60950000Y-117295498I0J-249998D01*
G01*
X60950000Y-117820502D01*
G75*
G02*
X60700002Y-118070500I-249998J0D01*
G01*
X59799998Y-118070500D01*
G75*
G02*
X59550000Y-117820502I0J249998D01*
G01*
X59550000Y-117295498D01*
G75*
G02*
X59799998Y-117045500I249998J0D01*
G01*
G37*
G36*
G01*
X59799998Y-115220500D02*
X60700002Y-115220500D01*
G75*
G02*
X60950000Y-115470498I0J-249998D01*
G01*
X60950000Y-115995502D01*
G75*
G02*
X60700002Y-116245500I-249998J0D01*
G01*
X59799998Y-116245500D01*
G75*
G02*
X59550000Y-115995502I0J249998D01*
G01*
X59550000Y-115470498D01*
G75*
G02*
X59799998Y-115220500I249998J0D01*
G01*
G37*
G04 #@! TD*
G04 #@! TO.C,Rv3*
G36*
G01*
X59799998Y-103387500D02*
X60700002Y-103387500D01*
G75*
G02*
X60950000Y-103637498I0J-249998D01*
G01*
X60950000Y-104162502D01*
G75*
G02*
X60700002Y-104412500I-249998J0D01*
G01*
X59799998Y-104412500D01*
G75*
G02*
X59550000Y-104162502I0J249998D01*
G01*
X59550000Y-103637498D01*
G75*
G02*
X59799998Y-103387500I249998J0D01*
G01*
G37*
G36*
G01*
X59799998Y-101562500D02*
X60700002Y-101562500D01*
G75*
G02*
X60950000Y-101812498I0J-249998D01*
G01*
X60950000Y-102337502D01*
G75*
G02*
X60700002Y-102587500I-249998J0D01*
G01*
X59799998Y-102587500D01*
G75*
G02*
X59550000Y-102337502I0J249998D01*
G01*
X59550000Y-101812498D01*
G75*
G02*
X59799998Y-101562500I249998J0D01*
G01*
G37*
G04 #@! TD*
G04 #@! TO.C,Rv4*
G36*
G01*
X59799998Y-106737500D02*
X60700002Y-106737500D01*
G75*
G02*
X60950000Y-106987498I0J-249998D01*
G01*
X60950000Y-107512502D01*
G75*
G02*
X60700002Y-107762500I-249998J0D01*
G01*
X59799998Y-107762500D01*
G75*
G02*
X59550000Y-107512502I0J249998D01*
G01*
X59550000Y-106987498D01*
G75*
G02*
X59799998Y-106737500I249998J0D01*
G01*
G37*
G36*
G01*
X59799998Y-104912500D02*
X60700002Y-104912500D01*
G75*
G02*
X60950000Y-105162498I0J-249998D01*
G01*
X60950000Y-105687502D01*
G75*
G02*
X60700002Y-105937500I-249998J0D01*
G01*
X59799998Y-105937500D01*
G75*
G02*
X59550000Y-105687502I0J249998D01*
G01*
X59550000Y-105162498D01*
G75*
G02*
X59799998Y-104912500I249998J0D01*
G01*
G37*
G04 #@! TD*
G04 #@! TO.C,Rv5*
G36*
G01*
X121500002Y-115944500D02*
X120599998Y-115944500D01*
G75*
G02*
X120350000Y-115694502I0J249998D01*
G01*
X120350000Y-115169498D01*
G75*
G02*
X120599998Y-114919500I249998J0D01*
G01*
X121500002Y-114919500D01*
G75*
G02*
X121750000Y-115169498I0J-249998D01*
G01*
X121750000Y-115694502D01*
G75*
G02*
X121500002Y-115944500I-249998J0D01*
G01*
G37*
G36*
G01*
X121500002Y-117769500D02*
X120599998Y-117769500D01*
G75*
G02*
X120350000Y-117519502I0J249998D01*
G01*
X120350000Y-116994498D01*
G75*
G02*
X120599998Y-116744500I249998J0D01*
G01*
X121500002Y-116744500D01*
G75*
G02*
X121750000Y-116994498I0J-249998D01*
G01*
X121750000Y-117519502D01*
G75*
G02*
X121500002Y-117769500I-249998J0D01*
G01*
G37*
G04 #@! TD*
G04 #@! TO.C,Rv6*
G36*
G01*
X121500002Y-112619500D02*
X120599998Y-112619500D01*
G75*
G02*
X120350000Y-112369502I0J249998D01*
G01*
X120350000Y-111844498D01*
G75*
G02*
X120599998Y-111594500I249998J0D01*
G01*
X121500002Y-111594500D01*
G75*
G02*
X121750000Y-111844498I0J-249998D01*
G01*
X121750000Y-112369502D01*
G75*
G02*
X121500002Y-112619500I-249998J0D01*
G01*
G37*
G36*
G01*
X121500002Y-114444500D02*
X120599998Y-114444500D01*
G75*
G02*
X120350000Y-114194502I0J249998D01*
G01*
X120350000Y-113669498D01*
G75*
G02*
X120599998Y-113419500I249998J0D01*
G01*
X121500002Y-113419500D01*
G75*
G02*
X121750000Y-113669498I0J-249998D01*
G01*
X121750000Y-114194502D01*
G75*
G02*
X121500002Y-114444500I-249998J0D01*
G01*
G37*
G04 #@! TD*
G04 #@! TO.C,Rbleed1*
G36*
G01*
X126462500Y-87200002D02*
X126462500Y-86299998D01*
G75*
G02*
X126712498Y-86050000I249998J0D01*
G01*
X127237502Y-86050000D01*
G75*
G02*
X127487500Y-86299998I0J-249998D01*
G01*
X127487500Y-87200002D01*
G75*
G02*
X127237502Y-87450000I-249998J0D01*
G01*
X126712498Y-87450000D01*
G75*
G02*
X126462500Y-87200002I0J249998D01*
G01*
G37*
G36*
G01*
X124637500Y-87200002D02*
X124637500Y-86299998D01*
G75*
G02*
X124887498Y-86050000I249998J0D01*
G01*
X125412502Y-86050000D01*
G75*
G02*
X125662500Y-86299998I0J-249998D01*
G01*
X125662500Y-87200002D01*
G75*
G02*
X125412502Y-87450000I-249998J0D01*
G01*
X124887498Y-87450000D01*
G75*
G02*
X124637500Y-87200002I0J249998D01*
G01*
G37*
G04 #@! TD*
G04 #@! TO.C,Rbleed2*
G36*
G01*
X131087500Y-87200002D02*
X131087500Y-86299998D01*
G75*
G02*
X131337498Y-86050000I249998J0D01*
G01*
X131862502Y-86050000D01*
G75*
G02*
X132112500Y-86299998I0J-249998D01*
G01*
X132112500Y-87200002D01*
G75*
G02*
X131862502Y-87450000I-249998J0D01*
G01*
X131337498Y-87450000D01*
G75*
G02*
X131087500Y-87200002I0J249998D01*
G01*
G37*
G36*
G01*
X129262500Y-87200002D02*
X129262500Y-86299998D01*
G75*
G02*
X129512498Y-86050000I249998J0D01*
G01*
X130037502Y-86050000D01*
G75*
G02*
X130287500Y-86299998I0J-249998D01*
G01*
X130287500Y-87200002D01*
G75*
G02*
X130037502Y-87450000I-249998J0D01*
G01*
X129512498Y-87450000D01*
G75*
G02*
X129262500Y-87200002I0J249998D01*
G01*
G37*
G04 #@! TD*
G04 #@! TO.C,C3*
G36*
G01*
X52574999Y-102149999D02*
X52574999Y-104350001D01*
G75*
G02*
X52325000Y-104600000I-249999J0D01*
G01*
X51674998Y-104600000D01*
G75*
G02*
X51424999Y-104350001I0J249999D01*
G01*
X51424999Y-102149999D01*
G75*
G02*
X51674998Y-101900000I249999J0D01*
G01*
X52325000Y-101900000D01*
G75*
G02*
X52574999Y-102149999I0J-249999D01*
G01*
G37*
G36*
G01*
X55524999Y-102149999D02*
X55524999Y-104350001D01*
G75*
G02*
X55275000Y-104600000I-249999J0D01*
G01*
X54624998Y-104600000D01*
G75*
G02*
X54374999Y-104350001I0J249999D01*
G01*
X54374999Y-102149999D01*
G75*
G02*
X54624998Y-101900000I249999J0D01*
G01*
X55275000Y-101900000D01*
G75*
G02*
X55524999Y-102149999I0J-249999D01*
G01*
G37*
G04 #@! TD*
G04 #@! TO.C,C6*
G36*
G01*
X52594999Y-109899999D02*
X52594999Y-112100001D01*
G75*
G02*
X52345000Y-112350000I-249999J0D01*
G01*
X51694998Y-112350000D01*
G75*
G02*
X51444999Y-112100001I0J249999D01*
G01*
X51444999Y-109899999D01*
G75*
G02*
X51694998Y-109650000I249999J0D01*
G01*
X52345000Y-109650000D01*
G75*
G02*
X52594999Y-109899999I0J-249999D01*
G01*
G37*
G36*
G01*
X55544999Y-109899999D02*
X55544999Y-112100001D01*
G75*
G02*
X55295000Y-112350000I-249999J0D01*
G01*
X54644998Y-112350000D01*
G75*
G02*
X54394999Y-112100001I0J249999D01*
G01*
X54394999Y-109899999D01*
G75*
G02*
X54644998Y-109650000I249999J0D01*
G01*
X55295000Y-109650000D01*
G75*
G02*
X55544999Y-109899999I0J-249999D01*
G01*
G37*
G04 #@! TD*
G04 #@! TO.C,C7*
G36*
G01*
X52574999Y-95149999D02*
X52574999Y-97350001D01*
G75*
G02*
X52325000Y-97600000I-249999J0D01*
G01*
X51674998Y-97600000D01*
G75*
G02*
X51424999Y-97350001I0J249999D01*
G01*
X51424999Y-95149999D01*
G75*
G02*
X51674998Y-94900000I249999J0D01*
G01*
X52325000Y-94900000D01*
G75*
G02*
X52574999Y-95149999I0J-249999D01*
G01*
G37*
G36*
G01*
X55524999Y-95149999D02*
X55524999Y-97350001D01*
G75*
G02*
X55275000Y-97600000I-249999J0D01*
G01*
X54624998Y-97600000D01*
G75*
G02*
X54374999Y-97350001I0J249999D01*
G01*
X54374999Y-95149999D01*
G75*
G02*
X54624998Y-94900000I249999J0D01*
G01*
X55275000Y-94900000D01*
G75*
G02*
X55524999Y-95149999I0J-249999D01*
G01*
G37*
G04 #@! TD*
G04 #@! TO.C,C8*
G36*
G01*
X52594999Y-106374998D02*
X52594999Y-108575000D01*
G75*
G02*
X52345000Y-108824999I-249999J0D01*
G01*
X51694998Y-108824999D01*
G75*
G02*
X51444999Y-108575000I0J249999D01*
G01*
X51444999Y-106374998D01*
G75*
G02*
X51694998Y-106124999I249999J0D01*
G01*
X52345000Y-106124999D01*
G75*
G02*
X52594999Y-106374998I0J-249999D01*
G01*
G37*
G36*
G01*
X55544999Y-106374998D02*
X55544999Y-108575000D01*
G75*
G02*
X55295000Y-108824999I-249999J0D01*
G01*
X54644998Y-108824999D01*
G75*
G02*
X54394999Y-108575000I0J249999D01*
G01*
X54394999Y-106374998D01*
G75*
G02*
X54644998Y-106124999I249999J0D01*
G01*
X55295000Y-106124999D01*
G75*
G02*
X55544999Y-106374998I0J-249999D01*
G01*
G37*
G04 #@! TD*
G04 #@! TO.C,C9*
G36*
G01*
X52574999Y-98649999D02*
X52574999Y-100850001D01*
G75*
G02*
X52325000Y-101100000I-249999J0D01*
G01*
X51674998Y-101100000D01*
G75*
G02*
X51424999Y-100850001I0J249999D01*
G01*
X51424999Y-98649999D01*
G75*
G02*
X51674998Y-98400000I249999J0D01*
G01*
X52325000Y-98400000D01*
G75*
G02*
X52574999Y-98649999I0J-249999D01*
G01*
G37*
G36*
G01*
X55524999Y-98649999D02*
X55524999Y-100850001D01*
G75*
G02*
X55275000Y-101100000I-249999J0D01*
G01*
X54624998Y-101100000D01*
G75*
G02*
X54374999Y-100850001I0J249999D01*
G01*
X54374999Y-98649999D01*
G75*
G02*
X54624998Y-98400000I249999J0D01*
G01*
X55275000Y-98400000D01*
G75*
G02*
X55524999Y-98649999I0J-249999D01*
G01*
G37*
G04 #@! TD*
G04 #@! TO.C,C10*
G36*
G01*
X52594999Y-113399999D02*
X52594999Y-115600001D01*
G75*
G02*
X52345000Y-115850000I-249999J0D01*
G01*
X51694998Y-115850000D01*
G75*
G02*
X51444999Y-115600001I0J249999D01*
G01*
X51444999Y-113399999D01*
G75*
G02*
X51694998Y-113150000I249999J0D01*
G01*
X52345000Y-113150000D01*
G75*
G02*
X52594999Y-113399999I0J-249999D01*
G01*
G37*
G36*
G01*
X55544999Y-113399999D02*
X55544999Y-115600001D01*
G75*
G02*
X55295000Y-115850000I-249999J0D01*
G01*
X54644998Y-115850000D01*
G75*
G02*
X54394999Y-115600001I0J249999D01*
G01*
X54394999Y-113399999D01*
G75*
G02*
X54644998Y-113150000I249999J0D01*
G01*
X55295000Y-113150000D01*
G75*
G02*
X55544999Y-113399999I0J-249999D01*
G01*
G37*
G04 #@! TD*
G04 #@! TO.C,C14*
G36*
G01*
X131500000Y-90600001D02*
X131500000Y-88399999D01*
G75*
G02*
X131749999Y-88150000I249999J0D01*
G01*
X132400001Y-88150000D01*
G75*
G02*
X132650000Y-88399999I0J-249999D01*
G01*
X132650000Y-90600001D01*
G75*
G02*
X132400001Y-90850000I-249999J0D01*
G01*
X131749999Y-90850000D01*
G75*
G02*
X131500000Y-90600001I0J249999D01*
G01*
G37*
G36*
G01*
X128550000Y-90600001D02*
X128550000Y-88399999D01*
G75*
G02*
X128799999Y-88150000I249999J0D01*
G01*
X129450001Y-88150000D01*
G75*
G02*
X129700000Y-88399999I0J-249999D01*
G01*
X129700000Y-90600001D01*
G75*
G02*
X129450001Y-90850000I-249999J0D01*
G01*
X128799999Y-90850000D01*
G75*
G02*
X128550000Y-90600001I0J249999D01*
G01*
G37*
G04 #@! TD*
G04 #@! TO.C,C15*
G36*
G01*
X126660000Y-94400001D02*
X126660000Y-92199999D01*
G75*
G02*
X126909999Y-91950000I249999J0D01*
G01*
X127560001Y-91950000D01*
G75*
G02*
X127810000Y-92199999I0J-249999D01*
G01*
X127810000Y-94400001D01*
G75*
G02*
X127560001Y-94650000I-249999J0D01*
G01*
X126909999Y-94650000D01*
G75*
G02*
X126660000Y-94400001I0J249999D01*
G01*
G37*
G36*
G01*
X123710000Y-94400001D02*
X123710000Y-92199999D01*
G75*
G02*
X123959999Y-91950000I249999J0D01*
G01*
X124610001Y-91950000D01*
G75*
G02*
X124860000Y-92199999I0J-249999D01*
G01*
X124860000Y-94400001D01*
G75*
G02*
X124610001Y-94650000I-249999J0D01*
G01*
X123959999Y-94650000D01*
G75*
G02*
X123710000Y-94400001I0J249999D01*
G01*
G37*
G04 #@! TD*
G04 #@! TO.C,C16*
G36*
G01*
X131500000Y-94400001D02*
X131500000Y-92199999D01*
G75*
G02*
X131749999Y-91950000I249999J0D01*
G01*
X132400001Y-91950000D01*
G75*
G02*
X132650000Y-92199999I0J-249999D01*
G01*
X132650000Y-94400001D01*
G75*
G02*
X132400001Y-94650000I-249999J0D01*
G01*
X131749999Y-94650000D01*
G75*
G02*
X131500000Y-94400001I0J249999D01*
G01*
G37*
G36*
G01*
X128550000Y-94400001D02*
X128550000Y-92199999D01*
G75*
G02*
X128799999Y-91950000I249999J0D01*
G01*
X129450001Y-91950000D01*
G75*
G02*
X129700000Y-92199999I0J-249999D01*
G01*
X129700000Y-94400001D01*
G75*
G02*
X129450001Y-94650000I-249999J0D01*
G01*
X128799999Y-94650000D01*
G75*
G02*
X128550000Y-94400001I0J249999D01*
G01*
G37*
G04 #@! TD*
G04 #@! TO.C,C17*
G36*
G01*
X126660000Y-98200001D02*
X126660000Y-95999999D01*
G75*
G02*
X126909999Y-95750000I249999J0D01*
G01*
X127560001Y-95750000D01*
G75*
G02*
X127810000Y-95999999I0J-249999D01*
G01*
X127810000Y-98200001D01*
G75*
G02*
X127560001Y-98450000I-249999J0D01*
G01*
X126909999Y-98450000D01*
G75*
G02*
X126660000Y-98200001I0J249999D01*
G01*
G37*
G36*
G01*
X123710000Y-98200001D02*
X123710000Y-95999999D01*
G75*
G02*
X123959999Y-95750000I249999J0D01*
G01*
X124610001Y-95750000D01*
G75*
G02*
X124860000Y-95999999I0J-249999D01*
G01*
X124860000Y-98200001D01*
G75*
G02*
X124610001Y-98450000I-249999J0D01*
G01*
X123959999Y-98450000D01*
G75*
G02*
X123710000Y-98200001I0J249999D01*
G01*
G37*
G04 #@! TD*
G04 #@! TO.C,C18*
G36*
G01*
X131500000Y-98200001D02*
X131500000Y-95999999D01*
G75*
G02*
X131749999Y-95750000I249999J0D01*
G01*
X132400001Y-95750000D01*
G75*
G02*
X132650000Y-95999999I0J-249999D01*
G01*
X132650000Y-98200001D01*
G75*
G02*
X132400001Y-98450000I-249999J0D01*
G01*
X131749999Y-98450000D01*
G75*
G02*
X131500000Y-98200001I0J249999D01*
G01*
G37*
G36*
G01*
X128550000Y-98200001D02*
X128550000Y-95999999D01*
G75*
G02*
X128799999Y-95750000I249999J0D01*
G01*
X129450001Y-95750000D01*
G75*
G02*
X129700000Y-95999999I0J-249999D01*
G01*
X129700000Y-98200001D01*
G75*
G02*
X129450001Y-98450000I-249999J0D01*
G01*
X128799999Y-98450000D01*
G75*
G02*
X128550000Y-98200001I0J249999D01*
G01*
G37*
G04 #@! TD*
G04 #@! TO.C,C19*
G36*
G01*
X126660000Y-102000001D02*
X126660000Y-99799999D01*
G75*
G02*
X126909999Y-99550000I249999J0D01*
G01*
X127560001Y-99550000D01*
G75*
G02*
X127810000Y-99799999I0J-249999D01*
G01*
X127810000Y-102000001D01*
G75*
G02*
X127560001Y-102250000I-249999J0D01*
G01*
X126909999Y-102250000D01*
G75*
G02*
X126660000Y-102000001I0J249999D01*
G01*
G37*
G36*
G01*
X123710000Y-102000001D02*
X123710000Y-99799999D01*
G75*
G02*
X123959999Y-99550000I249999J0D01*
G01*
X124610001Y-99550000D01*
G75*
G02*
X124860000Y-99799999I0J-249999D01*
G01*
X124860000Y-102000001D01*
G75*
G02*
X124610001Y-102250000I-249999J0D01*
G01*
X123959999Y-102250000D01*
G75*
G02*
X123710000Y-102000001I0J249999D01*
G01*
G37*
G04 #@! TD*
G04 #@! TO.C,C20*
G36*
G01*
X131500000Y-102000001D02*
X131500000Y-99799999D01*
G75*
G02*
X131749999Y-99550000I249999J0D01*
G01*
X132400001Y-99550000D01*
G75*
G02*
X132650000Y-99799999I0J-249999D01*
G01*
X132650000Y-102000001D01*
G75*
G02*
X132400001Y-102250000I-249999J0D01*
G01*
X131749999Y-102250000D01*
G75*
G02*
X131500000Y-102000001I0J249999D01*
G01*
G37*
G36*
G01*
X128550000Y-102000001D02*
X128550000Y-99799999D01*
G75*
G02*
X128799999Y-99550000I249999J0D01*
G01*
X129450001Y-99550000D01*
G75*
G02*
X129700000Y-99799999I0J-249999D01*
G01*
X129700000Y-102000001D01*
G75*
G02*
X129450001Y-102250000I-249999J0D01*
G01*
X128799999Y-102250000D01*
G75*
G02*
X128550000Y-102000001I0J249999D01*
G01*
G37*
G04 #@! TD*
G04 #@! TO.C,C21*
G36*
G01*
X126660000Y-105800001D02*
X126660000Y-103599999D01*
G75*
G02*
X126909999Y-103350000I249999J0D01*
G01*
X127560001Y-103350000D01*
G75*
G02*
X127810000Y-103599999I0J-249999D01*
G01*
X127810000Y-105800001D01*
G75*
G02*
X127560001Y-106050000I-249999J0D01*
G01*
X126909999Y-106050000D01*
G75*
G02*
X126660000Y-105800001I0J249999D01*
G01*
G37*
G36*
G01*
X123710000Y-105800001D02*
X123710000Y-103599999D01*
G75*
G02*
X123959999Y-103350000I249999J0D01*
G01*
X124610001Y-103350000D01*
G75*
G02*
X124860000Y-103599999I0J-249999D01*
G01*
X124860000Y-105800001D01*
G75*
G02*
X124610001Y-106050000I-249999J0D01*
G01*
X123959999Y-106050000D01*
G75*
G02*
X123710000Y-105800001I0J249999D01*
G01*
G37*
G04 #@! TD*
G04 #@! TO.C,C23*
G36*
G01*
X131500000Y-105800001D02*
X131500000Y-103599999D01*
G75*
G02*
X131749999Y-103350000I249999J0D01*
G01*
X132400001Y-103350000D01*
G75*
G02*
X132650000Y-103599999I0J-249999D01*
G01*
X132650000Y-105800001D01*
G75*
G02*
X132400001Y-106050000I-249999J0D01*
G01*
X131749999Y-106050000D01*
G75*
G02*
X131500000Y-105800001I0J249999D01*
G01*
G37*
G36*
G01*
X128550000Y-105800001D02*
X128550000Y-103599999D01*
G75*
G02*
X128799999Y-103350000I249999J0D01*
G01*
X129450001Y-103350000D01*
G75*
G02*
X129700000Y-103599999I0J-249999D01*
G01*
X129700000Y-105800001D01*
G75*
G02*
X129450001Y-106050000I-249999J0D01*
G01*
X128799999Y-106050000D01*
G75*
G02*
X128550000Y-105800001I0J249999D01*
G01*
G37*
G04 #@! TD*
G04 #@! TO.C,C25*
G36*
G01*
X126660000Y-109600001D02*
X126660000Y-107399999D01*
G75*
G02*
X126909999Y-107150000I249999J0D01*
G01*
X127560001Y-107150000D01*
G75*
G02*
X127810000Y-107399999I0J-249999D01*
G01*
X127810000Y-109600001D01*
G75*
G02*
X127560001Y-109850000I-249999J0D01*
G01*
X126909999Y-109850000D01*
G75*
G02*
X126660000Y-109600001I0J249999D01*
G01*
G37*
G36*
G01*
X123710000Y-109600001D02*
X123710000Y-107399999D01*
G75*
G02*
X123959999Y-107150000I249999J0D01*
G01*
X124610001Y-107150000D01*
G75*
G02*
X124860000Y-107399999I0J-249999D01*
G01*
X124860000Y-109600001D01*
G75*
G02*
X124610001Y-109850000I-249999J0D01*
G01*
X123959999Y-109850000D01*
G75*
G02*
X123710000Y-109600001I0J249999D01*
G01*
G37*
G04 #@! TD*
G04 #@! TO.C,C26*
G36*
G01*
X131500000Y-109600001D02*
X131500000Y-107399999D01*
G75*
G02*
X131749999Y-107150000I249999J0D01*
G01*
X132400001Y-107150000D01*
G75*
G02*
X132650000Y-107399999I0J-249999D01*
G01*
X132650000Y-109600001D01*
G75*
G02*
X132400001Y-109850000I-249999J0D01*
G01*
X131749999Y-109850000D01*
G75*
G02*
X131500000Y-109600001I0J249999D01*
G01*
G37*
G36*
G01*
X128550000Y-109600001D02*
X128550000Y-107399999D01*
G75*
G02*
X128799999Y-107150000I249999J0D01*
G01*
X129450001Y-107150000D01*
G75*
G02*
X129700000Y-107399999I0J-249999D01*
G01*
X129700000Y-109600001D01*
G75*
G02*
X129450001Y-109850000I-249999J0D01*
G01*
X128799999Y-109850000D01*
G75*
G02*
X128550000Y-109600001I0J249999D01*
G01*
G37*
G04 #@! TD*
M02*
