%TF.GenerationSoftware,KiCad,Pcbnew,5.1.7-a382d34a8~88~ubuntu20.04.1*%
%TF.CreationDate,2021-05-21T21:27:29+02:00*%
%TF.ProjectId,Shield_Nucleo,53686965-6c64-45f4-9e75-636c656f2e6b,rev?*%
%TF.SameCoordinates,Original*%
%TF.FileFunction,Copper,L4,Bot*%
%TF.FilePolarity,Positive*%
%FSLAX46Y46*%
G04 Gerber Fmt 4.6, Leading zero omitted, Abs format (unit mm)*
G04 Created by KiCad (PCBNEW 5.1.7-a382d34a8~88~ubuntu20.04.1) date 2021-05-21 21:27:29*
%MOMM*%
%LPD*%
G01*
G04 APERTURE LIST*
%TA.AperFunction,ComponentPad*%
%ADD10O,1.700000X1.700000*%
%TD*%
%TA.AperFunction,ComponentPad*%
%ADD11R,1.700000X1.700000*%
%TD*%
%TA.AperFunction,ComponentPad*%
%ADD12R,1.800000X1.400000*%
%TD*%
%TA.AperFunction,ComponentPad*%
%ADD13O,1.800000X1.400000*%
%TD*%
%TA.AperFunction,ComponentPad*%
%ADD14R,1.400000X1.800000*%
%TD*%
%TA.AperFunction,ComponentPad*%
%ADD15O,1.400000X1.800000*%
%TD*%
%TA.AperFunction,ComponentPad*%
%ADD16C,2.000000*%
%TD*%
%TA.AperFunction,SMDPad,CuDef*%
%ADD17C,1.524000*%
%TD*%
%TA.AperFunction,ComponentPad*%
%ADD18O,1.000000X1.000000*%
%TD*%
%TA.AperFunction,ComponentPad*%
%ADD19R,1.000000X1.000000*%
%TD*%
%TA.AperFunction,ComponentPad*%
%ADD20C,1.300000*%
%TD*%
%TA.AperFunction,ComponentPad*%
%ADD21C,3.500000*%
%TD*%
%TA.AperFunction,ComponentPad*%
%ADD22R,1.300000X1.300000*%
%TD*%
%TA.AperFunction,ComponentPad*%
%ADD23C,3.000000*%
%TD*%
%TA.AperFunction,ComponentPad*%
%ADD24C,6.000000*%
%TD*%
%TA.AperFunction,ComponentPad*%
%ADD25R,5.000000X5.000000*%
%TD*%
%TA.AperFunction,ViaPad*%
%ADD26C,0.800000*%
%TD*%
%TA.AperFunction,Conductor*%
%ADD27C,0.250000*%
%TD*%
%TA.AperFunction,Conductor*%
%ADD28C,1.000000*%
%TD*%
G04 APERTURE END LIST*
D10*
%TO.P,J5,5*%
%TO.N,GNDD*%
X45800000Y-76960000D03*
%TO.P,J5,4*%
%TO.N,/SPI3_CS2*%
X45800000Y-74420000D03*
%TO.P,J5,3*%
%TO.N,/SPI3_SCK*%
X45800000Y-71880000D03*
%TO.P,J5,2*%
%TO.N,/SPI3_MOSI*%
X45800000Y-69340000D03*
D11*
%TO.P,J5,1*%
%TO.N,/SPI3_MISO*%
X45800000Y-66800000D03*
%TD*%
D10*
%TO.P,J4,3*%
%TO.N,/USART1_RX*%
X45800000Y-62880000D03*
%TO.P,J4,2*%
%TO.N,/USART1_TX*%
X45800000Y-60340000D03*
D11*
%TO.P,J4,1*%
%TO.N,GNDD*%
X45800000Y-57800000D03*
%TD*%
D12*
%TO.P,U9,1*%
%TO.N,GNDD*%
X102200000Y-61400000D03*
D13*
%TO.P,U9,2*%
%TO.N,+5VD*%
X102200000Y-58860000D03*
%TO.P,U9,3*%
%TO.N,GNDREF*%
X102200000Y-56320000D03*
%TO.P,U9,4*%
%TO.N,+12V*%
X102200000Y-53780000D03*
%TD*%
D14*
%TO.P,U8,1*%
%TO.N,GNDD*%
X112120000Y-110800000D03*
D15*
%TO.P,U8,2*%
%TO.N,+5VD*%
X114660000Y-110800000D03*
%TO.P,U8,3*%
%TO.N,/N*%
X117200000Y-110800000D03*
%TO.P,U8,4*%
%TO.N,+5V*%
X119740000Y-110800000D03*
%TD*%
D16*
%TO.P,TP33,1*%
%TO.N,/GND_CAN*%
X43590000Y-45000000D03*
%TD*%
%TO.P,TP32,1*%
%TO.N,/V_BUS_CAN*%
X43590000Y-48750000D03*
%TD*%
%TO.P,TP15,1*%
%TO.N,/CAN1_STB*%
X69500000Y-59500000D03*
%TD*%
%TO.P,TP14,1*%
%TO.N,/FDCAN1_RX*%
X65400000Y-63000000D03*
%TD*%
%TO.P,TP13,1*%
%TO.N,/FDCAN1_TX*%
X65400000Y-59500000D03*
%TD*%
%TO.P,TP12,1*%
%TO.N,GNDD*%
X103000000Y-71250000D03*
%TD*%
%TO.P,TP8,1*%
%TO.N,/VREF2048*%
X100250000Y-71250000D03*
%TD*%
%TO.P,TP7,1*%
%TO.N,/HRTIM1_CHB2*%
X100250000Y-68500000D03*
%TD*%
%TO.P,TP6,1*%
%TO.N,/HRTIM1_CHB1*%
X103000000Y-68500000D03*
%TD*%
%TO.P,TP5,1*%
%TO.N,/HRTIM1_CHA2*%
X83300000Y-69250000D03*
%TD*%
%TO.P,TP4,1*%
%TO.N,/HRTIM1_CHA1*%
X80250000Y-69250000D03*
%TD*%
%TO.P,TP3,1*%
%TO.N,+BATT*%
X112400000Y-77700000D03*
%TD*%
%TO.P,TP2,1*%
%TO.N,+3V3*%
X110800000Y-86000000D03*
%TD*%
%TO.P,TP1,1*%
%TO.N,GNDD*%
X69500000Y-63000000D03*
%TD*%
D17*
%TO.P,J7,11*%
%TO.N,/VI_high*%
X48420000Y-106420000D03*
%TO.P,J7,3*%
%TO.N,/PWM_L1*%
X76360000Y-68320000D03*
%TO.P,J7,1*%
%TO.N,/PWM_H1*%
X76360000Y-50540000D03*
%TO.P,J7,9*%
%TO.N,/Neutral_GND_cmd*%
X86520000Y-116580000D03*
%TO.P,J7,10*%
%TO.N,GNDREF*%
X89060000Y-116580000D03*
%TO.P,J7,12*%
X48420000Y-108960000D03*
%TO.P,J7,31*%
%TO.N,+5V*%
X119540000Y-103880000D03*
%TO.P,J7,32*%
%TO.N,/N*%
X117000000Y-103880000D03*
%TO.P,J7,2*%
%TO.N,/SW_Node1*%
X76360000Y-53080000D03*
%TO.P,J7,4*%
%TO.N,GNDREF*%
X76360000Y-70860000D03*
%TO.P,J7,8*%
X129700000Y-70860000D03*
%TO.P,J7,7*%
%TO.N,/PWM_L2*%
X129700000Y-68320000D03*
%TO.P,J7,6*%
%TO.N,/SW_Node2*%
X129700000Y-53080000D03*
%TO.P,J7,5*%
%TO.N,/PWM_H2*%
X129700000Y-50540000D03*
%TO.P,J7,14*%
%TO.N,GNDD*%
X83180000Y-101340000D03*
%TO.P,J7,13*%
%TO.N,/V1_low_op*%
X83180000Y-98800000D03*
%TO.P,J7,18*%
%TO.N,GNDD*%
X93340000Y-101340000D03*
%TO.P,J7,17*%
%TO.N,/V_high_op*%
X93340000Y-98800000D03*
%TO.P,J7,29*%
%TO.N,/VREF1024*%
X85720000Y-96260000D03*
%TO.P,J7,27*%
%TO.N,+5VD*%
X90800000Y-96260000D03*
%TO.P,J7,16*%
%TO.N,GNDD*%
X80640000Y-93720000D03*
%TO.P,J7,30*%
X85720000Y-93720000D03*
%TO.P,J7,28*%
X90800000Y-93720000D03*
%TO.P,J7,24*%
X95880000Y-93720000D03*
%TO.P,J7,15*%
%TO.N,/V2_low_op*%
X80640000Y-91180000D03*
%TO.P,J7,20*%
%TO.N,GNDD*%
X83180000Y-91180000D03*
%TO.P,J7,19*%
%TO.N,/I1_low_op*%
X85720000Y-91180000D03*
%TO.P,J7,21*%
%TO.N,/I2_low_op*%
X90800000Y-91180000D03*
%TO.P,J7,22*%
%TO.N,GNDD*%
X93340000Y-91180000D03*
%TO.P,J7,23*%
%TO.N,/I_high_op*%
X95880000Y-91180000D03*
%TD*%
D18*
%TO.P,TH1,2*%
%TO.N,GNDD*%
X103830000Y-100000000D03*
D19*
%TO.P,TH1,1*%
%TO.N,/Temp*%
X105100000Y-100000000D03*
%TD*%
D20*
%TO.P,J3,8*%
%TO.N,Net-(J3-Pad8)*%
X103812000Y-42330000D03*
D21*
%TO.P,J3,SH*%
%TO.N,GNDD*%
X110289000Y-34200000D03*
X90350000Y-34200000D03*
D20*
%TO.P,J3,12*%
%TO.N,+3V3*%
X106796500Y-44614000D03*
%TO.P,J3,10*%
%TO.N,/PWR_CAN2*%
X96001500Y-44614000D03*
%TO.P,J3,5*%
X100764000Y-40550000D03*
D22*
%TO.P,J3,1*%
%TO.N,/CAN_H*%
X96700000Y-40550000D03*
D20*
%TO.P,J3,7*%
%TO.N,/GND_CAN*%
X102796000Y-40550000D03*
%TO.P,J3,9*%
%TO.N,Net-(J3-Pad9)*%
X93715500Y-44614000D03*
%TO.P,J3,3*%
%TO.N,/GND_CAN*%
X98732000Y-40550000D03*
%TO.P,J3,11*%
%TO.N,Net-(J3-Pad11)*%
X104510500Y-44614000D03*
%TO.P,J3,2*%
%TO.N,/CAN_L*%
X97716000Y-42330000D03*
%TO.P,J3,4*%
%TO.N,/PWR_CAN2*%
X99748000Y-42330000D03*
%TO.P,J3,6*%
%TO.N,Net-(J3-Pad6)*%
X101780000Y-42330000D03*
%TD*%
%TO.P,J2,8*%
%TO.N,Net-(J2-Pad8)*%
X63112000Y-42280000D03*
D21*
%TO.P,J2,SH*%
%TO.N,GNDD*%
X69589000Y-34150000D03*
X49650000Y-34150000D03*
D20*
%TO.P,J2,12*%
%TO.N,+3V3*%
X66096500Y-44564000D03*
%TO.P,J2,10*%
%TO.N,/PWR_CAN1*%
X55301500Y-44564000D03*
%TO.P,J2,5*%
X60064000Y-40500000D03*
D22*
%TO.P,J2,1*%
%TO.N,/CAN_H*%
X56000000Y-40500000D03*
D20*
%TO.P,J2,7*%
%TO.N,/GND_CAN*%
X62096000Y-40500000D03*
%TO.P,J2,9*%
%TO.N,Net-(J2-Pad9)*%
X53015500Y-44564000D03*
%TO.P,J2,3*%
%TO.N,/GND_CAN*%
X58032000Y-40500000D03*
%TO.P,J2,11*%
%TO.N,Net-(J2-Pad11)*%
X63810500Y-44564000D03*
%TO.P,J2,2*%
%TO.N,/CAN_L*%
X57016000Y-42280000D03*
%TO.P,J2,4*%
%TO.N,/PWR_CAN1*%
X59048000Y-42280000D03*
%TO.P,J2,6*%
%TO.N,Net-(J2-Pad6)*%
X61080000Y-42280000D03*
%TD*%
D10*
%TO.P,SWD1,6*%
%TO.N,/SWO*%
X45800000Y-96300000D03*
%TO.P,SWD1,5*%
%TO.N,/NRST*%
X45800000Y-93760000D03*
%TO.P,SWD1,4*%
%TO.N,/SWDIO*%
X45800000Y-91220000D03*
%TO.P,SWD1,3*%
%TO.N,GNDD*%
X45800000Y-88680000D03*
%TO.P,SWD1,2*%
%TO.N,/SWCLK*%
X45800000Y-86140000D03*
D11*
%TO.P,SWD1,1*%
%TO.N,+3V3*%
X45800000Y-83600000D03*
%TD*%
D23*
%TO.P,PS4,5*%
%TO.N,N/C*%
X59800000Y-102900000D03*
%TO.P,PS4,1*%
X49640000Y-123220000D03*
%TO.P,PS4,4*%
%TO.N,+5VD*%
X69960000Y-102900000D03*
%TO.P,PS4,6*%
%TO.N,GNDD*%
X49640000Y-102900000D03*
%TO.P,PS4,3*%
%TO.N,/VI_high*%
X62340000Y-123220000D03*
%TO.P,PS4,2*%
%TO.N,GNDREF*%
X57260000Y-123220000D03*
%TD*%
D24*
%TO.P,BT1,2*%
%TO.N,GNDD*%
X122505000Y-98749000D03*
D25*
%TO.P,BT1,1*%
%TO.N,Net-(BT1-Pad1)*%
X122505000Y-78749000D03*
%TD*%
D10*
%TO.P,JP2,2*%
%TO.N,+BATT*%
X115165000Y-77649000D03*
D11*
%TO.P,JP2,1*%
%TO.N,Net-(BT1-Pad1)*%
X117705000Y-77649000D03*
%TD*%
D26*
%TO.N,+BATT*%
X85000000Y-83387240D03*
%TO.N,GNDD*%
X125800000Y-63400000D03*
X90300000Y-82400000D03*
X94500000Y-86500000D03*
X91000000Y-71600000D03*
X80400000Y-101400000D03*
X76100000Y-101500000D03*
X76000000Y-108000000D03*
X80262662Y-107837342D03*
X98000004Y-84200000D03*
X58000000Y-69200006D03*
X49400000Y-87400000D03*
X54000000Y-93800000D03*
X60200000Y-93800000D03*
X93000000Y-63800000D03*
X87000000Y-108400000D03*
X120200000Y-63400000D03*
X76800000Y-74800000D03*
X101800000Y-79100000D03*
X82800000Y-80003814D03*
X66000000Y-97200000D03*
X66000000Y-99200000D03*
X66000000Y-98200000D03*
X83200000Y-103000000D03*
X84200000Y-94600000D03*
X83000000Y-92800000D03*
X79400000Y-94600000D03*
X86800000Y-92200000D03*
X94725010Y-93399982D03*
X92146948Y-90977957D03*
X53200000Y-83600000D03*
X53200000Y-84800000D03*
X88400000Y-63400000D03*
X117400000Y-66400000D03*
X111200000Y-66400000D03*
X94400000Y-102200000D03*
X93200000Y-88600000D03*
X110600000Y-80000000D03*
X104000000Y-87000000D03*
X102000000Y-88800000D03*
X100800000Y-88800000D03*
X104000000Y-85400000D03*
X92000004Y-94400000D03*
X98000000Y-101800000D03*
X96200000Y-107800000D03*
X117600000Y-115200000D03*
X120400000Y-115200000D03*
X124800000Y-63400000D03*
X124800000Y-62400000D03*
X93000000Y-62400000D03*
X129200000Y-116000000D03*
X130200000Y-116000000D03*
X77600000Y-84800000D03*
X70400000Y-86500000D03*
X76200000Y-75424891D03*
X82400000Y-90200006D03*
X77400002Y-89800000D03*
X60749998Y-53250000D03*
X80000000Y-66900000D03*
X87600000Y-65900000D03*
X97587340Y-87987340D03*
X110400000Y-112600000D03*
%TO.N,/HRTIM1_CHB2*%
X90433989Y-73638325D03*
X115600000Y-66399994D03*
%TO.N,/HRTIM1_CHB1*%
X91600000Y-73600000D03*
X112600000Y-66400000D03*
%TO.N,/N_GND*%
X100200000Y-108050020D03*
X94524990Y-77800000D03*
%TO.N,/SPI3_MOSI*%
X107000000Y-76800000D03*
X88275043Y-79000000D03*
X85200000Y-78800000D03*
%TO.N,/CAN1_STB*%
X92000000Y-80800000D03*
X91200000Y-69200000D03*
X55800000Y-59200000D03*
%TO.N,/FDCAN1_RX*%
X82854689Y-78429370D03*
X57600000Y-72600000D03*
%TO.N,/USART1_TX*%
X58800000Y-73600000D03*
X81176906Y-75613724D03*
%TO.N,/SPI3_MISO*%
X82000000Y-75000000D03*
X106600000Y-79600000D03*
X89600000Y-78600000D03*
%TO.N,/FDCAN1_TX*%
X83792824Y-79278804D03*
X56612660Y-71787340D03*
%TO.N,/SPI3_SCK*%
X103800000Y-75400000D03*
X85952781Y-76894438D03*
%TO.N,+3V3*%
X98300000Y-80200000D03*
X59185905Y-69167382D03*
X89528249Y-70328249D03*
X99800000Y-76400000D03*
X53200000Y-81200000D03*
X110400000Y-88400000D03*
X109400000Y-87000000D03*
X106200000Y-91200000D03*
X78886897Y-78625167D03*
X85800000Y-89600008D03*
%TO.N,Net-(D1-Pad1)*%
X65500006Y-54500008D03*
X55250000Y-54250000D03*
%TO.N,/GND_CAN*%
X89200000Y-42499990D03*
X50250000Y-41750000D03*
X62000000Y-48200000D03*
%TO.N,/PWR_CAN1*%
X55301500Y-48298500D03*
%TO.N,/PWR_CAN2*%
X65600000Y-48200000D03*
%TO.N,/SPI3_CS*%
X105800000Y-82200000D03*
X87800000Y-85000000D03*
%TO.N,/USART1_RX*%
X59800000Y-74400000D03*
X79867136Y-75175021D03*
%TO.N,/N*%
X115600000Y-104000000D03*
%TO.N,+5VD*%
X101200000Y-94600000D03*
X102400000Y-94600000D03*
X103600000Y-94600000D03*
X94800000Y-59600000D03*
X119000000Y-63400000D03*
X92000054Y-95400011D03*
X126000000Y-58800000D03*
X85000000Y-62800000D03*
%TO.N,+12V*%
X94400000Y-118200000D03*
X106600000Y-118000000D03*
X106600000Y-117000000D03*
X106600000Y-119000000D03*
X88800000Y-47200000D03*
X89600000Y-47200000D03*
X88250000Y-48950000D03*
X120500000Y-49100000D03*
X120199996Y-49999993D03*
X97800000Y-121799982D03*
X100800000Y-122000006D03*
%TO.N,GNDREF*%
X93200000Y-48800000D03*
X93200000Y-50400000D03*
X93200000Y-49600000D03*
X125800000Y-49400000D03*
X125800000Y-50200000D03*
X91600000Y-121400000D03*
X85600000Y-121200000D03*
X85600000Y-120000000D03*
X85600000Y-122400000D03*
X100800000Y-116200000D03*
X98000000Y-116200000D03*
X92230000Y-53000000D03*
X125800000Y-48600000D03*
X124660000Y-53000000D03*
X48400000Y-110200000D03*
X89200000Y-118000000D03*
X111199990Y-120399918D03*
X109800030Y-120599970D03*
X107099989Y-55000008D03*
X106999996Y-56200000D03*
%TO.N,/SW_Node1*%
X85600000Y-53000000D03*
%TO.N,/SW_Node2*%
X117905000Y-53000000D03*
%TO.N,/Neutral_GND_cmd*%
X87400000Y-118000000D03*
%TO.N,/PWM_H1*%
X84200000Y-53000000D03*
%TO.N,/PWM_L1*%
X90555000Y-53000000D03*
%TO.N,/PWM_H2*%
X116635000Y-53035000D03*
%TO.N,/PWM_L2*%
X123029506Y-53033300D03*
%TO.N,/I1_low_op*%
X76400000Y-105500000D03*
%TO.N,/V1_low_op*%
X84700000Y-99000000D03*
%TO.N,/I2_low_op*%
X83600000Y-106800000D03*
%TO.N,/V2_low_op*%
X76200000Y-99000000D03*
%TO.N,/I_high_op*%
X96200000Y-106800000D03*
%TO.N,/V_high_op*%
X96400000Y-100100000D03*
%TO.N,/STLINK_TX*%
X87400000Y-87600000D03*
X59400000Y-90525010D03*
%TO.N,/STLINK_RX*%
X85800000Y-85300000D03*
X53400000Y-88600000D03*
%TO.N,/SWO*%
X61636015Y-80325010D03*
X84600000Y-77000000D03*
%TO.N,/SWCLK*%
X61200000Y-83400000D03*
X86600000Y-76000000D03*
%TO.N,/SWDIO*%
X50800000Y-82200000D03*
X84532515Y-72629215D03*
%TO.N,+5V*%
X121000000Y-103800000D03*
%TO.N,/Temp_mcu*%
X93000000Y-85400000D03*
X103800000Y-108000000D03*
%TO.N,/VREF1024*%
X86800000Y-94900000D03*
%TO.N,/DAC2*%
X88700000Y-91900000D03*
X91634627Y-87014570D03*
%TO.N,/VREF2048*%
X91000000Y-81600000D03*
X92600032Y-96200043D03*
X95350005Y-72750006D03*
%TO.N,/+12VD*%
X60800000Y-117800000D03*
X58600000Y-115800000D03*
X56600000Y-117800000D03*
X118000000Y-124400000D03*
X118000000Y-123600000D03*
%TD*%
D27*
%TO.N,GNDD*%
X83180000Y-102980000D02*
X83200000Y-103000000D01*
X83180000Y-101340000D02*
X83180000Y-102980000D01*
X85720000Y-93720000D02*
X84840000Y-94600000D01*
X84840000Y-94600000D02*
X84200000Y-94600000D01*
X83180000Y-92620000D02*
X83000000Y-92800000D01*
X83180000Y-91180000D02*
X83180000Y-92620000D01*
X80640000Y-93720000D02*
X79760000Y-94600000D01*
X79760000Y-94600000D02*
X79400000Y-94600000D01*
X95880000Y-93720000D02*
X95559982Y-93399982D01*
X95559982Y-93399982D02*
X94725010Y-93399982D01*
X93340000Y-91180000D02*
X92348991Y-91180000D01*
X92348991Y-91180000D02*
X92146948Y-90977957D01*
X93540000Y-101340000D02*
X94400000Y-102200000D01*
X93340000Y-101340000D02*
X93540000Y-101340000D01*
X90800000Y-93720000D02*
X91320004Y-93720000D01*
X91320004Y-93720000D02*
X92000004Y-94400000D01*
%TO.N,/HRTIM1_CHB2*%
X114399994Y-67600000D02*
X115600000Y-66399994D01*
X105474999Y-74325001D02*
X112200000Y-67600000D01*
X112200000Y-67600000D02*
X114399994Y-67600000D01*
X91120665Y-74325001D02*
X105474999Y-74325001D01*
X90433989Y-73638325D02*
X91120665Y-74325001D01*
X94772314Y-69300000D02*
X99450000Y-69300000D01*
X99450000Y-69300000D02*
X100250000Y-68500000D01*
X90433989Y-73638325D02*
X94772314Y-69300000D01*
%TO.N,/HRTIM1_CHB1*%
X112200001Y-66799999D02*
X112600000Y-66400000D01*
X94877007Y-73600004D02*
X95573009Y-73600004D01*
X91600000Y-73600000D02*
X94877003Y-73600000D01*
X94877003Y-73600000D02*
X94877007Y-73600004D01*
X95573011Y-73600002D02*
X105399998Y-73600002D01*
X95573009Y-73600004D02*
X95573011Y-73600002D01*
X105399998Y-73600002D02*
X106650000Y-72350000D01*
X106650000Y-72350000D02*
X112200001Y-66799999D01*
X101575001Y-69924999D02*
X103000000Y-68500000D01*
X95275001Y-69924999D02*
X101575001Y-69924999D01*
X91600000Y-73600000D02*
X95275001Y-69924999D01*
%TO.N,/N_GND*%
X94524990Y-83597992D02*
X94524990Y-77800000D01*
X100200000Y-89273002D02*
X94524990Y-83597992D01*
X100200000Y-108050020D02*
X100200000Y-89273002D01*
%TO.N,/SPI3_MOSI*%
X100148001Y-75674999D02*
X91034359Y-75674999D01*
X107000000Y-76800000D02*
X101273002Y-76800000D01*
X101273002Y-76800000D02*
X100148001Y-75674999D01*
X91034359Y-75674999D02*
X88275043Y-78434315D01*
X88275043Y-78434315D02*
X88275043Y-79000000D01*
X85599999Y-79199999D02*
X85200000Y-78800000D01*
X85599999Y-80400001D02*
X85599999Y-79199999D01*
X85200000Y-80800000D02*
X85599999Y-80400001D01*
X80036410Y-80800000D02*
X85200000Y-80800000D01*
X77636366Y-78399956D02*
X80036410Y-80800000D01*
X54759956Y-78399956D02*
X77636366Y-78399956D01*
X45700000Y-69340000D02*
X54759956Y-78399956D01*
%TO.N,/CAN1_STB*%
X70600000Y-74000000D02*
X56199999Y-59599999D01*
X81500000Y-74000000D02*
X70600000Y-74000000D01*
X86300000Y-69200000D02*
X81500000Y-74000000D01*
X91200000Y-69200000D02*
X86300000Y-69200000D01*
X56199999Y-59599999D02*
X55800000Y-59200000D01*
%TO.N,/FDCAN1_RX*%
X57600000Y-73863170D02*
X57600000Y-72600000D01*
X61236764Y-77499934D02*
X57600000Y-73863170D01*
X82854689Y-78429370D02*
X80875330Y-76450011D01*
X79313579Y-76450011D02*
X78263656Y-77499934D01*
X80875330Y-76450011D02*
X79313579Y-76450011D01*
X78263656Y-77499934D02*
X61236764Y-77499934D01*
%TO.N,/USART1_TX*%
X79127179Y-76000000D02*
X80790630Y-76000000D01*
X78077256Y-77049923D02*
X79127179Y-76000000D01*
X61423164Y-77049923D02*
X78077256Y-77049923D01*
X58800000Y-74426759D02*
X61423164Y-77049923D01*
X58800000Y-73600000D02*
X58800000Y-74426759D01*
X80790630Y-76000000D02*
X81176906Y-75613724D01*
%TO.N,/SPI3_MISO*%
X89800000Y-78600000D02*
X89600000Y-78600000D01*
X92200000Y-76200000D02*
X89800000Y-78600000D01*
X97800000Y-76200000D02*
X92200000Y-76200000D01*
X99200000Y-77600000D02*
X97800000Y-76200000D01*
X104600000Y-77600000D02*
X99200000Y-77600000D01*
X106600000Y-79600000D02*
X104600000Y-77600000D01*
X53363589Y-66800000D02*
X45700000Y-66800000D01*
X62713490Y-76149901D02*
X53363589Y-66800000D01*
X79386399Y-74450011D02*
X77686509Y-76149901D01*
X81450011Y-74450011D02*
X79386399Y-74450011D01*
X77686509Y-76149901D02*
X62713490Y-76149901D01*
X82000000Y-75000000D02*
X81450011Y-74450011D01*
%TO.N,/FDCAN1_TX*%
X56612660Y-73512241D02*
X56612660Y-71787340D01*
X78450055Y-77949945D02*
X61050364Y-77949945D01*
X80400000Y-77000000D02*
X79400000Y-77000000D01*
X83792824Y-79278804D02*
X82678804Y-79278804D01*
X61050364Y-77949945D02*
X56612660Y-73512241D01*
X79400000Y-77000000D02*
X78450055Y-77949945D01*
X82678804Y-79278804D02*
X80400000Y-77000000D01*
%TO.N,/SPI3_SCK*%
X89800001Y-75000001D02*
X86200000Y-71400000D01*
X83400000Y-72736410D02*
X83400000Y-74341657D01*
X83400000Y-74341657D02*
X85952781Y-76894438D01*
X103800000Y-75400000D02*
X103400001Y-75000001D01*
X84736410Y-71400000D02*
X83400000Y-72736410D01*
X86200000Y-71400000D02*
X84736410Y-71400000D01*
X103400001Y-75000001D02*
X89800001Y-75000001D01*
X86650011Y-77591668D02*
X85952781Y-76894438D01*
X86650011Y-80622811D02*
X86650011Y-77591668D01*
X85572800Y-81700022D02*
X86650011Y-80622811D01*
X79663610Y-81700022D02*
X85572800Y-81700022D01*
X77263566Y-79299978D02*
X79663610Y-81700022D01*
X65727200Y-79299978D02*
X77263566Y-79299978D01*
X60850012Y-81050012D02*
X63977166Y-81050012D01*
X58800000Y-79000000D02*
X60850012Y-81050012D01*
X54000000Y-79000000D02*
X58800000Y-79000000D01*
X63977166Y-81050012D02*
X65727200Y-79299978D01*
X46880000Y-71880000D02*
X54000000Y-79000000D01*
X45700000Y-71880000D02*
X46880000Y-71880000D01*
D28*
%TO.N,Net-(D1-Pad1)*%
X65500006Y-54500008D02*
X55500008Y-54500008D01*
X55500008Y-54500008D02*
X55250000Y-54250000D01*
D27*
%TO.N,/CAN_H*%
X55940999Y-40559001D02*
X55940999Y-43259001D01*
X56000000Y-40500000D02*
X55940999Y-40559001D01*
X55940999Y-43259001D02*
X57981998Y-45300000D01*
X57981998Y-45300000D02*
X61000000Y-45300000D01*
X62944999Y-43355001D02*
X84344999Y-43355001D01*
X61000000Y-45300000D02*
X62944999Y-43355001D01*
X87150000Y-40550000D02*
X96700000Y-40550000D01*
X84344999Y-43355001D02*
X87150000Y-40550000D01*
%TO.N,/SPI3_CS*%
X104200000Y-80600000D02*
X105800000Y-82200000D01*
X101400000Y-80600000D02*
X104200000Y-80600000D01*
X98200000Y-77400000D02*
X101400000Y-80600000D01*
X98200000Y-77400000D02*
X97600000Y-76800000D01*
X97600000Y-76800000D02*
X93400000Y-76800000D01*
X93400000Y-76800000D02*
X87800000Y-82400000D01*
X87800000Y-82400000D02*
X87800000Y-85000000D01*
%TO.N,/USART1_RX*%
X77876560Y-76599912D02*
X79301451Y-75175021D01*
X61999912Y-76599912D02*
X77876560Y-76599912D01*
X59800000Y-74400000D02*
X61999912Y-76599912D01*
X79301451Y-75175021D02*
X79867136Y-75175021D01*
D28*
%TO.N,/N*%
X116880000Y-104000000D02*
X117000000Y-103880000D01*
X115600000Y-104000000D02*
X116880000Y-104000000D01*
D27*
%TO.N,+5VD*%
X91659989Y-95400011D02*
X92000054Y-95400011D01*
X90800000Y-96260000D02*
X91659989Y-95400011D01*
D28*
%TO.N,GNDREF*%
X85600000Y-120000000D02*
X84200000Y-121400000D01*
X100800000Y-116200000D02*
X100200000Y-116800000D01*
X100200000Y-116800000D02*
X99800000Y-116800000D01*
X99800000Y-116800000D02*
X99400000Y-117200000D01*
D27*
X76360000Y-70040000D02*
X76360000Y-70860000D01*
X77447001Y-68952999D02*
X76360000Y-70040000D01*
X76810010Y-67010010D02*
X77447001Y-67647001D01*
X76810010Y-57189990D02*
X76810010Y-67010010D01*
X91149990Y-56650010D02*
X77349990Y-56650010D01*
X92230000Y-55570000D02*
X91149990Y-56650010D01*
X77447001Y-67647001D02*
X77447001Y-68952999D01*
X77349990Y-56650010D02*
X76810010Y-57189990D01*
X92230000Y-53000000D02*
X92230000Y-55570000D01*
X124660000Y-53000000D02*
X124660000Y-55609990D01*
X130787001Y-69772999D02*
X129700000Y-70860000D01*
X130787001Y-57150591D02*
X130787001Y-69772999D01*
X129386401Y-55749991D02*
X130787001Y-57150591D01*
X124800000Y-55749990D02*
X129386401Y-55749991D01*
X124660000Y-55609990D02*
X124800000Y-55749990D01*
X48420000Y-108960000D02*
X48420000Y-109980000D01*
X48400000Y-110000000D02*
X48400000Y-110200000D01*
X48420000Y-109980000D02*
X48400000Y-110000000D01*
X89060000Y-117860000D02*
X89200000Y-118000000D01*
X89060000Y-116580000D02*
X89060000Y-117860000D01*
D28*
X110600000Y-118200000D02*
X110600000Y-119800000D01*
X110600000Y-119800000D02*
X109800030Y-120599970D01*
%TO.N,/VI_high*%
X60139999Y-125420001D02*
X62340000Y-123220000D01*
X56020001Y-125420001D02*
X60139999Y-125420001D01*
X53400000Y-109600000D02*
X53400000Y-122800000D01*
X53400000Y-122800000D02*
X56020001Y-125420001D01*
X50220000Y-106420000D02*
X53400000Y-109600000D01*
X48420000Y-106420000D02*
X50220000Y-106420000D01*
D27*
%TO.N,/SW_Node1*%
X77005001Y-53725001D02*
X76360000Y-53080000D01*
X84874999Y-53725001D02*
X77005001Y-53725001D01*
X85600000Y-53000000D02*
X84874999Y-53725001D01*
%TO.N,/SW_Node2*%
X127163590Y-47400000D02*
X128000000Y-48236410D01*
X118236410Y-47400000D02*
X127163590Y-47400000D01*
X117085010Y-48551400D02*
X118236410Y-47400000D01*
X128000000Y-51380000D02*
X129700000Y-53080000D01*
X128000000Y-48236410D02*
X128000000Y-51380000D01*
X117085010Y-52180010D02*
X117085010Y-48551400D01*
X117905000Y-53000000D02*
X117085010Y-52180010D01*
%TO.N,/Neutral_GND_cmd*%
X86800000Y-116860000D02*
X86800000Y-117400000D01*
X86800000Y-117400000D02*
X87400000Y-118000000D01*
X86520000Y-116580000D02*
X86800000Y-116860000D01*
%TO.N,/PWM_H1*%
X76740000Y-50540000D02*
X76360000Y-50540000D01*
X79200000Y-53000000D02*
X76740000Y-50540000D01*
X84200000Y-53000000D02*
X79200000Y-53000000D01*
%TO.N,/PWM_L1*%
X77000000Y-56200000D02*
X76360000Y-56840000D01*
X76360000Y-56840000D02*
X76360000Y-68320000D01*
X89800000Y-56200000D02*
X77000000Y-56200000D01*
X90555000Y-55445000D02*
X89800000Y-56200000D01*
X90555000Y-53045000D02*
X90555000Y-55445000D01*
%TO.N,/PWM_H2*%
X129700000Y-49300000D02*
X129700000Y-50540000D01*
X127349989Y-46949989D02*
X129700000Y-49300000D01*
X118050010Y-46949989D02*
X127349989Y-46949989D01*
X116634999Y-48365000D02*
X118050010Y-46949989D01*
X116635000Y-53035000D02*
X116634999Y-48365000D01*
%TO.N,/PWM_L2*%
X123029506Y-53033300D02*
X123029506Y-55429506D01*
X123029506Y-55429506D02*
X123800000Y-56200000D01*
X123800000Y-56200000D02*
X129200000Y-56200000D01*
X129700000Y-56700000D02*
X129700000Y-68320000D01*
X129200000Y-56200000D02*
X129700000Y-56700000D01*
%TO.N,/I1_low_op*%
X77800000Y-104100000D02*
X76400000Y-105500000D01*
X77800000Y-99100000D02*
X77800000Y-104100000D01*
X85720000Y-91180000D02*
X77800000Y-99100000D01*
%TO.N,/V1_low_op*%
X83380000Y-99000000D02*
X83180000Y-98800000D01*
X84700000Y-99000000D02*
X83380000Y-99000000D01*
%TO.N,/I2_low_op*%
X90038001Y-91941999D02*
X90800000Y-91180000D01*
X83600000Y-104150000D02*
X88600000Y-99150000D01*
X88600000Y-93380000D02*
X90038001Y-91941999D01*
X88600000Y-99150000D02*
X88600000Y-93380000D01*
X83600000Y-106800000D02*
X83600000Y-104150000D01*
%TO.N,/V2_low_op*%
X76200000Y-98950000D02*
X76200000Y-99000000D01*
X80640000Y-91960000D02*
X78600000Y-94000000D01*
X78600000Y-96550000D02*
X76200000Y-98950000D01*
X78600000Y-94000000D02*
X78600000Y-96550000D01*
X80640000Y-91180000D02*
X80640000Y-91960000D01*
%TO.N,/I_high_op*%
X93375013Y-96697991D02*
X93375013Y-93684987D01*
X96200000Y-106800000D02*
X91700000Y-102300000D01*
X91700000Y-98373004D02*
X93375013Y-96697991D01*
X91700000Y-102300000D02*
X91700000Y-98373004D01*
X93375013Y-93684987D02*
X95880000Y-91180000D01*
%TO.N,/V_high_op*%
X95100000Y-98800000D02*
X93340000Y-98800000D01*
X96400000Y-100100000D02*
X95100000Y-98800000D01*
%TO.N,/STLINK_TX*%
X87400000Y-87600000D02*
X82436410Y-87600000D01*
X61525001Y-92650011D02*
X59400000Y-90525010D01*
X82436410Y-87600000D02*
X77386400Y-92650011D01*
X77386400Y-92650011D02*
X61525001Y-92650011D01*
%TO.N,/STLINK_RX*%
X62200000Y-92200000D02*
X58600000Y-88600000D01*
X77200000Y-92200000D02*
X62200000Y-92200000D01*
X84100000Y-85300000D02*
X77200000Y-92200000D01*
X58600000Y-88600000D02*
X53965685Y-88600000D01*
X85800000Y-85300000D02*
X84100000Y-85300000D01*
X53965685Y-88600000D02*
X53400000Y-88600000D01*
%TO.N,/SWO*%
X77449966Y-78849967D02*
X79850010Y-81250011D01*
X86200000Y-80436411D02*
X86200000Y-78600000D01*
X61636015Y-80325010D02*
X64065757Y-80325010D01*
X79850010Y-81250011D02*
X85386400Y-81250011D01*
X86200000Y-78600000D02*
X84600000Y-77000000D01*
X64065757Y-80325010D02*
X65540800Y-78849967D01*
X65540800Y-78849967D02*
X77449966Y-78849967D01*
X85386400Y-81250011D02*
X86200000Y-80436411D01*
%TO.N,/SWCLK*%
X79477210Y-82150033D02*
X85759200Y-82150033D01*
X87100022Y-76500022D02*
X86600000Y-76000000D01*
X87100022Y-80809211D02*
X87100022Y-76500022D01*
X85759200Y-82150033D02*
X87100022Y-80809211D01*
X65913600Y-79749989D02*
X77077166Y-79749989D01*
X61200000Y-83400000D02*
X62263589Y-83400000D01*
X62263589Y-83400000D02*
X65913600Y-79749989D01*
X77077166Y-79749989D02*
X79477210Y-82150033D01*
%TO.N,/SWDIO*%
X58200000Y-82200000D02*
X60324999Y-84324999D01*
X79290810Y-82600044D02*
X85945600Y-82600044D01*
X87550033Y-80995611D02*
X87550033Y-75646733D01*
X61975001Y-84324999D02*
X66100000Y-80200000D01*
X50800000Y-82200000D02*
X58200000Y-82200000D01*
X66100000Y-80200000D02*
X76890766Y-80200000D01*
X76890766Y-80200000D02*
X79290810Y-82600044D01*
X60324999Y-84324999D02*
X61975001Y-84324999D01*
X85945600Y-82600044D02*
X87550033Y-80995611D01*
X87550033Y-75646733D02*
X84532515Y-72629215D01*
D28*
%TO.N,+5V*%
X120920000Y-103880000D02*
X121000000Y-103800000D01*
X119540000Y-103880000D02*
X120920000Y-103880000D01*
D27*
%TO.N,/Temp_mcu*%
X103000000Y-108800000D02*
X103800000Y-108000000D01*
X99600000Y-108800000D02*
X103000000Y-108800000D01*
X99000000Y-91200000D02*
X99000000Y-108200000D01*
X96265598Y-88465598D02*
X99000000Y-91200000D01*
X95265598Y-88465598D02*
X96265598Y-88465598D01*
X93000000Y-86200000D02*
X95265598Y-88465598D01*
X99000000Y-108200000D02*
X99600000Y-108800000D01*
X93000000Y-85400000D02*
X93000000Y-86200000D01*
%TO.N,/VREF1024*%
X85720000Y-95980000D02*
X85720000Y-96260000D01*
X86800000Y-94900000D02*
X85720000Y-95980000D01*
%TO.N,/DAC2*%
X88700000Y-91900000D02*
X88700000Y-89949197D01*
X88700000Y-89949197D02*
X91634627Y-87014570D01*
%TO.N,/VREF2048*%
X91399999Y-85526997D02*
X94525001Y-88651999D01*
X91399999Y-81999999D02*
X91399999Y-85526997D01*
X91000000Y-81600000D02*
X91399999Y-81999999D01*
X92925002Y-93498588D02*
X92925002Y-95875073D01*
X94525001Y-91898589D02*
X92925002Y-93498588D01*
X92925002Y-95875073D02*
X92600032Y-96200043D01*
X94525001Y-88651999D02*
X94525001Y-91898589D01*
X95915690Y-72750006D02*
X95350005Y-72750006D01*
X98499994Y-72750006D02*
X95915690Y-72750006D01*
X100000000Y-71250000D02*
X98499994Y-72750006D01*
%TD*%
M02*
