M48
; DRILL file {KiCad 5.1.7-a382d34a8~88~ubuntu20.04.1} date Fri May 21 21:22:54 2021
; FORMAT={-:-/ absolute / inch / decimal}
; #@! TF.CreationDate,2021-05-21T21:22:54+02:00
; #@! TF.GenerationSoftware,Kicad,Pcbnew,5.1.7-a382d34a8~88~ubuntu20.04.1
FMAT,2
INCH
T1C0.0157
T2C0.0256
T3C0.0354
T4C0.0394
T5C0.0591
T6C0.0984
T7C0.1575
T8C0.1260
%
G90
G05
T1
X1.9055Y-4.3386
X1.9449Y-3.4409
X1.9783Y-1.6437
X2.0Y-3.2362
X2.0945Y-3.1969
X2.0945Y-3.2913
X2.0945Y-3.3386
X2.1024Y-3.4882
X2.126Y-3.6929
X2.1752Y-2.1358
X2.1772Y-1.9015
X2.1969Y-2.3307
X2.2283Y-4.6378
X2.2288Y-2.8263
X2.2677Y-2.8583
X2.2835Y-2.7244
X2.3071Y-4.5591
X2.315Y-2.8976
X2.3302Y-2.7231
X2.3386Y-3.564
X2.3543Y-2.9291
X2.3701Y-3.6929
X2.3917Y-2.0965
X2.3937Y-4.6378
X2.4094Y-3.2835
X2.4266Y-3.1624
X2.4409Y-1.8976
X2.5787Y-2.1457
X2.5827Y-1.8976
X2.5984Y-3.8268
X2.5984Y-3.8661
X2.5984Y-3.9055
X2.7717Y-3.4055
X2.9921Y-4.252
X2.9961Y-3.9961
X3.0Y-2.9695
X3.0Y-3.8976
X3.0079Y-4.1535
X3.0236Y-2.9449
X3.0472Y-3.5354
X3.0551Y-3.3386
X3.1058Y-3.0955
X3.126Y-3.7244
X3.1444Y-2.9596
X3.1496Y-2.6339
X3.1599Y-4.2456
X3.1654Y-3.9921
X3.1959Y-2.9769
X3.2283Y-2.9528
X3.2441Y-3.5512
X3.2598Y-3.1498
X3.262Y-3.0878
X3.2677Y-3.6535
X3.2756Y-4.0551
X3.2913Y-4.2047
X3.2989Y-3.1212
X3.315Y-2.0866
X3.315Y-3.7244
X3.3281Y-2.8594
X3.3307Y-3.0315
X3.3346Y-3.8976
X3.3465Y-2.4724
X3.3465Y-3.283
X3.3543Y-3.1024
X3.3701Y-2.0866
X3.3701Y-4.7244
X3.3701Y-4.7717
X3.3701Y-4.8189
X3.378Y-3.3583
X3.378Y-3.5276
X3.384Y-3.0273
X3.4094Y-2.9921
X3.4173Y-3.6299
X3.4173Y-3.7362
X3.4252Y-4.2677
X3.4409Y-3.4488
X3.4409Y-4.6457
X3.4488Y-2.5945
X3.4567Y-3.3465
X3.4744Y-1.9272
X3.4754Y-3.1102
X3.4803Y-2.4961
X3.4921Y-3.6181
X3.4961Y-1.8583
X3.5118Y-1.6732
X3.5118Y-4.6457
X3.5247Y-2.7688
X3.5276Y-1.8583
X3.5276Y-3.0945
X3.5551Y-3.2441
X3.5604Y-2.8991
X3.5652Y-2.0866
X3.5827Y-2.8189
X3.5827Y-3.2126
X3.5906Y-2.7244
X3.6063Y-2.8976
X3.6063Y-4.7795
X3.6077Y-3.4258
X3.622Y-3.1811
X3.622Y-3.7165
X3.622Y-3.7559
X3.6278Y-3.5818
X3.6311Y-2.0866
X3.6457Y-3.7874
X3.6614Y-2.4567
X3.6614Y-2.5118
X3.6614Y-3.3622
X3.6693Y-1.9213
X3.6693Y-1.9528
X3.6693Y-1.9843
X3.6693Y-3.4882
X3.7165Y-4.0236
X3.7165Y-4.6535
X3.7205Y-3.4055
X3.7215Y-3.063
X3.7293Y-3.6772
X3.7323Y-2.3465
X3.7539Y-2.8642
X3.7874Y-4.2047
X3.7874Y-4.2441
X3.7953Y-3.9409
X3.842Y-3.4641
X3.8504Y-4.7953
X3.8583Y-4.0079
X3.8583Y-4.5748
X3.8583Y-3.315
X3.8701Y-3.1575
X3.9291Y-3.0079
X3.9449Y-4.2539
X3.9685Y-3.4961
X3.9685Y-4.5748
X3.9685Y-4.8031
X3.9843Y-3.7244
X4.0079Y-3.1142
X4.0157Y-3.4961
X4.0315Y-3.7244
X4.0787Y-3.7244
X4.0866Y-2.9685
X4.0866Y-4.252
X4.0945Y-3.3622
X4.0945Y-3.4252
X4.1654Y-3.2362
X4.1811Y-3.5906
X4.1969Y-3.1339
X4.1969Y-4.6063
X4.1969Y-4.6457
X4.1969Y-4.685
X4.2126Y-2.2126
X4.2126Y-3.0236
X4.2165Y-2.1654
X4.3071Y-3.4252
X4.3228Y-4.748
X4.3465Y-3.4803
X4.3465Y-4.4331
X4.3543Y-3.1496
X4.378Y-4.7402
X4.378Y-2.6142
X4.4331Y-2.6142
X4.5512Y-2.6142
X4.5512Y-4.0945
X4.5919Y-2.088
X4.622Y-2.6142
X4.6299Y-4.5354
X4.6419Y-2.0866
X4.6457Y-4.8661
X4.6457Y-4.8976
X4.685Y-2.4961
X4.7323Y-1.9685
X4.7323Y-2.4961
X4.7402Y-4.5354
X4.7441Y-1.9331
X4.7638Y-4.0866
X4.8437Y-2.0879
X4.9079Y-2.0866
X4.9134Y-2.4567
X4.9134Y-2.4961
X4.9528Y-1.9134
X4.9528Y-1.9449
X4.9528Y-1.9764
X4.9528Y-2.4961
X4.9606Y-2.315
X5.0866Y-4.5669
X5.126Y-4.5669
T2
X4.0878Y-3.937
X4.1378Y-3.937
T3
X2.0872Y-1.7545
X2.1772Y-1.7545
X2.2047Y-1.5945
X2.2447Y-1.6646
X2.2847Y-1.5945
X2.3247Y-1.6646
X2.3647Y-1.5945
X2.4047Y-1.6646
X2.4447Y-1.5945
X2.4847Y-1.6646
X2.5122Y-1.7545
X2.6022Y-1.7545
X3.6896Y-1.7565
X3.7796Y-1.7565
X3.8071Y-1.5965
X3.8471Y-1.6665
X3.8871Y-1.5965
X3.9271Y-1.6665
X3.9671Y-1.5965
X4.0071Y-1.6665
X4.0471Y-1.5965
X4.0871Y-1.6665
X4.1146Y-1.7565
X4.2046Y-1.7565
T4
X1.7161Y-1.7717
X3.9469Y-2.8051
X4.4142Y-4.3622
X4.5142Y-4.3622
X4.6142Y-4.3622
X4.7142Y-4.3622
X3.1594Y-2.7264
X1.7161Y-1.9193
X1.8031Y-2.6299
X1.8031Y-2.7299
X1.8031Y-2.8299
X1.8031Y-2.9299
X1.8031Y-3.0299
X4.3622Y-3.3858
X2.7362Y-2.3425
X1.8031Y-3.2913
X1.8031Y-3.3913
X1.8031Y-3.4913
X1.8031Y-3.5913
X1.8031Y-3.6913
X1.8031Y-3.7913
X4.5341Y-3.057
X4.6341Y-3.057
X4.4252Y-3.0591
X2.7362Y-2.4803
X2.5748Y-2.4803
X3.2795Y-2.7264
X1.8031Y-2.2756
X1.8031Y-2.3756
X1.8031Y-2.4756
X4.0551Y-2.6969
X4.0236Y-2.1173
X4.0236Y-2.2173
X4.0236Y-2.3173
X4.0236Y-2.4173
X4.0551Y-2.8051
X3.9469Y-2.6969
X2.5748Y-2.3425
T5
X1.9543Y-4.0512
X1.9543Y-4.8512
X2.2543Y-4.8512
X2.3543Y-4.0512
X2.4543Y-4.8512
X2.7543Y-4.0512
T6
X1.9547Y-1.3445
X2.7397Y-1.3445
X3.5571Y-1.3465
X4.3421Y-1.3465
T7
X4.823Y-3.1004
X4.823Y-3.8878
T8
X1.7126Y-4.1142
X1.7343Y-1.189
X2.5Y-2.815
X3.4843Y-4.1142
X4.4685Y-2.815
X5.2343Y-1.189
X5.2559Y-4.1142
T0
M30
