%TF.GenerationSoftware,KiCad,Pcbnew,5.1.7-a382d34a8~88~ubuntu20.04.1*%
%TF.CreationDate,2021-05-21T21:27:29+02:00*%
%TF.ProjectId,Shield_Nucleo,53686965-6c64-45f4-9e75-636c656f2e6b,rev?*%
%TF.SameCoordinates,Original*%
%TF.FileFunction,Legend,Top*%
%TF.FilePolarity,Positive*%
%FSLAX46Y46*%
G04 Gerber Fmt 4.6, Leading zero omitted, Abs format (unit mm)*
G04 Created by KiCad (PCBNEW 5.1.7-a382d34a8~88~ubuntu20.04.1) date 2021-05-21 21:27:29*
%MOMM*%
%LPD*%
G01*
G04 APERTURE LIST*
%ADD10C,0.120000*%
%ADD11C,0.150000*%
%ADD12C,0.300000*%
%ADD13C,0.127000*%
%ADD14C,0.200000*%
%ADD15C,0.010000*%
%ADD16C,0.015000*%
G04 APERTURE END LIST*
D10*
X133000000Y-112000000D02*
X133000000Y-126400000D01*
X132000000Y-113200000D02*
X132000000Y-126400000D01*
X127200000Y-113200000D02*
X132000000Y-113200000D01*
X128600000Y-112000000D02*
X133000000Y-112000000D01*
X73300000Y-46800000D02*
X136000000Y-46800000D01*
X72200000Y-45800000D02*
X136000000Y-45800000D01*
X72200000Y-45800000D02*
X72200000Y-72600000D01*
X73300000Y-46800000D02*
X73300000Y-71700000D01*
X73300000Y-71700000D02*
X77500000Y-71700000D01*
X72200000Y-72600000D02*
X78700000Y-72600000D01*
X128600000Y-56800000D02*
X128600000Y-112000000D01*
X77500000Y-56800000D02*
X77500000Y-71700000D01*
X78700000Y-58300000D02*
X78700000Y-72600000D01*
X77600000Y-56800000D02*
X128600000Y-56800000D01*
X127100000Y-58300000D02*
X127100000Y-113200000D01*
X78700000Y-58300000D02*
X127100000Y-58300000D01*
X41000000Y-126500000D02*
X41000000Y-26500000D01*
X136000000Y-126500000D02*
X136000000Y-26500000D01*
D11*
X112726190Y-32452380D02*
X113059523Y-33452380D01*
X113392857Y-32452380D01*
X114250000Y-33452380D02*
X113678571Y-33452380D01*
X113964285Y-33452380D02*
X113964285Y-32452380D01*
X113869047Y-32595238D01*
X113773809Y-32690476D01*
X113678571Y-32738095D01*
X114678571Y-33357142D02*
X114726190Y-33404761D01*
X114678571Y-33452380D01*
X114630952Y-33404761D01*
X114678571Y-33357142D01*
X114678571Y-33452380D01*
X115345238Y-32452380D02*
X115440476Y-32452380D01*
X115535714Y-32500000D01*
X115583333Y-32547619D01*
X115630952Y-32642857D01*
X115678571Y-32833333D01*
X115678571Y-33071428D01*
X115630952Y-33261904D01*
X115583333Y-33357142D01*
X115535714Y-33404761D01*
X115440476Y-33452380D01*
X115345238Y-33452380D01*
X115250000Y-33404761D01*
X115202380Y-33357142D01*
X115154761Y-33261904D01*
X115107142Y-33071428D01*
X115107142Y-32833333D01*
X115154761Y-32642857D01*
X115202380Y-32547619D01*
X115250000Y-32500000D01*
X115345238Y-32452380D01*
X112742857Y-34907142D02*
X112742857Y-34007142D01*
X112957142Y-34007142D01*
X113085714Y-34050000D01*
X113171428Y-34135714D01*
X113214285Y-34221428D01*
X113257142Y-34392857D01*
X113257142Y-34521428D01*
X113214285Y-34692857D01*
X113171428Y-34778571D01*
X113085714Y-34864285D01*
X112957142Y-34907142D01*
X112742857Y-34907142D01*
X113985714Y-34864285D02*
X113900000Y-34907142D01*
X113728571Y-34907142D01*
X113642857Y-34864285D01*
X113600000Y-34778571D01*
X113600000Y-34435714D01*
X113642857Y-34350000D01*
X113728571Y-34307142D01*
X113900000Y-34307142D01*
X113985714Y-34350000D01*
X114028571Y-34435714D01*
X114028571Y-34521428D01*
X113600000Y-34607142D01*
X114371428Y-34864285D02*
X114457142Y-34907142D01*
X114628571Y-34907142D01*
X114714285Y-34864285D01*
X114757142Y-34778571D01*
X114757142Y-34735714D01*
X114714285Y-34650000D01*
X114628571Y-34607142D01*
X114500000Y-34607142D01*
X114414285Y-34564285D01*
X114371428Y-34478571D01*
X114371428Y-34435714D01*
X114414285Y-34350000D01*
X114500000Y-34307142D01*
X114628571Y-34307142D01*
X114714285Y-34350000D01*
X115142857Y-34907142D02*
X115142857Y-34307142D01*
X115142857Y-34007142D02*
X115100000Y-34050000D01*
X115142857Y-34092857D01*
X115185714Y-34050000D01*
X115142857Y-34007142D01*
X115142857Y-34092857D01*
X115957142Y-34307142D02*
X115957142Y-35035714D01*
X115914285Y-35121428D01*
X115871428Y-35164285D01*
X115785714Y-35207142D01*
X115657142Y-35207142D01*
X115571428Y-35164285D01*
X115957142Y-34864285D02*
X115871428Y-34907142D01*
X115700000Y-34907142D01*
X115614285Y-34864285D01*
X115571428Y-34821428D01*
X115528571Y-34735714D01*
X115528571Y-34478571D01*
X115571428Y-34392857D01*
X115614285Y-34350000D01*
X115700000Y-34307142D01*
X115871428Y-34307142D01*
X115957142Y-34350000D01*
X116385714Y-34307142D02*
X116385714Y-34907142D01*
X116385714Y-34392857D02*
X116428571Y-34350000D01*
X116514285Y-34307142D01*
X116642857Y-34307142D01*
X116728571Y-34350000D01*
X116771428Y-34435714D01*
X116771428Y-34907142D01*
X118142857Y-34007142D02*
X118142857Y-34650000D01*
X118100000Y-34778571D01*
X118014285Y-34864285D01*
X117885714Y-34907142D01*
X117800000Y-34907142D01*
X118571428Y-34821428D02*
X118614285Y-34864285D01*
X118571428Y-34907142D01*
X118528571Y-34864285D01*
X118571428Y-34821428D01*
X118571428Y-34907142D01*
X118957142Y-34650000D02*
X119385714Y-34650000D01*
X118871428Y-34907142D02*
X119171428Y-34007142D01*
X119471428Y-34907142D01*
X119900000Y-34907142D02*
X119814285Y-34864285D01*
X119771428Y-34778571D01*
X119771428Y-34007142D01*
X120242857Y-34907142D02*
X120242857Y-34307142D01*
X120242857Y-34007142D02*
X120200000Y-34050000D01*
X120242857Y-34092857D01*
X120285714Y-34050000D01*
X120242857Y-34007142D01*
X120242857Y-34092857D01*
X120671428Y-34307142D02*
X120671428Y-34907142D01*
X120671428Y-34392857D02*
X120714285Y-34350000D01*
X120800000Y-34307142D01*
X120928571Y-34307142D01*
X121014285Y-34350000D01*
X121057142Y-34435714D01*
X121057142Y-34907142D01*
X121828571Y-34864285D02*
X121742857Y-34907142D01*
X121571428Y-34907142D01*
X121485714Y-34864285D01*
X121442857Y-34778571D01*
X121442857Y-34435714D01*
X121485714Y-34350000D01*
X121571428Y-34307142D01*
X121742857Y-34307142D01*
X121828571Y-34350000D01*
X121871428Y-34435714D01*
X121871428Y-34521428D01*
X121442857Y-34607142D01*
X122257142Y-34907142D02*
X122257142Y-34307142D01*
X122257142Y-34007142D02*
X122214285Y-34050000D01*
X122257142Y-34092857D01*
X122300000Y-34050000D01*
X122257142Y-34007142D01*
X122257142Y-34092857D01*
D12*
X112466666Y-38500000D02*
X112400000Y-38566666D01*
X112200000Y-38633333D01*
X112066666Y-38633333D01*
X111866666Y-38566666D01*
X111733333Y-38433333D01*
X111666666Y-38300000D01*
X111600000Y-38033333D01*
X111600000Y-37833333D01*
X111666666Y-37566666D01*
X111733333Y-37433333D01*
X111866666Y-37300000D01*
X112066666Y-37233333D01*
X112200000Y-37233333D01*
X112400000Y-37300000D01*
X112466666Y-37366666D01*
X113066666Y-37900000D02*
X113533333Y-37900000D01*
X113733333Y-38633333D02*
X113066666Y-38633333D01*
X113066666Y-37233333D01*
X113733333Y-37233333D01*
X115133333Y-38633333D02*
X114666666Y-37966666D01*
X114333333Y-38633333D02*
X114333333Y-37233333D01*
X114866666Y-37233333D01*
X115000000Y-37300000D01*
X115066666Y-37366666D01*
X115133333Y-37500000D01*
X115133333Y-37700000D01*
X115066666Y-37833333D01*
X115000000Y-37900000D01*
X114866666Y-37966666D01*
X114333333Y-37966666D01*
X115733333Y-38633333D02*
X115733333Y-37233333D01*
X116533333Y-38633333D01*
X116533333Y-37233333D01*
X117200000Y-38100000D02*
X118266666Y-38100000D01*
X119200000Y-37233333D02*
X119466666Y-37233333D01*
X119600000Y-37300000D01*
X119733333Y-37433333D01*
X119800000Y-37700000D01*
X119800000Y-38166666D01*
X119733333Y-38433333D01*
X119600000Y-38566666D01*
X119466666Y-38633333D01*
X119200000Y-38633333D01*
X119066666Y-38566666D01*
X118933333Y-38433333D01*
X118866666Y-38166666D01*
X118866666Y-37700000D01*
X118933333Y-37433333D01*
X119066666Y-37300000D01*
X119200000Y-37233333D01*
X120400000Y-38633333D02*
X120400000Y-37233333D01*
X120400000Y-37900000D02*
X121200000Y-37900000D01*
X121200000Y-38633333D02*
X121200000Y-37233333D01*
X122533333Y-38633333D02*
X121866666Y-38633333D01*
X121866666Y-37233333D01*
X123000000Y-38100000D02*
X124066666Y-38100000D01*
X124666666Y-38566666D02*
X124866666Y-38633333D01*
X125200000Y-38633333D01*
X125333333Y-38566666D01*
X125400000Y-38500000D01*
X125466666Y-38366666D01*
X125466666Y-38233333D01*
X125400000Y-38100000D01*
X125333333Y-38033333D01*
X125200000Y-37966666D01*
X124933333Y-37900000D01*
X124800000Y-37833333D01*
X124733333Y-37766666D01*
X124666666Y-37633333D01*
X124666666Y-37500000D01*
X124733333Y-37366666D01*
X124800000Y-37300000D01*
X124933333Y-37233333D01*
X125266666Y-37233333D01*
X125466666Y-37300000D01*
X128866666Y-38633333D02*
X128200000Y-38633333D01*
X128200000Y-37233333D01*
X129333333Y-38633333D02*
X129333333Y-37700000D01*
X129333333Y-37233333D02*
X129266666Y-37300000D01*
X129333333Y-37366666D01*
X129400000Y-37300000D01*
X129333333Y-37233333D01*
X129333333Y-37366666D01*
X130600000Y-38566666D02*
X130466666Y-38633333D01*
X130200000Y-38633333D01*
X130066666Y-38566666D01*
X130000000Y-38500000D01*
X129933333Y-38366666D01*
X129933333Y-37966666D01*
X130000000Y-37833333D01*
X130066666Y-37766666D01*
X130200000Y-37700000D01*
X130466666Y-37700000D01*
X130600000Y-37766666D01*
X131733333Y-38566666D02*
X131600000Y-38633333D01*
X131333333Y-38633333D01*
X131200000Y-38566666D01*
X131133333Y-38433333D01*
X131133333Y-37900000D01*
X131200000Y-37766666D01*
X131333333Y-37700000D01*
X131600000Y-37700000D01*
X131733333Y-37766666D01*
X131800000Y-37900000D01*
X131800000Y-38033333D01*
X131133333Y-38166666D01*
X132400000Y-37700000D02*
X132400000Y-38633333D01*
X132400000Y-37833333D02*
X132466666Y-37766666D01*
X132600000Y-37700000D01*
X132800000Y-37700000D01*
X132933333Y-37766666D01*
X133000000Y-37900000D01*
X133000000Y-38633333D01*
X133600000Y-38566666D02*
X133733333Y-38633333D01*
X134000000Y-38633333D01*
X134133333Y-38566666D01*
X134200000Y-38433333D01*
X134200000Y-38366666D01*
X134133333Y-38233333D01*
X134000000Y-38166666D01*
X133800000Y-38166666D01*
X133666666Y-38100000D01*
X133600000Y-37966666D01*
X133600000Y-37900000D01*
X133666666Y-37766666D01*
X133800000Y-37700000D01*
X134000000Y-37700000D01*
X134133333Y-37766666D01*
X135333333Y-38566666D02*
X135200000Y-38633333D01*
X134933333Y-38633333D01*
X134800000Y-38566666D01*
X134733333Y-38433333D01*
X134733333Y-37900000D01*
X134800000Y-37766666D01*
X134933333Y-37700000D01*
X135200000Y-37700000D01*
X135333333Y-37766666D01*
X135400000Y-37900000D01*
X135400000Y-38033333D01*
X134733333Y-38166666D01*
D11*
X113092857Y-35935714D02*
X113221428Y-35978571D01*
X113264285Y-36021428D01*
X113307142Y-36107142D01*
X113307142Y-36235714D01*
X113264285Y-36321428D01*
X113221428Y-36364285D01*
X113135714Y-36407142D01*
X112792857Y-36407142D01*
X112792857Y-35507142D01*
X113092857Y-35507142D01*
X113178571Y-35550000D01*
X113221428Y-35592857D01*
X113264285Y-35678571D01*
X113264285Y-35764285D01*
X113221428Y-35850000D01*
X113178571Y-35892857D01*
X113092857Y-35935714D01*
X112792857Y-35935714D01*
X113692857Y-36407142D02*
X113692857Y-35807142D01*
X113692857Y-35978571D02*
X113735714Y-35892857D01*
X113778571Y-35850000D01*
X113864285Y-35807142D01*
X113950000Y-35807142D01*
X114378571Y-36407142D02*
X114292857Y-36364285D01*
X114250000Y-36321428D01*
X114207142Y-36235714D01*
X114207142Y-35978571D01*
X114250000Y-35892857D01*
X114292857Y-35850000D01*
X114378571Y-35807142D01*
X114507142Y-35807142D01*
X114592857Y-35850000D01*
X114635714Y-35892857D01*
X114678571Y-35978571D01*
X114678571Y-36235714D01*
X114635714Y-36321428D01*
X114592857Y-36364285D01*
X114507142Y-36407142D01*
X114378571Y-36407142D01*
X115450000Y-35807142D02*
X115450000Y-36407142D01*
X115064285Y-35807142D02*
X115064285Y-36278571D01*
X115107142Y-36364285D01*
X115192857Y-36407142D01*
X115321428Y-36407142D01*
X115407142Y-36364285D01*
X115450000Y-36321428D01*
X116264285Y-35807142D02*
X116264285Y-36535714D01*
X116221428Y-36621428D01*
X116178571Y-36664285D01*
X116092857Y-36707142D01*
X115964285Y-36707142D01*
X115878571Y-36664285D01*
X116264285Y-36364285D02*
X116178571Y-36407142D01*
X116007142Y-36407142D01*
X115921428Y-36364285D01*
X115878571Y-36321428D01*
X115835714Y-36235714D01*
X115835714Y-35978571D01*
X115878571Y-35892857D01*
X115921428Y-35850000D01*
X116007142Y-35807142D01*
X116178571Y-35807142D01*
X116264285Y-35850000D01*
X116692857Y-36407142D02*
X116692857Y-35507142D01*
X117078571Y-36407142D02*
X117078571Y-35935714D01*
X117035714Y-35850000D01*
X116950000Y-35807142D01*
X116821428Y-35807142D01*
X116735714Y-35850000D01*
X116692857Y-35892857D01*
X117378571Y-35807142D02*
X117721428Y-35807142D01*
X117507142Y-35507142D02*
X117507142Y-36278571D01*
X117550000Y-36364285D01*
X117635714Y-36407142D01*
X117721428Y-36407142D01*
X118578571Y-35807142D02*
X118921428Y-35807142D01*
X118707142Y-35507142D02*
X118707142Y-36278571D01*
X118750000Y-36364285D01*
X118835714Y-36407142D01*
X118921428Y-36407142D01*
X119350000Y-36407142D02*
X119264285Y-36364285D01*
X119221428Y-36321428D01*
X119178571Y-36235714D01*
X119178571Y-35978571D01*
X119221428Y-35892857D01*
X119264285Y-35850000D01*
X119350000Y-35807142D01*
X119478571Y-35807142D01*
X119564285Y-35850000D01*
X119607142Y-35892857D01*
X119650000Y-35978571D01*
X119650000Y-36235714D01*
X119607142Y-36321428D01*
X119564285Y-36364285D01*
X119478571Y-36407142D01*
X119350000Y-36407142D01*
X120635714Y-35807142D02*
X120850000Y-36407142D01*
X121064285Y-35807142D02*
X120850000Y-36407142D01*
X120764285Y-36621428D01*
X120721428Y-36664285D01*
X120635714Y-36707142D01*
X121535714Y-36407142D02*
X121450000Y-36364285D01*
X121407142Y-36321428D01*
X121364285Y-36235714D01*
X121364285Y-35978571D01*
X121407142Y-35892857D01*
X121450000Y-35850000D01*
X121535714Y-35807142D01*
X121664285Y-35807142D01*
X121750000Y-35850000D01*
X121792857Y-35892857D01*
X121835714Y-35978571D01*
X121835714Y-36235714D01*
X121792857Y-36321428D01*
X121750000Y-36364285D01*
X121664285Y-36407142D01*
X121535714Y-36407142D01*
X122607142Y-35807142D02*
X122607142Y-36407142D01*
X122221428Y-35807142D02*
X122221428Y-36278571D01*
X122264285Y-36364285D01*
X122350000Y-36407142D01*
X122478571Y-36407142D01*
X122564285Y-36364285D01*
X122607142Y-36321428D01*
X123721428Y-36407142D02*
X123721428Y-35507142D01*
X123721428Y-35850000D02*
X123807142Y-35807142D01*
X123978571Y-35807142D01*
X124064285Y-35850000D01*
X124107142Y-35892857D01*
X124150000Y-35978571D01*
X124150000Y-36235714D01*
X124107142Y-36321428D01*
X124064285Y-36364285D01*
X123978571Y-36407142D01*
X123807142Y-36407142D01*
X123721428Y-36364285D01*
X124450000Y-35807142D02*
X124664285Y-36407142D01*
X124878571Y-35807142D02*
X124664285Y-36407142D01*
X124578571Y-36621428D01*
X124535714Y-36664285D01*
X124450000Y-36707142D01*
X126078571Y-35507142D02*
X126250000Y-35507142D01*
X126335714Y-35550000D01*
X126421428Y-35635714D01*
X126464285Y-35807142D01*
X126464285Y-36107142D01*
X126421428Y-36278571D01*
X126335714Y-36364285D01*
X126250000Y-36407142D01*
X126078571Y-36407142D01*
X125992857Y-36364285D01*
X125907142Y-36278571D01*
X125864285Y-36107142D01*
X125864285Y-35807142D01*
X125907142Y-35635714D01*
X125992857Y-35550000D01*
X126078571Y-35507142D01*
X126764285Y-35807142D02*
X126935714Y-36407142D01*
X127107142Y-35978571D01*
X127278571Y-36407142D01*
X127450000Y-35807142D01*
X127792857Y-35807142D02*
X127792857Y-36407142D01*
X127792857Y-35892857D02*
X127835714Y-35850000D01*
X127921428Y-35807142D01*
X128050000Y-35807142D01*
X128135714Y-35850000D01*
X128178571Y-35935714D01*
X128178571Y-36407142D01*
X128478571Y-35507142D02*
X128992857Y-35507142D01*
X128735714Y-36407142D02*
X128735714Y-35507142D01*
X129635714Y-36364285D02*
X129550000Y-36407142D01*
X129378571Y-36407142D01*
X129292857Y-36364285D01*
X129250000Y-36278571D01*
X129250000Y-35935714D01*
X129292857Y-35850000D01*
X129378571Y-35807142D01*
X129550000Y-35807142D01*
X129635714Y-35850000D01*
X129678571Y-35935714D01*
X129678571Y-36021428D01*
X129250000Y-36107142D01*
X130450000Y-36364285D02*
X130364285Y-36407142D01*
X130192857Y-36407142D01*
X130107142Y-36364285D01*
X130064285Y-36321428D01*
X130021428Y-36235714D01*
X130021428Y-35978571D01*
X130064285Y-35892857D01*
X130107142Y-35850000D01*
X130192857Y-35807142D01*
X130364285Y-35807142D01*
X130450000Y-35850000D01*
X130835714Y-36407142D02*
X130835714Y-35507142D01*
X131221428Y-36407142D02*
X131221428Y-35935714D01*
X131178571Y-35850000D01*
X131092857Y-35807142D01*
X130964285Y-35807142D01*
X130878571Y-35850000D01*
X130835714Y-35892857D01*
X132207142Y-35807142D02*
X132550000Y-35807142D01*
X132335714Y-35507142D02*
X132335714Y-36278571D01*
X132378571Y-36364285D01*
X132464285Y-36407142D01*
X132550000Y-36407142D01*
X133192857Y-36364285D02*
X133107142Y-36407142D01*
X132935714Y-36407142D01*
X132850000Y-36364285D01*
X132807142Y-36278571D01*
X132807142Y-35935714D01*
X132850000Y-35850000D01*
X132935714Y-35807142D01*
X133107142Y-35807142D01*
X133192857Y-35850000D01*
X133235714Y-35935714D01*
X133235714Y-36021428D01*
X132807142Y-36107142D01*
X134007142Y-36407142D02*
X134007142Y-35935714D01*
X133964285Y-35850000D01*
X133878571Y-35807142D01*
X133707142Y-35807142D01*
X133621428Y-35850000D01*
X134007142Y-36364285D02*
X133921428Y-36407142D01*
X133707142Y-36407142D01*
X133621428Y-36364285D01*
X133578571Y-36278571D01*
X133578571Y-36192857D01*
X133621428Y-36107142D01*
X133707142Y-36064285D01*
X133921428Y-36064285D01*
X134007142Y-36021428D01*
X134435714Y-36407142D02*
X134435714Y-35807142D01*
X134435714Y-35892857D02*
X134478571Y-35850000D01*
X134564285Y-35807142D01*
X134692857Y-35807142D01*
X134778571Y-35850000D01*
X134821428Y-35935714D01*
X134821428Y-36407142D01*
X134821428Y-35935714D02*
X134864285Y-35850000D01*
X134950000Y-35807142D01*
X135078571Y-35807142D01*
X135164285Y-35850000D01*
X135207142Y-35935714D01*
X135207142Y-36407142D01*
D10*
%TO.C,J5*%
X44470000Y-65470000D02*
X45800000Y-65470000D01*
X44470000Y-66800000D02*
X44470000Y-65470000D01*
X44470000Y-68070000D02*
X47130000Y-68070000D01*
X47130000Y-68070000D02*
X47130000Y-78290000D01*
X44470000Y-68070000D02*
X44470000Y-78290000D01*
X44470000Y-78290000D02*
X47130000Y-78290000D01*
%TO.C,J4*%
X44470000Y-56470000D02*
X45800000Y-56470000D01*
X44470000Y-57800000D02*
X44470000Y-56470000D01*
X44470000Y-59070000D02*
X47130000Y-59070000D01*
X47130000Y-59070000D02*
X47130000Y-64210000D01*
X44470000Y-59070000D02*
X44470000Y-64210000D01*
X44470000Y-64210000D02*
X47130000Y-64210000D01*
%TO.C,U9*%
X97110000Y-63470000D02*
X97110000Y-51700000D01*
X97110000Y-63470000D02*
X103450000Y-63470000D01*
X103450000Y-63470000D02*
X103450000Y-51700000D01*
X97110000Y-51700000D02*
X103450000Y-51700000D01*
X102450000Y-63670000D02*
X103650000Y-63670000D01*
X103650000Y-63670000D02*
X103650000Y-62470000D01*
%TO.C,U8*%
X110050000Y-105710000D02*
X121820000Y-105710000D01*
X110050000Y-105710000D02*
X110050000Y-112050000D01*
X110050000Y-112050000D02*
X121820000Y-112050000D01*
X121820000Y-105710000D02*
X121820000Y-112050000D01*
X109850000Y-111050000D02*
X109850000Y-112250000D01*
X109850000Y-112250000D02*
X111050000Y-112250000D01*
%TO.C,TP33*%
X44790000Y-45000000D02*
G75*
G03*
X44790000Y-45000000I-1200000J0D01*
G01*
%TO.C,TP32*%
X44790000Y-48750000D02*
G75*
G03*
X44790000Y-48750000I-1200000J0D01*
G01*
%TO.C,TP15*%
X70700000Y-59500000D02*
G75*
G03*
X70700000Y-59500000I-1200000J0D01*
G01*
%TO.C,TP14*%
X66600000Y-63000000D02*
G75*
G03*
X66600000Y-63000000I-1200000J0D01*
G01*
%TO.C,TP13*%
X66600000Y-59500000D02*
G75*
G03*
X66600000Y-59500000I-1200000J0D01*
G01*
%TO.C,TP12*%
X104200000Y-71250000D02*
G75*
G03*
X104200000Y-71250000I-1200000J0D01*
G01*
%TO.C,TP8*%
X101450000Y-71250000D02*
G75*
G03*
X101450000Y-71250000I-1200000J0D01*
G01*
%TO.C,TP7*%
X101450000Y-68500000D02*
G75*
G03*
X101450000Y-68500000I-1200000J0D01*
G01*
%TO.C,TP6*%
X104200000Y-68500000D02*
G75*
G03*
X104200000Y-68500000I-1200000J0D01*
G01*
%TO.C,TP5*%
X84500000Y-69250000D02*
G75*
G03*
X84500000Y-69250000I-1200000J0D01*
G01*
%TO.C,TP4*%
X81450000Y-69250000D02*
G75*
G03*
X81450000Y-69250000I-1200000J0D01*
G01*
%TO.C,TP3*%
X113600000Y-77700000D02*
G75*
G03*
X113600000Y-77700000I-1200000J0D01*
G01*
%TO.C,TP2*%
X112000000Y-86000000D02*
G75*
G03*
X112000000Y-86000000I-1200000J0D01*
G01*
%TO.C,TP1*%
X70700000Y-63000000D02*
G75*
G03*
X70700000Y-63000000I-1200000J0D01*
G01*
%TO.C,U1*%
X80305120Y-80931751D02*
X79357597Y-81879275D01*
X79633369Y-80260000D02*
X80305120Y-80931751D01*
X80305120Y-79588249D02*
X79633369Y-80260000D01*
X86860000Y-73033369D02*
X87531751Y-73705120D01*
X86188249Y-73705120D02*
X86860000Y-73033369D01*
X86860000Y-87486631D02*
X86188249Y-86814880D01*
X87531751Y-86814880D02*
X86860000Y-87486631D01*
X94086631Y-80260000D02*
X93414880Y-79588249D01*
X93414880Y-80931751D02*
X94086631Y-80260000D01*
%TO.C,R23*%
X75959165Y-88480282D02*
X76280282Y-88159165D01*
X74919718Y-87440835D02*
X75240835Y-87119718D01*
%TO.C,R28*%
X94404400Y-90735047D02*
X94725517Y-90413930D01*
X93364953Y-89695600D02*
X93686070Y-89374483D01*
%TO.C,LED1*%
X93270297Y-89212652D02*
X91371716Y-87314071D01*
X91912652Y-90570297D02*
X93270297Y-89212652D01*
X90014071Y-88671716D02*
X91912652Y-90570297D01*
%TO.C,R27*%
X88535000Y-94227064D02*
X88535000Y-93772936D01*
X87065000Y-94227064D02*
X87065000Y-93772936D01*
%TO.C,R26*%
X88535000Y-97414564D02*
X88535000Y-96960436D01*
X87065000Y-97414564D02*
X87065000Y-96960436D01*
%TO.C,JP4*%
X91300000Y-95950000D02*
X91300000Y-98750000D01*
X91300000Y-98750000D02*
X89300000Y-98750000D01*
X89300000Y-98750000D02*
X89300000Y-95950000D01*
X89300000Y-95950000D02*
X91300000Y-95950000D01*
%TO.C,JP3*%
X91300000Y-92500000D02*
X91300000Y-95300000D01*
X91300000Y-95300000D02*
X89300000Y-95300000D01*
X89300000Y-95300000D02*
X89300000Y-92500000D01*
X89300000Y-92500000D02*
X91300000Y-92500000D01*
%TO.C,C40*%
X102560000Y-92636252D02*
X102560000Y-91213748D01*
X99840000Y-92636252D02*
X99840000Y-91213748D01*
%TO.C,C39*%
X107536252Y-84240000D02*
X106113748Y-84240000D01*
X107536252Y-86960000D02*
X106113748Y-86960000D01*
%TO.C,C38*%
X104240000Y-59763748D02*
X104240000Y-61186252D01*
X106960000Y-59763748D02*
X106960000Y-61186252D01*
%TO.C,C37*%
X113911252Y-112440000D02*
X112488748Y-112440000D01*
X113911252Y-115160000D02*
X112488748Y-115160000D01*
%TO.C,C36*%
X104240000Y-53688748D02*
X104240000Y-55111252D01*
X106960000Y-53688748D02*
X106960000Y-55111252D01*
%TO.C,C35*%
X119011252Y-102640000D02*
X117588748Y-102640000D01*
X119011252Y-105360000D02*
X117588748Y-105360000D01*
%TO.C,C29*%
X74275000Y-118590000D02*
X74275000Y-119590000D01*
X73775000Y-119090000D02*
X74775000Y-119090000D01*
X75015000Y-124495563D02*
X76079437Y-125560000D01*
X75015000Y-118104437D02*
X76079437Y-117040000D01*
X75015000Y-118104437D02*
X75015000Y-120090000D01*
X75015000Y-124495563D02*
X75015000Y-122510000D01*
X76079437Y-125560000D02*
X83535000Y-125560000D01*
X76079437Y-117040000D02*
X83535000Y-117040000D01*
X83535000Y-117040000D02*
X83535000Y-120090000D01*
X83535000Y-125560000D02*
X83535000Y-122510000D01*
%TO.C,C19*%
X69236252Y-97040000D02*
X67813748Y-97040000D01*
X69236252Y-99760000D02*
X67813748Y-99760000D01*
%TO.C,R25*%
X106635000Y-97714564D02*
X106635000Y-97260436D01*
X105165000Y-97714564D02*
X105165000Y-97260436D01*
D11*
%TO.C,J6*%
X103800000Y-126400000D02*
X103800000Y-116900000D01*
X114800000Y-126400000D02*
X103800000Y-126400000D01*
X114800000Y-116900000D02*
X114800000Y-126400000D01*
X103800000Y-116900000D02*
X114800000Y-116900000D01*
%TO.C,J1*%
X123200000Y-126400000D02*
X123200000Y-116900000D01*
X134200000Y-126400000D02*
X123200000Y-126400000D01*
X134200000Y-116900000D02*
X134200000Y-126400000D01*
X123200000Y-116900000D02*
X134200000Y-116900000D01*
D10*
%TO.C,SW1*%
X59400000Y-92950000D02*
X59400000Y-93050000D01*
X55000000Y-94550000D02*
X59400000Y-94550000D01*
X59400000Y-91450000D02*
X55000000Y-91450000D01*
X55000000Y-92950000D02*
X55000000Y-93050000D01*
D13*
%TO.C,PS5*%
X57850000Y-116230000D02*
X57850000Y-108370000D01*
D14*
X56700000Y-117800000D02*
G75*
G03*
X56700000Y-117800000I-100000J0D01*
G01*
D13*
X71350000Y-108370000D02*
X71350000Y-116230000D01*
X60170000Y-106050000D02*
X69030000Y-106050000D01*
X69030000Y-118550000D02*
X60170000Y-118550000D01*
D10*
%TO.C,C16*%
X97158750Y-124243750D02*
X97946250Y-124243750D01*
X97552500Y-124637500D02*
X97552500Y-123850000D01*
X101745563Y-123610000D02*
X102810000Y-122545563D01*
X97054437Y-123610000D02*
X95990000Y-122545563D01*
X97054437Y-123610000D02*
X98340000Y-123610000D01*
X101745563Y-123610000D02*
X100460000Y-123610000D01*
X102810000Y-122545563D02*
X102810000Y-116790000D01*
X95990000Y-122545563D02*
X95990000Y-116790000D01*
X95990000Y-116790000D02*
X98340000Y-116790000D01*
X102810000Y-116790000D02*
X100460000Y-116790000D01*
%TO.C,C15*%
X116758750Y-123243750D02*
X117546250Y-123243750D01*
X117152500Y-123637500D02*
X117152500Y-122850000D01*
X121345563Y-122610000D02*
X122410000Y-121545563D01*
X116654437Y-122610000D02*
X115590000Y-121545563D01*
X116654437Y-122610000D02*
X117940000Y-122610000D01*
X121345563Y-122610000D02*
X120060000Y-122610000D01*
X122410000Y-121545563D02*
X122410000Y-115790000D01*
X115590000Y-121545563D02*
X115590000Y-115790000D01*
X115590000Y-115790000D02*
X117940000Y-115790000D01*
X122410000Y-115790000D02*
X120060000Y-115790000D01*
%TO.C,U6*%
X124870000Y-57110000D02*
X124870000Y-55160000D01*
X124870000Y-57110000D02*
X124870000Y-59060000D01*
X114750000Y-57110000D02*
X114750000Y-55160000D01*
X114750000Y-57110000D02*
X114750000Y-60560000D01*
%TO.C,U5*%
X92440000Y-57120000D02*
X92440000Y-55170000D01*
X92440000Y-57120000D02*
X92440000Y-59070000D01*
X82320000Y-57120000D02*
X82320000Y-55170000D01*
X82320000Y-57120000D02*
X82320000Y-60570000D01*
%TO.C,R13*%
X90065000Y-43460436D02*
X90065000Y-43914564D01*
X91535000Y-43460436D02*
X91535000Y-43914564D01*
%TO.C,J3*%
X91895000Y-46138000D02*
X108625000Y-46138000D01*
X91874000Y-25437000D02*
X108604000Y-25437000D01*
X91874000Y-25437000D02*
X91895000Y-46138000D01*
X108604000Y-25437000D02*
X108625000Y-46138000D01*
%TO.C,J2*%
X51195000Y-46088000D02*
X67925000Y-46088000D01*
X51174000Y-25387000D02*
X67904000Y-25387000D01*
X51174000Y-25387000D02*
X51195000Y-46088000D01*
X67904000Y-25387000D02*
X67925000Y-46088000D01*
%TO.C,SWD1*%
X44470000Y-82270000D02*
X45800000Y-82270000D01*
X44470000Y-83600000D02*
X44470000Y-82270000D01*
X44470000Y-84870000D02*
X47130000Y-84870000D01*
X47130000Y-84870000D02*
X47130000Y-97630000D01*
X44470000Y-84870000D02*
X44470000Y-97630000D01*
X44470000Y-97630000D02*
X47130000Y-97630000D01*
%TO.C,R24*%
X51085436Y-88135000D02*
X51539564Y-88135000D01*
X51085436Y-86665000D02*
X51539564Y-86665000D01*
%TO.C,J8*%
X59115000Y-89310000D02*
X59115000Y-89375000D01*
X55585000Y-89310000D02*
X55585000Y-89375000D01*
X59115000Y-80365000D02*
X59115000Y-80430000D01*
X55585000Y-80365000D02*
X55585000Y-80430000D01*
X54260000Y-80430000D02*
X55585000Y-80430000D01*
X55585000Y-89375000D02*
X59115000Y-89375000D01*
X55585000Y-80365000D02*
X59115000Y-80365000D01*
%TO.C,R17*%
X114645000Y-64557064D02*
X114645000Y-64102936D01*
X113175000Y-64557064D02*
X113175000Y-64102936D01*
%TO.C,Y1*%
X74147487Y-83119060D02*
X71319060Y-85947487D01*
X76480940Y-85452513D02*
X74147487Y-83119060D01*
%TO.C,U7*%
X95700000Y-115230000D02*
X95700000Y-113780000D01*
X90500000Y-115230000D02*
X95700000Y-115230000D01*
X90500000Y-110330000D02*
X90500000Y-115230000D01*
X95700000Y-110330000D02*
X90500000Y-110330000D01*
X95700000Y-111780000D02*
X95700000Y-110330000D01*
X95700000Y-113780000D02*
G75*
G02*
X95700000Y-111780000I0J1000000D01*
G01*
%TO.C,R22*%
X92535000Y-119739564D02*
X92535000Y-119285436D01*
X91065000Y-119739564D02*
X91065000Y-119285436D01*
%TO.C,R21*%
X88572936Y-109935000D02*
X89027064Y-109935000D01*
X88572936Y-108465000D02*
X89027064Y-108465000D01*
%TO.C,R20*%
X119085436Y-48835000D02*
X119539564Y-48835000D01*
X119085436Y-47365000D02*
X119539564Y-47365000D01*
%TO.C,R19*%
X122924564Y-61275000D02*
X122470436Y-61275000D01*
X122924564Y-62745000D02*
X122470436Y-62745000D01*
%TO.C,R18*%
X116445000Y-64557064D02*
X116445000Y-64102936D01*
X114975000Y-64557064D02*
X114975000Y-64102936D01*
%TO.C,R16*%
X86685436Y-48535000D02*
X87139564Y-48535000D01*
X86685436Y-47065000D02*
X87139564Y-47065000D01*
%TO.C,R15*%
X90894564Y-61185000D02*
X90440436Y-61185000D01*
X90894564Y-62655000D02*
X90440436Y-62655000D01*
%TO.C,R14*%
X84915000Y-65147064D02*
X84915000Y-64692936D01*
X83445000Y-65147064D02*
X83445000Y-64692936D01*
%TO.C,R9*%
X82915000Y-65147064D02*
X82915000Y-64692936D01*
X81445000Y-65147064D02*
X81445000Y-64692936D01*
%TO.C,D11*%
X110050000Y-54550000D02*
X110050000Y-48850000D01*
X114350000Y-54550000D02*
X114350000Y-48850000D01*
X110050000Y-54550000D02*
X114350000Y-54550000D01*
%TO.C,D10*%
X77650000Y-54350000D02*
X77650000Y-48650000D01*
X81950000Y-54350000D02*
X81950000Y-48650000D01*
X77650000Y-54350000D02*
X81950000Y-54350000D01*
%TO.C,C34*%
X122473748Y-50460000D02*
X123896252Y-50460000D01*
X122473748Y-47740000D02*
X123896252Y-47740000D01*
%TO.C,C33*%
X116098748Y-50545000D02*
X116621252Y-50545000D01*
X116098748Y-49075000D02*
X116621252Y-49075000D01*
%TO.C,C32*%
X122938748Y-52335000D02*
X123461252Y-52335000D01*
X122938748Y-50865000D02*
X123461252Y-50865000D01*
%TO.C,C31*%
X116098748Y-52345000D02*
X116621252Y-52345000D01*
X116098748Y-50875000D02*
X116621252Y-50875000D01*
%TO.C,C30*%
X122456248Y-64545000D02*
X122978752Y-64545000D01*
X122456248Y-63075000D02*
X122978752Y-63075000D01*
%TO.C,C28*%
X116775000Y-64088748D02*
X116775000Y-64611252D01*
X118245000Y-64088748D02*
X118245000Y-64611252D01*
%TO.C,C27*%
X112835000Y-64611252D02*
X112835000Y-64088748D01*
X111365000Y-64611252D02*
X111365000Y-64088748D01*
%TO.C,C26*%
X125265000Y-60538748D02*
X125265000Y-61061252D01*
X126735000Y-60538748D02*
X126735000Y-61061252D01*
%TO.C,C25*%
X118688748Y-62535000D02*
X119211252Y-62535000D01*
X118688748Y-61065000D02*
X119211252Y-61065000D01*
%TO.C,C24*%
X90043748Y-50310000D02*
X91466252Y-50310000D01*
X90043748Y-47590000D02*
X91466252Y-47590000D01*
%TO.C,C23*%
X83618748Y-50655000D02*
X84141252Y-50655000D01*
X83618748Y-49185000D02*
X84141252Y-49185000D01*
%TO.C,C22*%
X90388748Y-52335000D02*
X90911252Y-52335000D01*
X90388748Y-50865000D02*
X90911252Y-50865000D01*
%TO.C,C21*%
X83618748Y-52455000D02*
X84141252Y-52455000D01*
X83618748Y-50985000D02*
X84141252Y-50985000D01*
%TO.C,C20*%
X90388748Y-64455000D02*
X90911252Y-64455000D01*
X90388748Y-62985000D02*
X90911252Y-62985000D01*
%TO.C,C18*%
X85465000Y-64678748D02*
X85465000Y-65201252D01*
X86935000Y-64678748D02*
X86935000Y-65201252D01*
%TO.C,C17*%
X80835000Y-65201252D02*
X80835000Y-64678748D01*
X79365000Y-65201252D02*
X79365000Y-64678748D01*
%TO.C,C13*%
X92865000Y-60288748D02*
X92865000Y-60811252D01*
X94335000Y-60288748D02*
X94335000Y-60811252D01*
%TO.C,C11*%
X86488748Y-62535000D02*
X87011252Y-62535000D01*
X86488748Y-61065000D02*
X87011252Y-61065000D01*
%TO.C,R8*%
X106635000Y-106327064D02*
X106635000Y-105872936D01*
X105165000Y-106327064D02*
X105165000Y-105872936D01*
%TO.C,R6*%
X97135000Y-105872936D02*
X97135000Y-106327064D01*
X98605000Y-105872936D02*
X98605000Y-106327064D01*
%TO.C,R4*%
X81465000Y-105672936D02*
X81465000Y-106127064D01*
X82935000Y-105672936D02*
X82935000Y-106127064D01*
%TO.C,R2*%
X73365000Y-105672936D02*
X73365000Y-106127064D01*
X74835000Y-105672936D02*
X74835000Y-106127064D01*
%TO.C,PS4*%
X47100000Y-113060000D02*
X47100000Y-100360000D01*
X47100000Y-100360000D02*
X72500000Y-100360000D01*
X72500000Y-100360000D02*
X72500000Y-125760000D01*
X72500000Y-125760000D02*
X47100000Y-125760000D01*
X47100000Y-125760000D02*
X47100000Y-113060000D01*
%TO.C,FB1*%
X98470282Y-81270835D02*
X98149165Y-80949718D01*
X97430835Y-82310282D02*
X97109718Y-81989165D01*
%TO.C,D9*%
X102900000Y-107600000D02*
X102900000Y-103700000D01*
X104900000Y-107600000D02*
X104900000Y-103700000D01*
X102900000Y-107600000D02*
X104900000Y-107600000D01*
%TO.C,D8*%
X100910000Y-96580000D02*
X100910000Y-100480000D01*
X98910000Y-96580000D02*
X98910000Y-100480000D01*
X100910000Y-96580000D02*
X98910000Y-96580000D01*
%TO.C,D7*%
X77110000Y-96580000D02*
X77110000Y-100480000D01*
X75110000Y-96580000D02*
X75110000Y-100480000D01*
X77110000Y-96580000D02*
X75110000Y-96580000D01*
%TO.C,D6*%
X100900000Y-103100000D02*
X100900000Y-107000000D01*
X98900000Y-103100000D02*
X98900000Y-107000000D01*
X100900000Y-103100000D02*
X98900000Y-103100000D01*
%TO.C,D5*%
X81200000Y-103100000D02*
X81200000Y-107000000D01*
X79200000Y-103100000D02*
X79200000Y-107000000D01*
X81200000Y-103100000D02*
X79200000Y-103100000D01*
%TO.C,D4*%
X81300000Y-96580000D02*
X81300000Y-100480000D01*
X79300000Y-96580000D02*
X79300000Y-100480000D01*
X81300000Y-96580000D02*
X79300000Y-96580000D01*
%TO.C,D3*%
X77110000Y-103100000D02*
X77110000Y-107000000D01*
X75110000Y-103100000D02*
X75110000Y-107000000D01*
X77110000Y-103100000D02*
X75110000Y-103100000D01*
%TO.C,BT1*%
X132882787Y-88749000D02*
G75*
G03*
X132882787Y-88749000I-10250787J0D01*
G01*
%TO.C,U4*%
X103200000Y-87590000D02*
X109210000Y-87590000D01*
X105450000Y-94410000D02*
X109210000Y-94410000D01*
X109210000Y-87590000D02*
X109210000Y-88850000D01*
X109210000Y-94410000D02*
X109210000Y-93150000D01*
%TO.C,R7*%
X97135000Y-98985436D02*
X97135000Y-99439564D01*
X98605000Y-98985436D02*
X98605000Y-99439564D01*
%TO.C,R5*%
X73365000Y-98985436D02*
X73365000Y-99439564D01*
X74835000Y-98985436D02*
X74835000Y-99439564D01*
%TO.C,R3*%
X81565000Y-98985436D02*
X81565000Y-99439564D01*
X83035000Y-98985436D02*
X83035000Y-99439564D01*
%TO.C,C14*%
X93967294Y-85206741D02*
X94336761Y-85576208D01*
X95006741Y-84167294D02*
X95376208Y-84536761D01*
%TO.C,C12*%
X96965010Y-85795543D02*
X96595543Y-86165010D01*
X98004457Y-86834990D02*
X97634990Y-87204457D01*
%TO.C,C10*%
X83993259Y-88567294D02*
X83623792Y-88936761D01*
X85032706Y-89606741D02*
X84663239Y-89976208D01*
%TO.C,C9*%
X95923792Y-83234990D02*
X96293259Y-83604457D01*
X96963239Y-82195543D02*
X97332706Y-82565010D01*
%TO.C,C8*%
X88695543Y-72134990D02*
X89065010Y-72504457D01*
X89734990Y-71095543D02*
X90104457Y-71465010D01*
%TO.C,C7*%
X79002706Y-76143259D02*
X78633239Y-75773792D01*
X77963259Y-77182706D02*
X77593792Y-76813239D01*
%TO.C,C6*%
X77604457Y-77465010D02*
X77234990Y-77095543D01*
X76565010Y-78504457D02*
X76195543Y-78134990D01*
%TO.C,C5*%
X78865010Y-87495543D02*
X78495543Y-87865010D01*
X79904457Y-88534990D02*
X79534990Y-88904457D01*
%TO.C,C4*%
X72476208Y-87536761D02*
X72106741Y-87167294D01*
X71436761Y-88576208D02*
X71067294Y-88206741D01*
%TO.C,C3*%
X75395543Y-83834990D02*
X75765010Y-84204457D01*
X76434990Y-82795543D02*
X76804457Y-83165010D01*
%TO.C,F2*%
X63790000Y-50013748D02*
X63790000Y-52786252D01*
X67210000Y-50013748D02*
X67210000Y-52786252D01*
%TO.C,F1*%
X57010000Y-52786252D02*
X57010000Y-50013748D01*
X53590000Y-52786252D02*
X53590000Y-50013748D01*
%TO.C,JP1*%
X55620000Y-56660000D02*
X58420000Y-56660000D01*
X58420000Y-56660000D02*
X58420000Y-58660000D01*
X58420000Y-58660000D02*
X55620000Y-58660000D01*
X55620000Y-58660000D02*
X55620000Y-56660000D01*
%TO.C,R12*%
X109165000Y-43572936D02*
X109165000Y-44027064D01*
X110635000Y-43572936D02*
X110635000Y-44027064D01*
%TO.C,R11*%
X49065000Y-43372936D02*
X49065000Y-43827064D01*
X50535000Y-43372936D02*
X50535000Y-43827064D01*
%TO.C,R10*%
X68565000Y-43360436D02*
X68565000Y-43814564D01*
X70035000Y-43360436D02*
X70035000Y-43814564D01*
%TO.C,D2*%
X61100000Y-53750000D02*
X61100000Y-49850000D01*
X63100000Y-53750000D02*
X63100000Y-49850000D01*
X61100000Y-53750000D02*
X63100000Y-53750000D01*
%TO.C,D1*%
X50900000Y-53750000D02*
X50900000Y-49850000D01*
X52900000Y-53750000D02*
X52900000Y-49850000D01*
X50900000Y-53750000D02*
X52900000Y-53750000D01*
%TO.C,JP2*%
X119035000Y-76319000D02*
X119035000Y-77649000D01*
X117705000Y-76319000D02*
X119035000Y-76319000D01*
X116435000Y-76319000D02*
X116435000Y-78979000D01*
X116435000Y-78979000D02*
X113835000Y-78979000D01*
X116435000Y-76319000D02*
X113835000Y-76319000D01*
X113835000Y-76319000D02*
X113835000Y-78979000D01*
%TO.C,U3*%
X61180000Y-62760000D02*
X61180000Y-60810000D01*
X61180000Y-62760000D02*
X61180000Y-64710000D01*
X56060000Y-62760000D02*
X56060000Y-60810000D01*
X56060000Y-62760000D02*
X56060000Y-66210000D01*
%TO.C,U2*%
X108210193Y-76789807D02*
X106831335Y-75410948D01*
X108210193Y-76789807D02*
X109589052Y-78168665D01*
X104589807Y-80410193D02*
X103210948Y-79031335D01*
X104589807Y-80410193D02*
X107029325Y-82849712D01*
%TO.C,R1*%
X59442936Y-58395000D02*
X59897064Y-58395000D01*
X59442936Y-56925000D02*
X59897064Y-56925000D01*
%TO.C,C2*%
X58861252Y-67065000D02*
X58338748Y-67065000D01*
X58861252Y-68535000D02*
X58338748Y-68535000D01*
%TO.C,C1*%
X100265000Y-77088748D02*
X100265000Y-77611252D01*
X101735000Y-77088748D02*
X101735000Y-77611252D01*
D15*
%TO.C,REF\u002A\u002A*%
G36*
X126853910Y-29492348D02*
G01*
X126932454Y-29492778D01*
X126989298Y-29493942D01*
X127028105Y-29496207D01*
X127052538Y-29499940D01*
X127066262Y-29505506D01*
X127072940Y-29513273D01*
X127076236Y-29523605D01*
X127076556Y-29524943D01*
X127081562Y-29549079D01*
X127090829Y-29596701D01*
X127103392Y-29662741D01*
X127118287Y-29742128D01*
X127134551Y-29829796D01*
X127135119Y-29832875D01*
X127151410Y-29918789D01*
X127166652Y-29994696D01*
X127179861Y-30056045D01*
X127190054Y-30098282D01*
X127196248Y-30116855D01*
X127196543Y-30117184D01*
X127214788Y-30126253D01*
X127252405Y-30141367D01*
X127301271Y-30159262D01*
X127301543Y-30159358D01*
X127363093Y-30182493D01*
X127435657Y-30211965D01*
X127504057Y-30241597D01*
X127507294Y-30243062D01*
X127618702Y-30293626D01*
X127865399Y-30125160D01*
X127941077Y-30073803D01*
X128009631Y-30027889D01*
X128067088Y-29990030D01*
X128109476Y-29962837D01*
X128132825Y-29948921D01*
X128135042Y-29947889D01*
X128152010Y-29952484D01*
X128183701Y-29974655D01*
X128231352Y-30015447D01*
X128296198Y-30075905D01*
X128362397Y-30140227D01*
X128426214Y-30203612D01*
X128483329Y-30261451D01*
X128530305Y-30310175D01*
X128563703Y-30346210D01*
X128580085Y-30365984D01*
X128580694Y-30367002D01*
X128582505Y-30380572D01*
X128575683Y-30402733D01*
X128558540Y-30436478D01*
X128529393Y-30484800D01*
X128486555Y-30550692D01*
X128429448Y-30635517D01*
X128378766Y-30710177D01*
X128333461Y-30777140D01*
X128296150Y-30832516D01*
X128269452Y-30872420D01*
X128255985Y-30892962D01*
X128255137Y-30894356D01*
X128256781Y-30914038D01*
X128269245Y-30952293D01*
X128290048Y-31001889D01*
X128297462Y-31017728D01*
X128329814Y-31088290D01*
X128364328Y-31168353D01*
X128392365Y-31237629D01*
X128412568Y-31289045D01*
X128428615Y-31328119D01*
X128437888Y-31348541D01*
X128439041Y-31350114D01*
X128456096Y-31352721D01*
X128496298Y-31359863D01*
X128554302Y-31370523D01*
X128624763Y-31383685D01*
X128702335Y-31398333D01*
X128781672Y-31413449D01*
X128857431Y-31428018D01*
X128924264Y-31441022D01*
X128976828Y-31451445D01*
X129009776Y-31458270D01*
X129017857Y-31460199D01*
X129026205Y-31464962D01*
X129032506Y-31475718D01*
X129037045Y-31496098D01*
X129040104Y-31529734D01*
X129041967Y-31580255D01*
X129042918Y-31651292D01*
X129043240Y-31746476D01*
X129043257Y-31785492D01*
X129043257Y-32102799D01*
X128967057Y-32117839D01*
X128924663Y-32125995D01*
X128861400Y-32137899D01*
X128784962Y-32152116D01*
X128703043Y-32167210D01*
X128680400Y-32171355D01*
X128604806Y-32186053D01*
X128538953Y-32200505D01*
X128488366Y-32213375D01*
X128458574Y-32223322D01*
X128453612Y-32226287D01*
X128441426Y-32247283D01*
X128423953Y-32287967D01*
X128404577Y-32340322D01*
X128400734Y-32351600D01*
X128375339Y-32421523D01*
X128343817Y-32500418D01*
X128312969Y-32571266D01*
X128312817Y-32571595D01*
X128261447Y-32682733D01*
X128430399Y-32931253D01*
X128599352Y-33179772D01*
X128382429Y-33397058D01*
X128316819Y-33461726D01*
X128256979Y-33518733D01*
X128206267Y-33565033D01*
X128168046Y-33597584D01*
X128145675Y-33613343D01*
X128142466Y-33614343D01*
X128123626Y-33606469D01*
X128085180Y-33584578D01*
X128031330Y-33551267D01*
X127966276Y-33509131D01*
X127895940Y-33461943D01*
X127824555Y-33413810D01*
X127760908Y-33371928D01*
X127709041Y-33338871D01*
X127672995Y-33317218D01*
X127656867Y-33309543D01*
X127637189Y-33316037D01*
X127599875Y-33333150D01*
X127552621Y-33357326D01*
X127547612Y-33360013D01*
X127483977Y-33391927D01*
X127440341Y-33407579D01*
X127413202Y-33407745D01*
X127399057Y-33393204D01*
X127398975Y-33393000D01*
X127391905Y-33375779D01*
X127375042Y-33334899D01*
X127349695Y-33273525D01*
X127317171Y-33194819D01*
X127278778Y-33101947D01*
X127235822Y-32998072D01*
X127194222Y-32897502D01*
X127148504Y-32786516D01*
X127106526Y-32683703D01*
X127069548Y-32592215D01*
X127038827Y-32515201D01*
X127015622Y-32455815D01*
X127001190Y-32417209D01*
X126996743Y-32402800D01*
X127007896Y-32386272D01*
X127037069Y-32359930D01*
X127075971Y-32330887D01*
X127186757Y-32239039D01*
X127273351Y-32133759D01*
X127334716Y-32017266D01*
X127369815Y-31891776D01*
X127377608Y-31759507D01*
X127371943Y-31698457D01*
X127341078Y-31571795D01*
X127287920Y-31459941D01*
X127215767Y-31364001D01*
X127127917Y-31285076D01*
X127027665Y-31224270D01*
X126918310Y-31182687D01*
X126803147Y-31161428D01*
X126685475Y-31161599D01*
X126568590Y-31184301D01*
X126455789Y-31230638D01*
X126350369Y-31301713D01*
X126306368Y-31341911D01*
X126221979Y-31445129D01*
X126163222Y-31557925D01*
X126129704Y-31677010D01*
X126121035Y-31799095D01*
X126136823Y-31920893D01*
X126176678Y-32039116D01*
X126240207Y-32150475D01*
X126327021Y-32251684D01*
X126424029Y-32330887D01*
X126464437Y-32361162D01*
X126492982Y-32387219D01*
X126503257Y-32402825D01*
X126497877Y-32419843D01*
X126482575Y-32460500D01*
X126458612Y-32521642D01*
X126427244Y-32600119D01*
X126389732Y-32692780D01*
X126347333Y-32796472D01*
X126305663Y-32897526D01*
X126259690Y-33008607D01*
X126217107Y-33111541D01*
X126179221Y-33203165D01*
X126147340Y-33280316D01*
X126122771Y-33339831D01*
X126106820Y-33378544D01*
X126100910Y-33393000D01*
X126086948Y-33407685D01*
X126059940Y-33407642D01*
X126016413Y-33392099D01*
X125952890Y-33360284D01*
X125952388Y-33360013D01*
X125904560Y-33335323D01*
X125865897Y-33317338D01*
X125844095Y-33309614D01*
X125843133Y-33309543D01*
X125826721Y-33317378D01*
X125790487Y-33339165D01*
X125738474Y-33372328D01*
X125674725Y-33414291D01*
X125604060Y-33461943D01*
X125532116Y-33510191D01*
X125467274Y-33552151D01*
X125413735Y-33585227D01*
X125375697Y-33606821D01*
X125357533Y-33614343D01*
X125340808Y-33604457D01*
X125307180Y-33576826D01*
X125260010Y-33534495D01*
X125202658Y-33480505D01*
X125138484Y-33417899D01*
X125117497Y-33396983D01*
X124900499Y-33179623D01*
X125065668Y-32937220D01*
X125115864Y-32862781D01*
X125159919Y-32795972D01*
X125195362Y-32740665D01*
X125219719Y-32700729D01*
X125230522Y-32680036D01*
X125230838Y-32678563D01*
X125225143Y-32659058D01*
X125209826Y-32619822D01*
X125187537Y-32567430D01*
X125171893Y-32532355D01*
X125142641Y-32465201D01*
X125115094Y-32397358D01*
X125093737Y-32340034D01*
X125087935Y-32322572D01*
X125071452Y-32275938D01*
X125055340Y-32239905D01*
X125046490Y-32226287D01*
X125026960Y-32217952D01*
X124984334Y-32206137D01*
X124924145Y-32192181D01*
X124851922Y-32177422D01*
X124819600Y-32171355D01*
X124737522Y-32156273D01*
X124658795Y-32141669D01*
X124591109Y-32128980D01*
X124542160Y-32119642D01*
X124532943Y-32117839D01*
X124456743Y-32102799D01*
X124456743Y-31785492D01*
X124456914Y-31681154D01*
X124457616Y-31602213D01*
X124459134Y-31545038D01*
X124461749Y-31505999D01*
X124465746Y-31481465D01*
X124471409Y-31467805D01*
X124479020Y-31461389D01*
X124482143Y-31460199D01*
X124500978Y-31455980D01*
X124542588Y-31447562D01*
X124601630Y-31435961D01*
X124672757Y-31422195D01*
X124750625Y-31407280D01*
X124829887Y-31392232D01*
X124905198Y-31378069D01*
X124971213Y-31365806D01*
X125022587Y-31356461D01*
X125053975Y-31351050D01*
X125060959Y-31350114D01*
X125067285Y-31337596D01*
X125081290Y-31304246D01*
X125100355Y-31256377D01*
X125107634Y-31237629D01*
X125136996Y-31165195D01*
X125171571Y-31085170D01*
X125202537Y-31017728D01*
X125225323Y-30966159D01*
X125240482Y-30923785D01*
X125245542Y-30897834D01*
X125244736Y-30894356D01*
X125234041Y-30877936D01*
X125209620Y-30841417D01*
X125174095Y-30788687D01*
X125130087Y-30723635D01*
X125080217Y-30650151D01*
X125070356Y-30635645D01*
X125012492Y-30549704D01*
X124969956Y-30484261D01*
X124941054Y-30436304D01*
X124924090Y-30402820D01*
X124917367Y-30380795D01*
X124919190Y-30367217D01*
X124919236Y-30367131D01*
X124933586Y-30349297D01*
X124965323Y-30314817D01*
X125011010Y-30267268D01*
X125067204Y-30210222D01*
X125130468Y-30147255D01*
X125137602Y-30140227D01*
X125217330Y-30063020D01*
X125278857Y-30006330D01*
X125323421Y-29969110D01*
X125352257Y-29950315D01*
X125364958Y-29947889D01*
X125383494Y-29958471D01*
X125421961Y-29982916D01*
X125476386Y-30018612D01*
X125542798Y-30062947D01*
X125617225Y-30113311D01*
X125634601Y-30125160D01*
X125881297Y-30293626D01*
X125992706Y-30243062D01*
X126060457Y-30213595D01*
X126133183Y-30183959D01*
X126195703Y-30160330D01*
X126198457Y-30159358D01*
X126247360Y-30141457D01*
X126285057Y-30126320D01*
X126303425Y-30117210D01*
X126303456Y-30117184D01*
X126309285Y-30100717D01*
X126319192Y-30060219D01*
X126332195Y-30000242D01*
X126347309Y-29925340D01*
X126363552Y-29840064D01*
X126364881Y-29832875D01*
X126381175Y-29745014D01*
X126396133Y-29665260D01*
X126408791Y-29598681D01*
X126418186Y-29550347D01*
X126423354Y-29525325D01*
X126423444Y-29524943D01*
X126426589Y-29514299D01*
X126432704Y-29506262D01*
X126445453Y-29500467D01*
X126468500Y-29496547D01*
X126505509Y-29494135D01*
X126560144Y-29492865D01*
X126636067Y-29492371D01*
X126736944Y-29492286D01*
X126750000Y-29492286D01*
X126853910Y-29492348D01*
G37*
X126853910Y-29492348D02*
X126932454Y-29492778D01*
X126989298Y-29493942D01*
X127028105Y-29496207D01*
X127052538Y-29499940D01*
X127066262Y-29505506D01*
X127072940Y-29513273D01*
X127076236Y-29523605D01*
X127076556Y-29524943D01*
X127081562Y-29549079D01*
X127090829Y-29596701D01*
X127103392Y-29662741D01*
X127118287Y-29742128D01*
X127134551Y-29829796D01*
X127135119Y-29832875D01*
X127151410Y-29918789D01*
X127166652Y-29994696D01*
X127179861Y-30056045D01*
X127190054Y-30098282D01*
X127196248Y-30116855D01*
X127196543Y-30117184D01*
X127214788Y-30126253D01*
X127252405Y-30141367D01*
X127301271Y-30159262D01*
X127301543Y-30159358D01*
X127363093Y-30182493D01*
X127435657Y-30211965D01*
X127504057Y-30241597D01*
X127507294Y-30243062D01*
X127618702Y-30293626D01*
X127865399Y-30125160D01*
X127941077Y-30073803D01*
X128009631Y-30027889D01*
X128067088Y-29990030D01*
X128109476Y-29962837D01*
X128132825Y-29948921D01*
X128135042Y-29947889D01*
X128152010Y-29952484D01*
X128183701Y-29974655D01*
X128231352Y-30015447D01*
X128296198Y-30075905D01*
X128362397Y-30140227D01*
X128426214Y-30203612D01*
X128483329Y-30261451D01*
X128530305Y-30310175D01*
X128563703Y-30346210D01*
X128580085Y-30365984D01*
X128580694Y-30367002D01*
X128582505Y-30380572D01*
X128575683Y-30402733D01*
X128558540Y-30436478D01*
X128529393Y-30484800D01*
X128486555Y-30550692D01*
X128429448Y-30635517D01*
X128378766Y-30710177D01*
X128333461Y-30777140D01*
X128296150Y-30832516D01*
X128269452Y-30872420D01*
X128255985Y-30892962D01*
X128255137Y-30894356D01*
X128256781Y-30914038D01*
X128269245Y-30952293D01*
X128290048Y-31001889D01*
X128297462Y-31017728D01*
X128329814Y-31088290D01*
X128364328Y-31168353D01*
X128392365Y-31237629D01*
X128412568Y-31289045D01*
X128428615Y-31328119D01*
X128437888Y-31348541D01*
X128439041Y-31350114D01*
X128456096Y-31352721D01*
X128496298Y-31359863D01*
X128554302Y-31370523D01*
X128624763Y-31383685D01*
X128702335Y-31398333D01*
X128781672Y-31413449D01*
X128857431Y-31428018D01*
X128924264Y-31441022D01*
X128976828Y-31451445D01*
X129009776Y-31458270D01*
X129017857Y-31460199D01*
X129026205Y-31464962D01*
X129032506Y-31475718D01*
X129037045Y-31496098D01*
X129040104Y-31529734D01*
X129041967Y-31580255D01*
X129042918Y-31651292D01*
X129043240Y-31746476D01*
X129043257Y-31785492D01*
X129043257Y-32102799D01*
X128967057Y-32117839D01*
X128924663Y-32125995D01*
X128861400Y-32137899D01*
X128784962Y-32152116D01*
X128703043Y-32167210D01*
X128680400Y-32171355D01*
X128604806Y-32186053D01*
X128538953Y-32200505D01*
X128488366Y-32213375D01*
X128458574Y-32223322D01*
X128453612Y-32226287D01*
X128441426Y-32247283D01*
X128423953Y-32287967D01*
X128404577Y-32340322D01*
X128400734Y-32351600D01*
X128375339Y-32421523D01*
X128343817Y-32500418D01*
X128312969Y-32571266D01*
X128312817Y-32571595D01*
X128261447Y-32682733D01*
X128430399Y-32931253D01*
X128599352Y-33179772D01*
X128382429Y-33397058D01*
X128316819Y-33461726D01*
X128256979Y-33518733D01*
X128206267Y-33565033D01*
X128168046Y-33597584D01*
X128145675Y-33613343D01*
X128142466Y-33614343D01*
X128123626Y-33606469D01*
X128085180Y-33584578D01*
X128031330Y-33551267D01*
X127966276Y-33509131D01*
X127895940Y-33461943D01*
X127824555Y-33413810D01*
X127760908Y-33371928D01*
X127709041Y-33338871D01*
X127672995Y-33317218D01*
X127656867Y-33309543D01*
X127637189Y-33316037D01*
X127599875Y-33333150D01*
X127552621Y-33357326D01*
X127547612Y-33360013D01*
X127483977Y-33391927D01*
X127440341Y-33407579D01*
X127413202Y-33407745D01*
X127399057Y-33393204D01*
X127398975Y-33393000D01*
X127391905Y-33375779D01*
X127375042Y-33334899D01*
X127349695Y-33273525D01*
X127317171Y-33194819D01*
X127278778Y-33101947D01*
X127235822Y-32998072D01*
X127194222Y-32897502D01*
X127148504Y-32786516D01*
X127106526Y-32683703D01*
X127069548Y-32592215D01*
X127038827Y-32515201D01*
X127015622Y-32455815D01*
X127001190Y-32417209D01*
X126996743Y-32402800D01*
X127007896Y-32386272D01*
X127037069Y-32359930D01*
X127075971Y-32330887D01*
X127186757Y-32239039D01*
X127273351Y-32133759D01*
X127334716Y-32017266D01*
X127369815Y-31891776D01*
X127377608Y-31759507D01*
X127371943Y-31698457D01*
X127341078Y-31571795D01*
X127287920Y-31459941D01*
X127215767Y-31364001D01*
X127127917Y-31285076D01*
X127027665Y-31224270D01*
X126918310Y-31182687D01*
X126803147Y-31161428D01*
X126685475Y-31161599D01*
X126568590Y-31184301D01*
X126455789Y-31230638D01*
X126350369Y-31301713D01*
X126306368Y-31341911D01*
X126221979Y-31445129D01*
X126163222Y-31557925D01*
X126129704Y-31677010D01*
X126121035Y-31799095D01*
X126136823Y-31920893D01*
X126176678Y-32039116D01*
X126240207Y-32150475D01*
X126327021Y-32251684D01*
X126424029Y-32330887D01*
X126464437Y-32361162D01*
X126492982Y-32387219D01*
X126503257Y-32402825D01*
X126497877Y-32419843D01*
X126482575Y-32460500D01*
X126458612Y-32521642D01*
X126427244Y-32600119D01*
X126389732Y-32692780D01*
X126347333Y-32796472D01*
X126305663Y-32897526D01*
X126259690Y-33008607D01*
X126217107Y-33111541D01*
X126179221Y-33203165D01*
X126147340Y-33280316D01*
X126122771Y-33339831D01*
X126106820Y-33378544D01*
X126100910Y-33393000D01*
X126086948Y-33407685D01*
X126059940Y-33407642D01*
X126016413Y-33392099D01*
X125952890Y-33360284D01*
X125952388Y-33360013D01*
X125904560Y-33335323D01*
X125865897Y-33317338D01*
X125844095Y-33309614D01*
X125843133Y-33309543D01*
X125826721Y-33317378D01*
X125790487Y-33339165D01*
X125738474Y-33372328D01*
X125674725Y-33414291D01*
X125604060Y-33461943D01*
X125532116Y-33510191D01*
X125467274Y-33552151D01*
X125413735Y-33585227D01*
X125375697Y-33606821D01*
X125357533Y-33614343D01*
X125340808Y-33604457D01*
X125307180Y-33576826D01*
X125260010Y-33534495D01*
X125202658Y-33480505D01*
X125138484Y-33417899D01*
X125117497Y-33396983D01*
X124900499Y-33179623D01*
X125065668Y-32937220D01*
X125115864Y-32862781D01*
X125159919Y-32795972D01*
X125195362Y-32740665D01*
X125219719Y-32700729D01*
X125230522Y-32680036D01*
X125230838Y-32678563D01*
X125225143Y-32659058D01*
X125209826Y-32619822D01*
X125187537Y-32567430D01*
X125171893Y-32532355D01*
X125142641Y-32465201D01*
X125115094Y-32397358D01*
X125093737Y-32340034D01*
X125087935Y-32322572D01*
X125071452Y-32275938D01*
X125055340Y-32239905D01*
X125046490Y-32226287D01*
X125026960Y-32217952D01*
X124984334Y-32206137D01*
X124924145Y-32192181D01*
X124851922Y-32177422D01*
X124819600Y-32171355D01*
X124737522Y-32156273D01*
X124658795Y-32141669D01*
X124591109Y-32128980D01*
X124542160Y-32119642D01*
X124532943Y-32117839D01*
X124456743Y-32102799D01*
X124456743Y-31785492D01*
X124456914Y-31681154D01*
X124457616Y-31602213D01*
X124459134Y-31545038D01*
X124461749Y-31505999D01*
X124465746Y-31481465D01*
X124471409Y-31467805D01*
X124479020Y-31461389D01*
X124482143Y-31460199D01*
X124500978Y-31455980D01*
X124542588Y-31447562D01*
X124601630Y-31435961D01*
X124672757Y-31422195D01*
X124750625Y-31407280D01*
X124829887Y-31392232D01*
X124905198Y-31378069D01*
X124971213Y-31365806D01*
X125022587Y-31356461D01*
X125053975Y-31351050D01*
X125060959Y-31350114D01*
X125067285Y-31337596D01*
X125081290Y-31304246D01*
X125100355Y-31256377D01*
X125107634Y-31237629D01*
X125136996Y-31165195D01*
X125171571Y-31085170D01*
X125202537Y-31017728D01*
X125225323Y-30966159D01*
X125240482Y-30923785D01*
X125245542Y-30897834D01*
X125244736Y-30894356D01*
X125234041Y-30877936D01*
X125209620Y-30841417D01*
X125174095Y-30788687D01*
X125130087Y-30723635D01*
X125080217Y-30650151D01*
X125070356Y-30635645D01*
X125012492Y-30549704D01*
X124969956Y-30484261D01*
X124941054Y-30436304D01*
X124924090Y-30402820D01*
X124917367Y-30380795D01*
X124919190Y-30367217D01*
X124919236Y-30367131D01*
X124933586Y-30349297D01*
X124965323Y-30314817D01*
X125011010Y-30267268D01*
X125067204Y-30210222D01*
X125130468Y-30147255D01*
X125137602Y-30140227D01*
X125217330Y-30063020D01*
X125278857Y-30006330D01*
X125323421Y-29969110D01*
X125352257Y-29950315D01*
X125364958Y-29947889D01*
X125383494Y-29958471D01*
X125421961Y-29982916D01*
X125476386Y-30018612D01*
X125542798Y-30062947D01*
X125617225Y-30113311D01*
X125634601Y-30125160D01*
X125881297Y-30293626D01*
X125992706Y-30243062D01*
X126060457Y-30213595D01*
X126133183Y-30183959D01*
X126195703Y-30160330D01*
X126198457Y-30159358D01*
X126247360Y-30141457D01*
X126285057Y-30126320D01*
X126303425Y-30117210D01*
X126303456Y-30117184D01*
X126309285Y-30100717D01*
X126319192Y-30060219D01*
X126332195Y-30000242D01*
X126347309Y-29925340D01*
X126363552Y-29840064D01*
X126364881Y-29832875D01*
X126381175Y-29745014D01*
X126396133Y-29665260D01*
X126408791Y-29598681D01*
X126418186Y-29550347D01*
X126423354Y-29525325D01*
X126423444Y-29524943D01*
X126426589Y-29514299D01*
X126432704Y-29506262D01*
X126445453Y-29500467D01*
X126468500Y-29496547D01*
X126505509Y-29494135D01*
X126560144Y-29492865D01*
X126636067Y-29492371D01*
X126736944Y-29492286D01*
X126750000Y-29492286D01*
X126853910Y-29492348D01*
G36*
X129903595Y-34216966D02*
G01*
X129961021Y-34254497D01*
X129988719Y-34288096D01*
X130010662Y-34349064D01*
X130012405Y-34397308D01*
X130008457Y-34461816D01*
X129859686Y-34526934D01*
X129787349Y-34560202D01*
X129740084Y-34586964D01*
X129715507Y-34610144D01*
X129711237Y-34632667D01*
X129724889Y-34657455D01*
X129739943Y-34673886D01*
X129783746Y-34700235D01*
X129831389Y-34702081D01*
X129875145Y-34681546D01*
X129907289Y-34640752D01*
X129913038Y-34626347D01*
X129940576Y-34581356D01*
X129972258Y-34562182D01*
X130015714Y-34545779D01*
X130015714Y-34607966D01*
X130011872Y-34650283D01*
X129996823Y-34685969D01*
X129965280Y-34726943D01*
X129960592Y-34732267D01*
X129925506Y-34768720D01*
X129895347Y-34788283D01*
X129857615Y-34797283D01*
X129826335Y-34800230D01*
X129770385Y-34800965D01*
X129730555Y-34791660D01*
X129705708Y-34777846D01*
X129666656Y-34747467D01*
X129639625Y-34714613D01*
X129622517Y-34673294D01*
X129613238Y-34617521D01*
X129609693Y-34541305D01*
X129609410Y-34502622D01*
X129610372Y-34456247D01*
X129698007Y-34456247D01*
X129699023Y-34481126D01*
X129701556Y-34485200D01*
X129718274Y-34479665D01*
X129754249Y-34465017D01*
X129802331Y-34444190D01*
X129812386Y-34439714D01*
X129873152Y-34408814D01*
X129906632Y-34381657D01*
X129913990Y-34356220D01*
X129896391Y-34330481D01*
X129881856Y-34319109D01*
X129829410Y-34296364D01*
X129780322Y-34300122D01*
X129739227Y-34327884D01*
X129710758Y-34377152D01*
X129701631Y-34416257D01*
X129698007Y-34456247D01*
X129610372Y-34456247D01*
X129611285Y-34412249D01*
X129618196Y-34345384D01*
X129631884Y-34296695D01*
X129654096Y-34260849D01*
X129686574Y-34232513D01*
X129700733Y-34223355D01*
X129765053Y-34199507D01*
X129835473Y-34198006D01*
X129903595Y-34216966D01*
G37*
X129903595Y-34216966D02*
X129961021Y-34254497D01*
X129988719Y-34288096D01*
X130010662Y-34349064D01*
X130012405Y-34397308D01*
X130008457Y-34461816D01*
X129859686Y-34526934D01*
X129787349Y-34560202D01*
X129740084Y-34586964D01*
X129715507Y-34610144D01*
X129711237Y-34632667D01*
X129724889Y-34657455D01*
X129739943Y-34673886D01*
X129783746Y-34700235D01*
X129831389Y-34702081D01*
X129875145Y-34681546D01*
X129907289Y-34640752D01*
X129913038Y-34626347D01*
X129940576Y-34581356D01*
X129972258Y-34562182D01*
X130015714Y-34545779D01*
X130015714Y-34607966D01*
X130011872Y-34650283D01*
X129996823Y-34685969D01*
X129965280Y-34726943D01*
X129960592Y-34732267D01*
X129925506Y-34768720D01*
X129895347Y-34788283D01*
X129857615Y-34797283D01*
X129826335Y-34800230D01*
X129770385Y-34800965D01*
X129730555Y-34791660D01*
X129705708Y-34777846D01*
X129666656Y-34747467D01*
X129639625Y-34714613D01*
X129622517Y-34673294D01*
X129613238Y-34617521D01*
X129609693Y-34541305D01*
X129609410Y-34502622D01*
X129610372Y-34456247D01*
X129698007Y-34456247D01*
X129699023Y-34481126D01*
X129701556Y-34485200D01*
X129718274Y-34479665D01*
X129754249Y-34465017D01*
X129802331Y-34444190D01*
X129812386Y-34439714D01*
X129873152Y-34408814D01*
X129906632Y-34381657D01*
X129913990Y-34356220D01*
X129896391Y-34330481D01*
X129881856Y-34319109D01*
X129829410Y-34296364D01*
X129780322Y-34300122D01*
X129739227Y-34327884D01*
X129710758Y-34377152D01*
X129701631Y-34416257D01*
X129698007Y-34456247D01*
X129610372Y-34456247D01*
X129611285Y-34412249D01*
X129618196Y-34345384D01*
X129631884Y-34296695D01*
X129654096Y-34260849D01*
X129686574Y-34232513D01*
X129700733Y-34223355D01*
X129765053Y-34199507D01*
X129835473Y-34198006D01*
X129903595Y-34216966D01*
G36*
X129402600Y-34208752D02*
G01*
X129419948Y-34216334D01*
X129461356Y-34249128D01*
X129496765Y-34296547D01*
X129518664Y-34347151D01*
X129522229Y-34372098D01*
X129510279Y-34406927D01*
X129484067Y-34425357D01*
X129455964Y-34436516D01*
X129443095Y-34438572D01*
X129436829Y-34423649D01*
X129424456Y-34391175D01*
X129419028Y-34376502D01*
X129388590Y-34325744D01*
X129344520Y-34300427D01*
X129288010Y-34301206D01*
X129283825Y-34302203D01*
X129253655Y-34316507D01*
X129231476Y-34344393D01*
X129216327Y-34389287D01*
X129207250Y-34454615D01*
X129203286Y-34543804D01*
X129202914Y-34591261D01*
X129202730Y-34666071D01*
X129201522Y-34717069D01*
X129198309Y-34749471D01*
X129192109Y-34768495D01*
X129181940Y-34779356D01*
X129166819Y-34787272D01*
X129165946Y-34787670D01*
X129136828Y-34799981D01*
X129122403Y-34804514D01*
X129120186Y-34790809D01*
X129118289Y-34752925D01*
X129116847Y-34695715D01*
X129115998Y-34624027D01*
X129115829Y-34571565D01*
X129116692Y-34470047D01*
X129120070Y-34393032D01*
X129127142Y-34336023D01*
X129139088Y-34294526D01*
X129157090Y-34264043D01*
X129182327Y-34240080D01*
X129207247Y-34223355D01*
X129267171Y-34201097D01*
X129336911Y-34196076D01*
X129402600Y-34208752D01*
G37*
X129402600Y-34208752D02*
X129419948Y-34216334D01*
X129461356Y-34249128D01*
X129496765Y-34296547D01*
X129518664Y-34347151D01*
X129522229Y-34372098D01*
X129510279Y-34406927D01*
X129484067Y-34425357D01*
X129455964Y-34436516D01*
X129443095Y-34438572D01*
X129436829Y-34423649D01*
X129424456Y-34391175D01*
X129419028Y-34376502D01*
X129388590Y-34325744D01*
X129344520Y-34300427D01*
X129288010Y-34301206D01*
X129283825Y-34302203D01*
X129253655Y-34316507D01*
X129231476Y-34344393D01*
X129216327Y-34389287D01*
X129207250Y-34454615D01*
X129203286Y-34543804D01*
X129202914Y-34591261D01*
X129202730Y-34666071D01*
X129201522Y-34717069D01*
X129198309Y-34749471D01*
X129192109Y-34768495D01*
X129181940Y-34779356D01*
X129166819Y-34787272D01*
X129165946Y-34787670D01*
X129136828Y-34799981D01*
X129122403Y-34804514D01*
X129120186Y-34790809D01*
X129118289Y-34752925D01*
X129116847Y-34695715D01*
X129115998Y-34624027D01*
X129115829Y-34571565D01*
X129116692Y-34470047D01*
X129120070Y-34393032D01*
X129127142Y-34336023D01*
X129139088Y-34294526D01*
X129157090Y-34264043D01*
X129182327Y-34240080D01*
X129207247Y-34223355D01*
X129267171Y-34201097D01*
X129336911Y-34196076D01*
X129402600Y-34208752D01*
G36*
X128894876Y-34206335D02*
G01*
X128936667Y-34225344D01*
X128969469Y-34248378D01*
X128993503Y-34274133D01*
X129010097Y-34307358D01*
X129020577Y-34352800D01*
X129026271Y-34415207D01*
X129028507Y-34499327D01*
X129028743Y-34554721D01*
X129028743Y-34770826D01*
X128991774Y-34787670D01*
X128962656Y-34799981D01*
X128948231Y-34804514D01*
X128945472Y-34791025D01*
X128943282Y-34754653D01*
X128941942Y-34701542D01*
X128941657Y-34659372D01*
X128940434Y-34598447D01*
X128937136Y-34550115D01*
X128932321Y-34520518D01*
X128928496Y-34514229D01*
X128902783Y-34520652D01*
X128862418Y-34537125D01*
X128815679Y-34559458D01*
X128770845Y-34583457D01*
X128736193Y-34604930D01*
X128720002Y-34619685D01*
X128719938Y-34619845D01*
X128721330Y-34647152D01*
X128733818Y-34673219D01*
X128755743Y-34694392D01*
X128787743Y-34701474D01*
X128815092Y-34700649D01*
X128853826Y-34700042D01*
X128874158Y-34709116D01*
X128886369Y-34733092D01*
X128887909Y-34737613D01*
X128893203Y-34771806D01*
X128879047Y-34792568D01*
X128842148Y-34802462D01*
X128802289Y-34804292D01*
X128730562Y-34790727D01*
X128693432Y-34771355D01*
X128647576Y-34725845D01*
X128623256Y-34669983D01*
X128621073Y-34610957D01*
X128641629Y-34555953D01*
X128672549Y-34521486D01*
X128703420Y-34502189D01*
X128751942Y-34477759D01*
X128808485Y-34452985D01*
X128817910Y-34449199D01*
X128880019Y-34421791D01*
X128915822Y-34397634D01*
X128927337Y-34373619D01*
X128916580Y-34346635D01*
X128898114Y-34325543D01*
X128854469Y-34299572D01*
X128806446Y-34297624D01*
X128762406Y-34317637D01*
X128730709Y-34357551D01*
X128726549Y-34367848D01*
X128702327Y-34405724D01*
X128666965Y-34433842D01*
X128622343Y-34456917D01*
X128622343Y-34391485D01*
X128624969Y-34351506D01*
X128636230Y-34319997D01*
X128661199Y-34286378D01*
X128685169Y-34260484D01*
X128722441Y-34223817D01*
X128751401Y-34204121D01*
X128782505Y-34196220D01*
X128817713Y-34194914D01*
X128894876Y-34206335D01*
G37*
X128894876Y-34206335D02*
X128936667Y-34225344D01*
X128969469Y-34248378D01*
X128993503Y-34274133D01*
X129010097Y-34307358D01*
X129020577Y-34352800D01*
X129026271Y-34415207D01*
X129028507Y-34499327D01*
X129028743Y-34554721D01*
X129028743Y-34770826D01*
X128991774Y-34787670D01*
X128962656Y-34799981D01*
X128948231Y-34804514D01*
X128945472Y-34791025D01*
X128943282Y-34754653D01*
X128941942Y-34701542D01*
X128941657Y-34659372D01*
X128940434Y-34598447D01*
X128937136Y-34550115D01*
X128932321Y-34520518D01*
X128928496Y-34514229D01*
X128902783Y-34520652D01*
X128862418Y-34537125D01*
X128815679Y-34559458D01*
X128770845Y-34583457D01*
X128736193Y-34604930D01*
X128720002Y-34619685D01*
X128719938Y-34619845D01*
X128721330Y-34647152D01*
X128733818Y-34673219D01*
X128755743Y-34694392D01*
X128787743Y-34701474D01*
X128815092Y-34700649D01*
X128853826Y-34700042D01*
X128874158Y-34709116D01*
X128886369Y-34733092D01*
X128887909Y-34737613D01*
X128893203Y-34771806D01*
X128879047Y-34792568D01*
X128842148Y-34802462D01*
X128802289Y-34804292D01*
X128730562Y-34790727D01*
X128693432Y-34771355D01*
X128647576Y-34725845D01*
X128623256Y-34669983D01*
X128621073Y-34610957D01*
X128641629Y-34555953D01*
X128672549Y-34521486D01*
X128703420Y-34502189D01*
X128751942Y-34477759D01*
X128808485Y-34452985D01*
X128817910Y-34449199D01*
X128880019Y-34421791D01*
X128915822Y-34397634D01*
X128927337Y-34373619D01*
X128916580Y-34346635D01*
X128898114Y-34325543D01*
X128854469Y-34299572D01*
X128806446Y-34297624D01*
X128762406Y-34317637D01*
X128730709Y-34357551D01*
X128726549Y-34367848D01*
X128702327Y-34405724D01*
X128666965Y-34433842D01*
X128622343Y-34456917D01*
X128622343Y-34391485D01*
X128624969Y-34351506D01*
X128636230Y-34319997D01*
X128661199Y-34286378D01*
X128685169Y-34260484D01*
X128722441Y-34223817D01*
X128751401Y-34204121D01*
X128782505Y-34196220D01*
X128817713Y-34194914D01*
X128894876Y-34206335D01*
G36*
X128529833Y-34208663D02*
G01*
X128532048Y-34246850D01*
X128533784Y-34304886D01*
X128534899Y-34378180D01*
X128535257Y-34455055D01*
X128535257Y-34715196D01*
X128489326Y-34761127D01*
X128457675Y-34789429D01*
X128429890Y-34800893D01*
X128391915Y-34800168D01*
X128376840Y-34798321D01*
X128329726Y-34792948D01*
X128290756Y-34789869D01*
X128281257Y-34789585D01*
X128249233Y-34791445D01*
X128203432Y-34796114D01*
X128185674Y-34798321D01*
X128142057Y-34801735D01*
X128112745Y-34794320D01*
X128083680Y-34771427D01*
X128073188Y-34761127D01*
X128027257Y-34715196D01*
X128027257Y-34228602D01*
X128064226Y-34211758D01*
X128096059Y-34199282D01*
X128114683Y-34194914D01*
X128119458Y-34208718D01*
X128123921Y-34247286D01*
X128127775Y-34306356D01*
X128130722Y-34381663D01*
X128132143Y-34445286D01*
X128136114Y-34695657D01*
X128170759Y-34700556D01*
X128202268Y-34697131D01*
X128217708Y-34686041D01*
X128222023Y-34665308D01*
X128225708Y-34621145D01*
X128228469Y-34559146D01*
X128230012Y-34484909D01*
X128230235Y-34446706D01*
X128230457Y-34226783D01*
X128276166Y-34210849D01*
X128308518Y-34200015D01*
X128326115Y-34194962D01*
X128326623Y-34194914D01*
X128328388Y-34208648D01*
X128330329Y-34246730D01*
X128332282Y-34304482D01*
X128334084Y-34377227D01*
X128335343Y-34445286D01*
X128339314Y-34695657D01*
X128426400Y-34695657D01*
X128430396Y-34467240D01*
X128434392Y-34238822D01*
X128476847Y-34216868D01*
X128508192Y-34201793D01*
X128526744Y-34194951D01*
X128527279Y-34194914D01*
X128529833Y-34208663D01*
G37*
X128529833Y-34208663D02*
X128532048Y-34246850D01*
X128533784Y-34304886D01*
X128534899Y-34378180D01*
X128535257Y-34455055D01*
X128535257Y-34715196D01*
X128489326Y-34761127D01*
X128457675Y-34789429D01*
X128429890Y-34800893D01*
X128391915Y-34800168D01*
X128376840Y-34798321D01*
X128329726Y-34792948D01*
X128290756Y-34789869D01*
X128281257Y-34789585D01*
X128249233Y-34791445D01*
X128203432Y-34796114D01*
X128185674Y-34798321D01*
X128142057Y-34801735D01*
X128112745Y-34794320D01*
X128083680Y-34771427D01*
X128073188Y-34761127D01*
X128027257Y-34715196D01*
X128027257Y-34228602D01*
X128064226Y-34211758D01*
X128096059Y-34199282D01*
X128114683Y-34194914D01*
X128119458Y-34208718D01*
X128123921Y-34247286D01*
X128127775Y-34306356D01*
X128130722Y-34381663D01*
X128132143Y-34445286D01*
X128136114Y-34695657D01*
X128170759Y-34700556D01*
X128202268Y-34697131D01*
X128217708Y-34686041D01*
X128222023Y-34665308D01*
X128225708Y-34621145D01*
X128228469Y-34559146D01*
X128230012Y-34484909D01*
X128230235Y-34446706D01*
X128230457Y-34226783D01*
X128276166Y-34210849D01*
X128308518Y-34200015D01*
X128326115Y-34194962D01*
X128326623Y-34194914D01*
X128328388Y-34208648D01*
X128330329Y-34246730D01*
X128332282Y-34304482D01*
X128334084Y-34377227D01*
X128335343Y-34445286D01*
X128339314Y-34695657D01*
X128426400Y-34695657D01*
X128430396Y-34467240D01*
X128434392Y-34238822D01*
X128476847Y-34216868D01*
X128508192Y-34201793D01*
X128526744Y-34194951D01*
X128527279Y-34194914D01*
X128529833Y-34208663D01*
G36*
X127940117Y-34315358D02*
G01*
X127939933Y-34423837D01*
X127939219Y-34507287D01*
X127937675Y-34569704D01*
X127935001Y-34615085D01*
X127930894Y-34647429D01*
X127925055Y-34670733D01*
X127917182Y-34688995D01*
X127911221Y-34699418D01*
X127861855Y-34755945D01*
X127799264Y-34791377D01*
X127730013Y-34804090D01*
X127660668Y-34792463D01*
X127619375Y-34771568D01*
X127576025Y-34735422D01*
X127546481Y-34691276D01*
X127528655Y-34633462D01*
X127520463Y-34556313D01*
X127519302Y-34499714D01*
X127519458Y-34495647D01*
X127620857Y-34495647D01*
X127621476Y-34560550D01*
X127624314Y-34603514D01*
X127630840Y-34631622D01*
X127642523Y-34651953D01*
X127656483Y-34667288D01*
X127703365Y-34696890D01*
X127753701Y-34699419D01*
X127801276Y-34674705D01*
X127804979Y-34671356D01*
X127820783Y-34653935D01*
X127830693Y-34633209D01*
X127836058Y-34602362D01*
X127838228Y-34554577D01*
X127838571Y-34501748D01*
X127837827Y-34435381D01*
X127834748Y-34391106D01*
X127828061Y-34362009D01*
X127816496Y-34341173D01*
X127807013Y-34330107D01*
X127762960Y-34302198D01*
X127712224Y-34298843D01*
X127663796Y-34320159D01*
X127654450Y-34328073D01*
X127638540Y-34345647D01*
X127628610Y-34366587D01*
X127623278Y-34397782D01*
X127621163Y-34446122D01*
X127620857Y-34495647D01*
X127519458Y-34495647D01*
X127522810Y-34408568D01*
X127534726Y-34340086D01*
X127557135Y-34288600D01*
X127592124Y-34248443D01*
X127619375Y-34227861D01*
X127668907Y-34205625D01*
X127726316Y-34195304D01*
X127779682Y-34198067D01*
X127809543Y-34209212D01*
X127821261Y-34212383D01*
X127829037Y-34200557D01*
X127834465Y-34168866D01*
X127838571Y-34120593D01*
X127843067Y-34066829D01*
X127849313Y-34034482D01*
X127860676Y-34015985D01*
X127880528Y-34003770D01*
X127893000Y-33998362D01*
X127940171Y-33978601D01*
X127940117Y-34315358D01*
G37*
X127940117Y-34315358D02*
X127939933Y-34423837D01*
X127939219Y-34507287D01*
X127937675Y-34569704D01*
X127935001Y-34615085D01*
X127930894Y-34647429D01*
X127925055Y-34670733D01*
X127917182Y-34688995D01*
X127911221Y-34699418D01*
X127861855Y-34755945D01*
X127799264Y-34791377D01*
X127730013Y-34804090D01*
X127660668Y-34792463D01*
X127619375Y-34771568D01*
X127576025Y-34735422D01*
X127546481Y-34691276D01*
X127528655Y-34633462D01*
X127520463Y-34556313D01*
X127519302Y-34499714D01*
X127519458Y-34495647D01*
X127620857Y-34495647D01*
X127621476Y-34560550D01*
X127624314Y-34603514D01*
X127630840Y-34631622D01*
X127642523Y-34651953D01*
X127656483Y-34667288D01*
X127703365Y-34696890D01*
X127753701Y-34699419D01*
X127801276Y-34674705D01*
X127804979Y-34671356D01*
X127820783Y-34653935D01*
X127830693Y-34633209D01*
X127836058Y-34602362D01*
X127838228Y-34554577D01*
X127838571Y-34501748D01*
X127837827Y-34435381D01*
X127834748Y-34391106D01*
X127828061Y-34362009D01*
X127816496Y-34341173D01*
X127807013Y-34330107D01*
X127762960Y-34302198D01*
X127712224Y-34298843D01*
X127663796Y-34320159D01*
X127654450Y-34328073D01*
X127638540Y-34345647D01*
X127628610Y-34366587D01*
X127623278Y-34397782D01*
X127621163Y-34446122D01*
X127620857Y-34495647D01*
X127519458Y-34495647D01*
X127522810Y-34408568D01*
X127534726Y-34340086D01*
X127557135Y-34288600D01*
X127592124Y-34248443D01*
X127619375Y-34227861D01*
X127668907Y-34205625D01*
X127726316Y-34195304D01*
X127779682Y-34198067D01*
X127809543Y-34209212D01*
X127821261Y-34212383D01*
X127829037Y-34200557D01*
X127834465Y-34168866D01*
X127838571Y-34120593D01*
X127843067Y-34066829D01*
X127849313Y-34034482D01*
X127860676Y-34015985D01*
X127880528Y-34003770D01*
X127893000Y-33998362D01*
X127940171Y-33978601D01*
X127940117Y-34315358D01*
G36*
X127279926Y-34199755D02*
G01*
X127345858Y-34224084D01*
X127399273Y-34267117D01*
X127420164Y-34297409D01*
X127442939Y-34352994D01*
X127442466Y-34393186D01*
X127418562Y-34420217D01*
X127409717Y-34424813D01*
X127371530Y-34439144D01*
X127352028Y-34435472D01*
X127345422Y-34411407D01*
X127345086Y-34398114D01*
X127332992Y-34349210D01*
X127301471Y-34314999D01*
X127257659Y-34298476D01*
X127208695Y-34302634D01*
X127168894Y-34324227D01*
X127155450Y-34336544D01*
X127145921Y-34351487D01*
X127139485Y-34374075D01*
X127135317Y-34409328D01*
X127132597Y-34462266D01*
X127130502Y-34537907D01*
X127129960Y-34561857D01*
X127127981Y-34643790D01*
X127125731Y-34701455D01*
X127122357Y-34739608D01*
X127117006Y-34763004D01*
X127108824Y-34776398D01*
X127096959Y-34784545D01*
X127089362Y-34788144D01*
X127057102Y-34800452D01*
X127038111Y-34804514D01*
X127031836Y-34790948D01*
X127028006Y-34749934D01*
X127026600Y-34680999D01*
X127027598Y-34583669D01*
X127027908Y-34568657D01*
X127030101Y-34479859D01*
X127032693Y-34415019D01*
X127036382Y-34369067D01*
X127041864Y-34336935D01*
X127049835Y-34313553D01*
X127060993Y-34293852D01*
X127066830Y-34285410D01*
X127100296Y-34248057D01*
X127137727Y-34219003D01*
X127142309Y-34216467D01*
X127209426Y-34196443D01*
X127279926Y-34199755D01*
G37*
X127279926Y-34199755D02*
X127345858Y-34224084D01*
X127399273Y-34267117D01*
X127420164Y-34297409D01*
X127442939Y-34352994D01*
X127442466Y-34393186D01*
X127418562Y-34420217D01*
X127409717Y-34424813D01*
X127371530Y-34439144D01*
X127352028Y-34435472D01*
X127345422Y-34411407D01*
X127345086Y-34398114D01*
X127332992Y-34349210D01*
X127301471Y-34314999D01*
X127257659Y-34298476D01*
X127208695Y-34302634D01*
X127168894Y-34324227D01*
X127155450Y-34336544D01*
X127145921Y-34351487D01*
X127139485Y-34374075D01*
X127135317Y-34409328D01*
X127132597Y-34462266D01*
X127130502Y-34537907D01*
X127129960Y-34561857D01*
X127127981Y-34643790D01*
X127125731Y-34701455D01*
X127122357Y-34739608D01*
X127117006Y-34763004D01*
X127108824Y-34776398D01*
X127096959Y-34784545D01*
X127089362Y-34788144D01*
X127057102Y-34800452D01*
X127038111Y-34804514D01*
X127031836Y-34790948D01*
X127028006Y-34749934D01*
X127026600Y-34680999D01*
X127027598Y-34583669D01*
X127027908Y-34568657D01*
X127030101Y-34479859D01*
X127032693Y-34415019D01*
X127036382Y-34369067D01*
X127041864Y-34336935D01*
X127049835Y-34313553D01*
X127060993Y-34293852D01*
X127066830Y-34285410D01*
X127100296Y-34248057D01*
X127137727Y-34219003D01*
X127142309Y-34216467D01*
X127209426Y-34196443D01*
X127279926Y-34199755D01*
G36*
X126789744Y-34200968D02*
G01*
X126846616Y-34222087D01*
X126847267Y-34222493D01*
X126882440Y-34248380D01*
X126908407Y-34278633D01*
X126926670Y-34318058D01*
X126938732Y-34371462D01*
X126946096Y-34443651D01*
X126950264Y-34539432D01*
X126950629Y-34553078D01*
X126955876Y-34758842D01*
X126911716Y-34781678D01*
X126879763Y-34797110D01*
X126860470Y-34804423D01*
X126859578Y-34804514D01*
X126856239Y-34791022D01*
X126853587Y-34754626D01*
X126851956Y-34701452D01*
X126851600Y-34658393D01*
X126851592Y-34588641D01*
X126848403Y-34544837D01*
X126837288Y-34523944D01*
X126813501Y-34522925D01*
X126772296Y-34538741D01*
X126710086Y-34567815D01*
X126664341Y-34591963D01*
X126640813Y-34612913D01*
X126633896Y-34635747D01*
X126633886Y-34636877D01*
X126645299Y-34676212D01*
X126679092Y-34697462D01*
X126730809Y-34700539D01*
X126768061Y-34700006D01*
X126787703Y-34710735D01*
X126799952Y-34736505D01*
X126807002Y-34769337D01*
X126796842Y-34787966D01*
X126793017Y-34790632D01*
X126757001Y-34801340D01*
X126706566Y-34802856D01*
X126654626Y-34795759D01*
X126617822Y-34782788D01*
X126566938Y-34739585D01*
X126538014Y-34679446D01*
X126532286Y-34632462D01*
X126536657Y-34590082D01*
X126552475Y-34555488D01*
X126583797Y-34524763D01*
X126634678Y-34493990D01*
X126709176Y-34459252D01*
X126713714Y-34457288D01*
X126780821Y-34426287D01*
X126822232Y-34400862D01*
X126839981Y-34378014D01*
X126836107Y-34354745D01*
X126812643Y-34328056D01*
X126805627Y-34321914D01*
X126758630Y-34298100D01*
X126709933Y-34299103D01*
X126667522Y-34322451D01*
X126639384Y-34365675D01*
X126636769Y-34374160D01*
X126611308Y-34415308D01*
X126579001Y-34435128D01*
X126532286Y-34454770D01*
X126532286Y-34403950D01*
X126546496Y-34330082D01*
X126588675Y-34262327D01*
X126610624Y-34239661D01*
X126660517Y-34210569D01*
X126723967Y-34197400D01*
X126789744Y-34200968D01*
G37*
X126789744Y-34200968D02*
X126846616Y-34222087D01*
X126847267Y-34222493D01*
X126882440Y-34248380D01*
X126908407Y-34278633D01*
X126926670Y-34318058D01*
X126938732Y-34371462D01*
X126946096Y-34443651D01*
X126950264Y-34539432D01*
X126950629Y-34553078D01*
X126955876Y-34758842D01*
X126911716Y-34781678D01*
X126879763Y-34797110D01*
X126860470Y-34804423D01*
X126859578Y-34804514D01*
X126856239Y-34791022D01*
X126853587Y-34754626D01*
X126851956Y-34701452D01*
X126851600Y-34658393D01*
X126851592Y-34588641D01*
X126848403Y-34544837D01*
X126837288Y-34523944D01*
X126813501Y-34522925D01*
X126772296Y-34538741D01*
X126710086Y-34567815D01*
X126664341Y-34591963D01*
X126640813Y-34612913D01*
X126633896Y-34635747D01*
X126633886Y-34636877D01*
X126645299Y-34676212D01*
X126679092Y-34697462D01*
X126730809Y-34700539D01*
X126768061Y-34700006D01*
X126787703Y-34710735D01*
X126799952Y-34736505D01*
X126807002Y-34769337D01*
X126796842Y-34787966D01*
X126793017Y-34790632D01*
X126757001Y-34801340D01*
X126706566Y-34802856D01*
X126654626Y-34795759D01*
X126617822Y-34782788D01*
X126566938Y-34739585D01*
X126538014Y-34679446D01*
X126532286Y-34632462D01*
X126536657Y-34590082D01*
X126552475Y-34555488D01*
X126583797Y-34524763D01*
X126634678Y-34493990D01*
X126709176Y-34459252D01*
X126713714Y-34457288D01*
X126780821Y-34426287D01*
X126822232Y-34400862D01*
X126839981Y-34378014D01*
X126836107Y-34354745D01*
X126812643Y-34328056D01*
X126805627Y-34321914D01*
X126758630Y-34298100D01*
X126709933Y-34299103D01*
X126667522Y-34322451D01*
X126639384Y-34365675D01*
X126636769Y-34374160D01*
X126611308Y-34415308D01*
X126579001Y-34435128D01*
X126532286Y-34454770D01*
X126532286Y-34403950D01*
X126546496Y-34330082D01*
X126588675Y-34262327D01*
X126610624Y-34239661D01*
X126660517Y-34210569D01*
X126723967Y-34197400D01*
X126789744Y-34200968D01*
G36*
X126125886Y-34101289D02*
G01*
X126130139Y-34160613D01*
X126135025Y-34195572D01*
X126141795Y-34210820D01*
X126151702Y-34211015D01*
X126154914Y-34209195D01*
X126197644Y-34196015D01*
X126253227Y-34196785D01*
X126309737Y-34210333D01*
X126345082Y-34227861D01*
X126381321Y-34255861D01*
X126407813Y-34287549D01*
X126425999Y-34327813D01*
X126437322Y-34381543D01*
X126443222Y-34453626D01*
X126445143Y-34548951D01*
X126445177Y-34567237D01*
X126445200Y-34772646D01*
X126399491Y-34788580D01*
X126367027Y-34799420D01*
X126349215Y-34804468D01*
X126348691Y-34804514D01*
X126346937Y-34790828D01*
X126345444Y-34753076D01*
X126344326Y-34696224D01*
X126343697Y-34625234D01*
X126343600Y-34582073D01*
X126343398Y-34496973D01*
X126342358Y-34435981D01*
X126339831Y-34394177D01*
X126335164Y-34366642D01*
X126327707Y-34348456D01*
X126316811Y-34334698D01*
X126310007Y-34328073D01*
X126263272Y-34301375D01*
X126212272Y-34299375D01*
X126166001Y-34321955D01*
X126157444Y-34330107D01*
X126144893Y-34345436D01*
X126136188Y-34363618D01*
X126130631Y-34389909D01*
X126127526Y-34429562D01*
X126126176Y-34487832D01*
X126125886Y-34568173D01*
X126125886Y-34772646D01*
X126080177Y-34788580D01*
X126047713Y-34799420D01*
X126029901Y-34804468D01*
X126029377Y-34804514D01*
X126028037Y-34790623D01*
X126026828Y-34751439D01*
X126025801Y-34690700D01*
X126025002Y-34612141D01*
X126024481Y-34519498D01*
X126024286Y-34416509D01*
X126024286Y-34019342D01*
X126071457Y-33999444D01*
X126118629Y-33979547D01*
X126125886Y-34101289D01*
G37*
X126125886Y-34101289D02*
X126130139Y-34160613D01*
X126135025Y-34195572D01*
X126141795Y-34210820D01*
X126151702Y-34211015D01*
X126154914Y-34209195D01*
X126197644Y-34196015D01*
X126253227Y-34196785D01*
X126309737Y-34210333D01*
X126345082Y-34227861D01*
X126381321Y-34255861D01*
X126407813Y-34287549D01*
X126425999Y-34327813D01*
X126437322Y-34381543D01*
X126443222Y-34453626D01*
X126445143Y-34548951D01*
X126445177Y-34567237D01*
X126445200Y-34772646D01*
X126399491Y-34788580D01*
X126367027Y-34799420D01*
X126349215Y-34804468D01*
X126348691Y-34804514D01*
X126346937Y-34790828D01*
X126345444Y-34753076D01*
X126344326Y-34696224D01*
X126343697Y-34625234D01*
X126343600Y-34582073D01*
X126343398Y-34496973D01*
X126342358Y-34435981D01*
X126339831Y-34394177D01*
X126335164Y-34366642D01*
X126327707Y-34348456D01*
X126316811Y-34334698D01*
X126310007Y-34328073D01*
X126263272Y-34301375D01*
X126212272Y-34299375D01*
X126166001Y-34321955D01*
X126157444Y-34330107D01*
X126144893Y-34345436D01*
X126136188Y-34363618D01*
X126130631Y-34389909D01*
X126127526Y-34429562D01*
X126126176Y-34487832D01*
X126125886Y-34568173D01*
X126125886Y-34772646D01*
X126080177Y-34788580D01*
X126047713Y-34799420D01*
X126029901Y-34804468D01*
X126029377Y-34804514D01*
X126028037Y-34790623D01*
X126026828Y-34751439D01*
X126025801Y-34690700D01*
X126025002Y-34612141D01*
X126024481Y-34519498D01*
X126024286Y-34416509D01*
X126024286Y-34019342D01*
X126071457Y-33999444D01*
X126118629Y-33979547D01*
X126125886Y-34101289D01*
G36*
X124918303Y-34181239D02*
G01*
X124975527Y-34219735D01*
X125019749Y-34275335D01*
X125046167Y-34346086D01*
X125051510Y-34398162D01*
X125050903Y-34419893D01*
X125045822Y-34436531D01*
X125031855Y-34451437D01*
X125004589Y-34467973D01*
X124959612Y-34489498D01*
X124892511Y-34519374D01*
X124892171Y-34519524D01*
X124830407Y-34547813D01*
X124779759Y-34572933D01*
X124745404Y-34592179D01*
X124732518Y-34602848D01*
X124732514Y-34602934D01*
X124743872Y-34626166D01*
X124770431Y-34651774D01*
X124800923Y-34670221D01*
X124816370Y-34673886D01*
X124858515Y-34661212D01*
X124894808Y-34629471D01*
X124912517Y-34594572D01*
X124929552Y-34568845D01*
X124962922Y-34539546D01*
X125002149Y-34514235D01*
X125036756Y-34500471D01*
X125043993Y-34499714D01*
X125052139Y-34512160D01*
X125052630Y-34543972D01*
X125046643Y-34586866D01*
X125035357Y-34632558D01*
X125019950Y-34672761D01*
X125019171Y-34674322D01*
X124972804Y-34739062D01*
X124912711Y-34783097D01*
X124844465Y-34804711D01*
X124773638Y-34802185D01*
X124705804Y-34773804D01*
X124702788Y-34771808D01*
X124649427Y-34723448D01*
X124614340Y-34660352D01*
X124594922Y-34577387D01*
X124592316Y-34554078D01*
X124587701Y-34444055D01*
X124593233Y-34392748D01*
X124732514Y-34392748D01*
X124734324Y-34424753D01*
X124744222Y-34434093D01*
X124768898Y-34427105D01*
X124807795Y-34410587D01*
X124851275Y-34389881D01*
X124852356Y-34389333D01*
X124889209Y-34369949D01*
X124904000Y-34357013D01*
X124900353Y-34343451D01*
X124884995Y-34325632D01*
X124845923Y-34299845D01*
X124803846Y-34297950D01*
X124766103Y-34316717D01*
X124740034Y-34352915D01*
X124732514Y-34392748D01*
X124593233Y-34392748D01*
X124597194Y-34356027D01*
X124621550Y-34286212D01*
X124655456Y-34237302D01*
X124716653Y-34187878D01*
X124784063Y-34163359D01*
X124852880Y-34161797D01*
X124918303Y-34181239D01*
G37*
X124918303Y-34181239D02*
X124975527Y-34219735D01*
X125019749Y-34275335D01*
X125046167Y-34346086D01*
X125051510Y-34398162D01*
X125050903Y-34419893D01*
X125045822Y-34436531D01*
X125031855Y-34451437D01*
X125004589Y-34467973D01*
X124959612Y-34489498D01*
X124892511Y-34519374D01*
X124892171Y-34519524D01*
X124830407Y-34547813D01*
X124779759Y-34572933D01*
X124745404Y-34592179D01*
X124732518Y-34602848D01*
X124732514Y-34602934D01*
X124743872Y-34626166D01*
X124770431Y-34651774D01*
X124800923Y-34670221D01*
X124816370Y-34673886D01*
X124858515Y-34661212D01*
X124894808Y-34629471D01*
X124912517Y-34594572D01*
X124929552Y-34568845D01*
X124962922Y-34539546D01*
X125002149Y-34514235D01*
X125036756Y-34500471D01*
X125043993Y-34499714D01*
X125052139Y-34512160D01*
X125052630Y-34543972D01*
X125046643Y-34586866D01*
X125035357Y-34632558D01*
X125019950Y-34672761D01*
X125019171Y-34674322D01*
X124972804Y-34739062D01*
X124912711Y-34783097D01*
X124844465Y-34804711D01*
X124773638Y-34802185D01*
X124705804Y-34773804D01*
X124702788Y-34771808D01*
X124649427Y-34723448D01*
X124614340Y-34660352D01*
X124594922Y-34577387D01*
X124592316Y-34554078D01*
X124587701Y-34444055D01*
X124593233Y-34392748D01*
X124732514Y-34392748D01*
X124734324Y-34424753D01*
X124744222Y-34434093D01*
X124768898Y-34427105D01*
X124807795Y-34410587D01*
X124851275Y-34389881D01*
X124852356Y-34389333D01*
X124889209Y-34369949D01*
X124904000Y-34357013D01*
X124900353Y-34343451D01*
X124884995Y-34325632D01*
X124845923Y-34299845D01*
X124803846Y-34297950D01*
X124766103Y-34316717D01*
X124740034Y-34352915D01*
X124732514Y-34392748D01*
X124593233Y-34392748D01*
X124597194Y-34356027D01*
X124621550Y-34286212D01*
X124655456Y-34237302D01*
X124716653Y-34187878D01*
X124784063Y-34163359D01*
X124852880Y-34161797D01*
X124918303Y-34181239D01*
G36*
X123791115Y-34171962D02*
G01*
X123859145Y-34207733D01*
X123909351Y-34265301D01*
X123927185Y-34302312D01*
X123941063Y-34357882D01*
X123948167Y-34428096D01*
X123948840Y-34504727D01*
X123943427Y-34579552D01*
X123932270Y-34644342D01*
X123915714Y-34690873D01*
X123910626Y-34698887D01*
X123850355Y-34758707D01*
X123778769Y-34794535D01*
X123701092Y-34805020D01*
X123622548Y-34788810D01*
X123600689Y-34779092D01*
X123558122Y-34749143D01*
X123520763Y-34709433D01*
X123517232Y-34704397D01*
X123502881Y-34680124D01*
X123493394Y-34654178D01*
X123487790Y-34620022D01*
X123485086Y-34571119D01*
X123484299Y-34500935D01*
X123484286Y-34485200D01*
X123484322Y-34480192D01*
X123629429Y-34480192D01*
X123630273Y-34546430D01*
X123633596Y-34590386D01*
X123640583Y-34618779D01*
X123652416Y-34638325D01*
X123658457Y-34644857D01*
X123693186Y-34669680D01*
X123726903Y-34668548D01*
X123760995Y-34647016D01*
X123781329Y-34624029D01*
X123793371Y-34590478D01*
X123800134Y-34537569D01*
X123800598Y-34531399D01*
X123801752Y-34435513D01*
X123789688Y-34364299D01*
X123764570Y-34318194D01*
X123726560Y-34297635D01*
X123712992Y-34296514D01*
X123677364Y-34302152D01*
X123652994Y-34321686D01*
X123638093Y-34359042D01*
X123630875Y-34418150D01*
X123629429Y-34480192D01*
X123484322Y-34480192D01*
X123484826Y-34410413D01*
X123487096Y-34358159D01*
X123492068Y-34321949D01*
X123500713Y-34295299D01*
X123514005Y-34271722D01*
X123516943Y-34267338D01*
X123566313Y-34208249D01*
X123620109Y-34173947D01*
X123685602Y-34160331D01*
X123707842Y-34159665D01*
X123791115Y-34171962D01*
G37*
X123791115Y-34171962D02*
X123859145Y-34207733D01*
X123909351Y-34265301D01*
X123927185Y-34302312D01*
X123941063Y-34357882D01*
X123948167Y-34428096D01*
X123948840Y-34504727D01*
X123943427Y-34579552D01*
X123932270Y-34644342D01*
X123915714Y-34690873D01*
X123910626Y-34698887D01*
X123850355Y-34758707D01*
X123778769Y-34794535D01*
X123701092Y-34805020D01*
X123622548Y-34788810D01*
X123600689Y-34779092D01*
X123558122Y-34749143D01*
X123520763Y-34709433D01*
X123517232Y-34704397D01*
X123502881Y-34680124D01*
X123493394Y-34654178D01*
X123487790Y-34620022D01*
X123485086Y-34571119D01*
X123484299Y-34500935D01*
X123484286Y-34485200D01*
X123484322Y-34480192D01*
X123629429Y-34480192D01*
X123630273Y-34546430D01*
X123633596Y-34590386D01*
X123640583Y-34618779D01*
X123652416Y-34638325D01*
X123658457Y-34644857D01*
X123693186Y-34669680D01*
X123726903Y-34668548D01*
X123760995Y-34647016D01*
X123781329Y-34624029D01*
X123793371Y-34590478D01*
X123800134Y-34537569D01*
X123800598Y-34531399D01*
X123801752Y-34435513D01*
X123789688Y-34364299D01*
X123764570Y-34318194D01*
X123726560Y-34297635D01*
X123712992Y-34296514D01*
X123677364Y-34302152D01*
X123652994Y-34321686D01*
X123638093Y-34359042D01*
X123630875Y-34418150D01*
X123629429Y-34480192D01*
X123484322Y-34480192D01*
X123484826Y-34410413D01*
X123487096Y-34358159D01*
X123492068Y-34321949D01*
X123500713Y-34295299D01*
X123514005Y-34271722D01*
X123516943Y-34267338D01*
X123566313Y-34208249D01*
X123620109Y-34173947D01*
X123685602Y-34160331D01*
X123707842Y-34159665D01*
X123791115Y-34171962D01*
G36*
X125466093Y-34177780D02*
G01*
X125512672Y-34204723D01*
X125545057Y-34231466D01*
X125568742Y-34259484D01*
X125585059Y-34293748D01*
X125595339Y-34339227D01*
X125600914Y-34400892D01*
X125603116Y-34483711D01*
X125603371Y-34543246D01*
X125603371Y-34762391D01*
X125541686Y-34790044D01*
X125480000Y-34817697D01*
X125472743Y-34577670D01*
X125469744Y-34488028D01*
X125466598Y-34422962D01*
X125462701Y-34378026D01*
X125457447Y-34348770D01*
X125450231Y-34330748D01*
X125440450Y-34319511D01*
X125437312Y-34317079D01*
X125389761Y-34298083D01*
X125341697Y-34305600D01*
X125313086Y-34325543D01*
X125301447Y-34339675D01*
X125293391Y-34358220D01*
X125288271Y-34386334D01*
X125285441Y-34429173D01*
X125284256Y-34491895D01*
X125284057Y-34557261D01*
X125284018Y-34639268D01*
X125282614Y-34697316D01*
X125277914Y-34736465D01*
X125267987Y-34761780D01*
X125250903Y-34778323D01*
X125224732Y-34791156D01*
X125189775Y-34804491D01*
X125151596Y-34819007D01*
X125156141Y-34561389D01*
X125157971Y-34468519D01*
X125160112Y-34399889D01*
X125163181Y-34350711D01*
X125167794Y-34316198D01*
X125174568Y-34291562D01*
X125184119Y-34272016D01*
X125195634Y-34254770D01*
X125251190Y-34199680D01*
X125318980Y-34167822D01*
X125392713Y-34160191D01*
X125466093Y-34177780D01*
G37*
X125466093Y-34177780D02*
X125512672Y-34204723D01*
X125545057Y-34231466D01*
X125568742Y-34259484D01*
X125585059Y-34293748D01*
X125595339Y-34339227D01*
X125600914Y-34400892D01*
X125603116Y-34483711D01*
X125603371Y-34543246D01*
X125603371Y-34762391D01*
X125541686Y-34790044D01*
X125480000Y-34817697D01*
X125472743Y-34577670D01*
X125469744Y-34488028D01*
X125466598Y-34422962D01*
X125462701Y-34378026D01*
X125457447Y-34348770D01*
X125450231Y-34330748D01*
X125440450Y-34319511D01*
X125437312Y-34317079D01*
X125389761Y-34298083D01*
X125341697Y-34305600D01*
X125313086Y-34325543D01*
X125301447Y-34339675D01*
X125293391Y-34358220D01*
X125288271Y-34386334D01*
X125285441Y-34429173D01*
X125284256Y-34491895D01*
X125284057Y-34557261D01*
X125284018Y-34639268D01*
X125282614Y-34697316D01*
X125277914Y-34736465D01*
X125267987Y-34761780D01*
X125250903Y-34778323D01*
X125224732Y-34791156D01*
X125189775Y-34804491D01*
X125151596Y-34819007D01*
X125156141Y-34561389D01*
X125157971Y-34468519D01*
X125160112Y-34399889D01*
X125163181Y-34350711D01*
X125167794Y-34316198D01*
X125174568Y-34291562D01*
X125184119Y-34272016D01*
X125195634Y-34254770D01*
X125251190Y-34199680D01*
X125318980Y-34167822D01*
X125392713Y-34160191D01*
X125466093Y-34177780D01*
G36*
X124349744Y-34169918D02*
G01*
X124405201Y-34197568D01*
X124454148Y-34248480D01*
X124467629Y-34267338D01*
X124482314Y-34292015D01*
X124491842Y-34318816D01*
X124497293Y-34354587D01*
X124499747Y-34406169D01*
X124500286Y-34474267D01*
X124497852Y-34567588D01*
X124489394Y-34637657D01*
X124473174Y-34689931D01*
X124447454Y-34729869D01*
X124410497Y-34762929D01*
X124407782Y-34764886D01*
X124371360Y-34784908D01*
X124327502Y-34794815D01*
X124271724Y-34797257D01*
X124181048Y-34797257D01*
X124181010Y-34885283D01*
X124180166Y-34934308D01*
X124175024Y-34963065D01*
X124161587Y-34980311D01*
X124135858Y-34994808D01*
X124129679Y-34997769D01*
X124100764Y-35011648D01*
X124078376Y-35020414D01*
X124061729Y-35021171D01*
X124050036Y-35011023D01*
X124042510Y-34987073D01*
X124038366Y-34946426D01*
X124036815Y-34886186D01*
X124037071Y-34803455D01*
X124038349Y-34695339D01*
X124038748Y-34663000D01*
X124040185Y-34551524D01*
X124041472Y-34478603D01*
X124180971Y-34478603D01*
X124181755Y-34540499D01*
X124185240Y-34580997D01*
X124193124Y-34607708D01*
X124207105Y-34628244D01*
X124216597Y-34638260D01*
X124255404Y-34667567D01*
X124289763Y-34669952D01*
X124325216Y-34645750D01*
X124326114Y-34644857D01*
X124340539Y-34626153D01*
X124349313Y-34600732D01*
X124353739Y-34561584D01*
X124355118Y-34501697D01*
X124355143Y-34488430D01*
X124351812Y-34405901D01*
X124340969Y-34348691D01*
X124321340Y-34313766D01*
X124291650Y-34298094D01*
X124274491Y-34296514D01*
X124233766Y-34303926D01*
X124205832Y-34328330D01*
X124189017Y-34372980D01*
X124181650Y-34441130D01*
X124180971Y-34478603D01*
X124041472Y-34478603D01*
X124041708Y-34465245D01*
X124043677Y-34400333D01*
X124046450Y-34352958D01*
X124050388Y-34319290D01*
X124055849Y-34295498D01*
X124063192Y-34277753D01*
X124072777Y-34262224D01*
X124076887Y-34256381D01*
X124131405Y-34201185D01*
X124200336Y-34169890D01*
X124280072Y-34161165D01*
X124349744Y-34169918D01*
G37*
X124349744Y-34169918D02*
X124405201Y-34197568D01*
X124454148Y-34248480D01*
X124467629Y-34267338D01*
X124482314Y-34292015D01*
X124491842Y-34318816D01*
X124497293Y-34354587D01*
X124499747Y-34406169D01*
X124500286Y-34474267D01*
X124497852Y-34567588D01*
X124489394Y-34637657D01*
X124473174Y-34689931D01*
X124447454Y-34729869D01*
X124410497Y-34762929D01*
X124407782Y-34764886D01*
X124371360Y-34784908D01*
X124327502Y-34794815D01*
X124271724Y-34797257D01*
X124181048Y-34797257D01*
X124181010Y-34885283D01*
X124180166Y-34934308D01*
X124175024Y-34963065D01*
X124161587Y-34980311D01*
X124135858Y-34994808D01*
X124129679Y-34997769D01*
X124100764Y-35011648D01*
X124078376Y-35020414D01*
X124061729Y-35021171D01*
X124050036Y-35011023D01*
X124042510Y-34987073D01*
X124038366Y-34946426D01*
X124036815Y-34886186D01*
X124037071Y-34803455D01*
X124038349Y-34695339D01*
X124038748Y-34663000D01*
X124040185Y-34551524D01*
X124041472Y-34478603D01*
X124180971Y-34478603D01*
X124181755Y-34540499D01*
X124185240Y-34580997D01*
X124193124Y-34607708D01*
X124207105Y-34628244D01*
X124216597Y-34638260D01*
X124255404Y-34667567D01*
X124289763Y-34669952D01*
X124325216Y-34645750D01*
X124326114Y-34644857D01*
X124340539Y-34626153D01*
X124349313Y-34600732D01*
X124353739Y-34561584D01*
X124355118Y-34501697D01*
X124355143Y-34488430D01*
X124351812Y-34405901D01*
X124340969Y-34348691D01*
X124321340Y-34313766D01*
X124291650Y-34298094D01*
X124274491Y-34296514D01*
X124233766Y-34303926D01*
X124205832Y-34328330D01*
X124189017Y-34372980D01*
X124181650Y-34441130D01*
X124180971Y-34478603D01*
X124041472Y-34478603D01*
X124041708Y-34465245D01*
X124043677Y-34400333D01*
X124046450Y-34352958D01*
X124050388Y-34319290D01*
X124055849Y-34295498D01*
X124063192Y-34277753D01*
X124072777Y-34262224D01*
X124076887Y-34256381D01*
X124131405Y-34201185D01*
X124200336Y-34169890D01*
X124280072Y-34161165D01*
X124349744Y-34169918D01*
%TO.C,J5*%
D11*
X45466666Y-78652380D02*
X45466666Y-79366666D01*
X45419047Y-79509523D01*
X45323809Y-79604761D01*
X45180952Y-79652380D01*
X45085714Y-79652380D01*
X46419047Y-78652380D02*
X45942857Y-78652380D01*
X45895238Y-79128571D01*
X45942857Y-79080952D01*
X46038095Y-79033333D01*
X46276190Y-79033333D01*
X46371428Y-79080952D01*
X46419047Y-79128571D01*
X46466666Y-79223809D01*
X46466666Y-79461904D01*
X46419047Y-79557142D01*
X46371428Y-79604761D01*
X46276190Y-79652380D01*
X46038095Y-79652380D01*
X45942857Y-79604761D01*
X45895238Y-79557142D01*
%TO.C,J4*%
X45466666Y-54922380D02*
X45466666Y-55636666D01*
X45419047Y-55779523D01*
X45323809Y-55874761D01*
X45180952Y-55922380D01*
X45085714Y-55922380D01*
X46371428Y-55255714D02*
X46371428Y-55922380D01*
X46133333Y-54874761D02*
X45895238Y-55589047D01*
X46514285Y-55589047D01*
%TO.C,U9*%
X100438095Y-63852380D02*
X100438095Y-64661904D01*
X100485714Y-64757142D01*
X100533333Y-64804761D01*
X100628571Y-64852380D01*
X100819047Y-64852380D01*
X100914285Y-64804761D01*
X100961904Y-64757142D01*
X101009523Y-64661904D01*
X101009523Y-63852380D01*
X101533333Y-64852380D02*
X101723809Y-64852380D01*
X101819047Y-64804761D01*
X101866666Y-64757142D01*
X101961904Y-64614285D01*
X102009523Y-64423809D01*
X102009523Y-64042857D01*
X101961904Y-63947619D01*
X101914285Y-63900000D01*
X101819047Y-63852380D01*
X101628571Y-63852380D01*
X101533333Y-63900000D01*
X101485714Y-63947619D01*
X101438095Y-64042857D01*
X101438095Y-64280952D01*
X101485714Y-64376190D01*
X101533333Y-64423809D01*
X101628571Y-64471428D01*
X101819047Y-64471428D01*
X101914285Y-64423809D01*
X101961904Y-64376190D01*
X102009523Y-64280952D01*
%TO.C,U8*%
X111438095Y-104452380D02*
X111438095Y-105261904D01*
X111485714Y-105357142D01*
X111533333Y-105404761D01*
X111628571Y-105452380D01*
X111819047Y-105452380D01*
X111914285Y-105404761D01*
X111961904Y-105357142D01*
X112009523Y-105261904D01*
X112009523Y-104452380D01*
X112628571Y-104880952D02*
X112533333Y-104833333D01*
X112485714Y-104785714D01*
X112438095Y-104690476D01*
X112438095Y-104642857D01*
X112485714Y-104547619D01*
X112533333Y-104500000D01*
X112628571Y-104452380D01*
X112819047Y-104452380D01*
X112914285Y-104500000D01*
X112961904Y-104547619D01*
X113009523Y-104642857D01*
X113009523Y-104690476D01*
X112961904Y-104785714D01*
X112914285Y-104833333D01*
X112819047Y-104880952D01*
X112628571Y-104880952D01*
X112533333Y-104928571D01*
X112485714Y-104976190D01*
X112438095Y-105071428D01*
X112438095Y-105261904D01*
X112485714Y-105357142D01*
X112533333Y-105404761D01*
X112628571Y-105452380D01*
X112819047Y-105452380D01*
X112914285Y-105404761D01*
X112961904Y-105357142D01*
X113009523Y-105261904D01*
X113009523Y-105071428D01*
X112961904Y-104976190D01*
X112914285Y-104928571D01*
X112819047Y-104880952D01*
%TO.C,TP33*%
X41851904Y-46652380D02*
X42423333Y-46652380D01*
X42137619Y-47652380D02*
X42137619Y-46652380D01*
X42756666Y-47652380D02*
X42756666Y-46652380D01*
X43137619Y-46652380D01*
X43232857Y-46700000D01*
X43280476Y-46747619D01*
X43328095Y-46842857D01*
X43328095Y-46985714D01*
X43280476Y-47080952D01*
X43232857Y-47128571D01*
X43137619Y-47176190D01*
X42756666Y-47176190D01*
X43661428Y-46652380D02*
X44280476Y-46652380D01*
X43947142Y-47033333D01*
X44090000Y-47033333D01*
X44185238Y-47080952D01*
X44232857Y-47128571D01*
X44280476Y-47223809D01*
X44280476Y-47461904D01*
X44232857Y-47557142D01*
X44185238Y-47604761D01*
X44090000Y-47652380D01*
X43804285Y-47652380D01*
X43709047Y-47604761D01*
X43661428Y-47557142D01*
X44613809Y-46652380D02*
X45232857Y-46652380D01*
X44899523Y-47033333D01*
X45042380Y-47033333D01*
X45137619Y-47080952D01*
X45185238Y-47128571D01*
X45232857Y-47223809D01*
X45232857Y-47461904D01*
X45185238Y-47557142D01*
X45137619Y-47604761D01*
X45042380Y-47652380D01*
X44756666Y-47652380D01*
X44661428Y-47604761D01*
X44613809Y-47557142D01*
%TO.C,TP32*%
X41851904Y-50702380D02*
X42423333Y-50702380D01*
X42137619Y-51702380D02*
X42137619Y-50702380D01*
X42756666Y-51702380D02*
X42756666Y-50702380D01*
X43137619Y-50702380D01*
X43232857Y-50750000D01*
X43280476Y-50797619D01*
X43328095Y-50892857D01*
X43328095Y-51035714D01*
X43280476Y-51130952D01*
X43232857Y-51178571D01*
X43137619Y-51226190D01*
X42756666Y-51226190D01*
X43661428Y-50702380D02*
X44280476Y-50702380D01*
X43947142Y-51083333D01*
X44090000Y-51083333D01*
X44185238Y-51130952D01*
X44232857Y-51178571D01*
X44280476Y-51273809D01*
X44280476Y-51511904D01*
X44232857Y-51607142D01*
X44185238Y-51654761D01*
X44090000Y-51702380D01*
X43804285Y-51702380D01*
X43709047Y-51654761D01*
X43661428Y-51607142D01*
X44661428Y-50797619D02*
X44709047Y-50750000D01*
X44804285Y-50702380D01*
X45042380Y-50702380D01*
X45137619Y-50750000D01*
X45185238Y-50797619D01*
X45232857Y-50892857D01*
X45232857Y-50988095D01*
X45185238Y-51130952D01*
X44613809Y-51702380D01*
X45232857Y-51702380D01*
%TO.C,TP15*%
X67761904Y-56952380D02*
X68333333Y-56952380D01*
X68047619Y-57952380D02*
X68047619Y-56952380D01*
X68666666Y-57952380D02*
X68666666Y-56952380D01*
X69047619Y-56952380D01*
X69142857Y-57000000D01*
X69190476Y-57047619D01*
X69238095Y-57142857D01*
X69238095Y-57285714D01*
X69190476Y-57380952D01*
X69142857Y-57428571D01*
X69047619Y-57476190D01*
X68666666Y-57476190D01*
X70190476Y-57952380D02*
X69619047Y-57952380D01*
X69904761Y-57952380D02*
X69904761Y-56952380D01*
X69809523Y-57095238D01*
X69714285Y-57190476D01*
X69619047Y-57238095D01*
X71095238Y-56952380D02*
X70619047Y-56952380D01*
X70571428Y-57428571D01*
X70619047Y-57380952D01*
X70714285Y-57333333D01*
X70952380Y-57333333D01*
X71047619Y-57380952D01*
X71095238Y-57428571D01*
X71142857Y-57523809D01*
X71142857Y-57761904D01*
X71095238Y-57857142D01*
X71047619Y-57904761D01*
X70952380Y-57952380D01*
X70714285Y-57952380D01*
X70619047Y-57904761D01*
X70571428Y-57857142D01*
%TO.C,TP14*%
X63661904Y-64702380D02*
X64233333Y-64702380D01*
X63947619Y-65702380D02*
X63947619Y-64702380D01*
X64566666Y-65702380D02*
X64566666Y-64702380D01*
X64947619Y-64702380D01*
X65042857Y-64750000D01*
X65090476Y-64797619D01*
X65138095Y-64892857D01*
X65138095Y-65035714D01*
X65090476Y-65130952D01*
X65042857Y-65178571D01*
X64947619Y-65226190D01*
X64566666Y-65226190D01*
X66090476Y-65702380D02*
X65519047Y-65702380D01*
X65804761Y-65702380D02*
X65804761Y-64702380D01*
X65709523Y-64845238D01*
X65614285Y-64940476D01*
X65519047Y-64988095D01*
X66947619Y-65035714D02*
X66947619Y-65702380D01*
X66709523Y-64654761D02*
X66471428Y-65369047D01*
X67090476Y-65369047D01*
%TO.C,TP13*%
X63661904Y-56954380D02*
X64233333Y-56954380D01*
X63947619Y-57954380D02*
X63947619Y-56954380D01*
X64566666Y-57954380D02*
X64566666Y-56954380D01*
X64947619Y-56954380D01*
X65042857Y-57002000D01*
X65090476Y-57049619D01*
X65138095Y-57144857D01*
X65138095Y-57287714D01*
X65090476Y-57382952D01*
X65042857Y-57430571D01*
X64947619Y-57478190D01*
X64566666Y-57478190D01*
X66090476Y-57954380D02*
X65519047Y-57954380D01*
X65804761Y-57954380D02*
X65804761Y-56954380D01*
X65709523Y-57097238D01*
X65614285Y-57192476D01*
X65519047Y-57240095D01*
X66423809Y-56954380D02*
X67042857Y-56954380D01*
X66709523Y-57335333D01*
X66852380Y-57335333D01*
X66947619Y-57382952D01*
X66995238Y-57430571D01*
X67042857Y-57525809D01*
X67042857Y-57763904D01*
X66995238Y-57859142D01*
X66947619Y-57906761D01*
X66852380Y-57954380D01*
X66566666Y-57954380D01*
X66471428Y-57906761D01*
X66423809Y-57859142D01*
%TO.C,TP12*%
X104761904Y-70702380D02*
X105333333Y-70702380D01*
X105047619Y-71702380D02*
X105047619Y-70702380D01*
X105666666Y-71702380D02*
X105666666Y-70702380D01*
X106047619Y-70702380D01*
X106142857Y-70750000D01*
X106190476Y-70797619D01*
X106238095Y-70892857D01*
X106238095Y-71035714D01*
X106190476Y-71130952D01*
X106142857Y-71178571D01*
X106047619Y-71226190D01*
X105666666Y-71226190D01*
X107190476Y-71702380D02*
X106619047Y-71702380D01*
X106904761Y-71702380D02*
X106904761Y-70702380D01*
X106809523Y-70845238D01*
X106714285Y-70940476D01*
X106619047Y-70988095D01*
X107571428Y-70797619D02*
X107619047Y-70750000D01*
X107714285Y-70702380D01*
X107952380Y-70702380D01*
X108047619Y-70750000D01*
X108095238Y-70797619D01*
X108142857Y-70892857D01*
X108142857Y-70988095D01*
X108095238Y-71130952D01*
X107523809Y-71702380D01*
X108142857Y-71702380D01*
%TO.C,TP8*%
X95988095Y-70702380D02*
X96559523Y-70702380D01*
X96273809Y-71702380D02*
X96273809Y-70702380D01*
X96892857Y-71702380D02*
X96892857Y-70702380D01*
X97273809Y-70702380D01*
X97369047Y-70750000D01*
X97416666Y-70797619D01*
X97464285Y-70892857D01*
X97464285Y-71035714D01*
X97416666Y-71130952D01*
X97369047Y-71178571D01*
X97273809Y-71226190D01*
X96892857Y-71226190D01*
X98035714Y-71130952D02*
X97940476Y-71083333D01*
X97892857Y-71035714D01*
X97845238Y-70940476D01*
X97845238Y-70892857D01*
X97892857Y-70797619D01*
X97940476Y-70750000D01*
X98035714Y-70702380D01*
X98226190Y-70702380D01*
X98321428Y-70750000D01*
X98369047Y-70797619D01*
X98416666Y-70892857D01*
X98416666Y-70940476D01*
X98369047Y-71035714D01*
X98321428Y-71083333D01*
X98226190Y-71130952D01*
X98035714Y-71130952D01*
X97940476Y-71178571D01*
X97892857Y-71226190D01*
X97845238Y-71321428D01*
X97845238Y-71511904D01*
X97892857Y-71607142D01*
X97940476Y-71654761D01*
X98035714Y-71702380D01*
X98226190Y-71702380D01*
X98321428Y-71654761D01*
X98369047Y-71607142D01*
X98416666Y-71511904D01*
X98416666Y-71321428D01*
X98369047Y-71226190D01*
X98321428Y-71178571D01*
X98226190Y-71130952D01*
%TO.C,TP7*%
X95988095Y-68202380D02*
X96559523Y-68202380D01*
X96273809Y-69202380D02*
X96273809Y-68202380D01*
X96892857Y-69202380D02*
X96892857Y-68202380D01*
X97273809Y-68202380D01*
X97369047Y-68250000D01*
X97416666Y-68297619D01*
X97464285Y-68392857D01*
X97464285Y-68535714D01*
X97416666Y-68630952D01*
X97369047Y-68678571D01*
X97273809Y-68726190D01*
X96892857Y-68726190D01*
X97797619Y-68202380D02*
X98464285Y-68202380D01*
X98035714Y-69202380D01*
%TO.C,TP6*%
X104738095Y-68202380D02*
X105309523Y-68202380D01*
X105023809Y-69202380D02*
X105023809Y-68202380D01*
X105642857Y-69202380D02*
X105642857Y-68202380D01*
X106023809Y-68202380D01*
X106119047Y-68250000D01*
X106166666Y-68297619D01*
X106214285Y-68392857D01*
X106214285Y-68535714D01*
X106166666Y-68630952D01*
X106119047Y-68678571D01*
X106023809Y-68726190D01*
X105642857Y-68726190D01*
X107071428Y-68202380D02*
X106880952Y-68202380D01*
X106785714Y-68250000D01*
X106738095Y-68297619D01*
X106642857Y-68440476D01*
X106595238Y-68630952D01*
X106595238Y-69011904D01*
X106642857Y-69107142D01*
X106690476Y-69154761D01*
X106785714Y-69202380D01*
X106976190Y-69202380D01*
X107071428Y-69154761D01*
X107119047Y-69107142D01*
X107166666Y-69011904D01*
X107166666Y-68773809D01*
X107119047Y-68678571D01*
X107071428Y-68630952D01*
X106976190Y-68583333D01*
X106785714Y-68583333D01*
X106690476Y-68630952D01*
X106642857Y-68678571D01*
X106595238Y-68773809D01*
%TO.C,TP5*%
X82488095Y-70702380D02*
X83059523Y-70702380D01*
X82773809Y-71702380D02*
X82773809Y-70702380D01*
X83392857Y-71702380D02*
X83392857Y-70702380D01*
X83773809Y-70702380D01*
X83869047Y-70750000D01*
X83916666Y-70797619D01*
X83964285Y-70892857D01*
X83964285Y-71035714D01*
X83916666Y-71130952D01*
X83869047Y-71178571D01*
X83773809Y-71226190D01*
X83392857Y-71226190D01*
X84869047Y-70702380D02*
X84392857Y-70702380D01*
X84345238Y-71178571D01*
X84392857Y-71130952D01*
X84488095Y-71083333D01*
X84726190Y-71083333D01*
X84821428Y-71130952D01*
X84869047Y-71178571D01*
X84916666Y-71273809D01*
X84916666Y-71511904D01*
X84869047Y-71607142D01*
X84821428Y-71654761D01*
X84726190Y-71702380D01*
X84488095Y-71702380D01*
X84392857Y-71654761D01*
X84345238Y-71607142D01*
%TO.C,TP4*%
X78988095Y-70702380D02*
X79559523Y-70702380D01*
X79273809Y-71702380D02*
X79273809Y-70702380D01*
X79892857Y-71702380D02*
X79892857Y-70702380D01*
X80273809Y-70702380D01*
X80369047Y-70750000D01*
X80416666Y-70797619D01*
X80464285Y-70892857D01*
X80464285Y-71035714D01*
X80416666Y-71130952D01*
X80369047Y-71178571D01*
X80273809Y-71226190D01*
X79892857Y-71226190D01*
X81321428Y-71035714D02*
X81321428Y-71702380D01*
X81083333Y-70654761D02*
X80845238Y-71369047D01*
X81464285Y-71369047D01*
%TO.C,TP3*%
X111138095Y-74852380D02*
X111709523Y-74852380D01*
X111423809Y-75852380D02*
X111423809Y-74852380D01*
X112042857Y-75852380D02*
X112042857Y-74852380D01*
X112423809Y-74852380D01*
X112519047Y-74900000D01*
X112566666Y-74947619D01*
X112614285Y-75042857D01*
X112614285Y-75185714D01*
X112566666Y-75280952D01*
X112519047Y-75328571D01*
X112423809Y-75376190D01*
X112042857Y-75376190D01*
X112947619Y-74852380D02*
X113566666Y-74852380D01*
X113233333Y-75233333D01*
X113376190Y-75233333D01*
X113471428Y-75280952D01*
X113519047Y-75328571D01*
X113566666Y-75423809D01*
X113566666Y-75661904D01*
X113519047Y-75757142D01*
X113471428Y-75804761D01*
X113376190Y-75852380D01*
X113090476Y-75852380D01*
X112995238Y-75804761D01*
X112947619Y-75757142D01*
%TO.C,TP2*%
X109538095Y-83452380D02*
X110109523Y-83452380D01*
X109823809Y-84452380D02*
X109823809Y-83452380D01*
X110442857Y-84452380D02*
X110442857Y-83452380D01*
X110823809Y-83452380D01*
X110919047Y-83500000D01*
X110966666Y-83547619D01*
X111014285Y-83642857D01*
X111014285Y-83785714D01*
X110966666Y-83880952D01*
X110919047Y-83928571D01*
X110823809Y-83976190D01*
X110442857Y-83976190D01*
X111395238Y-83547619D02*
X111442857Y-83500000D01*
X111538095Y-83452380D01*
X111776190Y-83452380D01*
X111871428Y-83500000D01*
X111919047Y-83547619D01*
X111966666Y-83642857D01*
X111966666Y-83738095D01*
X111919047Y-83880952D01*
X111347619Y-84452380D01*
X111966666Y-84452380D01*
%TO.C,TP1*%
X68338095Y-64652380D02*
X68909523Y-64652380D01*
X68623809Y-65652380D02*
X68623809Y-64652380D01*
X69242857Y-65652380D02*
X69242857Y-64652380D01*
X69623809Y-64652380D01*
X69719047Y-64700000D01*
X69766666Y-64747619D01*
X69814285Y-64842857D01*
X69814285Y-64985714D01*
X69766666Y-65080952D01*
X69719047Y-65128571D01*
X69623809Y-65176190D01*
X69242857Y-65176190D01*
X70766666Y-65652380D02*
X70195238Y-65652380D01*
X70480952Y-65652380D02*
X70480952Y-64652380D01*
X70385714Y-64795238D01*
X70290476Y-64890476D01*
X70195238Y-64938095D01*
%TO.C,U1*%
X85474025Y-80051522D02*
X86046445Y-80623942D01*
X86147460Y-80657614D01*
X86214804Y-80657614D01*
X86315819Y-80623942D01*
X86450506Y-80489255D01*
X86484178Y-80388240D01*
X86484178Y-80320896D01*
X86450506Y-80219881D01*
X85878086Y-79647461D01*
X87292300Y-79647461D02*
X86888239Y-80051522D01*
X87090269Y-79849492D02*
X86383163Y-79142385D01*
X86416834Y-79310744D01*
X86416834Y-79445431D01*
X86383163Y-79546446D01*
%TO.C,R23*%
X73210547Y-90929215D02*
X72638128Y-90828200D01*
X72806486Y-91333276D02*
X72099380Y-90626169D01*
X72368754Y-90356795D01*
X72469769Y-90323123D01*
X72537112Y-90323123D01*
X72638128Y-90356795D01*
X72739143Y-90457810D01*
X72772815Y-90558826D01*
X72772815Y-90626169D01*
X72739143Y-90727184D01*
X72469769Y-90996558D01*
X72840158Y-90020077D02*
X72840158Y-89952734D01*
X72873830Y-89851719D01*
X73042189Y-89683360D01*
X73143204Y-89649688D01*
X73210547Y-89649688D01*
X73311563Y-89683360D01*
X73378906Y-89750703D01*
X73446250Y-89885390D01*
X73446250Y-90693513D01*
X73883983Y-90255780D01*
X73412578Y-89312971D02*
X73850311Y-88875238D01*
X73883983Y-89380314D01*
X73984998Y-89279299D01*
X74086013Y-89245627D01*
X74153357Y-89245627D01*
X74254372Y-89279299D01*
X74422731Y-89447658D01*
X74456402Y-89548673D01*
X74456402Y-89616016D01*
X74422731Y-89717032D01*
X74220700Y-89919062D01*
X74119685Y-89952734D01*
X74052341Y-89952734D01*
%TO.C,R28*%
X94910547Y-92029215D02*
X94338128Y-91928200D01*
X94506486Y-92433276D02*
X93799380Y-91726169D01*
X94068754Y-91456795D01*
X94169769Y-91423123D01*
X94237112Y-91423123D01*
X94338128Y-91456795D01*
X94439143Y-91557810D01*
X94472815Y-91658826D01*
X94472815Y-91726169D01*
X94439143Y-91827184D01*
X94169769Y-92096558D01*
X94540158Y-91120077D02*
X94540158Y-91052734D01*
X94573830Y-90951719D01*
X94742189Y-90783360D01*
X94843204Y-90749688D01*
X94910547Y-90749688D01*
X95011563Y-90783360D01*
X95078906Y-90850703D01*
X95146250Y-90985390D01*
X95146250Y-91793513D01*
X95583983Y-91355780D01*
X95583983Y-90547658D02*
X95482967Y-90581329D01*
X95415624Y-90581329D01*
X95314609Y-90547658D01*
X95280937Y-90513986D01*
X95247265Y-90412971D01*
X95247265Y-90345627D01*
X95280937Y-90244612D01*
X95415624Y-90109925D01*
X95516639Y-90076253D01*
X95583983Y-90076253D01*
X95684998Y-90109925D01*
X95718670Y-90143597D01*
X95752341Y-90244612D01*
X95752341Y-90311955D01*
X95718670Y-90412971D01*
X95583983Y-90547658D01*
X95550311Y-90648673D01*
X95550311Y-90716016D01*
X95583983Y-90817032D01*
X95718670Y-90951719D01*
X95819685Y-90985390D01*
X95887028Y-90985390D01*
X95988044Y-90951719D01*
X96122731Y-90817032D01*
X96156402Y-90716016D01*
X96156402Y-90648673D01*
X96122731Y-90547658D01*
X95988044Y-90412971D01*
X95887028Y-90379299D01*
X95819685Y-90379299D01*
X95718670Y-90412971D01*
%TO.C,LED1*%
X89088831Y-89628595D02*
X88752113Y-89291877D01*
X89459220Y-88584771D01*
X89694922Y-89493908D02*
X89930624Y-89729610D01*
X89661250Y-90201015D02*
X89324533Y-89864297D01*
X90031640Y-89157190D01*
X90368357Y-89493908D01*
X89964296Y-90504061D02*
X90671403Y-89796954D01*
X90839762Y-89965312D01*
X90907105Y-90100000D01*
X90907105Y-90234687D01*
X90873434Y-90335702D01*
X90772418Y-90504061D01*
X90671403Y-90605076D01*
X90503044Y-90706091D01*
X90402029Y-90739763D01*
X90267342Y-90739763D01*
X90132655Y-90672419D01*
X89964296Y-90504061D01*
X91041792Y-91581557D02*
X90637731Y-91177496D01*
X90839762Y-91379526D02*
X91546869Y-90672419D01*
X91378510Y-90706091D01*
X91243823Y-90706091D01*
X91142808Y-90672419D01*
%TO.C,R27*%
X84757142Y-94452380D02*
X84423809Y-93976190D01*
X84185714Y-94452380D02*
X84185714Y-93452380D01*
X84566666Y-93452380D01*
X84661904Y-93500000D01*
X84709523Y-93547619D01*
X84757142Y-93642857D01*
X84757142Y-93785714D01*
X84709523Y-93880952D01*
X84661904Y-93928571D01*
X84566666Y-93976190D01*
X84185714Y-93976190D01*
X85138095Y-93547619D02*
X85185714Y-93500000D01*
X85280952Y-93452380D01*
X85519047Y-93452380D01*
X85614285Y-93500000D01*
X85661904Y-93547619D01*
X85709523Y-93642857D01*
X85709523Y-93738095D01*
X85661904Y-93880952D01*
X85090476Y-94452380D01*
X85709523Y-94452380D01*
X86042857Y-93452380D02*
X86709523Y-93452380D01*
X86280952Y-94452380D01*
%TO.C,R26*%
X84757142Y-97639880D02*
X84423809Y-97163690D01*
X84185714Y-97639880D02*
X84185714Y-96639880D01*
X84566666Y-96639880D01*
X84661904Y-96687500D01*
X84709523Y-96735119D01*
X84757142Y-96830357D01*
X84757142Y-96973214D01*
X84709523Y-97068452D01*
X84661904Y-97116071D01*
X84566666Y-97163690D01*
X84185714Y-97163690D01*
X85138095Y-96735119D02*
X85185714Y-96687500D01*
X85280952Y-96639880D01*
X85519047Y-96639880D01*
X85614285Y-96687500D01*
X85661904Y-96735119D01*
X85709523Y-96830357D01*
X85709523Y-96925595D01*
X85661904Y-97068452D01*
X85090476Y-97639880D01*
X85709523Y-97639880D01*
X86566666Y-96639880D02*
X86376190Y-96639880D01*
X86280952Y-96687500D01*
X86233333Y-96735119D01*
X86138095Y-96877976D01*
X86090476Y-97068452D01*
X86090476Y-97449404D01*
X86138095Y-97544642D01*
X86185714Y-97592261D01*
X86280952Y-97639880D01*
X86471428Y-97639880D01*
X86566666Y-97592261D01*
X86614285Y-97544642D01*
X86661904Y-97449404D01*
X86661904Y-97211309D01*
X86614285Y-97116071D01*
X86566666Y-97068452D01*
X86471428Y-97020833D01*
X86280952Y-97020833D01*
X86185714Y-97068452D01*
X86138095Y-97116071D01*
X86090476Y-97211309D01*
%TO.C,JP4*%
X91866666Y-96752380D02*
X91866666Y-97466666D01*
X91819047Y-97609523D01*
X91723809Y-97704761D01*
X91580952Y-97752380D01*
X91485714Y-97752380D01*
X92342857Y-97752380D02*
X92342857Y-96752380D01*
X92723809Y-96752380D01*
X92819047Y-96800000D01*
X92866666Y-96847619D01*
X92914285Y-96942857D01*
X92914285Y-97085714D01*
X92866666Y-97180952D01*
X92819047Y-97228571D01*
X92723809Y-97276190D01*
X92342857Y-97276190D01*
X93771428Y-97085714D02*
X93771428Y-97752380D01*
X93533333Y-96704761D02*
X93295238Y-97419047D01*
X93914285Y-97419047D01*
%TO.C,JP3*%
X91866666Y-93352380D02*
X91866666Y-94066666D01*
X91819047Y-94209523D01*
X91723809Y-94304761D01*
X91580952Y-94352380D01*
X91485714Y-94352380D01*
X92342857Y-94352380D02*
X92342857Y-93352380D01*
X92723809Y-93352380D01*
X92819047Y-93400000D01*
X92866666Y-93447619D01*
X92914285Y-93542857D01*
X92914285Y-93685714D01*
X92866666Y-93780952D01*
X92819047Y-93828571D01*
X92723809Y-93876190D01*
X92342857Y-93876190D01*
X93247619Y-93352380D02*
X93866666Y-93352380D01*
X93533333Y-93733333D01*
X93676190Y-93733333D01*
X93771428Y-93780952D01*
X93819047Y-93828571D01*
X93866666Y-93923809D01*
X93866666Y-94161904D01*
X93819047Y-94257142D01*
X93771428Y-94304761D01*
X93676190Y-94352380D01*
X93390476Y-94352380D01*
X93295238Y-94304761D01*
X93247619Y-94257142D01*
%TO.C,C40*%
X100557142Y-95957142D02*
X100509523Y-96004761D01*
X100366666Y-96052380D01*
X100271428Y-96052380D01*
X100128571Y-96004761D01*
X100033333Y-95909523D01*
X99985714Y-95814285D01*
X99938095Y-95623809D01*
X99938095Y-95480952D01*
X99985714Y-95290476D01*
X100033333Y-95195238D01*
X100128571Y-95100000D01*
X100271428Y-95052380D01*
X100366666Y-95052380D01*
X100509523Y-95100000D01*
X100557142Y-95147619D01*
X101414285Y-95385714D02*
X101414285Y-96052380D01*
X101176190Y-95004761D02*
X100938095Y-95719047D01*
X101557142Y-95719047D01*
X102128571Y-95052380D02*
X102223809Y-95052380D01*
X102319047Y-95100000D01*
X102366666Y-95147619D01*
X102414285Y-95242857D01*
X102461904Y-95433333D01*
X102461904Y-95671428D01*
X102414285Y-95861904D01*
X102366666Y-95957142D01*
X102319047Y-96004761D01*
X102223809Y-96052380D01*
X102128571Y-96052380D01*
X102033333Y-96004761D01*
X101985714Y-95957142D01*
X101938095Y-95861904D01*
X101890476Y-95671428D01*
X101890476Y-95433333D01*
X101938095Y-95242857D01*
X101985714Y-95147619D01*
X102033333Y-95100000D01*
X102128571Y-95052380D01*
%TO.C,C39*%
X102357142Y-86057142D02*
X102309523Y-86104761D01*
X102166666Y-86152380D01*
X102071428Y-86152380D01*
X101928571Y-86104761D01*
X101833333Y-86009523D01*
X101785714Y-85914285D01*
X101738095Y-85723809D01*
X101738095Y-85580952D01*
X101785714Y-85390476D01*
X101833333Y-85295238D01*
X101928571Y-85200000D01*
X102071428Y-85152380D01*
X102166666Y-85152380D01*
X102309523Y-85200000D01*
X102357142Y-85247619D01*
X102690476Y-85152380D02*
X103309523Y-85152380D01*
X102976190Y-85533333D01*
X103119047Y-85533333D01*
X103214285Y-85580952D01*
X103261904Y-85628571D01*
X103309523Y-85723809D01*
X103309523Y-85961904D01*
X103261904Y-86057142D01*
X103214285Y-86104761D01*
X103119047Y-86152380D01*
X102833333Y-86152380D01*
X102738095Y-86104761D01*
X102690476Y-86057142D01*
X103785714Y-86152380D02*
X103976190Y-86152380D01*
X104071428Y-86104761D01*
X104119047Y-86057142D01*
X104214285Y-85914285D01*
X104261904Y-85723809D01*
X104261904Y-85342857D01*
X104214285Y-85247619D01*
X104166666Y-85200000D01*
X104071428Y-85152380D01*
X103880952Y-85152380D01*
X103785714Y-85200000D01*
X103738095Y-85247619D01*
X103690476Y-85342857D01*
X103690476Y-85580952D01*
X103738095Y-85676190D01*
X103785714Y-85723809D01*
X103880952Y-85771428D01*
X104071428Y-85771428D01*
X104166666Y-85723809D01*
X104214285Y-85676190D01*
X104261904Y-85580952D01*
%TO.C,C38*%
X104957142Y-63957142D02*
X104909523Y-64004761D01*
X104766666Y-64052380D01*
X104671428Y-64052380D01*
X104528571Y-64004761D01*
X104433333Y-63909523D01*
X104385714Y-63814285D01*
X104338095Y-63623809D01*
X104338095Y-63480952D01*
X104385714Y-63290476D01*
X104433333Y-63195238D01*
X104528571Y-63100000D01*
X104671428Y-63052380D01*
X104766666Y-63052380D01*
X104909523Y-63100000D01*
X104957142Y-63147619D01*
X105290476Y-63052380D02*
X105909523Y-63052380D01*
X105576190Y-63433333D01*
X105719047Y-63433333D01*
X105814285Y-63480952D01*
X105861904Y-63528571D01*
X105909523Y-63623809D01*
X105909523Y-63861904D01*
X105861904Y-63957142D01*
X105814285Y-64004761D01*
X105719047Y-64052380D01*
X105433333Y-64052380D01*
X105338095Y-64004761D01*
X105290476Y-63957142D01*
X106480952Y-63480952D02*
X106385714Y-63433333D01*
X106338095Y-63385714D01*
X106290476Y-63290476D01*
X106290476Y-63242857D01*
X106338095Y-63147619D01*
X106385714Y-63100000D01*
X106480952Y-63052380D01*
X106671428Y-63052380D01*
X106766666Y-63100000D01*
X106814285Y-63147619D01*
X106861904Y-63242857D01*
X106861904Y-63290476D01*
X106814285Y-63385714D01*
X106766666Y-63433333D01*
X106671428Y-63480952D01*
X106480952Y-63480952D01*
X106385714Y-63528571D01*
X106338095Y-63576190D01*
X106290476Y-63671428D01*
X106290476Y-63861904D01*
X106338095Y-63957142D01*
X106385714Y-64004761D01*
X106480952Y-64052380D01*
X106671428Y-64052380D01*
X106766666Y-64004761D01*
X106814285Y-63957142D01*
X106861904Y-63861904D01*
X106861904Y-63671428D01*
X106814285Y-63576190D01*
X106766666Y-63528571D01*
X106671428Y-63480952D01*
%TO.C,C37*%
X116557142Y-114157142D02*
X116509523Y-114204761D01*
X116366666Y-114252380D01*
X116271428Y-114252380D01*
X116128571Y-114204761D01*
X116033333Y-114109523D01*
X115985714Y-114014285D01*
X115938095Y-113823809D01*
X115938095Y-113680952D01*
X115985714Y-113490476D01*
X116033333Y-113395238D01*
X116128571Y-113300000D01*
X116271428Y-113252380D01*
X116366666Y-113252380D01*
X116509523Y-113300000D01*
X116557142Y-113347619D01*
X116890476Y-113252380D02*
X117509523Y-113252380D01*
X117176190Y-113633333D01*
X117319047Y-113633333D01*
X117414285Y-113680952D01*
X117461904Y-113728571D01*
X117509523Y-113823809D01*
X117509523Y-114061904D01*
X117461904Y-114157142D01*
X117414285Y-114204761D01*
X117319047Y-114252380D01*
X117033333Y-114252380D01*
X116938095Y-114204761D01*
X116890476Y-114157142D01*
X117842857Y-113252380D02*
X118509523Y-113252380D01*
X118080952Y-114252380D01*
%TO.C,C36*%
X104957142Y-51957142D02*
X104909523Y-52004761D01*
X104766666Y-52052380D01*
X104671428Y-52052380D01*
X104528571Y-52004761D01*
X104433333Y-51909523D01*
X104385714Y-51814285D01*
X104338095Y-51623809D01*
X104338095Y-51480952D01*
X104385714Y-51290476D01*
X104433333Y-51195238D01*
X104528571Y-51100000D01*
X104671428Y-51052380D01*
X104766666Y-51052380D01*
X104909523Y-51100000D01*
X104957142Y-51147619D01*
X105290476Y-51052380D02*
X105909523Y-51052380D01*
X105576190Y-51433333D01*
X105719047Y-51433333D01*
X105814285Y-51480952D01*
X105861904Y-51528571D01*
X105909523Y-51623809D01*
X105909523Y-51861904D01*
X105861904Y-51957142D01*
X105814285Y-52004761D01*
X105719047Y-52052380D01*
X105433333Y-52052380D01*
X105338095Y-52004761D01*
X105290476Y-51957142D01*
X106766666Y-51052380D02*
X106576190Y-51052380D01*
X106480952Y-51100000D01*
X106433333Y-51147619D01*
X106338095Y-51290476D01*
X106290476Y-51480952D01*
X106290476Y-51861904D01*
X106338095Y-51957142D01*
X106385714Y-52004761D01*
X106480952Y-52052380D01*
X106671428Y-52052380D01*
X106766666Y-52004761D01*
X106814285Y-51957142D01*
X106861904Y-51861904D01*
X106861904Y-51623809D01*
X106814285Y-51528571D01*
X106766666Y-51480952D01*
X106671428Y-51433333D01*
X106480952Y-51433333D01*
X106385714Y-51480952D01*
X106338095Y-51528571D01*
X106290476Y-51623809D01*
%TO.C,C35*%
X117557142Y-102057142D02*
X117509523Y-102104761D01*
X117366666Y-102152380D01*
X117271428Y-102152380D01*
X117128571Y-102104761D01*
X117033333Y-102009523D01*
X116985714Y-101914285D01*
X116938095Y-101723809D01*
X116938095Y-101580952D01*
X116985714Y-101390476D01*
X117033333Y-101295238D01*
X117128571Y-101200000D01*
X117271428Y-101152380D01*
X117366666Y-101152380D01*
X117509523Y-101200000D01*
X117557142Y-101247619D01*
X117890476Y-101152380D02*
X118509523Y-101152380D01*
X118176190Y-101533333D01*
X118319047Y-101533333D01*
X118414285Y-101580952D01*
X118461904Y-101628571D01*
X118509523Y-101723809D01*
X118509523Y-101961904D01*
X118461904Y-102057142D01*
X118414285Y-102104761D01*
X118319047Y-102152380D01*
X118033333Y-102152380D01*
X117938095Y-102104761D01*
X117890476Y-102057142D01*
X119414285Y-101152380D02*
X118938095Y-101152380D01*
X118890476Y-101628571D01*
X118938095Y-101580952D01*
X119033333Y-101533333D01*
X119271428Y-101533333D01*
X119366666Y-101580952D01*
X119414285Y-101628571D01*
X119461904Y-101723809D01*
X119461904Y-101961904D01*
X119414285Y-102057142D01*
X119366666Y-102104761D01*
X119271428Y-102152380D01*
X119033333Y-102152380D01*
X118938095Y-102104761D01*
X118890476Y-102057142D01*
%TO.C,C29*%
X78632142Y-119657142D02*
X78584523Y-119704761D01*
X78441666Y-119752380D01*
X78346428Y-119752380D01*
X78203571Y-119704761D01*
X78108333Y-119609523D01*
X78060714Y-119514285D01*
X78013095Y-119323809D01*
X78013095Y-119180952D01*
X78060714Y-118990476D01*
X78108333Y-118895238D01*
X78203571Y-118800000D01*
X78346428Y-118752380D01*
X78441666Y-118752380D01*
X78584523Y-118800000D01*
X78632142Y-118847619D01*
X79013095Y-118847619D02*
X79060714Y-118800000D01*
X79155952Y-118752380D01*
X79394047Y-118752380D01*
X79489285Y-118800000D01*
X79536904Y-118847619D01*
X79584523Y-118942857D01*
X79584523Y-119038095D01*
X79536904Y-119180952D01*
X78965476Y-119752380D01*
X79584523Y-119752380D01*
X80060714Y-119752380D02*
X80251190Y-119752380D01*
X80346428Y-119704761D01*
X80394047Y-119657142D01*
X80489285Y-119514285D01*
X80536904Y-119323809D01*
X80536904Y-118942857D01*
X80489285Y-118847619D01*
X80441666Y-118800000D01*
X80346428Y-118752380D01*
X80155952Y-118752380D01*
X80060714Y-118800000D01*
X80013095Y-118847619D01*
X79965476Y-118942857D01*
X79965476Y-119180952D01*
X80013095Y-119276190D01*
X80060714Y-119323809D01*
X80155952Y-119371428D01*
X80346428Y-119371428D01*
X80441666Y-119323809D01*
X80489285Y-119276190D01*
X80536904Y-119180952D01*
%TO.C,C19*%
X64007142Y-98957142D02*
X63959523Y-99004761D01*
X63816666Y-99052380D01*
X63721428Y-99052380D01*
X63578571Y-99004761D01*
X63483333Y-98909523D01*
X63435714Y-98814285D01*
X63388095Y-98623809D01*
X63388095Y-98480952D01*
X63435714Y-98290476D01*
X63483333Y-98195238D01*
X63578571Y-98100000D01*
X63721428Y-98052380D01*
X63816666Y-98052380D01*
X63959523Y-98100000D01*
X64007142Y-98147619D01*
X64959523Y-99052380D02*
X64388095Y-99052380D01*
X64673809Y-99052380D02*
X64673809Y-98052380D01*
X64578571Y-98195238D01*
X64483333Y-98290476D01*
X64388095Y-98338095D01*
X65435714Y-99052380D02*
X65626190Y-99052380D01*
X65721428Y-99004761D01*
X65769047Y-98957142D01*
X65864285Y-98814285D01*
X65911904Y-98623809D01*
X65911904Y-98242857D01*
X65864285Y-98147619D01*
X65816666Y-98100000D01*
X65721428Y-98052380D01*
X65530952Y-98052380D01*
X65435714Y-98100000D01*
X65388095Y-98147619D01*
X65340476Y-98242857D01*
X65340476Y-98480952D01*
X65388095Y-98576190D01*
X65435714Y-98623809D01*
X65530952Y-98671428D01*
X65721428Y-98671428D01*
X65816666Y-98623809D01*
X65864285Y-98576190D01*
X65911904Y-98480952D01*
%TO.C,R25*%
X107657142Y-97952380D02*
X107323809Y-97476190D01*
X107085714Y-97952380D02*
X107085714Y-96952380D01*
X107466666Y-96952380D01*
X107561904Y-97000000D01*
X107609523Y-97047619D01*
X107657142Y-97142857D01*
X107657142Y-97285714D01*
X107609523Y-97380952D01*
X107561904Y-97428571D01*
X107466666Y-97476190D01*
X107085714Y-97476190D01*
X108038095Y-97047619D02*
X108085714Y-97000000D01*
X108180952Y-96952380D01*
X108419047Y-96952380D01*
X108514285Y-97000000D01*
X108561904Y-97047619D01*
X108609523Y-97142857D01*
X108609523Y-97238095D01*
X108561904Y-97380952D01*
X107990476Y-97952380D01*
X108609523Y-97952380D01*
X109514285Y-96952380D02*
X109038095Y-96952380D01*
X108990476Y-97428571D01*
X109038095Y-97380952D01*
X109133333Y-97333333D01*
X109371428Y-97333333D01*
X109466666Y-97380952D01*
X109514285Y-97428571D01*
X109561904Y-97523809D01*
X109561904Y-97761904D01*
X109514285Y-97857142D01*
X109466666Y-97904761D01*
X109371428Y-97952380D01*
X109133333Y-97952380D01*
X109038095Y-97904761D01*
X108990476Y-97857142D01*
%TO.C,J6*%
X108966666Y-121652380D02*
X108966666Y-122366666D01*
X108919047Y-122509523D01*
X108823809Y-122604761D01*
X108680952Y-122652380D01*
X108585714Y-122652380D01*
X109871428Y-121652380D02*
X109680952Y-121652380D01*
X109585714Y-121700000D01*
X109538095Y-121747619D01*
X109442857Y-121890476D01*
X109395238Y-122080952D01*
X109395238Y-122461904D01*
X109442857Y-122557142D01*
X109490476Y-122604761D01*
X109585714Y-122652380D01*
X109776190Y-122652380D01*
X109871428Y-122604761D01*
X109919047Y-122557142D01*
X109966666Y-122461904D01*
X109966666Y-122223809D01*
X109919047Y-122128571D01*
X109871428Y-122080952D01*
X109776190Y-122033333D01*
X109585714Y-122033333D01*
X109490476Y-122080952D01*
X109442857Y-122128571D01*
X109395238Y-122223809D01*
%TO.C,J1*%
X128466666Y-121052380D02*
X128466666Y-121766666D01*
X128419047Y-121909523D01*
X128323809Y-122004761D01*
X128180952Y-122052380D01*
X128085714Y-122052380D01*
X129466666Y-122052380D02*
X128895238Y-122052380D01*
X129180952Y-122052380D02*
X129180952Y-121052380D01*
X129085714Y-121195238D01*
X128990476Y-121290476D01*
X128895238Y-121338095D01*
%TO.C,SW1*%
X55866666Y-95854761D02*
X56009523Y-95902380D01*
X56247619Y-95902380D01*
X56342857Y-95854761D01*
X56390476Y-95807142D01*
X56438095Y-95711904D01*
X56438095Y-95616666D01*
X56390476Y-95521428D01*
X56342857Y-95473809D01*
X56247619Y-95426190D01*
X56057142Y-95378571D01*
X55961904Y-95330952D01*
X55914285Y-95283333D01*
X55866666Y-95188095D01*
X55866666Y-95092857D01*
X55914285Y-94997619D01*
X55961904Y-94950000D01*
X56057142Y-94902380D01*
X56295238Y-94902380D01*
X56438095Y-94950000D01*
X56771428Y-94902380D02*
X57009523Y-95902380D01*
X57200000Y-95188095D01*
X57390476Y-95902380D01*
X57628571Y-94902380D01*
X58533333Y-95902380D02*
X57961904Y-95902380D01*
X58247619Y-95902380D02*
X58247619Y-94902380D01*
X58152380Y-95045238D01*
X58057142Y-95140476D01*
X57961904Y-95188095D01*
%TO.C,PS5*%
D16*
X63585714Y-112452380D02*
X63585714Y-111452380D01*
X63966666Y-111452380D01*
X64061904Y-111500000D01*
X64109523Y-111547619D01*
X64157142Y-111642857D01*
X64157142Y-111785714D01*
X64109523Y-111880952D01*
X64061904Y-111928571D01*
X63966666Y-111976190D01*
X63585714Y-111976190D01*
X64538095Y-112404761D02*
X64680952Y-112452380D01*
X64919047Y-112452380D01*
X65014285Y-112404761D01*
X65061904Y-112357142D01*
X65109523Y-112261904D01*
X65109523Y-112166666D01*
X65061904Y-112071428D01*
X65014285Y-112023809D01*
X64919047Y-111976190D01*
X64728571Y-111928571D01*
X64633333Y-111880952D01*
X64585714Y-111833333D01*
X64538095Y-111738095D01*
X64538095Y-111642857D01*
X64585714Y-111547619D01*
X64633333Y-111500000D01*
X64728571Y-111452380D01*
X64966666Y-111452380D01*
X65109523Y-111500000D01*
X66014285Y-111452380D02*
X65538095Y-111452380D01*
X65490476Y-111928571D01*
X65538095Y-111880952D01*
X65633333Y-111833333D01*
X65871428Y-111833333D01*
X65966666Y-111880952D01*
X66014285Y-111928571D01*
X66061904Y-112023809D01*
X66061904Y-112261904D01*
X66014285Y-112357142D01*
X65966666Y-112404761D01*
X65871428Y-112452380D01*
X65633333Y-112452380D01*
X65538095Y-112404761D01*
X65490476Y-112357142D01*
%TO.C,C16*%
D11*
X96957142Y-120657142D02*
X96909523Y-120704761D01*
X96766666Y-120752380D01*
X96671428Y-120752380D01*
X96528571Y-120704761D01*
X96433333Y-120609523D01*
X96385714Y-120514285D01*
X96338095Y-120323809D01*
X96338095Y-120180952D01*
X96385714Y-119990476D01*
X96433333Y-119895238D01*
X96528571Y-119800000D01*
X96671428Y-119752380D01*
X96766666Y-119752380D01*
X96909523Y-119800000D01*
X96957142Y-119847619D01*
X97909523Y-120752380D02*
X97338095Y-120752380D01*
X97623809Y-120752380D02*
X97623809Y-119752380D01*
X97528571Y-119895238D01*
X97433333Y-119990476D01*
X97338095Y-120038095D01*
X98766666Y-119752380D02*
X98576190Y-119752380D01*
X98480952Y-119800000D01*
X98433333Y-119847619D01*
X98338095Y-119990476D01*
X98290476Y-120180952D01*
X98290476Y-120561904D01*
X98338095Y-120657142D01*
X98385714Y-120704761D01*
X98480952Y-120752380D01*
X98671428Y-120752380D01*
X98766666Y-120704761D01*
X98814285Y-120657142D01*
X98861904Y-120561904D01*
X98861904Y-120323809D01*
X98814285Y-120228571D01*
X98766666Y-120180952D01*
X98671428Y-120133333D01*
X98480952Y-120133333D01*
X98385714Y-120180952D01*
X98338095Y-120228571D01*
X98290476Y-120323809D01*
%TO.C,C15*%
X116557142Y-119557142D02*
X116509523Y-119604761D01*
X116366666Y-119652380D01*
X116271428Y-119652380D01*
X116128571Y-119604761D01*
X116033333Y-119509523D01*
X115985714Y-119414285D01*
X115938095Y-119223809D01*
X115938095Y-119080952D01*
X115985714Y-118890476D01*
X116033333Y-118795238D01*
X116128571Y-118700000D01*
X116271428Y-118652380D01*
X116366666Y-118652380D01*
X116509523Y-118700000D01*
X116557142Y-118747619D01*
X117509523Y-119652380D02*
X116938095Y-119652380D01*
X117223809Y-119652380D02*
X117223809Y-118652380D01*
X117128571Y-118795238D01*
X117033333Y-118890476D01*
X116938095Y-118938095D01*
X118414285Y-118652380D02*
X117938095Y-118652380D01*
X117890476Y-119128571D01*
X117938095Y-119080952D01*
X118033333Y-119033333D01*
X118271428Y-119033333D01*
X118366666Y-119080952D01*
X118414285Y-119128571D01*
X118461904Y-119223809D01*
X118461904Y-119461904D01*
X118414285Y-119557142D01*
X118366666Y-119604761D01*
X118271428Y-119652380D01*
X118033333Y-119652380D01*
X117938095Y-119604761D01*
X117890476Y-119557142D01*
%TO.C,U6*%
X112838095Y-58552380D02*
X112838095Y-59361904D01*
X112885714Y-59457142D01*
X112933333Y-59504761D01*
X113028571Y-59552380D01*
X113219047Y-59552380D01*
X113314285Y-59504761D01*
X113361904Y-59457142D01*
X113409523Y-59361904D01*
X113409523Y-58552380D01*
X114314285Y-58552380D02*
X114123809Y-58552380D01*
X114028571Y-58600000D01*
X113980952Y-58647619D01*
X113885714Y-58790476D01*
X113838095Y-58980952D01*
X113838095Y-59361904D01*
X113885714Y-59457142D01*
X113933333Y-59504761D01*
X114028571Y-59552380D01*
X114219047Y-59552380D01*
X114314285Y-59504761D01*
X114361904Y-59457142D01*
X114409523Y-59361904D01*
X114409523Y-59123809D01*
X114361904Y-59028571D01*
X114314285Y-58980952D01*
X114219047Y-58933333D01*
X114028571Y-58933333D01*
X113933333Y-58980952D01*
X113885714Y-59028571D01*
X113838095Y-59123809D01*
%TO.C,U5*%
X80338095Y-58552380D02*
X80338095Y-59361904D01*
X80385714Y-59457142D01*
X80433333Y-59504761D01*
X80528571Y-59552380D01*
X80719047Y-59552380D01*
X80814285Y-59504761D01*
X80861904Y-59457142D01*
X80909523Y-59361904D01*
X80909523Y-58552380D01*
X81861904Y-58552380D02*
X81385714Y-58552380D01*
X81338095Y-59028571D01*
X81385714Y-58980952D01*
X81480952Y-58933333D01*
X81719047Y-58933333D01*
X81814285Y-58980952D01*
X81861904Y-59028571D01*
X81909523Y-59123809D01*
X81909523Y-59361904D01*
X81861904Y-59457142D01*
X81814285Y-59504761D01*
X81719047Y-59552380D01*
X81480952Y-59552380D01*
X81385714Y-59504761D01*
X81338095Y-59457142D01*
%TO.C,R13*%
X89457142Y-41827380D02*
X89123809Y-41351190D01*
X88885714Y-41827380D02*
X88885714Y-40827380D01*
X89266666Y-40827380D01*
X89361904Y-40875000D01*
X89409523Y-40922619D01*
X89457142Y-41017857D01*
X89457142Y-41160714D01*
X89409523Y-41255952D01*
X89361904Y-41303571D01*
X89266666Y-41351190D01*
X88885714Y-41351190D01*
X90409523Y-41827380D02*
X89838095Y-41827380D01*
X90123809Y-41827380D02*
X90123809Y-40827380D01*
X90028571Y-40970238D01*
X89933333Y-41065476D01*
X89838095Y-41113095D01*
X90742857Y-40827380D02*
X91361904Y-40827380D01*
X91028571Y-41208333D01*
X91171428Y-41208333D01*
X91266666Y-41255952D01*
X91314285Y-41303571D01*
X91361904Y-41398809D01*
X91361904Y-41636904D01*
X91314285Y-41732142D01*
X91266666Y-41779761D01*
X91171428Y-41827380D01*
X90885714Y-41827380D01*
X90790476Y-41779761D01*
X90742857Y-41732142D01*
%TO.C,J3*%
X96874666Y-32636380D02*
X96874666Y-33350666D01*
X96827047Y-33493523D01*
X96731809Y-33588761D01*
X96588952Y-33636380D01*
X96493714Y-33636380D01*
X97255619Y-32636380D02*
X97874666Y-32636380D01*
X97541333Y-33017333D01*
X97684190Y-33017333D01*
X97779428Y-33064952D01*
X97827047Y-33112571D01*
X97874666Y-33207809D01*
X97874666Y-33445904D01*
X97827047Y-33541142D01*
X97779428Y-33588761D01*
X97684190Y-33636380D01*
X97398476Y-33636380D01*
X97303238Y-33588761D01*
X97255619Y-33541142D01*
%TO.C,J2*%
X56174666Y-32586380D02*
X56174666Y-33300666D01*
X56127047Y-33443523D01*
X56031809Y-33538761D01*
X55888952Y-33586380D01*
X55793714Y-33586380D01*
X56603238Y-32681619D02*
X56650857Y-32634000D01*
X56746095Y-32586380D01*
X56984190Y-32586380D01*
X57079428Y-32634000D01*
X57127047Y-32681619D01*
X57174666Y-32776857D01*
X57174666Y-32872095D01*
X57127047Y-33014952D01*
X56555619Y-33586380D01*
X57174666Y-33586380D01*
%TO.C,SWD1*%
X43966666Y-81674761D02*
X44109523Y-81722380D01*
X44347619Y-81722380D01*
X44442857Y-81674761D01*
X44490476Y-81627142D01*
X44538095Y-81531904D01*
X44538095Y-81436666D01*
X44490476Y-81341428D01*
X44442857Y-81293809D01*
X44347619Y-81246190D01*
X44157142Y-81198571D01*
X44061904Y-81150952D01*
X44014285Y-81103333D01*
X43966666Y-81008095D01*
X43966666Y-80912857D01*
X44014285Y-80817619D01*
X44061904Y-80770000D01*
X44157142Y-80722380D01*
X44395238Y-80722380D01*
X44538095Y-80770000D01*
X44871428Y-80722380D02*
X45109523Y-81722380D01*
X45300000Y-81008095D01*
X45490476Y-81722380D01*
X45728571Y-80722380D01*
X46109523Y-81722380D02*
X46109523Y-80722380D01*
X46347619Y-80722380D01*
X46490476Y-80770000D01*
X46585714Y-80865238D01*
X46633333Y-80960476D01*
X46680952Y-81150952D01*
X46680952Y-81293809D01*
X46633333Y-81484285D01*
X46585714Y-81579523D01*
X46490476Y-81674761D01*
X46347619Y-81722380D01*
X46109523Y-81722380D01*
X47633333Y-81722380D02*
X47061904Y-81722380D01*
X47347619Y-81722380D02*
X47347619Y-80722380D01*
X47252380Y-80865238D01*
X47157142Y-80960476D01*
X47061904Y-81008095D01*
%TO.C,R24*%
X50669642Y-86202380D02*
X50336309Y-85726190D01*
X50098214Y-86202380D02*
X50098214Y-85202380D01*
X50479166Y-85202380D01*
X50574404Y-85250000D01*
X50622023Y-85297619D01*
X50669642Y-85392857D01*
X50669642Y-85535714D01*
X50622023Y-85630952D01*
X50574404Y-85678571D01*
X50479166Y-85726190D01*
X50098214Y-85726190D01*
X51050595Y-85297619D02*
X51098214Y-85250000D01*
X51193452Y-85202380D01*
X51431547Y-85202380D01*
X51526785Y-85250000D01*
X51574404Y-85297619D01*
X51622023Y-85392857D01*
X51622023Y-85488095D01*
X51574404Y-85630952D01*
X51002976Y-86202380D01*
X51622023Y-86202380D01*
X52479166Y-85535714D02*
X52479166Y-86202380D01*
X52241071Y-85154761D02*
X52002976Y-85869047D01*
X52622023Y-85869047D01*
%TO.C,J8*%
X57016666Y-78817380D02*
X57016666Y-79531666D01*
X56969047Y-79674523D01*
X56873809Y-79769761D01*
X56730952Y-79817380D01*
X56635714Y-79817380D01*
X57635714Y-79245952D02*
X57540476Y-79198333D01*
X57492857Y-79150714D01*
X57445238Y-79055476D01*
X57445238Y-79007857D01*
X57492857Y-78912619D01*
X57540476Y-78865000D01*
X57635714Y-78817380D01*
X57826190Y-78817380D01*
X57921428Y-78865000D01*
X57969047Y-78912619D01*
X58016666Y-79007857D01*
X58016666Y-79055476D01*
X57969047Y-79150714D01*
X57921428Y-79198333D01*
X57826190Y-79245952D01*
X57635714Y-79245952D01*
X57540476Y-79293571D01*
X57492857Y-79341190D01*
X57445238Y-79436428D01*
X57445238Y-79626904D01*
X57492857Y-79722142D01*
X57540476Y-79769761D01*
X57635714Y-79817380D01*
X57826190Y-79817380D01*
X57921428Y-79769761D01*
X57969047Y-79722142D01*
X58016666Y-79626904D01*
X58016666Y-79436428D01*
X57969047Y-79341190D01*
X57921428Y-79293571D01*
X57826190Y-79245952D01*
%TO.C,R17*%
X112757142Y-68052380D02*
X112423809Y-67576190D01*
X112185714Y-68052380D02*
X112185714Y-67052380D01*
X112566666Y-67052380D01*
X112661904Y-67100000D01*
X112709523Y-67147619D01*
X112757142Y-67242857D01*
X112757142Y-67385714D01*
X112709523Y-67480952D01*
X112661904Y-67528571D01*
X112566666Y-67576190D01*
X112185714Y-67576190D01*
X113709523Y-68052380D02*
X113138095Y-68052380D01*
X113423809Y-68052380D02*
X113423809Y-67052380D01*
X113328571Y-67195238D01*
X113233333Y-67290476D01*
X113138095Y-67338095D01*
X114042857Y-67052380D02*
X114709523Y-67052380D01*
X114280952Y-68052380D01*
%TO.C,Y1*%
X71746446Y-84319881D02*
X72083164Y-84656599D01*
X71140355Y-84185194D02*
X71746446Y-84319881D01*
X71611759Y-83713790D01*
X72924957Y-83814805D02*
X72520896Y-84218866D01*
X72722927Y-84016835D02*
X72015820Y-83309729D01*
X72049492Y-83478087D01*
X72049492Y-83612774D01*
X72015820Y-83713790D01*
%TO.C,U7*%
X92038095Y-112232380D02*
X92038095Y-113041904D01*
X92085714Y-113137142D01*
X92133333Y-113184761D01*
X92228571Y-113232380D01*
X92419047Y-113232380D01*
X92514285Y-113184761D01*
X92561904Y-113137142D01*
X92609523Y-113041904D01*
X92609523Y-112232380D01*
X92990476Y-112232380D02*
X93657142Y-112232380D01*
X93228571Y-113232380D01*
%TO.C,R22*%
X88657142Y-119852380D02*
X88323809Y-119376190D01*
X88085714Y-119852380D02*
X88085714Y-118852380D01*
X88466666Y-118852380D01*
X88561904Y-118900000D01*
X88609523Y-118947619D01*
X88657142Y-119042857D01*
X88657142Y-119185714D01*
X88609523Y-119280952D01*
X88561904Y-119328571D01*
X88466666Y-119376190D01*
X88085714Y-119376190D01*
X89038095Y-118947619D02*
X89085714Y-118900000D01*
X89180952Y-118852380D01*
X89419047Y-118852380D01*
X89514285Y-118900000D01*
X89561904Y-118947619D01*
X89609523Y-119042857D01*
X89609523Y-119138095D01*
X89561904Y-119280952D01*
X88990476Y-119852380D01*
X89609523Y-119852380D01*
X89990476Y-118947619D02*
X90038095Y-118900000D01*
X90133333Y-118852380D01*
X90371428Y-118852380D01*
X90466666Y-118900000D01*
X90514285Y-118947619D01*
X90561904Y-119042857D01*
X90561904Y-119138095D01*
X90514285Y-119280952D01*
X89942857Y-119852380D01*
X90561904Y-119852380D01*
%TO.C,R21*%
X84844642Y-109652380D02*
X84511309Y-109176190D01*
X84273214Y-109652380D02*
X84273214Y-108652380D01*
X84654166Y-108652380D01*
X84749404Y-108700000D01*
X84797023Y-108747619D01*
X84844642Y-108842857D01*
X84844642Y-108985714D01*
X84797023Y-109080952D01*
X84749404Y-109128571D01*
X84654166Y-109176190D01*
X84273214Y-109176190D01*
X85225595Y-108747619D02*
X85273214Y-108700000D01*
X85368452Y-108652380D01*
X85606547Y-108652380D01*
X85701785Y-108700000D01*
X85749404Y-108747619D01*
X85797023Y-108842857D01*
X85797023Y-108938095D01*
X85749404Y-109080952D01*
X85177976Y-109652380D01*
X85797023Y-109652380D01*
X86749404Y-109652380D02*
X86177976Y-109652380D01*
X86463690Y-109652380D02*
X86463690Y-108652380D01*
X86368452Y-108795238D01*
X86273214Y-108890476D01*
X86177976Y-108938095D01*
%TO.C,R20*%
X115557142Y-48552380D02*
X115223809Y-48076190D01*
X114985714Y-48552380D02*
X114985714Y-47552380D01*
X115366666Y-47552380D01*
X115461904Y-47600000D01*
X115509523Y-47647619D01*
X115557142Y-47742857D01*
X115557142Y-47885714D01*
X115509523Y-47980952D01*
X115461904Y-48028571D01*
X115366666Y-48076190D01*
X114985714Y-48076190D01*
X115938095Y-47647619D02*
X115985714Y-47600000D01*
X116080952Y-47552380D01*
X116319047Y-47552380D01*
X116414285Y-47600000D01*
X116461904Y-47647619D01*
X116509523Y-47742857D01*
X116509523Y-47838095D01*
X116461904Y-47980952D01*
X115890476Y-48552380D01*
X116509523Y-48552380D01*
X117128571Y-47552380D02*
X117223809Y-47552380D01*
X117319047Y-47600000D01*
X117366666Y-47647619D01*
X117414285Y-47742857D01*
X117461904Y-47933333D01*
X117461904Y-48171428D01*
X117414285Y-48361904D01*
X117366666Y-48457142D01*
X117319047Y-48504761D01*
X117223809Y-48552380D01*
X117128571Y-48552380D01*
X117033333Y-48504761D01*
X116985714Y-48457142D01*
X116938095Y-48361904D01*
X116890476Y-48171428D01*
X116890476Y-47933333D01*
X116938095Y-47742857D01*
X116985714Y-47647619D01*
X117033333Y-47600000D01*
X117128571Y-47552380D01*
%TO.C,R19*%
X121857142Y-65862380D02*
X121523809Y-65386190D01*
X121285714Y-65862380D02*
X121285714Y-64862380D01*
X121666666Y-64862380D01*
X121761904Y-64910000D01*
X121809523Y-64957619D01*
X121857142Y-65052857D01*
X121857142Y-65195714D01*
X121809523Y-65290952D01*
X121761904Y-65338571D01*
X121666666Y-65386190D01*
X121285714Y-65386190D01*
X122809523Y-65862380D02*
X122238095Y-65862380D01*
X122523809Y-65862380D02*
X122523809Y-64862380D01*
X122428571Y-65005238D01*
X122333333Y-65100476D01*
X122238095Y-65148095D01*
X123285714Y-65862380D02*
X123476190Y-65862380D01*
X123571428Y-65814761D01*
X123619047Y-65767142D01*
X123714285Y-65624285D01*
X123761904Y-65433809D01*
X123761904Y-65052857D01*
X123714285Y-64957619D01*
X123666666Y-64910000D01*
X123571428Y-64862380D01*
X123380952Y-64862380D01*
X123285714Y-64910000D01*
X123238095Y-64957619D01*
X123190476Y-65052857D01*
X123190476Y-65290952D01*
X123238095Y-65386190D01*
X123285714Y-65433809D01*
X123380952Y-65481428D01*
X123571428Y-65481428D01*
X123666666Y-65433809D01*
X123714285Y-65386190D01*
X123761904Y-65290952D01*
%TO.C,R18*%
X115857142Y-68052380D02*
X115523809Y-67576190D01*
X115285714Y-68052380D02*
X115285714Y-67052380D01*
X115666666Y-67052380D01*
X115761904Y-67100000D01*
X115809523Y-67147619D01*
X115857142Y-67242857D01*
X115857142Y-67385714D01*
X115809523Y-67480952D01*
X115761904Y-67528571D01*
X115666666Y-67576190D01*
X115285714Y-67576190D01*
X116809523Y-68052380D02*
X116238095Y-68052380D01*
X116523809Y-68052380D02*
X116523809Y-67052380D01*
X116428571Y-67195238D01*
X116333333Y-67290476D01*
X116238095Y-67338095D01*
X117380952Y-67480952D02*
X117285714Y-67433333D01*
X117238095Y-67385714D01*
X117190476Y-67290476D01*
X117190476Y-67242857D01*
X117238095Y-67147619D01*
X117285714Y-67100000D01*
X117380952Y-67052380D01*
X117571428Y-67052380D01*
X117666666Y-67100000D01*
X117714285Y-67147619D01*
X117761904Y-67242857D01*
X117761904Y-67290476D01*
X117714285Y-67385714D01*
X117666666Y-67433333D01*
X117571428Y-67480952D01*
X117380952Y-67480952D01*
X117285714Y-67528571D01*
X117238095Y-67576190D01*
X117190476Y-67671428D01*
X117190476Y-67861904D01*
X117238095Y-67957142D01*
X117285714Y-68004761D01*
X117380952Y-68052380D01*
X117571428Y-68052380D01*
X117666666Y-68004761D01*
X117714285Y-67957142D01*
X117761904Y-67861904D01*
X117761904Y-67671428D01*
X117714285Y-67576190D01*
X117666666Y-67528571D01*
X117571428Y-67480952D01*
%TO.C,R16*%
X83157142Y-48252380D02*
X82823809Y-47776190D01*
X82585714Y-48252380D02*
X82585714Y-47252380D01*
X82966666Y-47252380D01*
X83061904Y-47300000D01*
X83109523Y-47347619D01*
X83157142Y-47442857D01*
X83157142Y-47585714D01*
X83109523Y-47680952D01*
X83061904Y-47728571D01*
X82966666Y-47776190D01*
X82585714Y-47776190D01*
X84109523Y-48252380D02*
X83538095Y-48252380D01*
X83823809Y-48252380D02*
X83823809Y-47252380D01*
X83728571Y-47395238D01*
X83633333Y-47490476D01*
X83538095Y-47538095D01*
X84966666Y-47252380D02*
X84776190Y-47252380D01*
X84680952Y-47300000D01*
X84633333Y-47347619D01*
X84538095Y-47490476D01*
X84490476Y-47680952D01*
X84490476Y-48061904D01*
X84538095Y-48157142D01*
X84585714Y-48204761D01*
X84680952Y-48252380D01*
X84871428Y-48252380D01*
X84966666Y-48204761D01*
X85014285Y-48157142D01*
X85061904Y-48061904D01*
X85061904Y-47823809D01*
X85014285Y-47728571D01*
X84966666Y-47680952D01*
X84871428Y-47633333D01*
X84680952Y-47633333D01*
X84585714Y-47680952D01*
X84538095Y-47728571D01*
X84490476Y-47823809D01*
%TO.C,R15*%
X90757142Y-66102380D02*
X90423809Y-65626190D01*
X90185714Y-66102380D02*
X90185714Y-65102380D01*
X90566666Y-65102380D01*
X90661904Y-65150000D01*
X90709523Y-65197619D01*
X90757142Y-65292857D01*
X90757142Y-65435714D01*
X90709523Y-65530952D01*
X90661904Y-65578571D01*
X90566666Y-65626190D01*
X90185714Y-65626190D01*
X91709523Y-66102380D02*
X91138095Y-66102380D01*
X91423809Y-66102380D02*
X91423809Y-65102380D01*
X91328571Y-65245238D01*
X91233333Y-65340476D01*
X91138095Y-65388095D01*
X92614285Y-65102380D02*
X92138095Y-65102380D01*
X92090476Y-65578571D01*
X92138095Y-65530952D01*
X92233333Y-65483333D01*
X92471428Y-65483333D01*
X92566666Y-65530952D01*
X92614285Y-65578571D01*
X92661904Y-65673809D01*
X92661904Y-65911904D01*
X92614285Y-66007142D01*
X92566666Y-66054761D01*
X92471428Y-66102380D01*
X92233333Y-66102380D01*
X92138095Y-66054761D01*
X92090476Y-66007142D01*
%TO.C,R14*%
X83457142Y-67752380D02*
X83123809Y-67276190D01*
X82885714Y-67752380D02*
X82885714Y-66752380D01*
X83266666Y-66752380D01*
X83361904Y-66800000D01*
X83409523Y-66847619D01*
X83457142Y-66942857D01*
X83457142Y-67085714D01*
X83409523Y-67180952D01*
X83361904Y-67228571D01*
X83266666Y-67276190D01*
X82885714Y-67276190D01*
X84409523Y-67752380D02*
X83838095Y-67752380D01*
X84123809Y-67752380D02*
X84123809Y-66752380D01*
X84028571Y-66895238D01*
X83933333Y-66990476D01*
X83838095Y-67038095D01*
X85266666Y-67085714D02*
X85266666Y-67752380D01*
X85028571Y-66704761D02*
X84790476Y-67419047D01*
X85409523Y-67419047D01*
%TO.C,R9*%
X81233333Y-67752380D02*
X80900000Y-67276190D01*
X80661904Y-67752380D02*
X80661904Y-66752380D01*
X81042857Y-66752380D01*
X81138095Y-66800000D01*
X81185714Y-66847619D01*
X81233333Y-66942857D01*
X81233333Y-67085714D01*
X81185714Y-67180952D01*
X81138095Y-67228571D01*
X81042857Y-67276190D01*
X80661904Y-67276190D01*
X81709523Y-67752380D02*
X81900000Y-67752380D01*
X81995238Y-67704761D01*
X82042857Y-67657142D01*
X82138095Y-67514285D01*
X82185714Y-67323809D01*
X82185714Y-66942857D01*
X82138095Y-66847619D01*
X82090476Y-66800000D01*
X81995238Y-66752380D01*
X81804761Y-66752380D01*
X81709523Y-66800000D01*
X81661904Y-66847619D01*
X81614285Y-66942857D01*
X81614285Y-67180952D01*
X81661904Y-67276190D01*
X81709523Y-67323809D01*
X81804761Y-67371428D01*
X81995238Y-67371428D01*
X82090476Y-67323809D01*
X82138095Y-67276190D01*
X82185714Y-67180952D01*
%TO.C,D11*%
X110785714Y-55852380D02*
X110785714Y-54852380D01*
X111023809Y-54852380D01*
X111166666Y-54900000D01*
X111261904Y-54995238D01*
X111309523Y-55090476D01*
X111357142Y-55280952D01*
X111357142Y-55423809D01*
X111309523Y-55614285D01*
X111261904Y-55709523D01*
X111166666Y-55804761D01*
X111023809Y-55852380D01*
X110785714Y-55852380D01*
X112309523Y-55852380D02*
X111738095Y-55852380D01*
X112023809Y-55852380D02*
X112023809Y-54852380D01*
X111928571Y-54995238D01*
X111833333Y-55090476D01*
X111738095Y-55138095D01*
X113261904Y-55852380D02*
X112690476Y-55852380D01*
X112976190Y-55852380D02*
X112976190Y-54852380D01*
X112880952Y-54995238D01*
X112785714Y-55090476D01*
X112690476Y-55138095D01*
%TO.C,D10*%
X78585714Y-55652380D02*
X78585714Y-54652380D01*
X78823809Y-54652380D01*
X78966666Y-54700000D01*
X79061904Y-54795238D01*
X79109523Y-54890476D01*
X79157142Y-55080952D01*
X79157142Y-55223809D01*
X79109523Y-55414285D01*
X79061904Y-55509523D01*
X78966666Y-55604761D01*
X78823809Y-55652380D01*
X78585714Y-55652380D01*
X80109523Y-55652380D02*
X79538095Y-55652380D01*
X79823809Y-55652380D02*
X79823809Y-54652380D01*
X79728571Y-54795238D01*
X79633333Y-54890476D01*
X79538095Y-54938095D01*
X80728571Y-54652380D02*
X80823809Y-54652380D01*
X80919047Y-54700000D01*
X80966666Y-54747619D01*
X81014285Y-54842857D01*
X81061904Y-55033333D01*
X81061904Y-55271428D01*
X81014285Y-55461904D01*
X80966666Y-55557142D01*
X80919047Y-55604761D01*
X80823809Y-55652380D01*
X80728571Y-55652380D01*
X80633333Y-55604761D01*
X80585714Y-55557142D01*
X80538095Y-55461904D01*
X80490476Y-55271428D01*
X80490476Y-55033333D01*
X80538095Y-54842857D01*
X80585714Y-54747619D01*
X80633333Y-54700000D01*
X80728571Y-54652380D01*
%TO.C,C34*%
X127157142Y-49557142D02*
X127109523Y-49604761D01*
X126966666Y-49652380D01*
X126871428Y-49652380D01*
X126728571Y-49604761D01*
X126633333Y-49509523D01*
X126585714Y-49414285D01*
X126538095Y-49223809D01*
X126538095Y-49080952D01*
X126585714Y-48890476D01*
X126633333Y-48795238D01*
X126728571Y-48700000D01*
X126871428Y-48652380D01*
X126966666Y-48652380D01*
X127109523Y-48700000D01*
X127157142Y-48747619D01*
X127490476Y-48652380D02*
X128109523Y-48652380D01*
X127776190Y-49033333D01*
X127919047Y-49033333D01*
X128014285Y-49080952D01*
X128061904Y-49128571D01*
X128109523Y-49223809D01*
X128109523Y-49461904D01*
X128061904Y-49557142D01*
X128014285Y-49604761D01*
X127919047Y-49652380D01*
X127633333Y-49652380D01*
X127538095Y-49604761D01*
X127490476Y-49557142D01*
X128966666Y-48985714D02*
X128966666Y-49652380D01*
X128728571Y-48604761D02*
X128490476Y-49319047D01*
X129109523Y-49319047D01*
%TO.C,C33*%
X118857142Y-50157142D02*
X118809523Y-50204761D01*
X118666666Y-50252380D01*
X118571428Y-50252380D01*
X118428571Y-50204761D01*
X118333333Y-50109523D01*
X118285714Y-50014285D01*
X118238095Y-49823809D01*
X118238095Y-49680952D01*
X118285714Y-49490476D01*
X118333333Y-49395238D01*
X118428571Y-49300000D01*
X118571428Y-49252380D01*
X118666666Y-49252380D01*
X118809523Y-49300000D01*
X118857142Y-49347619D01*
X119190476Y-49252380D02*
X119809523Y-49252380D01*
X119476190Y-49633333D01*
X119619047Y-49633333D01*
X119714285Y-49680952D01*
X119761904Y-49728571D01*
X119809523Y-49823809D01*
X119809523Y-50061904D01*
X119761904Y-50157142D01*
X119714285Y-50204761D01*
X119619047Y-50252380D01*
X119333333Y-50252380D01*
X119238095Y-50204761D01*
X119190476Y-50157142D01*
X120142857Y-49252380D02*
X120761904Y-49252380D01*
X120428571Y-49633333D01*
X120571428Y-49633333D01*
X120666666Y-49680952D01*
X120714285Y-49728571D01*
X120761904Y-49823809D01*
X120761904Y-50061904D01*
X120714285Y-50157142D01*
X120666666Y-50204761D01*
X120571428Y-50252380D01*
X120285714Y-50252380D01*
X120190476Y-50204761D01*
X120142857Y-50157142D01*
%TO.C,C32*%
X125697142Y-51947142D02*
X125649523Y-51994761D01*
X125506666Y-52042380D01*
X125411428Y-52042380D01*
X125268571Y-51994761D01*
X125173333Y-51899523D01*
X125125714Y-51804285D01*
X125078095Y-51613809D01*
X125078095Y-51470952D01*
X125125714Y-51280476D01*
X125173333Y-51185238D01*
X125268571Y-51090000D01*
X125411428Y-51042380D01*
X125506666Y-51042380D01*
X125649523Y-51090000D01*
X125697142Y-51137619D01*
X126030476Y-51042380D02*
X126649523Y-51042380D01*
X126316190Y-51423333D01*
X126459047Y-51423333D01*
X126554285Y-51470952D01*
X126601904Y-51518571D01*
X126649523Y-51613809D01*
X126649523Y-51851904D01*
X126601904Y-51947142D01*
X126554285Y-51994761D01*
X126459047Y-52042380D01*
X126173333Y-52042380D01*
X126078095Y-51994761D01*
X126030476Y-51947142D01*
X127030476Y-51137619D02*
X127078095Y-51090000D01*
X127173333Y-51042380D01*
X127411428Y-51042380D01*
X127506666Y-51090000D01*
X127554285Y-51137619D01*
X127601904Y-51232857D01*
X127601904Y-51328095D01*
X127554285Y-51470952D01*
X126982857Y-52042380D01*
X127601904Y-52042380D01*
%TO.C,C31*%
X118857142Y-52057142D02*
X118809523Y-52104761D01*
X118666666Y-52152380D01*
X118571428Y-52152380D01*
X118428571Y-52104761D01*
X118333333Y-52009523D01*
X118285714Y-51914285D01*
X118238095Y-51723809D01*
X118238095Y-51580952D01*
X118285714Y-51390476D01*
X118333333Y-51295238D01*
X118428571Y-51200000D01*
X118571428Y-51152380D01*
X118666666Y-51152380D01*
X118809523Y-51200000D01*
X118857142Y-51247619D01*
X119190476Y-51152380D02*
X119809523Y-51152380D01*
X119476190Y-51533333D01*
X119619047Y-51533333D01*
X119714285Y-51580952D01*
X119761904Y-51628571D01*
X119809523Y-51723809D01*
X119809523Y-51961904D01*
X119761904Y-52057142D01*
X119714285Y-52104761D01*
X119619047Y-52152380D01*
X119333333Y-52152380D01*
X119238095Y-52104761D01*
X119190476Y-52057142D01*
X120761904Y-52152380D02*
X120190476Y-52152380D01*
X120476190Y-52152380D02*
X120476190Y-51152380D01*
X120380952Y-51295238D01*
X120285714Y-51390476D01*
X120190476Y-51438095D01*
%TO.C,C30*%
X121857142Y-67157142D02*
X121809523Y-67204761D01*
X121666666Y-67252380D01*
X121571428Y-67252380D01*
X121428571Y-67204761D01*
X121333333Y-67109523D01*
X121285714Y-67014285D01*
X121238095Y-66823809D01*
X121238095Y-66680952D01*
X121285714Y-66490476D01*
X121333333Y-66395238D01*
X121428571Y-66300000D01*
X121571428Y-66252380D01*
X121666666Y-66252380D01*
X121809523Y-66300000D01*
X121857142Y-66347619D01*
X122190476Y-66252380D02*
X122809523Y-66252380D01*
X122476190Y-66633333D01*
X122619047Y-66633333D01*
X122714285Y-66680952D01*
X122761904Y-66728571D01*
X122809523Y-66823809D01*
X122809523Y-67061904D01*
X122761904Y-67157142D01*
X122714285Y-67204761D01*
X122619047Y-67252380D01*
X122333333Y-67252380D01*
X122238095Y-67204761D01*
X122190476Y-67157142D01*
X123428571Y-66252380D02*
X123523809Y-66252380D01*
X123619047Y-66300000D01*
X123666666Y-66347619D01*
X123714285Y-66442857D01*
X123761904Y-66633333D01*
X123761904Y-66871428D01*
X123714285Y-67061904D01*
X123666666Y-67157142D01*
X123619047Y-67204761D01*
X123523809Y-67252380D01*
X123428571Y-67252380D01*
X123333333Y-67204761D01*
X123285714Y-67157142D01*
X123238095Y-67061904D01*
X123190476Y-66871428D01*
X123190476Y-66633333D01*
X123238095Y-66442857D01*
X123285714Y-66347619D01*
X123333333Y-66300000D01*
X123428571Y-66252380D01*
%TO.C,C28*%
X118957142Y-67957142D02*
X118909523Y-68004761D01*
X118766666Y-68052380D01*
X118671428Y-68052380D01*
X118528571Y-68004761D01*
X118433333Y-67909523D01*
X118385714Y-67814285D01*
X118338095Y-67623809D01*
X118338095Y-67480952D01*
X118385714Y-67290476D01*
X118433333Y-67195238D01*
X118528571Y-67100000D01*
X118671428Y-67052380D01*
X118766666Y-67052380D01*
X118909523Y-67100000D01*
X118957142Y-67147619D01*
X119338095Y-67147619D02*
X119385714Y-67100000D01*
X119480952Y-67052380D01*
X119719047Y-67052380D01*
X119814285Y-67100000D01*
X119861904Y-67147619D01*
X119909523Y-67242857D01*
X119909523Y-67338095D01*
X119861904Y-67480952D01*
X119290476Y-68052380D01*
X119909523Y-68052380D01*
X120480952Y-67480952D02*
X120385714Y-67433333D01*
X120338095Y-67385714D01*
X120290476Y-67290476D01*
X120290476Y-67242857D01*
X120338095Y-67147619D01*
X120385714Y-67100000D01*
X120480952Y-67052380D01*
X120671428Y-67052380D01*
X120766666Y-67100000D01*
X120814285Y-67147619D01*
X120861904Y-67242857D01*
X120861904Y-67290476D01*
X120814285Y-67385714D01*
X120766666Y-67433333D01*
X120671428Y-67480952D01*
X120480952Y-67480952D01*
X120385714Y-67528571D01*
X120338095Y-67576190D01*
X120290476Y-67671428D01*
X120290476Y-67861904D01*
X120338095Y-67957142D01*
X120385714Y-68004761D01*
X120480952Y-68052380D01*
X120671428Y-68052380D01*
X120766666Y-68004761D01*
X120814285Y-67957142D01*
X120861904Y-67861904D01*
X120861904Y-67671428D01*
X120814285Y-67576190D01*
X120766666Y-67528571D01*
X120671428Y-67480952D01*
%TO.C,C27*%
X109457142Y-67957142D02*
X109409523Y-68004761D01*
X109266666Y-68052380D01*
X109171428Y-68052380D01*
X109028571Y-68004761D01*
X108933333Y-67909523D01*
X108885714Y-67814285D01*
X108838095Y-67623809D01*
X108838095Y-67480952D01*
X108885714Y-67290476D01*
X108933333Y-67195238D01*
X109028571Y-67100000D01*
X109171428Y-67052380D01*
X109266666Y-67052380D01*
X109409523Y-67100000D01*
X109457142Y-67147619D01*
X109838095Y-67147619D02*
X109885714Y-67100000D01*
X109980952Y-67052380D01*
X110219047Y-67052380D01*
X110314285Y-67100000D01*
X110361904Y-67147619D01*
X110409523Y-67242857D01*
X110409523Y-67338095D01*
X110361904Y-67480952D01*
X109790476Y-68052380D01*
X110409523Y-68052380D01*
X110742857Y-67052380D02*
X111409523Y-67052380D01*
X110980952Y-68052380D01*
%TO.C,C26*%
X124957142Y-65757142D02*
X124909523Y-65804761D01*
X124766666Y-65852380D01*
X124671428Y-65852380D01*
X124528571Y-65804761D01*
X124433333Y-65709523D01*
X124385714Y-65614285D01*
X124338095Y-65423809D01*
X124338095Y-65280952D01*
X124385714Y-65090476D01*
X124433333Y-64995238D01*
X124528571Y-64900000D01*
X124671428Y-64852380D01*
X124766666Y-64852380D01*
X124909523Y-64900000D01*
X124957142Y-64947619D01*
X125338095Y-64947619D02*
X125385714Y-64900000D01*
X125480952Y-64852380D01*
X125719047Y-64852380D01*
X125814285Y-64900000D01*
X125861904Y-64947619D01*
X125909523Y-65042857D01*
X125909523Y-65138095D01*
X125861904Y-65280952D01*
X125290476Y-65852380D01*
X125909523Y-65852380D01*
X126766666Y-64852380D02*
X126576190Y-64852380D01*
X126480952Y-64900000D01*
X126433333Y-64947619D01*
X126338095Y-65090476D01*
X126290476Y-65280952D01*
X126290476Y-65661904D01*
X126338095Y-65757142D01*
X126385714Y-65804761D01*
X126480952Y-65852380D01*
X126671428Y-65852380D01*
X126766666Y-65804761D01*
X126814285Y-65757142D01*
X126861904Y-65661904D01*
X126861904Y-65423809D01*
X126814285Y-65328571D01*
X126766666Y-65280952D01*
X126671428Y-65233333D01*
X126480952Y-65233333D01*
X126385714Y-65280952D01*
X126338095Y-65328571D01*
X126290476Y-65423809D01*
%TO.C,C25*%
X115097142Y-61947142D02*
X115049523Y-61994761D01*
X114906666Y-62042380D01*
X114811428Y-62042380D01*
X114668571Y-61994761D01*
X114573333Y-61899523D01*
X114525714Y-61804285D01*
X114478095Y-61613809D01*
X114478095Y-61470952D01*
X114525714Y-61280476D01*
X114573333Y-61185238D01*
X114668571Y-61090000D01*
X114811428Y-61042380D01*
X114906666Y-61042380D01*
X115049523Y-61090000D01*
X115097142Y-61137619D01*
X115478095Y-61137619D02*
X115525714Y-61090000D01*
X115620952Y-61042380D01*
X115859047Y-61042380D01*
X115954285Y-61090000D01*
X116001904Y-61137619D01*
X116049523Y-61232857D01*
X116049523Y-61328095D01*
X116001904Y-61470952D01*
X115430476Y-62042380D01*
X116049523Y-62042380D01*
X116954285Y-61042380D02*
X116478095Y-61042380D01*
X116430476Y-61518571D01*
X116478095Y-61470952D01*
X116573333Y-61423333D01*
X116811428Y-61423333D01*
X116906666Y-61470952D01*
X116954285Y-61518571D01*
X117001904Y-61613809D01*
X117001904Y-61851904D01*
X116954285Y-61947142D01*
X116906666Y-61994761D01*
X116811428Y-62042380D01*
X116573333Y-62042380D01*
X116478095Y-61994761D01*
X116430476Y-61947142D01*
%TO.C,C24*%
X94557142Y-49307142D02*
X94509523Y-49354761D01*
X94366666Y-49402380D01*
X94271428Y-49402380D01*
X94128571Y-49354761D01*
X94033333Y-49259523D01*
X93985714Y-49164285D01*
X93938095Y-48973809D01*
X93938095Y-48830952D01*
X93985714Y-48640476D01*
X94033333Y-48545238D01*
X94128571Y-48450000D01*
X94271428Y-48402380D01*
X94366666Y-48402380D01*
X94509523Y-48450000D01*
X94557142Y-48497619D01*
X94938095Y-48497619D02*
X94985714Y-48450000D01*
X95080952Y-48402380D01*
X95319047Y-48402380D01*
X95414285Y-48450000D01*
X95461904Y-48497619D01*
X95509523Y-48592857D01*
X95509523Y-48688095D01*
X95461904Y-48830952D01*
X94890476Y-49402380D01*
X95509523Y-49402380D01*
X96366666Y-48735714D02*
X96366666Y-49402380D01*
X96128571Y-48354761D02*
X95890476Y-49069047D01*
X96509523Y-49069047D01*
%TO.C,C23*%
X86357142Y-50257142D02*
X86309523Y-50304761D01*
X86166666Y-50352380D01*
X86071428Y-50352380D01*
X85928571Y-50304761D01*
X85833333Y-50209523D01*
X85785714Y-50114285D01*
X85738095Y-49923809D01*
X85738095Y-49780952D01*
X85785714Y-49590476D01*
X85833333Y-49495238D01*
X85928571Y-49400000D01*
X86071428Y-49352380D01*
X86166666Y-49352380D01*
X86309523Y-49400000D01*
X86357142Y-49447619D01*
X86738095Y-49447619D02*
X86785714Y-49400000D01*
X86880952Y-49352380D01*
X87119047Y-49352380D01*
X87214285Y-49400000D01*
X87261904Y-49447619D01*
X87309523Y-49542857D01*
X87309523Y-49638095D01*
X87261904Y-49780952D01*
X86690476Y-50352380D01*
X87309523Y-50352380D01*
X87642857Y-49352380D02*
X88261904Y-49352380D01*
X87928571Y-49733333D01*
X88071428Y-49733333D01*
X88166666Y-49780952D01*
X88214285Y-49828571D01*
X88261904Y-49923809D01*
X88261904Y-50161904D01*
X88214285Y-50257142D01*
X88166666Y-50304761D01*
X88071428Y-50352380D01*
X87785714Y-50352380D01*
X87690476Y-50304761D01*
X87642857Y-50257142D01*
%TO.C,C22*%
X93557142Y-51957142D02*
X93509523Y-52004761D01*
X93366666Y-52052380D01*
X93271428Y-52052380D01*
X93128571Y-52004761D01*
X93033333Y-51909523D01*
X92985714Y-51814285D01*
X92938095Y-51623809D01*
X92938095Y-51480952D01*
X92985714Y-51290476D01*
X93033333Y-51195238D01*
X93128571Y-51100000D01*
X93271428Y-51052380D01*
X93366666Y-51052380D01*
X93509523Y-51100000D01*
X93557142Y-51147619D01*
X93938095Y-51147619D02*
X93985714Y-51100000D01*
X94080952Y-51052380D01*
X94319047Y-51052380D01*
X94414285Y-51100000D01*
X94461904Y-51147619D01*
X94509523Y-51242857D01*
X94509523Y-51338095D01*
X94461904Y-51480952D01*
X93890476Y-52052380D01*
X94509523Y-52052380D01*
X94890476Y-51147619D02*
X94938095Y-51100000D01*
X95033333Y-51052380D01*
X95271428Y-51052380D01*
X95366666Y-51100000D01*
X95414285Y-51147619D01*
X95461904Y-51242857D01*
X95461904Y-51338095D01*
X95414285Y-51480952D01*
X94842857Y-52052380D01*
X95461904Y-52052380D01*
%TO.C,C21*%
X86357142Y-52157142D02*
X86309523Y-52204761D01*
X86166666Y-52252380D01*
X86071428Y-52252380D01*
X85928571Y-52204761D01*
X85833333Y-52109523D01*
X85785714Y-52014285D01*
X85738095Y-51823809D01*
X85738095Y-51680952D01*
X85785714Y-51490476D01*
X85833333Y-51395238D01*
X85928571Y-51300000D01*
X86071428Y-51252380D01*
X86166666Y-51252380D01*
X86309523Y-51300000D01*
X86357142Y-51347619D01*
X86738095Y-51347619D02*
X86785714Y-51300000D01*
X86880952Y-51252380D01*
X87119047Y-51252380D01*
X87214285Y-51300000D01*
X87261904Y-51347619D01*
X87309523Y-51442857D01*
X87309523Y-51538095D01*
X87261904Y-51680952D01*
X86690476Y-52252380D01*
X87309523Y-52252380D01*
X88261904Y-52252380D02*
X87690476Y-52252380D01*
X87976190Y-52252380D02*
X87976190Y-51252380D01*
X87880952Y-51395238D01*
X87785714Y-51490476D01*
X87690476Y-51538095D01*
%TO.C,C20*%
X90777142Y-67407142D02*
X90729523Y-67454761D01*
X90586666Y-67502380D01*
X90491428Y-67502380D01*
X90348571Y-67454761D01*
X90253333Y-67359523D01*
X90205714Y-67264285D01*
X90158095Y-67073809D01*
X90158095Y-66930952D01*
X90205714Y-66740476D01*
X90253333Y-66645238D01*
X90348571Y-66550000D01*
X90491428Y-66502380D01*
X90586666Y-66502380D01*
X90729523Y-66550000D01*
X90777142Y-66597619D01*
X91158095Y-66597619D02*
X91205714Y-66550000D01*
X91300952Y-66502380D01*
X91539047Y-66502380D01*
X91634285Y-66550000D01*
X91681904Y-66597619D01*
X91729523Y-66692857D01*
X91729523Y-66788095D01*
X91681904Y-66930952D01*
X91110476Y-67502380D01*
X91729523Y-67502380D01*
X92348571Y-66502380D02*
X92443809Y-66502380D01*
X92539047Y-66550000D01*
X92586666Y-66597619D01*
X92634285Y-66692857D01*
X92681904Y-66883333D01*
X92681904Y-67121428D01*
X92634285Y-67311904D01*
X92586666Y-67407142D01*
X92539047Y-67454761D01*
X92443809Y-67502380D01*
X92348571Y-67502380D01*
X92253333Y-67454761D01*
X92205714Y-67407142D01*
X92158095Y-67311904D01*
X92110476Y-67121428D01*
X92110476Y-66883333D01*
X92158095Y-66692857D01*
X92205714Y-66597619D01*
X92253333Y-66550000D01*
X92348571Y-66502380D01*
%TO.C,C18*%
X86557142Y-67657142D02*
X86509523Y-67704761D01*
X86366666Y-67752380D01*
X86271428Y-67752380D01*
X86128571Y-67704761D01*
X86033333Y-67609523D01*
X85985714Y-67514285D01*
X85938095Y-67323809D01*
X85938095Y-67180952D01*
X85985714Y-66990476D01*
X86033333Y-66895238D01*
X86128571Y-66800000D01*
X86271428Y-66752380D01*
X86366666Y-66752380D01*
X86509523Y-66800000D01*
X86557142Y-66847619D01*
X87509523Y-67752380D02*
X86938095Y-67752380D01*
X87223809Y-67752380D02*
X87223809Y-66752380D01*
X87128571Y-66895238D01*
X87033333Y-66990476D01*
X86938095Y-67038095D01*
X88080952Y-67180952D02*
X87985714Y-67133333D01*
X87938095Y-67085714D01*
X87890476Y-66990476D01*
X87890476Y-66942857D01*
X87938095Y-66847619D01*
X87985714Y-66800000D01*
X88080952Y-66752380D01*
X88271428Y-66752380D01*
X88366666Y-66800000D01*
X88414285Y-66847619D01*
X88461904Y-66942857D01*
X88461904Y-66990476D01*
X88414285Y-67085714D01*
X88366666Y-67133333D01*
X88271428Y-67180952D01*
X88080952Y-67180952D01*
X87985714Y-67228571D01*
X87938095Y-67276190D01*
X87890476Y-67371428D01*
X87890476Y-67561904D01*
X87938095Y-67657142D01*
X87985714Y-67704761D01*
X88080952Y-67752380D01*
X88271428Y-67752380D01*
X88366666Y-67704761D01*
X88414285Y-67657142D01*
X88461904Y-67561904D01*
X88461904Y-67371428D01*
X88414285Y-67276190D01*
X88366666Y-67228571D01*
X88271428Y-67180952D01*
%TO.C,C17*%
X79557142Y-62957142D02*
X79509523Y-63004761D01*
X79366666Y-63052380D01*
X79271428Y-63052380D01*
X79128571Y-63004761D01*
X79033333Y-62909523D01*
X78985714Y-62814285D01*
X78938095Y-62623809D01*
X78938095Y-62480952D01*
X78985714Y-62290476D01*
X79033333Y-62195238D01*
X79128571Y-62100000D01*
X79271428Y-62052380D01*
X79366666Y-62052380D01*
X79509523Y-62100000D01*
X79557142Y-62147619D01*
X80509523Y-63052380D02*
X79938095Y-63052380D01*
X80223809Y-63052380D02*
X80223809Y-62052380D01*
X80128571Y-62195238D01*
X80033333Y-62290476D01*
X79938095Y-62338095D01*
X80842857Y-62052380D02*
X81509523Y-62052380D01*
X81080952Y-63052380D01*
%TO.C,C13*%
X93157142Y-63357142D02*
X93109523Y-63404761D01*
X92966666Y-63452380D01*
X92871428Y-63452380D01*
X92728571Y-63404761D01*
X92633333Y-63309523D01*
X92585714Y-63214285D01*
X92538095Y-63023809D01*
X92538095Y-62880952D01*
X92585714Y-62690476D01*
X92633333Y-62595238D01*
X92728571Y-62500000D01*
X92871428Y-62452380D01*
X92966666Y-62452380D01*
X93109523Y-62500000D01*
X93157142Y-62547619D01*
X94109523Y-63452380D02*
X93538095Y-63452380D01*
X93823809Y-63452380D02*
X93823809Y-62452380D01*
X93728571Y-62595238D01*
X93633333Y-62690476D01*
X93538095Y-62738095D01*
X94442857Y-62452380D02*
X95061904Y-62452380D01*
X94728571Y-62833333D01*
X94871428Y-62833333D01*
X94966666Y-62880952D01*
X95014285Y-62928571D01*
X95061904Y-63023809D01*
X95061904Y-63261904D01*
X95014285Y-63357142D01*
X94966666Y-63404761D01*
X94871428Y-63452380D01*
X94585714Y-63452380D01*
X94490476Y-63404761D01*
X94442857Y-63357142D01*
%TO.C,C11*%
X83157142Y-62157142D02*
X83109523Y-62204761D01*
X82966666Y-62252380D01*
X82871428Y-62252380D01*
X82728571Y-62204761D01*
X82633333Y-62109523D01*
X82585714Y-62014285D01*
X82538095Y-61823809D01*
X82538095Y-61680952D01*
X82585714Y-61490476D01*
X82633333Y-61395238D01*
X82728571Y-61300000D01*
X82871428Y-61252380D01*
X82966666Y-61252380D01*
X83109523Y-61300000D01*
X83157142Y-61347619D01*
X84109523Y-62252380D02*
X83538095Y-62252380D01*
X83823809Y-62252380D02*
X83823809Y-61252380D01*
X83728571Y-61395238D01*
X83633333Y-61490476D01*
X83538095Y-61538095D01*
X85061904Y-62252380D02*
X84490476Y-62252380D01*
X84776190Y-62252380D02*
X84776190Y-61252380D01*
X84680952Y-61395238D01*
X84585714Y-61490476D01*
X84490476Y-61538095D01*
%TO.C,R8*%
X105933333Y-109152380D02*
X105600000Y-108676190D01*
X105361904Y-109152380D02*
X105361904Y-108152380D01*
X105742857Y-108152380D01*
X105838095Y-108200000D01*
X105885714Y-108247619D01*
X105933333Y-108342857D01*
X105933333Y-108485714D01*
X105885714Y-108580952D01*
X105838095Y-108628571D01*
X105742857Y-108676190D01*
X105361904Y-108676190D01*
X106504761Y-108580952D02*
X106409523Y-108533333D01*
X106361904Y-108485714D01*
X106314285Y-108390476D01*
X106314285Y-108342857D01*
X106361904Y-108247619D01*
X106409523Y-108200000D01*
X106504761Y-108152380D01*
X106695238Y-108152380D01*
X106790476Y-108200000D01*
X106838095Y-108247619D01*
X106885714Y-108342857D01*
X106885714Y-108390476D01*
X106838095Y-108485714D01*
X106790476Y-108533333D01*
X106695238Y-108580952D01*
X106504761Y-108580952D01*
X106409523Y-108628571D01*
X106361904Y-108676190D01*
X106314285Y-108771428D01*
X106314285Y-108961904D01*
X106361904Y-109057142D01*
X106409523Y-109104761D01*
X106504761Y-109152380D01*
X106695238Y-109152380D01*
X106790476Y-109104761D01*
X106838095Y-109057142D01*
X106885714Y-108961904D01*
X106885714Y-108771428D01*
X106838095Y-108676190D01*
X106790476Y-108628571D01*
X106695238Y-108580952D01*
%TO.C,R6*%
X97703333Y-109152380D02*
X97370000Y-108676190D01*
X97131904Y-109152380D02*
X97131904Y-108152380D01*
X97512857Y-108152380D01*
X97608095Y-108200000D01*
X97655714Y-108247619D01*
X97703333Y-108342857D01*
X97703333Y-108485714D01*
X97655714Y-108580952D01*
X97608095Y-108628571D01*
X97512857Y-108676190D01*
X97131904Y-108676190D01*
X98560476Y-108152380D02*
X98370000Y-108152380D01*
X98274761Y-108200000D01*
X98227142Y-108247619D01*
X98131904Y-108390476D01*
X98084285Y-108580952D01*
X98084285Y-108961904D01*
X98131904Y-109057142D01*
X98179523Y-109104761D01*
X98274761Y-109152380D01*
X98465238Y-109152380D01*
X98560476Y-109104761D01*
X98608095Y-109057142D01*
X98655714Y-108961904D01*
X98655714Y-108723809D01*
X98608095Y-108628571D01*
X98560476Y-108580952D01*
X98465238Y-108533333D01*
X98274761Y-108533333D01*
X98179523Y-108580952D01*
X98131904Y-108628571D01*
X98084285Y-108723809D01*
%TO.C,R4*%
X82033333Y-109152380D02*
X81700000Y-108676190D01*
X81461904Y-109152380D02*
X81461904Y-108152380D01*
X81842857Y-108152380D01*
X81938095Y-108200000D01*
X81985714Y-108247619D01*
X82033333Y-108342857D01*
X82033333Y-108485714D01*
X81985714Y-108580952D01*
X81938095Y-108628571D01*
X81842857Y-108676190D01*
X81461904Y-108676190D01*
X82890476Y-108485714D02*
X82890476Y-109152380D01*
X82652380Y-108104761D02*
X82414285Y-108819047D01*
X83033333Y-108819047D01*
%TO.C,R2*%
X73933333Y-109152380D02*
X73600000Y-108676190D01*
X73361904Y-109152380D02*
X73361904Y-108152380D01*
X73742857Y-108152380D01*
X73838095Y-108200000D01*
X73885714Y-108247619D01*
X73933333Y-108342857D01*
X73933333Y-108485714D01*
X73885714Y-108580952D01*
X73838095Y-108628571D01*
X73742857Y-108676190D01*
X73361904Y-108676190D01*
X74314285Y-108247619D02*
X74361904Y-108200000D01*
X74457142Y-108152380D01*
X74695238Y-108152380D01*
X74790476Y-108200000D01*
X74838095Y-108247619D01*
X74885714Y-108342857D01*
X74885714Y-108438095D01*
X74838095Y-108580952D01*
X74266666Y-109152380D01*
X74885714Y-109152380D01*
%TO.C,PS4*%
X63785714Y-117652380D02*
X63785714Y-116652380D01*
X64166666Y-116652380D01*
X64261904Y-116700000D01*
X64309523Y-116747619D01*
X64357142Y-116842857D01*
X64357142Y-116985714D01*
X64309523Y-117080952D01*
X64261904Y-117128571D01*
X64166666Y-117176190D01*
X63785714Y-117176190D01*
X64738095Y-117604761D02*
X64880952Y-117652380D01*
X65119047Y-117652380D01*
X65214285Y-117604761D01*
X65261904Y-117557142D01*
X65309523Y-117461904D01*
X65309523Y-117366666D01*
X65261904Y-117271428D01*
X65214285Y-117223809D01*
X65119047Y-117176190D01*
X64928571Y-117128571D01*
X64833333Y-117080952D01*
X64785714Y-117033333D01*
X64738095Y-116938095D01*
X64738095Y-116842857D01*
X64785714Y-116747619D01*
X64833333Y-116700000D01*
X64928571Y-116652380D01*
X65166666Y-116652380D01*
X65309523Y-116700000D01*
X66166666Y-116985714D02*
X66166666Y-117652380D01*
X65928571Y-116604761D02*
X65690476Y-117319047D01*
X66309523Y-117319047D01*
%TO.C,FB1*%
X100161251Y-82760236D02*
X99925549Y-82524534D01*
X99555160Y-82894923D02*
X100262267Y-82187816D01*
X100598984Y-82524534D01*
X100767343Y-83366328D02*
X100834687Y-83501015D01*
X100834687Y-83568358D01*
X100801015Y-83669374D01*
X100700000Y-83770389D01*
X100598984Y-83804061D01*
X100531641Y-83804061D01*
X100430625Y-83770389D01*
X100161251Y-83501015D01*
X100868358Y-82793908D01*
X101104061Y-83029610D01*
X101137732Y-83130625D01*
X101137732Y-83197969D01*
X101104061Y-83298984D01*
X101036717Y-83366328D01*
X100935702Y-83399999D01*
X100868358Y-83400000D01*
X100767343Y-83366328D01*
X100531641Y-83130625D01*
X101238748Y-84578511D02*
X100834687Y-84174450D01*
X101036717Y-84376480D02*
X101743824Y-83669374D01*
X101575465Y-83703045D01*
X101440778Y-83703045D01*
X101339763Y-83669374D01*
%TO.C,D9*%
X103161904Y-109152380D02*
X103161904Y-108152380D01*
X103400000Y-108152380D01*
X103542857Y-108200000D01*
X103638095Y-108295238D01*
X103685714Y-108390476D01*
X103733333Y-108580952D01*
X103733333Y-108723809D01*
X103685714Y-108914285D01*
X103638095Y-109009523D01*
X103542857Y-109104761D01*
X103400000Y-109152380D01*
X103161904Y-109152380D01*
X104209523Y-109152380D02*
X104400000Y-109152380D01*
X104495238Y-109104761D01*
X104542857Y-109057142D01*
X104638095Y-108914285D01*
X104685714Y-108723809D01*
X104685714Y-108342857D01*
X104638095Y-108247619D01*
X104590476Y-108200000D01*
X104495238Y-108152380D01*
X104304761Y-108152380D01*
X104209523Y-108200000D01*
X104161904Y-108247619D01*
X104114285Y-108342857D01*
X104114285Y-108580952D01*
X104161904Y-108676190D01*
X104209523Y-108723809D01*
X104304761Y-108771428D01*
X104495238Y-108771428D01*
X104590476Y-108723809D01*
X104638095Y-108676190D01*
X104685714Y-108580952D01*
%TO.C,D8*%
X99161904Y-102452380D02*
X99161904Y-101452380D01*
X99400000Y-101452380D01*
X99542857Y-101500000D01*
X99638095Y-101595238D01*
X99685714Y-101690476D01*
X99733333Y-101880952D01*
X99733333Y-102023809D01*
X99685714Y-102214285D01*
X99638095Y-102309523D01*
X99542857Y-102404761D01*
X99400000Y-102452380D01*
X99161904Y-102452380D01*
X100304761Y-101880952D02*
X100209523Y-101833333D01*
X100161904Y-101785714D01*
X100114285Y-101690476D01*
X100114285Y-101642857D01*
X100161904Y-101547619D01*
X100209523Y-101500000D01*
X100304761Y-101452380D01*
X100495238Y-101452380D01*
X100590476Y-101500000D01*
X100638095Y-101547619D01*
X100685714Y-101642857D01*
X100685714Y-101690476D01*
X100638095Y-101785714D01*
X100590476Y-101833333D01*
X100495238Y-101880952D01*
X100304761Y-101880952D01*
X100209523Y-101928571D01*
X100161904Y-101976190D01*
X100114285Y-102071428D01*
X100114285Y-102261904D01*
X100161904Y-102357142D01*
X100209523Y-102404761D01*
X100304761Y-102452380D01*
X100495238Y-102452380D01*
X100590476Y-102404761D01*
X100638095Y-102357142D01*
X100685714Y-102261904D01*
X100685714Y-102071428D01*
X100638095Y-101976190D01*
X100590476Y-101928571D01*
X100495238Y-101880952D01*
%TO.C,D7*%
X75361904Y-96352380D02*
X75361904Y-95352380D01*
X75600000Y-95352380D01*
X75742857Y-95400000D01*
X75838095Y-95495238D01*
X75885714Y-95590476D01*
X75933333Y-95780952D01*
X75933333Y-95923809D01*
X75885714Y-96114285D01*
X75838095Y-96209523D01*
X75742857Y-96304761D01*
X75600000Y-96352380D01*
X75361904Y-96352380D01*
X76266666Y-95352380D02*
X76933333Y-95352380D01*
X76504761Y-96352380D01*
%TO.C,D6*%
X99461904Y-109052380D02*
X99461904Y-108052380D01*
X99700000Y-108052380D01*
X99842857Y-108100000D01*
X99938095Y-108195238D01*
X99985714Y-108290476D01*
X100033333Y-108480952D01*
X100033333Y-108623809D01*
X99985714Y-108814285D01*
X99938095Y-108909523D01*
X99842857Y-109004761D01*
X99700000Y-109052380D01*
X99461904Y-109052380D01*
X100890476Y-108052380D02*
X100700000Y-108052380D01*
X100604761Y-108100000D01*
X100557142Y-108147619D01*
X100461904Y-108290476D01*
X100414285Y-108480952D01*
X100414285Y-108861904D01*
X100461904Y-108957142D01*
X100509523Y-109004761D01*
X100604761Y-109052380D01*
X100795238Y-109052380D01*
X100890476Y-109004761D01*
X100938095Y-108957142D01*
X100985714Y-108861904D01*
X100985714Y-108623809D01*
X100938095Y-108528571D01*
X100890476Y-108480952D01*
X100795238Y-108433333D01*
X100604761Y-108433333D01*
X100509523Y-108480952D01*
X100461904Y-108528571D01*
X100414285Y-108623809D01*
%TO.C,D5*%
X79361904Y-109152380D02*
X79361904Y-108152380D01*
X79600000Y-108152380D01*
X79742857Y-108200000D01*
X79838095Y-108295238D01*
X79885714Y-108390476D01*
X79933333Y-108580952D01*
X79933333Y-108723809D01*
X79885714Y-108914285D01*
X79838095Y-109009523D01*
X79742857Y-109104761D01*
X79600000Y-109152380D01*
X79361904Y-109152380D01*
X80838095Y-108152380D02*
X80361904Y-108152380D01*
X80314285Y-108628571D01*
X80361904Y-108580952D01*
X80457142Y-108533333D01*
X80695238Y-108533333D01*
X80790476Y-108580952D01*
X80838095Y-108628571D01*
X80885714Y-108723809D01*
X80885714Y-108961904D01*
X80838095Y-109057142D01*
X80790476Y-109104761D01*
X80695238Y-109152380D01*
X80457142Y-109152380D01*
X80361904Y-109104761D01*
X80314285Y-109057142D01*
%TO.C,D4*%
X79561904Y-96377380D02*
X79561904Y-95377380D01*
X79800000Y-95377380D01*
X79942857Y-95425000D01*
X80038095Y-95520238D01*
X80085714Y-95615476D01*
X80133333Y-95805952D01*
X80133333Y-95948809D01*
X80085714Y-96139285D01*
X80038095Y-96234523D01*
X79942857Y-96329761D01*
X79800000Y-96377380D01*
X79561904Y-96377380D01*
X80990476Y-95710714D02*
X80990476Y-96377380D01*
X80752380Y-95329761D02*
X80514285Y-96044047D01*
X81133333Y-96044047D01*
%TO.C,D3*%
X75561904Y-109152380D02*
X75561904Y-108152380D01*
X75800000Y-108152380D01*
X75942857Y-108200000D01*
X76038095Y-108295238D01*
X76085714Y-108390476D01*
X76133333Y-108580952D01*
X76133333Y-108723809D01*
X76085714Y-108914285D01*
X76038095Y-109009523D01*
X75942857Y-109104761D01*
X75800000Y-109152380D01*
X75561904Y-109152380D01*
X76466666Y-108152380D02*
X77085714Y-108152380D01*
X76752380Y-108533333D01*
X76895238Y-108533333D01*
X76990476Y-108580952D01*
X77038095Y-108628571D01*
X77085714Y-108723809D01*
X77085714Y-108961904D01*
X77038095Y-109057142D01*
X76990476Y-109104761D01*
X76895238Y-109152380D01*
X76609523Y-109152380D01*
X76514285Y-109104761D01*
X76466666Y-109057142D01*
%TO.C,BT1*%
X122219285Y-88677571D02*
X122362142Y-88725190D01*
X122409761Y-88772809D01*
X122457380Y-88868047D01*
X122457380Y-89010904D01*
X122409761Y-89106142D01*
X122362142Y-89153761D01*
X122266904Y-89201380D01*
X121885952Y-89201380D01*
X121885952Y-88201380D01*
X122219285Y-88201380D01*
X122314523Y-88249000D01*
X122362142Y-88296619D01*
X122409761Y-88391857D01*
X122409761Y-88487095D01*
X122362142Y-88582333D01*
X122314523Y-88629952D01*
X122219285Y-88677571D01*
X121885952Y-88677571D01*
X122743095Y-88201380D02*
X123314523Y-88201380D01*
X123028809Y-89201380D02*
X123028809Y-88201380D01*
X124171666Y-89201380D02*
X123600238Y-89201380D01*
X123885952Y-89201380D02*
X123885952Y-88201380D01*
X123790714Y-88344238D01*
X123695476Y-88439476D01*
X123600238Y-88487095D01*
D12*
X118933571Y-82701380D02*
X118933571Y-80796619D01*
X119885952Y-81749000D02*
X117981190Y-81749000D01*
%TO.C,U4*%
D11*
X107038095Y-94852380D02*
X107038095Y-95661904D01*
X107085714Y-95757142D01*
X107133333Y-95804761D01*
X107228571Y-95852380D01*
X107419047Y-95852380D01*
X107514285Y-95804761D01*
X107561904Y-95757142D01*
X107609523Y-95661904D01*
X107609523Y-94852380D01*
X108514285Y-95185714D02*
X108514285Y-95852380D01*
X108276190Y-94804761D02*
X108038095Y-95519047D01*
X108657142Y-95519047D01*
%TO.C,R7*%
X97333333Y-102477380D02*
X97000000Y-102001190D01*
X96761904Y-102477380D02*
X96761904Y-101477380D01*
X97142857Y-101477380D01*
X97238095Y-101525000D01*
X97285714Y-101572619D01*
X97333333Y-101667857D01*
X97333333Y-101810714D01*
X97285714Y-101905952D01*
X97238095Y-101953571D01*
X97142857Y-102001190D01*
X96761904Y-102001190D01*
X97666666Y-101477380D02*
X98333333Y-101477380D01*
X97904761Y-102477380D01*
%TO.C,R5*%
X73733333Y-96352380D02*
X73400000Y-95876190D01*
X73161904Y-96352380D02*
X73161904Y-95352380D01*
X73542857Y-95352380D01*
X73638095Y-95400000D01*
X73685714Y-95447619D01*
X73733333Y-95542857D01*
X73733333Y-95685714D01*
X73685714Y-95780952D01*
X73638095Y-95828571D01*
X73542857Y-95876190D01*
X73161904Y-95876190D01*
X74638095Y-95352380D02*
X74161904Y-95352380D01*
X74114285Y-95828571D01*
X74161904Y-95780952D01*
X74257142Y-95733333D01*
X74495238Y-95733333D01*
X74590476Y-95780952D01*
X74638095Y-95828571D01*
X74685714Y-95923809D01*
X74685714Y-96161904D01*
X74638095Y-96257142D01*
X74590476Y-96304761D01*
X74495238Y-96352380D01*
X74257142Y-96352380D01*
X74161904Y-96304761D01*
X74114285Y-96257142D01*
%TO.C,R3*%
X82233333Y-96377380D02*
X81900000Y-95901190D01*
X81661904Y-96377380D02*
X81661904Y-95377380D01*
X82042857Y-95377380D01*
X82138095Y-95425000D01*
X82185714Y-95472619D01*
X82233333Y-95567857D01*
X82233333Y-95710714D01*
X82185714Y-95805952D01*
X82138095Y-95853571D01*
X82042857Y-95901190D01*
X81661904Y-95901190D01*
X82566666Y-95377380D02*
X83185714Y-95377380D01*
X82852380Y-95758333D01*
X82995238Y-95758333D01*
X83090476Y-95805952D01*
X83138095Y-95853571D01*
X83185714Y-95948809D01*
X83185714Y-96186904D01*
X83138095Y-96282142D01*
X83090476Y-96329761D01*
X82995238Y-96377380D01*
X82709523Y-96377380D01*
X82614285Y-96329761D01*
X82566666Y-96282142D01*
%TO.C,C14*%
X92836395Y-85897969D02*
X92769051Y-85897969D01*
X92634364Y-85830625D01*
X92567021Y-85763282D01*
X92499677Y-85628595D01*
X92499677Y-85493908D01*
X92533349Y-85392893D01*
X92634364Y-85224534D01*
X92735379Y-85123519D01*
X92903738Y-85022503D01*
X93004753Y-84988832D01*
X93139440Y-84988832D01*
X93274127Y-85056175D01*
X93341471Y-85123519D01*
X93408814Y-85258206D01*
X93408814Y-85325549D01*
X93442486Y-86638748D02*
X93038425Y-86234687D01*
X93240456Y-86436717D02*
X93947563Y-85729610D01*
X93779204Y-85763282D01*
X93644517Y-85763282D01*
X93543502Y-85729610D01*
X94519982Y-86773435D02*
X94048578Y-87244839D01*
X94620998Y-86335702D02*
X93947563Y-86672419D01*
X94385295Y-87110152D01*
%TO.C,C12*%
X98297969Y-88407106D02*
X98297969Y-88474450D01*
X98230625Y-88609137D01*
X98163282Y-88676480D01*
X98028595Y-88743824D01*
X97893908Y-88743824D01*
X97792893Y-88710152D01*
X97624534Y-88609137D01*
X97523519Y-88508122D01*
X97422503Y-88339763D01*
X97388832Y-88238748D01*
X97388832Y-88104061D01*
X97456175Y-87969374D01*
X97523519Y-87902030D01*
X97658206Y-87834687D01*
X97725549Y-87834687D01*
X99038748Y-87801015D02*
X98634687Y-88205076D01*
X98836717Y-88003045D02*
X98129610Y-87295938D01*
X98163282Y-87464297D01*
X98163282Y-87598984D01*
X98129610Y-87700000D01*
X98668358Y-86891877D02*
X98668358Y-86824534D01*
X98702030Y-86723519D01*
X98870389Y-86555160D01*
X98971404Y-86521488D01*
X99038748Y-86521488D01*
X99139763Y-86555160D01*
X99207106Y-86622503D01*
X99274450Y-86757190D01*
X99274450Y-87565312D01*
X99712183Y-87127580D01*
%TO.C,C10*%
X82826218Y-88578857D02*
X82826218Y-88646201D01*
X82758874Y-88780888D01*
X82691531Y-88848231D01*
X82556844Y-88915575D01*
X82422157Y-88915575D01*
X82321142Y-88881903D01*
X82152783Y-88780888D01*
X82051768Y-88679873D01*
X81950752Y-88511514D01*
X81917081Y-88410499D01*
X81917081Y-88275812D01*
X81984424Y-88141125D01*
X82051768Y-88073781D01*
X82186455Y-88006438D01*
X82253798Y-88006438D01*
X83566997Y-87972766D02*
X83162936Y-88376827D01*
X83364966Y-88174796D02*
X82657859Y-87467689D01*
X82691531Y-87636048D01*
X82691531Y-87770735D01*
X82657859Y-87871751D01*
X83297623Y-86827926D02*
X83364966Y-86760583D01*
X83465981Y-86726911D01*
X83533325Y-86726911D01*
X83634340Y-86760583D01*
X83802699Y-86861598D01*
X83971058Y-87029957D01*
X84072073Y-87198315D01*
X84105745Y-87299331D01*
X84105745Y-87366674D01*
X84072073Y-87467689D01*
X84004729Y-87535033D01*
X83903714Y-87568705D01*
X83836371Y-87568705D01*
X83735355Y-87535033D01*
X83566997Y-87434018D01*
X83398638Y-87265659D01*
X83297623Y-87097300D01*
X83263951Y-86996285D01*
X83263951Y-86928941D01*
X83297623Y-86827926D01*
%TO.C,C9*%
X98929610Y-84234687D02*
X98862267Y-84234687D01*
X98727580Y-84167343D01*
X98660236Y-84100000D01*
X98592893Y-83965312D01*
X98592893Y-83830625D01*
X98626564Y-83729610D01*
X98727580Y-83561251D01*
X98828595Y-83460236D01*
X98996954Y-83359221D01*
X99097969Y-83325549D01*
X99232656Y-83325549D01*
X99367343Y-83392893D01*
X99434687Y-83460236D01*
X99502030Y-83594923D01*
X99502030Y-83662267D01*
X99198984Y-84638748D02*
X99333671Y-84773435D01*
X99434687Y-84807106D01*
X99502030Y-84807106D01*
X99670389Y-84773435D01*
X99838748Y-84672419D01*
X100108122Y-84403045D01*
X100141793Y-84302030D01*
X100141793Y-84234687D01*
X100108122Y-84133671D01*
X99973435Y-83998984D01*
X99872419Y-83965312D01*
X99805076Y-83965312D01*
X99704061Y-83998984D01*
X99535702Y-84167343D01*
X99502030Y-84268358D01*
X99502030Y-84335702D01*
X99535702Y-84436717D01*
X99670389Y-84571404D01*
X99771404Y-84605076D01*
X99838748Y-84605076D01*
X99939763Y-84571404D01*
%TO.C,C8*%
X90429610Y-70734686D02*
X90362267Y-70734686D01*
X90227580Y-70667342D01*
X90160236Y-70599999D01*
X90092893Y-70465311D01*
X90092893Y-70330624D01*
X90126564Y-70229609D01*
X90227580Y-70061250D01*
X90328595Y-69960235D01*
X90496954Y-69859220D01*
X90597969Y-69825548D01*
X90732656Y-69825548D01*
X90867343Y-69892892D01*
X90934687Y-69960235D01*
X91002030Y-70094922D01*
X91002030Y-70162266D01*
X91170389Y-70802029D02*
X91136717Y-70701014D01*
X91136717Y-70633670D01*
X91170389Y-70532655D01*
X91204061Y-70498983D01*
X91305076Y-70465311D01*
X91372419Y-70465311D01*
X91473435Y-70498983D01*
X91608122Y-70633670D01*
X91641793Y-70734686D01*
X91641793Y-70802029D01*
X91608122Y-70903044D01*
X91574450Y-70936716D01*
X91473435Y-70970388D01*
X91406091Y-70970388D01*
X91305076Y-70936716D01*
X91170389Y-70802029D01*
X91069374Y-70768357D01*
X91002030Y-70768357D01*
X90901015Y-70802029D01*
X90766328Y-70936716D01*
X90732656Y-71037731D01*
X90732656Y-71105075D01*
X90766328Y-71206090D01*
X90901015Y-71340777D01*
X91002030Y-71374449D01*
X91069374Y-71374449D01*
X91170389Y-71340777D01*
X91305076Y-71206090D01*
X91338748Y-71105075D01*
X91338748Y-71037731D01*
X91305076Y-70936716D01*
%TO.C,C7*%
X75429610Y-74234687D02*
X75362267Y-74234687D01*
X75227580Y-74167343D01*
X75160236Y-74100000D01*
X75092893Y-73965312D01*
X75092893Y-73830625D01*
X75126564Y-73729610D01*
X75227580Y-73561251D01*
X75328595Y-73460236D01*
X75496954Y-73359221D01*
X75597969Y-73325549D01*
X75732656Y-73325549D01*
X75867343Y-73392893D01*
X75934687Y-73460236D01*
X76002030Y-73594923D01*
X76002030Y-73662267D01*
X76305076Y-73830625D02*
X76776480Y-74302030D01*
X75766328Y-74706091D01*
%TO.C,C6*%
X74029610Y-75534687D02*
X73962267Y-75534687D01*
X73827580Y-75467343D01*
X73760236Y-75400000D01*
X73692893Y-75265312D01*
X73692893Y-75130625D01*
X73726564Y-75029610D01*
X73827580Y-74861251D01*
X73928595Y-74760236D01*
X74096954Y-74659221D01*
X74197969Y-74625549D01*
X74332656Y-74625549D01*
X74467343Y-74692893D01*
X74534687Y-74760236D01*
X74602030Y-74894923D01*
X74602030Y-74962267D01*
X75275465Y-75501015D02*
X75140778Y-75366328D01*
X75039763Y-75332656D01*
X74972419Y-75332656D01*
X74804061Y-75366328D01*
X74635702Y-75467343D01*
X74366328Y-75736717D01*
X74332656Y-75837732D01*
X74332656Y-75905076D01*
X74366328Y-76006091D01*
X74501015Y-76140778D01*
X74602030Y-76174450D01*
X74669374Y-76174450D01*
X74770389Y-76140778D01*
X74938748Y-75972419D01*
X74972419Y-75871404D01*
X74972419Y-75804061D01*
X74938748Y-75703045D01*
X74804061Y-75568358D01*
X74703045Y-75534687D01*
X74635702Y-75534687D01*
X74534687Y-75568358D01*
%TO.C,C5*%
X77134687Y-90870390D02*
X77134687Y-90937733D01*
X77067343Y-91072420D01*
X77000000Y-91139764D01*
X76865312Y-91207107D01*
X76730625Y-91207107D01*
X76629610Y-91173436D01*
X76461251Y-91072420D01*
X76360236Y-90971405D01*
X76259221Y-90803046D01*
X76225549Y-90702031D01*
X76225549Y-90567344D01*
X76292893Y-90432657D01*
X76360236Y-90365313D01*
X76494923Y-90297970D01*
X76562267Y-90297970D01*
X77134687Y-89590863D02*
X76797969Y-89927581D01*
X77101015Y-90297970D01*
X77101015Y-90230626D01*
X77134687Y-90129611D01*
X77303045Y-89961252D01*
X77404061Y-89927581D01*
X77471404Y-89927581D01*
X77572419Y-89961252D01*
X77740778Y-90129611D01*
X77774450Y-90230626D01*
X77774450Y-90297970D01*
X77740778Y-90398985D01*
X77572419Y-90567344D01*
X77471404Y-90601016D01*
X77404061Y-90601016D01*
%TO.C,C4*%
X70213422Y-89194377D02*
X70146079Y-89194377D01*
X70011392Y-89127033D01*
X69944048Y-89059690D01*
X69876705Y-88925002D01*
X69876705Y-88790315D01*
X69910376Y-88689300D01*
X70011392Y-88520941D01*
X70112407Y-88419926D01*
X70280766Y-88318911D01*
X70381781Y-88285239D01*
X70516468Y-88285239D01*
X70651155Y-88352583D01*
X70718499Y-88419926D01*
X70785842Y-88554613D01*
X70785842Y-88621957D01*
X71223575Y-89396407D02*
X70752170Y-89867812D01*
X71324590Y-88958674D02*
X70651155Y-89295392D01*
X71088888Y-89733125D01*
%TO.C,C3*%
X76917549Y-82446748D02*
X76850206Y-82446748D01*
X76715519Y-82379404D01*
X76648175Y-82312061D01*
X76580832Y-82177373D01*
X76580832Y-82042686D01*
X76614503Y-81941671D01*
X76715519Y-81773312D01*
X76816534Y-81672297D01*
X76984893Y-81571282D01*
X77085908Y-81537610D01*
X77220595Y-81537610D01*
X77355282Y-81604954D01*
X77422626Y-81672297D01*
X77489969Y-81806984D01*
X77489969Y-81874328D01*
X77793015Y-82042686D02*
X78230748Y-82480419D01*
X77725671Y-82514091D01*
X77826687Y-82615106D01*
X77860358Y-82716122D01*
X77860358Y-82783465D01*
X77826687Y-82884480D01*
X77658328Y-83052839D01*
X77557313Y-83086511D01*
X77489969Y-83086511D01*
X77388954Y-83052839D01*
X77186923Y-82850809D01*
X77153251Y-82749793D01*
X77153251Y-82682450D01*
%TO.C,F2*%
X65166666Y-55328571D02*
X64833333Y-55328571D01*
X64833333Y-55852380D02*
X64833333Y-54852380D01*
X65309523Y-54852380D01*
X65642857Y-54947619D02*
X65690476Y-54900000D01*
X65785714Y-54852380D01*
X66023809Y-54852380D01*
X66119047Y-54900000D01*
X66166666Y-54947619D01*
X66214285Y-55042857D01*
X66214285Y-55138095D01*
X66166666Y-55280952D01*
X65595238Y-55852380D01*
X66214285Y-55852380D01*
%TO.C,F1*%
X54966666Y-55328571D02*
X54633333Y-55328571D01*
X54633333Y-55852380D02*
X54633333Y-54852380D01*
X55109523Y-54852380D01*
X56014285Y-55852380D02*
X55442857Y-55852380D01*
X55728571Y-55852380D02*
X55728571Y-54852380D01*
X55633333Y-54995238D01*
X55538095Y-55090476D01*
X55442857Y-55138095D01*
%TO.C,JP1*%
X53266666Y-57152380D02*
X53266666Y-57866666D01*
X53219047Y-58009523D01*
X53123809Y-58104761D01*
X52980952Y-58152380D01*
X52885714Y-58152380D01*
X53742857Y-58152380D02*
X53742857Y-57152380D01*
X54123809Y-57152380D01*
X54219047Y-57200000D01*
X54266666Y-57247619D01*
X54314285Y-57342857D01*
X54314285Y-57485714D01*
X54266666Y-57580952D01*
X54219047Y-57628571D01*
X54123809Y-57676190D01*
X53742857Y-57676190D01*
X55266666Y-58152380D02*
X54695238Y-58152380D01*
X54980952Y-58152380D02*
X54980952Y-57152380D01*
X54885714Y-57295238D01*
X54790476Y-57390476D01*
X54695238Y-57438095D01*
%TO.C,R12*%
X109757142Y-41752380D02*
X109423809Y-41276190D01*
X109185714Y-41752380D02*
X109185714Y-40752380D01*
X109566666Y-40752380D01*
X109661904Y-40800000D01*
X109709523Y-40847619D01*
X109757142Y-40942857D01*
X109757142Y-41085714D01*
X109709523Y-41180952D01*
X109661904Y-41228571D01*
X109566666Y-41276190D01*
X109185714Y-41276190D01*
X110709523Y-41752380D02*
X110138095Y-41752380D01*
X110423809Y-41752380D02*
X110423809Y-40752380D01*
X110328571Y-40895238D01*
X110233333Y-40990476D01*
X110138095Y-41038095D01*
X111090476Y-40847619D02*
X111138095Y-40800000D01*
X111233333Y-40752380D01*
X111471428Y-40752380D01*
X111566666Y-40800000D01*
X111614285Y-40847619D01*
X111661904Y-40942857D01*
X111661904Y-41038095D01*
X111614285Y-41180952D01*
X111042857Y-41752380D01*
X111661904Y-41752380D01*
%TO.C,R11*%
X48657142Y-41552380D02*
X48323809Y-41076190D01*
X48085714Y-41552380D02*
X48085714Y-40552380D01*
X48466666Y-40552380D01*
X48561904Y-40600000D01*
X48609523Y-40647619D01*
X48657142Y-40742857D01*
X48657142Y-40885714D01*
X48609523Y-40980952D01*
X48561904Y-41028571D01*
X48466666Y-41076190D01*
X48085714Y-41076190D01*
X49609523Y-41552380D02*
X49038095Y-41552380D01*
X49323809Y-41552380D02*
X49323809Y-40552380D01*
X49228571Y-40695238D01*
X49133333Y-40790476D01*
X49038095Y-40838095D01*
X50561904Y-41552380D02*
X49990476Y-41552380D01*
X50276190Y-41552380D02*
X50276190Y-40552380D01*
X50180952Y-40695238D01*
X50085714Y-40790476D01*
X49990476Y-40838095D01*
%TO.C,R10*%
X68957142Y-41652380D02*
X68623809Y-41176190D01*
X68385714Y-41652380D02*
X68385714Y-40652380D01*
X68766666Y-40652380D01*
X68861904Y-40700000D01*
X68909523Y-40747619D01*
X68957142Y-40842857D01*
X68957142Y-40985714D01*
X68909523Y-41080952D01*
X68861904Y-41128571D01*
X68766666Y-41176190D01*
X68385714Y-41176190D01*
X69909523Y-41652380D02*
X69338095Y-41652380D01*
X69623809Y-41652380D02*
X69623809Y-40652380D01*
X69528571Y-40795238D01*
X69433333Y-40890476D01*
X69338095Y-40938095D01*
X70528571Y-40652380D02*
X70623809Y-40652380D01*
X70719047Y-40700000D01*
X70766666Y-40747619D01*
X70814285Y-40842857D01*
X70861904Y-41033333D01*
X70861904Y-41271428D01*
X70814285Y-41461904D01*
X70766666Y-41557142D01*
X70719047Y-41604761D01*
X70623809Y-41652380D01*
X70528571Y-41652380D01*
X70433333Y-41604761D01*
X70385714Y-41557142D01*
X70338095Y-41461904D01*
X70290476Y-41271428D01*
X70290476Y-41033333D01*
X70338095Y-40842857D01*
X70385714Y-40747619D01*
X70433333Y-40700000D01*
X70528571Y-40652380D01*
%TO.C,D2*%
X61461904Y-55452380D02*
X61461904Y-54452380D01*
X61700000Y-54452380D01*
X61842857Y-54500000D01*
X61938095Y-54595238D01*
X61985714Y-54690476D01*
X62033333Y-54880952D01*
X62033333Y-55023809D01*
X61985714Y-55214285D01*
X61938095Y-55309523D01*
X61842857Y-55404761D01*
X61700000Y-55452380D01*
X61461904Y-55452380D01*
X62414285Y-54547619D02*
X62461904Y-54500000D01*
X62557142Y-54452380D01*
X62795238Y-54452380D01*
X62890476Y-54500000D01*
X62938095Y-54547619D01*
X62985714Y-54642857D01*
X62985714Y-54738095D01*
X62938095Y-54880952D01*
X62366666Y-55452380D01*
X62985714Y-55452380D01*
%TO.C,D1*%
X51161904Y-55502380D02*
X51161904Y-54502380D01*
X51400000Y-54502380D01*
X51542857Y-54550000D01*
X51638095Y-54645238D01*
X51685714Y-54740476D01*
X51733333Y-54930952D01*
X51733333Y-55073809D01*
X51685714Y-55264285D01*
X51638095Y-55359523D01*
X51542857Y-55454761D01*
X51400000Y-55502380D01*
X51161904Y-55502380D01*
X52685714Y-55502380D02*
X52114285Y-55502380D01*
X52400000Y-55502380D02*
X52400000Y-54502380D01*
X52304761Y-54645238D01*
X52209523Y-54740476D01*
X52114285Y-54788095D01*
%TO.C,JP2*%
X115266666Y-74852380D02*
X115266666Y-75566666D01*
X115219047Y-75709523D01*
X115123809Y-75804761D01*
X114980952Y-75852380D01*
X114885714Y-75852380D01*
X115742857Y-75852380D02*
X115742857Y-74852380D01*
X116123809Y-74852380D01*
X116219047Y-74900000D01*
X116266666Y-74947619D01*
X116314285Y-75042857D01*
X116314285Y-75185714D01*
X116266666Y-75280952D01*
X116219047Y-75328571D01*
X116123809Y-75376190D01*
X115742857Y-75376190D01*
X116695238Y-74947619D02*
X116742857Y-74900000D01*
X116838095Y-74852380D01*
X117076190Y-74852380D01*
X117171428Y-74900000D01*
X117219047Y-74947619D01*
X117266666Y-75042857D01*
X117266666Y-75138095D01*
X117219047Y-75280952D01*
X116647619Y-75852380D01*
X117266666Y-75852380D01*
%TO.C,U3*%
X53838095Y-62252380D02*
X53838095Y-63061904D01*
X53885714Y-63157142D01*
X53933333Y-63204761D01*
X54028571Y-63252380D01*
X54219047Y-63252380D01*
X54314285Y-63204761D01*
X54361904Y-63157142D01*
X54409523Y-63061904D01*
X54409523Y-62252380D01*
X54790476Y-62252380D02*
X55409523Y-62252380D01*
X55076190Y-62633333D01*
X55219047Y-62633333D01*
X55314285Y-62680952D01*
X55361904Y-62728571D01*
X55409523Y-62823809D01*
X55409523Y-63061904D01*
X55361904Y-63157142D01*
X55314285Y-63204761D01*
X55219047Y-63252380D01*
X54933333Y-63252380D01*
X54838095Y-63204761D01*
X54790476Y-63157142D01*
%TO.C,U2*%
X108377077Y-76348650D02*
X108949497Y-76921070D01*
X109050512Y-76954742D01*
X109117856Y-76954742D01*
X109218871Y-76921070D01*
X109353558Y-76786383D01*
X109387230Y-76685368D01*
X109387230Y-76618024D01*
X109353558Y-76517009D01*
X108781138Y-75944589D01*
X109151528Y-75708887D02*
X109151528Y-75641544D01*
X109185199Y-75540528D01*
X109353558Y-75372170D01*
X109454573Y-75338498D01*
X109521917Y-75338498D01*
X109622932Y-75372170D01*
X109690276Y-75439513D01*
X109757619Y-75574200D01*
X109757619Y-76382322D01*
X110195352Y-75944589D01*
%TO.C,R1*%
X62133333Y-58212380D02*
X61800000Y-57736190D01*
X61561904Y-58212380D02*
X61561904Y-57212380D01*
X61942857Y-57212380D01*
X62038095Y-57260000D01*
X62085714Y-57307619D01*
X62133333Y-57402857D01*
X62133333Y-57545714D01*
X62085714Y-57640952D01*
X62038095Y-57688571D01*
X61942857Y-57736190D01*
X61561904Y-57736190D01*
X63085714Y-58212380D02*
X62514285Y-58212380D01*
X62800000Y-58212380D02*
X62800000Y-57212380D01*
X62704761Y-57355238D01*
X62609523Y-57450476D01*
X62514285Y-57498095D01*
%TO.C,C2*%
X61233333Y-68357142D02*
X61185714Y-68404761D01*
X61042857Y-68452380D01*
X60947619Y-68452380D01*
X60804761Y-68404761D01*
X60709523Y-68309523D01*
X60661904Y-68214285D01*
X60614285Y-68023809D01*
X60614285Y-67880952D01*
X60661904Y-67690476D01*
X60709523Y-67595238D01*
X60804761Y-67500000D01*
X60947619Y-67452380D01*
X61042857Y-67452380D01*
X61185714Y-67500000D01*
X61233333Y-67547619D01*
X61614285Y-67547619D02*
X61661904Y-67500000D01*
X61757142Y-67452380D01*
X61995238Y-67452380D01*
X62090476Y-67500000D01*
X62138095Y-67547619D01*
X62185714Y-67642857D01*
X62185714Y-67738095D01*
X62138095Y-67880952D01*
X61566666Y-68452380D01*
X62185714Y-68452380D01*
%TO.C,C1*%
X98743333Y-77822142D02*
X98695714Y-77869761D01*
X98552857Y-77917380D01*
X98457619Y-77917380D01*
X98314761Y-77869761D01*
X98219523Y-77774523D01*
X98171904Y-77679285D01*
X98124285Y-77488809D01*
X98124285Y-77345952D01*
X98171904Y-77155476D01*
X98219523Y-77060238D01*
X98314761Y-76965000D01*
X98457619Y-76917380D01*
X98552857Y-76917380D01*
X98695714Y-76965000D01*
X98743333Y-77012619D01*
X99695714Y-77917380D02*
X99124285Y-77917380D01*
X99410000Y-77917380D02*
X99410000Y-76917380D01*
X99314761Y-77060238D01*
X99219523Y-77155476D01*
X99124285Y-77203095D01*
%TD*%
M02*
