%TF.GenerationSoftware,KiCad,Pcbnew,5.1.7-a382d34a8~88~ubuntu20.04.1*%
%TF.CreationDate,2021-05-21T21:27:29+02:00*%
%TF.ProjectId,Shield_Nucleo,53686965-6c64-45f4-9e75-636c656f2e6b,rev?*%
%TF.SameCoordinates,Original*%
%TF.FileFunction,Soldermask,Top*%
%TF.FilePolarity,Negative*%
%FSLAX46Y46*%
G04 Gerber Fmt 4.6, Leading zero omitted, Abs format (unit mm)*
G04 Created by KiCad (PCBNEW 5.1.7-a382d34a8~88~ubuntu20.04.1) date 2021-05-21 21:27:29*
%MOMM*%
%LPD*%
G01*
G04 APERTURE LIST*
%ADD10O,1.800000X1.800000*%
%ADD11O,1.900000X1.500000*%
%ADD12O,1.500000X1.900000*%
%ADD13C,2.100000*%
%ADD14C,3.300000*%
%ADD15O,1.100000X1.100000*%
%ADD16C,1.400000*%
%ADD17C,3.600000*%
%ADD18C,3.100000*%
%ADD19C,6.100000*%
G04 APERTURE END LIST*
D10*
%TO.C,J5*%
X45800000Y-76960000D03*
X45800000Y-74420000D03*
X45800000Y-71880000D03*
X45800000Y-69340000D03*
G36*
G01*
X44900000Y-67650000D02*
X44900000Y-65950000D01*
G75*
G02*
X44950000Y-65900000I50000J0D01*
G01*
X46650000Y-65900000D01*
G75*
G02*
X46700000Y-65950000I0J-50000D01*
G01*
X46700000Y-67650000D01*
G75*
G02*
X46650000Y-67700000I-50000J0D01*
G01*
X44950000Y-67700000D01*
G75*
G02*
X44900000Y-67650000I0J50000D01*
G01*
G37*
%TD*%
%TO.C,J4*%
X45800000Y-62880000D03*
X45800000Y-60340000D03*
G36*
G01*
X44900000Y-58650000D02*
X44900000Y-56950000D01*
G75*
G02*
X44950000Y-56900000I50000J0D01*
G01*
X46650000Y-56900000D01*
G75*
G02*
X46700000Y-56950000I0J-50000D01*
G01*
X46700000Y-58650000D01*
G75*
G02*
X46650000Y-58700000I-50000J0D01*
G01*
X44950000Y-58700000D01*
G75*
G02*
X44900000Y-58650000I0J50000D01*
G01*
G37*
%TD*%
%TO.C,U9*%
G36*
G01*
X103100000Y-62150000D02*
X101300000Y-62150000D01*
G75*
G02*
X101250000Y-62100000I0J50000D01*
G01*
X101250000Y-60700000D01*
G75*
G02*
X101300000Y-60650000I50000J0D01*
G01*
X103100000Y-60650000D01*
G75*
G02*
X103150000Y-60700000I0J-50000D01*
G01*
X103150000Y-62100000D01*
G75*
G02*
X103100000Y-62150000I-50000J0D01*
G01*
G37*
D11*
X102200000Y-58860000D03*
X102200000Y-56320000D03*
X102200000Y-53780000D03*
%TD*%
%TO.C,U8*%
G36*
G01*
X111370000Y-111700000D02*
X111370000Y-109900000D01*
G75*
G02*
X111420000Y-109850000I50000J0D01*
G01*
X112820000Y-109850000D01*
G75*
G02*
X112870000Y-109900000I0J-50000D01*
G01*
X112870000Y-111700000D01*
G75*
G02*
X112820000Y-111750000I-50000J0D01*
G01*
X111420000Y-111750000D01*
G75*
G02*
X111370000Y-111700000I0J50000D01*
G01*
G37*
D12*
X114660000Y-110800000D03*
X117200000Y-110800000D03*
X119740000Y-110800000D03*
%TD*%
D13*
%TO.C,TP33*%
X43590000Y-45000000D03*
%TD*%
%TO.C,TP32*%
X43590000Y-48750000D03*
%TD*%
%TO.C,TP15*%
X69500000Y-59500000D03*
%TD*%
%TO.C,TP14*%
X65400000Y-63000000D03*
%TD*%
%TO.C,TP13*%
X65400000Y-59500000D03*
%TD*%
%TO.C,TP12*%
X103000000Y-71250000D03*
%TD*%
%TO.C,TP8*%
X100250000Y-71250000D03*
%TD*%
%TO.C,TP7*%
X100250000Y-68500000D03*
%TD*%
%TO.C,TP6*%
X103000000Y-68500000D03*
%TD*%
%TO.C,TP5*%
X83300000Y-69250000D03*
%TD*%
%TO.C,TP4*%
X80250000Y-69250000D03*
%TD*%
%TO.C,TP3*%
X112400000Y-77700000D03*
%TD*%
%TO.C,TP2*%
X110800000Y-86000000D03*
%TD*%
%TO.C,TP1*%
X69500000Y-63000000D03*
%TD*%
D14*
%TO.C,J7*%
X133500000Y-104500000D03*
X88500000Y-104500000D03*
X43500000Y-104500000D03*
X63500000Y-71500000D03*
X113500000Y-71500000D03*
X132950000Y-30200000D03*
X44050000Y-30200000D03*
%TD*%
%TO.C,U1*%
G36*
G01*
X80566750Y-79552893D02*
X79541445Y-78527588D01*
G75*
G02*
X79541445Y-78386166I70711J70711D01*
G01*
X79682866Y-78244745D01*
G75*
G02*
X79824288Y-78244745I70711J-70711D01*
G01*
X80849593Y-79270050D01*
G75*
G02*
X80849593Y-79411472I-70711J-70711D01*
G01*
X80708172Y-79552893D01*
G75*
G02*
X80566750Y-79552893I-70711J70711D01*
G01*
G37*
G36*
G01*
X80920303Y-79199340D02*
X79894998Y-78174035D01*
G75*
G02*
X79894998Y-78032613I70711J70711D01*
G01*
X80036419Y-77891192D01*
G75*
G02*
X80177841Y-77891192I70711J-70711D01*
G01*
X81203146Y-78916497D01*
G75*
G02*
X81203146Y-79057919I-70711J-70711D01*
G01*
X81061725Y-79199340D01*
G75*
G02*
X80920303Y-79199340I-70711J70711D01*
G01*
G37*
G36*
G01*
X81273856Y-78845787D02*
X80248551Y-77820482D01*
G75*
G02*
X80248551Y-77679060I70711J70711D01*
G01*
X80389972Y-77537639D01*
G75*
G02*
X80531394Y-77537639I70711J-70711D01*
G01*
X81556699Y-78562944D01*
G75*
G02*
X81556699Y-78704366I-70711J-70711D01*
G01*
X81415278Y-78845787D01*
G75*
G02*
X81273856Y-78845787I-70711J70711D01*
G01*
G37*
G36*
G01*
X81627410Y-78492233D02*
X80602105Y-77466928D01*
G75*
G02*
X80602105Y-77325506I70711J70711D01*
G01*
X80743526Y-77184085D01*
G75*
G02*
X80884948Y-77184085I70711J-70711D01*
G01*
X81910253Y-78209390D01*
G75*
G02*
X81910253Y-78350812I-70711J-70711D01*
G01*
X81768832Y-78492233D01*
G75*
G02*
X81627410Y-78492233I-70711J70711D01*
G01*
G37*
G36*
G01*
X81980963Y-78138680D02*
X80955658Y-77113375D01*
G75*
G02*
X80955658Y-76971953I70711J70711D01*
G01*
X81097079Y-76830532D01*
G75*
G02*
X81238501Y-76830532I70711J-70711D01*
G01*
X82263806Y-77855837D01*
G75*
G02*
X82263806Y-77997259I-70711J-70711D01*
G01*
X82122385Y-78138680D01*
G75*
G02*
X81980963Y-78138680I-70711J70711D01*
G01*
G37*
G36*
G01*
X82334517Y-77785126D02*
X81309212Y-76759821D01*
G75*
G02*
X81309212Y-76618399I70711J70711D01*
G01*
X81450633Y-76476978D01*
G75*
G02*
X81592055Y-76476978I70711J-70711D01*
G01*
X82617360Y-77502283D01*
G75*
G02*
X82617360Y-77643705I-70711J-70711D01*
G01*
X82475939Y-77785126D01*
G75*
G02*
X82334517Y-77785126I-70711J70711D01*
G01*
G37*
G36*
G01*
X82688070Y-77431573D02*
X81662765Y-76406268D01*
G75*
G02*
X81662765Y-76264846I70711J70711D01*
G01*
X81804186Y-76123425D01*
G75*
G02*
X81945608Y-76123425I70711J-70711D01*
G01*
X82970913Y-77148730D01*
G75*
G02*
X82970913Y-77290152I-70711J-70711D01*
G01*
X82829492Y-77431573D01*
G75*
G02*
X82688070Y-77431573I-70711J70711D01*
G01*
G37*
G36*
G01*
X83041623Y-77078020D02*
X82016318Y-76052715D01*
G75*
G02*
X82016318Y-75911293I70711J70711D01*
G01*
X82157739Y-75769872D01*
G75*
G02*
X82299161Y-75769872I70711J-70711D01*
G01*
X83324466Y-76795177D01*
G75*
G02*
X83324466Y-76936599I-70711J-70711D01*
G01*
X83183045Y-77078020D01*
G75*
G02*
X83041623Y-77078020I-70711J70711D01*
G01*
G37*
G36*
G01*
X83395177Y-76724466D02*
X82369872Y-75699161D01*
G75*
G02*
X82369872Y-75557739I70711J70711D01*
G01*
X82511293Y-75416318D01*
G75*
G02*
X82652715Y-75416318I70711J-70711D01*
G01*
X83678020Y-76441623D01*
G75*
G02*
X83678020Y-76583045I-70711J-70711D01*
G01*
X83536599Y-76724466D01*
G75*
G02*
X83395177Y-76724466I-70711J70711D01*
G01*
G37*
G36*
G01*
X83748730Y-76370913D02*
X82723425Y-75345608D01*
G75*
G02*
X82723425Y-75204186I70711J70711D01*
G01*
X82864846Y-75062765D01*
G75*
G02*
X83006268Y-75062765I70711J-70711D01*
G01*
X84031573Y-76088070D01*
G75*
G02*
X84031573Y-76229492I-70711J-70711D01*
G01*
X83890152Y-76370913D01*
G75*
G02*
X83748730Y-76370913I-70711J70711D01*
G01*
G37*
G36*
G01*
X84102283Y-76017360D02*
X83076978Y-74992055D01*
G75*
G02*
X83076978Y-74850633I70711J70711D01*
G01*
X83218399Y-74709212D01*
G75*
G02*
X83359821Y-74709212I70711J-70711D01*
G01*
X84385126Y-75734517D01*
G75*
G02*
X84385126Y-75875939I-70711J-70711D01*
G01*
X84243705Y-76017360D01*
G75*
G02*
X84102283Y-76017360I-70711J70711D01*
G01*
G37*
G36*
G01*
X84455837Y-75663806D02*
X83430532Y-74638501D01*
G75*
G02*
X83430532Y-74497079I70711J70711D01*
G01*
X83571953Y-74355658D01*
G75*
G02*
X83713375Y-74355658I70711J-70711D01*
G01*
X84738680Y-75380963D01*
G75*
G02*
X84738680Y-75522385I-70711J-70711D01*
G01*
X84597259Y-75663806D01*
G75*
G02*
X84455837Y-75663806I-70711J70711D01*
G01*
G37*
G36*
G01*
X84809390Y-75310253D02*
X83784085Y-74284948D01*
G75*
G02*
X83784085Y-74143526I70711J70711D01*
G01*
X83925506Y-74002105D01*
G75*
G02*
X84066928Y-74002105I70711J-70711D01*
G01*
X85092233Y-75027410D01*
G75*
G02*
X85092233Y-75168832I-70711J-70711D01*
G01*
X84950812Y-75310253D01*
G75*
G02*
X84809390Y-75310253I-70711J70711D01*
G01*
G37*
G36*
G01*
X85162944Y-74956699D02*
X84137639Y-73931394D01*
G75*
G02*
X84137639Y-73789972I70711J70711D01*
G01*
X84279060Y-73648551D01*
G75*
G02*
X84420482Y-73648551I70711J-70711D01*
G01*
X85445787Y-74673856D01*
G75*
G02*
X85445787Y-74815278I-70711J-70711D01*
G01*
X85304366Y-74956699D01*
G75*
G02*
X85162944Y-74956699I-70711J70711D01*
G01*
G37*
G36*
G01*
X85516497Y-74603146D02*
X84491192Y-73577841D01*
G75*
G02*
X84491192Y-73436419I70711J70711D01*
G01*
X84632613Y-73294998D01*
G75*
G02*
X84774035Y-73294998I70711J-70711D01*
G01*
X85799340Y-74320303D01*
G75*
G02*
X85799340Y-74461725I-70711J-70711D01*
G01*
X85657919Y-74603146D01*
G75*
G02*
X85516497Y-74603146I-70711J70711D01*
G01*
G37*
G36*
G01*
X85870050Y-74249593D02*
X84844745Y-73224288D01*
G75*
G02*
X84844745Y-73082866I70711J70711D01*
G01*
X84986166Y-72941445D01*
G75*
G02*
X85127588Y-72941445I70711J-70711D01*
G01*
X86152893Y-73966750D01*
G75*
G02*
X86152893Y-74108172I-70711J-70711D01*
G01*
X86011472Y-74249593D01*
G75*
G02*
X85870050Y-74249593I-70711J70711D01*
G01*
G37*
G36*
G01*
X87708528Y-74249593D02*
X87567107Y-74108172D01*
G75*
G02*
X87567107Y-73966750I70711J70711D01*
G01*
X88592412Y-72941445D01*
G75*
G02*
X88733834Y-72941445I70711J-70711D01*
G01*
X88875255Y-73082866D01*
G75*
G02*
X88875255Y-73224288I-70711J-70711D01*
G01*
X87849950Y-74249593D01*
G75*
G02*
X87708528Y-74249593I-70711J70711D01*
G01*
G37*
G36*
G01*
X88062081Y-74603146D02*
X87920660Y-74461725D01*
G75*
G02*
X87920660Y-74320303I70711J70711D01*
G01*
X88945965Y-73294998D01*
G75*
G02*
X89087387Y-73294998I70711J-70711D01*
G01*
X89228808Y-73436419D01*
G75*
G02*
X89228808Y-73577841I-70711J-70711D01*
G01*
X88203503Y-74603146D01*
G75*
G02*
X88062081Y-74603146I-70711J70711D01*
G01*
G37*
G36*
G01*
X88415634Y-74956699D02*
X88274213Y-74815278D01*
G75*
G02*
X88274213Y-74673856I70711J70711D01*
G01*
X89299518Y-73648551D01*
G75*
G02*
X89440940Y-73648551I70711J-70711D01*
G01*
X89582361Y-73789972D01*
G75*
G02*
X89582361Y-73931394I-70711J-70711D01*
G01*
X88557056Y-74956699D01*
G75*
G02*
X88415634Y-74956699I-70711J70711D01*
G01*
G37*
G36*
G01*
X88769188Y-75310253D02*
X88627767Y-75168832D01*
G75*
G02*
X88627767Y-75027410I70711J70711D01*
G01*
X89653072Y-74002105D01*
G75*
G02*
X89794494Y-74002105I70711J-70711D01*
G01*
X89935915Y-74143526D01*
G75*
G02*
X89935915Y-74284948I-70711J-70711D01*
G01*
X88910610Y-75310253D01*
G75*
G02*
X88769188Y-75310253I-70711J70711D01*
G01*
G37*
G36*
G01*
X89122741Y-75663806D02*
X88981320Y-75522385D01*
G75*
G02*
X88981320Y-75380963I70711J70711D01*
G01*
X90006625Y-74355658D01*
G75*
G02*
X90148047Y-74355658I70711J-70711D01*
G01*
X90289468Y-74497079D01*
G75*
G02*
X90289468Y-74638501I-70711J-70711D01*
G01*
X89264163Y-75663806D01*
G75*
G02*
X89122741Y-75663806I-70711J70711D01*
G01*
G37*
G36*
G01*
X89476295Y-76017360D02*
X89334874Y-75875939D01*
G75*
G02*
X89334874Y-75734517I70711J70711D01*
G01*
X90360179Y-74709212D01*
G75*
G02*
X90501601Y-74709212I70711J-70711D01*
G01*
X90643022Y-74850633D01*
G75*
G02*
X90643022Y-74992055I-70711J-70711D01*
G01*
X89617717Y-76017360D01*
G75*
G02*
X89476295Y-76017360I-70711J70711D01*
G01*
G37*
G36*
G01*
X89829848Y-76370913D02*
X89688427Y-76229492D01*
G75*
G02*
X89688427Y-76088070I70711J70711D01*
G01*
X90713732Y-75062765D01*
G75*
G02*
X90855154Y-75062765I70711J-70711D01*
G01*
X90996575Y-75204186D01*
G75*
G02*
X90996575Y-75345608I-70711J-70711D01*
G01*
X89971270Y-76370913D01*
G75*
G02*
X89829848Y-76370913I-70711J70711D01*
G01*
G37*
G36*
G01*
X90183401Y-76724466D02*
X90041980Y-76583045D01*
G75*
G02*
X90041980Y-76441623I70711J70711D01*
G01*
X91067285Y-75416318D01*
G75*
G02*
X91208707Y-75416318I70711J-70711D01*
G01*
X91350128Y-75557739D01*
G75*
G02*
X91350128Y-75699161I-70711J-70711D01*
G01*
X90324823Y-76724466D01*
G75*
G02*
X90183401Y-76724466I-70711J70711D01*
G01*
G37*
G36*
G01*
X90536955Y-77078020D02*
X90395534Y-76936599D01*
G75*
G02*
X90395534Y-76795177I70711J70711D01*
G01*
X91420839Y-75769872D01*
G75*
G02*
X91562261Y-75769872I70711J-70711D01*
G01*
X91703682Y-75911293D01*
G75*
G02*
X91703682Y-76052715I-70711J-70711D01*
G01*
X90678377Y-77078020D01*
G75*
G02*
X90536955Y-77078020I-70711J70711D01*
G01*
G37*
G36*
G01*
X90890508Y-77431573D02*
X90749087Y-77290152D01*
G75*
G02*
X90749087Y-77148730I70711J70711D01*
G01*
X91774392Y-76123425D01*
G75*
G02*
X91915814Y-76123425I70711J-70711D01*
G01*
X92057235Y-76264846D01*
G75*
G02*
X92057235Y-76406268I-70711J-70711D01*
G01*
X91031930Y-77431573D01*
G75*
G02*
X90890508Y-77431573I-70711J70711D01*
G01*
G37*
G36*
G01*
X91244061Y-77785126D02*
X91102640Y-77643705D01*
G75*
G02*
X91102640Y-77502283I70711J70711D01*
G01*
X92127945Y-76476978D01*
G75*
G02*
X92269367Y-76476978I70711J-70711D01*
G01*
X92410788Y-76618399D01*
G75*
G02*
X92410788Y-76759821I-70711J-70711D01*
G01*
X91385483Y-77785126D01*
G75*
G02*
X91244061Y-77785126I-70711J70711D01*
G01*
G37*
G36*
G01*
X91597615Y-78138680D02*
X91456194Y-77997259D01*
G75*
G02*
X91456194Y-77855837I70711J70711D01*
G01*
X92481499Y-76830532D01*
G75*
G02*
X92622921Y-76830532I70711J-70711D01*
G01*
X92764342Y-76971953D01*
G75*
G02*
X92764342Y-77113375I-70711J-70711D01*
G01*
X91739037Y-78138680D01*
G75*
G02*
X91597615Y-78138680I-70711J70711D01*
G01*
G37*
G36*
G01*
X91951168Y-78492233D02*
X91809747Y-78350812D01*
G75*
G02*
X91809747Y-78209390I70711J70711D01*
G01*
X92835052Y-77184085D01*
G75*
G02*
X92976474Y-77184085I70711J-70711D01*
G01*
X93117895Y-77325506D01*
G75*
G02*
X93117895Y-77466928I-70711J-70711D01*
G01*
X92092590Y-78492233D01*
G75*
G02*
X91951168Y-78492233I-70711J70711D01*
G01*
G37*
G36*
G01*
X92304722Y-78845787D02*
X92163301Y-78704366D01*
G75*
G02*
X92163301Y-78562944I70711J70711D01*
G01*
X93188606Y-77537639D01*
G75*
G02*
X93330028Y-77537639I70711J-70711D01*
G01*
X93471449Y-77679060D01*
G75*
G02*
X93471449Y-77820482I-70711J-70711D01*
G01*
X92446144Y-78845787D01*
G75*
G02*
X92304722Y-78845787I-70711J70711D01*
G01*
G37*
G36*
G01*
X92658275Y-79199340D02*
X92516854Y-79057919D01*
G75*
G02*
X92516854Y-78916497I70711J70711D01*
G01*
X93542159Y-77891192D01*
G75*
G02*
X93683581Y-77891192I70711J-70711D01*
G01*
X93825002Y-78032613D01*
G75*
G02*
X93825002Y-78174035I-70711J-70711D01*
G01*
X92799697Y-79199340D01*
G75*
G02*
X92658275Y-79199340I-70711J70711D01*
G01*
G37*
G36*
G01*
X93011828Y-79552893D02*
X92870407Y-79411472D01*
G75*
G02*
X92870407Y-79270050I70711J70711D01*
G01*
X93895712Y-78244745D01*
G75*
G02*
X94037134Y-78244745I70711J-70711D01*
G01*
X94178555Y-78386166D01*
G75*
G02*
X94178555Y-78527588I-70711J-70711D01*
G01*
X93153250Y-79552893D01*
G75*
G02*
X93011828Y-79552893I-70711J70711D01*
G01*
G37*
G36*
G01*
X93895712Y-82275255D02*
X92870407Y-81249950D01*
G75*
G02*
X92870407Y-81108528I70711J70711D01*
G01*
X93011828Y-80967107D01*
G75*
G02*
X93153250Y-80967107I70711J-70711D01*
G01*
X94178555Y-81992412D01*
G75*
G02*
X94178555Y-82133834I-70711J-70711D01*
G01*
X94037134Y-82275255D01*
G75*
G02*
X93895712Y-82275255I-70711J70711D01*
G01*
G37*
G36*
G01*
X93542159Y-82628808D02*
X92516854Y-81603503D01*
G75*
G02*
X92516854Y-81462081I70711J70711D01*
G01*
X92658275Y-81320660D01*
G75*
G02*
X92799697Y-81320660I70711J-70711D01*
G01*
X93825002Y-82345965D01*
G75*
G02*
X93825002Y-82487387I-70711J-70711D01*
G01*
X93683581Y-82628808D01*
G75*
G02*
X93542159Y-82628808I-70711J70711D01*
G01*
G37*
G36*
G01*
X93188606Y-82982361D02*
X92163301Y-81957056D01*
G75*
G02*
X92163301Y-81815634I70711J70711D01*
G01*
X92304722Y-81674213D01*
G75*
G02*
X92446144Y-81674213I70711J-70711D01*
G01*
X93471449Y-82699518D01*
G75*
G02*
X93471449Y-82840940I-70711J-70711D01*
G01*
X93330028Y-82982361D01*
G75*
G02*
X93188606Y-82982361I-70711J70711D01*
G01*
G37*
G36*
G01*
X92835052Y-83335915D02*
X91809747Y-82310610D01*
G75*
G02*
X91809747Y-82169188I70711J70711D01*
G01*
X91951168Y-82027767D01*
G75*
G02*
X92092590Y-82027767I70711J-70711D01*
G01*
X93117895Y-83053072D01*
G75*
G02*
X93117895Y-83194494I-70711J-70711D01*
G01*
X92976474Y-83335915D01*
G75*
G02*
X92835052Y-83335915I-70711J70711D01*
G01*
G37*
G36*
G01*
X92481499Y-83689468D02*
X91456194Y-82664163D01*
G75*
G02*
X91456194Y-82522741I70711J70711D01*
G01*
X91597615Y-82381320D01*
G75*
G02*
X91739037Y-82381320I70711J-70711D01*
G01*
X92764342Y-83406625D01*
G75*
G02*
X92764342Y-83548047I-70711J-70711D01*
G01*
X92622921Y-83689468D01*
G75*
G02*
X92481499Y-83689468I-70711J70711D01*
G01*
G37*
G36*
G01*
X92127945Y-84043022D02*
X91102640Y-83017717D01*
G75*
G02*
X91102640Y-82876295I70711J70711D01*
G01*
X91244061Y-82734874D01*
G75*
G02*
X91385483Y-82734874I70711J-70711D01*
G01*
X92410788Y-83760179D01*
G75*
G02*
X92410788Y-83901601I-70711J-70711D01*
G01*
X92269367Y-84043022D01*
G75*
G02*
X92127945Y-84043022I-70711J70711D01*
G01*
G37*
G36*
G01*
X91774392Y-84396575D02*
X90749087Y-83371270D01*
G75*
G02*
X90749087Y-83229848I70711J70711D01*
G01*
X90890508Y-83088427D01*
G75*
G02*
X91031930Y-83088427I70711J-70711D01*
G01*
X92057235Y-84113732D01*
G75*
G02*
X92057235Y-84255154I-70711J-70711D01*
G01*
X91915814Y-84396575D01*
G75*
G02*
X91774392Y-84396575I-70711J70711D01*
G01*
G37*
G36*
G01*
X91420839Y-84750128D02*
X90395534Y-83724823D01*
G75*
G02*
X90395534Y-83583401I70711J70711D01*
G01*
X90536955Y-83441980D01*
G75*
G02*
X90678377Y-83441980I70711J-70711D01*
G01*
X91703682Y-84467285D01*
G75*
G02*
X91703682Y-84608707I-70711J-70711D01*
G01*
X91562261Y-84750128D01*
G75*
G02*
X91420839Y-84750128I-70711J70711D01*
G01*
G37*
G36*
G01*
X91067285Y-85103682D02*
X90041980Y-84078377D01*
G75*
G02*
X90041980Y-83936955I70711J70711D01*
G01*
X90183401Y-83795534D01*
G75*
G02*
X90324823Y-83795534I70711J-70711D01*
G01*
X91350128Y-84820839D01*
G75*
G02*
X91350128Y-84962261I-70711J-70711D01*
G01*
X91208707Y-85103682D01*
G75*
G02*
X91067285Y-85103682I-70711J70711D01*
G01*
G37*
G36*
G01*
X90713732Y-85457235D02*
X89688427Y-84431930D01*
G75*
G02*
X89688427Y-84290508I70711J70711D01*
G01*
X89829848Y-84149087D01*
G75*
G02*
X89971270Y-84149087I70711J-70711D01*
G01*
X90996575Y-85174392D01*
G75*
G02*
X90996575Y-85315814I-70711J-70711D01*
G01*
X90855154Y-85457235D01*
G75*
G02*
X90713732Y-85457235I-70711J70711D01*
G01*
G37*
G36*
G01*
X90360179Y-85810788D02*
X89334874Y-84785483D01*
G75*
G02*
X89334874Y-84644061I70711J70711D01*
G01*
X89476295Y-84502640D01*
G75*
G02*
X89617717Y-84502640I70711J-70711D01*
G01*
X90643022Y-85527945D01*
G75*
G02*
X90643022Y-85669367I-70711J-70711D01*
G01*
X90501601Y-85810788D01*
G75*
G02*
X90360179Y-85810788I-70711J70711D01*
G01*
G37*
G36*
G01*
X90006625Y-86164342D02*
X88981320Y-85139037D01*
G75*
G02*
X88981320Y-84997615I70711J70711D01*
G01*
X89122741Y-84856194D01*
G75*
G02*
X89264163Y-84856194I70711J-70711D01*
G01*
X90289468Y-85881499D01*
G75*
G02*
X90289468Y-86022921I-70711J-70711D01*
G01*
X90148047Y-86164342D01*
G75*
G02*
X90006625Y-86164342I-70711J70711D01*
G01*
G37*
G36*
G01*
X89653072Y-86517895D02*
X88627767Y-85492590D01*
G75*
G02*
X88627767Y-85351168I70711J70711D01*
G01*
X88769188Y-85209747D01*
G75*
G02*
X88910610Y-85209747I70711J-70711D01*
G01*
X89935915Y-86235052D01*
G75*
G02*
X89935915Y-86376474I-70711J-70711D01*
G01*
X89794494Y-86517895D01*
G75*
G02*
X89653072Y-86517895I-70711J70711D01*
G01*
G37*
G36*
G01*
X89299518Y-86871449D02*
X88274213Y-85846144D01*
G75*
G02*
X88274213Y-85704722I70711J70711D01*
G01*
X88415634Y-85563301D01*
G75*
G02*
X88557056Y-85563301I70711J-70711D01*
G01*
X89582361Y-86588606D01*
G75*
G02*
X89582361Y-86730028I-70711J-70711D01*
G01*
X89440940Y-86871449D01*
G75*
G02*
X89299518Y-86871449I-70711J70711D01*
G01*
G37*
G36*
G01*
X88945965Y-87225002D02*
X87920660Y-86199697D01*
G75*
G02*
X87920660Y-86058275I70711J70711D01*
G01*
X88062081Y-85916854D01*
G75*
G02*
X88203503Y-85916854I70711J-70711D01*
G01*
X89228808Y-86942159D01*
G75*
G02*
X89228808Y-87083581I-70711J-70711D01*
G01*
X89087387Y-87225002D01*
G75*
G02*
X88945965Y-87225002I-70711J70711D01*
G01*
G37*
G36*
G01*
X88592412Y-87578555D02*
X87567107Y-86553250D01*
G75*
G02*
X87567107Y-86411828I70711J70711D01*
G01*
X87708528Y-86270407D01*
G75*
G02*
X87849950Y-86270407I70711J-70711D01*
G01*
X88875255Y-87295712D01*
G75*
G02*
X88875255Y-87437134I-70711J-70711D01*
G01*
X88733834Y-87578555D01*
G75*
G02*
X88592412Y-87578555I-70711J70711D01*
G01*
G37*
G36*
G01*
X84986166Y-87578555D02*
X84844745Y-87437134D01*
G75*
G02*
X84844745Y-87295712I70711J70711D01*
G01*
X85870050Y-86270407D01*
G75*
G02*
X86011472Y-86270407I70711J-70711D01*
G01*
X86152893Y-86411828D01*
G75*
G02*
X86152893Y-86553250I-70711J-70711D01*
G01*
X85127588Y-87578555D01*
G75*
G02*
X84986166Y-87578555I-70711J70711D01*
G01*
G37*
G36*
G01*
X84632613Y-87225002D02*
X84491192Y-87083581D01*
G75*
G02*
X84491192Y-86942159I70711J70711D01*
G01*
X85516497Y-85916854D01*
G75*
G02*
X85657919Y-85916854I70711J-70711D01*
G01*
X85799340Y-86058275D01*
G75*
G02*
X85799340Y-86199697I-70711J-70711D01*
G01*
X84774035Y-87225002D01*
G75*
G02*
X84632613Y-87225002I-70711J70711D01*
G01*
G37*
G36*
G01*
X84279060Y-86871449D02*
X84137639Y-86730028D01*
G75*
G02*
X84137639Y-86588606I70711J70711D01*
G01*
X85162944Y-85563301D01*
G75*
G02*
X85304366Y-85563301I70711J-70711D01*
G01*
X85445787Y-85704722D01*
G75*
G02*
X85445787Y-85846144I-70711J-70711D01*
G01*
X84420482Y-86871449D01*
G75*
G02*
X84279060Y-86871449I-70711J70711D01*
G01*
G37*
G36*
G01*
X83925506Y-86517895D02*
X83784085Y-86376474D01*
G75*
G02*
X83784085Y-86235052I70711J70711D01*
G01*
X84809390Y-85209747D01*
G75*
G02*
X84950812Y-85209747I70711J-70711D01*
G01*
X85092233Y-85351168D01*
G75*
G02*
X85092233Y-85492590I-70711J-70711D01*
G01*
X84066928Y-86517895D01*
G75*
G02*
X83925506Y-86517895I-70711J70711D01*
G01*
G37*
G36*
G01*
X83571953Y-86164342D02*
X83430532Y-86022921D01*
G75*
G02*
X83430532Y-85881499I70711J70711D01*
G01*
X84455837Y-84856194D01*
G75*
G02*
X84597259Y-84856194I70711J-70711D01*
G01*
X84738680Y-84997615D01*
G75*
G02*
X84738680Y-85139037I-70711J-70711D01*
G01*
X83713375Y-86164342D01*
G75*
G02*
X83571953Y-86164342I-70711J70711D01*
G01*
G37*
G36*
G01*
X83218399Y-85810788D02*
X83076978Y-85669367D01*
G75*
G02*
X83076978Y-85527945I70711J70711D01*
G01*
X84102283Y-84502640D01*
G75*
G02*
X84243705Y-84502640I70711J-70711D01*
G01*
X84385126Y-84644061D01*
G75*
G02*
X84385126Y-84785483I-70711J-70711D01*
G01*
X83359821Y-85810788D01*
G75*
G02*
X83218399Y-85810788I-70711J70711D01*
G01*
G37*
G36*
G01*
X82864846Y-85457235D02*
X82723425Y-85315814D01*
G75*
G02*
X82723425Y-85174392I70711J70711D01*
G01*
X83748730Y-84149087D01*
G75*
G02*
X83890152Y-84149087I70711J-70711D01*
G01*
X84031573Y-84290508D01*
G75*
G02*
X84031573Y-84431930I-70711J-70711D01*
G01*
X83006268Y-85457235D01*
G75*
G02*
X82864846Y-85457235I-70711J70711D01*
G01*
G37*
G36*
G01*
X82511293Y-85103682D02*
X82369872Y-84962261D01*
G75*
G02*
X82369872Y-84820839I70711J70711D01*
G01*
X83395177Y-83795534D01*
G75*
G02*
X83536599Y-83795534I70711J-70711D01*
G01*
X83678020Y-83936955D01*
G75*
G02*
X83678020Y-84078377I-70711J-70711D01*
G01*
X82652715Y-85103682D01*
G75*
G02*
X82511293Y-85103682I-70711J70711D01*
G01*
G37*
G36*
G01*
X82157739Y-84750128D02*
X82016318Y-84608707D01*
G75*
G02*
X82016318Y-84467285I70711J70711D01*
G01*
X83041623Y-83441980D01*
G75*
G02*
X83183045Y-83441980I70711J-70711D01*
G01*
X83324466Y-83583401D01*
G75*
G02*
X83324466Y-83724823I-70711J-70711D01*
G01*
X82299161Y-84750128D01*
G75*
G02*
X82157739Y-84750128I-70711J70711D01*
G01*
G37*
G36*
G01*
X81804186Y-84396575D02*
X81662765Y-84255154D01*
G75*
G02*
X81662765Y-84113732I70711J70711D01*
G01*
X82688070Y-83088427D01*
G75*
G02*
X82829492Y-83088427I70711J-70711D01*
G01*
X82970913Y-83229848D01*
G75*
G02*
X82970913Y-83371270I-70711J-70711D01*
G01*
X81945608Y-84396575D01*
G75*
G02*
X81804186Y-84396575I-70711J70711D01*
G01*
G37*
G36*
G01*
X81450633Y-84043022D02*
X81309212Y-83901601D01*
G75*
G02*
X81309212Y-83760179I70711J70711D01*
G01*
X82334517Y-82734874D01*
G75*
G02*
X82475939Y-82734874I70711J-70711D01*
G01*
X82617360Y-82876295D01*
G75*
G02*
X82617360Y-83017717I-70711J-70711D01*
G01*
X81592055Y-84043022D01*
G75*
G02*
X81450633Y-84043022I-70711J70711D01*
G01*
G37*
G36*
G01*
X81097079Y-83689468D02*
X80955658Y-83548047D01*
G75*
G02*
X80955658Y-83406625I70711J70711D01*
G01*
X81980963Y-82381320D01*
G75*
G02*
X82122385Y-82381320I70711J-70711D01*
G01*
X82263806Y-82522741D01*
G75*
G02*
X82263806Y-82664163I-70711J-70711D01*
G01*
X81238501Y-83689468D01*
G75*
G02*
X81097079Y-83689468I-70711J70711D01*
G01*
G37*
G36*
G01*
X80743526Y-83335915D02*
X80602105Y-83194494D01*
G75*
G02*
X80602105Y-83053072I70711J70711D01*
G01*
X81627410Y-82027767D01*
G75*
G02*
X81768832Y-82027767I70711J-70711D01*
G01*
X81910253Y-82169188D01*
G75*
G02*
X81910253Y-82310610I-70711J-70711D01*
G01*
X80884948Y-83335915D01*
G75*
G02*
X80743526Y-83335915I-70711J70711D01*
G01*
G37*
G36*
G01*
X80389972Y-82982361D02*
X80248551Y-82840940D01*
G75*
G02*
X80248551Y-82699518I70711J70711D01*
G01*
X81273856Y-81674213D01*
G75*
G02*
X81415278Y-81674213I70711J-70711D01*
G01*
X81556699Y-81815634D01*
G75*
G02*
X81556699Y-81957056I-70711J-70711D01*
G01*
X80531394Y-82982361D01*
G75*
G02*
X80389972Y-82982361I-70711J70711D01*
G01*
G37*
G36*
G01*
X80036419Y-82628808D02*
X79894998Y-82487387D01*
G75*
G02*
X79894998Y-82345965I70711J70711D01*
G01*
X80920303Y-81320660D01*
G75*
G02*
X81061725Y-81320660I70711J-70711D01*
G01*
X81203146Y-81462081D01*
G75*
G02*
X81203146Y-81603503I-70711J-70711D01*
G01*
X80177841Y-82628808D01*
G75*
G02*
X80036419Y-82628808I-70711J70711D01*
G01*
G37*
G36*
G01*
X79682866Y-82275255D02*
X79541445Y-82133834D01*
G75*
G02*
X79541445Y-81992412I70711J70711D01*
G01*
X80566750Y-80967107D01*
G75*
G02*
X80708172Y-80967107I70711J-70711D01*
G01*
X80849593Y-81108528D01*
G75*
G02*
X80849593Y-81249950I-70711J-70711D01*
G01*
X79824288Y-82275255D01*
G75*
G02*
X79682866Y-82275255I-70711J70711D01*
G01*
G37*
%TD*%
%TO.C,R23*%
G36*
G01*
X76183796Y-87888820D02*
X75511180Y-87216204D01*
G75*
G02*
X75511180Y-86828160I194022J194022D01*
G01*
X75918630Y-86420710D01*
G75*
G02*
X76306674Y-86420710I194022J-194022D01*
G01*
X76979290Y-87093326D01*
G75*
G02*
X76979290Y-87481370I-194022J-194022D01*
G01*
X76571840Y-87888820D01*
G75*
G02*
X76183796Y-87888820I-194022J194022D01*
G01*
G37*
G36*
G01*
X74893326Y-89179290D02*
X74220710Y-88506674D01*
G75*
G02*
X74220710Y-88118630I194022J194022D01*
G01*
X74628160Y-87711180D01*
G75*
G02*
X75016204Y-87711180I194022J-194022D01*
G01*
X75688820Y-88383796D01*
G75*
G02*
X75688820Y-88771840I-194022J-194022D01*
G01*
X75281370Y-89179290D01*
G75*
G02*
X74893326Y-89179290I-194022J194022D01*
G01*
G37*
%TD*%
%TO.C,R28*%
G36*
G01*
X94629031Y-90143585D02*
X93956415Y-89470969D01*
G75*
G02*
X93956415Y-89082925I194022J194022D01*
G01*
X94363865Y-88675475D01*
G75*
G02*
X94751909Y-88675475I194022J-194022D01*
G01*
X95424525Y-89348091D01*
G75*
G02*
X95424525Y-89736135I-194022J-194022D01*
G01*
X95017075Y-90143585D01*
G75*
G02*
X94629031Y-90143585I-194022J194022D01*
G01*
G37*
G36*
G01*
X93338561Y-91434055D02*
X92665945Y-90761439D01*
G75*
G02*
X92665945Y-90373395I194022J194022D01*
G01*
X93073395Y-89965945D01*
G75*
G02*
X93461439Y-89965945I194022J-194022D01*
G01*
X94134055Y-90638561D01*
G75*
G02*
X94134055Y-91026605I-194022J-194022D01*
G01*
X93726605Y-91434055D01*
G75*
G02*
X93338561Y-91434055I-194022J194022D01*
G01*
G37*
%TD*%
%TO.C,LED1*%
G36*
G01*
X91457452Y-88076862D02*
X90776862Y-88757452D01*
G75*
G02*
X90396792Y-88757452I-190035J190035D01*
G01*
X90016722Y-88377382D01*
G75*
G02*
X90016722Y-87997312I190035J190035D01*
G01*
X90697312Y-87316722D01*
G75*
G02*
X91077382Y-87316722I190035J-190035D01*
G01*
X91457452Y-87696792D01*
G75*
G02*
X91457452Y-88076862I-190035J-190035D01*
G01*
G37*
G36*
G01*
X92783278Y-89402688D02*
X92102688Y-90083278D01*
G75*
G02*
X91722618Y-90083278I-190035J190035D01*
G01*
X91342548Y-89703208D01*
G75*
G02*
X91342548Y-89323138I190035J190035D01*
G01*
X92023138Y-88642548D01*
G75*
G02*
X92403208Y-88642548I190035J-190035D01*
G01*
X92783278Y-89022618D01*
G75*
G02*
X92783278Y-89402688I-190035J-190035D01*
G01*
G37*
%TD*%
%TO.C,R27*%
G36*
G01*
X88275611Y-93650000D02*
X87324389Y-93650000D01*
G75*
G02*
X87050000Y-93375611I0J274389D01*
G01*
X87050000Y-92799389D01*
G75*
G02*
X87324389Y-92525000I274389J0D01*
G01*
X88275611Y-92525000D01*
G75*
G02*
X88550000Y-92799389I0J-274389D01*
G01*
X88550000Y-93375611D01*
G75*
G02*
X88275611Y-93650000I-274389J0D01*
G01*
G37*
G36*
G01*
X88275611Y-95475000D02*
X87324389Y-95475000D01*
G75*
G02*
X87050000Y-95200611I0J274389D01*
G01*
X87050000Y-94624389D01*
G75*
G02*
X87324389Y-94350000I274389J0D01*
G01*
X88275611Y-94350000D01*
G75*
G02*
X88550000Y-94624389I0J-274389D01*
G01*
X88550000Y-95200611D01*
G75*
G02*
X88275611Y-95475000I-274389J0D01*
G01*
G37*
%TD*%
%TO.C,R26*%
G36*
G01*
X88275611Y-96837500D02*
X87324389Y-96837500D01*
G75*
G02*
X87050000Y-96563111I0J274389D01*
G01*
X87050000Y-95986889D01*
G75*
G02*
X87324389Y-95712500I274389J0D01*
G01*
X88275611Y-95712500D01*
G75*
G02*
X88550000Y-95986889I0J-274389D01*
G01*
X88550000Y-96563111D01*
G75*
G02*
X88275611Y-96837500I-274389J0D01*
G01*
G37*
G36*
G01*
X88275611Y-98662500D02*
X87324389Y-98662500D01*
G75*
G02*
X87050000Y-98388111I0J274389D01*
G01*
X87050000Y-97811889D01*
G75*
G02*
X87324389Y-97537500I274389J0D01*
G01*
X88275611Y-97537500D01*
G75*
G02*
X88550000Y-97811889I0J-274389D01*
G01*
X88550000Y-98388111D01*
G75*
G02*
X88275611Y-98662500I-274389J0D01*
G01*
G37*
%TD*%
%TO.C,JP4*%
G36*
G01*
X89550000Y-96150000D02*
X91050000Y-96150000D01*
G75*
G02*
X91100000Y-96200000I0J-50000D01*
G01*
X91100000Y-97200000D01*
G75*
G02*
X91050000Y-97250000I-50000J0D01*
G01*
X89550000Y-97250000D01*
G75*
G02*
X89500000Y-97200000I0J50000D01*
G01*
X89500000Y-96200000D01*
G75*
G02*
X89550000Y-96150000I50000J0D01*
G01*
G37*
G36*
G01*
X89550000Y-97450000D02*
X91050000Y-97450000D01*
G75*
G02*
X91100000Y-97500000I0J-50000D01*
G01*
X91100000Y-98500000D01*
G75*
G02*
X91050000Y-98550000I-50000J0D01*
G01*
X89550000Y-98550000D01*
G75*
G02*
X89500000Y-98500000I0J50000D01*
G01*
X89500000Y-97500000D01*
G75*
G02*
X89550000Y-97450000I50000J0D01*
G01*
G37*
%TD*%
%TO.C,JP3*%
G36*
G01*
X89550000Y-92700000D02*
X91050000Y-92700000D01*
G75*
G02*
X91100000Y-92750000I0J-50000D01*
G01*
X91100000Y-93750000D01*
G75*
G02*
X91050000Y-93800000I-50000J0D01*
G01*
X89550000Y-93800000D01*
G75*
G02*
X89500000Y-93750000I0J50000D01*
G01*
X89500000Y-92750000D01*
G75*
G02*
X89550000Y-92700000I50000J0D01*
G01*
G37*
G36*
G01*
X89550000Y-94000000D02*
X91050000Y-94000000D01*
G75*
G02*
X91100000Y-94050000I0J-50000D01*
G01*
X91100000Y-95050000D01*
G75*
G02*
X91050000Y-95100000I-50000J0D01*
G01*
X89550000Y-95100000D01*
G75*
G02*
X89500000Y-95050000I0J50000D01*
G01*
X89500000Y-94050000D01*
G75*
G02*
X89550000Y-94000000I50000J0D01*
G01*
G37*
%TD*%
%TO.C,C40*%
G36*
G01*
X102328262Y-91075000D02*
X100071738Y-91075000D01*
G75*
G02*
X99800000Y-90803262I0J271738D01*
G01*
X99800000Y-90096738D01*
G75*
G02*
X100071738Y-89825000I271738J0D01*
G01*
X102328262Y-89825000D01*
G75*
G02*
X102600000Y-90096738I0J-271738D01*
G01*
X102600000Y-90803262D01*
G75*
G02*
X102328262Y-91075000I-271738J0D01*
G01*
G37*
G36*
G01*
X102328262Y-94025000D02*
X100071738Y-94025000D01*
G75*
G02*
X99800000Y-93753262I0J271738D01*
G01*
X99800000Y-93046738D01*
G75*
G02*
X100071738Y-92775000I271738J0D01*
G01*
X102328262Y-92775000D01*
G75*
G02*
X102600000Y-93046738I0J-271738D01*
G01*
X102600000Y-93753262D01*
G75*
G02*
X102328262Y-94025000I-271738J0D01*
G01*
G37*
%TD*%
%TO.C,C39*%
G36*
G01*
X105975000Y-84471738D02*
X105975000Y-86728262D01*
G75*
G02*
X105703262Y-87000000I-271738J0D01*
G01*
X104996738Y-87000000D01*
G75*
G02*
X104725000Y-86728262I0J271738D01*
G01*
X104725000Y-84471738D01*
G75*
G02*
X104996738Y-84200000I271738J0D01*
G01*
X105703262Y-84200000D01*
G75*
G02*
X105975000Y-84471738I0J-271738D01*
G01*
G37*
G36*
G01*
X108925000Y-84471738D02*
X108925000Y-86728262D01*
G75*
G02*
X108653262Y-87000000I-271738J0D01*
G01*
X107946738Y-87000000D01*
G75*
G02*
X107675000Y-86728262I0J271738D01*
G01*
X107675000Y-84471738D01*
G75*
G02*
X107946738Y-84200000I271738J0D01*
G01*
X108653262Y-84200000D01*
G75*
G02*
X108925000Y-84471738I0J-271738D01*
G01*
G37*
%TD*%
%TO.C,C38*%
G36*
G01*
X104471738Y-61325000D02*
X106728262Y-61325000D01*
G75*
G02*
X107000000Y-61596738I0J-271738D01*
G01*
X107000000Y-62303262D01*
G75*
G02*
X106728262Y-62575000I-271738J0D01*
G01*
X104471738Y-62575000D01*
G75*
G02*
X104200000Y-62303262I0J271738D01*
G01*
X104200000Y-61596738D01*
G75*
G02*
X104471738Y-61325000I271738J0D01*
G01*
G37*
G36*
G01*
X104471738Y-58375000D02*
X106728262Y-58375000D01*
G75*
G02*
X107000000Y-58646738I0J-271738D01*
G01*
X107000000Y-59353262D01*
G75*
G02*
X106728262Y-59625000I-271738J0D01*
G01*
X104471738Y-59625000D01*
G75*
G02*
X104200000Y-59353262I0J271738D01*
G01*
X104200000Y-58646738D01*
G75*
G02*
X104471738Y-58375000I271738J0D01*
G01*
G37*
%TD*%
%TO.C,C37*%
G36*
G01*
X112350000Y-112671738D02*
X112350000Y-114928262D01*
G75*
G02*
X112078262Y-115200000I-271738J0D01*
G01*
X111371738Y-115200000D01*
G75*
G02*
X111100000Y-114928262I0J271738D01*
G01*
X111100000Y-112671738D01*
G75*
G02*
X111371738Y-112400000I271738J0D01*
G01*
X112078262Y-112400000D01*
G75*
G02*
X112350000Y-112671738I0J-271738D01*
G01*
G37*
G36*
G01*
X115300000Y-112671738D02*
X115300000Y-114928262D01*
G75*
G02*
X115028262Y-115200000I-271738J0D01*
G01*
X114321738Y-115200000D01*
G75*
G02*
X114050000Y-114928262I0J271738D01*
G01*
X114050000Y-112671738D01*
G75*
G02*
X114321738Y-112400000I271738J0D01*
G01*
X115028262Y-112400000D01*
G75*
G02*
X115300000Y-112671738I0J-271738D01*
G01*
G37*
%TD*%
%TO.C,C36*%
G36*
G01*
X104471738Y-55250000D02*
X106728262Y-55250000D01*
G75*
G02*
X107000000Y-55521738I0J-271738D01*
G01*
X107000000Y-56228262D01*
G75*
G02*
X106728262Y-56500000I-271738J0D01*
G01*
X104471738Y-56500000D01*
G75*
G02*
X104200000Y-56228262I0J271738D01*
G01*
X104200000Y-55521738D01*
G75*
G02*
X104471738Y-55250000I271738J0D01*
G01*
G37*
G36*
G01*
X104471738Y-52300000D02*
X106728262Y-52300000D01*
G75*
G02*
X107000000Y-52571738I0J-271738D01*
G01*
X107000000Y-53278262D01*
G75*
G02*
X106728262Y-53550000I-271738J0D01*
G01*
X104471738Y-53550000D01*
G75*
G02*
X104200000Y-53278262I0J271738D01*
G01*
X104200000Y-52571738D01*
G75*
G02*
X104471738Y-52300000I271738J0D01*
G01*
G37*
%TD*%
%TO.C,C35*%
G36*
G01*
X117450000Y-102871738D02*
X117450000Y-105128262D01*
G75*
G02*
X117178262Y-105400000I-271738J0D01*
G01*
X116471738Y-105400000D01*
G75*
G02*
X116200000Y-105128262I0J271738D01*
G01*
X116200000Y-102871738D01*
G75*
G02*
X116471738Y-102600000I271738J0D01*
G01*
X117178262Y-102600000D01*
G75*
G02*
X117450000Y-102871738I0J-271738D01*
G01*
G37*
G36*
G01*
X120400000Y-102871738D02*
X120400000Y-105128262D01*
G75*
G02*
X120128262Y-105400000I-271738J0D01*
G01*
X119421738Y-105400000D01*
G75*
G02*
X119150000Y-105128262I0J271738D01*
G01*
X119150000Y-102871738D01*
G75*
G02*
X119421738Y-102600000I271738J0D01*
G01*
X120128262Y-102600000D01*
G75*
G02*
X120400000Y-102871738I0J-271738D01*
G01*
G37*
%TD*%
%TO.C,C29*%
G36*
G01*
X80625000Y-122036843D02*
X80625000Y-120563157D01*
G75*
G02*
X80888157Y-120300000I263157J0D01*
G01*
X84611843Y-120300000D01*
G75*
G02*
X84875000Y-120563157I0J-263157D01*
G01*
X84875000Y-122036843D01*
G75*
G02*
X84611843Y-122300000I-263157J0D01*
G01*
X80888157Y-122300000D01*
G75*
G02*
X80625000Y-122036843I0J263157D01*
G01*
G37*
G36*
G01*
X73675000Y-122036843D02*
X73675000Y-120563157D01*
G75*
G02*
X73938157Y-120300000I263157J0D01*
G01*
X77661843Y-120300000D01*
G75*
G02*
X77925000Y-120563157I0J-263157D01*
G01*
X77925000Y-122036843D01*
G75*
G02*
X77661843Y-122300000I-263157J0D01*
G01*
X73938157Y-122300000D01*
G75*
G02*
X73675000Y-122036843I0J263157D01*
G01*
G37*
%TD*%
%TO.C,C19*%
G36*
G01*
X67675000Y-97271738D02*
X67675000Y-99528262D01*
G75*
G02*
X67403262Y-99800000I-271738J0D01*
G01*
X66696738Y-99800000D01*
G75*
G02*
X66425000Y-99528262I0J271738D01*
G01*
X66425000Y-97271738D01*
G75*
G02*
X66696738Y-97000000I271738J0D01*
G01*
X67403262Y-97000000D01*
G75*
G02*
X67675000Y-97271738I0J-271738D01*
G01*
G37*
G36*
G01*
X70625000Y-97271738D02*
X70625000Y-99528262D01*
G75*
G02*
X70353262Y-99800000I-271738J0D01*
G01*
X69646738Y-99800000D01*
G75*
G02*
X69375000Y-99528262I0J271738D01*
G01*
X69375000Y-97271738D01*
G75*
G02*
X69646738Y-97000000I271738J0D01*
G01*
X70353262Y-97000000D01*
G75*
G02*
X70625000Y-97271738I0J-271738D01*
G01*
G37*
%TD*%
D15*
%TO.C,TH1*%
X103830000Y-100000000D03*
G36*
G01*
X105600000Y-100550000D02*
X104600000Y-100550000D01*
G75*
G02*
X104550000Y-100500000I0J50000D01*
G01*
X104550000Y-99500000D01*
G75*
G02*
X104600000Y-99450000I50000J0D01*
G01*
X105600000Y-99450000D01*
G75*
G02*
X105650000Y-99500000I0J-50000D01*
G01*
X105650000Y-100500000D01*
G75*
G02*
X105600000Y-100550000I-50000J0D01*
G01*
G37*
%TD*%
%TO.C,R25*%
G36*
G01*
X106375611Y-97137500D02*
X105424389Y-97137500D01*
G75*
G02*
X105150000Y-96863111I0J274389D01*
G01*
X105150000Y-96286889D01*
G75*
G02*
X105424389Y-96012500I274389J0D01*
G01*
X106375611Y-96012500D01*
G75*
G02*
X106650000Y-96286889I0J-274389D01*
G01*
X106650000Y-96863111D01*
G75*
G02*
X106375611Y-97137500I-274389J0D01*
G01*
G37*
G36*
G01*
X106375611Y-98962500D02*
X105424389Y-98962500D01*
G75*
G02*
X105150000Y-98688111I0J274389D01*
G01*
X105150000Y-98111889D01*
G75*
G02*
X105424389Y-97837500I274389J0D01*
G01*
X106375611Y-97837500D01*
G75*
G02*
X106650000Y-98111889I0J-274389D01*
G01*
X106650000Y-98688111D01*
G75*
G02*
X106375611Y-98962500I-274389J0D01*
G01*
G37*
%TD*%
%TO.C,J6*%
G36*
G01*
X112650000Y-125200000D02*
X112650000Y-119600000D01*
G75*
G02*
X112700000Y-119550000I50000J0D01*
G01*
X114900000Y-119550000D01*
G75*
G02*
X114950000Y-119600000I0J-50000D01*
G01*
X114950000Y-125200000D01*
G75*
G02*
X114900000Y-125250000I-50000J0D01*
G01*
X112700000Y-125250000D01*
G75*
G02*
X112650000Y-125200000I0J50000D01*
G01*
G37*
G36*
G01*
X109900000Y-119750000D02*
X109900000Y-116550000D01*
G75*
G02*
X109950000Y-116500000I50000J0D01*
G01*
X111150000Y-116500000D01*
G75*
G02*
X111200000Y-116550000I0J-50000D01*
G01*
X111200000Y-119750000D01*
G75*
G02*
X111150000Y-119800000I-50000J0D01*
G01*
X109950000Y-119800000D01*
G75*
G02*
X109900000Y-119750000I0J50000D01*
G01*
G37*
G36*
G01*
X107400000Y-119750000D02*
X107400000Y-116550000D01*
G75*
G02*
X107450000Y-116500000I50000J0D01*
G01*
X108650000Y-116500000D01*
G75*
G02*
X108700000Y-116550000I0J-50000D01*
G01*
X108700000Y-119750000D01*
G75*
G02*
X108650000Y-119800000I-50000J0D01*
G01*
X107450000Y-119800000D01*
G75*
G02*
X107400000Y-119750000I0J50000D01*
G01*
G37*
G36*
G01*
X103650000Y-125200000D02*
X103650000Y-119600000D01*
G75*
G02*
X103700000Y-119550000I50000J0D01*
G01*
X105900000Y-119550000D01*
G75*
G02*
X105950000Y-119600000I0J-50000D01*
G01*
X105950000Y-125200000D01*
G75*
G02*
X105900000Y-125250000I-50000J0D01*
G01*
X103700000Y-125250000D01*
G75*
G02*
X103650000Y-125200000I0J50000D01*
G01*
G37*
%TD*%
%TO.C,J1*%
G36*
G01*
X132050000Y-125200000D02*
X132050000Y-119600000D01*
G75*
G02*
X132100000Y-119550000I50000J0D01*
G01*
X134300000Y-119550000D01*
G75*
G02*
X134350000Y-119600000I0J-50000D01*
G01*
X134350000Y-125200000D01*
G75*
G02*
X134300000Y-125250000I-50000J0D01*
G01*
X132100000Y-125250000D01*
G75*
G02*
X132050000Y-125200000I0J50000D01*
G01*
G37*
G36*
G01*
X129300000Y-119750000D02*
X129300000Y-116550000D01*
G75*
G02*
X129350000Y-116500000I50000J0D01*
G01*
X130550000Y-116500000D01*
G75*
G02*
X130600000Y-116550000I0J-50000D01*
G01*
X130600000Y-119750000D01*
G75*
G02*
X130550000Y-119800000I-50000J0D01*
G01*
X129350000Y-119800000D01*
G75*
G02*
X129300000Y-119750000I0J50000D01*
G01*
G37*
G36*
G01*
X126800000Y-119750000D02*
X126800000Y-116550000D01*
G75*
G02*
X126850000Y-116500000I50000J0D01*
G01*
X128050000Y-116500000D01*
G75*
G02*
X128100000Y-116550000I0J-50000D01*
G01*
X128100000Y-119750000D01*
G75*
G02*
X128050000Y-119800000I-50000J0D01*
G01*
X126850000Y-119800000D01*
G75*
G02*
X126800000Y-119750000I0J50000D01*
G01*
G37*
G36*
G01*
X123050000Y-125200000D02*
X123050000Y-119600000D01*
G75*
G02*
X123100000Y-119550000I50000J0D01*
G01*
X125300000Y-119550000D01*
G75*
G02*
X125350000Y-119600000I0J-50000D01*
G01*
X125350000Y-125200000D01*
G75*
G02*
X125300000Y-125250000I-50000J0D01*
G01*
X123100000Y-125250000D01*
G75*
G02*
X123050000Y-125200000I0J50000D01*
G01*
G37*
%TD*%
%TO.C,SW1*%
G36*
G01*
X55650000Y-91700000D02*
X55650000Y-92700000D01*
G75*
G02*
X55600000Y-92750000I-50000J0D01*
G01*
X54700000Y-92750000D01*
G75*
G02*
X54650000Y-92700000I0J50000D01*
G01*
X54650000Y-91700000D01*
G75*
G02*
X54700000Y-91650000I50000J0D01*
G01*
X55600000Y-91650000D01*
G75*
G02*
X55650000Y-91700000I0J-50000D01*
G01*
G37*
G36*
G01*
X55650000Y-93300000D02*
X55650000Y-94300000D01*
G75*
G02*
X55600000Y-94350000I-50000J0D01*
G01*
X54700000Y-94350000D01*
G75*
G02*
X54650000Y-94300000I0J50000D01*
G01*
X54650000Y-93300000D01*
G75*
G02*
X54700000Y-93250000I50000J0D01*
G01*
X55600000Y-93250000D01*
G75*
G02*
X55650000Y-93300000I0J-50000D01*
G01*
G37*
G36*
G01*
X59750000Y-91700000D02*
X59750000Y-92700000D01*
G75*
G02*
X59700000Y-92750000I-50000J0D01*
G01*
X58800000Y-92750000D01*
G75*
G02*
X58750000Y-92700000I0J50000D01*
G01*
X58750000Y-91700000D01*
G75*
G02*
X58800000Y-91650000I50000J0D01*
G01*
X59700000Y-91650000D01*
G75*
G02*
X59750000Y-91700000I0J-50000D01*
G01*
G37*
G36*
G01*
X59750000Y-93300000D02*
X59750000Y-94300000D01*
G75*
G02*
X59700000Y-94350000I-50000J0D01*
G01*
X58800000Y-94350000D01*
G75*
G02*
X58750000Y-94300000I0J50000D01*
G01*
X58750000Y-93300000D01*
G75*
G02*
X58800000Y-93250000I50000J0D01*
G01*
X59700000Y-93250000D01*
G75*
G02*
X59750000Y-93300000I0J-50000D01*
G01*
G37*
%TD*%
%TO.C,PS5*%
G36*
G01*
X59850000Y-119100000D02*
X57350000Y-119100000D01*
G75*
G02*
X57300000Y-119050000I0J50000D01*
G01*
X57300000Y-116550000D01*
G75*
G02*
X57350000Y-116500000I50000J0D01*
G01*
X59850000Y-116500000D01*
G75*
G02*
X59900000Y-116550000I0J-50000D01*
G01*
X59900000Y-119050000D01*
G75*
G02*
X59850000Y-119100000I-50000J0D01*
G01*
G37*
G36*
G01*
X59850000Y-108100000D02*
X57350000Y-108100000D01*
G75*
G02*
X57300000Y-108050000I0J50000D01*
G01*
X57300000Y-105550000D01*
G75*
G02*
X57350000Y-105500000I50000J0D01*
G01*
X59850000Y-105500000D01*
G75*
G02*
X59900000Y-105550000I0J-50000D01*
G01*
X59900000Y-108050000D01*
G75*
G02*
X59850000Y-108100000I-50000J0D01*
G01*
G37*
G36*
G01*
X71850000Y-108100000D02*
X69350000Y-108100000D01*
G75*
G02*
X69300000Y-108050000I0J50000D01*
G01*
X69300000Y-105550000D01*
G75*
G02*
X69350000Y-105500000I50000J0D01*
G01*
X71850000Y-105500000D01*
G75*
G02*
X71900000Y-105550000I0J-50000D01*
G01*
X71900000Y-108050000D01*
G75*
G02*
X71850000Y-108100000I-50000J0D01*
G01*
G37*
G36*
G01*
X71850000Y-119100000D02*
X69350000Y-119100000D01*
G75*
G02*
X69300000Y-119050000I0J50000D01*
G01*
X69300000Y-116550000D01*
G75*
G02*
X69350000Y-116500000I50000J0D01*
G01*
X71850000Y-116500000D01*
G75*
G02*
X71900000Y-116550000I0J-50000D01*
G01*
X71900000Y-119050000D01*
G75*
G02*
X71850000Y-119100000I-50000J0D01*
G01*
G37*
%TD*%
%TO.C,C16*%
G36*
G01*
X99984375Y-119300000D02*
X98815625Y-119300000D01*
G75*
G02*
X98550000Y-119034375I0J265625D01*
G01*
X98550000Y-115965625D01*
G75*
G02*
X98815625Y-115700000I265625J0D01*
G01*
X99984375Y-115700000D01*
G75*
G02*
X100250000Y-115965625I0J-265625D01*
G01*
X100250000Y-119034375D01*
G75*
G02*
X99984375Y-119300000I-265625J0D01*
G01*
G37*
G36*
G01*
X99984375Y-124700000D02*
X98815625Y-124700000D01*
G75*
G02*
X98550000Y-124434375I0J265625D01*
G01*
X98550000Y-121365625D01*
G75*
G02*
X98815625Y-121100000I265625J0D01*
G01*
X99984375Y-121100000D01*
G75*
G02*
X100250000Y-121365625I0J-265625D01*
G01*
X100250000Y-124434375D01*
G75*
G02*
X99984375Y-124700000I-265625J0D01*
G01*
G37*
%TD*%
%TO.C,C15*%
G36*
G01*
X119584375Y-118300000D02*
X118415625Y-118300000D01*
G75*
G02*
X118150000Y-118034375I0J265625D01*
G01*
X118150000Y-114965625D01*
G75*
G02*
X118415625Y-114700000I265625J0D01*
G01*
X119584375Y-114700000D01*
G75*
G02*
X119850000Y-114965625I0J-265625D01*
G01*
X119850000Y-118034375D01*
G75*
G02*
X119584375Y-118300000I-265625J0D01*
G01*
G37*
G36*
G01*
X119584375Y-123700000D02*
X118415625Y-123700000D01*
G75*
G02*
X118150000Y-123434375I0J265625D01*
G01*
X118150000Y-120365625D01*
G75*
G02*
X118415625Y-120100000I265625J0D01*
G01*
X119584375Y-120100000D01*
G75*
G02*
X119850000Y-120365625I0J-265625D01*
G01*
X119850000Y-123434375D01*
G75*
G02*
X119584375Y-123700000I-265625J0D01*
G01*
G37*
%TD*%
%TO.C,U6*%
G36*
G01*
X115540000Y-55660000D02*
X115190000Y-55660000D01*
G75*
G02*
X115015000Y-55485000I0J175000D01*
G01*
X115015000Y-53785000D01*
G75*
G02*
X115190000Y-53610000I175000J0D01*
G01*
X115540000Y-53610000D01*
G75*
G02*
X115715000Y-53785000I0J-175000D01*
G01*
X115715000Y-55485000D01*
G75*
G02*
X115540000Y-55660000I-175000J0D01*
G01*
G37*
G36*
G01*
X116810000Y-55660000D02*
X116460000Y-55660000D01*
G75*
G02*
X116285000Y-55485000I0J175000D01*
G01*
X116285000Y-53785000D01*
G75*
G02*
X116460000Y-53610000I175000J0D01*
G01*
X116810000Y-53610000D01*
G75*
G02*
X116985000Y-53785000I0J-175000D01*
G01*
X116985000Y-55485000D01*
G75*
G02*
X116810000Y-55660000I-175000J0D01*
G01*
G37*
G36*
G01*
X118080000Y-55660000D02*
X117730000Y-55660000D01*
G75*
G02*
X117555000Y-55485000I0J175000D01*
G01*
X117555000Y-53785000D01*
G75*
G02*
X117730000Y-53610000I175000J0D01*
G01*
X118080000Y-53610000D01*
G75*
G02*
X118255000Y-53785000I0J-175000D01*
G01*
X118255000Y-55485000D01*
G75*
G02*
X118080000Y-55660000I-175000J0D01*
G01*
G37*
G36*
G01*
X119350000Y-55660000D02*
X119000000Y-55660000D01*
G75*
G02*
X118825000Y-55485000I0J175000D01*
G01*
X118825000Y-53785000D01*
G75*
G02*
X119000000Y-53610000I175000J0D01*
G01*
X119350000Y-53610000D01*
G75*
G02*
X119525000Y-53785000I0J-175000D01*
G01*
X119525000Y-55485000D01*
G75*
G02*
X119350000Y-55660000I-175000J0D01*
G01*
G37*
G36*
G01*
X120620000Y-55660000D02*
X120270000Y-55660000D01*
G75*
G02*
X120095000Y-55485000I0J175000D01*
G01*
X120095000Y-53785000D01*
G75*
G02*
X120270000Y-53610000I175000J0D01*
G01*
X120620000Y-53610000D01*
G75*
G02*
X120795000Y-53785000I0J-175000D01*
G01*
X120795000Y-55485000D01*
G75*
G02*
X120620000Y-55660000I-175000J0D01*
G01*
G37*
G36*
G01*
X121890000Y-55660000D02*
X121540000Y-55660000D01*
G75*
G02*
X121365000Y-55485000I0J175000D01*
G01*
X121365000Y-53785000D01*
G75*
G02*
X121540000Y-53610000I175000J0D01*
G01*
X121890000Y-53610000D01*
G75*
G02*
X122065000Y-53785000I0J-175000D01*
G01*
X122065000Y-55485000D01*
G75*
G02*
X121890000Y-55660000I-175000J0D01*
G01*
G37*
G36*
G01*
X123160000Y-55660000D02*
X122810000Y-55660000D01*
G75*
G02*
X122635000Y-55485000I0J175000D01*
G01*
X122635000Y-53785000D01*
G75*
G02*
X122810000Y-53610000I175000J0D01*
G01*
X123160000Y-53610000D01*
G75*
G02*
X123335000Y-53785000I0J-175000D01*
G01*
X123335000Y-55485000D01*
G75*
G02*
X123160000Y-55660000I-175000J0D01*
G01*
G37*
G36*
G01*
X124430000Y-55660000D02*
X124080000Y-55660000D01*
G75*
G02*
X123905000Y-55485000I0J175000D01*
G01*
X123905000Y-53785000D01*
G75*
G02*
X124080000Y-53610000I175000J0D01*
G01*
X124430000Y-53610000D01*
G75*
G02*
X124605000Y-53785000I0J-175000D01*
G01*
X124605000Y-55485000D01*
G75*
G02*
X124430000Y-55660000I-175000J0D01*
G01*
G37*
G36*
G01*
X124430000Y-60610000D02*
X124080000Y-60610000D01*
G75*
G02*
X123905000Y-60435000I0J175000D01*
G01*
X123905000Y-58735000D01*
G75*
G02*
X124080000Y-58560000I175000J0D01*
G01*
X124430000Y-58560000D01*
G75*
G02*
X124605000Y-58735000I0J-175000D01*
G01*
X124605000Y-60435000D01*
G75*
G02*
X124430000Y-60610000I-175000J0D01*
G01*
G37*
G36*
G01*
X123160000Y-60610000D02*
X122810000Y-60610000D01*
G75*
G02*
X122635000Y-60435000I0J175000D01*
G01*
X122635000Y-58735000D01*
G75*
G02*
X122810000Y-58560000I175000J0D01*
G01*
X123160000Y-58560000D01*
G75*
G02*
X123335000Y-58735000I0J-175000D01*
G01*
X123335000Y-60435000D01*
G75*
G02*
X123160000Y-60610000I-175000J0D01*
G01*
G37*
G36*
G01*
X121890000Y-60610000D02*
X121540000Y-60610000D01*
G75*
G02*
X121365000Y-60435000I0J175000D01*
G01*
X121365000Y-58735000D01*
G75*
G02*
X121540000Y-58560000I175000J0D01*
G01*
X121890000Y-58560000D01*
G75*
G02*
X122065000Y-58735000I0J-175000D01*
G01*
X122065000Y-60435000D01*
G75*
G02*
X121890000Y-60610000I-175000J0D01*
G01*
G37*
G36*
G01*
X120620000Y-60610000D02*
X120270000Y-60610000D01*
G75*
G02*
X120095000Y-60435000I0J175000D01*
G01*
X120095000Y-58735000D01*
G75*
G02*
X120270000Y-58560000I175000J0D01*
G01*
X120620000Y-58560000D01*
G75*
G02*
X120795000Y-58735000I0J-175000D01*
G01*
X120795000Y-60435000D01*
G75*
G02*
X120620000Y-60610000I-175000J0D01*
G01*
G37*
G36*
G01*
X119350000Y-60610000D02*
X119000000Y-60610000D01*
G75*
G02*
X118825000Y-60435000I0J175000D01*
G01*
X118825000Y-58735000D01*
G75*
G02*
X119000000Y-58560000I175000J0D01*
G01*
X119350000Y-58560000D01*
G75*
G02*
X119525000Y-58735000I0J-175000D01*
G01*
X119525000Y-60435000D01*
G75*
G02*
X119350000Y-60610000I-175000J0D01*
G01*
G37*
G36*
G01*
X118080000Y-60610000D02*
X117730000Y-60610000D01*
G75*
G02*
X117555000Y-60435000I0J175000D01*
G01*
X117555000Y-58735000D01*
G75*
G02*
X117730000Y-58560000I175000J0D01*
G01*
X118080000Y-58560000D01*
G75*
G02*
X118255000Y-58735000I0J-175000D01*
G01*
X118255000Y-60435000D01*
G75*
G02*
X118080000Y-60610000I-175000J0D01*
G01*
G37*
G36*
G01*
X116810000Y-60610000D02*
X116460000Y-60610000D01*
G75*
G02*
X116285000Y-60435000I0J175000D01*
G01*
X116285000Y-58735000D01*
G75*
G02*
X116460000Y-58560000I175000J0D01*
G01*
X116810000Y-58560000D01*
G75*
G02*
X116985000Y-58735000I0J-175000D01*
G01*
X116985000Y-60435000D01*
G75*
G02*
X116810000Y-60610000I-175000J0D01*
G01*
G37*
G36*
G01*
X115540000Y-60610000D02*
X115190000Y-60610000D01*
G75*
G02*
X115015000Y-60435000I0J175000D01*
G01*
X115015000Y-58735000D01*
G75*
G02*
X115190000Y-58560000I175000J0D01*
G01*
X115540000Y-58560000D01*
G75*
G02*
X115715000Y-58735000I0J-175000D01*
G01*
X115715000Y-60435000D01*
G75*
G02*
X115540000Y-60610000I-175000J0D01*
G01*
G37*
%TD*%
%TO.C,U5*%
G36*
G01*
X83110000Y-55670000D02*
X82760000Y-55670000D01*
G75*
G02*
X82585000Y-55495000I0J175000D01*
G01*
X82585000Y-53795000D01*
G75*
G02*
X82760000Y-53620000I175000J0D01*
G01*
X83110000Y-53620000D01*
G75*
G02*
X83285000Y-53795000I0J-175000D01*
G01*
X83285000Y-55495000D01*
G75*
G02*
X83110000Y-55670000I-175000J0D01*
G01*
G37*
G36*
G01*
X84380000Y-55670000D02*
X84030000Y-55670000D01*
G75*
G02*
X83855000Y-55495000I0J175000D01*
G01*
X83855000Y-53795000D01*
G75*
G02*
X84030000Y-53620000I175000J0D01*
G01*
X84380000Y-53620000D01*
G75*
G02*
X84555000Y-53795000I0J-175000D01*
G01*
X84555000Y-55495000D01*
G75*
G02*
X84380000Y-55670000I-175000J0D01*
G01*
G37*
G36*
G01*
X85650000Y-55670000D02*
X85300000Y-55670000D01*
G75*
G02*
X85125000Y-55495000I0J175000D01*
G01*
X85125000Y-53795000D01*
G75*
G02*
X85300000Y-53620000I175000J0D01*
G01*
X85650000Y-53620000D01*
G75*
G02*
X85825000Y-53795000I0J-175000D01*
G01*
X85825000Y-55495000D01*
G75*
G02*
X85650000Y-55670000I-175000J0D01*
G01*
G37*
G36*
G01*
X86920000Y-55670000D02*
X86570000Y-55670000D01*
G75*
G02*
X86395000Y-55495000I0J175000D01*
G01*
X86395000Y-53795000D01*
G75*
G02*
X86570000Y-53620000I175000J0D01*
G01*
X86920000Y-53620000D01*
G75*
G02*
X87095000Y-53795000I0J-175000D01*
G01*
X87095000Y-55495000D01*
G75*
G02*
X86920000Y-55670000I-175000J0D01*
G01*
G37*
G36*
G01*
X88190000Y-55670000D02*
X87840000Y-55670000D01*
G75*
G02*
X87665000Y-55495000I0J175000D01*
G01*
X87665000Y-53795000D01*
G75*
G02*
X87840000Y-53620000I175000J0D01*
G01*
X88190000Y-53620000D01*
G75*
G02*
X88365000Y-53795000I0J-175000D01*
G01*
X88365000Y-55495000D01*
G75*
G02*
X88190000Y-55670000I-175000J0D01*
G01*
G37*
G36*
G01*
X89460000Y-55670000D02*
X89110000Y-55670000D01*
G75*
G02*
X88935000Y-55495000I0J175000D01*
G01*
X88935000Y-53795000D01*
G75*
G02*
X89110000Y-53620000I175000J0D01*
G01*
X89460000Y-53620000D01*
G75*
G02*
X89635000Y-53795000I0J-175000D01*
G01*
X89635000Y-55495000D01*
G75*
G02*
X89460000Y-55670000I-175000J0D01*
G01*
G37*
G36*
G01*
X90730000Y-55670000D02*
X90380000Y-55670000D01*
G75*
G02*
X90205000Y-55495000I0J175000D01*
G01*
X90205000Y-53795000D01*
G75*
G02*
X90380000Y-53620000I175000J0D01*
G01*
X90730000Y-53620000D01*
G75*
G02*
X90905000Y-53795000I0J-175000D01*
G01*
X90905000Y-55495000D01*
G75*
G02*
X90730000Y-55670000I-175000J0D01*
G01*
G37*
G36*
G01*
X92000000Y-55670000D02*
X91650000Y-55670000D01*
G75*
G02*
X91475000Y-55495000I0J175000D01*
G01*
X91475000Y-53795000D01*
G75*
G02*
X91650000Y-53620000I175000J0D01*
G01*
X92000000Y-53620000D01*
G75*
G02*
X92175000Y-53795000I0J-175000D01*
G01*
X92175000Y-55495000D01*
G75*
G02*
X92000000Y-55670000I-175000J0D01*
G01*
G37*
G36*
G01*
X92000000Y-60620000D02*
X91650000Y-60620000D01*
G75*
G02*
X91475000Y-60445000I0J175000D01*
G01*
X91475000Y-58745000D01*
G75*
G02*
X91650000Y-58570000I175000J0D01*
G01*
X92000000Y-58570000D01*
G75*
G02*
X92175000Y-58745000I0J-175000D01*
G01*
X92175000Y-60445000D01*
G75*
G02*
X92000000Y-60620000I-175000J0D01*
G01*
G37*
G36*
G01*
X90730000Y-60620000D02*
X90380000Y-60620000D01*
G75*
G02*
X90205000Y-60445000I0J175000D01*
G01*
X90205000Y-58745000D01*
G75*
G02*
X90380000Y-58570000I175000J0D01*
G01*
X90730000Y-58570000D01*
G75*
G02*
X90905000Y-58745000I0J-175000D01*
G01*
X90905000Y-60445000D01*
G75*
G02*
X90730000Y-60620000I-175000J0D01*
G01*
G37*
G36*
G01*
X89460000Y-60620000D02*
X89110000Y-60620000D01*
G75*
G02*
X88935000Y-60445000I0J175000D01*
G01*
X88935000Y-58745000D01*
G75*
G02*
X89110000Y-58570000I175000J0D01*
G01*
X89460000Y-58570000D01*
G75*
G02*
X89635000Y-58745000I0J-175000D01*
G01*
X89635000Y-60445000D01*
G75*
G02*
X89460000Y-60620000I-175000J0D01*
G01*
G37*
G36*
G01*
X88190000Y-60620000D02*
X87840000Y-60620000D01*
G75*
G02*
X87665000Y-60445000I0J175000D01*
G01*
X87665000Y-58745000D01*
G75*
G02*
X87840000Y-58570000I175000J0D01*
G01*
X88190000Y-58570000D01*
G75*
G02*
X88365000Y-58745000I0J-175000D01*
G01*
X88365000Y-60445000D01*
G75*
G02*
X88190000Y-60620000I-175000J0D01*
G01*
G37*
G36*
G01*
X86920000Y-60620000D02*
X86570000Y-60620000D01*
G75*
G02*
X86395000Y-60445000I0J175000D01*
G01*
X86395000Y-58745000D01*
G75*
G02*
X86570000Y-58570000I175000J0D01*
G01*
X86920000Y-58570000D01*
G75*
G02*
X87095000Y-58745000I0J-175000D01*
G01*
X87095000Y-60445000D01*
G75*
G02*
X86920000Y-60620000I-175000J0D01*
G01*
G37*
G36*
G01*
X85650000Y-60620000D02*
X85300000Y-60620000D01*
G75*
G02*
X85125000Y-60445000I0J175000D01*
G01*
X85125000Y-58745000D01*
G75*
G02*
X85300000Y-58570000I175000J0D01*
G01*
X85650000Y-58570000D01*
G75*
G02*
X85825000Y-58745000I0J-175000D01*
G01*
X85825000Y-60445000D01*
G75*
G02*
X85650000Y-60620000I-175000J0D01*
G01*
G37*
G36*
G01*
X84380000Y-60620000D02*
X84030000Y-60620000D01*
G75*
G02*
X83855000Y-60445000I0J175000D01*
G01*
X83855000Y-58745000D01*
G75*
G02*
X84030000Y-58570000I175000J0D01*
G01*
X84380000Y-58570000D01*
G75*
G02*
X84555000Y-58745000I0J-175000D01*
G01*
X84555000Y-60445000D01*
G75*
G02*
X84380000Y-60620000I-175000J0D01*
G01*
G37*
G36*
G01*
X83110000Y-60620000D02*
X82760000Y-60620000D01*
G75*
G02*
X82585000Y-60445000I0J175000D01*
G01*
X82585000Y-58745000D01*
G75*
G02*
X82760000Y-58570000I175000J0D01*
G01*
X83110000Y-58570000D01*
G75*
G02*
X83285000Y-58745000I0J-175000D01*
G01*
X83285000Y-60445000D01*
G75*
G02*
X83110000Y-60620000I-175000J0D01*
G01*
G37*
%TD*%
%TO.C,R13*%
G36*
G01*
X90324389Y-44037500D02*
X91275611Y-44037500D01*
G75*
G02*
X91550000Y-44311889I0J-274389D01*
G01*
X91550000Y-44888111D01*
G75*
G02*
X91275611Y-45162500I-274389J0D01*
G01*
X90324389Y-45162500D01*
G75*
G02*
X90050000Y-44888111I0J274389D01*
G01*
X90050000Y-44311889D01*
G75*
G02*
X90324389Y-44037500I274389J0D01*
G01*
G37*
G36*
G01*
X90324389Y-42212500D02*
X91275611Y-42212500D01*
G75*
G02*
X91550000Y-42486889I0J-274389D01*
G01*
X91550000Y-43063111D01*
G75*
G02*
X91275611Y-43337500I-274389J0D01*
G01*
X90324389Y-43337500D01*
G75*
G02*
X90050000Y-43063111I0J274389D01*
G01*
X90050000Y-42486889D01*
G75*
G02*
X90324389Y-42212500I274389J0D01*
G01*
G37*
%TD*%
D16*
%TO.C,J3*%
X103812000Y-42330000D03*
D17*
X110289000Y-34200000D03*
X90350000Y-34200000D03*
D16*
X106796500Y-44614000D03*
X96001500Y-44614000D03*
X100764000Y-40550000D03*
G36*
G01*
X96000000Y-41200000D02*
X96000000Y-39900000D01*
G75*
G02*
X96050000Y-39850000I50000J0D01*
G01*
X97350000Y-39850000D01*
G75*
G02*
X97400000Y-39900000I0J-50000D01*
G01*
X97400000Y-41200000D01*
G75*
G02*
X97350000Y-41250000I-50000J0D01*
G01*
X96050000Y-41250000D01*
G75*
G02*
X96000000Y-41200000I0J50000D01*
G01*
G37*
X102796000Y-40550000D03*
X93715500Y-44614000D03*
X98732000Y-40550000D03*
X104510500Y-44614000D03*
X97716000Y-42330000D03*
X99748000Y-42330000D03*
X101780000Y-42330000D03*
%TD*%
%TO.C,J2*%
X63112000Y-42280000D03*
D17*
X69589000Y-34150000D03*
X49650000Y-34150000D03*
D16*
X66096500Y-44564000D03*
X55301500Y-44564000D03*
X60064000Y-40500000D03*
G36*
G01*
X55300000Y-41150000D02*
X55300000Y-39850000D01*
G75*
G02*
X55350000Y-39800000I50000J0D01*
G01*
X56650000Y-39800000D01*
G75*
G02*
X56700000Y-39850000I0J-50000D01*
G01*
X56700000Y-41150000D01*
G75*
G02*
X56650000Y-41200000I-50000J0D01*
G01*
X55350000Y-41200000D01*
G75*
G02*
X55300000Y-41150000I0J50000D01*
G01*
G37*
X62096000Y-40500000D03*
X53015500Y-44564000D03*
X58032000Y-40500000D03*
X63810500Y-44564000D03*
X57016000Y-42280000D03*
X59048000Y-42280000D03*
X61080000Y-42280000D03*
%TD*%
D10*
%TO.C,SWD1*%
X45800000Y-96300000D03*
X45800000Y-93760000D03*
X45800000Y-91220000D03*
X45800000Y-88680000D03*
X45800000Y-86140000D03*
G36*
G01*
X44900000Y-84450000D02*
X44900000Y-82750000D01*
G75*
G02*
X44950000Y-82700000I50000J0D01*
G01*
X46650000Y-82700000D01*
G75*
G02*
X46700000Y-82750000I0J-50000D01*
G01*
X46700000Y-84450000D01*
G75*
G02*
X46650000Y-84500000I-50000J0D01*
G01*
X44950000Y-84500000D01*
G75*
G02*
X44900000Y-84450000I0J50000D01*
G01*
G37*
%TD*%
%TO.C,R24*%
G36*
G01*
X51662500Y-87875611D02*
X51662500Y-86924389D01*
G75*
G02*
X51936889Y-86650000I274389J0D01*
G01*
X52513111Y-86650000D01*
G75*
G02*
X52787500Y-86924389I0J-274389D01*
G01*
X52787500Y-87875611D01*
G75*
G02*
X52513111Y-88150000I-274389J0D01*
G01*
X51936889Y-88150000D01*
G75*
G02*
X51662500Y-87875611I0J274389D01*
G01*
G37*
G36*
G01*
X49837500Y-87875611D02*
X49837500Y-86924389D01*
G75*
G02*
X50111889Y-86650000I274389J0D01*
G01*
X50688111Y-86650000D01*
G75*
G02*
X50962500Y-86924389I0J-274389D01*
G01*
X50962500Y-87875611D01*
G75*
G02*
X50688111Y-88150000I-274389J0D01*
G01*
X50111889Y-88150000D01*
G75*
G02*
X49837500Y-87875611I0J274389D01*
G01*
G37*
%TD*%
%TO.C,J8*%
G36*
G01*
X58050000Y-89050000D02*
X58050000Y-88310000D01*
G75*
G02*
X58100000Y-88260000I50000J0D01*
G01*
X60500000Y-88260000D01*
G75*
G02*
X60550000Y-88310000I0J-50000D01*
G01*
X60550000Y-89050000D01*
G75*
G02*
X60500000Y-89100000I-50000J0D01*
G01*
X58100000Y-89100000D01*
G75*
G02*
X58050000Y-89050000I0J50000D01*
G01*
G37*
G36*
G01*
X54150000Y-89050000D02*
X54150000Y-88310000D01*
G75*
G02*
X54200000Y-88260000I50000J0D01*
G01*
X56600000Y-88260000D01*
G75*
G02*
X56650000Y-88310000I0J-50000D01*
G01*
X56650000Y-89050000D01*
G75*
G02*
X56600000Y-89100000I-50000J0D01*
G01*
X54200000Y-89100000D01*
G75*
G02*
X54150000Y-89050000I0J50000D01*
G01*
G37*
G36*
G01*
X58050000Y-87780000D02*
X58050000Y-87040000D01*
G75*
G02*
X58100000Y-86990000I50000J0D01*
G01*
X60500000Y-86990000D01*
G75*
G02*
X60550000Y-87040000I0J-50000D01*
G01*
X60550000Y-87780000D01*
G75*
G02*
X60500000Y-87830000I-50000J0D01*
G01*
X58100000Y-87830000D01*
G75*
G02*
X58050000Y-87780000I0J50000D01*
G01*
G37*
G36*
G01*
X54150000Y-87780000D02*
X54150000Y-87040000D01*
G75*
G02*
X54200000Y-86990000I50000J0D01*
G01*
X56600000Y-86990000D01*
G75*
G02*
X56650000Y-87040000I0J-50000D01*
G01*
X56650000Y-87780000D01*
G75*
G02*
X56600000Y-87830000I-50000J0D01*
G01*
X54200000Y-87830000D01*
G75*
G02*
X54150000Y-87780000I0J50000D01*
G01*
G37*
G36*
G01*
X58050000Y-86510000D02*
X58050000Y-85770000D01*
G75*
G02*
X58100000Y-85720000I50000J0D01*
G01*
X60500000Y-85720000D01*
G75*
G02*
X60550000Y-85770000I0J-50000D01*
G01*
X60550000Y-86510000D01*
G75*
G02*
X60500000Y-86560000I-50000J0D01*
G01*
X58100000Y-86560000D01*
G75*
G02*
X58050000Y-86510000I0J50000D01*
G01*
G37*
G36*
G01*
X54150000Y-86510000D02*
X54150000Y-85770000D01*
G75*
G02*
X54200000Y-85720000I50000J0D01*
G01*
X56600000Y-85720000D01*
G75*
G02*
X56650000Y-85770000I0J-50000D01*
G01*
X56650000Y-86510000D01*
G75*
G02*
X56600000Y-86560000I-50000J0D01*
G01*
X54200000Y-86560000D01*
G75*
G02*
X54150000Y-86510000I0J50000D01*
G01*
G37*
G36*
G01*
X58050000Y-85240000D02*
X58050000Y-84500000D01*
G75*
G02*
X58100000Y-84450000I50000J0D01*
G01*
X60500000Y-84450000D01*
G75*
G02*
X60550000Y-84500000I0J-50000D01*
G01*
X60550000Y-85240000D01*
G75*
G02*
X60500000Y-85290000I-50000J0D01*
G01*
X58100000Y-85290000D01*
G75*
G02*
X58050000Y-85240000I0J50000D01*
G01*
G37*
G36*
G01*
X54150000Y-85240000D02*
X54150000Y-84500000D01*
G75*
G02*
X54200000Y-84450000I50000J0D01*
G01*
X56600000Y-84450000D01*
G75*
G02*
X56650000Y-84500000I0J-50000D01*
G01*
X56650000Y-85240000D01*
G75*
G02*
X56600000Y-85290000I-50000J0D01*
G01*
X54200000Y-85290000D01*
G75*
G02*
X54150000Y-85240000I0J50000D01*
G01*
G37*
G36*
G01*
X58050000Y-83970000D02*
X58050000Y-83230000D01*
G75*
G02*
X58100000Y-83180000I50000J0D01*
G01*
X60500000Y-83180000D01*
G75*
G02*
X60550000Y-83230000I0J-50000D01*
G01*
X60550000Y-83970000D01*
G75*
G02*
X60500000Y-84020000I-50000J0D01*
G01*
X58100000Y-84020000D01*
G75*
G02*
X58050000Y-83970000I0J50000D01*
G01*
G37*
G36*
G01*
X54150000Y-83970000D02*
X54150000Y-83230000D01*
G75*
G02*
X54200000Y-83180000I50000J0D01*
G01*
X56600000Y-83180000D01*
G75*
G02*
X56650000Y-83230000I0J-50000D01*
G01*
X56650000Y-83970000D01*
G75*
G02*
X56600000Y-84020000I-50000J0D01*
G01*
X54200000Y-84020000D01*
G75*
G02*
X54150000Y-83970000I0J50000D01*
G01*
G37*
G36*
G01*
X58050000Y-82700000D02*
X58050000Y-81960000D01*
G75*
G02*
X58100000Y-81910000I50000J0D01*
G01*
X60500000Y-81910000D01*
G75*
G02*
X60550000Y-81960000I0J-50000D01*
G01*
X60550000Y-82700000D01*
G75*
G02*
X60500000Y-82750000I-50000J0D01*
G01*
X58100000Y-82750000D01*
G75*
G02*
X58050000Y-82700000I0J50000D01*
G01*
G37*
G36*
G01*
X54150000Y-82700000D02*
X54150000Y-81960000D01*
G75*
G02*
X54200000Y-81910000I50000J0D01*
G01*
X56600000Y-81910000D01*
G75*
G02*
X56650000Y-81960000I0J-50000D01*
G01*
X56650000Y-82700000D01*
G75*
G02*
X56600000Y-82750000I-50000J0D01*
G01*
X54200000Y-82750000D01*
G75*
G02*
X54150000Y-82700000I0J50000D01*
G01*
G37*
G36*
G01*
X58050000Y-81430000D02*
X58050000Y-80690000D01*
G75*
G02*
X58100000Y-80640000I50000J0D01*
G01*
X60500000Y-80640000D01*
G75*
G02*
X60550000Y-80690000I0J-50000D01*
G01*
X60550000Y-81430000D01*
G75*
G02*
X60500000Y-81480000I-50000J0D01*
G01*
X58100000Y-81480000D01*
G75*
G02*
X58050000Y-81430000I0J50000D01*
G01*
G37*
G36*
G01*
X54150000Y-81430000D02*
X54150000Y-80690000D01*
G75*
G02*
X54200000Y-80640000I50000J0D01*
G01*
X56600000Y-80640000D01*
G75*
G02*
X56650000Y-80690000I0J-50000D01*
G01*
X56650000Y-81430000D01*
G75*
G02*
X56600000Y-81480000I-50000J0D01*
G01*
X54200000Y-81480000D01*
G75*
G02*
X54150000Y-81430000I0J50000D01*
G01*
G37*
%TD*%
%TO.C,R17*%
G36*
G01*
X114385611Y-63980000D02*
X113434389Y-63980000D01*
G75*
G02*
X113160000Y-63705611I0J274389D01*
G01*
X113160000Y-63129389D01*
G75*
G02*
X113434389Y-62855000I274389J0D01*
G01*
X114385611Y-62855000D01*
G75*
G02*
X114660000Y-63129389I0J-274389D01*
G01*
X114660000Y-63705611D01*
G75*
G02*
X114385611Y-63980000I-274389J0D01*
G01*
G37*
G36*
G01*
X114385611Y-65805000D02*
X113434389Y-65805000D01*
G75*
G02*
X113160000Y-65530611I0J274389D01*
G01*
X113160000Y-64954389D01*
G75*
G02*
X113434389Y-64680000I274389J0D01*
G01*
X114385611Y-64680000D01*
G75*
G02*
X114660000Y-64954389I0J-274389D01*
G01*
X114660000Y-65530611D01*
G75*
G02*
X114385611Y-65805000I-274389J0D01*
G01*
G37*
%TD*%
%TO.C,Y1*%
G36*
G01*
X75384924Y-84568629D02*
X76233452Y-85417157D01*
G75*
G02*
X76233452Y-85487867I-35355J-35355D01*
G01*
X75243502Y-86477817D01*
G75*
G02*
X75172792Y-86477817I-35355J35355D01*
G01*
X74324264Y-85629289D01*
G75*
G02*
X74324264Y-85558579I35355J35355D01*
G01*
X75314214Y-84568629D01*
G75*
G02*
X75384924Y-84568629I35355J-35355D01*
G01*
G37*
G36*
G01*
X73829289Y-86124264D02*
X74677817Y-86972792D01*
G75*
G02*
X74677817Y-87043502I-35355J-35355D01*
G01*
X73687867Y-88033452D01*
G75*
G02*
X73617157Y-88033452I-35355J35355D01*
G01*
X72768629Y-87184924D01*
G75*
G02*
X72768629Y-87114214I35355J35355D01*
G01*
X73758579Y-86124264D01*
G75*
G02*
X73829289Y-86124264I35355J-35355D01*
G01*
G37*
G36*
G01*
X72627208Y-84922183D02*
X73475736Y-85770711D01*
G75*
G02*
X73475736Y-85841421I-35355J-35355D01*
G01*
X72485786Y-86831371D01*
G75*
G02*
X72415076Y-86831371I-35355J35355D01*
G01*
X71566548Y-85982843D01*
G75*
G02*
X71566548Y-85912133I35355J35355D01*
G01*
X72556498Y-84922183D01*
G75*
G02*
X72627208Y-84922183I35355J-35355D01*
G01*
G37*
G36*
G01*
X74182843Y-83366548D02*
X75031371Y-84215076D01*
G75*
G02*
X75031371Y-84285786I-35355J-35355D01*
G01*
X74041421Y-85275736D01*
G75*
G02*
X73970711Y-85275736I-35355J35355D01*
G01*
X73122183Y-84427208D01*
G75*
G02*
X73122183Y-84356498I35355J35355D01*
G01*
X74112133Y-83366548D01*
G75*
G02*
X74182843Y-83366548I35355J-35355D01*
G01*
G37*
%TD*%
%TO.C,U7*%
G36*
G01*
X93480000Y-115540000D02*
X95260000Y-115540000D01*
G75*
G02*
X95310000Y-115590000I0J-50000D01*
G01*
X95310000Y-117590000D01*
G75*
G02*
X95260000Y-117640000I-50000J0D01*
G01*
X93480000Y-117640000D01*
G75*
G02*
X93430000Y-117590000I0J50000D01*
G01*
X93430000Y-115590000D01*
G75*
G02*
X93480000Y-115540000I50000J0D01*
G01*
G37*
G36*
G01*
X90940000Y-107920000D02*
X92720000Y-107920000D01*
G75*
G02*
X92770000Y-107970000I0J-50000D01*
G01*
X92770000Y-109970000D01*
G75*
G02*
X92720000Y-110020000I-50000J0D01*
G01*
X90940000Y-110020000D01*
G75*
G02*
X90890000Y-109970000I0J50000D01*
G01*
X90890000Y-107970000D01*
G75*
G02*
X90940000Y-107920000I50000J0D01*
G01*
G37*
G36*
G01*
X90940000Y-115540000D02*
X92720000Y-115540000D01*
G75*
G02*
X92770000Y-115590000I0J-50000D01*
G01*
X92770000Y-117590000D01*
G75*
G02*
X92720000Y-117640000I-50000J0D01*
G01*
X90940000Y-117640000D01*
G75*
G02*
X90890000Y-117590000I0J50000D01*
G01*
X90890000Y-115590000D01*
G75*
G02*
X90940000Y-115540000I50000J0D01*
G01*
G37*
G36*
G01*
X93480000Y-107920000D02*
X95260000Y-107920000D01*
G75*
G02*
X95310000Y-107970000I0J-50000D01*
G01*
X95310000Y-109970000D01*
G75*
G02*
X95260000Y-110020000I-50000J0D01*
G01*
X93480000Y-110020000D01*
G75*
G02*
X93430000Y-109970000I0J50000D01*
G01*
X93430000Y-107970000D01*
G75*
G02*
X93480000Y-107920000I50000J0D01*
G01*
G37*
%TD*%
%TO.C,R22*%
G36*
G01*
X92275611Y-119162500D02*
X91324389Y-119162500D01*
G75*
G02*
X91050000Y-118888111I0J274389D01*
G01*
X91050000Y-118311889D01*
G75*
G02*
X91324389Y-118037500I274389J0D01*
G01*
X92275611Y-118037500D01*
G75*
G02*
X92550000Y-118311889I0J-274389D01*
G01*
X92550000Y-118888111D01*
G75*
G02*
X92275611Y-119162500I-274389J0D01*
G01*
G37*
G36*
G01*
X92275611Y-120987500D02*
X91324389Y-120987500D01*
G75*
G02*
X91050000Y-120713111I0J274389D01*
G01*
X91050000Y-120136889D01*
G75*
G02*
X91324389Y-119862500I274389J0D01*
G01*
X92275611Y-119862500D01*
G75*
G02*
X92550000Y-120136889I0J-274389D01*
G01*
X92550000Y-120713111D01*
G75*
G02*
X92275611Y-120987500I-274389J0D01*
G01*
G37*
%TD*%
%TO.C,R21*%
G36*
G01*
X89150000Y-109675611D02*
X89150000Y-108724389D01*
G75*
G02*
X89424389Y-108450000I274389J0D01*
G01*
X90000611Y-108450000D01*
G75*
G02*
X90275000Y-108724389I0J-274389D01*
G01*
X90275000Y-109675611D01*
G75*
G02*
X90000611Y-109950000I-274389J0D01*
G01*
X89424389Y-109950000D01*
G75*
G02*
X89150000Y-109675611I0J274389D01*
G01*
G37*
G36*
G01*
X87325000Y-109675611D02*
X87325000Y-108724389D01*
G75*
G02*
X87599389Y-108450000I274389J0D01*
G01*
X88175611Y-108450000D01*
G75*
G02*
X88450000Y-108724389I0J-274389D01*
G01*
X88450000Y-109675611D01*
G75*
G02*
X88175611Y-109950000I-274389J0D01*
G01*
X87599389Y-109950000D01*
G75*
G02*
X87325000Y-109675611I0J274389D01*
G01*
G37*
%TD*%
%TO.C,R20*%
G36*
G01*
X119662500Y-48575611D02*
X119662500Y-47624389D01*
G75*
G02*
X119936889Y-47350000I274389J0D01*
G01*
X120513111Y-47350000D01*
G75*
G02*
X120787500Y-47624389I0J-274389D01*
G01*
X120787500Y-48575611D01*
G75*
G02*
X120513111Y-48850000I-274389J0D01*
G01*
X119936889Y-48850000D01*
G75*
G02*
X119662500Y-48575611I0J274389D01*
G01*
G37*
G36*
G01*
X117837500Y-48575611D02*
X117837500Y-47624389D01*
G75*
G02*
X118111889Y-47350000I274389J0D01*
G01*
X118688111Y-47350000D01*
G75*
G02*
X118962500Y-47624389I0J-274389D01*
G01*
X118962500Y-48575611D01*
G75*
G02*
X118688111Y-48850000I-274389J0D01*
G01*
X118111889Y-48850000D01*
G75*
G02*
X117837500Y-48575611I0J274389D01*
G01*
G37*
%TD*%
%TO.C,R19*%
G36*
G01*
X122347500Y-61534389D02*
X122347500Y-62485611D01*
G75*
G02*
X122073111Y-62760000I-274389J0D01*
G01*
X121496889Y-62760000D01*
G75*
G02*
X121222500Y-62485611I0J274389D01*
G01*
X121222500Y-61534389D01*
G75*
G02*
X121496889Y-61260000I274389J0D01*
G01*
X122073111Y-61260000D01*
G75*
G02*
X122347500Y-61534389I0J-274389D01*
G01*
G37*
G36*
G01*
X124172500Y-61534389D02*
X124172500Y-62485611D01*
G75*
G02*
X123898111Y-62760000I-274389J0D01*
G01*
X123321889Y-62760000D01*
G75*
G02*
X123047500Y-62485611I0J274389D01*
G01*
X123047500Y-61534389D01*
G75*
G02*
X123321889Y-61260000I274389J0D01*
G01*
X123898111Y-61260000D01*
G75*
G02*
X124172500Y-61534389I0J-274389D01*
G01*
G37*
%TD*%
%TO.C,R18*%
G36*
G01*
X116185611Y-63980000D02*
X115234389Y-63980000D01*
G75*
G02*
X114960000Y-63705611I0J274389D01*
G01*
X114960000Y-63129389D01*
G75*
G02*
X115234389Y-62855000I274389J0D01*
G01*
X116185611Y-62855000D01*
G75*
G02*
X116460000Y-63129389I0J-274389D01*
G01*
X116460000Y-63705611D01*
G75*
G02*
X116185611Y-63980000I-274389J0D01*
G01*
G37*
G36*
G01*
X116185611Y-65805000D02*
X115234389Y-65805000D01*
G75*
G02*
X114960000Y-65530611I0J274389D01*
G01*
X114960000Y-64954389D01*
G75*
G02*
X115234389Y-64680000I274389J0D01*
G01*
X116185611Y-64680000D01*
G75*
G02*
X116460000Y-64954389I0J-274389D01*
G01*
X116460000Y-65530611D01*
G75*
G02*
X116185611Y-65805000I-274389J0D01*
G01*
G37*
%TD*%
%TO.C,R16*%
G36*
G01*
X87262500Y-48275611D02*
X87262500Y-47324389D01*
G75*
G02*
X87536889Y-47050000I274389J0D01*
G01*
X88113111Y-47050000D01*
G75*
G02*
X88387500Y-47324389I0J-274389D01*
G01*
X88387500Y-48275611D01*
G75*
G02*
X88113111Y-48550000I-274389J0D01*
G01*
X87536889Y-48550000D01*
G75*
G02*
X87262500Y-48275611I0J274389D01*
G01*
G37*
G36*
G01*
X85437500Y-48275611D02*
X85437500Y-47324389D01*
G75*
G02*
X85711889Y-47050000I274389J0D01*
G01*
X86288111Y-47050000D01*
G75*
G02*
X86562500Y-47324389I0J-274389D01*
G01*
X86562500Y-48275611D01*
G75*
G02*
X86288111Y-48550000I-274389J0D01*
G01*
X85711889Y-48550000D01*
G75*
G02*
X85437500Y-48275611I0J274389D01*
G01*
G37*
%TD*%
%TO.C,R15*%
G36*
G01*
X90317500Y-61444389D02*
X90317500Y-62395611D01*
G75*
G02*
X90043111Y-62670000I-274389J0D01*
G01*
X89466889Y-62670000D01*
G75*
G02*
X89192500Y-62395611I0J274389D01*
G01*
X89192500Y-61444389D01*
G75*
G02*
X89466889Y-61170000I274389J0D01*
G01*
X90043111Y-61170000D01*
G75*
G02*
X90317500Y-61444389I0J-274389D01*
G01*
G37*
G36*
G01*
X92142500Y-61444389D02*
X92142500Y-62395611D01*
G75*
G02*
X91868111Y-62670000I-274389J0D01*
G01*
X91291889Y-62670000D01*
G75*
G02*
X91017500Y-62395611I0J274389D01*
G01*
X91017500Y-61444389D01*
G75*
G02*
X91291889Y-61170000I274389J0D01*
G01*
X91868111Y-61170000D01*
G75*
G02*
X92142500Y-61444389I0J-274389D01*
G01*
G37*
%TD*%
%TO.C,R14*%
G36*
G01*
X84655611Y-64570000D02*
X83704389Y-64570000D01*
G75*
G02*
X83430000Y-64295611I0J274389D01*
G01*
X83430000Y-63719389D01*
G75*
G02*
X83704389Y-63445000I274389J0D01*
G01*
X84655611Y-63445000D01*
G75*
G02*
X84930000Y-63719389I0J-274389D01*
G01*
X84930000Y-64295611D01*
G75*
G02*
X84655611Y-64570000I-274389J0D01*
G01*
G37*
G36*
G01*
X84655611Y-66395000D02*
X83704389Y-66395000D01*
G75*
G02*
X83430000Y-66120611I0J274389D01*
G01*
X83430000Y-65544389D01*
G75*
G02*
X83704389Y-65270000I274389J0D01*
G01*
X84655611Y-65270000D01*
G75*
G02*
X84930000Y-65544389I0J-274389D01*
G01*
X84930000Y-66120611D01*
G75*
G02*
X84655611Y-66395000I-274389J0D01*
G01*
G37*
%TD*%
%TO.C,R9*%
G36*
G01*
X82655611Y-64570000D02*
X81704389Y-64570000D01*
G75*
G02*
X81430000Y-64295611I0J274389D01*
G01*
X81430000Y-63719389D01*
G75*
G02*
X81704389Y-63445000I274389J0D01*
G01*
X82655611Y-63445000D01*
G75*
G02*
X82930000Y-63719389I0J-274389D01*
G01*
X82930000Y-64295611D01*
G75*
G02*
X82655611Y-64570000I-274389J0D01*
G01*
G37*
G36*
G01*
X82655611Y-66395000D02*
X81704389Y-66395000D01*
G75*
G02*
X81430000Y-66120611I0J274389D01*
G01*
X81430000Y-65544389D01*
G75*
G02*
X81704389Y-65270000I274389J0D01*
G01*
X82655611Y-65270000D01*
G75*
G02*
X82930000Y-65544389I0J-274389D01*
G01*
X82930000Y-66120611D01*
G75*
G02*
X82655611Y-66395000I-274389J0D01*
G01*
G37*
%TD*%
%TO.C,D11*%
G36*
G01*
X113350000Y-50150000D02*
X111050000Y-50150000D01*
G75*
G02*
X111000000Y-50100000I0J50000D01*
G01*
X111000000Y-47600000D01*
G75*
G02*
X111050000Y-47550000I50000J0D01*
G01*
X113350000Y-47550000D01*
G75*
G02*
X113400000Y-47600000I0J-50000D01*
G01*
X113400000Y-50100000D01*
G75*
G02*
X113350000Y-50150000I-50000J0D01*
G01*
G37*
G36*
G01*
X113350000Y-54450000D02*
X111050000Y-54450000D01*
G75*
G02*
X111000000Y-54400000I0J50000D01*
G01*
X111000000Y-51900000D01*
G75*
G02*
X111050000Y-51850000I50000J0D01*
G01*
X113350000Y-51850000D01*
G75*
G02*
X113400000Y-51900000I0J-50000D01*
G01*
X113400000Y-54400000D01*
G75*
G02*
X113350000Y-54450000I-50000J0D01*
G01*
G37*
%TD*%
%TO.C,D10*%
G36*
G01*
X80950000Y-49950000D02*
X78650000Y-49950000D01*
G75*
G02*
X78600000Y-49900000I0J50000D01*
G01*
X78600000Y-47400000D01*
G75*
G02*
X78650000Y-47350000I50000J0D01*
G01*
X80950000Y-47350000D01*
G75*
G02*
X81000000Y-47400000I0J-50000D01*
G01*
X81000000Y-49900000D01*
G75*
G02*
X80950000Y-49950000I-50000J0D01*
G01*
G37*
G36*
G01*
X80950000Y-54250000D02*
X78650000Y-54250000D01*
G75*
G02*
X78600000Y-54200000I0J50000D01*
G01*
X78600000Y-51700000D01*
G75*
G02*
X78650000Y-51650000I50000J0D01*
G01*
X80950000Y-51650000D01*
G75*
G02*
X81000000Y-51700000I0J-50000D01*
G01*
X81000000Y-54200000D01*
G75*
G02*
X80950000Y-54250000I-50000J0D01*
G01*
G37*
%TD*%
%TO.C,C34*%
G36*
G01*
X124035000Y-50228262D02*
X124035000Y-47971738D01*
G75*
G02*
X124306738Y-47700000I271738J0D01*
G01*
X125013262Y-47700000D01*
G75*
G02*
X125285000Y-47971738I0J-271738D01*
G01*
X125285000Y-50228262D01*
G75*
G02*
X125013262Y-50500000I-271738J0D01*
G01*
X124306738Y-50500000D01*
G75*
G02*
X124035000Y-50228262I0J271738D01*
G01*
G37*
G36*
G01*
X121085000Y-50228262D02*
X121085000Y-47971738D01*
G75*
G02*
X121356738Y-47700000I271738J0D01*
G01*
X122063262Y-47700000D01*
G75*
G02*
X122335000Y-47971738I0J-271738D01*
G01*
X122335000Y-50228262D01*
G75*
G02*
X122063262Y-50500000I-271738J0D01*
G01*
X121356738Y-50500000D01*
G75*
G02*
X121085000Y-50228262I0J271738D01*
G01*
G37*
%TD*%
%TO.C,C33*%
G36*
G01*
X116760000Y-50310000D02*
X116760000Y-49310000D01*
G75*
G02*
X117035000Y-49035000I275000J0D01*
G01*
X117585000Y-49035000D01*
G75*
G02*
X117860000Y-49310000I0J-275000D01*
G01*
X117860000Y-50310000D01*
G75*
G02*
X117585000Y-50585000I-275000J0D01*
G01*
X117035000Y-50585000D01*
G75*
G02*
X116760000Y-50310000I0J275000D01*
G01*
G37*
G36*
G01*
X114860000Y-50310000D02*
X114860000Y-49310000D01*
G75*
G02*
X115135000Y-49035000I275000J0D01*
G01*
X115685000Y-49035000D01*
G75*
G02*
X115960000Y-49310000I0J-275000D01*
G01*
X115960000Y-50310000D01*
G75*
G02*
X115685000Y-50585000I-275000J0D01*
G01*
X115135000Y-50585000D01*
G75*
G02*
X114860000Y-50310000I0J275000D01*
G01*
G37*
%TD*%
%TO.C,C32*%
G36*
G01*
X123600000Y-52100000D02*
X123600000Y-51100000D01*
G75*
G02*
X123875000Y-50825000I275000J0D01*
G01*
X124425000Y-50825000D01*
G75*
G02*
X124700000Y-51100000I0J-275000D01*
G01*
X124700000Y-52100000D01*
G75*
G02*
X124425000Y-52375000I-275000J0D01*
G01*
X123875000Y-52375000D01*
G75*
G02*
X123600000Y-52100000I0J275000D01*
G01*
G37*
G36*
G01*
X121700000Y-52100000D02*
X121700000Y-51100000D01*
G75*
G02*
X121975000Y-50825000I275000J0D01*
G01*
X122525000Y-50825000D01*
G75*
G02*
X122800000Y-51100000I0J-275000D01*
G01*
X122800000Y-52100000D01*
G75*
G02*
X122525000Y-52375000I-275000J0D01*
G01*
X121975000Y-52375000D01*
G75*
G02*
X121700000Y-52100000I0J275000D01*
G01*
G37*
%TD*%
%TO.C,C31*%
G36*
G01*
X116760000Y-52110000D02*
X116760000Y-51110000D01*
G75*
G02*
X117035000Y-50835000I275000J0D01*
G01*
X117585000Y-50835000D01*
G75*
G02*
X117860000Y-51110000I0J-275000D01*
G01*
X117860000Y-52110000D01*
G75*
G02*
X117585000Y-52385000I-275000J0D01*
G01*
X117035000Y-52385000D01*
G75*
G02*
X116760000Y-52110000I0J275000D01*
G01*
G37*
G36*
G01*
X114860000Y-52110000D02*
X114860000Y-51110000D01*
G75*
G02*
X115135000Y-50835000I275000J0D01*
G01*
X115685000Y-50835000D01*
G75*
G02*
X115960000Y-51110000I0J-275000D01*
G01*
X115960000Y-52110000D01*
G75*
G02*
X115685000Y-52385000I-275000J0D01*
G01*
X115135000Y-52385000D01*
G75*
G02*
X114860000Y-52110000I0J275000D01*
G01*
G37*
%TD*%
%TO.C,C30*%
G36*
G01*
X123117500Y-64310000D02*
X123117500Y-63310000D01*
G75*
G02*
X123392500Y-63035000I275000J0D01*
G01*
X123942500Y-63035000D01*
G75*
G02*
X124217500Y-63310000I0J-275000D01*
G01*
X124217500Y-64310000D01*
G75*
G02*
X123942500Y-64585000I-275000J0D01*
G01*
X123392500Y-64585000D01*
G75*
G02*
X123117500Y-64310000I0J275000D01*
G01*
G37*
G36*
G01*
X121217500Y-64310000D02*
X121217500Y-63310000D01*
G75*
G02*
X121492500Y-63035000I275000J0D01*
G01*
X122042500Y-63035000D01*
G75*
G02*
X122317500Y-63310000I0J-275000D01*
G01*
X122317500Y-64310000D01*
G75*
G02*
X122042500Y-64585000I-275000J0D01*
G01*
X121492500Y-64585000D01*
G75*
G02*
X121217500Y-64310000I0J275000D01*
G01*
G37*
%TD*%
%TO.C,C28*%
G36*
G01*
X117010000Y-64750000D02*
X118010000Y-64750000D01*
G75*
G02*
X118285000Y-65025000I0J-275000D01*
G01*
X118285000Y-65575000D01*
G75*
G02*
X118010000Y-65850000I-275000J0D01*
G01*
X117010000Y-65850000D01*
G75*
G02*
X116735000Y-65575000I0J275000D01*
G01*
X116735000Y-65025000D01*
G75*
G02*
X117010000Y-64750000I275000J0D01*
G01*
G37*
G36*
G01*
X117010000Y-62850000D02*
X118010000Y-62850000D01*
G75*
G02*
X118285000Y-63125000I0J-275000D01*
G01*
X118285000Y-63675000D01*
G75*
G02*
X118010000Y-63950000I-275000J0D01*
G01*
X117010000Y-63950000D01*
G75*
G02*
X116735000Y-63675000I0J275000D01*
G01*
X116735000Y-63125000D01*
G75*
G02*
X117010000Y-62850000I275000J0D01*
G01*
G37*
%TD*%
%TO.C,C27*%
G36*
G01*
X112600000Y-63950000D02*
X111600000Y-63950000D01*
G75*
G02*
X111325000Y-63675000I0J275000D01*
G01*
X111325000Y-63125000D01*
G75*
G02*
X111600000Y-62850000I275000J0D01*
G01*
X112600000Y-62850000D01*
G75*
G02*
X112875000Y-63125000I0J-275000D01*
G01*
X112875000Y-63675000D01*
G75*
G02*
X112600000Y-63950000I-275000J0D01*
G01*
G37*
G36*
G01*
X112600000Y-65850000D02*
X111600000Y-65850000D01*
G75*
G02*
X111325000Y-65575000I0J275000D01*
G01*
X111325000Y-65025000D01*
G75*
G02*
X111600000Y-64750000I275000J0D01*
G01*
X112600000Y-64750000D01*
G75*
G02*
X112875000Y-65025000I0J-275000D01*
G01*
X112875000Y-65575000D01*
G75*
G02*
X112600000Y-65850000I-275000J0D01*
G01*
G37*
%TD*%
%TO.C,C26*%
G36*
G01*
X125500000Y-61200000D02*
X126500000Y-61200000D01*
G75*
G02*
X126775000Y-61475000I0J-275000D01*
G01*
X126775000Y-62025000D01*
G75*
G02*
X126500000Y-62300000I-275000J0D01*
G01*
X125500000Y-62300000D01*
G75*
G02*
X125225000Y-62025000I0J275000D01*
G01*
X125225000Y-61475000D01*
G75*
G02*
X125500000Y-61200000I275000J0D01*
G01*
G37*
G36*
G01*
X125500000Y-59300000D02*
X126500000Y-59300000D01*
G75*
G02*
X126775000Y-59575000I0J-275000D01*
G01*
X126775000Y-60125000D01*
G75*
G02*
X126500000Y-60400000I-275000J0D01*
G01*
X125500000Y-60400000D01*
G75*
G02*
X125225000Y-60125000I0J275000D01*
G01*
X125225000Y-59575000D01*
G75*
G02*
X125500000Y-59300000I275000J0D01*
G01*
G37*
%TD*%
%TO.C,C25*%
G36*
G01*
X119350000Y-62300000D02*
X119350000Y-61300000D01*
G75*
G02*
X119625000Y-61025000I275000J0D01*
G01*
X120175000Y-61025000D01*
G75*
G02*
X120450000Y-61300000I0J-275000D01*
G01*
X120450000Y-62300000D01*
G75*
G02*
X120175000Y-62575000I-275000J0D01*
G01*
X119625000Y-62575000D01*
G75*
G02*
X119350000Y-62300000I0J275000D01*
G01*
G37*
G36*
G01*
X117450000Y-62300000D02*
X117450000Y-61300000D01*
G75*
G02*
X117725000Y-61025000I275000J0D01*
G01*
X118275000Y-61025000D01*
G75*
G02*
X118550000Y-61300000I0J-275000D01*
G01*
X118550000Y-62300000D01*
G75*
G02*
X118275000Y-62575000I-275000J0D01*
G01*
X117725000Y-62575000D01*
G75*
G02*
X117450000Y-62300000I0J275000D01*
G01*
G37*
%TD*%
%TO.C,C24*%
G36*
G01*
X91605000Y-50078262D02*
X91605000Y-47821738D01*
G75*
G02*
X91876738Y-47550000I271738J0D01*
G01*
X92583262Y-47550000D01*
G75*
G02*
X92855000Y-47821738I0J-271738D01*
G01*
X92855000Y-50078262D01*
G75*
G02*
X92583262Y-50350000I-271738J0D01*
G01*
X91876738Y-50350000D01*
G75*
G02*
X91605000Y-50078262I0J271738D01*
G01*
G37*
G36*
G01*
X88655000Y-50078262D02*
X88655000Y-47821738D01*
G75*
G02*
X88926738Y-47550000I271738J0D01*
G01*
X89633262Y-47550000D01*
G75*
G02*
X89905000Y-47821738I0J-271738D01*
G01*
X89905000Y-50078262D01*
G75*
G02*
X89633262Y-50350000I-271738J0D01*
G01*
X88926738Y-50350000D01*
G75*
G02*
X88655000Y-50078262I0J271738D01*
G01*
G37*
%TD*%
%TO.C,C23*%
G36*
G01*
X84280000Y-50420000D02*
X84280000Y-49420000D01*
G75*
G02*
X84555000Y-49145000I275000J0D01*
G01*
X85105000Y-49145000D01*
G75*
G02*
X85380000Y-49420000I0J-275000D01*
G01*
X85380000Y-50420000D01*
G75*
G02*
X85105000Y-50695000I-275000J0D01*
G01*
X84555000Y-50695000D01*
G75*
G02*
X84280000Y-50420000I0J275000D01*
G01*
G37*
G36*
G01*
X82380000Y-50420000D02*
X82380000Y-49420000D01*
G75*
G02*
X82655000Y-49145000I275000J0D01*
G01*
X83205000Y-49145000D01*
G75*
G02*
X83480000Y-49420000I0J-275000D01*
G01*
X83480000Y-50420000D01*
G75*
G02*
X83205000Y-50695000I-275000J0D01*
G01*
X82655000Y-50695000D01*
G75*
G02*
X82380000Y-50420000I0J275000D01*
G01*
G37*
%TD*%
%TO.C,C22*%
G36*
G01*
X91050000Y-52100000D02*
X91050000Y-51100000D01*
G75*
G02*
X91325000Y-50825000I275000J0D01*
G01*
X91875000Y-50825000D01*
G75*
G02*
X92150000Y-51100000I0J-275000D01*
G01*
X92150000Y-52100000D01*
G75*
G02*
X91875000Y-52375000I-275000J0D01*
G01*
X91325000Y-52375000D01*
G75*
G02*
X91050000Y-52100000I0J275000D01*
G01*
G37*
G36*
G01*
X89150000Y-52100000D02*
X89150000Y-51100000D01*
G75*
G02*
X89425000Y-50825000I275000J0D01*
G01*
X89975000Y-50825000D01*
G75*
G02*
X90250000Y-51100000I0J-275000D01*
G01*
X90250000Y-52100000D01*
G75*
G02*
X89975000Y-52375000I-275000J0D01*
G01*
X89425000Y-52375000D01*
G75*
G02*
X89150000Y-52100000I0J275000D01*
G01*
G37*
%TD*%
%TO.C,C21*%
G36*
G01*
X84280000Y-52220000D02*
X84280000Y-51220000D01*
G75*
G02*
X84555000Y-50945000I275000J0D01*
G01*
X85105000Y-50945000D01*
G75*
G02*
X85380000Y-51220000I0J-275000D01*
G01*
X85380000Y-52220000D01*
G75*
G02*
X85105000Y-52495000I-275000J0D01*
G01*
X84555000Y-52495000D01*
G75*
G02*
X84280000Y-52220000I0J275000D01*
G01*
G37*
G36*
G01*
X82380000Y-52220000D02*
X82380000Y-51220000D01*
G75*
G02*
X82655000Y-50945000I275000J0D01*
G01*
X83205000Y-50945000D01*
G75*
G02*
X83480000Y-51220000I0J-275000D01*
G01*
X83480000Y-52220000D01*
G75*
G02*
X83205000Y-52495000I-275000J0D01*
G01*
X82655000Y-52495000D01*
G75*
G02*
X82380000Y-52220000I0J275000D01*
G01*
G37*
%TD*%
%TO.C,C20*%
G36*
G01*
X91050000Y-64220000D02*
X91050000Y-63220000D01*
G75*
G02*
X91325000Y-62945000I275000J0D01*
G01*
X91875000Y-62945000D01*
G75*
G02*
X92150000Y-63220000I0J-275000D01*
G01*
X92150000Y-64220000D01*
G75*
G02*
X91875000Y-64495000I-275000J0D01*
G01*
X91325000Y-64495000D01*
G75*
G02*
X91050000Y-64220000I0J275000D01*
G01*
G37*
G36*
G01*
X89150000Y-64220000D02*
X89150000Y-63220000D01*
G75*
G02*
X89425000Y-62945000I275000J0D01*
G01*
X89975000Y-62945000D01*
G75*
G02*
X90250000Y-63220000I0J-275000D01*
G01*
X90250000Y-64220000D01*
G75*
G02*
X89975000Y-64495000I-275000J0D01*
G01*
X89425000Y-64495000D01*
G75*
G02*
X89150000Y-64220000I0J275000D01*
G01*
G37*
%TD*%
%TO.C,C18*%
G36*
G01*
X85700000Y-65340000D02*
X86700000Y-65340000D01*
G75*
G02*
X86975000Y-65615000I0J-275000D01*
G01*
X86975000Y-66165000D01*
G75*
G02*
X86700000Y-66440000I-275000J0D01*
G01*
X85700000Y-66440000D01*
G75*
G02*
X85425000Y-66165000I0J275000D01*
G01*
X85425000Y-65615000D01*
G75*
G02*
X85700000Y-65340000I275000J0D01*
G01*
G37*
G36*
G01*
X85700000Y-63440000D02*
X86700000Y-63440000D01*
G75*
G02*
X86975000Y-63715000I0J-275000D01*
G01*
X86975000Y-64265000D01*
G75*
G02*
X86700000Y-64540000I-275000J0D01*
G01*
X85700000Y-64540000D01*
G75*
G02*
X85425000Y-64265000I0J275000D01*
G01*
X85425000Y-63715000D01*
G75*
G02*
X85700000Y-63440000I275000J0D01*
G01*
G37*
%TD*%
%TO.C,C17*%
G36*
G01*
X80600000Y-64540000D02*
X79600000Y-64540000D01*
G75*
G02*
X79325000Y-64265000I0J275000D01*
G01*
X79325000Y-63715000D01*
G75*
G02*
X79600000Y-63440000I275000J0D01*
G01*
X80600000Y-63440000D01*
G75*
G02*
X80875000Y-63715000I0J-275000D01*
G01*
X80875000Y-64265000D01*
G75*
G02*
X80600000Y-64540000I-275000J0D01*
G01*
G37*
G36*
G01*
X80600000Y-66440000D02*
X79600000Y-66440000D01*
G75*
G02*
X79325000Y-66165000I0J275000D01*
G01*
X79325000Y-65615000D01*
G75*
G02*
X79600000Y-65340000I275000J0D01*
G01*
X80600000Y-65340000D01*
G75*
G02*
X80875000Y-65615000I0J-275000D01*
G01*
X80875000Y-66165000D01*
G75*
G02*
X80600000Y-66440000I-275000J0D01*
G01*
G37*
%TD*%
%TO.C,C13*%
G36*
G01*
X93100000Y-60950000D02*
X94100000Y-60950000D01*
G75*
G02*
X94375000Y-61225000I0J-275000D01*
G01*
X94375000Y-61775000D01*
G75*
G02*
X94100000Y-62050000I-275000J0D01*
G01*
X93100000Y-62050000D01*
G75*
G02*
X92825000Y-61775000I0J275000D01*
G01*
X92825000Y-61225000D01*
G75*
G02*
X93100000Y-60950000I275000J0D01*
G01*
G37*
G36*
G01*
X93100000Y-59050000D02*
X94100000Y-59050000D01*
G75*
G02*
X94375000Y-59325000I0J-275000D01*
G01*
X94375000Y-59875000D01*
G75*
G02*
X94100000Y-60150000I-275000J0D01*
G01*
X93100000Y-60150000D01*
G75*
G02*
X92825000Y-59875000I0J275000D01*
G01*
X92825000Y-59325000D01*
G75*
G02*
X93100000Y-59050000I275000J0D01*
G01*
G37*
%TD*%
%TO.C,C11*%
G36*
G01*
X87150000Y-62300000D02*
X87150000Y-61300000D01*
G75*
G02*
X87425000Y-61025000I275000J0D01*
G01*
X87975000Y-61025000D01*
G75*
G02*
X88250000Y-61300000I0J-275000D01*
G01*
X88250000Y-62300000D01*
G75*
G02*
X87975000Y-62575000I-275000J0D01*
G01*
X87425000Y-62575000D01*
G75*
G02*
X87150000Y-62300000I0J275000D01*
G01*
G37*
G36*
G01*
X85250000Y-62300000D02*
X85250000Y-61300000D01*
G75*
G02*
X85525000Y-61025000I275000J0D01*
G01*
X86075000Y-61025000D01*
G75*
G02*
X86350000Y-61300000I0J-275000D01*
G01*
X86350000Y-62300000D01*
G75*
G02*
X86075000Y-62575000I-275000J0D01*
G01*
X85525000Y-62575000D01*
G75*
G02*
X85250000Y-62300000I0J275000D01*
G01*
G37*
%TD*%
%TO.C,R8*%
G36*
G01*
X106375611Y-105750000D02*
X105424389Y-105750000D01*
G75*
G02*
X105150000Y-105475611I0J274389D01*
G01*
X105150000Y-104899389D01*
G75*
G02*
X105424389Y-104625000I274389J0D01*
G01*
X106375611Y-104625000D01*
G75*
G02*
X106650000Y-104899389I0J-274389D01*
G01*
X106650000Y-105475611D01*
G75*
G02*
X106375611Y-105750000I-274389J0D01*
G01*
G37*
G36*
G01*
X106375611Y-107575000D02*
X105424389Y-107575000D01*
G75*
G02*
X105150000Y-107300611I0J274389D01*
G01*
X105150000Y-106724389D01*
G75*
G02*
X105424389Y-106450000I274389J0D01*
G01*
X106375611Y-106450000D01*
G75*
G02*
X106650000Y-106724389I0J-274389D01*
G01*
X106650000Y-107300611D01*
G75*
G02*
X106375611Y-107575000I-274389J0D01*
G01*
G37*
%TD*%
%TO.C,R6*%
G36*
G01*
X97394389Y-106450000D02*
X98345611Y-106450000D01*
G75*
G02*
X98620000Y-106724389I0J-274389D01*
G01*
X98620000Y-107300611D01*
G75*
G02*
X98345611Y-107575000I-274389J0D01*
G01*
X97394389Y-107575000D01*
G75*
G02*
X97120000Y-107300611I0J274389D01*
G01*
X97120000Y-106724389D01*
G75*
G02*
X97394389Y-106450000I274389J0D01*
G01*
G37*
G36*
G01*
X97394389Y-104625000D02*
X98345611Y-104625000D01*
G75*
G02*
X98620000Y-104899389I0J-274389D01*
G01*
X98620000Y-105475611D01*
G75*
G02*
X98345611Y-105750000I-274389J0D01*
G01*
X97394389Y-105750000D01*
G75*
G02*
X97120000Y-105475611I0J274389D01*
G01*
X97120000Y-104899389D01*
G75*
G02*
X97394389Y-104625000I274389J0D01*
G01*
G37*
%TD*%
%TO.C,R4*%
G36*
G01*
X81724389Y-106250000D02*
X82675611Y-106250000D01*
G75*
G02*
X82950000Y-106524389I0J-274389D01*
G01*
X82950000Y-107100611D01*
G75*
G02*
X82675611Y-107375000I-274389J0D01*
G01*
X81724389Y-107375000D01*
G75*
G02*
X81450000Y-107100611I0J274389D01*
G01*
X81450000Y-106524389D01*
G75*
G02*
X81724389Y-106250000I274389J0D01*
G01*
G37*
G36*
G01*
X81724389Y-104425000D02*
X82675611Y-104425000D01*
G75*
G02*
X82950000Y-104699389I0J-274389D01*
G01*
X82950000Y-105275611D01*
G75*
G02*
X82675611Y-105550000I-274389J0D01*
G01*
X81724389Y-105550000D01*
G75*
G02*
X81450000Y-105275611I0J274389D01*
G01*
X81450000Y-104699389D01*
G75*
G02*
X81724389Y-104425000I274389J0D01*
G01*
G37*
%TD*%
%TO.C,R2*%
G36*
G01*
X73624389Y-106250000D02*
X74575611Y-106250000D01*
G75*
G02*
X74850000Y-106524389I0J-274389D01*
G01*
X74850000Y-107100611D01*
G75*
G02*
X74575611Y-107375000I-274389J0D01*
G01*
X73624389Y-107375000D01*
G75*
G02*
X73350000Y-107100611I0J274389D01*
G01*
X73350000Y-106524389D01*
G75*
G02*
X73624389Y-106250000I274389J0D01*
G01*
G37*
G36*
G01*
X73624389Y-104425000D02*
X74575611Y-104425000D01*
G75*
G02*
X74850000Y-104699389I0J-274389D01*
G01*
X74850000Y-105275611D01*
G75*
G02*
X74575611Y-105550000I-274389J0D01*
G01*
X73624389Y-105550000D01*
G75*
G02*
X73350000Y-105275611I0J274389D01*
G01*
X73350000Y-104699389D01*
G75*
G02*
X73624389Y-104425000I274389J0D01*
G01*
G37*
%TD*%
D18*
%TO.C,PS4*%
X59800000Y-102900000D03*
X49640000Y-123220000D03*
X69960000Y-102900000D03*
X49640000Y-102900000D03*
X62340000Y-123220000D03*
X57260000Y-123220000D03*
%TD*%
%TO.C,FB1*%
G36*
G01*
X97878820Y-81046204D02*
X97206204Y-81718820D01*
G75*
G02*
X96818160Y-81718820I-194022J194022D01*
G01*
X96410710Y-81311370D01*
G75*
G02*
X96410710Y-80923326I194022J194022D01*
G01*
X97083326Y-80250710D01*
G75*
G02*
X97471370Y-80250710I194022J-194022D01*
G01*
X97878820Y-80658160D01*
G75*
G02*
X97878820Y-81046204I-194022J-194022D01*
G01*
G37*
G36*
G01*
X99169290Y-82336674D02*
X98496674Y-83009290D01*
G75*
G02*
X98108630Y-83009290I-194022J194022D01*
G01*
X97701180Y-82601840D01*
G75*
G02*
X97701180Y-82213796I194022J194022D01*
G01*
X98373796Y-81541180D01*
G75*
G02*
X98761840Y-81541180I194022J-194022D01*
G01*
X99169290Y-81948630D01*
G75*
G02*
X99169290Y-82336674I-194022J-194022D01*
G01*
G37*
%TD*%
%TO.C,D9*%
G36*
G01*
X104500000Y-104200000D02*
X103300000Y-104200000D01*
G75*
G02*
X103250000Y-104150000I0J50000D01*
G01*
X103250000Y-103250000D01*
G75*
G02*
X103300000Y-103200000I50000J0D01*
G01*
X104500000Y-103200000D01*
G75*
G02*
X104550000Y-103250000I0J-50000D01*
G01*
X104550000Y-104150000D01*
G75*
G02*
X104500000Y-104200000I-50000J0D01*
G01*
G37*
G36*
G01*
X104500000Y-107500000D02*
X103300000Y-107500000D01*
G75*
G02*
X103250000Y-107450000I0J50000D01*
G01*
X103250000Y-106550000D01*
G75*
G02*
X103300000Y-106500000I50000J0D01*
G01*
X104500000Y-106500000D01*
G75*
G02*
X104550000Y-106550000I0J-50000D01*
G01*
X104550000Y-107450000D01*
G75*
G02*
X104500000Y-107500000I-50000J0D01*
G01*
G37*
%TD*%
%TO.C,D8*%
G36*
G01*
X99310000Y-99980000D02*
X100510000Y-99980000D01*
G75*
G02*
X100560000Y-100030000I0J-50000D01*
G01*
X100560000Y-100930000D01*
G75*
G02*
X100510000Y-100980000I-50000J0D01*
G01*
X99310000Y-100980000D01*
G75*
G02*
X99260000Y-100930000I0J50000D01*
G01*
X99260000Y-100030000D01*
G75*
G02*
X99310000Y-99980000I50000J0D01*
G01*
G37*
G36*
G01*
X99310000Y-96680000D02*
X100510000Y-96680000D01*
G75*
G02*
X100560000Y-96730000I0J-50000D01*
G01*
X100560000Y-97630000D01*
G75*
G02*
X100510000Y-97680000I-50000J0D01*
G01*
X99310000Y-97680000D01*
G75*
G02*
X99260000Y-97630000I0J50000D01*
G01*
X99260000Y-96730000D01*
G75*
G02*
X99310000Y-96680000I50000J0D01*
G01*
G37*
%TD*%
%TO.C,D7*%
G36*
G01*
X75510000Y-99980000D02*
X76710000Y-99980000D01*
G75*
G02*
X76760000Y-100030000I0J-50000D01*
G01*
X76760000Y-100930000D01*
G75*
G02*
X76710000Y-100980000I-50000J0D01*
G01*
X75510000Y-100980000D01*
G75*
G02*
X75460000Y-100930000I0J50000D01*
G01*
X75460000Y-100030000D01*
G75*
G02*
X75510000Y-99980000I50000J0D01*
G01*
G37*
G36*
G01*
X75510000Y-96680000D02*
X76710000Y-96680000D01*
G75*
G02*
X76760000Y-96730000I0J-50000D01*
G01*
X76760000Y-97630000D01*
G75*
G02*
X76710000Y-97680000I-50000J0D01*
G01*
X75510000Y-97680000D01*
G75*
G02*
X75460000Y-97630000I0J50000D01*
G01*
X75460000Y-96730000D01*
G75*
G02*
X75510000Y-96680000I50000J0D01*
G01*
G37*
%TD*%
%TO.C,D6*%
G36*
G01*
X99300000Y-106500000D02*
X100500000Y-106500000D01*
G75*
G02*
X100550000Y-106550000I0J-50000D01*
G01*
X100550000Y-107450000D01*
G75*
G02*
X100500000Y-107500000I-50000J0D01*
G01*
X99300000Y-107500000D01*
G75*
G02*
X99250000Y-107450000I0J50000D01*
G01*
X99250000Y-106550000D01*
G75*
G02*
X99300000Y-106500000I50000J0D01*
G01*
G37*
G36*
G01*
X99300000Y-103200000D02*
X100500000Y-103200000D01*
G75*
G02*
X100550000Y-103250000I0J-50000D01*
G01*
X100550000Y-104150000D01*
G75*
G02*
X100500000Y-104200000I-50000J0D01*
G01*
X99300000Y-104200000D01*
G75*
G02*
X99250000Y-104150000I0J50000D01*
G01*
X99250000Y-103250000D01*
G75*
G02*
X99300000Y-103200000I50000J0D01*
G01*
G37*
%TD*%
%TO.C,D5*%
G36*
G01*
X79600000Y-106500000D02*
X80800000Y-106500000D01*
G75*
G02*
X80850000Y-106550000I0J-50000D01*
G01*
X80850000Y-107450000D01*
G75*
G02*
X80800000Y-107500000I-50000J0D01*
G01*
X79600000Y-107500000D01*
G75*
G02*
X79550000Y-107450000I0J50000D01*
G01*
X79550000Y-106550000D01*
G75*
G02*
X79600000Y-106500000I50000J0D01*
G01*
G37*
G36*
G01*
X79600000Y-103200000D02*
X80800000Y-103200000D01*
G75*
G02*
X80850000Y-103250000I0J-50000D01*
G01*
X80850000Y-104150000D01*
G75*
G02*
X80800000Y-104200000I-50000J0D01*
G01*
X79600000Y-104200000D01*
G75*
G02*
X79550000Y-104150000I0J50000D01*
G01*
X79550000Y-103250000D01*
G75*
G02*
X79600000Y-103200000I50000J0D01*
G01*
G37*
%TD*%
%TO.C,D4*%
G36*
G01*
X79700000Y-99980000D02*
X80900000Y-99980000D01*
G75*
G02*
X80950000Y-100030000I0J-50000D01*
G01*
X80950000Y-100930000D01*
G75*
G02*
X80900000Y-100980000I-50000J0D01*
G01*
X79700000Y-100980000D01*
G75*
G02*
X79650000Y-100930000I0J50000D01*
G01*
X79650000Y-100030000D01*
G75*
G02*
X79700000Y-99980000I50000J0D01*
G01*
G37*
G36*
G01*
X79700000Y-96680000D02*
X80900000Y-96680000D01*
G75*
G02*
X80950000Y-96730000I0J-50000D01*
G01*
X80950000Y-97630000D01*
G75*
G02*
X80900000Y-97680000I-50000J0D01*
G01*
X79700000Y-97680000D01*
G75*
G02*
X79650000Y-97630000I0J50000D01*
G01*
X79650000Y-96730000D01*
G75*
G02*
X79700000Y-96680000I50000J0D01*
G01*
G37*
%TD*%
%TO.C,D3*%
G36*
G01*
X75510000Y-106500000D02*
X76710000Y-106500000D01*
G75*
G02*
X76760000Y-106550000I0J-50000D01*
G01*
X76760000Y-107450000D01*
G75*
G02*
X76710000Y-107500000I-50000J0D01*
G01*
X75510000Y-107500000D01*
G75*
G02*
X75460000Y-107450000I0J50000D01*
G01*
X75460000Y-106550000D01*
G75*
G02*
X75510000Y-106500000I50000J0D01*
G01*
G37*
G36*
G01*
X75510000Y-103200000D02*
X76710000Y-103200000D01*
G75*
G02*
X76760000Y-103250000I0J-50000D01*
G01*
X76760000Y-104150000D01*
G75*
G02*
X76710000Y-104200000I-50000J0D01*
G01*
X75510000Y-104200000D01*
G75*
G02*
X75460000Y-104150000I0J50000D01*
G01*
X75460000Y-103250000D01*
G75*
G02*
X75510000Y-103200000I50000J0D01*
G01*
G37*
%TD*%
D19*
%TO.C,BT1*%
X122505000Y-98749000D03*
G36*
G01*
X125005000Y-81299000D02*
X120005000Y-81299000D01*
G75*
G02*
X119955000Y-81249000I0J50000D01*
G01*
X119955000Y-76249000D01*
G75*
G02*
X120005000Y-76199000I50000J0D01*
G01*
X125005000Y-76199000D01*
G75*
G02*
X125055000Y-76249000I0J-50000D01*
G01*
X125055000Y-81249000D01*
G75*
G02*
X125005000Y-81299000I-50000J0D01*
G01*
G37*
%TD*%
%TO.C,U4*%
G36*
G01*
X103100000Y-89450000D02*
X103100000Y-87950000D01*
G75*
G02*
X103150000Y-87900000I50000J0D01*
G01*
X105150000Y-87900000D01*
G75*
G02*
X105200000Y-87950000I0J-50000D01*
G01*
X105200000Y-89450000D01*
G75*
G02*
X105150000Y-89500000I-50000J0D01*
G01*
X103150000Y-89500000D01*
G75*
G02*
X103100000Y-89450000I0J50000D01*
G01*
G37*
G36*
G01*
X103100000Y-94050000D02*
X103100000Y-92550000D01*
G75*
G02*
X103150000Y-92500000I50000J0D01*
G01*
X105150000Y-92500000D01*
G75*
G02*
X105200000Y-92550000I0J-50000D01*
G01*
X105200000Y-94050000D01*
G75*
G02*
X105150000Y-94100000I-50000J0D01*
G01*
X103150000Y-94100000D01*
G75*
G02*
X103100000Y-94050000I0J50000D01*
G01*
G37*
G36*
G01*
X103100000Y-91750000D02*
X103100000Y-90250000D01*
G75*
G02*
X103150000Y-90200000I50000J0D01*
G01*
X105150000Y-90200000D01*
G75*
G02*
X105200000Y-90250000I0J-50000D01*
G01*
X105200000Y-91750000D01*
G75*
G02*
X105150000Y-91800000I-50000J0D01*
G01*
X103150000Y-91800000D01*
G75*
G02*
X103100000Y-91750000I0J50000D01*
G01*
G37*
G36*
G01*
X109400000Y-92900000D02*
X109400000Y-89100000D01*
G75*
G02*
X109450000Y-89050000I50000J0D01*
G01*
X111450000Y-89050000D01*
G75*
G02*
X111500000Y-89100000I0J-50000D01*
G01*
X111500000Y-92900000D01*
G75*
G02*
X111450000Y-92950000I-50000J0D01*
G01*
X109450000Y-92950000D01*
G75*
G02*
X109400000Y-92900000I0J50000D01*
G01*
G37*
%TD*%
%TO.C,R7*%
G36*
G01*
X97394389Y-99562500D02*
X98345611Y-99562500D01*
G75*
G02*
X98620000Y-99836889I0J-274389D01*
G01*
X98620000Y-100413111D01*
G75*
G02*
X98345611Y-100687500I-274389J0D01*
G01*
X97394389Y-100687500D01*
G75*
G02*
X97120000Y-100413111I0J274389D01*
G01*
X97120000Y-99836889D01*
G75*
G02*
X97394389Y-99562500I274389J0D01*
G01*
G37*
G36*
G01*
X97394389Y-97737500D02*
X98345611Y-97737500D01*
G75*
G02*
X98620000Y-98011889I0J-274389D01*
G01*
X98620000Y-98588111D01*
G75*
G02*
X98345611Y-98862500I-274389J0D01*
G01*
X97394389Y-98862500D01*
G75*
G02*
X97120000Y-98588111I0J274389D01*
G01*
X97120000Y-98011889D01*
G75*
G02*
X97394389Y-97737500I274389J0D01*
G01*
G37*
%TD*%
%TO.C,R5*%
G36*
G01*
X73624389Y-99562500D02*
X74575611Y-99562500D01*
G75*
G02*
X74850000Y-99836889I0J-274389D01*
G01*
X74850000Y-100413111D01*
G75*
G02*
X74575611Y-100687500I-274389J0D01*
G01*
X73624389Y-100687500D01*
G75*
G02*
X73350000Y-100413111I0J274389D01*
G01*
X73350000Y-99836889D01*
G75*
G02*
X73624389Y-99562500I274389J0D01*
G01*
G37*
G36*
G01*
X73624389Y-97737500D02*
X74575611Y-97737500D01*
G75*
G02*
X74850000Y-98011889I0J-274389D01*
G01*
X74850000Y-98588111D01*
G75*
G02*
X74575611Y-98862500I-274389J0D01*
G01*
X73624389Y-98862500D01*
G75*
G02*
X73350000Y-98588111I0J274389D01*
G01*
X73350000Y-98011889D01*
G75*
G02*
X73624389Y-97737500I274389J0D01*
G01*
G37*
%TD*%
%TO.C,R3*%
G36*
G01*
X81824389Y-99562500D02*
X82775611Y-99562500D01*
G75*
G02*
X83050000Y-99836889I0J-274389D01*
G01*
X83050000Y-100413111D01*
G75*
G02*
X82775611Y-100687500I-274389J0D01*
G01*
X81824389Y-100687500D01*
G75*
G02*
X81550000Y-100413111I0J274389D01*
G01*
X81550000Y-99836889D01*
G75*
G02*
X81824389Y-99562500I274389J0D01*
G01*
G37*
G36*
G01*
X81824389Y-97737500D02*
X82775611Y-97737500D01*
G75*
G02*
X83050000Y-98011889I0J-274389D01*
G01*
X83050000Y-98588111D01*
G75*
G02*
X82775611Y-98862500I-274389J0D01*
G01*
X81824389Y-98862500D01*
G75*
G02*
X81550000Y-98588111I0J274389D01*
G01*
X81550000Y-98011889D01*
G75*
G02*
X81824389Y-97737500I274389J0D01*
G01*
G37*
%TD*%
%TO.C,C14*%
G36*
G01*
X94601040Y-85508147D02*
X95308147Y-84801040D01*
G75*
G02*
X95697055Y-84801040I194454J-194454D01*
G01*
X96085964Y-85189949D01*
G75*
G02*
X96085964Y-85578857I-194454J-194454D01*
G01*
X95378857Y-86285964D01*
G75*
G02*
X94989949Y-86285964I-194454J194454D01*
G01*
X94601040Y-85897055D01*
G75*
G02*
X94601040Y-85508147I194454J194454D01*
G01*
G37*
G36*
G01*
X93257538Y-84164645D02*
X93964645Y-83457538D01*
G75*
G02*
X94353553Y-83457538I194454J-194454D01*
G01*
X94742462Y-83846447D01*
G75*
G02*
X94742462Y-84235355I-194454J-194454D01*
G01*
X94035355Y-84942462D01*
G75*
G02*
X93646447Y-84942462I-194454J194454D01*
G01*
X93257538Y-84553553D01*
G75*
G02*
X93257538Y-84164645I194454J194454D01*
G01*
G37*
%TD*%
%TO.C,C12*%
G36*
G01*
X96663604Y-86429289D02*
X97370711Y-87136396D01*
G75*
G02*
X97370711Y-87525304I-194454J-194454D01*
G01*
X96981802Y-87914213D01*
G75*
G02*
X96592894Y-87914213I-194454J194454D01*
G01*
X95885787Y-87207106D01*
G75*
G02*
X95885787Y-86818198I194454J194454D01*
G01*
X96274696Y-86429289D01*
G75*
G02*
X96663604Y-86429289I194454J-194454D01*
G01*
G37*
G36*
G01*
X98007106Y-85085787D02*
X98714213Y-85792894D01*
G75*
G02*
X98714213Y-86181802I-194454J-194454D01*
G01*
X98325304Y-86570711D01*
G75*
G02*
X97936396Y-86570711I-194454J194454D01*
G01*
X97229289Y-85863604D01*
G75*
G02*
X97229289Y-85474696I194454J194454D01*
G01*
X97618198Y-85085787D01*
G75*
G02*
X98007106Y-85085787I194454J-194454D01*
G01*
G37*
%TD*%
%TO.C,C10*%
G36*
G01*
X83691853Y-89201040D02*
X84398960Y-89908147D01*
G75*
G02*
X84398960Y-90297055I-194454J-194454D01*
G01*
X84010051Y-90685964D01*
G75*
G02*
X83621143Y-90685964I-194454J194454D01*
G01*
X82914036Y-89978857D01*
G75*
G02*
X82914036Y-89589949I194454J194454D01*
G01*
X83302945Y-89201040D01*
G75*
G02*
X83691853Y-89201040I194454J-194454D01*
G01*
G37*
G36*
G01*
X85035355Y-87857538D02*
X85742462Y-88564645D01*
G75*
G02*
X85742462Y-88953553I-194454J-194454D01*
G01*
X85353553Y-89342462D01*
G75*
G02*
X84964645Y-89342462I-194454J194454D01*
G01*
X84257538Y-88635355D01*
G75*
G02*
X84257538Y-88246447I194454J194454D01*
G01*
X84646447Y-87857538D01*
G75*
G02*
X85035355Y-87857538I194454J-194454D01*
G01*
G37*
%TD*%
%TO.C,C9*%
G36*
G01*
X96557538Y-83536396D02*
X97264645Y-82829289D01*
G75*
G02*
X97653553Y-82829289I194454J-194454D01*
G01*
X98042462Y-83218198D01*
G75*
G02*
X98042462Y-83607106I-194454J-194454D01*
G01*
X97335355Y-84314213D01*
G75*
G02*
X96946447Y-84314213I-194454J194454D01*
G01*
X96557538Y-83925304D01*
G75*
G02*
X96557538Y-83536396I194454J194454D01*
G01*
G37*
G36*
G01*
X95214036Y-82192894D02*
X95921143Y-81485787D01*
G75*
G02*
X96310051Y-81485787I194454J-194454D01*
G01*
X96698960Y-81874696D01*
G75*
G02*
X96698960Y-82263604I-194454J-194454D01*
G01*
X95991853Y-82970711D01*
G75*
G02*
X95602945Y-82970711I-194454J194454D01*
G01*
X95214036Y-82581802D01*
G75*
G02*
X95214036Y-82192894I194454J194454D01*
G01*
G37*
%TD*%
%TO.C,C8*%
G36*
G01*
X89329289Y-72436396D02*
X90036396Y-71729289D01*
G75*
G02*
X90425304Y-71729289I194454J-194454D01*
G01*
X90814213Y-72118198D01*
G75*
G02*
X90814213Y-72507106I-194454J-194454D01*
G01*
X90107106Y-73214213D01*
G75*
G02*
X89718198Y-73214213I-194454J194454D01*
G01*
X89329289Y-72825304D01*
G75*
G02*
X89329289Y-72436396I194454J194454D01*
G01*
G37*
G36*
G01*
X87985787Y-71092894D02*
X88692894Y-70385787D01*
G75*
G02*
X89081802Y-70385787I194454J-194454D01*
G01*
X89470711Y-70774696D01*
G75*
G02*
X89470711Y-71163604I-194454J-194454D01*
G01*
X88763604Y-71870711D01*
G75*
G02*
X88374696Y-71870711I-194454J194454D01*
G01*
X87985787Y-71481802D01*
G75*
G02*
X87985787Y-71092894I194454J194454D01*
G01*
G37*
%TD*%
%TO.C,C7*%
G36*
G01*
X78368960Y-75841853D02*
X77661853Y-76548960D01*
G75*
G02*
X77272945Y-76548960I-194454J194454D01*
G01*
X76884036Y-76160051D01*
G75*
G02*
X76884036Y-75771143I194454J194454D01*
G01*
X77591143Y-75064036D01*
G75*
G02*
X77980051Y-75064036I194454J-194454D01*
G01*
X78368960Y-75452945D01*
G75*
G02*
X78368960Y-75841853I-194454J-194454D01*
G01*
G37*
G36*
G01*
X79712462Y-77185355D02*
X79005355Y-77892462D01*
G75*
G02*
X78616447Y-77892462I-194454J194454D01*
G01*
X78227538Y-77503553D01*
G75*
G02*
X78227538Y-77114645I194454J194454D01*
G01*
X78934645Y-76407538D01*
G75*
G02*
X79323553Y-76407538I194454J-194454D01*
G01*
X79712462Y-76796447D01*
G75*
G02*
X79712462Y-77185355I-194454J-194454D01*
G01*
G37*
%TD*%
%TO.C,C6*%
G36*
G01*
X76970711Y-77163604D02*
X76263604Y-77870711D01*
G75*
G02*
X75874696Y-77870711I-194454J194454D01*
G01*
X75485787Y-77481802D01*
G75*
G02*
X75485787Y-77092894I194454J194454D01*
G01*
X76192894Y-76385787D01*
G75*
G02*
X76581802Y-76385787I194454J-194454D01*
G01*
X76970711Y-76774696D01*
G75*
G02*
X76970711Y-77163604I-194454J-194454D01*
G01*
G37*
G36*
G01*
X78314213Y-78507106D02*
X77607106Y-79214213D01*
G75*
G02*
X77218198Y-79214213I-194454J194454D01*
G01*
X76829289Y-78825304D01*
G75*
G02*
X76829289Y-78436396I194454J194454D01*
G01*
X77536396Y-77729289D01*
G75*
G02*
X77925304Y-77729289I194454J-194454D01*
G01*
X78314213Y-78118198D01*
G75*
G02*
X78314213Y-78507106I-194454J-194454D01*
G01*
G37*
%TD*%
%TO.C,C5*%
G36*
G01*
X78563604Y-88129289D02*
X79270711Y-88836396D01*
G75*
G02*
X79270711Y-89225304I-194454J-194454D01*
G01*
X78881802Y-89614213D01*
G75*
G02*
X78492894Y-89614213I-194454J194454D01*
G01*
X77785787Y-88907106D01*
G75*
G02*
X77785787Y-88518198I194454J194454D01*
G01*
X78174696Y-88129289D01*
G75*
G02*
X78563604Y-88129289I194454J-194454D01*
G01*
G37*
G36*
G01*
X79907106Y-86785787D02*
X80614213Y-87492894D01*
G75*
G02*
X80614213Y-87881802I-194454J-194454D01*
G01*
X80225304Y-88270711D01*
G75*
G02*
X79836396Y-88270711I-194454J194454D01*
G01*
X79129289Y-87563604D01*
G75*
G02*
X79129289Y-87174696I194454J194454D01*
G01*
X79518198Y-86785787D01*
G75*
G02*
X79907106Y-86785787I194454J-194454D01*
G01*
G37*
%TD*%
%TO.C,C4*%
G36*
G01*
X71842462Y-87235355D02*
X71135355Y-87942462D01*
G75*
G02*
X70746447Y-87942462I-194454J194454D01*
G01*
X70357538Y-87553553D01*
G75*
G02*
X70357538Y-87164645I194454J194454D01*
G01*
X71064645Y-86457538D01*
G75*
G02*
X71453553Y-86457538I194454J-194454D01*
G01*
X71842462Y-86846447D01*
G75*
G02*
X71842462Y-87235355I-194454J-194454D01*
G01*
G37*
G36*
G01*
X73185964Y-88578857D02*
X72478857Y-89285964D01*
G75*
G02*
X72089949Y-89285964I-194454J194454D01*
G01*
X71701040Y-88897055D01*
G75*
G02*
X71701040Y-88508147I194454J194454D01*
G01*
X72408147Y-87801040D01*
G75*
G02*
X72797055Y-87801040I194454J-194454D01*
G01*
X73185964Y-88189949D01*
G75*
G02*
X73185964Y-88578857I-194454J-194454D01*
G01*
G37*
%TD*%
%TO.C,C3*%
G36*
G01*
X76029289Y-84136396D02*
X76736396Y-83429289D01*
G75*
G02*
X77125304Y-83429289I194454J-194454D01*
G01*
X77514213Y-83818198D01*
G75*
G02*
X77514213Y-84207106I-194454J-194454D01*
G01*
X76807106Y-84914213D01*
G75*
G02*
X76418198Y-84914213I-194454J194454D01*
G01*
X76029289Y-84525304D01*
G75*
G02*
X76029289Y-84136396I194454J194454D01*
G01*
G37*
G36*
G01*
X74685787Y-82792894D02*
X75392894Y-82085787D01*
G75*
G02*
X75781802Y-82085787I194454J-194454D01*
G01*
X76170711Y-82474696D01*
G75*
G02*
X76170711Y-82863604I-194454J-194454D01*
G01*
X75463604Y-83570711D01*
G75*
G02*
X75074696Y-83570711I-194454J194454D01*
G01*
X74685787Y-83181802D01*
G75*
G02*
X74685787Y-82792894I194454J194454D01*
G01*
G37*
%TD*%
%TO.C,F2*%
G36*
G01*
X64022221Y-52925000D02*
X66977779Y-52925000D01*
G75*
G02*
X67250000Y-53197221I0J-272221D01*
G01*
X67250000Y-53877779D01*
G75*
G02*
X66977779Y-54150000I-272221J0D01*
G01*
X64022221Y-54150000D01*
G75*
G02*
X63750000Y-53877779I0J272221D01*
G01*
X63750000Y-53197221D01*
G75*
G02*
X64022221Y-52925000I272221J0D01*
G01*
G37*
G36*
G01*
X64022221Y-48650000D02*
X66977779Y-48650000D01*
G75*
G02*
X67250000Y-48922221I0J-272221D01*
G01*
X67250000Y-49602779D01*
G75*
G02*
X66977779Y-49875000I-272221J0D01*
G01*
X64022221Y-49875000D01*
G75*
G02*
X63750000Y-49602779I0J272221D01*
G01*
X63750000Y-48922221D01*
G75*
G02*
X64022221Y-48650000I272221J0D01*
G01*
G37*
%TD*%
%TO.C,F1*%
G36*
G01*
X56777779Y-49875000D02*
X53822221Y-49875000D01*
G75*
G02*
X53550000Y-49602779I0J272221D01*
G01*
X53550000Y-48922221D01*
G75*
G02*
X53822221Y-48650000I272221J0D01*
G01*
X56777779Y-48650000D01*
G75*
G02*
X57050000Y-48922221I0J-272221D01*
G01*
X57050000Y-49602779D01*
G75*
G02*
X56777779Y-49875000I-272221J0D01*
G01*
G37*
G36*
G01*
X56777779Y-54150000D02*
X53822221Y-54150000D01*
G75*
G02*
X53550000Y-53877779I0J272221D01*
G01*
X53550000Y-53197221D01*
G75*
G02*
X53822221Y-52925000I272221J0D01*
G01*
X56777779Y-52925000D01*
G75*
G02*
X57050000Y-53197221I0J-272221D01*
G01*
X57050000Y-53877779D01*
G75*
G02*
X56777779Y-54150000I-272221J0D01*
G01*
G37*
%TD*%
%TO.C,JP1*%
G36*
G01*
X55820000Y-58410000D02*
X55820000Y-56910000D01*
G75*
G02*
X55870000Y-56860000I50000J0D01*
G01*
X56870000Y-56860000D01*
G75*
G02*
X56920000Y-56910000I0J-50000D01*
G01*
X56920000Y-58410000D01*
G75*
G02*
X56870000Y-58460000I-50000J0D01*
G01*
X55870000Y-58460000D01*
G75*
G02*
X55820000Y-58410000I0J50000D01*
G01*
G37*
G36*
G01*
X57120000Y-58410000D02*
X57120000Y-56910000D01*
G75*
G02*
X57170000Y-56860000I50000J0D01*
G01*
X58170000Y-56860000D01*
G75*
G02*
X58220000Y-56910000I0J-50000D01*
G01*
X58220000Y-58410000D01*
G75*
G02*
X58170000Y-58460000I-50000J0D01*
G01*
X57170000Y-58460000D01*
G75*
G02*
X57120000Y-58410000I0J50000D01*
G01*
G37*
%TD*%
%TO.C,R12*%
G36*
G01*
X109424389Y-44150000D02*
X110375611Y-44150000D01*
G75*
G02*
X110650000Y-44424389I0J-274389D01*
G01*
X110650000Y-45000611D01*
G75*
G02*
X110375611Y-45275000I-274389J0D01*
G01*
X109424389Y-45275000D01*
G75*
G02*
X109150000Y-45000611I0J274389D01*
G01*
X109150000Y-44424389D01*
G75*
G02*
X109424389Y-44150000I274389J0D01*
G01*
G37*
G36*
G01*
X109424389Y-42325000D02*
X110375611Y-42325000D01*
G75*
G02*
X110650000Y-42599389I0J-274389D01*
G01*
X110650000Y-43175611D01*
G75*
G02*
X110375611Y-43450000I-274389J0D01*
G01*
X109424389Y-43450000D01*
G75*
G02*
X109150000Y-43175611I0J274389D01*
G01*
X109150000Y-42599389D01*
G75*
G02*
X109424389Y-42325000I274389J0D01*
G01*
G37*
%TD*%
%TO.C,R11*%
G36*
G01*
X49324389Y-43950000D02*
X50275611Y-43950000D01*
G75*
G02*
X50550000Y-44224389I0J-274389D01*
G01*
X50550000Y-44800611D01*
G75*
G02*
X50275611Y-45075000I-274389J0D01*
G01*
X49324389Y-45075000D01*
G75*
G02*
X49050000Y-44800611I0J274389D01*
G01*
X49050000Y-44224389D01*
G75*
G02*
X49324389Y-43950000I274389J0D01*
G01*
G37*
G36*
G01*
X49324389Y-42125000D02*
X50275611Y-42125000D01*
G75*
G02*
X50550000Y-42399389I0J-274389D01*
G01*
X50550000Y-42975611D01*
G75*
G02*
X50275611Y-43250000I-274389J0D01*
G01*
X49324389Y-43250000D01*
G75*
G02*
X49050000Y-42975611I0J274389D01*
G01*
X49050000Y-42399389D01*
G75*
G02*
X49324389Y-42125000I274389J0D01*
G01*
G37*
%TD*%
%TO.C,R10*%
G36*
G01*
X68824389Y-43937500D02*
X69775611Y-43937500D01*
G75*
G02*
X70050000Y-44211889I0J-274389D01*
G01*
X70050000Y-44788111D01*
G75*
G02*
X69775611Y-45062500I-274389J0D01*
G01*
X68824389Y-45062500D01*
G75*
G02*
X68550000Y-44788111I0J274389D01*
G01*
X68550000Y-44211889D01*
G75*
G02*
X68824389Y-43937500I274389J0D01*
G01*
G37*
G36*
G01*
X68824389Y-42112500D02*
X69775611Y-42112500D01*
G75*
G02*
X70050000Y-42386889I0J-274389D01*
G01*
X70050000Y-42963111D01*
G75*
G02*
X69775611Y-43237500I-274389J0D01*
G01*
X68824389Y-43237500D01*
G75*
G02*
X68550000Y-42963111I0J274389D01*
G01*
X68550000Y-42386889D01*
G75*
G02*
X68824389Y-42112500I274389J0D01*
G01*
G37*
%TD*%
%TO.C,D2*%
G36*
G01*
X62700000Y-50350000D02*
X61500000Y-50350000D01*
G75*
G02*
X61450000Y-50300000I0J50000D01*
G01*
X61450000Y-49400000D01*
G75*
G02*
X61500000Y-49350000I50000J0D01*
G01*
X62700000Y-49350000D01*
G75*
G02*
X62750000Y-49400000I0J-50000D01*
G01*
X62750000Y-50300000D01*
G75*
G02*
X62700000Y-50350000I-50000J0D01*
G01*
G37*
G36*
G01*
X62700000Y-53650000D02*
X61500000Y-53650000D01*
G75*
G02*
X61450000Y-53600000I0J50000D01*
G01*
X61450000Y-52700000D01*
G75*
G02*
X61500000Y-52650000I50000J0D01*
G01*
X62700000Y-52650000D01*
G75*
G02*
X62750000Y-52700000I0J-50000D01*
G01*
X62750000Y-53600000D01*
G75*
G02*
X62700000Y-53650000I-50000J0D01*
G01*
G37*
%TD*%
%TO.C,D1*%
G36*
G01*
X52500000Y-50350000D02*
X51300000Y-50350000D01*
G75*
G02*
X51250000Y-50300000I0J50000D01*
G01*
X51250000Y-49400000D01*
G75*
G02*
X51300000Y-49350000I50000J0D01*
G01*
X52500000Y-49350000D01*
G75*
G02*
X52550000Y-49400000I0J-50000D01*
G01*
X52550000Y-50300000D01*
G75*
G02*
X52500000Y-50350000I-50000J0D01*
G01*
G37*
G36*
G01*
X52500000Y-53650000D02*
X51300000Y-53650000D01*
G75*
G02*
X51250000Y-53600000I0J50000D01*
G01*
X51250000Y-52700000D01*
G75*
G02*
X51300000Y-52650000I50000J0D01*
G01*
X52500000Y-52650000D01*
G75*
G02*
X52550000Y-52700000I0J-50000D01*
G01*
X52550000Y-53600000D01*
G75*
G02*
X52500000Y-53650000I-50000J0D01*
G01*
G37*
%TD*%
D10*
%TO.C,JP2*%
X115165000Y-77649000D03*
G36*
G01*
X116855000Y-76749000D02*
X118555000Y-76749000D01*
G75*
G02*
X118605000Y-76799000I0J-50000D01*
G01*
X118605000Y-78499000D01*
G75*
G02*
X118555000Y-78549000I-50000J0D01*
G01*
X116855000Y-78549000D01*
G75*
G02*
X116805000Y-78499000I0J50000D01*
G01*
X116805000Y-76799000D01*
G75*
G02*
X116855000Y-76749000I50000J0D01*
G01*
G37*
%TD*%
%TO.C,U3*%
G36*
G01*
X56890000Y-61310000D02*
X56540000Y-61310000D01*
G75*
G02*
X56365000Y-61135000I0J175000D01*
G01*
X56365000Y-59435000D01*
G75*
G02*
X56540000Y-59260000I175000J0D01*
G01*
X56890000Y-59260000D01*
G75*
G02*
X57065000Y-59435000I0J-175000D01*
G01*
X57065000Y-61135000D01*
G75*
G02*
X56890000Y-61310000I-175000J0D01*
G01*
G37*
G36*
G01*
X58160000Y-61310000D02*
X57810000Y-61310000D01*
G75*
G02*
X57635000Y-61135000I0J175000D01*
G01*
X57635000Y-59435000D01*
G75*
G02*
X57810000Y-59260000I175000J0D01*
G01*
X58160000Y-59260000D01*
G75*
G02*
X58335000Y-59435000I0J-175000D01*
G01*
X58335000Y-61135000D01*
G75*
G02*
X58160000Y-61310000I-175000J0D01*
G01*
G37*
G36*
G01*
X59430000Y-61310000D02*
X59080000Y-61310000D01*
G75*
G02*
X58905000Y-61135000I0J175000D01*
G01*
X58905000Y-59435000D01*
G75*
G02*
X59080000Y-59260000I175000J0D01*
G01*
X59430000Y-59260000D01*
G75*
G02*
X59605000Y-59435000I0J-175000D01*
G01*
X59605000Y-61135000D01*
G75*
G02*
X59430000Y-61310000I-175000J0D01*
G01*
G37*
G36*
G01*
X60700000Y-61310000D02*
X60350000Y-61310000D01*
G75*
G02*
X60175000Y-61135000I0J175000D01*
G01*
X60175000Y-59435000D01*
G75*
G02*
X60350000Y-59260000I175000J0D01*
G01*
X60700000Y-59260000D01*
G75*
G02*
X60875000Y-59435000I0J-175000D01*
G01*
X60875000Y-61135000D01*
G75*
G02*
X60700000Y-61310000I-175000J0D01*
G01*
G37*
G36*
G01*
X60700000Y-66260000D02*
X60350000Y-66260000D01*
G75*
G02*
X60175000Y-66085000I0J175000D01*
G01*
X60175000Y-64385000D01*
G75*
G02*
X60350000Y-64210000I175000J0D01*
G01*
X60700000Y-64210000D01*
G75*
G02*
X60875000Y-64385000I0J-175000D01*
G01*
X60875000Y-66085000D01*
G75*
G02*
X60700000Y-66260000I-175000J0D01*
G01*
G37*
G36*
G01*
X59430000Y-66260000D02*
X59080000Y-66260000D01*
G75*
G02*
X58905000Y-66085000I0J175000D01*
G01*
X58905000Y-64385000D01*
G75*
G02*
X59080000Y-64210000I175000J0D01*
G01*
X59430000Y-64210000D01*
G75*
G02*
X59605000Y-64385000I0J-175000D01*
G01*
X59605000Y-66085000D01*
G75*
G02*
X59430000Y-66260000I-175000J0D01*
G01*
G37*
G36*
G01*
X58160000Y-66260000D02*
X57810000Y-66260000D01*
G75*
G02*
X57635000Y-66085000I0J175000D01*
G01*
X57635000Y-64385000D01*
G75*
G02*
X57810000Y-64210000I175000J0D01*
G01*
X58160000Y-64210000D01*
G75*
G02*
X58335000Y-64385000I0J-175000D01*
G01*
X58335000Y-66085000D01*
G75*
G02*
X58160000Y-66260000I-175000J0D01*
G01*
G37*
G36*
G01*
X56890000Y-66260000D02*
X56540000Y-66260000D01*
G75*
G02*
X56365000Y-66085000I0J175000D01*
G01*
X56365000Y-64385000D01*
G75*
G02*
X56540000Y-64210000I175000J0D01*
G01*
X56890000Y-64210000D01*
G75*
G02*
X57065000Y-64385000I0J-175000D01*
G01*
X57065000Y-66085000D01*
G75*
G02*
X56890000Y-66260000I-175000J0D01*
G01*
G37*
%TD*%
%TO.C,U2*%
G36*
G01*
X104151400Y-78797990D02*
X103903913Y-79045477D01*
G75*
G02*
X103656425Y-79045477I-123744J123744D01*
G01*
X102454344Y-77843396D01*
G75*
G02*
X102454344Y-77595908I123744J123744D01*
G01*
X102701831Y-77348421D01*
G75*
G02*
X102949319Y-77348421I123744J-123744D01*
G01*
X104151400Y-78550502D01*
G75*
G02*
X104151400Y-78797990I-123744J-123744D01*
G01*
G37*
G36*
G01*
X105049426Y-77899965D02*
X104801939Y-78147452D01*
G75*
G02*
X104554451Y-78147452I-123744J123744D01*
G01*
X103352370Y-76945371D01*
G75*
G02*
X103352370Y-76697883I123744J123744D01*
G01*
X103599857Y-76450396D01*
G75*
G02*
X103847345Y-76450396I123744J-123744D01*
G01*
X105049426Y-77652477D01*
G75*
G02*
X105049426Y-77899965I-123744J-123744D01*
G01*
G37*
G36*
G01*
X105947452Y-77001939D02*
X105699965Y-77249426D01*
G75*
G02*
X105452477Y-77249426I-123744J123744D01*
G01*
X104250396Y-76047345D01*
G75*
G02*
X104250396Y-75799857I123744J123744D01*
G01*
X104497883Y-75552370D01*
G75*
G02*
X104745371Y-75552370I123744J-123744D01*
G01*
X105947452Y-76754451D01*
G75*
G02*
X105947452Y-77001939I-123744J-123744D01*
G01*
G37*
G36*
G01*
X106845477Y-76103913D02*
X106597990Y-76351400D01*
G75*
G02*
X106350502Y-76351400I-123744J123744D01*
G01*
X105148421Y-75149319D01*
G75*
G02*
X105148421Y-74901831I123744J123744D01*
G01*
X105395908Y-74654344D01*
G75*
G02*
X105643396Y-74654344I123744J-123744D01*
G01*
X106845477Y-75856425D01*
G75*
G02*
X106845477Y-76103913I-123744J-123744D01*
G01*
G37*
G36*
G01*
X110345656Y-79604092D02*
X110098169Y-79851579D01*
G75*
G02*
X109850681Y-79851579I-123744J123744D01*
G01*
X108648600Y-78649498D01*
G75*
G02*
X108648600Y-78402010I123744J123744D01*
G01*
X108896087Y-78154523D01*
G75*
G02*
X109143575Y-78154523I123744J-123744D01*
G01*
X110345656Y-79356604D01*
G75*
G02*
X110345656Y-79604092I-123744J-123744D01*
G01*
G37*
G36*
G01*
X109447630Y-80502117D02*
X109200143Y-80749604D01*
G75*
G02*
X108952655Y-80749604I-123744J123744D01*
G01*
X107750574Y-79547523D01*
G75*
G02*
X107750574Y-79300035I123744J123744D01*
G01*
X107998061Y-79052548D01*
G75*
G02*
X108245549Y-79052548I123744J-123744D01*
G01*
X109447630Y-80254629D01*
G75*
G02*
X109447630Y-80502117I-123744J-123744D01*
G01*
G37*
G36*
G01*
X108549604Y-81400143D02*
X108302117Y-81647630D01*
G75*
G02*
X108054629Y-81647630I-123744J123744D01*
G01*
X106852548Y-80445549D01*
G75*
G02*
X106852548Y-80198061I123744J123744D01*
G01*
X107100035Y-79950574D01*
G75*
G02*
X107347523Y-79950574I123744J-123744D01*
G01*
X108549604Y-81152655D01*
G75*
G02*
X108549604Y-81400143I-123744J-123744D01*
G01*
G37*
G36*
G01*
X107651579Y-82298169D02*
X107404092Y-82545656D01*
G75*
G02*
X107156604Y-82545656I-123744J123744D01*
G01*
X105954523Y-81343575D01*
G75*
G02*
X105954523Y-81096087I123744J123744D01*
G01*
X106202010Y-80848600D01*
G75*
G02*
X106449498Y-80848600I123744J-123744D01*
G01*
X107651579Y-82050681D01*
G75*
G02*
X107651579Y-82298169I-123744J-123744D01*
G01*
G37*
%TD*%
%TO.C,R1*%
G36*
G01*
X60020000Y-58135611D02*
X60020000Y-57184389D01*
G75*
G02*
X60294389Y-56910000I274389J0D01*
G01*
X60870611Y-56910000D01*
G75*
G02*
X61145000Y-57184389I0J-274389D01*
G01*
X61145000Y-58135611D01*
G75*
G02*
X60870611Y-58410000I-274389J0D01*
G01*
X60294389Y-58410000D01*
G75*
G02*
X60020000Y-58135611I0J274389D01*
G01*
G37*
G36*
G01*
X58195000Y-58135611D02*
X58195000Y-57184389D01*
G75*
G02*
X58469389Y-56910000I274389J0D01*
G01*
X59045611Y-56910000D01*
G75*
G02*
X59320000Y-57184389I0J-274389D01*
G01*
X59320000Y-58135611D01*
G75*
G02*
X59045611Y-58410000I-274389J0D01*
G01*
X58469389Y-58410000D01*
G75*
G02*
X58195000Y-58135611I0J274389D01*
G01*
G37*
%TD*%
%TO.C,C2*%
G36*
G01*
X58200000Y-67300000D02*
X58200000Y-68300000D01*
G75*
G02*
X57925000Y-68575000I-275000J0D01*
G01*
X57375000Y-68575000D01*
G75*
G02*
X57100000Y-68300000I0J275000D01*
G01*
X57100000Y-67300000D01*
G75*
G02*
X57375000Y-67025000I275000J0D01*
G01*
X57925000Y-67025000D01*
G75*
G02*
X58200000Y-67300000I0J-275000D01*
G01*
G37*
G36*
G01*
X60100000Y-67300000D02*
X60100000Y-68300000D01*
G75*
G02*
X59825000Y-68575000I-275000J0D01*
G01*
X59275000Y-68575000D01*
G75*
G02*
X59000000Y-68300000I0J275000D01*
G01*
X59000000Y-67300000D01*
G75*
G02*
X59275000Y-67025000I275000J0D01*
G01*
X59825000Y-67025000D01*
G75*
G02*
X60100000Y-67300000I0J-275000D01*
G01*
G37*
%TD*%
%TO.C,C1*%
G36*
G01*
X100500000Y-77750000D02*
X101500000Y-77750000D01*
G75*
G02*
X101775000Y-78025000I0J-275000D01*
G01*
X101775000Y-78575000D01*
G75*
G02*
X101500000Y-78850000I-275000J0D01*
G01*
X100500000Y-78850000D01*
G75*
G02*
X100225000Y-78575000I0J275000D01*
G01*
X100225000Y-78025000D01*
G75*
G02*
X100500000Y-77750000I275000J0D01*
G01*
G37*
G36*
G01*
X100500000Y-75850000D02*
X101500000Y-75850000D01*
G75*
G02*
X101775000Y-76125000I0J-275000D01*
G01*
X101775000Y-76675000D01*
G75*
G02*
X101500000Y-76950000I-275000J0D01*
G01*
X100500000Y-76950000D01*
G75*
G02*
X100225000Y-76675000I0J275000D01*
G01*
X100225000Y-76125000D01*
G75*
G02*
X100500000Y-75850000I275000J0D01*
G01*
G37*
%TD*%
M02*
