%TF.GenerationSoftware,KiCad,Pcbnew,5.1.7-a382d34a8~88~ubuntu20.04.1*%
%TF.CreationDate,2021-05-21T21:27:29+02:00*%
%TF.ProjectId,Shield_Nucleo,53686965-6c64-45f4-9e75-636c656f2e6b,rev?*%
%TF.SameCoordinates,Original*%
%TF.FileFunction,Legend,Bot*%
%TF.FilePolarity,Positive*%
%FSLAX46Y46*%
G04 Gerber Fmt 4.6, Leading zero omitted, Abs format (unit mm)*
G04 Created by KiCad (PCBNEW 5.1.7-a382d34a8~88~ubuntu20.04.1) date 2021-05-21 21:27:29*
%MOMM*%
%LPD*%
G01*
G04 APERTURE LIST*
%ADD10C,0.150000*%
%ADD11C,0.120000*%
G04 APERTURE END LIST*
D10*
X78327619Y-100710000D02*
X79327619Y-100710000D01*
X78327619Y-99710000D02*
X78327619Y-100281428D01*
X78327619Y-99995714D02*
X79327619Y-99995714D01*
X79184761Y-100090952D01*
X79089523Y-100186190D01*
X79041904Y-100281428D01*
X78327619Y-99281428D02*
X79327619Y-99281428D01*
X78851428Y-99281428D02*
X78851428Y-98710000D01*
X78327619Y-98710000D02*
X79327619Y-98710000D01*
X72962380Y-96285714D02*
X73962380Y-96619047D01*
X72962380Y-96952380D01*
X73962380Y-97809523D02*
X73962380Y-97238095D01*
X73962380Y-97523809D02*
X72962380Y-97523809D01*
X73105238Y-97428571D01*
X73200476Y-97333333D01*
X73248095Y-97238095D01*
X73962380Y-98714285D02*
X73962380Y-98238095D01*
X72962380Y-98238095D01*
X98964285Y-92012380D02*
X98630952Y-93012380D01*
X98297619Y-92012380D01*
X98011904Y-92107619D02*
X97964285Y-92060000D01*
X97869047Y-92012380D01*
X97630952Y-92012380D01*
X97535714Y-92060000D01*
X97488095Y-92107619D01*
X97440476Y-92202857D01*
X97440476Y-92298095D01*
X97488095Y-92440952D01*
X98059523Y-93012380D01*
X97440476Y-93012380D01*
X96535714Y-93012380D02*
X97011904Y-93012380D01*
X97011904Y-92012380D01*
X89883333Y-96492380D02*
X89550000Y-97492380D01*
X89216666Y-96492380D01*
X88359523Y-97492380D02*
X88930952Y-97492380D01*
X88645238Y-97492380D02*
X88645238Y-96492380D01*
X88740476Y-96635238D01*
X88835714Y-96730476D01*
X88930952Y-96778095D01*
X87930952Y-97492380D02*
X87930952Y-96492380D01*
X87930952Y-96968571D02*
X87359523Y-96968571D01*
X87359523Y-97492380D02*
X87359523Y-96492380D01*
X80290952Y-101472380D02*
X80290952Y-100472380D01*
X79862380Y-100567619D02*
X79814761Y-100520000D01*
X79719523Y-100472380D01*
X79481428Y-100472380D01*
X79386190Y-100520000D01*
X79338571Y-100567619D01*
X79290952Y-100662857D01*
X79290952Y-100758095D01*
X79338571Y-100900952D01*
X79910000Y-101472380D01*
X79290952Y-101472380D01*
X78386190Y-101472380D02*
X78862380Y-101472380D01*
X78862380Y-100472380D01*
X82510952Y-94592380D02*
X82510952Y-93592380D01*
X81510952Y-94592380D02*
X82082380Y-94592380D01*
X81796666Y-94592380D02*
X81796666Y-93592380D01*
X81891904Y-93735238D01*
X81987142Y-93830476D01*
X82082380Y-93878095D01*
X80606190Y-94592380D02*
X81082380Y-94592380D01*
X81082380Y-93592380D01*
D11*
%TO.C,TH1*%
X105860000Y-100760000D02*
X105860000Y-100000000D01*
X105100000Y-100760000D02*
X105860000Y-100760000D01*
X103570000Y-94440000D02*
X103570000Y-98440000D01*
X104090000Y-94440000D02*
X103570000Y-94440000D01*
X104090000Y-98440000D02*
X104090000Y-94440000D01*
X104465000Y-99240000D02*
X104465000Y-98440000D01*
X104940000Y-98440000D02*
X104940000Y-94440000D01*
X105060000Y-98440000D02*
X105060000Y-94440000D01*
X105180000Y-98440000D02*
X105180000Y-94440000D01*
X105300000Y-98440000D02*
X105300000Y-94440000D01*
X104840000Y-94440000D02*
X104840000Y-98440000D01*
X105360000Y-94440000D02*
X104840000Y-94440000D01*
X105360000Y-98440000D02*
X105360000Y-94440000D01*
X103135000Y-99560000D02*
X103210323Y-99560000D01*
X103135000Y-98440000D02*
X103135000Y-99560000D01*
X105795000Y-98440000D02*
X103135000Y-98440000D01*
X105795000Y-99240000D02*
X105795000Y-98440000D01*
D10*
X106187380Y-96281785D02*
X106187380Y-96853214D01*
X107187380Y-96567500D02*
X106187380Y-96567500D01*
X107187380Y-97186547D02*
X106187380Y-97186547D01*
X106663571Y-97186547D02*
X106663571Y-97757976D01*
X107187380Y-97757976D02*
X106187380Y-97757976D01*
X107187380Y-98757976D02*
X107187380Y-98186547D01*
X107187380Y-98472261D02*
X106187380Y-98472261D01*
X106330238Y-98377023D01*
X106425476Y-98281785D01*
X106473095Y-98186547D01*
%TD*%
M02*
