M48
INCH,TZ
T1C0.0394
T2C0.0402
T3C0.0591
%
G90
G05
T1
X20079Y-25984
X21079Y-25984
X22079Y-25984
X23079Y-25984
X30512Y-20866
X31512Y-20866
X33071Y-20866
X33071Y-23819
X34071Y-20866
X34071Y-23819
X34449Y-18110
X35039Y-25394
X35071Y-20866
X35071Y-23819
X35449Y-18110
X36039Y-25394
X36071Y-20866
X36071Y-23819
X36449Y-18110
X37449Y-18110
X37795Y-23819
X38449Y-18110
X38795Y-23819
X39370Y-25394
X39795Y-23819
X40370Y-25394
X40795Y-23819
T2
X17283Y-11795
X17283Y-12795
X17283Y-15795
X17283Y-16795
X17283Y-31795
X17283Y-32795
X17283Y-35795
X17283Y-36795
X18283Y-11795
X18283Y-12795
X18283Y-15795
X18283Y-16795
X18283Y-31795
X18283Y-32795
X18283Y-35795
X18283Y-36795
X19283Y-11795
X19283Y-12795
X19283Y-15795
X19283Y-16795
X19283Y-31795
X19283Y-32795
X19283Y-35795
X19283Y-36795
X20283Y-11795
X20283Y-12795
X20283Y-15795
X20283Y-16795
X20283Y-31795
X20283Y-32795
X20283Y-35795
X20283Y-36795
X21283Y-11795
X21283Y-12795
X21283Y-15795
X21283Y-16795
X21283Y-31795
X21283Y-32795
X21283Y-35795
X21283Y-36795
X22283Y-11795
X22283Y-12795
X22283Y-15795
X22283Y-16795
X22283Y-31795
X22283Y-32795
X22283Y-35795
X22283Y-36795
X23283Y-11795
X23283Y-12795
X23283Y-15795
X23283Y-16795
X23283Y-31795
X23283Y-32795
X23283Y-35795
X23283Y-36795
X24283Y-11795
X24283Y-12795
X24283Y-15795
X24283Y-16795
X24283Y-31795
X24283Y-32795
X24283Y-35795
X24283Y-36795
X25283Y-11795
X25283Y-12795
X25283Y-15795
X25283Y-16795
X25283Y-31795
X25283Y-32795
X25283Y-35795
X25283Y-36795
X26283Y-11795
X26283Y-12795
X26283Y-15795
X26283Y-16795
X26283Y-31795
X26283Y-32795
X26283Y-35795
X26283Y-36795
X27283Y-11795
X27283Y-12795
X27283Y-15795
X27283Y-16795
X27283Y-31795
X27283Y-32795
X27283Y-35795
X27283Y-36795
X28283Y-11795
X28283Y-12795
X28283Y-15795
X28283Y-16795
X28283Y-31795
X28283Y-32795
X28283Y-35795
X28283Y-36795
X29283Y-11795
X29283Y-12795
X29283Y-15795
X29283Y-16795
X29283Y-31795
X29283Y-32795
X29283Y-35795
X29283Y-36795
X30283Y-11795
X30283Y-12795
X30283Y-15795
X30283Y-16795
X30283Y-31795
X30283Y-32795
X30283Y-35795
X30283Y-36795
X31283Y-11795
X31283Y-12795
X31283Y-15795
X31283Y-16795
X31283Y-31795
X31283Y-32795
X31283Y-35795
X31283Y-36795
X32283Y-11795
X32283Y-12795
X32283Y-15795
X32283Y-16795
X32283Y-31795
X32283Y-32795
X32283Y-35795
X32283Y-36795
X33283Y-11795
X33283Y-12795
X33283Y-15795
X33283Y-16795
X33283Y-31795
X33283Y-32795
X33283Y-35795
X33283Y-36795
X34283Y-11795
X34283Y-12795
X34283Y-15795
X34283Y-16795
X34283Y-31795
X34283Y-32795
X34283Y-35795
X34283Y-36795
X35283Y-11795
X35283Y-12795
X35283Y-15795
X35283Y-16795
X35283Y-31795
X35283Y-32795
X35283Y-35795
X35283Y-36795
T3
X37008Y-31496
X45075Y-31496
T0
M30
