%TF.GenerationSoftware,KiCad,Pcbnew,5.1.6-c6e7f7d~86~ubuntu20.04.1*%
%TF.CreationDate,2020-09-07T12:25:12+02:00*%
%TF.ProjectId,Shield_Nucleo,53686965-6c64-45f4-9e75-636c656f2e6b,rev?*%
%TF.SameCoordinates,Original*%
%TF.FileFunction,Copper,L1,Top*%
%TF.FilePolarity,Positive*%
%FSLAX46Y46*%
G04 Gerber Fmt 4.6, Leading zero omitted, Abs format (unit mm)*
G04 Created by KiCad (PCBNEW 5.1.6-c6e7f7d~86~ubuntu20.04.1) date 2020-09-07 12:25:12*
%MOMM*%
%LPD*%
G01*
G04 APERTURE LIST*
%TA.AperFunction,ComponentPad*%
%ADD10R,3.000000X3.000000*%
%TD*%
%TA.AperFunction,ComponentPad*%
%ADD11C,3.000000*%
%TD*%
%TA.AperFunction,ComponentPad*%
%ADD12C,1.530000*%
%TD*%
%TA.AperFunction,ComponentPad*%
%ADD13R,1.530000X1.530000*%
%TD*%
%TA.AperFunction,ComponentPad*%
%ADD14O,1.700000X1.700000*%
%TD*%
%TA.AperFunction,ComponentPad*%
%ADD15R,1.700000X1.700000*%
%TD*%
%TA.AperFunction,Conductor*%
%ADD16C,0.250000*%
%TD*%
%TA.AperFunction,Conductor*%
%ADD17C,1.000000*%
%TD*%
%TA.AperFunction,Conductor*%
%ADD18C,0.254000*%
%TD*%
G04 APERTURE END LIST*
D10*
%TO.P,BT1,1*%
%TO.N,+BATT*%
X94000000Y-80000000D03*
D11*
%TO.P,BT1,2*%
%TO.N,GNDD*%
X114490000Y-80000000D03*
%TD*%
D12*
%TO.P,U1,CN10_26*%
%TO.N,Net-(U1-PadCN10_26)*%
X59140000Y-83300000D03*
%TO.P,U1,CN10_38*%
%TO.N,N/C*%
X43900000Y-83300000D03*
%TO.P,U1,CN10_36*%
X46440000Y-83300000D03*
%TO.P,U1,CN10_20*%
%TO.N,Net-(U1-PadCN10_20)*%
X66760000Y-83300000D03*
%TO.P,U1,CN10_19*%
%TO.N,Net-(U1-PadCN10_19)*%
X66760000Y-80760000D03*
%TO.P,U1,CN10_18*%
%TO.N,N/C*%
X69300000Y-83300000D03*
%TO.P,U1,CN10_33*%
%TO.N,Net-(U1-PadCN10_33)*%
X48980000Y-80760000D03*
%TO.P,U1,CN10_32*%
%TO.N,Net-(U1-PadCN10_32)*%
X51520000Y-83300000D03*
%TO.P,U1,CN10_31*%
%TO.N,Net-(U1-PadCN10_31)*%
X51520000Y-80760000D03*
%TO.P,U1,CN10_30*%
%TO.N,Net-(U1-PadCN10_30)*%
X54060000Y-83300000D03*
%TO.P,U1,CN10_29*%
%TO.N,Net-(U1-PadCN10_29)*%
X54060000Y-80760000D03*
%TO.P,U1,CN10_12*%
%TO.N,Net-(U1-PadCN10_12)*%
X76920000Y-83300000D03*
%TO.P,U1,CN10_11*%
%TO.N,Net-(U1-PadCN10_11)*%
X76920000Y-80760000D03*
%TO.P,U1,CN10_10*%
%TO.N,N/C*%
X79460000Y-83300000D03*
%TO.P,U1,CN10_25*%
%TO.N,Net-(U1-PadCN10_25)*%
X59140000Y-80760000D03*
%TO.P,U1,CN10_24*%
%TO.N,Net-(U1-PadCN10_24)*%
X61680000Y-83300000D03*
%TO.P,U1,CN10_23*%
%TO.N,Net-(U1-PadCN10_23)*%
X61680000Y-80760000D03*
%TO.P,U1,CN10_22*%
%TO.N,Net-(U1-PadCN10_22)*%
X64220000Y-83300000D03*
%TO.P,U1,CN10_21*%
%TO.N,Net-(U1-PadCN10_21)*%
X64220000Y-80760000D03*
%TO.P,U1,CN10_4*%
%TO.N,Net-(U1-PadCN10_4)*%
X87080000Y-83300000D03*
%TO.P,U1,CN10_3*%
%TO.N,Net-(U1-PadCN10_3)*%
X87080000Y-80760000D03*
%TO.P,U1,CN10_2*%
%TO.N,Net-(U1-PadCN10_2)*%
X89620000Y-83300000D03*
%TO.P,U1,CN10_17*%
%TO.N,Net-(U1-PadCN10_17)*%
X69300000Y-80760000D03*
%TO.P,U1,CN10_34*%
%TO.N,Net-(U1-PadCN10_34)*%
X48980000Y-83300000D03*
%TO.P,U1,CN10_27*%
%TO.N,Net-(U1-PadCN10_27)*%
X56600000Y-80760000D03*
%TO.P,U1,CN10_35*%
%TO.N,Net-(U1-PadCN10_35)*%
X46440000Y-80760000D03*
%TO.P,U1,CN10_28*%
%TO.N,Net-(U1-PadCN10_28)*%
X56600000Y-83300000D03*
%TO.P,U1,CN10_16*%
%TO.N,Net-(U1-PadCN10_16)*%
X71840000Y-83300000D03*
%TO.P,U1,CN10_15*%
%TO.N,Net-(U1-PadCN10_15)*%
X71840000Y-80760000D03*
%TO.P,U1,CN10_14*%
%TO.N,Net-(U1-PadCN10_14)*%
X74380000Y-83300000D03*
%TO.P,U1,CN10_13*%
%TO.N,Net-(U1-PadCN10_13)*%
X74380000Y-80760000D03*
%TO.P,U1,CN10_9*%
%TO.N,Net-(U1-PadCN10_20)*%
X79460000Y-80760000D03*
%TO.P,U1,CN10_8*%
%TO.N,Net-(U1-PadCN10_8)*%
X82000000Y-83300000D03*
%TO.P,U1,CN10_7*%
%TO.N,Net-(U1-PadCN10_7)*%
X82000000Y-80760000D03*
%TO.P,U1,CN10_6*%
%TO.N,Net-(U1-PadCN10_6)*%
X84540000Y-83300000D03*
%TO.P,U1,CN10_5*%
%TO.N,Net-(U1-PadCN10_5)*%
X84540000Y-80760000D03*
%TO.P,U1,CN10_37*%
%TO.N,Net-(U1-PadCN10_37)*%
X43900000Y-80760000D03*
D13*
%TO.P,U1,CN10_1*%
%TO.N,Net-(U1-PadCN10_1)*%
X89620000Y-80760000D03*
D12*
%TO.P,U1,CN7_15*%
%TO.N,Net-(U1-PadCN7_15)*%
X71840000Y-40120000D03*
%TO.P,U1,CN7_13*%
%TO.N,Net-(U1-PadCN7_13)*%
X74380000Y-40120000D03*
%TO.P,U1,CN7_10*%
%TO.N,N/C*%
X79460000Y-42660000D03*
%TO.P,U1,CN7_7*%
%TO.N,Net-(U1-PadCN7_7)*%
X82000000Y-40120000D03*
%TO.P,U1,CN7_19*%
%TO.N,GNDD*%
X66760000Y-40120000D03*
%TO.P,U1,CN7_11*%
%TO.N,N/C*%
X76920000Y-40120000D03*
%TO.P,U1,CN7_2*%
%TO.N,Net-(U1-PadCN7_2)*%
X89620000Y-42660000D03*
D13*
%TO.P,U1,CN7_1*%
%TO.N,Net-(U1-PadCN7_1)*%
X89620000Y-40120000D03*
D12*
%TO.P,U1,CN7_12*%
%TO.N,Net-(U1-PadCN7_12)*%
X76920000Y-42660000D03*
%TO.P,U1,CN7_5*%
%TO.N,Net-(U1-PadCN7_5)*%
X84540000Y-40120000D03*
%TO.P,U1,CN7_3*%
%TO.N,Net-(U1-PadCN7_3)*%
X87080000Y-40120000D03*
%TO.P,U1,CN7_20*%
%TO.N,GNDD*%
X66760000Y-42660000D03*
%TO.P,U1,CN7_34*%
%TO.N,Net-(U1-PadCN7_34)*%
X48980000Y-42660000D03*
%TO.P,U1,CN7_33*%
%TO.N,+BATT*%
X48980000Y-40120000D03*
%TO.P,U1,CN7_32*%
%TO.N,Net-(U1-PadCN7_32)*%
X51520000Y-42660000D03*
%TO.P,U1,CN7_26*%
%TO.N,N/C*%
X59140000Y-42660000D03*
%TO.P,U1,CN7_25*%
%TO.N,Net-(U1-PadCN7_25)*%
X59140000Y-40120000D03*
%TO.P,U1,CN7_24*%
%TO.N,Net-(J1-Pad15)*%
X61680000Y-42660000D03*
%TO.P,U1,CN7_4*%
%TO.N,Net-(U1-PadCN7_4)*%
X87080000Y-42660000D03*
%TO.P,U1,CN7_37*%
%TO.N,Net-(U1-PadCN7_37)*%
X43900000Y-40120000D03*
%TO.P,U1,CN7_6*%
%TO.N,Net-(U1-PadCN7_6)*%
X84540000Y-42660000D03*
%TO.P,U1,CN7_14*%
%TO.N,Net-(U1-PadCN7_14)*%
X74380000Y-42660000D03*
%TO.P,U1,CN7_38*%
%TO.N,Net-(U1-PadCN7_38)*%
X43900000Y-42660000D03*
%TO.P,U1,CN7_36*%
%TO.N,Net-(U1-PadCN7_36)*%
X46440000Y-42660000D03*
%TO.P,U1,CN7_35*%
%TO.N,Net-(U1-PadCN7_35)*%
X46440000Y-40120000D03*
%TO.P,U1,CN7_18*%
%TO.N,Net-(U1-PadCN7_18)*%
X69300000Y-42660000D03*
%TO.P,U1,CN7_17*%
%TO.N,Net-(U1-PadCN7_17)*%
X69300000Y-40120000D03*
%TO.P,U1,CN7_16*%
%TO.N,Net-(U1-PadCN7_16)*%
X71840000Y-42660000D03*
%TO.P,U1,CN7_31*%
%TO.N,Net-(U1-PadCN7_31)*%
X51520000Y-40120000D03*
%TO.P,U1,CN7_30*%
%TO.N,Net-(U1-PadCN7_30)*%
X54060000Y-42660000D03*
%TO.P,U1,CN7_29*%
%TO.N,Net-(U1-PadCN7_29)*%
X54060000Y-40120000D03*
%TO.P,U1,CN7_28*%
%TO.N,Net-(U1-PadCN7_28)*%
X56600000Y-42660000D03*
%TO.P,U1,CN7_27*%
%TO.N,Net-(U1-PadCN7_27)*%
X56600000Y-40120000D03*
%TO.P,U1,CN7_9*%
%TO.N,N/C*%
X79460000Y-40120000D03*
%TO.P,U1,CN7_8*%
%TO.N,GNDD*%
X82000000Y-42660000D03*
%TO.P,U1,CN7_23*%
%TO.N,Net-(U1-PadCN7_23)*%
X61680000Y-40120000D03*
%TO.P,U1,CN7_22*%
%TO.N,GNDD*%
X64220000Y-42660000D03*
%TO.P,U1,CN7_21*%
%TO.N,Net-(U1-PadCN7_21)*%
X64220000Y-40120000D03*
D13*
%TO.P,U1,CN7_1*%
%TO.N,Net-(U1-PadCN7_1)*%
X89620000Y-29960000D03*
D12*
%TO.P,U1,CN7_37*%
%TO.N,Net-(U1-PadCN7_37)*%
X43900000Y-29960000D03*
%TO.P,U1,CN7_2*%
%TO.N,Net-(U1-PadCN7_2)*%
X89620000Y-32500000D03*
%TO.P,U1,CN7_3*%
%TO.N,Net-(U1-PadCN7_3)*%
X87080000Y-29960000D03*
%TO.P,U1,CN7_4*%
%TO.N,Net-(U1-PadCN7_4)*%
X87080000Y-32500000D03*
%TO.P,U1,CN7_5*%
%TO.N,Net-(U1-PadCN7_5)*%
X84540000Y-29960000D03*
%TO.P,U1,CN7_6*%
%TO.N,Net-(U1-PadCN7_6)*%
X84540000Y-32500000D03*
%TO.P,U1,CN7_7*%
%TO.N,Net-(U1-PadCN7_7)*%
X82000000Y-29960000D03*
%TO.P,U1,CN7_8*%
%TO.N,GNDD*%
X82000000Y-32500000D03*
%TO.P,U1,CN7_9*%
%TO.N,N/C*%
X79460000Y-29960000D03*
%TO.P,U1,CN7_10*%
X79460000Y-32500000D03*
%TO.P,U1,CN7_11*%
X76920000Y-29960000D03*
%TO.P,U1,CN7_12*%
%TO.N,Net-(U1-PadCN7_12)*%
X76920000Y-32500000D03*
%TO.P,U1,CN7_13*%
%TO.N,Net-(U1-PadCN7_13)*%
X74380000Y-29960000D03*
%TO.P,U1,CN7_14*%
%TO.N,Net-(U1-PadCN7_14)*%
X74380000Y-32500000D03*
%TO.P,U1,CN7_15*%
%TO.N,Net-(U1-PadCN7_15)*%
X71840000Y-29960000D03*
%TO.P,U1,CN7_16*%
%TO.N,Net-(U1-PadCN7_16)*%
X71840000Y-32500000D03*
%TO.P,U1,CN7_17*%
%TO.N,Net-(U1-PadCN7_17)*%
X69300000Y-29960000D03*
%TO.P,U1,CN7_18*%
%TO.N,Net-(U1-PadCN7_18)*%
X69300000Y-32500000D03*
%TO.P,U1,CN7_19*%
%TO.N,GNDD*%
X66760000Y-29960000D03*
%TO.P,U1,CN7_20*%
X66760000Y-32500000D03*
%TO.P,U1,CN7_21*%
%TO.N,Net-(U1-PadCN7_21)*%
X64220000Y-29960000D03*
%TO.P,U1,CN7_22*%
%TO.N,GNDD*%
X64220000Y-32500000D03*
%TO.P,U1,CN7_23*%
%TO.N,Net-(U1-PadCN7_23)*%
X61680000Y-29960000D03*
%TO.P,U1,CN7_24*%
%TO.N,Net-(J1-Pad15)*%
X61680000Y-32500000D03*
%TO.P,U1,CN7_25*%
%TO.N,Net-(U1-PadCN7_25)*%
X59140000Y-29960000D03*
%TO.P,U1,CN7_26*%
%TO.N,N/C*%
X59140000Y-32500000D03*
%TO.P,U1,CN7_27*%
%TO.N,Net-(U1-PadCN7_27)*%
X56600000Y-29960000D03*
%TO.P,U1,CN7_28*%
%TO.N,Net-(U1-PadCN7_28)*%
X56600000Y-32500000D03*
%TO.P,U1,CN7_29*%
%TO.N,Net-(U1-PadCN7_29)*%
X54060000Y-29960000D03*
%TO.P,U1,CN7_30*%
%TO.N,Net-(U1-PadCN7_30)*%
X54060000Y-32500000D03*
%TO.P,U1,CN7_31*%
%TO.N,Net-(U1-PadCN7_31)*%
X51520000Y-29960000D03*
%TO.P,U1,CN7_32*%
%TO.N,Net-(U1-PadCN7_32)*%
X51520000Y-32500000D03*
%TO.P,U1,CN7_33*%
%TO.N,+BATT*%
X48980000Y-29960000D03*
%TO.P,U1,CN7_34*%
%TO.N,Net-(U1-PadCN7_34)*%
X48980000Y-32500000D03*
%TO.P,U1,CN7_35*%
%TO.N,Net-(U1-PadCN7_35)*%
X46440000Y-29960000D03*
%TO.P,U1,CN7_36*%
%TO.N,Net-(U1-PadCN7_36)*%
X46440000Y-32500000D03*
%TO.P,U1,CN7_38*%
%TO.N,Net-(U1-PadCN7_38)*%
X43900000Y-32500000D03*
D13*
%TO.P,U1,CN10_1*%
%TO.N,Net-(U1-PadCN10_1)*%
X89620000Y-90920000D03*
D12*
%TO.P,U1,CN10_37*%
%TO.N,Net-(U1-PadCN10_37)*%
X43900000Y-90920000D03*
%TO.P,U1,CN10_2*%
%TO.N,Net-(U1-PadCN10_2)*%
X89620000Y-93460000D03*
%TO.P,U1,CN10_3*%
%TO.N,Net-(U1-PadCN10_3)*%
X87080000Y-90920000D03*
%TO.P,U1,CN10_4*%
%TO.N,Net-(U1-PadCN10_4)*%
X87080000Y-93460000D03*
%TO.P,U1,CN10_5*%
%TO.N,Net-(U1-PadCN10_5)*%
X84540000Y-90920000D03*
%TO.P,U1,CN10_6*%
%TO.N,Net-(U1-PadCN10_6)*%
X84540000Y-93460000D03*
%TO.P,U1,CN10_7*%
%TO.N,Net-(U1-PadCN10_7)*%
X82000000Y-90920000D03*
%TO.P,U1,CN10_8*%
%TO.N,Net-(U1-PadCN10_8)*%
X82000000Y-93460000D03*
%TO.P,U1,CN10_9*%
%TO.N,Net-(U1-PadCN10_20)*%
X79460000Y-90920000D03*
%TO.P,U1,CN10_10*%
%TO.N,N/C*%
X79460000Y-93460000D03*
%TO.P,U1,CN10_11*%
%TO.N,Net-(U1-PadCN10_11)*%
X76920000Y-90920000D03*
%TO.P,U1,CN10_12*%
%TO.N,Net-(U1-PadCN10_12)*%
X76920000Y-93460000D03*
%TO.P,U1,CN10_13*%
%TO.N,Net-(U1-PadCN10_13)*%
X74380000Y-90920000D03*
%TO.P,U1,CN10_14*%
%TO.N,Net-(U1-PadCN10_14)*%
X74380000Y-93460000D03*
%TO.P,U1,CN10_15*%
%TO.N,Net-(U1-PadCN10_15)*%
X71840000Y-90920000D03*
%TO.P,U1,CN10_16*%
%TO.N,Net-(U1-PadCN10_16)*%
X71840000Y-93460000D03*
%TO.P,U1,CN10_17*%
%TO.N,Net-(U1-PadCN10_17)*%
X69300000Y-90920000D03*
%TO.P,U1,CN10_18*%
%TO.N,N/C*%
X69300000Y-93460000D03*
%TO.P,U1,CN10_19*%
%TO.N,Net-(U1-PadCN10_19)*%
X66760000Y-90920000D03*
%TO.P,U1,CN10_20*%
%TO.N,Net-(U1-PadCN10_20)*%
X66760000Y-93460000D03*
%TO.P,U1,CN10_21*%
%TO.N,Net-(U1-PadCN10_21)*%
X64220000Y-90920000D03*
%TO.P,U1,CN10_22*%
%TO.N,Net-(U1-PadCN10_22)*%
X64220000Y-93460000D03*
%TO.P,U1,CN10_23*%
%TO.N,Net-(U1-PadCN10_23)*%
X61680000Y-90920000D03*
%TO.P,U1,CN10_24*%
%TO.N,Net-(U1-PadCN10_24)*%
X61680000Y-93460000D03*
%TO.P,U1,CN10_25*%
%TO.N,Net-(U1-PadCN10_25)*%
X59140000Y-90920000D03*
%TO.P,U1,CN10_26*%
%TO.N,Net-(U1-PadCN10_26)*%
X59140000Y-93460000D03*
%TO.P,U1,CN10_27*%
%TO.N,Net-(U1-PadCN10_27)*%
X56600000Y-90920000D03*
%TO.P,U1,CN10_28*%
%TO.N,Net-(U1-PadCN10_28)*%
X56600000Y-93460000D03*
%TO.P,U1,CN10_29*%
%TO.N,Net-(U1-PadCN10_29)*%
X54060000Y-90920000D03*
%TO.P,U1,CN10_30*%
%TO.N,Net-(U1-PadCN10_30)*%
X54060000Y-93460000D03*
%TO.P,U1,CN10_31*%
%TO.N,Net-(U1-PadCN10_31)*%
X51520000Y-90920000D03*
%TO.P,U1,CN10_32*%
%TO.N,Net-(U1-PadCN10_32)*%
X51520000Y-93460000D03*
%TO.P,U1,CN10_33*%
%TO.N,Net-(U1-PadCN10_33)*%
X48980000Y-90920000D03*
%TO.P,U1,CN10_34*%
%TO.N,Net-(U1-PadCN10_34)*%
X48980000Y-93460000D03*
%TO.P,U1,CN10_35*%
%TO.N,Net-(U1-PadCN10_35)*%
X46440000Y-90920000D03*
%TO.P,U1,CN10_36*%
%TO.N,N/C*%
X46440000Y-93460000D03*
%TO.P,U1,CN10_38*%
X43900000Y-93460000D03*
%TD*%
D14*
%TO.P,J1,23*%
%TO.N,Net-(J1-Pad23)*%
X92580000Y-46000000D03*
D15*
%TO.P,J1,14*%
%TO.N,GNDD*%
X51000000Y-66000000D03*
D14*
%TO.P,J1,15*%
%TO.N,Net-(J1-Pad15)*%
X58620000Y-66000000D03*
%TO.P,J1,20*%
%TO.N,Net-(J1-Pad20)*%
X56080000Y-66000000D03*
%TO.P,J1,21*%
%TO.N,Net-(J1-Pad21)*%
X53540000Y-66000000D03*
%TO.P,J1,22*%
%TO.N,Net-(J1-Pad22)*%
X95120000Y-46000000D03*
D15*
%TO.P,J1,15*%
%TO.N,Net-(J1-Pad15)*%
X87500000Y-46000000D03*
D14*
%TO.P,J1,30*%
%TO.N,Net-(J1-Pad30)*%
X97660000Y-46000000D03*
%TO.P,J1,14*%
%TO.N,GNDD*%
X90040000Y-46000000D03*
%TO.P,J1,4*%
%TO.N,Net-(J1-Pad4)*%
X91540000Y-64500000D03*
D15*
%TO.P,J1,3*%
%TO.N,Net-(J1-Pad3)*%
X89000000Y-64500000D03*
D14*
%TO.P,J1,6*%
%TO.N,Net-(J1-Pad6)*%
X102540000Y-64500000D03*
D15*
%TO.P,J1,5*%
%TO.N,Net-(J1-Pad5)*%
X100000000Y-64500000D03*
%TO.P,J1,8*%
%TO.N,Net-(J1-Pad8)*%
X77500000Y-53000000D03*
D14*
%TO.P,J1,7*%
%TO.N,Net-(J1-Pad7)*%
X80040000Y-53000000D03*
%TO.P,J1,10*%
%TO.N,Net-(J1-Pad10)*%
X86540000Y-60500000D03*
D15*
%TO.P,J1,9*%
%TO.N,Net-(J1-Pad9)*%
X84000000Y-60500000D03*
D14*
%TO.P,J1,11*%
%TO.N,Net-(J1-Pad11)*%
X89080000Y-60500000D03*
%TO.P,J1,12*%
%TO.N,Net-(J1-Pad12)*%
X91620000Y-60500000D03*
%TO.P,J1,13*%
%TO.N,Net-(J1-Pad13)*%
X89080000Y-53000000D03*
%TO.P,J1,14*%
%TO.N,GNDD*%
X86540000Y-53000000D03*
%TO.P,J1,13*%
%TO.N,Net-(J1-Pad13)*%
X91620000Y-53000000D03*
D15*
%TO.P,J1,14*%
%TO.N,GNDD*%
X84000000Y-53000000D03*
D14*
%TO.P,J1,15*%
%TO.N,Net-(J1-Pad15)*%
X101080000Y-60500000D03*
X103620000Y-60500000D03*
D15*
%TO.P,J1,14*%
%TO.N,GNDD*%
X96000000Y-60500000D03*
D14*
X98540000Y-60500000D03*
%TD*%
D16*
%TO.N,*%
X80750000Y-89750000D02*
X80750000Y-92170000D01*
X80750000Y-92170000D02*
X79460000Y-93460000D01*
X79460000Y-88460000D02*
X80750000Y-89750000D01*
X79460000Y-83300000D02*
X79460000Y-88460000D01*
X47750000Y-92150000D02*
X46440000Y-93460000D01*
X47750000Y-89750000D02*
X47750000Y-92150000D01*
X46440000Y-88440000D02*
X47750000Y-89750000D01*
X46440000Y-83300000D02*
X46440000Y-88440000D01*
X45250000Y-89750000D02*
X45250000Y-92110000D01*
X43900000Y-88400000D02*
X45250000Y-89750000D01*
X45250000Y-92110000D02*
X43900000Y-93460000D01*
X43900000Y-83300000D02*
X43900000Y-88400000D01*
X76960000Y-29960000D02*
X76920000Y-29960000D01*
X78250000Y-33750000D02*
X78250000Y-31250000D01*
X76920000Y-35080000D02*
X78250000Y-33750000D01*
X78250000Y-31250000D02*
X76960000Y-29960000D01*
X76920000Y-40120000D02*
X76920000Y-35080000D01*
X80750000Y-31250000D02*
X79460000Y-29960000D01*
X80750000Y-33750000D02*
X80750000Y-31250000D01*
X79460000Y-35040000D02*
X80750000Y-33750000D01*
X79460000Y-40120000D02*
X79460000Y-35040000D01*
X70500000Y-92260000D02*
X69300000Y-93460000D01*
X70500000Y-89750000D02*
X70500000Y-92260000D01*
X69300000Y-88550000D02*
X70500000Y-89750000D01*
X69300000Y-83300000D02*
X69300000Y-88550000D01*
X57750000Y-41270000D02*
X59140000Y-42660000D01*
X57750000Y-35250000D02*
X57750000Y-41270000D01*
X59140000Y-33860000D02*
X57750000Y-35250000D01*
X59140000Y-32500000D02*
X59140000Y-33860000D01*
X78250000Y-41225000D02*
X79460000Y-42435000D01*
X78250000Y-34960000D02*
X78250000Y-41225000D01*
X79460000Y-33750000D02*
X78250000Y-34960000D01*
X79460000Y-42435000D02*
X79460000Y-42660000D01*
X79460000Y-32500000D02*
X79460000Y-33750000D01*
D17*
%TO.N,Net-(J1-Pad15)*%
X103620000Y-60500000D02*
X101080000Y-60500000D01*
X101080000Y-60500000D02*
X101080000Y-52580000D01*
X101080000Y-52580000D02*
X97500000Y-49000000D01*
X97500000Y-49000000D02*
X89000000Y-49000000D01*
X87500000Y-47500000D02*
X87500000Y-46000000D01*
X89000000Y-49000000D02*
X87500000Y-47500000D01*
X61680000Y-44180000D02*
X66500000Y-49000000D01*
X61680000Y-42660000D02*
X61680000Y-44180000D01*
X66500000Y-49000000D02*
X89000000Y-49000000D01*
X58620000Y-56880000D02*
X66500000Y-49000000D01*
X58620000Y-66000000D02*
X58620000Y-56880000D01*
D16*
X61680000Y-32500000D02*
X61680000Y-33820000D01*
X60500000Y-35000000D02*
X60500000Y-41480000D01*
X61680000Y-33820000D02*
X60500000Y-35000000D01*
X60500000Y-41480000D02*
X61680000Y-42660000D01*
D17*
%TO.N,Net-(J1-Pad13)*%
X89080000Y-53000000D02*
X91620000Y-53000000D01*
D16*
%TO.N,Net-(U1-PadCN7_38)*%
X42500000Y-41260000D02*
X43900000Y-42660000D01*
X42500000Y-35000000D02*
X42500000Y-41260000D01*
X43900000Y-33600000D02*
X42500000Y-35000000D01*
X43900000Y-32500000D02*
X43900000Y-33600000D01*
%TO.N,Net-(U1-PadCN7_36)*%
X46440000Y-42425000D02*
X46440000Y-42660000D01*
X45349999Y-41334999D02*
X46440000Y-42425000D01*
X45349999Y-34840001D02*
X45349999Y-41334999D01*
X46440000Y-33750000D02*
X45349999Y-34840001D01*
X46440000Y-32500000D02*
X46440000Y-33750000D01*
%TO.N,Net-(U1-PadCN7_35)*%
X47750000Y-31270000D02*
X46440000Y-29960000D01*
X47750000Y-33625000D02*
X47750000Y-31270000D01*
X46440000Y-34935000D02*
X47750000Y-33625000D01*
X46440000Y-40120000D02*
X46440000Y-34935000D01*
%TO.N,Net-(U1-PadCN7_34)*%
X48980000Y-42445000D02*
X48980000Y-42660000D01*
X47750000Y-41215000D02*
X48980000Y-42445000D01*
X47750000Y-34980000D02*
X47750000Y-41215000D01*
X48980000Y-33750000D02*
X47750000Y-34980000D01*
X48980000Y-32500000D02*
X48980000Y-33750000D01*
%TO.N,Net-(U1-PadCN7_32)*%
X51520000Y-32500000D02*
X51520000Y-33750000D01*
X51520000Y-33750000D02*
X50250000Y-35020000D01*
X50250000Y-35020000D02*
X50250000Y-41390000D01*
X50250000Y-41390000D02*
X51520000Y-42660000D01*
%TO.N,Net-(U1-PadCN7_31)*%
X52750000Y-31190000D02*
X51520000Y-29960000D01*
X52750000Y-33750000D02*
X52750000Y-31190000D01*
X51520000Y-34980000D02*
X52750000Y-33750000D01*
X51520000Y-40120000D02*
X51520000Y-34980000D01*
%TO.N,Net-(U1-PadCN7_30)*%
X54060000Y-42560000D02*
X54060000Y-42660000D01*
X52750000Y-41250000D02*
X54060000Y-42560000D01*
X52750000Y-35060000D02*
X52750000Y-41250000D01*
X54060000Y-33750000D02*
X52750000Y-35060000D01*
X54060000Y-32500000D02*
X54060000Y-33750000D01*
%TO.N,Net-(U1-PadCN7_29)*%
X55250000Y-31150000D02*
X54060000Y-29960000D01*
X55250000Y-33750000D02*
X55250000Y-31150000D01*
X54060000Y-34940000D02*
X55250000Y-33750000D01*
X54060000Y-40120000D02*
X54060000Y-34940000D01*
%TO.N,Net-(U1-PadCN7_28)*%
X55250000Y-41310000D02*
X56600000Y-42660000D01*
X55250000Y-34750000D02*
X55250000Y-41310000D01*
X56600000Y-33400000D02*
X55250000Y-34750000D01*
X56600000Y-32500000D02*
X56600000Y-33400000D01*
%TO.N,Net-(U1-PadCN7_27)*%
X57750000Y-33750000D02*
X57750000Y-31110000D01*
X56600000Y-34900000D02*
X57750000Y-33750000D01*
X57750000Y-31110000D02*
X56600000Y-29960000D01*
X56600000Y-40120000D02*
X56600000Y-34900000D01*
%TO.N,Net-(U1-PadCN7_25)*%
X60500000Y-31320000D02*
X59140000Y-29960000D01*
X60500000Y-33750000D02*
X60500000Y-31320000D01*
X59140000Y-35110000D02*
X60500000Y-33750000D01*
X59140000Y-40120000D02*
X59140000Y-35110000D01*
%TO.N,Net-(U1-PadCN7_23)*%
X63000000Y-31280000D02*
X61680000Y-29960000D01*
X63000000Y-33750000D02*
X63000000Y-31280000D01*
X61680000Y-35070000D02*
X63000000Y-33750000D01*
X61680000Y-40120000D02*
X61680000Y-35070000D01*
%TO.N,Net-(U1-PadCN7_21)*%
X65500000Y-31240000D02*
X64220000Y-29960000D01*
X65500000Y-33750000D02*
X65500000Y-31240000D01*
X64220000Y-35030000D02*
X65500000Y-33750000D01*
X64220000Y-40120000D02*
X64220000Y-35030000D01*
%TO.N,Net-(U1-PadCN7_18)*%
X69300000Y-32500000D02*
X69300000Y-33700000D01*
X69300000Y-33700000D02*
X68000000Y-35000000D01*
X68000000Y-41360000D02*
X69300000Y-42660000D01*
X68000000Y-35000000D02*
X68000000Y-41360000D01*
%TO.N,Net-(U1-PadCN7_17)*%
X70500000Y-31160000D02*
X69300000Y-29960000D01*
X70500000Y-33625000D02*
X70500000Y-31160000D01*
X69300000Y-34825000D02*
X70500000Y-33625000D01*
X69300000Y-40120000D02*
X69300000Y-34825000D01*
%TO.N,Net-(U1-PadCN7_16)*%
X71840000Y-32500000D02*
X71840000Y-33660000D01*
X71840000Y-33660000D02*
X70500000Y-35000000D01*
X70500000Y-41320000D02*
X71840000Y-42660000D01*
X70500000Y-35000000D02*
X70500000Y-41320000D01*
%TO.N,Net-(U1-PadCN7_15)*%
X73000000Y-33750000D02*
X73000000Y-31120000D01*
X73000000Y-31120000D02*
X71840000Y-29960000D01*
X71840000Y-34910000D02*
X73000000Y-33750000D01*
X71840000Y-40120000D02*
X71840000Y-34910000D01*
%TO.N,Net-(U1-PadCN7_14)*%
X74380000Y-32500000D02*
X74380000Y-33620000D01*
X74380000Y-33620000D02*
X73000000Y-35000000D01*
X73000000Y-41280000D02*
X74380000Y-42660000D01*
X73000000Y-35000000D02*
X73000000Y-41280000D01*
%TO.N,Net-(U1-PadCN7_13)*%
X75750000Y-31330000D02*
X74380000Y-29960000D01*
X75750000Y-33750000D02*
X75750000Y-31330000D01*
X74380000Y-35120000D02*
X75750000Y-33750000D01*
X74380000Y-40120000D02*
X74380000Y-35120000D01*
%TO.N,Net-(U1-PadCN7_12)*%
X76920000Y-42415000D02*
X76920000Y-42660000D01*
X75750000Y-41245000D02*
X76920000Y-42415000D01*
X75750000Y-34920000D02*
X75750000Y-41245000D01*
X76920000Y-33750000D02*
X75750000Y-34920000D01*
X76920000Y-32500000D02*
X76920000Y-33750000D01*
%TO.N,Net-(U1-PadCN7_7)*%
X83250000Y-31210000D02*
X82000000Y-29960000D01*
X83250000Y-33750000D02*
X83250000Y-31210000D01*
X82000000Y-35000000D02*
X83250000Y-33750000D01*
X82000000Y-40120000D02*
X82000000Y-35000000D01*
%TO.N,Net-(U1-PadCN7_6)*%
X83250000Y-41185000D02*
X84540000Y-42475000D01*
X83250000Y-35000000D02*
X83250000Y-41185000D01*
X84540000Y-33710000D02*
X83250000Y-35000000D01*
X84540000Y-42475000D02*
X84540000Y-42660000D01*
X84540000Y-32500000D02*
X84540000Y-33710000D01*
%TO.N,Net-(U1-PadCN7_5)*%
X85750000Y-30750000D02*
X84960000Y-29960000D01*
X84960000Y-29960000D02*
X84540000Y-29960000D01*
X84540000Y-34960000D02*
X85750000Y-33750000D01*
X85750000Y-33750000D02*
X85750000Y-30750000D01*
X84540000Y-40120000D02*
X84540000Y-34960000D01*
%TO.N,Net-(U1-PadCN7_4)*%
X85750000Y-41250000D02*
X87080000Y-42580000D01*
X87080000Y-42580000D02*
X87080000Y-42660000D01*
X85750000Y-35000000D02*
X85750000Y-41250000D01*
X87080000Y-33670000D02*
X85750000Y-35000000D01*
X87080000Y-32500000D02*
X87080000Y-33670000D01*
%TO.N,Net-(U1-PadCN7_3)*%
X87080000Y-30080000D02*
X87080000Y-29960000D01*
X88250000Y-31250000D02*
X87080000Y-30080000D01*
X88250000Y-33750000D02*
X88250000Y-31250000D01*
X87080000Y-34920000D02*
X88250000Y-33750000D01*
X87080000Y-40120000D02*
X87080000Y-34920000D01*
%TO.N,Net-(U1-PadCN7_2)*%
X88250000Y-41290000D02*
X89620000Y-42660000D01*
X88250000Y-35120000D02*
X88250000Y-41290000D01*
X89620000Y-33750000D02*
X88250000Y-35120000D01*
X89620000Y-32500000D02*
X89620000Y-33750000D01*
%TO.N,Net-(U1-PadCN7_37)*%
X45250000Y-31310000D02*
X43900000Y-29960000D01*
X45250000Y-33350000D02*
X45250000Y-31310000D01*
X43900000Y-34700000D02*
X45250000Y-33350000D01*
X43900000Y-40120000D02*
X43900000Y-34700000D01*
%TO.N,Net-(U1-PadCN7_1)*%
X91000000Y-31340000D02*
X89620000Y-29960000D01*
X91000000Y-33500000D02*
X91000000Y-31340000D01*
X89620000Y-34880000D02*
X91000000Y-33500000D01*
X89620000Y-40120000D02*
X89620000Y-34880000D01*
%TO.N,+BATT*%
X50250000Y-33750000D02*
X50250000Y-31230000D01*
X48980000Y-35020000D02*
X50250000Y-33750000D01*
X50250000Y-31230000D02*
X48980000Y-29960000D01*
X48980000Y-40120000D02*
X48980000Y-35020000D01*
X48980000Y-40980000D02*
X48980000Y-40120000D01*
X50250000Y-42250000D02*
X48980000Y-40980000D01*
X50250000Y-44250000D02*
X50250000Y-42250000D01*
X46000000Y-48500000D02*
X50250000Y-44250000D01*
X46000000Y-66000000D02*
X46000000Y-48500000D01*
X48000000Y-68000000D02*
X46000000Y-66000000D01*
X82000000Y-68000000D02*
X48000000Y-68000000D01*
X94000000Y-80000000D02*
X82000000Y-68000000D01*
%TO.N,GNDD*%
X66760000Y-32500000D02*
X66760000Y-33740000D01*
X66760000Y-33740000D02*
X65500000Y-35000000D01*
X65500000Y-41400000D02*
X66760000Y-42660000D01*
X65500000Y-35000000D02*
X65500000Y-41400000D01*
X68000000Y-31200000D02*
X66760000Y-29960000D01*
X68000000Y-33750000D02*
X68000000Y-31200000D01*
X66760000Y-34990000D02*
X68000000Y-33750000D01*
X66760000Y-40120000D02*
X66760000Y-34990000D01*
X64160000Y-42660000D02*
X64220000Y-42660000D01*
X63000000Y-41500000D02*
X64160000Y-42660000D01*
X63000000Y-35000000D02*
X63000000Y-41500000D01*
X64220000Y-33780000D02*
X63000000Y-35000000D01*
X64220000Y-32500000D02*
X64220000Y-33780000D01*
X82000000Y-42455000D02*
X82000000Y-42660000D01*
X80750000Y-41205000D02*
X82000000Y-42455000D01*
X80750000Y-35000000D02*
X80750000Y-41205000D01*
X82000000Y-33750000D02*
X80750000Y-35000000D01*
X82000000Y-32500000D02*
X82000000Y-33750000D01*
%TO.N,Net-(U1-PadCN10_26)*%
X60500000Y-92100000D02*
X59140000Y-93460000D01*
X60500000Y-89750000D02*
X60500000Y-92100000D01*
X59140000Y-88390000D02*
X60500000Y-89750000D01*
X59140000Y-83300000D02*
X59140000Y-88390000D01*
%TO.N,Net-(U1-PadCN10_20)*%
X79460000Y-89750000D02*
X79460000Y-90920000D01*
X78250000Y-81750000D02*
X78250000Y-88540000D01*
X79240000Y-80760000D02*
X78250000Y-81750000D01*
X78250000Y-88540000D02*
X79460000Y-89750000D01*
X79460000Y-80760000D02*
X79240000Y-80760000D01*
X68000000Y-89750000D02*
X68000000Y-92220000D01*
X68000000Y-92220000D02*
X66760000Y-93460000D01*
X66760000Y-88510000D02*
X68000000Y-89750000D01*
X66760000Y-83300000D02*
X66760000Y-88510000D01*
%TO.N,Net-(U1-PadCN10_19)*%
X66760000Y-89760000D02*
X66760000Y-90920000D01*
X65520000Y-82000000D02*
X65520000Y-88520000D01*
X65520000Y-88520000D02*
X66760000Y-89760000D01*
X66760000Y-80760000D02*
X65520000Y-82000000D01*
%TO.N,Net-(U1-PadCN10_33)*%
X48980000Y-89730000D02*
X48980000Y-90920000D01*
X47740000Y-88490000D02*
X48980000Y-89730000D01*
X47740000Y-82000000D02*
X47740000Y-88490000D01*
X48980000Y-80760000D02*
X47740000Y-82000000D01*
%TO.N,Net-(U1-PadCN10_32)*%
X52750000Y-92230000D02*
X51520000Y-93460000D01*
X52750000Y-89750000D02*
X52750000Y-92230000D01*
X51520000Y-88520000D02*
X52750000Y-89750000D01*
X51520000Y-83300000D02*
X51520000Y-88520000D01*
%TO.N,Net-(U1-PadCN10_31)*%
X51520000Y-89750000D02*
X51520000Y-90920000D01*
X50250000Y-88480000D02*
X51520000Y-89750000D01*
X50250000Y-82030000D02*
X50250000Y-88480000D01*
X51520000Y-80760000D02*
X50250000Y-82030000D01*
%TO.N,Net-(U1-PadCN10_30)*%
X55250000Y-92270000D02*
X54060000Y-93460000D01*
X55250000Y-89750000D02*
X55250000Y-92270000D01*
X54060000Y-88560000D02*
X55250000Y-89750000D01*
X54060000Y-83300000D02*
X54060000Y-88560000D01*
%TO.N,Net-(U1-PadCN10_29)*%
X54000000Y-90860000D02*
X54060000Y-90920000D01*
X54000000Y-89750000D02*
X54000000Y-90860000D01*
X52750000Y-88500000D02*
X54000000Y-89750000D01*
X52750000Y-82070000D02*
X52750000Y-88500000D01*
X54060000Y-80760000D02*
X52750000Y-82070000D01*
%TO.N,Net-(U1-PadCN10_12)*%
X78250000Y-92130000D02*
X76920000Y-93460000D01*
X78250000Y-89750000D02*
X78250000Y-92130000D01*
X76920000Y-88420000D02*
X78250000Y-89750000D01*
X76920000Y-83300000D02*
X76920000Y-88420000D01*
%TO.N,Net-(U1-PadCN10_11)*%
X76920000Y-89750000D02*
X76920000Y-90920000D01*
X75680000Y-88510000D02*
X76920000Y-89750000D01*
X75680000Y-82000000D02*
X75680000Y-88510000D01*
X76920000Y-80760000D02*
X75680000Y-82000000D01*
%TO.N,Net-(U1-PadCN10_25)*%
X59140000Y-89640000D02*
X59140000Y-90920000D01*
X57750000Y-88250000D02*
X59140000Y-89640000D01*
X57750000Y-82150000D02*
X57750000Y-88250000D01*
X59140000Y-80760000D02*
X57750000Y-82150000D01*
%TO.N,Net-(U1-PadCN10_24)*%
X63000000Y-92140000D02*
X61680000Y-93460000D01*
X63000000Y-89750000D02*
X63000000Y-92140000D01*
X61680000Y-88430000D02*
X63000000Y-89750000D01*
X61680000Y-83300000D02*
X61680000Y-88430000D01*
%TO.N,Net-(U1-PadCN10_23)*%
X61680000Y-89680000D02*
X61680000Y-90920000D01*
X60500000Y-88500000D02*
X61680000Y-89680000D01*
X60500000Y-81940000D02*
X60500000Y-88500000D01*
X61680000Y-80760000D02*
X60500000Y-81940000D01*
%TO.N,Net-(U1-PadCN10_22)*%
X65500000Y-92180000D02*
X64220000Y-93460000D01*
X65500000Y-89750000D02*
X65500000Y-92180000D01*
X64220000Y-88470000D02*
X65500000Y-89750000D01*
X64220000Y-83300000D02*
X64220000Y-88470000D01*
%TO.N,Net-(U1-PadCN10_21)*%
X64220000Y-89720000D02*
X64220000Y-90920000D01*
X63000000Y-88500000D02*
X64220000Y-89720000D01*
X63000000Y-81980000D02*
X63000000Y-88500000D01*
X64220000Y-80760000D02*
X63000000Y-81980000D01*
%TO.N,Net-(U1-PadCN10_4)*%
X88250000Y-92290000D02*
X87080000Y-93460000D01*
X88250000Y-89750000D02*
X88250000Y-92290000D01*
X87080000Y-88580000D02*
X88250000Y-89750000D01*
X87080000Y-83300000D02*
X87080000Y-88580000D01*
%TO.N,Net-(U1-PadCN10_3)*%
X87080000Y-89750000D02*
X87080000Y-90920000D01*
X85750000Y-88420000D02*
X87080000Y-89750000D01*
X85750000Y-82090000D02*
X85750000Y-88420000D01*
X87080000Y-80760000D02*
X85750000Y-82090000D01*
%TO.N,Net-(U1-PadCN10_2)*%
X91000000Y-92080000D02*
X89620000Y-93460000D01*
X91000000Y-89500000D02*
X91000000Y-92080000D01*
X89620000Y-88120000D02*
X91000000Y-89500000D01*
X89620000Y-83300000D02*
X89620000Y-88120000D01*
%TO.N,Net-(U1-PadCN10_17)*%
X69300000Y-89800000D02*
X69300000Y-90920000D01*
X68000000Y-88500000D02*
X69300000Y-89800000D01*
X68000000Y-82060000D02*
X68000000Y-88500000D01*
X69300000Y-80760000D02*
X68000000Y-82060000D01*
%TO.N,Net-(U1-PadCN10_34)*%
X50250000Y-92190000D02*
X48980000Y-93460000D01*
X48980000Y-88480000D02*
X50250000Y-89750000D01*
X50250000Y-89750000D02*
X50250000Y-92190000D01*
X48980000Y-83300000D02*
X48980000Y-88480000D01*
%TO.N,Net-(U1-PadCN10_27)*%
X56600000Y-89600000D02*
X56600000Y-90920000D01*
X55250000Y-88250000D02*
X56600000Y-89600000D01*
X55250000Y-82110000D02*
X55250000Y-88250000D01*
X56600000Y-80760000D02*
X55250000Y-82110000D01*
%TO.N,Net-(U1-PadCN10_35)*%
X46440000Y-89750000D02*
X46440000Y-90920000D01*
X45250000Y-88560000D02*
X46440000Y-89750000D01*
X45250000Y-81950000D02*
X45250000Y-88560000D01*
X46440000Y-80760000D02*
X45250000Y-81950000D01*
%TO.N,Net-(U1-PadCN10_28)*%
X57040000Y-93460000D02*
X56600000Y-93460000D01*
X58000000Y-92500000D02*
X57040000Y-93460000D01*
X56600000Y-88350000D02*
X58000000Y-89750000D01*
X58000000Y-89750000D02*
X58000000Y-92500000D01*
X56600000Y-83300000D02*
X56600000Y-88350000D01*
%TO.N,Net-(U1-PadCN10_16)*%
X73250000Y-92050000D02*
X71840000Y-93460000D01*
X73250000Y-89750000D02*
X73250000Y-92050000D01*
X71840000Y-88340000D02*
X73250000Y-89750000D01*
X71840000Y-83300000D02*
X71840000Y-88340000D01*
%TO.N,Net-(U1-PadCN10_15)*%
X71840000Y-89750000D02*
X71840000Y-90920000D01*
X70600000Y-88510000D02*
X71840000Y-89750000D01*
X70600000Y-82000000D02*
X70600000Y-88510000D01*
X71840000Y-80760000D02*
X70600000Y-82000000D01*
%TO.N,Net-(U1-PadCN10_14)*%
X75750000Y-92090000D02*
X74380000Y-93460000D01*
X75750000Y-89750000D02*
X75750000Y-92090000D01*
X74380000Y-88380000D02*
X75750000Y-89750000D01*
X74380000Y-83300000D02*
X74380000Y-88380000D01*
%TO.N,Net-(U1-PadCN10_13)*%
X73140000Y-88380000D02*
X74380000Y-89620000D01*
X73140000Y-82000000D02*
X73140000Y-88380000D01*
X74380000Y-89620000D02*
X74380000Y-90920000D01*
X74380000Y-80760000D02*
X73140000Y-82000000D01*
%TO.N,Net-(U1-PadCN10_8)*%
X83250000Y-92210000D02*
X82000000Y-93460000D01*
X83250000Y-89750000D02*
X83250000Y-92210000D01*
X82000000Y-88500000D02*
X83250000Y-89750000D01*
X82000000Y-83300000D02*
X82000000Y-88500000D01*
%TO.N,Net-(U1-PadCN10_7)*%
X82000000Y-89750000D02*
X82000000Y-90920000D01*
X80750000Y-88500000D02*
X82000000Y-89750000D01*
X80750000Y-82010000D02*
X80750000Y-88500000D01*
X82000000Y-80760000D02*
X80750000Y-82010000D01*
%TO.N,Net-(U1-PadCN10_6)*%
X85750000Y-92250000D02*
X84540000Y-93460000D01*
X85750000Y-89750000D02*
X85750000Y-92250000D01*
X84540000Y-88540000D02*
X85750000Y-89750000D01*
X84540000Y-83300000D02*
X84540000Y-88540000D01*
%TO.N,Net-(U1-PadCN10_5)*%
X84540000Y-89790000D02*
X84540000Y-90920000D01*
X83250000Y-88500000D02*
X84540000Y-89790000D01*
X83250000Y-82050000D02*
X83250000Y-88500000D01*
X84540000Y-80760000D02*
X83250000Y-82050000D01*
%TO.N,Net-(U1-PadCN10_37)*%
X43900000Y-89750000D02*
X43900000Y-90920000D01*
X42500000Y-82160000D02*
X42500000Y-88350000D01*
X42500000Y-88350000D02*
X43900000Y-89750000D01*
X43900000Y-80760000D02*
X42500000Y-82160000D01*
%TO.N,Net-(U1-PadCN10_1)*%
X89500000Y-90800000D02*
X89620000Y-90920000D01*
X89500000Y-89750000D02*
X89500000Y-90800000D01*
X88250000Y-88500000D02*
X89500000Y-89750000D01*
X88250000Y-82250000D02*
X88250000Y-88500000D01*
X89620000Y-80880000D02*
X88250000Y-82250000D01*
X89620000Y-80760000D02*
X89620000Y-80880000D01*
%TD*%
D18*
%TO.N,GNDD*%
G36*
X127840000Y-96340000D02*
G01*
X39160000Y-96340000D01*
X39160000Y-82160000D01*
X41736324Y-82160000D01*
X41740000Y-82197323D01*
X41740001Y-88312668D01*
X41736324Y-88350000D01*
X41740001Y-88387333D01*
X41750998Y-88498986D01*
X41759597Y-88527333D01*
X41794454Y-88642246D01*
X41865026Y-88774276D01*
X41920809Y-88842247D01*
X41960000Y-88890001D01*
X41988998Y-88913799D01*
X42957650Y-89882451D01*
X42812549Y-90027552D01*
X42659336Y-90256851D01*
X42553801Y-90511635D01*
X42500000Y-90782112D01*
X42500000Y-91057888D01*
X42553801Y-91328365D01*
X42659336Y-91583149D01*
X42812549Y-91812448D01*
X43007552Y-92007451D01*
X43236851Y-92160664D01*
X43307674Y-92190000D01*
X43236851Y-92219336D01*
X43007552Y-92372549D01*
X42812549Y-92567552D01*
X42659336Y-92796851D01*
X42553801Y-93051635D01*
X42500000Y-93322112D01*
X42500000Y-93597888D01*
X42553801Y-93868365D01*
X42659336Y-94123149D01*
X42812549Y-94352448D01*
X43007552Y-94547451D01*
X43236851Y-94700664D01*
X43491635Y-94806199D01*
X43762112Y-94860000D01*
X44037888Y-94860000D01*
X44308365Y-94806199D01*
X44563149Y-94700664D01*
X44792448Y-94547451D01*
X44987451Y-94352448D01*
X45140664Y-94123149D01*
X45170000Y-94052326D01*
X45199336Y-94123149D01*
X45352549Y-94352448D01*
X45547552Y-94547451D01*
X45776851Y-94700664D01*
X46031635Y-94806199D01*
X46302112Y-94860000D01*
X46577888Y-94860000D01*
X46848365Y-94806199D01*
X47103149Y-94700664D01*
X47332448Y-94547451D01*
X47527451Y-94352448D01*
X47680664Y-94123149D01*
X47710000Y-94052326D01*
X47739336Y-94123149D01*
X47892549Y-94352448D01*
X48087552Y-94547451D01*
X48316851Y-94700664D01*
X48571635Y-94806199D01*
X48842112Y-94860000D01*
X49117888Y-94860000D01*
X49388365Y-94806199D01*
X49643149Y-94700664D01*
X49872448Y-94547451D01*
X50067451Y-94352448D01*
X50220664Y-94123149D01*
X50250000Y-94052326D01*
X50279336Y-94123149D01*
X50432549Y-94352448D01*
X50627552Y-94547451D01*
X50856851Y-94700664D01*
X51111635Y-94806199D01*
X51382112Y-94860000D01*
X51657888Y-94860000D01*
X51928365Y-94806199D01*
X52183149Y-94700664D01*
X52412448Y-94547451D01*
X52607451Y-94352448D01*
X52760664Y-94123149D01*
X52790000Y-94052326D01*
X52819336Y-94123149D01*
X52972549Y-94352448D01*
X53167552Y-94547451D01*
X53396851Y-94700664D01*
X53651635Y-94806199D01*
X53922112Y-94860000D01*
X54197888Y-94860000D01*
X54468365Y-94806199D01*
X54723149Y-94700664D01*
X54952448Y-94547451D01*
X55147451Y-94352448D01*
X55300664Y-94123149D01*
X55330000Y-94052326D01*
X55359336Y-94123149D01*
X55512549Y-94352448D01*
X55707552Y-94547451D01*
X55936851Y-94700664D01*
X56191635Y-94806199D01*
X56462112Y-94860000D01*
X56737888Y-94860000D01*
X57008365Y-94806199D01*
X57263149Y-94700664D01*
X57492448Y-94547451D01*
X57687451Y-94352448D01*
X57840664Y-94123149D01*
X57870000Y-94052326D01*
X57899336Y-94123149D01*
X58052549Y-94352448D01*
X58247552Y-94547451D01*
X58476851Y-94700664D01*
X58731635Y-94806199D01*
X59002112Y-94860000D01*
X59277888Y-94860000D01*
X59548365Y-94806199D01*
X59803149Y-94700664D01*
X60032448Y-94547451D01*
X60227451Y-94352448D01*
X60380664Y-94123149D01*
X60410000Y-94052326D01*
X60439336Y-94123149D01*
X60592549Y-94352448D01*
X60787552Y-94547451D01*
X61016851Y-94700664D01*
X61271635Y-94806199D01*
X61542112Y-94860000D01*
X61817888Y-94860000D01*
X62088365Y-94806199D01*
X62343149Y-94700664D01*
X62572448Y-94547451D01*
X62767451Y-94352448D01*
X62920664Y-94123149D01*
X62950000Y-94052326D01*
X62979336Y-94123149D01*
X63132549Y-94352448D01*
X63327552Y-94547451D01*
X63556851Y-94700664D01*
X63811635Y-94806199D01*
X64082112Y-94860000D01*
X64357888Y-94860000D01*
X64628365Y-94806199D01*
X64883149Y-94700664D01*
X65112448Y-94547451D01*
X65307451Y-94352448D01*
X65460664Y-94123149D01*
X65490000Y-94052326D01*
X65519336Y-94123149D01*
X65672549Y-94352448D01*
X65867552Y-94547451D01*
X66096851Y-94700664D01*
X66351635Y-94806199D01*
X66622112Y-94860000D01*
X66897888Y-94860000D01*
X67168365Y-94806199D01*
X67423149Y-94700664D01*
X67652448Y-94547451D01*
X67847451Y-94352448D01*
X68000664Y-94123149D01*
X68030000Y-94052326D01*
X68059336Y-94123149D01*
X68212549Y-94352448D01*
X68407552Y-94547451D01*
X68636851Y-94700664D01*
X68891635Y-94806199D01*
X69162112Y-94860000D01*
X69437888Y-94860000D01*
X69708365Y-94806199D01*
X69963149Y-94700664D01*
X70192448Y-94547451D01*
X70387451Y-94352448D01*
X70540664Y-94123149D01*
X70570000Y-94052326D01*
X70599336Y-94123149D01*
X70752549Y-94352448D01*
X70947552Y-94547451D01*
X71176851Y-94700664D01*
X71431635Y-94806199D01*
X71702112Y-94860000D01*
X71977888Y-94860000D01*
X72248365Y-94806199D01*
X72503149Y-94700664D01*
X72732448Y-94547451D01*
X72927451Y-94352448D01*
X73080664Y-94123149D01*
X73110000Y-94052326D01*
X73139336Y-94123149D01*
X73292549Y-94352448D01*
X73487552Y-94547451D01*
X73716851Y-94700664D01*
X73971635Y-94806199D01*
X74242112Y-94860000D01*
X74517888Y-94860000D01*
X74788365Y-94806199D01*
X75043149Y-94700664D01*
X75272448Y-94547451D01*
X75467451Y-94352448D01*
X75620664Y-94123149D01*
X75650000Y-94052326D01*
X75679336Y-94123149D01*
X75832549Y-94352448D01*
X76027552Y-94547451D01*
X76256851Y-94700664D01*
X76511635Y-94806199D01*
X76782112Y-94860000D01*
X77057888Y-94860000D01*
X77328365Y-94806199D01*
X77583149Y-94700664D01*
X77812448Y-94547451D01*
X78007451Y-94352448D01*
X78160664Y-94123149D01*
X78190000Y-94052326D01*
X78219336Y-94123149D01*
X78372549Y-94352448D01*
X78567552Y-94547451D01*
X78796851Y-94700664D01*
X79051635Y-94806199D01*
X79322112Y-94860000D01*
X79597888Y-94860000D01*
X79868365Y-94806199D01*
X80123149Y-94700664D01*
X80352448Y-94547451D01*
X80547451Y-94352448D01*
X80700664Y-94123149D01*
X80730000Y-94052326D01*
X80759336Y-94123149D01*
X80912549Y-94352448D01*
X81107552Y-94547451D01*
X81336851Y-94700664D01*
X81591635Y-94806199D01*
X81862112Y-94860000D01*
X82137888Y-94860000D01*
X82408365Y-94806199D01*
X82663149Y-94700664D01*
X82892448Y-94547451D01*
X83087451Y-94352448D01*
X83240664Y-94123149D01*
X83270000Y-94052326D01*
X83299336Y-94123149D01*
X83452549Y-94352448D01*
X83647552Y-94547451D01*
X83876851Y-94700664D01*
X84131635Y-94806199D01*
X84402112Y-94860000D01*
X84677888Y-94860000D01*
X84948365Y-94806199D01*
X85203149Y-94700664D01*
X85432448Y-94547451D01*
X85627451Y-94352448D01*
X85780664Y-94123149D01*
X85810000Y-94052326D01*
X85839336Y-94123149D01*
X85992549Y-94352448D01*
X86187552Y-94547451D01*
X86416851Y-94700664D01*
X86671635Y-94806199D01*
X86942112Y-94860000D01*
X87217888Y-94860000D01*
X87488365Y-94806199D01*
X87743149Y-94700664D01*
X87972448Y-94547451D01*
X88167451Y-94352448D01*
X88320664Y-94123149D01*
X88350000Y-94052326D01*
X88379336Y-94123149D01*
X88532549Y-94352448D01*
X88727552Y-94547451D01*
X88956851Y-94700664D01*
X89211635Y-94806199D01*
X89482112Y-94860000D01*
X89757888Y-94860000D01*
X90028365Y-94806199D01*
X90283149Y-94700664D01*
X90512448Y-94547451D01*
X90707451Y-94352448D01*
X90860664Y-94123149D01*
X90966199Y-93868365D01*
X91020000Y-93597888D01*
X91020000Y-93322112D01*
X90988923Y-93165878D01*
X91511003Y-92643799D01*
X91540001Y-92620001D01*
X91634974Y-92504276D01*
X91705546Y-92372247D01*
X91749003Y-92228986D01*
X91760000Y-92117333D01*
X91760000Y-92117325D01*
X91763676Y-92080000D01*
X91760000Y-92042675D01*
X91760000Y-89537325D01*
X91763676Y-89500000D01*
X91760000Y-89462675D01*
X91760000Y-89462667D01*
X91749003Y-89351014D01*
X91705546Y-89207753D01*
X91634974Y-89075724D01*
X91540001Y-88959999D01*
X91511004Y-88936202D01*
X90380000Y-87805199D01*
X90380000Y-87018940D01*
X90501637Y-87200983D01*
X90799017Y-87498363D01*
X91148698Y-87732012D01*
X91537244Y-87892953D01*
X91949721Y-87975000D01*
X92370279Y-87975000D01*
X92782756Y-87892953D01*
X93171302Y-87732012D01*
X93520983Y-87498363D01*
X93818363Y-87200983D01*
X94052012Y-86851302D01*
X94212953Y-86462756D01*
X94295000Y-86050279D01*
X94295000Y-85629721D01*
X94212953Y-85217244D01*
X94052012Y-84828698D01*
X93818363Y-84479017D01*
X93520983Y-84181637D01*
X93171302Y-83947988D01*
X92782756Y-83787047D01*
X92370279Y-83705000D01*
X91949721Y-83705000D01*
X91537244Y-83787047D01*
X91148698Y-83947988D01*
X90799017Y-84181637D01*
X90501637Y-84479017D01*
X90380000Y-84661060D01*
X90380000Y-84475950D01*
X90512448Y-84387451D01*
X90707451Y-84192448D01*
X90860664Y-83963149D01*
X90966199Y-83708365D01*
X91020000Y-83437888D01*
X91020000Y-83162112D01*
X90966199Y-82891635D01*
X90860664Y-82636851D01*
X90707451Y-82407552D01*
X90512448Y-82212549D01*
X90431541Y-82158488D01*
X90509482Y-82150812D01*
X90629180Y-82114502D01*
X90739494Y-82055537D01*
X90836185Y-81976185D01*
X90915537Y-81879494D01*
X90974502Y-81769180D01*
X91010812Y-81649482D01*
X91023072Y-81525000D01*
X91023072Y-79995000D01*
X91010812Y-79870518D01*
X90974502Y-79750820D01*
X90915537Y-79640506D01*
X90836185Y-79543815D01*
X90739494Y-79464463D01*
X90629180Y-79405498D01*
X90509482Y-79369188D01*
X90385000Y-79356928D01*
X88855000Y-79356928D01*
X88730518Y-79369188D01*
X88610820Y-79405498D01*
X88500506Y-79464463D01*
X88403815Y-79543815D01*
X88324463Y-79640506D01*
X88265498Y-79750820D01*
X88229188Y-79870518D01*
X88221512Y-79948459D01*
X88167451Y-79867552D01*
X87972448Y-79672549D01*
X87743149Y-79519336D01*
X87488365Y-79413801D01*
X87217888Y-79360000D01*
X86942112Y-79360000D01*
X86671635Y-79413801D01*
X86416851Y-79519336D01*
X86187552Y-79672549D01*
X85992549Y-79867552D01*
X85839336Y-80096851D01*
X85810000Y-80167674D01*
X85780664Y-80096851D01*
X85627451Y-79867552D01*
X85432448Y-79672549D01*
X85203149Y-79519336D01*
X84948365Y-79413801D01*
X84677888Y-79360000D01*
X84402112Y-79360000D01*
X84131635Y-79413801D01*
X83876851Y-79519336D01*
X83647552Y-79672549D01*
X83452549Y-79867552D01*
X83299336Y-80096851D01*
X83270000Y-80167674D01*
X83240664Y-80096851D01*
X83087451Y-79867552D01*
X82892448Y-79672549D01*
X82663149Y-79519336D01*
X82408365Y-79413801D01*
X82137888Y-79360000D01*
X81862112Y-79360000D01*
X81591635Y-79413801D01*
X81336851Y-79519336D01*
X81107552Y-79672549D01*
X80912549Y-79867552D01*
X80759336Y-80096851D01*
X80730000Y-80167674D01*
X80700664Y-80096851D01*
X80547451Y-79867552D01*
X80352448Y-79672549D01*
X80123149Y-79519336D01*
X79868365Y-79413801D01*
X79597888Y-79360000D01*
X79322112Y-79360000D01*
X79051635Y-79413801D01*
X78796851Y-79519336D01*
X78567552Y-79672549D01*
X78372549Y-79867552D01*
X78219336Y-80096851D01*
X78190000Y-80167674D01*
X78160664Y-80096851D01*
X78007451Y-79867552D01*
X77812448Y-79672549D01*
X77583149Y-79519336D01*
X77328365Y-79413801D01*
X77057888Y-79360000D01*
X76782112Y-79360000D01*
X76511635Y-79413801D01*
X76256851Y-79519336D01*
X76027552Y-79672549D01*
X75832549Y-79867552D01*
X75679336Y-80096851D01*
X75650000Y-80167674D01*
X75620664Y-80096851D01*
X75467451Y-79867552D01*
X75272448Y-79672549D01*
X75043149Y-79519336D01*
X74788365Y-79413801D01*
X74517888Y-79360000D01*
X74242112Y-79360000D01*
X73971635Y-79413801D01*
X73716851Y-79519336D01*
X73487552Y-79672549D01*
X73292549Y-79867552D01*
X73139336Y-80096851D01*
X73110000Y-80167674D01*
X73080664Y-80096851D01*
X72927451Y-79867552D01*
X72732448Y-79672549D01*
X72503149Y-79519336D01*
X72248365Y-79413801D01*
X71977888Y-79360000D01*
X71702112Y-79360000D01*
X71431635Y-79413801D01*
X71176851Y-79519336D01*
X70947552Y-79672549D01*
X70752549Y-79867552D01*
X70599336Y-80096851D01*
X70570000Y-80167674D01*
X70540664Y-80096851D01*
X70387451Y-79867552D01*
X70192448Y-79672549D01*
X69963149Y-79519336D01*
X69708365Y-79413801D01*
X69437888Y-79360000D01*
X69162112Y-79360000D01*
X68891635Y-79413801D01*
X68636851Y-79519336D01*
X68407552Y-79672549D01*
X68212549Y-79867552D01*
X68059336Y-80096851D01*
X68030000Y-80167674D01*
X68000664Y-80096851D01*
X67847451Y-79867552D01*
X67652448Y-79672549D01*
X67423149Y-79519336D01*
X67168365Y-79413801D01*
X66897888Y-79360000D01*
X66622112Y-79360000D01*
X66351635Y-79413801D01*
X66096851Y-79519336D01*
X65867552Y-79672549D01*
X65672549Y-79867552D01*
X65519336Y-80096851D01*
X65490000Y-80167674D01*
X65460664Y-80096851D01*
X65307451Y-79867552D01*
X65112448Y-79672549D01*
X64883149Y-79519336D01*
X64628365Y-79413801D01*
X64357888Y-79360000D01*
X64082112Y-79360000D01*
X63811635Y-79413801D01*
X63556851Y-79519336D01*
X63327552Y-79672549D01*
X63132549Y-79867552D01*
X62979336Y-80096851D01*
X62950000Y-80167674D01*
X62920664Y-80096851D01*
X62767451Y-79867552D01*
X62572448Y-79672549D01*
X62343149Y-79519336D01*
X62088365Y-79413801D01*
X61817888Y-79360000D01*
X61542112Y-79360000D01*
X61271635Y-79413801D01*
X61016851Y-79519336D01*
X60787552Y-79672549D01*
X60592549Y-79867552D01*
X60439336Y-80096851D01*
X60410000Y-80167674D01*
X60380664Y-80096851D01*
X60227451Y-79867552D01*
X60032448Y-79672549D01*
X59803149Y-79519336D01*
X59548365Y-79413801D01*
X59277888Y-79360000D01*
X59002112Y-79360000D01*
X58731635Y-79413801D01*
X58476851Y-79519336D01*
X58247552Y-79672549D01*
X58052549Y-79867552D01*
X57899336Y-80096851D01*
X57870000Y-80167674D01*
X57840664Y-80096851D01*
X57687451Y-79867552D01*
X57492448Y-79672549D01*
X57263149Y-79519336D01*
X57008365Y-79413801D01*
X56737888Y-79360000D01*
X56462112Y-79360000D01*
X56191635Y-79413801D01*
X55936851Y-79519336D01*
X55707552Y-79672549D01*
X55512549Y-79867552D01*
X55359336Y-80096851D01*
X55330000Y-80167674D01*
X55300664Y-80096851D01*
X55147451Y-79867552D01*
X54952448Y-79672549D01*
X54723149Y-79519336D01*
X54468365Y-79413801D01*
X54197888Y-79360000D01*
X53922112Y-79360000D01*
X53651635Y-79413801D01*
X53396851Y-79519336D01*
X53167552Y-79672549D01*
X52972549Y-79867552D01*
X52819336Y-80096851D01*
X52790000Y-80167674D01*
X52760664Y-80096851D01*
X52607451Y-79867552D01*
X52412448Y-79672549D01*
X52183149Y-79519336D01*
X51928365Y-79413801D01*
X51657888Y-79360000D01*
X51382112Y-79360000D01*
X51111635Y-79413801D01*
X50856851Y-79519336D01*
X50627552Y-79672549D01*
X50432549Y-79867552D01*
X50279336Y-80096851D01*
X50250000Y-80167674D01*
X50220664Y-80096851D01*
X50067451Y-79867552D01*
X49872448Y-79672549D01*
X49643149Y-79519336D01*
X49388365Y-79413801D01*
X49117888Y-79360000D01*
X48842112Y-79360000D01*
X48571635Y-79413801D01*
X48316851Y-79519336D01*
X48087552Y-79672549D01*
X47892549Y-79867552D01*
X47739336Y-80096851D01*
X47710000Y-80167674D01*
X47680664Y-80096851D01*
X47527451Y-79867552D01*
X47332448Y-79672549D01*
X47103149Y-79519336D01*
X46848365Y-79413801D01*
X46577888Y-79360000D01*
X46302112Y-79360000D01*
X46031635Y-79413801D01*
X45776851Y-79519336D01*
X45547552Y-79672549D01*
X45352549Y-79867552D01*
X45199336Y-80096851D01*
X45170000Y-80167674D01*
X45140664Y-80096851D01*
X44987451Y-79867552D01*
X44792448Y-79672549D01*
X44563149Y-79519336D01*
X44308365Y-79413801D01*
X44037888Y-79360000D01*
X43762112Y-79360000D01*
X43491635Y-79413801D01*
X43236851Y-79519336D01*
X43007552Y-79672549D01*
X42812549Y-79867552D01*
X42659336Y-80096851D01*
X42553801Y-80351635D01*
X42500000Y-80622112D01*
X42500000Y-80897888D01*
X42531077Y-81054122D01*
X41989003Y-81596196D01*
X41959999Y-81619999D01*
X41929015Y-81657754D01*
X41865026Y-81735724D01*
X41835473Y-81791014D01*
X41794454Y-81867754D01*
X41750997Y-82011015D01*
X41740000Y-82122668D01*
X41740000Y-82122678D01*
X41736324Y-82160000D01*
X39160000Y-82160000D01*
X39160000Y-70389721D01*
X39225000Y-70389721D01*
X39225000Y-70810279D01*
X39307047Y-71222756D01*
X39467988Y-71611302D01*
X39701637Y-71960983D01*
X39999017Y-72258363D01*
X40348698Y-72492012D01*
X40737244Y-72652953D01*
X41149721Y-72735000D01*
X41570279Y-72735000D01*
X41982756Y-72652953D01*
X42371302Y-72492012D01*
X42720983Y-72258363D01*
X43018363Y-71960983D01*
X43252012Y-71611302D01*
X43412953Y-71222756D01*
X43495000Y-70810279D01*
X43495000Y-70389721D01*
X43412953Y-69977244D01*
X43252012Y-69588698D01*
X43018363Y-69239017D01*
X42720983Y-68941637D01*
X42371302Y-68707988D01*
X41982756Y-68547047D01*
X41570279Y-68465000D01*
X41149721Y-68465000D01*
X40737244Y-68547047D01*
X40348698Y-68707988D01*
X39999017Y-68941637D01*
X39701637Y-69239017D01*
X39467988Y-69588698D01*
X39307047Y-69977244D01*
X39225000Y-70389721D01*
X39160000Y-70389721D01*
X39160000Y-35000000D01*
X41736324Y-35000000D01*
X41740000Y-35037323D01*
X41740001Y-41222668D01*
X41736324Y-41260000D01*
X41740001Y-41297333D01*
X41750998Y-41408986D01*
X41757065Y-41428985D01*
X41794454Y-41552246D01*
X41865026Y-41684276D01*
X41923069Y-41755001D01*
X41960000Y-41800001D01*
X41988998Y-41823799D01*
X42531077Y-42365878D01*
X42500000Y-42522112D01*
X42500000Y-42797888D01*
X42553801Y-43068365D01*
X42659336Y-43323149D01*
X42812549Y-43552448D01*
X43007552Y-43747451D01*
X43236851Y-43900664D01*
X43491635Y-44006199D01*
X43762112Y-44060000D01*
X44037888Y-44060000D01*
X44308365Y-44006199D01*
X44563149Y-43900664D01*
X44792448Y-43747451D01*
X44987451Y-43552448D01*
X45140664Y-43323149D01*
X45170000Y-43252326D01*
X45199336Y-43323149D01*
X45352549Y-43552448D01*
X45547552Y-43747451D01*
X45776851Y-43900664D01*
X46031635Y-44006199D01*
X46302112Y-44060000D01*
X46577888Y-44060000D01*
X46848365Y-44006199D01*
X47103149Y-43900664D01*
X47332448Y-43747451D01*
X47527451Y-43552448D01*
X47680664Y-43323149D01*
X47710000Y-43252326D01*
X47739336Y-43323149D01*
X47892549Y-43552448D01*
X48087552Y-43747451D01*
X48316851Y-43900664D01*
X48571635Y-44006199D01*
X48842112Y-44060000D01*
X49117888Y-44060000D01*
X49388365Y-44006199D01*
X49440661Y-43984537D01*
X45488998Y-47936201D01*
X45460000Y-47959999D01*
X45436202Y-47988997D01*
X45436201Y-47988998D01*
X45365026Y-48075724D01*
X45294454Y-48207754D01*
X45250998Y-48351015D01*
X45236324Y-48500000D01*
X45240001Y-48537333D01*
X45240000Y-65962678D01*
X45236324Y-66000000D01*
X45240000Y-66037322D01*
X45240000Y-66037332D01*
X45250997Y-66148985D01*
X45294454Y-66292246D01*
X45365026Y-66424276D01*
X45375014Y-66436446D01*
X45459999Y-66540001D01*
X45489003Y-66563804D01*
X47436200Y-68511002D01*
X47459999Y-68540001D01*
X47488997Y-68563799D01*
X47575723Y-68634974D01*
X47707753Y-68705546D01*
X47851014Y-68749003D01*
X47962667Y-68760000D01*
X47962676Y-68760000D01*
X47999999Y-68763676D01*
X48037322Y-68760000D01*
X81685199Y-68760000D01*
X91861928Y-78936730D01*
X91861928Y-81500000D01*
X91874188Y-81624482D01*
X91910498Y-81744180D01*
X91969463Y-81854494D01*
X92048815Y-81951185D01*
X92145506Y-82030537D01*
X92255820Y-82089502D01*
X92375518Y-82125812D01*
X92500000Y-82138072D01*
X95500000Y-82138072D01*
X95624482Y-82125812D01*
X95744180Y-82089502D01*
X95854494Y-82030537D01*
X95951185Y-81951185D01*
X96030537Y-81854494D01*
X96089502Y-81744180D01*
X96125812Y-81624482D01*
X96138072Y-81500000D01*
X96138072Y-81491653D01*
X113177952Y-81491653D01*
X113333962Y-81807214D01*
X113708745Y-81998020D01*
X114113551Y-82112044D01*
X114532824Y-82144902D01*
X114950451Y-82095334D01*
X115350383Y-81965243D01*
X115646038Y-81807214D01*
X115802048Y-81491653D01*
X114490000Y-80179605D01*
X113177952Y-81491653D01*
X96138072Y-81491653D01*
X96138072Y-80042824D01*
X112345098Y-80042824D01*
X112394666Y-80460451D01*
X112524757Y-80860383D01*
X112682786Y-81156038D01*
X112998347Y-81312048D01*
X114310395Y-80000000D01*
X114669605Y-80000000D01*
X115981653Y-81312048D01*
X116297214Y-81156038D01*
X116488020Y-80781255D01*
X116602044Y-80376449D01*
X116634902Y-79957176D01*
X116585334Y-79539549D01*
X116455243Y-79139617D01*
X116297214Y-78843962D01*
X115981653Y-78687952D01*
X114669605Y-80000000D01*
X114310395Y-80000000D01*
X112998347Y-78687952D01*
X112682786Y-78843962D01*
X112491980Y-79218745D01*
X112377956Y-79623551D01*
X112345098Y-80042824D01*
X96138072Y-80042824D01*
X96138072Y-78508347D01*
X113177952Y-78508347D01*
X114490000Y-79820395D01*
X115802048Y-78508347D01*
X115646038Y-78192786D01*
X115271255Y-78001980D01*
X114866449Y-77887956D01*
X114447176Y-77855098D01*
X114029549Y-77904666D01*
X113629617Y-78034757D01*
X113333962Y-78192786D01*
X113177952Y-78508347D01*
X96138072Y-78508347D01*
X96138072Y-78500000D01*
X96125812Y-78375518D01*
X96089502Y-78255820D01*
X96030537Y-78145506D01*
X95951185Y-78048815D01*
X95854494Y-77969463D01*
X95744180Y-77910498D01*
X95624482Y-77874188D01*
X95500000Y-77861928D01*
X92936730Y-77861928D01*
X82563804Y-67489003D01*
X82540001Y-67459999D01*
X82424276Y-67365026D01*
X82292247Y-67294454D01*
X82148986Y-67250997D01*
X82037333Y-67240000D01*
X82037322Y-67240000D01*
X82000000Y-67236324D01*
X81962678Y-67240000D01*
X59437138Y-67240000D01*
X59566632Y-67153475D01*
X59773475Y-66946632D01*
X59935990Y-66703411D01*
X60047932Y-66433158D01*
X60105000Y-66146260D01*
X60105000Y-65853740D01*
X60047932Y-65566842D01*
X59935990Y-65296589D01*
X59773475Y-65053368D01*
X59755000Y-65034893D01*
X59755000Y-63650000D01*
X87511928Y-63650000D01*
X87511928Y-65350000D01*
X87524188Y-65474482D01*
X87560498Y-65594180D01*
X87619463Y-65704494D01*
X87698815Y-65801185D01*
X87795506Y-65880537D01*
X87905820Y-65939502D01*
X88025518Y-65975812D01*
X88150000Y-65988072D01*
X89850000Y-65988072D01*
X89974482Y-65975812D01*
X90094180Y-65939502D01*
X90204494Y-65880537D01*
X90301185Y-65801185D01*
X90380537Y-65704494D01*
X90439502Y-65594180D01*
X90461513Y-65521620D01*
X90593368Y-65653475D01*
X90836589Y-65815990D01*
X91106842Y-65927932D01*
X91393740Y-65985000D01*
X91686260Y-65985000D01*
X91973158Y-65927932D01*
X92243411Y-65815990D01*
X92486632Y-65653475D01*
X92693475Y-65446632D01*
X92855990Y-65203411D01*
X92967932Y-64933158D01*
X93025000Y-64646260D01*
X93025000Y-64353740D01*
X92967932Y-64066842D01*
X92855990Y-63796589D01*
X92758043Y-63650000D01*
X98511928Y-63650000D01*
X98511928Y-65350000D01*
X98524188Y-65474482D01*
X98560498Y-65594180D01*
X98619463Y-65704494D01*
X98698815Y-65801185D01*
X98795506Y-65880537D01*
X98905820Y-65939502D01*
X99025518Y-65975812D01*
X99150000Y-65988072D01*
X100850000Y-65988072D01*
X100974482Y-65975812D01*
X101094180Y-65939502D01*
X101204494Y-65880537D01*
X101301185Y-65801185D01*
X101380537Y-65704494D01*
X101439502Y-65594180D01*
X101461513Y-65521620D01*
X101593368Y-65653475D01*
X101836589Y-65815990D01*
X102106842Y-65927932D01*
X102393740Y-65985000D01*
X102686260Y-65985000D01*
X102973158Y-65927932D01*
X103243411Y-65815990D01*
X103486632Y-65653475D01*
X103693475Y-65446632D01*
X103855990Y-65203411D01*
X103967932Y-64933158D01*
X104025000Y-64646260D01*
X104025000Y-64353740D01*
X103967932Y-64066842D01*
X103855990Y-63796589D01*
X103693475Y-63553368D01*
X103486632Y-63346525D01*
X103243411Y-63184010D01*
X102973158Y-63072068D01*
X102686260Y-63015000D01*
X102393740Y-63015000D01*
X102106842Y-63072068D01*
X101836589Y-63184010D01*
X101593368Y-63346525D01*
X101461513Y-63478380D01*
X101439502Y-63405820D01*
X101380537Y-63295506D01*
X101301185Y-63198815D01*
X101204494Y-63119463D01*
X101094180Y-63060498D01*
X100974482Y-63024188D01*
X100850000Y-63011928D01*
X99150000Y-63011928D01*
X99025518Y-63024188D01*
X98905820Y-63060498D01*
X98795506Y-63119463D01*
X98698815Y-63198815D01*
X98619463Y-63295506D01*
X98560498Y-63405820D01*
X98524188Y-63525518D01*
X98511928Y-63650000D01*
X92758043Y-63650000D01*
X92693475Y-63553368D01*
X92486632Y-63346525D01*
X92243411Y-63184010D01*
X91973158Y-63072068D01*
X91686260Y-63015000D01*
X91393740Y-63015000D01*
X91106842Y-63072068D01*
X90836589Y-63184010D01*
X90593368Y-63346525D01*
X90461513Y-63478380D01*
X90439502Y-63405820D01*
X90380537Y-63295506D01*
X90301185Y-63198815D01*
X90204494Y-63119463D01*
X90094180Y-63060498D01*
X89974482Y-63024188D01*
X89850000Y-63011928D01*
X88150000Y-63011928D01*
X88025518Y-63024188D01*
X87905820Y-63060498D01*
X87795506Y-63119463D01*
X87698815Y-63198815D01*
X87619463Y-63295506D01*
X87560498Y-63405820D01*
X87524188Y-63525518D01*
X87511928Y-63650000D01*
X59755000Y-63650000D01*
X59755000Y-59650000D01*
X82511928Y-59650000D01*
X82511928Y-61350000D01*
X82524188Y-61474482D01*
X82560498Y-61594180D01*
X82619463Y-61704494D01*
X82698815Y-61801185D01*
X82795506Y-61880537D01*
X82905820Y-61939502D01*
X83025518Y-61975812D01*
X83150000Y-61988072D01*
X84850000Y-61988072D01*
X84974482Y-61975812D01*
X85094180Y-61939502D01*
X85204494Y-61880537D01*
X85301185Y-61801185D01*
X85380537Y-61704494D01*
X85439502Y-61594180D01*
X85461513Y-61521620D01*
X85593368Y-61653475D01*
X85836589Y-61815990D01*
X86106842Y-61927932D01*
X86393740Y-61985000D01*
X86686260Y-61985000D01*
X86973158Y-61927932D01*
X87243411Y-61815990D01*
X87486632Y-61653475D01*
X87693475Y-61446632D01*
X87810000Y-61272240D01*
X87926525Y-61446632D01*
X88133368Y-61653475D01*
X88376589Y-61815990D01*
X88646842Y-61927932D01*
X88933740Y-61985000D01*
X89226260Y-61985000D01*
X89513158Y-61927932D01*
X89783411Y-61815990D01*
X90026632Y-61653475D01*
X90233475Y-61446632D01*
X90350000Y-61272240D01*
X90466525Y-61446632D01*
X90673368Y-61653475D01*
X90916589Y-61815990D01*
X91186842Y-61927932D01*
X91473740Y-61985000D01*
X91766260Y-61985000D01*
X92053158Y-61927932D01*
X92323411Y-61815990D01*
X92566632Y-61653475D01*
X92773475Y-61446632D01*
X92838042Y-61350000D01*
X94511928Y-61350000D01*
X94524188Y-61474482D01*
X94560498Y-61594180D01*
X94619463Y-61704494D01*
X94698815Y-61801185D01*
X94795506Y-61880537D01*
X94905820Y-61939502D01*
X95025518Y-61975812D01*
X95150000Y-61988072D01*
X95714250Y-61985000D01*
X95873000Y-61826250D01*
X95873000Y-60627000D01*
X96127000Y-60627000D01*
X96127000Y-61826250D01*
X96285750Y-61985000D01*
X96850000Y-61988072D01*
X96974482Y-61975812D01*
X97094180Y-61939502D01*
X97204494Y-61880537D01*
X97301185Y-61801185D01*
X97380537Y-61704494D01*
X97439502Y-61594180D01*
X97463966Y-61513534D01*
X97539731Y-61597588D01*
X97773080Y-61771641D01*
X98035901Y-61896825D01*
X98183110Y-61941476D01*
X98413000Y-61820155D01*
X98413000Y-60627000D01*
X96127000Y-60627000D01*
X95873000Y-60627000D01*
X94673750Y-60627000D01*
X94515000Y-60785750D01*
X94511928Y-61350000D01*
X92838042Y-61350000D01*
X92935990Y-61203411D01*
X93047932Y-60933158D01*
X93105000Y-60646260D01*
X93105000Y-60353740D01*
X93047932Y-60066842D01*
X92935990Y-59796589D01*
X92838043Y-59650000D01*
X94511928Y-59650000D01*
X94515000Y-60214250D01*
X94673750Y-60373000D01*
X95873000Y-60373000D01*
X95873000Y-59173750D01*
X96127000Y-59173750D01*
X96127000Y-60373000D01*
X98413000Y-60373000D01*
X98413000Y-59179845D01*
X98183110Y-59058524D01*
X98035901Y-59103175D01*
X97773080Y-59228359D01*
X97539731Y-59402412D01*
X97463966Y-59486466D01*
X97439502Y-59405820D01*
X97380537Y-59295506D01*
X97301185Y-59198815D01*
X97204494Y-59119463D01*
X97094180Y-59060498D01*
X96974482Y-59024188D01*
X96850000Y-59011928D01*
X96285750Y-59015000D01*
X96127000Y-59173750D01*
X95873000Y-59173750D01*
X95714250Y-59015000D01*
X95150000Y-59011928D01*
X95025518Y-59024188D01*
X94905820Y-59060498D01*
X94795506Y-59119463D01*
X94698815Y-59198815D01*
X94619463Y-59295506D01*
X94560498Y-59405820D01*
X94524188Y-59525518D01*
X94511928Y-59650000D01*
X92838043Y-59650000D01*
X92773475Y-59553368D01*
X92566632Y-59346525D01*
X92323411Y-59184010D01*
X92053158Y-59072068D01*
X91766260Y-59015000D01*
X91473740Y-59015000D01*
X91186842Y-59072068D01*
X90916589Y-59184010D01*
X90673368Y-59346525D01*
X90466525Y-59553368D01*
X90350000Y-59727760D01*
X90233475Y-59553368D01*
X90026632Y-59346525D01*
X89783411Y-59184010D01*
X89513158Y-59072068D01*
X89226260Y-59015000D01*
X88933740Y-59015000D01*
X88646842Y-59072068D01*
X88376589Y-59184010D01*
X88133368Y-59346525D01*
X87926525Y-59553368D01*
X87810000Y-59727760D01*
X87693475Y-59553368D01*
X87486632Y-59346525D01*
X87243411Y-59184010D01*
X86973158Y-59072068D01*
X86686260Y-59015000D01*
X86393740Y-59015000D01*
X86106842Y-59072068D01*
X85836589Y-59184010D01*
X85593368Y-59346525D01*
X85461513Y-59478380D01*
X85439502Y-59405820D01*
X85380537Y-59295506D01*
X85301185Y-59198815D01*
X85204494Y-59119463D01*
X85094180Y-59060498D01*
X84974482Y-59024188D01*
X84850000Y-59011928D01*
X83150000Y-59011928D01*
X83025518Y-59024188D01*
X82905820Y-59060498D01*
X82795506Y-59119463D01*
X82698815Y-59198815D01*
X82619463Y-59295506D01*
X82560498Y-59405820D01*
X82524188Y-59525518D01*
X82511928Y-59650000D01*
X59755000Y-59650000D01*
X59755000Y-57350131D01*
X64955131Y-52150000D01*
X76011928Y-52150000D01*
X76011928Y-53850000D01*
X76024188Y-53974482D01*
X76060498Y-54094180D01*
X76119463Y-54204494D01*
X76198815Y-54301185D01*
X76295506Y-54380537D01*
X76405820Y-54439502D01*
X76525518Y-54475812D01*
X76650000Y-54488072D01*
X78350000Y-54488072D01*
X78474482Y-54475812D01*
X78594180Y-54439502D01*
X78704494Y-54380537D01*
X78801185Y-54301185D01*
X78880537Y-54204494D01*
X78939502Y-54094180D01*
X78961513Y-54021620D01*
X79093368Y-54153475D01*
X79336589Y-54315990D01*
X79606842Y-54427932D01*
X79893740Y-54485000D01*
X80186260Y-54485000D01*
X80473158Y-54427932D01*
X80743411Y-54315990D01*
X80986632Y-54153475D01*
X81193475Y-53946632D01*
X81258042Y-53850000D01*
X82511928Y-53850000D01*
X82524188Y-53974482D01*
X82560498Y-54094180D01*
X82619463Y-54204494D01*
X82698815Y-54301185D01*
X82795506Y-54380537D01*
X82905820Y-54439502D01*
X83025518Y-54475812D01*
X83150000Y-54488072D01*
X83714250Y-54485000D01*
X83873000Y-54326250D01*
X83873000Y-53127000D01*
X84127000Y-53127000D01*
X84127000Y-54326250D01*
X84285750Y-54485000D01*
X84850000Y-54488072D01*
X84974482Y-54475812D01*
X85094180Y-54439502D01*
X85204494Y-54380537D01*
X85301185Y-54301185D01*
X85380537Y-54204494D01*
X85439502Y-54094180D01*
X85463966Y-54013534D01*
X85539731Y-54097588D01*
X85773080Y-54271641D01*
X86035901Y-54396825D01*
X86183110Y-54441476D01*
X86413000Y-54320155D01*
X86413000Y-53127000D01*
X84127000Y-53127000D01*
X83873000Y-53127000D01*
X82673750Y-53127000D01*
X82515000Y-53285750D01*
X82511928Y-53850000D01*
X81258042Y-53850000D01*
X81355990Y-53703411D01*
X81467932Y-53433158D01*
X81525000Y-53146260D01*
X81525000Y-52853740D01*
X81467932Y-52566842D01*
X81355990Y-52296589D01*
X81258043Y-52150000D01*
X82511928Y-52150000D01*
X82515000Y-52714250D01*
X82673750Y-52873000D01*
X83873000Y-52873000D01*
X83873000Y-51673750D01*
X84127000Y-51673750D01*
X84127000Y-52873000D01*
X86413000Y-52873000D01*
X86413000Y-51679845D01*
X86667000Y-51679845D01*
X86667000Y-52873000D01*
X86687000Y-52873000D01*
X86687000Y-53127000D01*
X86667000Y-53127000D01*
X86667000Y-54320155D01*
X86896890Y-54441476D01*
X87044099Y-54396825D01*
X87306920Y-54271641D01*
X87540269Y-54097588D01*
X87735178Y-53881355D01*
X87804805Y-53764466D01*
X87926525Y-53946632D01*
X88133368Y-54153475D01*
X88376589Y-54315990D01*
X88646842Y-54427932D01*
X88933740Y-54485000D01*
X89226260Y-54485000D01*
X89513158Y-54427932D01*
X89783411Y-54315990D01*
X90026632Y-54153475D01*
X90045107Y-54135000D01*
X90654893Y-54135000D01*
X90673368Y-54153475D01*
X90916589Y-54315990D01*
X91186842Y-54427932D01*
X91473740Y-54485000D01*
X91766260Y-54485000D01*
X92053158Y-54427932D01*
X92323411Y-54315990D01*
X92566632Y-54153475D01*
X92773475Y-53946632D01*
X92935990Y-53703411D01*
X93047932Y-53433158D01*
X93105000Y-53146260D01*
X93105000Y-52853740D01*
X93047932Y-52566842D01*
X92935990Y-52296589D01*
X92773475Y-52053368D01*
X92566632Y-51846525D01*
X92323411Y-51684010D01*
X92053158Y-51572068D01*
X91766260Y-51515000D01*
X91473740Y-51515000D01*
X91186842Y-51572068D01*
X90916589Y-51684010D01*
X90673368Y-51846525D01*
X90654893Y-51865000D01*
X90045107Y-51865000D01*
X90026632Y-51846525D01*
X89783411Y-51684010D01*
X89513158Y-51572068D01*
X89226260Y-51515000D01*
X88933740Y-51515000D01*
X88646842Y-51572068D01*
X88376589Y-51684010D01*
X88133368Y-51846525D01*
X87926525Y-52053368D01*
X87804805Y-52235534D01*
X87735178Y-52118645D01*
X87540269Y-51902412D01*
X87306920Y-51728359D01*
X87044099Y-51603175D01*
X86896890Y-51558524D01*
X86667000Y-51679845D01*
X86413000Y-51679845D01*
X86183110Y-51558524D01*
X86035901Y-51603175D01*
X85773080Y-51728359D01*
X85539731Y-51902412D01*
X85463966Y-51986466D01*
X85439502Y-51905820D01*
X85380537Y-51795506D01*
X85301185Y-51698815D01*
X85204494Y-51619463D01*
X85094180Y-51560498D01*
X84974482Y-51524188D01*
X84850000Y-51511928D01*
X84285750Y-51515000D01*
X84127000Y-51673750D01*
X83873000Y-51673750D01*
X83714250Y-51515000D01*
X83150000Y-51511928D01*
X83025518Y-51524188D01*
X82905820Y-51560498D01*
X82795506Y-51619463D01*
X82698815Y-51698815D01*
X82619463Y-51795506D01*
X82560498Y-51905820D01*
X82524188Y-52025518D01*
X82511928Y-52150000D01*
X81258043Y-52150000D01*
X81193475Y-52053368D01*
X80986632Y-51846525D01*
X80743411Y-51684010D01*
X80473158Y-51572068D01*
X80186260Y-51515000D01*
X79893740Y-51515000D01*
X79606842Y-51572068D01*
X79336589Y-51684010D01*
X79093368Y-51846525D01*
X78961513Y-51978380D01*
X78939502Y-51905820D01*
X78880537Y-51795506D01*
X78801185Y-51698815D01*
X78704494Y-51619463D01*
X78594180Y-51560498D01*
X78474482Y-51524188D01*
X78350000Y-51511928D01*
X76650000Y-51511928D01*
X76525518Y-51524188D01*
X76405820Y-51560498D01*
X76295506Y-51619463D01*
X76198815Y-51698815D01*
X76119463Y-51795506D01*
X76060498Y-51905820D01*
X76024188Y-52025518D01*
X76011928Y-52150000D01*
X64955131Y-52150000D01*
X66970132Y-50135000D01*
X88944257Y-50135000D01*
X88999999Y-50140490D01*
X89055741Y-50135000D01*
X97029869Y-50135000D01*
X99945001Y-53050134D01*
X99945000Y-59534893D01*
X99926525Y-59553368D01*
X99804805Y-59735534D01*
X99735178Y-59618645D01*
X99540269Y-59402412D01*
X99306920Y-59228359D01*
X99044099Y-59103175D01*
X98896890Y-59058524D01*
X98667000Y-59179845D01*
X98667000Y-60373000D01*
X98687000Y-60373000D01*
X98687000Y-60627000D01*
X98667000Y-60627000D01*
X98667000Y-61820155D01*
X98896890Y-61941476D01*
X99044099Y-61896825D01*
X99306920Y-61771641D01*
X99540269Y-61597588D01*
X99735178Y-61381355D01*
X99804805Y-61264466D01*
X99926525Y-61446632D01*
X100133368Y-61653475D01*
X100376589Y-61815990D01*
X100646842Y-61927932D01*
X100933740Y-61985000D01*
X101226260Y-61985000D01*
X101513158Y-61927932D01*
X101783411Y-61815990D01*
X102026632Y-61653475D01*
X102045107Y-61635000D01*
X102654893Y-61635000D01*
X102673368Y-61653475D01*
X102916589Y-61815990D01*
X103186842Y-61927932D01*
X103473740Y-61985000D01*
X103766260Y-61985000D01*
X104053158Y-61927932D01*
X104323411Y-61815990D01*
X104566632Y-61653475D01*
X104773475Y-61446632D01*
X104935990Y-61203411D01*
X105047932Y-60933158D01*
X105105000Y-60646260D01*
X105105000Y-60353740D01*
X105047932Y-60066842D01*
X104935990Y-59796589D01*
X104773475Y-59553368D01*
X104566632Y-59346525D01*
X104323411Y-59184010D01*
X104053158Y-59072068D01*
X103766260Y-59015000D01*
X103473740Y-59015000D01*
X103186842Y-59072068D01*
X102916589Y-59184010D01*
X102673368Y-59346525D01*
X102654893Y-59365000D01*
X102215000Y-59365000D01*
X102215000Y-52635752D01*
X102220491Y-52580000D01*
X102198577Y-52357501D01*
X102133676Y-52143553D01*
X102028284Y-51946377D01*
X101921989Y-51816856D01*
X101921987Y-51816854D01*
X101886449Y-51773551D01*
X101843146Y-51738013D01*
X98341996Y-48236865D01*
X98306449Y-48193551D01*
X98133623Y-48051716D01*
X97936447Y-47946324D01*
X97722499Y-47881423D01*
X97555752Y-47865000D01*
X97555751Y-47865000D01*
X97500000Y-47859509D01*
X97444249Y-47865000D01*
X89470132Y-47865000D01*
X88848573Y-47243442D01*
X88880537Y-47204494D01*
X88939502Y-47094180D01*
X88963966Y-47013534D01*
X89039731Y-47097588D01*
X89273080Y-47271641D01*
X89535901Y-47396825D01*
X89683110Y-47441476D01*
X89913000Y-47320155D01*
X89913000Y-46127000D01*
X89893000Y-46127000D01*
X89893000Y-45873000D01*
X89913000Y-45873000D01*
X89913000Y-44679845D01*
X90167000Y-44679845D01*
X90167000Y-45873000D01*
X90187000Y-45873000D01*
X90187000Y-46127000D01*
X90167000Y-46127000D01*
X90167000Y-47320155D01*
X90396890Y-47441476D01*
X90544099Y-47396825D01*
X90806920Y-47271641D01*
X91040269Y-47097588D01*
X91235178Y-46881355D01*
X91304805Y-46764466D01*
X91426525Y-46946632D01*
X91633368Y-47153475D01*
X91876589Y-47315990D01*
X92146842Y-47427932D01*
X92433740Y-47485000D01*
X92726260Y-47485000D01*
X93013158Y-47427932D01*
X93283411Y-47315990D01*
X93526632Y-47153475D01*
X93733475Y-46946632D01*
X93850000Y-46772240D01*
X93966525Y-46946632D01*
X94173368Y-47153475D01*
X94416589Y-47315990D01*
X94686842Y-47427932D01*
X94973740Y-47485000D01*
X95266260Y-47485000D01*
X95553158Y-47427932D01*
X95823411Y-47315990D01*
X96066632Y-47153475D01*
X96273475Y-46946632D01*
X96390000Y-46772240D01*
X96506525Y-46946632D01*
X96713368Y-47153475D01*
X96956589Y-47315990D01*
X97226842Y-47427932D01*
X97513740Y-47485000D01*
X97806260Y-47485000D01*
X98093158Y-47427932D01*
X98363411Y-47315990D01*
X98606632Y-47153475D01*
X98813475Y-46946632D01*
X98975990Y-46703411D01*
X99087932Y-46433158D01*
X99145000Y-46146260D01*
X99145000Y-45853740D01*
X99087932Y-45566842D01*
X98975990Y-45296589D01*
X98813475Y-45053368D01*
X98606632Y-44846525D01*
X98363411Y-44684010D01*
X98093158Y-44572068D01*
X97806260Y-44515000D01*
X97513740Y-44515000D01*
X97226842Y-44572068D01*
X96956589Y-44684010D01*
X96713368Y-44846525D01*
X96506525Y-45053368D01*
X96390000Y-45227760D01*
X96273475Y-45053368D01*
X96066632Y-44846525D01*
X95823411Y-44684010D01*
X95553158Y-44572068D01*
X95266260Y-44515000D01*
X94973740Y-44515000D01*
X94686842Y-44572068D01*
X94416589Y-44684010D01*
X94173368Y-44846525D01*
X93966525Y-45053368D01*
X93850000Y-45227760D01*
X93733475Y-45053368D01*
X93526632Y-44846525D01*
X93283411Y-44684010D01*
X93013158Y-44572068D01*
X92726260Y-44515000D01*
X92433740Y-44515000D01*
X92146842Y-44572068D01*
X91876589Y-44684010D01*
X91633368Y-44846525D01*
X91426525Y-45053368D01*
X91304805Y-45235534D01*
X91235178Y-45118645D01*
X91040269Y-44902412D01*
X90806920Y-44728359D01*
X90544099Y-44603175D01*
X90396890Y-44558524D01*
X90167000Y-44679845D01*
X89913000Y-44679845D01*
X89683110Y-44558524D01*
X89535901Y-44603175D01*
X89273080Y-44728359D01*
X89039731Y-44902412D01*
X88963966Y-44986466D01*
X88939502Y-44905820D01*
X88880537Y-44795506D01*
X88801185Y-44698815D01*
X88704494Y-44619463D01*
X88594180Y-44560498D01*
X88474482Y-44524188D01*
X88350000Y-44511928D01*
X86650000Y-44511928D01*
X86525518Y-44524188D01*
X86405820Y-44560498D01*
X86295506Y-44619463D01*
X86198815Y-44698815D01*
X86119463Y-44795506D01*
X86060498Y-44905820D01*
X86024188Y-45025518D01*
X86011928Y-45150000D01*
X86011928Y-46850000D01*
X86024188Y-46974482D01*
X86060498Y-47094180D01*
X86119463Y-47204494D01*
X86198815Y-47301185D01*
X86295506Y-47380537D01*
X86365000Y-47417683D01*
X86365000Y-47444249D01*
X86359509Y-47500000D01*
X86365000Y-47555751D01*
X86381423Y-47722498D01*
X86424651Y-47865000D01*
X66970132Y-47865000D01*
X62815000Y-43709869D01*
X62815000Y-43627707D01*
X63431898Y-43627707D01*
X63499240Y-43868106D01*
X63748780Y-43985506D01*
X64016427Y-44051967D01*
X64291899Y-44064936D01*
X64564607Y-44023914D01*
X64824072Y-43930478D01*
X64940760Y-43868106D01*
X65008102Y-43627707D01*
X65971898Y-43627707D01*
X66039240Y-43868106D01*
X66288780Y-43985506D01*
X66556427Y-44051967D01*
X66831899Y-44064936D01*
X67104607Y-44023914D01*
X67364072Y-43930478D01*
X67480760Y-43868106D01*
X67548102Y-43627707D01*
X66760000Y-42839605D01*
X65971898Y-43627707D01*
X65008102Y-43627707D01*
X64220000Y-42839605D01*
X63431898Y-43627707D01*
X62815000Y-43627707D01*
X62815000Y-43481286D01*
X62920664Y-43323149D01*
X62947482Y-43258406D01*
X62949522Y-43264072D01*
X63011894Y-43380760D01*
X63252293Y-43448102D01*
X64040395Y-42660000D01*
X64026253Y-42645858D01*
X64205858Y-42466253D01*
X64220000Y-42480395D01*
X64234143Y-42466253D01*
X64413748Y-42645858D01*
X64399605Y-42660000D01*
X65187707Y-43448102D01*
X65428106Y-43380760D01*
X65486696Y-43256224D01*
X65489522Y-43264072D01*
X65551894Y-43380760D01*
X65792293Y-43448102D01*
X66580395Y-42660000D01*
X66566253Y-42645858D01*
X66745858Y-42466253D01*
X66760000Y-42480395D01*
X66774143Y-42466253D01*
X66953748Y-42645858D01*
X66939605Y-42660000D01*
X67727707Y-43448102D01*
X67968106Y-43380760D01*
X68029312Y-43250664D01*
X68059336Y-43323149D01*
X68212549Y-43552448D01*
X68407552Y-43747451D01*
X68636851Y-43900664D01*
X68891635Y-44006199D01*
X69162112Y-44060000D01*
X69437888Y-44060000D01*
X69708365Y-44006199D01*
X69963149Y-43900664D01*
X70192448Y-43747451D01*
X70387451Y-43552448D01*
X70540664Y-43323149D01*
X70570000Y-43252326D01*
X70599336Y-43323149D01*
X70752549Y-43552448D01*
X70947552Y-43747451D01*
X71176851Y-43900664D01*
X71431635Y-44006199D01*
X71702112Y-44060000D01*
X71977888Y-44060000D01*
X72248365Y-44006199D01*
X72503149Y-43900664D01*
X72732448Y-43747451D01*
X72927451Y-43552448D01*
X73080664Y-43323149D01*
X73110000Y-43252326D01*
X73139336Y-43323149D01*
X73292549Y-43552448D01*
X73487552Y-43747451D01*
X73716851Y-43900664D01*
X73971635Y-44006199D01*
X74242112Y-44060000D01*
X74517888Y-44060000D01*
X74788365Y-44006199D01*
X75043149Y-43900664D01*
X75272448Y-43747451D01*
X75467451Y-43552448D01*
X75620664Y-43323149D01*
X75650000Y-43252326D01*
X75679336Y-43323149D01*
X75832549Y-43552448D01*
X76027552Y-43747451D01*
X76256851Y-43900664D01*
X76511635Y-44006199D01*
X76782112Y-44060000D01*
X77057888Y-44060000D01*
X77328365Y-44006199D01*
X77583149Y-43900664D01*
X77812448Y-43747451D01*
X78007451Y-43552448D01*
X78160664Y-43323149D01*
X78190000Y-43252326D01*
X78219336Y-43323149D01*
X78372549Y-43552448D01*
X78567552Y-43747451D01*
X78796851Y-43900664D01*
X79051635Y-44006199D01*
X79322112Y-44060000D01*
X79597888Y-44060000D01*
X79868365Y-44006199D01*
X80123149Y-43900664D01*
X80352448Y-43747451D01*
X80472192Y-43627707D01*
X81211898Y-43627707D01*
X81279240Y-43868106D01*
X81528780Y-43985506D01*
X81796427Y-44051967D01*
X82071899Y-44064936D01*
X82344607Y-44023914D01*
X82604072Y-43930478D01*
X82720760Y-43868106D01*
X82788102Y-43627707D01*
X82000000Y-42839605D01*
X81211898Y-43627707D01*
X80472192Y-43627707D01*
X80547451Y-43552448D01*
X80700664Y-43323149D01*
X80727482Y-43258406D01*
X80729522Y-43264072D01*
X80791894Y-43380760D01*
X81032293Y-43448102D01*
X81820395Y-42660000D01*
X81806253Y-42645858D01*
X81985858Y-42466253D01*
X82000000Y-42480395D01*
X82014143Y-42466253D01*
X82193748Y-42645858D01*
X82179605Y-42660000D01*
X82967707Y-43448102D01*
X83208106Y-43380760D01*
X83269312Y-43250664D01*
X83299336Y-43323149D01*
X83452549Y-43552448D01*
X83647552Y-43747451D01*
X83876851Y-43900664D01*
X84131635Y-44006199D01*
X84402112Y-44060000D01*
X84677888Y-44060000D01*
X84948365Y-44006199D01*
X85203149Y-43900664D01*
X85432448Y-43747451D01*
X85627451Y-43552448D01*
X85780664Y-43323149D01*
X85810000Y-43252326D01*
X85839336Y-43323149D01*
X85992549Y-43552448D01*
X86187552Y-43747451D01*
X86416851Y-43900664D01*
X86671635Y-44006199D01*
X86942112Y-44060000D01*
X87217888Y-44060000D01*
X87488365Y-44006199D01*
X87743149Y-43900664D01*
X87972448Y-43747451D01*
X88167451Y-43552448D01*
X88320664Y-43323149D01*
X88350000Y-43252326D01*
X88379336Y-43323149D01*
X88532549Y-43552448D01*
X88727552Y-43747451D01*
X88956851Y-43900664D01*
X89211635Y-44006199D01*
X89482112Y-44060000D01*
X89757888Y-44060000D01*
X90028365Y-44006199D01*
X90283149Y-43900664D01*
X90512448Y-43747451D01*
X90707451Y-43552448D01*
X90860664Y-43323149D01*
X90966199Y-43068365D01*
X91020000Y-42797888D01*
X91020000Y-42522112D01*
X90966199Y-42251635D01*
X90860664Y-41996851D01*
X90707451Y-41767552D01*
X90512448Y-41572549D01*
X90431541Y-41518488D01*
X90509482Y-41510812D01*
X90629180Y-41474502D01*
X90739494Y-41415537D01*
X90836185Y-41336185D01*
X90915537Y-41239494D01*
X90974502Y-41129180D01*
X91010812Y-41009482D01*
X91023072Y-40885000D01*
X91023072Y-39355000D01*
X91010812Y-39230518D01*
X90974502Y-39110820D01*
X90915537Y-39000506D01*
X90836185Y-38903815D01*
X90739494Y-38824463D01*
X90629180Y-38765498D01*
X90509482Y-38729188D01*
X90385000Y-38716928D01*
X90380000Y-38716928D01*
X90380000Y-37369721D01*
X91295000Y-37369721D01*
X91295000Y-37790279D01*
X91377047Y-38202756D01*
X91537988Y-38591302D01*
X91771637Y-38940983D01*
X92069017Y-39238363D01*
X92418698Y-39472012D01*
X92807244Y-39632953D01*
X93219721Y-39715000D01*
X93640279Y-39715000D01*
X94052756Y-39632953D01*
X94441302Y-39472012D01*
X94790983Y-39238363D01*
X95088363Y-38940983D01*
X95322012Y-38591302D01*
X95482953Y-38202756D01*
X95565000Y-37790279D01*
X95565000Y-37369721D01*
X95482953Y-36957244D01*
X95322012Y-36568698D01*
X95088363Y-36219017D01*
X94790983Y-35921637D01*
X94441302Y-35687988D01*
X94052756Y-35527047D01*
X93640279Y-35445000D01*
X93219721Y-35445000D01*
X92807244Y-35527047D01*
X92418698Y-35687988D01*
X92069017Y-35921637D01*
X91771637Y-36219017D01*
X91537988Y-36568698D01*
X91377047Y-36957244D01*
X91295000Y-37369721D01*
X90380000Y-37369721D01*
X90380000Y-35194801D01*
X91511004Y-34063798D01*
X91540001Y-34040001D01*
X91634974Y-33924276D01*
X91705546Y-33792247D01*
X91749003Y-33648986D01*
X91760000Y-33537333D01*
X91760000Y-33537325D01*
X91763676Y-33500000D01*
X91760000Y-33462675D01*
X91760000Y-31377325D01*
X91763676Y-31340000D01*
X91760000Y-31302675D01*
X91760000Y-31302667D01*
X91749003Y-31191014D01*
X91705546Y-31047753D01*
X91634974Y-30915724D01*
X91540001Y-30799999D01*
X91511003Y-30776201D01*
X91023072Y-30288270D01*
X91023072Y-29195000D01*
X91010812Y-29070518D01*
X90974502Y-28950820D01*
X90915537Y-28840506D01*
X90836185Y-28743815D01*
X90739494Y-28664463D01*
X90629180Y-28605498D01*
X90509482Y-28569188D01*
X90385000Y-28556928D01*
X88855000Y-28556928D01*
X88730518Y-28569188D01*
X88610820Y-28605498D01*
X88500506Y-28664463D01*
X88403815Y-28743815D01*
X88324463Y-28840506D01*
X88265498Y-28950820D01*
X88229188Y-29070518D01*
X88221512Y-29148459D01*
X88167451Y-29067552D01*
X87972448Y-28872549D01*
X87743149Y-28719336D01*
X87488365Y-28613801D01*
X87217888Y-28560000D01*
X86942112Y-28560000D01*
X86671635Y-28613801D01*
X86416851Y-28719336D01*
X86187552Y-28872549D01*
X85992549Y-29067552D01*
X85839336Y-29296851D01*
X85810000Y-29367674D01*
X85780664Y-29296851D01*
X85627451Y-29067552D01*
X85432448Y-28872549D01*
X85203149Y-28719336D01*
X84948365Y-28613801D01*
X84677888Y-28560000D01*
X84402112Y-28560000D01*
X84131635Y-28613801D01*
X83876851Y-28719336D01*
X83647552Y-28872549D01*
X83452549Y-29067552D01*
X83299336Y-29296851D01*
X83270000Y-29367674D01*
X83240664Y-29296851D01*
X83087451Y-29067552D01*
X82892448Y-28872549D01*
X82663149Y-28719336D01*
X82408365Y-28613801D01*
X82137888Y-28560000D01*
X81862112Y-28560000D01*
X81591635Y-28613801D01*
X81336851Y-28719336D01*
X81107552Y-28872549D01*
X80912549Y-29067552D01*
X80759336Y-29296851D01*
X80730000Y-29367674D01*
X80700664Y-29296851D01*
X80547451Y-29067552D01*
X80352448Y-28872549D01*
X80123149Y-28719336D01*
X79868365Y-28613801D01*
X79597888Y-28560000D01*
X79322112Y-28560000D01*
X79051635Y-28613801D01*
X78796851Y-28719336D01*
X78567552Y-28872549D01*
X78372549Y-29067552D01*
X78219336Y-29296851D01*
X78190000Y-29367674D01*
X78160664Y-29296851D01*
X78007451Y-29067552D01*
X77812448Y-28872549D01*
X77583149Y-28719336D01*
X77328365Y-28613801D01*
X77057888Y-28560000D01*
X76782112Y-28560000D01*
X76511635Y-28613801D01*
X76256851Y-28719336D01*
X76027552Y-28872549D01*
X75832549Y-29067552D01*
X75679336Y-29296851D01*
X75650000Y-29367674D01*
X75620664Y-29296851D01*
X75467451Y-29067552D01*
X75272448Y-28872549D01*
X75043149Y-28719336D01*
X74788365Y-28613801D01*
X74517888Y-28560000D01*
X74242112Y-28560000D01*
X73971635Y-28613801D01*
X73716851Y-28719336D01*
X73487552Y-28872549D01*
X73292549Y-29067552D01*
X73139336Y-29296851D01*
X73110000Y-29367674D01*
X73080664Y-29296851D01*
X72927451Y-29067552D01*
X72732448Y-28872549D01*
X72503149Y-28719336D01*
X72248365Y-28613801D01*
X71977888Y-28560000D01*
X71702112Y-28560000D01*
X71431635Y-28613801D01*
X71176851Y-28719336D01*
X70947552Y-28872549D01*
X70752549Y-29067552D01*
X70599336Y-29296851D01*
X70570000Y-29367674D01*
X70540664Y-29296851D01*
X70387451Y-29067552D01*
X70192448Y-28872549D01*
X69963149Y-28719336D01*
X69708365Y-28613801D01*
X69437888Y-28560000D01*
X69162112Y-28560000D01*
X68891635Y-28613801D01*
X68636851Y-28719336D01*
X68407552Y-28872549D01*
X68212549Y-29067552D01*
X68059336Y-29296851D01*
X68032518Y-29361594D01*
X68030478Y-29355928D01*
X67968106Y-29239240D01*
X67727707Y-29171898D01*
X66939605Y-29960000D01*
X66953748Y-29974143D01*
X66774143Y-30153748D01*
X66760000Y-30139605D01*
X66745858Y-30153748D01*
X66566253Y-29974143D01*
X66580395Y-29960000D01*
X65792293Y-29171898D01*
X65551894Y-29239240D01*
X65490688Y-29369336D01*
X65460664Y-29296851D01*
X65307451Y-29067552D01*
X65232192Y-28992293D01*
X65971898Y-28992293D01*
X66760000Y-29780395D01*
X67548102Y-28992293D01*
X67480760Y-28751894D01*
X67231220Y-28634494D01*
X66963573Y-28568033D01*
X66688101Y-28555064D01*
X66415393Y-28596086D01*
X66155928Y-28689522D01*
X66039240Y-28751894D01*
X65971898Y-28992293D01*
X65232192Y-28992293D01*
X65112448Y-28872549D01*
X64883149Y-28719336D01*
X64628365Y-28613801D01*
X64357888Y-28560000D01*
X64082112Y-28560000D01*
X63811635Y-28613801D01*
X63556851Y-28719336D01*
X63327552Y-28872549D01*
X63132549Y-29067552D01*
X62979336Y-29296851D01*
X62950000Y-29367674D01*
X62920664Y-29296851D01*
X62767451Y-29067552D01*
X62572448Y-28872549D01*
X62343149Y-28719336D01*
X62088365Y-28613801D01*
X61817888Y-28560000D01*
X61542112Y-28560000D01*
X61271635Y-28613801D01*
X61016851Y-28719336D01*
X60787552Y-28872549D01*
X60592549Y-29067552D01*
X60439336Y-29296851D01*
X60410000Y-29367674D01*
X60380664Y-29296851D01*
X60227451Y-29067552D01*
X60032448Y-28872549D01*
X59803149Y-28719336D01*
X59548365Y-28613801D01*
X59277888Y-28560000D01*
X59002112Y-28560000D01*
X58731635Y-28613801D01*
X58476851Y-28719336D01*
X58247552Y-28872549D01*
X58052549Y-29067552D01*
X57899336Y-29296851D01*
X57870000Y-29367674D01*
X57840664Y-29296851D01*
X57687451Y-29067552D01*
X57492448Y-28872549D01*
X57263149Y-28719336D01*
X57008365Y-28613801D01*
X56737888Y-28560000D01*
X56462112Y-28560000D01*
X56191635Y-28613801D01*
X55936851Y-28719336D01*
X55707552Y-28872549D01*
X55512549Y-29067552D01*
X55359336Y-29296851D01*
X55330000Y-29367674D01*
X55300664Y-29296851D01*
X55147451Y-29067552D01*
X54952448Y-28872549D01*
X54723149Y-28719336D01*
X54468365Y-28613801D01*
X54197888Y-28560000D01*
X53922112Y-28560000D01*
X53651635Y-28613801D01*
X53396851Y-28719336D01*
X53167552Y-28872549D01*
X52972549Y-29067552D01*
X52819336Y-29296851D01*
X52790000Y-29367674D01*
X52760664Y-29296851D01*
X52607451Y-29067552D01*
X52412448Y-28872549D01*
X52183149Y-28719336D01*
X51928365Y-28613801D01*
X51657888Y-28560000D01*
X51382112Y-28560000D01*
X51111635Y-28613801D01*
X50856851Y-28719336D01*
X50627552Y-28872549D01*
X50432549Y-29067552D01*
X50279336Y-29296851D01*
X50250000Y-29367674D01*
X50220664Y-29296851D01*
X50067451Y-29067552D01*
X49872448Y-28872549D01*
X49643149Y-28719336D01*
X49388365Y-28613801D01*
X49117888Y-28560000D01*
X48842112Y-28560000D01*
X48571635Y-28613801D01*
X48316851Y-28719336D01*
X48087552Y-28872549D01*
X47892549Y-29067552D01*
X47739336Y-29296851D01*
X47710000Y-29367674D01*
X47680664Y-29296851D01*
X47527451Y-29067552D01*
X47332448Y-28872549D01*
X47103149Y-28719336D01*
X46848365Y-28613801D01*
X46577888Y-28560000D01*
X46302112Y-28560000D01*
X46031635Y-28613801D01*
X45776851Y-28719336D01*
X45547552Y-28872549D01*
X45352549Y-29067552D01*
X45199336Y-29296851D01*
X45170000Y-29367674D01*
X45140664Y-29296851D01*
X44987451Y-29067552D01*
X44792448Y-28872549D01*
X44563149Y-28719336D01*
X44308365Y-28613801D01*
X44037888Y-28560000D01*
X43762112Y-28560000D01*
X43491635Y-28613801D01*
X43236851Y-28719336D01*
X43007552Y-28872549D01*
X42812549Y-29067552D01*
X42659336Y-29296851D01*
X42553801Y-29551635D01*
X42500000Y-29822112D01*
X42500000Y-30097888D01*
X42553801Y-30368365D01*
X42659336Y-30623149D01*
X42812549Y-30852448D01*
X43007552Y-31047451D01*
X43236851Y-31200664D01*
X43307674Y-31230000D01*
X43236851Y-31259336D01*
X43007552Y-31412549D01*
X42812549Y-31607552D01*
X42659336Y-31836851D01*
X42553801Y-32091635D01*
X42500000Y-32362112D01*
X42500000Y-32637888D01*
X42553801Y-32908365D01*
X42659336Y-33163149D01*
X42812549Y-33392448D01*
X42922650Y-33502549D01*
X41989003Y-34436196D01*
X41959999Y-34459999D01*
X41915947Y-34513677D01*
X41865026Y-34575724D01*
X41826525Y-34647754D01*
X41794454Y-34707754D01*
X41750997Y-34851015D01*
X41740000Y-34962668D01*
X41740000Y-34962678D01*
X41736324Y-35000000D01*
X39160000Y-35000000D01*
X39160000Y-27160000D01*
X127840001Y-27160000D01*
X127840000Y-96340000D01*
G37*
X127840000Y-96340000D02*
X39160000Y-96340000D01*
X39160000Y-82160000D01*
X41736324Y-82160000D01*
X41740000Y-82197323D01*
X41740001Y-88312668D01*
X41736324Y-88350000D01*
X41740001Y-88387333D01*
X41750998Y-88498986D01*
X41759597Y-88527333D01*
X41794454Y-88642246D01*
X41865026Y-88774276D01*
X41920809Y-88842247D01*
X41960000Y-88890001D01*
X41988998Y-88913799D01*
X42957650Y-89882451D01*
X42812549Y-90027552D01*
X42659336Y-90256851D01*
X42553801Y-90511635D01*
X42500000Y-90782112D01*
X42500000Y-91057888D01*
X42553801Y-91328365D01*
X42659336Y-91583149D01*
X42812549Y-91812448D01*
X43007552Y-92007451D01*
X43236851Y-92160664D01*
X43307674Y-92190000D01*
X43236851Y-92219336D01*
X43007552Y-92372549D01*
X42812549Y-92567552D01*
X42659336Y-92796851D01*
X42553801Y-93051635D01*
X42500000Y-93322112D01*
X42500000Y-93597888D01*
X42553801Y-93868365D01*
X42659336Y-94123149D01*
X42812549Y-94352448D01*
X43007552Y-94547451D01*
X43236851Y-94700664D01*
X43491635Y-94806199D01*
X43762112Y-94860000D01*
X44037888Y-94860000D01*
X44308365Y-94806199D01*
X44563149Y-94700664D01*
X44792448Y-94547451D01*
X44987451Y-94352448D01*
X45140664Y-94123149D01*
X45170000Y-94052326D01*
X45199336Y-94123149D01*
X45352549Y-94352448D01*
X45547552Y-94547451D01*
X45776851Y-94700664D01*
X46031635Y-94806199D01*
X46302112Y-94860000D01*
X46577888Y-94860000D01*
X46848365Y-94806199D01*
X47103149Y-94700664D01*
X47332448Y-94547451D01*
X47527451Y-94352448D01*
X47680664Y-94123149D01*
X47710000Y-94052326D01*
X47739336Y-94123149D01*
X47892549Y-94352448D01*
X48087552Y-94547451D01*
X48316851Y-94700664D01*
X48571635Y-94806199D01*
X48842112Y-94860000D01*
X49117888Y-94860000D01*
X49388365Y-94806199D01*
X49643149Y-94700664D01*
X49872448Y-94547451D01*
X50067451Y-94352448D01*
X50220664Y-94123149D01*
X50250000Y-94052326D01*
X50279336Y-94123149D01*
X50432549Y-94352448D01*
X50627552Y-94547451D01*
X50856851Y-94700664D01*
X51111635Y-94806199D01*
X51382112Y-94860000D01*
X51657888Y-94860000D01*
X51928365Y-94806199D01*
X52183149Y-94700664D01*
X52412448Y-94547451D01*
X52607451Y-94352448D01*
X52760664Y-94123149D01*
X52790000Y-94052326D01*
X52819336Y-94123149D01*
X52972549Y-94352448D01*
X53167552Y-94547451D01*
X53396851Y-94700664D01*
X53651635Y-94806199D01*
X53922112Y-94860000D01*
X54197888Y-94860000D01*
X54468365Y-94806199D01*
X54723149Y-94700664D01*
X54952448Y-94547451D01*
X55147451Y-94352448D01*
X55300664Y-94123149D01*
X55330000Y-94052326D01*
X55359336Y-94123149D01*
X55512549Y-94352448D01*
X55707552Y-94547451D01*
X55936851Y-94700664D01*
X56191635Y-94806199D01*
X56462112Y-94860000D01*
X56737888Y-94860000D01*
X57008365Y-94806199D01*
X57263149Y-94700664D01*
X57492448Y-94547451D01*
X57687451Y-94352448D01*
X57840664Y-94123149D01*
X57870000Y-94052326D01*
X57899336Y-94123149D01*
X58052549Y-94352448D01*
X58247552Y-94547451D01*
X58476851Y-94700664D01*
X58731635Y-94806199D01*
X59002112Y-94860000D01*
X59277888Y-94860000D01*
X59548365Y-94806199D01*
X59803149Y-94700664D01*
X60032448Y-94547451D01*
X60227451Y-94352448D01*
X60380664Y-94123149D01*
X60410000Y-94052326D01*
X60439336Y-94123149D01*
X60592549Y-94352448D01*
X60787552Y-94547451D01*
X61016851Y-94700664D01*
X61271635Y-94806199D01*
X61542112Y-94860000D01*
X61817888Y-94860000D01*
X62088365Y-94806199D01*
X62343149Y-94700664D01*
X62572448Y-94547451D01*
X62767451Y-94352448D01*
X62920664Y-94123149D01*
X62950000Y-94052326D01*
X62979336Y-94123149D01*
X63132549Y-94352448D01*
X63327552Y-94547451D01*
X63556851Y-94700664D01*
X63811635Y-94806199D01*
X64082112Y-94860000D01*
X64357888Y-94860000D01*
X64628365Y-94806199D01*
X64883149Y-94700664D01*
X65112448Y-94547451D01*
X65307451Y-94352448D01*
X65460664Y-94123149D01*
X65490000Y-94052326D01*
X65519336Y-94123149D01*
X65672549Y-94352448D01*
X65867552Y-94547451D01*
X66096851Y-94700664D01*
X66351635Y-94806199D01*
X66622112Y-94860000D01*
X66897888Y-94860000D01*
X67168365Y-94806199D01*
X67423149Y-94700664D01*
X67652448Y-94547451D01*
X67847451Y-94352448D01*
X68000664Y-94123149D01*
X68030000Y-94052326D01*
X68059336Y-94123149D01*
X68212549Y-94352448D01*
X68407552Y-94547451D01*
X68636851Y-94700664D01*
X68891635Y-94806199D01*
X69162112Y-94860000D01*
X69437888Y-94860000D01*
X69708365Y-94806199D01*
X69963149Y-94700664D01*
X70192448Y-94547451D01*
X70387451Y-94352448D01*
X70540664Y-94123149D01*
X70570000Y-94052326D01*
X70599336Y-94123149D01*
X70752549Y-94352448D01*
X70947552Y-94547451D01*
X71176851Y-94700664D01*
X71431635Y-94806199D01*
X71702112Y-94860000D01*
X71977888Y-94860000D01*
X72248365Y-94806199D01*
X72503149Y-94700664D01*
X72732448Y-94547451D01*
X72927451Y-94352448D01*
X73080664Y-94123149D01*
X73110000Y-94052326D01*
X73139336Y-94123149D01*
X73292549Y-94352448D01*
X73487552Y-94547451D01*
X73716851Y-94700664D01*
X73971635Y-94806199D01*
X74242112Y-94860000D01*
X74517888Y-94860000D01*
X74788365Y-94806199D01*
X75043149Y-94700664D01*
X75272448Y-94547451D01*
X75467451Y-94352448D01*
X75620664Y-94123149D01*
X75650000Y-94052326D01*
X75679336Y-94123149D01*
X75832549Y-94352448D01*
X76027552Y-94547451D01*
X76256851Y-94700664D01*
X76511635Y-94806199D01*
X76782112Y-94860000D01*
X77057888Y-94860000D01*
X77328365Y-94806199D01*
X77583149Y-94700664D01*
X77812448Y-94547451D01*
X78007451Y-94352448D01*
X78160664Y-94123149D01*
X78190000Y-94052326D01*
X78219336Y-94123149D01*
X78372549Y-94352448D01*
X78567552Y-94547451D01*
X78796851Y-94700664D01*
X79051635Y-94806199D01*
X79322112Y-94860000D01*
X79597888Y-94860000D01*
X79868365Y-94806199D01*
X80123149Y-94700664D01*
X80352448Y-94547451D01*
X80547451Y-94352448D01*
X80700664Y-94123149D01*
X80730000Y-94052326D01*
X80759336Y-94123149D01*
X80912549Y-94352448D01*
X81107552Y-94547451D01*
X81336851Y-94700664D01*
X81591635Y-94806199D01*
X81862112Y-94860000D01*
X82137888Y-94860000D01*
X82408365Y-94806199D01*
X82663149Y-94700664D01*
X82892448Y-94547451D01*
X83087451Y-94352448D01*
X83240664Y-94123149D01*
X83270000Y-94052326D01*
X83299336Y-94123149D01*
X83452549Y-94352448D01*
X83647552Y-94547451D01*
X83876851Y-94700664D01*
X84131635Y-94806199D01*
X84402112Y-94860000D01*
X84677888Y-94860000D01*
X84948365Y-94806199D01*
X85203149Y-94700664D01*
X85432448Y-94547451D01*
X85627451Y-94352448D01*
X85780664Y-94123149D01*
X85810000Y-94052326D01*
X85839336Y-94123149D01*
X85992549Y-94352448D01*
X86187552Y-94547451D01*
X86416851Y-94700664D01*
X86671635Y-94806199D01*
X86942112Y-94860000D01*
X87217888Y-94860000D01*
X87488365Y-94806199D01*
X87743149Y-94700664D01*
X87972448Y-94547451D01*
X88167451Y-94352448D01*
X88320664Y-94123149D01*
X88350000Y-94052326D01*
X88379336Y-94123149D01*
X88532549Y-94352448D01*
X88727552Y-94547451D01*
X88956851Y-94700664D01*
X89211635Y-94806199D01*
X89482112Y-94860000D01*
X89757888Y-94860000D01*
X90028365Y-94806199D01*
X90283149Y-94700664D01*
X90512448Y-94547451D01*
X90707451Y-94352448D01*
X90860664Y-94123149D01*
X90966199Y-93868365D01*
X91020000Y-93597888D01*
X91020000Y-93322112D01*
X90988923Y-93165878D01*
X91511003Y-92643799D01*
X91540001Y-92620001D01*
X91634974Y-92504276D01*
X91705546Y-92372247D01*
X91749003Y-92228986D01*
X91760000Y-92117333D01*
X91760000Y-92117325D01*
X91763676Y-92080000D01*
X91760000Y-92042675D01*
X91760000Y-89537325D01*
X91763676Y-89500000D01*
X91760000Y-89462675D01*
X91760000Y-89462667D01*
X91749003Y-89351014D01*
X91705546Y-89207753D01*
X91634974Y-89075724D01*
X91540001Y-88959999D01*
X91511004Y-88936202D01*
X90380000Y-87805199D01*
X90380000Y-87018940D01*
X90501637Y-87200983D01*
X90799017Y-87498363D01*
X91148698Y-87732012D01*
X91537244Y-87892953D01*
X91949721Y-87975000D01*
X92370279Y-87975000D01*
X92782756Y-87892953D01*
X93171302Y-87732012D01*
X93520983Y-87498363D01*
X93818363Y-87200983D01*
X94052012Y-86851302D01*
X94212953Y-86462756D01*
X94295000Y-86050279D01*
X94295000Y-85629721D01*
X94212953Y-85217244D01*
X94052012Y-84828698D01*
X93818363Y-84479017D01*
X93520983Y-84181637D01*
X93171302Y-83947988D01*
X92782756Y-83787047D01*
X92370279Y-83705000D01*
X91949721Y-83705000D01*
X91537244Y-83787047D01*
X91148698Y-83947988D01*
X90799017Y-84181637D01*
X90501637Y-84479017D01*
X90380000Y-84661060D01*
X90380000Y-84475950D01*
X90512448Y-84387451D01*
X90707451Y-84192448D01*
X90860664Y-83963149D01*
X90966199Y-83708365D01*
X91020000Y-83437888D01*
X91020000Y-83162112D01*
X90966199Y-82891635D01*
X90860664Y-82636851D01*
X90707451Y-82407552D01*
X90512448Y-82212549D01*
X90431541Y-82158488D01*
X90509482Y-82150812D01*
X90629180Y-82114502D01*
X90739494Y-82055537D01*
X90836185Y-81976185D01*
X90915537Y-81879494D01*
X90974502Y-81769180D01*
X91010812Y-81649482D01*
X91023072Y-81525000D01*
X91023072Y-79995000D01*
X91010812Y-79870518D01*
X90974502Y-79750820D01*
X90915537Y-79640506D01*
X90836185Y-79543815D01*
X90739494Y-79464463D01*
X90629180Y-79405498D01*
X90509482Y-79369188D01*
X90385000Y-79356928D01*
X88855000Y-79356928D01*
X88730518Y-79369188D01*
X88610820Y-79405498D01*
X88500506Y-79464463D01*
X88403815Y-79543815D01*
X88324463Y-79640506D01*
X88265498Y-79750820D01*
X88229188Y-79870518D01*
X88221512Y-79948459D01*
X88167451Y-79867552D01*
X87972448Y-79672549D01*
X87743149Y-79519336D01*
X87488365Y-79413801D01*
X87217888Y-79360000D01*
X86942112Y-79360000D01*
X86671635Y-79413801D01*
X86416851Y-79519336D01*
X86187552Y-79672549D01*
X85992549Y-79867552D01*
X85839336Y-80096851D01*
X85810000Y-80167674D01*
X85780664Y-80096851D01*
X85627451Y-79867552D01*
X85432448Y-79672549D01*
X85203149Y-79519336D01*
X84948365Y-79413801D01*
X84677888Y-79360000D01*
X84402112Y-79360000D01*
X84131635Y-79413801D01*
X83876851Y-79519336D01*
X83647552Y-79672549D01*
X83452549Y-79867552D01*
X83299336Y-80096851D01*
X83270000Y-80167674D01*
X83240664Y-80096851D01*
X83087451Y-79867552D01*
X82892448Y-79672549D01*
X82663149Y-79519336D01*
X82408365Y-79413801D01*
X82137888Y-79360000D01*
X81862112Y-79360000D01*
X81591635Y-79413801D01*
X81336851Y-79519336D01*
X81107552Y-79672549D01*
X80912549Y-79867552D01*
X80759336Y-80096851D01*
X80730000Y-80167674D01*
X80700664Y-80096851D01*
X80547451Y-79867552D01*
X80352448Y-79672549D01*
X80123149Y-79519336D01*
X79868365Y-79413801D01*
X79597888Y-79360000D01*
X79322112Y-79360000D01*
X79051635Y-79413801D01*
X78796851Y-79519336D01*
X78567552Y-79672549D01*
X78372549Y-79867552D01*
X78219336Y-80096851D01*
X78190000Y-80167674D01*
X78160664Y-80096851D01*
X78007451Y-79867552D01*
X77812448Y-79672549D01*
X77583149Y-79519336D01*
X77328365Y-79413801D01*
X77057888Y-79360000D01*
X76782112Y-79360000D01*
X76511635Y-79413801D01*
X76256851Y-79519336D01*
X76027552Y-79672549D01*
X75832549Y-79867552D01*
X75679336Y-80096851D01*
X75650000Y-80167674D01*
X75620664Y-80096851D01*
X75467451Y-79867552D01*
X75272448Y-79672549D01*
X75043149Y-79519336D01*
X74788365Y-79413801D01*
X74517888Y-79360000D01*
X74242112Y-79360000D01*
X73971635Y-79413801D01*
X73716851Y-79519336D01*
X73487552Y-79672549D01*
X73292549Y-79867552D01*
X73139336Y-80096851D01*
X73110000Y-80167674D01*
X73080664Y-80096851D01*
X72927451Y-79867552D01*
X72732448Y-79672549D01*
X72503149Y-79519336D01*
X72248365Y-79413801D01*
X71977888Y-79360000D01*
X71702112Y-79360000D01*
X71431635Y-79413801D01*
X71176851Y-79519336D01*
X70947552Y-79672549D01*
X70752549Y-79867552D01*
X70599336Y-80096851D01*
X70570000Y-80167674D01*
X70540664Y-80096851D01*
X70387451Y-79867552D01*
X70192448Y-79672549D01*
X69963149Y-79519336D01*
X69708365Y-79413801D01*
X69437888Y-79360000D01*
X69162112Y-79360000D01*
X68891635Y-79413801D01*
X68636851Y-79519336D01*
X68407552Y-79672549D01*
X68212549Y-79867552D01*
X68059336Y-80096851D01*
X68030000Y-80167674D01*
X68000664Y-80096851D01*
X67847451Y-79867552D01*
X67652448Y-79672549D01*
X67423149Y-79519336D01*
X67168365Y-79413801D01*
X66897888Y-79360000D01*
X66622112Y-79360000D01*
X66351635Y-79413801D01*
X66096851Y-79519336D01*
X65867552Y-79672549D01*
X65672549Y-79867552D01*
X65519336Y-80096851D01*
X65490000Y-80167674D01*
X65460664Y-80096851D01*
X65307451Y-79867552D01*
X65112448Y-79672549D01*
X64883149Y-79519336D01*
X64628365Y-79413801D01*
X64357888Y-79360000D01*
X64082112Y-79360000D01*
X63811635Y-79413801D01*
X63556851Y-79519336D01*
X63327552Y-79672549D01*
X63132549Y-79867552D01*
X62979336Y-80096851D01*
X62950000Y-80167674D01*
X62920664Y-80096851D01*
X62767451Y-79867552D01*
X62572448Y-79672549D01*
X62343149Y-79519336D01*
X62088365Y-79413801D01*
X61817888Y-79360000D01*
X61542112Y-79360000D01*
X61271635Y-79413801D01*
X61016851Y-79519336D01*
X60787552Y-79672549D01*
X60592549Y-79867552D01*
X60439336Y-80096851D01*
X60410000Y-80167674D01*
X60380664Y-80096851D01*
X60227451Y-79867552D01*
X60032448Y-79672549D01*
X59803149Y-79519336D01*
X59548365Y-79413801D01*
X59277888Y-79360000D01*
X59002112Y-79360000D01*
X58731635Y-79413801D01*
X58476851Y-79519336D01*
X58247552Y-79672549D01*
X58052549Y-79867552D01*
X57899336Y-80096851D01*
X57870000Y-80167674D01*
X57840664Y-80096851D01*
X57687451Y-79867552D01*
X57492448Y-79672549D01*
X57263149Y-79519336D01*
X57008365Y-79413801D01*
X56737888Y-79360000D01*
X56462112Y-79360000D01*
X56191635Y-79413801D01*
X55936851Y-79519336D01*
X55707552Y-79672549D01*
X55512549Y-79867552D01*
X55359336Y-80096851D01*
X55330000Y-80167674D01*
X55300664Y-80096851D01*
X55147451Y-79867552D01*
X54952448Y-79672549D01*
X54723149Y-79519336D01*
X54468365Y-79413801D01*
X54197888Y-79360000D01*
X53922112Y-79360000D01*
X53651635Y-79413801D01*
X53396851Y-79519336D01*
X53167552Y-79672549D01*
X52972549Y-79867552D01*
X52819336Y-80096851D01*
X52790000Y-80167674D01*
X52760664Y-80096851D01*
X52607451Y-79867552D01*
X52412448Y-79672549D01*
X52183149Y-79519336D01*
X51928365Y-79413801D01*
X51657888Y-79360000D01*
X51382112Y-79360000D01*
X51111635Y-79413801D01*
X50856851Y-79519336D01*
X50627552Y-79672549D01*
X50432549Y-79867552D01*
X50279336Y-80096851D01*
X50250000Y-80167674D01*
X50220664Y-80096851D01*
X50067451Y-79867552D01*
X49872448Y-79672549D01*
X49643149Y-79519336D01*
X49388365Y-79413801D01*
X49117888Y-79360000D01*
X48842112Y-79360000D01*
X48571635Y-79413801D01*
X48316851Y-79519336D01*
X48087552Y-79672549D01*
X47892549Y-79867552D01*
X47739336Y-80096851D01*
X47710000Y-80167674D01*
X47680664Y-80096851D01*
X47527451Y-79867552D01*
X47332448Y-79672549D01*
X47103149Y-79519336D01*
X46848365Y-79413801D01*
X46577888Y-79360000D01*
X46302112Y-79360000D01*
X46031635Y-79413801D01*
X45776851Y-79519336D01*
X45547552Y-79672549D01*
X45352549Y-79867552D01*
X45199336Y-80096851D01*
X45170000Y-80167674D01*
X45140664Y-80096851D01*
X44987451Y-79867552D01*
X44792448Y-79672549D01*
X44563149Y-79519336D01*
X44308365Y-79413801D01*
X44037888Y-79360000D01*
X43762112Y-79360000D01*
X43491635Y-79413801D01*
X43236851Y-79519336D01*
X43007552Y-79672549D01*
X42812549Y-79867552D01*
X42659336Y-80096851D01*
X42553801Y-80351635D01*
X42500000Y-80622112D01*
X42500000Y-80897888D01*
X42531077Y-81054122D01*
X41989003Y-81596196D01*
X41959999Y-81619999D01*
X41929015Y-81657754D01*
X41865026Y-81735724D01*
X41835473Y-81791014D01*
X41794454Y-81867754D01*
X41750997Y-82011015D01*
X41740000Y-82122668D01*
X41740000Y-82122678D01*
X41736324Y-82160000D01*
X39160000Y-82160000D01*
X39160000Y-70389721D01*
X39225000Y-70389721D01*
X39225000Y-70810279D01*
X39307047Y-71222756D01*
X39467988Y-71611302D01*
X39701637Y-71960983D01*
X39999017Y-72258363D01*
X40348698Y-72492012D01*
X40737244Y-72652953D01*
X41149721Y-72735000D01*
X41570279Y-72735000D01*
X41982756Y-72652953D01*
X42371302Y-72492012D01*
X42720983Y-72258363D01*
X43018363Y-71960983D01*
X43252012Y-71611302D01*
X43412953Y-71222756D01*
X43495000Y-70810279D01*
X43495000Y-70389721D01*
X43412953Y-69977244D01*
X43252012Y-69588698D01*
X43018363Y-69239017D01*
X42720983Y-68941637D01*
X42371302Y-68707988D01*
X41982756Y-68547047D01*
X41570279Y-68465000D01*
X41149721Y-68465000D01*
X40737244Y-68547047D01*
X40348698Y-68707988D01*
X39999017Y-68941637D01*
X39701637Y-69239017D01*
X39467988Y-69588698D01*
X39307047Y-69977244D01*
X39225000Y-70389721D01*
X39160000Y-70389721D01*
X39160000Y-35000000D01*
X41736324Y-35000000D01*
X41740000Y-35037323D01*
X41740001Y-41222668D01*
X41736324Y-41260000D01*
X41740001Y-41297333D01*
X41750998Y-41408986D01*
X41757065Y-41428985D01*
X41794454Y-41552246D01*
X41865026Y-41684276D01*
X41923069Y-41755001D01*
X41960000Y-41800001D01*
X41988998Y-41823799D01*
X42531077Y-42365878D01*
X42500000Y-42522112D01*
X42500000Y-42797888D01*
X42553801Y-43068365D01*
X42659336Y-43323149D01*
X42812549Y-43552448D01*
X43007552Y-43747451D01*
X43236851Y-43900664D01*
X43491635Y-44006199D01*
X43762112Y-44060000D01*
X44037888Y-44060000D01*
X44308365Y-44006199D01*
X44563149Y-43900664D01*
X44792448Y-43747451D01*
X44987451Y-43552448D01*
X45140664Y-43323149D01*
X45170000Y-43252326D01*
X45199336Y-43323149D01*
X45352549Y-43552448D01*
X45547552Y-43747451D01*
X45776851Y-43900664D01*
X46031635Y-44006199D01*
X46302112Y-44060000D01*
X46577888Y-44060000D01*
X46848365Y-44006199D01*
X47103149Y-43900664D01*
X47332448Y-43747451D01*
X47527451Y-43552448D01*
X47680664Y-43323149D01*
X47710000Y-43252326D01*
X47739336Y-43323149D01*
X47892549Y-43552448D01*
X48087552Y-43747451D01*
X48316851Y-43900664D01*
X48571635Y-44006199D01*
X48842112Y-44060000D01*
X49117888Y-44060000D01*
X49388365Y-44006199D01*
X49440661Y-43984537D01*
X45488998Y-47936201D01*
X45460000Y-47959999D01*
X45436202Y-47988997D01*
X45436201Y-47988998D01*
X45365026Y-48075724D01*
X45294454Y-48207754D01*
X45250998Y-48351015D01*
X45236324Y-48500000D01*
X45240001Y-48537333D01*
X45240000Y-65962678D01*
X45236324Y-66000000D01*
X45240000Y-66037322D01*
X45240000Y-66037332D01*
X45250997Y-66148985D01*
X45294454Y-66292246D01*
X45365026Y-66424276D01*
X45375014Y-66436446D01*
X45459999Y-66540001D01*
X45489003Y-66563804D01*
X47436200Y-68511002D01*
X47459999Y-68540001D01*
X47488997Y-68563799D01*
X47575723Y-68634974D01*
X47707753Y-68705546D01*
X47851014Y-68749003D01*
X47962667Y-68760000D01*
X47962676Y-68760000D01*
X47999999Y-68763676D01*
X48037322Y-68760000D01*
X81685199Y-68760000D01*
X91861928Y-78936730D01*
X91861928Y-81500000D01*
X91874188Y-81624482D01*
X91910498Y-81744180D01*
X91969463Y-81854494D01*
X92048815Y-81951185D01*
X92145506Y-82030537D01*
X92255820Y-82089502D01*
X92375518Y-82125812D01*
X92500000Y-82138072D01*
X95500000Y-82138072D01*
X95624482Y-82125812D01*
X95744180Y-82089502D01*
X95854494Y-82030537D01*
X95951185Y-81951185D01*
X96030537Y-81854494D01*
X96089502Y-81744180D01*
X96125812Y-81624482D01*
X96138072Y-81500000D01*
X96138072Y-81491653D01*
X113177952Y-81491653D01*
X113333962Y-81807214D01*
X113708745Y-81998020D01*
X114113551Y-82112044D01*
X114532824Y-82144902D01*
X114950451Y-82095334D01*
X115350383Y-81965243D01*
X115646038Y-81807214D01*
X115802048Y-81491653D01*
X114490000Y-80179605D01*
X113177952Y-81491653D01*
X96138072Y-81491653D01*
X96138072Y-80042824D01*
X112345098Y-80042824D01*
X112394666Y-80460451D01*
X112524757Y-80860383D01*
X112682786Y-81156038D01*
X112998347Y-81312048D01*
X114310395Y-80000000D01*
X114669605Y-80000000D01*
X115981653Y-81312048D01*
X116297214Y-81156038D01*
X116488020Y-80781255D01*
X116602044Y-80376449D01*
X116634902Y-79957176D01*
X116585334Y-79539549D01*
X116455243Y-79139617D01*
X116297214Y-78843962D01*
X115981653Y-78687952D01*
X114669605Y-80000000D01*
X114310395Y-80000000D01*
X112998347Y-78687952D01*
X112682786Y-78843962D01*
X112491980Y-79218745D01*
X112377956Y-79623551D01*
X112345098Y-80042824D01*
X96138072Y-80042824D01*
X96138072Y-78508347D01*
X113177952Y-78508347D01*
X114490000Y-79820395D01*
X115802048Y-78508347D01*
X115646038Y-78192786D01*
X115271255Y-78001980D01*
X114866449Y-77887956D01*
X114447176Y-77855098D01*
X114029549Y-77904666D01*
X113629617Y-78034757D01*
X113333962Y-78192786D01*
X113177952Y-78508347D01*
X96138072Y-78508347D01*
X96138072Y-78500000D01*
X96125812Y-78375518D01*
X96089502Y-78255820D01*
X96030537Y-78145506D01*
X95951185Y-78048815D01*
X95854494Y-77969463D01*
X95744180Y-77910498D01*
X95624482Y-77874188D01*
X95500000Y-77861928D01*
X92936730Y-77861928D01*
X82563804Y-67489003D01*
X82540001Y-67459999D01*
X82424276Y-67365026D01*
X82292247Y-67294454D01*
X82148986Y-67250997D01*
X82037333Y-67240000D01*
X82037322Y-67240000D01*
X82000000Y-67236324D01*
X81962678Y-67240000D01*
X59437138Y-67240000D01*
X59566632Y-67153475D01*
X59773475Y-66946632D01*
X59935990Y-66703411D01*
X60047932Y-66433158D01*
X60105000Y-66146260D01*
X60105000Y-65853740D01*
X60047932Y-65566842D01*
X59935990Y-65296589D01*
X59773475Y-65053368D01*
X59755000Y-65034893D01*
X59755000Y-63650000D01*
X87511928Y-63650000D01*
X87511928Y-65350000D01*
X87524188Y-65474482D01*
X87560498Y-65594180D01*
X87619463Y-65704494D01*
X87698815Y-65801185D01*
X87795506Y-65880537D01*
X87905820Y-65939502D01*
X88025518Y-65975812D01*
X88150000Y-65988072D01*
X89850000Y-65988072D01*
X89974482Y-65975812D01*
X90094180Y-65939502D01*
X90204494Y-65880537D01*
X90301185Y-65801185D01*
X90380537Y-65704494D01*
X90439502Y-65594180D01*
X90461513Y-65521620D01*
X90593368Y-65653475D01*
X90836589Y-65815990D01*
X91106842Y-65927932D01*
X91393740Y-65985000D01*
X91686260Y-65985000D01*
X91973158Y-65927932D01*
X92243411Y-65815990D01*
X92486632Y-65653475D01*
X92693475Y-65446632D01*
X92855990Y-65203411D01*
X92967932Y-64933158D01*
X93025000Y-64646260D01*
X93025000Y-64353740D01*
X92967932Y-64066842D01*
X92855990Y-63796589D01*
X92758043Y-63650000D01*
X98511928Y-63650000D01*
X98511928Y-65350000D01*
X98524188Y-65474482D01*
X98560498Y-65594180D01*
X98619463Y-65704494D01*
X98698815Y-65801185D01*
X98795506Y-65880537D01*
X98905820Y-65939502D01*
X99025518Y-65975812D01*
X99150000Y-65988072D01*
X100850000Y-65988072D01*
X100974482Y-65975812D01*
X101094180Y-65939502D01*
X101204494Y-65880537D01*
X101301185Y-65801185D01*
X101380537Y-65704494D01*
X101439502Y-65594180D01*
X101461513Y-65521620D01*
X101593368Y-65653475D01*
X101836589Y-65815990D01*
X102106842Y-65927932D01*
X102393740Y-65985000D01*
X102686260Y-65985000D01*
X102973158Y-65927932D01*
X103243411Y-65815990D01*
X103486632Y-65653475D01*
X103693475Y-65446632D01*
X103855990Y-65203411D01*
X103967932Y-64933158D01*
X104025000Y-64646260D01*
X104025000Y-64353740D01*
X103967932Y-64066842D01*
X103855990Y-63796589D01*
X103693475Y-63553368D01*
X103486632Y-63346525D01*
X103243411Y-63184010D01*
X102973158Y-63072068D01*
X102686260Y-63015000D01*
X102393740Y-63015000D01*
X102106842Y-63072068D01*
X101836589Y-63184010D01*
X101593368Y-63346525D01*
X101461513Y-63478380D01*
X101439502Y-63405820D01*
X101380537Y-63295506D01*
X101301185Y-63198815D01*
X101204494Y-63119463D01*
X101094180Y-63060498D01*
X100974482Y-63024188D01*
X100850000Y-63011928D01*
X99150000Y-63011928D01*
X99025518Y-63024188D01*
X98905820Y-63060498D01*
X98795506Y-63119463D01*
X98698815Y-63198815D01*
X98619463Y-63295506D01*
X98560498Y-63405820D01*
X98524188Y-63525518D01*
X98511928Y-63650000D01*
X92758043Y-63650000D01*
X92693475Y-63553368D01*
X92486632Y-63346525D01*
X92243411Y-63184010D01*
X91973158Y-63072068D01*
X91686260Y-63015000D01*
X91393740Y-63015000D01*
X91106842Y-63072068D01*
X90836589Y-63184010D01*
X90593368Y-63346525D01*
X90461513Y-63478380D01*
X90439502Y-63405820D01*
X90380537Y-63295506D01*
X90301185Y-63198815D01*
X90204494Y-63119463D01*
X90094180Y-63060498D01*
X89974482Y-63024188D01*
X89850000Y-63011928D01*
X88150000Y-63011928D01*
X88025518Y-63024188D01*
X87905820Y-63060498D01*
X87795506Y-63119463D01*
X87698815Y-63198815D01*
X87619463Y-63295506D01*
X87560498Y-63405820D01*
X87524188Y-63525518D01*
X87511928Y-63650000D01*
X59755000Y-63650000D01*
X59755000Y-59650000D01*
X82511928Y-59650000D01*
X82511928Y-61350000D01*
X82524188Y-61474482D01*
X82560498Y-61594180D01*
X82619463Y-61704494D01*
X82698815Y-61801185D01*
X82795506Y-61880537D01*
X82905820Y-61939502D01*
X83025518Y-61975812D01*
X83150000Y-61988072D01*
X84850000Y-61988072D01*
X84974482Y-61975812D01*
X85094180Y-61939502D01*
X85204494Y-61880537D01*
X85301185Y-61801185D01*
X85380537Y-61704494D01*
X85439502Y-61594180D01*
X85461513Y-61521620D01*
X85593368Y-61653475D01*
X85836589Y-61815990D01*
X86106842Y-61927932D01*
X86393740Y-61985000D01*
X86686260Y-61985000D01*
X86973158Y-61927932D01*
X87243411Y-61815990D01*
X87486632Y-61653475D01*
X87693475Y-61446632D01*
X87810000Y-61272240D01*
X87926525Y-61446632D01*
X88133368Y-61653475D01*
X88376589Y-61815990D01*
X88646842Y-61927932D01*
X88933740Y-61985000D01*
X89226260Y-61985000D01*
X89513158Y-61927932D01*
X89783411Y-61815990D01*
X90026632Y-61653475D01*
X90233475Y-61446632D01*
X90350000Y-61272240D01*
X90466525Y-61446632D01*
X90673368Y-61653475D01*
X90916589Y-61815990D01*
X91186842Y-61927932D01*
X91473740Y-61985000D01*
X91766260Y-61985000D01*
X92053158Y-61927932D01*
X92323411Y-61815990D01*
X92566632Y-61653475D01*
X92773475Y-61446632D01*
X92838042Y-61350000D01*
X94511928Y-61350000D01*
X94524188Y-61474482D01*
X94560498Y-61594180D01*
X94619463Y-61704494D01*
X94698815Y-61801185D01*
X94795506Y-61880537D01*
X94905820Y-61939502D01*
X95025518Y-61975812D01*
X95150000Y-61988072D01*
X95714250Y-61985000D01*
X95873000Y-61826250D01*
X95873000Y-60627000D01*
X96127000Y-60627000D01*
X96127000Y-61826250D01*
X96285750Y-61985000D01*
X96850000Y-61988072D01*
X96974482Y-61975812D01*
X97094180Y-61939502D01*
X97204494Y-61880537D01*
X97301185Y-61801185D01*
X97380537Y-61704494D01*
X97439502Y-61594180D01*
X97463966Y-61513534D01*
X97539731Y-61597588D01*
X97773080Y-61771641D01*
X98035901Y-61896825D01*
X98183110Y-61941476D01*
X98413000Y-61820155D01*
X98413000Y-60627000D01*
X96127000Y-60627000D01*
X95873000Y-60627000D01*
X94673750Y-60627000D01*
X94515000Y-60785750D01*
X94511928Y-61350000D01*
X92838042Y-61350000D01*
X92935990Y-61203411D01*
X93047932Y-60933158D01*
X93105000Y-60646260D01*
X93105000Y-60353740D01*
X93047932Y-60066842D01*
X92935990Y-59796589D01*
X92838043Y-59650000D01*
X94511928Y-59650000D01*
X94515000Y-60214250D01*
X94673750Y-60373000D01*
X95873000Y-60373000D01*
X95873000Y-59173750D01*
X96127000Y-59173750D01*
X96127000Y-60373000D01*
X98413000Y-60373000D01*
X98413000Y-59179845D01*
X98183110Y-59058524D01*
X98035901Y-59103175D01*
X97773080Y-59228359D01*
X97539731Y-59402412D01*
X97463966Y-59486466D01*
X97439502Y-59405820D01*
X97380537Y-59295506D01*
X97301185Y-59198815D01*
X97204494Y-59119463D01*
X97094180Y-59060498D01*
X96974482Y-59024188D01*
X96850000Y-59011928D01*
X96285750Y-59015000D01*
X96127000Y-59173750D01*
X95873000Y-59173750D01*
X95714250Y-59015000D01*
X95150000Y-59011928D01*
X95025518Y-59024188D01*
X94905820Y-59060498D01*
X94795506Y-59119463D01*
X94698815Y-59198815D01*
X94619463Y-59295506D01*
X94560498Y-59405820D01*
X94524188Y-59525518D01*
X94511928Y-59650000D01*
X92838043Y-59650000D01*
X92773475Y-59553368D01*
X92566632Y-59346525D01*
X92323411Y-59184010D01*
X92053158Y-59072068D01*
X91766260Y-59015000D01*
X91473740Y-59015000D01*
X91186842Y-59072068D01*
X90916589Y-59184010D01*
X90673368Y-59346525D01*
X90466525Y-59553368D01*
X90350000Y-59727760D01*
X90233475Y-59553368D01*
X90026632Y-59346525D01*
X89783411Y-59184010D01*
X89513158Y-59072068D01*
X89226260Y-59015000D01*
X88933740Y-59015000D01*
X88646842Y-59072068D01*
X88376589Y-59184010D01*
X88133368Y-59346525D01*
X87926525Y-59553368D01*
X87810000Y-59727760D01*
X87693475Y-59553368D01*
X87486632Y-59346525D01*
X87243411Y-59184010D01*
X86973158Y-59072068D01*
X86686260Y-59015000D01*
X86393740Y-59015000D01*
X86106842Y-59072068D01*
X85836589Y-59184010D01*
X85593368Y-59346525D01*
X85461513Y-59478380D01*
X85439502Y-59405820D01*
X85380537Y-59295506D01*
X85301185Y-59198815D01*
X85204494Y-59119463D01*
X85094180Y-59060498D01*
X84974482Y-59024188D01*
X84850000Y-59011928D01*
X83150000Y-59011928D01*
X83025518Y-59024188D01*
X82905820Y-59060498D01*
X82795506Y-59119463D01*
X82698815Y-59198815D01*
X82619463Y-59295506D01*
X82560498Y-59405820D01*
X82524188Y-59525518D01*
X82511928Y-59650000D01*
X59755000Y-59650000D01*
X59755000Y-57350131D01*
X64955131Y-52150000D01*
X76011928Y-52150000D01*
X76011928Y-53850000D01*
X76024188Y-53974482D01*
X76060498Y-54094180D01*
X76119463Y-54204494D01*
X76198815Y-54301185D01*
X76295506Y-54380537D01*
X76405820Y-54439502D01*
X76525518Y-54475812D01*
X76650000Y-54488072D01*
X78350000Y-54488072D01*
X78474482Y-54475812D01*
X78594180Y-54439502D01*
X78704494Y-54380537D01*
X78801185Y-54301185D01*
X78880537Y-54204494D01*
X78939502Y-54094180D01*
X78961513Y-54021620D01*
X79093368Y-54153475D01*
X79336589Y-54315990D01*
X79606842Y-54427932D01*
X79893740Y-54485000D01*
X80186260Y-54485000D01*
X80473158Y-54427932D01*
X80743411Y-54315990D01*
X80986632Y-54153475D01*
X81193475Y-53946632D01*
X81258042Y-53850000D01*
X82511928Y-53850000D01*
X82524188Y-53974482D01*
X82560498Y-54094180D01*
X82619463Y-54204494D01*
X82698815Y-54301185D01*
X82795506Y-54380537D01*
X82905820Y-54439502D01*
X83025518Y-54475812D01*
X83150000Y-54488072D01*
X83714250Y-54485000D01*
X83873000Y-54326250D01*
X83873000Y-53127000D01*
X84127000Y-53127000D01*
X84127000Y-54326250D01*
X84285750Y-54485000D01*
X84850000Y-54488072D01*
X84974482Y-54475812D01*
X85094180Y-54439502D01*
X85204494Y-54380537D01*
X85301185Y-54301185D01*
X85380537Y-54204494D01*
X85439502Y-54094180D01*
X85463966Y-54013534D01*
X85539731Y-54097588D01*
X85773080Y-54271641D01*
X86035901Y-54396825D01*
X86183110Y-54441476D01*
X86413000Y-54320155D01*
X86413000Y-53127000D01*
X84127000Y-53127000D01*
X83873000Y-53127000D01*
X82673750Y-53127000D01*
X82515000Y-53285750D01*
X82511928Y-53850000D01*
X81258042Y-53850000D01*
X81355990Y-53703411D01*
X81467932Y-53433158D01*
X81525000Y-53146260D01*
X81525000Y-52853740D01*
X81467932Y-52566842D01*
X81355990Y-52296589D01*
X81258043Y-52150000D01*
X82511928Y-52150000D01*
X82515000Y-52714250D01*
X82673750Y-52873000D01*
X83873000Y-52873000D01*
X83873000Y-51673750D01*
X84127000Y-51673750D01*
X84127000Y-52873000D01*
X86413000Y-52873000D01*
X86413000Y-51679845D01*
X86667000Y-51679845D01*
X86667000Y-52873000D01*
X86687000Y-52873000D01*
X86687000Y-53127000D01*
X86667000Y-53127000D01*
X86667000Y-54320155D01*
X86896890Y-54441476D01*
X87044099Y-54396825D01*
X87306920Y-54271641D01*
X87540269Y-54097588D01*
X87735178Y-53881355D01*
X87804805Y-53764466D01*
X87926525Y-53946632D01*
X88133368Y-54153475D01*
X88376589Y-54315990D01*
X88646842Y-54427932D01*
X88933740Y-54485000D01*
X89226260Y-54485000D01*
X89513158Y-54427932D01*
X89783411Y-54315990D01*
X90026632Y-54153475D01*
X90045107Y-54135000D01*
X90654893Y-54135000D01*
X90673368Y-54153475D01*
X90916589Y-54315990D01*
X91186842Y-54427932D01*
X91473740Y-54485000D01*
X91766260Y-54485000D01*
X92053158Y-54427932D01*
X92323411Y-54315990D01*
X92566632Y-54153475D01*
X92773475Y-53946632D01*
X92935990Y-53703411D01*
X93047932Y-53433158D01*
X93105000Y-53146260D01*
X93105000Y-52853740D01*
X93047932Y-52566842D01*
X92935990Y-52296589D01*
X92773475Y-52053368D01*
X92566632Y-51846525D01*
X92323411Y-51684010D01*
X92053158Y-51572068D01*
X91766260Y-51515000D01*
X91473740Y-51515000D01*
X91186842Y-51572068D01*
X90916589Y-51684010D01*
X90673368Y-51846525D01*
X90654893Y-51865000D01*
X90045107Y-51865000D01*
X90026632Y-51846525D01*
X89783411Y-51684010D01*
X89513158Y-51572068D01*
X89226260Y-51515000D01*
X88933740Y-51515000D01*
X88646842Y-51572068D01*
X88376589Y-51684010D01*
X88133368Y-51846525D01*
X87926525Y-52053368D01*
X87804805Y-52235534D01*
X87735178Y-52118645D01*
X87540269Y-51902412D01*
X87306920Y-51728359D01*
X87044099Y-51603175D01*
X86896890Y-51558524D01*
X86667000Y-51679845D01*
X86413000Y-51679845D01*
X86183110Y-51558524D01*
X86035901Y-51603175D01*
X85773080Y-51728359D01*
X85539731Y-51902412D01*
X85463966Y-51986466D01*
X85439502Y-51905820D01*
X85380537Y-51795506D01*
X85301185Y-51698815D01*
X85204494Y-51619463D01*
X85094180Y-51560498D01*
X84974482Y-51524188D01*
X84850000Y-51511928D01*
X84285750Y-51515000D01*
X84127000Y-51673750D01*
X83873000Y-51673750D01*
X83714250Y-51515000D01*
X83150000Y-51511928D01*
X83025518Y-51524188D01*
X82905820Y-51560498D01*
X82795506Y-51619463D01*
X82698815Y-51698815D01*
X82619463Y-51795506D01*
X82560498Y-51905820D01*
X82524188Y-52025518D01*
X82511928Y-52150000D01*
X81258043Y-52150000D01*
X81193475Y-52053368D01*
X80986632Y-51846525D01*
X80743411Y-51684010D01*
X80473158Y-51572068D01*
X80186260Y-51515000D01*
X79893740Y-51515000D01*
X79606842Y-51572068D01*
X79336589Y-51684010D01*
X79093368Y-51846525D01*
X78961513Y-51978380D01*
X78939502Y-51905820D01*
X78880537Y-51795506D01*
X78801185Y-51698815D01*
X78704494Y-51619463D01*
X78594180Y-51560498D01*
X78474482Y-51524188D01*
X78350000Y-51511928D01*
X76650000Y-51511928D01*
X76525518Y-51524188D01*
X76405820Y-51560498D01*
X76295506Y-51619463D01*
X76198815Y-51698815D01*
X76119463Y-51795506D01*
X76060498Y-51905820D01*
X76024188Y-52025518D01*
X76011928Y-52150000D01*
X64955131Y-52150000D01*
X66970132Y-50135000D01*
X88944257Y-50135000D01*
X88999999Y-50140490D01*
X89055741Y-50135000D01*
X97029869Y-50135000D01*
X99945001Y-53050134D01*
X99945000Y-59534893D01*
X99926525Y-59553368D01*
X99804805Y-59735534D01*
X99735178Y-59618645D01*
X99540269Y-59402412D01*
X99306920Y-59228359D01*
X99044099Y-59103175D01*
X98896890Y-59058524D01*
X98667000Y-59179845D01*
X98667000Y-60373000D01*
X98687000Y-60373000D01*
X98687000Y-60627000D01*
X98667000Y-60627000D01*
X98667000Y-61820155D01*
X98896890Y-61941476D01*
X99044099Y-61896825D01*
X99306920Y-61771641D01*
X99540269Y-61597588D01*
X99735178Y-61381355D01*
X99804805Y-61264466D01*
X99926525Y-61446632D01*
X100133368Y-61653475D01*
X100376589Y-61815990D01*
X100646842Y-61927932D01*
X100933740Y-61985000D01*
X101226260Y-61985000D01*
X101513158Y-61927932D01*
X101783411Y-61815990D01*
X102026632Y-61653475D01*
X102045107Y-61635000D01*
X102654893Y-61635000D01*
X102673368Y-61653475D01*
X102916589Y-61815990D01*
X103186842Y-61927932D01*
X103473740Y-61985000D01*
X103766260Y-61985000D01*
X104053158Y-61927932D01*
X104323411Y-61815990D01*
X104566632Y-61653475D01*
X104773475Y-61446632D01*
X104935990Y-61203411D01*
X105047932Y-60933158D01*
X105105000Y-60646260D01*
X105105000Y-60353740D01*
X105047932Y-60066842D01*
X104935990Y-59796589D01*
X104773475Y-59553368D01*
X104566632Y-59346525D01*
X104323411Y-59184010D01*
X104053158Y-59072068D01*
X103766260Y-59015000D01*
X103473740Y-59015000D01*
X103186842Y-59072068D01*
X102916589Y-59184010D01*
X102673368Y-59346525D01*
X102654893Y-59365000D01*
X102215000Y-59365000D01*
X102215000Y-52635752D01*
X102220491Y-52580000D01*
X102198577Y-52357501D01*
X102133676Y-52143553D01*
X102028284Y-51946377D01*
X101921989Y-51816856D01*
X101921987Y-51816854D01*
X101886449Y-51773551D01*
X101843146Y-51738013D01*
X98341996Y-48236865D01*
X98306449Y-48193551D01*
X98133623Y-48051716D01*
X97936447Y-47946324D01*
X97722499Y-47881423D01*
X97555752Y-47865000D01*
X97555751Y-47865000D01*
X97500000Y-47859509D01*
X97444249Y-47865000D01*
X89470132Y-47865000D01*
X88848573Y-47243442D01*
X88880537Y-47204494D01*
X88939502Y-47094180D01*
X88963966Y-47013534D01*
X89039731Y-47097588D01*
X89273080Y-47271641D01*
X89535901Y-47396825D01*
X89683110Y-47441476D01*
X89913000Y-47320155D01*
X89913000Y-46127000D01*
X89893000Y-46127000D01*
X89893000Y-45873000D01*
X89913000Y-45873000D01*
X89913000Y-44679845D01*
X90167000Y-44679845D01*
X90167000Y-45873000D01*
X90187000Y-45873000D01*
X90187000Y-46127000D01*
X90167000Y-46127000D01*
X90167000Y-47320155D01*
X90396890Y-47441476D01*
X90544099Y-47396825D01*
X90806920Y-47271641D01*
X91040269Y-47097588D01*
X91235178Y-46881355D01*
X91304805Y-46764466D01*
X91426525Y-46946632D01*
X91633368Y-47153475D01*
X91876589Y-47315990D01*
X92146842Y-47427932D01*
X92433740Y-47485000D01*
X92726260Y-47485000D01*
X93013158Y-47427932D01*
X93283411Y-47315990D01*
X93526632Y-47153475D01*
X93733475Y-46946632D01*
X93850000Y-46772240D01*
X93966525Y-46946632D01*
X94173368Y-47153475D01*
X94416589Y-47315990D01*
X94686842Y-47427932D01*
X94973740Y-47485000D01*
X95266260Y-47485000D01*
X95553158Y-47427932D01*
X95823411Y-47315990D01*
X96066632Y-47153475D01*
X96273475Y-46946632D01*
X96390000Y-46772240D01*
X96506525Y-46946632D01*
X96713368Y-47153475D01*
X96956589Y-47315990D01*
X97226842Y-47427932D01*
X97513740Y-47485000D01*
X97806260Y-47485000D01*
X98093158Y-47427932D01*
X98363411Y-47315990D01*
X98606632Y-47153475D01*
X98813475Y-46946632D01*
X98975990Y-46703411D01*
X99087932Y-46433158D01*
X99145000Y-46146260D01*
X99145000Y-45853740D01*
X99087932Y-45566842D01*
X98975990Y-45296589D01*
X98813475Y-45053368D01*
X98606632Y-44846525D01*
X98363411Y-44684010D01*
X98093158Y-44572068D01*
X97806260Y-44515000D01*
X97513740Y-44515000D01*
X97226842Y-44572068D01*
X96956589Y-44684010D01*
X96713368Y-44846525D01*
X96506525Y-45053368D01*
X96390000Y-45227760D01*
X96273475Y-45053368D01*
X96066632Y-44846525D01*
X95823411Y-44684010D01*
X95553158Y-44572068D01*
X95266260Y-44515000D01*
X94973740Y-44515000D01*
X94686842Y-44572068D01*
X94416589Y-44684010D01*
X94173368Y-44846525D01*
X93966525Y-45053368D01*
X93850000Y-45227760D01*
X93733475Y-45053368D01*
X93526632Y-44846525D01*
X93283411Y-44684010D01*
X93013158Y-44572068D01*
X92726260Y-44515000D01*
X92433740Y-44515000D01*
X92146842Y-44572068D01*
X91876589Y-44684010D01*
X91633368Y-44846525D01*
X91426525Y-45053368D01*
X91304805Y-45235534D01*
X91235178Y-45118645D01*
X91040269Y-44902412D01*
X90806920Y-44728359D01*
X90544099Y-44603175D01*
X90396890Y-44558524D01*
X90167000Y-44679845D01*
X89913000Y-44679845D01*
X89683110Y-44558524D01*
X89535901Y-44603175D01*
X89273080Y-44728359D01*
X89039731Y-44902412D01*
X88963966Y-44986466D01*
X88939502Y-44905820D01*
X88880537Y-44795506D01*
X88801185Y-44698815D01*
X88704494Y-44619463D01*
X88594180Y-44560498D01*
X88474482Y-44524188D01*
X88350000Y-44511928D01*
X86650000Y-44511928D01*
X86525518Y-44524188D01*
X86405820Y-44560498D01*
X86295506Y-44619463D01*
X86198815Y-44698815D01*
X86119463Y-44795506D01*
X86060498Y-44905820D01*
X86024188Y-45025518D01*
X86011928Y-45150000D01*
X86011928Y-46850000D01*
X86024188Y-46974482D01*
X86060498Y-47094180D01*
X86119463Y-47204494D01*
X86198815Y-47301185D01*
X86295506Y-47380537D01*
X86365000Y-47417683D01*
X86365000Y-47444249D01*
X86359509Y-47500000D01*
X86365000Y-47555751D01*
X86381423Y-47722498D01*
X86424651Y-47865000D01*
X66970132Y-47865000D01*
X62815000Y-43709869D01*
X62815000Y-43627707D01*
X63431898Y-43627707D01*
X63499240Y-43868106D01*
X63748780Y-43985506D01*
X64016427Y-44051967D01*
X64291899Y-44064936D01*
X64564607Y-44023914D01*
X64824072Y-43930478D01*
X64940760Y-43868106D01*
X65008102Y-43627707D01*
X65971898Y-43627707D01*
X66039240Y-43868106D01*
X66288780Y-43985506D01*
X66556427Y-44051967D01*
X66831899Y-44064936D01*
X67104607Y-44023914D01*
X67364072Y-43930478D01*
X67480760Y-43868106D01*
X67548102Y-43627707D01*
X66760000Y-42839605D01*
X65971898Y-43627707D01*
X65008102Y-43627707D01*
X64220000Y-42839605D01*
X63431898Y-43627707D01*
X62815000Y-43627707D01*
X62815000Y-43481286D01*
X62920664Y-43323149D01*
X62947482Y-43258406D01*
X62949522Y-43264072D01*
X63011894Y-43380760D01*
X63252293Y-43448102D01*
X64040395Y-42660000D01*
X64026253Y-42645858D01*
X64205858Y-42466253D01*
X64220000Y-42480395D01*
X64234143Y-42466253D01*
X64413748Y-42645858D01*
X64399605Y-42660000D01*
X65187707Y-43448102D01*
X65428106Y-43380760D01*
X65486696Y-43256224D01*
X65489522Y-43264072D01*
X65551894Y-43380760D01*
X65792293Y-43448102D01*
X66580395Y-42660000D01*
X66566253Y-42645858D01*
X66745858Y-42466253D01*
X66760000Y-42480395D01*
X66774143Y-42466253D01*
X66953748Y-42645858D01*
X66939605Y-42660000D01*
X67727707Y-43448102D01*
X67968106Y-43380760D01*
X68029312Y-43250664D01*
X68059336Y-43323149D01*
X68212549Y-43552448D01*
X68407552Y-43747451D01*
X68636851Y-43900664D01*
X68891635Y-44006199D01*
X69162112Y-44060000D01*
X69437888Y-44060000D01*
X69708365Y-44006199D01*
X69963149Y-43900664D01*
X70192448Y-43747451D01*
X70387451Y-43552448D01*
X70540664Y-43323149D01*
X70570000Y-43252326D01*
X70599336Y-43323149D01*
X70752549Y-43552448D01*
X70947552Y-43747451D01*
X71176851Y-43900664D01*
X71431635Y-44006199D01*
X71702112Y-44060000D01*
X71977888Y-44060000D01*
X72248365Y-44006199D01*
X72503149Y-43900664D01*
X72732448Y-43747451D01*
X72927451Y-43552448D01*
X73080664Y-43323149D01*
X73110000Y-43252326D01*
X73139336Y-43323149D01*
X73292549Y-43552448D01*
X73487552Y-43747451D01*
X73716851Y-43900664D01*
X73971635Y-44006199D01*
X74242112Y-44060000D01*
X74517888Y-44060000D01*
X74788365Y-44006199D01*
X75043149Y-43900664D01*
X75272448Y-43747451D01*
X75467451Y-43552448D01*
X75620664Y-43323149D01*
X75650000Y-43252326D01*
X75679336Y-43323149D01*
X75832549Y-43552448D01*
X76027552Y-43747451D01*
X76256851Y-43900664D01*
X76511635Y-44006199D01*
X76782112Y-44060000D01*
X77057888Y-44060000D01*
X77328365Y-44006199D01*
X77583149Y-43900664D01*
X77812448Y-43747451D01*
X78007451Y-43552448D01*
X78160664Y-43323149D01*
X78190000Y-43252326D01*
X78219336Y-43323149D01*
X78372549Y-43552448D01*
X78567552Y-43747451D01*
X78796851Y-43900664D01*
X79051635Y-44006199D01*
X79322112Y-44060000D01*
X79597888Y-44060000D01*
X79868365Y-44006199D01*
X80123149Y-43900664D01*
X80352448Y-43747451D01*
X80472192Y-43627707D01*
X81211898Y-43627707D01*
X81279240Y-43868106D01*
X81528780Y-43985506D01*
X81796427Y-44051967D01*
X82071899Y-44064936D01*
X82344607Y-44023914D01*
X82604072Y-43930478D01*
X82720760Y-43868106D01*
X82788102Y-43627707D01*
X82000000Y-42839605D01*
X81211898Y-43627707D01*
X80472192Y-43627707D01*
X80547451Y-43552448D01*
X80700664Y-43323149D01*
X80727482Y-43258406D01*
X80729522Y-43264072D01*
X80791894Y-43380760D01*
X81032293Y-43448102D01*
X81820395Y-42660000D01*
X81806253Y-42645858D01*
X81985858Y-42466253D01*
X82000000Y-42480395D01*
X82014143Y-42466253D01*
X82193748Y-42645858D01*
X82179605Y-42660000D01*
X82967707Y-43448102D01*
X83208106Y-43380760D01*
X83269312Y-43250664D01*
X83299336Y-43323149D01*
X83452549Y-43552448D01*
X83647552Y-43747451D01*
X83876851Y-43900664D01*
X84131635Y-44006199D01*
X84402112Y-44060000D01*
X84677888Y-44060000D01*
X84948365Y-44006199D01*
X85203149Y-43900664D01*
X85432448Y-43747451D01*
X85627451Y-43552448D01*
X85780664Y-43323149D01*
X85810000Y-43252326D01*
X85839336Y-43323149D01*
X85992549Y-43552448D01*
X86187552Y-43747451D01*
X86416851Y-43900664D01*
X86671635Y-44006199D01*
X86942112Y-44060000D01*
X87217888Y-44060000D01*
X87488365Y-44006199D01*
X87743149Y-43900664D01*
X87972448Y-43747451D01*
X88167451Y-43552448D01*
X88320664Y-43323149D01*
X88350000Y-43252326D01*
X88379336Y-43323149D01*
X88532549Y-43552448D01*
X88727552Y-43747451D01*
X88956851Y-43900664D01*
X89211635Y-44006199D01*
X89482112Y-44060000D01*
X89757888Y-44060000D01*
X90028365Y-44006199D01*
X90283149Y-43900664D01*
X90512448Y-43747451D01*
X90707451Y-43552448D01*
X90860664Y-43323149D01*
X90966199Y-43068365D01*
X91020000Y-42797888D01*
X91020000Y-42522112D01*
X90966199Y-42251635D01*
X90860664Y-41996851D01*
X90707451Y-41767552D01*
X90512448Y-41572549D01*
X90431541Y-41518488D01*
X90509482Y-41510812D01*
X90629180Y-41474502D01*
X90739494Y-41415537D01*
X90836185Y-41336185D01*
X90915537Y-41239494D01*
X90974502Y-41129180D01*
X91010812Y-41009482D01*
X91023072Y-40885000D01*
X91023072Y-39355000D01*
X91010812Y-39230518D01*
X90974502Y-39110820D01*
X90915537Y-39000506D01*
X90836185Y-38903815D01*
X90739494Y-38824463D01*
X90629180Y-38765498D01*
X90509482Y-38729188D01*
X90385000Y-38716928D01*
X90380000Y-38716928D01*
X90380000Y-37369721D01*
X91295000Y-37369721D01*
X91295000Y-37790279D01*
X91377047Y-38202756D01*
X91537988Y-38591302D01*
X91771637Y-38940983D01*
X92069017Y-39238363D01*
X92418698Y-39472012D01*
X92807244Y-39632953D01*
X93219721Y-39715000D01*
X93640279Y-39715000D01*
X94052756Y-39632953D01*
X94441302Y-39472012D01*
X94790983Y-39238363D01*
X95088363Y-38940983D01*
X95322012Y-38591302D01*
X95482953Y-38202756D01*
X95565000Y-37790279D01*
X95565000Y-37369721D01*
X95482953Y-36957244D01*
X95322012Y-36568698D01*
X95088363Y-36219017D01*
X94790983Y-35921637D01*
X94441302Y-35687988D01*
X94052756Y-35527047D01*
X93640279Y-35445000D01*
X93219721Y-35445000D01*
X92807244Y-35527047D01*
X92418698Y-35687988D01*
X92069017Y-35921637D01*
X91771637Y-36219017D01*
X91537988Y-36568698D01*
X91377047Y-36957244D01*
X91295000Y-37369721D01*
X90380000Y-37369721D01*
X90380000Y-35194801D01*
X91511004Y-34063798D01*
X91540001Y-34040001D01*
X91634974Y-33924276D01*
X91705546Y-33792247D01*
X91749003Y-33648986D01*
X91760000Y-33537333D01*
X91760000Y-33537325D01*
X91763676Y-33500000D01*
X91760000Y-33462675D01*
X91760000Y-31377325D01*
X91763676Y-31340000D01*
X91760000Y-31302675D01*
X91760000Y-31302667D01*
X91749003Y-31191014D01*
X91705546Y-31047753D01*
X91634974Y-30915724D01*
X91540001Y-30799999D01*
X91511003Y-30776201D01*
X91023072Y-30288270D01*
X91023072Y-29195000D01*
X91010812Y-29070518D01*
X90974502Y-28950820D01*
X90915537Y-28840506D01*
X90836185Y-28743815D01*
X90739494Y-28664463D01*
X90629180Y-28605498D01*
X90509482Y-28569188D01*
X90385000Y-28556928D01*
X88855000Y-28556928D01*
X88730518Y-28569188D01*
X88610820Y-28605498D01*
X88500506Y-28664463D01*
X88403815Y-28743815D01*
X88324463Y-28840506D01*
X88265498Y-28950820D01*
X88229188Y-29070518D01*
X88221512Y-29148459D01*
X88167451Y-29067552D01*
X87972448Y-28872549D01*
X87743149Y-28719336D01*
X87488365Y-28613801D01*
X87217888Y-28560000D01*
X86942112Y-28560000D01*
X86671635Y-28613801D01*
X86416851Y-28719336D01*
X86187552Y-28872549D01*
X85992549Y-29067552D01*
X85839336Y-29296851D01*
X85810000Y-29367674D01*
X85780664Y-29296851D01*
X85627451Y-29067552D01*
X85432448Y-28872549D01*
X85203149Y-28719336D01*
X84948365Y-28613801D01*
X84677888Y-28560000D01*
X84402112Y-28560000D01*
X84131635Y-28613801D01*
X83876851Y-28719336D01*
X83647552Y-28872549D01*
X83452549Y-29067552D01*
X83299336Y-29296851D01*
X83270000Y-29367674D01*
X83240664Y-29296851D01*
X83087451Y-29067552D01*
X82892448Y-28872549D01*
X82663149Y-28719336D01*
X82408365Y-28613801D01*
X82137888Y-28560000D01*
X81862112Y-28560000D01*
X81591635Y-28613801D01*
X81336851Y-28719336D01*
X81107552Y-28872549D01*
X80912549Y-29067552D01*
X80759336Y-29296851D01*
X80730000Y-29367674D01*
X80700664Y-29296851D01*
X80547451Y-29067552D01*
X80352448Y-28872549D01*
X80123149Y-28719336D01*
X79868365Y-28613801D01*
X79597888Y-28560000D01*
X79322112Y-28560000D01*
X79051635Y-28613801D01*
X78796851Y-28719336D01*
X78567552Y-28872549D01*
X78372549Y-29067552D01*
X78219336Y-29296851D01*
X78190000Y-29367674D01*
X78160664Y-29296851D01*
X78007451Y-29067552D01*
X77812448Y-28872549D01*
X77583149Y-28719336D01*
X77328365Y-28613801D01*
X77057888Y-28560000D01*
X76782112Y-28560000D01*
X76511635Y-28613801D01*
X76256851Y-28719336D01*
X76027552Y-28872549D01*
X75832549Y-29067552D01*
X75679336Y-29296851D01*
X75650000Y-29367674D01*
X75620664Y-29296851D01*
X75467451Y-29067552D01*
X75272448Y-28872549D01*
X75043149Y-28719336D01*
X74788365Y-28613801D01*
X74517888Y-28560000D01*
X74242112Y-28560000D01*
X73971635Y-28613801D01*
X73716851Y-28719336D01*
X73487552Y-28872549D01*
X73292549Y-29067552D01*
X73139336Y-29296851D01*
X73110000Y-29367674D01*
X73080664Y-29296851D01*
X72927451Y-29067552D01*
X72732448Y-28872549D01*
X72503149Y-28719336D01*
X72248365Y-28613801D01*
X71977888Y-28560000D01*
X71702112Y-28560000D01*
X71431635Y-28613801D01*
X71176851Y-28719336D01*
X70947552Y-28872549D01*
X70752549Y-29067552D01*
X70599336Y-29296851D01*
X70570000Y-29367674D01*
X70540664Y-29296851D01*
X70387451Y-29067552D01*
X70192448Y-28872549D01*
X69963149Y-28719336D01*
X69708365Y-28613801D01*
X69437888Y-28560000D01*
X69162112Y-28560000D01*
X68891635Y-28613801D01*
X68636851Y-28719336D01*
X68407552Y-28872549D01*
X68212549Y-29067552D01*
X68059336Y-29296851D01*
X68032518Y-29361594D01*
X68030478Y-29355928D01*
X67968106Y-29239240D01*
X67727707Y-29171898D01*
X66939605Y-29960000D01*
X66953748Y-29974143D01*
X66774143Y-30153748D01*
X66760000Y-30139605D01*
X66745858Y-30153748D01*
X66566253Y-29974143D01*
X66580395Y-29960000D01*
X65792293Y-29171898D01*
X65551894Y-29239240D01*
X65490688Y-29369336D01*
X65460664Y-29296851D01*
X65307451Y-29067552D01*
X65232192Y-28992293D01*
X65971898Y-28992293D01*
X66760000Y-29780395D01*
X67548102Y-28992293D01*
X67480760Y-28751894D01*
X67231220Y-28634494D01*
X66963573Y-28568033D01*
X66688101Y-28555064D01*
X66415393Y-28596086D01*
X66155928Y-28689522D01*
X66039240Y-28751894D01*
X65971898Y-28992293D01*
X65232192Y-28992293D01*
X65112448Y-28872549D01*
X64883149Y-28719336D01*
X64628365Y-28613801D01*
X64357888Y-28560000D01*
X64082112Y-28560000D01*
X63811635Y-28613801D01*
X63556851Y-28719336D01*
X63327552Y-28872549D01*
X63132549Y-29067552D01*
X62979336Y-29296851D01*
X62950000Y-29367674D01*
X62920664Y-29296851D01*
X62767451Y-29067552D01*
X62572448Y-28872549D01*
X62343149Y-28719336D01*
X62088365Y-28613801D01*
X61817888Y-28560000D01*
X61542112Y-28560000D01*
X61271635Y-28613801D01*
X61016851Y-28719336D01*
X60787552Y-28872549D01*
X60592549Y-29067552D01*
X60439336Y-29296851D01*
X60410000Y-29367674D01*
X60380664Y-29296851D01*
X60227451Y-29067552D01*
X60032448Y-28872549D01*
X59803149Y-28719336D01*
X59548365Y-28613801D01*
X59277888Y-28560000D01*
X59002112Y-28560000D01*
X58731635Y-28613801D01*
X58476851Y-28719336D01*
X58247552Y-28872549D01*
X58052549Y-29067552D01*
X57899336Y-29296851D01*
X57870000Y-29367674D01*
X57840664Y-29296851D01*
X57687451Y-29067552D01*
X57492448Y-28872549D01*
X57263149Y-28719336D01*
X57008365Y-28613801D01*
X56737888Y-28560000D01*
X56462112Y-28560000D01*
X56191635Y-28613801D01*
X55936851Y-28719336D01*
X55707552Y-28872549D01*
X55512549Y-29067552D01*
X55359336Y-29296851D01*
X55330000Y-29367674D01*
X55300664Y-29296851D01*
X55147451Y-29067552D01*
X54952448Y-28872549D01*
X54723149Y-28719336D01*
X54468365Y-28613801D01*
X54197888Y-28560000D01*
X53922112Y-28560000D01*
X53651635Y-28613801D01*
X53396851Y-28719336D01*
X53167552Y-28872549D01*
X52972549Y-29067552D01*
X52819336Y-29296851D01*
X52790000Y-29367674D01*
X52760664Y-29296851D01*
X52607451Y-29067552D01*
X52412448Y-28872549D01*
X52183149Y-28719336D01*
X51928365Y-28613801D01*
X51657888Y-28560000D01*
X51382112Y-28560000D01*
X51111635Y-28613801D01*
X50856851Y-28719336D01*
X50627552Y-28872549D01*
X50432549Y-29067552D01*
X50279336Y-29296851D01*
X50250000Y-29367674D01*
X50220664Y-29296851D01*
X50067451Y-29067552D01*
X49872448Y-28872549D01*
X49643149Y-28719336D01*
X49388365Y-28613801D01*
X49117888Y-28560000D01*
X48842112Y-28560000D01*
X48571635Y-28613801D01*
X48316851Y-28719336D01*
X48087552Y-28872549D01*
X47892549Y-29067552D01*
X47739336Y-29296851D01*
X47710000Y-29367674D01*
X47680664Y-29296851D01*
X47527451Y-29067552D01*
X47332448Y-28872549D01*
X47103149Y-28719336D01*
X46848365Y-28613801D01*
X46577888Y-28560000D01*
X46302112Y-28560000D01*
X46031635Y-28613801D01*
X45776851Y-28719336D01*
X45547552Y-28872549D01*
X45352549Y-29067552D01*
X45199336Y-29296851D01*
X45170000Y-29367674D01*
X45140664Y-29296851D01*
X44987451Y-29067552D01*
X44792448Y-28872549D01*
X44563149Y-28719336D01*
X44308365Y-28613801D01*
X44037888Y-28560000D01*
X43762112Y-28560000D01*
X43491635Y-28613801D01*
X43236851Y-28719336D01*
X43007552Y-28872549D01*
X42812549Y-29067552D01*
X42659336Y-29296851D01*
X42553801Y-29551635D01*
X42500000Y-29822112D01*
X42500000Y-30097888D01*
X42553801Y-30368365D01*
X42659336Y-30623149D01*
X42812549Y-30852448D01*
X43007552Y-31047451D01*
X43236851Y-31200664D01*
X43307674Y-31230000D01*
X43236851Y-31259336D01*
X43007552Y-31412549D01*
X42812549Y-31607552D01*
X42659336Y-31836851D01*
X42553801Y-32091635D01*
X42500000Y-32362112D01*
X42500000Y-32637888D01*
X42553801Y-32908365D01*
X42659336Y-33163149D01*
X42812549Y-33392448D01*
X42922650Y-33502549D01*
X41989003Y-34436196D01*
X41959999Y-34459999D01*
X41915947Y-34513677D01*
X41865026Y-34575724D01*
X41826525Y-34647754D01*
X41794454Y-34707754D01*
X41750997Y-34851015D01*
X41740000Y-34962668D01*
X41740000Y-34962678D01*
X41736324Y-35000000D01*
X39160000Y-35000000D01*
X39160000Y-27160000D01*
X127840001Y-27160000D01*
X127840000Y-96340000D01*
G36*
X60439336Y-43323149D02*
G01*
X60545000Y-43481286D01*
X60545000Y-44124249D01*
X60539509Y-44180000D01*
X60561423Y-44402498D01*
X60626324Y-44616446D01*
X60626325Y-44616447D01*
X60731717Y-44813623D01*
X60873552Y-44986449D01*
X60916860Y-45021991D01*
X64894868Y-49000000D01*
X57856860Y-56038009D01*
X57813552Y-56073551D01*
X57671717Y-56246377D01*
X57615384Y-56351770D01*
X57566324Y-56443554D01*
X57501423Y-56657502D01*
X57479509Y-56880000D01*
X57485001Y-56935761D01*
X57485000Y-65034893D01*
X57466525Y-65053368D01*
X57350000Y-65227760D01*
X57233475Y-65053368D01*
X57026632Y-64846525D01*
X56783411Y-64684010D01*
X56513158Y-64572068D01*
X56226260Y-64515000D01*
X55933740Y-64515000D01*
X55646842Y-64572068D01*
X55376589Y-64684010D01*
X55133368Y-64846525D01*
X54926525Y-65053368D01*
X54810000Y-65227760D01*
X54693475Y-65053368D01*
X54486632Y-64846525D01*
X54243411Y-64684010D01*
X53973158Y-64572068D01*
X53686260Y-64515000D01*
X53393740Y-64515000D01*
X53106842Y-64572068D01*
X52836589Y-64684010D01*
X52593368Y-64846525D01*
X52461513Y-64978380D01*
X52439502Y-64905820D01*
X52380537Y-64795506D01*
X52301185Y-64698815D01*
X52204494Y-64619463D01*
X52094180Y-64560498D01*
X51974482Y-64524188D01*
X51850000Y-64511928D01*
X51285750Y-64515000D01*
X51127000Y-64673750D01*
X51127000Y-65873000D01*
X51147000Y-65873000D01*
X51147000Y-66127000D01*
X51127000Y-66127000D01*
X51127000Y-66147000D01*
X50873000Y-66147000D01*
X50873000Y-66127000D01*
X49673750Y-66127000D01*
X49515000Y-66285750D01*
X49511928Y-66850000D01*
X49524188Y-66974482D01*
X49560498Y-67094180D01*
X49619463Y-67204494D01*
X49648602Y-67240000D01*
X48314802Y-67240000D01*
X46760000Y-65685199D01*
X46760000Y-65150000D01*
X49511928Y-65150000D01*
X49515000Y-65714250D01*
X49673750Y-65873000D01*
X50873000Y-65873000D01*
X50873000Y-64673750D01*
X50714250Y-64515000D01*
X50150000Y-64511928D01*
X50025518Y-64524188D01*
X49905820Y-64560498D01*
X49795506Y-64619463D01*
X49698815Y-64698815D01*
X49619463Y-64795506D01*
X49560498Y-64905820D01*
X49524188Y-65025518D01*
X49511928Y-65150000D01*
X46760000Y-65150000D01*
X46760000Y-48814801D01*
X50761004Y-44813798D01*
X50790001Y-44790001D01*
X50884974Y-44674276D01*
X50955546Y-44542247D01*
X50999003Y-44398986D01*
X51010000Y-44287333D01*
X51010000Y-44287325D01*
X51013676Y-44250000D01*
X51010000Y-44212675D01*
X51010000Y-43964100D01*
X51111635Y-44006199D01*
X51382112Y-44060000D01*
X51657888Y-44060000D01*
X51928365Y-44006199D01*
X52183149Y-43900664D01*
X52412448Y-43747451D01*
X52607451Y-43552448D01*
X52760664Y-43323149D01*
X52790000Y-43252326D01*
X52819336Y-43323149D01*
X52972549Y-43552448D01*
X53167552Y-43747451D01*
X53396851Y-43900664D01*
X53651635Y-44006199D01*
X53922112Y-44060000D01*
X54197888Y-44060000D01*
X54468365Y-44006199D01*
X54723149Y-43900664D01*
X54952448Y-43747451D01*
X55147451Y-43552448D01*
X55300664Y-43323149D01*
X55330000Y-43252326D01*
X55359336Y-43323149D01*
X55512549Y-43552448D01*
X55707552Y-43747451D01*
X55936851Y-43900664D01*
X56191635Y-44006199D01*
X56462112Y-44060000D01*
X56737888Y-44060000D01*
X57008365Y-44006199D01*
X57263149Y-43900664D01*
X57492448Y-43747451D01*
X57687451Y-43552448D01*
X57840664Y-43323149D01*
X57870000Y-43252326D01*
X57899336Y-43323149D01*
X58052549Y-43552448D01*
X58247552Y-43747451D01*
X58476851Y-43900664D01*
X58731635Y-44006199D01*
X59002112Y-44060000D01*
X59277888Y-44060000D01*
X59548365Y-44006199D01*
X59803149Y-43900664D01*
X60032448Y-43747451D01*
X60227451Y-43552448D01*
X60380664Y-43323149D01*
X60410000Y-43252326D01*
X60439336Y-43323149D01*
G37*
X60439336Y-43323149D02*
X60545000Y-43481286D01*
X60545000Y-44124249D01*
X60539509Y-44180000D01*
X60561423Y-44402498D01*
X60626324Y-44616446D01*
X60626325Y-44616447D01*
X60731717Y-44813623D01*
X60873552Y-44986449D01*
X60916860Y-45021991D01*
X64894868Y-49000000D01*
X57856860Y-56038009D01*
X57813552Y-56073551D01*
X57671717Y-56246377D01*
X57615384Y-56351770D01*
X57566324Y-56443554D01*
X57501423Y-56657502D01*
X57479509Y-56880000D01*
X57485001Y-56935761D01*
X57485000Y-65034893D01*
X57466525Y-65053368D01*
X57350000Y-65227760D01*
X57233475Y-65053368D01*
X57026632Y-64846525D01*
X56783411Y-64684010D01*
X56513158Y-64572068D01*
X56226260Y-64515000D01*
X55933740Y-64515000D01*
X55646842Y-64572068D01*
X55376589Y-64684010D01*
X55133368Y-64846525D01*
X54926525Y-65053368D01*
X54810000Y-65227760D01*
X54693475Y-65053368D01*
X54486632Y-64846525D01*
X54243411Y-64684010D01*
X53973158Y-64572068D01*
X53686260Y-64515000D01*
X53393740Y-64515000D01*
X53106842Y-64572068D01*
X52836589Y-64684010D01*
X52593368Y-64846525D01*
X52461513Y-64978380D01*
X52439502Y-64905820D01*
X52380537Y-64795506D01*
X52301185Y-64698815D01*
X52204494Y-64619463D01*
X52094180Y-64560498D01*
X51974482Y-64524188D01*
X51850000Y-64511928D01*
X51285750Y-64515000D01*
X51127000Y-64673750D01*
X51127000Y-65873000D01*
X51147000Y-65873000D01*
X51147000Y-66127000D01*
X51127000Y-66127000D01*
X51127000Y-66147000D01*
X50873000Y-66147000D01*
X50873000Y-66127000D01*
X49673750Y-66127000D01*
X49515000Y-66285750D01*
X49511928Y-66850000D01*
X49524188Y-66974482D01*
X49560498Y-67094180D01*
X49619463Y-67204494D01*
X49648602Y-67240000D01*
X48314802Y-67240000D01*
X46760000Y-65685199D01*
X46760000Y-65150000D01*
X49511928Y-65150000D01*
X49515000Y-65714250D01*
X49673750Y-65873000D01*
X50873000Y-65873000D01*
X50873000Y-64673750D01*
X50714250Y-64515000D01*
X50150000Y-64511928D01*
X50025518Y-64524188D01*
X49905820Y-64560498D01*
X49795506Y-64619463D01*
X49698815Y-64698815D01*
X49619463Y-64795506D01*
X49560498Y-64905820D01*
X49524188Y-65025518D01*
X49511928Y-65150000D01*
X46760000Y-65150000D01*
X46760000Y-48814801D01*
X50761004Y-44813798D01*
X50790001Y-44790001D01*
X50884974Y-44674276D01*
X50955546Y-44542247D01*
X50999003Y-44398986D01*
X51010000Y-44287333D01*
X51010000Y-44287325D01*
X51013676Y-44250000D01*
X51010000Y-44212675D01*
X51010000Y-43964100D01*
X51111635Y-44006199D01*
X51382112Y-44060000D01*
X51657888Y-44060000D01*
X51928365Y-44006199D01*
X52183149Y-43900664D01*
X52412448Y-43747451D01*
X52607451Y-43552448D01*
X52760664Y-43323149D01*
X52790000Y-43252326D01*
X52819336Y-43323149D01*
X52972549Y-43552448D01*
X53167552Y-43747451D01*
X53396851Y-43900664D01*
X53651635Y-44006199D01*
X53922112Y-44060000D01*
X54197888Y-44060000D01*
X54468365Y-44006199D01*
X54723149Y-43900664D01*
X54952448Y-43747451D01*
X55147451Y-43552448D01*
X55300664Y-43323149D01*
X55330000Y-43252326D01*
X55359336Y-43323149D01*
X55512549Y-43552448D01*
X55707552Y-43747451D01*
X55936851Y-43900664D01*
X56191635Y-44006199D01*
X56462112Y-44060000D01*
X56737888Y-44060000D01*
X57008365Y-44006199D01*
X57263149Y-43900664D01*
X57492448Y-43747451D01*
X57687451Y-43552448D01*
X57840664Y-43323149D01*
X57870000Y-43252326D01*
X57899336Y-43323149D01*
X58052549Y-43552448D01*
X58247552Y-43747451D01*
X58476851Y-43900664D01*
X58731635Y-44006199D01*
X59002112Y-44060000D01*
X59277888Y-44060000D01*
X59548365Y-44006199D01*
X59803149Y-43900664D01*
X60032448Y-43747451D01*
X60227451Y-43552448D01*
X60380664Y-43323149D01*
X60410000Y-43252326D01*
X60439336Y-43323149D01*
%TD*%
M02*
