%TF.GenerationSoftware,KiCad,Pcbnew,5.1.6-c6e7f7d~86~ubuntu20.04.1*%
%TF.CreationDate,2020-09-07T12:25:12+02:00*%
%TF.ProjectId,Shield_Nucleo,53686965-6c64-45f4-9e75-636c656f2e6b,rev?*%
%TF.SameCoordinates,Original*%
%TF.FileFunction,Soldermask,Bot*%
%TF.FilePolarity,Negative*%
%FSLAX46Y46*%
G04 Gerber Fmt 4.6, Leading zero omitted, Abs format (unit mm)*
G04 Created by KiCad (PCBNEW 5.1.6-c6e7f7d~86~ubuntu20.04.1) date 2020-09-07 12:25:12*
%MOMM*%
%LPD*%
G01*
G04 APERTURE LIST*
%ADD10R,3.100000X3.100000*%
%ADD11C,3.100000*%
%ADD12C,1.630000*%
%ADD13R,1.630000X1.630000*%
%ADD14O,1.800000X1.800000*%
%ADD15R,1.800000X1.800000*%
G04 APERTURE END LIST*
D10*
%TO.C,BT1*%
X94000000Y-80000000D03*
D11*
X114490000Y-80000000D03*
%TD*%
D12*
%TO.C,U1*%
X59140000Y-83300000D03*
X43900000Y-83300000D03*
X46440000Y-83300000D03*
X66760000Y-83300000D03*
X66760000Y-80760000D03*
X69300000Y-83300000D03*
X48980000Y-80760000D03*
X51520000Y-83300000D03*
X51520000Y-80760000D03*
X54060000Y-83300000D03*
X54060000Y-80760000D03*
X76920000Y-83300000D03*
X76920000Y-80760000D03*
X79460000Y-83300000D03*
X59140000Y-80760000D03*
X61680000Y-83300000D03*
X61680000Y-80760000D03*
X64220000Y-83300000D03*
X64220000Y-80760000D03*
X87080000Y-83300000D03*
X87080000Y-80760000D03*
X89620000Y-83300000D03*
X69300000Y-80760000D03*
X48980000Y-83300000D03*
X56600000Y-80760000D03*
X46440000Y-80760000D03*
X56600000Y-83300000D03*
X71840000Y-83300000D03*
X71840000Y-80760000D03*
X74380000Y-83300000D03*
X74380000Y-80760000D03*
X79460000Y-80760000D03*
X82000000Y-83300000D03*
X82000000Y-80760000D03*
X84540000Y-83300000D03*
X84540000Y-80760000D03*
X43900000Y-80760000D03*
D13*
X89620000Y-80760000D03*
D12*
X71840000Y-40120000D03*
X74380000Y-40120000D03*
X79460000Y-42660000D03*
X82000000Y-40120000D03*
X66760000Y-40120000D03*
X76920000Y-40120000D03*
X89620000Y-42660000D03*
D13*
X89620000Y-40120000D03*
D12*
X76920000Y-42660000D03*
X84540000Y-40120000D03*
X87080000Y-40120000D03*
X66760000Y-42660000D03*
X48980000Y-42660000D03*
X48980000Y-40120000D03*
X51520000Y-42660000D03*
X59140000Y-42660000D03*
X59140000Y-40120000D03*
X61680000Y-42660000D03*
X87080000Y-42660000D03*
X43900000Y-40120000D03*
X84540000Y-42660000D03*
X74380000Y-42660000D03*
X43900000Y-42660000D03*
X46440000Y-42660000D03*
X46440000Y-40120000D03*
X69300000Y-42660000D03*
X69300000Y-40120000D03*
X71840000Y-42660000D03*
X51520000Y-40120000D03*
X54060000Y-42660000D03*
X54060000Y-40120000D03*
X56600000Y-42660000D03*
X56600000Y-40120000D03*
X79460000Y-40120000D03*
X82000000Y-42660000D03*
X61680000Y-40120000D03*
X64220000Y-42660000D03*
X64220000Y-40120000D03*
D13*
X89620000Y-29960000D03*
D12*
X43900000Y-29960000D03*
X89620000Y-32500000D03*
X87080000Y-29960000D03*
X87080000Y-32500000D03*
X84540000Y-29960000D03*
X84540000Y-32500000D03*
X82000000Y-29960000D03*
X82000000Y-32500000D03*
X79460000Y-29960000D03*
X79460000Y-32500000D03*
X76920000Y-29960000D03*
X76920000Y-32500000D03*
X74380000Y-29960000D03*
X74380000Y-32500000D03*
X71840000Y-29960000D03*
X71840000Y-32500000D03*
X69300000Y-29960000D03*
X69300000Y-32500000D03*
X66760000Y-29960000D03*
X66760000Y-32500000D03*
X64220000Y-29960000D03*
X64220000Y-32500000D03*
X61680000Y-29960000D03*
X61680000Y-32500000D03*
X59140000Y-29960000D03*
X59140000Y-32500000D03*
X56600000Y-29960000D03*
X56600000Y-32500000D03*
X54060000Y-29960000D03*
X54060000Y-32500000D03*
X51520000Y-29960000D03*
X51520000Y-32500000D03*
X48980000Y-29960000D03*
X48980000Y-32500000D03*
X46440000Y-29960000D03*
X46440000Y-32500000D03*
X43900000Y-32500000D03*
D13*
X89620000Y-90920000D03*
D12*
X43900000Y-90920000D03*
X89620000Y-93460000D03*
X87080000Y-90920000D03*
X87080000Y-93460000D03*
X84540000Y-90920000D03*
X84540000Y-93460000D03*
X82000000Y-90920000D03*
X82000000Y-93460000D03*
X79460000Y-90920000D03*
X79460000Y-93460000D03*
X76920000Y-90920000D03*
X76920000Y-93460000D03*
X74380000Y-90920000D03*
X74380000Y-93460000D03*
X71840000Y-90920000D03*
X71840000Y-93460000D03*
X69300000Y-90920000D03*
X69300000Y-93460000D03*
X66760000Y-90920000D03*
X66760000Y-93460000D03*
X64220000Y-90920000D03*
X64220000Y-93460000D03*
X61680000Y-90920000D03*
X61680000Y-93460000D03*
X59140000Y-90920000D03*
X59140000Y-93460000D03*
X56600000Y-90920000D03*
X56600000Y-93460000D03*
X54060000Y-90920000D03*
X54060000Y-93460000D03*
X51520000Y-90920000D03*
X51520000Y-93460000D03*
X48980000Y-90920000D03*
X48980000Y-93460000D03*
X46440000Y-90920000D03*
X46440000Y-93460000D03*
X43900000Y-93460000D03*
D11*
X41360000Y-70600000D03*
X92160000Y-85840000D03*
X93430000Y-37580000D03*
%TD*%
D14*
%TO.C,J1*%
X92580000Y-46000000D03*
D15*
X51000000Y-66000000D03*
D14*
X58620000Y-66000000D03*
X56080000Y-66000000D03*
X53540000Y-66000000D03*
X95120000Y-46000000D03*
D15*
X87500000Y-46000000D03*
D14*
X97660000Y-46000000D03*
X90040000Y-46000000D03*
X91540000Y-64500000D03*
D15*
X89000000Y-64500000D03*
D14*
X102540000Y-64500000D03*
D15*
X100000000Y-64500000D03*
X77500000Y-53000000D03*
D14*
X80040000Y-53000000D03*
X86540000Y-60500000D03*
D15*
X84000000Y-60500000D03*
D14*
X89080000Y-60500000D03*
X91620000Y-60500000D03*
X89080000Y-53000000D03*
X86540000Y-53000000D03*
X91620000Y-53000000D03*
D15*
X84000000Y-53000000D03*
D14*
X101080000Y-60500000D03*
X103620000Y-60500000D03*
D15*
X96000000Y-60500000D03*
D14*
X98540000Y-60500000D03*
%TD*%
M02*
