%TF.GenerationSoftware,KiCad,Pcbnew,5.1.6-c6e7f7d~86~ubuntu20.04.1*%
%TF.CreationDate,2020-09-07T12:25:12+02:00*%
%TF.ProjectId,Shield_Nucleo,53686965-6c64-45f4-9e75-636c656f2e6b,rev?*%
%TF.SameCoordinates,Original*%
%TF.FileFunction,Legend,Top*%
%TF.FilePolarity,Positive*%
%FSLAX46Y46*%
G04 Gerber Fmt 4.6, Leading zero omitted, Abs format (unit mm)*
G04 Created by KiCad (PCBNEW 5.1.6-c6e7f7d~86~ubuntu20.04.1) date 2020-09-07 12:25:12*
%MOMM*%
%LPD*%
G01*
G04 APERTURE LIST*
%ADD10C,0.150000*%
%ADD11C,0.300000*%
%ADD12C,0.010000*%
%ADD13C,0.120000*%
%ADD14C,0.127000*%
%ADD15C,0.200000*%
G04 APERTURE END LIST*
D10*
X102595238Y-30952380D02*
X102595238Y-29952380D01*
X103166666Y-30952380D01*
X103166666Y-29952380D01*
X104071428Y-30285714D02*
X104071428Y-30952380D01*
X103642857Y-30285714D02*
X103642857Y-30809523D01*
X103690476Y-30904761D01*
X103785714Y-30952380D01*
X103928571Y-30952380D01*
X104023809Y-30904761D01*
X104071428Y-30857142D01*
X104976190Y-30904761D02*
X104880952Y-30952380D01*
X104690476Y-30952380D01*
X104595238Y-30904761D01*
X104547619Y-30857142D01*
X104500000Y-30761904D01*
X104500000Y-30476190D01*
X104547619Y-30380952D01*
X104595238Y-30333333D01*
X104690476Y-30285714D01*
X104880952Y-30285714D01*
X104976190Y-30333333D01*
X105547619Y-30952380D02*
X105452380Y-30904761D01*
X105404761Y-30809523D01*
X105404761Y-29952380D01*
X106309523Y-30904761D02*
X106214285Y-30952380D01*
X106023809Y-30952380D01*
X105928571Y-30904761D01*
X105880952Y-30809523D01*
X105880952Y-30428571D01*
X105928571Y-30333333D01*
X106023809Y-30285714D01*
X106214285Y-30285714D01*
X106309523Y-30333333D01*
X106357142Y-30428571D01*
X106357142Y-30523809D01*
X105880952Y-30619047D01*
X106928571Y-30952380D02*
X106833333Y-30904761D01*
X106785714Y-30857142D01*
X106738095Y-30761904D01*
X106738095Y-30476190D01*
X106785714Y-30380952D01*
X106833333Y-30333333D01*
X106928571Y-30285714D01*
X107071428Y-30285714D01*
X107166666Y-30333333D01*
X107214285Y-30380952D01*
X107261904Y-30476190D01*
X107261904Y-30761904D01*
X107214285Y-30857142D01*
X107166666Y-30904761D01*
X107071428Y-30952380D01*
X106928571Y-30952380D01*
X108404761Y-30904761D02*
X108547619Y-30952380D01*
X108785714Y-30952380D01*
X108880952Y-30904761D01*
X108928571Y-30857142D01*
X108976190Y-30761904D01*
X108976190Y-30666666D01*
X108928571Y-30571428D01*
X108880952Y-30523809D01*
X108785714Y-30476190D01*
X108595238Y-30428571D01*
X108500000Y-30380952D01*
X108452380Y-30333333D01*
X108404761Y-30238095D01*
X108404761Y-30142857D01*
X108452380Y-30047619D01*
X108500000Y-30000000D01*
X108595238Y-29952380D01*
X108833333Y-29952380D01*
X108976190Y-30000000D01*
X109261904Y-29952380D02*
X109833333Y-29952380D01*
X109547619Y-30952380D02*
X109547619Y-29952380D01*
X110166666Y-30952380D02*
X110166666Y-29952380D01*
X110500000Y-30666666D01*
X110833333Y-29952380D01*
X110833333Y-30952380D01*
X111214285Y-29952380D02*
X111833333Y-29952380D01*
X111500000Y-30333333D01*
X111642857Y-30333333D01*
X111738095Y-30380952D01*
X111785714Y-30428571D01*
X111833333Y-30523809D01*
X111833333Y-30761904D01*
X111785714Y-30857142D01*
X111738095Y-30904761D01*
X111642857Y-30952380D01*
X111357142Y-30952380D01*
X111261904Y-30904761D01*
X111214285Y-30857142D01*
X112214285Y-30047619D02*
X112261904Y-30000000D01*
X112357142Y-29952380D01*
X112595238Y-29952380D01*
X112690476Y-30000000D01*
X112738095Y-30047619D01*
X112785714Y-30142857D01*
X112785714Y-30238095D01*
X112738095Y-30380952D01*
X112166666Y-30952380D01*
X112785714Y-30952380D01*
X113547619Y-30428571D02*
X113214285Y-30428571D01*
X113214285Y-30952380D02*
X113214285Y-29952380D01*
X113690476Y-29952380D01*
X113976190Y-29952380D02*
X114595238Y-29952380D01*
X114261904Y-30333333D01*
X114404761Y-30333333D01*
X114499999Y-30380952D01*
X114547619Y-30428571D01*
X114595238Y-30523809D01*
X114595238Y-30761904D01*
X114547619Y-30857142D01*
X114499999Y-30904761D01*
X114404761Y-30952380D01*
X114119047Y-30952380D01*
X114023809Y-30904761D01*
X113976190Y-30857142D01*
X114928571Y-29952380D02*
X115547619Y-29952380D01*
X115214285Y-30333333D01*
X115357142Y-30333333D01*
X115452380Y-30380952D01*
X115499999Y-30428571D01*
X115547619Y-30523809D01*
X115547619Y-30761904D01*
X115499999Y-30857142D01*
X115452380Y-30904761D01*
X115357142Y-30952380D01*
X115071428Y-30952380D01*
X114976190Y-30904761D01*
X114928571Y-30857142D01*
X116404761Y-30285714D02*
X116404761Y-30952380D01*
X116166666Y-29904761D02*
X115928571Y-30619047D01*
X116547619Y-30619047D01*
X117499999Y-30952380D02*
X117166666Y-30476190D01*
X116928571Y-30952380D02*
X116928571Y-29952380D01*
X117309523Y-29952380D01*
X117404761Y-30000000D01*
X117452380Y-30047619D01*
X117499999Y-30142857D01*
X117499999Y-30285714D01*
X117452380Y-30380952D01*
X117404761Y-30428571D01*
X117309523Y-30476190D01*
X116928571Y-30476190D01*
X118071428Y-30380952D02*
X117976190Y-30333333D01*
X117928571Y-30285714D01*
X117880952Y-30190476D01*
X117880952Y-30142857D01*
X117928571Y-30047619D01*
X117976190Y-30000000D01*
X118071428Y-29952380D01*
X118261904Y-29952380D01*
X118357142Y-30000000D01*
X118404761Y-30047619D01*
X118452380Y-30142857D01*
X118452380Y-30190476D01*
X118404761Y-30285714D01*
X118357142Y-30333333D01*
X118261904Y-30380952D01*
X118071428Y-30380952D01*
X117976190Y-30428571D01*
X117928571Y-30476190D01*
X117880952Y-30571428D01*
X117880952Y-30761904D01*
X117928571Y-30857142D01*
X117976190Y-30904761D01*
X118071428Y-30952380D01*
X118261904Y-30952380D01*
X118357142Y-30904761D01*
X118404761Y-30857142D01*
X118452380Y-30761904D01*
X118452380Y-30571428D01*
X118404761Y-30476190D01*
X118357142Y-30428571D01*
X118261904Y-30380952D01*
X44976190Y-69952380D02*
X45309523Y-70952380D01*
X45642857Y-69952380D01*
X46166666Y-69952380D02*
X46261904Y-69952380D01*
X46357142Y-70000000D01*
X46404761Y-70047619D01*
X46452380Y-70142857D01*
X46500000Y-70333333D01*
X46500000Y-70571428D01*
X46452380Y-70761904D01*
X46404761Y-70857142D01*
X46357142Y-70904761D01*
X46261904Y-70952380D01*
X46166666Y-70952380D01*
X46071428Y-70904761D01*
X46023809Y-70857142D01*
X45976190Y-70761904D01*
X45928571Y-70571428D01*
X45928571Y-70333333D01*
X45976190Y-70142857D01*
X46023809Y-70047619D01*
X46071428Y-70000000D01*
X46166666Y-69952380D01*
X46928571Y-70857142D02*
X46976190Y-70904761D01*
X46928571Y-70952380D01*
X46880952Y-70904761D01*
X46928571Y-70857142D01*
X46928571Y-70952380D01*
X47452380Y-70952380D02*
X47642857Y-70952380D01*
X47738095Y-70904761D01*
X47785714Y-70857142D01*
X47880952Y-70714285D01*
X47928571Y-70523809D01*
X47928571Y-70142857D01*
X47880952Y-70047619D01*
X47833333Y-70000000D01*
X47738095Y-69952380D01*
X47547619Y-69952380D01*
X47452380Y-70000000D01*
X47404761Y-70047619D01*
X47357142Y-70142857D01*
X47357142Y-70380952D01*
X47404761Y-70476190D01*
X47452380Y-70523809D01*
X47547619Y-70571428D01*
X47738095Y-70571428D01*
X47833333Y-70523809D01*
X47880952Y-70476190D01*
X47928571Y-70380952D01*
X45214285Y-72952380D02*
X45214285Y-71952380D01*
X45452380Y-71952380D01*
X45595238Y-72000000D01*
X45690476Y-72095238D01*
X45738095Y-72190476D01*
X45785714Y-72380952D01*
X45785714Y-72523809D01*
X45738095Y-72714285D01*
X45690476Y-72809523D01*
X45595238Y-72904761D01*
X45452380Y-72952380D01*
X45214285Y-72952380D01*
X46595238Y-72904761D02*
X46500000Y-72952380D01*
X46309523Y-72952380D01*
X46214285Y-72904761D01*
X46166666Y-72809523D01*
X46166666Y-72428571D01*
X46214285Y-72333333D01*
X46309523Y-72285714D01*
X46500000Y-72285714D01*
X46595238Y-72333333D01*
X46642857Y-72428571D01*
X46642857Y-72523809D01*
X46166666Y-72619047D01*
X47023809Y-72904761D02*
X47119047Y-72952380D01*
X47309523Y-72952380D01*
X47404761Y-72904761D01*
X47452380Y-72809523D01*
X47452380Y-72761904D01*
X47404761Y-72666666D01*
X47309523Y-72619047D01*
X47166666Y-72619047D01*
X47071428Y-72571428D01*
X47023809Y-72476190D01*
X47023809Y-72428571D01*
X47071428Y-72333333D01*
X47166666Y-72285714D01*
X47309523Y-72285714D01*
X47404761Y-72333333D01*
X47880952Y-72952380D02*
X47880952Y-72285714D01*
X47880952Y-71952380D02*
X47833333Y-72000000D01*
X47880952Y-72047619D01*
X47928571Y-72000000D01*
X47880952Y-71952380D01*
X47880952Y-72047619D01*
X48785714Y-72285714D02*
X48785714Y-73095238D01*
X48738095Y-73190476D01*
X48690476Y-73238095D01*
X48595238Y-73285714D01*
X48452380Y-73285714D01*
X48357142Y-73238095D01*
X48785714Y-72904761D02*
X48690476Y-72952380D01*
X48500000Y-72952380D01*
X48404761Y-72904761D01*
X48357142Y-72857142D01*
X48309523Y-72761904D01*
X48309523Y-72476190D01*
X48357142Y-72380952D01*
X48404761Y-72333333D01*
X48500000Y-72285714D01*
X48690476Y-72285714D01*
X48785714Y-72333333D01*
X49261904Y-72285714D02*
X49261904Y-72952380D01*
X49261904Y-72380952D02*
X49309523Y-72333333D01*
X49404761Y-72285714D01*
X49547619Y-72285714D01*
X49642857Y-72333333D01*
X49690476Y-72428571D01*
X49690476Y-72952380D01*
X51214285Y-71952380D02*
X51214285Y-72666666D01*
X51166666Y-72809523D01*
X51071428Y-72904761D01*
X50928571Y-72952380D01*
X50833333Y-72952380D01*
X51690476Y-72857142D02*
X51738095Y-72904761D01*
X51690476Y-72952380D01*
X51642857Y-72904761D01*
X51690476Y-72857142D01*
X51690476Y-72952380D01*
X52119047Y-72666666D02*
X52595238Y-72666666D01*
X52023809Y-72952380D02*
X52357142Y-71952380D01*
X52690476Y-72952380D01*
X53166666Y-72952380D02*
X53071428Y-72904761D01*
X53023809Y-72809523D01*
X53023809Y-71952380D01*
X53547619Y-72952380D02*
X53547619Y-72285714D01*
X53547619Y-71952380D02*
X53500000Y-72000000D01*
X53547619Y-72047619D01*
X53595238Y-72000000D01*
X53547619Y-71952380D01*
X53547619Y-72047619D01*
X54023809Y-72285714D02*
X54023809Y-72952380D01*
X54023809Y-72380952D02*
X54071428Y-72333333D01*
X54166666Y-72285714D01*
X54309523Y-72285714D01*
X54404761Y-72333333D01*
X54452380Y-72428571D01*
X54452380Y-72952380D01*
X55309523Y-72904761D02*
X55214285Y-72952380D01*
X55023809Y-72952380D01*
X54928571Y-72904761D01*
X54880952Y-72809523D01*
X54880952Y-72428571D01*
X54928571Y-72333333D01*
X55023809Y-72285714D01*
X55214285Y-72285714D01*
X55309523Y-72333333D01*
X55357142Y-72428571D01*
X55357142Y-72523809D01*
X54880952Y-72619047D01*
X55785714Y-72952380D02*
X55785714Y-72285714D01*
X55785714Y-71952380D02*
X55738095Y-72000000D01*
X55785714Y-72047619D01*
X55833333Y-72000000D01*
X55785714Y-71952380D01*
X55785714Y-72047619D01*
D11*
X45750000Y-76678571D02*
X45750000Y-77678571D01*
X45107142Y-76678571D02*
X45107142Y-77464285D01*
X45178571Y-77607142D01*
X45321428Y-77678571D01*
X45535714Y-77678571D01*
X45678571Y-77607142D01*
X45750000Y-77535714D01*
X46464285Y-76678571D02*
X46464285Y-77678571D01*
X46464285Y-76821428D02*
X46535714Y-76750000D01*
X46678571Y-76678571D01*
X46892857Y-76678571D01*
X47035714Y-76750000D01*
X47107142Y-76892857D01*
X47107142Y-77678571D01*
X48464285Y-77678571D02*
X48464285Y-76178571D01*
X48464285Y-77607142D02*
X48321428Y-77678571D01*
X48035714Y-77678571D01*
X47892857Y-77607142D01*
X47821428Y-77535714D01*
X47750000Y-77392857D01*
X47750000Y-76964285D01*
X47821428Y-76821428D01*
X47892857Y-76750000D01*
X48035714Y-76678571D01*
X48321428Y-76678571D01*
X48464285Y-76750000D01*
X49750000Y-77607142D02*
X49607142Y-77678571D01*
X49321428Y-77678571D01*
X49178571Y-77607142D01*
X49107142Y-77464285D01*
X49107142Y-76892857D01*
X49178571Y-76750000D01*
X49321428Y-76678571D01*
X49607142Y-76678571D01*
X49750000Y-76750000D01*
X49821428Y-76892857D01*
X49821428Y-77035714D01*
X49107142Y-77178571D01*
X50464285Y-77678571D02*
X50464285Y-76678571D01*
X50464285Y-76964285D02*
X50535714Y-76821428D01*
X50607142Y-76750000D01*
X50750000Y-76678571D01*
X50892857Y-76678571D01*
X53392857Y-77535714D02*
X53321428Y-77607142D01*
X53107142Y-77678571D01*
X52964285Y-77678571D01*
X52750000Y-77607142D01*
X52607142Y-77464285D01*
X52535714Y-77321428D01*
X52464285Y-77035714D01*
X52464285Y-76821428D01*
X52535714Y-76535714D01*
X52607142Y-76392857D01*
X52750000Y-76250000D01*
X52964285Y-76178571D01*
X53107142Y-76178571D01*
X53321428Y-76250000D01*
X53392857Y-76321428D01*
X54035714Y-76892857D02*
X54535714Y-76892857D01*
X54750000Y-77678571D02*
X54035714Y-77678571D01*
X54035714Y-76178571D01*
X54750000Y-76178571D01*
X56250000Y-77678571D02*
X55750000Y-76964285D01*
X55392857Y-77678571D02*
X55392857Y-76178571D01*
X55964285Y-76178571D01*
X56107142Y-76250000D01*
X56178571Y-76321428D01*
X56250000Y-76464285D01*
X56250000Y-76678571D01*
X56178571Y-76821428D01*
X56107142Y-76892857D01*
X55964285Y-76964285D01*
X55392857Y-76964285D01*
X56892857Y-77678571D02*
X56892857Y-76178571D01*
X57750000Y-77678571D01*
X57750000Y-76178571D01*
X58464285Y-77107142D02*
X59607142Y-77107142D01*
X60607142Y-76178571D02*
X60892857Y-76178571D01*
X61035714Y-76250000D01*
X61178571Y-76392857D01*
X61250000Y-76678571D01*
X61250000Y-77178571D01*
X61178571Y-77464285D01*
X61035714Y-77607142D01*
X60892857Y-77678571D01*
X60607142Y-77678571D01*
X60464285Y-77607142D01*
X60321428Y-77464285D01*
X60250000Y-77178571D01*
X60250000Y-76678571D01*
X60321428Y-76392857D01*
X60464285Y-76250000D01*
X60607142Y-76178571D01*
X61892857Y-77678571D02*
X61892857Y-76178571D01*
X61892857Y-76892857D02*
X62750000Y-76892857D01*
X62750000Y-77678571D02*
X62750000Y-76178571D01*
X64178571Y-77678571D02*
X63464285Y-77678571D01*
X63464285Y-76178571D01*
X64678571Y-77107142D02*
X65821428Y-77107142D01*
X66464285Y-77607142D02*
X66678571Y-77678571D01*
X67035714Y-77678571D01*
X67178571Y-77607142D01*
X67250000Y-77535714D01*
X67321428Y-77392857D01*
X67321428Y-77250000D01*
X67250000Y-77107142D01*
X67178571Y-77035714D01*
X67035714Y-76964285D01*
X66750000Y-76892857D01*
X66607142Y-76821428D01*
X66535714Y-76750000D01*
X66464285Y-76607142D01*
X66464285Y-76464285D01*
X66535714Y-76321428D01*
X66607142Y-76250000D01*
X66750000Y-76178571D01*
X67107142Y-76178571D01*
X67321428Y-76250000D01*
X70964285Y-77678571D02*
X70250000Y-77678571D01*
X70250000Y-76178571D01*
X71464285Y-77678571D02*
X71464285Y-76678571D01*
X71464285Y-76178571D02*
X71392857Y-76250000D01*
X71464285Y-76321428D01*
X71535714Y-76250000D01*
X71464285Y-76178571D01*
X71464285Y-76321428D01*
X72821428Y-77607142D02*
X72678571Y-77678571D01*
X72392857Y-77678571D01*
X72250000Y-77607142D01*
X72178571Y-77535714D01*
X72107142Y-77392857D01*
X72107142Y-76964285D01*
X72178571Y-76821428D01*
X72250000Y-76750000D01*
X72392857Y-76678571D01*
X72678571Y-76678571D01*
X72821428Y-76750000D01*
X74035714Y-77607142D02*
X73892857Y-77678571D01*
X73607142Y-77678571D01*
X73464285Y-77607142D01*
X73392857Y-77464285D01*
X73392857Y-76892857D01*
X73464285Y-76750000D01*
X73607142Y-76678571D01*
X73892857Y-76678571D01*
X74035714Y-76750000D01*
X74107142Y-76892857D01*
X74107142Y-77035714D01*
X73392857Y-77178571D01*
X74750000Y-76678571D02*
X74750000Y-77678571D01*
X74750000Y-76821428D02*
X74821428Y-76750000D01*
X74964285Y-76678571D01*
X75178571Y-76678571D01*
X75321428Y-76750000D01*
X75392857Y-76892857D01*
X75392857Y-77678571D01*
X76035714Y-77607142D02*
X76178571Y-77678571D01*
X76464285Y-77678571D01*
X76607142Y-77607142D01*
X76678571Y-77464285D01*
X76678571Y-77392857D01*
X76607142Y-77250000D01*
X76464285Y-77178571D01*
X76250000Y-77178571D01*
X76107142Y-77107142D01*
X76035714Y-76964285D01*
X76035714Y-76892857D01*
X76107142Y-76750000D01*
X76250000Y-76678571D01*
X76464285Y-76678571D01*
X76607142Y-76750000D01*
X77892857Y-77607142D02*
X77750000Y-77678571D01*
X77464285Y-77678571D01*
X77321428Y-77607142D01*
X77250000Y-77464285D01*
X77250000Y-76892857D01*
X77321428Y-76750000D01*
X77464285Y-76678571D01*
X77750000Y-76678571D01*
X77892857Y-76750000D01*
X77964285Y-76892857D01*
X77964285Y-77035714D01*
X77250000Y-77178571D01*
D10*
X45023809Y-74952380D02*
X45023809Y-73952380D01*
X45404761Y-73952380D01*
X45500000Y-74000000D01*
X45547619Y-74047619D01*
X45595238Y-74142857D01*
X45595238Y-74285714D01*
X45547619Y-74380952D01*
X45500000Y-74428571D01*
X45404761Y-74476190D01*
X45023809Y-74476190D01*
X46023809Y-74952380D02*
X46023809Y-74285714D01*
X46023809Y-74476190D02*
X46071428Y-74380952D01*
X46119047Y-74333333D01*
X46214285Y-74285714D01*
X46309523Y-74285714D01*
X46785714Y-74952380D02*
X46690476Y-74904761D01*
X46642857Y-74857142D01*
X46595238Y-74761904D01*
X46595238Y-74476190D01*
X46642857Y-74380952D01*
X46690476Y-74333333D01*
X46785714Y-74285714D01*
X46928571Y-74285714D01*
X47023809Y-74333333D01*
X47071428Y-74380952D01*
X47119047Y-74476190D01*
X47119047Y-74761904D01*
X47071428Y-74857142D01*
X47023809Y-74904761D01*
X46928571Y-74952380D01*
X46785714Y-74952380D01*
X47547619Y-74285714D02*
X47547619Y-75285714D01*
X47547619Y-74333333D02*
X47642857Y-74285714D01*
X47833333Y-74285714D01*
X47928571Y-74333333D01*
X47976190Y-74380952D01*
X48023809Y-74476190D01*
X48023809Y-74761904D01*
X47976190Y-74857142D01*
X47928571Y-74904761D01*
X47833333Y-74952380D01*
X47642857Y-74952380D01*
X47547619Y-74904761D01*
X48880952Y-74285714D02*
X48880952Y-74952380D01*
X48452380Y-74285714D02*
X48452380Y-74809523D01*
X48500000Y-74904761D01*
X48595238Y-74952380D01*
X48738095Y-74952380D01*
X48833333Y-74904761D01*
X48880952Y-74857142D01*
X49500000Y-74952380D02*
X49404761Y-74904761D01*
X49357142Y-74809523D01*
X49357142Y-73952380D01*
X49833333Y-74904761D02*
X49928571Y-74952380D01*
X50119047Y-74952380D01*
X50214285Y-74904761D01*
X50261904Y-74809523D01*
X50261904Y-74761904D01*
X50214285Y-74666666D01*
X50119047Y-74619047D01*
X49976190Y-74619047D01*
X49880952Y-74571428D01*
X49833333Y-74476190D01*
X49833333Y-74428571D01*
X49880952Y-74333333D01*
X49976190Y-74285714D01*
X50119047Y-74285714D01*
X50214285Y-74333333D01*
X51071428Y-74904761D02*
X50976190Y-74952380D01*
X50785714Y-74952380D01*
X50690476Y-74904761D01*
X50642857Y-74809523D01*
X50642857Y-74428571D01*
X50690476Y-74333333D01*
X50785714Y-74285714D01*
X50976190Y-74285714D01*
X51071428Y-74333333D01*
X51119047Y-74428571D01*
X51119047Y-74523809D01*
X50642857Y-74619047D01*
X51976190Y-74952380D02*
X51976190Y-73952380D01*
X51976190Y-74904761D02*
X51880952Y-74952380D01*
X51690476Y-74952380D01*
X51595238Y-74904761D01*
X51547619Y-74857142D01*
X51500000Y-74761904D01*
X51500000Y-74476190D01*
X51547619Y-74380952D01*
X51595238Y-74333333D01*
X51690476Y-74285714D01*
X51880952Y-74285714D01*
X51976190Y-74333333D01*
X53214285Y-74952380D02*
X53214285Y-73952380D01*
X53214285Y-74333333D02*
X53309523Y-74285714D01*
X53500000Y-74285714D01*
X53595238Y-74333333D01*
X53642857Y-74380952D01*
X53690476Y-74476190D01*
X53690476Y-74761904D01*
X53642857Y-74857142D01*
X53595238Y-74904761D01*
X53500000Y-74952380D01*
X53309523Y-74952380D01*
X53214285Y-74904761D01*
X54023809Y-74285714D02*
X54261904Y-74952380D01*
X54500000Y-74285714D02*
X54261904Y-74952380D01*
X54166666Y-75190476D01*
X54119047Y-75238095D01*
X54023809Y-75285714D01*
X55833333Y-73952380D02*
X56023809Y-73952380D01*
X56119047Y-74000000D01*
X56214285Y-74095238D01*
X56261904Y-74285714D01*
X56261904Y-74619047D01*
X56214285Y-74809523D01*
X56119047Y-74904761D01*
X56023809Y-74952380D01*
X55833333Y-74952380D01*
X55738095Y-74904761D01*
X55642857Y-74809523D01*
X55595238Y-74619047D01*
X55595238Y-74285714D01*
X55642857Y-74095238D01*
X55738095Y-74000000D01*
X55833333Y-73952380D01*
X56595238Y-74285714D02*
X56785714Y-74952380D01*
X56976190Y-74476190D01*
X57166666Y-74952380D01*
X57357142Y-74285714D01*
X57738095Y-74285714D02*
X57738095Y-74952380D01*
X57738095Y-74380952D02*
X57785714Y-74333333D01*
X57880952Y-74285714D01*
X58023809Y-74285714D01*
X58119047Y-74333333D01*
X58166666Y-74428571D01*
X58166666Y-74952380D01*
X58499999Y-73952380D02*
X59071428Y-73952380D01*
X58785714Y-74952380D02*
X58785714Y-73952380D01*
X59785714Y-74904761D02*
X59690476Y-74952380D01*
X59499999Y-74952380D01*
X59404761Y-74904761D01*
X59357142Y-74809523D01*
X59357142Y-74428571D01*
X59404761Y-74333333D01*
X59499999Y-74285714D01*
X59690476Y-74285714D01*
X59785714Y-74333333D01*
X59833333Y-74428571D01*
X59833333Y-74523809D01*
X59357142Y-74619047D01*
X60690476Y-74904761D02*
X60595238Y-74952380D01*
X60404761Y-74952380D01*
X60309523Y-74904761D01*
X60261904Y-74857142D01*
X60214285Y-74761904D01*
X60214285Y-74476190D01*
X60261904Y-74380952D01*
X60309523Y-74333333D01*
X60404761Y-74285714D01*
X60595238Y-74285714D01*
X60690476Y-74333333D01*
X61119047Y-74952380D02*
X61119047Y-73952380D01*
X61547619Y-74952380D02*
X61547619Y-74428571D01*
X61499999Y-74333333D01*
X61404761Y-74285714D01*
X61261904Y-74285714D01*
X61166666Y-74333333D01*
X61119047Y-74380952D01*
X62642857Y-74285714D02*
X63023809Y-74285714D01*
X62785714Y-73952380D02*
X62785714Y-74809523D01*
X62833333Y-74904761D01*
X62928571Y-74952380D01*
X63023809Y-74952380D01*
X63738095Y-74904761D02*
X63642857Y-74952380D01*
X63452380Y-74952380D01*
X63357142Y-74904761D01*
X63309523Y-74809523D01*
X63309523Y-74428571D01*
X63357142Y-74333333D01*
X63452380Y-74285714D01*
X63642857Y-74285714D01*
X63738095Y-74333333D01*
X63785714Y-74428571D01*
X63785714Y-74523809D01*
X63309523Y-74619047D01*
X64642857Y-74952380D02*
X64642857Y-74428571D01*
X64595238Y-74333333D01*
X64499999Y-74285714D01*
X64309523Y-74285714D01*
X64214285Y-74333333D01*
X64642857Y-74904761D02*
X64547619Y-74952380D01*
X64309523Y-74952380D01*
X64214285Y-74904761D01*
X64166666Y-74809523D01*
X64166666Y-74714285D01*
X64214285Y-74619047D01*
X64309523Y-74571428D01*
X64547619Y-74571428D01*
X64642857Y-74523809D01*
X65119047Y-74952380D02*
X65119047Y-74285714D01*
X65119047Y-74380952D02*
X65166666Y-74333333D01*
X65261904Y-74285714D01*
X65404761Y-74285714D01*
X65499999Y-74333333D01*
X65547619Y-74428571D01*
X65547619Y-74952380D01*
X65547619Y-74428571D02*
X65595238Y-74333333D01*
X65690476Y-74285714D01*
X65833333Y-74285714D01*
X65928571Y-74333333D01*
X65976190Y-74428571D01*
X65976190Y-74952380D01*
D12*
%TO.C,REF\u002A\u002A*%
G36*
X74603910Y-69742348D02*
G01*
X74682454Y-69742778D01*
X74739298Y-69743942D01*
X74778105Y-69746207D01*
X74802538Y-69749940D01*
X74816262Y-69755506D01*
X74822940Y-69763273D01*
X74826236Y-69773605D01*
X74826556Y-69774943D01*
X74831562Y-69799079D01*
X74840829Y-69846701D01*
X74853392Y-69912741D01*
X74868287Y-69992128D01*
X74884551Y-70079796D01*
X74885119Y-70082875D01*
X74901410Y-70168789D01*
X74916652Y-70244696D01*
X74929861Y-70306045D01*
X74940054Y-70348282D01*
X74946248Y-70366855D01*
X74946543Y-70367184D01*
X74964788Y-70376253D01*
X75002405Y-70391367D01*
X75051271Y-70409262D01*
X75051543Y-70409358D01*
X75113093Y-70432493D01*
X75185657Y-70461965D01*
X75254057Y-70491597D01*
X75257294Y-70493062D01*
X75368702Y-70543626D01*
X75615399Y-70375160D01*
X75691077Y-70323803D01*
X75759631Y-70277889D01*
X75817088Y-70240030D01*
X75859476Y-70212837D01*
X75882825Y-70198921D01*
X75885042Y-70197889D01*
X75902010Y-70202484D01*
X75933701Y-70224655D01*
X75981352Y-70265447D01*
X76046198Y-70325905D01*
X76112397Y-70390227D01*
X76176214Y-70453612D01*
X76233329Y-70511451D01*
X76280305Y-70560175D01*
X76313703Y-70596210D01*
X76330085Y-70615984D01*
X76330694Y-70617002D01*
X76332505Y-70630572D01*
X76325683Y-70652733D01*
X76308540Y-70686478D01*
X76279393Y-70734800D01*
X76236555Y-70800692D01*
X76179448Y-70885517D01*
X76128766Y-70960177D01*
X76083461Y-71027140D01*
X76046150Y-71082516D01*
X76019452Y-71122420D01*
X76005985Y-71142962D01*
X76005137Y-71144356D01*
X76006781Y-71164038D01*
X76019245Y-71202293D01*
X76040048Y-71251889D01*
X76047462Y-71267728D01*
X76079814Y-71338290D01*
X76114328Y-71418353D01*
X76142365Y-71487629D01*
X76162568Y-71539045D01*
X76178615Y-71578119D01*
X76187888Y-71598541D01*
X76189041Y-71600114D01*
X76206096Y-71602721D01*
X76246298Y-71609863D01*
X76304302Y-71620523D01*
X76374763Y-71633685D01*
X76452335Y-71648333D01*
X76531672Y-71663449D01*
X76607431Y-71678018D01*
X76674264Y-71691022D01*
X76726828Y-71701445D01*
X76759776Y-71708270D01*
X76767857Y-71710199D01*
X76776205Y-71714962D01*
X76782506Y-71725718D01*
X76787045Y-71746098D01*
X76790104Y-71779734D01*
X76791967Y-71830255D01*
X76792918Y-71901292D01*
X76793240Y-71996476D01*
X76793257Y-72035492D01*
X76793257Y-72352799D01*
X76717057Y-72367839D01*
X76674663Y-72375995D01*
X76611400Y-72387899D01*
X76534962Y-72402116D01*
X76453043Y-72417210D01*
X76430400Y-72421355D01*
X76354806Y-72436053D01*
X76288953Y-72450505D01*
X76238366Y-72463375D01*
X76208574Y-72473322D01*
X76203612Y-72476287D01*
X76191426Y-72497283D01*
X76173953Y-72537967D01*
X76154577Y-72590322D01*
X76150734Y-72601600D01*
X76125339Y-72671523D01*
X76093817Y-72750418D01*
X76062969Y-72821266D01*
X76062817Y-72821595D01*
X76011447Y-72932733D01*
X76180399Y-73181253D01*
X76349352Y-73429772D01*
X76132429Y-73647058D01*
X76066819Y-73711726D01*
X76006979Y-73768733D01*
X75956267Y-73815033D01*
X75918046Y-73847584D01*
X75895675Y-73863343D01*
X75892466Y-73864343D01*
X75873626Y-73856469D01*
X75835180Y-73834578D01*
X75781330Y-73801267D01*
X75716276Y-73759131D01*
X75645940Y-73711943D01*
X75574555Y-73663810D01*
X75510908Y-73621928D01*
X75459041Y-73588871D01*
X75422995Y-73567218D01*
X75406867Y-73559543D01*
X75387189Y-73566037D01*
X75349875Y-73583150D01*
X75302621Y-73607326D01*
X75297612Y-73610013D01*
X75233977Y-73641927D01*
X75190341Y-73657579D01*
X75163202Y-73657745D01*
X75149057Y-73643204D01*
X75148975Y-73643000D01*
X75141905Y-73625779D01*
X75125042Y-73584899D01*
X75099695Y-73523525D01*
X75067171Y-73444819D01*
X75028778Y-73351947D01*
X74985822Y-73248072D01*
X74944222Y-73147502D01*
X74898504Y-73036516D01*
X74856526Y-72933703D01*
X74819548Y-72842215D01*
X74788827Y-72765201D01*
X74765622Y-72705815D01*
X74751190Y-72667209D01*
X74746743Y-72652800D01*
X74757896Y-72636272D01*
X74787069Y-72609930D01*
X74825971Y-72580887D01*
X74936757Y-72489039D01*
X75023351Y-72383759D01*
X75084716Y-72267266D01*
X75119815Y-72141776D01*
X75127608Y-72009507D01*
X75121943Y-71948457D01*
X75091078Y-71821795D01*
X75037920Y-71709941D01*
X74965767Y-71614001D01*
X74877917Y-71535076D01*
X74777665Y-71474270D01*
X74668310Y-71432687D01*
X74553147Y-71411428D01*
X74435475Y-71411599D01*
X74318590Y-71434301D01*
X74205789Y-71480638D01*
X74100369Y-71551713D01*
X74056368Y-71591911D01*
X73971979Y-71695129D01*
X73913222Y-71807925D01*
X73879704Y-71927010D01*
X73871035Y-72049095D01*
X73886823Y-72170893D01*
X73926678Y-72289116D01*
X73990207Y-72400475D01*
X74077021Y-72501684D01*
X74174029Y-72580887D01*
X74214437Y-72611162D01*
X74242982Y-72637219D01*
X74253257Y-72652825D01*
X74247877Y-72669843D01*
X74232575Y-72710500D01*
X74208612Y-72771642D01*
X74177244Y-72850119D01*
X74139732Y-72942780D01*
X74097333Y-73046472D01*
X74055663Y-73147526D01*
X74009690Y-73258607D01*
X73967107Y-73361541D01*
X73929221Y-73453165D01*
X73897340Y-73530316D01*
X73872771Y-73589831D01*
X73856820Y-73628544D01*
X73850910Y-73643000D01*
X73836948Y-73657685D01*
X73809940Y-73657642D01*
X73766413Y-73642099D01*
X73702890Y-73610284D01*
X73702388Y-73610013D01*
X73654560Y-73585323D01*
X73615897Y-73567338D01*
X73594095Y-73559614D01*
X73593133Y-73559543D01*
X73576721Y-73567378D01*
X73540487Y-73589165D01*
X73488474Y-73622328D01*
X73424725Y-73664291D01*
X73354060Y-73711943D01*
X73282116Y-73760191D01*
X73217274Y-73802151D01*
X73163735Y-73835227D01*
X73125697Y-73856821D01*
X73107533Y-73864343D01*
X73090808Y-73854457D01*
X73057180Y-73826826D01*
X73010010Y-73784495D01*
X72952658Y-73730505D01*
X72888484Y-73667899D01*
X72867497Y-73646983D01*
X72650499Y-73429623D01*
X72815668Y-73187220D01*
X72865864Y-73112781D01*
X72909919Y-73045972D01*
X72945362Y-72990665D01*
X72969719Y-72950729D01*
X72980522Y-72930036D01*
X72980838Y-72928563D01*
X72975143Y-72909058D01*
X72959826Y-72869822D01*
X72937537Y-72817430D01*
X72921893Y-72782355D01*
X72892641Y-72715201D01*
X72865094Y-72647358D01*
X72843737Y-72590034D01*
X72837935Y-72572572D01*
X72821452Y-72525938D01*
X72805340Y-72489905D01*
X72796490Y-72476287D01*
X72776960Y-72467952D01*
X72734334Y-72456137D01*
X72674145Y-72442181D01*
X72601922Y-72427422D01*
X72569600Y-72421355D01*
X72487522Y-72406273D01*
X72408795Y-72391669D01*
X72341109Y-72378980D01*
X72292160Y-72369642D01*
X72282943Y-72367839D01*
X72206743Y-72352799D01*
X72206743Y-72035492D01*
X72206914Y-71931154D01*
X72207616Y-71852213D01*
X72209134Y-71795038D01*
X72211749Y-71755999D01*
X72215746Y-71731465D01*
X72221409Y-71717805D01*
X72229020Y-71711389D01*
X72232143Y-71710199D01*
X72250978Y-71705980D01*
X72292588Y-71697562D01*
X72351630Y-71685961D01*
X72422757Y-71672195D01*
X72500625Y-71657280D01*
X72579887Y-71642232D01*
X72655198Y-71628069D01*
X72721213Y-71615806D01*
X72772587Y-71606461D01*
X72803975Y-71601050D01*
X72810959Y-71600114D01*
X72817285Y-71587596D01*
X72831290Y-71554246D01*
X72850355Y-71506377D01*
X72857634Y-71487629D01*
X72886996Y-71415195D01*
X72921571Y-71335170D01*
X72952537Y-71267728D01*
X72975323Y-71216159D01*
X72990482Y-71173785D01*
X72995542Y-71147834D01*
X72994736Y-71144356D01*
X72984041Y-71127936D01*
X72959620Y-71091417D01*
X72924095Y-71038687D01*
X72880087Y-70973635D01*
X72830217Y-70900151D01*
X72820356Y-70885645D01*
X72762492Y-70799704D01*
X72719956Y-70734261D01*
X72691054Y-70686304D01*
X72674090Y-70652820D01*
X72667367Y-70630795D01*
X72669190Y-70617217D01*
X72669236Y-70617131D01*
X72683586Y-70599297D01*
X72715323Y-70564817D01*
X72761010Y-70517268D01*
X72817204Y-70460222D01*
X72880468Y-70397255D01*
X72887602Y-70390227D01*
X72967330Y-70313020D01*
X73028857Y-70256330D01*
X73073421Y-70219110D01*
X73102257Y-70200315D01*
X73114958Y-70197889D01*
X73133494Y-70208471D01*
X73171961Y-70232916D01*
X73226386Y-70268612D01*
X73292798Y-70312947D01*
X73367225Y-70363311D01*
X73384601Y-70375160D01*
X73631297Y-70543626D01*
X73742706Y-70493062D01*
X73810457Y-70463595D01*
X73883183Y-70433959D01*
X73945703Y-70410330D01*
X73948457Y-70409358D01*
X73997360Y-70391457D01*
X74035057Y-70376320D01*
X74053425Y-70367210D01*
X74053456Y-70367184D01*
X74059285Y-70350717D01*
X74069192Y-70310219D01*
X74082195Y-70250242D01*
X74097309Y-70175340D01*
X74113552Y-70090064D01*
X74114881Y-70082875D01*
X74131175Y-69995014D01*
X74146133Y-69915260D01*
X74158791Y-69848681D01*
X74168186Y-69800347D01*
X74173354Y-69775325D01*
X74173444Y-69774943D01*
X74176589Y-69764299D01*
X74182704Y-69756262D01*
X74195453Y-69750467D01*
X74218500Y-69746547D01*
X74255509Y-69744135D01*
X74310144Y-69742865D01*
X74386067Y-69742371D01*
X74486944Y-69742286D01*
X74500000Y-69742286D01*
X74603910Y-69742348D01*
G37*
X74603910Y-69742348D02*
X74682454Y-69742778D01*
X74739298Y-69743942D01*
X74778105Y-69746207D01*
X74802538Y-69749940D01*
X74816262Y-69755506D01*
X74822940Y-69763273D01*
X74826236Y-69773605D01*
X74826556Y-69774943D01*
X74831562Y-69799079D01*
X74840829Y-69846701D01*
X74853392Y-69912741D01*
X74868287Y-69992128D01*
X74884551Y-70079796D01*
X74885119Y-70082875D01*
X74901410Y-70168789D01*
X74916652Y-70244696D01*
X74929861Y-70306045D01*
X74940054Y-70348282D01*
X74946248Y-70366855D01*
X74946543Y-70367184D01*
X74964788Y-70376253D01*
X75002405Y-70391367D01*
X75051271Y-70409262D01*
X75051543Y-70409358D01*
X75113093Y-70432493D01*
X75185657Y-70461965D01*
X75254057Y-70491597D01*
X75257294Y-70493062D01*
X75368702Y-70543626D01*
X75615399Y-70375160D01*
X75691077Y-70323803D01*
X75759631Y-70277889D01*
X75817088Y-70240030D01*
X75859476Y-70212837D01*
X75882825Y-70198921D01*
X75885042Y-70197889D01*
X75902010Y-70202484D01*
X75933701Y-70224655D01*
X75981352Y-70265447D01*
X76046198Y-70325905D01*
X76112397Y-70390227D01*
X76176214Y-70453612D01*
X76233329Y-70511451D01*
X76280305Y-70560175D01*
X76313703Y-70596210D01*
X76330085Y-70615984D01*
X76330694Y-70617002D01*
X76332505Y-70630572D01*
X76325683Y-70652733D01*
X76308540Y-70686478D01*
X76279393Y-70734800D01*
X76236555Y-70800692D01*
X76179448Y-70885517D01*
X76128766Y-70960177D01*
X76083461Y-71027140D01*
X76046150Y-71082516D01*
X76019452Y-71122420D01*
X76005985Y-71142962D01*
X76005137Y-71144356D01*
X76006781Y-71164038D01*
X76019245Y-71202293D01*
X76040048Y-71251889D01*
X76047462Y-71267728D01*
X76079814Y-71338290D01*
X76114328Y-71418353D01*
X76142365Y-71487629D01*
X76162568Y-71539045D01*
X76178615Y-71578119D01*
X76187888Y-71598541D01*
X76189041Y-71600114D01*
X76206096Y-71602721D01*
X76246298Y-71609863D01*
X76304302Y-71620523D01*
X76374763Y-71633685D01*
X76452335Y-71648333D01*
X76531672Y-71663449D01*
X76607431Y-71678018D01*
X76674264Y-71691022D01*
X76726828Y-71701445D01*
X76759776Y-71708270D01*
X76767857Y-71710199D01*
X76776205Y-71714962D01*
X76782506Y-71725718D01*
X76787045Y-71746098D01*
X76790104Y-71779734D01*
X76791967Y-71830255D01*
X76792918Y-71901292D01*
X76793240Y-71996476D01*
X76793257Y-72035492D01*
X76793257Y-72352799D01*
X76717057Y-72367839D01*
X76674663Y-72375995D01*
X76611400Y-72387899D01*
X76534962Y-72402116D01*
X76453043Y-72417210D01*
X76430400Y-72421355D01*
X76354806Y-72436053D01*
X76288953Y-72450505D01*
X76238366Y-72463375D01*
X76208574Y-72473322D01*
X76203612Y-72476287D01*
X76191426Y-72497283D01*
X76173953Y-72537967D01*
X76154577Y-72590322D01*
X76150734Y-72601600D01*
X76125339Y-72671523D01*
X76093817Y-72750418D01*
X76062969Y-72821266D01*
X76062817Y-72821595D01*
X76011447Y-72932733D01*
X76180399Y-73181253D01*
X76349352Y-73429772D01*
X76132429Y-73647058D01*
X76066819Y-73711726D01*
X76006979Y-73768733D01*
X75956267Y-73815033D01*
X75918046Y-73847584D01*
X75895675Y-73863343D01*
X75892466Y-73864343D01*
X75873626Y-73856469D01*
X75835180Y-73834578D01*
X75781330Y-73801267D01*
X75716276Y-73759131D01*
X75645940Y-73711943D01*
X75574555Y-73663810D01*
X75510908Y-73621928D01*
X75459041Y-73588871D01*
X75422995Y-73567218D01*
X75406867Y-73559543D01*
X75387189Y-73566037D01*
X75349875Y-73583150D01*
X75302621Y-73607326D01*
X75297612Y-73610013D01*
X75233977Y-73641927D01*
X75190341Y-73657579D01*
X75163202Y-73657745D01*
X75149057Y-73643204D01*
X75148975Y-73643000D01*
X75141905Y-73625779D01*
X75125042Y-73584899D01*
X75099695Y-73523525D01*
X75067171Y-73444819D01*
X75028778Y-73351947D01*
X74985822Y-73248072D01*
X74944222Y-73147502D01*
X74898504Y-73036516D01*
X74856526Y-72933703D01*
X74819548Y-72842215D01*
X74788827Y-72765201D01*
X74765622Y-72705815D01*
X74751190Y-72667209D01*
X74746743Y-72652800D01*
X74757896Y-72636272D01*
X74787069Y-72609930D01*
X74825971Y-72580887D01*
X74936757Y-72489039D01*
X75023351Y-72383759D01*
X75084716Y-72267266D01*
X75119815Y-72141776D01*
X75127608Y-72009507D01*
X75121943Y-71948457D01*
X75091078Y-71821795D01*
X75037920Y-71709941D01*
X74965767Y-71614001D01*
X74877917Y-71535076D01*
X74777665Y-71474270D01*
X74668310Y-71432687D01*
X74553147Y-71411428D01*
X74435475Y-71411599D01*
X74318590Y-71434301D01*
X74205789Y-71480638D01*
X74100369Y-71551713D01*
X74056368Y-71591911D01*
X73971979Y-71695129D01*
X73913222Y-71807925D01*
X73879704Y-71927010D01*
X73871035Y-72049095D01*
X73886823Y-72170893D01*
X73926678Y-72289116D01*
X73990207Y-72400475D01*
X74077021Y-72501684D01*
X74174029Y-72580887D01*
X74214437Y-72611162D01*
X74242982Y-72637219D01*
X74253257Y-72652825D01*
X74247877Y-72669843D01*
X74232575Y-72710500D01*
X74208612Y-72771642D01*
X74177244Y-72850119D01*
X74139732Y-72942780D01*
X74097333Y-73046472D01*
X74055663Y-73147526D01*
X74009690Y-73258607D01*
X73967107Y-73361541D01*
X73929221Y-73453165D01*
X73897340Y-73530316D01*
X73872771Y-73589831D01*
X73856820Y-73628544D01*
X73850910Y-73643000D01*
X73836948Y-73657685D01*
X73809940Y-73657642D01*
X73766413Y-73642099D01*
X73702890Y-73610284D01*
X73702388Y-73610013D01*
X73654560Y-73585323D01*
X73615897Y-73567338D01*
X73594095Y-73559614D01*
X73593133Y-73559543D01*
X73576721Y-73567378D01*
X73540487Y-73589165D01*
X73488474Y-73622328D01*
X73424725Y-73664291D01*
X73354060Y-73711943D01*
X73282116Y-73760191D01*
X73217274Y-73802151D01*
X73163735Y-73835227D01*
X73125697Y-73856821D01*
X73107533Y-73864343D01*
X73090808Y-73854457D01*
X73057180Y-73826826D01*
X73010010Y-73784495D01*
X72952658Y-73730505D01*
X72888484Y-73667899D01*
X72867497Y-73646983D01*
X72650499Y-73429623D01*
X72815668Y-73187220D01*
X72865864Y-73112781D01*
X72909919Y-73045972D01*
X72945362Y-72990665D01*
X72969719Y-72950729D01*
X72980522Y-72930036D01*
X72980838Y-72928563D01*
X72975143Y-72909058D01*
X72959826Y-72869822D01*
X72937537Y-72817430D01*
X72921893Y-72782355D01*
X72892641Y-72715201D01*
X72865094Y-72647358D01*
X72843737Y-72590034D01*
X72837935Y-72572572D01*
X72821452Y-72525938D01*
X72805340Y-72489905D01*
X72796490Y-72476287D01*
X72776960Y-72467952D01*
X72734334Y-72456137D01*
X72674145Y-72442181D01*
X72601922Y-72427422D01*
X72569600Y-72421355D01*
X72487522Y-72406273D01*
X72408795Y-72391669D01*
X72341109Y-72378980D01*
X72292160Y-72369642D01*
X72282943Y-72367839D01*
X72206743Y-72352799D01*
X72206743Y-72035492D01*
X72206914Y-71931154D01*
X72207616Y-71852213D01*
X72209134Y-71795038D01*
X72211749Y-71755999D01*
X72215746Y-71731465D01*
X72221409Y-71717805D01*
X72229020Y-71711389D01*
X72232143Y-71710199D01*
X72250978Y-71705980D01*
X72292588Y-71697562D01*
X72351630Y-71685961D01*
X72422757Y-71672195D01*
X72500625Y-71657280D01*
X72579887Y-71642232D01*
X72655198Y-71628069D01*
X72721213Y-71615806D01*
X72772587Y-71606461D01*
X72803975Y-71601050D01*
X72810959Y-71600114D01*
X72817285Y-71587596D01*
X72831290Y-71554246D01*
X72850355Y-71506377D01*
X72857634Y-71487629D01*
X72886996Y-71415195D01*
X72921571Y-71335170D01*
X72952537Y-71267728D01*
X72975323Y-71216159D01*
X72990482Y-71173785D01*
X72995542Y-71147834D01*
X72994736Y-71144356D01*
X72984041Y-71127936D01*
X72959620Y-71091417D01*
X72924095Y-71038687D01*
X72880087Y-70973635D01*
X72830217Y-70900151D01*
X72820356Y-70885645D01*
X72762492Y-70799704D01*
X72719956Y-70734261D01*
X72691054Y-70686304D01*
X72674090Y-70652820D01*
X72667367Y-70630795D01*
X72669190Y-70617217D01*
X72669236Y-70617131D01*
X72683586Y-70599297D01*
X72715323Y-70564817D01*
X72761010Y-70517268D01*
X72817204Y-70460222D01*
X72880468Y-70397255D01*
X72887602Y-70390227D01*
X72967330Y-70313020D01*
X73028857Y-70256330D01*
X73073421Y-70219110D01*
X73102257Y-70200315D01*
X73114958Y-70197889D01*
X73133494Y-70208471D01*
X73171961Y-70232916D01*
X73226386Y-70268612D01*
X73292798Y-70312947D01*
X73367225Y-70363311D01*
X73384601Y-70375160D01*
X73631297Y-70543626D01*
X73742706Y-70493062D01*
X73810457Y-70463595D01*
X73883183Y-70433959D01*
X73945703Y-70410330D01*
X73948457Y-70409358D01*
X73997360Y-70391457D01*
X74035057Y-70376320D01*
X74053425Y-70367210D01*
X74053456Y-70367184D01*
X74059285Y-70350717D01*
X74069192Y-70310219D01*
X74082195Y-70250242D01*
X74097309Y-70175340D01*
X74113552Y-70090064D01*
X74114881Y-70082875D01*
X74131175Y-69995014D01*
X74146133Y-69915260D01*
X74158791Y-69848681D01*
X74168186Y-69800347D01*
X74173354Y-69775325D01*
X74173444Y-69774943D01*
X74176589Y-69764299D01*
X74182704Y-69756262D01*
X74195453Y-69750467D01*
X74218500Y-69746547D01*
X74255509Y-69744135D01*
X74310144Y-69742865D01*
X74386067Y-69742371D01*
X74486944Y-69742286D01*
X74500000Y-69742286D01*
X74603910Y-69742348D01*
G36*
X77653595Y-74466966D02*
G01*
X77711021Y-74504497D01*
X77738719Y-74538096D01*
X77760662Y-74599064D01*
X77762405Y-74647308D01*
X77758457Y-74711816D01*
X77609686Y-74776934D01*
X77537349Y-74810202D01*
X77490084Y-74836964D01*
X77465507Y-74860144D01*
X77461237Y-74882667D01*
X77474889Y-74907455D01*
X77489943Y-74923886D01*
X77533746Y-74950235D01*
X77581389Y-74952081D01*
X77625145Y-74931546D01*
X77657289Y-74890752D01*
X77663038Y-74876347D01*
X77690576Y-74831356D01*
X77722258Y-74812182D01*
X77765714Y-74795779D01*
X77765714Y-74857966D01*
X77761872Y-74900283D01*
X77746823Y-74935969D01*
X77715280Y-74976943D01*
X77710592Y-74982267D01*
X77675506Y-75018720D01*
X77645347Y-75038283D01*
X77607615Y-75047283D01*
X77576335Y-75050230D01*
X77520385Y-75050965D01*
X77480555Y-75041660D01*
X77455708Y-75027846D01*
X77416656Y-74997467D01*
X77389625Y-74964613D01*
X77372517Y-74923294D01*
X77363238Y-74867521D01*
X77359693Y-74791305D01*
X77359410Y-74752622D01*
X77360372Y-74706247D01*
X77448007Y-74706247D01*
X77449023Y-74731126D01*
X77451556Y-74735200D01*
X77468274Y-74729665D01*
X77504249Y-74715017D01*
X77552331Y-74694190D01*
X77562386Y-74689714D01*
X77623152Y-74658814D01*
X77656632Y-74631657D01*
X77663990Y-74606220D01*
X77646391Y-74580481D01*
X77631856Y-74569109D01*
X77579410Y-74546364D01*
X77530322Y-74550122D01*
X77489227Y-74577884D01*
X77460758Y-74627152D01*
X77451631Y-74666257D01*
X77448007Y-74706247D01*
X77360372Y-74706247D01*
X77361285Y-74662249D01*
X77368196Y-74595384D01*
X77381884Y-74546695D01*
X77404096Y-74510849D01*
X77436574Y-74482513D01*
X77450733Y-74473355D01*
X77515053Y-74449507D01*
X77585473Y-74448006D01*
X77653595Y-74466966D01*
G37*
X77653595Y-74466966D02*
X77711021Y-74504497D01*
X77738719Y-74538096D01*
X77760662Y-74599064D01*
X77762405Y-74647308D01*
X77758457Y-74711816D01*
X77609686Y-74776934D01*
X77537349Y-74810202D01*
X77490084Y-74836964D01*
X77465507Y-74860144D01*
X77461237Y-74882667D01*
X77474889Y-74907455D01*
X77489943Y-74923886D01*
X77533746Y-74950235D01*
X77581389Y-74952081D01*
X77625145Y-74931546D01*
X77657289Y-74890752D01*
X77663038Y-74876347D01*
X77690576Y-74831356D01*
X77722258Y-74812182D01*
X77765714Y-74795779D01*
X77765714Y-74857966D01*
X77761872Y-74900283D01*
X77746823Y-74935969D01*
X77715280Y-74976943D01*
X77710592Y-74982267D01*
X77675506Y-75018720D01*
X77645347Y-75038283D01*
X77607615Y-75047283D01*
X77576335Y-75050230D01*
X77520385Y-75050965D01*
X77480555Y-75041660D01*
X77455708Y-75027846D01*
X77416656Y-74997467D01*
X77389625Y-74964613D01*
X77372517Y-74923294D01*
X77363238Y-74867521D01*
X77359693Y-74791305D01*
X77359410Y-74752622D01*
X77360372Y-74706247D01*
X77448007Y-74706247D01*
X77449023Y-74731126D01*
X77451556Y-74735200D01*
X77468274Y-74729665D01*
X77504249Y-74715017D01*
X77552331Y-74694190D01*
X77562386Y-74689714D01*
X77623152Y-74658814D01*
X77656632Y-74631657D01*
X77663990Y-74606220D01*
X77646391Y-74580481D01*
X77631856Y-74569109D01*
X77579410Y-74546364D01*
X77530322Y-74550122D01*
X77489227Y-74577884D01*
X77460758Y-74627152D01*
X77451631Y-74666257D01*
X77448007Y-74706247D01*
X77360372Y-74706247D01*
X77361285Y-74662249D01*
X77368196Y-74595384D01*
X77381884Y-74546695D01*
X77404096Y-74510849D01*
X77436574Y-74482513D01*
X77450733Y-74473355D01*
X77515053Y-74449507D01*
X77585473Y-74448006D01*
X77653595Y-74466966D01*
G36*
X77152600Y-74458752D02*
G01*
X77169948Y-74466334D01*
X77211356Y-74499128D01*
X77246765Y-74546547D01*
X77268664Y-74597151D01*
X77272229Y-74622098D01*
X77260279Y-74656927D01*
X77234067Y-74675357D01*
X77205964Y-74686516D01*
X77193095Y-74688572D01*
X77186829Y-74673649D01*
X77174456Y-74641175D01*
X77169028Y-74626502D01*
X77138590Y-74575744D01*
X77094520Y-74550427D01*
X77038010Y-74551206D01*
X77033825Y-74552203D01*
X77003655Y-74566507D01*
X76981476Y-74594393D01*
X76966327Y-74639287D01*
X76957250Y-74704615D01*
X76953286Y-74793804D01*
X76952914Y-74841261D01*
X76952730Y-74916071D01*
X76951522Y-74967069D01*
X76948309Y-74999471D01*
X76942109Y-75018495D01*
X76931940Y-75029356D01*
X76916819Y-75037272D01*
X76915946Y-75037670D01*
X76886828Y-75049981D01*
X76872403Y-75054514D01*
X76870186Y-75040809D01*
X76868289Y-75002925D01*
X76866847Y-74945715D01*
X76865998Y-74874027D01*
X76865829Y-74821565D01*
X76866692Y-74720047D01*
X76870070Y-74643032D01*
X76877142Y-74586023D01*
X76889088Y-74544526D01*
X76907090Y-74514043D01*
X76932327Y-74490080D01*
X76957247Y-74473355D01*
X77017171Y-74451097D01*
X77086911Y-74446076D01*
X77152600Y-74458752D01*
G37*
X77152600Y-74458752D02*
X77169948Y-74466334D01*
X77211356Y-74499128D01*
X77246765Y-74546547D01*
X77268664Y-74597151D01*
X77272229Y-74622098D01*
X77260279Y-74656927D01*
X77234067Y-74675357D01*
X77205964Y-74686516D01*
X77193095Y-74688572D01*
X77186829Y-74673649D01*
X77174456Y-74641175D01*
X77169028Y-74626502D01*
X77138590Y-74575744D01*
X77094520Y-74550427D01*
X77038010Y-74551206D01*
X77033825Y-74552203D01*
X77003655Y-74566507D01*
X76981476Y-74594393D01*
X76966327Y-74639287D01*
X76957250Y-74704615D01*
X76953286Y-74793804D01*
X76952914Y-74841261D01*
X76952730Y-74916071D01*
X76951522Y-74967069D01*
X76948309Y-74999471D01*
X76942109Y-75018495D01*
X76931940Y-75029356D01*
X76916819Y-75037272D01*
X76915946Y-75037670D01*
X76886828Y-75049981D01*
X76872403Y-75054514D01*
X76870186Y-75040809D01*
X76868289Y-75002925D01*
X76866847Y-74945715D01*
X76865998Y-74874027D01*
X76865829Y-74821565D01*
X76866692Y-74720047D01*
X76870070Y-74643032D01*
X76877142Y-74586023D01*
X76889088Y-74544526D01*
X76907090Y-74514043D01*
X76932327Y-74490080D01*
X76957247Y-74473355D01*
X77017171Y-74451097D01*
X77086911Y-74446076D01*
X77152600Y-74458752D01*
G36*
X76644876Y-74456335D02*
G01*
X76686667Y-74475344D01*
X76719469Y-74498378D01*
X76743503Y-74524133D01*
X76760097Y-74557358D01*
X76770577Y-74602800D01*
X76776271Y-74665207D01*
X76778507Y-74749327D01*
X76778743Y-74804721D01*
X76778743Y-75020826D01*
X76741774Y-75037670D01*
X76712656Y-75049981D01*
X76698231Y-75054514D01*
X76695472Y-75041025D01*
X76693282Y-75004653D01*
X76691942Y-74951542D01*
X76691657Y-74909372D01*
X76690434Y-74848447D01*
X76687136Y-74800115D01*
X76682321Y-74770518D01*
X76678496Y-74764229D01*
X76652783Y-74770652D01*
X76612418Y-74787125D01*
X76565679Y-74809458D01*
X76520845Y-74833457D01*
X76486193Y-74854930D01*
X76470002Y-74869685D01*
X76469938Y-74869845D01*
X76471330Y-74897152D01*
X76483818Y-74923219D01*
X76505743Y-74944392D01*
X76537743Y-74951474D01*
X76565092Y-74950649D01*
X76603826Y-74950042D01*
X76624158Y-74959116D01*
X76636369Y-74983092D01*
X76637909Y-74987613D01*
X76643203Y-75021806D01*
X76629047Y-75042568D01*
X76592148Y-75052462D01*
X76552289Y-75054292D01*
X76480562Y-75040727D01*
X76443432Y-75021355D01*
X76397576Y-74975845D01*
X76373256Y-74919983D01*
X76371073Y-74860957D01*
X76391629Y-74805953D01*
X76422549Y-74771486D01*
X76453420Y-74752189D01*
X76501942Y-74727759D01*
X76558485Y-74702985D01*
X76567910Y-74699199D01*
X76630019Y-74671791D01*
X76665822Y-74647634D01*
X76677337Y-74623619D01*
X76666580Y-74596635D01*
X76648114Y-74575543D01*
X76604469Y-74549572D01*
X76556446Y-74547624D01*
X76512406Y-74567637D01*
X76480709Y-74607551D01*
X76476549Y-74617848D01*
X76452327Y-74655724D01*
X76416965Y-74683842D01*
X76372343Y-74706917D01*
X76372343Y-74641485D01*
X76374969Y-74601506D01*
X76386230Y-74569997D01*
X76411199Y-74536378D01*
X76435169Y-74510484D01*
X76472441Y-74473817D01*
X76501401Y-74454121D01*
X76532505Y-74446220D01*
X76567713Y-74444914D01*
X76644876Y-74456335D01*
G37*
X76644876Y-74456335D02*
X76686667Y-74475344D01*
X76719469Y-74498378D01*
X76743503Y-74524133D01*
X76760097Y-74557358D01*
X76770577Y-74602800D01*
X76776271Y-74665207D01*
X76778507Y-74749327D01*
X76778743Y-74804721D01*
X76778743Y-75020826D01*
X76741774Y-75037670D01*
X76712656Y-75049981D01*
X76698231Y-75054514D01*
X76695472Y-75041025D01*
X76693282Y-75004653D01*
X76691942Y-74951542D01*
X76691657Y-74909372D01*
X76690434Y-74848447D01*
X76687136Y-74800115D01*
X76682321Y-74770518D01*
X76678496Y-74764229D01*
X76652783Y-74770652D01*
X76612418Y-74787125D01*
X76565679Y-74809458D01*
X76520845Y-74833457D01*
X76486193Y-74854930D01*
X76470002Y-74869685D01*
X76469938Y-74869845D01*
X76471330Y-74897152D01*
X76483818Y-74923219D01*
X76505743Y-74944392D01*
X76537743Y-74951474D01*
X76565092Y-74950649D01*
X76603826Y-74950042D01*
X76624158Y-74959116D01*
X76636369Y-74983092D01*
X76637909Y-74987613D01*
X76643203Y-75021806D01*
X76629047Y-75042568D01*
X76592148Y-75052462D01*
X76552289Y-75054292D01*
X76480562Y-75040727D01*
X76443432Y-75021355D01*
X76397576Y-74975845D01*
X76373256Y-74919983D01*
X76371073Y-74860957D01*
X76391629Y-74805953D01*
X76422549Y-74771486D01*
X76453420Y-74752189D01*
X76501942Y-74727759D01*
X76558485Y-74702985D01*
X76567910Y-74699199D01*
X76630019Y-74671791D01*
X76665822Y-74647634D01*
X76677337Y-74623619D01*
X76666580Y-74596635D01*
X76648114Y-74575543D01*
X76604469Y-74549572D01*
X76556446Y-74547624D01*
X76512406Y-74567637D01*
X76480709Y-74607551D01*
X76476549Y-74617848D01*
X76452327Y-74655724D01*
X76416965Y-74683842D01*
X76372343Y-74706917D01*
X76372343Y-74641485D01*
X76374969Y-74601506D01*
X76386230Y-74569997D01*
X76411199Y-74536378D01*
X76435169Y-74510484D01*
X76472441Y-74473817D01*
X76501401Y-74454121D01*
X76532505Y-74446220D01*
X76567713Y-74444914D01*
X76644876Y-74456335D01*
G36*
X76279833Y-74458663D02*
G01*
X76282048Y-74496850D01*
X76283784Y-74554886D01*
X76284899Y-74628180D01*
X76285257Y-74705055D01*
X76285257Y-74965196D01*
X76239326Y-75011127D01*
X76207675Y-75039429D01*
X76179890Y-75050893D01*
X76141915Y-75050168D01*
X76126840Y-75048321D01*
X76079726Y-75042948D01*
X76040756Y-75039869D01*
X76031257Y-75039585D01*
X75999233Y-75041445D01*
X75953432Y-75046114D01*
X75935674Y-75048321D01*
X75892057Y-75051735D01*
X75862745Y-75044320D01*
X75833680Y-75021427D01*
X75823188Y-75011127D01*
X75777257Y-74965196D01*
X75777257Y-74478602D01*
X75814226Y-74461758D01*
X75846059Y-74449282D01*
X75864683Y-74444914D01*
X75869458Y-74458718D01*
X75873921Y-74497286D01*
X75877775Y-74556356D01*
X75880722Y-74631663D01*
X75882143Y-74695286D01*
X75886114Y-74945657D01*
X75920759Y-74950556D01*
X75952268Y-74947131D01*
X75967708Y-74936041D01*
X75972023Y-74915308D01*
X75975708Y-74871145D01*
X75978469Y-74809146D01*
X75980012Y-74734909D01*
X75980235Y-74696706D01*
X75980457Y-74476783D01*
X76026166Y-74460849D01*
X76058518Y-74450015D01*
X76076115Y-74444962D01*
X76076623Y-74444914D01*
X76078388Y-74458648D01*
X76080329Y-74496730D01*
X76082282Y-74554482D01*
X76084084Y-74627227D01*
X76085343Y-74695286D01*
X76089314Y-74945657D01*
X76176400Y-74945657D01*
X76180396Y-74717240D01*
X76184392Y-74488822D01*
X76226847Y-74466868D01*
X76258192Y-74451793D01*
X76276744Y-74444951D01*
X76277279Y-74444914D01*
X76279833Y-74458663D01*
G37*
X76279833Y-74458663D02*
X76282048Y-74496850D01*
X76283784Y-74554886D01*
X76284899Y-74628180D01*
X76285257Y-74705055D01*
X76285257Y-74965196D01*
X76239326Y-75011127D01*
X76207675Y-75039429D01*
X76179890Y-75050893D01*
X76141915Y-75050168D01*
X76126840Y-75048321D01*
X76079726Y-75042948D01*
X76040756Y-75039869D01*
X76031257Y-75039585D01*
X75999233Y-75041445D01*
X75953432Y-75046114D01*
X75935674Y-75048321D01*
X75892057Y-75051735D01*
X75862745Y-75044320D01*
X75833680Y-75021427D01*
X75823188Y-75011127D01*
X75777257Y-74965196D01*
X75777257Y-74478602D01*
X75814226Y-74461758D01*
X75846059Y-74449282D01*
X75864683Y-74444914D01*
X75869458Y-74458718D01*
X75873921Y-74497286D01*
X75877775Y-74556356D01*
X75880722Y-74631663D01*
X75882143Y-74695286D01*
X75886114Y-74945657D01*
X75920759Y-74950556D01*
X75952268Y-74947131D01*
X75967708Y-74936041D01*
X75972023Y-74915308D01*
X75975708Y-74871145D01*
X75978469Y-74809146D01*
X75980012Y-74734909D01*
X75980235Y-74696706D01*
X75980457Y-74476783D01*
X76026166Y-74460849D01*
X76058518Y-74450015D01*
X76076115Y-74444962D01*
X76076623Y-74444914D01*
X76078388Y-74458648D01*
X76080329Y-74496730D01*
X76082282Y-74554482D01*
X76084084Y-74627227D01*
X76085343Y-74695286D01*
X76089314Y-74945657D01*
X76176400Y-74945657D01*
X76180396Y-74717240D01*
X76184392Y-74488822D01*
X76226847Y-74466868D01*
X76258192Y-74451793D01*
X76276744Y-74444951D01*
X76277279Y-74444914D01*
X76279833Y-74458663D01*
G36*
X75690117Y-74565358D02*
G01*
X75689933Y-74673837D01*
X75689219Y-74757287D01*
X75687675Y-74819704D01*
X75685001Y-74865085D01*
X75680894Y-74897429D01*
X75675055Y-74920733D01*
X75667182Y-74938995D01*
X75661221Y-74949418D01*
X75611855Y-75005945D01*
X75549264Y-75041377D01*
X75480013Y-75054090D01*
X75410668Y-75042463D01*
X75369375Y-75021568D01*
X75326025Y-74985422D01*
X75296481Y-74941276D01*
X75278655Y-74883462D01*
X75270463Y-74806313D01*
X75269302Y-74749714D01*
X75269458Y-74745647D01*
X75370857Y-74745647D01*
X75371476Y-74810550D01*
X75374314Y-74853514D01*
X75380840Y-74881622D01*
X75392523Y-74901953D01*
X75406483Y-74917288D01*
X75453365Y-74946890D01*
X75503701Y-74949419D01*
X75551276Y-74924705D01*
X75554979Y-74921356D01*
X75570783Y-74903935D01*
X75580693Y-74883209D01*
X75586058Y-74852362D01*
X75588228Y-74804577D01*
X75588571Y-74751748D01*
X75587827Y-74685381D01*
X75584748Y-74641106D01*
X75578061Y-74612009D01*
X75566496Y-74591173D01*
X75557013Y-74580107D01*
X75512960Y-74552198D01*
X75462224Y-74548843D01*
X75413796Y-74570159D01*
X75404450Y-74578073D01*
X75388540Y-74595647D01*
X75378610Y-74616587D01*
X75373278Y-74647782D01*
X75371163Y-74696122D01*
X75370857Y-74745647D01*
X75269458Y-74745647D01*
X75272810Y-74658568D01*
X75284726Y-74590086D01*
X75307135Y-74538600D01*
X75342124Y-74498443D01*
X75369375Y-74477861D01*
X75418907Y-74455625D01*
X75476316Y-74445304D01*
X75529682Y-74448067D01*
X75559543Y-74459212D01*
X75571261Y-74462383D01*
X75579037Y-74450557D01*
X75584465Y-74418866D01*
X75588571Y-74370593D01*
X75593067Y-74316829D01*
X75599313Y-74284482D01*
X75610676Y-74265985D01*
X75630528Y-74253770D01*
X75643000Y-74248362D01*
X75690171Y-74228601D01*
X75690117Y-74565358D01*
G37*
X75690117Y-74565358D02*
X75689933Y-74673837D01*
X75689219Y-74757287D01*
X75687675Y-74819704D01*
X75685001Y-74865085D01*
X75680894Y-74897429D01*
X75675055Y-74920733D01*
X75667182Y-74938995D01*
X75661221Y-74949418D01*
X75611855Y-75005945D01*
X75549264Y-75041377D01*
X75480013Y-75054090D01*
X75410668Y-75042463D01*
X75369375Y-75021568D01*
X75326025Y-74985422D01*
X75296481Y-74941276D01*
X75278655Y-74883462D01*
X75270463Y-74806313D01*
X75269302Y-74749714D01*
X75269458Y-74745647D01*
X75370857Y-74745647D01*
X75371476Y-74810550D01*
X75374314Y-74853514D01*
X75380840Y-74881622D01*
X75392523Y-74901953D01*
X75406483Y-74917288D01*
X75453365Y-74946890D01*
X75503701Y-74949419D01*
X75551276Y-74924705D01*
X75554979Y-74921356D01*
X75570783Y-74903935D01*
X75580693Y-74883209D01*
X75586058Y-74852362D01*
X75588228Y-74804577D01*
X75588571Y-74751748D01*
X75587827Y-74685381D01*
X75584748Y-74641106D01*
X75578061Y-74612009D01*
X75566496Y-74591173D01*
X75557013Y-74580107D01*
X75512960Y-74552198D01*
X75462224Y-74548843D01*
X75413796Y-74570159D01*
X75404450Y-74578073D01*
X75388540Y-74595647D01*
X75378610Y-74616587D01*
X75373278Y-74647782D01*
X75371163Y-74696122D01*
X75370857Y-74745647D01*
X75269458Y-74745647D01*
X75272810Y-74658568D01*
X75284726Y-74590086D01*
X75307135Y-74538600D01*
X75342124Y-74498443D01*
X75369375Y-74477861D01*
X75418907Y-74455625D01*
X75476316Y-74445304D01*
X75529682Y-74448067D01*
X75559543Y-74459212D01*
X75571261Y-74462383D01*
X75579037Y-74450557D01*
X75584465Y-74418866D01*
X75588571Y-74370593D01*
X75593067Y-74316829D01*
X75599313Y-74284482D01*
X75610676Y-74265985D01*
X75630528Y-74253770D01*
X75643000Y-74248362D01*
X75690171Y-74228601D01*
X75690117Y-74565358D01*
G36*
X75029926Y-74449755D02*
G01*
X75095858Y-74474084D01*
X75149273Y-74517117D01*
X75170164Y-74547409D01*
X75192939Y-74602994D01*
X75192466Y-74643186D01*
X75168562Y-74670217D01*
X75159717Y-74674813D01*
X75121530Y-74689144D01*
X75102028Y-74685472D01*
X75095422Y-74661407D01*
X75095086Y-74648114D01*
X75082992Y-74599210D01*
X75051471Y-74564999D01*
X75007659Y-74548476D01*
X74958695Y-74552634D01*
X74918894Y-74574227D01*
X74905450Y-74586544D01*
X74895921Y-74601487D01*
X74889485Y-74624075D01*
X74885317Y-74659328D01*
X74882597Y-74712266D01*
X74880502Y-74787907D01*
X74879960Y-74811857D01*
X74877981Y-74893790D01*
X74875731Y-74951455D01*
X74872357Y-74989608D01*
X74867006Y-75013004D01*
X74858824Y-75026398D01*
X74846959Y-75034545D01*
X74839362Y-75038144D01*
X74807102Y-75050452D01*
X74788111Y-75054514D01*
X74781836Y-75040948D01*
X74778006Y-74999934D01*
X74776600Y-74930999D01*
X74777598Y-74833669D01*
X74777908Y-74818657D01*
X74780101Y-74729859D01*
X74782693Y-74665019D01*
X74786382Y-74619067D01*
X74791864Y-74586935D01*
X74799835Y-74563553D01*
X74810993Y-74543852D01*
X74816830Y-74535410D01*
X74850296Y-74498057D01*
X74887727Y-74469003D01*
X74892309Y-74466467D01*
X74959426Y-74446443D01*
X75029926Y-74449755D01*
G37*
X75029926Y-74449755D02*
X75095858Y-74474084D01*
X75149273Y-74517117D01*
X75170164Y-74547409D01*
X75192939Y-74602994D01*
X75192466Y-74643186D01*
X75168562Y-74670217D01*
X75159717Y-74674813D01*
X75121530Y-74689144D01*
X75102028Y-74685472D01*
X75095422Y-74661407D01*
X75095086Y-74648114D01*
X75082992Y-74599210D01*
X75051471Y-74564999D01*
X75007659Y-74548476D01*
X74958695Y-74552634D01*
X74918894Y-74574227D01*
X74905450Y-74586544D01*
X74895921Y-74601487D01*
X74889485Y-74624075D01*
X74885317Y-74659328D01*
X74882597Y-74712266D01*
X74880502Y-74787907D01*
X74879960Y-74811857D01*
X74877981Y-74893790D01*
X74875731Y-74951455D01*
X74872357Y-74989608D01*
X74867006Y-75013004D01*
X74858824Y-75026398D01*
X74846959Y-75034545D01*
X74839362Y-75038144D01*
X74807102Y-75050452D01*
X74788111Y-75054514D01*
X74781836Y-75040948D01*
X74778006Y-74999934D01*
X74776600Y-74930999D01*
X74777598Y-74833669D01*
X74777908Y-74818657D01*
X74780101Y-74729859D01*
X74782693Y-74665019D01*
X74786382Y-74619067D01*
X74791864Y-74586935D01*
X74799835Y-74563553D01*
X74810993Y-74543852D01*
X74816830Y-74535410D01*
X74850296Y-74498057D01*
X74887727Y-74469003D01*
X74892309Y-74466467D01*
X74959426Y-74446443D01*
X75029926Y-74449755D01*
G36*
X74539744Y-74450968D02*
G01*
X74596616Y-74472087D01*
X74597267Y-74472493D01*
X74632440Y-74498380D01*
X74658407Y-74528633D01*
X74676670Y-74568058D01*
X74688732Y-74621462D01*
X74696096Y-74693651D01*
X74700264Y-74789432D01*
X74700629Y-74803078D01*
X74705876Y-75008842D01*
X74661716Y-75031678D01*
X74629763Y-75047110D01*
X74610470Y-75054423D01*
X74609578Y-75054514D01*
X74606239Y-75041022D01*
X74603587Y-75004626D01*
X74601956Y-74951452D01*
X74601600Y-74908393D01*
X74601592Y-74838641D01*
X74598403Y-74794837D01*
X74587288Y-74773944D01*
X74563501Y-74772925D01*
X74522296Y-74788741D01*
X74460086Y-74817815D01*
X74414341Y-74841963D01*
X74390813Y-74862913D01*
X74383896Y-74885747D01*
X74383886Y-74886877D01*
X74395299Y-74926212D01*
X74429092Y-74947462D01*
X74480809Y-74950539D01*
X74518061Y-74950006D01*
X74537703Y-74960735D01*
X74549952Y-74986505D01*
X74557002Y-75019337D01*
X74546842Y-75037966D01*
X74543017Y-75040632D01*
X74507001Y-75051340D01*
X74456566Y-75052856D01*
X74404626Y-75045759D01*
X74367822Y-75032788D01*
X74316938Y-74989585D01*
X74288014Y-74929446D01*
X74282286Y-74882462D01*
X74286657Y-74840082D01*
X74302475Y-74805488D01*
X74333797Y-74774763D01*
X74384678Y-74743990D01*
X74459176Y-74709252D01*
X74463714Y-74707288D01*
X74530821Y-74676287D01*
X74572232Y-74650862D01*
X74589981Y-74628014D01*
X74586107Y-74604745D01*
X74562643Y-74578056D01*
X74555627Y-74571914D01*
X74508630Y-74548100D01*
X74459933Y-74549103D01*
X74417522Y-74572451D01*
X74389384Y-74615675D01*
X74386769Y-74624160D01*
X74361308Y-74665308D01*
X74329001Y-74685128D01*
X74282286Y-74704770D01*
X74282286Y-74653950D01*
X74296496Y-74580082D01*
X74338675Y-74512327D01*
X74360624Y-74489661D01*
X74410517Y-74460569D01*
X74473967Y-74447400D01*
X74539744Y-74450968D01*
G37*
X74539744Y-74450968D02*
X74596616Y-74472087D01*
X74597267Y-74472493D01*
X74632440Y-74498380D01*
X74658407Y-74528633D01*
X74676670Y-74568058D01*
X74688732Y-74621462D01*
X74696096Y-74693651D01*
X74700264Y-74789432D01*
X74700629Y-74803078D01*
X74705876Y-75008842D01*
X74661716Y-75031678D01*
X74629763Y-75047110D01*
X74610470Y-75054423D01*
X74609578Y-75054514D01*
X74606239Y-75041022D01*
X74603587Y-75004626D01*
X74601956Y-74951452D01*
X74601600Y-74908393D01*
X74601592Y-74838641D01*
X74598403Y-74794837D01*
X74587288Y-74773944D01*
X74563501Y-74772925D01*
X74522296Y-74788741D01*
X74460086Y-74817815D01*
X74414341Y-74841963D01*
X74390813Y-74862913D01*
X74383896Y-74885747D01*
X74383886Y-74886877D01*
X74395299Y-74926212D01*
X74429092Y-74947462D01*
X74480809Y-74950539D01*
X74518061Y-74950006D01*
X74537703Y-74960735D01*
X74549952Y-74986505D01*
X74557002Y-75019337D01*
X74546842Y-75037966D01*
X74543017Y-75040632D01*
X74507001Y-75051340D01*
X74456566Y-75052856D01*
X74404626Y-75045759D01*
X74367822Y-75032788D01*
X74316938Y-74989585D01*
X74288014Y-74929446D01*
X74282286Y-74882462D01*
X74286657Y-74840082D01*
X74302475Y-74805488D01*
X74333797Y-74774763D01*
X74384678Y-74743990D01*
X74459176Y-74709252D01*
X74463714Y-74707288D01*
X74530821Y-74676287D01*
X74572232Y-74650862D01*
X74589981Y-74628014D01*
X74586107Y-74604745D01*
X74562643Y-74578056D01*
X74555627Y-74571914D01*
X74508630Y-74548100D01*
X74459933Y-74549103D01*
X74417522Y-74572451D01*
X74389384Y-74615675D01*
X74386769Y-74624160D01*
X74361308Y-74665308D01*
X74329001Y-74685128D01*
X74282286Y-74704770D01*
X74282286Y-74653950D01*
X74296496Y-74580082D01*
X74338675Y-74512327D01*
X74360624Y-74489661D01*
X74410517Y-74460569D01*
X74473967Y-74447400D01*
X74539744Y-74450968D01*
G36*
X73875886Y-74351289D02*
G01*
X73880139Y-74410613D01*
X73885025Y-74445572D01*
X73891795Y-74460820D01*
X73901702Y-74461015D01*
X73904914Y-74459195D01*
X73947644Y-74446015D01*
X74003227Y-74446785D01*
X74059737Y-74460333D01*
X74095082Y-74477861D01*
X74131321Y-74505861D01*
X74157813Y-74537549D01*
X74175999Y-74577813D01*
X74187322Y-74631543D01*
X74193222Y-74703626D01*
X74195143Y-74798951D01*
X74195177Y-74817237D01*
X74195200Y-75022646D01*
X74149491Y-75038580D01*
X74117027Y-75049420D01*
X74099215Y-75054468D01*
X74098691Y-75054514D01*
X74096937Y-75040828D01*
X74095444Y-75003076D01*
X74094326Y-74946224D01*
X74093697Y-74875234D01*
X74093600Y-74832073D01*
X74093398Y-74746973D01*
X74092358Y-74685981D01*
X74089831Y-74644177D01*
X74085164Y-74616642D01*
X74077707Y-74598456D01*
X74066811Y-74584698D01*
X74060007Y-74578073D01*
X74013272Y-74551375D01*
X73962272Y-74549375D01*
X73916001Y-74571955D01*
X73907444Y-74580107D01*
X73894893Y-74595436D01*
X73886188Y-74613618D01*
X73880631Y-74639909D01*
X73877526Y-74679562D01*
X73876176Y-74737832D01*
X73875886Y-74818173D01*
X73875886Y-75022646D01*
X73830177Y-75038580D01*
X73797713Y-75049420D01*
X73779901Y-75054468D01*
X73779377Y-75054514D01*
X73778037Y-75040623D01*
X73776828Y-75001439D01*
X73775801Y-74940700D01*
X73775002Y-74862141D01*
X73774481Y-74769498D01*
X73774286Y-74666509D01*
X73774286Y-74269342D01*
X73821457Y-74249444D01*
X73868629Y-74229547D01*
X73875886Y-74351289D01*
G37*
X73875886Y-74351289D02*
X73880139Y-74410613D01*
X73885025Y-74445572D01*
X73891795Y-74460820D01*
X73901702Y-74461015D01*
X73904914Y-74459195D01*
X73947644Y-74446015D01*
X74003227Y-74446785D01*
X74059737Y-74460333D01*
X74095082Y-74477861D01*
X74131321Y-74505861D01*
X74157813Y-74537549D01*
X74175999Y-74577813D01*
X74187322Y-74631543D01*
X74193222Y-74703626D01*
X74195143Y-74798951D01*
X74195177Y-74817237D01*
X74195200Y-75022646D01*
X74149491Y-75038580D01*
X74117027Y-75049420D01*
X74099215Y-75054468D01*
X74098691Y-75054514D01*
X74096937Y-75040828D01*
X74095444Y-75003076D01*
X74094326Y-74946224D01*
X74093697Y-74875234D01*
X74093600Y-74832073D01*
X74093398Y-74746973D01*
X74092358Y-74685981D01*
X74089831Y-74644177D01*
X74085164Y-74616642D01*
X74077707Y-74598456D01*
X74066811Y-74584698D01*
X74060007Y-74578073D01*
X74013272Y-74551375D01*
X73962272Y-74549375D01*
X73916001Y-74571955D01*
X73907444Y-74580107D01*
X73894893Y-74595436D01*
X73886188Y-74613618D01*
X73880631Y-74639909D01*
X73877526Y-74679562D01*
X73876176Y-74737832D01*
X73875886Y-74818173D01*
X73875886Y-75022646D01*
X73830177Y-75038580D01*
X73797713Y-75049420D01*
X73779901Y-75054468D01*
X73779377Y-75054514D01*
X73778037Y-75040623D01*
X73776828Y-75001439D01*
X73775801Y-74940700D01*
X73775002Y-74862141D01*
X73774481Y-74769498D01*
X73774286Y-74666509D01*
X73774286Y-74269342D01*
X73821457Y-74249444D01*
X73868629Y-74229547D01*
X73875886Y-74351289D01*
G36*
X72668303Y-74431239D02*
G01*
X72725527Y-74469735D01*
X72769749Y-74525335D01*
X72796167Y-74596086D01*
X72801510Y-74648162D01*
X72800903Y-74669893D01*
X72795822Y-74686531D01*
X72781855Y-74701437D01*
X72754589Y-74717973D01*
X72709612Y-74739498D01*
X72642511Y-74769374D01*
X72642171Y-74769524D01*
X72580407Y-74797813D01*
X72529759Y-74822933D01*
X72495404Y-74842179D01*
X72482518Y-74852848D01*
X72482514Y-74852934D01*
X72493872Y-74876166D01*
X72520431Y-74901774D01*
X72550923Y-74920221D01*
X72566370Y-74923886D01*
X72608515Y-74911212D01*
X72644808Y-74879471D01*
X72662517Y-74844572D01*
X72679552Y-74818845D01*
X72712922Y-74789546D01*
X72752149Y-74764235D01*
X72786756Y-74750471D01*
X72793993Y-74749714D01*
X72802139Y-74762160D01*
X72802630Y-74793972D01*
X72796643Y-74836866D01*
X72785357Y-74882558D01*
X72769950Y-74922761D01*
X72769171Y-74924322D01*
X72722804Y-74989062D01*
X72662711Y-75033097D01*
X72594465Y-75054711D01*
X72523638Y-75052185D01*
X72455804Y-75023804D01*
X72452788Y-75021808D01*
X72399427Y-74973448D01*
X72364340Y-74910352D01*
X72344922Y-74827387D01*
X72342316Y-74804078D01*
X72337701Y-74694055D01*
X72343233Y-74642748D01*
X72482514Y-74642748D01*
X72484324Y-74674753D01*
X72494222Y-74684093D01*
X72518898Y-74677105D01*
X72557795Y-74660587D01*
X72601275Y-74639881D01*
X72602356Y-74639333D01*
X72639209Y-74619949D01*
X72654000Y-74607013D01*
X72650353Y-74593451D01*
X72634995Y-74575632D01*
X72595923Y-74549845D01*
X72553846Y-74547950D01*
X72516103Y-74566717D01*
X72490034Y-74602915D01*
X72482514Y-74642748D01*
X72343233Y-74642748D01*
X72347194Y-74606027D01*
X72371550Y-74536212D01*
X72405456Y-74487302D01*
X72466653Y-74437878D01*
X72534063Y-74413359D01*
X72602880Y-74411797D01*
X72668303Y-74431239D01*
G37*
X72668303Y-74431239D02*
X72725527Y-74469735D01*
X72769749Y-74525335D01*
X72796167Y-74596086D01*
X72801510Y-74648162D01*
X72800903Y-74669893D01*
X72795822Y-74686531D01*
X72781855Y-74701437D01*
X72754589Y-74717973D01*
X72709612Y-74739498D01*
X72642511Y-74769374D01*
X72642171Y-74769524D01*
X72580407Y-74797813D01*
X72529759Y-74822933D01*
X72495404Y-74842179D01*
X72482518Y-74852848D01*
X72482514Y-74852934D01*
X72493872Y-74876166D01*
X72520431Y-74901774D01*
X72550923Y-74920221D01*
X72566370Y-74923886D01*
X72608515Y-74911212D01*
X72644808Y-74879471D01*
X72662517Y-74844572D01*
X72679552Y-74818845D01*
X72712922Y-74789546D01*
X72752149Y-74764235D01*
X72786756Y-74750471D01*
X72793993Y-74749714D01*
X72802139Y-74762160D01*
X72802630Y-74793972D01*
X72796643Y-74836866D01*
X72785357Y-74882558D01*
X72769950Y-74922761D01*
X72769171Y-74924322D01*
X72722804Y-74989062D01*
X72662711Y-75033097D01*
X72594465Y-75054711D01*
X72523638Y-75052185D01*
X72455804Y-75023804D01*
X72452788Y-75021808D01*
X72399427Y-74973448D01*
X72364340Y-74910352D01*
X72344922Y-74827387D01*
X72342316Y-74804078D01*
X72337701Y-74694055D01*
X72343233Y-74642748D01*
X72482514Y-74642748D01*
X72484324Y-74674753D01*
X72494222Y-74684093D01*
X72518898Y-74677105D01*
X72557795Y-74660587D01*
X72601275Y-74639881D01*
X72602356Y-74639333D01*
X72639209Y-74619949D01*
X72654000Y-74607013D01*
X72650353Y-74593451D01*
X72634995Y-74575632D01*
X72595923Y-74549845D01*
X72553846Y-74547950D01*
X72516103Y-74566717D01*
X72490034Y-74602915D01*
X72482514Y-74642748D01*
X72343233Y-74642748D01*
X72347194Y-74606027D01*
X72371550Y-74536212D01*
X72405456Y-74487302D01*
X72466653Y-74437878D01*
X72534063Y-74413359D01*
X72602880Y-74411797D01*
X72668303Y-74431239D01*
G36*
X71541115Y-74421962D02*
G01*
X71609145Y-74457733D01*
X71659351Y-74515301D01*
X71677185Y-74552312D01*
X71691063Y-74607882D01*
X71698167Y-74678096D01*
X71698840Y-74754727D01*
X71693427Y-74829552D01*
X71682270Y-74894342D01*
X71665714Y-74940873D01*
X71660626Y-74948887D01*
X71600355Y-75008707D01*
X71528769Y-75044535D01*
X71451092Y-75055020D01*
X71372548Y-75038810D01*
X71350689Y-75029092D01*
X71308122Y-74999143D01*
X71270763Y-74959433D01*
X71267232Y-74954397D01*
X71252881Y-74930124D01*
X71243394Y-74904178D01*
X71237790Y-74870022D01*
X71235086Y-74821119D01*
X71234299Y-74750935D01*
X71234286Y-74735200D01*
X71234322Y-74730192D01*
X71379429Y-74730192D01*
X71380273Y-74796430D01*
X71383596Y-74840386D01*
X71390583Y-74868779D01*
X71402416Y-74888325D01*
X71408457Y-74894857D01*
X71443186Y-74919680D01*
X71476903Y-74918548D01*
X71510995Y-74897016D01*
X71531329Y-74874029D01*
X71543371Y-74840478D01*
X71550134Y-74787569D01*
X71550598Y-74781399D01*
X71551752Y-74685513D01*
X71539688Y-74614299D01*
X71514570Y-74568194D01*
X71476560Y-74547635D01*
X71462992Y-74546514D01*
X71427364Y-74552152D01*
X71402994Y-74571686D01*
X71388093Y-74609042D01*
X71380875Y-74668150D01*
X71379429Y-74730192D01*
X71234322Y-74730192D01*
X71234826Y-74660413D01*
X71237096Y-74608159D01*
X71242068Y-74571949D01*
X71250713Y-74545299D01*
X71264005Y-74521722D01*
X71266943Y-74517338D01*
X71316313Y-74458249D01*
X71370109Y-74423947D01*
X71435602Y-74410331D01*
X71457842Y-74409665D01*
X71541115Y-74421962D01*
G37*
X71541115Y-74421962D02*
X71609145Y-74457733D01*
X71659351Y-74515301D01*
X71677185Y-74552312D01*
X71691063Y-74607882D01*
X71698167Y-74678096D01*
X71698840Y-74754727D01*
X71693427Y-74829552D01*
X71682270Y-74894342D01*
X71665714Y-74940873D01*
X71660626Y-74948887D01*
X71600355Y-75008707D01*
X71528769Y-75044535D01*
X71451092Y-75055020D01*
X71372548Y-75038810D01*
X71350689Y-75029092D01*
X71308122Y-74999143D01*
X71270763Y-74959433D01*
X71267232Y-74954397D01*
X71252881Y-74930124D01*
X71243394Y-74904178D01*
X71237790Y-74870022D01*
X71235086Y-74821119D01*
X71234299Y-74750935D01*
X71234286Y-74735200D01*
X71234322Y-74730192D01*
X71379429Y-74730192D01*
X71380273Y-74796430D01*
X71383596Y-74840386D01*
X71390583Y-74868779D01*
X71402416Y-74888325D01*
X71408457Y-74894857D01*
X71443186Y-74919680D01*
X71476903Y-74918548D01*
X71510995Y-74897016D01*
X71531329Y-74874029D01*
X71543371Y-74840478D01*
X71550134Y-74787569D01*
X71550598Y-74781399D01*
X71551752Y-74685513D01*
X71539688Y-74614299D01*
X71514570Y-74568194D01*
X71476560Y-74547635D01*
X71462992Y-74546514D01*
X71427364Y-74552152D01*
X71402994Y-74571686D01*
X71388093Y-74609042D01*
X71380875Y-74668150D01*
X71379429Y-74730192D01*
X71234322Y-74730192D01*
X71234826Y-74660413D01*
X71237096Y-74608159D01*
X71242068Y-74571949D01*
X71250713Y-74545299D01*
X71264005Y-74521722D01*
X71266943Y-74517338D01*
X71316313Y-74458249D01*
X71370109Y-74423947D01*
X71435602Y-74410331D01*
X71457842Y-74409665D01*
X71541115Y-74421962D01*
G36*
X73216093Y-74427780D02*
G01*
X73262672Y-74454723D01*
X73295057Y-74481466D01*
X73318742Y-74509484D01*
X73335059Y-74543748D01*
X73345339Y-74589227D01*
X73350914Y-74650892D01*
X73353116Y-74733711D01*
X73353371Y-74793246D01*
X73353371Y-75012391D01*
X73291686Y-75040044D01*
X73230000Y-75067697D01*
X73222743Y-74827670D01*
X73219744Y-74738028D01*
X73216598Y-74672962D01*
X73212701Y-74628026D01*
X73207447Y-74598770D01*
X73200231Y-74580748D01*
X73190450Y-74569511D01*
X73187312Y-74567079D01*
X73139761Y-74548083D01*
X73091697Y-74555600D01*
X73063086Y-74575543D01*
X73051447Y-74589675D01*
X73043391Y-74608220D01*
X73038271Y-74636334D01*
X73035441Y-74679173D01*
X73034256Y-74741895D01*
X73034057Y-74807261D01*
X73034018Y-74889268D01*
X73032614Y-74947316D01*
X73027914Y-74986465D01*
X73017987Y-75011780D01*
X73000903Y-75028323D01*
X72974732Y-75041156D01*
X72939775Y-75054491D01*
X72901596Y-75069007D01*
X72906141Y-74811389D01*
X72907971Y-74718519D01*
X72910112Y-74649889D01*
X72913181Y-74600711D01*
X72917794Y-74566198D01*
X72924568Y-74541562D01*
X72934119Y-74522016D01*
X72945634Y-74504770D01*
X73001190Y-74449680D01*
X73068980Y-74417822D01*
X73142713Y-74410191D01*
X73216093Y-74427780D01*
G37*
X73216093Y-74427780D02*
X73262672Y-74454723D01*
X73295057Y-74481466D01*
X73318742Y-74509484D01*
X73335059Y-74543748D01*
X73345339Y-74589227D01*
X73350914Y-74650892D01*
X73353116Y-74733711D01*
X73353371Y-74793246D01*
X73353371Y-75012391D01*
X73291686Y-75040044D01*
X73230000Y-75067697D01*
X73222743Y-74827670D01*
X73219744Y-74738028D01*
X73216598Y-74672962D01*
X73212701Y-74628026D01*
X73207447Y-74598770D01*
X73200231Y-74580748D01*
X73190450Y-74569511D01*
X73187312Y-74567079D01*
X73139761Y-74548083D01*
X73091697Y-74555600D01*
X73063086Y-74575543D01*
X73051447Y-74589675D01*
X73043391Y-74608220D01*
X73038271Y-74636334D01*
X73035441Y-74679173D01*
X73034256Y-74741895D01*
X73034057Y-74807261D01*
X73034018Y-74889268D01*
X73032614Y-74947316D01*
X73027914Y-74986465D01*
X73017987Y-75011780D01*
X73000903Y-75028323D01*
X72974732Y-75041156D01*
X72939775Y-75054491D01*
X72901596Y-75069007D01*
X72906141Y-74811389D01*
X72907971Y-74718519D01*
X72910112Y-74649889D01*
X72913181Y-74600711D01*
X72917794Y-74566198D01*
X72924568Y-74541562D01*
X72934119Y-74522016D01*
X72945634Y-74504770D01*
X73001190Y-74449680D01*
X73068980Y-74417822D01*
X73142713Y-74410191D01*
X73216093Y-74427780D01*
G36*
X72099744Y-74419918D02*
G01*
X72155201Y-74447568D01*
X72204148Y-74498480D01*
X72217629Y-74517338D01*
X72232314Y-74542015D01*
X72241842Y-74568816D01*
X72247293Y-74604587D01*
X72249747Y-74656169D01*
X72250286Y-74724267D01*
X72247852Y-74817588D01*
X72239394Y-74887657D01*
X72223174Y-74939931D01*
X72197454Y-74979869D01*
X72160497Y-75012929D01*
X72157782Y-75014886D01*
X72121360Y-75034908D01*
X72077502Y-75044815D01*
X72021724Y-75047257D01*
X71931048Y-75047257D01*
X71931010Y-75135283D01*
X71930166Y-75184308D01*
X71925024Y-75213065D01*
X71911587Y-75230311D01*
X71885858Y-75244808D01*
X71879679Y-75247769D01*
X71850764Y-75261648D01*
X71828376Y-75270414D01*
X71811729Y-75271171D01*
X71800036Y-75261023D01*
X71792510Y-75237073D01*
X71788366Y-75196426D01*
X71786815Y-75136186D01*
X71787071Y-75053455D01*
X71788349Y-74945339D01*
X71788748Y-74913000D01*
X71790185Y-74801524D01*
X71791472Y-74728603D01*
X71930971Y-74728603D01*
X71931755Y-74790499D01*
X71935240Y-74830997D01*
X71943124Y-74857708D01*
X71957105Y-74878244D01*
X71966597Y-74888260D01*
X72005404Y-74917567D01*
X72039763Y-74919952D01*
X72075216Y-74895750D01*
X72076114Y-74894857D01*
X72090539Y-74876153D01*
X72099313Y-74850732D01*
X72103739Y-74811584D01*
X72105118Y-74751697D01*
X72105143Y-74738430D01*
X72101812Y-74655901D01*
X72090969Y-74598691D01*
X72071340Y-74563766D01*
X72041650Y-74548094D01*
X72024491Y-74546514D01*
X71983766Y-74553926D01*
X71955832Y-74578330D01*
X71939017Y-74622980D01*
X71931650Y-74691130D01*
X71930971Y-74728603D01*
X71791472Y-74728603D01*
X71791708Y-74715245D01*
X71793677Y-74650333D01*
X71796450Y-74602958D01*
X71800388Y-74569290D01*
X71805849Y-74545498D01*
X71813192Y-74527753D01*
X71822777Y-74512224D01*
X71826887Y-74506381D01*
X71881405Y-74451185D01*
X71950336Y-74419890D01*
X72030072Y-74411165D01*
X72099744Y-74419918D01*
G37*
X72099744Y-74419918D02*
X72155201Y-74447568D01*
X72204148Y-74498480D01*
X72217629Y-74517338D01*
X72232314Y-74542015D01*
X72241842Y-74568816D01*
X72247293Y-74604587D01*
X72249747Y-74656169D01*
X72250286Y-74724267D01*
X72247852Y-74817588D01*
X72239394Y-74887657D01*
X72223174Y-74939931D01*
X72197454Y-74979869D01*
X72160497Y-75012929D01*
X72157782Y-75014886D01*
X72121360Y-75034908D01*
X72077502Y-75044815D01*
X72021724Y-75047257D01*
X71931048Y-75047257D01*
X71931010Y-75135283D01*
X71930166Y-75184308D01*
X71925024Y-75213065D01*
X71911587Y-75230311D01*
X71885858Y-75244808D01*
X71879679Y-75247769D01*
X71850764Y-75261648D01*
X71828376Y-75270414D01*
X71811729Y-75271171D01*
X71800036Y-75261023D01*
X71792510Y-75237073D01*
X71788366Y-75196426D01*
X71786815Y-75136186D01*
X71787071Y-75053455D01*
X71788349Y-74945339D01*
X71788748Y-74913000D01*
X71790185Y-74801524D01*
X71791472Y-74728603D01*
X71930971Y-74728603D01*
X71931755Y-74790499D01*
X71935240Y-74830997D01*
X71943124Y-74857708D01*
X71957105Y-74878244D01*
X71966597Y-74888260D01*
X72005404Y-74917567D01*
X72039763Y-74919952D01*
X72075216Y-74895750D01*
X72076114Y-74894857D01*
X72090539Y-74876153D01*
X72099313Y-74850732D01*
X72103739Y-74811584D01*
X72105118Y-74751697D01*
X72105143Y-74738430D01*
X72101812Y-74655901D01*
X72090969Y-74598691D01*
X72071340Y-74563766D01*
X72041650Y-74548094D01*
X72024491Y-74546514D01*
X71983766Y-74553926D01*
X71955832Y-74578330D01*
X71939017Y-74622980D01*
X71931650Y-74691130D01*
X71930971Y-74728603D01*
X71791472Y-74728603D01*
X71791708Y-74715245D01*
X71793677Y-74650333D01*
X71796450Y-74602958D01*
X71800388Y-74569290D01*
X71805849Y-74545498D01*
X71813192Y-74527753D01*
X71822777Y-74512224D01*
X71826887Y-74506381D01*
X71881405Y-74451185D01*
X71950336Y-74419890D01*
X72030072Y-74411165D01*
X72099744Y-74419918D01*
D13*
%TO.C,BT1*%
X91800000Y-83000000D02*
X97500000Y-83000000D01*
X91800000Y-83000000D02*
X91800000Y-77000000D01*
X91800000Y-77000000D02*
X97500000Y-77000000D01*
X98251754Y-76473616D02*
G75*
G02*
X97500000Y-77000000I-751754J273616D01*
G01*
X120695671Y-80045281D02*
G75*
G03*
X98250000Y-76500000I-11495671J45281D01*
G01*
X98251754Y-83526384D02*
G75*
G03*
X97500000Y-83000000I-751754J-273616D01*
G01*
X120695671Y-79954719D02*
G75*
G02*
X98250000Y-83500000I-11495671J-45281D01*
G01*
D14*
%TO.C,U1*%
X42360000Y-26710000D02*
X119860000Y-26710000D01*
X121360000Y-28210000D02*
X121360000Y-95210000D01*
X119860000Y-96710000D02*
X42360000Y-96710000D01*
X40860000Y-95210000D02*
X40860000Y-74710000D01*
X40860000Y-74710000D02*
X38860000Y-72710000D01*
X38860000Y-72710000D02*
X38860000Y-39710000D01*
X38860000Y-39710000D02*
X40860000Y-37710000D01*
X40860000Y-37710000D02*
X40860000Y-28210000D01*
X90890000Y-89690000D02*
X42630000Y-89690000D01*
X42630000Y-89690000D02*
X42630000Y-94690000D01*
X42630000Y-94690000D02*
X90890000Y-94690000D01*
X90890000Y-94690000D02*
X90890000Y-89690000D01*
X90890000Y-28730000D02*
X42630000Y-28730000D01*
X42630000Y-28730000D02*
X42630000Y-33730000D01*
X42630000Y-33730000D02*
X90890000Y-33730000D01*
X90890000Y-33730000D02*
X90890000Y-28730000D01*
D15*
X89720000Y-28210000D02*
G75*
G03*
X89720000Y-28210000I-100000J0D01*
G01*
X89720000Y-89170000D02*
G75*
G03*
X89720000Y-89170000I-100000J0D01*
G01*
D14*
X119860000Y-26710000D02*
G75*
G02*
X121360000Y-28210000I0J-1500000D01*
G01*
X121360000Y-95210000D02*
G75*
G02*
X119860000Y-96710000I-1500000J0D01*
G01*
X42360000Y-96710000D02*
G75*
G02*
X40860000Y-95210000I0J1500000D01*
G01*
X40860000Y-28210000D02*
G75*
G02*
X42360000Y-26710000I1500000J0D01*
G01*
D13*
%TO.C,J1*%
X59950000Y-67330000D02*
X59950000Y-64670000D01*
X88770000Y-47330000D02*
X98990000Y-47330000D01*
X88770000Y-47330000D02*
X88770000Y-44670000D01*
X88770000Y-44670000D02*
X98990000Y-44670000D01*
X51000000Y-67330000D02*
X49670000Y-67330000D01*
X52270000Y-67330000D02*
X59950000Y-67330000D01*
X98990000Y-47330000D02*
X98990000Y-44670000D01*
X52270000Y-67330000D02*
X52270000Y-64670000D01*
X52270000Y-64670000D02*
X59950000Y-64670000D01*
X86170000Y-47330000D02*
X86170000Y-46000000D01*
X87500000Y-47330000D02*
X86170000Y-47330000D01*
X49670000Y-67330000D02*
X49670000Y-66000000D01*
X97270000Y-59170000D02*
X104950000Y-59170000D01*
X97270000Y-61830000D02*
X97270000Y-59170000D01*
X104950000Y-61830000D02*
X104950000Y-59170000D01*
X94670000Y-61830000D02*
X94670000Y-60500000D01*
X97270000Y-61830000D02*
X104950000Y-61830000D01*
X96000000Y-61830000D02*
X94670000Y-61830000D01*
X92950000Y-54330000D02*
X92950000Y-51670000D01*
X85270000Y-54330000D02*
X85270000Y-51670000D01*
X82670000Y-54330000D02*
X82670000Y-53000000D01*
X85270000Y-54330000D02*
X92950000Y-54330000D01*
X85270000Y-51670000D02*
X92950000Y-51670000D01*
X84000000Y-54330000D02*
X82670000Y-54330000D01*
X85270000Y-61830000D02*
X85270000Y-59170000D01*
X85270000Y-59170000D02*
X92950000Y-59170000D01*
X82670000Y-61830000D02*
X82670000Y-60500000D01*
X85270000Y-61830000D02*
X92950000Y-61830000D01*
X92950000Y-61830000D02*
X92950000Y-59170000D01*
X84000000Y-61830000D02*
X82670000Y-61830000D01*
X78770000Y-54330000D02*
X81370000Y-54330000D01*
X76170000Y-54330000D02*
X76170000Y-53000000D01*
X78770000Y-51670000D02*
X81370000Y-51670000D01*
X78770000Y-54330000D02*
X78770000Y-51670000D01*
X81370000Y-54330000D02*
X81370000Y-51670000D01*
X77500000Y-54330000D02*
X76170000Y-54330000D01*
X103870000Y-65830000D02*
X103870000Y-63170000D01*
X100000000Y-65830000D02*
X98670000Y-65830000D01*
X101270000Y-63170000D02*
X103870000Y-63170000D01*
X101270000Y-65830000D02*
X101270000Y-63170000D01*
X98670000Y-65830000D02*
X98670000Y-64500000D01*
X101270000Y-65830000D02*
X103870000Y-65830000D01*
X90270000Y-63170000D02*
X92870000Y-63170000D01*
X87670000Y-65830000D02*
X87670000Y-64500000D01*
X90270000Y-65830000D02*
X92870000Y-65830000D01*
X89000000Y-65830000D02*
X87670000Y-65830000D01*
X92870000Y-65830000D02*
X92870000Y-63170000D01*
X90270000Y-65830000D02*
X90270000Y-63170000D01*
%TO.C,BT1*%
D10*
X93214285Y-75628571D02*
X93357142Y-75676190D01*
X93404761Y-75723809D01*
X93452380Y-75819047D01*
X93452380Y-75961904D01*
X93404761Y-76057142D01*
X93357142Y-76104761D01*
X93261904Y-76152380D01*
X92880952Y-76152380D01*
X92880952Y-75152380D01*
X93214285Y-75152380D01*
X93309523Y-75200000D01*
X93357142Y-75247619D01*
X93404761Y-75342857D01*
X93404761Y-75438095D01*
X93357142Y-75533333D01*
X93309523Y-75580952D01*
X93214285Y-75628571D01*
X92880952Y-75628571D01*
X93738095Y-75152380D02*
X94309523Y-75152380D01*
X94023809Y-76152380D02*
X94023809Y-75152380D01*
X95166666Y-76152380D02*
X94595238Y-76152380D01*
X94880952Y-76152380D02*
X94880952Y-75152380D01*
X94785714Y-75295238D01*
X94690476Y-75390476D01*
X94595238Y-75438095D01*
X79428571Y-93607142D02*
X80571428Y-93607142D01*
X80000000Y-94178571D02*
X80000000Y-93035714D01*
%TO.C,J1*%
X48166666Y-63952380D02*
X48166666Y-62952380D01*
X48404761Y-62952380D01*
X48547619Y-63000000D01*
X48642857Y-63095238D01*
X48690476Y-63190476D01*
X48738095Y-63380952D01*
X48738095Y-63523809D01*
X48690476Y-63714285D01*
X48642857Y-63809523D01*
X48547619Y-63904761D01*
X48404761Y-63952380D01*
X48166666Y-63952380D01*
X49690476Y-63000000D02*
X49595238Y-62952380D01*
X49452380Y-62952380D01*
X49309523Y-63000000D01*
X49214285Y-63095238D01*
X49166666Y-63190476D01*
X49119047Y-63380952D01*
X49119047Y-63523809D01*
X49166666Y-63714285D01*
X49214285Y-63809523D01*
X49309523Y-63904761D01*
X49452380Y-63952380D01*
X49547619Y-63952380D01*
X49690476Y-63904761D01*
X49738095Y-63857142D01*
X49738095Y-63523809D01*
X49547619Y-63523809D01*
X50166666Y-63952380D02*
X50166666Y-62952380D01*
X50738095Y-63952380D01*
X50738095Y-62952380D01*
X51214285Y-63952380D02*
X51214285Y-62952380D01*
X51452380Y-62952380D01*
X51595238Y-63000000D01*
X51690476Y-63095238D01*
X51738095Y-63190476D01*
X51785714Y-63380952D01*
X51785714Y-63523809D01*
X51738095Y-63714285D01*
X51690476Y-63809523D01*
X51595238Y-63904761D01*
X51452380Y-63952380D01*
X51214285Y-63952380D01*
X52976190Y-63952380D02*
X52976190Y-62952380D01*
X52976190Y-63428571D02*
X53547619Y-63428571D01*
X53547619Y-63952380D02*
X53547619Y-62952380D01*
X54547619Y-63952380D02*
X53976190Y-63952380D01*
X54261904Y-63952380D02*
X54261904Y-62952380D01*
X54166666Y-63095238D01*
X54071428Y-63190476D01*
X53976190Y-63238095D01*
X56214285Y-63952380D02*
X55738095Y-63952380D01*
X55738095Y-62952380D01*
X57071428Y-63952380D02*
X56500000Y-63952380D01*
X56785714Y-63952380D02*
X56785714Y-62952380D01*
X56690476Y-63095238D01*
X56595238Y-63190476D01*
X56500000Y-63238095D01*
X58261904Y-63571428D02*
X59023809Y-63571428D01*
X58642857Y-63952380D02*
X58642857Y-63190476D01*
X59976190Y-62952380D02*
X59500000Y-62952380D01*
X59452380Y-63428571D01*
X59500000Y-63380952D01*
X59595238Y-63333333D01*
X59833333Y-63333333D01*
X59928571Y-63380952D01*
X59976190Y-63428571D01*
X60023809Y-63523809D01*
X60023809Y-63761904D01*
X59976190Y-63857142D01*
X59928571Y-63904761D01*
X59833333Y-63952380D01*
X59595238Y-63952380D01*
X59500000Y-63904761D01*
X59452380Y-63857142D01*
X60309523Y-62952380D02*
X60642857Y-63952380D01*
X60976190Y-62952380D01*
X61309523Y-63952380D02*
X61309523Y-62952380D01*
X61547619Y-62952380D01*
X61690476Y-63000000D01*
X61785714Y-63095238D01*
X61833333Y-63190476D01*
X61880952Y-63380952D01*
X61880952Y-63523809D01*
X61833333Y-63714285D01*
X61785714Y-63809523D01*
X61690476Y-63904761D01*
X61547619Y-63952380D01*
X61309523Y-63952380D01*
X82357142Y-48071428D02*
X83119047Y-48071428D01*
X82738095Y-48452380D02*
X82738095Y-47690476D01*
X84071428Y-47452380D02*
X83595238Y-47452380D01*
X83547619Y-47928571D01*
X83595238Y-47880952D01*
X83690476Y-47833333D01*
X83928571Y-47833333D01*
X84023809Y-47880952D01*
X84071428Y-47928571D01*
X84119047Y-48023809D01*
X84119047Y-48261904D01*
X84071428Y-48357142D01*
X84023809Y-48404761D01*
X83928571Y-48452380D01*
X83690476Y-48452380D01*
X83595238Y-48404761D01*
X83547619Y-48357142D01*
X84404761Y-47452380D02*
X84738095Y-48452380D01*
X85071428Y-47452380D01*
X85404761Y-48452380D02*
X85404761Y-47452380D01*
X85642857Y-47452380D01*
X85785714Y-47500000D01*
X85880952Y-47595238D01*
X85928571Y-47690476D01*
X85976190Y-47880952D01*
X85976190Y-48023809D01*
X85928571Y-48214285D01*
X85880952Y-48309523D01*
X85785714Y-48404761D01*
X85642857Y-48452380D01*
X85404761Y-48452380D01*
X87166666Y-48452380D02*
X87166666Y-47452380D01*
X87404761Y-47452380D01*
X87547619Y-47500000D01*
X87642857Y-47595238D01*
X87690476Y-47690476D01*
X87738095Y-47880952D01*
X87738095Y-48023809D01*
X87690476Y-48214285D01*
X87642857Y-48309523D01*
X87547619Y-48404761D01*
X87404761Y-48452380D01*
X87166666Y-48452380D01*
X88690476Y-47500000D02*
X88595238Y-47452380D01*
X88452380Y-47452380D01*
X88309523Y-47500000D01*
X88214285Y-47595238D01*
X88166666Y-47690476D01*
X88119047Y-47880952D01*
X88119047Y-48023809D01*
X88166666Y-48214285D01*
X88214285Y-48309523D01*
X88309523Y-48404761D01*
X88452380Y-48452380D01*
X88547619Y-48452380D01*
X88690476Y-48404761D01*
X88738095Y-48357142D01*
X88738095Y-48023809D01*
X88547619Y-48023809D01*
X89166666Y-48452380D02*
X89166666Y-47452380D01*
X89738095Y-48452380D01*
X89738095Y-47452380D01*
X90214285Y-48452380D02*
X90214285Y-47452380D01*
X90452380Y-47452380D01*
X90595238Y-47500000D01*
X90690476Y-47595238D01*
X90738095Y-47690476D01*
X90785714Y-47880952D01*
X90785714Y-48023809D01*
X90738095Y-48214285D01*
X90690476Y-48309523D01*
X90595238Y-48404761D01*
X90452380Y-48452380D01*
X90214285Y-48452380D01*
X92452380Y-48452380D02*
X91976190Y-48452380D01*
X91976190Y-47452380D01*
X92738095Y-47547619D02*
X92785714Y-47500000D01*
X92880952Y-47452380D01*
X93119047Y-47452380D01*
X93214285Y-47500000D01*
X93261904Y-47547619D01*
X93309523Y-47642857D01*
X93309523Y-47738095D01*
X93261904Y-47880952D01*
X92690476Y-48452380D01*
X93309523Y-48452380D01*
X94499999Y-48452380D02*
X94499999Y-47452380D01*
X94499999Y-47928571D02*
X95071428Y-47928571D01*
X95071428Y-48452380D02*
X95071428Y-47452380D01*
X95499999Y-47547619D02*
X95547619Y-47500000D01*
X95642857Y-47452380D01*
X95880952Y-47452380D01*
X95976190Y-47500000D01*
X96023809Y-47547619D01*
X96071428Y-47642857D01*
X96071428Y-47738095D01*
X96023809Y-47880952D01*
X95452380Y-48452380D01*
X96071428Y-48452380D01*
X97261904Y-48452380D02*
X97261904Y-47452380D01*
X97833333Y-48452380D01*
X97833333Y-47452380D01*
X98071428Y-48547619D02*
X98833333Y-48547619D01*
X99595238Y-47500000D02*
X99499999Y-47452380D01*
X99357142Y-47452380D01*
X99214285Y-47500000D01*
X99119047Y-47595238D01*
X99071428Y-47690476D01*
X99023809Y-47880952D01*
X99023809Y-48023809D01*
X99071428Y-48214285D01*
X99119047Y-48309523D01*
X99214285Y-48404761D01*
X99357142Y-48452380D01*
X99452380Y-48452380D01*
X99595238Y-48404761D01*
X99642857Y-48357142D01*
X99642857Y-48023809D01*
X99452380Y-48023809D01*
X100071428Y-48452380D02*
X100071428Y-47452380D01*
X100642857Y-48452380D01*
X100642857Y-47452380D01*
X101119047Y-48452380D02*
X101119047Y-47452380D01*
X101357142Y-47452380D01*
X101499999Y-47500000D01*
X101595238Y-47595238D01*
X101642857Y-47690476D01*
X101690476Y-47880952D01*
X101690476Y-48023809D01*
X101642857Y-48214285D01*
X101595238Y-48309523D01*
X101499999Y-48404761D01*
X101357142Y-48452380D01*
X101119047Y-48452380D01*
X100071428Y-66452380D02*
X100404761Y-67452380D01*
X100738095Y-66452380D01*
X101023809Y-66547619D02*
X101071428Y-66500000D01*
X101166666Y-66452380D01*
X101404761Y-66452380D01*
X101500000Y-66500000D01*
X101547619Y-66547619D01*
X101595238Y-66642857D01*
X101595238Y-66738095D01*
X101547619Y-66880952D01*
X100976190Y-67452380D01*
X101595238Y-67452380D01*
X102023809Y-67071428D02*
X102785714Y-67071428D01*
X102404761Y-67452380D02*
X102404761Y-66690476D01*
X89071428Y-66452380D02*
X89404761Y-67452380D01*
X89738095Y-66452380D01*
X90595238Y-67452380D02*
X90023809Y-67452380D01*
X90309523Y-67452380D02*
X90309523Y-66452380D01*
X90214285Y-66595238D01*
X90119047Y-66690476D01*
X90023809Y-66738095D01*
X91023809Y-67071428D02*
X91785714Y-67071428D01*
X91404761Y-67452380D02*
X91404761Y-66690476D01*
X82666666Y-58452380D02*
X82666666Y-57452380D01*
X83666666Y-58452380D02*
X83095238Y-58452380D01*
X83380952Y-58452380D02*
X83380952Y-57452380D01*
X83285714Y-57595238D01*
X83190476Y-57690476D01*
X83095238Y-57738095D01*
X84857142Y-58452380D02*
X84857142Y-57452380D01*
X85285714Y-57547619D02*
X85333333Y-57500000D01*
X85428571Y-57452380D01*
X85666666Y-57452380D01*
X85761904Y-57500000D01*
X85809523Y-57547619D01*
X85857142Y-57642857D01*
X85857142Y-57738095D01*
X85809523Y-57880952D01*
X85238095Y-58452380D01*
X85857142Y-58452380D01*
X87047619Y-58452380D02*
X87047619Y-57452380D01*
X87523809Y-58452380D02*
X87523809Y-57452380D01*
X87523809Y-57928571D02*
X88095238Y-57928571D01*
X88095238Y-58452380D02*
X88095238Y-57452380D01*
X89000000Y-57785714D02*
X89000000Y-58595238D01*
X88952380Y-58690476D01*
X88904761Y-58738095D01*
X88809523Y-58785714D01*
X88666666Y-58785714D01*
X88571428Y-58738095D01*
X89000000Y-58404761D02*
X88904761Y-58452380D01*
X88714285Y-58452380D01*
X88619047Y-58404761D01*
X88571428Y-58357142D01*
X88523809Y-58261904D01*
X88523809Y-57976190D01*
X88571428Y-57880952D01*
X88619047Y-57833333D01*
X88714285Y-57785714D01*
X88904761Y-57785714D01*
X89000000Y-57833333D01*
X89476190Y-58452380D02*
X89476190Y-57452380D01*
X89904761Y-58452380D02*
X89904761Y-57928571D01*
X89857142Y-57833333D01*
X89761904Y-57785714D01*
X89619047Y-57785714D01*
X89523809Y-57833333D01*
X89476190Y-57880952D01*
X91000000Y-57452380D02*
X91571428Y-57452380D01*
X91285714Y-58452380D02*
X91285714Y-57452380D01*
X91904761Y-57785714D02*
X91904761Y-58785714D01*
X91904761Y-57833333D02*
X92000000Y-57785714D01*
X92190476Y-57785714D01*
X92285714Y-57833333D01*
X92333333Y-57880952D01*
X92380952Y-57976190D01*
X92380952Y-58261904D01*
X92333333Y-58357142D01*
X92285714Y-58404761D01*
X92190476Y-58452380D01*
X92000000Y-58452380D01*
X91904761Y-58404761D01*
X95309523Y-58452380D02*
X95309523Y-57452380D01*
X95547619Y-57452380D01*
X95690476Y-57500000D01*
X95785714Y-57595238D01*
X95833333Y-57690476D01*
X95880952Y-57880952D01*
X95880952Y-58023809D01*
X95833333Y-58214285D01*
X95785714Y-58309523D01*
X95690476Y-58404761D01*
X95547619Y-58452380D01*
X95309523Y-58452380D01*
X96833333Y-57500000D02*
X96738095Y-57452380D01*
X96595238Y-57452380D01*
X96452380Y-57500000D01*
X96357142Y-57595238D01*
X96309523Y-57690476D01*
X96261904Y-57880952D01*
X96261904Y-58023809D01*
X96309523Y-58214285D01*
X96357142Y-58309523D01*
X96452380Y-58404761D01*
X96595238Y-58452380D01*
X96690476Y-58452380D01*
X96833333Y-58404761D01*
X96880952Y-58357142D01*
X96880952Y-58023809D01*
X96690476Y-58023809D01*
X97309523Y-58452380D02*
X97309523Y-57452380D01*
X97880952Y-58452380D01*
X97880952Y-57452380D01*
X98357142Y-58452380D02*
X98357142Y-57452380D01*
X98595238Y-57452380D01*
X98738095Y-57500000D01*
X98833333Y-57595238D01*
X98880952Y-57690476D01*
X98928571Y-57880952D01*
X98928571Y-58023809D01*
X98880952Y-58214285D01*
X98833333Y-58309523D01*
X98738095Y-58404761D01*
X98595238Y-58452380D01*
X98357142Y-58452380D01*
X100119047Y-58071428D02*
X100880952Y-58071428D01*
X100500000Y-58452380D02*
X100500000Y-57690476D01*
X101833333Y-57452380D02*
X101357142Y-57452380D01*
X101309523Y-57928571D01*
X101357142Y-57880952D01*
X101452380Y-57833333D01*
X101690476Y-57833333D01*
X101785714Y-57880952D01*
X101833333Y-57928571D01*
X101880952Y-58023809D01*
X101880952Y-58261904D01*
X101833333Y-58357142D01*
X101785714Y-58404761D01*
X101690476Y-58452380D01*
X101452380Y-58452380D01*
X101357142Y-58404761D01*
X101309523Y-58357142D01*
X102166666Y-57452380D02*
X102500000Y-58452380D01*
X102833333Y-57452380D01*
X103166666Y-58452380D02*
X103166666Y-57452380D01*
X103404761Y-57452380D01*
X103547619Y-57500000D01*
X103642857Y-57595238D01*
X103690476Y-57690476D01*
X103738095Y-57880952D01*
X103738095Y-58023809D01*
X103690476Y-58214285D01*
X103642857Y-58309523D01*
X103547619Y-58404761D01*
X103404761Y-58452380D01*
X103166666Y-58452380D01*
X82595238Y-50952380D02*
X82595238Y-49952380D01*
X82833333Y-49952380D01*
X82976190Y-50000000D01*
X83071428Y-50095238D01*
X83119047Y-50190476D01*
X83166666Y-50380952D01*
X83166666Y-50523809D01*
X83119047Y-50714285D01*
X83071428Y-50809523D01*
X82976190Y-50904761D01*
X82833333Y-50952380D01*
X82595238Y-50952380D01*
X84119047Y-50000000D02*
X84023809Y-49952380D01*
X83880952Y-49952380D01*
X83738095Y-50000000D01*
X83642857Y-50095238D01*
X83595238Y-50190476D01*
X83547619Y-50380952D01*
X83547619Y-50523809D01*
X83595238Y-50714285D01*
X83642857Y-50809523D01*
X83738095Y-50904761D01*
X83880952Y-50952380D01*
X83976190Y-50952380D01*
X84119047Y-50904761D01*
X84166666Y-50857142D01*
X84166666Y-50523809D01*
X83976190Y-50523809D01*
X84595238Y-50952380D02*
X84595238Y-49952380D01*
X85166666Y-50952380D01*
X85166666Y-49952380D01*
X85642857Y-50952380D02*
X85642857Y-49952380D01*
X85880952Y-49952380D01*
X86023809Y-50000000D01*
X86119047Y-50095238D01*
X86166666Y-50190476D01*
X86214285Y-50380952D01*
X86214285Y-50523809D01*
X86166666Y-50714285D01*
X86119047Y-50809523D01*
X86023809Y-50904761D01*
X85880952Y-50952380D01*
X85642857Y-50952380D01*
X87404761Y-50571428D02*
X88166666Y-50571428D01*
X87785714Y-50952380D02*
X87785714Y-50190476D01*
X88547619Y-49952380D02*
X89166666Y-49952380D01*
X88833333Y-50333333D01*
X88976190Y-50333333D01*
X89071428Y-50380952D01*
X89119047Y-50428571D01*
X89166666Y-50523809D01*
X89166666Y-50761904D01*
X89119047Y-50857142D01*
X89071428Y-50904761D01*
X88976190Y-50952380D01*
X88690476Y-50952380D01*
X88595238Y-50904761D01*
X88547619Y-50857142D01*
X89595238Y-50857142D02*
X89642857Y-50904761D01*
X89595238Y-50952380D01*
X89547619Y-50904761D01*
X89595238Y-50857142D01*
X89595238Y-50952380D01*
X89976190Y-49952380D02*
X90595238Y-49952380D01*
X90261904Y-50333333D01*
X90404761Y-50333333D01*
X90500000Y-50380952D01*
X90547619Y-50428571D01*
X90595238Y-50523809D01*
X90595238Y-50761904D01*
X90547619Y-50857142D01*
X90500000Y-50904761D01*
X90404761Y-50952380D01*
X90119047Y-50952380D01*
X90023809Y-50904761D01*
X89976190Y-50857142D01*
X90880952Y-49952380D02*
X91214285Y-50952380D01*
X91547619Y-49952380D01*
X91880952Y-50952380D02*
X91880952Y-49952380D01*
X92119047Y-49952380D01*
X92261904Y-50000000D01*
X92357142Y-50095238D01*
X92404761Y-50190476D01*
X92452380Y-50380952D01*
X92452380Y-50523809D01*
X92404761Y-50714285D01*
X92357142Y-50809523D01*
X92261904Y-50904761D01*
X92119047Y-50952380D01*
X91880952Y-50952380D01*
X76119047Y-49952380D02*
X76452380Y-50952380D01*
X76785714Y-49952380D01*
X77119047Y-50952380D02*
X77119047Y-49952380D01*
X77119047Y-50428571D02*
X77690476Y-50428571D01*
X77690476Y-50952380D02*
X77690476Y-49952380D01*
X78595238Y-50285714D02*
X78595238Y-51095238D01*
X78547619Y-51190476D01*
X78500000Y-51238095D01*
X78404761Y-51285714D01*
X78261904Y-51285714D01*
X78166666Y-51238095D01*
X78595238Y-50904761D02*
X78500000Y-50952380D01*
X78309523Y-50952380D01*
X78214285Y-50904761D01*
X78166666Y-50857142D01*
X78119047Y-50761904D01*
X78119047Y-50476190D01*
X78166666Y-50380952D01*
X78214285Y-50333333D01*
X78309523Y-50285714D01*
X78500000Y-50285714D01*
X78595238Y-50333333D01*
X79071428Y-50952380D02*
X79071428Y-49952380D01*
X79500000Y-50952380D02*
X79500000Y-50428571D01*
X79452380Y-50333333D01*
X79357142Y-50285714D01*
X79214285Y-50285714D01*
X79119047Y-50333333D01*
X79071428Y-50380952D01*
X79976190Y-50571428D02*
X80738095Y-50571428D01*
X80357142Y-50952380D02*
X80357142Y-50190476D01*
%TD*%
M02*
