%TF.GenerationSoftware,KiCad,Pcbnew,5.1.6-c6e7f7d~86~ubuntu20.04.1*%
%TF.CreationDate,2020-09-07T12:25:12+02:00*%
%TF.ProjectId,Shield_Nucleo,53686965-6c64-45f4-9e75-636c656f2e6b,rev?*%
%TF.SameCoordinates,Original*%
%TF.FileFunction,Legend,Bot*%
%TF.FilePolarity,Positive*%
%FSLAX46Y46*%
G04 Gerber Fmt 4.6, Leading zero omitted, Abs format (unit mm)*
G04 Created by KiCad (PCBNEW 5.1.6-c6e7f7d~86~ubuntu20.04.1) date 2020-09-07 12:25:12*
%MOMM*%
%LPD*%
G01*
G04 APERTURE LIST*
%ADD10C,0.150000*%
G04 APERTURE END LIST*
%TO.C,J1*%
D10*
X101642857Y-48452380D02*
X101642857Y-47452380D01*
X101071428Y-48452380D01*
X101071428Y-47452380D01*
X100833333Y-48547619D02*
X100071428Y-48547619D01*
X99309523Y-47500000D02*
X99404761Y-47452380D01*
X99547619Y-47452380D01*
X99690476Y-47500000D01*
X99785714Y-47595238D01*
X99833333Y-47690476D01*
X99880952Y-47880952D01*
X99880952Y-48023809D01*
X99833333Y-48214285D01*
X99785714Y-48309523D01*
X99690476Y-48404761D01*
X99547619Y-48452380D01*
X99452380Y-48452380D01*
X99309523Y-48404761D01*
X99261904Y-48357142D01*
X99261904Y-48023809D01*
X99452380Y-48023809D01*
X98833333Y-48452380D02*
X98833333Y-47452380D01*
X98261904Y-48452380D01*
X98261904Y-47452380D01*
X97785714Y-48452380D02*
X97785714Y-47452380D01*
X97547619Y-47452380D01*
X97404761Y-47500000D01*
X97309523Y-47595238D01*
X97261904Y-47690476D01*
X97214285Y-47880952D01*
X97214285Y-48023809D01*
X97261904Y-48214285D01*
X97309523Y-48309523D01*
X97404761Y-48404761D01*
X97547619Y-48452380D01*
X97785714Y-48452380D01*
X96023809Y-48452380D02*
X96023809Y-47452380D01*
X96023809Y-47928571D02*
X95452380Y-47928571D01*
X95452380Y-48452380D02*
X95452380Y-47452380D01*
X95023809Y-47547619D02*
X94976190Y-47500000D01*
X94880952Y-47452380D01*
X94642857Y-47452380D01*
X94547619Y-47500000D01*
X94500000Y-47547619D01*
X94452380Y-47642857D01*
X94452380Y-47738095D01*
X94500000Y-47880952D01*
X95071428Y-48452380D01*
X94452380Y-48452380D01*
X92785714Y-48452380D02*
X93261904Y-48452380D01*
X93261904Y-47452380D01*
X92500000Y-47547619D02*
X92452380Y-47500000D01*
X92357142Y-47452380D01*
X92119047Y-47452380D01*
X92023809Y-47500000D01*
X91976190Y-47547619D01*
X91928571Y-47642857D01*
X91928571Y-47738095D01*
X91976190Y-47880952D01*
X92547619Y-48452380D01*
X91928571Y-48452380D01*
X90738095Y-48452380D02*
X90738095Y-47452380D01*
X90500000Y-47452380D01*
X90357142Y-47500000D01*
X90261904Y-47595238D01*
X90214285Y-47690476D01*
X90166666Y-47880952D01*
X90166666Y-48023809D01*
X90214285Y-48214285D01*
X90261904Y-48309523D01*
X90357142Y-48404761D01*
X90500000Y-48452380D01*
X90738095Y-48452380D01*
X89214285Y-47500000D02*
X89309523Y-47452380D01*
X89452380Y-47452380D01*
X89595238Y-47500000D01*
X89690476Y-47595238D01*
X89738095Y-47690476D01*
X89785714Y-47880952D01*
X89785714Y-48023809D01*
X89738095Y-48214285D01*
X89690476Y-48309523D01*
X89595238Y-48404761D01*
X89452380Y-48452380D01*
X89357142Y-48452380D01*
X89214285Y-48404761D01*
X89166666Y-48357142D01*
X89166666Y-48023809D01*
X89357142Y-48023809D01*
X88738095Y-48452380D02*
X88738095Y-47452380D01*
X88166666Y-48452380D01*
X88166666Y-47452380D01*
X87690476Y-48452380D02*
X87690476Y-47452380D01*
X87452380Y-47452380D01*
X87309523Y-47500000D01*
X87214285Y-47595238D01*
X87166666Y-47690476D01*
X87119047Y-47880952D01*
X87119047Y-48023809D01*
X87166666Y-48214285D01*
X87214285Y-48309523D01*
X87309523Y-48404761D01*
X87452380Y-48452380D01*
X87690476Y-48452380D01*
X85928571Y-48071428D02*
X85166666Y-48071428D01*
X85547619Y-48452380D02*
X85547619Y-47690476D01*
X84214285Y-47452380D02*
X84690476Y-47452380D01*
X84738095Y-47928571D01*
X84690476Y-47880952D01*
X84595238Y-47833333D01*
X84357142Y-47833333D01*
X84261904Y-47880952D01*
X84214285Y-47928571D01*
X84166666Y-48023809D01*
X84166666Y-48261904D01*
X84214285Y-48357142D01*
X84261904Y-48404761D01*
X84357142Y-48452380D01*
X84595238Y-48452380D01*
X84690476Y-48404761D01*
X84738095Y-48357142D01*
X83880952Y-47452380D02*
X83547619Y-48452380D01*
X83214285Y-47452380D01*
X82880952Y-48452380D02*
X82880952Y-47452380D01*
X82642857Y-47452380D01*
X82500000Y-47500000D01*
X82404761Y-47595238D01*
X82357142Y-47690476D01*
X82309523Y-47880952D01*
X82309523Y-48023809D01*
X82357142Y-48214285D01*
X82404761Y-48309523D01*
X82500000Y-48404761D01*
X82642857Y-48452380D01*
X82880952Y-48452380D01*
X61833333Y-63571428D02*
X61071428Y-63571428D01*
X61452380Y-63952380D02*
X61452380Y-63190476D01*
X60119047Y-62952380D02*
X60595238Y-62952380D01*
X60642857Y-63428571D01*
X60595238Y-63380952D01*
X60500000Y-63333333D01*
X60261904Y-63333333D01*
X60166666Y-63380952D01*
X60119047Y-63428571D01*
X60071428Y-63523809D01*
X60071428Y-63761904D01*
X60119047Y-63857142D01*
X60166666Y-63904761D01*
X60261904Y-63952380D01*
X60500000Y-63952380D01*
X60595238Y-63904761D01*
X60642857Y-63857142D01*
X59785714Y-62952380D02*
X59452380Y-63952380D01*
X59119047Y-62952380D01*
X58785714Y-63952380D02*
X58785714Y-62952380D01*
X58547619Y-62952380D01*
X58404761Y-63000000D01*
X58309523Y-63095238D01*
X58261904Y-63190476D01*
X58214285Y-63380952D01*
X58214285Y-63523809D01*
X58261904Y-63714285D01*
X58309523Y-63809523D01*
X58404761Y-63904761D01*
X58547619Y-63952380D01*
X58785714Y-63952380D01*
X56547619Y-63952380D02*
X57023809Y-63952380D01*
X57023809Y-62952380D01*
X55690476Y-63952380D02*
X56261904Y-63952380D01*
X55976190Y-63952380D02*
X55976190Y-62952380D01*
X56071428Y-63095238D01*
X56166666Y-63190476D01*
X56261904Y-63238095D01*
X54500000Y-63952380D02*
X54500000Y-62952380D01*
X54500000Y-63428571D02*
X53928571Y-63428571D01*
X53928571Y-63952380D02*
X53928571Y-62952380D01*
X52928571Y-63952380D02*
X53500000Y-63952380D01*
X53214285Y-63952380D02*
X53214285Y-62952380D01*
X53309523Y-63095238D01*
X53404761Y-63190476D01*
X53500000Y-63238095D01*
X51738095Y-63952380D02*
X51738095Y-62952380D01*
X51500000Y-62952380D01*
X51357142Y-63000000D01*
X51261904Y-63095238D01*
X51214285Y-63190476D01*
X51166666Y-63380952D01*
X51166666Y-63523809D01*
X51214285Y-63714285D01*
X51261904Y-63809523D01*
X51357142Y-63904761D01*
X51500000Y-63952380D01*
X51738095Y-63952380D01*
X50214285Y-63000000D02*
X50309523Y-62952380D01*
X50452380Y-62952380D01*
X50595238Y-63000000D01*
X50690476Y-63095238D01*
X50738095Y-63190476D01*
X50785714Y-63380952D01*
X50785714Y-63523809D01*
X50738095Y-63714285D01*
X50690476Y-63809523D01*
X50595238Y-63904761D01*
X50452380Y-63952380D01*
X50357142Y-63952380D01*
X50214285Y-63904761D01*
X50166666Y-63857142D01*
X50166666Y-63523809D01*
X50357142Y-63523809D01*
X49738095Y-63952380D02*
X49738095Y-62952380D01*
X49166666Y-63952380D01*
X49166666Y-62952380D01*
X48690476Y-63952380D02*
X48690476Y-62952380D01*
X48452380Y-62952380D01*
X48309523Y-63000000D01*
X48214285Y-63095238D01*
X48166666Y-63190476D01*
X48119047Y-63380952D01*
X48119047Y-63523809D01*
X48166666Y-63714285D01*
X48214285Y-63809523D01*
X48309523Y-63904761D01*
X48452380Y-63952380D01*
X48690476Y-63952380D01*
X91785714Y-67071428D02*
X91023809Y-67071428D01*
X91404761Y-67452380D02*
X91404761Y-66690476D01*
X90690476Y-66452380D02*
X90357142Y-67452380D01*
X90023809Y-66452380D01*
X89166666Y-67452380D02*
X89738095Y-67452380D01*
X89452380Y-67452380D02*
X89452380Y-66452380D01*
X89547619Y-66595238D01*
X89642857Y-66690476D01*
X89738095Y-66738095D01*
X102785714Y-67071428D02*
X102023809Y-67071428D01*
X102404761Y-67452380D02*
X102404761Y-66690476D01*
X101690476Y-66452380D02*
X101357142Y-67452380D01*
X101023809Y-66452380D01*
X100738095Y-66547619D02*
X100690476Y-66500000D01*
X100595238Y-66452380D01*
X100357142Y-66452380D01*
X100261904Y-66500000D01*
X100214285Y-66547619D01*
X100166666Y-66642857D01*
X100166666Y-66738095D01*
X100214285Y-66880952D01*
X100785714Y-67452380D01*
X100166666Y-67452380D01*
X103690476Y-58071428D02*
X102928571Y-58071428D01*
X103309523Y-58452380D02*
X103309523Y-57690476D01*
X101976190Y-57452380D02*
X102452380Y-57452380D01*
X102500000Y-57928571D01*
X102452380Y-57880952D01*
X102357142Y-57833333D01*
X102119047Y-57833333D01*
X102023809Y-57880952D01*
X101976190Y-57928571D01*
X101928571Y-58023809D01*
X101928571Y-58261904D01*
X101976190Y-58357142D01*
X102023809Y-58404761D01*
X102119047Y-58452380D01*
X102357142Y-58452380D01*
X102452380Y-58404761D01*
X102500000Y-58357142D01*
X101642857Y-57452380D02*
X101309523Y-58452380D01*
X100976190Y-57452380D01*
X100642857Y-58452380D02*
X100642857Y-57452380D01*
X100404761Y-57452380D01*
X100261904Y-57500000D01*
X100166666Y-57595238D01*
X100119047Y-57690476D01*
X100071428Y-57880952D01*
X100071428Y-58023809D01*
X100119047Y-58214285D01*
X100166666Y-58309523D01*
X100261904Y-58404761D01*
X100404761Y-58452380D01*
X100642857Y-58452380D01*
X98880952Y-58452380D02*
X98880952Y-57452380D01*
X98642857Y-57452380D01*
X98500000Y-57500000D01*
X98404761Y-57595238D01*
X98357142Y-57690476D01*
X98309523Y-57880952D01*
X98309523Y-58023809D01*
X98357142Y-58214285D01*
X98404761Y-58309523D01*
X98500000Y-58404761D01*
X98642857Y-58452380D01*
X98880952Y-58452380D01*
X97357142Y-57500000D02*
X97452380Y-57452380D01*
X97595238Y-57452380D01*
X97738095Y-57500000D01*
X97833333Y-57595238D01*
X97880952Y-57690476D01*
X97928571Y-57880952D01*
X97928571Y-58023809D01*
X97880952Y-58214285D01*
X97833333Y-58309523D01*
X97738095Y-58404761D01*
X97595238Y-58452380D01*
X97500000Y-58452380D01*
X97357142Y-58404761D01*
X97309523Y-58357142D01*
X97309523Y-58023809D01*
X97500000Y-58023809D01*
X96880952Y-58452380D02*
X96880952Y-57452380D01*
X96309523Y-58452380D01*
X96309523Y-57452380D01*
X95833333Y-58452380D02*
X95833333Y-57452380D01*
X95595238Y-57452380D01*
X95452380Y-57500000D01*
X95357142Y-57595238D01*
X95309523Y-57690476D01*
X95261904Y-57880952D01*
X95261904Y-58023809D01*
X95309523Y-58214285D01*
X95357142Y-58309523D01*
X95452380Y-58404761D01*
X95595238Y-58452380D01*
X95833333Y-58452380D01*
X92476190Y-57452380D02*
X91904761Y-57452380D01*
X92190476Y-58452380D02*
X92190476Y-57452380D01*
X91571428Y-57785714D02*
X91571428Y-58785714D01*
X91571428Y-57833333D02*
X91476190Y-57785714D01*
X91285714Y-57785714D01*
X91190476Y-57833333D01*
X91142857Y-57880952D01*
X91095238Y-57976190D01*
X91095238Y-58261904D01*
X91142857Y-58357142D01*
X91190476Y-58404761D01*
X91285714Y-58452380D01*
X91476190Y-58452380D01*
X91571428Y-58404761D01*
X89904761Y-58452380D02*
X89904761Y-57452380D01*
X89428571Y-58452380D02*
X89428571Y-57452380D01*
X89428571Y-57928571D02*
X88857142Y-57928571D01*
X88857142Y-58452380D02*
X88857142Y-57452380D01*
X87952380Y-57785714D02*
X87952380Y-58595238D01*
X88000000Y-58690476D01*
X88047619Y-58738095D01*
X88142857Y-58785714D01*
X88285714Y-58785714D01*
X88380952Y-58738095D01*
X87952380Y-58404761D02*
X88047619Y-58452380D01*
X88238095Y-58452380D01*
X88333333Y-58404761D01*
X88380952Y-58357142D01*
X88428571Y-58261904D01*
X88428571Y-57976190D01*
X88380952Y-57880952D01*
X88333333Y-57833333D01*
X88238095Y-57785714D01*
X88047619Y-57785714D01*
X87952380Y-57833333D01*
X87476190Y-58452380D02*
X87476190Y-57452380D01*
X87047619Y-58452380D02*
X87047619Y-57928571D01*
X87095238Y-57833333D01*
X87190476Y-57785714D01*
X87333333Y-57785714D01*
X87428571Y-57833333D01*
X87476190Y-57880952D01*
X85809523Y-58452380D02*
X85809523Y-57452380D01*
X85380952Y-57547619D02*
X85333333Y-57500000D01*
X85238095Y-57452380D01*
X85000000Y-57452380D01*
X84904761Y-57500000D01*
X84857142Y-57547619D01*
X84809523Y-57642857D01*
X84809523Y-57738095D01*
X84857142Y-57880952D01*
X85428571Y-58452380D01*
X84809523Y-58452380D01*
X83619047Y-58452380D02*
X83619047Y-57452380D01*
X82619047Y-58452380D02*
X83190476Y-58452380D01*
X82904761Y-58452380D02*
X82904761Y-57452380D01*
X83000000Y-57595238D01*
X83095238Y-57690476D01*
X83190476Y-57738095D01*
X92404761Y-50571428D02*
X91642857Y-50571428D01*
X92023809Y-50952380D02*
X92023809Y-50190476D01*
X91261904Y-49952380D02*
X90642857Y-49952380D01*
X90976190Y-50333333D01*
X90833333Y-50333333D01*
X90738095Y-50380952D01*
X90690476Y-50428571D01*
X90642857Y-50523809D01*
X90642857Y-50761904D01*
X90690476Y-50857142D01*
X90738095Y-50904761D01*
X90833333Y-50952380D01*
X91119047Y-50952380D01*
X91214285Y-50904761D01*
X91261904Y-50857142D01*
X90214285Y-50857142D02*
X90166666Y-50904761D01*
X90214285Y-50952380D01*
X90261904Y-50904761D01*
X90214285Y-50857142D01*
X90214285Y-50952380D01*
X89833333Y-49952380D02*
X89214285Y-49952380D01*
X89547619Y-50333333D01*
X89404761Y-50333333D01*
X89309523Y-50380952D01*
X89261904Y-50428571D01*
X89214285Y-50523809D01*
X89214285Y-50761904D01*
X89261904Y-50857142D01*
X89309523Y-50904761D01*
X89404761Y-50952380D01*
X89690476Y-50952380D01*
X89785714Y-50904761D01*
X89833333Y-50857142D01*
X88928571Y-49952380D02*
X88595238Y-50952380D01*
X88261904Y-49952380D01*
X87928571Y-50952380D02*
X87928571Y-49952380D01*
X87690476Y-49952380D01*
X87547619Y-50000000D01*
X87452380Y-50095238D01*
X87404761Y-50190476D01*
X87357142Y-50380952D01*
X87357142Y-50523809D01*
X87404761Y-50714285D01*
X87452380Y-50809523D01*
X87547619Y-50904761D01*
X87690476Y-50952380D01*
X87928571Y-50952380D01*
X86166666Y-50952380D02*
X86166666Y-49952380D01*
X85928571Y-49952380D01*
X85785714Y-50000000D01*
X85690476Y-50095238D01*
X85642857Y-50190476D01*
X85595238Y-50380952D01*
X85595238Y-50523809D01*
X85642857Y-50714285D01*
X85690476Y-50809523D01*
X85785714Y-50904761D01*
X85928571Y-50952380D01*
X86166666Y-50952380D01*
X84642857Y-50000000D02*
X84738095Y-49952380D01*
X84880952Y-49952380D01*
X85023809Y-50000000D01*
X85119047Y-50095238D01*
X85166666Y-50190476D01*
X85214285Y-50380952D01*
X85214285Y-50523809D01*
X85166666Y-50714285D01*
X85119047Y-50809523D01*
X85023809Y-50904761D01*
X84880952Y-50952380D01*
X84785714Y-50952380D01*
X84642857Y-50904761D01*
X84595238Y-50857142D01*
X84595238Y-50523809D01*
X84785714Y-50523809D01*
X84166666Y-50952380D02*
X84166666Y-49952380D01*
X83595238Y-50952380D01*
X83595238Y-49952380D01*
X83119047Y-50952380D02*
X83119047Y-49952380D01*
X82880952Y-49952380D01*
X82738095Y-50000000D01*
X82642857Y-50095238D01*
X82595238Y-50190476D01*
X82547619Y-50380952D01*
X82547619Y-50523809D01*
X82595238Y-50714285D01*
X82642857Y-50809523D01*
X82738095Y-50904761D01*
X82880952Y-50952380D01*
X83119047Y-50952380D01*
X80738095Y-50571428D02*
X79976190Y-50571428D01*
X80357142Y-50952380D02*
X80357142Y-50190476D01*
X79642857Y-49952380D02*
X79309523Y-50952380D01*
X78976190Y-49952380D01*
X78642857Y-50952380D02*
X78642857Y-49952380D01*
X78642857Y-50428571D02*
X78071428Y-50428571D01*
X78071428Y-50952380D02*
X78071428Y-49952380D01*
X77166666Y-50285714D02*
X77166666Y-51095238D01*
X77214285Y-51190476D01*
X77261904Y-51238095D01*
X77357142Y-51285714D01*
X77500000Y-51285714D01*
X77595238Y-51238095D01*
X77166666Y-50904761D02*
X77261904Y-50952380D01*
X77452380Y-50952380D01*
X77547619Y-50904761D01*
X77595238Y-50857142D01*
X77642857Y-50761904D01*
X77642857Y-50476190D01*
X77595238Y-50380952D01*
X77547619Y-50333333D01*
X77452380Y-50285714D01*
X77261904Y-50285714D01*
X77166666Y-50333333D01*
X76690476Y-50952380D02*
X76690476Y-49952380D01*
X76261904Y-50952380D02*
X76261904Y-50428571D01*
X76309523Y-50333333D01*
X76404761Y-50285714D01*
X76547619Y-50285714D01*
X76642857Y-50333333D01*
X76690476Y-50380952D01*
%TD*%
M02*
