G04 #@! TF.GenerationSoftware,KiCad,Pcbnew,5.1.7-a382d34a8~88~ubuntu20.04.1*
G04 #@! TF.CreationDate,2021-06-18T16:25:46+02:00*
G04 #@! TF.ProjectId,Power,506f7765-722e-46b6-9963-61645f706362,rev?*
G04 #@! TF.SameCoordinates,Original*
G04 #@! TF.FileFunction,Copper,L4,Bot*
G04 #@! TF.FilePolarity,Positive*
%FSLAX46Y46*%
G04 Gerber Fmt 4.6, Leading zero omitted, Abs format (unit mm)*
G04 Created by KiCad (PCBNEW 5.1.7-a382d34a8~88~ubuntu20.04.1) date 2021-06-18 16:25:46*
%MOMM*%
%LPD*%
G01*
G04 APERTURE LIST*
G04 #@! TA.AperFunction,SMDPad,CuDef*
%ADD10C,1.900000*%
G04 #@! TD*
G04 #@! TA.AperFunction,ComponentPad*
%ADD11C,1.000000*%
G04 #@! TD*
G04 #@! TA.AperFunction,ComponentPad*
%ADD12C,1.803400*%
G04 #@! TD*
G04 #@! TA.AperFunction,ComponentPad*
%ADD13C,3.500000*%
G04 #@! TD*
G04 #@! TA.AperFunction,ViaPad*
%ADD14C,0.800000*%
G04 #@! TD*
G04 #@! TA.AperFunction,Conductor*
%ADD15C,1.000000*%
G04 #@! TD*
G04 #@! TA.AperFunction,Conductor*
%ADD16C,0.250000*%
G04 #@! TD*
G04 #@! TA.AperFunction,Conductor*
%ADD17C,0.254000*%
G04 #@! TD*
G04 #@! TA.AperFunction,Conductor*
%ADD18C,0.150000*%
G04 #@! TD*
G04 APERTURE END LIST*
D10*
G04 #@! TO.P,J35,1*
G04 #@! TO.N,+5P*
X91440000Y-134620000D03*
D11*
X91440000Y-134620000D03*
G04 #@! TD*
D10*
G04 #@! TO.P,J34,1*
G04 #@! TO.N,/N*
X63500000Y-119380000D03*
D11*
X63500000Y-119380000D03*
G04 #@! TD*
D10*
G04 #@! TO.P,J3,1*
G04 #@! TO.N,+5V*
X60960000Y-119380000D03*
D11*
X60960000Y-119380000D03*
G04 #@! TD*
D10*
G04 #@! TO.P,J33,1*
G04 #@! TO.N,GNDREF*
X132080000Y-121920000D03*
D11*
X132080000Y-121920000D03*
G04 #@! TD*
D10*
G04 #@! TO.P,J30,1*
G04 #@! TO.N,/VI_High*
X132080000Y-124460000D03*
D11*
X132080000Y-124460000D03*
G04 #@! TD*
D10*
G04 #@! TO.P,J27,1*
G04 #@! TO.N,/DGND*
X89800000Y-109220000D03*
D11*
X89800000Y-109220000D03*
G04 #@! TD*
D10*
G04 #@! TO.P,J15,1*
G04 #@! TO.N,/IILow1_op*
X89800000Y-106680000D03*
D11*
X89800000Y-106680000D03*
G04 #@! TD*
D10*
G04 #@! TO.P,J32,1*
G04 #@! TO.N,/Vref*
X89800000Y-111760000D03*
D11*
X89800000Y-111760000D03*
G04 #@! TD*
D10*
G04 #@! TO.P,J31,1*
G04 #@! TO.N,GNDREF*
X104140000Y-86360000D03*
D11*
X104140000Y-86360000D03*
G04 #@! TD*
D10*
G04 #@! TO.P,J29,1*
G04 #@! TO.N,/DGND*
X94780000Y-109220000D03*
D11*
X94780000Y-109220000D03*
G04 #@! TD*
D10*
G04 #@! TO.P,J28,1*
G04 #@! TO.N,+5VD*
X94780000Y-111760000D03*
D11*
X94780000Y-111760000D03*
G04 #@! TD*
D10*
G04 #@! TO.P,J26,1*
G04 #@! TO.N,GNDREF*
X91440000Y-132080000D03*
D11*
X91440000Y-132080000D03*
G04 #@! TD*
D10*
G04 #@! TO.P,J25,1*
G04 #@! TO.N,/Neutral_GND_cmd*
X93980000Y-132080000D03*
D11*
X93980000Y-132080000D03*
G04 #@! TD*
D10*
G04 #@! TO.P,J24,1*
G04 #@! TO.N,GNDREF*
X50800000Y-86360000D03*
D11*
X50800000Y-86360000D03*
G04 #@! TD*
D10*
G04 #@! TO.P,J23,1*
G04 #@! TO.N,/PWM_L2*
X50800000Y-83820000D03*
D11*
X50800000Y-83820000D03*
G04 #@! TD*
D10*
G04 #@! TO.P,J22,1*
G04 #@! TO.N,/SW_Node2*
X50800000Y-68580000D03*
D11*
X50800000Y-68580000D03*
G04 #@! TD*
D10*
G04 #@! TO.P,J21,1*
G04 #@! TO.N,/PWM_H2*
X50800000Y-66040000D03*
D11*
X50800000Y-66040000D03*
G04 #@! TD*
D10*
G04 #@! TO.P,J20,1*
G04 #@! TO.N,/DGND*
X99860000Y-109220000D03*
D11*
X99860000Y-109220000D03*
G04 #@! TD*
D10*
G04 #@! TO.P,J19,1*
G04 #@! TO.N,/DGND*
X97320000Y-106680000D03*
D11*
X97320000Y-106680000D03*
G04 #@! TD*
D10*
G04 #@! TO.P,J18,1*
G04 #@! TO.N,/DGND*
X87400000Y-106680000D03*
D11*
X87400000Y-106680000D03*
G04 #@! TD*
D10*
G04 #@! TO.P,J17,1*
G04 #@! TO.N,/IIHigh_op*
X99860000Y-106680000D03*
D11*
X99860000Y-106680000D03*
G04 #@! TD*
D10*
G04 #@! TO.P,J16,1*
G04 #@! TO.N,/IILow2_op*
X94780000Y-106680000D03*
D11*
X94780000Y-106680000D03*
G04 #@! TD*
D10*
G04 #@! TO.P,J14,1*
G04 #@! TO.N,/DGND*
X97320000Y-116840000D03*
D11*
X97320000Y-116840000D03*
G04 #@! TD*
D10*
G04 #@! TO.P,J13,1*
G04 #@! TO.N,/DGND*
X84620000Y-109220000D03*
D11*
X84620000Y-109220000D03*
G04 #@! TD*
D10*
G04 #@! TO.P,J12,1*
G04 #@! TO.N,/DGND*
X87400000Y-116840000D03*
D11*
X87400000Y-116840000D03*
G04 #@! TD*
D10*
G04 #@! TO.P,J11,1*
G04 #@! TO.N,/VIHigh_op*
X97320000Y-114300000D03*
D11*
X97320000Y-114300000D03*
G04 #@! TD*
D10*
G04 #@! TO.P,J10,1*
G04 #@! TO.N,/VILow2_op*
X84620000Y-106680000D03*
D11*
X84620000Y-106680000D03*
G04 #@! TD*
D10*
G04 #@! TO.P,J9,1*
G04 #@! TO.N,/VILow1_op*
X87400000Y-114300000D03*
D11*
X87400000Y-114300000D03*
G04 #@! TD*
D10*
G04 #@! TO.P,J8,1*
G04 #@! TO.N,/SW_Node1*
X104140000Y-68580000D03*
D11*
X104140000Y-68580000D03*
G04 #@! TD*
D10*
G04 #@! TO.P,J7,1*
G04 #@! TO.N,/PWM_L1*
X104140000Y-83820000D03*
D11*
X104140000Y-83820000D03*
G04 #@! TD*
D10*
G04 #@! TO.P,J6,1*
G04 #@! TO.N,/PWM_H1*
X104140000Y-66040000D03*
D11*
X104140000Y-66040000D03*
G04 #@! TD*
D12*
G04 #@! TO.P,J1,4*
G04 #@! TO.N,Net-(F3-Pad2)*
X58500000Y-135199999D03*
G04 #@! TO.P,J1,2*
G04 #@! TO.N,Net-(F2-Pad2)*
X53500000Y-135199999D03*
G04 #@! TO.P,J1,3*
G04 #@! TO.N,Net-(F3-Pad2)*
X58500000Y-127000000D03*
G04 #@! TO.P,J1,1*
G04 #@! TO.N,Net-(F2-Pad2)*
X53500000Y-127000000D03*
G04 #@! TD*
G04 #@! TO.P,J2,4*
G04 #@! TO.N,/N*
X81000000Y-135199999D03*
G04 #@! TO.P,J2,2*
X76000000Y-135199999D03*
G04 #@! TO.P,J2,3*
X81000000Y-127000000D03*
G04 #@! TO.P,J2,1*
X76000000Y-127000000D03*
G04 #@! TD*
G04 #@! TO.P,J4,4*
G04 #@! TO.N,/VI_High*
X121500000Y-135199999D03*
G04 #@! TO.P,J4,2*
X116500000Y-135199999D03*
G04 #@! TO.P,J4,3*
X121500000Y-127000000D03*
G04 #@! TO.P,J4,1*
X116500000Y-127000000D03*
G04 #@! TD*
G04 #@! TO.P,J5,4*
G04 #@! TO.N,GNDREF*
X111000000Y-135199999D03*
G04 #@! TO.P,J5,2*
X106000000Y-135199999D03*
G04 #@! TO.P,J5,3*
X111000000Y-127000000D03*
G04 #@! TO.P,J5,1*
X106000000Y-127000000D03*
G04 #@! TD*
D13*
G04 #@! TO.P,H4,1*
G04 #@! TO.N,/DGND*
X70000000Y-97000000D03*
G04 #@! TD*
G04 #@! TO.P,H3,1*
G04 #@! TO.N,/DGND*
X113000000Y-97000000D03*
G04 #@! TD*
D14*
G04 #@! TO.N,/N*
X88500000Y-123500000D03*
X49000000Y-115000000D03*
X59500000Y-118499996D03*
X63200000Y-117600000D03*
X49000000Y-113500000D03*
X49000000Y-112000000D03*
X49000000Y-110500000D03*
X49000000Y-109000000D03*
X49000000Y-107500000D03*
X49000000Y-106000000D03*
X49000000Y-104500000D03*
X49000000Y-103000000D03*
X49000000Y-101500000D03*
X49000000Y-100000000D03*
X49000000Y-98500000D03*
X49000000Y-97000000D03*
X49000000Y-95500000D03*
X88500000Y-125000000D03*
X88500000Y-126500000D03*
X88500000Y-128000000D03*
X88500000Y-129500000D03*
X90000000Y-123500000D03*
X91500000Y-123500000D03*
X93000000Y-123500000D03*
X94500000Y-123500000D03*
X96000000Y-123500000D03*
X87000000Y-129500000D03*
X87000000Y-128000000D03*
X87000000Y-126500000D03*
X87000000Y-125000000D03*
X87000000Y-123500000D03*
X64000000Y-107800000D03*
X65400000Y-97000000D03*
X90000000Y-129500000D03*
X90000000Y-126500000D03*
X90000000Y-128000000D03*
X90000000Y-125000000D03*
X91500000Y-126500000D03*
X91500000Y-128000000D03*
X91500000Y-125000000D03*
X91500000Y-129500000D03*
X93000000Y-128000000D03*
X93000000Y-126500000D03*
X93000000Y-125000000D03*
X93000000Y-129500000D03*
X94500000Y-128000000D03*
X94500000Y-126500000D03*
X94500000Y-125000000D03*
X94500000Y-129500000D03*
X96000000Y-128000000D03*
X96000000Y-125000000D03*
X96000000Y-129500000D03*
X96000000Y-126500000D03*
X62500000Y-107500000D03*
G04 #@! TO.N,GNDREF*
X98500000Y-123500000D03*
X64150000Y-49800000D03*
X65150000Y-49800000D03*
X66150000Y-49800000D03*
X120000000Y-50000000D03*
X119000000Y-50000000D03*
X118000000Y-50000000D03*
X118250000Y-120750000D03*
X118250000Y-111750000D03*
X134400000Y-109200000D03*
X61400000Y-80800000D03*
X61400000Y-84000000D03*
X74100000Y-81000000D03*
X75600000Y-81000000D03*
X61400000Y-82500000D03*
X64200000Y-82400000D03*
X74100000Y-82300000D03*
X75600000Y-82300000D03*
X65700000Y-82400000D03*
X67200000Y-82400000D03*
X68700000Y-82400000D03*
X70200000Y-82400000D03*
X64200000Y-83900000D03*
X65700000Y-83900000D03*
X67200000Y-83900000D03*
X68700000Y-83900000D03*
X70200000Y-83900000D03*
X129900000Y-81400000D03*
X128400000Y-81400000D03*
X119200000Y-82600000D03*
X128400000Y-82900000D03*
X129900000Y-82900000D03*
X115000000Y-80800000D03*
X115000000Y-82600000D03*
X117800000Y-82600000D03*
X117800000Y-84000000D03*
X115000000Y-84000000D03*
X134400000Y-107700000D03*
X134400000Y-106200000D03*
X134400000Y-104700000D03*
X134400000Y-103200000D03*
X134400000Y-101700000D03*
X134400000Y-100200000D03*
X134400000Y-98700000D03*
X134400000Y-97200000D03*
X134400000Y-95700000D03*
X134400000Y-94200000D03*
X134400000Y-92700000D03*
X134400000Y-91200000D03*
X134400000Y-89700000D03*
X134400000Y-88200000D03*
X134400000Y-86700000D03*
X134400000Y-85200000D03*
X134400000Y-83700000D03*
X134400000Y-82200000D03*
X134400000Y-80700000D03*
X100000000Y-123500000D03*
X101500000Y-123500000D03*
X101500000Y-125000000D03*
X98500000Y-126500000D03*
X101500000Y-126500000D03*
X100000000Y-126500000D03*
X121000000Y-111000000D03*
G04 #@! TO.N,/V_Out*
X67200000Y-53200000D03*
X121800000Y-53200000D03*
X122200000Y-85400000D03*
X68700000Y-53200000D03*
X70200000Y-53200000D03*
X67200000Y-54700000D03*
X68700000Y-54700000D03*
X70200000Y-54700000D03*
X67200000Y-56200000D03*
X68700000Y-56200000D03*
X70200000Y-56200000D03*
X123300000Y-53200000D03*
X124800000Y-53200000D03*
X121800000Y-54700000D03*
X123300000Y-54700000D03*
X124800000Y-54700000D03*
X121800000Y-56200000D03*
X123300000Y-56200000D03*
X124800000Y-56200000D03*
X123700000Y-85400000D03*
X122200000Y-86900000D03*
X123700000Y-86900000D03*
X122200000Y-88400000D03*
X123700000Y-88400000D03*
X110600000Y-54500000D03*
X110600000Y-56000000D03*
X110600000Y-57600000D03*
X110600000Y-59200000D03*
X132600000Y-53200000D03*
X132800000Y-59800000D03*
X126400000Y-53200000D03*
X64000000Y-55400000D03*
X64000000Y-57000000D03*
X64000000Y-60200000D03*
X56600000Y-53600000D03*
X56600000Y-60200000D03*
X63000000Y-53600000D03*
X112000000Y-53600000D03*
X116800000Y-53600000D03*
X56600000Y-58600000D03*
X61800000Y-53600000D03*
X64000000Y-58600000D03*
X112100000Y-56000000D03*
X112100000Y-57600000D03*
X112100000Y-59200000D03*
X113600000Y-57600000D03*
X113600000Y-59200000D03*
X113600000Y-56000000D03*
X115100000Y-56000000D03*
X115100000Y-57600000D03*
X115100000Y-59200000D03*
X116600000Y-57600000D03*
X116600000Y-56000000D03*
X116600000Y-59200000D03*
X62500000Y-58600000D03*
X62500000Y-57000000D03*
X62500000Y-60200000D03*
X61000000Y-58600000D03*
X61000000Y-57000000D03*
X61000000Y-60200000D03*
X59500000Y-60200000D03*
X59500000Y-58600000D03*
X59500000Y-57000000D03*
X58000000Y-58600000D03*
X58000000Y-57000000D03*
X58000000Y-60200000D03*
X62500000Y-55400000D03*
X61000000Y-55400000D03*
X59500000Y-55400000D03*
X58000000Y-55400000D03*
X112000000Y-54500000D03*
X113500000Y-54500000D03*
X115000000Y-54500000D03*
X116500000Y-54500000D03*
G04 #@! TO.N,Net-(L1-Pad1)*
X85600000Y-81000000D03*
X82000000Y-65200000D03*
X83500000Y-65200000D03*
X85000000Y-65200000D03*
X86500000Y-65200000D03*
X88000000Y-65200000D03*
X82000000Y-66700000D03*
X83500000Y-66700000D03*
X85000000Y-66700000D03*
X86500000Y-66700000D03*
X88000000Y-66700000D03*
X82000000Y-68200000D03*
X83500000Y-68200000D03*
X82000000Y-69700000D03*
X83500000Y-69700000D03*
X82000000Y-71200000D03*
X83500000Y-71200000D03*
X87100000Y-81000000D03*
X88600000Y-81000000D03*
X85600000Y-82500000D03*
X87100000Y-82500000D03*
X88600000Y-82500000D03*
X85600000Y-84000000D03*
X87100000Y-84000000D03*
X88600000Y-84000000D03*
G04 #@! TO.N,Net-(L2-Pad1)*
X98750000Y-79000000D03*
X94250000Y-79000000D03*
X108500000Y-91000000D03*
X109750000Y-91000000D03*
X109750000Y-89750000D03*
X108500000Y-89750000D03*
X109750000Y-88500000D03*
X108500000Y-88500000D03*
X94250000Y-80250000D03*
X95750000Y-80250000D03*
X97250000Y-80250000D03*
X98750000Y-80250000D03*
G04 #@! TO.N,/SW_Node1*
X117800000Y-77600000D03*
X117800000Y-74200000D03*
X117800000Y-72400000D03*
X110600000Y-68000000D03*
X112100000Y-68000000D03*
X113600000Y-68000000D03*
X115100000Y-68000000D03*
X116600000Y-68000000D03*
X110600000Y-69500000D03*
X112100000Y-69500000D03*
X113600000Y-69500000D03*
X115100000Y-69500000D03*
X116600000Y-69500000D03*
X110600000Y-71000000D03*
X112100000Y-71000000D03*
X113600000Y-71000000D03*
X115100000Y-71000000D03*
X116600000Y-71000000D03*
X99600000Y-67600000D03*
X99600000Y-68800000D03*
X99600000Y-70000000D03*
X99600000Y-71200000D03*
X101000000Y-71200000D03*
X101000000Y-70000000D03*
X101000000Y-68800000D03*
X101000000Y-67600000D03*
X128200000Y-63400000D03*
X129800000Y-63400000D03*
X129800000Y-64800000D03*
X128200000Y-64800000D03*
X128000000Y-71200000D03*
X129600000Y-71200000D03*
X131200000Y-71200000D03*
X110600000Y-72600000D03*
X110600000Y-74400000D03*
X110600000Y-76000000D03*
X110600000Y-77600000D03*
X115400000Y-65600000D03*
X117400000Y-65600000D03*
X115400000Y-62600000D03*
X117800000Y-75800000D03*
X116300000Y-75800000D03*
X116300000Y-74200000D03*
X116300000Y-72400000D03*
X116300000Y-77600000D03*
X114800000Y-74200000D03*
X114800000Y-77600000D03*
X114800000Y-72400000D03*
X114800000Y-75800000D03*
X113300000Y-72400000D03*
X113300000Y-75800000D03*
X113300000Y-77600000D03*
X113300000Y-74200000D03*
X111800000Y-74200000D03*
X111800000Y-77600000D03*
X111800000Y-72400000D03*
X111800000Y-75800000D03*
G04 #@! TO.N,/SW_Node2*
X57100000Y-68200000D03*
X61600000Y-65400000D03*
X58600000Y-68200000D03*
X60100000Y-68200000D03*
X61600000Y-68200000D03*
X57100000Y-69700000D03*
X58600000Y-69700000D03*
X60100000Y-69700000D03*
X61600000Y-69700000D03*
X57100000Y-71000000D03*
X58600000Y-71000000D03*
X60100000Y-71000000D03*
X61600000Y-71000000D03*
X81200000Y-75000000D03*
X82700000Y-78000000D03*
X81200000Y-76500000D03*
X79700000Y-76500000D03*
X82700000Y-76500000D03*
X82700000Y-75000000D03*
X79700000Y-75000000D03*
X81200000Y-78000000D03*
X79700000Y-78000000D03*
X75600000Y-63400000D03*
X75500000Y-71200000D03*
X74100000Y-63400000D03*
X74000000Y-71200000D03*
X72500000Y-71200000D03*
X74100000Y-64600000D03*
X75600000Y-64600000D03*
X77000000Y-71200000D03*
X57000000Y-76000000D03*
X57000000Y-77600000D03*
X64000000Y-77600000D03*
X63990000Y-75810000D03*
X64000000Y-74000000D03*
X63800000Y-65400000D03*
X64000000Y-72400000D03*
X61600000Y-63000000D03*
X62500000Y-74000000D03*
X62490000Y-75810000D03*
X62500000Y-77600000D03*
X62500000Y-72400000D03*
X61000000Y-74000000D03*
X61000000Y-72400000D03*
X61000000Y-77600000D03*
X60990000Y-75810000D03*
X59490000Y-75810000D03*
X59500000Y-74000000D03*
X59500000Y-77600000D03*
X59500000Y-72400000D03*
X57990000Y-75810000D03*
X58000000Y-74000000D03*
X58000000Y-72400000D03*
X58000000Y-77600000D03*
G04 #@! TO.N,/DGND*
X87250000Y-97000000D03*
X75250000Y-108250000D03*
X78500000Y-110750000D03*
X75050000Y-119250000D03*
X104750000Y-118500000D03*
X109500000Y-108500000D03*
X105250000Y-101500000D03*
X106095000Y-112595000D03*
X104750000Y-112000000D03*
X105000000Y-103750000D03*
X101750000Y-98000000D03*
X100750000Y-103250000D03*
X96950000Y-104200000D03*
X83900000Y-98900000D03*
X83849998Y-102899998D03*
X97497624Y-119377362D03*
X84250000Y-112000000D03*
X81250000Y-101625000D03*
X109000000Y-110000000D03*
X108400000Y-102600000D03*
X112400000Y-101200000D03*
X75270000Y-104504990D03*
X72000000Y-99600000D03*
X80200000Y-99800000D03*
G04 #@! TO.N,+5VD*
X91250000Y-98000000D03*
X76200000Y-109200000D03*
X108750000Y-118500000D03*
X112500000Y-110000000D03*
X101500000Y-110750000D03*
X95000000Y-104250000D03*
X97516282Y-118377534D03*
X85750000Y-113500000D03*
X80250000Y-97500000D03*
X83750000Y-104500000D03*
X110400000Y-101200000D03*
X76399994Y-100600000D03*
G04 #@! TO.N,Net-(HS1-Pad1)*
X138000000Y-115500000D03*
X138000000Y-111500000D03*
X138000000Y-107500000D03*
X138000000Y-103500000D03*
X138000000Y-99500000D03*
X138000000Y-95500000D03*
X138000000Y-91500000D03*
X138000000Y-87500000D03*
X138000000Y-83500000D03*
X138000000Y-79500000D03*
X138000000Y-75500000D03*
X138000000Y-71500000D03*
X138000000Y-67500000D03*
X138000000Y-63500000D03*
X138000000Y-59500000D03*
X138000000Y-55500000D03*
X138000000Y-51500000D03*
X138000000Y-47500000D03*
X138000000Y-43500000D03*
X134000000Y-43500000D03*
X130000000Y-43500000D03*
X126000000Y-43500000D03*
X122000000Y-43500000D03*
X118000000Y-43500000D03*
X114000000Y-43500000D03*
X110000000Y-43500000D03*
X106000000Y-43500000D03*
X102000000Y-43500000D03*
X98000000Y-43500000D03*
X94000000Y-43500000D03*
X90000000Y-43500000D03*
X86000000Y-43500000D03*
X82000000Y-43500000D03*
X78000000Y-43500000D03*
X74000000Y-43500000D03*
X70000000Y-43500000D03*
X66000000Y-43500000D03*
X62000000Y-43500000D03*
X58000000Y-43500000D03*
X54000000Y-43500000D03*
X50000000Y-43500000D03*
X46000000Y-43500000D03*
X46000000Y-47500000D03*
X46000000Y-51500000D03*
X46000000Y-55500000D03*
X46000000Y-59500000D03*
X46000000Y-63500000D03*
X46000000Y-67500000D03*
X46000000Y-71500000D03*
X46000000Y-75500000D03*
X46000000Y-79500000D03*
X46000000Y-83500000D03*
X46000000Y-87500000D03*
X46000000Y-91500000D03*
X46000000Y-95500000D03*
X46000000Y-99500000D03*
X46000000Y-103500000D03*
X46000000Y-107500000D03*
X46000000Y-111500000D03*
X46000000Y-115500000D03*
X122000000Y-45500000D03*
X98000000Y-45500000D03*
X58000000Y-45500000D03*
X54000000Y-45500000D03*
X110000000Y-45500000D03*
X102000000Y-45500000D03*
X126000000Y-45500000D03*
X50000000Y-45500000D03*
X70000000Y-45500000D03*
X134000000Y-45500000D03*
X130000000Y-45500000D03*
X118000000Y-45500000D03*
X114000000Y-45500000D03*
X106000000Y-45500000D03*
X94000000Y-45500000D03*
X90000000Y-45500000D03*
X66000000Y-45500000D03*
X62000000Y-45500000D03*
X78000000Y-45500000D03*
X74000000Y-45500000D03*
X86000000Y-45500000D03*
X82000000Y-45500000D03*
G04 #@! TO.N,+5V*
X65400000Y-98600000D03*
X63400000Y-112200000D03*
G04 #@! TO.N,/Vref*
X77800000Y-103000000D03*
X82450000Y-111750000D03*
G04 #@! TO.N,/VI_LOW1*
X49000000Y-126500000D03*
X57000000Y-101000000D03*
X55500000Y-101000000D03*
X55500000Y-102500000D03*
X57000000Y-102500000D03*
X57000000Y-104000000D03*
X55500000Y-104000000D03*
X47000000Y-126500000D03*
X45000000Y-126500000D03*
X45000000Y-128500000D03*
X45000000Y-130500000D03*
G04 #@! TO.N,/VI_LOW2*
X64000000Y-126250000D03*
X66000000Y-126250000D03*
X68250000Y-126250000D03*
X64000000Y-128250000D03*
X64000000Y-130250000D03*
X57500000Y-115500000D03*
X56000000Y-115500000D03*
X56000000Y-117250000D03*
X57500000Y-117250000D03*
X57500000Y-118750000D03*
X56000000Y-118750000D03*
X60250000Y-100900000D03*
X55500000Y-106000000D03*
X101000000Y-91550000D03*
X102500000Y-91550000D03*
X104000000Y-91550000D03*
X101000000Y-93050000D03*
X102500000Y-93050000D03*
X104000000Y-93050000D03*
X57000000Y-106000000D03*
X57000000Y-107500000D03*
X55500000Y-107500000D03*
X55500000Y-109000000D03*
X57000000Y-109000000D03*
G04 #@! TO.N,+5P*
X119750000Y-118500000D03*
G04 #@! TO.N,Net-(F1-Pad2)*
X128500000Y-128000000D03*
X130000000Y-128000000D03*
X131500000Y-128000000D03*
X134500000Y-128000000D03*
X136000000Y-128000000D03*
X120000000Y-105800000D03*
X120000000Y-107000000D03*
X120000000Y-108200000D03*
X120000000Y-109400000D03*
X118600000Y-109400000D03*
X117200000Y-109400000D03*
X117200000Y-108200000D03*
X118600000Y-108200000D03*
X133000000Y-128000000D03*
X136000000Y-126500000D03*
X128500000Y-126500000D03*
X133000000Y-126500000D03*
X130000000Y-126500000D03*
X134500000Y-126500000D03*
X131500000Y-126500000D03*
G04 #@! TD*
D15*
G04 #@! TO.N,/DGND*
X113000000Y-97000000D02*
X111000000Y-99000000D01*
X70000000Y-97000000D02*
X72000000Y-99000000D01*
D16*
G04 #@! TO.N,/Vref*
X89800000Y-111760000D02*
X89290000Y-111250000D01*
X89800000Y-111760000D02*
X87260000Y-111760000D01*
X87260000Y-111760000D02*
X86500000Y-111000000D01*
X83200000Y-111000000D02*
X82450000Y-111750000D01*
X86500000Y-111000000D02*
X83200000Y-111000000D01*
X77400001Y-111150001D02*
X77400001Y-103399999D01*
X78000000Y-111750000D02*
X77400001Y-111150001D01*
X77400001Y-103399999D02*
X77800000Y-103000000D01*
X82450000Y-111750000D02*
X78000000Y-111750000D01*
D15*
G04 #@! TO.N,+5P*
X119750000Y-122058000D02*
X119750000Y-118500000D01*
X118237000Y-123571000D02*
X119750000Y-122058000D01*
X114300000Y-123571000D02*
X118237000Y-123571000D01*
X113157000Y-124714000D02*
X114300000Y-123571000D01*
X113157000Y-129540000D02*
X113157000Y-124714000D01*
X111506000Y-131191000D02*
X113157000Y-129540000D01*
X101854000Y-131191000D02*
X111506000Y-131191000D01*
X98425000Y-134620000D02*
X101854000Y-131191000D01*
X91440000Y-134620000D02*
X98425000Y-134620000D01*
G04 #@! TD*
D17*
G04 #@! TO.N,/V_Out*
X100281741Y-48136685D02*
X121171596Y-52613082D01*
X121184826Y-52615194D01*
X121289590Y-52626293D01*
X121302970Y-52627000D01*
X132991672Y-52627000D01*
X133096257Y-52640769D01*
X133185955Y-52677923D01*
X133262976Y-52737024D01*
X133322077Y-52814045D01*
X133359231Y-52903743D01*
X133373000Y-53008328D01*
X133373000Y-60241672D01*
X133359231Y-60346257D01*
X133322077Y-60435955D01*
X133262976Y-60512976D01*
X133185955Y-60572077D01*
X133096257Y-60609231D01*
X132991672Y-60623000D01*
X110008328Y-60623000D01*
X109903743Y-60609231D01*
X109814045Y-60572077D01*
X109737024Y-60512976D01*
X109677923Y-60435955D01*
X109640769Y-60346257D01*
X109627000Y-60241672D01*
X109627000Y-54000000D01*
X109625914Y-53983423D01*
X109608877Y-53854013D01*
X109600296Y-53821989D01*
X109550346Y-53701399D01*
X109533768Y-53672687D01*
X109454308Y-53569134D01*
X109430866Y-53545692D01*
X109327313Y-53466232D01*
X109298601Y-53449654D01*
X109178011Y-53399704D01*
X109145987Y-53391123D01*
X109016577Y-53374086D01*
X109000000Y-53373000D01*
X78500000Y-53373000D01*
X78483423Y-53374086D01*
X78354013Y-53391123D01*
X78321989Y-53399704D01*
X78201399Y-53449654D01*
X78172687Y-53466232D01*
X78069134Y-53545692D01*
X78045692Y-53569134D01*
X77966232Y-53672687D01*
X77949654Y-53701399D01*
X77899704Y-53821989D01*
X77891123Y-53854013D01*
X77874086Y-53983423D01*
X77873000Y-54000000D01*
X77873000Y-60247387D01*
X77859429Y-60351227D01*
X77822794Y-60440390D01*
X77764477Y-60517138D01*
X77688394Y-60576324D01*
X77599659Y-60613968D01*
X77495976Y-60628719D01*
X56512617Y-60867167D01*
X56407157Y-60854399D01*
X56316499Y-60817749D01*
X56238535Y-60758741D01*
X56178641Y-60681447D01*
X56140967Y-60591219D01*
X56127000Y-60485900D01*
X56127000Y-53008328D01*
X56140769Y-52903743D01*
X56177923Y-52814045D01*
X56237024Y-52737024D01*
X56314045Y-52677923D01*
X56403743Y-52640769D01*
X56508328Y-52627000D01*
X66692336Y-52627000D01*
X66706886Y-52626164D01*
X66820700Y-52613038D01*
X66835059Y-52610540D01*
X85965650Y-48138454D01*
X86064965Y-48127000D01*
X100190323Y-48127000D01*
X100281741Y-48136685D01*
G04 #@! TA.AperFunction,Conductor*
D18*
G36*
X100281741Y-48136685D02*
G01*
X121171596Y-52613082D01*
X121184826Y-52615194D01*
X121289590Y-52626293D01*
X121302970Y-52627000D01*
X132991672Y-52627000D01*
X133096257Y-52640769D01*
X133185955Y-52677923D01*
X133262976Y-52737024D01*
X133322077Y-52814045D01*
X133359231Y-52903743D01*
X133373000Y-53008328D01*
X133373000Y-60241672D01*
X133359231Y-60346257D01*
X133322077Y-60435955D01*
X133262976Y-60512976D01*
X133185955Y-60572077D01*
X133096257Y-60609231D01*
X132991672Y-60623000D01*
X110008328Y-60623000D01*
X109903743Y-60609231D01*
X109814045Y-60572077D01*
X109737024Y-60512976D01*
X109677923Y-60435955D01*
X109640769Y-60346257D01*
X109627000Y-60241672D01*
X109627000Y-54000000D01*
X109625914Y-53983423D01*
X109608877Y-53854013D01*
X109600296Y-53821989D01*
X109550346Y-53701399D01*
X109533768Y-53672687D01*
X109454308Y-53569134D01*
X109430866Y-53545692D01*
X109327313Y-53466232D01*
X109298601Y-53449654D01*
X109178011Y-53399704D01*
X109145987Y-53391123D01*
X109016577Y-53374086D01*
X109000000Y-53373000D01*
X78500000Y-53373000D01*
X78483423Y-53374086D01*
X78354013Y-53391123D01*
X78321989Y-53399704D01*
X78201399Y-53449654D01*
X78172687Y-53466232D01*
X78069134Y-53545692D01*
X78045692Y-53569134D01*
X77966232Y-53672687D01*
X77949654Y-53701399D01*
X77899704Y-53821989D01*
X77891123Y-53854013D01*
X77874086Y-53983423D01*
X77873000Y-54000000D01*
X77873000Y-60247387D01*
X77859429Y-60351227D01*
X77822794Y-60440390D01*
X77764477Y-60517138D01*
X77688394Y-60576324D01*
X77599659Y-60613968D01*
X77495976Y-60628719D01*
X56512617Y-60867167D01*
X56407157Y-60854399D01*
X56316499Y-60817749D01*
X56238535Y-60758741D01*
X56178641Y-60681447D01*
X56140967Y-60591219D01*
X56127000Y-60485900D01*
X56127000Y-53008328D01*
X56140769Y-52903743D01*
X56177923Y-52814045D01*
X56237024Y-52737024D01*
X56314045Y-52677923D01*
X56403743Y-52640769D01*
X56508328Y-52627000D01*
X66692336Y-52627000D01*
X66706886Y-52626164D01*
X66820700Y-52613038D01*
X66835059Y-52610540D01*
X85965650Y-48138454D01*
X86064965Y-48127000D01*
X100190323Y-48127000D01*
X100281741Y-48136685D01*
G37*
G04 #@! TD.AperFunction*
G04 #@! TD*
D17*
G04 #@! TO.N,/V_Out*
X125096257Y-60140769D02*
X125185955Y-60177923D01*
X125262976Y-60237024D01*
X125322077Y-60314045D01*
X125359231Y-60403743D01*
X125373000Y-60508328D01*
X125373000Y-88491672D01*
X125359231Y-88596257D01*
X125322077Y-88685955D01*
X125262976Y-88762976D01*
X125185955Y-88822077D01*
X125096257Y-88859231D01*
X124991672Y-88873000D01*
X122008328Y-88873000D01*
X121903743Y-88859231D01*
X121814045Y-88822077D01*
X121737024Y-88762976D01*
X121677923Y-88685955D01*
X121640769Y-88596257D01*
X121627000Y-88491672D01*
X121627000Y-60508328D01*
X121640769Y-60403743D01*
X121677923Y-60314045D01*
X121737024Y-60237024D01*
X121814045Y-60177923D01*
X121903743Y-60140769D01*
X122008328Y-60127000D01*
X124991672Y-60127000D01*
X125096257Y-60140769D01*
G04 #@! TA.AperFunction,Conductor*
D18*
G36*
X125096257Y-60140769D02*
G01*
X125185955Y-60177923D01*
X125262976Y-60237024D01*
X125322077Y-60314045D01*
X125359231Y-60403743D01*
X125373000Y-60508328D01*
X125373000Y-88491672D01*
X125359231Y-88596257D01*
X125322077Y-88685955D01*
X125262976Y-88762976D01*
X125185955Y-88822077D01*
X125096257Y-88859231D01*
X124991672Y-88873000D01*
X122008328Y-88873000D01*
X121903743Y-88859231D01*
X121814045Y-88822077D01*
X121737024Y-88762976D01*
X121677923Y-88685955D01*
X121640769Y-88596257D01*
X121627000Y-88491672D01*
X121627000Y-60508328D01*
X121640769Y-60403743D01*
X121677923Y-60314045D01*
X121737024Y-60237024D01*
X121814045Y-60177923D01*
X121903743Y-60140769D01*
X122008328Y-60127000D01*
X124991672Y-60127000D01*
X125096257Y-60140769D01*
G37*
G04 #@! TD.AperFunction*
G04 #@! TD*
D17*
G04 #@! TO.N,Net-(F1-Pad2)*
X125899141Y-105138798D02*
X125983171Y-105170746D01*
X126063464Y-105226332D01*
X130241117Y-108939801D01*
X130314405Y-109026204D01*
X130357113Y-109121308D01*
X130373000Y-109233481D01*
X130373000Y-125500000D01*
X130374086Y-125516577D01*
X130391123Y-125645987D01*
X130399704Y-125678011D01*
X130449654Y-125798601D01*
X130466232Y-125827313D01*
X130545692Y-125930866D01*
X130569134Y-125954308D01*
X130672687Y-126033768D01*
X130701399Y-126050346D01*
X130821989Y-126100296D01*
X130854013Y-126108877D01*
X130983423Y-126125914D01*
X131000000Y-126127000D01*
X136241672Y-126127000D01*
X136346257Y-126140769D01*
X136435955Y-126177923D01*
X136512976Y-126237024D01*
X136572077Y-126314045D01*
X136609231Y-126403743D01*
X136623000Y-126508328D01*
X136623000Y-128991672D01*
X136609231Y-129096257D01*
X136572077Y-129185955D01*
X136512976Y-129262976D01*
X136435955Y-129322077D01*
X136346257Y-129359231D01*
X136241672Y-129373000D01*
X126508328Y-129373000D01*
X126403743Y-129359231D01*
X126314045Y-129322077D01*
X126237024Y-129262976D01*
X126177923Y-129185955D01*
X126140769Y-129096257D01*
X126127000Y-128991672D01*
X126127000Y-111479967D01*
X126125691Y-111461780D01*
X126105184Y-111320055D01*
X126094874Y-111285175D01*
X126035037Y-111155075D01*
X126015263Y-111124546D01*
X125921003Y-111016743D01*
X125908046Y-111003913D01*
X124473084Y-109773946D01*
X124461147Y-109764879D01*
X124363271Y-109699272D01*
X124336620Y-109685654D01*
X124226109Y-109644773D01*
X124197012Y-109637769D01*
X124080003Y-109623885D01*
X124065038Y-109623000D01*
X117008328Y-109623000D01*
X116903743Y-109609231D01*
X116814045Y-109572077D01*
X116737024Y-109512976D01*
X116677923Y-109435955D01*
X116640769Y-109346257D01*
X116627000Y-109241672D01*
X116627000Y-105508328D01*
X116640769Y-105403743D01*
X116677923Y-105314045D01*
X116737024Y-105237024D01*
X116814045Y-105177923D01*
X116903743Y-105140769D01*
X117008328Y-105127000D01*
X125802199Y-105127000D01*
X125899141Y-105138798D01*
G04 #@! TA.AperFunction,Conductor*
D18*
G36*
X125899141Y-105138798D02*
G01*
X125983171Y-105170746D01*
X126063464Y-105226332D01*
X130241117Y-108939801D01*
X130314405Y-109026204D01*
X130357113Y-109121308D01*
X130373000Y-109233481D01*
X130373000Y-125500000D01*
X130374086Y-125516577D01*
X130391123Y-125645987D01*
X130399704Y-125678011D01*
X130449654Y-125798601D01*
X130466232Y-125827313D01*
X130545692Y-125930866D01*
X130569134Y-125954308D01*
X130672687Y-126033768D01*
X130701399Y-126050346D01*
X130821989Y-126100296D01*
X130854013Y-126108877D01*
X130983423Y-126125914D01*
X131000000Y-126127000D01*
X136241672Y-126127000D01*
X136346257Y-126140769D01*
X136435955Y-126177923D01*
X136512976Y-126237024D01*
X136572077Y-126314045D01*
X136609231Y-126403743D01*
X136623000Y-126508328D01*
X136623000Y-128991672D01*
X136609231Y-129096257D01*
X136572077Y-129185955D01*
X136512976Y-129262976D01*
X136435955Y-129322077D01*
X136346257Y-129359231D01*
X136241672Y-129373000D01*
X126508328Y-129373000D01*
X126403743Y-129359231D01*
X126314045Y-129322077D01*
X126237024Y-129262976D01*
X126177923Y-129185955D01*
X126140769Y-129096257D01*
X126127000Y-128991672D01*
X126127000Y-111479967D01*
X126125691Y-111461780D01*
X126105184Y-111320055D01*
X126094874Y-111285175D01*
X126035037Y-111155075D01*
X126015263Y-111124546D01*
X125921003Y-111016743D01*
X125908046Y-111003913D01*
X124473084Y-109773946D01*
X124461147Y-109764879D01*
X124363271Y-109699272D01*
X124336620Y-109685654D01*
X124226109Y-109644773D01*
X124197012Y-109637769D01*
X124080003Y-109623885D01*
X124065038Y-109623000D01*
X117008328Y-109623000D01*
X116903743Y-109609231D01*
X116814045Y-109572077D01*
X116737024Y-109512976D01*
X116677923Y-109435955D01*
X116640769Y-109346257D01*
X116627000Y-109241672D01*
X116627000Y-105508328D01*
X116640769Y-105403743D01*
X116677923Y-105314045D01*
X116737024Y-105237024D01*
X116814045Y-105177923D01*
X116903743Y-105140769D01*
X117008328Y-105127000D01*
X125802199Y-105127000D01*
X125899141Y-105138798D01*
G37*
G04 #@! TD.AperFunction*
G04 #@! TD*
D17*
G04 #@! TO.N,/VI_LOW1*
X57096257Y-100140769D02*
X57185955Y-100177923D01*
X57262976Y-100237024D01*
X57322077Y-100314045D01*
X57359231Y-100403743D01*
X57373000Y-100508328D01*
X57373000Y-104241672D01*
X57359231Y-104346257D01*
X57322077Y-104435955D01*
X57262976Y-104512976D01*
X57185955Y-104572077D01*
X57096257Y-104609231D01*
X56991672Y-104623000D01*
X53750000Y-104623000D01*
X53733423Y-104624086D01*
X53604013Y-104641123D01*
X53571989Y-104649704D01*
X53451399Y-104699654D01*
X53422687Y-104716232D01*
X53319134Y-104795692D01*
X53295692Y-104819134D01*
X53216232Y-104922687D01*
X53199654Y-104951399D01*
X53149704Y-105071989D01*
X53141123Y-105104013D01*
X53124086Y-105233423D01*
X53123000Y-105250000D01*
X53123000Y-123307920D01*
X53098898Y-123445294D01*
X53029469Y-123566258D01*
X52058307Y-124731652D01*
X51970731Y-124810032D01*
X51872801Y-124855900D01*
X51756522Y-124873000D01*
X50500000Y-124873000D01*
X50483423Y-124874086D01*
X50354013Y-124891123D01*
X50321989Y-124899704D01*
X50201399Y-124949654D01*
X50172687Y-124966232D01*
X50069134Y-125045692D01*
X50045692Y-125069134D01*
X49966232Y-125172687D01*
X49949654Y-125201399D01*
X49899704Y-125321989D01*
X49891123Y-125354013D01*
X49874086Y-125483423D01*
X49873000Y-125500000D01*
X49873000Y-131491672D01*
X49859231Y-131596257D01*
X49822077Y-131685955D01*
X49762976Y-131762976D01*
X49685955Y-131822077D01*
X49596257Y-131859231D01*
X49491672Y-131873000D01*
X45008328Y-131873000D01*
X44903743Y-131859231D01*
X44814045Y-131822077D01*
X44737024Y-131762976D01*
X44677923Y-131685955D01*
X44640769Y-131596257D01*
X44627000Y-131491672D01*
X44627000Y-125722868D01*
X44641630Y-125615132D01*
X44681046Y-125523162D01*
X44748977Y-125438261D01*
X47061918Y-123235459D01*
X47144276Y-123174882D01*
X47231650Y-123139932D01*
X47333066Y-123127000D01*
X48292893Y-123127000D01*
X48309470Y-123125914D01*
X48438880Y-123108877D01*
X48470904Y-123100296D01*
X48591494Y-123050346D01*
X48620206Y-123033769D01*
X48723760Y-122954309D01*
X48736250Y-122943356D01*
X49943356Y-121736250D01*
X49954309Y-121723760D01*
X50033769Y-121620206D01*
X50050346Y-121591494D01*
X50100296Y-121470904D01*
X50108877Y-121438880D01*
X50125914Y-121309470D01*
X50127000Y-121292893D01*
X50127000Y-102042995D01*
X50142530Y-101932062D01*
X50184305Y-101837825D01*
X50256079Y-101751821D01*
X51936599Y-100228850D01*
X52017489Y-100171886D01*
X52102464Y-100139110D01*
X52200657Y-100127000D01*
X56991672Y-100127000D01*
X57096257Y-100140769D01*
G04 #@! TA.AperFunction,Conductor*
D18*
G36*
X57096257Y-100140769D02*
G01*
X57185955Y-100177923D01*
X57262976Y-100237024D01*
X57322077Y-100314045D01*
X57359231Y-100403743D01*
X57373000Y-100508328D01*
X57373000Y-104241672D01*
X57359231Y-104346257D01*
X57322077Y-104435955D01*
X57262976Y-104512976D01*
X57185955Y-104572077D01*
X57096257Y-104609231D01*
X56991672Y-104623000D01*
X53750000Y-104623000D01*
X53733423Y-104624086D01*
X53604013Y-104641123D01*
X53571989Y-104649704D01*
X53451399Y-104699654D01*
X53422687Y-104716232D01*
X53319134Y-104795692D01*
X53295692Y-104819134D01*
X53216232Y-104922687D01*
X53199654Y-104951399D01*
X53149704Y-105071989D01*
X53141123Y-105104013D01*
X53124086Y-105233423D01*
X53123000Y-105250000D01*
X53123000Y-123307920D01*
X53098898Y-123445294D01*
X53029469Y-123566258D01*
X52058307Y-124731652D01*
X51970731Y-124810032D01*
X51872801Y-124855900D01*
X51756522Y-124873000D01*
X50500000Y-124873000D01*
X50483423Y-124874086D01*
X50354013Y-124891123D01*
X50321989Y-124899704D01*
X50201399Y-124949654D01*
X50172687Y-124966232D01*
X50069134Y-125045692D01*
X50045692Y-125069134D01*
X49966232Y-125172687D01*
X49949654Y-125201399D01*
X49899704Y-125321989D01*
X49891123Y-125354013D01*
X49874086Y-125483423D01*
X49873000Y-125500000D01*
X49873000Y-131491672D01*
X49859231Y-131596257D01*
X49822077Y-131685955D01*
X49762976Y-131762976D01*
X49685955Y-131822077D01*
X49596257Y-131859231D01*
X49491672Y-131873000D01*
X45008328Y-131873000D01*
X44903743Y-131859231D01*
X44814045Y-131822077D01*
X44737024Y-131762976D01*
X44677923Y-131685955D01*
X44640769Y-131596257D01*
X44627000Y-131491672D01*
X44627000Y-125722868D01*
X44641630Y-125615132D01*
X44681046Y-125523162D01*
X44748977Y-125438261D01*
X47061918Y-123235459D01*
X47144276Y-123174882D01*
X47231650Y-123139932D01*
X47333066Y-123127000D01*
X48292893Y-123127000D01*
X48309470Y-123125914D01*
X48438880Y-123108877D01*
X48470904Y-123100296D01*
X48591494Y-123050346D01*
X48620206Y-123033769D01*
X48723760Y-122954309D01*
X48736250Y-122943356D01*
X49943356Y-121736250D01*
X49954309Y-121723760D01*
X50033769Y-121620206D01*
X50050346Y-121591494D01*
X50100296Y-121470904D01*
X50108877Y-121438880D01*
X50125914Y-121309470D01*
X50127000Y-121292893D01*
X50127000Y-102042995D01*
X50142530Y-101932062D01*
X50184305Y-101837825D01*
X50256079Y-101751821D01*
X51936599Y-100228850D01*
X52017489Y-100171886D01*
X52102464Y-100139110D01*
X52200657Y-100127000D01*
X56991672Y-100127000D01*
X57096257Y-100140769D01*
G37*
G04 #@! TD.AperFunction*
G04 #@! TD*
D17*
G04 #@! TO.N,/VI_LOW2*
X98870103Y-89483329D02*
X98996348Y-89503923D01*
X99100725Y-89558247D01*
X99182866Y-89642495D01*
X99239032Y-89757427D01*
X99520623Y-90682552D01*
X99526313Y-90697705D01*
X99578526Y-90813687D01*
X99595428Y-90841221D01*
X99675218Y-90940276D01*
X99698519Y-90962653D01*
X99800720Y-91038371D01*
X99828915Y-91054146D01*
X99946914Y-91101626D01*
X99978177Y-91109776D01*
X100104339Y-91125946D01*
X100120492Y-91126976D01*
X106991655Y-91126526D01*
X107096235Y-91140287D01*
X107185937Y-91177438D01*
X107262968Y-91236541D01*
X107322074Y-91313566D01*
X107359231Y-91403266D01*
X107373000Y-91507847D01*
X107373000Y-92992174D01*
X107359231Y-93096760D01*
X107322076Y-93186458D01*
X107262977Y-93263477D01*
X107185946Y-93322584D01*
X107096255Y-93359734D01*
X106991668Y-93373502D01*
X71750006Y-93373000D01*
X62500000Y-93373000D01*
X62483423Y-93374086D01*
X62354013Y-93391123D01*
X62321989Y-93399704D01*
X62201399Y-93449654D01*
X62172687Y-93466232D01*
X62069134Y-93545692D01*
X62045692Y-93569134D01*
X61966232Y-93672687D01*
X61949654Y-93701399D01*
X61899704Y-93821989D01*
X61891123Y-93854013D01*
X61874086Y-93983423D01*
X61873000Y-94000000D01*
X61873000Y-106674164D01*
X61840226Y-106696063D01*
X61696063Y-106840226D01*
X61582795Y-107009744D01*
X61504774Y-107198102D01*
X61465000Y-107398061D01*
X61465000Y-107601939D01*
X61504774Y-107801898D01*
X61582795Y-107990256D01*
X61696063Y-108159774D01*
X61840226Y-108303937D01*
X61873000Y-108325836D01*
X61873000Y-108991672D01*
X61859231Y-109096257D01*
X61822077Y-109185955D01*
X61762976Y-109262976D01*
X61685955Y-109322077D01*
X61596257Y-109359231D01*
X61491672Y-109373000D01*
X54508328Y-109373000D01*
X54403743Y-109359231D01*
X54314045Y-109322077D01*
X54237024Y-109262976D01*
X54177923Y-109185955D01*
X54140769Y-109096257D01*
X54127000Y-108991672D01*
X54127000Y-106008328D01*
X54140769Y-105903743D01*
X54177923Y-105814045D01*
X54237024Y-105737024D01*
X54314045Y-105677923D01*
X54403743Y-105640769D01*
X54508328Y-105627000D01*
X57750000Y-105627000D01*
X57766577Y-105625914D01*
X57895987Y-105608877D01*
X57928011Y-105600296D01*
X58048601Y-105550346D01*
X58077313Y-105533768D01*
X58180866Y-105454308D01*
X58204308Y-105430866D01*
X58283768Y-105327313D01*
X58300346Y-105298601D01*
X58350296Y-105178011D01*
X58358877Y-105145987D01*
X58375914Y-105016577D01*
X58377000Y-105000000D01*
X58377000Y-89759651D01*
X58390814Y-89654899D01*
X58428088Y-89565078D01*
X58487372Y-89487992D01*
X58564610Y-89428912D01*
X58654530Y-89391873D01*
X58759311Y-89378334D01*
X98870103Y-89483329D01*
G04 #@! TA.AperFunction,Conductor*
D18*
G36*
X98870103Y-89483329D02*
G01*
X98996348Y-89503923D01*
X99100725Y-89558247D01*
X99182866Y-89642495D01*
X99239032Y-89757427D01*
X99520623Y-90682552D01*
X99526313Y-90697705D01*
X99578526Y-90813687D01*
X99595428Y-90841221D01*
X99675218Y-90940276D01*
X99698519Y-90962653D01*
X99800720Y-91038371D01*
X99828915Y-91054146D01*
X99946914Y-91101626D01*
X99978177Y-91109776D01*
X100104339Y-91125946D01*
X100120492Y-91126976D01*
X106991655Y-91126526D01*
X107096235Y-91140287D01*
X107185937Y-91177438D01*
X107262968Y-91236541D01*
X107322074Y-91313566D01*
X107359231Y-91403266D01*
X107373000Y-91507847D01*
X107373000Y-92992174D01*
X107359231Y-93096760D01*
X107322076Y-93186458D01*
X107262977Y-93263477D01*
X107185946Y-93322584D01*
X107096255Y-93359734D01*
X106991668Y-93373502D01*
X71750006Y-93373000D01*
X62500000Y-93373000D01*
X62483423Y-93374086D01*
X62354013Y-93391123D01*
X62321989Y-93399704D01*
X62201399Y-93449654D01*
X62172687Y-93466232D01*
X62069134Y-93545692D01*
X62045692Y-93569134D01*
X61966232Y-93672687D01*
X61949654Y-93701399D01*
X61899704Y-93821989D01*
X61891123Y-93854013D01*
X61874086Y-93983423D01*
X61873000Y-94000000D01*
X61873000Y-106674164D01*
X61840226Y-106696063D01*
X61696063Y-106840226D01*
X61582795Y-107009744D01*
X61504774Y-107198102D01*
X61465000Y-107398061D01*
X61465000Y-107601939D01*
X61504774Y-107801898D01*
X61582795Y-107990256D01*
X61696063Y-108159774D01*
X61840226Y-108303937D01*
X61873000Y-108325836D01*
X61873000Y-108991672D01*
X61859231Y-109096257D01*
X61822077Y-109185955D01*
X61762976Y-109262976D01*
X61685955Y-109322077D01*
X61596257Y-109359231D01*
X61491672Y-109373000D01*
X54508328Y-109373000D01*
X54403743Y-109359231D01*
X54314045Y-109322077D01*
X54237024Y-109262976D01*
X54177923Y-109185955D01*
X54140769Y-109096257D01*
X54127000Y-108991672D01*
X54127000Y-106008328D01*
X54140769Y-105903743D01*
X54177923Y-105814045D01*
X54237024Y-105737024D01*
X54314045Y-105677923D01*
X54403743Y-105640769D01*
X54508328Y-105627000D01*
X57750000Y-105627000D01*
X57766577Y-105625914D01*
X57895987Y-105608877D01*
X57928011Y-105600296D01*
X58048601Y-105550346D01*
X58077313Y-105533768D01*
X58180866Y-105454308D01*
X58204308Y-105430866D01*
X58283768Y-105327313D01*
X58300346Y-105298601D01*
X58350296Y-105178011D01*
X58358877Y-105145987D01*
X58375914Y-105016577D01*
X58377000Y-105000000D01*
X58377000Y-89759651D01*
X58390814Y-89654899D01*
X58428088Y-89565078D01*
X58487372Y-89487992D01*
X58564610Y-89428912D01*
X58654530Y-89391873D01*
X58759311Y-89378334D01*
X98870103Y-89483329D01*
G37*
G04 #@! TD.AperFunction*
G04 #@! TD*
D17*
G04 #@! TO.N,Net-(L1-Pad1)*
X89846257Y-64640769D02*
X89935955Y-64677923D01*
X90012976Y-64737024D01*
X90072077Y-64814045D01*
X90109231Y-64903743D01*
X90123000Y-65008328D01*
X90123000Y-72987491D01*
X90111338Y-73046119D01*
X90085215Y-73085215D01*
X90046119Y-73111338D01*
X89975224Y-73125440D01*
X89975189Y-73125447D01*
X89879602Y-73144488D01*
X89855780Y-73151722D01*
X89833767Y-73163504D01*
X89752774Y-73217720D01*
X89733542Y-73233530D01*
X89717726Y-73252846D01*
X89663690Y-73333960D01*
X89651984Y-73355933D01*
X89644776Y-73379837D01*
X89625948Y-73475465D01*
X89623556Y-73500281D01*
X89646867Y-83990838D01*
X89633294Y-84095588D01*
X89596237Y-84185474D01*
X89537155Y-84262679D01*
X89460072Y-84321940D01*
X89370276Y-84359194D01*
X89265556Y-84373000D01*
X84732205Y-84373000D01*
X84627766Y-84359270D01*
X84538174Y-84322218D01*
X84461203Y-84263269D01*
X84402086Y-84186433D01*
X84364834Y-84096919D01*
X84350873Y-83992522D01*
X84328109Y-73748607D01*
X84326988Y-73732055D01*
X84309711Y-73602862D01*
X84301084Y-73570900D01*
X84251004Y-73450563D01*
X84234407Y-73421916D01*
X84154925Y-73318611D01*
X84131490Y-73295227D01*
X84028009Y-73215975D01*
X83999325Y-73199442D01*
X83878877Y-73149629D01*
X83846894Y-73141072D01*
X83717663Y-73124083D01*
X83701110Y-73123000D01*
X81258328Y-73123000D01*
X81153743Y-73109231D01*
X81064045Y-73072077D01*
X80987024Y-73012976D01*
X80927923Y-72935955D01*
X80890769Y-72846257D01*
X80877000Y-72741672D01*
X80877000Y-65008328D01*
X80890769Y-64903743D01*
X80927923Y-64814045D01*
X80987024Y-64737024D01*
X81064045Y-64677923D01*
X81153743Y-64640769D01*
X81258328Y-64627000D01*
X89741672Y-64627000D01*
X89846257Y-64640769D01*
G04 #@! TA.AperFunction,Conductor*
D18*
G36*
X89846257Y-64640769D02*
G01*
X89935955Y-64677923D01*
X90012976Y-64737024D01*
X90072077Y-64814045D01*
X90109231Y-64903743D01*
X90123000Y-65008328D01*
X90123000Y-72987491D01*
X90111338Y-73046119D01*
X90085215Y-73085215D01*
X90046119Y-73111338D01*
X89975224Y-73125440D01*
X89975189Y-73125447D01*
X89879602Y-73144488D01*
X89855780Y-73151722D01*
X89833767Y-73163504D01*
X89752774Y-73217720D01*
X89733542Y-73233530D01*
X89717726Y-73252846D01*
X89663690Y-73333960D01*
X89651984Y-73355933D01*
X89644776Y-73379837D01*
X89625948Y-73475465D01*
X89623556Y-73500281D01*
X89646867Y-83990838D01*
X89633294Y-84095588D01*
X89596237Y-84185474D01*
X89537155Y-84262679D01*
X89460072Y-84321940D01*
X89370276Y-84359194D01*
X89265556Y-84373000D01*
X84732205Y-84373000D01*
X84627766Y-84359270D01*
X84538174Y-84322218D01*
X84461203Y-84263269D01*
X84402086Y-84186433D01*
X84364834Y-84096919D01*
X84350873Y-83992522D01*
X84328109Y-73748607D01*
X84326988Y-73732055D01*
X84309711Y-73602862D01*
X84301084Y-73570900D01*
X84251004Y-73450563D01*
X84234407Y-73421916D01*
X84154925Y-73318611D01*
X84131490Y-73295227D01*
X84028009Y-73215975D01*
X83999325Y-73199442D01*
X83878877Y-73149629D01*
X83846894Y-73141072D01*
X83717663Y-73124083D01*
X83701110Y-73123000D01*
X81258328Y-73123000D01*
X81153743Y-73109231D01*
X81064045Y-73072077D01*
X80987024Y-73012976D01*
X80927923Y-72935955D01*
X80890769Y-72846257D01*
X80877000Y-72741672D01*
X80877000Y-65008328D01*
X80890769Y-64903743D01*
X80927923Y-64814045D01*
X80987024Y-64737024D01*
X81064045Y-64677923D01*
X81153743Y-64640769D01*
X81258328Y-64627000D01*
X89741672Y-64627000D01*
X89846257Y-64640769D01*
G37*
G04 #@! TD.AperFunction*
G04 #@! TD*
D17*
G04 #@! TO.N,Net-(L2-Pad1)*
X99096257Y-74140769D02*
X99185955Y-74177923D01*
X99262976Y-74237024D01*
X99322077Y-74314045D01*
X99359231Y-74403743D01*
X99373000Y-74508328D01*
X99373000Y-83310948D01*
X99373921Y-83326214D01*
X99388370Y-83445547D01*
X99395657Y-83475197D01*
X99438170Y-83587634D01*
X99452323Y-83614687D01*
X99520442Y-83713728D01*
X99529852Y-83725785D01*
X103005486Y-87664837D01*
X103018268Y-87677411D01*
X103125390Y-87768838D01*
X103155599Y-87787997D01*
X103283967Y-87845925D01*
X103318319Y-87855900D01*
X103457748Y-87875734D01*
X103475634Y-87877000D01*
X103660559Y-87877000D01*
X103677673Y-87884089D01*
X103983891Y-87945000D01*
X104296109Y-87945000D01*
X104602327Y-87884089D01*
X104619441Y-87877000D01*
X109741672Y-87877000D01*
X109846257Y-87890769D01*
X109935955Y-87927923D01*
X110012976Y-87987024D01*
X110072077Y-88064045D01*
X110109231Y-88153743D01*
X110123000Y-88258328D01*
X110123000Y-92991672D01*
X110109231Y-93096257D01*
X110072077Y-93185955D01*
X110012976Y-93262976D01*
X109935955Y-93322077D01*
X109846257Y-93359231D01*
X109741672Y-93373000D01*
X108508328Y-93373000D01*
X108403743Y-93359231D01*
X108314045Y-93322077D01*
X108237024Y-93262976D01*
X108177923Y-93185955D01*
X108140769Y-93096257D01*
X108127000Y-92991672D01*
X108127000Y-91000000D01*
X108125914Y-90983423D01*
X108108877Y-90854013D01*
X108100296Y-90821989D01*
X108050346Y-90701399D01*
X108033768Y-90672687D01*
X107954308Y-90569134D01*
X107930866Y-90545692D01*
X107827313Y-90466232D01*
X107798601Y-90449654D01*
X107678011Y-90399704D01*
X107645987Y-90391123D01*
X107516577Y-90374086D01*
X107500000Y-90373000D01*
X101838083Y-90373000D01*
X101734506Y-90359500D01*
X101645546Y-90323055D01*
X101562269Y-90260004D01*
X93744290Y-82562302D01*
X93678907Y-82478225D01*
X93641039Y-82387795D01*
X93627000Y-82282213D01*
X93627000Y-74508328D01*
X93640769Y-74403743D01*
X93677923Y-74314045D01*
X93737024Y-74237024D01*
X93814045Y-74177923D01*
X93903743Y-74140769D01*
X94008328Y-74127000D01*
X98991672Y-74127000D01*
X99096257Y-74140769D01*
G04 #@! TA.AperFunction,Conductor*
D18*
G36*
X99096257Y-74140769D02*
G01*
X99185955Y-74177923D01*
X99262976Y-74237024D01*
X99322077Y-74314045D01*
X99359231Y-74403743D01*
X99373000Y-74508328D01*
X99373000Y-83310948D01*
X99373921Y-83326214D01*
X99388370Y-83445547D01*
X99395657Y-83475197D01*
X99438170Y-83587634D01*
X99452323Y-83614687D01*
X99520442Y-83713728D01*
X99529852Y-83725785D01*
X103005486Y-87664837D01*
X103018268Y-87677411D01*
X103125390Y-87768838D01*
X103155599Y-87787997D01*
X103283967Y-87845925D01*
X103318319Y-87855900D01*
X103457748Y-87875734D01*
X103475634Y-87877000D01*
X103660559Y-87877000D01*
X103677673Y-87884089D01*
X103983891Y-87945000D01*
X104296109Y-87945000D01*
X104602327Y-87884089D01*
X104619441Y-87877000D01*
X109741672Y-87877000D01*
X109846257Y-87890769D01*
X109935955Y-87927923D01*
X110012976Y-87987024D01*
X110072077Y-88064045D01*
X110109231Y-88153743D01*
X110123000Y-88258328D01*
X110123000Y-92991672D01*
X110109231Y-93096257D01*
X110072077Y-93185955D01*
X110012976Y-93262976D01*
X109935955Y-93322077D01*
X109846257Y-93359231D01*
X109741672Y-93373000D01*
X108508328Y-93373000D01*
X108403743Y-93359231D01*
X108314045Y-93322077D01*
X108237024Y-93262976D01*
X108177923Y-93185955D01*
X108140769Y-93096257D01*
X108127000Y-92991672D01*
X108127000Y-91000000D01*
X108125914Y-90983423D01*
X108108877Y-90854013D01*
X108100296Y-90821989D01*
X108050346Y-90701399D01*
X108033768Y-90672687D01*
X107954308Y-90569134D01*
X107930866Y-90545692D01*
X107827313Y-90466232D01*
X107798601Y-90449654D01*
X107678011Y-90399704D01*
X107645987Y-90391123D01*
X107516577Y-90374086D01*
X107500000Y-90373000D01*
X101838083Y-90373000D01*
X101734506Y-90359500D01*
X101645546Y-90323055D01*
X101562269Y-90260004D01*
X93744290Y-82562302D01*
X93678907Y-82478225D01*
X93641039Y-82387795D01*
X93627000Y-82282213D01*
X93627000Y-74508328D01*
X93640769Y-74403743D01*
X93677923Y-74314045D01*
X93737024Y-74237024D01*
X93814045Y-74177923D01*
X93903743Y-74140769D01*
X94008328Y-74127000D01*
X98991672Y-74127000D01*
X99096257Y-74140769D01*
G37*
G04 #@! TD.AperFunction*
G04 #@! TD*
D17*
G04 #@! TO.N,/VI_LOW2*
X57607100Y-114890833D02*
X57696974Y-114928159D01*
X57774086Y-114987521D01*
X57833160Y-115064857D01*
X57870146Y-115154867D01*
X57883588Y-115259746D01*
X57867879Y-119448670D01*
X57868977Y-119465820D01*
X57886702Y-119599657D01*
X57895753Y-119632733D01*
X57948639Y-119756950D01*
X57966208Y-119786398D01*
X58050398Y-119891937D01*
X58075206Y-119915612D01*
X58184564Y-119994780D01*
X58199134Y-120003892D01*
X62028817Y-122052459D01*
X62043082Y-122058991D01*
X62158150Y-122103301D01*
X62188542Y-122110866D01*
X62310954Y-122125668D01*
X62326617Y-122126585D01*
X65808511Y-122115149D01*
X65905645Y-122126668D01*
X65989897Y-122158442D01*
X66070455Y-122213940D01*
X68740510Y-124577412D01*
X68814125Y-124663896D01*
X68857036Y-124759186D01*
X68873000Y-124871627D01*
X68873000Y-131713048D01*
X68859322Y-131817294D01*
X68822408Y-131906742D01*
X68763664Y-131983644D01*
X68687073Y-132042784D01*
X68597815Y-132080165D01*
X68493643Y-132094386D01*
X63510294Y-132120341D01*
X63405308Y-132107029D01*
X63315169Y-132070103D01*
X63237716Y-132011045D01*
X63178250Y-131933894D01*
X63140859Y-131843956D01*
X63127000Y-131739039D01*
X63127000Y-125500000D01*
X63125914Y-125483423D01*
X63108877Y-125354013D01*
X63100296Y-125321989D01*
X63050346Y-125201399D01*
X63033768Y-125172687D01*
X62954308Y-125069134D01*
X62930866Y-125045692D01*
X62827313Y-124966232D01*
X62798601Y-124949654D01*
X62678011Y-124899704D01*
X62645987Y-124891123D01*
X62516577Y-124874086D01*
X62500000Y-124873000D01*
X59870504Y-124873000D01*
X59781080Y-124862985D01*
X59696083Y-124833436D01*
X54347134Y-122275243D01*
X54252857Y-122212571D01*
X54185510Y-122133086D01*
X54142864Y-122038039D01*
X54127000Y-121925947D01*
X54127000Y-115258328D01*
X54140769Y-115153743D01*
X54177923Y-115064045D01*
X54237024Y-114987024D01*
X54314045Y-114927923D01*
X54403743Y-114890769D01*
X54508328Y-114877000D01*
X57502280Y-114877000D01*
X57607100Y-114890833D01*
G04 #@! TA.AperFunction,Conductor*
D18*
G36*
X57607100Y-114890833D02*
G01*
X57696974Y-114928159D01*
X57774086Y-114987521D01*
X57833160Y-115064857D01*
X57870146Y-115154867D01*
X57883588Y-115259746D01*
X57867879Y-119448670D01*
X57868977Y-119465820D01*
X57886702Y-119599657D01*
X57895753Y-119632733D01*
X57948639Y-119756950D01*
X57966208Y-119786398D01*
X58050398Y-119891937D01*
X58075206Y-119915612D01*
X58184564Y-119994780D01*
X58199134Y-120003892D01*
X62028817Y-122052459D01*
X62043082Y-122058991D01*
X62158150Y-122103301D01*
X62188542Y-122110866D01*
X62310954Y-122125668D01*
X62326617Y-122126585D01*
X65808511Y-122115149D01*
X65905645Y-122126668D01*
X65989897Y-122158442D01*
X66070455Y-122213940D01*
X68740510Y-124577412D01*
X68814125Y-124663896D01*
X68857036Y-124759186D01*
X68873000Y-124871627D01*
X68873000Y-131713048D01*
X68859322Y-131817294D01*
X68822408Y-131906742D01*
X68763664Y-131983644D01*
X68687073Y-132042784D01*
X68597815Y-132080165D01*
X68493643Y-132094386D01*
X63510294Y-132120341D01*
X63405308Y-132107029D01*
X63315169Y-132070103D01*
X63237716Y-132011045D01*
X63178250Y-131933894D01*
X63140859Y-131843956D01*
X63127000Y-131739039D01*
X63127000Y-125500000D01*
X63125914Y-125483423D01*
X63108877Y-125354013D01*
X63100296Y-125321989D01*
X63050346Y-125201399D01*
X63033768Y-125172687D01*
X62954308Y-125069134D01*
X62930866Y-125045692D01*
X62827313Y-124966232D01*
X62798601Y-124949654D01*
X62678011Y-124899704D01*
X62645987Y-124891123D01*
X62516577Y-124874086D01*
X62500000Y-124873000D01*
X59870504Y-124873000D01*
X59781080Y-124862985D01*
X59696083Y-124833436D01*
X54347134Y-122275243D01*
X54252857Y-122212571D01*
X54185510Y-122133086D01*
X54142864Y-122038039D01*
X54127000Y-121925947D01*
X54127000Y-115258328D01*
X54140769Y-115153743D01*
X54177923Y-115064045D01*
X54237024Y-114987024D01*
X54314045Y-114927923D01*
X54403743Y-114890769D01*
X54508328Y-114877000D01*
X57502280Y-114877000D01*
X57607100Y-114890833D01*
G37*
G04 #@! TD.AperFunction*
G04 #@! TD*
D17*
G04 #@! TO.N,/N*
X96096257Y-123140769D02*
X96185955Y-123177923D01*
X96262976Y-123237024D01*
X96322077Y-123314045D01*
X96359231Y-123403743D01*
X96373000Y-123508328D01*
X96373000Y-130491672D01*
X96359231Y-130596257D01*
X96322077Y-130685955D01*
X96262976Y-130762976D01*
X96185955Y-130822077D01*
X96096257Y-130859231D01*
X95991672Y-130873000D01*
X95356769Y-130873000D01*
X95144645Y-130660876D01*
X94845409Y-130460934D01*
X94512916Y-130323211D01*
X94159944Y-130253000D01*
X93800056Y-130253000D01*
X93447084Y-130323211D01*
X93114591Y-130460934D01*
X92815355Y-130660876D01*
X92710000Y-130766231D01*
X92604645Y-130660876D01*
X92305409Y-130460934D01*
X91972916Y-130323211D01*
X91619944Y-130253000D01*
X91260056Y-130253000D01*
X90907084Y-130323211D01*
X90574591Y-130460934D01*
X90275355Y-130660876D01*
X90063231Y-130873000D01*
X86500000Y-130873000D01*
X86483423Y-130874086D01*
X86354013Y-130891123D01*
X86321989Y-130899704D01*
X86201399Y-130949654D01*
X86172687Y-130966232D01*
X86069134Y-131045692D01*
X86045692Y-131069134D01*
X85966232Y-131172687D01*
X85949654Y-131201399D01*
X85899704Y-131321989D01*
X85891123Y-131354013D01*
X85874086Y-131483423D01*
X85873000Y-131500000D01*
X85873000Y-140891672D01*
X85859231Y-140996257D01*
X85822077Y-141085955D01*
X85812834Y-141098000D01*
X73387166Y-141098000D01*
X73377923Y-141085955D01*
X73340769Y-140996257D01*
X73327000Y-140891672D01*
X73327000Y-123508328D01*
X73340769Y-123403743D01*
X73377923Y-123314045D01*
X73437024Y-123237024D01*
X73514045Y-123177923D01*
X73603743Y-123140769D01*
X73708328Y-123127000D01*
X95991672Y-123127000D01*
X96096257Y-123140769D01*
G04 #@! TA.AperFunction,Conductor*
D18*
G36*
X96096257Y-123140769D02*
G01*
X96185955Y-123177923D01*
X96262976Y-123237024D01*
X96322077Y-123314045D01*
X96359231Y-123403743D01*
X96373000Y-123508328D01*
X96373000Y-130491672D01*
X96359231Y-130596257D01*
X96322077Y-130685955D01*
X96262976Y-130762976D01*
X96185955Y-130822077D01*
X96096257Y-130859231D01*
X95991672Y-130873000D01*
X95356769Y-130873000D01*
X95144645Y-130660876D01*
X94845409Y-130460934D01*
X94512916Y-130323211D01*
X94159944Y-130253000D01*
X93800056Y-130253000D01*
X93447084Y-130323211D01*
X93114591Y-130460934D01*
X92815355Y-130660876D01*
X92710000Y-130766231D01*
X92604645Y-130660876D01*
X92305409Y-130460934D01*
X91972916Y-130323211D01*
X91619944Y-130253000D01*
X91260056Y-130253000D01*
X90907084Y-130323211D01*
X90574591Y-130460934D01*
X90275355Y-130660876D01*
X90063231Y-130873000D01*
X86500000Y-130873000D01*
X86483423Y-130874086D01*
X86354013Y-130891123D01*
X86321989Y-130899704D01*
X86201399Y-130949654D01*
X86172687Y-130966232D01*
X86069134Y-131045692D01*
X86045692Y-131069134D01*
X85966232Y-131172687D01*
X85949654Y-131201399D01*
X85899704Y-131321989D01*
X85891123Y-131354013D01*
X85874086Y-131483423D01*
X85873000Y-131500000D01*
X85873000Y-140891672D01*
X85859231Y-140996257D01*
X85822077Y-141085955D01*
X85812834Y-141098000D01*
X73387166Y-141098000D01*
X73377923Y-141085955D01*
X73340769Y-140996257D01*
X73327000Y-140891672D01*
X73327000Y-123508328D01*
X73340769Y-123403743D01*
X73377923Y-123314045D01*
X73437024Y-123237024D01*
X73514045Y-123177923D01*
X73603743Y-123140769D01*
X73708328Y-123127000D01*
X95991672Y-123127000D01*
X96096257Y-123140769D01*
G37*
G04 #@! TD.AperFunction*
G04 #@! TD*
D17*
G04 #@! TO.N,GNDREF*
X111736599Y-123109689D02*
X111826480Y-123146748D01*
X111903687Y-123205833D01*
X111962940Y-123282910D01*
X112000193Y-123372706D01*
X112014000Y-123477434D01*
X112014000Y-123936174D01*
X112006528Y-123945279D01*
X111878663Y-124184496D01*
X111799925Y-124444061D01*
X111773338Y-124714000D01*
X111780001Y-124781649D01*
X111780000Y-127827303D01*
X111738308Y-127844701D01*
X111633997Y-127858774D01*
X103509650Y-127887216D01*
X103404793Y-127873753D01*
X103314802Y-127836754D01*
X103237490Y-127777680D01*
X103178142Y-127700570D01*
X103140830Y-127610714D01*
X103127000Y-127505901D01*
X103127000Y-127500000D01*
X103125914Y-127483423D01*
X103108877Y-127354013D01*
X103100296Y-127321989D01*
X103050346Y-127201399D01*
X103033768Y-127172687D01*
X102954308Y-127069134D01*
X102930866Y-127045692D01*
X102827313Y-126966232D01*
X102798601Y-126949654D01*
X102678011Y-126899704D01*
X102645987Y-126891123D01*
X102516577Y-126874086D01*
X102500000Y-126873000D01*
X98008328Y-126873000D01*
X97903743Y-126859231D01*
X97814045Y-126822077D01*
X97737024Y-126762976D01*
X97677923Y-126685955D01*
X97640769Y-126596257D01*
X97627000Y-126491672D01*
X97627000Y-123507224D01*
X97640731Y-123402779D01*
X97677782Y-123313190D01*
X97736733Y-123236220D01*
X97813578Y-123177098D01*
X97903089Y-123139850D01*
X98007494Y-123125892D01*
X111631855Y-123096113D01*
X111736599Y-123109689D01*
G04 #@! TA.AperFunction,Conductor*
D18*
G36*
X111736599Y-123109689D02*
G01*
X111826480Y-123146748D01*
X111903687Y-123205833D01*
X111962940Y-123282910D01*
X112000193Y-123372706D01*
X112014000Y-123477434D01*
X112014000Y-123936174D01*
X112006528Y-123945279D01*
X111878663Y-124184496D01*
X111799925Y-124444061D01*
X111773338Y-124714000D01*
X111780001Y-124781649D01*
X111780000Y-127827303D01*
X111738308Y-127844701D01*
X111633997Y-127858774D01*
X103509650Y-127887216D01*
X103404793Y-127873753D01*
X103314802Y-127836754D01*
X103237490Y-127777680D01*
X103178142Y-127700570D01*
X103140830Y-127610714D01*
X103127000Y-127505901D01*
X103127000Y-127500000D01*
X103125914Y-127483423D01*
X103108877Y-127354013D01*
X103100296Y-127321989D01*
X103050346Y-127201399D01*
X103033768Y-127172687D01*
X102954308Y-127069134D01*
X102930866Y-127045692D01*
X102827313Y-126966232D01*
X102798601Y-126949654D01*
X102678011Y-126899704D01*
X102645987Y-126891123D01*
X102516577Y-126874086D01*
X102500000Y-126873000D01*
X98008328Y-126873000D01*
X97903743Y-126859231D01*
X97814045Y-126822077D01*
X97737024Y-126762976D01*
X97677923Y-126685955D01*
X97640769Y-126596257D01*
X97627000Y-126491672D01*
X97627000Y-123507224D01*
X97640731Y-123402779D01*
X97677782Y-123313190D01*
X97736733Y-123236220D01*
X97813578Y-123177098D01*
X97903089Y-123139850D01*
X98007494Y-123125892D01*
X111631855Y-123096113D01*
X111736599Y-123109689D01*
G37*
G04 #@! TD.AperFunction*
G04 #@! TD*
D17*
G04 #@! TO.N,/DGND*
X79590226Y-96696063D02*
X79446063Y-96840226D01*
X79332795Y-97009744D01*
X79254774Y-97198102D01*
X79215000Y-97398061D01*
X79215000Y-97601939D01*
X79254774Y-97801898D01*
X79332795Y-97990256D01*
X79446063Y-98159774D01*
X79590226Y-98303937D01*
X79759744Y-98417205D01*
X79948102Y-98495226D01*
X80148061Y-98535000D01*
X80351939Y-98535000D01*
X80551898Y-98495226D01*
X80740256Y-98417205D01*
X80909774Y-98303937D01*
X81053937Y-98159774D01*
X81167205Y-97990256D01*
X81205393Y-97898061D01*
X90215000Y-97898061D01*
X90215000Y-98101939D01*
X90254774Y-98301898D01*
X90332795Y-98490256D01*
X90446063Y-98659774D01*
X90590226Y-98803937D01*
X90759744Y-98917205D01*
X90948102Y-98995226D01*
X91148061Y-99035000D01*
X91351939Y-99035000D01*
X91551898Y-98995226D01*
X91740256Y-98917205D01*
X91909774Y-98803937D01*
X92053937Y-98659774D01*
X92167205Y-98490256D01*
X92245226Y-98301898D01*
X92285000Y-98101939D01*
X92285000Y-97898061D01*
X92245226Y-97698102D01*
X92167205Y-97509744D01*
X92053937Y-97340226D01*
X91909774Y-97196063D01*
X91740256Y-97082795D01*
X91551898Y-97004774D01*
X91351939Y-96965000D01*
X91148061Y-96965000D01*
X90948102Y-97004774D01*
X90759744Y-97082795D01*
X90590226Y-97196063D01*
X90446063Y-97340226D01*
X90332795Y-97509744D01*
X90254774Y-97698102D01*
X90215000Y-97898061D01*
X81205393Y-97898061D01*
X81245226Y-97801898D01*
X81285000Y-97601939D01*
X81285000Y-97398061D01*
X81245226Y-97198102D01*
X81167205Y-97009744D01*
X81053937Y-96840226D01*
X80909774Y-96696063D01*
X80806414Y-96627000D01*
X110638041Y-96627000D01*
X110603687Y-97032946D01*
X110656158Y-97499811D01*
X110798703Y-97947468D01*
X110989234Y-98303927D01*
X111330391Y-98490003D01*
X112820395Y-97000000D01*
X112806253Y-96985858D01*
X112985858Y-96806253D01*
X113000000Y-96820395D01*
X113014143Y-96806253D01*
X113193748Y-96985858D01*
X113179605Y-97000000D01*
X113193748Y-97014143D01*
X113014143Y-97193748D01*
X113000000Y-97179605D01*
X111509997Y-98669609D01*
X111696073Y-99010766D01*
X112113409Y-99226513D01*
X112564815Y-99356696D01*
X113032946Y-99396313D01*
X113373000Y-99358094D01*
X113373000Y-109443586D01*
X113303937Y-109340226D01*
X113159774Y-109196063D01*
X112990256Y-109082795D01*
X112801898Y-109004774D01*
X112601939Y-108965000D01*
X112398061Y-108965000D01*
X112198102Y-109004774D01*
X112009744Y-109082795D01*
X111840226Y-109196063D01*
X111696063Y-109340226D01*
X111582795Y-109509744D01*
X111504774Y-109698102D01*
X111465000Y-109898061D01*
X111465000Y-110101939D01*
X111504774Y-110301898D01*
X111582795Y-110490256D01*
X111696063Y-110659774D01*
X111840226Y-110803937D01*
X112009744Y-110917205D01*
X112198102Y-110995226D01*
X112398061Y-111035000D01*
X112601939Y-111035000D01*
X112801898Y-110995226D01*
X112990256Y-110917205D01*
X113159774Y-110803937D01*
X113303937Y-110659774D01*
X113373000Y-110556414D01*
X113373000Y-119491672D01*
X113359231Y-119596257D01*
X113322077Y-119685955D01*
X113262976Y-119762976D01*
X113185955Y-119822077D01*
X113096257Y-119859231D01*
X112991672Y-119873000D01*
X94235000Y-119873000D01*
X94235000Y-119779872D01*
X94149110Y-119348075D01*
X93980631Y-118941331D01*
X93736038Y-118575271D01*
X93424729Y-118263962D01*
X93058669Y-118019369D01*
X92866457Y-117939752D01*
X96399853Y-117939752D01*
X96489579Y-118199042D01*
X96495901Y-118202098D01*
X96481282Y-118275595D01*
X96481282Y-118479473D01*
X96521056Y-118679432D01*
X96599077Y-118867790D01*
X96712345Y-119037308D01*
X96856508Y-119181471D01*
X97026026Y-119294739D01*
X97214384Y-119372760D01*
X97414343Y-119412534D01*
X97618221Y-119412534D01*
X97818180Y-119372760D01*
X98006538Y-119294739D01*
X98176056Y-119181471D01*
X98320219Y-119037308D01*
X98433487Y-118867790D01*
X98511508Y-118679432D01*
X98551282Y-118479473D01*
X98551282Y-118398061D01*
X107715000Y-118398061D01*
X107715000Y-118601939D01*
X107754774Y-118801898D01*
X107832795Y-118990256D01*
X107946063Y-119159774D01*
X108090226Y-119303937D01*
X108259744Y-119417205D01*
X108448102Y-119495226D01*
X108648061Y-119535000D01*
X108851939Y-119535000D01*
X109051898Y-119495226D01*
X109240256Y-119417205D01*
X109409774Y-119303937D01*
X109553937Y-119159774D01*
X109667205Y-118990256D01*
X109745226Y-118801898D01*
X109785000Y-118601939D01*
X109785000Y-118398061D01*
X109745226Y-118198102D01*
X109667205Y-118009744D01*
X109553937Y-117840226D01*
X109409774Y-117696063D01*
X109240256Y-117582795D01*
X109051898Y-117504774D01*
X108851939Y-117465000D01*
X108648061Y-117465000D01*
X108448102Y-117504774D01*
X108259744Y-117582795D01*
X108090226Y-117696063D01*
X107946063Y-117840226D01*
X107832795Y-118009744D01*
X107754774Y-118198102D01*
X107715000Y-118398061D01*
X98551282Y-118398061D01*
X98551282Y-118275595D01*
X98511508Y-118075636D01*
X98460065Y-117951441D01*
X98535557Y-117875949D01*
X98419754Y-117760146D01*
X98679042Y-117670421D01*
X98814935Y-117389329D01*
X98893379Y-117087127D01*
X98911359Y-116775427D01*
X98868184Y-116466209D01*
X98765513Y-116171356D01*
X98679042Y-116009579D01*
X98419752Y-115919853D01*
X97499605Y-116840000D01*
X97513748Y-116854143D01*
X97334143Y-117033748D01*
X97320000Y-117019605D01*
X96399853Y-117939752D01*
X92866457Y-117939752D01*
X92651925Y-117850890D01*
X92220128Y-117765000D01*
X91779872Y-117765000D01*
X91348075Y-117850890D01*
X90941331Y-118019369D01*
X90575271Y-118263962D01*
X90263962Y-118575271D01*
X90019369Y-118941331D01*
X89850890Y-119348075D01*
X89765000Y-119779872D01*
X89765000Y-119873000D01*
X70508328Y-119873000D01*
X70403743Y-119859231D01*
X70314045Y-119822077D01*
X70237024Y-119762976D01*
X70177923Y-119685955D01*
X70140769Y-119596257D01*
X70127000Y-119491672D01*
X70127000Y-117939752D01*
X86479853Y-117939752D01*
X86569579Y-118199042D01*
X86850671Y-118334935D01*
X87152873Y-118413379D01*
X87464573Y-118431359D01*
X87773791Y-118388184D01*
X88068644Y-118285513D01*
X88230421Y-118199042D01*
X88320147Y-117939752D01*
X87400000Y-117019605D01*
X86479853Y-117939752D01*
X70127000Y-117939752D01*
X70127000Y-116904573D01*
X85808641Y-116904573D01*
X85851816Y-117213791D01*
X85954487Y-117508644D01*
X86040958Y-117670421D01*
X86300248Y-117760147D01*
X87220395Y-116840000D01*
X87579605Y-116840000D01*
X88499752Y-117760147D01*
X88759042Y-117670421D01*
X88894935Y-117389329D01*
X88973379Y-117087127D01*
X88983909Y-116904573D01*
X95728641Y-116904573D01*
X95771816Y-117213791D01*
X95874487Y-117508644D01*
X95960958Y-117670421D01*
X96220248Y-117760147D01*
X97140395Y-116840000D01*
X96220248Y-115919853D01*
X95960958Y-116009579D01*
X95825065Y-116290671D01*
X95746621Y-116592873D01*
X95728641Y-116904573D01*
X88983909Y-116904573D01*
X88991359Y-116775427D01*
X88948184Y-116466209D01*
X88845513Y-116171356D01*
X88759042Y-116009579D01*
X88499752Y-115919853D01*
X87579605Y-116840000D01*
X87220395Y-116840000D01*
X86300248Y-115919853D01*
X86040958Y-116009579D01*
X85905065Y-116290671D01*
X85826621Y-116592873D01*
X85808641Y-116904573D01*
X70127000Y-116904573D01*
X70127000Y-113398061D01*
X84715000Y-113398061D01*
X84715000Y-113601939D01*
X84754774Y-113801898D01*
X84832795Y-113990256D01*
X84946063Y-114159774D01*
X85090226Y-114303937D01*
X85259744Y-114417205D01*
X85448102Y-114495226D01*
X85648061Y-114535000D01*
X85830693Y-114535000D01*
X85875911Y-114762327D01*
X85995391Y-115050779D01*
X86168850Y-115310379D01*
X86389621Y-115531150D01*
X86521676Y-115619387D01*
X86479853Y-115740248D01*
X87400000Y-116660395D01*
X88320147Y-115740248D01*
X88278324Y-115619387D01*
X88410379Y-115531150D01*
X88631150Y-115310379D01*
X88804609Y-115050779D01*
X88924089Y-114762327D01*
X88985000Y-114456109D01*
X88985000Y-114143891D01*
X95735000Y-114143891D01*
X95735000Y-114456109D01*
X95795911Y-114762327D01*
X95915391Y-115050779D01*
X96088850Y-115310379D01*
X96309621Y-115531150D01*
X96441676Y-115619387D01*
X96399853Y-115740248D01*
X97320000Y-116660395D01*
X98240147Y-115740248D01*
X98198324Y-115619387D01*
X98330379Y-115531150D01*
X98551150Y-115310379D01*
X98724609Y-115050779D01*
X98844089Y-114762327D01*
X98905000Y-114456109D01*
X98905000Y-114143891D01*
X98844089Y-113837673D01*
X98724609Y-113549221D01*
X98551150Y-113289621D01*
X98330379Y-113068850D01*
X98070779Y-112895391D01*
X97782327Y-112775911D01*
X97476109Y-112715000D01*
X97163891Y-112715000D01*
X96857673Y-112775911D01*
X96569221Y-112895391D01*
X96309621Y-113068850D01*
X96088850Y-113289621D01*
X95915391Y-113549221D01*
X95795911Y-113837673D01*
X95735000Y-114143891D01*
X88985000Y-114143891D01*
X88924089Y-113837673D01*
X88804609Y-113549221D01*
X88631150Y-113289621D01*
X88410379Y-113068850D01*
X88150779Y-112895391D01*
X87862327Y-112775911D01*
X87556109Y-112715000D01*
X87243891Y-112715000D01*
X86937673Y-112775911D01*
X86649221Y-112895391D01*
X86608830Y-112922379D01*
X86553937Y-112840226D01*
X86409774Y-112696063D01*
X86240256Y-112582795D01*
X86051898Y-112504774D01*
X85851939Y-112465000D01*
X85648061Y-112465000D01*
X85448102Y-112504774D01*
X85259744Y-112582795D01*
X85090226Y-112696063D01*
X84946063Y-112840226D01*
X84832795Y-113009744D01*
X84754774Y-113198102D01*
X84715000Y-113398061D01*
X70127000Y-113398061D01*
X70127000Y-109098061D01*
X75165000Y-109098061D01*
X75165000Y-109301939D01*
X75204774Y-109501898D01*
X75282795Y-109690256D01*
X75396063Y-109859774D01*
X75540226Y-110003937D01*
X75709744Y-110117205D01*
X75898102Y-110195226D01*
X76098061Y-110235000D01*
X76301939Y-110235000D01*
X76501898Y-110195226D01*
X76640001Y-110138021D01*
X76640001Y-111112679D01*
X76636325Y-111150001D01*
X76640001Y-111187323D01*
X76640001Y-111187333D01*
X76650998Y-111298986D01*
X76681332Y-111398985D01*
X76694455Y-111442247D01*
X76765027Y-111574277D01*
X76786970Y-111601014D01*
X76860000Y-111690002D01*
X76889003Y-111713804D01*
X77436200Y-112261002D01*
X77459999Y-112290001D01*
X77575724Y-112384974D01*
X77707753Y-112455546D01*
X77851014Y-112499003D01*
X77962667Y-112510000D01*
X77962675Y-112510000D01*
X78000000Y-112513676D01*
X78037325Y-112510000D01*
X81746289Y-112510000D01*
X81790226Y-112553937D01*
X81959744Y-112667205D01*
X82148102Y-112745226D01*
X82348061Y-112785000D01*
X82551939Y-112785000D01*
X82751898Y-112745226D01*
X82940256Y-112667205D01*
X83109774Y-112553937D01*
X83253937Y-112409774D01*
X83367205Y-112240256D01*
X83445226Y-112051898D01*
X83485000Y-111851939D01*
X83485000Y-111789802D01*
X83514802Y-111760000D01*
X86185199Y-111760000D01*
X86696201Y-112271002D01*
X86719999Y-112300001D01*
X86835724Y-112394974D01*
X86967753Y-112465546D01*
X87111014Y-112509003D01*
X87222667Y-112520000D01*
X87222676Y-112520000D01*
X87259999Y-112523676D01*
X87297322Y-112520000D01*
X88401552Y-112520000D01*
X88568850Y-112770379D01*
X88789621Y-112991150D01*
X89049221Y-113164609D01*
X89337673Y-113284089D01*
X89643891Y-113345000D01*
X89956109Y-113345000D01*
X90262327Y-113284089D01*
X90550779Y-113164609D01*
X90810379Y-112991150D01*
X91031150Y-112770379D01*
X91204609Y-112510779D01*
X91324089Y-112222327D01*
X91385000Y-111916109D01*
X91385000Y-111603891D01*
X93195000Y-111603891D01*
X93195000Y-111916109D01*
X93255911Y-112222327D01*
X93375391Y-112510779D01*
X93548850Y-112770379D01*
X93769621Y-112991150D01*
X94029221Y-113164609D01*
X94317673Y-113284089D01*
X94623891Y-113345000D01*
X94936109Y-113345000D01*
X95242327Y-113284089D01*
X95530779Y-113164609D01*
X95790379Y-112991150D01*
X96011150Y-112770379D01*
X96184609Y-112510779D01*
X96304089Y-112222327D01*
X96365000Y-111916109D01*
X96365000Y-111603891D01*
X96304089Y-111297673D01*
X96184609Y-111009221D01*
X96011150Y-110749621D01*
X95790379Y-110528850D01*
X95658324Y-110440613D01*
X95700147Y-110319752D01*
X98939853Y-110319752D01*
X99029579Y-110579042D01*
X99310671Y-110714935D01*
X99612873Y-110793379D01*
X99924573Y-110811359D01*
X100233791Y-110768184D01*
X100465000Y-110687675D01*
X100465000Y-110851939D01*
X100504774Y-111051898D01*
X100582795Y-111240256D01*
X100696063Y-111409774D01*
X100840226Y-111553937D01*
X101009744Y-111667205D01*
X101198102Y-111745226D01*
X101398061Y-111785000D01*
X101601939Y-111785000D01*
X101801898Y-111745226D01*
X101990256Y-111667205D01*
X102159774Y-111553937D01*
X102303937Y-111409774D01*
X102417205Y-111240256D01*
X102495226Y-111051898D01*
X102535000Y-110851939D01*
X102535000Y-110648061D01*
X102495226Y-110448102D01*
X102417205Y-110259744D01*
X102303937Y-110090226D01*
X102159774Y-109946063D01*
X101990256Y-109832795D01*
X101801898Y-109754774D01*
X101601939Y-109715000D01*
X101398061Y-109715000D01*
X101367457Y-109721087D01*
X101433379Y-109467127D01*
X101451359Y-109155427D01*
X101408184Y-108846209D01*
X101305513Y-108551356D01*
X101219042Y-108389579D01*
X100959752Y-108299853D01*
X100039605Y-109220000D01*
X100053748Y-109234143D01*
X99874143Y-109413748D01*
X99860000Y-109399605D01*
X98939853Y-110319752D01*
X95700147Y-110319752D01*
X94780000Y-109399605D01*
X93859853Y-110319752D01*
X93901676Y-110440613D01*
X93769621Y-110528850D01*
X93548850Y-110749621D01*
X93375391Y-111009221D01*
X93255911Y-111297673D01*
X93195000Y-111603891D01*
X91385000Y-111603891D01*
X91324089Y-111297673D01*
X91204609Y-111009221D01*
X91031150Y-110749621D01*
X90810379Y-110528850D01*
X90678324Y-110440613D01*
X90720147Y-110319752D01*
X89800000Y-109399605D01*
X88879853Y-110319752D01*
X88921676Y-110440613D01*
X88789621Y-110528850D01*
X88568850Y-110749621D01*
X88401552Y-111000000D01*
X87574802Y-111000000D01*
X87063803Y-110489002D01*
X87040001Y-110459999D01*
X86924276Y-110365026D01*
X86792247Y-110294454D01*
X86648986Y-110250997D01*
X86537333Y-110240000D01*
X86537322Y-110240000D01*
X86500000Y-110236324D01*
X86462678Y-110240000D01*
X85819608Y-110240000D01*
X85719754Y-110140146D01*
X85979042Y-110050421D01*
X86114935Y-109769329D01*
X86193379Y-109467127D01*
X86203909Y-109284573D01*
X88208641Y-109284573D01*
X88251816Y-109593791D01*
X88354487Y-109888644D01*
X88440958Y-110050421D01*
X88700248Y-110140147D01*
X89620395Y-109220000D01*
X89979605Y-109220000D01*
X90899752Y-110140147D01*
X91159042Y-110050421D01*
X91294935Y-109769329D01*
X91373379Y-109467127D01*
X91383909Y-109284573D01*
X93188641Y-109284573D01*
X93231816Y-109593791D01*
X93334487Y-109888644D01*
X93420958Y-110050421D01*
X93680248Y-110140147D01*
X94600395Y-109220000D01*
X94959605Y-109220000D01*
X95879752Y-110140147D01*
X96139042Y-110050421D01*
X96274935Y-109769329D01*
X96353379Y-109467127D01*
X96363909Y-109284573D01*
X98268641Y-109284573D01*
X98311816Y-109593791D01*
X98414487Y-109888644D01*
X98500958Y-110050421D01*
X98760248Y-110140147D01*
X99680395Y-109220000D01*
X98760248Y-108299853D01*
X98500958Y-108389579D01*
X98365065Y-108670671D01*
X98286621Y-108972873D01*
X98268641Y-109284573D01*
X96363909Y-109284573D01*
X96371359Y-109155427D01*
X96328184Y-108846209D01*
X96225513Y-108551356D01*
X96139042Y-108389579D01*
X95879752Y-108299853D01*
X94959605Y-109220000D01*
X94600395Y-109220000D01*
X93680248Y-108299853D01*
X93420958Y-108389579D01*
X93285065Y-108670671D01*
X93206621Y-108972873D01*
X93188641Y-109284573D01*
X91383909Y-109284573D01*
X91391359Y-109155427D01*
X91348184Y-108846209D01*
X91245513Y-108551356D01*
X91159042Y-108389579D01*
X90899752Y-108299853D01*
X89979605Y-109220000D01*
X89620395Y-109220000D01*
X88700248Y-108299853D01*
X88440958Y-108389579D01*
X88305065Y-108670671D01*
X88226621Y-108972873D01*
X88208641Y-109284573D01*
X86203909Y-109284573D01*
X86211359Y-109155427D01*
X86168184Y-108846209D01*
X86065513Y-108551356D01*
X85979042Y-108389579D01*
X85719752Y-108299853D01*
X84799605Y-109220000D01*
X84813748Y-109234143D01*
X84634143Y-109413748D01*
X84620000Y-109399605D01*
X84605858Y-109413748D01*
X84426253Y-109234143D01*
X84440395Y-109220000D01*
X83520248Y-108299853D01*
X83260958Y-108389579D01*
X83125065Y-108670671D01*
X83046621Y-108972873D01*
X83028641Y-109284573D01*
X83071816Y-109593791D01*
X83174487Y-109888644D01*
X83260958Y-110050421D01*
X83520246Y-110140146D01*
X83420392Y-110240000D01*
X83237322Y-110240000D01*
X83199999Y-110236324D01*
X83162676Y-110240000D01*
X83162667Y-110240000D01*
X83051014Y-110250997D01*
X82907753Y-110294454D01*
X82775724Y-110365026D01*
X82659999Y-110459999D01*
X82636201Y-110488998D01*
X82410198Y-110715000D01*
X82348061Y-110715000D01*
X82148102Y-110754774D01*
X81959744Y-110832795D01*
X81790226Y-110946063D01*
X81746289Y-110990000D01*
X78314802Y-110990000D01*
X78160001Y-110835200D01*
X78160001Y-104398061D01*
X82715000Y-104398061D01*
X82715000Y-104601939D01*
X82754774Y-104801898D01*
X82832795Y-104990256D01*
X82946063Y-105159774D01*
X83090226Y-105303937D01*
X83259744Y-105417205D01*
X83448102Y-105495226D01*
X83544142Y-105514329D01*
X83388850Y-105669621D01*
X83215391Y-105929221D01*
X83095911Y-106217673D01*
X83035000Y-106523891D01*
X83035000Y-106836109D01*
X83095911Y-107142327D01*
X83215391Y-107430779D01*
X83388850Y-107690379D01*
X83609621Y-107911150D01*
X83741676Y-107999387D01*
X83699853Y-108120248D01*
X84620000Y-109040395D01*
X85540147Y-108120248D01*
X85498324Y-107999387D01*
X85630379Y-107911150D01*
X85761777Y-107779752D01*
X86479853Y-107779752D01*
X86569579Y-108039042D01*
X86850671Y-108174935D01*
X87152873Y-108253379D01*
X87464573Y-108271359D01*
X87773791Y-108228184D01*
X88068644Y-108125513D01*
X88230421Y-108039042D01*
X88320147Y-107779752D01*
X87400000Y-106859605D01*
X86479853Y-107779752D01*
X85761777Y-107779752D01*
X85851150Y-107690379D01*
X86010042Y-107452580D01*
X86040958Y-107510421D01*
X86300248Y-107600147D01*
X87220395Y-106680000D01*
X87579605Y-106680000D01*
X88499752Y-107600147D01*
X88506905Y-107597672D01*
X88568850Y-107690379D01*
X88789621Y-107911150D01*
X88921676Y-107999387D01*
X88879853Y-108120248D01*
X89800000Y-109040395D01*
X90720147Y-108120248D01*
X90678324Y-107999387D01*
X90810379Y-107911150D01*
X91031150Y-107690379D01*
X91204609Y-107430779D01*
X91324089Y-107142327D01*
X91385000Y-106836109D01*
X91385000Y-106523891D01*
X93195000Y-106523891D01*
X93195000Y-106836109D01*
X93255911Y-107142327D01*
X93375391Y-107430779D01*
X93548850Y-107690379D01*
X93769621Y-107911150D01*
X93901676Y-107999387D01*
X93859853Y-108120248D01*
X94780000Y-109040395D01*
X95700147Y-108120248D01*
X95658324Y-107999387D01*
X95790379Y-107911150D01*
X95921777Y-107779752D01*
X96399853Y-107779752D01*
X96489579Y-108039042D01*
X96770671Y-108174935D01*
X97072873Y-108253379D01*
X97384573Y-108271359D01*
X97693791Y-108228184D01*
X97988644Y-108125513D01*
X98150421Y-108039042D01*
X98240147Y-107779752D01*
X97320000Y-106859605D01*
X96399853Y-107779752D01*
X95921777Y-107779752D01*
X96011150Y-107690379D01*
X96099387Y-107558324D01*
X96220248Y-107600147D01*
X97140395Y-106680000D01*
X97499605Y-106680000D01*
X98419752Y-107600147D01*
X98540613Y-107558324D01*
X98628850Y-107690379D01*
X98849621Y-107911150D01*
X98981676Y-107999387D01*
X98939853Y-108120248D01*
X99860000Y-109040395D01*
X100780147Y-108120248D01*
X100738324Y-107999387D01*
X100870379Y-107911150D01*
X101091150Y-107690379D01*
X101264609Y-107430779D01*
X101384089Y-107142327D01*
X101445000Y-106836109D01*
X101445000Y-106523891D01*
X101384089Y-106217673D01*
X101264609Y-105929221D01*
X101091150Y-105669621D01*
X100870379Y-105448850D01*
X100610779Y-105275391D01*
X100322327Y-105155911D01*
X100016109Y-105095000D01*
X99703891Y-105095000D01*
X99397673Y-105155911D01*
X99109221Y-105275391D01*
X98849621Y-105448850D01*
X98628850Y-105669621D01*
X98540613Y-105801676D01*
X98419752Y-105759853D01*
X97499605Y-106680000D01*
X97140395Y-106680000D01*
X96220248Y-105759853D01*
X96099387Y-105801676D01*
X96011150Y-105669621D01*
X95921777Y-105580248D01*
X96399853Y-105580248D01*
X97320000Y-106500395D01*
X98240147Y-105580248D01*
X98150421Y-105320958D01*
X97869329Y-105185065D01*
X97567127Y-105106621D01*
X97255427Y-105088641D01*
X96946209Y-105131816D01*
X96651356Y-105234487D01*
X96489579Y-105320958D01*
X96399853Y-105580248D01*
X95921777Y-105580248D01*
X95790379Y-105448850D01*
X95530779Y-105275391D01*
X95379925Y-105212906D01*
X95490256Y-105167205D01*
X95659774Y-105053937D01*
X95803937Y-104909774D01*
X95917205Y-104740256D01*
X95995226Y-104551898D01*
X96035000Y-104351939D01*
X96035000Y-104148061D01*
X95995226Y-103948102D01*
X95917205Y-103759744D01*
X95803937Y-103590226D01*
X95659774Y-103446063D01*
X95490256Y-103332795D01*
X95301898Y-103254774D01*
X95101939Y-103215000D01*
X94898061Y-103215000D01*
X94698102Y-103254774D01*
X94509744Y-103332795D01*
X94340226Y-103446063D01*
X94196063Y-103590226D01*
X94082795Y-103759744D01*
X94004774Y-103948102D01*
X93965000Y-104148061D01*
X93965000Y-104351939D01*
X94004774Y-104551898D01*
X94082795Y-104740256D01*
X94196063Y-104909774D01*
X94340226Y-105053937D01*
X94452657Y-105129061D01*
X94317673Y-105155911D01*
X94029221Y-105275391D01*
X93769621Y-105448850D01*
X93548850Y-105669621D01*
X93375391Y-105929221D01*
X93255911Y-106217673D01*
X93195000Y-106523891D01*
X91385000Y-106523891D01*
X91324089Y-106217673D01*
X91204609Y-105929221D01*
X91031150Y-105669621D01*
X90810379Y-105448850D01*
X90550779Y-105275391D01*
X90262327Y-105155911D01*
X89956109Y-105095000D01*
X89643891Y-105095000D01*
X89337673Y-105155911D01*
X89049221Y-105275391D01*
X88789621Y-105448850D01*
X88568850Y-105669621D01*
X88506905Y-105762328D01*
X88499752Y-105759853D01*
X87579605Y-106680000D01*
X87220395Y-106680000D01*
X86300248Y-105759853D01*
X86040958Y-105849579D01*
X86011755Y-105909984D01*
X85851150Y-105669621D01*
X85761777Y-105580248D01*
X86479853Y-105580248D01*
X87400000Y-106500395D01*
X88320147Y-105580248D01*
X88230421Y-105320958D01*
X87949329Y-105185065D01*
X87647127Y-105106621D01*
X87335427Y-105088641D01*
X87026209Y-105131816D01*
X86731356Y-105234487D01*
X86569579Y-105320958D01*
X86479853Y-105580248D01*
X85761777Y-105580248D01*
X85630379Y-105448850D01*
X85370779Y-105275391D01*
X85082327Y-105155911D01*
X84776109Y-105095000D01*
X84597217Y-105095000D01*
X84667205Y-104990256D01*
X84745226Y-104801898D01*
X84785000Y-104601939D01*
X84785000Y-104398061D01*
X84745226Y-104198102D01*
X84667205Y-104009744D01*
X84553937Y-103840226D01*
X84409774Y-103696063D01*
X84240256Y-103582795D01*
X84051898Y-103504774D01*
X83851939Y-103465000D01*
X83648061Y-103465000D01*
X83448102Y-103504774D01*
X83259744Y-103582795D01*
X83090226Y-103696063D01*
X82946063Y-103840226D01*
X82832795Y-104009744D01*
X82754774Y-104198102D01*
X82715000Y-104398061D01*
X78160001Y-104398061D01*
X78160001Y-103971159D01*
X78290256Y-103917205D01*
X78459774Y-103803937D01*
X78603937Y-103659774D01*
X78717205Y-103490256D01*
X78795226Y-103301898D01*
X78835000Y-103101939D01*
X78835000Y-102898061D01*
X78795226Y-102698102D01*
X78717205Y-102509744D01*
X78603937Y-102340226D01*
X78459774Y-102196063D01*
X78290256Y-102082795D01*
X78101898Y-102004774D01*
X77901939Y-101965000D01*
X77698061Y-101965000D01*
X77498102Y-102004774D01*
X77309744Y-102082795D01*
X77140226Y-102196063D01*
X76996063Y-102340226D01*
X76882795Y-102509744D01*
X76804774Y-102698102D01*
X76765000Y-102898061D01*
X76765000Y-102975774D01*
X76694455Y-103107753D01*
X76650999Y-103251014D01*
X76636325Y-103399999D01*
X76640002Y-103437331D01*
X76640001Y-108261979D01*
X76501898Y-108204774D01*
X76301939Y-108165000D01*
X76098061Y-108165000D01*
X75898102Y-108204774D01*
X75709744Y-108282795D01*
X75540226Y-108396063D01*
X75396063Y-108540226D01*
X75282795Y-108709744D01*
X75204774Y-108898102D01*
X75165000Y-109098061D01*
X70127000Y-109098061D01*
X70127000Y-100498061D01*
X75364994Y-100498061D01*
X75364994Y-100701939D01*
X75404768Y-100901898D01*
X75482789Y-101090256D01*
X75596057Y-101259774D01*
X75740220Y-101403937D01*
X75909738Y-101517205D01*
X76098096Y-101595226D01*
X76298055Y-101635000D01*
X76501933Y-101635000D01*
X76701892Y-101595226D01*
X76890250Y-101517205D01*
X77059768Y-101403937D01*
X77203931Y-101259774D01*
X77311983Y-101098061D01*
X109365000Y-101098061D01*
X109365000Y-101301939D01*
X109404774Y-101501898D01*
X109482795Y-101690256D01*
X109596063Y-101859774D01*
X109740226Y-102003937D01*
X109909744Y-102117205D01*
X110098102Y-102195226D01*
X110298061Y-102235000D01*
X110501939Y-102235000D01*
X110701898Y-102195226D01*
X110890256Y-102117205D01*
X111059774Y-102003937D01*
X111203937Y-101859774D01*
X111317205Y-101690256D01*
X111395226Y-101501898D01*
X111435000Y-101301939D01*
X111435000Y-101098061D01*
X111395226Y-100898102D01*
X111317205Y-100709744D01*
X111203937Y-100540226D01*
X111059774Y-100396063D01*
X110890256Y-100282795D01*
X110701898Y-100204774D01*
X110501939Y-100165000D01*
X110298061Y-100165000D01*
X110098102Y-100204774D01*
X109909744Y-100282795D01*
X109740226Y-100396063D01*
X109596063Y-100540226D01*
X109482795Y-100709744D01*
X109404774Y-100898102D01*
X109365000Y-101098061D01*
X77311983Y-101098061D01*
X77317199Y-101090256D01*
X77395220Y-100901898D01*
X77434994Y-100701939D01*
X77434994Y-100498061D01*
X77395220Y-100298102D01*
X77317199Y-100109744D01*
X77203931Y-99940226D01*
X77059768Y-99796063D01*
X76890250Y-99682795D01*
X76701892Y-99604774D01*
X76501933Y-99565000D01*
X76298055Y-99565000D01*
X76098096Y-99604774D01*
X75909738Y-99682795D01*
X75740220Y-99796063D01*
X75596057Y-99940226D01*
X75482789Y-100109744D01*
X75404768Y-100298102D01*
X75364994Y-100498061D01*
X70127000Y-100498061D01*
X70127000Y-99385742D01*
X70499811Y-99343842D01*
X70947468Y-99201297D01*
X71303927Y-99010766D01*
X71490003Y-98669609D01*
X70127000Y-97306605D01*
X70127000Y-97008328D01*
X70137379Y-96929489D01*
X70193748Y-96985858D01*
X70179605Y-97000000D01*
X71669609Y-98490003D01*
X72010766Y-98303927D01*
X72226513Y-97886591D01*
X72356696Y-97435185D01*
X72396313Y-96967054D01*
X72358094Y-96627000D01*
X79693586Y-96627000D01*
X79590226Y-96696063D01*
G04 #@! TA.AperFunction,Conductor*
D18*
G36*
X79590226Y-96696063D02*
G01*
X79446063Y-96840226D01*
X79332795Y-97009744D01*
X79254774Y-97198102D01*
X79215000Y-97398061D01*
X79215000Y-97601939D01*
X79254774Y-97801898D01*
X79332795Y-97990256D01*
X79446063Y-98159774D01*
X79590226Y-98303937D01*
X79759744Y-98417205D01*
X79948102Y-98495226D01*
X80148061Y-98535000D01*
X80351939Y-98535000D01*
X80551898Y-98495226D01*
X80740256Y-98417205D01*
X80909774Y-98303937D01*
X81053937Y-98159774D01*
X81167205Y-97990256D01*
X81205393Y-97898061D01*
X90215000Y-97898061D01*
X90215000Y-98101939D01*
X90254774Y-98301898D01*
X90332795Y-98490256D01*
X90446063Y-98659774D01*
X90590226Y-98803937D01*
X90759744Y-98917205D01*
X90948102Y-98995226D01*
X91148061Y-99035000D01*
X91351939Y-99035000D01*
X91551898Y-98995226D01*
X91740256Y-98917205D01*
X91909774Y-98803937D01*
X92053937Y-98659774D01*
X92167205Y-98490256D01*
X92245226Y-98301898D01*
X92285000Y-98101939D01*
X92285000Y-97898061D01*
X92245226Y-97698102D01*
X92167205Y-97509744D01*
X92053937Y-97340226D01*
X91909774Y-97196063D01*
X91740256Y-97082795D01*
X91551898Y-97004774D01*
X91351939Y-96965000D01*
X91148061Y-96965000D01*
X90948102Y-97004774D01*
X90759744Y-97082795D01*
X90590226Y-97196063D01*
X90446063Y-97340226D01*
X90332795Y-97509744D01*
X90254774Y-97698102D01*
X90215000Y-97898061D01*
X81205393Y-97898061D01*
X81245226Y-97801898D01*
X81285000Y-97601939D01*
X81285000Y-97398061D01*
X81245226Y-97198102D01*
X81167205Y-97009744D01*
X81053937Y-96840226D01*
X80909774Y-96696063D01*
X80806414Y-96627000D01*
X110638041Y-96627000D01*
X110603687Y-97032946D01*
X110656158Y-97499811D01*
X110798703Y-97947468D01*
X110989234Y-98303927D01*
X111330391Y-98490003D01*
X112820395Y-97000000D01*
X112806253Y-96985858D01*
X112985858Y-96806253D01*
X113000000Y-96820395D01*
X113014143Y-96806253D01*
X113193748Y-96985858D01*
X113179605Y-97000000D01*
X113193748Y-97014143D01*
X113014143Y-97193748D01*
X113000000Y-97179605D01*
X111509997Y-98669609D01*
X111696073Y-99010766D01*
X112113409Y-99226513D01*
X112564815Y-99356696D01*
X113032946Y-99396313D01*
X113373000Y-99358094D01*
X113373000Y-109443586D01*
X113303937Y-109340226D01*
X113159774Y-109196063D01*
X112990256Y-109082795D01*
X112801898Y-109004774D01*
X112601939Y-108965000D01*
X112398061Y-108965000D01*
X112198102Y-109004774D01*
X112009744Y-109082795D01*
X111840226Y-109196063D01*
X111696063Y-109340226D01*
X111582795Y-109509744D01*
X111504774Y-109698102D01*
X111465000Y-109898061D01*
X111465000Y-110101939D01*
X111504774Y-110301898D01*
X111582795Y-110490256D01*
X111696063Y-110659774D01*
X111840226Y-110803937D01*
X112009744Y-110917205D01*
X112198102Y-110995226D01*
X112398061Y-111035000D01*
X112601939Y-111035000D01*
X112801898Y-110995226D01*
X112990256Y-110917205D01*
X113159774Y-110803937D01*
X113303937Y-110659774D01*
X113373000Y-110556414D01*
X113373000Y-119491672D01*
X113359231Y-119596257D01*
X113322077Y-119685955D01*
X113262976Y-119762976D01*
X113185955Y-119822077D01*
X113096257Y-119859231D01*
X112991672Y-119873000D01*
X94235000Y-119873000D01*
X94235000Y-119779872D01*
X94149110Y-119348075D01*
X93980631Y-118941331D01*
X93736038Y-118575271D01*
X93424729Y-118263962D01*
X93058669Y-118019369D01*
X92866457Y-117939752D01*
X96399853Y-117939752D01*
X96489579Y-118199042D01*
X96495901Y-118202098D01*
X96481282Y-118275595D01*
X96481282Y-118479473D01*
X96521056Y-118679432D01*
X96599077Y-118867790D01*
X96712345Y-119037308D01*
X96856508Y-119181471D01*
X97026026Y-119294739D01*
X97214384Y-119372760D01*
X97414343Y-119412534D01*
X97618221Y-119412534D01*
X97818180Y-119372760D01*
X98006538Y-119294739D01*
X98176056Y-119181471D01*
X98320219Y-119037308D01*
X98433487Y-118867790D01*
X98511508Y-118679432D01*
X98551282Y-118479473D01*
X98551282Y-118398061D01*
X107715000Y-118398061D01*
X107715000Y-118601939D01*
X107754774Y-118801898D01*
X107832795Y-118990256D01*
X107946063Y-119159774D01*
X108090226Y-119303937D01*
X108259744Y-119417205D01*
X108448102Y-119495226D01*
X108648061Y-119535000D01*
X108851939Y-119535000D01*
X109051898Y-119495226D01*
X109240256Y-119417205D01*
X109409774Y-119303937D01*
X109553937Y-119159774D01*
X109667205Y-118990256D01*
X109745226Y-118801898D01*
X109785000Y-118601939D01*
X109785000Y-118398061D01*
X109745226Y-118198102D01*
X109667205Y-118009744D01*
X109553937Y-117840226D01*
X109409774Y-117696063D01*
X109240256Y-117582795D01*
X109051898Y-117504774D01*
X108851939Y-117465000D01*
X108648061Y-117465000D01*
X108448102Y-117504774D01*
X108259744Y-117582795D01*
X108090226Y-117696063D01*
X107946063Y-117840226D01*
X107832795Y-118009744D01*
X107754774Y-118198102D01*
X107715000Y-118398061D01*
X98551282Y-118398061D01*
X98551282Y-118275595D01*
X98511508Y-118075636D01*
X98460065Y-117951441D01*
X98535557Y-117875949D01*
X98419754Y-117760146D01*
X98679042Y-117670421D01*
X98814935Y-117389329D01*
X98893379Y-117087127D01*
X98911359Y-116775427D01*
X98868184Y-116466209D01*
X98765513Y-116171356D01*
X98679042Y-116009579D01*
X98419752Y-115919853D01*
X97499605Y-116840000D01*
X97513748Y-116854143D01*
X97334143Y-117033748D01*
X97320000Y-117019605D01*
X96399853Y-117939752D01*
X92866457Y-117939752D01*
X92651925Y-117850890D01*
X92220128Y-117765000D01*
X91779872Y-117765000D01*
X91348075Y-117850890D01*
X90941331Y-118019369D01*
X90575271Y-118263962D01*
X90263962Y-118575271D01*
X90019369Y-118941331D01*
X89850890Y-119348075D01*
X89765000Y-119779872D01*
X89765000Y-119873000D01*
X70508328Y-119873000D01*
X70403743Y-119859231D01*
X70314045Y-119822077D01*
X70237024Y-119762976D01*
X70177923Y-119685955D01*
X70140769Y-119596257D01*
X70127000Y-119491672D01*
X70127000Y-117939752D01*
X86479853Y-117939752D01*
X86569579Y-118199042D01*
X86850671Y-118334935D01*
X87152873Y-118413379D01*
X87464573Y-118431359D01*
X87773791Y-118388184D01*
X88068644Y-118285513D01*
X88230421Y-118199042D01*
X88320147Y-117939752D01*
X87400000Y-117019605D01*
X86479853Y-117939752D01*
X70127000Y-117939752D01*
X70127000Y-116904573D01*
X85808641Y-116904573D01*
X85851816Y-117213791D01*
X85954487Y-117508644D01*
X86040958Y-117670421D01*
X86300248Y-117760147D01*
X87220395Y-116840000D01*
X87579605Y-116840000D01*
X88499752Y-117760147D01*
X88759042Y-117670421D01*
X88894935Y-117389329D01*
X88973379Y-117087127D01*
X88983909Y-116904573D01*
X95728641Y-116904573D01*
X95771816Y-117213791D01*
X95874487Y-117508644D01*
X95960958Y-117670421D01*
X96220248Y-117760147D01*
X97140395Y-116840000D01*
X96220248Y-115919853D01*
X95960958Y-116009579D01*
X95825065Y-116290671D01*
X95746621Y-116592873D01*
X95728641Y-116904573D01*
X88983909Y-116904573D01*
X88991359Y-116775427D01*
X88948184Y-116466209D01*
X88845513Y-116171356D01*
X88759042Y-116009579D01*
X88499752Y-115919853D01*
X87579605Y-116840000D01*
X87220395Y-116840000D01*
X86300248Y-115919853D01*
X86040958Y-116009579D01*
X85905065Y-116290671D01*
X85826621Y-116592873D01*
X85808641Y-116904573D01*
X70127000Y-116904573D01*
X70127000Y-113398061D01*
X84715000Y-113398061D01*
X84715000Y-113601939D01*
X84754774Y-113801898D01*
X84832795Y-113990256D01*
X84946063Y-114159774D01*
X85090226Y-114303937D01*
X85259744Y-114417205D01*
X85448102Y-114495226D01*
X85648061Y-114535000D01*
X85830693Y-114535000D01*
X85875911Y-114762327D01*
X85995391Y-115050779D01*
X86168850Y-115310379D01*
X86389621Y-115531150D01*
X86521676Y-115619387D01*
X86479853Y-115740248D01*
X87400000Y-116660395D01*
X88320147Y-115740248D01*
X88278324Y-115619387D01*
X88410379Y-115531150D01*
X88631150Y-115310379D01*
X88804609Y-115050779D01*
X88924089Y-114762327D01*
X88985000Y-114456109D01*
X88985000Y-114143891D01*
X95735000Y-114143891D01*
X95735000Y-114456109D01*
X95795911Y-114762327D01*
X95915391Y-115050779D01*
X96088850Y-115310379D01*
X96309621Y-115531150D01*
X96441676Y-115619387D01*
X96399853Y-115740248D01*
X97320000Y-116660395D01*
X98240147Y-115740248D01*
X98198324Y-115619387D01*
X98330379Y-115531150D01*
X98551150Y-115310379D01*
X98724609Y-115050779D01*
X98844089Y-114762327D01*
X98905000Y-114456109D01*
X98905000Y-114143891D01*
X98844089Y-113837673D01*
X98724609Y-113549221D01*
X98551150Y-113289621D01*
X98330379Y-113068850D01*
X98070779Y-112895391D01*
X97782327Y-112775911D01*
X97476109Y-112715000D01*
X97163891Y-112715000D01*
X96857673Y-112775911D01*
X96569221Y-112895391D01*
X96309621Y-113068850D01*
X96088850Y-113289621D01*
X95915391Y-113549221D01*
X95795911Y-113837673D01*
X95735000Y-114143891D01*
X88985000Y-114143891D01*
X88924089Y-113837673D01*
X88804609Y-113549221D01*
X88631150Y-113289621D01*
X88410379Y-113068850D01*
X88150779Y-112895391D01*
X87862327Y-112775911D01*
X87556109Y-112715000D01*
X87243891Y-112715000D01*
X86937673Y-112775911D01*
X86649221Y-112895391D01*
X86608830Y-112922379D01*
X86553937Y-112840226D01*
X86409774Y-112696063D01*
X86240256Y-112582795D01*
X86051898Y-112504774D01*
X85851939Y-112465000D01*
X85648061Y-112465000D01*
X85448102Y-112504774D01*
X85259744Y-112582795D01*
X85090226Y-112696063D01*
X84946063Y-112840226D01*
X84832795Y-113009744D01*
X84754774Y-113198102D01*
X84715000Y-113398061D01*
X70127000Y-113398061D01*
X70127000Y-109098061D01*
X75165000Y-109098061D01*
X75165000Y-109301939D01*
X75204774Y-109501898D01*
X75282795Y-109690256D01*
X75396063Y-109859774D01*
X75540226Y-110003937D01*
X75709744Y-110117205D01*
X75898102Y-110195226D01*
X76098061Y-110235000D01*
X76301939Y-110235000D01*
X76501898Y-110195226D01*
X76640001Y-110138021D01*
X76640001Y-111112679D01*
X76636325Y-111150001D01*
X76640001Y-111187323D01*
X76640001Y-111187333D01*
X76650998Y-111298986D01*
X76681332Y-111398985D01*
X76694455Y-111442247D01*
X76765027Y-111574277D01*
X76786970Y-111601014D01*
X76860000Y-111690002D01*
X76889003Y-111713804D01*
X77436200Y-112261002D01*
X77459999Y-112290001D01*
X77575724Y-112384974D01*
X77707753Y-112455546D01*
X77851014Y-112499003D01*
X77962667Y-112510000D01*
X77962675Y-112510000D01*
X78000000Y-112513676D01*
X78037325Y-112510000D01*
X81746289Y-112510000D01*
X81790226Y-112553937D01*
X81959744Y-112667205D01*
X82148102Y-112745226D01*
X82348061Y-112785000D01*
X82551939Y-112785000D01*
X82751898Y-112745226D01*
X82940256Y-112667205D01*
X83109774Y-112553937D01*
X83253937Y-112409774D01*
X83367205Y-112240256D01*
X83445226Y-112051898D01*
X83485000Y-111851939D01*
X83485000Y-111789802D01*
X83514802Y-111760000D01*
X86185199Y-111760000D01*
X86696201Y-112271002D01*
X86719999Y-112300001D01*
X86835724Y-112394974D01*
X86967753Y-112465546D01*
X87111014Y-112509003D01*
X87222667Y-112520000D01*
X87222676Y-112520000D01*
X87259999Y-112523676D01*
X87297322Y-112520000D01*
X88401552Y-112520000D01*
X88568850Y-112770379D01*
X88789621Y-112991150D01*
X89049221Y-113164609D01*
X89337673Y-113284089D01*
X89643891Y-113345000D01*
X89956109Y-113345000D01*
X90262327Y-113284089D01*
X90550779Y-113164609D01*
X90810379Y-112991150D01*
X91031150Y-112770379D01*
X91204609Y-112510779D01*
X91324089Y-112222327D01*
X91385000Y-111916109D01*
X91385000Y-111603891D01*
X93195000Y-111603891D01*
X93195000Y-111916109D01*
X93255911Y-112222327D01*
X93375391Y-112510779D01*
X93548850Y-112770379D01*
X93769621Y-112991150D01*
X94029221Y-113164609D01*
X94317673Y-113284089D01*
X94623891Y-113345000D01*
X94936109Y-113345000D01*
X95242327Y-113284089D01*
X95530779Y-113164609D01*
X95790379Y-112991150D01*
X96011150Y-112770379D01*
X96184609Y-112510779D01*
X96304089Y-112222327D01*
X96365000Y-111916109D01*
X96365000Y-111603891D01*
X96304089Y-111297673D01*
X96184609Y-111009221D01*
X96011150Y-110749621D01*
X95790379Y-110528850D01*
X95658324Y-110440613D01*
X95700147Y-110319752D01*
X98939853Y-110319752D01*
X99029579Y-110579042D01*
X99310671Y-110714935D01*
X99612873Y-110793379D01*
X99924573Y-110811359D01*
X100233791Y-110768184D01*
X100465000Y-110687675D01*
X100465000Y-110851939D01*
X100504774Y-111051898D01*
X100582795Y-111240256D01*
X100696063Y-111409774D01*
X100840226Y-111553937D01*
X101009744Y-111667205D01*
X101198102Y-111745226D01*
X101398061Y-111785000D01*
X101601939Y-111785000D01*
X101801898Y-111745226D01*
X101990256Y-111667205D01*
X102159774Y-111553937D01*
X102303937Y-111409774D01*
X102417205Y-111240256D01*
X102495226Y-111051898D01*
X102535000Y-110851939D01*
X102535000Y-110648061D01*
X102495226Y-110448102D01*
X102417205Y-110259744D01*
X102303937Y-110090226D01*
X102159774Y-109946063D01*
X101990256Y-109832795D01*
X101801898Y-109754774D01*
X101601939Y-109715000D01*
X101398061Y-109715000D01*
X101367457Y-109721087D01*
X101433379Y-109467127D01*
X101451359Y-109155427D01*
X101408184Y-108846209D01*
X101305513Y-108551356D01*
X101219042Y-108389579D01*
X100959752Y-108299853D01*
X100039605Y-109220000D01*
X100053748Y-109234143D01*
X99874143Y-109413748D01*
X99860000Y-109399605D01*
X98939853Y-110319752D01*
X95700147Y-110319752D01*
X94780000Y-109399605D01*
X93859853Y-110319752D01*
X93901676Y-110440613D01*
X93769621Y-110528850D01*
X93548850Y-110749621D01*
X93375391Y-111009221D01*
X93255911Y-111297673D01*
X93195000Y-111603891D01*
X91385000Y-111603891D01*
X91324089Y-111297673D01*
X91204609Y-111009221D01*
X91031150Y-110749621D01*
X90810379Y-110528850D01*
X90678324Y-110440613D01*
X90720147Y-110319752D01*
X89800000Y-109399605D01*
X88879853Y-110319752D01*
X88921676Y-110440613D01*
X88789621Y-110528850D01*
X88568850Y-110749621D01*
X88401552Y-111000000D01*
X87574802Y-111000000D01*
X87063803Y-110489002D01*
X87040001Y-110459999D01*
X86924276Y-110365026D01*
X86792247Y-110294454D01*
X86648986Y-110250997D01*
X86537333Y-110240000D01*
X86537322Y-110240000D01*
X86500000Y-110236324D01*
X86462678Y-110240000D01*
X85819608Y-110240000D01*
X85719754Y-110140146D01*
X85979042Y-110050421D01*
X86114935Y-109769329D01*
X86193379Y-109467127D01*
X86203909Y-109284573D01*
X88208641Y-109284573D01*
X88251816Y-109593791D01*
X88354487Y-109888644D01*
X88440958Y-110050421D01*
X88700248Y-110140147D01*
X89620395Y-109220000D01*
X89979605Y-109220000D01*
X90899752Y-110140147D01*
X91159042Y-110050421D01*
X91294935Y-109769329D01*
X91373379Y-109467127D01*
X91383909Y-109284573D01*
X93188641Y-109284573D01*
X93231816Y-109593791D01*
X93334487Y-109888644D01*
X93420958Y-110050421D01*
X93680248Y-110140147D01*
X94600395Y-109220000D01*
X94959605Y-109220000D01*
X95879752Y-110140147D01*
X96139042Y-110050421D01*
X96274935Y-109769329D01*
X96353379Y-109467127D01*
X96363909Y-109284573D01*
X98268641Y-109284573D01*
X98311816Y-109593791D01*
X98414487Y-109888644D01*
X98500958Y-110050421D01*
X98760248Y-110140147D01*
X99680395Y-109220000D01*
X98760248Y-108299853D01*
X98500958Y-108389579D01*
X98365065Y-108670671D01*
X98286621Y-108972873D01*
X98268641Y-109284573D01*
X96363909Y-109284573D01*
X96371359Y-109155427D01*
X96328184Y-108846209D01*
X96225513Y-108551356D01*
X96139042Y-108389579D01*
X95879752Y-108299853D01*
X94959605Y-109220000D01*
X94600395Y-109220000D01*
X93680248Y-108299853D01*
X93420958Y-108389579D01*
X93285065Y-108670671D01*
X93206621Y-108972873D01*
X93188641Y-109284573D01*
X91383909Y-109284573D01*
X91391359Y-109155427D01*
X91348184Y-108846209D01*
X91245513Y-108551356D01*
X91159042Y-108389579D01*
X90899752Y-108299853D01*
X89979605Y-109220000D01*
X89620395Y-109220000D01*
X88700248Y-108299853D01*
X88440958Y-108389579D01*
X88305065Y-108670671D01*
X88226621Y-108972873D01*
X88208641Y-109284573D01*
X86203909Y-109284573D01*
X86211359Y-109155427D01*
X86168184Y-108846209D01*
X86065513Y-108551356D01*
X85979042Y-108389579D01*
X85719752Y-108299853D01*
X84799605Y-109220000D01*
X84813748Y-109234143D01*
X84634143Y-109413748D01*
X84620000Y-109399605D01*
X84605858Y-109413748D01*
X84426253Y-109234143D01*
X84440395Y-109220000D01*
X83520248Y-108299853D01*
X83260958Y-108389579D01*
X83125065Y-108670671D01*
X83046621Y-108972873D01*
X83028641Y-109284573D01*
X83071816Y-109593791D01*
X83174487Y-109888644D01*
X83260958Y-110050421D01*
X83520246Y-110140146D01*
X83420392Y-110240000D01*
X83237322Y-110240000D01*
X83199999Y-110236324D01*
X83162676Y-110240000D01*
X83162667Y-110240000D01*
X83051014Y-110250997D01*
X82907753Y-110294454D01*
X82775724Y-110365026D01*
X82659999Y-110459999D01*
X82636201Y-110488998D01*
X82410198Y-110715000D01*
X82348061Y-110715000D01*
X82148102Y-110754774D01*
X81959744Y-110832795D01*
X81790226Y-110946063D01*
X81746289Y-110990000D01*
X78314802Y-110990000D01*
X78160001Y-110835200D01*
X78160001Y-104398061D01*
X82715000Y-104398061D01*
X82715000Y-104601939D01*
X82754774Y-104801898D01*
X82832795Y-104990256D01*
X82946063Y-105159774D01*
X83090226Y-105303937D01*
X83259744Y-105417205D01*
X83448102Y-105495226D01*
X83544142Y-105514329D01*
X83388850Y-105669621D01*
X83215391Y-105929221D01*
X83095911Y-106217673D01*
X83035000Y-106523891D01*
X83035000Y-106836109D01*
X83095911Y-107142327D01*
X83215391Y-107430779D01*
X83388850Y-107690379D01*
X83609621Y-107911150D01*
X83741676Y-107999387D01*
X83699853Y-108120248D01*
X84620000Y-109040395D01*
X85540147Y-108120248D01*
X85498324Y-107999387D01*
X85630379Y-107911150D01*
X85761777Y-107779752D01*
X86479853Y-107779752D01*
X86569579Y-108039042D01*
X86850671Y-108174935D01*
X87152873Y-108253379D01*
X87464573Y-108271359D01*
X87773791Y-108228184D01*
X88068644Y-108125513D01*
X88230421Y-108039042D01*
X88320147Y-107779752D01*
X87400000Y-106859605D01*
X86479853Y-107779752D01*
X85761777Y-107779752D01*
X85851150Y-107690379D01*
X86010042Y-107452580D01*
X86040958Y-107510421D01*
X86300248Y-107600147D01*
X87220395Y-106680000D01*
X87579605Y-106680000D01*
X88499752Y-107600147D01*
X88506905Y-107597672D01*
X88568850Y-107690379D01*
X88789621Y-107911150D01*
X88921676Y-107999387D01*
X88879853Y-108120248D01*
X89800000Y-109040395D01*
X90720147Y-108120248D01*
X90678324Y-107999387D01*
X90810379Y-107911150D01*
X91031150Y-107690379D01*
X91204609Y-107430779D01*
X91324089Y-107142327D01*
X91385000Y-106836109D01*
X91385000Y-106523891D01*
X93195000Y-106523891D01*
X93195000Y-106836109D01*
X93255911Y-107142327D01*
X93375391Y-107430779D01*
X93548850Y-107690379D01*
X93769621Y-107911150D01*
X93901676Y-107999387D01*
X93859853Y-108120248D01*
X94780000Y-109040395D01*
X95700147Y-108120248D01*
X95658324Y-107999387D01*
X95790379Y-107911150D01*
X95921777Y-107779752D01*
X96399853Y-107779752D01*
X96489579Y-108039042D01*
X96770671Y-108174935D01*
X97072873Y-108253379D01*
X97384573Y-108271359D01*
X97693791Y-108228184D01*
X97988644Y-108125513D01*
X98150421Y-108039042D01*
X98240147Y-107779752D01*
X97320000Y-106859605D01*
X96399853Y-107779752D01*
X95921777Y-107779752D01*
X96011150Y-107690379D01*
X96099387Y-107558324D01*
X96220248Y-107600147D01*
X97140395Y-106680000D01*
X97499605Y-106680000D01*
X98419752Y-107600147D01*
X98540613Y-107558324D01*
X98628850Y-107690379D01*
X98849621Y-107911150D01*
X98981676Y-107999387D01*
X98939853Y-108120248D01*
X99860000Y-109040395D01*
X100780147Y-108120248D01*
X100738324Y-107999387D01*
X100870379Y-107911150D01*
X101091150Y-107690379D01*
X101264609Y-107430779D01*
X101384089Y-107142327D01*
X101445000Y-106836109D01*
X101445000Y-106523891D01*
X101384089Y-106217673D01*
X101264609Y-105929221D01*
X101091150Y-105669621D01*
X100870379Y-105448850D01*
X100610779Y-105275391D01*
X100322327Y-105155911D01*
X100016109Y-105095000D01*
X99703891Y-105095000D01*
X99397673Y-105155911D01*
X99109221Y-105275391D01*
X98849621Y-105448850D01*
X98628850Y-105669621D01*
X98540613Y-105801676D01*
X98419752Y-105759853D01*
X97499605Y-106680000D01*
X97140395Y-106680000D01*
X96220248Y-105759853D01*
X96099387Y-105801676D01*
X96011150Y-105669621D01*
X95921777Y-105580248D01*
X96399853Y-105580248D01*
X97320000Y-106500395D01*
X98240147Y-105580248D01*
X98150421Y-105320958D01*
X97869329Y-105185065D01*
X97567127Y-105106621D01*
X97255427Y-105088641D01*
X96946209Y-105131816D01*
X96651356Y-105234487D01*
X96489579Y-105320958D01*
X96399853Y-105580248D01*
X95921777Y-105580248D01*
X95790379Y-105448850D01*
X95530779Y-105275391D01*
X95379925Y-105212906D01*
X95490256Y-105167205D01*
X95659774Y-105053937D01*
X95803937Y-104909774D01*
X95917205Y-104740256D01*
X95995226Y-104551898D01*
X96035000Y-104351939D01*
X96035000Y-104148061D01*
X95995226Y-103948102D01*
X95917205Y-103759744D01*
X95803937Y-103590226D01*
X95659774Y-103446063D01*
X95490256Y-103332795D01*
X95301898Y-103254774D01*
X95101939Y-103215000D01*
X94898061Y-103215000D01*
X94698102Y-103254774D01*
X94509744Y-103332795D01*
X94340226Y-103446063D01*
X94196063Y-103590226D01*
X94082795Y-103759744D01*
X94004774Y-103948102D01*
X93965000Y-104148061D01*
X93965000Y-104351939D01*
X94004774Y-104551898D01*
X94082795Y-104740256D01*
X94196063Y-104909774D01*
X94340226Y-105053937D01*
X94452657Y-105129061D01*
X94317673Y-105155911D01*
X94029221Y-105275391D01*
X93769621Y-105448850D01*
X93548850Y-105669621D01*
X93375391Y-105929221D01*
X93255911Y-106217673D01*
X93195000Y-106523891D01*
X91385000Y-106523891D01*
X91324089Y-106217673D01*
X91204609Y-105929221D01*
X91031150Y-105669621D01*
X90810379Y-105448850D01*
X90550779Y-105275391D01*
X90262327Y-105155911D01*
X89956109Y-105095000D01*
X89643891Y-105095000D01*
X89337673Y-105155911D01*
X89049221Y-105275391D01*
X88789621Y-105448850D01*
X88568850Y-105669621D01*
X88506905Y-105762328D01*
X88499752Y-105759853D01*
X87579605Y-106680000D01*
X87220395Y-106680000D01*
X86300248Y-105759853D01*
X86040958Y-105849579D01*
X86011755Y-105909984D01*
X85851150Y-105669621D01*
X85761777Y-105580248D01*
X86479853Y-105580248D01*
X87400000Y-106500395D01*
X88320147Y-105580248D01*
X88230421Y-105320958D01*
X87949329Y-105185065D01*
X87647127Y-105106621D01*
X87335427Y-105088641D01*
X87026209Y-105131816D01*
X86731356Y-105234487D01*
X86569579Y-105320958D01*
X86479853Y-105580248D01*
X85761777Y-105580248D01*
X85630379Y-105448850D01*
X85370779Y-105275391D01*
X85082327Y-105155911D01*
X84776109Y-105095000D01*
X84597217Y-105095000D01*
X84667205Y-104990256D01*
X84745226Y-104801898D01*
X84785000Y-104601939D01*
X84785000Y-104398061D01*
X84745226Y-104198102D01*
X84667205Y-104009744D01*
X84553937Y-103840226D01*
X84409774Y-103696063D01*
X84240256Y-103582795D01*
X84051898Y-103504774D01*
X83851939Y-103465000D01*
X83648061Y-103465000D01*
X83448102Y-103504774D01*
X83259744Y-103582795D01*
X83090226Y-103696063D01*
X82946063Y-103840226D01*
X82832795Y-104009744D01*
X82754774Y-104198102D01*
X82715000Y-104398061D01*
X78160001Y-104398061D01*
X78160001Y-103971159D01*
X78290256Y-103917205D01*
X78459774Y-103803937D01*
X78603937Y-103659774D01*
X78717205Y-103490256D01*
X78795226Y-103301898D01*
X78835000Y-103101939D01*
X78835000Y-102898061D01*
X78795226Y-102698102D01*
X78717205Y-102509744D01*
X78603937Y-102340226D01*
X78459774Y-102196063D01*
X78290256Y-102082795D01*
X78101898Y-102004774D01*
X77901939Y-101965000D01*
X77698061Y-101965000D01*
X77498102Y-102004774D01*
X77309744Y-102082795D01*
X77140226Y-102196063D01*
X76996063Y-102340226D01*
X76882795Y-102509744D01*
X76804774Y-102698102D01*
X76765000Y-102898061D01*
X76765000Y-102975774D01*
X76694455Y-103107753D01*
X76650999Y-103251014D01*
X76636325Y-103399999D01*
X76640002Y-103437331D01*
X76640001Y-108261979D01*
X76501898Y-108204774D01*
X76301939Y-108165000D01*
X76098061Y-108165000D01*
X75898102Y-108204774D01*
X75709744Y-108282795D01*
X75540226Y-108396063D01*
X75396063Y-108540226D01*
X75282795Y-108709744D01*
X75204774Y-108898102D01*
X75165000Y-109098061D01*
X70127000Y-109098061D01*
X70127000Y-100498061D01*
X75364994Y-100498061D01*
X75364994Y-100701939D01*
X75404768Y-100901898D01*
X75482789Y-101090256D01*
X75596057Y-101259774D01*
X75740220Y-101403937D01*
X75909738Y-101517205D01*
X76098096Y-101595226D01*
X76298055Y-101635000D01*
X76501933Y-101635000D01*
X76701892Y-101595226D01*
X76890250Y-101517205D01*
X77059768Y-101403937D01*
X77203931Y-101259774D01*
X77311983Y-101098061D01*
X109365000Y-101098061D01*
X109365000Y-101301939D01*
X109404774Y-101501898D01*
X109482795Y-101690256D01*
X109596063Y-101859774D01*
X109740226Y-102003937D01*
X109909744Y-102117205D01*
X110098102Y-102195226D01*
X110298061Y-102235000D01*
X110501939Y-102235000D01*
X110701898Y-102195226D01*
X110890256Y-102117205D01*
X111059774Y-102003937D01*
X111203937Y-101859774D01*
X111317205Y-101690256D01*
X111395226Y-101501898D01*
X111435000Y-101301939D01*
X111435000Y-101098061D01*
X111395226Y-100898102D01*
X111317205Y-100709744D01*
X111203937Y-100540226D01*
X111059774Y-100396063D01*
X110890256Y-100282795D01*
X110701898Y-100204774D01*
X110501939Y-100165000D01*
X110298061Y-100165000D01*
X110098102Y-100204774D01*
X109909744Y-100282795D01*
X109740226Y-100396063D01*
X109596063Y-100540226D01*
X109482795Y-100709744D01*
X109404774Y-100898102D01*
X109365000Y-101098061D01*
X77311983Y-101098061D01*
X77317199Y-101090256D01*
X77395220Y-100901898D01*
X77434994Y-100701939D01*
X77434994Y-100498061D01*
X77395220Y-100298102D01*
X77317199Y-100109744D01*
X77203931Y-99940226D01*
X77059768Y-99796063D01*
X76890250Y-99682795D01*
X76701892Y-99604774D01*
X76501933Y-99565000D01*
X76298055Y-99565000D01*
X76098096Y-99604774D01*
X75909738Y-99682795D01*
X75740220Y-99796063D01*
X75596057Y-99940226D01*
X75482789Y-100109744D01*
X75404768Y-100298102D01*
X75364994Y-100498061D01*
X70127000Y-100498061D01*
X70127000Y-99385742D01*
X70499811Y-99343842D01*
X70947468Y-99201297D01*
X71303927Y-99010766D01*
X71490003Y-98669609D01*
X70127000Y-97306605D01*
X70127000Y-97008328D01*
X70137379Y-96929489D01*
X70193748Y-96985858D01*
X70179605Y-97000000D01*
X71669609Y-98490003D01*
X72010766Y-98303927D01*
X72226513Y-97886591D01*
X72356696Y-97435185D01*
X72396313Y-96967054D01*
X72358094Y-96627000D01*
X79693586Y-96627000D01*
X79590226Y-96696063D01*
G37*
G04 #@! TD.AperFunction*
G04 #@! TD*
M02*
