G04 #@! TF.GenerationSoftware,KiCad,Pcbnew,5.1.7-a382d34a8~88~ubuntu20.04.1*
G04 #@! TF.CreationDate,2021-06-18T16:25:46+02:00*
G04 #@! TF.ProjectId,Power,506f7765-722e-46b6-9963-61645f706362,rev?*
G04 #@! TF.SameCoordinates,Original*
G04 #@! TF.FileFunction,Legend,Top*
G04 #@! TF.FilePolarity,Positive*
%FSLAX46Y46*%
G04 Gerber Fmt 4.6, Leading zero omitted, Abs format (unit mm)*
G04 Created by KiCad (PCBNEW 5.1.7-a382d34a8~88~ubuntu20.04.1) date 2021-06-18 16:25:46*
%MOMM*%
%LPD*%
G01*
G04 APERTURE LIST*
%ADD10C,0.120000*%
%ADD11C,0.152400*%
%ADD12C,0.150000*%
G04 APERTURE END LIST*
D10*
X139500000Y-42000000D02*
X139500000Y-142000000D01*
X44500000Y-42000000D02*
X44500000Y-142000000D01*
X116600000Y-123000000D02*
X66000000Y-123000000D01*
X113600000Y-120000000D02*
X113600000Y-96500000D01*
X70000000Y-120000000D02*
X113600000Y-120000000D01*
X70000000Y-96500000D02*
X70000000Y-120000000D01*
X113600000Y-96500000D02*
X70000000Y-96500000D01*
X66000000Y-93500000D02*
X66000000Y-123000000D01*
X116600000Y-93500000D02*
X66000000Y-93500000D01*
X116600000Y-123000000D02*
X116600000Y-93500000D01*
G04 #@! TO.C,U4*
X110310000Y-94950000D02*
X110310000Y-91500000D01*
X110310000Y-94950000D02*
X110310000Y-96900000D01*
X105190000Y-94950000D02*
X105190000Y-93000000D01*
X105190000Y-94950000D02*
X105190000Y-96900000D01*
G04 #@! TO.C,U1*
X78060000Y-94950000D02*
X78060000Y-91500000D01*
X78060000Y-94950000D02*
X78060000Y-96900000D01*
X72940000Y-94950000D02*
X72940000Y-93000000D01*
X72940000Y-94950000D02*
X72940000Y-96900000D01*
G04 #@! TO.C,U7*
X68500000Y-119285000D02*
X71920000Y-119285000D01*
X71920000Y-119285000D02*
X71920000Y-118995000D01*
X68500000Y-119285000D02*
X65080000Y-119285000D01*
X65080000Y-119285000D02*
X65080000Y-118995000D01*
X68500000Y-109915000D02*
X71920000Y-109915000D01*
X71920000Y-109915000D02*
X71920000Y-110205000D01*
X68500000Y-109915000D02*
X65080000Y-109915000D01*
X65080000Y-109915000D02*
X65080000Y-110205000D01*
X65080000Y-110205000D02*
X62800000Y-110205000D01*
G04 #@! TO.C,U6*
X68505001Y-109685000D02*
X71925001Y-109685000D01*
X71925001Y-109685000D02*
X71925001Y-109395000D01*
X68505001Y-109685000D02*
X65085001Y-109685000D01*
X65085001Y-109685000D02*
X65085001Y-109395000D01*
X68505001Y-100315000D02*
X71925001Y-100315000D01*
X71925001Y-100315000D02*
X71925001Y-100605000D01*
X68505001Y-100315000D02*
X65085001Y-100315000D01*
X65085001Y-100315000D02*
X65085001Y-100605000D01*
X65085001Y-100605000D02*
X62805001Y-100605000D01*
G04 #@! TO.C,F4*
X133460000Y-138055000D02*
X133460000Y-128325000D01*
X133460000Y-128325000D02*
X138540000Y-128325000D01*
X138540000Y-128325000D02*
X138540000Y-138055000D01*
X133460000Y-138055000D02*
X138540000Y-138055000D01*
G04 #@! TO.C,F3*
X68840000Y-128135000D02*
X68840000Y-137865000D01*
X68840000Y-137865000D02*
X63760000Y-137865000D01*
X63760000Y-137865000D02*
X63760000Y-128135000D01*
X68840000Y-128135000D02*
X63760000Y-128135000D01*
G04 #@! TO.C,F2*
X49940000Y-127945000D02*
X49940000Y-137675000D01*
X49940000Y-137675000D02*
X44860000Y-137675000D01*
X44860000Y-137675000D02*
X44860000Y-127945000D01*
X49940000Y-127945000D02*
X44860000Y-127945000D01*
G04 #@! TO.C,F1*
X127460000Y-138055000D02*
X127460000Y-128325000D01*
X127460000Y-128325000D02*
X132540000Y-128325000D01*
X132540000Y-128325000D02*
X132540000Y-138055000D01*
X127460000Y-138055000D02*
X132540000Y-138055000D01*
G04 #@! TO.C,U5*
X116860000Y-116965000D02*
X119225000Y-116965000D01*
X116860000Y-117535000D02*
X116860000Y-116965000D01*
X113000000Y-117535000D02*
X116860000Y-117535000D01*
X109140000Y-117535000D02*
X109140000Y-116965000D01*
X113000000Y-117535000D02*
X109140000Y-117535000D01*
X116860000Y-111465000D02*
X116860000Y-112035000D01*
X113000000Y-111465000D02*
X116860000Y-111465000D01*
X109140000Y-111465000D02*
X109140000Y-112035000D01*
X113000000Y-111465000D02*
X109140000Y-111465000D01*
G04 #@! TO.C,L1*
X81000000Y-69000000D02*
X81000000Y-54000000D01*
X103000000Y-69000000D02*
X81000000Y-69000000D01*
X103000000Y-54000000D02*
X103000000Y-69000000D01*
X81000000Y-54000000D02*
X103000000Y-54000000D01*
G04 #@! TO.C,L2*
X103000000Y-78000000D02*
X103000000Y-93000000D01*
X81000000Y-78000000D02*
X103000000Y-78000000D01*
X81000000Y-93000000D02*
X81000000Y-78000000D01*
X103000000Y-93000000D02*
X81000000Y-93000000D01*
D11*
G04 #@! TO.C,J1*
X50672998Y-143429400D02*
X63326998Y-143429400D01*
X63326998Y-143429400D02*
X63326998Y-123973000D01*
X63326998Y-123973000D02*
X50672998Y-123973000D01*
X50672998Y-123973000D02*
X50672998Y-143429400D01*
X49275997Y-127000000D02*
G75*
G03*
X49275997Y-127000000I-381000J0D01*
G01*
G04 #@! TO.C,J2*
X73172998Y-143429400D02*
X85826998Y-143429400D01*
X85826998Y-143429400D02*
X85826998Y-123973000D01*
X85826998Y-123973000D02*
X73172998Y-123973000D01*
X73172998Y-123973000D02*
X73172998Y-143429400D01*
X71775997Y-127000000D02*
G75*
G03*
X71775997Y-127000000I-381000J0D01*
G01*
G04 #@! TO.C,J4*
X113672998Y-143429400D02*
X126326998Y-143429400D01*
X126326998Y-143429400D02*
X126326998Y-123973000D01*
X126326998Y-123973000D02*
X113672998Y-123973000D01*
X113672998Y-123973000D02*
X113672998Y-143429400D01*
X112275997Y-127000000D02*
G75*
G03*
X112275997Y-127000000I-381000J0D01*
G01*
G04 #@! TO.C,J5*
X103172998Y-143429400D02*
X115826998Y-143429400D01*
X115826998Y-143429400D02*
X115826998Y-123973000D01*
X115826998Y-123973000D02*
X103172998Y-123973000D01*
X103172998Y-123973000D02*
X103172998Y-143429400D01*
X101775997Y-127000000D02*
G75*
G03*
X101775997Y-127000000I-381000J0D01*
G01*
D10*
G04 #@! TO.C,JP10*
X118667017Y-71210000D02*
X119032983Y-71210000D01*
X118667017Y-67790000D02*
X119032983Y-67790000D01*
G04 #@! TO.C,JP9*
X63817017Y-71210000D02*
X64182983Y-71210000D01*
X63817017Y-67790000D02*
X64182983Y-67790000D01*
G04 #@! TO.C,JP8*
X133567017Y-58710000D02*
X133932983Y-58710000D01*
X133567017Y-55290000D02*
X133932983Y-55290000D01*
G04 #@! TO.C,JP7*
X130710000Y-52432983D02*
X130710000Y-52067017D01*
X127290000Y-52432983D02*
X127290000Y-52067017D01*
G04 #@! TO.C,C38*
X98765000Y-117788748D02*
X98765000Y-118311252D01*
X100235000Y-117788748D02*
X100235000Y-118311252D01*
G04 #@! TO.C,C34*
X83235000Y-103511252D02*
X83235000Y-102988748D01*
X81765000Y-103511252D02*
X81765000Y-102988748D01*
G04 #@! TO.C,C33*
X84985000Y-114261252D02*
X84985000Y-113738748D01*
X83515000Y-114261252D02*
X83515000Y-113738748D01*
G04 #@! TO.C,C32*
X103238748Y-111485000D02*
X103761252Y-111485000D01*
X103238748Y-110015000D02*
X103761252Y-110015000D01*
G04 #@! TO.C,C31*
X95738748Y-103735000D02*
X96261252Y-103735000D01*
X95738748Y-102265000D02*
X96261252Y-102265000D01*
G04 #@! TO.C,C30*
X89461252Y-97265000D02*
X88938748Y-97265000D01*
X89461252Y-98735000D02*
X88938748Y-98735000D01*
G04 #@! TO.C,Q3*
X97220000Y-124070000D02*
X98320000Y-124070000D01*
X97220000Y-123800000D02*
X97220000Y-124070000D01*
X95720000Y-123800000D02*
X97220000Y-123800000D01*
X97220000Y-130430000D02*
X100050000Y-130430000D01*
X97220000Y-130700000D02*
X97220000Y-130430000D01*
X95720000Y-130700000D02*
X97220000Y-130700000D01*
G04 #@! TO.C,U13*
X104200000Y-107340000D02*
X102800000Y-107340000D01*
X102800000Y-109660000D02*
X104700000Y-109660000D01*
G04 #@! TO.C,U3*
X115000000Y-107560000D02*
X118450000Y-107560000D01*
X115000000Y-107560000D02*
X113050000Y-107560000D01*
X115000000Y-102440000D02*
X116950000Y-102440000D01*
X115000000Y-102440000D02*
X113050000Y-102440000D01*
G04 #@! TO.C,R30*
X103235000Y-105814564D02*
X103235000Y-105360436D01*
X101765000Y-105814564D02*
X101765000Y-105360436D01*
G04 #@! TO.C,R25*
X106772936Y-110735000D02*
X107227064Y-110735000D01*
X106772936Y-109265000D02*
X107227064Y-109265000D01*
G04 #@! TO.C,R22*
X103765000Y-105360436D02*
X103765000Y-105814564D01*
X105235000Y-105360436D02*
X105235000Y-105814564D01*
G04 #@! TO.C,R21*
X107314564Y-107265000D02*
X106860436Y-107265000D01*
X107314564Y-108735000D02*
X106860436Y-108735000D01*
G04 #@! TO.C,C5*
X109015000Y-103188748D02*
X109015000Y-103711252D01*
X110485000Y-103188748D02*
X110485000Y-103711252D01*
G04 #@! TO.C,C4*
X111288748Y-109335000D02*
X111811252Y-109335000D01*
X111288748Y-107865000D02*
X111811252Y-107865000D01*
G04 #@! TO.C,R27*
X86014564Y-98165000D02*
X85560436Y-98165000D01*
X86014564Y-99635000D02*
X85560436Y-99635000D01*
G04 #@! TO.C,R29*
X88972936Y-103635000D02*
X89427064Y-103635000D01*
X88972936Y-102165000D02*
X89427064Y-102165000D01*
G04 #@! TO.C,U12*
X88500000Y-101560000D02*
X89900000Y-101560000D01*
X89900000Y-99240000D02*
X88000000Y-99240000D01*
G04 #@! TO.C,U11*
X96650000Y-99340000D02*
X95250000Y-99340000D01*
X95250000Y-101660000D02*
X97150000Y-101660000D01*
G04 #@! TO.C,R28*
X96264564Y-97265000D02*
X95810436Y-97265000D01*
X96264564Y-98735000D02*
X95810436Y-98735000D01*
G04 #@! TO.C,R26*
X99310436Y-102735000D02*
X99764564Y-102735000D01*
X99310436Y-101265000D02*
X99764564Y-101265000D01*
G04 #@! TO.C,R24*
X99764564Y-97265000D02*
X99310436Y-97265000D01*
X99764564Y-98735000D02*
X99310436Y-98735000D01*
G04 #@! TO.C,R23*
X99764564Y-99265000D02*
X99310436Y-99265000D01*
X99764564Y-100735000D02*
X99310436Y-100735000D01*
G04 #@! TO.C,R20*
X85560436Y-103635000D02*
X86014564Y-103635000D01*
X85560436Y-102165000D02*
X86014564Y-102165000D01*
G04 #@! TO.C,R19*
X85560436Y-101635000D02*
X86014564Y-101635000D01*
X85560436Y-100165000D02*
X86014564Y-100165000D01*
G04 #@! TO.C,U10*
X80750000Y-116990000D02*
X82150000Y-116990000D01*
X82150000Y-114670000D02*
X80250000Y-114670000D01*
G04 #@! TO.C,U9*
X80800000Y-107390000D02*
X82200000Y-107390000D01*
X82200000Y-105070000D02*
X80300000Y-105070000D01*
G04 #@! TO.C,U8*
X101275000Y-114140000D02*
X99875000Y-114140000D01*
X99875000Y-116460000D02*
X101775000Y-116460000D01*
G04 #@! TO.C,R18*
X81335436Y-118965000D02*
X81789564Y-118965000D01*
X81335436Y-117495000D02*
X81789564Y-117495000D01*
G04 #@! TO.C,R17*
X81272936Y-109465000D02*
X81727064Y-109465000D01*
X81272936Y-107995000D02*
X81727064Y-107995000D01*
G04 #@! TO.C,R16*
X100802064Y-112065000D02*
X100347936Y-112065000D01*
X100802064Y-113535000D02*
X100347936Y-113535000D01*
G04 #@! TO.C,R15*
X81764564Y-112490000D02*
X81310436Y-112490000D01*
X81764564Y-113960000D02*
X81310436Y-113960000D01*
G04 #@! TO.C,R14*
X79360436Y-103735000D02*
X79814564Y-103735000D01*
X79360436Y-102265000D02*
X79814564Y-102265000D01*
G04 #@! TO.C,R13*
X102235000Y-118314564D02*
X102235000Y-117860436D01*
X100765000Y-118314564D02*
X100765000Y-117860436D01*
G04 #@! TO.C,R12*
X77722936Y-117565000D02*
X78177064Y-117565000D01*
X77722936Y-116095000D02*
X78177064Y-116095000D01*
G04 #@! TO.C,R11*
X77735436Y-115565000D02*
X78189564Y-115565000D01*
X77735436Y-114095000D02*
X78189564Y-114095000D01*
G04 #@! TO.C,R10*
X77685436Y-107965000D02*
X78139564Y-107965000D01*
X77685436Y-106495000D02*
X78139564Y-106495000D01*
G04 #@! TO.C,R9*
X77685436Y-105965000D02*
X78139564Y-105965000D01*
X77685436Y-104495000D02*
X78139564Y-104495000D01*
G04 #@! TO.C,R8*
X104889564Y-113659999D02*
X104435436Y-113659999D01*
X104889564Y-115129999D02*
X104435436Y-115129999D01*
G04 #@! TO.C,R7*
X104889564Y-115565000D02*
X104435436Y-115565000D01*
X104889564Y-117035000D02*
X104435436Y-117035000D01*
G04 #@! TO.C,C37*
X107011252Y-117865000D02*
X106488748Y-117865000D01*
X107011252Y-119335000D02*
X106488748Y-119335000D01*
G04 #@! TO.C,C36*
X76238748Y-111335000D02*
X76761252Y-111335000D01*
X76238748Y-109865000D02*
X76761252Y-109865000D01*
G04 #@! TO.C,C35*
X75265000Y-102138748D02*
X75265000Y-102661252D01*
X76735000Y-102138748D02*
X76735000Y-102661252D01*
G04 #@! TO.C,C29*
X61061252Y-109865000D02*
X60538748Y-109865000D01*
X61061252Y-111335000D02*
X60538748Y-111335000D01*
G04 #@! TO.C,C28*
X64785000Y-98711252D02*
X64785000Y-98188748D01*
X63315000Y-98711252D02*
X63315000Y-98188748D01*
G04 #@! TO.C,C27*
X117565000Y-118688748D02*
X117565000Y-119211252D01*
X119035000Y-118688748D02*
X119035000Y-119211252D01*
G04 #@! TO.C,JP6*
X61250000Y-52567983D02*
X61250000Y-52202017D01*
X57830000Y-52567983D02*
X57830000Y-52202017D01*
G04 #@! TO.C,JP5*
X75250000Y-52567983D02*
X75250000Y-52202017D01*
X71830000Y-52567983D02*
X71830000Y-52202017D01*
G04 #@! TO.C,JP4*
X133567017Y-70460000D02*
X133932983Y-70460000D01*
X133567017Y-67040000D02*
X133932983Y-67040000D01*
G04 #@! TO.C,JP3*
X55722983Y-71925000D02*
X55357017Y-71925000D01*
X55722983Y-75345000D02*
X55357017Y-75345000D01*
G04 #@! TO.C,JP2*
X116210000Y-52432983D02*
X116210000Y-52067017D01*
X112790000Y-52432983D02*
X112790000Y-52067017D01*
G04 #@! TO.C,JP1*
X55972983Y-54425000D02*
X55607017Y-54425000D01*
X55972983Y-57845000D02*
X55607017Y-57845000D01*
G04 #@! TO.C,R31*
X114735000Y-65027064D02*
X114735000Y-64572936D01*
X113265000Y-65027064D02*
X113265000Y-64572936D01*
G04 #@! TO.C,C1*
X73738748Y-100335000D02*
X74261252Y-100335000D01*
X73738748Y-98865000D02*
X74261252Y-98865000D01*
G04 #@! TO.C,C2*
X79735000Y-98761252D02*
X79735000Y-98238748D01*
X78265000Y-98761252D02*
X78265000Y-98238748D01*
G04 #@! TO.C,C11*
X120360000Y-53236252D02*
X120360000Y-51813748D01*
X117640000Y-53236252D02*
X117640000Y-51813748D01*
G04 #@! TO.C,C12*
X66510000Y-53236252D02*
X66510000Y-51813748D01*
X63790000Y-53236252D02*
X63790000Y-51813748D01*
G04 #@! TO.C,C13*
X125048748Y-90860000D02*
X126471252Y-90860000D01*
X125048748Y-88140000D02*
X126471252Y-88140000D01*
G04 #@! TO.C,C22*
X105988748Y-100735000D02*
X106511252Y-100735000D01*
X105988748Y-99265000D02*
X106511252Y-99265000D01*
G04 #@! TO.C,C24*
X110911252Y-99465000D02*
X110388748Y-99465000D01*
X110911252Y-100935000D02*
X110388748Y-100935000D01*
G04 #@! TO.C,Cs1*
X118765000Y-61688748D02*
X118765000Y-62211252D01*
X120235000Y-61688748D02*
X120235000Y-62211252D01*
G04 #@! TO.C,Cs3*
X65080000Y-61773748D02*
X65080000Y-62296252D01*
X66550000Y-61773748D02*
X66550000Y-62296252D01*
G04 #@! TO.C,Cs2*
X118765000Y-79588748D02*
X118765000Y-80111252D01*
X120235000Y-79588748D02*
X120235000Y-80111252D01*
G04 #@! TO.C,Cs4*
X65280000Y-79873748D02*
X65280000Y-80396252D01*
X66750000Y-79873748D02*
X66750000Y-80396252D01*
G04 #@! TO.C,D2*
X105000000Y-66600000D02*
X105000000Y-62700000D01*
X107000000Y-66600000D02*
X107000000Y-62700000D01*
X105000000Y-66600000D02*
X107000000Y-66600000D01*
G04 #@! TO.C,D3*
X105000000Y-83900000D02*
X105000000Y-80000000D01*
X107000000Y-83900000D02*
X107000000Y-80000000D01*
X105000000Y-83900000D02*
X107000000Y-83900000D01*
G04 #@! TO.C,D4*
X51540000Y-66535000D02*
X51540000Y-62635000D01*
X53540000Y-66535000D02*
X53540000Y-62635000D01*
X51540000Y-66535000D02*
X53540000Y-66535000D01*
G04 #@! TO.C,D5*
X52040000Y-84535000D02*
X52040000Y-80635000D01*
X54040000Y-84535000D02*
X54040000Y-80635000D01*
X52040000Y-84535000D02*
X54040000Y-84535000D01*
G04 #@! TO.C,D_H1*
X132205000Y-62085000D02*
X132205000Y-63185000D01*
X132475000Y-62085000D02*
X132205000Y-62085000D01*
X132475000Y-60585000D02*
X132475000Y-62085000D01*
X125845000Y-62085000D02*
X125845000Y-64915000D01*
X125575000Y-62085000D02*
X125845000Y-62085000D01*
X125575000Y-60585000D02*
X125575000Y-62085000D01*
G04 #@! TO.C,D_H2*
X78005000Y-62085000D02*
X78005000Y-63185000D01*
X78275000Y-62085000D02*
X78005000Y-62085000D01*
X78275000Y-60585000D02*
X78275000Y-62085000D01*
X71645000Y-62085000D02*
X71645000Y-64915000D01*
X71375000Y-62085000D02*
X71645000Y-62085000D01*
X71375000Y-60585000D02*
X71375000Y-62085000D01*
G04 #@! TO.C,D_L1*
X132205000Y-79645000D02*
X132205000Y-80745000D01*
X132475000Y-79645000D02*
X132205000Y-79645000D01*
X132475000Y-78145000D02*
X132475000Y-79645000D01*
X125845000Y-79645000D02*
X125845000Y-82475000D01*
X125575000Y-79645000D02*
X125845000Y-79645000D01*
X125575000Y-78145000D02*
X125575000Y-79645000D01*
G04 #@! TO.C,D_L2*
X78005000Y-79645000D02*
X78005000Y-80745000D01*
X78275000Y-79645000D02*
X78005000Y-79645000D01*
X78275000Y-78145000D02*
X78275000Y-79645000D01*
X71645000Y-79645000D02*
X71645000Y-82475000D01*
X71375000Y-79645000D02*
X71645000Y-79645000D01*
X71375000Y-78145000D02*
X71375000Y-79645000D01*
G04 #@! TO.C,Q1*
X117395000Y-62085000D02*
X117395000Y-63185000D01*
X117665000Y-62085000D02*
X117395000Y-62085000D01*
X117665000Y-60585000D02*
X117665000Y-62085000D01*
X111035000Y-62085000D02*
X111035000Y-64915000D01*
X110765000Y-62085000D02*
X111035000Y-62085000D01*
X110765000Y-60585000D02*
X110765000Y-62085000D01*
G04 #@! TO.C,Q2*
X117395000Y-79645000D02*
X117395000Y-80745000D01*
X117665000Y-79645000D02*
X117395000Y-79645000D01*
X117665000Y-78145000D02*
X117665000Y-79645000D01*
X111035000Y-79645000D02*
X111035000Y-82475000D01*
X110765000Y-79645000D02*
X111035000Y-79645000D01*
X110765000Y-78145000D02*
X110765000Y-79645000D01*
G04 #@! TO.C,Q4*
X63585000Y-62085000D02*
X63585000Y-63185000D01*
X63855000Y-62085000D02*
X63585000Y-62085000D01*
X63855000Y-60585000D02*
X63855000Y-62085000D01*
X57225000Y-62085000D02*
X57225000Y-64915000D01*
X56955000Y-62085000D02*
X57225000Y-62085000D01*
X56955000Y-60585000D02*
X56955000Y-62085000D01*
G04 #@! TO.C,Q5*
X63585000Y-79645000D02*
X63585000Y-80745000D01*
X63855000Y-79645000D02*
X63585000Y-79645000D01*
X63855000Y-78145000D02*
X63855000Y-79645000D01*
X57225000Y-79645000D02*
X57225000Y-82475000D01*
X56955000Y-79645000D02*
X57225000Y-79645000D01*
X56955000Y-78145000D02*
X56955000Y-79645000D01*
G04 #@! TO.C,Rs1*
X118740000Y-58585436D02*
X118740000Y-59039564D01*
X120210000Y-58585436D02*
X120210000Y-59039564D01*
G04 #@! TO.C,Rs3*
X65055000Y-58585436D02*
X65055000Y-59039564D01*
X66525000Y-58585436D02*
X66525000Y-59039564D01*
G04 #@! TO.C,Rs2*
X118740000Y-76172936D02*
X118740000Y-76627064D01*
X120210000Y-76172936D02*
X120210000Y-76627064D01*
G04 #@! TO.C,Rs4*
X65255000Y-76495436D02*
X65255000Y-76949564D01*
X66725000Y-76495436D02*
X66725000Y-76949564D01*
G04 #@! TO.C,R1*
X108772936Y-66235000D02*
X109227064Y-66235000D01*
X108772936Y-64765000D02*
X109227064Y-64765000D01*
G04 #@! TO.C,R5*
X54900436Y-65870000D02*
X55354564Y-65870000D01*
X54900436Y-64400000D02*
X55354564Y-64400000D01*
G04 #@! TO.C,R3*
X108772936Y-63735000D02*
X109227064Y-63735000D01*
X108772936Y-62265000D02*
X109227064Y-62265000D01*
G04 #@! TO.C,R4*
X108772936Y-81410000D02*
X109227064Y-81410000D01*
X108772936Y-79940000D02*
X109227064Y-79940000D01*
G04 #@! TO.C,R33*
X54900436Y-63870000D02*
X55354564Y-63870000D01*
X54900436Y-62400000D02*
X55354564Y-62400000D01*
G04 #@! TO.C,R34*
X55400436Y-81870000D02*
X55854564Y-81870000D01*
X55400436Y-80400000D02*
X55854564Y-80400000D01*
G04 #@! TO.C,R2*
X108772936Y-83735000D02*
X109227064Y-83735000D01*
X108772936Y-82265000D02*
X109227064Y-82265000D01*
G04 #@! TO.C,R6*
X55400436Y-83870000D02*
X55854564Y-83870000D01*
X55400436Y-82400000D02*
X55854564Y-82400000D01*
G04 #@! TO.C,R35*
X60735000Y-64827064D02*
X60735000Y-64372936D01*
X59265000Y-64827064D02*
X59265000Y-64372936D01*
G04 #@! TO.C,R32*
X112735000Y-84727064D02*
X112735000Y-84272936D01*
X111265000Y-84727064D02*
X111265000Y-84272936D01*
G04 #@! TO.C,R36*
X58775000Y-84449564D02*
X58775000Y-83995436D01*
X57305000Y-84449564D02*
X57305000Y-83995436D01*
G04 #@! TO.C,Rv1*
X59515000Y-113043436D02*
X59515000Y-113497564D01*
X60985000Y-113043436D02*
X60985000Y-113497564D01*
G04 #@! TO.C,Rv2*
X59515000Y-116418436D02*
X59515000Y-116872564D01*
X60985000Y-116418436D02*
X60985000Y-116872564D01*
G04 #@! TO.C,Rv3*
X59515000Y-102760436D02*
X59515000Y-103214564D01*
X60985000Y-102760436D02*
X60985000Y-103214564D01*
G04 #@! TO.C,Rv4*
X59515000Y-106110436D02*
X59515000Y-106564564D01*
X60985000Y-106110436D02*
X60985000Y-106564564D01*
G04 #@! TO.C,Rv5*
X121785000Y-116571564D02*
X121785000Y-116117436D01*
X120315000Y-116571564D02*
X120315000Y-116117436D01*
G04 #@! TO.C,Rv6*
X121785000Y-113246564D02*
X121785000Y-112792436D01*
X120315000Y-113246564D02*
X120315000Y-112792436D01*
G04 #@! TO.C,Rbleed1*
X125835436Y-87485000D02*
X126289564Y-87485000D01*
X125835436Y-86015000D02*
X126289564Y-86015000D01*
G04 #@! TO.C,Rbleed2*
X130460436Y-87485000D02*
X130914564Y-87485000D01*
X130460436Y-86015000D02*
X130914564Y-86015000D01*
G04 #@! TO.C,C3*
X54186251Y-101890000D02*
X52763747Y-101890000D01*
X54186251Y-104610000D02*
X52763747Y-104610000D01*
G04 #@! TO.C,C6*
X54206251Y-109640000D02*
X52783747Y-109640000D01*
X54206251Y-112360000D02*
X52783747Y-112360000D01*
G04 #@! TO.C,C7*
X54186251Y-94890000D02*
X52763747Y-94890000D01*
X54186251Y-97610000D02*
X52763747Y-97610000D01*
G04 #@! TO.C,C8*
X54206251Y-106114999D02*
X52783747Y-106114999D01*
X54206251Y-108834999D02*
X52783747Y-108834999D01*
G04 #@! TO.C,C9*
X54186251Y-98390000D02*
X52763747Y-98390000D01*
X54186251Y-101110000D02*
X52763747Y-101110000D01*
G04 #@! TO.C,C10*
X54206251Y-113140000D02*
X52783747Y-113140000D01*
X54206251Y-115860000D02*
X52783747Y-115860000D01*
G04 #@! TO.C,C14*
X129888748Y-90860000D02*
X131311252Y-90860000D01*
X129888748Y-88140000D02*
X131311252Y-88140000D01*
G04 #@! TO.C,C15*
X125048748Y-94660000D02*
X126471252Y-94660000D01*
X125048748Y-91940000D02*
X126471252Y-91940000D01*
G04 #@! TO.C,C16*
X129888748Y-94660000D02*
X131311252Y-94660000D01*
X129888748Y-91940000D02*
X131311252Y-91940000D01*
G04 #@! TO.C,C17*
X125048748Y-98460000D02*
X126471252Y-98460000D01*
X125048748Y-95740000D02*
X126471252Y-95740000D01*
G04 #@! TO.C,C18*
X129888748Y-98460000D02*
X131311252Y-98460000D01*
X129888748Y-95740000D02*
X131311252Y-95740000D01*
G04 #@! TO.C,C19*
X125048748Y-102260000D02*
X126471252Y-102260000D01*
X125048748Y-99540000D02*
X126471252Y-99540000D01*
G04 #@! TO.C,C20*
X129888748Y-102260000D02*
X131311252Y-102260000D01*
X129888748Y-99540000D02*
X131311252Y-99540000D01*
G04 #@! TO.C,C21*
X125048748Y-106060000D02*
X126471252Y-106060000D01*
X125048748Y-103340000D02*
X126471252Y-103340000D01*
G04 #@! TO.C,C23*
X129888748Y-106060000D02*
X131311252Y-106060000D01*
X129888748Y-103340000D02*
X131311252Y-103340000D01*
G04 #@! TO.C,C25*
X125048748Y-109860000D02*
X126471252Y-109860000D01*
X125048748Y-107140000D02*
X126471252Y-107140000D01*
G04 #@! TO.C,C26*
X129888748Y-109860000D02*
X131311252Y-109860000D01*
X129888748Y-107140000D02*
X131311252Y-107140000D01*
G04 #@! TO.C,U4*
D12*
X103238095Y-94952380D02*
X103238095Y-95761904D01*
X103285714Y-95857142D01*
X103333333Y-95904761D01*
X103428571Y-95952380D01*
X103619047Y-95952380D01*
X103714285Y-95904761D01*
X103761904Y-95857142D01*
X103809523Y-95761904D01*
X103809523Y-94952380D01*
X104714285Y-95285714D02*
X104714285Y-95952380D01*
X104476190Y-94904761D02*
X104238095Y-95619047D01*
X104857142Y-95619047D01*
G04 #@! TO.C,U1*
X78538095Y-94602380D02*
X78538095Y-95411904D01*
X78585714Y-95507142D01*
X78633333Y-95554761D01*
X78728571Y-95602380D01*
X78919047Y-95602380D01*
X79014285Y-95554761D01*
X79061904Y-95507142D01*
X79109523Y-95411904D01*
X79109523Y-94602380D01*
X80109523Y-95602380D02*
X79538095Y-95602380D01*
X79823809Y-95602380D02*
X79823809Y-94602380D01*
X79728571Y-94745238D01*
X79633333Y-94840476D01*
X79538095Y-94888095D01*
G04 #@! TO.C,U7*
X67738095Y-120252380D02*
X67738095Y-121061904D01*
X67785714Y-121157142D01*
X67833333Y-121204761D01*
X67928571Y-121252380D01*
X68119047Y-121252380D01*
X68214285Y-121204761D01*
X68261904Y-121157142D01*
X68309523Y-121061904D01*
X68309523Y-120252380D01*
X68690476Y-120252380D02*
X69357142Y-120252380D01*
X68928571Y-121252380D01*
G04 #@! TO.C,U6*
X67743096Y-98932380D02*
X67743096Y-99741904D01*
X67790715Y-99837142D01*
X67838334Y-99884761D01*
X67933572Y-99932380D01*
X68124048Y-99932380D01*
X68219286Y-99884761D01*
X68266905Y-99837142D01*
X68314524Y-99741904D01*
X68314524Y-98932380D01*
X69219286Y-98932380D02*
X69028810Y-98932380D01*
X68933572Y-98980000D01*
X68885953Y-99027619D01*
X68790715Y-99170476D01*
X68743096Y-99360952D01*
X68743096Y-99741904D01*
X68790715Y-99837142D01*
X68838334Y-99884761D01*
X68933572Y-99932380D01*
X69124048Y-99932380D01*
X69219286Y-99884761D01*
X69266905Y-99837142D01*
X69314524Y-99741904D01*
X69314524Y-99503809D01*
X69266905Y-99408571D01*
X69219286Y-99360952D01*
X69124048Y-99313333D01*
X68933572Y-99313333D01*
X68838334Y-99360952D01*
X68790715Y-99408571D01*
X68743096Y-99503809D01*
G04 #@! TO.C,F4*
X135666666Y-138928571D02*
X135333333Y-138928571D01*
X135333333Y-139452380D02*
X135333333Y-138452380D01*
X135809523Y-138452380D01*
X136619047Y-138785714D02*
X136619047Y-139452380D01*
X136380952Y-138404761D02*
X136142857Y-139119047D01*
X136761904Y-139119047D01*
G04 #@! TO.C,F3*
X65916666Y-138928571D02*
X65583333Y-138928571D01*
X65583333Y-139452380D02*
X65583333Y-138452380D01*
X66059523Y-138452380D01*
X66345238Y-138452380D02*
X66964285Y-138452380D01*
X66630952Y-138833333D01*
X66773809Y-138833333D01*
X66869047Y-138880952D01*
X66916666Y-138928571D01*
X66964285Y-139023809D01*
X66964285Y-139261904D01*
X66916666Y-139357142D01*
X66869047Y-139404761D01*
X66773809Y-139452380D01*
X66488095Y-139452380D01*
X66392857Y-139404761D01*
X66345238Y-139357142D01*
G04 #@! TO.C,F2*
X47166666Y-138928571D02*
X46833333Y-138928571D01*
X46833333Y-139452380D02*
X46833333Y-138452380D01*
X47309523Y-138452380D01*
X47642857Y-138547619D02*
X47690476Y-138500000D01*
X47785714Y-138452380D01*
X48023809Y-138452380D01*
X48119047Y-138500000D01*
X48166666Y-138547619D01*
X48214285Y-138642857D01*
X48214285Y-138738095D01*
X48166666Y-138880952D01*
X47595238Y-139452380D01*
X48214285Y-139452380D01*
G04 #@! TO.C,F1*
X129666666Y-138928571D02*
X129333333Y-138928571D01*
X129333333Y-139452380D02*
X129333333Y-138452380D01*
X129809523Y-138452380D01*
X130714285Y-139452380D02*
X130142857Y-139452380D01*
X130428571Y-139452380D02*
X130428571Y-138452380D01*
X130333333Y-138595238D01*
X130238095Y-138690476D01*
X130142857Y-138738095D01*
G04 #@! TO.C,H1*
X38488095Y-41702380D02*
X38488095Y-40702380D01*
X38488095Y-41178571D02*
X39059523Y-41178571D01*
X39059523Y-41702380D02*
X39059523Y-40702380D01*
X40059523Y-41702380D02*
X39488095Y-41702380D01*
X39773809Y-41702380D02*
X39773809Y-40702380D01*
X39678571Y-40845238D01*
X39583333Y-40940476D01*
X39488095Y-40988095D01*
G04 #@! TO.C,U5*
X114238095Y-118152380D02*
X114238095Y-118961904D01*
X114285714Y-119057142D01*
X114333333Y-119104761D01*
X114428571Y-119152380D01*
X114619047Y-119152380D01*
X114714285Y-119104761D01*
X114761904Y-119057142D01*
X114809523Y-118961904D01*
X114809523Y-118152380D01*
X115761904Y-118152380D02*
X115285714Y-118152380D01*
X115238095Y-118628571D01*
X115285714Y-118580952D01*
X115380952Y-118533333D01*
X115619047Y-118533333D01*
X115714285Y-118580952D01*
X115761904Y-118628571D01*
X115809523Y-118723809D01*
X115809523Y-118961904D01*
X115761904Y-119057142D01*
X115714285Y-119104761D01*
X115619047Y-119152380D01*
X115380952Y-119152380D01*
X115285714Y-119104761D01*
X115238095Y-119057142D01*
G04 #@! TO.C,L1*
X96083333Y-53202380D02*
X95607142Y-53202380D01*
X95607142Y-52202380D01*
X96940476Y-53202380D02*
X96369047Y-53202380D01*
X96654761Y-53202380D02*
X96654761Y-52202380D01*
X96559523Y-52345238D01*
X96464285Y-52440476D01*
X96369047Y-52488095D01*
G04 #@! TO.C,L2*
X91833333Y-77452380D02*
X91357142Y-77452380D01*
X91357142Y-76452380D01*
X92119047Y-76547619D02*
X92166666Y-76500000D01*
X92261904Y-76452380D01*
X92500000Y-76452380D01*
X92595238Y-76500000D01*
X92642857Y-76547619D01*
X92690476Y-76642857D01*
X92690476Y-76738095D01*
X92642857Y-76880952D01*
X92071428Y-77452380D01*
X92690476Y-77452380D01*
G04 #@! TO.C,J1*
X52166666Y-122702380D02*
X52166666Y-123416666D01*
X52119047Y-123559523D01*
X52023809Y-123654761D01*
X51880952Y-123702380D01*
X51785714Y-123702380D01*
X53166666Y-123702380D02*
X52595238Y-123702380D01*
X52880952Y-123702380D02*
X52880952Y-122702380D01*
X52785714Y-122845238D01*
X52690476Y-122940476D01*
X52595238Y-122988095D01*
X51011904Y-150797619D02*
X51059523Y-150750000D01*
X51154761Y-150702380D01*
X51392857Y-150702380D01*
X51488095Y-150750000D01*
X51535714Y-150797619D01*
X51583333Y-150892857D01*
X51583333Y-150988095D01*
X51535714Y-151130952D01*
X50964285Y-151702380D01*
X51583333Y-151702380D01*
X52440476Y-150702380D02*
X52249999Y-150702380D01*
X52154761Y-150750000D01*
X52107142Y-150797619D01*
X52011904Y-150940476D01*
X51964285Y-151130952D01*
X51964285Y-151511904D01*
X52011904Y-151607142D01*
X52059523Y-151654761D01*
X52154761Y-151702380D01*
X52345238Y-151702380D01*
X52440476Y-151654761D01*
X52488095Y-151607142D01*
X52535714Y-151511904D01*
X52535714Y-151273809D01*
X52488095Y-151178571D01*
X52440476Y-151130952D01*
X52345238Y-151083333D01*
X52154761Y-151083333D01*
X52059523Y-151130952D01*
X52011904Y-151178571D01*
X51964285Y-151273809D01*
X53154761Y-150702380D02*
X53249999Y-150702380D01*
X53345238Y-150750000D01*
X53392857Y-150797619D01*
X53440476Y-150892857D01*
X53488095Y-151083333D01*
X53488095Y-151321428D01*
X53440476Y-151511904D01*
X53392857Y-151607142D01*
X53345238Y-151654761D01*
X53249999Y-151702380D01*
X53154761Y-151702380D01*
X53059523Y-151654761D01*
X53011904Y-151607142D01*
X52964285Y-151511904D01*
X52916666Y-151321428D01*
X52916666Y-151083333D01*
X52964285Y-150892857D01*
X53011904Y-150797619D01*
X53059523Y-150750000D01*
X53154761Y-150702380D01*
X54345238Y-151035714D02*
X54345238Y-151702380D01*
X54107142Y-150654761D02*
X53869047Y-151369047D01*
X54488095Y-151369047D01*
X54869047Y-151321428D02*
X55630952Y-151321428D01*
X56630952Y-151702380D02*
X56059523Y-151702380D01*
X56345238Y-151702380D02*
X56345238Y-150702380D01*
X56249999Y-150845238D01*
X56154761Y-150940476D01*
X56059523Y-150988095D01*
X57583333Y-151702380D02*
X57011904Y-151702380D01*
X57297619Y-151702380D02*
X57297619Y-150702380D01*
X57202380Y-150845238D01*
X57107142Y-150940476D01*
X57011904Y-150988095D01*
X58202380Y-150702380D02*
X58297619Y-150702380D01*
X58392857Y-150750000D01*
X58440476Y-150797619D01*
X58488095Y-150892857D01*
X58535714Y-151083333D01*
X58535714Y-151321428D01*
X58488095Y-151511904D01*
X58440476Y-151607142D01*
X58392857Y-151654761D01*
X58297619Y-151702380D01*
X58202380Y-151702380D01*
X58107142Y-151654761D01*
X58059523Y-151607142D01*
X58011904Y-151511904D01*
X57964285Y-151321428D01*
X57964285Y-151083333D01*
X58011904Y-150892857D01*
X58059523Y-150797619D01*
X58107142Y-150750000D01*
X58202380Y-150702380D01*
X58916666Y-150797619D02*
X58964285Y-150750000D01*
X59059523Y-150702380D01*
X59297619Y-150702380D01*
X59392857Y-150750000D01*
X59440476Y-150797619D01*
X59488095Y-150892857D01*
X59488095Y-150988095D01*
X59440476Y-151130952D01*
X58869047Y-151702380D01*
X59488095Y-151702380D01*
X53500000Y-126452380D02*
X53500000Y-126690476D01*
X53261904Y-126595238D02*
X53500000Y-126690476D01*
X53738095Y-126595238D01*
X53357142Y-126880952D02*
X53500000Y-126690476D01*
X53642857Y-126880952D01*
G04 #@! TO.C,J2*
X86916666Y-139702380D02*
X86916666Y-140416666D01*
X86869047Y-140559523D01*
X86773809Y-140654761D01*
X86630952Y-140702380D01*
X86535714Y-140702380D01*
X87345238Y-139797619D02*
X87392857Y-139750000D01*
X87488095Y-139702380D01*
X87726190Y-139702380D01*
X87821428Y-139750000D01*
X87869047Y-139797619D01*
X87916666Y-139892857D01*
X87916666Y-139988095D01*
X87869047Y-140130952D01*
X87297619Y-140702380D01*
X87916666Y-140702380D01*
X74761904Y-150797619D02*
X74809523Y-150750000D01*
X74904761Y-150702380D01*
X75142857Y-150702380D01*
X75238095Y-150750000D01*
X75285714Y-150797619D01*
X75333333Y-150892857D01*
X75333333Y-150988095D01*
X75285714Y-151130952D01*
X74714285Y-151702380D01*
X75333333Y-151702380D01*
X76190476Y-150702380D02*
X76000000Y-150702380D01*
X75904761Y-150750000D01*
X75857142Y-150797619D01*
X75761904Y-150940476D01*
X75714285Y-151130952D01*
X75714285Y-151511904D01*
X75761904Y-151607142D01*
X75809523Y-151654761D01*
X75904761Y-151702380D01*
X76095238Y-151702380D01*
X76190476Y-151654761D01*
X76238095Y-151607142D01*
X76285714Y-151511904D01*
X76285714Y-151273809D01*
X76238095Y-151178571D01*
X76190476Y-151130952D01*
X76095238Y-151083333D01*
X75904761Y-151083333D01*
X75809523Y-151130952D01*
X75761904Y-151178571D01*
X75714285Y-151273809D01*
X76904761Y-150702380D02*
X77000000Y-150702380D01*
X77095238Y-150750000D01*
X77142857Y-150797619D01*
X77190476Y-150892857D01*
X77238095Y-151083333D01*
X77238095Y-151321428D01*
X77190476Y-151511904D01*
X77142857Y-151607142D01*
X77095238Y-151654761D01*
X77000000Y-151702380D01*
X76904761Y-151702380D01*
X76809523Y-151654761D01*
X76761904Y-151607142D01*
X76714285Y-151511904D01*
X76666666Y-151321428D01*
X76666666Y-151083333D01*
X76714285Y-150892857D01*
X76761904Y-150797619D01*
X76809523Y-150750000D01*
X76904761Y-150702380D01*
X78095238Y-151035714D02*
X78095238Y-151702380D01*
X77857142Y-150654761D02*
X77619047Y-151369047D01*
X78238095Y-151369047D01*
X78619047Y-151321428D02*
X79380952Y-151321428D01*
X80380952Y-151702380D02*
X79809523Y-151702380D01*
X80095238Y-151702380D02*
X80095238Y-150702380D01*
X80000000Y-150845238D01*
X79904761Y-150940476D01*
X79809523Y-150988095D01*
X81333333Y-151702380D02*
X80761904Y-151702380D01*
X81047619Y-151702380D02*
X81047619Y-150702380D01*
X80952380Y-150845238D01*
X80857142Y-150940476D01*
X80761904Y-150988095D01*
X81952380Y-150702380D02*
X82047619Y-150702380D01*
X82142857Y-150750000D01*
X82190476Y-150797619D01*
X82238095Y-150892857D01*
X82285714Y-151083333D01*
X82285714Y-151321428D01*
X82238095Y-151511904D01*
X82190476Y-151607142D01*
X82142857Y-151654761D01*
X82047619Y-151702380D01*
X81952380Y-151702380D01*
X81857142Y-151654761D01*
X81809523Y-151607142D01*
X81761904Y-151511904D01*
X81714285Y-151321428D01*
X81714285Y-151083333D01*
X81761904Y-150892857D01*
X81809523Y-150797619D01*
X81857142Y-150750000D01*
X81952380Y-150702380D01*
X82666666Y-150797619D02*
X82714285Y-150750000D01*
X82809523Y-150702380D01*
X83047619Y-150702380D01*
X83142857Y-150750000D01*
X83190476Y-150797619D01*
X83238095Y-150892857D01*
X83238095Y-150988095D01*
X83190476Y-151130952D01*
X82619047Y-151702380D01*
X83238095Y-151702380D01*
X76000000Y-126452380D02*
X76000000Y-126690476D01*
X75761904Y-126595238D02*
X76000000Y-126690476D01*
X76238095Y-126595238D01*
X75857142Y-126880952D02*
X76000000Y-126690476D01*
X76142857Y-126880952D01*
G04 #@! TO.C,J4*
X124666666Y-122452380D02*
X124666666Y-123166666D01*
X124619047Y-123309523D01*
X124523809Y-123404761D01*
X124380952Y-123452380D01*
X124285714Y-123452380D01*
X125571428Y-122785714D02*
X125571428Y-123452380D01*
X125333333Y-122404761D02*
X125095238Y-123119047D01*
X125714285Y-123119047D01*
X113761904Y-151047619D02*
X113809523Y-151000000D01*
X113904761Y-150952380D01*
X114142857Y-150952380D01*
X114238095Y-151000000D01*
X114285714Y-151047619D01*
X114333333Y-151142857D01*
X114333333Y-151238095D01*
X114285714Y-151380952D01*
X113714285Y-151952380D01*
X114333333Y-151952380D01*
X115190476Y-150952380D02*
X115000000Y-150952380D01*
X114904761Y-151000000D01*
X114857142Y-151047619D01*
X114761904Y-151190476D01*
X114714285Y-151380952D01*
X114714285Y-151761904D01*
X114761904Y-151857142D01*
X114809523Y-151904761D01*
X114904761Y-151952380D01*
X115095238Y-151952380D01*
X115190476Y-151904761D01*
X115238095Y-151857142D01*
X115285714Y-151761904D01*
X115285714Y-151523809D01*
X115238095Y-151428571D01*
X115190476Y-151380952D01*
X115095238Y-151333333D01*
X114904761Y-151333333D01*
X114809523Y-151380952D01*
X114761904Y-151428571D01*
X114714285Y-151523809D01*
X115904761Y-150952380D02*
X116000000Y-150952380D01*
X116095238Y-151000000D01*
X116142857Y-151047619D01*
X116190476Y-151142857D01*
X116238095Y-151333333D01*
X116238095Y-151571428D01*
X116190476Y-151761904D01*
X116142857Y-151857142D01*
X116095238Y-151904761D01*
X116000000Y-151952380D01*
X115904761Y-151952380D01*
X115809523Y-151904761D01*
X115761904Y-151857142D01*
X115714285Y-151761904D01*
X115666666Y-151571428D01*
X115666666Y-151333333D01*
X115714285Y-151142857D01*
X115761904Y-151047619D01*
X115809523Y-151000000D01*
X115904761Y-150952380D01*
X117095238Y-151285714D02*
X117095238Y-151952380D01*
X116857142Y-150904761D02*
X116619047Y-151619047D01*
X117238095Y-151619047D01*
X117619047Y-151571428D02*
X118380952Y-151571428D01*
X119380952Y-151952380D02*
X118809523Y-151952380D01*
X119095238Y-151952380D02*
X119095238Y-150952380D01*
X119000000Y-151095238D01*
X118904761Y-151190476D01*
X118809523Y-151238095D01*
X120333333Y-151952380D02*
X119761904Y-151952380D01*
X120047619Y-151952380D02*
X120047619Y-150952380D01*
X119952380Y-151095238D01*
X119857142Y-151190476D01*
X119761904Y-151238095D01*
X120952380Y-150952380D02*
X121047619Y-150952380D01*
X121142857Y-151000000D01*
X121190476Y-151047619D01*
X121238095Y-151142857D01*
X121285714Y-151333333D01*
X121285714Y-151571428D01*
X121238095Y-151761904D01*
X121190476Y-151857142D01*
X121142857Y-151904761D01*
X121047619Y-151952380D01*
X120952380Y-151952380D01*
X120857142Y-151904761D01*
X120809523Y-151857142D01*
X120761904Y-151761904D01*
X120714285Y-151571428D01*
X120714285Y-151333333D01*
X120761904Y-151142857D01*
X120809523Y-151047619D01*
X120857142Y-151000000D01*
X120952380Y-150952380D01*
X121666666Y-151047619D02*
X121714285Y-151000000D01*
X121809523Y-150952380D01*
X122047619Y-150952380D01*
X122142857Y-151000000D01*
X122190476Y-151047619D01*
X122238095Y-151142857D01*
X122238095Y-151238095D01*
X122190476Y-151380952D01*
X121619047Y-151952380D01*
X122238095Y-151952380D01*
X116500000Y-126452380D02*
X116500000Y-126690476D01*
X116261904Y-126595238D02*
X116500000Y-126690476D01*
X116738095Y-126595238D01*
X116357142Y-126880952D02*
X116500000Y-126690476D01*
X116642857Y-126880952D01*
G04 #@! TO.C,J5*
X101416666Y-139702380D02*
X101416666Y-140416666D01*
X101369047Y-140559523D01*
X101273809Y-140654761D01*
X101130952Y-140702380D01*
X101035714Y-140702380D01*
X102369047Y-139702380D02*
X101892857Y-139702380D01*
X101845238Y-140178571D01*
X101892857Y-140130952D01*
X101988095Y-140083333D01*
X102226190Y-140083333D01*
X102321428Y-140130952D01*
X102369047Y-140178571D01*
X102416666Y-140273809D01*
X102416666Y-140511904D01*
X102369047Y-140607142D01*
X102321428Y-140654761D01*
X102226190Y-140702380D01*
X101988095Y-140702380D01*
X101892857Y-140654761D01*
X101845238Y-140607142D01*
X103761904Y-151547619D02*
X103809523Y-151500000D01*
X103904761Y-151452380D01*
X104142857Y-151452380D01*
X104238095Y-151500000D01*
X104285714Y-151547619D01*
X104333333Y-151642857D01*
X104333333Y-151738095D01*
X104285714Y-151880952D01*
X103714285Y-152452380D01*
X104333333Y-152452380D01*
X105190476Y-151452380D02*
X105000000Y-151452380D01*
X104904761Y-151500000D01*
X104857142Y-151547619D01*
X104761904Y-151690476D01*
X104714285Y-151880952D01*
X104714285Y-152261904D01*
X104761904Y-152357142D01*
X104809523Y-152404761D01*
X104904761Y-152452380D01*
X105095238Y-152452380D01*
X105190476Y-152404761D01*
X105238095Y-152357142D01*
X105285714Y-152261904D01*
X105285714Y-152023809D01*
X105238095Y-151928571D01*
X105190476Y-151880952D01*
X105095238Y-151833333D01*
X104904761Y-151833333D01*
X104809523Y-151880952D01*
X104761904Y-151928571D01*
X104714285Y-152023809D01*
X105904761Y-151452380D02*
X106000000Y-151452380D01*
X106095238Y-151500000D01*
X106142857Y-151547619D01*
X106190476Y-151642857D01*
X106238095Y-151833333D01*
X106238095Y-152071428D01*
X106190476Y-152261904D01*
X106142857Y-152357142D01*
X106095238Y-152404761D01*
X106000000Y-152452380D01*
X105904761Y-152452380D01*
X105809523Y-152404761D01*
X105761904Y-152357142D01*
X105714285Y-152261904D01*
X105666666Y-152071428D01*
X105666666Y-151833333D01*
X105714285Y-151642857D01*
X105761904Y-151547619D01*
X105809523Y-151500000D01*
X105904761Y-151452380D01*
X107095238Y-151785714D02*
X107095238Y-152452380D01*
X106857142Y-151404761D02*
X106619047Y-152119047D01*
X107238095Y-152119047D01*
X107619047Y-152071428D02*
X108380952Y-152071428D01*
X109380952Y-152452380D02*
X108809523Y-152452380D01*
X109095238Y-152452380D02*
X109095238Y-151452380D01*
X109000000Y-151595238D01*
X108904761Y-151690476D01*
X108809523Y-151738095D01*
X110333333Y-152452380D02*
X109761904Y-152452380D01*
X110047619Y-152452380D02*
X110047619Y-151452380D01*
X109952380Y-151595238D01*
X109857142Y-151690476D01*
X109761904Y-151738095D01*
X110952380Y-151452380D02*
X111047619Y-151452380D01*
X111142857Y-151500000D01*
X111190476Y-151547619D01*
X111238095Y-151642857D01*
X111285714Y-151833333D01*
X111285714Y-152071428D01*
X111238095Y-152261904D01*
X111190476Y-152357142D01*
X111142857Y-152404761D01*
X111047619Y-152452380D01*
X110952380Y-152452380D01*
X110857142Y-152404761D01*
X110809523Y-152357142D01*
X110761904Y-152261904D01*
X110714285Y-152071428D01*
X110714285Y-151833333D01*
X110761904Y-151642857D01*
X110809523Y-151547619D01*
X110857142Y-151500000D01*
X110952380Y-151452380D01*
X111666666Y-151547619D02*
X111714285Y-151500000D01*
X111809523Y-151452380D01*
X112047619Y-151452380D01*
X112142857Y-151500000D01*
X112190476Y-151547619D01*
X112238095Y-151642857D01*
X112238095Y-151738095D01*
X112190476Y-151880952D01*
X111619047Y-152452380D01*
X112238095Y-152452380D01*
X106000000Y-126452380D02*
X106000000Y-126690476D01*
X105761904Y-126595238D02*
X106000000Y-126690476D01*
X106238095Y-126595238D01*
X105857142Y-126880952D02*
X106000000Y-126690476D01*
X106142857Y-126880952D01*
G04 #@! TO.C,JP10*
X118540476Y-65952380D02*
X118540476Y-66666666D01*
X118492857Y-66809523D01*
X118397619Y-66904761D01*
X118254761Y-66952380D01*
X118159523Y-66952380D01*
X119016666Y-66952380D02*
X119016666Y-65952380D01*
X119397619Y-65952380D01*
X119492857Y-66000000D01*
X119540476Y-66047619D01*
X119588095Y-66142857D01*
X119588095Y-66285714D01*
X119540476Y-66380952D01*
X119492857Y-66428571D01*
X119397619Y-66476190D01*
X119016666Y-66476190D01*
X120540476Y-66952380D02*
X119969047Y-66952380D01*
X120254761Y-66952380D02*
X120254761Y-65952380D01*
X120159523Y-66095238D01*
X120064285Y-66190476D01*
X119969047Y-66238095D01*
X121159523Y-65952380D02*
X121254761Y-65952380D01*
X121350000Y-66000000D01*
X121397619Y-66047619D01*
X121445238Y-66142857D01*
X121492857Y-66333333D01*
X121492857Y-66571428D01*
X121445238Y-66761904D01*
X121397619Y-66857142D01*
X121350000Y-66904761D01*
X121254761Y-66952380D01*
X121159523Y-66952380D01*
X121064285Y-66904761D01*
X121016666Y-66857142D01*
X120969047Y-66761904D01*
X120921428Y-66571428D01*
X120921428Y-66333333D01*
X120969047Y-66142857D01*
X121016666Y-66047619D01*
X121064285Y-66000000D01*
X121159523Y-65952380D01*
G04 #@! TO.C,JP9*
X64416666Y-65952380D02*
X64416666Y-66666666D01*
X64369047Y-66809523D01*
X64273809Y-66904761D01*
X64130952Y-66952380D01*
X64035714Y-66952380D01*
X64892857Y-66952380D02*
X64892857Y-65952380D01*
X65273809Y-65952380D01*
X65369047Y-66000000D01*
X65416666Y-66047619D01*
X65464285Y-66142857D01*
X65464285Y-66285714D01*
X65416666Y-66380952D01*
X65369047Y-66428571D01*
X65273809Y-66476190D01*
X64892857Y-66476190D01*
X65940476Y-66952380D02*
X66130952Y-66952380D01*
X66226190Y-66904761D01*
X66273809Y-66857142D01*
X66369047Y-66714285D01*
X66416666Y-66523809D01*
X66416666Y-66142857D01*
X66369047Y-66047619D01*
X66321428Y-66000000D01*
X66226190Y-65952380D01*
X66035714Y-65952380D01*
X65940476Y-66000000D01*
X65892857Y-66047619D01*
X65845238Y-66142857D01*
X65845238Y-66380952D01*
X65892857Y-66476190D01*
X65940476Y-66523809D01*
X66035714Y-66571428D01*
X66226190Y-66571428D01*
X66321428Y-66523809D01*
X66369047Y-66476190D01*
X66416666Y-66380952D01*
G04 #@! TO.C,JP8*
X132916666Y-53802380D02*
X132916666Y-54516666D01*
X132869047Y-54659523D01*
X132773809Y-54754761D01*
X132630952Y-54802380D01*
X132535714Y-54802380D01*
X133392857Y-54802380D02*
X133392857Y-53802380D01*
X133773809Y-53802380D01*
X133869047Y-53850000D01*
X133916666Y-53897619D01*
X133964285Y-53992857D01*
X133964285Y-54135714D01*
X133916666Y-54230952D01*
X133869047Y-54278571D01*
X133773809Y-54326190D01*
X133392857Y-54326190D01*
X134535714Y-54230952D02*
X134440476Y-54183333D01*
X134392857Y-54135714D01*
X134345238Y-54040476D01*
X134345238Y-53992857D01*
X134392857Y-53897619D01*
X134440476Y-53850000D01*
X134535714Y-53802380D01*
X134726190Y-53802380D01*
X134821428Y-53850000D01*
X134869047Y-53897619D01*
X134916666Y-53992857D01*
X134916666Y-54040476D01*
X134869047Y-54135714D01*
X134821428Y-54183333D01*
X134726190Y-54230952D01*
X134535714Y-54230952D01*
X134440476Y-54278571D01*
X134392857Y-54326190D01*
X134345238Y-54421428D01*
X134345238Y-54611904D01*
X134392857Y-54707142D01*
X134440476Y-54754761D01*
X134535714Y-54802380D01*
X134726190Y-54802380D01*
X134821428Y-54754761D01*
X134869047Y-54707142D01*
X134916666Y-54611904D01*
X134916666Y-54421428D01*
X134869047Y-54326190D01*
X134821428Y-54278571D01*
X134726190Y-54230952D01*
G04 #@! TO.C,JP7*
X131416666Y-51702380D02*
X131416666Y-52416666D01*
X131369047Y-52559523D01*
X131273809Y-52654761D01*
X131130952Y-52702380D01*
X131035714Y-52702380D01*
X131892857Y-52702380D02*
X131892857Y-51702380D01*
X132273809Y-51702380D01*
X132369047Y-51750000D01*
X132416666Y-51797619D01*
X132464285Y-51892857D01*
X132464285Y-52035714D01*
X132416666Y-52130952D01*
X132369047Y-52178571D01*
X132273809Y-52226190D01*
X131892857Y-52226190D01*
X132797619Y-51702380D02*
X133464285Y-51702380D01*
X133035714Y-52702380D01*
G04 #@! TO.C,C38*
X94857142Y-119357142D02*
X94809523Y-119404761D01*
X94666666Y-119452380D01*
X94571428Y-119452380D01*
X94428571Y-119404761D01*
X94333333Y-119309523D01*
X94285714Y-119214285D01*
X94238095Y-119023809D01*
X94238095Y-118880952D01*
X94285714Y-118690476D01*
X94333333Y-118595238D01*
X94428571Y-118500000D01*
X94571428Y-118452380D01*
X94666666Y-118452380D01*
X94809523Y-118500000D01*
X94857142Y-118547619D01*
X95190476Y-118452380D02*
X95809523Y-118452380D01*
X95476190Y-118833333D01*
X95619047Y-118833333D01*
X95714285Y-118880952D01*
X95761904Y-118928571D01*
X95809523Y-119023809D01*
X95809523Y-119261904D01*
X95761904Y-119357142D01*
X95714285Y-119404761D01*
X95619047Y-119452380D01*
X95333333Y-119452380D01*
X95238095Y-119404761D01*
X95190476Y-119357142D01*
X96380952Y-118880952D02*
X96285714Y-118833333D01*
X96238095Y-118785714D01*
X96190476Y-118690476D01*
X96190476Y-118642857D01*
X96238095Y-118547619D01*
X96285714Y-118500000D01*
X96380952Y-118452380D01*
X96571428Y-118452380D01*
X96666666Y-118500000D01*
X96714285Y-118547619D01*
X96761904Y-118642857D01*
X96761904Y-118690476D01*
X96714285Y-118785714D01*
X96666666Y-118833333D01*
X96571428Y-118880952D01*
X96380952Y-118880952D01*
X96285714Y-118928571D01*
X96238095Y-118976190D01*
X96190476Y-119071428D01*
X96190476Y-119261904D01*
X96238095Y-119357142D01*
X96285714Y-119404761D01*
X96380952Y-119452380D01*
X96571428Y-119452380D01*
X96666666Y-119404761D01*
X96714285Y-119357142D01*
X96761904Y-119261904D01*
X96761904Y-119071428D01*
X96714285Y-118976190D01*
X96666666Y-118928571D01*
X96571428Y-118880952D01*
G04 #@! TO.C,C34*
X81857142Y-101357142D02*
X81809523Y-101404761D01*
X81666666Y-101452380D01*
X81571428Y-101452380D01*
X81428571Y-101404761D01*
X81333333Y-101309523D01*
X81285714Y-101214285D01*
X81238095Y-101023809D01*
X81238095Y-100880952D01*
X81285714Y-100690476D01*
X81333333Y-100595238D01*
X81428571Y-100500000D01*
X81571428Y-100452380D01*
X81666666Y-100452380D01*
X81809523Y-100500000D01*
X81857142Y-100547619D01*
X82190476Y-100452380D02*
X82809523Y-100452380D01*
X82476190Y-100833333D01*
X82619047Y-100833333D01*
X82714285Y-100880952D01*
X82761904Y-100928571D01*
X82809523Y-101023809D01*
X82809523Y-101261904D01*
X82761904Y-101357142D01*
X82714285Y-101404761D01*
X82619047Y-101452380D01*
X82333333Y-101452380D01*
X82238095Y-101404761D01*
X82190476Y-101357142D01*
X83666666Y-100785714D02*
X83666666Y-101452380D01*
X83428571Y-100404761D02*
X83190476Y-101119047D01*
X83809523Y-101119047D01*
G04 #@! TO.C,C33*
X85607142Y-112107142D02*
X85559523Y-112154761D01*
X85416666Y-112202380D01*
X85321428Y-112202380D01*
X85178571Y-112154761D01*
X85083333Y-112059523D01*
X85035714Y-111964285D01*
X84988095Y-111773809D01*
X84988095Y-111630952D01*
X85035714Y-111440476D01*
X85083333Y-111345238D01*
X85178571Y-111250000D01*
X85321428Y-111202380D01*
X85416666Y-111202380D01*
X85559523Y-111250000D01*
X85607142Y-111297619D01*
X85940476Y-111202380D02*
X86559523Y-111202380D01*
X86226190Y-111583333D01*
X86369047Y-111583333D01*
X86464285Y-111630952D01*
X86511904Y-111678571D01*
X86559523Y-111773809D01*
X86559523Y-112011904D01*
X86511904Y-112107142D01*
X86464285Y-112154761D01*
X86369047Y-112202380D01*
X86083333Y-112202380D01*
X85988095Y-112154761D01*
X85940476Y-112107142D01*
X86892857Y-111202380D02*
X87511904Y-111202380D01*
X87178571Y-111583333D01*
X87321428Y-111583333D01*
X87416666Y-111630952D01*
X87464285Y-111678571D01*
X87511904Y-111773809D01*
X87511904Y-112011904D01*
X87464285Y-112107142D01*
X87416666Y-112154761D01*
X87321428Y-112202380D01*
X87035714Y-112202380D01*
X86940476Y-112154761D01*
X86892857Y-112107142D01*
G04 #@! TO.C,C32*
X106107142Y-111857142D02*
X106059523Y-111904761D01*
X105916666Y-111952380D01*
X105821428Y-111952380D01*
X105678571Y-111904761D01*
X105583333Y-111809523D01*
X105535714Y-111714285D01*
X105488095Y-111523809D01*
X105488095Y-111380952D01*
X105535714Y-111190476D01*
X105583333Y-111095238D01*
X105678571Y-111000000D01*
X105821428Y-110952380D01*
X105916666Y-110952380D01*
X106059523Y-111000000D01*
X106107142Y-111047619D01*
X106440476Y-110952380D02*
X107059523Y-110952380D01*
X106726190Y-111333333D01*
X106869047Y-111333333D01*
X106964285Y-111380952D01*
X107011904Y-111428571D01*
X107059523Y-111523809D01*
X107059523Y-111761904D01*
X107011904Y-111857142D01*
X106964285Y-111904761D01*
X106869047Y-111952380D01*
X106583333Y-111952380D01*
X106488095Y-111904761D01*
X106440476Y-111857142D01*
X107440476Y-111047619D02*
X107488095Y-111000000D01*
X107583333Y-110952380D01*
X107821428Y-110952380D01*
X107916666Y-111000000D01*
X107964285Y-111047619D01*
X108011904Y-111142857D01*
X108011904Y-111238095D01*
X107964285Y-111380952D01*
X107392857Y-111952380D01*
X108011904Y-111952380D01*
G04 #@! TO.C,C31*
X98607142Y-104107142D02*
X98559523Y-104154761D01*
X98416666Y-104202380D01*
X98321428Y-104202380D01*
X98178571Y-104154761D01*
X98083333Y-104059523D01*
X98035714Y-103964285D01*
X97988095Y-103773809D01*
X97988095Y-103630952D01*
X98035714Y-103440476D01*
X98083333Y-103345238D01*
X98178571Y-103250000D01*
X98321428Y-103202380D01*
X98416666Y-103202380D01*
X98559523Y-103250000D01*
X98607142Y-103297619D01*
X98940476Y-103202380D02*
X99559523Y-103202380D01*
X99226190Y-103583333D01*
X99369047Y-103583333D01*
X99464285Y-103630952D01*
X99511904Y-103678571D01*
X99559523Y-103773809D01*
X99559523Y-104011904D01*
X99511904Y-104107142D01*
X99464285Y-104154761D01*
X99369047Y-104202380D01*
X99083333Y-104202380D01*
X98988095Y-104154761D01*
X98940476Y-104107142D01*
X100511904Y-104202380D02*
X99940476Y-104202380D01*
X100226190Y-104202380D02*
X100226190Y-103202380D01*
X100130952Y-103345238D01*
X100035714Y-103440476D01*
X99940476Y-103488095D01*
G04 #@! TO.C,C30*
X86857142Y-95857142D02*
X86809523Y-95904761D01*
X86666666Y-95952380D01*
X86571428Y-95952380D01*
X86428571Y-95904761D01*
X86333333Y-95809523D01*
X86285714Y-95714285D01*
X86238095Y-95523809D01*
X86238095Y-95380952D01*
X86285714Y-95190476D01*
X86333333Y-95095238D01*
X86428571Y-95000000D01*
X86571428Y-94952380D01*
X86666666Y-94952380D01*
X86809523Y-95000000D01*
X86857142Y-95047619D01*
X87190476Y-94952380D02*
X87809523Y-94952380D01*
X87476190Y-95333333D01*
X87619047Y-95333333D01*
X87714285Y-95380952D01*
X87761904Y-95428571D01*
X87809523Y-95523809D01*
X87809523Y-95761904D01*
X87761904Y-95857142D01*
X87714285Y-95904761D01*
X87619047Y-95952380D01*
X87333333Y-95952380D01*
X87238095Y-95904761D01*
X87190476Y-95857142D01*
X88428571Y-94952380D02*
X88523809Y-94952380D01*
X88619047Y-95000000D01*
X88666666Y-95047619D01*
X88714285Y-95142857D01*
X88761904Y-95333333D01*
X88761904Y-95571428D01*
X88714285Y-95761904D01*
X88666666Y-95857142D01*
X88619047Y-95904761D01*
X88523809Y-95952380D01*
X88428571Y-95952380D01*
X88333333Y-95904761D01*
X88285714Y-95857142D01*
X88238095Y-95761904D01*
X88190476Y-95571428D01*
X88190476Y-95333333D01*
X88238095Y-95142857D01*
X88285714Y-95047619D01*
X88333333Y-95000000D01*
X88428571Y-94952380D01*
G04 #@! TO.C,Q3*
X98654761Y-128297619D02*
X98559523Y-128250000D01*
X98464285Y-128154761D01*
X98321428Y-128011904D01*
X98226190Y-127964285D01*
X98130952Y-127964285D01*
X98178571Y-128202380D02*
X98083333Y-128154761D01*
X97988095Y-128059523D01*
X97940476Y-127869047D01*
X97940476Y-127535714D01*
X97988095Y-127345238D01*
X98083333Y-127250000D01*
X98178571Y-127202380D01*
X98369047Y-127202380D01*
X98464285Y-127250000D01*
X98559523Y-127345238D01*
X98607142Y-127535714D01*
X98607142Y-127869047D01*
X98559523Y-128059523D01*
X98464285Y-128154761D01*
X98369047Y-128202380D01*
X98178571Y-128202380D01*
X98940476Y-127202380D02*
X99559523Y-127202380D01*
X99226190Y-127583333D01*
X99369047Y-127583333D01*
X99464285Y-127630952D01*
X99511904Y-127678571D01*
X99559523Y-127773809D01*
X99559523Y-128011904D01*
X99511904Y-128107142D01*
X99464285Y-128154761D01*
X99369047Y-128202380D01*
X99083333Y-128202380D01*
X98988095Y-128154761D01*
X98940476Y-128107142D01*
G04 #@! TO.C,U13*
X99261904Y-107452380D02*
X99261904Y-108261904D01*
X99309523Y-108357142D01*
X99357142Y-108404761D01*
X99452380Y-108452380D01*
X99642857Y-108452380D01*
X99738095Y-108404761D01*
X99785714Y-108357142D01*
X99833333Y-108261904D01*
X99833333Y-107452380D01*
X100833333Y-108452380D02*
X100261904Y-108452380D01*
X100547619Y-108452380D02*
X100547619Y-107452380D01*
X100452380Y-107595238D01*
X100357142Y-107690476D01*
X100261904Y-107738095D01*
X101166666Y-107452380D02*
X101785714Y-107452380D01*
X101452380Y-107833333D01*
X101595238Y-107833333D01*
X101690476Y-107880952D01*
X101738095Y-107928571D01*
X101785714Y-108023809D01*
X101785714Y-108261904D01*
X101738095Y-108357142D01*
X101690476Y-108404761D01*
X101595238Y-108452380D01*
X101309523Y-108452380D01*
X101214285Y-108404761D01*
X101166666Y-108357142D01*
G04 #@! TO.C,U3*
X114238095Y-108002380D02*
X114238095Y-108811904D01*
X114285714Y-108907142D01*
X114333333Y-108954761D01*
X114428571Y-109002380D01*
X114619047Y-109002380D01*
X114714285Y-108954761D01*
X114761904Y-108907142D01*
X114809523Y-108811904D01*
X114809523Y-108002380D01*
X115190476Y-108002380D02*
X115809523Y-108002380D01*
X115476190Y-108383333D01*
X115619047Y-108383333D01*
X115714285Y-108430952D01*
X115761904Y-108478571D01*
X115809523Y-108573809D01*
X115809523Y-108811904D01*
X115761904Y-108907142D01*
X115714285Y-108954761D01*
X115619047Y-109002380D01*
X115333333Y-109002380D01*
X115238095Y-108954761D01*
X115190476Y-108907142D01*
G04 #@! TO.C,R30*
X103202380Y-103642857D02*
X102726190Y-103976190D01*
X103202380Y-104214285D02*
X102202380Y-104214285D01*
X102202380Y-103833333D01*
X102250000Y-103738095D01*
X102297619Y-103690476D01*
X102392857Y-103642857D01*
X102535714Y-103642857D01*
X102630952Y-103690476D01*
X102678571Y-103738095D01*
X102726190Y-103833333D01*
X102726190Y-104214285D01*
X102202380Y-103309523D02*
X102202380Y-102690476D01*
X102583333Y-103023809D01*
X102583333Y-102880952D01*
X102630952Y-102785714D01*
X102678571Y-102738095D01*
X102773809Y-102690476D01*
X103011904Y-102690476D01*
X103107142Y-102738095D01*
X103154761Y-102785714D01*
X103202380Y-102880952D01*
X103202380Y-103166666D01*
X103154761Y-103261904D01*
X103107142Y-103309523D01*
X102202380Y-102071428D02*
X102202380Y-101976190D01*
X102250000Y-101880952D01*
X102297619Y-101833333D01*
X102392857Y-101785714D01*
X102583333Y-101738095D01*
X102821428Y-101738095D01*
X103011904Y-101785714D01*
X103107142Y-101833333D01*
X103154761Y-101880952D01*
X103202380Y-101976190D01*
X103202380Y-102071428D01*
X103154761Y-102166666D01*
X103107142Y-102214285D01*
X103011904Y-102261904D01*
X102821428Y-102309523D01*
X102583333Y-102309523D01*
X102392857Y-102261904D01*
X102297619Y-102214285D01*
X102250000Y-102166666D01*
X102202380Y-102071428D01*
G04 #@! TO.C,R25*
X109657142Y-110952380D02*
X109323809Y-110476190D01*
X109085714Y-110952380D02*
X109085714Y-109952380D01*
X109466666Y-109952380D01*
X109561904Y-110000000D01*
X109609523Y-110047619D01*
X109657142Y-110142857D01*
X109657142Y-110285714D01*
X109609523Y-110380952D01*
X109561904Y-110428571D01*
X109466666Y-110476190D01*
X109085714Y-110476190D01*
X110038095Y-110047619D02*
X110085714Y-110000000D01*
X110180952Y-109952380D01*
X110419047Y-109952380D01*
X110514285Y-110000000D01*
X110561904Y-110047619D01*
X110609523Y-110142857D01*
X110609523Y-110238095D01*
X110561904Y-110380952D01*
X109990476Y-110952380D01*
X110609523Y-110952380D01*
X111514285Y-109952380D02*
X111038095Y-109952380D01*
X110990476Y-110428571D01*
X111038095Y-110380952D01*
X111133333Y-110333333D01*
X111371428Y-110333333D01*
X111466666Y-110380952D01*
X111514285Y-110428571D01*
X111561904Y-110523809D01*
X111561904Y-110761904D01*
X111514285Y-110857142D01*
X111466666Y-110904761D01*
X111371428Y-110952380D01*
X111133333Y-110952380D01*
X111038095Y-110904761D01*
X110990476Y-110857142D01*
G04 #@! TO.C,R22*
X106357142Y-105252380D02*
X106023809Y-104776190D01*
X105785714Y-105252380D02*
X105785714Y-104252380D01*
X106166666Y-104252380D01*
X106261904Y-104300000D01*
X106309523Y-104347619D01*
X106357142Y-104442857D01*
X106357142Y-104585714D01*
X106309523Y-104680952D01*
X106261904Y-104728571D01*
X106166666Y-104776190D01*
X105785714Y-104776190D01*
X106738095Y-104347619D02*
X106785714Y-104300000D01*
X106880952Y-104252380D01*
X107119047Y-104252380D01*
X107214285Y-104300000D01*
X107261904Y-104347619D01*
X107309523Y-104442857D01*
X107309523Y-104538095D01*
X107261904Y-104680952D01*
X106690476Y-105252380D01*
X107309523Y-105252380D01*
X107690476Y-104347619D02*
X107738095Y-104300000D01*
X107833333Y-104252380D01*
X108071428Y-104252380D01*
X108166666Y-104300000D01*
X108214285Y-104347619D01*
X108261904Y-104442857D01*
X108261904Y-104538095D01*
X108214285Y-104680952D01*
X107642857Y-105252380D01*
X108261904Y-105252380D01*
G04 #@! TO.C,R21*
X106357142Y-106652380D02*
X106023809Y-106176190D01*
X105785714Y-106652380D02*
X105785714Y-105652380D01*
X106166666Y-105652380D01*
X106261904Y-105700000D01*
X106309523Y-105747619D01*
X106357142Y-105842857D01*
X106357142Y-105985714D01*
X106309523Y-106080952D01*
X106261904Y-106128571D01*
X106166666Y-106176190D01*
X105785714Y-106176190D01*
X106738095Y-105747619D02*
X106785714Y-105700000D01*
X106880952Y-105652380D01*
X107119047Y-105652380D01*
X107214285Y-105700000D01*
X107261904Y-105747619D01*
X107309523Y-105842857D01*
X107309523Y-105938095D01*
X107261904Y-106080952D01*
X106690476Y-106652380D01*
X107309523Y-106652380D01*
X108261904Y-106652380D02*
X107690476Y-106652380D01*
X107976190Y-106652380D02*
X107976190Y-105652380D01*
X107880952Y-105795238D01*
X107785714Y-105890476D01*
X107690476Y-105938095D01*
G04 #@! TO.C,C5*
X107533333Y-102492142D02*
X107485714Y-102539761D01*
X107342857Y-102587380D01*
X107247619Y-102587380D01*
X107104761Y-102539761D01*
X107009523Y-102444523D01*
X106961904Y-102349285D01*
X106914285Y-102158809D01*
X106914285Y-102015952D01*
X106961904Y-101825476D01*
X107009523Y-101730238D01*
X107104761Y-101635000D01*
X107247619Y-101587380D01*
X107342857Y-101587380D01*
X107485714Y-101635000D01*
X107533333Y-101682619D01*
X108438095Y-101587380D02*
X107961904Y-101587380D01*
X107914285Y-102063571D01*
X107961904Y-102015952D01*
X108057142Y-101968333D01*
X108295238Y-101968333D01*
X108390476Y-102015952D01*
X108438095Y-102063571D01*
X108485714Y-102158809D01*
X108485714Y-102396904D01*
X108438095Y-102492142D01*
X108390476Y-102539761D01*
X108295238Y-102587380D01*
X108057142Y-102587380D01*
X107961904Y-102539761D01*
X107914285Y-102492142D01*
G04 #@! TO.C,C4*
X109733333Y-107457142D02*
X109685714Y-107504761D01*
X109542857Y-107552380D01*
X109447619Y-107552380D01*
X109304761Y-107504761D01*
X109209523Y-107409523D01*
X109161904Y-107314285D01*
X109114285Y-107123809D01*
X109114285Y-106980952D01*
X109161904Y-106790476D01*
X109209523Y-106695238D01*
X109304761Y-106600000D01*
X109447619Y-106552380D01*
X109542857Y-106552380D01*
X109685714Y-106600000D01*
X109733333Y-106647619D01*
X110590476Y-106885714D02*
X110590476Y-107552380D01*
X110352380Y-106504761D02*
X110114285Y-107219047D01*
X110733333Y-107219047D01*
G04 #@! TO.C,R27*
X85057142Y-97752380D02*
X84723809Y-97276190D01*
X84485714Y-97752380D02*
X84485714Y-96752380D01*
X84866666Y-96752380D01*
X84961904Y-96800000D01*
X85009523Y-96847619D01*
X85057142Y-96942857D01*
X85057142Y-97085714D01*
X85009523Y-97180952D01*
X84961904Y-97228571D01*
X84866666Y-97276190D01*
X84485714Y-97276190D01*
X85438095Y-96847619D02*
X85485714Y-96800000D01*
X85580952Y-96752380D01*
X85819047Y-96752380D01*
X85914285Y-96800000D01*
X85961904Y-96847619D01*
X86009523Y-96942857D01*
X86009523Y-97038095D01*
X85961904Y-97180952D01*
X85390476Y-97752380D01*
X86009523Y-97752380D01*
X86342857Y-96752380D02*
X87009523Y-96752380D01*
X86580952Y-97752380D01*
G04 #@! TO.C,R29*
X89107142Y-105152380D02*
X88773809Y-104676190D01*
X88535714Y-105152380D02*
X88535714Y-104152380D01*
X88916666Y-104152380D01*
X89011904Y-104200000D01*
X89059523Y-104247619D01*
X89107142Y-104342857D01*
X89107142Y-104485714D01*
X89059523Y-104580952D01*
X89011904Y-104628571D01*
X88916666Y-104676190D01*
X88535714Y-104676190D01*
X89488095Y-104247619D02*
X89535714Y-104200000D01*
X89630952Y-104152380D01*
X89869047Y-104152380D01*
X89964285Y-104200000D01*
X90011904Y-104247619D01*
X90059523Y-104342857D01*
X90059523Y-104438095D01*
X90011904Y-104580952D01*
X89440476Y-105152380D01*
X90059523Y-105152380D01*
X90535714Y-105152380D02*
X90726190Y-105152380D01*
X90821428Y-105104761D01*
X90869047Y-105057142D01*
X90964285Y-104914285D01*
X91011904Y-104723809D01*
X91011904Y-104342857D01*
X90964285Y-104247619D01*
X90916666Y-104200000D01*
X90821428Y-104152380D01*
X90630952Y-104152380D01*
X90535714Y-104200000D01*
X90488095Y-104247619D01*
X90440476Y-104342857D01*
X90440476Y-104580952D01*
X90488095Y-104676190D01*
X90535714Y-104723809D01*
X90630952Y-104771428D01*
X90821428Y-104771428D01*
X90916666Y-104723809D01*
X90964285Y-104676190D01*
X91011904Y-104580952D01*
G04 #@! TO.C,U12*
X91011904Y-99202380D02*
X91011904Y-100011904D01*
X91059523Y-100107142D01*
X91107142Y-100154761D01*
X91202380Y-100202380D01*
X91392857Y-100202380D01*
X91488095Y-100154761D01*
X91535714Y-100107142D01*
X91583333Y-100011904D01*
X91583333Y-99202380D01*
X92583333Y-100202380D02*
X92011904Y-100202380D01*
X92297619Y-100202380D02*
X92297619Y-99202380D01*
X92202380Y-99345238D01*
X92107142Y-99440476D01*
X92011904Y-99488095D01*
X92964285Y-99297619D02*
X93011904Y-99250000D01*
X93107142Y-99202380D01*
X93345238Y-99202380D01*
X93440476Y-99250000D01*
X93488095Y-99297619D01*
X93535714Y-99392857D01*
X93535714Y-99488095D01*
X93488095Y-99630952D01*
X92916666Y-100202380D01*
X93535714Y-100202380D01*
G04 #@! TO.C,U11*
X92011904Y-100952380D02*
X92011904Y-101761904D01*
X92059523Y-101857142D01*
X92107142Y-101904761D01*
X92202380Y-101952380D01*
X92392857Y-101952380D01*
X92488095Y-101904761D01*
X92535714Y-101857142D01*
X92583333Y-101761904D01*
X92583333Y-100952380D01*
X93583333Y-101952380D02*
X93011904Y-101952380D01*
X93297619Y-101952380D02*
X93297619Y-100952380D01*
X93202380Y-101095238D01*
X93107142Y-101190476D01*
X93011904Y-101238095D01*
X94535714Y-101952380D02*
X93964285Y-101952380D01*
X94250000Y-101952380D02*
X94250000Y-100952380D01*
X94154761Y-101095238D01*
X94059523Y-101190476D01*
X93964285Y-101238095D01*
G04 #@! TO.C,R28*
X95607142Y-95952380D02*
X95273809Y-95476190D01*
X95035714Y-95952380D02*
X95035714Y-94952380D01*
X95416666Y-94952380D01*
X95511904Y-95000000D01*
X95559523Y-95047619D01*
X95607142Y-95142857D01*
X95607142Y-95285714D01*
X95559523Y-95380952D01*
X95511904Y-95428571D01*
X95416666Y-95476190D01*
X95035714Y-95476190D01*
X95988095Y-95047619D02*
X96035714Y-95000000D01*
X96130952Y-94952380D01*
X96369047Y-94952380D01*
X96464285Y-95000000D01*
X96511904Y-95047619D01*
X96559523Y-95142857D01*
X96559523Y-95238095D01*
X96511904Y-95380952D01*
X95940476Y-95952380D01*
X96559523Y-95952380D01*
X97130952Y-95380952D02*
X97035714Y-95333333D01*
X96988095Y-95285714D01*
X96940476Y-95190476D01*
X96940476Y-95142857D01*
X96988095Y-95047619D01*
X97035714Y-95000000D01*
X97130952Y-94952380D01*
X97321428Y-94952380D01*
X97416666Y-95000000D01*
X97464285Y-95047619D01*
X97511904Y-95142857D01*
X97511904Y-95190476D01*
X97464285Y-95285714D01*
X97416666Y-95333333D01*
X97321428Y-95380952D01*
X97130952Y-95380952D01*
X97035714Y-95428571D01*
X96988095Y-95476190D01*
X96940476Y-95571428D01*
X96940476Y-95761904D01*
X96988095Y-95857142D01*
X97035714Y-95904761D01*
X97130952Y-95952380D01*
X97321428Y-95952380D01*
X97416666Y-95904761D01*
X97464285Y-95857142D01*
X97511904Y-95761904D01*
X97511904Y-95571428D01*
X97464285Y-95476190D01*
X97416666Y-95428571D01*
X97321428Y-95380952D01*
G04 #@! TO.C,R26*
X102107142Y-101702380D02*
X101773809Y-101226190D01*
X101535714Y-101702380D02*
X101535714Y-100702380D01*
X101916666Y-100702380D01*
X102011904Y-100750000D01*
X102059523Y-100797619D01*
X102107142Y-100892857D01*
X102107142Y-101035714D01*
X102059523Y-101130952D01*
X102011904Y-101178571D01*
X101916666Y-101226190D01*
X101535714Y-101226190D01*
X102488095Y-100797619D02*
X102535714Y-100750000D01*
X102630952Y-100702380D01*
X102869047Y-100702380D01*
X102964285Y-100750000D01*
X103011904Y-100797619D01*
X103059523Y-100892857D01*
X103059523Y-100988095D01*
X103011904Y-101130952D01*
X102440476Y-101702380D01*
X103059523Y-101702380D01*
X103916666Y-100702380D02*
X103726190Y-100702380D01*
X103630952Y-100750000D01*
X103583333Y-100797619D01*
X103488095Y-100940476D01*
X103440476Y-101130952D01*
X103440476Y-101511904D01*
X103488095Y-101607142D01*
X103535714Y-101654761D01*
X103630952Y-101702380D01*
X103821428Y-101702380D01*
X103916666Y-101654761D01*
X103964285Y-101607142D01*
X104011904Y-101511904D01*
X104011904Y-101273809D01*
X103964285Y-101178571D01*
X103916666Y-101130952D01*
X103821428Y-101083333D01*
X103630952Y-101083333D01*
X103535714Y-101130952D01*
X103488095Y-101178571D01*
X103440476Y-101273809D01*
G04 #@! TO.C,R24*
X99357142Y-95952380D02*
X99023809Y-95476190D01*
X98785714Y-95952380D02*
X98785714Y-94952380D01*
X99166666Y-94952380D01*
X99261904Y-95000000D01*
X99309523Y-95047619D01*
X99357142Y-95142857D01*
X99357142Y-95285714D01*
X99309523Y-95380952D01*
X99261904Y-95428571D01*
X99166666Y-95476190D01*
X98785714Y-95476190D01*
X99738095Y-95047619D02*
X99785714Y-95000000D01*
X99880952Y-94952380D01*
X100119047Y-94952380D01*
X100214285Y-95000000D01*
X100261904Y-95047619D01*
X100309523Y-95142857D01*
X100309523Y-95238095D01*
X100261904Y-95380952D01*
X99690476Y-95952380D01*
X100309523Y-95952380D01*
X101166666Y-95285714D02*
X101166666Y-95952380D01*
X100928571Y-94904761D02*
X100690476Y-95619047D01*
X101309523Y-95619047D01*
G04 #@! TO.C,R23*
X102107142Y-99952380D02*
X101773809Y-99476190D01*
X101535714Y-99952380D02*
X101535714Y-98952380D01*
X101916666Y-98952380D01*
X102011904Y-99000000D01*
X102059523Y-99047619D01*
X102107142Y-99142857D01*
X102107142Y-99285714D01*
X102059523Y-99380952D01*
X102011904Y-99428571D01*
X101916666Y-99476190D01*
X101535714Y-99476190D01*
X102488095Y-99047619D02*
X102535714Y-99000000D01*
X102630952Y-98952380D01*
X102869047Y-98952380D01*
X102964285Y-99000000D01*
X103011904Y-99047619D01*
X103059523Y-99142857D01*
X103059523Y-99238095D01*
X103011904Y-99380952D01*
X102440476Y-99952380D01*
X103059523Y-99952380D01*
X103392857Y-98952380D02*
X104011904Y-98952380D01*
X103678571Y-99333333D01*
X103821428Y-99333333D01*
X103916666Y-99380952D01*
X103964285Y-99428571D01*
X104011904Y-99523809D01*
X104011904Y-99761904D01*
X103964285Y-99857142D01*
X103916666Y-99904761D01*
X103821428Y-99952380D01*
X103535714Y-99952380D01*
X103440476Y-99904761D01*
X103392857Y-99857142D01*
G04 #@! TO.C,R20*
X85607142Y-105152380D02*
X85273809Y-104676190D01*
X85035714Y-105152380D02*
X85035714Y-104152380D01*
X85416666Y-104152380D01*
X85511904Y-104200000D01*
X85559523Y-104247619D01*
X85607142Y-104342857D01*
X85607142Y-104485714D01*
X85559523Y-104580952D01*
X85511904Y-104628571D01*
X85416666Y-104676190D01*
X85035714Y-104676190D01*
X85988095Y-104247619D02*
X86035714Y-104200000D01*
X86130952Y-104152380D01*
X86369047Y-104152380D01*
X86464285Y-104200000D01*
X86511904Y-104247619D01*
X86559523Y-104342857D01*
X86559523Y-104438095D01*
X86511904Y-104580952D01*
X85940476Y-105152380D01*
X86559523Y-105152380D01*
X87178571Y-104152380D02*
X87273809Y-104152380D01*
X87369047Y-104200000D01*
X87416666Y-104247619D01*
X87464285Y-104342857D01*
X87511904Y-104533333D01*
X87511904Y-104771428D01*
X87464285Y-104961904D01*
X87416666Y-105057142D01*
X87369047Y-105104761D01*
X87273809Y-105152380D01*
X87178571Y-105152380D01*
X87083333Y-105104761D01*
X87035714Y-105057142D01*
X86988095Y-104961904D01*
X86940476Y-104771428D01*
X86940476Y-104533333D01*
X86988095Y-104342857D01*
X87035714Y-104247619D01*
X87083333Y-104200000D01*
X87178571Y-104152380D01*
G04 #@! TO.C,R19*
X81757142Y-99952380D02*
X81423809Y-99476190D01*
X81185714Y-99952380D02*
X81185714Y-98952380D01*
X81566666Y-98952380D01*
X81661904Y-99000000D01*
X81709523Y-99047619D01*
X81757142Y-99142857D01*
X81757142Y-99285714D01*
X81709523Y-99380952D01*
X81661904Y-99428571D01*
X81566666Y-99476190D01*
X81185714Y-99476190D01*
X82709523Y-99952380D02*
X82138095Y-99952380D01*
X82423809Y-99952380D02*
X82423809Y-98952380D01*
X82328571Y-99095238D01*
X82233333Y-99190476D01*
X82138095Y-99238095D01*
X83185714Y-99952380D02*
X83376190Y-99952380D01*
X83471428Y-99904761D01*
X83519047Y-99857142D01*
X83614285Y-99714285D01*
X83661904Y-99523809D01*
X83661904Y-99142857D01*
X83614285Y-99047619D01*
X83566666Y-99000000D01*
X83471428Y-98952380D01*
X83280952Y-98952380D01*
X83185714Y-99000000D01*
X83138095Y-99047619D01*
X83090476Y-99142857D01*
X83090476Y-99380952D01*
X83138095Y-99476190D01*
X83185714Y-99523809D01*
X83280952Y-99571428D01*
X83471428Y-99571428D01*
X83566666Y-99523809D01*
X83614285Y-99476190D01*
X83661904Y-99380952D01*
G04 #@! TO.C,U10*
X83261904Y-115952380D02*
X83261904Y-116761904D01*
X83309523Y-116857142D01*
X83357142Y-116904761D01*
X83452380Y-116952380D01*
X83642857Y-116952380D01*
X83738095Y-116904761D01*
X83785714Y-116857142D01*
X83833333Y-116761904D01*
X83833333Y-115952380D01*
X84833333Y-116952380D02*
X84261904Y-116952380D01*
X84547619Y-116952380D02*
X84547619Y-115952380D01*
X84452380Y-116095238D01*
X84357142Y-116190476D01*
X84261904Y-116238095D01*
X85452380Y-115952380D02*
X85547619Y-115952380D01*
X85642857Y-116000000D01*
X85690476Y-116047619D01*
X85738095Y-116142857D01*
X85785714Y-116333333D01*
X85785714Y-116571428D01*
X85738095Y-116761904D01*
X85690476Y-116857142D01*
X85642857Y-116904761D01*
X85547619Y-116952380D01*
X85452380Y-116952380D01*
X85357142Y-116904761D01*
X85309523Y-116857142D01*
X85261904Y-116761904D01*
X85214285Y-116571428D01*
X85214285Y-116333333D01*
X85261904Y-116142857D01*
X85309523Y-116047619D01*
X85357142Y-116000000D01*
X85452380Y-115952380D01*
G04 #@! TO.C,U9*
X83238095Y-107452380D02*
X83238095Y-108261904D01*
X83285714Y-108357142D01*
X83333333Y-108404761D01*
X83428571Y-108452380D01*
X83619047Y-108452380D01*
X83714285Y-108404761D01*
X83761904Y-108357142D01*
X83809523Y-108261904D01*
X83809523Y-107452380D01*
X84333333Y-108452380D02*
X84523809Y-108452380D01*
X84619047Y-108404761D01*
X84666666Y-108357142D01*
X84761904Y-108214285D01*
X84809523Y-108023809D01*
X84809523Y-107642857D01*
X84761904Y-107547619D01*
X84714285Y-107500000D01*
X84619047Y-107452380D01*
X84428571Y-107452380D01*
X84333333Y-107500000D01*
X84285714Y-107547619D01*
X84238095Y-107642857D01*
X84238095Y-107880952D01*
X84285714Y-107976190D01*
X84333333Y-108023809D01*
X84428571Y-108071428D01*
X84619047Y-108071428D01*
X84714285Y-108023809D01*
X84761904Y-107976190D01*
X84809523Y-107880952D01*
G04 #@! TO.C,U8*
X97238095Y-114952380D02*
X97238095Y-115761904D01*
X97285714Y-115857142D01*
X97333333Y-115904761D01*
X97428571Y-115952380D01*
X97619047Y-115952380D01*
X97714285Y-115904761D01*
X97761904Y-115857142D01*
X97809523Y-115761904D01*
X97809523Y-114952380D01*
X98428571Y-115380952D02*
X98333333Y-115333333D01*
X98285714Y-115285714D01*
X98238095Y-115190476D01*
X98238095Y-115142857D01*
X98285714Y-115047619D01*
X98333333Y-115000000D01*
X98428571Y-114952380D01*
X98619047Y-114952380D01*
X98714285Y-115000000D01*
X98761904Y-115047619D01*
X98809523Y-115142857D01*
X98809523Y-115190476D01*
X98761904Y-115285714D01*
X98714285Y-115333333D01*
X98619047Y-115380952D01*
X98428571Y-115380952D01*
X98333333Y-115428571D01*
X98285714Y-115476190D01*
X98238095Y-115571428D01*
X98238095Y-115761904D01*
X98285714Y-115857142D01*
X98333333Y-115904761D01*
X98428571Y-115952380D01*
X98619047Y-115952380D01*
X98714285Y-115904761D01*
X98761904Y-115857142D01*
X98809523Y-115761904D01*
X98809523Y-115571428D01*
X98761904Y-115476190D01*
X98714285Y-115428571D01*
X98619047Y-115380952D01*
G04 #@! TO.C,R18*
X83857142Y-118702380D02*
X83523809Y-118226190D01*
X83285714Y-118702380D02*
X83285714Y-117702380D01*
X83666666Y-117702380D01*
X83761904Y-117750000D01*
X83809523Y-117797619D01*
X83857142Y-117892857D01*
X83857142Y-118035714D01*
X83809523Y-118130952D01*
X83761904Y-118178571D01*
X83666666Y-118226190D01*
X83285714Y-118226190D01*
X84809523Y-118702380D02*
X84238095Y-118702380D01*
X84523809Y-118702380D02*
X84523809Y-117702380D01*
X84428571Y-117845238D01*
X84333333Y-117940476D01*
X84238095Y-117988095D01*
X85380952Y-118130952D02*
X85285714Y-118083333D01*
X85238095Y-118035714D01*
X85190476Y-117940476D01*
X85190476Y-117892857D01*
X85238095Y-117797619D01*
X85285714Y-117750000D01*
X85380952Y-117702380D01*
X85571428Y-117702380D01*
X85666666Y-117750000D01*
X85714285Y-117797619D01*
X85761904Y-117892857D01*
X85761904Y-117940476D01*
X85714285Y-118035714D01*
X85666666Y-118083333D01*
X85571428Y-118130952D01*
X85380952Y-118130952D01*
X85285714Y-118178571D01*
X85238095Y-118226190D01*
X85190476Y-118321428D01*
X85190476Y-118511904D01*
X85238095Y-118607142D01*
X85285714Y-118654761D01*
X85380952Y-118702380D01*
X85571428Y-118702380D01*
X85666666Y-118654761D01*
X85714285Y-118607142D01*
X85761904Y-118511904D01*
X85761904Y-118321428D01*
X85714285Y-118226190D01*
X85666666Y-118178571D01*
X85571428Y-118130952D01*
G04 #@! TO.C,R17*
X80857142Y-110682380D02*
X80523809Y-110206190D01*
X80285714Y-110682380D02*
X80285714Y-109682380D01*
X80666666Y-109682380D01*
X80761904Y-109730000D01*
X80809523Y-109777619D01*
X80857142Y-109872857D01*
X80857142Y-110015714D01*
X80809523Y-110110952D01*
X80761904Y-110158571D01*
X80666666Y-110206190D01*
X80285714Y-110206190D01*
X81809523Y-110682380D02*
X81238095Y-110682380D01*
X81523809Y-110682380D02*
X81523809Y-109682380D01*
X81428571Y-109825238D01*
X81333333Y-109920476D01*
X81238095Y-109968095D01*
X82142857Y-109682380D02*
X82809523Y-109682380D01*
X82380952Y-110682380D01*
G04 #@! TO.C,R16*
X96857142Y-113202380D02*
X96523809Y-112726190D01*
X96285714Y-113202380D02*
X96285714Y-112202380D01*
X96666666Y-112202380D01*
X96761904Y-112250000D01*
X96809523Y-112297619D01*
X96857142Y-112392857D01*
X96857142Y-112535714D01*
X96809523Y-112630952D01*
X96761904Y-112678571D01*
X96666666Y-112726190D01*
X96285714Y-112726190D01*
X97809523Y-113202380D02*
X97238095Y-113202380D01*
X97523809Y-113202380D02*
X97523809Y-112202380D01*
X97428571Y-112345238D01*
X97333333Y-112440476D01*
X97238095Y-112488095D01*
X98666666Y-112202380D02*
X98476190Y-112202380D01*
X98380952Y-112250000D01*
X98333333Y-112297619D01*
X98238095Y-112440476D01*
X98190476Y-112630952D01*
X98190476Y-113011904D01*
X98238095Y-113107142D01*
X98285714Y-113154761D01*
X98380952Y-113202380D01*
X98571428Y-113202380D01*
X98666666Y-113154761D01*
X98714285Y-113107142D01*
X98761904Y-113011904D01*
X98761904Y-112773809D01*
X98714285Y-112678571D01*
X98666666Y-112630952D01*
X98571428Y-112583333D01*
X98380952Y-112583333D01*
X98285714Y-112630952D01*
X98238095Y-112678571D01*
X98190476Y-112773809D01*
G04 #@! TO.C,R15*
X80794642Y-112077380D02*
X80461309Y-111601190D01*
X80223214Y-112077380D02*
X80223214Y-111077380D01*
X80604166Y-111077380D01*
X80699404Y-111125000D01*
X80747023Y-111172619D01*
X80794642Y-111267857D01*
X80794642Y-111410714D01*
X80747023Y-111505952D01*
X80699404Y-111553571D01*
X80604166Y-111601190D01*
X80223214Y-111601190D01*
X81747023Y-112077380D02*
X81175595Y-112077380D01*
X81461309Y-112077380D02*
X81461309Y-111077380D01*
X81366071Y-111220238D01*
X81270833Y-111315476D01*
X81175595Y-111363095D01*
X82651785Y-111077380D02*
X82175595Y-111077380D01*
X82127976Y-111553571D01*
X82175595Y-111505952D01*
X82270833Y-111458333D01*
X82508928Y-111458333D01*
X82604166Y-111505952D01*
X82651785Y-111553571D01*
X82699404Y-111648809D01*
X82699404Y-111886904D01*
X82651785Y-111982142D01*
X82604166Y-112029761D01*
X82508928Y-112077380D01*
X82270833Y-112077380D01*
X82175595Y-112029761D01*
X82127976Y-111982142D01*
G04 #@! TO.C,R14*
X78857142Y-101952380D02*
X78523809Y-101476190D01*
X78285714Y-101952380D02*
X78285714Y-100952380D01*
X78666666Y-100952380D01*
X78761904Y-101000000D01*
X78809523Y-101047619D01*
X78857142Y-101142857D01*
X78857142Y-101285714D01*
X78809523Y-101380952D01*
X78761904Y-101428571D01*
X78666666Y-101476190D01*
X78285714Y-101476190D01*
X79809523Y-101952380D02*
X79238095Y-101952380D01*
X79523809Y-101952380D02*
X79523809Y-100952380D01*
X79428571Y-101095238D01*
X79333333Y-101190476D01*
X79238095Y-101238095D01*
X80666666Y-101285714D02*
X80666666Y-101952380D01*
X80428571Y-100904761D02*
X80190476Y-101619047D01*
X80809523Y-101619047D01*
G04 #@! TO.C,R13*
X103107142Y-119702380D02*
X102773809Y-119226190D01*
X102535714Y-119702380D02*
X102535714Y-118702380D01*
X102916666Y-118702380D01*
X103011904Y-118750000D01*
X103059523Y-118797619D01*
X103107142Y-118892857D01*
X103107142Y-119035714D01*
X103059523Y-119130952D01*
X103011904Y-119178571D01*
X102916666Y-119226190D01*
X102535714Y-119226190D01*
X104059523Y-119702380D02*
X103488095Y-119702380D01*
X103773809Y-119702380D02*
X103773809Y-118702380D01*
X103678571Y-118845238D01*
X103583333Y-118940476D01*
X103488095Y-118988095D01*
X104392857Y-118702380D02*
X105011904Y-118702380D01*
X104678571Y-119083333D01*
X104821428Y-119083333D01*
X104916666Y-119130952D01*
X104964285Y-119178571D01*
X105011904Y-119273809D01*
X105011904Y-119511904D01*
X104964285Y-119607142D01*
X104916666Y-119654761D01*
X104821428Y-119702380D01*
X104535714Y-119702380D01*
X104440476Y-119654761D01*
X104392857Y-119607142D01*
G04 #@! TO.C,R12*
X77307142Y-118852380D02*
X76973809Y-118376190D01*
X76735714Y-118852380D02*
X76735714Y-117852380D01*
X77116666Y-117852380D01*
X77211904Y-117900000D01*
X77259523Y-117947619D01*
X77307142Y-118042857D01*
X77307142Y-118185714D01*
X77259523Y-118280952D01*
X77211904Y-118328571D01*
X77116666Y-118376190D01*
X76735714Y-118376190D01*
X78259523Y-118852380D02*
X77688095Y-118852380D01*
X77973809Y-118852380D02*
X77973809Y-117852380D01*
X77878571Y-117995238D01*
X77783333Y-118090476D01*
X77688095Y-118138095D01*
X78640476Y-117947619D02*
X78688095Y-117900000D01*
X78783333Y-117852380D01*
X79021428Y-117852380D01*
X79116666Y-117900000D01*
X79164285Y-117947619D01*
X79211904Y-118042857D01*
X79211904Y-118138095D01*
X79164285Y-118280952D01*
X78592857Y-118852380D01*
X79211904Y-118852380D01*
G04 #@! TO.C,R11*
X77157142Y-113852380D02*
X76823809Y-113376190D01*
X76585714Y-113852380D02*
X76585714Y-112852380D01*
X76966666Y-112852380D01*
X77061904Y-112900000D01*
X77109523Y-112947619D01*
X77157142Y-113042857D01*
X77157142Y-113185714D01*
X77109523Y-113280952D01*
X77061904Y-113328571D01*
X76966666Y-113376190D01*
X76585714Y-113376190D01*
X78109523Y-113852380D02*
X77538095Y-113852380D01*
X77823809Y-113852380D02*
X77823809Y-112852380D01*
X77728571Y-112995238D01*
X77633333Y-113090476D01*
X77538095Y-113138095D01*
X79061904Y-113852380D02*
X78490476Y-113852380D01*
X78776190Y-113852380D02*
X78776190Y-112852380D01*
X78680952Y-112995238D01*
X78585714Y-113090476D01*
X78490476Y-113138095D01*
G04 #@! TO.C,R10*
X76957142Y-109382380D02*
X76623809Y-108906190D01*
X76385714Y-109382380D02*
X76385714Y-108382380D01*
X76766666Y-108382380D01*
X76861904Y-108430000D01*
X76909523Y-108477619D01*
X76957142Y-108572857D01*
X76957142Y-108715714D01*
X76909523Y-108810952D01*
X76861904Y-108858571D01*
X76766666Y-108906190D01*
X76385714Y-108906190D01*
X77909523Y-109382380D02*
X77338095Y-109382380D01*
X77623809Y-109382380D02*
X77623809Y-108382380D01*
X77528571Y-108525238D01*
X77433333Y-108620476D01*
X77338095Y-108668095D01*
X78528571Y-108382380D02*
X78623809Y-108382380D01*
X78719047Y-108430000D01*
X78766666Y-108477619D01*
X78814285Y-108572857D01*
X78861904Y-108763333D01*
X78861904Y-109001428D01*
X78814285Y-109191904D01*
X78766666Y-109287142D01*
X78719047Y-109334761D01*
X78623809Y-109382380D01*
X78528571Y-109382380D01*
X78433333Y-109334761D01*
X78385714Y-109287142D01*
X78338095Y-109191904D01*
X78290476Y-109001428D01*
X78290476Y-108763333D01*
X78338095Y-108572857D01*
X78385714Y-108477619D01*
X78433333Y-108430000D01*
X78528571Y-108382380D01*
G04 #@! TO.C,R9*
X75233333Y-106852380D02*
X74900000Y-106376190D01*
X74661904Y-106852380D02*
X74661904Y-105852380D01*
X75042857Y-105852380D01*
X75138095Y-105900000D01*
X75185714Y-105947619D01*
X75233333Y-106042857D01*
X75233333Y-106185714D01*
X75185714Y-106280952D01*
X75138095Y-106328571D01*
X75042857Y-106376190D01*
X74661904Y-106376190D01*
X75709523Y-106852380D02*
X75900000Y-106852380D01*
X75995238Y-106804761D01*
X76042857Y-106757142D01*
X76138095Y-106614285D01*
X76185714Y-106423809D01*
X76185714Y-106042857D01*
X76138095Y-105947619D01*
X76090476Y-105900000D01*
X75995238Y-105852380D01*
X75804761Y-105852380D01*
X75709523Y-105900000D01*
X75661904Y-105947619D01*
X75614285Y-106042857D01*
X75614285Y-106280952D01*
X75661904Y-106376190D01*
X75709523Y-106423809D01*
X75804761Y-106471428D01*
X75995238Y-106471428D01*
X76090476Y-106423809D01*
X76138095Y-106376190D01*
X76185714Y-106280952D01*
G04 #@! TO.C,R8*
X103333333Y-113202380D02*
X103000000Y-112726190D01*
X102761904Y-113202380D02*
X102761904Y-112202380D01*
X103142857Y-112202380D01*
X103238095Y-112250000D01*
X103285714Y-112297619D01*
X103333333Y-112392857D01*
X103333333Y-112535714D01*
X103285714Y-112630952D01*
X103238095Y-112678571D01*
X103142857Y-112726190D01*
X102761904Y-112726190D01*
X103904761Y-112630952D02*
X103809523Y-112583333D01*
X103761904Y-112535714D01*
X103714285Y-112440476D01*
X103714285Y-112392857D01*
X103761904Y-112297619D01*
X103809523Y-112250000D01*
X103904761Y-112202380D01*
X104095238Y-112202380D01*
X104190476Y-112250000D01*
X104238095Y-112297619D01*
X104285714Y-112392857D01*
X104285714Y-112440476D01*
X104238095Y-112535714D01*
X104190476Y-112583333D01*
X104095238Y-112630952D01*
X103904761Y-112630952D01*
X103809523Y-112678571D01*
X103761904Y-112726190D01*
X103714285Y-112821428D01*
X103714285Y-113011904D01*
X103761904Y-113107142D01*
X103809523Y-113154761D01*
X103904761Y-113202380D01*
X104095238Y-113202380D01*
X104190476Y-113154761D01*
X104238095Y-113107142D01*
X104285714Y-113011904D01*
X104285714Y-112821428D01*
X104238095Y-112726190D01*
X104190476Y-112678571D01*
X104095238Y-112630952D01*
G04 #@! TO.C,R7*
X103333333Y-118202380D02*
X103000000Y-117726190D01*
X102761904Y-118202380D02*
X102761904Y-117202380D01*
X103142857Y-117202380D01*
X103238095Y-117250000D01*
X103285714Y-117297619D01*
X103333333Y-117392857D01*
X103333333Y-117535714D01*
X103285714Y-117630952D01*
X103238095Y-117678571D01*
X103142857Y-117726190D01*
X102761904Y-117726190D01*
X103666666Y-117202380D02*
X104333333Y-117202380D01*
X103904761Y-118202380D01*
G04 #@! TO.C,C37*
X109757142Y-119057142D02*
X109709523Y-119104761D01*
X109566666Y-119152380D01*
X109471428Y-119152380D01*
X109328571Y-119104761D01*
X109233333Y-119009523D01*
X109185714Y-118914285D01*
X109138095Y-118723809D01*
X109138095Y-118580952D01*
X109185714Y-118390476D01*
X109233333Y-118295238D01*
X109328571Y-118200000D01*
X109471428Y-118152380D01*
X109566666Y-118152380D01*
X109709523Y-118200000D01*
X109757142Y-118247619D01*
X110090476Y-118152380D02*
X110709523Y-118152380D01*
X110376190Y-118533333D01*
X110519047Y-118533333D01*
X110614285Y-118580952D01*
X110661904Y-118628571D01*
X110709523Y-118723809D01*
X110709523Y-118961904D01*
X110661904Y-119057142D01*
X110614285Y-119104761D01*
X110519047Y-119152380D01*
X110233333Y-119152380D01*
X110138095Y-119104761D01*
X110090476Y-119057142D01*
X111042857Y-118152380D02*
X111709523Y-118152380D01*
X111280952Y-119152380D01*
G04 #@! TO.C,C36*
X77157142Y-112427142D02*
X77109523Y-112474761D01*
X76966666Y-112522380D01*
X76871428Y-112522380D01*
X76728571Y-112474761D01*
X76633333Y-112379523D01*
X76585714Y-112284285D01*
X76538095Y-112093809D01*
X76538095Y-111950952D01*
X76585714Y-111760476D01*
X76633333Y-111665238D01*
X76728571Y-111570000D01*
X76871428Y-111522380D01*
X76966666Y-111522380D01*
X77109523Y-111570000D01*
X77157142Y-111617619D01*
X77490476Y-111522380D02*
X78109523Y-111522380D01*
X77776190Y-111903333D01*
X77919047Y-111903333D01*
X78014285Y-111950952D01*
X78061904Y-111998571D01*
X78109523Y-112093809D01*
X78109523Y-112331904D01*
X78061904Y-112427142D01*
X78014285Y-112474761D01*
X77919047Y-112522380D01*
X77633333Y-112522380D01*
X77538095Y-112474761D01*
X77490476Y-112427142D01*
X78966666Y-111522380D02*
X78776190Y-111522380D01*
X78680952Y-111570000D01*
X78633333Y-111617619D01*
X78538095Y-111760476D01*
X78490476Y-111950952D01*
X78490476Y-112331904D01*
X78538095Y-112427142D01*
X78585714Y-112474761D01*
X78680952Y-112522380D01*
X78871428Y-112522380D01*
X78966666Y-112474761D01*
X79014285Y-112427142D01*
X79061904Y-112331904D01*
X79061904Y-112093809D01*
X79014285Y-111998571D01*
X78966666Y-111950952D01*
X78871428Y-111903333D01*
X78680952Y-111903333D01*
X78585714Y-111950952D01*
X78538095Y-111998571D01*
X78490476Y-112093809D01*
G04 #@! TO.C,C35*
X74357142Y-105357142D02*
X74309523Y-105404761D01*
X74166666Y-105452380D01*
X74071428Y-105452380D01*
X73928571Y-105404761D01*
X73833333Y-105309523D01*
X73785714Y-105214285D01*
X73738095Y-105023809D01*
X73738095Y-104880952D01*
X73785714Y-104690476D01*
X73833333Y-104595238D01*
X73928571Y-104500000D01*
X74071428Y-104452380D01*
X74166666Y-104452380D01*
X74309523Y-104500000D01*
X74357142Y-104547619D01*
X74690476Y-104452380D02*
X75309523Y-104452380D01*
X74976190Y-104833333D01*
X75119047Y-104833333D01*
X75214285Y-104880952D01*
X75261904Y-104928571D01*
X75309523Y-105023809D01*
X75309523Y-105261904D01*
X75261904Y-105357142D01*
X75214285Y-105404761D01*
X75119047Y-105452380D01*
X74833333Y-105452380D01*
X74738095Y-105404761D01*
X74690476Y-105357142D01*
X76214285Y-104452380D02*
X75738095Y-104452380D01*
X75690476Y-104928571D01*
X75738095Y-104880952D01*
X75833333Y-104833333D01*
X76071428Y-104833333D01*
X76166666Y-104880952D01*
X76214285Y-104928571D01*
X76261904Y-105023809D01*
X76261904Y-105261904D01*
X76214285Y-105357142D01*
X76166666Y-105404761D01*
X76071428Y-105452380D01*
X75833333Y-105452380D01*
X75738095Y-105404761D01*
X75690476Y-105357142D01*
G04 #@! TO.C,C29*
X57157142Y-110957142D02*
X57109523Y-111004761D01*
X56966666Y-111052380D01*
X56871428Y-111052380D01*
X56728571Y-111004761D01*
X56633333Y-110909523D01*
X56585714Y-110814285D01*
X56538095Y-110623809D01*
X56538095Y-110480952D01*
X56585714Y-110290476D01*
X56633333Y-110195238D01*
X56728571Y-110100000D01*
X56871428Y-110052380D01*
X56966666Y-110052380D01*
X57109523Y-110100000D01*
X57157142Y-110147619D01*
X57538095Y-110147619D02*
X57585714Y-110100000D01*
X57680952Y-110052380D01*
X57919047Y-110052380D01*
X58014285Y-110100000D01*
X58061904Y-110147619D01*
X58109523Y-110242857D01*
X58109523Y-110338095D01*
X58061904Y-110480952D01*
X57490476Y-111052380D01*
X58109523Y-111052380D01*
X58585714Y-111052380D02*
X58776190Y-111052380D01*
X58871428Y-111004761D01*
X58919047Y-110957142D01*
X59014285Y-110814285D01*
X59061904Y-110623809D01*
X59061904Y-110242857D01*
X59014285Y-110147619D01*
X58966666Y-110100000D01*
X58871428Y-110052380D01*
X58680952Y-110052380D01*
X58585714Y-110100000D01*
X58538095Y-110147619D01*
X58490476Y-110242857D01*
X58490476Y-110480952D01*
X58538095Y-110576190D01*
X58585714Y-110623809D01*
X58680952Y-110671428D01*
X58871428Y-110671428D01*
X58966666Y-110623809D01*
X59014285Y-110576190D01*
X59061904Y-110480952D01*
G04 #@! TO.C,C28*
X63407142Y-96507142D02*
X63359523Y-96554761D01*
X63216666Y-96602380D01*
X63121428Y-96602380D01*
X62978571Y-96554761D01*
X62883333Y-96459523D01*
X62835714Y-96364285D01*
X62788095Y-96173809D01*
X62788095Y-96030952D01*
X62835714Y-95840476D01*
X62883333Y-95745238D01*
X62978571Y-95650000D01*
X63121428Y-95602380D01*
X63216666Y-95602380D01*
X63359523Y-95650000D01*
X63407142Y-95697619D01*
X63788095Y-95697619D02*
X63835714Y-95650000D01*
X63930952Y-95602380D01*
X64169047Y-95602380D01*
X64264285Y-95650000D01*
X64311904Y-95697619D01*
X64359523Y-95792857D01*
X64359523Y-95888095D01*
X64311904Y-96030952D01*
X63740476Y-96602380D01*
X64359523Y-96602380D01*
X64930952Y-96030952D02*
X64835714Y-95983333D01*
X64788095Y-95935714D01*
X64740476Y-95840476D01*
X64740476Y-95792857D01*
X64788095Y-95697619D01*
X64835714Y-95650000D01*
X64930952Y-95602380D01*
X65121428Y-95602380D01*
X65216666Y-95650000D01*
X65264285Y-95697619D01*
X65311904Y-95792857D01*
X65311904Y-95840476D01*
X65264285Y-95935714D01*
X65216666Y-95983333D01*
X65121428Y-96030952D01*
X64930952Y-96030952D01*
X64835714Y-96078571D01*
X64788095Y-96126190D01*
X64740476Y-96221428D01*
X64740476Y-96411904D01*
X64788095Y-96507142D01*
X64835714Y-96554761D01*
X64930952Y-96602380D01*
X65121428Y-96602380D01*
X65216666Y-96554761D01*
X65264285Y-96507142D01*
X65311904Y-96411904D01*
X65311904Y-96221428D01*
X65264285Y-96126190D01*
X65216666Y-96078571D01*
X65121428Y-96030952D01*
G04 #@! TO.C,C27*
X117851142Y-121857142D02*
X117803523Y-121904761D01*
X117660666Y-121952380D01*
X117565428Y-121952380D01*
X117422571Y-121904761D01*
X117327333Y-121809523D01*
X117279714Y-121714285D01*
X117232095Y-121523809D01*
X117232095Y-121380952D01*
X117279714Y-121190476D01*
X117327333Y-121095238D01*
X117422571Y-121000000D01*
X117565428Y-120952380D01*
X117660666Y-120952380D01*
X117803523Y-121000000D01*
X117851142Y-121047619D01*
X118232095Y-121047619D02*
X118279714Y-121000000D01*
X118374952Y-120952380D01*
X118613047Y-120952380D01*
X118708285Y-121000000D01*
X118755904Y-121047619D01*
X118803523Y-121142857D01*
X118803523Y-121238095D01*
X118755904Y-121380952D01*
X118184476Y-121952380D01*
X118803523Y-121952380D01*
X119136857Y-120952380D02*
X119803523Y-120952380D01*
X119374952Y-121952380D01*
G04 #@! TO.C,JP6*
X54906666Y-51837380D02*
X54906666Y-52551666D01*
X54859047Y-52694523D01*
X54763809Y-52789761D01*
X54620952Y-52837380D01*
X54525714Y-52837380D01*
X55382857Y-52837380D02*
X55382857Y-51837380D01*
X55763809Y-51837380D01*
X55859047Y-51885000D01*
X55906666Y-51932619D01*
X55954285Y-52027857D01*
X55954285Y-52170714D01*
X55906666Y-52265952D01*
X55859047Y-52313571D01*
X55763809Y-52361190D01*
X55382857Y-52361190D01*
X56811428Y-51837380D02*
X56620952Y-51837380D01*
X56525714Y-51885000D01*
X56478095Y-51932619D01*
X56382857Y-52075476D01*
X56335238Y-52265952D01*
X56335238Y-52646904D01*
X56382857Y-52742142D01*
X56430476Y-52789761D01*
X56525714Y-52837380D01*
X56716190Y-52837380D01*
X56811428Y-52789761D01*
X56859047Y-52742142D01*
X56906666Y-52646904D01*
X56906666Y-52408809D01*
X56859047Y-52313571D01*
X56811428Y-52265952D01*
X56716190Y-52218333D01*
X56525714Y-52218333D01*
X56430476Y-52265952D01*
X56382857Y-52313571D01*
X56335238Y-52408809D01*
G04 #@! TO.C,JP5*
X75906666Y-51837380D02*
X75906666Y-52551666D01*
X75859047Y-52694523D01*
X75763809Y-52789761D01*
X75620952Y-52837380D01*
X75525714Y-52837380D01*
X76382857Y-52837380D02*
X76382857Y-51837380D01*
X76763809Y-51837380D01*
X76859047Y-51885000D01*
X76906666Y-51932619D01*
X76954285Y-52027857D01*
X76954285Y-52170714D01*
X76906666Y-52265952D01*
X76859047Y-52313571D01*
X76763809Y-52361190D01*
X76382857Y-52361190D01*
X77859047Y-51837380D02*
X77382857Y-51837380D01*
X77335238Y-52313571D01*
X77382857Y-52265952D01*
X77478095Y-52218333D01*
X77716190Y-52218333D01*
X77811428Y-52265952D01*
X77859047Y-52313571D01*
X77906666Y-52408809D01*
X77906666Y-52646904D01*
X77859047Y-52742142D01*
X77811428Y-52789761D01*
X77716190Y-52837380D01*
X77478095Y-52837380D01*
X77382857Y-52789761D01*
X77335238Y-52742142D01*
G04 #@! TO.C,JP4*
X132916666Y-65452380D02*
X132916666Y-66166666D01*
X132869047Y-66309523D01*
X132773809Y-66404761D01*
X132630952Y-66452380D01*
X132535714Y-66452380D01*
X133392857Y-66452380D02*
X133392857Y-65452380D01*
X133773809Y-65452380D01*
X133869047Y-65500000D01*
X133916666Y-65547619D01*
X133964285Y-65642857D01*
X133964285Y-65785714D01*
X133916666Y-65880952D01*
X133869047Y-65928571D01*
X133773809Y-65976190D01*
X133392857Y-65976190D01*
X134821428Y-65785714D02*
X134821428Y-66452380D01*
X134583333Y-65404761D02*
X134345238Y-66119047D01*
X134964285Y-66119047D01*
G04 #@! TO.C,JP3*
X54706666Y-75737380D02*
X54706666Y-76451666D01*
X54659047Y-76594523D01*
X54563809Y-76689761D01*
X54420952Y-76737380D01*
X54325714Y-76737380D01*
X55182857Y-76737380D02*
X55182857Y-75737380D01*
X55563809Y-75737380D01*
X55659047Y-75785000D01*
X55706666Y-75832619D01*
X55754285Y-75927857D01*
X55754285Y-76070714D01*
X55706666Y-76165952D01*
X55659047Y-76213571D01*
X55563809Y-76261190D01*
X55182857Y-76261190D01*
X56087619Y-75737380D02*
X56706666Y-75737380D01*
X56373333Y-76118333D01*
X56516190Y-76118333D01*
X56611428Y-76165952D01*
X56659047Y-76213571D01*
X56706666Y-76308809D01*
X56706666Y-76546904D01*
X56659047Y-76642142D01*
X56611428Y-76689761D01*
X56516190Y-76737380D01*
X56230476Y-76737380D01*
X56135238Y-76689761D01*
X56087619Y-76642142D01*
G04 #@! TO.C,JP2*
X110166666Y-51702380D02*
X110166666Y-52416666D01*
X110119047Y-52559523D01*
X110023809Y-52654761D01*
X109880952Y-52702380D01*
X109785714Y-52702380D01*
X110642857Y-52702380D02*
X110642857Y-51702380D01*
X111023809Y-51702380D01*
X111119047Y-51750000D01*
X111166666Y-51797619D01*
X111214285Y-51892857D01*
X111214285Y-52035714D01*
X111166666Y-52130952D01*
X111119047Y-52178571D01*
X111023809Y-52226190D01*
X110642857Y-52226190D01*
X111595238Y-51797619D02*
X111642857Y-51750000D01*
X111738095Y-51702380D01*
X111976190Y-51702380D01*
X112071428Y-51750000D01*
X112119047Y-51797619D01*
X112166666Y-51892857D01*
X112166666Y-51988095D01*
X112119047Y-52130952D01*
X111547619Y-52702380D01*
X112166666Y-52702380D01*
G04 #@! TO.C,JP1*
X54956666Y-58237380D02*
X54956666Y-58951666D01*
X54909047Y-59094523D01*
X54813809Y-59189761D01*
X54670952Y-59237380D01*
X54575714Y-59237380D01*
X55432857Y-59237380D02*
X55432857Y-58237380D01*
X55813809Y-58237380D01*
X55909047Y-58285000D01*
X55956666Y-58332619D01*
X56004285Y-58427857D01*
X56004285Y-58570714D01*
X55956666Y-58665952D01*
X55909047Y-58713571D01*
X55813809Y-58761190D01*
X55432857Y-58761190D01*
X56956666Y-59237380D02*
X56385238Y-59237380D01*
X56670952Y-59237380D02*
X56670952Y-58237380D01*
X56575714Y-58380238D01*
X56480476Y-58475476D01*
X56385238Y-58523095D01*
G04 #@! TO.C,R31*
X113857142Y-67702380D02*
X113523809Y-67226190D01*
X113285714Y-67702380D02*
X113285714Y-66702380D01*
X113666666Y-66702380D01*
X113761904Y-66750000D01*
X113809523Y-66797619D01*
X113857142Y-66892857D01*
X113857142Y-67035714D01*
X113809523Y-67130952D01*
X113761904Y-67178571D01*
X113666666Y-67226190D01*
X113285714Y-67226190D01*
X114190476Y-66702380D02*
X114809523Y-66702380D01*
X114476190Y-67083333D01*
X114619047Y-67083333D01*
X114714285Y-67130952D01*
X114761904Y-67178571D01*
X114809523Y-67273809D01*
X114809523Y-67511904D01*
X114761904Y-67607142D01*
X114714285Y-67654761D01*
X114619047Y-67702380D01*
X114333333Y-67702380D01*
X114238095Y-67654761D01*
X114190476Y-67607142D01*
X115761904Y-67702380D02*
X115190476Y-67702380D01*
X115476190Y-67702380D02*
X115476190Y-66702380D01*
X115380952Y-66845238D01*
X115285714Y-66940476D01*
X115190476Y-66988095D01*
G04 #@! TO.C,C1*
X76433333Y-99957142D02*
X76385714Y-100004761D01*
X76242857Y-100052380D01*
X76147619Y-100052380D01*
X76004761Y-100004761D01*
X75909523Y-99909523D01*
X75861904Y-99814285D01*
X75814285Y-99623809D01*
X75814285Y-99480952D01*
X75861904Y-99290476D01*
X75909523Y-99195238D01*
X76004761Y-99100000D01*
X76147619Y-99052380D01*
X76242857Y-99052380D01*
X76385714Y-99100000D01*
X76433333Y-99147619D01*
X77385714Y-100052380D02*
X76814285Y-100052380D01*
X77100000Y-100052380D02*
X77100000Y-99052380D01*
X77004761Y-99195238D01*
X76909523Y-99290476D01*
X76814285Y-99338095D01*
G04 #@! TO.C,C2*
X81583333Y-98107142D02*
X81535714Y-98154761D01*
X81392857Y-98202380D01*
X81297619Y-98202380D01*
X81154761Y-98154761D01*
X81059523Y-98059523D01*
X81011904Y-97964285D01*
X80964285Y-97773809D01*
X80964285Y-97630952D01*
X81011904Y-97440476D01*
X81059523Y-97345238D01*
X81154761Y-97250000D01*
X81297619Y-97202380D01*
X81392857Y-97202380D01*
X81535714Y-97250000D01*
X81583333Y-97297619D01*
X81964285Y-97297619D02*
X82011904Y-97250000D01*
X82107142Y-97202380D01*
X82345238Y-97202380D01*
X82440476Y-97250000D01*
X82488095Y-97297619D01*
X82535714Y-97392857D01*
X82535714Y-97488095D01*
X82488095Y-97630952D01*
X81916666Y-98202380D01*
X82535714Y-98202380D01*
G04 #@! TO.C,C11*
X121607142Y-51357142D02*
X121559523Y-51404761D01*
X121416666Y-51452380D01*
X121321428Y-51452380D01*
X121178571Y-51404761D01*
X121083333Y-51309523D01*
X121035714Y-51214285D01*
X120988095Y-51023809D01*
X120988095Y-50880952D01*
X121035714Y-50690476D01*
X121083333Y-50595238D01*
X121178571Y-50500000D01*
X121321428Y-50452380D01*
X121416666Y-50452380D01*
X121559523Y-50500000D01*
X121607142Y-50547619D01*
X122559523Y-51452380D02*
X121988095Y-51452380D01*
X122273809Y-51452380D02*
X122273809Y-50452380D01*
X122178571Y-50595238D01*
X122083333Y-50690476D01*
X121988095Y-50738095D01*
X123511904Y-51452380D02*
X122940476Y-51452380D01*
X123226190Y-51452380D02*
X123226190Y-50452380D01*
X123130952Y-50595238D01*
X123035714Y-50690476D01*
X122940476Y-50738095D01*
G04 #@! TO.C,C12*
X67557142Y-51557142D02*
X67509523Y-51604761D01*
X67366666Y-51652380D01*
X67271428Y-51652380D01*
X67128571Y-51604761D01*
X67033333Y-51509523D01*
X66985714Y-51414285D01*
X66938095Y-51223809D01*
X66938095Y-51080952D01*
X66985714Y-50890476D01*
X67033333Y-50795238D01*
X67128571Y-50700000D01*
X67271428Y-50652380D01*
X67366666Y-50652380D01*
X67509523Y-50700000D01*
X67557142Y-50747619D01*
X68509523Y-51652380D02*
X67938095Y-51652380D01*
X68223809Y-51652380D02*
X68223809Y-50652380D01*
X68128571Y-50795238D01*
X68033333Y-50890476D01*
X67938095Y-50938095D01*
X68890476Y-50747619D02*
X68938095Y-50700000D01*
X69033333Y-50652380D01*
X69271428Y-50652380D01*
X69366666Y-50700000D01*
X69414285Y-50747619D01*
X69461904Y-50842857D01*
X69461904Y-50938095D01*
X69414285Y-51080952D01*
X68842857Y-51652380D01*
X69461904Y-51652380D01*
G04 #@! TO.C,C13*
X122857142Y-89642857D02*
X122904761Y-89690476D01*
X122952380Y-89833333D01*
X122952380Y-89928571D01*
X122904761Y-90071428D01*
X122809523Y-90166666D01*
X122714285Y-90214285D01*
X122523809Y-90261904D01*
X122380952Y-90261904D01*
X122190476Y-90214285D01*
X122095238Y-90166666D01*
X122000000Y-90071428D01*
X121952380Y-89928571D01*
X121952380Y-89833333D01*
X122000000Y-89690476D01*
X122047619Y-89642857D01*
X122952380Y-88690476D02*
X122952380Y-89261904D01*
X122952380Y-88976190D02*
X121952380Y-88976190D01*
X122095238Y-89071428D01*
X122190476Y-89166666D01*
X122238095Y-89261904D01*
X121952380Y-88357142D02*
X121952380Y-87738095D01*
X122333333Y-88071428D01*
X122333333Y-87928571D01*
X122380952Y-87833333D01*
X122428571Y-87785714D01*
X122523809Y-87738095D01*
X122761904Y-87738095D01*
X122857142Y-87785714D01*
X122904761Y-87833333D01*
X122952380Y-87928571D01*
X122952380Y-88214285D01*
X122904761Y-88309523D01*
X122857142Y-88357142D01*
G04 #@! TO.C,C22*
X102107142Y-98107142D02*
X102059523Y-98154761D01*
X101916666Y-98202380D01*
X101821428Y-98202380D01*
X101678571Y-98154761D01*
X101583333Y-98059523D01*
X101535714Y-97964285D01*
X101488095Y-97773809D01*
X101488095Y-97630952D01*
X101535714Y-97440476D01*
X101583333Y-97345238D01*
X101678571Y-97250000D01*
X101821428Y-97202380D01*
X101916666Y-97202380D01*
X102059523Y-97250000D01*
X102107142Y-97297619D01*
X102488095Y-97297619D02*
X102535714Y-97250000D01*
X102630952Y-97202380D01*
X102869047Y-97202380D01*
X102964285Y-97250000D01*
X103011904Y-97297619D01*
X103059523Y-97392857D01*
X103059523Y-97488095D01*
X103011904Y-97630952D01*
X102440476Y-98202380D01*
X103059523Y-98202380D01*
X103440476Y-97297619D02*
X103488095Y-97250000D01*
X103583333Y-97202380D01*
X103821428Y-97202380D01*
X103916666Y-97250000D01*
X103964285Y-97297619D01*
X104011904Y-97392857D01*
X104011904Y-97488095D01*
X103964285Y-97630952D01*
X103392857Y-98202380D01*
X104011904Y-98202380D01*
G04 #@! TO.C,C24*
X111944642Y-103092857D02*
X111992261Y-103140476D01*
X112039880Y-103283333D01*
X112039880Y-103378571D01*
X111992261Y-103521428D01*
X111897023Y-103616666D01*
X111801785Y-103664285D01*
X111611309Y-103711904D01*
X111468452Y-103711904D01*
X111277976Y-103664285D01*
X111182738Y-103616666D01*
X111087500Y-103521428D01*
X111039880Y-103378571D01*
X111039880Y-103283333D01*
X111087500Y-103140476D01*
X111135119Y-103092857D01*
X111135119Y-102711904D02*
X111087500Y-102664285D01*
X111039880Y-102569047D01*
X111039880Y-102330952D01*
X111087500Y-102235714D01*
X111135119Y-102188095D01*
X111230357Y-102140476D01*
X111325595Y-102140476D01*
X111468452Y-102188095D01*
X112039880Y-102759523D01*
X112039880Y-102140476D01*
X111373214Y-101283333D02*
X112039880Y-101283333D01*
X110992261Y-101521428D02*
X111706547Y-101759523D01*
X111706547Y-101140476D01*
G04 #@! TO.C,Cs1*
X121228571Y-62157142D02*
X121180952Y-62204761D01*
X121038095Y-62252380D01*
X120942857Y-62252380D01*
X120800000Y-62204761D01*
X120704761Y-62109523D01*
X120657142Y-62014285D01*
X120609523Y-61823809D01*
X120609523Y-61680952D01*
X120657142Y-61490476D01*
X120704761Y-61395238D01*
X120800000Y-61300000D01*
X120942857Y-61252380D01*
X121038095Y-61252380D01*
X121180952Y-61300000D01*
X121228571Y-61347619D01*
X121609523Y-62204761D02*
X121704761Y-62252380D01*
X121895238Y-62252380D01*
X121990476Y-62204761D01*
X122038095Y-62109523D01*
X122038095Y-62061904D01*
X121990476Y-61966666D01*
X121895238Y-61919047D01*
X121752380Y-61919047D01*
X121657142Y-61871428D01*
X121609523Y-61776190D01*
X121609523Y-61728571D01*
X121657142Y-61633333D01*
X121752380Y-61585714D01*
X121895238Y-61585714D01*
X121990476Y-61633333D01*
X122990476Y-62252380D02*
X122419047Y-62252380D01*
X122704761Y-62252380D02*
X122704761Y-61252380D01*
X122609523Y-61395238D01*
X122514285Y-61490476D01*
X122419047Y-61538095D01*
G04 #@! TO.C,Cs3*
X67453571Y-62307142D02*
X67405952Y-62354761D01*
X67263095Y-62402380D01*
X67167857Y-62402380D01*
X67025000Y-62354761D01*
X66929761Y-62259523D01*
X66882142Y-62164285D01*
X66834523Y-61973809D01*
X66834523Y-61830952D01*
X66882142Y-61640476D01*
X66929761Y-61545238D01*
X67025000Y-61450000D01*
X67167857Y-61402380D01*
X67263095Y-61402380D01*
X67405952Y-61450000D01*
X67453571Y-61497619D01*
X67834523Y-62354761D02*
X67929761Y-62402380D01*
X68120238Y-62402380D01*
X68215476Y-62354761D01*
X68263095Y-62259523D01*
X68263095Y-62211904D01*
X68215476Y-62116666D01*
X68120238Y-62069047D01*
X67977380Y-62069047D01*
X67882142Y-62021428D01*
X67834523Y-61926190D01*
X67834523Y-61878571D01*
X67882142Y-61783333D01*
X67977380Y-61735714D01*
X68120238Y-61735714D01*
X68215476Y-61783333D01*
X68596428Y-61402380D02*
X69215476Y-61402380D01*
X68882142Y-61783333D01*
X69025000Y-61783333D01*
X69120238Y-61830952D01*
X69167857Y-61878571D01*
X69215476Y-61973809D01*
X69215476Y-62211904D01*
X69167857Y-62307142D01*
X69120238Y-62354761D01*
X69025000Y-62402380D01*
X68739285Y-62402380D01*
X68644047Y-62354761D01*
X68596428Y-62307142D01*
G04 #@! TO.C,Cs2*
X121228571Y-80157142D02*
X121180952Y-80204761D01*
X121038095Y-80252380D01*
X120942857Y-80252380D01*
X120800000Y-80204761D01*
X120704761Y-80109523D01*
X120657142Y-80014285D01*
X120609523Y-79823809D01*
X120609523Y-79680952D01*
X120657142Y-79490476D01*
X120704761Y-79395238D01*
X120800000Y-79300000D01*
X120942857Y-79252380D01*
X121038095Y-79252380D01*
X121180952Y-79300000D01*
X121228571Y-79347619D01*
X121609523Y-80204761D02*
X121704761Y-80252380D01*
X121895238Y-80252380D01*
X121990476Y-80204761D01*
X122038095Y-80109523D01*
X122038095Y-80061904D01*
X121990476Y-79966666D01*
X121895238Y-79919047D01*
X121752380Y-79919047D01*
X121657142Y-79871428D01*
X121609523Y-79776190D01*
X121609523Y-79728571D01*
X121657142Y-79633333D01*
X121752380Y-79585714D01*
X121895238Y-79585714D01*
X121990476Y-79633333D01*
X122419047Y-79347619D02*
X122466666Y-79300000D01*
X122561904Y-79252380D01*
X122800000Y-79252380D01*
X122895238Y-79300000D01*
X122942857Y-79347619D01*
X122990476Y-79442857D01*
X122990476Y-79538095D01*
X122942857Y-79680952D01*
X122371428Y-80252380D01*
X122990476Y-80252380D01*
G04 #@! TO.C,Cs4*
X67653571Y-80607142D02*
X67605952Y-80654761D01*
X67463095Y-80702380D01*
X67367857Y-80702380D01*
X67225000Y-80654761D01*
X67129761Y-80559523D01*
X67082142Y-80464285D01*
X67034523Y-80273809D01*
X67034523Y-80130952D01*
X67082142Y-79940476D01*
X67129761Y-79845238D01*
X67225000Y-79750000D01*
X67367857Y-79702380D01*
X67463095Y-79702380D01*
X67605952Y-79750000D01*
X67653571Y-79797619D01*
X68034523Y-80654761D02*
X68129761Y-80702380D01*
X68320238Y-80702380D01*
X68415476Y-80654761D01*
X68463095Y-80559523D01*
X68463095Y-80511904D01*
X68415476Y-80416666D01*
X68320238Y-80369047D01*
X68177380Y-80369047D01*
X68082142Y-80321428D01*
X68034523Y-80226190D01*
X68034523Y-80178571D01*
X68082142Y-80083333D01*
X68177380Y-80035714D01*
X68320238Y-80035714D01*
X68415476Y-80083333D01*
X69320238Y-80035714D02*
X69320238Y-80702380D01*
X69082142Y-79654761D02*
X68844047Y-80369047D01*
X69463095Y-80369047D01*
G04 #@! TO.C,D2*
X105266904Y-61702380D02*
X105266904Y-60702380D01*
X105505000Y-60702380D01*
X105647857Y-60750000D01*
X105743095Y-60845238D01*
X105790714Y-60940476D01*
X105838333Y-61130952D01*
X105838333Y-61273809D01*
X105790714Y-61464285D01*
X105743095Y-61559523D01*
X105647857Y-61654761D01*
X105505000Y-61702380D01*
X105266904Y-61702380D01*
X106219285Y-60797619D02*
X106266904Y-60750000D01*
X106362142Y-60702380D01*
X106600238Y-60702380D01*
X106695476Y-60750000D01*
X106743095Y-60797619D01*
X106790714Y-60892857D01*
X106790714Y-60988095D01*
X106743095Y-61130952D01*
X106171666Y-61702380D01*
X106790714Y-61702380D01*
G04 #@! TO.C,D3*
X105296904Y-79202380D02*
X105296904Y-78202380D01*
X105535000Y-78202380D01*
X105677857Y-78250000D01*
X105773095Y-78345238D01*
X105820714Y-78440476D01*
X105868333Y-78630952D01*
X105868333Y-78773809D01*
X105820714Y-78964285D01*
X105773095Y-79059523D01*
X105677857Y-79154761D01*
X105535000Y-79202380D01*
X105296904Y-79202380D01*
X106201666Y-78202380D02*
X106820714Y-78202380D01*
X106487380Y-78583333D01*
X106630238Y-78583333D01*
X106725476Y-78630952D01*
X106773095Y-78678571D01*
X106820714Y-78773809D01*
X106820714Y-79011904D01*
X106773095Y-79107142D01*
X106725476Y-79154761D01*
X106630238Y-79202380D01*
X106344523Y-79202380D01*
X106249285Y-79154761D01*
X106201666Y-79107142D01*
G04 #@! TO.C,D4*
X51511904Y-61702380D02*
X51511904Y-60702380D01*
X51750000Y-60702380D01*
X51892857Y-60750000D01*
X51988095Y-60845238D01*
X52035714Y-60940476D01*
X52083333Y-61130952D01*
X52083333Y-61273809D01*
X52035714Y-61464285D01*
X51988095Y-61559523D01*
X51892857Y-61654761D01*
X51750000Y-61702380D01*
X51511904Y-61702380D01*
X52940476Y-61035714D02*
X52940476Y-61702380D01*
X52702380Y-60654761D02*
X52464285Y-61369047D01*
X53083333Y-61369047D01*
G04 #@! TO.C,D5*
X51761904Y-79702380D02*
X51761904Y-78702380D01*
X52000000Y-78702380D01*
X52142857Y-78750000D01*
X52238095Y-78845238D01*
X52285714Y-78940476D01*
X52333333Y-79130952D01*
X52333333Y-79273809D01*
X52285714Y-79464285D01*
X52238095Y-79559523D01*
X52142857Y-79654761D01*
X52000000Y-79702380D01*
X51761904Y-79702380D01*
X53238095Y-78702380D02*
X52761904Y-78702380D01*
X52714285Y-79178571D01*
X52761904Y-79130952D01*
X52857142Y-79083333D01*
X53095238Y-79083333D01*
X53190476Y-79130952D01*
X53238095Y-79178571D01*
X53285714Y-79273809D01*
X53285714Y-79511904D01*
X53238095Y-79607142D01*
X53190476Y-79654761D01*
X53095238Y-79702380D01*
X52857142Y-79702380D01*
X52761904Y-79654761D01*
X52714285Y-79607142D01*
G04 #@! TO.C,D_H1*
X127357142Y-66702380D02*
X127357142Y-65702380D01*
X127595238Y-65702380D01*
X127738095Y-65750000D01*
X127833333Y-65845238D01*
X127880952Y-65940476D01*
X127928571Y-66130952D01*
X127928571Y-66273809D01*
X127880952Y-66464285D01*
X127833333Y-66559523D01*
X127738095Y-66654761D01*
X127595238Y-66702380D01*
X127357142Y-66702380D01*
X128119047Y-66797619D02*
X128880952Y-66797619D01*
X129119047Y-66702380D02*
X129119047Y-65702380D01*
X129119047Y-66178571D02*
X129690476Y-66178571D01*
X129690476Y-66702380D02*
X129690476Y-65702380D01*
X130690476Y-66702380D02*
X130119047Y-66702380D01*
X130404761Y-66702380D02*
X130404761Y-65702380D01*
X130309523Y-65845238D01*
X130214285Y-65940476D01*
X130119047Y-65988095D01*
G04 #@! TO.C,D_H2*
X72857142Y-67202380D02*
X72857142Y-66202380D01*
X73095238Y-66202380D01*
X73238095Y-66250000D01*
X73333333Y-66345238D01*
X73380952Y-66440476D01*
X73428571Y-66630952D01*
X73428571Y-66773809D01*
X73380952Y-66964285D01*
X73333333Y-67059523D01*
X73238095Y-67154761D01*
X73095238Y-67202380D01*
X72857142Y-67202380D01*
X73619047Y-67297619D02*
X74380952Y-67297619D01*
X74619047Y-67202380D02*
X74619047Y-66202380D01*
X74619047Y-66678571D02*
X75190476Y-66678571D01*
X75190476Y-67202380D02*
X75190476Y-66202380D01*
X75619047Y-66297619D02*
X75666666Y-66250000D01*
X75761904Y-66202380D01*
X76000000Y-66202380D01*
X76095238Y-66250000D01*
X76142857Y-66297619D01*
X76190476Y-66392857D01*
X76190476Y-66488095D01*
X76142857Y-66630952D01*
X75571428Y-67202380D01*
X76190476Y-67202380D01*
G04 #@! TO.C,D_L1*
X127476190Y-71202380D02*
X127476190Y-70202380D01*
X127714285Y-70202380D01*
X127857142Y-70250000D01*
X127952380Y-70345238D01*
X128000000Y-70440476D01*
X128047619Y-70630952D01*
X128047619Y-70773809D01*
X128000000Y-70964285D01*
X127952380Y-71059523D01*
X127857142Y-71154761D01*
X127714285Y-71202380D01*
X127476190Y-71202380D01*
X128238095Y-71297619D02*
X129000000Y-71297619D01*
X129714285Y-71202380D02*
X129238095Y-71202380D01*
X129238095Y-70202380D01*
X130571428Y-71202380D02*
X130000000Y-71202380D01*
X130285714Y-71202380D02*
X130285714Y-70202380D01*
X130190476Y-70345238D01*
X130095238Y-70440476D01*
X130000000Y-70488095D01*
G04 #@! TO.C,D_L2*
X72976190Y-71202380D02*
X72976190Y-70202380D01*
X73214285Y-70202380D01*
X73357142Y-70250000D01*
X73452380Y-70345238D01*
X73500000Y-70440476D01*
X73547619Y-70630952D01*
X73547619Y-70773809D01*
X73500000Y-70964285D01*
X73452380Y-71059523D01*
X73357142Y-71154761D01*
X73214285Y-71202380D01*
X72976190Y-71202380D01*
X73738095Y-71297619D02*
X74500000Y-71297619D01*
X75214285Y-71202380D02*
X74738095Y-71202380D01*
X74738095Y-70202380D01*
X75500000Y-70297619D02*
X75547619Y-70250000D01*
X75642857Y-70202380D01*
X75880952Y-70202380D01*
X75976190Y-70250000D01*
X76023809Y-70297619D01*
X76071428Y-70392857D01*
X76071428Y-70488095D01*
X76023809Y-70630952D01*
X75452380Y-71202380D01*
X76071428Y-71202380D01*
G04 #@! TO.C,Q1*
X119504761Y-56547619D02*
X119409523Y-56500000D01*
X119314285Y-56404761D01*
X119171428Y-56261904D01*
X119076190Y-56214285D01*
X118980952Y-56214285D01*
X119028571Y-56452380D02*
X118933333Y-56404761D01*
X118838095Y-56309523D01*
X118790476Y-56119047D01*
X118790476Y-55785714D01*
X118838095Y-55595238D01*
X118933333Y-55500000D01*
X119028571Y-55452380D01*
X119219047Y-55452380D01*
X119314285Y-55500000D01*
X119409523Y-55595238D01*
X119457142Y-55785714D01*
X119457142Y-56119047D01*
X119409523Y-56309523D01*
X119314285Y-56404761D01*
X119219047Y-56452380D01*
X119028571Y-56452380D01*
X120409523Y-56452380D02*
X119838095Y-56452380D01*
X120123809Y-56452380D02*
X120123809Y-55452380D01*
X120028571Y-55595238D01*
X119933333Y-55690476D01*
X119838095Y-55738095D01*
G04 #@! TO.C,Q2*
X114154761Y-71297619D02*
X114059523Y-71250000D01*
X113964285Y-71154761D01*
X113821428Y-71011904D01*
X113726190Y-70964285D01*
X113630952Y-70964285D01*
X113678571Y-71202380D02*
X113583333Y-71154761D01*
X113488095Y-71059523D01*
X113440476Y-70869047D01*
X113440476Y-70535714D01*
X113488095Y-70345238D01*
X113583333Y-70250000D01*
X113678571Y-70202380D01*
X113869047Y-70202380D01*
X113964285Y-70250000D01*
X114059523Y-70345238D01*
X114107142Y-70535714D01*
X114107142Y-70869047D01*
X114059523Y-71059523D01*
X113964285Y-71154761D01*
X113869047Y-71202380D01*
X113678571Y-71202380D01*
X114488095Y-70297619D02*
X114535714Y-70250000D01*
X114630952Y-70202380D01*
X114869047Y-70202380D01*
X114964285Y-70250000D01*
X115011904Y-70297619D01*
X115059523Y-70392857D01*
X115059523Y-70488095D01*
X115011904Y-70630952D01*
X114440476Y-71202380D01*
X115059523Y-71202380D01*
G04 #@! TO.C,Q4*
X65304761Y-56347619D02*
X65209523Y-56300000D01*
X65114285Y-56204761D01*
X64971428Y-56061904D01*
X64876190Y-56014285D01*
X64780952Y-56014285D01*
X64828571Y-56252380D02*
X64733333Y-56204761D01*
X64638095Y-56109523D01*
X64590476Y-55919047D01*
X64590476Y-55585714D01*
X64638095Y-55395238D01*
X64733333Y-55300000D01*
X64828571Y-55252380D01*
X65019047Y-55252380D01*
X65114285Y-55300000D01*
X65209523Y-55395238D01*
X65257142Y-55585714D01*
X65257142Y-55919047D01*
X65209523Y-56109523D01*
X65114285Y-56204761D01*
X65019047Y-56252380D01*
X64828571Y-56252380D01*
X66114285Y-55585714D02*
X66114285Y-56252380D01*
X65876190Y-55204761D02*
X65638095Y-55919047D01*
X66257142Y-55919047D01*
G04 #@! TO.C,Q5*
X60404761Y-71297619D02*
X60309523Y-71250000D01*
X60214285Y-71154761D01*
X60071428Y-71011904D01*
X59976190Y-70964285D01*
X59880952Y-70964285D01*
X59928571Y-71202380D02*
X59833333Y-71154761D01*
X59738095Y-71059523D01*
X59690476Y-70869047D01*
X59690476Y-70535714D01*
X59738095Y-70345238D01*
X59833333Y-70250000D01*
X59928571Y-70202380D01*
X60119047Y-70202380D01*
X60214285Y-70250000D01*
X60309523Y-70345238D01*
X60357142Y-70535714D01*
X60357142Y-70869047D01*
X60309523Y-71059523D01*
X60214285Y-71154761D01*
X60119047Y-71202380D01*
X59928571Y-71202380D01*
X61261904Y-70202380D02*
X60785714Y-70202380D01*
X60738095Y-70678571D01*
X60785714Y-70630952D01*
X60880952Y-70583333D01*
X61119047Y-70583333D01*
X61214285Y-70630952D01*
X61261904Y-70678571D01*
X61309523Y-70773809D01*
X61309523Y-71011904D01*
X61261904Y-71107142D01*
X61214285Y-71154761D01*
X61119047Y-71202380D01*
X60880952Y-71202380D01*
X60785714Y-71154761D01*
X60738095Y-71107142D01*
G04 #@! TO.C,Rs1*
X121203571Y-59252380D02*
X120870238Y-58776190D01*
X120632142Y-59252380D02*
X120632142Y-58252380D01*
X121013095Y-58252380D01*
X121108333Y-58300000D01*
X121155952Y-58347619D01*
X121203571Y-58442857D01*
X121203571Y-58585714D01*
X121155952Y-58680952D01*
X121108333Y-58728571D01*
X121013095Y-58776190D01*
X120632142Y-58776190D01*
X121584523Y-59204761D02*
X121679761Y-59252380D01*
X121870238Y-59252380D01*
X121965476Y-59204761D01*
X122013095Y-59109523D01*
X122013095Y-59061904D01*
X121965476Y-58966666D01*
X121870238Y-58919047D01*
X121727380Y-58919047D01*
X121632142Y-58871428D01*
X121584523Y-58776190D01*
X121584523Y-58728571D01*
X121632142Y-58633333D01*
X121727380Y-58585714D01*
X121870238Y-58585714D01*
X121965476Y-58633333D01*
X122965476Y-59252380D02*
X122394047Y-59252380D01*
X122679761Y-59252380D02*
X122679761Y-58252380D01*
X122584523Y-58395238D01*
X122489285Y-58490476D01*
X122394047Y-58538095D01*
G04 #@! TO.C,Rs3*
X67428571Y-59129880D02*
X67095238Y-58653690D01*
X66857142Y-59129880D02*
X66857142Y-58129880D01*
X67238095Y-58129880D01*
X67333333Y-58177500D01*
X67380952Y-58225119D01*
X67428571Y-58320357D01*
X67428571Y-58463214D01*
X67380952Y-58558452D01*
X67333333Y-58606071D01*
X67238095Y-58653690D01*
X66857142Y-58653690D01*
X67809523Y-59082261D02*
X67904761Y-59129880D01*
X68095238Y-59129880D01*
X68190476Y-59082261D01*
X68238095Y-58987023D01*
X68238095Y-58939404D01*
X68190476Y-58844166D01*
X68095238Y-58796547D01*
X67952380Y-58796547D01*
X67857142Y-58748928D01*
X67809523Y-58653690D01*
X67809523Y-58606071D01*
X67857142Y-58510833D01*
X67952380Y-58463214D01*
X68095238Y-58463214D01*
X68190476Y-58510833D01*
X68571428Y-58129880D02*
X69190476Y-58129880D01*
X68857142Y-58510833D01*
X69000000Y-58510833D01*
X69095238Y-58558452D01*
X69142857Y-58606071D01*
X69190476Y-58701309D01*
X69190476Y-58939404D01*
X69142857Y-59034642D01*
X69095238Y-59082261D01*
X69000000Y-59129880D01*
X68714285Y-59129880D01*
X68619047Y-59082261D01*
X68571428Y-59034642D01*
G04 #@! TO.C,Rs2*
X121203571Y-76852380D02*
X120870238Y-76376190D01*
X120632142Y-76852380D02*
X120632142Y-75852380D01*
X121013095Y-75852380D01*
X121108333Y-75900000D01*
X121155952Y-75947619D01*
X121203571Y-76042857D01*
X121203571Y-76185714D01*
X121155952Y-76280952D01*
X121108333Y-76328571D01*
X121013095Y-76376190D01*
X120632142Y-76376190D01*
X121584523Y-76804761D02*
X121679761Y-76852380D01*
X121870238Y-76852380D01*
X121965476Y-76804761D01*
X122013095Y-76709523D01*
X122013095Y-76661904D01*
X121965476Y-76566666D01*
X121870238Y-76519047D01*
X121727380Y-76519047D01*
X121632142Y-76471428D01*
X121584523Y-76376190D01*
X121584523Y-76328571D01*
X121632142Y-76233333D01*
X121727380Y-76185714D01*
X121870238Y-76185714D01*
X121965476Y-76233333D01*
X122394047Y-75947619D02*
X122441666Y-75900000D01*
X122536904Y-75852380D01*
X122775000Y-75852380D01*
X122870238Y-75900000D01*
X122917857Y-75947619D01*
X122965476Y-76042857D01*
X122965476Y-76138095D01*
X122917857Y-76280952D01*
X122346428Y-76852380D01*
X122965476Y-76852380D01*
G04 #@! TO.C,Rs4*
X67628571Y-77202380D02*
X67295238Y-76726190D01*
X67057142Y-77202380D02*
X67057142Y-76202380D01*
X67438095Y-76202380D01*
X67533333Y-76250000D01*
X67580952Y-76297619D01*
X67628571Y-76392857D01*
X67628571Y-76535714D01*
X67580952Y-76630952D01*
X67533333Y-76678571D01*
X67438095Y-76726190D01*
X67057142Y-76726190D01*
X68009523Y-77154761D02*
X68104761Y-77202380D01*
X68295238Y-77202380D01*
X68390476Y-77154761D01*
X68438095Y-77059523D01*
X68438095Y-77011904D01*
X68390476Y-76916666D01*
X68295238Y-76869047D01*
X68152380Y-76869047D01*
X68057142Y-76821428D01*
X68009523Y-76726190D01*
X68009523Y-76678571D01*
X68057142Y-76583333D01*
X68152380Y-76535714D01*
X68295238Y-76535714D01*
X68390476Y-76583333D01*
X69295238Y-76535714D02*
X69295238Y-77202380D01*
X69057142Y-76154761D02*
X68819047Y-76869047D01*
X69438095Y-76869047D01*
G04 #@! TO.C,R1*
X108583333Y-67702380D02*
X108250000Y-67226190D01*
X108011904Y-67702380D02*
X108011904Y-66702380D01*
X108392857Y-66702380D01*
X108488095Y-66750000D01*
X108535714Y-66797619D01*
X108583333Y-66892857D01*
X108583333Y-67035714D01*
X108535714Y-67130952D01*
X108488095Y-67178571D01*
X108392857Y-67226190D01*
X108011904Y-67226190D01*
X109535714Y-67702380D02*
X108964285Y-67702380D01*
X109250000Y-67702380D02*
X109250000Y-66702380D01*
X109154761Y-66845238D01*
X109059523Y-66940476D01*
X108964285Y-66988095D01*
G04 #@! TO.C,R5*
X54833333Y-67452380D02*
X54500000Y-66976190D01*
X54261904Y-67452380D02*
X54261904Y-66452380D01*
X54642857Y-66452380D01*
X54738095Y-66500000D01*
X54785714Y-66547619D01*
X54833333Y-66642857D01*
X54833333Y-66785714D01*
X54785714Y-66880952D01*
X54738095Y-66928571D01*
X54642857Y-66976190D01*
X54261904Y-66976190D01*
X55738095Y-66452380D02*
X55261904Y-66452380D01*
X55214285Y-66928571D01*
X55261904Y-66880952D01*
X55357142Y-66833333D01*
X55595238Y-66833333D01*
X55690476Y-66880952D01*
X55738095Y-66928571D01*
X55785714Y-67023809D01*
X55785714Y-67261904D01*
X55738095Y-67357142D01*
X55690476Y-67404761D01*
X55595238Y-67452380D01*
X55357142Y-67452380D01*
X55261904Y-67404761D01*
X55214285Y-67357142D01*
G04 #@! TO.C,R3*
X108583333Y-61702380D02*
X108250000Y-61226190D01*
X108011904Y-61702380D02*
X108011904Y-60702380D01*
X108392857Y-60702380D01*
X108488095Y-60750000D01*
X108535714Y-60797619D01*
X108583333Y-60892857D01*
X108583333Y-61035714D01*
X108535714Y-61130952D01*
X108488095Y-61178571D01*
X108392857Y-61226190D01*
X108011904Y-61226190D01*
X108916666Y-60702380D02*
X109535714Y-60702380D01*
X109202380Y-61083333D01*
X109345238Y-61083333D01*
X109440476Y-61130952D01*
X109488095Y-61178571D01*
X109535714Y-61273809D01*
X109535714Y-61511904D01*
X109488095Y-61607142D01*
X109440476Y-61654761D01*
X109345238Y-61702380D01*
X109059523Y-61702380D01*
X108964285Y-61654761D01*
X108916666Y-61607142D01*
G04 #@! TO.C,R4*
X108833333Y-79202380D02*
X108500000Y-78726190D01*
X108261904Y-79202380D02*
X108261904Y-78202380D01*
X108642857Y-78202380D01*
X108738095Y-78250000D01*
X108785714Y-78297619D01*
X108833333Y-78392857D01*
X108833333Y-78535714D01*
X108785714Y-78630952D01*
X108738095Y-78678571D01*
X108642857Y-78726190D01*
X108261904Y-78726190D01*
X109690476Y-78535714D02*
X109690476Y-79202380D01*
X109452380Y-78154761D02*
X109214285Y-78869047D01*
X109833333Y-78869047D01*
G04 #@! TO.C,R33*
X54357142Y-61702380D02*
X54023809Y-61226190D01*
X53785714Y-61702380D02*
X53785714Y-60702380D01*
X54166666Y-60702380D01*
X54261904Y-60750000D01*
X54309523Y-60797619D01*
X54357142Y-60892857D01*
X54357142Y-61035714D01*
X54309523Y-61130952D01*
X54261904Y-61178571D01*
X54166666Y-61226190D01*
X53785714Y-61226190D01*
X54690476Y-60702380D02*
X55309523Y-60702380D01*
X54976190Y-61083333D01*
X55119047Y-61083333D01*
X55214285Y-61130952D01*
X55261904Y-61178571D01*
X55309523Y-61273809D01*
X55309523Y-61511904D01*
X55261904Y-61607142D01*
X55214285Y-61654761D01*
X55119047Y-61702380D01*
X54833333Y-61702380D01*
X54738095Y-61654761D01*
X54690476Y-61607142D01*
X55642857Y-60702380D02*
X56261904Y-60702380D01*
X55928571Y-61083333D01*
X56071428Y-61083333D01*
X56166666Y-61130952D01*
X56214285Y-61178571D01*
X56261904Y-61273809D01*
X56261904Y-61511904D01*
X56214285Y-61607142D01*
X56166666Y-61654761D01*
X56071428Y-61702380D01*
X55785714Y-61702380D01*
X55690476Y-61654761D01*
X55642857Y-61607142D01*
G04 #@! TO.C,R34*
X54607142Y-79702380D02*
X54273809Y-79226190D01*
X54035714Y-79702380D02*
X54035714Y-78702380D01*
X54416666Y-78702380D01*
X54511904Y-78750000D01*
X54559523Y-78797619D01*
X54607142Y-78892857D01*
X54607142Y-79035714D01*
X54559523Y-79130952D01*
X54511904Y-79178571D01*
X54416666Y-79226190D01*
X54035714Y-79226190D01*
X54940476Y-78702380D02*
X55559523Y-78702380D01*
X55226190Y-79083333D01*
X55369047Y-79083333D01*
X55464285Y-79130952D01*
X55511904Y-79178571D01*
X55559523Y-79273809D01*
X55559523Y-79511904D01*
X55511904Y-79607142D01*
X55464285Y-79654761D01*
X55369047Y-79702380D01*
X55083333Y-79702380D01*
X54988095Y-79654761D01*
X54940476Y-79607142D01*
X56416666Y-79035714D02*
X56416666Y-79702380D01*
X56178571Y-78654761D02*
X55940476Y-79369047D01*
X56559523Y-79369047D01*
G04 #@! TO.C,R2*
X108833333Y-85202380D02*
X108500000Y-84726190D01*
X108261904Y-85202380D02*
X108261904Y-84202380D01*
X108642857Y-84202380D01*
X108738095Y-84250000D01*
X108785714Y-84297619D01*
X108833333Y-84392857D01*
X108833333Y-84535714D01*
X108785714Y-84630952D01*
X108738095Y-84678571D01*
X108642857Y-84726190D01*
X108261904Y-84726190D01*
X109214285Y-84297619D02*
X109261904Y-84250000D01*
X109357142Y-84202380D01*
X109595238Y-84202380D01*
X109690476Y-84250000D01*
X109738095Y-84297619D01*
X109785714Y-84392857D01*
X109785714Y-84488095D01*
X109738095Y-84630952D01*
X109166666Y-85202380D01*
X109785714Y-85202380D01*
G04 #@! TO.C,R6*
X55333333Y-85452380D02*
X55000000Y-84976190D01*
X54761904Y-85452380D02*
X54761904Y-84452380D01*
X55142857Y-84452380D01*
X55238095Y-84500000D01*
X55285714Y-84547619D01*
X55333333Y-84642857D01*
X55333333Y-84785714D01*
X55285714Y-84880952D01*
X55238095Y-84928571D01*
X55142857Y-84976190D01*
X54761904Y-84976190D01*
X56190476Y-84452380D02*
X56000000Y-84452380D01*
X55904761Y-84500000D01*
X55857142Y-84547619D01*
X55761904Y-84690476D01*
X55714285Y-84880952D01*
X55714285Y-85261904D01*
X55761904Y-85357142D01*
X55809523Y-85404761D01*
X55904761Y-85452380D01*
X56095238Y-85452380D01*
X56190476Y-85404761D01*
X56238095Y-85357142D01*
X56285714Y-85261904D01*
X56285714Y-85023809D01*
X56238095Y-84928571D01*
X56190476Y-84880952D01*
X56095238Y-84833333D01*
X55904761Y-84833333D01*
X55809523Y-84880952D01*
X55761904Y-84928571D01*
X55714285Y-85023809D01*
G04 #@! TO.C,R35*
X59607142Y-67452380D02*
X59273809Y-66976190D01*
X59035714Y-67452380D02*
X59035714Y-66452380D01*
X59416666Y-66452380D01*
X59511904Y-66500000D01*
X59559523Y-66547619D01*
X59607142Y-66642857D01*
X59607142Y-66785714D01*
X59559523Y-66880952D01*
X59511904Y-66928571D01*
X59416666Y-66976190D01*
X59035714Y-66976190D01*
X59940476Y-66452380D02*
X60559523Y-66452380D01*
X60226190Y-66833333D01*
X60369047Y-66833333D01*
X60464285Y-66880952D01*
X60511904Y-66928571D01*
X60559523Y-67023809D01*
X60559523Y-67261904D01*
X60511904Y-67357142D01*
X60464285Y-67404761D01*
X60369047Y-67452380D01*
X60083333Y-67452380D01*
X59988095Y-67404761D01*
X59940476Y-67357142D01*
X61464285Y-66452380D02*
X60988095Y-66452380D01*
X60940476Y-66928571D01*
X60988095Y-66880952D01*
X61083333Y-66833333D01*
X61321428Y-66833333D01*
X61416666Y-66880952D01*
X61464285Y-66928571D01*
X61511904Y-67023809D01*
X61511904Y-67261904D01*
X61464285Y-67357142D01*
X61416666Y-67404761D01*
X61321428Y-67452380D01*
X61083333Y-67452380D01*
X60988095Y-67404761D01*
X60940476Y-67357142D01*
G04 #@! TO.C,R32*
X111357142Y-87202380D02*
X111023809Y-86726190D01*
X110785714Y-87202380D02*
X110785714Y-86202380D01*
X111166666Y-86202380D01*
X111261904Y-86250000D01*
X111309523Y-86297619D01*
X111357142Y-86392857D01*
X111357142Y-86535714D01*
X111309523Y-86630952D01*
X111261904Y-86678571D01*
X111166666Y-86726190D01*
X110785714Y-86726190D01*
X111690476Y-86202380D02*
X112309523Y-86202380D01*
X111976190Y-86583333D01*
X112119047Y-86583333D01*
X112214285Y-86630952D01*
X112261904Y-86678571D01*
X112309523Y-86773809D01*
X112309523Y-87011904D01*
X112261904Y-87107142D01*
X112214285Y-87154761D01*
X112119047Y-87202380D01*
X111833333Y-87202380D01*
X111738095Y-87154761D01*
X111690476Y-87107142D01*
X112690476Y-86297619D02*
X112738095Y-86250000D01*
X112833333Y-86202380D01*
X113071428Y-86202380D01*
X113166666Y-86250000D01*
X113214285Y-86297619D01*
X113261904Y-86392857D01*
X113261904Y-86488095D01*
X113214285Y-86630952D01*
X112642857Y-87202380D01*
X113261904Y-87202380D01*
G04 #@! TO.C,R36*
X57357142Y-87202380D02*
X57023809Y-86726190D01*
X56785714Y-87202380D02*
X56785714Y-86202380D01*
X57166666Y-86202380D01*
X57261904Y-86250000D01*
X57309523Y-86297619D01*
X57357142Y-86392857D01*
X57357142Y-86535714D01*
X57309523Y-86630952D01*
X57261904Y-86678571D01*
X57166666Y-86726190D01*
X56785714Y-86726190D01*
X57690476Y-86202380D02*
X58309523Y-86202380D01*
X57976190Y-86583333D01*
X58119047Y-86583333D01*
X58214285Y-86630952D01*
X58261904Y-86678571D01*
X58309523Y-86773809D01*
X58309523Y-87011904D01*
X58261904Y-87107142D01*
X58214285Y-87154761D01*
X58119047Y-87202380D01*
X57833333Y-87202380D01*
X57738095Y-87154761D01*
X57690476Y-87107142D01*
X59166666Y-86202380D02*
X58976190Y-86202380D01*
X58880952Y-86250000D01*
X58833333Y-86297619D01*
X58738095Y-86440476D01*
X58690476Y-86630952D01*
X58690476Y-87011904D01*
X58738095Y-87107142D01*
X58785714Y-87154761D01*
X58880952Y-87202380D01*
X59071428Y-87202380D01*
X59166666Y-87154761D01*
X59214285Y-87107142D01*
X59261904Y-87011904D01*
X59261904Y-86773809D01*
X59214285Y-86678571D01*
X59166666Y-86630952D01*
X59071428Y-86583333D01*
X58880952Y-86583333D01*
X58785714Y-86630952D01*
X58738095Y-86678571D01*
X58690476Y-86773809D01*
G04 #@! TO.C,Rv1*
X57202380Y-113702380D02*
X56869047Y-113226190D01*
X56630952Y-113702380D02*
X56630952Y-112702380D01*
X57011904Y-112702380D01*
X57107142Y-112750000D01*
X57154761Y-112797619D01*
X57202380Y-112892857D01*
X57202380Y-113035714D01*
X57154761Y-113130952D01*
X57107142Y-113178571D01*
X57011904Y-113226190D01*
X56630952Y-113226190D01*
X57535714Y-113035714D02*
X57773809Y-113702380D01*
X58011904Y-113035714D01*
X58916666Y-113702380D02*
X58345238Y-113702380D01*
X58630952Y-113702380D02*
X58630952Y-112702380D01*
X58535714Y-112845238D01*
X58440476Y-112940476D01*
X58345238Y-112988095D01*
G04 #@! TO.C,Rv2*
X57202380Y-116702380D02*
X56869047Y-116226190D01*
X56630952Y-116702380D02*
X56630952Y-115702380D01*
X57011904Y-115702380D01*
X57107142Y-115750000D01*
X57154761Y-115797619D01*
X57202380Y-115892857D01*
X57202380Y-116035714D01*
X57154761Y-116130952D01*
X57107142Y-116178571D01*
X57011904Y-116226190D01*
X56630952Y-116226190D01*
X57535714Y-116035714D02*
X57773809Y-116702380D01*
X58011904Y-116035714D01*
X58345238Y-115797619D02*
X58392857Y-115750000D01*
X58488095Y-115702380D01*
X58726190Y-115702380D01*
X58821428Y-115750000D01*
X58869047Y-115797619D01*
X58916666Y-115892857D01*
X58916666Y-115988095D01*
X58869047Y-116130952D01*
X58297619Y-116702380D01*
X58916666Y-116702380D01*
G04 #@! TO.C,Rv3*
X57202380Y-103602380D02*
X56869047Y-103126190D01*
X56630952Y-103602380D02*
X56630952Y-102602380D01*
X57011904Y-102602380D01*
X57107142Y-102650000D01*
X57154761Y-102697619D01*
X57202380Y-102792857D01*
X57202380Y-102935714D01*
X57154761Y-103030952D01*
X57107142Y-103078571D01*
X57011904Y-103126190D01*
X56630952Y-103126190D01*
X57535714Y-102935714D02*
X57773809Y-103602380D01*
X58011904Y-102935714D01*
X58297619Y-102602380D02*
X58916666Y-102602380D01*
X58583333Y-102983333D01*
X58726190Y-102983333D01*
X58821428Y-103030952D01*
X58869047Y-103078571D01*
X58916666Y-103173809D01*
X58916666Y-103411904D01*
X58869047Y-103507142D01*
X58821428Y-103554761D01*
X58726190Y-103602380D01*
X58440476Y-103602380D01*
X58345238Y-103554761D01*
X58297619Y-103507142D01*
G04 #@! TO.C,Rv4*
X57202380Y-106602380D02*
X56869047Y-106126190D01*
X56630952Y-106602380D02*
X56630952Y-105602380D01*
X57011904Y-105602380D01*
X57107142Y-105650000D01*
X57154761Y-105697619D01*
X57202380Y-105792857D01*
X57202380Y-105935714D01*
X57154761Y-106030952D01*
X57107142Y-106078571D01*
X57011904Y-106126190D01*
X56630952Y-106126190D01*
X57535714Y-105935714D02*
X57773809Y-106602380D01*
X58011904Y-105935714D01*
X58821428Y-105935714D02*
X58821428Y-106602380D01*
X58583333Y-105554761D02*
X58345238Y-106269047D01*
X58964285Y-106269047D01*
G04 #@! TO.C,Rv5*
X122702380Y-116952380D02*
X122369047Y-116476190D01*
X122130952Y-116952380D02*
X122130952Y-115952380D01*
X122511904Y-115952380D01*
X122607142Y-116000000D01*
X122654761Y-116047619D01*
X122702380Y-116142857D01*
X122702380Y-116285714D01*
X122654761Y-116380952D01*
X122607142Y-116428571D01*
X122511904Y-116476190D01*
X122130952Y-116476190D01*
X123035714Y-116285714D02*
X123273809Y-116952380D01*
X123511904Y-116285714D01*
X124369047Y-115952380D02*
X123892857Y-115952380D01*
X123845238Y-116428571D01*
X123892857Y-116380952D01*
X123988095Y-116333333D01*
X124226190Y-116333333D01*
X124321428Y-116380952D01*
X124369047Y-116428571D01*
X124416666Y-116523809D01*
X124416666Y-116761904D01*
X124369047Y-116857142D01*
X124321428Y-116904761D01*
X124226190Y-116952380D01*
X123988095Y-116952380D01*
X123892857Y-116904761D01*
X123845238Y-116857142D01*
G04 #@! TO.C,Rv6*
X122702380Y-113452380D02*
X122369047Y-112976190D01*
X122130952Y-113452380D02*
X122130952Y-112452380D01*
X122511904Y-112452380D01*
X122607142Y-112500000D01*
X122654761Y-112547619D01*
X122702380Y-112642857D01*
X122702380Y-112785714D01*
X122654761Y-112880952D01*
X122607142Y-112928571D01*
X122511904Y-112976190D01*
X122130952Y-112976190D01*
X123035714Y-112785714D02*
X123273809Y-113452380D01*
X123511904Y-112785714D01*
X124321428Y-112452380D02*
X124130952Y-112452380D01*
X124035714Y-112500000D01*
X123988095Y-112547619D01*
X123892857Y-112690476D01*
X123845238Y-112880952D01*
X123845238Y-113261904D01*
X123892857Y-113357142D01*
X123940476Y-113404761D01*
X124035714Y-113452380D01*
X124226190Y-113452380D01*
X124321428Y-113404761D01*
X124369047Y-113357142D01*
X124416666Y-113261904D01*
X124416666Y-113023809D01*
X124369047Y-112928571D01*
X124321428Y-112880952D01*
X124226190Y-112833333D01*
X124035714Y-112833333D01*
X123940476Y-112880952D01*
X123892857Y-112928571D01*
X123845238Y-113023809D01*
G04 #@! TO.C,Rbleed1*
X123009523Y-85252380D02*
X122676190Y-84776190D01*
X122438095Y-85252380D02*
X122438095Y-84252380D01*
X122819047Y-84252380D01*
X122914285Y-84300000D01*
X122961904Y-84347619D01*
X123009523Y-84442857D01*
X123009523Y-84585714D01*
X122961904Y-84680952D01*
X122914285Y-84728571D01*
X122819047Y-84776190D01*
X122438095Y-84776190D01*
X123438095Y-85252380D02*
X123438095Y-84252380D01*
X123438095Y-84633333D02*
X123533333Y-84585714D01*
X123723809Y-84585714D01*
X123819047Y-84633333D01*
X123866666Y-84680952D01*
X123914285Y-84776190D01*
X123914285Y-85061904D01*
X123866666Y-85157142D01*
X123819047Y-85204761D01*
X123723809Y-85252380D01*
X123533333Y-85252380D01*
X123438095Y-85204761D01*
X124485714Y-85252380D02*
X124390476Y-85204761D01*
X124342857Y-85109523D01*
X124342857Y-84252380D01*
X125247619Y-85204761D02*
X125152380Y-85252380D01*
X124961904Y-85252380D01*
X124866666Y-85204761D01*
X124819047Y-85109523D01*
X124819047Y-84728571D01*
X124866666Y-84633333D01*
X124961904Y-84585714D01*
X125152380Y-84585714D01*
X125247619Y-84633333D01*
X125295238Y-84728571D01*
X125295238Y-84823809D01*
X124819047Y-84919047D01*
X126104761Y-85204761D02*
X126009523Y-85252380D01*
X125819047Y-85252380D01*
X125723809Y-85204761D01*
X125676190Y-85109523D01*
X125676190Y-84728571D01*
X125723809Y-84633333D01*
X125819047Y-84585714D01*
X126009523Y-84585714D01*
X126104761Y-84633333D01*
X126152380Y-84728571D01*
X126152380Y-84823809D01*
X125676190Y-84919047D01*
X127009523Y-85252380D02*
X127009523Y-84252380D01*
X127009523Y-85204761D02*
X126914285Y-85252380D01*
X126723809Y-85252380D01*
X126628571Y-85204761D01*
X126580952Y-85157142D01*
X126533333Y-85061904D01*
X126533333Y-84776190D01*
X126580952Y-84680952D01*
X126628571Y-84633333D01*
X126723809Y-84585714D01*
X126914285Y-84585714D01*
X127009523Y-84633333D01*
X128009523Y-85252380D02*
X127438095Y-85252380D01*
X127723809Y-85252380D02*
X127723809Y-84252380D01*
X127628571Y-84395238D01*
X127533333Y-84490476D01*
X127438095Y-84538095D01*
G04 #@! TO.C,Rbleed2*
X129809523Y-85252380D02*
X129476190Y-84776190D01*
X129238095Y-85252380D02*
X129238095Y-84252380D01*
X129619047Y-84252380D01*
X129714285Y-84300000D01*
X129761904Y-84347619D01*
X129809523Y-84442857D01*
X129809523Y-84585714D01*
X129761904Y-84680952D01*
X129714285Y-84728571D01*
X129619047Y-84776190D01*
X129238095Y-84776190D01*
X130238095Y-85252380D02*
X130238095Y-84252380D01*
X130238095Y-84633333D02*
X130333333Y-84585714D01*
X130523809Y-84585714D01*
X130619047Y-84633333D01*
X130666666Y-84680952D01*
X130714285Y-84776190D01*
X130714285Y-85061904D01*
X130666666Y-85157142D01*
X130619047Y-85204761D01*
X130523809Y-85252380D01*
X130333333Y-85252380D01*
X130238095Y-85204761D01*
X131285714Y-85252380D02*
X131190476Y-85204761D01*
X131142857Y-85109523D01*
X131142857Y-84252380D01*
X132047619Y-85204761D02*
X131952380Y-85252380D01*
X131761904Y-85252380D01*
X131666666Y-85204761D01*
X131619047Y-85109523D01*
X131619047Y-84728571D01*
X131666666Y-84633333D01*
X131761904Y-84585714D01*
X131952380Y-84585714D01*
X132047619Y-84633333D01*
X132095238Y-84728571D01*
X132095238Y-84823809D01*
X131619047Y-84919047D01*
X132904761Y-85204761D02*
X132809523Y-85252380D01*
X132619047Y-85252380D01*
X132523809Y-85204761D01*
X132476190Y-85109523D01*
X132476190Y-84728571D01*
X132523809Y-84633333D01*
X132619047Y-84585714D01*
X132809523Y-84585714D01*
X132904761Y-84633333D01*
X132952380Y-84728571D01*
X132952380Y-84823809D01*
X132476190Y-84919047D01*
X133809523Y-85252380D02*
X133809523Y-84252380D01*
X133809523Y-85204761D02*
X133714285Y-85252380D01*
X133523809Y-85252380D01*
X133428571Y-85204761D01*
X133380952Y-85157142D01*
X133333333Y-85061904D01*
X133333333Y-84776190D01*
X133380952Y-84680952D01*
X133428571Y-84633333D01*
X133523809Y-84585714D01*
X133714285Y-84585714D01*
X133809523Y-84633333D01*
X134238095Y-84347619D02*
X134285714Y-84300000D01*
X134380952Y-84252380D01*
X134619047Y-84252380D01*
X134714285Y-84300000D01*
X134761904Y-84347619D01*
X134809523Y-84442857D01*
X134809523Y-84538095D01*
X134761904Y-84680952D01*
X134190476Y-85252380D01*
X134809523Y-85252380D01*
G04 #@! TO.C,C3*
X49333333Y-103422143D02*
X49285714Y-103469762D01*
X49142857Y-103517381D01*
X49047619Y-103517381D01*
X48904761Y-103469762D01*
X48809523Y-103374524D01*
X48761904Y-103279286D01*
X48714285Y-103088810D01*
X48714285Y-102945953D01*
X48761904Y-102755477D01*
X48809523Y-102660239D01*
X48904761Y-102565001D01*
X49047619Y-102517381D01*
X49142857Y-102517381D01*
X49285714Y-102565001D01*
X49333333Y-102612620D01*
X49666666Y-102517381D02*
X50285714Y-102517381D01*
X49952380Y-102898334D01*
X50095238Y-102898334D01*
X50190476Y-102945953D01*
X50238095Y-102993572D01*
X50285714Y-103088810D01*
X50285714Y-103326905D01*
X50238095Y-103422143D01*
X50190476Y-103469762D01*
X50095238Y-103517381D01*
X49809523Y-103517381D01*
X49714285Y-103469762D01*
X49666666Y-103422143D01*
G04 #@! TO.C,C6*
X49633333Y-111157142D02*
X49585714Y-111204761D01*
X49442857Y-111252380D01*
X49347619Y-111252380D01*
X49204761Y-111204761D01*
X49109523Y-111109523D01*
X49061904Y-111014285D01*
X49014285Y-110823809D01*
X49014285Y-110680952D01*
X49061904Y-110490476D01*
X49109523Y-110395238D01*
X49204761Y-110300000D01*
X49347619Y-110252380D01*
X49442857Y-110252380D01*
X49585714Y-110300000D01*
X49633333Y-110347619D01*
X50490476Y-110252380D02*
X50300000Y-110252380D01*
X50204761Y-110300000D01*
X50157142Y-110347619D01*
X50061904Y-110490476D01*
X50014285Y-110680952D01*
X50014285Y-111061904D01*
X50061904Y-111157142D01*
X50109523Y-111204761D01*
X50204761Y-111252380D01*
X50395238Y-111252380D01*
X50490476Y-111204761D01*
X50538095Y-111157142D01*
X50585714Y-111061904D01*
X50585714Y-110823809D01*
X50538095Y-110728571D01*
X50490476Y-110680952D01*
X50395238Y-110633333D01*
X50204761Y-110633333D01*
X50109523Y-110680952D01*
X50061904Y-110728571D01*
X50014285Y-110823809D01*
G04 #@! TO.C,C7*
X49333333Y-96607142D02*
X49285714Y-96654761D01*
X49142857Y-96702380D01*
X49047619Y-96702380D01*
X48904761Y-96654761D01*
X48809523Y-96559523D01*
X48761904Y-96464285D01*
X48714285Y-96273809D01*
X48714285Y-96130952D01*
X48761904Y-95940476D01*
X48809523Y-95845238D01*
X48904761Y-95750000D01*
X49047619Y-95702380D01*
X49142857Y-95702380D01*
X49285714Y-95750000D01*
X49333333Y-95797619D01*
X49666666Y-95702380D02*
X50333333Y-95702380D01*
X49904761Y-96702380D01*
G04 #@! TO.C,C8*
X49633333Y-107857142D02*
X49585714Y-107904761D01*
X49442857Y-107952380D01*
X49347619Y-107952380D01*
X49204761Y-107904761D01*
X49109523Y-107809523D01*
X49061904Y-107714285D01*
X49014285Y-107523809D01*
X49014285Y-107380952D01*
X49061904Y-107190476D01*
X49109523Y-107095238D01*
X49204761Y-107000000D01*
X49347619Y-106952380D01*
X49442857Y-106952380D01*
X49585714Y-107000000D01*
X49633333Y-107047619D01*
X50204761Y-107380952D02*
X50109523Y-107333333D01*
X50061904Y-107285714D01*
X50014285Y-107190476D01*
X50014285Y-107142857D01*
X50061904Y-107047619D01*
X50109523Y-107000000D01*
X50204761Y-106952380D01*
X50395238Y-106952380D01*
X50490476Y-107000000D01*
X50538095Y-107047619D01*
X50585714Y-107142857D01*
X50585714Y-107190476D01*
X50538095Y-107285714D01*
X50490476Y-107333333D01*
X50395238Y-107380952D01*
X50204761Y-107380952D01*
X50109523Y-107428571D01*
X50061904Y-107476190D01*
X50014285Y-107571428D01*
X50014285Y-107761904D01*
X50061904Y-107857142D01*
X50109523Y-107904761D01*
X50204761Y-107952380D01*
X50395238Y-107952380D01*
X50490476Y-107904761D01*
X50538095Y-107857142D01*
X50585714Y-107761904D01*
X50585714Y-107571428D01*
X50538095Y-107476190D01*
X50490476Y-107428571D01*
X50395238Y-107380952D01*
G04 #@! TO.C,C9*
X49333333Y-100107142D02*
X49285714Y-100154761D01*
X49142857Y-100202380D01*
X49047619Y-100202380D01*
X48904761Y-100154761D01*
X48809523Y-100059523D01*
X48761904Y-99964285D01*
X48714285Y-99773809D01*
X48714285Y-99630952D01*
X48761904Y-99440476D01*
X48809523Y-99345238D01*
X48904761Y-99250000D01*
X49047619Y-99202380D01*
X49142857Y-99202380D01*
X49285714Y-99250000D01*
X49333333Y-99297619D01*
X49809523Y-100202380D02*
X50000000Y-100202380D01*
X50095238Y-100154761D01*
X50142857Y-100107142D01*
X50238095Y-99964285D01*
X50285714Y-99773809D01*
X50285714Y-99392857D01*
X50238095Y-99297619D01*
X50190476Y-99250000D01*
X50095238Y-99202380D01*
X49904761Y-99202380D01*
X49809523Y-99250000D01*
X49761904Y-99297619D01*
X49714285Y-99392857D01*
X49714285Y-99630952D01*
X49761904Y-99726190D01*
X49809523Y-99773809D01*
X49904761Y-99821428D01*
X50095238Y-99821428D01*
X50190476Y-99773809D01*
X50238095Y-99726190D01*
X50285714Y-99630952D01*
G04 #@! TO.C,C10*
X49607142Y-114607142D02*
X49559523Y-114654761D01*
X49416666Y-114702380D01*
X49321428Y-114702380D01*
X49178571Y-114654761D01*
X49083333Y-114559523D01*
X49035714Y-114464285D01*
X48988095Y-114273809D01*
X48988095Y-114130952D01*
X49035714Y-113940476D01*
X49083333Y-113845238D01*
X49178571Y-113750000D01*
X49321428Y-113702380D01*
X49416666Y-113702380D01*
X49559523Y-113750000D01*
X49607142Y-113797619D01*
X50559523Y-114702380D02*
X49988095Y-114702380D01*
X50273809Y-114702380D02*
X50273809Y-113702380D01*
X50178571Y-113845238D01*
X50083333Y-113940476D01*
X49988095Y-113988095D01*
X51178571Y-113702380D02*
X51273809Y-113702380D01*
X51369047Y-113750000D01*
X51416666Y-113797619D01*
X51464285Y-113892857D01*
X51511904Y-114083333D01*
X51511904Y-114321428D01*
X51464285Y-114511904D01*
X51416666Y-114607142D01*
X51369047Y-114654761D01*
X51273809Y-114702380D01*
X51178571Y-114702380D01*
X51083333Y-114654761D01*
X51035714Y-114607142D01*
X50988095Y-114511904D01*
X50940476Y-114321428D01*
X50940476Y-114083333D01*
X50988095Y-113892857D01*
X51035714Y-113797619D01*
X51083333Y-113750000D01*
X51178571Y-113702380D01*
G04 #@! TO.C,C14*
X134357142Y-90142857D02*
X134404761Y-90190476D01*
X134452380Y-90333333D01*
X134452380Y-90428571D01*
X134404761Y-90571428D01*
X134309523Y-90666666D01*
X134214285Y-90714285D01*
X134023809Y-90761904D01*
X133880952Y-90761904D01*
X133690476Y-90714285D01*
X133595238Y-90666666D01*
X133500000Y-90571428D01*
X133452380Y-90428571D01*
X133452380Y-90333333D01*
X133500000Y-90190476D01*
X133547619Y-90142857D01*
X134452380Y-89190476D02*
X134452380Y-89761904D01*
X134452380Y-89476190D02*
X133452380Y-89476190D01*
X133595238Y-89571428D01*
X133690476Y-89666666D01*
X133738095Y-89761904D01*
X133785714Y-88333333D02*
X134452380Y-88333333D01*
X133404761Y-88571428D02*
X134119047Y-88809523D01*
X134119047Y-88190476D01*
G04 #@! TO.C,C15*
X122857142Y-93642857D02*
X122904761Y-93690476D01*
X122952380Y-93833333D01*
X122952380Y-93928571D01*
X122904761Y-94071428D01*
X122809523Y-94166666D01*
X122714285Y-94214285D01*
X122523809Y-94261904D01*
X122380952Y-94261904D01*
X122190476Y-94214285D01*
X122095238Y-94166666D01*
X122000000Y-94071428D01*
X121952380Y-93928571D01*
X121952380Y-93833333D01*
X122000000Y-93690476D01*
X122047619Y-93642857D01*
X122952380Y-92690476D02*
X122952380Y-93261904D01*
X122952380Y-92976190D02*
X121952380Y-92976190D01*
X122095238Y-93071428D01*
X122190476Y-93166666D01*
X122238095Y-93261904D01*
X121952380Y-91785714D02*
X121952380Y-92261904D01*
X122428571Y-92309523D01*
X122380952Y-92261904D01*
X122333333Y-92166666D01*
X122333333Y-91928571D01*
X122380952Y-91833333D01*
X122428571Y-91785714D01*
X122523809Y-91738095D01*
X122761904Y-91738095D01*
X122857142Y-91785714D01*
X122904761Y-91833333D01*
X122952380Y-91928571D01*
X122952380Y-92166666D01*
X122904761Y-92261904D01*
X122857142Y-92309523D01*
G04 #@! TO.C,C16*
X134357142Y-94142857D02*
X134404761Y-94190476D01*
X134452380Y-94333333D01*
X134452380Y-94428571D01*
X134404761Y-94571428D01*
X134309523Y-94666666D01*
X134214285Y-94714285D01*
X134023809Y-94761904D01*
X133880952Y-94761904D01*
X133690476Y-94714285D01*
X133595238Y-94666666D01*
X133500000Y-94571428D01*
X133452380Y-94428571D01*
X133452380Y-94333333D01*
X133500000Y-94190476D01*
X133547619Y-94142857D01*
X134452380Y-93190476D02*
X134452380Y-93761904D01*
X134452380Y-93476190D02*
X133452380Y-93476190D01*
X133595238Y-93571428D01*
X133690476Y-93666666D01*
X133738095Y-93761904D01*
X133452380Y-92333333D02*
X133452380Y-92523809D01*
X133500000Y-92619047D01*
X133547619Y-92666666D01*
X133690476Y-92761904D01*
X133880952Y-92809523D01*
X134261904Y-92809523D01*
X134357142Y-92761904D01*
X134404761Y-92714285D01*
X134452380Y-92619047D01*
X134452380Y-92428571D01*
X134404761Y-92333333D01*
X134357142Y-92285714D01*
X134261904Y-92238095D01*
X134023809Y-92238095D01*
X133928571Y-92285714D01*
X133880952Y-92333333D01*
X133833333Y-92428571D01*
X133833333Y-92619047D01*
X133880952Y-92714285D01*
X133928571Y-92761904D01*
X134023809Y-92809523D01*
G04 #@! TO.C,C17*
X122857142Y-97642857D02*
X122904761Y-97690476D01*
X122952380Y-97833333D01*
X122952380Y-97928571D01*
X122904761Y-98071428D01*
X122809523Y-98166666D01*
X122714285Y-98214285D01*
X122523809Y-98261904D01*
X122380952Y-98261904D01*
X122190476Y-98214285D01*
X122095238Y-98166666D01*
X122000000Y-98071428D01*
X121952380Y-97928571D01*
X121952380Y-97833333D01*
X122000000Y-97690476D01*
X122047619Y-97642857D01*
X122952380Y-96690476D02*
X122952380Y-97261904D01*
X122952380Y-96976190D02*
X121952380Y-96976190D01*
X122095238Y-97071428D01*
X122190476Y-97166666D01*
X122238095Y-97261904D01*
X121952380Y-96357142D02*
X121952380Y-95690476D01*
X122952380Y-96119047D01*
G04 #@! TO.C,C18*
X134357142Y-97642857D02*
X134404761Y-97690476D01*
X134452380Y-97833333D01*
X134452380Y-97928571D01*
X134404761Y-98071428D01*
X134309523Y-98166666D01*
X134214285Y-98214285D01*
X134023809Y-98261904D01*
X133880952Y-98261904D01*
X133690476Y-98214285D01*
X133595238Y-98166666D01*
X133500000Y-98071428D01*
X133452380Y-97928571D01*
X133452380Y-97833333D01*
X133500000Y-97690476D01*
X133547619Y-97642857D01*
X134452380Y-96690476D02*
X134452380Y-97261904D01*
X134452380Y-96976190D02*
X133452380Y-96976190D01*
X133595238Y-97071428D01*
X133690476Y-97166666D01*
X133738095Y-97261904D01*
X133880952Y-96119047D02*
X133833333Y-96214285D01*
X133785714Y-96261904D01*
X133690476Y-96309523D01*
X133642857Y-96309523D01*
X133547619Y-96261904D01*
X133500000Y-96214285D01*
X133452380Y-96119047D01*
X133452380Y-95928571D01*
X133500000Y-95833333D01*
X133547619Y-95785714D01*
X133642857Y-95738095D01*
X133690476Y-95738095D01*
X133785714Y-95785714D01*
X133833333Y-95833333D01*
X133880952Y-95928571D01*
X133880952Y-96119047D01*
X133928571Y-96214285D01*
X133976190Y-96261904D01*
X134071428Y-96309523D01*
X134261904Y-96309523D01*
X134357142Y-96261904D01*
X134404761Y-96214285D01*
X134452380Y-96119047D01*
X134452380Y-95928571D01*
X134404761Y-95833333D01*
X134357142Y-95785714D01*
X134261904Y-95738095D01*
X134071428Y-95738095D01*
X133976190Y-95785714D01*
X133928571Y-95833333D01*
X133880952Y-95928571D01*
G04 #@! TO.C,C19*
X122857142Y-101642857D02*
X122904761Y-101690476D01*
X122952380Y-101833333D01*
X122952380Y-101928571D01*
X122904761Y-102071428D01*
X122809523Y-102166666D01*
X122714285Y-102214285D01*
X122523809Y-102261904D01*
X122380952Y-102261904D01*
X122190476Y-102214285D01*
X122095238Y-102166666D01*
X122000000Y-102071428D01*
X121952380Y-101928571D01*
X121952380Y-101833333D01*
X122000000Y-101690476D01*
X122047619Y-101642857D01*
X122952380Y-100690476D02*
X122952380Y-101261904D01*
X122952380Y-100976190D02*
X121952380Y-100976190D01*
X122095238Y-101071428D01*
X122190476Y-101166666D01*
X122238095Y-101261904D01*
X122952380Y-100214285D02*
X122952380Y-100023809D01*
X122904761Y-99928571D01*
X122857142Y-99880952D01*
X122714285Y-99785714D01*
X122523809Y-99738095D01*
X122142857Y-99738095D01*
X122047619Y-99785714D01*
X122000000Y-99833333D01*
X121952380Y-99928571D01*
X121952380Y-100119047D01*
X122000000Y-100214285D01*
X122047619Y-100261904D01*
X122142857Y-100309523D01*
X122380952Y-100309523D01*
X122476190Y-100261904D01*
X122523809Y-100214285D01*
X122571428Y-100119047D01*
X122571428Y-99928571D01*
X122523809Y-99833333D01*
X122476190Y-99785714D01*
X122380952Y-99738095D01*
G04 #@! TO.C,C20*
X134357142Y-101642857D02*
X134404761Y-101690476D01*
X134452380Y-101833333D01*
X134452380Y-101928571D01*
X134404761Y-102071428D01*
X134309523Y-102166666D01*
X134214285Y-102214285D01*
X134023809Y-102261904D01*
X133880952Y-102261904D01*
X133690476Y-102214285D01*
X133595238Y-102166666D01*
X133500000Y-102071428D01*
X133452380Y-101928571D01*
X133452380Y-101833333D01*
X133500000Y-101690476D01*
X133547619Y-101642857D01*
X133547619Y-101261904D02*
X133500000Y-101214285D01*
X133452380Y-101119047D01*
X133452380Y-100880952D01*
X133500000Y-100785714D01*
X133547619Y-100738095D01*
X133642857Y-100690476D01*
X133738095Y-100690476D01*
X133880952Y-100738095D01*
X134452380Y-101309523D01*
X134452380Y-100690476D01*
X133452380Y-100071428D02*
X133452380Y-99976190D01*
X133500000Y-99880952D01*
X133547619Y-99833333D01*
X133642857Y-99785714D01*
X133833333Y-99738095D01*
X134071428Y-99738095D01*
X134261904Y-99785714D01*
X134357142Y-99833333D01*
X134404761Y-99880952D01*
X134452380Y-99976190D01*
X134452380Y-100071428D01*
X134404761Y-100166666D01*
X134357142Y-100214285D01*
X134261904Y-100261904D01*
X134071428Y-100309523D01*
X133833333Y-100309523D01*
X133642857Y-100261904D01*
X133547619Y-100214285D01*
X133500000Y-100166666D01*
X133452380Y-100071428D01*
G04 #@! TO.C,C21*
X122857142Y-105642857D02*
X122904761Y-105690476D01*
X122952380Y-105833333D01*
X122952380Y-105928571D01*
X122904761Y-106071428D01*
X122809523Y-106166666D01*
X122714285Y-106214285D01*
X122523809Y-106261904D01*
X122380952Y-106261904D01*
X122190476Y-106214285D01*
X122095238Y-106166666D01*
X122000000Y-106071428D01*
X121952380Y-105928571D01*
X121952380Y-105833333D01*
X122000000Y-105690476D01*
X122047619Y-105642857D01*
X122047619Y-105261904D02*
X122000000Y-105214285D01*
X121952380Y-105119047D01*
X121952380Y-104880952D01*
X122000000Y-104785714D01*
X122047619Y-104738095D01*
X122142857Y-104690476D01*
X122238095Y-104690476D01*
X122380952Y-104738095D01*
X122952380Y-105309523D01*
X122952380Y-104690476D01*
X122952380Y-103738095D02*
X122952380Y-104309523D01*
X122952380Y-104023809D02*
X121952380Y-104023809D01*
X122095238Y-104119047D01*
X122190476Y-104214285D01*
X122238095Y-104309523D01*
G04 #@! TO.C,C23*
X134357142Y-105642857D02*
X134404761Y-105690476D01*
X134452380Y-105833333D01*
X134452380Y-105928571D01*
X134404761Y-106071428D01*
X134309523Y-106166666D01*
X134214285Y-106214285D01*
X134023809Y-106261904D01*
X133880952Y-106261904D01*
X133690476Y-106214285D01*
X133595238Y-106166666D01*
X133500000Y-106071428D01*
X133452380Y-105928571D01*
X133452380Y-105833333D01*
X133500000Y-105690476D01*
X133547619Y-105642857D01*
X133547619Y-105261904D02*
X133500000Y-105214285D01*
X133452380Y-105119047D01*
X133452380Y-104880952D01*
X133500000Y-104785714D01*
X133547619Y-104738095D01*
X133642857Y-104690476D01*
X133738095Y-104690476D01*
X133880952Y-104738095D01*
X134452380Y-105309523D01*
X134452380Y-104690476D01*
X133452380Y-104357142D02*
X133452380Y-103738095D01*
X133833333Y-104071428D01*
X133833333Y-103928571D01*
X133880952Y-103833333D01*
X133928571Y-103785714D01*
X134023809Y-103738095D01*
X134261904Y-103738095D01*
X134357142Y-103785714D01*
X134404761Y-103833333D01*
X134452380Y-103928571D01*
X134452380Y-104214285D01*
X134404761Y-104309523D01*
X134357142Y-104357142D01*
G04 #@! TO.C,C25*
X122857142Y-109142857D02*
X122904761Y-109190476D01*
X122952380Y-109333333D01*
X122952380Y-109428571D01*
X122904761Y-109571428D01*
X122809523Y-109666666D01*
X122714285Y-109714285D01*
X122523809Y-109761904D01*
X122380952Y-109761904D01*
X122190476Y-109714285D01*
X122095238Y-109666666D01*
X122000000Y-109571428D01*
X121952380Y-109428571D01*
X121952380Y-109333333D01*
X122000000Y-109190476D01*
X122047619Y-109142857D01*
X122047619Y-108761904D02*
X122000000Y-108714285D01*
X121952380Y-108619047D01*
X121952380Y-108380952D01*
X122000000Y-108285714D01*
X122047619Y-108238095D01*
X122142857Y-108190476D01*
X122238095Y-108190476D01*
X122380952Y-108238095D01*
X122952380Y-108809523D01*
X122952380Y-108190476D01*
X121952380Y-107285714D02*
X121952380Y-107761904D01*
X122428571Y-107809523D01*
X122380952Y-107761904D01*
X122333333Y-107666666D01*
X122333333Y-107428571D01*
X122380952Y-107333333D01*
X122428571Y-107285714D01*
X122523809Y-107238095D01*
X122761904Y-107238095D01*
X122857142Y-107285714D01*
X122904761Y-107333333D01*
X122952380Y-107428571D01*
X122952380Y-107666666D01*
X122904761Y-107761904D01*
X122857142Y-107809523D01*
G04 #@! TO.C,C26*
X134357142Y-109142857D02*
X134404761Y-109190476D01*
X134452380Y-109333333D01*
X134452380Y-109428571D01*
X134404761Y-109571428D01*
X134309523Y-109666666D01*
X134214285Y-109714285D01*
X134023809Y-109761904D01*
X133880952Y-109761904D01*
X133690476Y-109714285D01*
X133595238Y-109666666D01*
X133500000Y-109571428D01*
X133452380Y-109428571D01*
X133452380Y-109333333D01*
X133500000Y-109190476D01*
X133547619Y-109142857D01*
X133547619Y-108761904D02*
X133500000Y-108714285D01*
X133452380Y-108619047D01*
X133452380Y-108380952D01*
X133500000Y-108285714D01*
X133547619Y-108238095D01*
X133642857Y-108190476D01*
X133738095Y-108190476D01*
X133880952Y-108238095D01*
X134452380Y-108809523D01*
X134452380Y-108190476D01*
X133452380Y-107333333D02*
X133452380Y-107523809D01*
X133500000Y-107619047D01*
X133547619Y-107666666D01*
X133690476Y-107761904D01*
X133880952Y-107809523D01*
X134261904Y-107809523D01*
X134357142Y-107761904D01*
X134404761Y-107714285D01*
X134452380Y-107619047D01*
X134452380Y-107428571D01*
X134404761Y-107333333D01*
X134357142Y-107285714D01*
X134261904Y-107238095D01*
X134023809Y-107238095D01*
X133928571Y-107285714D01*
X133880952Y-107333333D01*
X133833333Y-107428571D01*
X133833333Y-107619047D01*
X133880952Y-107714285D01*
X133928571Y-107761904D01*
X134023809Y-107809523D01*
G04 #@! TD*
M02*
