%TF.GenerationSoftware,KiCad,Pcbnew,5.1.6-c6e7f7d~86~ubuntu20.04.1*%
%TF.CreationDate,2020-09-07T12:19:27+02:00*%
%TF.ProjectId,Measurment,4d656173-7572-46d6-956e-742e6b696361,rev?*%
%TF.SameCoordinates,Original*%
%TF.FileFunction,Soldermask,Bot*%
%TF.FilePolarity,Negative*%
%FSLAX46Y46*%
G04 Gerber Fmt 4.6, Leading zero omitted, Abs format (unit mm)*
G04 Created by KiCad (PCBNEW 5.1.6-c6e7f7d~86~ubuntu20.04.1) date 2020-09-07 12:19:27*
%MOMM*%
%LPD*%
G01*
G04 APERTURE LIST*
%ADD10O,1.800000X1.800000*%
%ADD11R,1.800000X1.800000*%
%ADD12O,1.900000X3.700000*%
%ADD13O,1.600000X1.600000*%
%ADD14R,1.600000X1.600000*%
%ADD15O,2.400000X1.600000*%
%ADD16R,2.400000X1.600000*%
G04 APERTURE END LIST*
D10*
%TO.C,J1*%
X91540000Y-75500000D03*
D11*
X89000000Y-75500000D03*
D10*
X96620000Y-75500000D03*
X94080000Y-75500000D03*
D11*
X77000000Y-68000000D03*
D10*
X84620000Y-68000000D03*
X79540000Y-68000000D03*
X82080000Y-68000000D03*
X84620000Y-75500000D03*
X82080000Y-75500000D03*
D11*
X77000000Y-75500000D03*
D10*
X79540000Y-75500000D03*
X73040000Y-68000000D03*
D11*
X70500000Y-68000000D03*
X93000000Y-79500000D03*
D10*
X95540000Y-79500000D03*
D11*
X82000000Y-79500000D03*
D10*
X84540000Y-79500000D03*
D11*
X66000000Y-73500000D03*
D10*
X66000000Y-78580000D03*
X66000000Y-76040000D03*
X66000000Y-81120000D03*
%TD*%
%TO.C,J2*%
X44000000Y-46540000D03*
D11*
X44000000Y-44000000D03*
D10*
X119500000Y-94580000D03*
X119500000Y-92040000D03*
D11*
X119500000Y-89500000D03*
X70500000Y-102500000D03*
X117000000Y-102500000D03*
D10*
X73040000Y-102500000D03*
X119540000Y-102500000D03*
D11*
X70500000Y-86500000D03*
D10*
X70500000Y-89040000D03*
X70500000Y-91580000D03*
X70500000Y-94120000D03*
D11*
X97000000Y-49000000D03*
D10*
X97000000Y-51540000D03*
X85420000Y-55500000D03*
D11*
X90500000Y-55500000D03*
D10*
X87960000Y-55500000D03*
%TD*%
D12*
%TO.C,J3*%
X53810000Y-50000000D03*
G36*
G01*
X49050000Y-51586111D02*
X49050000Y-48413889D01*
G75*
G02*
X49313889Y-48150000I263889J0D01*
G01*
X50686111Y-48150000D01*
G75*
G02*
X50950000Y-48413889I0J-263889D01*
G01*
X50950000Y-51586111D01*
G75*
G02*
X50686111Y-51850000I-263889J0D01*
G01*
X49313889Y-51850000D01*
G75*
G02*
X49050000Y-51586111I0J263889D01*
G01*
G37*
%TD*%
D13*
%TO.C,U7*%
X63500000Y-56700000D03*
X63500000Y-54160000D03*
X63500000Y-51620000D03*
X63500000Y-46540000D03*
D14*
X63500000Y-44000000D03*
%TD*%
D13*
%TO.C,U1*%
X60000000Y-99200000D03*
X60000000Y-96660000D03*
X60000000Y-94120000D03*
X60000000Y-89040000D03*
D14*
X60000000Y-86500000D03*
%TD*%
D15*
%TO.C,U5*%
X38500000Y-50580000D03*
X38500000Y-48040000D03*
D16*
X38500000Y-45500000D03*
%TD*%
M02*
