%TF.GenerationSoftware,KiCad,Pcbnew,5.1.6-c6e7f7d~86~ubuntu20.04.1*%
%TF.CreationDate,2020-09-07T12:19:27+02:00*%
%TF.ProjectId,Measurment,4d656173-7572-46d6-956e-742e6b696361,rev?*%
%TF.SameCoordinates,Original*%
%TF.FileFunction,Soldermask,Top*%
%TF.FilePolarity,Negative*%
%FSLAX46Y46*%
G04 Gerber Fmt 4.6, Leading zero omitted, Abs format (unit mm)*
G04 Created by KiCad (PCBNEW 5.1.6-c6e7f7d~86~ubuntu20.04.1) date 2020-09-07 12:19:27*
%MOMM*%
%LPD*%
G01*
G04 APERTURE LIST*
%ADD10R,1.300000X1.000000*%
%ADD11O,1.800000X1.800000*%
%ADD12R,1.800000X1.800000*%
%ADD13O,1.900000X3.700000*%
%ADD14O,1.600000X1.600000*%
%ADD15R,1.600000X1.600000*%
%ADD16O,2.400000X1.600000*%
%ADD17R,2.400000X1.600000*%
%ADD18R,2.600000X2.400000*%
%ADD19R,2.100000X1.600000*%
%ADD20R,2.100000X3.900000*%
G04 APERTURE END LIST*
%TO.C,U3*%
G36*
G01*
X103270000Y-89625000D02*
X102920000Y-89625000D01*
G75*
G02*
X102745000Y-89450000I0J175000D01*
G01*
X102745000Y-87900000D01*
G75*
G02*
X102920000Y-87725000I175000J0D01*
G01*
X103270000Y-87725000D01*
G75*
G02*
X103445000Y-87900000I0J-175000D01*
G01*
X103445000Y-89450000D01*
G75*
G02*
X103270000Y-89625000I-175000J0D01*
G01*
G37*
G36*
G01*
X104540000Y-89625000D02*
X104190000Y-89625000D01*
G75*
G02*
X104015000Y-89450000I0J175000D01*
G01*
X104015000Y-87900000D01*
G75*
G02*
X104190000Y-87725000I175000J0D01*
G01*
X104540000Y-87725000D01*
G75*
G02*
X104715000Y-87900000I0J-175000D01*
G01*
X104715000Y-89450000D01*
G75*
G02*
X104540000Y-89625000I-175000J0D01*
G01*
G37*
G36*
G01*
X105810000Y-89625000D02*
X105460000Y-89625000D01*
G75*
G02*
X105285000Y-89450000I0J175000D01*
G01*
X105285000Y-87900000D01*
G75*
G02*
X105460000Y-87725000I175000J0D01*
G01*
X105810000Y-87725000D01*
G75*
G02*
X105985000Y-87900000I0J-175000D01*
G01*
X105985000Y-89450000D01*
G75*
G02*
X105810000Y-89625000I-175000J0D01*
G01*
G37*
G36*
G01*
X107080000Y-89625000D02*
X106730000Y-89625000D01*
G75*
G02*
X106555000Y-89450000I0J175000D01*
G01*
X106555000Y-87900000D01*
G75*
G02*
X106730000Y-87725000I175000J0D01*
G01*
X107080000Y-87725000D01*
G75*
G02*
X107255000Y-87900000I0J-175000D01*
G01*
X107255000Y-89450000D01*
G75*
G02*
X107080000Y-89625000I-175000J0D01*
G01*
G37*
G36*
G01*
X107080000Y-100275000D02*
X106730000Y-100275000D01*
G75*
G02*
X106555000Y-100100000I0J175000D01*
G01*
X106555000Y-98550000D01*
G75*
G02*
X106730000Y-98375000I175000J0D01*
G01*
X107080000Y-98375000D01*
G75*
G02*
X107255000Y-98550000I0J-175000D01*
G01*
X107255000Y-100100000D01*
G75*
G02*
X107080000Y-100275000I-175000J0D01*
G01*
G37*
G36*
G01*
X105810000Y-100275000D02*
X105460000Y-100275000D01*
G75*
G02*
X105285000Y-100100000I0J175000D01*
G01*
X105285000Y-98550000D01*
G75*
G02*
X105460000Y-98375000I175000J0D01*
G01*
X105810000Y-98375000D01*
G75*
G02*
X105985000Y-98550000I0J-175000D01*
G01*
X105985000Y-100100000D01*
G75*
G02*
X105810000Y-100275000I-175000J0D01*
G01*
G37*
G36*
G01*
X104540000Y-100275000D02*
X104190000Y-100275000D01*
G75*
G02*
X104015000Y-100100000I0J175000D01*
G01*
X104015000Y-98550000D01*
G75*
G02*
X104190000Y-98375000I175000J0D01*
G01*
X104540000Y-98375000D01*
G75*
G02*
X104715000Y-98550000I0J-175000D01*
G01*
X104715000Y-100100000D01*
G75*
G02*
X104540000Y-100275000I-175000J0D01*
G01*
G37*
G36*
G01*
X103270000Y-100275000D02*
X102920000Y-100275000D01*
G75*
G02*
X102745000Y-100100000I0J175000D01*
G01*
X102745000Y-98550000D01*
G75*
G02*
X102920000Y-98375000I175000J0D01*
G01*
X103270000Y-98375000D01*
G75*
G02*
X103445000Y-98550000I0J-175000D01*
G01*
X103445000Y-100100000D01*
G75*
G02*
X103270000Y-100275000I-175000J0D01*
G01*
G37*
%TD*%
%TO.C,U2*%
G36*
G01*
X83770000Y-89625000D02*
X83420000Y-89625000D01*
G75*
G02*
X83245000Y-89450000I0J175000D01*
G01*
X83245000Y-87900000D01*
G75*
G02*
X83420000Y-87725000I175000J0D01*
G01*
X83770000Y-87725000D01*
G75*
G02*
X83945000Y-87900000I0J-175000D01*
G01*
X83945000Y-89450000D01*
G75*
G02*
X83770000Y-89625000I-175000J0D01*
G01*
G37*
G36*
G01*
X85040000Y-89625000D02*
X84690000Y-89625000D01*
G75*
G02*
X84515000Y-89450000I0J175000D01*
G01*
X84515000Y-87900000D01*
G75*
G02*
X84690000Y-87725000I175000J0D01*
G01*
X85040000Y-87725000D01*
G75*
G02*
X85215000Y-87900000I0J-175000D01*
G01*
X85215000Y-89450000D01*
G75*
G02*
X85040000Y-89625000I-175000J0D01*
G01*
G37*
G36*
G01*
X86310000Y-89625000D02*
X85960000Y-89625000D01*
G75*
G02*
X85785000Y-89450000I0J175000D01*
G01*
X85785000Y-87900000D01*
G75*
G02*
X85960000Y-87725000I175000J0D01*
G01*
X86310000Y-87725000D01*
G75*
G02*
X86485000Y-87900000I0J-175000D01*
G01*
X86485000Y-89450000D01*
G75*
G02*
X86310000Y-89625000I-175000J0D01*
G01*
G37*
G36*
G01*
X87580000Y-89625000D02*
X87230000Y-89625000D01*
G75*
G02*
X87055000Y-89450000I0J175000D01*
G01*
X87055000Y-87900000D01*
G75*
G02*
X87230000Y-87725000I175000J0D01*
G01*
X87580000Y-87725000D01*
G75*
G02*
X87755000Y-87900000I0J-175000D01*
G01*
X87755000Y-89450000D01*
G75*
G02*
X87580000Y-89625000I-175000J0D01*
G01*
G37*
G36*
G01*
X87580000Y-100275000D02*
X87230000Y-100275000D01*
G75*
G02*
X87055000Y-100100000I0J175000D01*
G01*
X87055000Y-98550000D01*
G75*
G02*
X87230000Y-98375000I175000J0D01*
G01*
X87580000Y-98375000D01*
G75*
G02*
X87755000Y-98550000I0J-175000D01*
G01*
X87755000Y-100100000D01*
G75*
G02*
X87580000Y-100275000I-175000J0D01*
G01*
G37*
G36*
G01*
X86310000Y-100275000D02*
X85960000Y-100275000D01*
G75*
G02*
X85785000Y-100100000I0J175000D01*
G01*
X85785000Y-98550000D01*
G75*
G02*
X85960000Y-98375000I175000J0D01*
G01*
X86310000Y-98375000D01*
G75*
G02*
X86485000Y-98550000I0J-175000D01*
G01*
X86485000Y-100100000D01*
G75*
G02*
X86310000Y-100275000I-175000J0D01*
G01*
G37*
G36*
G01*
X85040000Y-100275000D02*
X84690000Y-100275000D01*
G75*
G02*
X84515000Y-100100000I0J175000D01*
G01*
X84515000Y-98550000D01*
G75*
G02*
X84690000Y-98375000I175000J0D01*
G01*
X85040000Y-98375000D01*
G75*
G02*
X85215000Y-98550000I0J-175000D01*
G01*
X85215000Y-100100000D01*
G75*
G02*
X85040000Y-100275000I-175000J0D01*
G01*
G37*
G36*
G01*
X83770000Y-100275000D02*
X83420000Y-100275000D01*
G75*
G02*
X83245000Y-100100000I0J175000D01*
G01*
X83245000Y-98550000D01*
G75*
G02*
X83420000Y-98375000I175000J0D01*
G01*
X83770000Y-98375000D01*
G75*
G02*
X83945000Y-98550000I0J-175000D01*
G01*
X83945000Y-100100000D01*
G75*
G02*
X83770000Y-100275000I-175000J0D01*
G01*
G37*
%TD*%
%TO.C,U4*%
G36*
G01*
X75230000Y-54375000D02*
X75580000Y-54375000D01*
G75*
G02*
X75755000Y-54550000I0J-175000D01*
G01*
X75755000Y-56100000D01*
G75*
G02*
X75580000Y-56275000I-175000J0D01*
G01*
X75230000Y-56275000D01*
G75*
G02*
X75055000Y-56100000I0J175000D01*
G01*
X75055000Y-54550000D01*
G75*
G02*
X75230000Y-54375000I175000J0D01*
G01*
G37*
G36*
G01*
X73960000Y-54375000D02*
X74310000Y-54375000D01*
G75*
G02*
X74485000Y-54550000I0J-175000D01*
G01*
X74485000Y-56100000D01*
G75*
G02*
X74310000Y-56275000I-175000J0D01*
G01*
X73960000Y-56275000D01*
G75*
G02*
X73785000Y-56100000I0J175000D01*
G01*
X73785000Y-54550000D01*
G75*
G02*
X73960000Y-54375000I175000J0D01*
G01*
G37*
G36*
G01*
X72690000Y-54375000D02*
X73040000Y-54375000D01*
G75*
G02*
X73215000Y-54550000I0J-175000D01*
G01*
X73215000Y-56100000D01*
G75*
G02*
X73040000Y-56275000I-175000J0D01*
G01*
X72690000Y-56275000D01*
G75*
G02*
X72515000Y-56100000I0J175000D01*
G01*
X72515000Y-54550000D01*
G75*
G02*
X72690000Y-54375000I175000J0D01*
G01*
G37*
G36*
G01*
X71420000Y-54375000D02*
X71770000Y-54375000D01*
G75*
G02*
X71945000Y-54550000I0J-175000D01*
G01*
X71945000Y-56100000D01*
G75*
G02*
X71770000Y-56275000I-175000J0D01*
G01*
X71420000Y-56275000D01*
G75*
G02*
X71245000Y-56100000I0J175000D01*
G01*
X71245000Y-54550000D01*
G75*
G02*
X71420000Y-54375000I175000J0D01*
G01*
G37*
G36*
G01*
X71420000Y-43725000D02*
X71770000Y-43725000D01*
G75*
G02*
X71945000Y-43900000I0J-175000D01*
G01*
X71945000Y-45450000D01*
G75*
G02*
X71770000Y-45625000I-175000J0D01*
G01*
X71420000Y-45625000D01*
G75*
G02*
X71245000Y-45450000I0J175000D01*
G01*
X71245000Y-43900000D01*
G75*
G02*
X71420000Y-43725000I175000J0D01*
G01*
G37*
G36*
G01*
X72690000Y-43725000D02*
X73040000Y-43725000D01*
G75*
G02*
X73215000Y-43900000I0J-175000D01*
G01*
X73215000Y-45450000D01*
G75*
G02*
X73040000Y-45625000I-175000J0D01*
G01*
X72690000Y-45625000D01*
G75*
G02*
X72515000Y-45450000I0J175000D01*
G01*
X72515000Y-43900000D01*
G75*
G02*
X72690000Y-43725000I175000J0D01*
G01*
G37*
G36*
G01*
X73960000Y-43725000D02*
X74310000Y-43725000D01*
G75*
G02*
X74485000Y-43900000I0J-175000D01*
G01*
X74485000Y-45450000D01*
G75*
G02*
X74310000Y-45625000I-175000J0D01*
G01*
X73960000Y-45625000D01*
G75*
G02*
X73785000Y-45450000I0J175000D01*
G01*
X73785000Y-43900000D01*
G75*
G02*
X73960000Y-43725000I175000J0D01*
G01*
G37*
G36*
G01*
X75230000Y-43725000D02*
X75580000Y-43725000D01*
G75*
G02*
X75755000Y-43900000I0J-175000D01*
G01*
X75755000Y-45450000D01*
G75*
G02*
X75580000Y-45625000I-175000J0D01*
G01*
X75230000Y-45625000D01*
G75*
G02*
X75055000Y-45450000I0J175000D01*
G01*
X75055000Y-43900000D01*
G75*
G02*
X75230000Y-43725000I175000J0D01*
G01*
G37*
%TD*%
D10*
%TO.C,D10*%
X46000000Y-66800000D03*
X46000000Y-63500000D03*
%TD*%
%TO.C,D9*%
X63000000Y-95850000D03*
X63000000Y-99150000D03*
%TD*%
%TO.C,D8*%
X60000000Y-58650000D03*
X60000000Y-55350000D03*
%TD*%
%TO.C,D7*%
X34000000Y-47000000D03*
X34000000Y-50300000D03*
%TD*%
%TO.C,C23*%
G36*
G01*
X35650000Y-54915625D02*
X35650000Y-56084375D01*
G75*
G02*
X35384375Y-56350000I-265625J0D01*
G01*
X32815625Y-56350000D01*
G75*
G02*
X32550000Y-56084375I0J265625D01*
G01*
X32550000Y-54915625D01*
G75*
G02*
X32815625Y-54650000I265625J0D01*
G01*
X35384375Y-54650000D01*
G75*
G02*
X35650000Y-54915625I0J-265625D01*
G01*
G37*
G36*
G01*
X40050000Y-54915625D02*
X40050000Y-56084375D01*
G75*
G02*
X39784375Y-56350000I-265625J0D01*
G01*
X37215625Y-56350000D01*
G75*
G02*
X36950000Y-56084375I0J265625D01*
G01*
X36950000Y-54915625D01*
G75*
G02*
X37215625Y-54650000I265625J0D01*
G01*
X39784375Y-54650000D01*
G75*
G02*
X40050000Y-54915625I0J-265625D01*
G01*
G37*
%TD*%
%TO.C,C22*%
G36*
G01*
X56837500Y-56981250D02*
X56837500Y-56018750D01*
G75*
G02*
X57106250Y-55750000I268750J0D01*
G01*
X57643750Y-55750000D01*
G75*
G02*
X57912500Y-56018750I0J-268750D01*
G01*
X57912500Y-56981250D01*
G75*
G02*
X57643750Y-57250000I-268750J0D01*
G01*
X57106250Y-57250000D01*
G75*
G02*
X56837500Y-56981250I0J268750D01*
G01*
G37*
G36*
G01*
X54962500Y-56981250D02*
X54962500Y-56018750D01*
G75*
G02*
X55231250Y-55750000I268750J0D01*
G01*
X55768750Y-55750000D01*
G75*
G02*
X56037500Y-56018750I0J-268750D01*
G01*
X56037500Y-56981250D01*
G75*
G02*
X55768750Y-57250000I-268750J0D01*
G01*
X55231250Y-57250000D01*
G75*
G02*
X54962500Y-56981250I0J268750D01*
G01*
G37*
%TD*%
%TO.C,C21*%
G36*
G01*
X62018750Y-87837500D02*
X62981250Y-87837500D01*
G75*
G02*
X63250000Y-88106250I0J-268750D01*
G01*
X63250000Y-88643750D01*
G75*
G02*
X62981250Y-88912500I-268750J0D01*
G01*
X62018750Y-88912500D01*
G75*
G02*
X61750000Y-88643750I0J268750D01*
G01*
X61750000Y-88106250D01*
G75*
G02*
X62018750Y-87837500I268750J0D01*
G01*
G37*
G36*
G01*
X62018750Y-85962500D02*
X62981250Y-85962500D01*
G75*
G02*
X63250000Y-86231250I0J-268750D01*
G01*
X63250000Y-86768750D01*
G75*
G02*
X62981250Y-87037500I-268750J0D01*
G01*
X62018750Y-87037500D01*
G75*
G02*
X61750000Y-86768750I0J268750D01*
G01*
X61750000Y-86231250D01*
G75*
G02*
X62018750Y-85962500I268750J0D01*
G01*
G37*
%TD*%
%TO.C,C20*%
G36*
G01*
X65518750Y-45462500D02*
X66481250Y-45462500D01*
G75*
G02*
X66750000Y-45731250I0J-268750D01*
G01*
X66750000Y-46268750D01*
G75*
G02*
X66481250Y-46537500I-268750J0D01*
G01*
X65518750Y-46537500D01*
G75*
G02*
X65250000Y-46268750I0J268750D01*
G01*
X65250000Y-45731250D01*
G75*
G02*
X65518750Y-45462500I268750J0D01*
G01*
G37*
G36*
G01*
X65518750Y-43587500D02*
X66481250Y-43587500D01*
G75*
G02*
X66750000Y-43856250I0J-268750D01*
G01*
X66750000Y-44393750D01*
G75*
G02*
X66481250Y-44662500I-268750J0D01*
G01*
X65518750Y-44662500D01*
G75*
G02*
X65250000Y-44393750I0J268750D01*
G01*
X65250000Y-43856250D01*
G75*
G02*
X65518750Y-43587500I268750J0D01*
G01*
G37*
%TD*%
%TO.C,C19*%
G36*
G01*
X62518750Y-101900000D02*
X63481250Y-101900000D01*
G75*
G02*
X63750000Y-102168750I0J-268750D01*
G01*
X63750000Y-102706250D01*
G75*
G02*
X63481250Y-102975000I-268750J0D01*
G01*
X62518750Y-102975000D01*
G75*
G02*
X62250000Y-102706250I0J268750D01*
G01*
X62250000Y-102168750D01*
G75*
G02*
X62518750Y-101900000I268750J0D01*
G01*
G37*
G36*
G01*
X62518750Y-100025000D02*
X63481250Y-100025000D01*
G75*
G02*
X63750000Y-100293750I0J-268750D01*
G01*
X63750000Y-100831250D01*
G75*
G02*
X63481250Y-101100000I-268750J0D01*
G01*
X62518750Y-101100000D01*
G75*
G02*
X62250000Y-100831250I0J268750D01*
G01*
X62250000Y-100293750D01*
G75*
G02*
X62518750Y-100025000I268750J0D01*
G01*
G37*
%TD*%
%TO.C,C18*%
G36*
G01*
X78037500Y-55018750D02*
X78037500Y-55981250D01*
G75*
G02*
X77768750Y-56250000I-268750J0D01*
G01*
X77231250Y-56250000D01*
G75*
G02*
X76962500Y-55981250I0J268750D01*
G01*
X76962500Y-55018750D01*
G75*
G02*
X77231250Y-54750000I268750J0D01*
G01*
X77768750Y-54750000D01*
G75*
G02*
X78037500Y-55018750I0J-268750D01*
G01*
G37*
G36*
G01*
X79912500Y-55018750D02*
X79912500Y-55981250D01*
G75*
G02*
X79643750Y-56250000I-268750J0D01*
G01*
X79106250Y-56250000D01*
G75*
G02*
X78837500Y-55981250I0J268750D01*
G01*
X78837500Y-55018750D01*
G75*
G02*
X79106250Y-54750000I268750J0D01*
G01*
X79643750Y-54750000D01*
G75*
G02*
X79912500Y-55018750I0J-268750D01*
G01*
G37*
%TD*%
%TO.C,C17*%
G36*
G01*
X78100000Y-42518750D02*
X78100000Y-43481250D01*
G75*
G02*
X77831250Y-43750000I-268750J0D01*
G01*
X77293750Y-43750000D01*
G75*
G02*
X77025000Y-43481250I0J268750D01*
G01*
X77025000Y-42518750D01*
G75*
G02*
X77293750Y-42250000I268750J0D01*
G01*
X77831250Y-42250000D01*
G75*
G02*
X78100000Y-42518750I0J-268750D01*
G01*
G37*
G36*
G01*
X79975000Y-42518750D02*
X79975000Y-43481250D01*
G75*
G02*
X79706250Y-43750000I-268750J0D01*
G01*
X79168750Y-43750000D01*
G75*
G02*
X78900000Y-43481250I0J268750D01*
G01*
X78900000Y-42518750D01*
G75*
G02*
X79168750Y-42250000I268750J0D01*
G01*
X79706250Y-42250000D01*
G75*
G02*
X79975000Y-42518750I0J-268750D01*
G01*
G37*
%TD*%
D11*
%TO.C,J1*%
X91540000Y-75500000D03*
D12*
X89000000Y-75500000D03*
D11*
X96620000Y-75500000D03*
X94080000Y-75500000D03*
D12*
X77000000Y-68000000D03*
D11*
X84620000Y-68000000D03*
X79540000Y-68000000D03*
X82080000Y-68000000D03*
X84620000Y-75500000D03*
X82080000Y-75500000D03*
D12*
X77000000Y-75500000D03*
D11*
X79540000Y-75500000D03*
X73040000Y-68000000D03*
D12*
X70500000Y-68000000D03*
X93000000Y-79500000D03*
D11*
X95540000Y-79500000D03*
D12*
X82000000Y-79500000D03*
D11*
X84540000Y-79500000D03*
D12*
X66000000Y-73500000D03*
D11*
X66000000Y-78580000D03*
X66000000Y-76040000D03*
X66000000Y-81120000D03*
%TD*%
%TO.C,J2*%
X44000000Y-46540000D03*
D12*
X44000000Y-44000000D03*
D11*
X119500000Y-94580000D03*
X119500000Y-92040000D03*
D12*
X119500000Y-89500000D03*
X70500000Y-102500000D03*
X117000000Y-102500000D03*
D11*
X73040000Y-102500000D03*
X119540000Y-102500000D03*
D12*
X70500000Y-86500000D03*
D11*
X70500000Y-89040000D03*
X70500000Y-91580000D03*
X70500000Y-94120000D03*
D12*
X97000000Y-49000000D03*
D11*
X97000000Y-51540000D03*
X85420000Y-55500000D03*
D12*
X90500000Y-55500000D03*
D11*
X87960000Y-55500000D03*
%TD*%
%TO.C,C16*%
G36*
G01*
X81018750Y-47900000D02*
X81981250Y-47900000D01*
G75*
G02*
X82250000Y-48168750I0J-268750D01*
G01*
X82250000Y-48706250D01*
G75*
G02*
X81981250Y-48975000I-268750J0D01*
G01*
X81018750Y-48975000D01*
G75*
G02*
X80750000Y-48706250I0J268750D01*
G01*
X80750000Y-48168750D01*
G75*
G02*
X81018750Y-47900000I268750J0D01*
G01*
G37*
G36*
G01*
X81018750Y-46025000D02*
X81981250Y-46025000D01*
G75*
G02*
X82250000Y-46293750I0J-268750D01*
G01*
X82250000Y-46831250D01*
G75*
G02*
X81981250Y-47100000I-268750J0D01*
G01*
X81018750Y-47100000D01*
G75*
G02*
X80750000Y-46831250I0J268750D01*
G01*
X80750000Y-46293750D01*
G75*
G02*
X81018750Y-46025000I268750J0D01*
G01*
G37*
%TD*%
%TO.C,C15*%
G36*
G01*
X109981250Y-101350000D02*
X109018750Y-101350000D01*
G75*
G02*
X108750000Y-101081250I0J268750D01*
G01*
X108750000Y-100543750D01*
G75*
G02*
X109018750Y-100275000I268750J0D01*
G01*
X109981250Y-100275000D01*
G75*
G02*
X110250000Y-100543750I0J-268750D01*
G01*
X110250000Y-101081250D01*
G75*
G02*
X109981250Y-101350000I-268750J0D01*
G01*
G37*
G36*
G01*
X109981250Y-103225000D02*
X109018750Y-103225000D01*
G75*
G02*
X108750000Y-102956250I0J268750D01*
G01*
X108750000Y-102418750D01*
G75*
G02*
X109018750Y-102150000I268750J0D01*
G01*
X109981250Y-102150000D01*
G75*
G02*
X110250000Y-102418750I0J-268750D01*
G01*
X110250000Y-102956250D01*
G75*
G02*
X109981250Y-103225000I-268750J0D01*
G01*
G37*
%TD*%
%TO.C,C14*%
G36*
G01*
X79518750Y-102337500D02*
X80481250Y-102337500D01*
G75*
G02*
X80750000Y-102606250I0J-268750D01*
G01*
X80750000Y-103143750D01*
G75*
G02*
X80481250Y-103412500I-268750J0D01*
G01*
X79518750Y-103412500D01*
G75*
G02*
X79250000Y-103143750I0J268750D01*
G01*
X79250000Y-102606250D01*
G75*
G02*
X79518750Y-102337500I268750J0D01*
G01*
G37*
G36*
G01*
X79518750Y-100462500D02*
X80481250Y-100462500D01*
G75*
G02*
X80750000Y-100731250I0J-268750D01*
G01*
X80750000Y-101268750D01*
G75*
G02*
X80481250Y-101537500I-268750J0D01*
G01*
X79518750Y-101537500D01*
G75*
G02*
X79250000Y-101268750I0J268750D01*
G01*
X79250000Y-100731250D01*
G75*
G02*
X79518750Y-100462500I268750J0D01*
G01*
G37*
%TD*%
%TO.C,C13*%
G36*
G01*
X36481250Y-49100000D02*
X35518750Y-49100000D01*
G75*
G02*
X35250000Y-48831250I0J268750D01*
G01*
X35250000Y-48293750D01*
G75*
G02*
X35518750Y-48025000I268750J0D01*
G01*
X36481250Y-48025000D01*
G75*
G02*
X36750000Y-48293750I0J-268750D01*
G01*
X36750000Y-48831250D01*
G75*
G02*
X36481250Y-49100000I-268750J0D01*
G01*
G37*
G36*
G01*
X36481250Y-50975000D02*
X35518750Y-50975000D01*
G75*
G02*
X35250000Y-50706250I0J268750D01*
G01*
X35250000Y-50168750D01*
G75*
G02*
X35518750Y-49900000I268750J0D01*
G01*
X36481250Y-49900000D01*
G75*
G02*
X36750000Y-50168750I0J-268750D01*
G01*
X36750000Y-50706250D01*
G75*
G02*
X36481250Y-50975000I-268750J0D01*
G01*
G37*
%TD*%
%TO.C,C12*%
G36*
G01*
X35518750Y-46400000D02*
X36481250Y-46400000D01*
G75*
G02*
X36750000Y-46668750I0J-268750D01*
G01*
X36750000Y-47206250D01*
G75*
G02*
X36481250Y-47475000I-268750J0D01*
G01*
X35518750Y-47475000D01*
G75*
G02*
X35250000Y-47206250I0J268750D01*
G01*
X35250000Y-46668750D01*
G75*
G02*
X35518750Y-46400000I268750J0D01*
G01*
G37*
G36*
G01*
X35518750Y-44525000D02*
X36481250Y-44525000D01*
G75*
G02*
X36750000Y-44793750I0J-268750D01*
G01*
X36750000Y-45331250D01*
G75*
G02*
X36481250Y-45600000I-268750J0D01*
G01*
X35518750Y-45600000D01*
G75*
G02*
X35250000Y-45331250I0J268750D01*
G01*
X35250000Y-44793750D01*
G75*
G02*
X35518750Y-44525000I268750J0D01*
G01*
G37*
%TD*%
%TO.C,C11*%
G36*
G01*
X100462500Y-98981250D02*
X100462500Y-98018750D01*
G75*
G02*
X100731250Y-97750000I268750J0D01*
G01*
X101268750Y-97750000D01*
G75*
G02*
X101537500Y-98018750I0J-268750D01*
G01*
X101537500Y-98981250D01*
G75*
G02*
X101268750Y-99250000I-268750J0D01*
G01*
X100731250Y-99250000D01*
G75*
G02*
X100462500Y-98981250I0J268750D01*
G01*
G37*
G36*
G01*
X98587500Y-98981250D02*
X98587500Y-98018750D01*
G75*
G02*
X98856250Y-97750000I268750J0D01*
G01*
X99393750Y-97750000D01*
G75*
G02*
X99662500Y-98018750I0J-268750D01*
G01*
X99662500Y-98981250D01*
G75*
G02*
X99393750Y-99250000I-268750J0D01*
G01*
X98856250Y-99250000D01*
G75*
G02*
X98587500Y-98981250I0J268750D01*
G01*
G37*
%TD*%
%TO.C,C10*%
G36*
G01*
X78100000Y-44518750D02*
X78100000Y-45481250D01*
G75*
G02*
X77831250Y-45750000I-268750J0D01*
G01*
X77293750Y-45750000D01*
G75*
G02*
X77025000Y-45481250I0J268750D01*
G01*
X77025000Y-44518750D01*
G75*
G02*
X77293750Y-44250000I268750J0D01*
G01*
X77831250Y-44250000D01*
G75*
G02*
X78100000Y-44518750I0J-268750D01*
G01*
G37*
G36*
G01*
X79975000Y-44518750D02*
X79975000Y-45481250D01*
G75*
G02*
X79706250Y-45750000I-268750J0D01*
G01*
X79168750Y-45750000D01*
G75*
G02*
X78900000Y-45481250I0J268750D01*
G01*
X78900000Y-44518750D01*
G75*
G02*
X79168750Y-44250000I268750J0D01*
G01*
X79706250Y-44250000D01*
G75*
G02*
X79975000Y-44518750I0J-268750D01*
G01*
G37*
%TD*%
%TO.C,C9*%
G36*
G01*
X80900000Y-98981250D02*
X80900000Y-98018750D01*
G75*
G02*
X81168750Y-97750000I268750J0D01*
G01*
X81706250Y-97750000D01*
G75*
G02*
X81975000Y-98018750I0J-268750D01*
G01*
X81975000Y-98981250D01*
G75*
G02*
X81706250Y-99250000I-268750J0D01*
G01*
X81168750Y-99250000D01*
G75*
G02*
X80900000Y-98981250I0J268750D01*
G01*
G37*
G36*
G01*
X79025000Y-98981250D02*
X79025000Y-98018750D01*
G75*
G02*
X79293750Y-97750000I268750J0D01*
G01*
X79831250Y-97750000D01*
G75*
G02*
X80100000Y-98018750I0J-268750D01*
G01*
X80100000Y-98981250D01*
G75*
G02*
X79831250Y-99250000I-268750J0D01*
G01*
X79293750Y-99250000D01*
G75*
G02*
X79025000Y-98981250I0J268750D01*
G01*
G37*
%TD*%
%TO.C,C8*%
G36*
G01*
X56837500Y-59481250D02*
X56837500Y-58518750D01*
G75*
G02*
X57106250Y-58250000I268750J0D01*
G01*
X57643750Y-58250000D01*
G75*
G02*
X57912500Y-58518750I0J-268750D01*
G01*
X57912500Y-59481250D01*
G75*
G02*
X57643750Y-59750000I-268750J0D01*
G01*
X57106250Y-59750000D01*
G75*
G02*
X56837500Y-59481250I0J268750D01*
G01*
G37*
G36*
G01*
X54962500Y-59481250D02*
X54962500Y-58518750D01*
G75*
G02*
X55231250Y-58250000I268750J0D01*
G01*
X55768750Y-58250000D01*
G75*
G02*
X56037500Y-58518750I0J-268750D01*
G01*
X56037500Y-59481250D01*
G75*
G02*
X55768750Y-59750000I-268750J0D01*
G01*
X55231250Y-59750000D01*
G75*
G02*
X54962500Y-59481250I0J268750D01*
G01*
G37*
%TD*%
%TO.C,C7*%
G36*
G01*
X66481250Y-55100000D02*
X65518750Y-55100000D01*
G75*
G02*
X65250000Y-54831250I0J268750D01*
G01*
X65250000Y-54293750D01*
G75*
G02*
X65518750Y-54025000I268750J0D01*
G01*
X66481250Y-54025000D01*
G75*
G02*
X66750000Y-54293750I0J-268750D01*
G01*
X66750000Y-54831250D01*
G75*
G02*
X66481250Y-55100000I-268750J0D01*
G01*
G37*
G36*
G01*
X66481250Y-56975000D02*
X65518750Y-56975000D01*
G75*
G02*
X65250000Y-56706250I0J268750D01*
G01*
X65250000Y-56168750D01*
G75*
G02*
X65518750Y-55900000I268750J0D01*
G01*
X66481250Y-55900000D01*
G75*
G02*
X66750000Y-56168750I0J-268750D01*
G01*
X66750000Y-56706250D01*
G75*
G02*
X66481250Y-56975000I-268750J0D01*
G01*
G37*
%TD*%
%TO.C,C6*%
G36*
G01*
X72412500Y-61268750D02*
X72412500Y-62231250D01*
G75*
G02*
X72143750Y-62500000I-268750J0D01*
G01*
X71606250Y-62500000D01*
G75*
G02*
X71337500Y-62231250I0J268750D01*
G01*
X71337500Y-61268750D01*
G75*
G02*
X71606250Y-61000000I268750J0D01*
G01*
X72143750Y-61000000D01*
G75*
G02*
X72412500Y-61268750I0J-268750D01*
G01*
G37*
G36*
G01*
X74287500Y-61268750D02*
X74287500Y-62231250D01*
G75*
G02*
X74018750Y-62500000I-268750J0D01*
G01*
X73481250Y-62500000D01*
G75*
G02*
X73212500Y-62231250I0J268750D01*
G01*
X73212500Y-61268750D01*
G75*
G02*
X73481250Y-61000000I268750J0D01*
G01*
X74018750Y-61000000D01*
G75*
G02*
X74287500Y-61268750I0J-268750D01*
G01*
G37*
%TD*%
%TO.C,C5*%
G36*
G01*
X105900000Y-82981250D02*
X105900000Y-82018750D01*
G75*
G02*
X106168750Y-81750000I268750J0D01*
G01*
X106706250Y-81750000D01*
G75*
G02*
X106975000Y-82018750I0J-268750D01*
G01*
X106975000Y-82981250D01*
G75*
G02*
X106706250Y-83250000I-268750J0D01*
G01*
X106168750Y-83250000D01*
G75*
G02*
X105900000Y-82981250I0J268750D01*
G01*
G37*
G36*
G01*
X104025000Y-82981250D02*
X104025000Y-82018750D01*
G75*
G02*
X104293750Y-81750000I268750J0D01*
G01*
X104831250Y-81750000D01*
G75*
G02*
X105100000Y-82018750I0J-268750D01*
G01*
X105100000Y-82981250D01*
G75*
G02*
X104831250Y-83250000I-268750J0D01*
G01*
X104293750Y-83250000D01*
G75*
G02*
X104025000Y-82981250I0J268750D01*
G01*
G37*
%TD*%
%TO.C,C4*%
G36*
G01*
X86837500Y-82981250D02*
X86837500Y-82018750D01*
G75*
G02*
X87106250Y-81750000I268750J0D01*
G01*
X87643750Y-81750000D01*
G75*
G02*
X87912500Y-82018750I0J-268750D01*
G01*
X87912500Y-82981250D01*
G75*
G02*
X87643750Y-83250000I-268750J0D01*
G01*
X87106250Y-83250000D01*
G75*
G02*
X86837500Y-82981250I0J268750D01*
G01*
G37*
G36*
G01*
X84962500Y-82981250D02*
X84962500Y-82018750D01*
G75*
G02*
X85231250Y-81750000I268750J0D01*
G01*
X85768750Y-81750000D01*
G75*
G02*
X86037500Y-82018750I0J-268750D01*
G01*
X86037500Y-82981250D01*
G75*
G02*
X85768750Y-83250000I-268750J0D01*
G01*
X85231250Y-83250000D01*
G75*
G02*
X84962500Y-82981250I0J268750D01*
G01*
G37*
%TD*%
%TO.C,C3*%
G36*
G01*
X75268750Y-59212500D02*
X76231250Y-59212500D01*
G75*
G02*
X76500000Y-59481250I0J-268750D01*
G01*
X76500000Y-60018750D01*
G75*
G02*
X76231250Y-60287500I-268750J0D01*
G01*
X75268750Y-60287500D01*
G75*
G02*
X75000000Y-60018750I0J268750D01*
G01*
X75000000Y-59481250D01*
G75*
G02*
X75268750Y-59212500I268750J0D01*
G01*
G37*
G36*
G01*
X75268750Y-57337500D02*
X76231250Y-57337500D01*
G75*
G02*
X76500000Y-57606250I0J-268750D01*
G01*
X76500000Y-58143750D01*
G75*
G02*
X76231250Y-58412500I-268750J0D01*
G01*
X75268750Y-58412500D01*
G75*
G02*
X75000000Y-58143750I0J268750D01*
G01*
X75000000Y-57606250D01*
G75*
G02*
X75268750Y-57337500I268750J0D01*
G01*
G37*
%TD*%
%TO.C,C2*%
G36*
G01*
X102981250Y-85037500D02*
X102018750Y-85037500D01*
G75*
G02*
X101750000Y-84768750I0J268750D01*
G01*
X101750000Y-84231250D01*
G75*
G02*
X102018750Y-83962500I268750J0D01*
G01*
X102981250Y-83962500D01*
G75*
G02*
X103250000Y-84231250I0J-268750D01*
G01*
X103250000Y-84768750D01*
G75*
G02*
X102981250Y-85037500I-268750J0D01*
G01*
G37*
G36*
G01*
X102981250Y-86912500D02*
X102018750Y-86912500D01*
G75*
G02*
X101750000Y-86643750I0J268750D01*
G01*
X101750000Y-86106250D01*
G75*
G02*
X102018750Y-85837500I268750J0D01*
G01*
X102981250Y-85837500D01*
G75*
G02*
X103250000Y-86106250I0J-268750D01*
G01*
X103250000Y-86643750D01*
G75*
G02*
X102981250Y-86912500I-268750J0D01*
G01*
G37*
%TD*%
%TO.C,C1*%
G36*
G01*
X83981250Y-85037500D02*
X83018750Y-85037500D01*
G75*
G02*
X82750000Y-84768750I0J268750D01*
G01*
X82750000Y-84231250D01*
G75*
G02*
X83018750Y-83962500I268750J0D01*
G01*
X83981250Y-83962500D01*
G75*
G02*
X84250000Y-84231250I0J-268750D01*
G01*
X84250000Y-84768750D01*
G75*
G02*
X83981250Y-85037500I-268750J0D01*
G01*
G37*
G36*
G01*
X83981250Y-86912500D02*
X83018750Y-86912500D01*
G75*
G02*
X82750000Y-86643750I0J268750D01*
G01*
X82750000Y-86106250D01*
G75*
G02*
X83018750Y-85837500I268750J0D01*
G01*
X83981250Y-85837500D01*
G75*
G02*
X84250000Y-86106250I0J-268750D01*
G01*
X84250000Y-86643750D01*
G75*
G02*
X83981250Y-86912500I-268750J0D01*
G01*
G37*
%TD*%
D13*
%TO.C,J3*%
X53810000Y-50000000D03*
G36*
G01*
X49050000Y-51586111D02*
X49050000Y-48413889D01*
G75*
G02*
X49313889Y-48150000I263889J0D01*
G01*
X50686111Y-48150000D01*
G75*
G02*
X50950000Y-48413889I0J-263889D01*
G01*
X50950000Y-51586111D01*
G75*
G02*
X50686111Y-51850000I-263889J0D01*
G01*
X49313889Y-51850000D01*
G75*
G02*
X49050000Y-51586111I0J263889D01*
G01*
G37*
%TD*%
%TO.C,D6*%
G36*
G01*
X54018750Y-65900000D02*
X54981250Y-65900000D01*
G75*
G02*
X55250000Y-66168750I0J-268750D01*
G01*
X55250000Y-66706250D01*
G75*
G02*
X54981250Y-66975000I-268750J0D01*
G01*
X54018750Y-66975000D01*
G75*
G02*
X53750000Y-66706250I0J268750D01*
G01*
X53750000Y-66168750D01*
G75*
G02*
X54018750Y-65900000I268750J0D01*
G01*
G37*
G36*
G01*
X54018750Y-64025000D02*
X54981250Y-64025000D01*
G75*
G02*
X55250000Y-64293750I0J-268750D01*
G01*
X55250000Y-64831250D01*
G75*
G02*
X54981250Y-65100000I-268750J0D01*
G01*
X54018750Y-65100000D01*
G75*
G02*
X53750000Y-64831250I0J268750D01*
G01*
X53750000Y-64293750D01*
G75*
G02*
X54018750Y-64025000I268750J0D01*
G01*
G37*
%TD*%
%TO.C,D5*%
G36*
G01*
X48478750Y-65850000D02*
X49441250Y-65850000D01*
G75*
G02*
X49710000Y-66118750I0J-268750D01*
G01*
X49710000Y-66656250D01*
G75*
G02*
X49441250Y-66925000I-268750J0D01*
G01*
X48478750Y-66925000D01*
G75*
G02*
X48210000Y-66656250I0J268750D01*
G01*
X48210000Y-66118750D01*
G75*
G02*
X48478750Y-65850000I268750J0D01*
G01*
G37*
G36*
G01*
X48478750Y-63975000D02*
X49441250Y-63975000D01*
G75*
G02*
X49710000Y-64243750I0J-268750D01*
G01*
X49710000Y-64781250D01*
G75*
G02*
X49441250Y-65050000I-268750J0D01*
G01*
X48478750Y-65050000D01*
G75*
G02*
X48210000Y-64781250I0J268750D01*
G01*
X48210000Y-64243750D01*
G75*
G02*
X48478750Y-63975000I268750J0D01*
G01*
G37*
%TD*%
%TO.C,D4*%
G36*
G01*
X91518750Y-100337500D02*
X92481250Y-100337500D01*
G75*
G02*
X92750000Y-100606250I0J-268750D01*
G01*
X92750000Y-101143750D01*
G75*
G02*
X92481250Y-101412500I-268750J0D01*
G01*
X91518750Y-101412500D01*
G75*
G02*
X91250000Y-101143750I0J268750D01*
G01*
X91250000Y-100606250D01*
G75*
G02*
X91518750Y-100337500I268750J0D01*
G01*
G37*
G36*
G01*
X91518750Y-98462500D02*
X92481250Y-98462500D01*
G75*
G02*
X92750000Y-98731250I0J-268750D01*
G01*
X92750000Y-99268750D01*
G75*
G02*
X92481250Y-99537500I-268750J0D01*
G01*
X91518750Y-99537500D01*
G75*
G02*
X91250000Y-99268750I0J268750D01*
G01*
X91250000Y-98731250D01*
G75*
G02*
X91518750Y-98462500I268750J0D01*
G01*
G37*
%TD*%
%TO.C,D3*%
G36*
G01*
X33481250Y-65100000D02*
X32518750Y-65100000D01*
G75*
G02*
X32250000Y-64831250I0J268750D01*
G01*
X32250000Y-64293750D01*
G75*
G02*
X32518750Y-64025000I268750J0D01*
G01*
X33481250Y-64025000D01*
G75*
G02*
X33750000Y-64293750I0J-268750D01*
G01*
X33750000Y-64831250D01*
G75*
G02*
X33481250Y-65100000I-268750J0D01*
G01*
G37*
G36*
G01*
X33481250Y-66975000D02*
X32518750Y-66975000D01*
G75*
G02*
X32250000Y-66706250I0J268750D01*
G01*
X32250000Y-66168750D01*
G75*
G02*
X32518750Y-65900000I268750J0D01*
G01*
X33481250Y-65900000D01*
G75*
G02*
X33750000Y-66168750I0J-268750D01*
G01*
X33750000Y-66706250D01*
G75*
G02*
X33481250Y-66975000I-268750J0D01*
G01*
G37*
%TD*%
%TO.C,D2*%
G36*
G01*
X33481250Y-60600000D02*
X32518750Y-60600000D01*
G75*
G02*
X32250000Y-60331250I0J268750D01*
G01*
X32250000Y-59793750D01*
G75*
G02*
X32518750Y-59525000I268750J0D01*
G01*
X33481250Y-59525000D01*
G75*
G02*
X33750000Y-59793750I0J-268750D01*
G01*
X33750000Y-60331250D01*
G75*
G02*
X33481250Y-60600000I-268750J0D01*
G01*
G37*
G36*
G01*
X33481250Y-62475000D02*
X32518750Y-62475000D01*
G75*
G02*
X32250000Y-62206250I0J268750D01*
G01*
X32250000Y-61668750D01*
G75*
G02*
X32518750Y-61400000I268750J0D01*
G01*
X33481250Y-61400000D01*
G75*
G02*
X33750000Y-61668750I0J-268750D01*
G01*
X33750000Y-62206250D01*
G75*
G02*
X33481250Y-62475000I-268750J0D01*
G01*
G37*
%TD*%
%TO.C,R37*%
G36*
G01*
X56018750Y-65962500D02*
X56981250Y-65962500D01*
G75*
G02*
X57250000Y-66231250I0J-268750D01*
G01*
X57250000Y-66768750D01*
G75*
G02*
X56981250Y-67037500I-268750J0D01*
G01*
X56018750Y-67037500D01*
G75*
G02*
X55750000Y-66768750I0J268750D01*
G01*
X55750000Y-66231250D01*
G75*
G02*
X56018750Y-65962500I268750J0D01*
G01*
G37*
G36*
G01*
X56018750Y-64087500D02*
X56981250Y-64087500D01*
G75*
G02*
X57250000Y-64356250I0J-268750D01*
G01*
X57250000Y-64893750D01*
G75*
G02*
X56981250Y-65162500I-268750J0D01*
G01*
X56018750Y-65162500D01*
G75*
G02*
X55750000Y-64893750I0J268750D01*
G01*
X55750000Y-64356250D01*
G75*
G02*
X56018750Y-64087500I268750J0D01*
G01*
G37*
%TD*%
%TO.C,R36*%
G36*
G01*
X50518750Y-65837500D02*
X51481250Y-65837500D01*
G75*
G02*
X51750000Y-66106250I0J-268750D01*
G01*
X51750000Y-66643750D01*
G75*
G02*
X51481250Y-66912500I-268750J0D01*
G01*
X50518750Y-66912500D01*
G75*
G02*
X50250000Y-66643750I0J268750D01*
G01*
X50250000Y-66106250D01*
G75*
G02*
X50518750Y-65837500I268750J0D01*
G01*
G37*
G36*
G01*
X50518750Y-63962500D02*
X51481250Y-63962500D01*
G75*
G02*
X51750000Y-64231250I0J-268750D01*
G01*
X51750000Y-64768750D01*
G75*
G02*
X51481250Y-65037500I-268750J0D01*
G01*
X50518750Y-65037500D01*
G75*
G02*
X50250000Y-64768750I0J268750D01*
G01*
X50250000Y-64231250D01*
G75*
G02*
X50518750Y-63962500I268750J0D01*
G01*
G37*
%TD*%
%TO.C,R35*%
G36*
G01*
X93518750Y-100337500D02*
X94481250Y-100337500D01*
G75*
G02*
X94750000Y-100606250I0J-268750D01*
G01*
X94750000Y-101143750D01*
G75*
G02*
X94481250Y-101412500I-268750J0D01*
G01*
X93518750Y-101412500D01*
G75*
G02*
X93250000Y-101143750I0J268750D01*
G01*
X93250000Y-100606250D01*
G75*
G02*
X93518750Y-100337500I268750J0D01*
G01*
G37*
G36*
G01*
X93518750Y-98462500D02*
X94481250Y-98462500D01*
G75*
G02*
X94750000Y-98731250I0J-268750D01*
G01*
X94750000Y-99268750D01*
G75*
G02*
X94481250Y-99537500I-268750J0D01*
G01*
X93518750Y-99537500D01*
G75*
G02*
X93250000Y-99268750I0J268750D01*
G01*
X93250000Y-98731250D01*
G75*
G02*
X93518750Y-98462500I268750J0D01*
G01*
G37*
%TD*%
%TO.C,R34*%
G36*
G01*
X35481250Y-65100000D02*
X34518750Y-65100000D01*
G75*
G02*
X34250000Y-64831250I0J268750D01*
G01*
X34250000Y-64293750D01*
G75*
G02*
X34518750Y-64025000I268750J0D01*
G01*
X35481250Y-64025000D01*
G75*
G02*
X35750000Y-64293750I0J-268750D01*
G01*
X35750000Y-64831250D01*
G75*
G02*
X35481250Y-65100000I-268750J0D01*
G01*
G37*
G36*
G01*
X35481250Y-66975000D02*
X34518750Y-66975000D01*
G75*
G02*
X34250000Y-66706250I0J268750D01*
G01*
X34250000Y-66168750D01*
G75*
G02*
X34518750Y-65900000I268750J0D01*
G01*
X35481250Y-65900000D01*
G75*
G02*
X35750000Y-66168750I0J-268750D01*
G01*
X35750000Y-66706250D01*
G75*
G02*
X35481250Y-66975000I-268750J0D01*
G01*
G37*
%TD*%
%TO.C,R33*%
G36*
G01*
X35481250Y-60600000D02*
X34518750Y-60600000D01*
G75*
G02*
X34250000Y-60331250I0J268750D01*
G01*
X34250000Y-59793750D01*
G75*
G02*
X34518750Y-59525000I268750J0D01*
G01*
X35481250Y-59525000D01*
G75*
G02*
X35750000Y-59793750I0J-268750D01*
G01*
X35750000Y-60331250D01*
G75*
G02*
X35481250Y-60600000I-268750J0D01*
G01*
G37*
G36*
G01*
X35481250Y-62475000D02*
X34518750Y-62475000D01*
G75*
G02*
X34250000Y-62206250I0J268750D01*
G01*
X34250000Y-61668750D01*
G75*
G02*
X34518750Y-61400000I268750J0D01*
G01*
X35481250Y-61400000D01*
G75*
G02*
X35750000Y-61668750I0J-268750D01*
G01*
X35750000Y-62206250D01*
G75*
G02*
X35481250Y-62475000I-268750J0D01*
G01*
G37*
%TD*%
D14*
%TO.C,U7*%
X63500000Y-56700000D03*
X63500000Y-54160000D03*
X63500000Y-51620000D03*
X63500000Y-46540000D03*
D15*
X63500000Y-44000000D03*
%TD*%
D14*
%TO.C,U1*%
X60000000Y-99200000D03*
X60000000Y-96660000D03*
X60000000Y-94120000D03*
X60000000Y-89040000D03*
D15*
X60000000Y-86500000D03*
%TD*%
D16*
%TO.C,U5*%
X38500000Y-50580000D03*
X38500000Y-48040000D03*
D17*
X38500000Y-45500000D03*
%TD*%
D18*
%TO.C,D1*%
X49500000Y-45000000D03*
X53800000Y-45000000D03*
%TD*%
%TO.C,R30*%
G36*
G01*
X112712500Y-101231250D02*
X112712500Y-100268750D01*
G75*
G02*
X112981250Y-100000000I268750J0D01*
G01*
X113518750Y-100000000D01*
G75*
G02*
X113787500Y-100268750I0J-268750D01*
G01*
X113787500Y-101231250D01*
G75*
G02*
X113518750Y-101500000I-268750J0D01*
G01*
X112981250Y-101500000D01*
G75*
G02*
X112712500Y-101231250I0J268750D01*
G01*
G37*
G36*
G01*
X110837500Y-101231250D02*
X110837500Y-100268750D01*
G75*
G02*
X111106250Y-100000000I268750J0D01*
G01*
X111643750Y-100000000D01*
G75*
G02*
X111912500Y-100268750I0J-268750D01*
G01*
X111912500Y-101231250D01*
G75*
G02*
X111643750Y-101500000I-268750J0D01*
G01*
X111106250Y-101500000D01*
G75*
G02*
X110837500Y-101231250I0J268750D01*
G01*
G37*
%TD*%
%TO.C,R29*%
G36*
G01*
X112712500Y-103231250D02*
X112712500Y-102268750D01*
G75*
G02*
X112981250Y-102000000I268750J0D01*
G01*
X113518750Y-102000000D01*
G75*
G02*
X113787500Y-102268750I0J-268750D01*
G01*
X113787500Y-103231250D01*
G75*
G02*
X113518750Y-103500000I-268750J0D01*
G01*
X112981250Y-103500000D01*
G75*
G02*
X112712500Y-103231250I0J268750D01*
G01*
G37*
G36*
G01*
X110837500Y-103231250D02*
X110837500Y-102268750D01*
G75*
G02*
X111106250Y-102000000I268750J0D01*
G01*
X111643750Y-102000000D01*
G75*
G02*
X111912500Y-102268750I0J-268750D01*
G01*
X111912500Y-103231250D01*
G75*
G02*
X111643750Y-103500000I-268750J0D01*
G01*
X111106250Y-103500000D01*
G75*
G02*
X110837500Y-103231250I0J268750D01*
G01*
G37*
%TD*%
%TO.C,R28*%
G36*
G01*
X77037500Y-102518750D02*
X77037500Y-103481250D01*
G75*
G02*
X76768750Y-103750000I-268750J0D01*
G01*
X76231250Y-103750000D01*
G75*
G02*
X75962500Y-103481250I0J268750D01*
G01*
X75962500Y-102518750D01*
G75*
G02*
X76231250Y-102250000I268750J0D01*
G01*
X76768750Y-102250000D01*
G75*
G02*
X77037500Y-102518750I0J-268750D01*
G01*
G37*
G36*
G01*
X78912500Y-102518750D02*
X78912500Y-103481250D01*
G75*
G02*
X78643750Y-103750000I-268750J0D01*
G01*
X78106250Y-103750000D01*
G75*
G02*
X77837500Y-103481250I0J268750D01*
G01*
X77837500Y-102518750D01*
G75*
G02*
X78106250Y-102250000I268750J0D01*
G01*
X78643750Y-102250000D01*
G75*
G02*
X78912500Y-102518750I0J-268750D01*
G01*
G37*
%TD*%
%TO.C,R27*%
G36*
G01*
X77037500Y-100518750D02*
X77037500Y-101481250D01*
G75*
G02*
X76768750Y-101750000I-268750J0D01*
G01*
X76231250Y-101750000D01*
G75*
G02*
X75962500Y-101481250I0J268750D01*
G01*
X75962500Y-100518750D01*
G75*
G02*
X76231250Y-100250000I268750J0D01*
G01*
X76768750Y-100250000D01*
G75*
G02*
X77037500Y-100518750I0J-268750D01*
G01*
G37*
G36*
G01*
X78912500Y-100518750D02*
X78912500Y-101481250D01*
G75*
G02*
X78643750Y-101750000I-268750J0D01*
G01*
X78106250Y-101750000D01*
G75*
G02*
X77837500Y-101481250I0J268750D01*
G01*
X77837500Y-100518750D01*
G75*
G02*
X78106250Y-100250000I268750J0D01*
G01*
X78643750Y-100250000D01*
G75*
G02*
X78912500Y-100518750I0J-268750D01*
G01*
G37*
%TD*%
D19*
%TO.C,U6*%
X53280000Y-61150000D03*
X53280000Y-56550000D03*
X53280000Y-58850000D03*
D20*
X46980000Y-58850000D03*
%TD*%
%TO.C,R26*%
G36*
G01*
X73787500Y-85268750D02*
X73787500Y-86231250D01*
G75*
G02*
X73518750Y-86500000I-268750J0D01*
G01*
X72981250Y-86500000D01*
G75*
G02*
X72712500Y-86231250I0J268750D01*
G01*
X72712500Y-85268750D01*
G75*
G02*
X72981250Y-85000000I268750J0D01*
G01*
X73518750Y-85000000D01*
G75*
G02*
X73787500Y-85268750I0J-268750D01*
G01*
G37*
G36*
G01*
X75662500Y-85268750D02*
X75662500Y-86231250D01*
G75*
G02*
X75393750Y-86500000I-268750J0D01*
G01*
X74856250Y-86500000D01*
G75*
G02*
X74587500Y-86231250I0J268750D01*
G01*
X74587500Y-85268750D01*
G75*
G02*
X74856250Y-85000000I268750J0D01*
G01*
X75393750Y-85000000D01*
G75*
G02*
X75662500Y-85268750I0J-268750D01*
G01*
G37*
%TD*%
%TO.C,R25*%
G36*
G01*
X74587500Y-88731250D02*
X74587500Y-87768750D01*
G75*
G02*
X74856250Y-87500000I268750J0D01*
G01*
X75393750Y-87500000D01*
G75*
G02*
X75662500Y-87768750I0J-268750D01*
G01*
X75662500Y-88731250D01*
G75*
G02*
X75393750Y-89000000I-268750J0D01*
G01*
X74856250Y-89000000D01*
G75*
G02*
X74587500Y-88731250I0J268750D01*
G01*
G37*
G36*
G01*
X72712500Y-88731250D02*
X72712500Y-87768750D01*
G75*
G02*
X72981250Y-87500000I268750J0D01*
G01*
X73518750Y-87500000D01*
G75*
G02*
X73787500Y-87768750I0J-268750D01*
G01*
X73787500Y-88731250D01*
G75*
G02*
X73518750Y-89000000I-268750J0D01*
G01*
X72981250Y-89000000D01*
G75*
G02*
X72712500Y-88731250I0J268750D01*
G01*
G37*
%TD*%
%TO.C,R21*%
G36*
G01*
X72231250Y-58412500D02*
X71268750Y-58412500D01*
G75*
G02*
X71000000Y-58143750I0J268750D01*
G01*
X71000000Y-57606250D01*
G75*
G02*
X71268750Y-57337500I268750J0D01*
G01*
X72231250Y-57337500D01*
G75*
G02*
X72500000Y-57606250I0J-268750D01*
G01*
X72500000Y-58143750D01*
G75*
G02*
X72231250Y-58412500I-268750J0D01*
G01*
G37*
G36*
G01*
X72231250Y-60287500D02*
X71268750Y-60287500D01*
G75*
G02*
X71000000Y-60018750I0J268750D01*
G01*
X71000000Y-59481250D01*
G75*
G02*
X71268750Y-59212500I268750J0D01*
G01*
X72231250Y-59212500D01*
G75*
G02*
X72500000Y-59481250I0J-268750D01*
G01*
X72500000Y-60018750D01*
G75*
G02*
X72231250Y-60287500I-268750J0D01*
G01*
G37*
%TD*%
%TO.C,R20*%
G36*
G01*
X74231250Y-58412500D02*
X73268750Y-58412500D01*
G75*
G02*
X73000000Y-58143750I0J268750D01*
G01*
X73000000Y-57606250D01*
G75*
G02*
X73268750Y-57337500I268750J0D01*
G01*
X74231250Y-57337500D01*
G75*
G02*
X74500000Y-57606250I0J-268750D01*
G01*
X74500000Y-58143750D01*
G75*
G02*
X74231250Y-58412500I-268750J0D01*
G01*
G37*
G36*
G01*
X74231250Y-60287500D02*
X73268750Y-60287500D01*
G75*
G02*
X73000000Y-60018750I0J268750D01*
G01*
X73000000Y-59481250D01*
G75*
G02*
X73268750Y-59212500I268750J0D01*
G01*
X74231250Y-59212500D01*
G75*
G02*
X74500000Y-59481250I0J-268750D01*
G01*
X74500000Y-60018750D01*
G75*
G02*
X74231250Y-60287500I-268750J0D01*
G01*
G37*
%TD*%
%TO.C,R19*%
G36*
G01*
X106018750Y-85837500D02*
X106981250Y-85837500D01*
G75*
G02*
X107250000Y-86106250I0J-268750D01*
G01*
X107250000Y-86643750D01*
G75*
G02*
X106981250Y-86912500I-268750J0D01*
G01*
X106018750Y-86912500D01*
G75*
G02*
X105750000Y-86643750I0J268750D01*
G01*
X105750000Y-86106250D01*
G75*
G02*
X106018750Y-85837500I268750J0D01*
G01*
G37*
G36*
G01*
X106018750Y-83962500D02*
X106981250Y-83962500D01*
G75*
G02*
X107250000Y-84231250I0J-268750D01*
G01*
X107250000Y-84768750D01*
G75*
G02*
X106981250Y-85037500I-268750J0D01*
G01*
X106018750Y-85037500D01*
G75*
G02*
X105750000Y-84768750I0J268750D01*
G01*
X105750000Y-84231250D01*
G75*
G02*
X106018750Y-83962500I268750J0D01*
G01*
G37*
%TD*%
%TO.C,R18*%
G36*
G01*
X104018750Y-85837500D02*
X104981250Y-85837500D01*
G75*
G02*
X105250000Y-86106250I0J-268750D01*
G01*
X105250000Y-86643750D01*
G75*
G02*
X104981250Y-86912500I-268750J0D01*
G01*
X104018750Y-86912500D01*
G75*
G02*
X103750000Y-86643750I0J268750D01*
G01*
X103750000Y-86106250D01*
G75*
G02*
X104018750Y-85837500I268750J0D01*
G01*
G37*
G36*
G01*
X104018750Y-83962500D02*
X104981250Y-83962500D01*
G75*
G02*
X105250000Y-84231250I0J-268750D01*
G01*
X105250000Y-84768750D01*
G75*
G02*
X104981250Y-85037500I-268750J0D01*
G01*
X104018750Y-85037500D01*
G75*
G02*
X103750000Y-84768750I0J268750D01*
G01*
X103750000Y-84231250D01*
G75*
G02*
X104018750Y-83962500I268750J0D01*
G01*
G37*
%TD*%
%TO.C,R17*%
G36*
G01*
X87018750Y-85837500D02*
X87981250Y-85837500D01*
G75*
G02*
X88250000Y-86106250I0J-268750D01*
G01*
X88250000Y-86643750D01*
G75*
G02*
X87981250Y-86912500I-268750J0D01*
G01*
X87018750Y-86912500D01*
G75*
G02*
X86750000Y-86643750I0J268750D01*
G01*
X86750000Y-86106250D01*
G75*
G02*
X87018750Y-85837500I268750J0D01*
G01*
G37*
G36*
G01*
X87018750Y-83962500D02*
X87981250Y-83962500D01*
G75*
G02*
X88250000Y-84231250I0J-268750D01*
G01*
X88250000Y-84768750D01*
G75*
G02*
X87981250Y-85037500I-268750J0D01*
G01*
X87018750Y-85037500D01*
G75*
G02*
X86750000Y-84768750I0J268750D01*
G01*
X86750000Y-84231250D01*
G75*
G02*
X87018750Y-83962500I268750J0D01*
G01*
G37*
%TD*%
%TO.C,R16*%
G36*
G01*
X85018750Y-85837500D02*
X85981250Y-85837500D01*
G75*
G02*
X86250000Y-86106250I0J-268750D01*
G01*
X86250000Y-86643750D01*
G75*
G02*
X85981250Y-86912500I-268750J0D01*
G01*
X85018750Y-86912500D01*
G75*
G02*
X84750000Y-86643750I0J268750D01*
G01*
X84750000Y-86106250D01*
G75*
G02*
X85018750Y-85837500I268750J0D01*
G01*
G37*
G36*
G01*
X85018750Y-83962500D02*
X85981250Y-83962500D01*
G75*
G02*
X86250000Y-84231250I0J-268750D01*
G01*
X86250000Y-84768750D01*
G75*
G02*
X85981250Y-85037500I-268750J0D01*
G01*
X85018750Y-85037500D01*
G75*
G02*
X84750000Y-84768750I0J268750D01*
G01*
X84750000Y-84231250D01*
G75*
G02*
X85018750Y-83962500I268750J0D01*
G01*
G37*
%TD*%
%TO.C,R8*%
G36*
G01*
X115962500Y-94481250D02*
X115962500Y-93518750D01*
G75*
G02*
X116231250Y-93250000I268750J0D01*
G01*
X116768750Y-93250000D01*
G75*
G02*
X117037500Y-93518750I0J-268750D01*
G01*
X117037500Y-94481250D01*
G75*
G02*
X116768750Y-94750000I-268750J0D01*
G01*
X116231250Y-94750000D01*
G75*
G02*
X115962500Y-94481250I0J268750D01*
G01*
G37*
G36*
G01*
X114087500Y-94481250D02*
X114087500Y-93518750D01*
G75*
G02*
X114356250Y-93250000I268750J0D01*
G01*
X114893750Y-93250000D01*
G75*
G02*
X115162500Y-93518750I0J-268750D01*
G01*
X115162500Y-94481250D01*
G75*
G02*
X114893750Y-94750000I-268750J0D01*
G01*
X114356250Y-94750000D01*
G75*
G02*
X114087500Y-94481250I0J268750D01*
G01*
G37*
%TD*%
%TO.C,R7*%
G36*
G01*
X115162500Y-91518750D02*
X115162500Y-92481250D01*
G75*
G02*
X114893750Y-92750000I-268750J0D01*
G01*
X114356250Y-92750000D01*
G75*
G02*
X114087500Y-92481250I0J268750D01*
G01*
X114087500Y-91518750D01*
G75*
G02*
X114356250Y-91250000I268750J0D01*
G01*
X114893750Y-91250000D01*
G75*
G02*
X115162500Y-91518750I0J-268750D01*
G01*
G37*
G36*
G01*
X117037500Y-91518750D02*
X117037500Y-92481250D01*
G75*
G02*
X116768750Y-92750000I-268750J0D01*
G01*
X116231250Y-92750000D01*
G75*
G02*
X115962500Y-92481250I0J268750D01*
G01*
X115962500Y-91518750D01*
G75*
G02*
X116231250Y-91250000I268750J0D01*
G01*
X116768750Y-91250000D01*
G75*
G02*
X117037500Y-91518750I0J-268750D01*
G01*
G37*
%TD*%
%TO.C,R6*%
G36*
G01*
X72981250Y-79162500D02*
X72018750Y-79162500D01*
G75*
G02*
X71750000Y-78893750I0J268750D01*
G01*
X71750000Y-78356250D01*
G75*
G02*
X72018750Y-78087500I268750J0D01*
G01*
X72981250Y-78087500D01*
G75*
G02*
X73250000Y-78356250I0J-268750D01*
G01*
X73250000Y-78893750D01*
G75*
G02*
X72981250Y-79162500I-268750J0D01*
G01*
G37*
G36*
G01*
X72981250Y-81037500D02*
X72018750Y-81037500D01*
G75*
G02*
X71750000Y-80768750I0J268750D01*
G01*
X71750000Y-80231250D01*
G75*
G02*
X72018750Y-79962500I268750J0D01*
G01*
X72981250Y-79962500D01*
G75*
G02*
X73250000Y-80231250I0J-268750D01*
G01*
X73250000Y-80768750D01*
G75*
G02*
X72981250Y-81037500I-268750J0D01*
G01*
G37*
%TD*%
%TO.C,R5*%
G36*
G01*
X73037500Y-76018750D02*
X73037500Y-76981250D01*
G75*
G02*
X72768750Y-77250000I-268750J0D01*
G01*
X72231250Y-77250000D01*
G75*
G02*
X71962500Y-76981250I0J268750D01*
G01*
X71962500Y-76018750D01*
G75*
G02*
X72231250Y-75750000I268750J0D01*
G01*
X72768750Y-75750000D01*
G75*
G02*
X73037500Y-76018750I0J-268750D01*
G01*
G37*
G36*
G01*
X74912500Y-76018750D02*
X74912500Y-76981250D01*
G75*
G02*
X74643750Y-77250000I-268750J0D01*
G01*
X74106250Y-77250000D01*
G75*
G02*
X73837500Y-76981250I0J268750D01*
G01*
X73837500Y-76018750D01*
G75*
G02*
X74106250Y-75750000I268750J0D01*
G01*
X74643750Y-75750000D01*
G75*
G02*
X74912500Y-76018750I0J-268750D01*
G01*
G37*
%TD*%
%TO.C,R2*%
G36*
G01*
X95537500Y-60018750D02*
X95537500Y-60981250D01*
G75*
G02*
X95268750Y-61250000I-268750J0D01*
G01*
X94731250Y-61250000D01*
G75*
G02*
X94462500Y-60981250I0J268750D01*
G01*
X94462500Y-60018750D01*
G75*
G02*
X94731250Y-59750000I268750J0D01*
G01*
X95268750Y-59750000D01*
G75*
G02*
X95537500Y-60018750I0J-268750D01*
G01*
G37*
G36*
G01*
X97412500Y-60018750D02*
X97412500Y-60981250D01*
G75*
G02*
X97143750Y-61250000I-268750J0D01*
G01*
X96606250Y-61250000D01*
G75*
G02*
X96337500Y-60981250I0J268750D01*
G01*
X96337500Y-60018750D01*
G75*
G02*
X96606250Y-59750000I268750J0D01*
G01*
X97143750Y-59750000D01*
G75*
G02*
X97412500Y-60018750I0J-268750D01*
G01*
G37*
%TD*%
%TO.C,R1*%
G36*
G01*
X96337500Y-58981250D02*
X96337500Y-58018750D01*
G75*
G02*
X96606250Y-57750000I268750J0D01*
G01*
X97143750Y-57750000D01*
G75*
G02*
X97412500Y-58018750I0J-268750D01*
G01*
X97412500Y-58981250D01*
G75*
G02*
X97143750Y-59250000I-268750J0D01*
G01*
X96606250Y-59250000D01*
G75*
G02*
X96337500Y-58981250I0J268750D01*
G01*
G37*
G36*
G01*
X94462500Y-58981250D02*
X94462500Y-58018750D01*
G75*
G02*
X94731250Y-57750000I268750J0D01*
G01*
X95268750Y-57750000D01*
G75*
G02*
X95537500Y-58018750I0J-268750D01*
G01*
X95537500Y-58981250D01*
G75*
G02*
X95268750Y-59250000I-268750J0D01*
G01*
X94731250Y-59250000D01*
G75*
G02*
X94462500Y-58981250I0J268750D01*
G01*
G37*
%TD*%
M02*
