M48
INCH,TZ
T1C0.0157
T2C0.0276
T3C0.0394
T4C0.0472
%
G90
G05
T1
X13780Y-26772
X17520Y-25000
X20079Y-25000
X20079Y-26772
X20866Y-26772
X23031Y-24213
X23622Y-24213
X25197Y-38681
X25984Y-39764
X25984Y-40551
X27559Y-21654
X27559Y-22244
X28346Y-27756
X28346Y-28346
X28937Y-32874
X29724Y-32874
X30315Y-36220
X30512Y-22736
X30512Y-28740
X30709Y-25886
X31102Y-36220
X31299Y-28740
X31890Y-36220
X32018Y-34911
X32382Y-28839
X32480Y-38878
X34006Y-25443
X34449Y-28740
X35236Y-28740
X35236Y-31299
X35236Y-32087
X35236Y-32874
X35433Y-40551
X36024Y-28740
X36220Y-40551
X37008Y-40551
X37795Y-38976
X37795Y-40551
X38386Y-38780
X38583Y-40551
X39695Y-34911
X43110Y-38780
X45866Y-39370
X46654Y-39370
T2
X23622Y-34055
X23622Y-35055
X23622Y-37055
X23622Y-38055
X23622Y-39055
X25000Y-17323
X25000Y-18323
X25000Y-20323
X25000Y-21323
X25000Y-22323
T3
X15157Y-17913
X15157Y-18913
X15157Y-19913
X17323Y-17323
X17323Y-18323
X27756Y-34055
X27756Y-35055
X27756Y-36055
X27756Y-37055
X27756Y-40354
X28756Y-40354
X33630Y-21850
X34630Y-21850
X35630Y-21850
X38189Y-19291
X38189Y-20291
X46063Y-40354
X47047Y-35236
X47047Y-36236
X47047Y-37236
X47063Y-40354
X25984Y-28937
X25984Y-29937
X25984Y-30937
X25984Y-31937
X27756Y-26772
X28756Y-26772
X30315Y-26772
X30315Y-29724
X31315Y-26772
X31315Y-29724
X32283Y-31299
X32315Y-26772
X32315Y-29724
X33283Y-31299
X33315Y-26772
X33315Y-29724
X35039Y-29724
X36039Y-29724
X36614Y-31299
X37039Y-29724
X37614Y-31299
X38039Y-29724
T4
X19685Y-19685
X21185Y-19685
T0
M30
