%TF.GenerationSoftware,KiCad,Pcbnew,5.1.6-c6e7f7d~86~ubuntu20.04.1*%
%TF.CreationDate,2020-09-07T12:19:27+02:00*%
%TF.ProjectId,Measurment,4d656173-7572-46d6-956e-742e6b696361,rev?*%
%TF.SameCoordinates,Original*%
%TF.FileFunction,Copper,L2,Bot*%
%TF.FilePolarity,Positive*%
%FSLAX46Y46*%
G04 Gerber Fmt 4.6, Leading zero omitted, Abs format (unit mm)*
G04 Created by KiCad (PCBNEW 5.1.6-c6e7f7d~86~ubuntu20.04.1) date 2020-09-07 12:19:27*
%MOMM*%
%LPD*%
G01*
G04 APERTURE LIST*
%TA.AperFunction,ComponentPad*%
%ADD10O,1.700000X1.700000*%
%TD*%
%TA.AperFunction,ComponentPad*%
%ADD11R,1.700000X1.700000*%
%TD*%
%TA.AperFunction,ComponentPad*%
%ADD12O,1.800000X3.600000*%
%TD*%
%TA.AperFunction,ComponentPad*%
%ADD13O,1.500000X1.500000*%
%TD*%
%TA.AperFunction,ComponentPad*%
%ADD14R,1.500000X1.500000*%
%TD*%
%TA.AperFunction,ComponentPad*%
%ADD15O,2.300000X1.500000*%
%TD*%
%TA.AperFunction,ComponentPad*%
%ADD16R,2.300000X1.500000*%
%TD*%
%TA.AperFunction,ViaPad*%
%ADD17C,0.800000*%
%TD*%
%TA.AperFunction,Conductor*%
%ADD18C,0.250000*%
%TD*%
%TA.AperFunction,Conductor*%
%ADD19C,1.000000*%
%TD*%
%TA.AperFunction,Conductor*%
%ADD20C,0.254000*%
%TD*%
G04 APERTURE END LIST*
D10*
%TO.P,J1,14*%
%TO.N,GNDD*%
X91540000Y-75500000D03*
D11*
X89000000Y-75500000D03*
D10*
%TO.P,J1,15*%
%TO.N,+5VD*%
X96620000Y-75500000D03*
X94080000Y-75500000D03*
D11*
%TO.P,J1,14*%
%TO.N,GNDD*%
X77000000Y-68000000D03*
D10*
%TO.P,J1,13*%
%TO.N,+5VD*%
X84620000Y-68000000D03*
%TO.P,J1,14*%
%TO.N,GNDD*%
X79540000Y-68000000D03*
%TO.P,J1,13*%
%TO.N,+5VD*%
X82080000Y-68000000D03*
%TO.P,J1,12*%
%TO.N,/VTh_ADC*%
X84620000Y-75500000D03*
%TO.P,J1,11*%
%TO.N,/IIHigh_ADC*%
X82080000Y-75500000D03*
D11*
%TO.P,J1,9*%
%TO.N,/IILow1_ADC*%
X77000000Y-75500000D03*
D10*
%TO.P,J1,10*%
%TO.N,/IILow2_ADC*%
X79540000Y-75500000D03*
%TO.P,J1,7*%
%TO.N,/VIHigh+_ADC*%
X73040000Y-68000000D03*
D11*
%TO.P,J1,8*%
%TO.N,/VIHigh-_ADC*%
X70500000Y-68000000D03*
%TO.P,J1,5*%
%TO.N,/VILow2+_ADC*%
X93000000Y-79500000D03*
D10*
%TO.P,J1,6*%
%TO.N,/VILow2_ADC*%
X95540000Y-79500000D03*
D11*
%TO.P,J1,3*%
%TO.N,/VILow1+_ADC*%
X82000000Y-79500000D03*
D10*
%TO.P,J1,4*%
%TO.N,/VILow1-_ADC*%
X84540000Y-79500000D03*
D11*
%TO.P,J1,1*%
%TO.N,+15V*%
X66000000Y-73500000D03*
D10*
%TO.P,J1,2*%
%TO.N,GNDREF*%
X66000000Y-78580000D03*
%TO.P,J1,1*%
%TO.N,+15V*%
X66000000Y-76040000D03*
%TO.P,J1,2*%
%TO.N,GNDREF*%
X66000000Y-81120000D03*
%TD*%
%TO.P,J2,20*%
%TO.N,GNDREF*%
X44000000Y-46540000D03*
D11*
X44000000Y-44000000D03*
D10*
%TO.P,J2,3*%
%TO.N,GNDD*%
X119500000Y-94580000D03*
%TO.P,J2,5*%
%TO.N,/IILow2*%
X119500000Y-92040000D03*
D11*
%TO.P,J2,4*%
%TO.N,+5VD*%
X119500000Y-89500000D03*
%TO.P,J2,12*%
%TO.N,/VILow1+*%
X70500000Y-102500000D03*
%TO.P,J2,14*%
%TO.N,/VILow2+*%
X117000000Y-102500000D03*
D10*
%TO.P,J2,13*%
%TO.N,/VILow1-*%
X73040000Y-102500000D03*
%TO.P,J2,15*%
%TO.N,/VILow2-*%
X119540000Y-102500000D03*
D11*
%TO.P,J2,4*%
%TO.N,+5VD*%
X70500000Y-86500000D03*
D10*
%TO.P,J2,2*%
%TO.N,/IILow1*%
X70500000Y-89040000D03*
%TO.P,J2,17*%
%TO.N,/VTh*%
X70500000Y-91580000D03*
%TO.P,J2,3*%
%TO.N,GNDD*%
X70500000Y-94120000D03*
D11*
%TO.P,J2,10*%
%TO.N,/VIHigh+*%
X97000000Y-49000000D03*
D10*
%TO.P,J2,11*%
%TO.N,GNDREF*%
X97000000Y-51540000D03*
%TO.P,J2,3*%
%TO.N,GNDD*%
X85420000Y-55500000D03*
D11*
%TO.P,J2,4*%
%TO.N,+5VD*%
X90500000Y-55500000D03*
D10*
%TO.P,J2,8*%
%TO.N,/IIHigh*%
X87960000Y-55500000D03*
%TD*%
D12*
%TO.P,J3,2*%
%TO.N,GNDREF*%
X53810000Y-50000000D03*
%TO.P,J3,1*%
%TO.N,+15V*%
%TA.AperFunction,ComponentPad*%
G36*
G01*
X49100000Y-51550000D02*
X49100000Y-48450000D01*
G75*
G02*
X49350000Y-48200000I250000J0D01*
G01*
X50650000Y-48200000D01*
G75*
G02*
X50900000Y-48450000I0J-250000D01*
G01*
X50900000Y-51550000D01*
G75*
G02*
X50650000Y-51800000I-250000J0D01*
G01*
X49350000Y-51800000D01*
G75*
G02*
X49100000Y-51550000I0J250000D01*
G01*
G37*
%TD.AperFunction*%
%TD*%
D13*
%TO.P,U7,6*%
%TO.N,+5VD*%
X63500000Y-56700000D03*
%TO.P,U7,5*%
%TO.N,Net-(U7-Pad5)*%
X63500000Y-54160000D03*
%TO.P,U7,4*%
%TO.N,GNDD*%
X63500000Y-51620000D03*
%TO.P,U7,2*%
%TO.N,GNDREF*%
X63500000Y-46540000D03*
D14*
%TO.P,U7,1*%
%TO.N,+5V*%
X63500000Y-44000000D03*
%TD*%
D13*
%TO.P,U1,6*%
%TO.N,+5P*%
X60000000Y-99200000D03*
%TO.P,U1,5*%
%TO.N,Net-(U1-Pad5)*%
X60000000Y-96660000D03*
%TO.P,U1,4*%
%TO.N,/N*%
X60000000Y-94120000D03*
%TO.P,U1,2*%
%TO.N,GNDREF*%
X60000000Y-89040000D03*
D14*
%TO.P,U1,1*%
%TO.N,+5V*%
X60000000Y-86500000D03*
%TD*%
D15*
%TO.P,U5,3*%
%TO.N,+5V*%
X38500000Y-50580000D03*
%TO.P,U5,2*%
%TO.N,GNDREF*%
X38500000Y-48040000D03*
D16*
%TO.P,U5,1*%
%TO.N,+15V*%
X38500000Y-45500000D03*
%TD*%
D17*
%TO.N,GNDD*%
X79000000Y-92000000D03*
X81000000Y-92000000D03*
X77000000Y-92000000D03*
X73500000Y-83500000D03*
X72000000Y-72000000D03*
X72000000Y-70500000D03*
X51000000Y-68000000D03*
X53000000Y-68000000D03*
X58500000Y-61500000D03*
X60000000Y-61500000D03*
X70000000Y-56500000D03*
X70000000Y-55000000D03*
X77500000Y-73000000D03*
X79500000Y-73000000D03*
X91500000Y-73000000D03*
X89500000Y-73000000D03*
X87500000Y-73000000D03*
X89500000Y-79500000D03*
X89500000Y-81500000D03*
X89500000Y-83500000D03*
X75500000Y-83500000D03*
%TO.N,+5VD*%
X51000000Y-63500000D03*
X86375000Y-64625000D03*
%TO.N,/IIHigh_ADC*%
X82250000Y-73250000D03*
%TO.N,+5P*%
X82500000Y-98750000D03*
X96000000Y-99000000D03*
X64000000Y-98250000D03*
%TO.N,/N*%
X90000000Y-103000000D03*
X92000000Y-103000000D03*
X94000000Y-103000000D03*
X96000000Y-103000000D03*
X98000000Y-103000000D03*
X109500000Y-98500000D03*
X97500000Y-98500000D03*
X66000000Y-103000000D03*
X66000000Y-101000000D03*
X116500000Y-100000000D03*
X118500000Y-100000000D03*
%TO.N,+3V3*%
X100825000Y-88675000D03*
X81325000Y-88675000D03*
X78000000Y-65750000D03*
X77500000Y-57750000D03*
X44500024Y-63500000D03*
%TO.N,+5V*%
X35000000Y-68000010D03*
%TD*%
D18*
%TO.N,+5VD*%
X62750000Y-63500000D02*
X51000000Y-63500000D01*
X63500000Y-62750000D02*
X62750000Y-63500000D01*
X63500000Y-56700000D02*
X63500000Y-62750000D01*
D19*
X119500000Y-89500000D02*
X107750000Y-89500000D01*
X96620000Y-75500000D02*
X94080000Y-75500000D01*
X90500000Y-55500000D02*
X92000000Y-55500000D01*
X96620000Y-60120000D02*
X96620000Y-75500000D01*
X92000000Y-55500000D02*
X96620000Y-60120000D01*
X70500000Y-86500000D02*
X70750000Y-86500000D01*
X107750000Y-89500000D02*
X103500000Y-89500000D01*
X103500000Y-89500000D02*
X102000000Y-91000000D01*
X77128002Y-86500000D02*
X70500000Y-86500000D01*
X81628002Y-91000000D02*
X77128002Y-86500000D01*
X102000000Y-91000000D02*
X81628002Y-91000000D01*
X94080000Y-72330000D02*
X94080000Y-75500000D01*
X63500000Y-56700000D02*
X66700000Y-56700000D01*
X66700000Y-56700000D02*
X74500000Y-64500000D01*
X74500000Y-64500000D02*
X86250000Y-64500000D01*
X86250000Y-64500000D02*
X86375000Y-64625000D01*
X86375000Y-64625000D02*
X94080000Y-72330000D01*
X98500000Y-84000000D02*
X98500000Y-77380000D01*
X104000000Y-89500000D02*
X98500000Y-84000000D01*
X98500000Y-77380000D02*
X96620000Y-75500000D01*
X107750000Y-89500000D02*
X104000000Y-89500000D01*
D18*
%TO.N,/IIHigh_ADC*%
X82080000Y-73420000D02*
X82250000Y-73250000D01*
X82080000Y-75500000D02*
X82080000Y-73420000D01*
%TO.N,+5P*%
X64000000Y-98250000D02*
X64000000Y-98250000D01*
X82000000Y-98250000D02*
X82500000Y-98750000D01*
X82500000Y-98750000D02*
X95750000Y-98750000D01*
X95750000Y-98750000D02*
X96000000Y-99000000D01*
X64000000Y-98250000D02*
X82000000Y-98250000D01*
D19*
%TO.N,+3V3*%
X100825000Y-88675000D02*
X81325000Y-88675000D01*
X45500000Y-64750000D02*
X45500000Y-64499976D01*
X85420000Y-65750000D02*
X46500000Y-65750000D01*
X87500000Y-67830000D02*
X85420000Y-65750000D01*
X85920000Y-71000000D02*
X87500000Y-69420000D01*
X73900000Y-73850000D02*
X76750000Y-71000000D01*
X45500000Y-64499976D02*
X44500024Y-63500000D01*
X46500000Y-65750000D02*
X45500000Y-64750000D01*
X73900000Y-78400000D02*
X73900000Y-73850000D01*
X87500000Y-69420000D02*
X87500000Y-67830000D01*
X80000000Y-84500000D02*
X73900000Y-78400000D01*
X80000000Y-87350000D02*
X80000000Y-84500000D01*
X76750000Y-71000000D02*
X85920000Y-71000000D01*
X81325000Y-88675000D02*
X80000000Y-87350000D01*
%TO.N,+5V*%
X35000000Y-54080000D02*
X35000000Y-68000010D01*
X38500000Y-50580000D02*
X35000000Y-54080000D01*
X35000000Y-72500000D02*
X35000000Y-68000010D01*
X37000000Y-74500000D02*
X35000000Y-72500000D01*
X54525318Y-74500000D02*
X37000000Y-74500000D01*
X60000000Y-79974682D02*
X54525318Y-74500000D01*
X60000000Y-86500000D02*
X60000000Y-79974682D01*
X49750000Y-44000000D02*
X63500000Y-44000000D01*
X47000000Y-46750000D02*
X49750000Y-44000000D01*
X45500000Y-49500000D02*
X47000000Y-48000000D01*
X47000000Y-48000000D02*
X47000000Y-46750000D01*
X39580000Y-49500000D02*
X45500000Y-49500000D01*
X38500000Y-50580000D02*
X39580000Y-49500000D01*
%TD*%
D20*
%TO.N,GNDD*%
G36*
X69024188Y-85525518D02*
G01*
X69011928Y-85650000D01*
X69011928Y-87350000D01*
X69024188Y-87474482D01*
X69060498Y-87594180D01*
X69119463Y-87704494D01*
X69198815Y-87801185D01*
X69295506Y-87880537D01*
X69405820Y-87939502D01*
X69478380Y-87961513D01*
X69346525Y-88093368D01*
X69184010Y-88336589D01*
X69072068Y-88606842D01*
X69015000Y-88893740D01*
X69015000Y-89186260D01*
X69072068Y-89473158D01*
X69184010Y-89743411D01*
X69346525Y-89986632D01*
X69553368Y-90193475D01*
X69727760Y-90310000D01*
X69553368Y-90426525D01*
X69346525Y-90633368D01*
X69184010Y-90876589D01*
X69072068Y-91146842D01*
X69015000Y-91433740D01*
X69015000Y-91726260D01*
X69072068Y-92013158D01*
X69184010Y-92283411D01*
X69346525Y-92526632D01*
X69553368Y-92733475D01*
X69735534Y-92855195D01*
X69618645Y-92924822D01*
X69402412Y-93119731D01*
X69228359Y-93353080D01*
X69103175Y-93615901D01*
X69058524Y-93763110D01*
X69179845Y-93993000D01*
X70373000Y-93993000D01*
X70373000Y-93973000D01*
X70627000Y-93973000D01*
X70627000Y-93993000D01*
X71820155Y-93993000D01*
X71941476Y-93763110D01*
X71896825Y-93615901D01*
X71771641Y-93353080D01*
X71597588Y-93119731D01*
X71381355Y-92924822D01*
X71264466Y-92855195D01*
X71446632Y-92733475D01*
X71653475Y-92526632D01*
X71815990Y-92283411D01*
X71927932Y-92013158D01*
X71985000Y-91726260D01*
X71985000Y-91433740D01*
X71927932Y-91146842D01*
X71815990Y-90876589D01*
X71653475Y-90633368D01*
X71446632Y-90426525D01*
X71272240Y-90310000D01*
X71446632Y-90193475D01*
X71653475Y-89986632D01*
X71815990Y-89743411D01*
X71927932Y-89473158D01*
X71985000Y-89186260D01*
X71985000Y-88893740D01*
X71927932Y-88606842D01*
X71815990Y-88336589D01*
X71653475Y-88093368D01*
X71521620Y-87961513D01*
X71594180Y-87939502D01*
X71704494Y-87880537D01*
X71801185Y-87801185D01*
X71880537Y-87704494D01*
X71917683Y-87635000D01*
X76657871Y-87635000D01*
X80786011Y-91763141D01*
X80821553Y-91806449D01*
X80994379Y-91948284D01*
X81115751Y-92013158D01*
X81191555Y-92053676D01*
X81405503Y-92118577D01*
X81628001Y-92140491D01*
X81683753Y-92135000D01*
X101944249Y-92135000D01*
X102000000Y-92140491D01*
X102055751Y-92135000D01*
X102055752Y-92135000D01*
X102222499Y-92118577D01*
X102436447Y-92053676D01*
X102633623Y-91948284D01*
X102806449Y-91806449D01*
X102841996Y-91763135D01*
X103967811Y-90637321D01*
X104000000Y-90640491D01*
X104055752Y-90635000D01*
X118082317Y-90635000D01*
X118119463Y-90704494D01*
X118198815Y-90801185D01*
X118295506Y-90880537D01*
X118405820Y-90939502D01*
X118478380Y-90961513D01*
X118346525Y-91093368D01*
X118184010Y-91336589D01*
X118072068Y-91606842D01*
X118015000Y-91893740D01*
X118015000Y-92186260D01*
X118072068Y-92473158D01*
X118184010Y-92743411D01*
X118346525Y-92986632D01*
X118553368Y-93193475D01*
X118735534Y-93315195D01*
X118618645Y-93384822D01*
X118402412Y-93579731D01*
X118228359Y-93813080D01*
X118103175Y-94075901D01*
X118058524Y-94223110D01*
X118179845Y-94453000D01*
X119373000Y-94453000D01*
X119373000Y-94433000D01*
X119627000Y-94433000D01*
X119627000Y-94453000D01*
X119647000Y-94453000D01*
X119647000Y-94707000D01*
X119627000Y-94707000D01*
X119627000Y-94727000D01*
X119373000Y-94727000D01*
X119373000Y-94707000D01*
X118179845Y-94707000D01*
X118058524Y-94936890D01*
X118103175Y-95084099D01*
X118228359Y-95346920D01*
X118402412Y-95580269D01*
X118618645Y-95775178D01*
X118782867Y-95873000D01*
X113561039Y-95873000D01*
X111599170Y-93420664D01*
X111581787Y-93402841D01*
X111561261Y-93388752D01*
X111538380Y-93378938D01*
X111514025Y-93373777D01*
X111500000Y-93373000D01*
X78000000Y-93373000D01*
X77975224Y-93375440D01*
X77951399Y-93382667D01*
X77929443Y-93394403D01*
X77910197Y-93410197D01*
X77898400Y-93423800D01*
X76436500Y-95373000D01*
X71284285Y-95373000D01*
X71381355Y-95315178D01*
X71597588Y-95120269D01*
X71771641Y-94886920D01*
X71896825Y-94624099D01*
X71941476Y-94476890D01*
X71820155Y-94247000D01*
X70627000Y-94247000D01*
X70627000Y-94267000D01*
X70373000Y-94267000D01*
X70373000Y-94247000D01*
X69179845Y-94247000D01*
X69058524Y-94476890D01*
X69103175Y-94624099D01*
X69228359Y-94886920D01*
X69402412Y-95120269D01*
X69618645Y-95315178D01*
X69715715Y-95373000D01*
X69052606Y-95373000D01*
X68127000Y-94447394D01*
X68127000Y-86546981D01*
X69036046Y-85486427D01*
X69024188Y-85525518D01*
G37*
X69024188Y-85525518D02*
X69011928Y-85650000D01*
X69011928Y-87350000D01*
X69024188Y-87474482D01*
X69060498Y-87594180D01*
X69119463Y-87704494D01*
X69198815Y-87801185D01*
X69295506Y-87880537D01*
X69405820Y-87939502D01*
X69478380Y-87961513D01*
X69346525Y-88093368D01*
X69184010Y-88336589D01*
X69072068Y-88606842D01*
X69015000Y-88893740D01*
X69015000Y-89186260D01*
X69072068Y-89473158D01*
X69184010Y-89743411D01*
X69346525Y-89986632D01*
X69553368Y-90193475D01*
X69727760Y-90310000D01*
X69553368Y-90426525D01*
X69346525Y-90633368D01*
X69184010Y-90876589D01*
X69072068Y-91146842D01*
X69015000Y-91433740D01*
X69015000Y-91726260D01*
X69072068Y-92013158D01*
X69184010Y-92283411D01*
X69346525Y-92526632D01*
X69553368Y-92733475D01*
X69735534Y-92855195D01*
X69618645Y-92924822D01*
X69402412Y-93119731D01*
X69228359Y-93353080D01*
X69103175Y-93615901D01*
X69058524Y-93763110D01*
X69179845Y-93993000D01*
X70373000Y-93993000D01*
X70373000Y-93973000D01*
X70627000Y-93973000D01*
X70627000Y-93993000D01*
X71820155Y-93993000D01*
X71941476Y-93763110D01*
X71896825Y-93615901D01*
X71771641Y-93353080D01*
X71597588Y-93119731D01*
X71381355Y-92924822D01*
X71264466Y-92855195D01*
X71446632Y-92733475D01*
X71653475Y-92526632D01*
X71815990Y-92283411D01*
X71927932Y-92013158D01*
X71985000Y-91726260D01*
X71985000Y-91433740D01*
X71927932Y-91146842D01*
X71815990Y-90876589D01*
X71653475Y-90633368D01*
X71446632Y-90426525D01*
X71272240Y-90310000D01*
X71446632Y-90193475D01*
X71653475Y-89986632D01*
X71815990Y-89743411D01*
X71927932Y-89473158D01*
X71985000Y-89186260D01*
X71985000Y-88893740D01*
X71927932Y-88606842D01*
X71815990Y-88336589D01*
X71653475Y-88093368D01*
X71521620Y-87961513D01*
X71594180Y-87939502D01*
X71704494Y-87880537D01*
X71801185Y-87801185D01*
X71880537Y-87704494D01*
X71917683Y-87635000D01*
X76657871Y-87635000D01*
X80786011Y-91763141D01*
X80821553Y-91806449D01*
X80994379Y-91948284D01*
X81115751Y-92013158D01*
X81191555Y-92053676D01*
X81405503Y-92118577D01*
X81628001Y-92140491D01*
X81683753Y-92135000D01*
X101944249Y-92135000D01*
X102000000Y-92140491D01*
X102055751Y-92135000D01*
X102055752Y-92135000D01*
X102222499Y-92118577D01*
X102436447Y-92053676D01*
X102633623Y-91948284D01*
X102806449Y-91806449D01*
X102841996Y-91763135D01*
X103967811Y-90637321D01*
X104000000Y-90640491D01*
X104055752Y-90635000D01*
X118082317Y-90635000D01*
X118119463Y-90704494D01*
X118198815Y-90801185D01*
X118295506Y-90880537D01*
X118405820Y-90939502D01*
X118478380Y-90961513D01*
X118346525Y-91093368D01*
X118184010Y-91336589D01*
X118072068Y-91606842D01*
X118015000Y-91893740D01*
X118015000Y-92186260D01*
X118072068Y-92473158D01*
X118184010Y-92743411D01*
X118346525Y-92986632D01*
X118553368Y-93193475D01*
X118735534Y-93315195D01*
X118618645Y-93384822D01*
X118402412Y-93579731D01*
X118228359Y-93813080D01*
X118103175Y-94075901D01*
X118058524Y-94223110D01*
X118179845Y-94453000D01*
X119373000Y-94453000D01*
X119373000Y-94433000D01*
X119627000Y-94433000D01*
X119627000Y-94453000D01*
X119647000Y-94453000D01*
X119647000Y-94707000D01*
X119627000Y-94707000D01*
X119627000Y-94727000D01*
X119373000Y-94727000D01*
X119373000Y-94707000D01*
X118179845Y-94707000D01*
X118058524Y-94936890D01*
X118103175Y-95084099D01*
X118228359Y-95346920D01*
X118402412Y-95580269D01*
X118618645Y-95775178D01*
X118782867Y-95873000D01*
X113561039Y-95873000D01*
X111599170Y-93420664D01*
X111581787Y-93402841D01*
X111561261Y-93388752D01*
X111538380Y-93378938D01*
X111514025Y-93373777D01*
X111500000Y-93373000D01*
X78000000Y-93373000D01*
X77975224Y-93375440D01*
X77951399Y-93382667D01*
X77929443Y-93394403D01*
X77910197Y-93410197D01*
X77898400Y-93423800D01*
X76436500Y-95373000D01*
X71284285Y-95373000D01*
X71381355Y-95315178D01*
X71597588Y-95120269D01*
X71771641Y-94886920D01*
X71896825Y-94624099D01*
X71941476Y-94476890D01*
X71820155Y-94247000D01*
X70627000Y-94247000D01*
X70627000Y-94267000D01*
X70373000Y-94267000D01*
X70373000Y-94247000D01*
X69179845Y-94247000D01*
X69058524Y-94476890D01*
X69103175Y-94624099D01*
X69228359Y-94886920D01*
X69402412Y-95120269D01*
X69618645Y-95315178D01*
X69715715Y-95373000D01*
X69052606Y-95373000D01*
X68127000Y-94447394D01*
X68127000Y-86546981D01*
X69036046Y-85486427D01*
X69024188Y-85525518D01*
G36*
X92945000Y-72800132D02*
G01*
X92945001Y-74534892D01*
X92926525Y-74553368D01*
X92804805Y-74735534D01*
X92735178Y-74618645D01*
X92540269Y-74402412D01*
X92306920Y-74228359D01*
X92044099Y-74103175D01*
X91896890Y-74058524D01*
X91667000Y-74179845D01*
X91667000Y-75373000D01*
X91687000Y-75373000D01*
X91687000Y-75627000D01*
X91667000Y-75627000D01*
X91667000Y-76820155D01*
X91896890Y-76941476D01*
X92044099Y-76896825D01*
X92306920Y-76771641D01*
X92540269Y-76597588D01*
X92735178Y-76381355D01*
X92804805Y-76264466D01*
X92926525Y-76446632D01*
X93133368Y-76653475D01*
X93376589Y-76815990D01*
X93646842Y-76927932D01*
X93933740Y-76985000D01*
X94226260Y-76985000D01*
X94513158Y-76927932D01*
X94783411Y-76815990D01*
X95026632Y-76653475D01*
X95045107Y-76635000D01*
X95654893Y-76635000D01*
X95673368Y-76653475D01*
X95916589Y-76815990D01*
X96186842Y-76927932D01*
X96473740Y-76985000D01*
X96499869Y-76985000D01*
X97365001Y-77850133D01*
X97365000Y-83944248D01*
X97359509Y-84000000D01*
X97365000Y-84055751D01*
X97381423Y-84222498D01*
X97446324Y-84436446D01*
X97551716Y-84633623D01*
X97693551Y-84806449D01*
X97736865Y-84841996D01*
X100434868Y-87540000D01*
X81795132Y-87540000D01*
X81135000Y-86879869D01*
X81135000Y-84555752D01*
X81140491Y-84500000D01*
X81118577Y-84277501D01*
X81053676Y-84063553D01*
X80948284Y-83866377D01*
X80841989Y-83736856D01*
X80841987Y-83736854D01*
X80806449Y-83693551D01*
X80763146Y-83658013D01*
X75755132Y-78650000D01*
X80511928Y-78650000D01*
X80511928Y-80350000D01*
X80524188Y-80474482D01*
X80560498Y-80594180D01*
X80619463Y-80704494D01*
X80698815Y-80801185D01*
X80795506Y-80880537D01*
X80905820Y-80939502D01*
X81025518Y-80975812D01*
X81150000Y-80988072D01*
X82850000Y-80988072D01*
X82974482Y-80975812D01*
X83094180Y-80939502D01*
X83204494Y-80880537D01*
X83301185Y-80801185D01*
X83380537Y-80704494D01*
X83439502Y-80594180D01*
X83461513Y-80521620D01*
X83593368Y-80653475D01*
X83836589Y-80815990D01*
X84106842Y-80927932D01*
X84393740Y-80985000D01*
X84686260Y-80985000D01*
X84973158Y-80927932D01*
X85243411Y-80815990D01*
X85486632Y-80653475D01*
X85693475Y-80446632D01*
X85855990Y-80203411D01*
X85967932Y-79933158D01*
X86025000Y-79646260D01*
X86025000Y-79353740D01*
X85967932Y-79066842D01*
X85855990Y-78796589D01*
X85758043Y-78650000D01*
X91511928Y-78650000D01*
X91511928Y-80350000D01*
X91524188Y-80474482D01*
X91560498Y-80594180D01*
X91619463Y-80704494D01*
X91698815Y-80801185D01*
X91795506Y-80880537D01*
X91905820Y-80939502D01*
X92025518Y-80975812D01*
X92150000Y-80988072D01*
X93850000Y-80988072D01*
X93974482Y-80975812D01*
X94094180Y-80939502D01*
X94204494Y-80880537D01*
X94301185Y-80801185D01*
X94380537Y-80704494D01*
X94439502Y-80594180D01*
X94461513Y-80521620D01*
X94593368Y-80653475D01*
X94836589Y-80815990D01*
X95106842Y-80927932D01*
X95393740Y-80985000D01*
X95686260Y-80985000D01*
X95973158Y-80927932D01*
X96243411Y-80815990D01*
X96486632Y-80653475D01*
X96693475Y-80446632D01*
X96855990Y-80203411D01*
X96967932Y-79933158D01*
X97025000Y-79646260D01*
X97025000Y-79353740D01*
X96967932Y-79066842D01*
X96855990Y-78796589D01*
X96693475Y-78553368D01*
X96486632Y-78346525D01*
X96243411Y-78184010D01*
X95973158Y-78072068D01*
X95686260Y-78015000D01*
X95393740Y-78015000D01*
X95106842Y-78072068D01*
X94836589Y-78184010D01*
X94593368Y-78346525D01*
X94461513Y-78478380D01*
X94439502Y-78405820D01*
X94380537Y-78295506D01*
X94301185Y-78198815D01*
X94204494Y-78119463D01*
X94094180Y-78060498D01*
X93974482Y-78024188D01*
X93850000Y-78011928D01*
X92150000Y-78011928D01*
X92025518Y-78024188D01*
X91905820Y-78060498D01*
X91795506Y-78119463D01*
X91698815Y-78198815D01*
X91619463Y-78295506D01*
X91560498Y-78405820D01*
X91524188Y-78525518D01*
X91511928Y-78650000D01*
X85758043Y-78650000D01*
X85693475Y-78553368D01*
X85486632Y-78346525D01*
X85243411Y-78184010D01*
X84973158Y-78072068D01*
X84686260Y-78015000D01*
X84393740Y-78015000D01*
X84106842Y-78072068D01*
X83836589Y-78184010D01*
X83593368Y-78346525D01*
X83461513Y-78478380D01*
X83439502Y-78405820D01*
X83380537Y-78295506D01*
X83301185Y-78198815D01*
X83204494Y-78119463D01*
X83094180Y-78060498D01*
X82974482Y-78024188D01*
X82850000Y-78011928D01*
X81150000Y-78011928D01*
X81025518Y-78024188D01*
X80905820Y-78060498D01*
X80795506Y-78119463D01*
X80698815Y-78198815D01*
X80619463Y-78295506D01*
X80560498Y-78405820D01*
X80524188Y-78525518D01*
X80511928Y-78650000D01*
X75755132Y-78650000D01*
X75035000Y-77929869D01*
X75035000Y-74650000D01*
X75511928Y-74650000D01*
X75511928Y-76350000D01*
X75524188Y-76474482D01*
X75560498Y-76594180D01*
X75619463Y-76704494D01*
X75698815Y-76801185D01*
X75795506Y-76880537D01*
X75905820Y-76939502D01*
X76025518Y-76975812D01*
X76150000Y-76988072D01*
X77850000Y-76988072D01*
X77974482Y-76975812D01*
X78094180Y-76939502D01*
X78204494Y-76880537D01*
X78301185Y-76801185D01*
X78380537Y-76704494D01*
X78439502Y-76594180D01*
X78461513Y-76521620D01*
X78593368Y-76653475D01*
X78836589Y-76815990D01*
X79106842Y-76927932D01*
X79393740Y-76985000D01*
X79686260Y-76985000D01*
X79973158Y-76927932D01*
X80243411Y-76815990D01*
X80486632Y-76653475D01*
X80693475Y-76446632D01*
X80810000Y-76272240D01*
X80926525Y-76446632D01*
X81133368Y-76653475D01*
X81376589Y-76815990D01*
X81646842Y-76927932D01*
X81933740Y-76985000D01*
X82226260Y-76985000D01*
X82513158Y-76927932D01*
X82783411Y-76815990D01*
X83026632Y-76653475D01*
X83233475Y-76446632D01*
X83350000Y-76272240D01*
X83466525Y-76446632D01*
X83673368Y-76653475D01*
X83916589Y-76815990D01*
X84186842Y-76927932D01*
X84473740Y-76985000D01*
X84766260Y-76985000D01*
X85053158Y-76927932D01*
X85323411Y-76815990D01*
X85566632Y-76653475D01*
X85773475Y-76446632D01*
X85838042Y-76350000D01*
X87511928Y-76350000D01*
X87524188Y-76474482D01*
X87560498Y-76594180D01*
X87619463Y-76704494D01*
X87698815Y-76801185D01*
X87795506Y-76880537D01*
X87905820Y-76939502D01*
X88025518Y-76975812D01*
X88150000Y-76988072D01*
X88714250Y-76985000D01*
X88873000Y-76826250D01*
X88873000Y-75627000D01*
X89127000Y-75627000D01*
X89127000Y-76826250D01*
X89285750Y-76985000D01*
X89850000Y-76988072D01*
X89974482Y-76975812D01*
X90094180Y-76939502D01*
X90204494Y-76880537D01*
X90301185Y-76801185D01*
X90380537Y-76704494D01*
X90439502Y-76594180D01*
X90463966Y-76513534D01*
X90539731Y-76597588D01*
X90773080Y-76771641D01*
X91035901Y-76896825D01*
X91183110Y-76941476D01*
X91413000Y-76820155D01*
X91413000Y-75627000D01*
X89127000Y-75627000D01*
X88873000Y-75627000D01*
X87673750Y-75627000D01*
X87515000Y-75785750D01*
X87511928Y-76350000D01*
X85838042Y-76350000D01*
X85935990Y-76203411D01*
X86047932Y-75933158D01*
X86105000Y-75646260D01*
X86105000Y-75353740D01*
X86047932Y-75066842D01*
X85935990Y-74796589D01*
X85838043Y-74650000D01*
X87511928Y-74650000D01*
X87515000Y-75214250D01*
X87673750Y-75373000D01*
X88873000Y-75373000D01*
X88873000Y-74173750D01*
X89127000Y-74173750D01*
X89127000Y-75373000D01*
X91413000Y-75373000D01*
X91413000Y-74179845D01*
X91183110Y-74058524D01*
X91035901Y-74103175D01*
X90773080Y-74228359D01*
X90539731Y-74402412D01*
X90463966Y-74486466D01*
X90439502Y-74405820D01*
X90380537Y-74295506D01*
X90301185Y-74198815D01*
X90204494Y-74119463D01*
X90094180Y-74060498D01*
X89974482Y-74024188D01*
X89850000Y-74011928D01*
X89285750Y-74015000D01*
X89127000Y-74173750D01*
X88873000Y-74173750D01*
X88714250Y-74015000D01*
X88150000Y-74011928D01*
X88025518Y-74024188D01*
X87905820Y-74060498D01*
X87795506Y-74119463D01*
X87698815Y-74198815D01*
X87619463Y-74295506D01*
X87560498Y-74405820D01*
X87524188Y-74525518D01*
X87511928Y-74650000D01*
X85838043Y-74650000D01*
X85773475Y-74553368D01*
X85566632Y-74346525D01*
X85323411Y-74184010D01*
X85053158Y-74072068D01*
X84766260Y-74015000D01*
X84473740Y-74015000D01*
X84186842Y-74072068D01*
X83916589Y-74184010D01*
X83673368Y-74346525D01*
X83466525Y-74553368D01*
X83350000Y-74727760D01*
X83233475Y-74553368D01*
X83026632Y-74346525D01*
X82840000Y-74221822D01*
X82840000Y-74100558D01*
X82909774Y-74053937D01*
X83053937Y-73909774D01*
X83167205Y-73740256D01*
X83245226Y-73551898D01*
X83285000Y-73351939D01*
X83285000Y-73148061D01*
X83245226Y-72948102D01*
X83167205Y-72759744D01*
X83053937Y-72590226D01*
X82909774Y-72446063D01*
X82740256Y-72332795D01*
X82551898Y-72254774D01*
X82351939Y-72215000D01*
X82148061Y-72215000D01*
X81948102Y-72254774D01*
X81759744Y-72332795D01*
X81590226Y-72446063D01*
X81446063Y-72590226D01*
X81332795Y-72759744D01*
X81254774Y-72948102D01*
X81215000Y-73148061D01*
X81215000Y-73351939D01*
X81254774Y-73551898D01*
X81320001Y-73709368D01*
X81320001Y-74221821D01*
X81133368Y-74346525D01*
X80926525Y-74553368D01*
X80810000Y-74727760D01*
X80693475Y-74553368D01*
X80486632Y-74346525D01*
X80243411Y-74184010D01*
X79973158Y-74072068D01*
X79686260Y-74015000D01*
X79393740Y-74015000D01*
X79106842Y-74072068D01*
X78836589Y-74184010D01*
X78593368Y-74346525D01*
X78461513Y-74478380D01*
X78439502Y-74405820D01*
X78380537Y-74295506D01*
X78301185Y-74198815D01*
X78204494Y-74119463D01*
X78094180Y-74060498D01*
X77974482Y-74024188D01*
X77850000Y-74011928D01*
X76150000Y-74011928D01*
X76025518Y-74024188D01*
X75905820Y-74060498D01*
X75795506Y-74119463D01*
X75698815Y-74198815D01*
X75619463Y-74295506D01*
X75560498Y-74405820D01*
X75524188Y-74525518D01*
X75511928Y-74650000D01*
X75035000Y-74650000D01*
X75035000Y-74320131D01*
X77220133Y-72135000D01*
X85864249Y-72135000D01*
X85920000Y-72140491D01*
X85975751Y-72135000D01*
X85975752Y-72135000D01*
X86142499Y-72118577D01*
X86356447Y-72053676D01*
X86553623Y-71948284D01*
X86726449Y-71806449D01*
X86761996Y-71763135D01*
X88263140Y-70261991D01*
X88306449Y-70226449D01*
X88448284Y-70053623D01*
X88553676Y-69856447D01*
X88618577Y-69642499D01*
X88635000Y-69475752D01*
X88635000Y-69475743D01*
X88640490Y-69420001D01*
X88635000Y-69364259D01*
X88635000Y-68490131D01*
X92945000Y-72800132D01*
G37*
X92945000Y-72800132D02*
X92945001Y-74534892D01*
X92926525Y-74553368D01*
X92804805Y-74735534D01*
X92735178Y-74618645D01*
X92540269Y-74402412D01*
X92306920Y-74228359D01*
X92044099Y-74103175D01*
X91896890Y-74058524D01*
X91667000Y-74179845D01*
X91667000Y-75373000D01*
X91687000Y-75373000D01*
X91687000Y-75627000D01*
X91667000Y-75627000D01*
X91667000Y-76820155D01*
X91896890Y-76941476D01*
X92044099Y-76896825D01*
X92306920Y-76771641D01*
X92540269Y-76597588D01*
X92735178Y-76381355D01*
X92804805Y-76264466D01*
X92926525Y-76446632D01*
X93133368Y-76653475D01*
X93376589Y-76815990D01*
X93646842Y-76927932D01*
X93933740Y-76985000D01*
X94226260Y-76985000D01*
X94513158Y-76927932D01*
X94783411Y-76815990D01*
X95026632Y-76653475D01*
X95045107Y-76635000D01*
X95654893Y-76635000D01*
X95673368Y-76653475D01*
X95916589Y-76815990D01*
X96186842Y-76927932D01*
X96473740Y-76985000D01*
X96499869Y-76985000D01*
X97365001Y-77850133D01*
X97365000Y-83944248D01*
X97359509Y-84000000D01*
X97365000Y-84055751D01*
X97381423Y-84222498D01*
X97446324Y-84436446D01*
X97551716Y-84633623D01*
X97693551Y-84806449D01*
X97736865Y-84841996D01*
X100434868Y-87540000D01*
X81795132Y-87540000D01*
X81135000Y-86879869D01*
X81135000Y-84555752D01*
X81140491Y-84500000D01*
X81118577Y-84277501D01*
X81053676Y-84063553D01*
X80948284Y-83866377D01*
X80841989Y-83736856D01*
X80841987Y-83736854D01*
X80806449Y-83693551D01*
X80763146Y-83658013D01*
X75755132Y-78650000D01*
X80511928Y-78650000D01*
X80511928Y-80350000D01*
X80524188Y-80474482D01*
X80560498Y-80594180D01*
X80619463Y-80704494D01*
X80698815Y-80801185D01*
X80795506Y-80880537D01*
X80905820Y-80939502D01*
X81025518Y-80975812D01*
X81150000Y-80988072D01*
X82850000Y-80988072D01*
X82974482Y-80975812D01*
X83094180Y-80939502D01*
X83204494Y-80880537D01*
X83301185Y-80801185D01*
X83380537Y-80704494D01*
X83439502Y-80594180D01*
X83461513Y-80521620D01*
X83593368Y-80653475D01*
X83836589Y-80815990D01*
X84106842Y-80927932D01*
X84393740Y-80985000D01*
X84686260Y-80985000D01*
X84973158Y-80927932D01*
X85243411Y-80815990D01*
X85486632Y-80653475D01*
X85693475Y-80446632D01*
X85855990Y-80203411D01*
X85967932Y-79933158D01*
X86025000Y-79646260D01*
X86025000Y-79353740D01*
X85967932Y-79066842D01*
X85855990Y-78796589D01*
X85758043Y-78650000D01*
X91511928Y-78650000D01*
X91511928Y-80350000D01*
X91524188Y-80474482D01*
X91560498Y-80594180D01*
X91619463Y-80704494D01*
X91698815Y-80801185D01*
X91795506Y-80880537D01*
X91905820Y-80939502D01*
X92025518Y-80975812D01*
X92150000Y-80988072D01*
X93850000Y-80988072D01*
X93974482Y-80975812D01*
X94094180Y-80939502D01*
X94204494Y-80880537D01*
X94301185Y-80801185D01*
X94380537Y-80704494D01*
X94439502Y-80594180D01*
X94461513Y-80521620D01*
X94593368Y-80653475D01*
X94836589Y-80815990D01*
X95106842Y-80927932D01*
X95393740Y-80985000D01*
X95686260Y-80985000D01*
X95973158Y-80927932D01*
X96243411Y-80815990D01*
X96486632Y-80653475D01*
X96693475Y-80446632D01*
X96855990Y-80203411D01*
X96967932Y-79933158D01*
X97025000Y-79646260D01*
X97025000Y-79353740D01*
X96967932Y-79066842D01*
X96855990Y-78796589D01*
X96693475Y-78553368D01*
X96486632Y-78346525D01*
X96243411Y-78184010D01*
X95973158Y-78072068D01*
X95686260Y-78015000D01*
X95393740Y-78015000D01*
X95106842Y-78072068D01*
X94836589Y-78184010D01*
X94593368Y-78346525D01*
X94461513Y-78478380D01*
X94439502Y-78405820D01*
X94380537Y-78295506D01*
X94301185Y-78198815D01*
X94204494Y-78119463D01*
X94094180Y-78060498D01*
X93974482Y-78024188D01*
X93850000Y-78011928D01*
X92150000Y-78011928D01*
X92025518Y-78024188D01*
X91905820Y-78060498D01*
X91795506Y-78119463D01*
X91698815Y-78198815D01*
X91619463Y-78295506D01*
X91560498Y-78405820D01*
X91524188Y-78525518D01*
X91511928Y-78650000D01*
X85758043Y-78650000D01*
X85693475Y-78553368D01*
X85486632Y-78346525D01*
X85243411Y-78184010D01*
X84973158Y-78072068D01*
X84686260Y-78015000D01*
X84393740Y-78015000D01*
X84106842Y-78072068D01*
X83836589Y-78184010D01*
X83593368Y-78346525D01*
X83461513Y-78478380D01*
X83439502Y-78405820D01*
X83380537Y-78295506D01*
X83301185Y-78198815D01*
X83204494Y-78119463D01*
X83094180Y-78060498D01*
X82974482Y-78024188D01*
X82850000Y-78011928D01*
X81150000Y-78011928D01*
X81025518Y-78024188D01*
X80905820Y-78060498D01*
X80795506Y-78119463D01*
X80698815Y-78198815D01*
X80619463Y-78295506D01*
X80560498Y-78405820D01*
X80524188Y-78525518D01*
X80511928Y-78650000D01*
X75755132Y-78650000D01*
X75035000Y-77929869D01*
X75035000Y-74650000D01*
X75511928Y-74650000D01*
X75511928Y-76350000D01*
X75524188Y-76474482D01*
X75560498Y-76594180D01*
X75619463Y-76704494D01*
X75698815Y-76801185D01*
X75795506Y-76880537D01*
X75905820Y-76939502D01*
X76025518Y-76975812D01*
X76150000Y-76988072D01*
X77850000Y-76988072D01*
X77974482Y-76975812D01*
X78094180Y-76939502D01*
X78204494Y-76880537D01*
X78301185Y-76801185D01*
X78380537Y-76704494D01*
X78439502Y-76594180D01*
X78461513Y-76521620D01*
X78593368Y-76653475D01*
X78836589Y-76815990D01*
X79106842Y-76927932D01*
X79393740Y-76985000D01*
X79686260Y-76985000D01*
X79973158Y-76927932D01*
X80243411Y-76815990D01*
X80486632Y-76653475D01*
X80693475Y-76446632D01*
X80810000Y-76272240D01*
X80926525Y-76446632D01*
X81133368Y-76653475D01*
X81376589Y-76815990D01*
X81646842Y-76927932D01*
X81933740Y-76985000D01*
X82226260Y-76985000D01*
X82513158Y-76927932D01*
X82783411Y-76815990D01*
X83026632Y-76653475D01*
X83233475Y-76446632D01*
X83350000Y-76272240D01*
X83466525Y-76446632D01*
X83673368Y-76653475D01*
X83916589Y-76815990D01*
X84186842Y-76927932D01*
X84473740Y-76985000D01*
X84766260Y-76985000D01*
X85053158Y-76927932D01*
X85323411Y-76815990D01*
X85566632Y-76653475D01*
X85773475Y-76446632D01*
X85838042Y-76350000D01*
X87511928Y-76350000D01*
X87524188Y-76474482D01*
X87560498Y-76594180D01*
X87619463Y-76704494D01*
X87698815Y-76801185D01*
X87795506Y-76880537D01*
X87905820Y-76939502D01*
X88025518Y-76975812D01*
X88150000Y-76988072D01*
X88714250Y-76985000D01*
X88873000Y-76826250D01*
X88873000Y-75627000D01*
X89127000Y-75627000D01*
X89127000Y-76826250D01*
X89285750Y-76985000D01*
X89850000Y-76988072D01*
X89974482Y-76975812D01*
X90094180Y-76939502D01*
X90204494Y-76880537D01*
X90301185Y-76801185D01*
X90380537Y-76704494D01*
X90439502Y-76594180D01*
X90463966Y-76513534D01*
X90539731Y-76597588D01*
X90773080Y-76771641D01*
X91035901Y-76896825D01*
X91183110Y-76941476D01*
X91413000Y-76820155D01*
X91413000Y-75627000D01*
X89127000Y-75627000D01*
X88873000Y-75627000D01*
X87673750Y-75627000D01*
X87515000Y-75785750D01*
X87511928Y-76350000D01*
X85838042Y-76350000D01*
X85935990Y-76203411D01*
X86047932Y-75933158D01*
X86105000Y-75646260D01*
X86105000Y-75353740D01*
X86047932Y-75066842D01*
X85935990Y-74796589D01*
X85838043Y-74650000D01*
X87511928Y-74650000D01*
X87515000Y-75214250D01*
X87673750Y-75373000D01*
X88873000Y-75373000D01*
X88873000Y-74173750D01*
X89127000Y-74173750D01*
X89127000Y-75373000D01*
X91413000Y-75373000D01*
X91413000Y-74179845D01*
X91183110Y-74058524D01*
X91035901Y-74103175D01*
X90773080Y-74228359D01*
X90539731Y-74402412D01*
X90463966Y-74486466D01*
X90439502Y-74405820D01*
X90380537Y-74295506D01*
X90301185Y-74198815D01*
X90204494Y-74119463D01*
X90094180Y-74060498D01*
X89974482Y-74024188D01*
X89850000Y-74011928D01*
X89285750Y-74015000D01*
X89127000Y-74173750D01*
X88873000Y-74173750D01*
X88714250Y-74015000D01*
X88150000Y-74011928D01*
X88025518Y-74024188D01*
X87905820Y-74060498D01*
X87795506Y-74119463D01*
X87698815Y-74198815D01*
X87619463Y-74295506D01*
X87560498Y-74405820D01*
X87524188Y-74525518D01*
X87511928Y-74650000D01*
X85838043Y-74650000D01*
X85773475Y-74553368D01*
X85566632Y-74346525D01*
X85323411Y-74184010D01*
X85053158Y-74072068D01*
X84766260Y-74015000D01*
X84473740Y-74015000D01*
X84186842Y-74072068D01*
X83916589Y-74184010D01*
X83673368Y-74346525D01*
X83466525Y-74553368D01*
X83350000Y-74727760D01*
X83233475Y-74553368D01*
X83026632Y-74346525D01*
X82840000Y-74221822D01*
X82840000Y-74100558D01*
X82909774Y-74053937D01*
X83053937Y-73909774D01*
X83167205Y-73740256D01*
X83245226Y-73551898D01*
X83285000Y-73351939D01*
X83285000Y-73148061D01*
X83245226Y-72948102D01*
X83167205Y-72759744D01*
X83053937Y-72590226D01*
X82909774Y-72446063D01*
X82740256Y-72332795D01*
X82551898Y-72254774D01*
X82351939Y-72215000D01*
X82148061Y-72215000D01*
X81948102Y-72254774D01*
X81759744Y-72332795D01*
X81590226Y-72446063D01*
X81446063Y-72590226D01*
X81332795Y-72759744D01*
X81254774Y-72948102D01*
X81215000Y-73148061D01*
X81215000Y-73351939D01*
X81254774Y-73551898D01*
X81320001Y-73709368D01*
X81320001Y-74221821D01*
X81133368Y-74346525D01*
X80926525Y-74553368D01*
X80810000Y-74727760D01*
X80693475Y-74553368D01*
X80486632Y-74346525D01*
X80243411Y-74184010D01*
X79973158Y-74072068D01*
X79686260Y-74015000D01*
X79393740Y-74015000D01*
X79106842Y-74072068D01*
X78836589Y-74184010D01*
X78593368Y-74346525D01*
X78461513Y-74478380D01*
X78439502Y-74405820D01*
X78380537Y-74295506D01*
X78301185Y-74198815D01*
X78204494Y-74119463D01*
X78094180Y-74060498D01*
X77974482Y-74024188D01*
X77850000Y-74011928D01*
X76150000Y-74011928D01*
X76025518Y-74024188D01*
X75905820Y-74060498D01*
X75795506Y-74119463D01*
X75698815Y-74198815D01*
X75619463Y-74295506D01*
X75560498Y-74405820D01*
X75524188Y-74525518D01*
X75511928Y-74650000D01*
X75035000Y-74650000D01*
X75035000Y-74320131D01*
X77220133Y-72135000D01*
X85864249Y-72135000D01*
X85920000Y-72140491D01*
X85975751Y-72135000D01*
X85975752Y-72135000D01*
X86142499Y-72118577D01*
X86356447Y-72053676D01*
X86553623Y-71948284D01*
X86726449Y-71806449D01*
X86761996Y-71763135D01*
X88263140Y-70261991D01*
X88306449Y-70226449D01*
X88448284Y-70053623D01*
X88553676Y-69856447D01*
X88618577Y-69642499D01*
X88635000Y-69475752D01*
X88635000Y-69475743D01*
X88640490Y-69420001D01*
X88635000Y-69364259D01*
X88635000Y-68490131D01*
X92945000Y-72800132D01*
G36*
X44387534Y-64992642D02*
G01*
X44446324Y-65186446D01*
X44551716Y-65383623D01*
X44693551Y-65556449D01*
X44736864Y-65591995D01*
X45658013Y-66513145D01*
X45693551Y-66556449D01*
X45736854Y-66591987D01*
X45736856Y-66591989D01*
X45866377Y-66698284D01*
X46063553Y-66803676D01*
X46277501Y-66868577D01*
X46500000Y-66890491D01*
X46555752Y-66885000D01*
X69071627Y-66885000D01*
X69060498Y-66905820D01*
X69024188Y-67025518D01*
X69011928Y-67150000D01*
X69011928Y-68850000D01*
X69024188Y-68974482D01*
X69060498Y-69094180D01*
X69119463Y-69204494D01*
X69198815Y-69301185D01*
X69295506Y-69380537D01*
X69405820Y-69439502D01*
X69525518Y-69475812D01*
X69650000Y-69488072D01*
X71350000Y-69488072D01*
X71474482Y-69475812D01*
X71594180Y-69439502D01*
X71704494Y-69380537D01*
X71801185Y-69301185D01*
X71880537Y-69204494D01*
X71939502Y-69094180D01*
X71961513Y-69021620D01*
X72093368Y-69153475D01*
X72336589Y-69315990D01*
X72606842Y-69427932D01*
X72893740Y-69485000D01*
X73186260Y-69485000D01*
X73473158Y-69427932D01*
X73743411Y-69315990D01*
X73986632Y-69153475D01*
X74193475Y-68946632D01*
X74258042Y-68850000D01*
X75511928Y-68850000D01*
X75524188Y-68974482D01*
X75560498Y-69094180D01*
X75619463Y-69204494D01*
X75698815Y-69301185D01*
X75795506Y-69380537D01*
X75905820Y-69439502D01*
X76025518Y-69475812D01*
X76150000Y-69488072D01*
X76714250Y-69485000D01*
X76873000Y-69326250D01*
X76873000Y-68127000D01*
X77127000Y-68127000D01*
X77127000Y-69326250D01*
X77285750Y-69485000D01*
X77850000Y-69488072D01*
X77974482Y-69475812D01*
X78094180Y-69439502D01*
X78204494Y-69380537D01*
X78301185Y-69301185D01*
X78380537Y-69204494D01*
X78439502Y-69094180D01*
X78463966Y-69013534D01*
X78539731Y-69097588D01*
X78773080Y-69271641D01*
X79035901Y-69396825D01*
X79183110Y-69441476D01*
X79413000Y-69320155D01*
X79413000Y-68127000D01*
X77127000Y-68127000D01*
X76873000Y-68127000D01*
X75673750Y-68127000D01*
X75515000Y-68285750D01*
X75511928Y-68850000D01*
X74258042Y-68850000D01*
X74355990Y-68703411D01*
X74467932Y-68433158D01*
X74525000Y-68146260D01*
X74525000Y-67853740D01*
X74467932Y-67566842D01*
X74355990Y-67296589D01*
X74193475Y-67053368D01*
X74025107Y-66885000D01*
X75571627Y-66885000D01*
X75560498Y-66905820D01*
X75524188Y-67025518D01*
X75511928Y-67150000D01*
X75515000Y-67714250D01*
X75673750Y-67873000D01*
X76873000Y-67873000D01*
X76873000Y-67853000D01*
X77127000Y-67853000D01*
X77127000Y-67873000D01*
X79413000Y-67873000D01*
X79413000Y-67853000D01*
X79667000Y-67853000D01*
X79667000Y-67873000D01*
X79687000Y-67873000D01*
X79687000Y-68127000D01*
X79667000Y-68127000D01*
X79667000Y-69320155D01*
X79896890Y-69441476D01*
X80044099Y-69396825D01*
X80306920Y-69271641D01*
X80540269Y-69097588D01*
X80735178Y-68881355D01*
X80804805Y-68764466D01*
X80926525Y-68946632D01*
X81133368Y-69153475D01*
X81376589Y-69315990D01*
X81646842Y-69427932D01*
X81933740Y-69485000D01*
X82226260Y-69485000D01*
X82513158Y-69427932D01*
X82783411Y-69315990D01*
X83026632Y-69153475D01*
X83233475Y-68946632D01*
X83350000Y-68772240D01*
X83466525Y-68946632D01*
X83673368Y-69153475D01*
X83916589Y-69315990D01*
X84186842Y-69427932D01*
X84473740Y-69485000D01*
X84766260Y-69485000D01*
X85053158Y-69427932D01*
X85323411Y-69315990D01*
X85566632Y-69153475D01*
X85773475Y-68946632D01*
X85935990Y-68703411D01*
X86047932Y-68433158D01*
X86105000Y-68146260D01*
X86105000Y-68040132D01*
X86365000Y-68300132D01*
X86365000Y-68949868D01*
X85449869Y-69865000D01*
X76805752Y-69865000D01*
X76750000Y-69859509D01*
X76527501Y-69881423D01*
X76313553Y-69946324D01*
X76116377Y-70051716D01*
X75986856Y-70158011D01*
X75986854Y-70158013D01*
X75943551Y-70193551D01*
X75908013Y-70236854D01*
X73136860Y-73008009D01*
X73093552Y-73043551D01*
X72951717Y-73216377D01*
X72933745Y-73250001D01*
X72846324Y-73413554D01*
X72781423Y-73627502D01*
X72759509Y-73850000D01*
X72765001Y-73905761D01*
X72765000Y-78344248D01*
X72759509Y-78400000D01*
X72765000Y-78455751D01*
X72781423Y-78622498D01*
X72846324Y-78836446D01*
X72951716Y-79033623D01*
X73093551Y-79206449D01*
X73136865Y-79241996D01*
X78865001Y-84970134D01*
X78865000Y-86631867D01*
X77969998Y-85736865D01*
X77934451Y-85693551D01*
X77761625Y-85551716D01*
X77564449Y-85446324D01*
X77350501Y-85381423D01*
X77183754Y-85365000D01*
X77183753Y-85365000D01*
X77128002Y-85359509D01*
X77072251Y-85365000D01*
X71917683Y-85365000D01*
X71880537Y-85295506D01*
X71801185Y-85198815D01*
X71704494Y-85119463D01*
X71594180Y-85060498D01*
X71474482Y-85024188D01*
X71350000Y-85011928D01*
X69650000Y-85011928D01*
X69525518Y-85024188D01*
X69405820Y-85060498D01*
X69397161Y-85065126D01*
X71096426Y-83082651D01*
X71110697Y-83062251D01*
X71120715Y-83039459D01*
X71126093Y-83015150D01*
X71127000Y-83000000D01*
X71127000Y-71500000D01*
X71124560Y-71475224D01*
X71117333Y-71451399D01*
X71105597Y-71429443D01*
X71089803Y-71410197D01*
X68589803Y-68910197D01*
X68570557Y-68894403D01*
X68548601Y-68882667D01*
X68524776Y-68875440D01*
X68500000Y-68873000D01*
X45052606Y-68873000D01*
X43627000Y-67447394D01*
X43627000Y-64302606D01*
X43662249Y-64267357D01*
X44387534Y-64992642D01*
G37*
X44387534Y-64992642D02*
X44446324Y-65186446D01*
X44551716Y-65383623D01*
X44693551Y-65556449D01*
X44736864Y-65591995D01*
X45658013Y-66513145D01*
X45693551Y-66556449D01*
X45736854Y-66591987D01*
X45736856Y-66591989D01*
X45866377Y-66698284D01*
X46063553Y-66803676D01*
X46277501Y-66868577D01*
X46500000Y-66890491D01*
X46555752Y-66885000D01*
X69071627Y-66885000D01*
X69060498Y-66905820D01*
X69024188Y-67025518D01*
X69011928Y-67150000D01*
X69011928Y-68850000D01*
X69024188Y-68974482D01*
X69060498Y-69094180D01*
X69119463Y-69204494D01*
X69198815Y-69301185D01*
X69295506Y-69380537D01*
X69405820Y-69439502D01*
X69525518Y-69475812D01*
X69650000Y-69488072D01*
X71350000Y-69488072D01*
X71474482Y-69475812D01*
X71594180Y-69439502D01*
X71704494Y-69380537D01*
X71801185Y-69301185D01*
X71880537Y-69204494D01*
X71939502Y-69094180D01*
X71961513Y-69021620D01*
X72093368Y-69153475D01*
X72336589Y-69315990D01*
X72606842Y-69427932D01*
X72893740Y-69485000D01*
X73186260Y-69485000D01*
X73473158Y-69427932D01*
X73743411Y-69315990D01*
X73986632Y-69153475D01*
X74193475Y-68946632D01*
X74258042Y-68850000D01*
X75511928Y-68850000D01*
X75524188Y-68974482D01*
X75560498Y-69094180D01*
X75619463Y-69204494D01*
X75698815Y-69301185D01*
X75795506Y-69380537D01*
X75905820Y-69439502D01*
X76025518Y-69475812D01*
X76150000Y-69488072D01*
X76714250Y-69485000D01*
X76873000Y-69326250D01*
X76873000Y-68127000D01*
X77127000Y-68127000D01*
X77127000Y-69326250D01*
X77285750Y-69485000D01*
X77850000Y-69488072D01*
X77974482Y-69475812D01*
X78094180Y-69439502D01*
X78204494Y-69380537D01*
X78301185Y-69301185D01*
X78380537Y-69204494D01*
X78439502Y-69094180D01*
X78463966Y-69013534D01*
X78539731Y-69097588D01*
X78773080Y-69271641D01*
X79035901Y-69396825D01*
X79183110Y-69441476D01*
X79413000Y-69320155D01*
X79413000Y-68127000D01*
X77127000Y-68127000D01*
X76873000Y-68127000D01*
X75673750Y-68127000D01*
X75515000Y-68285750D01*
X75511928Y-68850000D01*
X74258042Y-68850000D01*
X74355990Y-68703411D01*
X74467932Y-68433158D01*
X74525000Y-68146260D01*
X74525000Y-67853740D01*
X74467932Y-67566842D01*
X74355990Y-67296589D01*
X74193475Y-67053368D01*
X74025107Y-66885000D01*
X75571627Y-66885000D01*
X75560498Y-66905820D01*
X75524188Y-67025518D01*
X75511928Y-67150000D01*
X75515000Y-67714250D01*
X75673750Y-67873000D01*
X76873000Y-67873000D01*
X76873000Y-67853000D01*
X77127000Y-67853000D01*
X77127000Y-67873000D01*
X79413000Y-67873000D01*
X79413000Y-67853000D01*
X79667000Y-67853000D01*
X79667000Y-67873000D01*
X79687000Y-67873000D01*
X79687000Y-68127000D01*
X79667000Y-68127000D01*
X79667000Y-69320155D01*
X79896890Y-69441476D01*
X80044099Y-69396825D01*
X80306920Y-69271641D01*
X80540269Y-69097588D01*
X80735178Y-68881355D01*
X80804805Y-68764466D01*
X80926525Y-68946632D01*
X81133368Y-69153475D01*
X81376589Y-69315990D01*
X81646842Y-69427932D01*
X81933740Y-69485000D01*
X82226260Y-69485000D01*
X82513158Y-69427932D01*
X82783411Y-69315990D01*
X83026632Y-69153475D01*
X83233475Y-68946632D01*
X83350000Y-68772240D01*
X83466525Y-68946632D01*
X83673368Y-69153475D01*
X83916589Y-69315990D01*
X84186842Y-69427932D01*
X84473740Y-69485000D01*
X84766260Y-69485000D01*
X85053158Y-69427932D01*
X85323411Y-69315990D01*
X85566632Y-69153475D01*
X85773475Y-68946632D01*
X85935990Y-68703411D01*
X86047932Y-68433158D01*
X86105000Y-68146260D01*
X86105000Y-68040132D01*
X86365000Y-68300132D01*
X86365000Y-68949868D01*
X85449869Y-69865000D01*
X76805752Y-69865000D01*
X76750000Y-69859509D01*
X76527501Y-69881423D01*
X76313553Y-69946324D01*
X76116377Y-70051716D01*
X75986856Y-70158011D01*
X75986854Y-70158013D01*
X75943551Y-70193551D01*
X75908013Y-70236854D01*
X73136860Y-73008009D01*
X73093552Y-73043551D01*
X72951717Y-73216377D01*
X72933745Y-73250001D01*
X72846324Y-73413554D01*
X72781423Y-73627502D01*
X72759509Y-73850000D01*
X72765001Y-73905761D01*
X72765000Y-78344248D01*
X72759509Y-78400000D01*
X72765000Y-78455751D01*
X72781423Y-78622498D01*
X72846324Y-78836446D01*
X72951716Y-79033623D01*
X73093551Y-79206449D01*
X73136865Y-79241996D01*
X78865001Y-84970134D01*
X78865000Y-86631867D01*
X77969998Y-85736865D01*
X77934451Y-85693551D01*
X77761625Y-85551716D01*
X77564449Y-85446324D01*
X77350501Y-85381423D01*
X77183754Y-85365000D01*
X77183753Y-85365000D01*
X77128002Y-85359509D01*
X77072251Y-85365000D01*
X71917683Y-85365000D01*
X71880537Y-85295506D01*
X71801185Y-85198815D01*
X71704494Y-85119463D01*
X71594180Y-85060498D01*
X71474482Y-85024188D01*
X71350000Y-85011928D01*
X69650000Y-85011928D01*
X69525518Y-85024188D01*
X69405820Y-85060498D01*
X69397161Y-85065126D01*
X71096426Y-83082651D01*
X71110697Y-83062251D01*
X71120715Y-83039459D01*
X71126093Y-83015150D01*
X71127000Y-83000000D01*
X71127000Y-71500000D01*
X71124560Y-71475224D01*
X71117333Y-71451399D01*
X71105597Y-71429443D01*
X71089803Y-71410197D01*
X68589803Y-68910197D01*
X68570557Y-68894403D01*
X68548601Y-68882667D01*
X68524776Y-68875440D01*
X68500000Y-68873000D01*
X45052606Y-68873000D01*
X43627000Y-67447394D01*
X43627000Y-64302606D01*
X43662249Y-64267357D01*
X44387534Y-64992642D01*
G36*
X70418697Y-53097564D02*
G01*
X70439293Y-53111551D01*
X70462222Y-53121251D01*
X70486602Y-53126291D01*
X70500000Y-53127000D01*
X91947394Y-53127000D01*
X95410197Y-56589803D01*
X95429443Y-56605597D01*
X95451399Y-56617333D01*
X95475224Y-56624560D01*
X95500000Y-56627000D01*
X98840000Y-56627000D01*
X98840001Y-76114869D01*
X98105000Y-75379869D01*
X98105000Y-75353740D01*
X98047932Y-75066842D01*
X97935990Y-74796589D01*
X97773475Y-74553368D01*
X97755000Y-74534893D01*
X97755000Y-60175752D01*
X97760491Y-60120000D01*
X97738577Y-59897501D01*
X97673676Y-59683553D01*
X97568284Y-59486377D01*
X97461989Y-59356856D01*
X97461987Y-59356854D01*
X97426449Y-59313551D01*
X97383146Y-59278013D01*
X92841996Y-54736865D01*
X92806449Y-54693551D01*
X92633623Y-54551716D01*
X92436447Y-54446324D01*
X92222499Y-54381423D01*
X92055752Y-54365000D01*
X92055751Y-54365000D01*
X92000000Y-54359509D01*
X91944249Y-54365000D01*
X91917683Y-54365000D01*
X91880537Y-54295506D01*
X91801185Y-54198815D01*
X91704494Y-54119463D01*
X91594180Y-54060498D01*
X91474482Y-54024188D01*
X91350000Y-54011928D01*
X89650000Y-54011928D01*
X89525518Y-54024188D01*
X89405820Y-54060498D01*
X89295506Y-54119463D01*
X89198815Y-54198815D01*
X89119463Y-54295506D01*
X89060498Y-54405820D01*
X89038487Y-54478380D01*
X88906632Y-54346525D01*
X88663411Y-54184010D01*
X88393158Y-54072068D01*
X88106260Y-54015000D01*
X87813740Y-54015000D01*
X87526842Y-54072068D01*
X87256589Y-54184010D01*
X87013368Y-54346525D01*
X86806525Y-54553368D01*
X86684805Y-54735534D01*
X86615178Y-54618645D01*
X86420269Y-54402412D01*
X86186920Y-54228359D01*
X85924099Y-54103175D01*
X85776890Y-54058524D01*
X85547000Y-54179845D01*
X85547000Y-55373000D01*
X85567000Y-55373000D01*
X85567000Y-55627000D01*
X85547000Y-55627000D01*
X85547000Y-56820155D01*
X85776890Y-56941476D01*
X85924099Y-56896825D01*
X86186920Y-56771641D01*
X86420269Y-56597588D01*
X86615178Y-56381355D01*
X86684805Y-56264466D01*
X86806525Y-56446632D01*
X87013368Y-56653475D01*
X87256589Y-56815990D01*
X87526842Y-56927932D01*
X87813740Y-56985000D01*
X88106260Y-56985000D01*
X88393158Y-56927932D01*
X88663411Y-56815990D01*
X88906632Y-56653475D01*
X89038487Y-56521620D01*
X89060498Y-56594180D01*
X89119463Y-56704494D01*
X89198815Y-56801185D01*
X89295506Y-56880537D01*
X89405820Y-56939502D01*
X89525518Y-56975812D01*
X89650000Y-56988072D01*
X91350000Y-56988072D01*
X91474482Y-56975812D01*
X91594180Y-56939502D01*
X91704494Y-56880537D01*
X91743442Y-56848573D01*
X92814729Y-57919861D01*
X92753793Y-57887290D01*
X92629383Y-57849550D01*
X92532419Y-57840000D01*
X92500000Y-57836807D01*
X92467581Y-57840000D01*
X78535000Y-57840000D01*
X78535000Y-57648061D01*
X78495226Y-57448102D01*
X78417205Y-57259744D01*
X78303937Y-57090226D01*
X78159774Y-56946063D01*
X77990256Y-56832795D01*
X77801898Y-56754774D01*
X77601939Y-56715000D01*
X77398061Y-56715000D01*
X77198102Y-56754774D01*
X77009744Y-56832795D01*
X76840226Y-56946063D01*
X76696063Y-57090226D01*
X76582795Y-57259744D01*
X76504774Y-57448102D01*
X76465000Y-57648061D01*
X76465000Y-57851939D01*
X76504774Y-58051898D01*
X76582795Y-58240256D01*
X76696063Y-58409774D01*
X76840226Y-58553937D01*
X77009744Y-58667205D01*
X77198102Y-58745226D01*
X77398061Y-58785000D01*
X77601939Y-58785000D01*
X77801898Y-58745226D01*
X77840001Y-58729443D01*
X77840000Y-63365000D01*
X74970132Y-63365000D01*
X67541996Y-55936865D01*
X67506449Y-55893551D01*
X67461779Y-55856891D01*
X83978519Y-55856891D01*
X84075843Y-56131252D01*
X84224822Y-56381355D01*
X84419731Y-56597588D01*
X84653080Y-56771641D01*
X84915901Y-56896825D01*
X85063110Y-56941476D01*
X85293000Y-56820155D01*
X85293000Y-55627000D01*
X84099186Y-55627000D01*
X83978519Y-55856891D01*
X67461779Y-55856891D01*
X67333623Y-55751716D01*
X67136447Y-55646324D01*
X66922499Y-55581423D01*
X66755752Y-55565000D01*
X66755751Y-55565000D01*
X66700000Y-55559509D01*
X66644249Y-55565000D01*
X64294286Y-55565000D01*
X64156043Y-55472629D01*
X64053127Y-55430000D01*
X64156043Y-55387371D01*
X64382886Y-55235799D01*
X64475576Y-55143109D01*
X83978519Y-55143109D01*
X84099186Y-55373000D01*
X85293000Y-55373000D01*
X85293000Y-54179845D01*
X85063110Y-54058524D01*
X84915901Y-54103175D01*
X84653080Y-54228359D01*
X84419731Y-54402412D01*
X84224822Y-54618645D01*
X84075843Y-54868748D01*
X83978519Y-55143109D01*
X64475576Y-55143109D01*
X64575799Y-55042886D01*
X64727371Y-54816043D01*
X64831775Y-54563989D01*
X64885000Y-54296411D01*
X64885000Y-54023589D01*
X64831775Y-53756011D01*
X64727371Y-53503957D01*
X64575799Y-53277114D01*
X64382886Y-53084201D01*
X64156043Y-52932629D01*
X64047533Y-52887683D01*
X64096504Y-52869969D01*
X64328899Y-52729579D01*
X64529440Y-52546549D01*
X64690420Y-52327912D01*
X64805653Y-52082070D01*
X64842318Y-51961185D01*
X64719656Y-51747000D01*
X63627000Y-51747000D01*
X63627000Y-51767000D01*
X63373000Y-51767000D01*
X63373000Y-51747000D01*
X62280344Y-51747000D01*
X62157682Y-51961185D01*
X62194347Y-52082070D01*
X62309580Y-52327912D01*
X62470560Y-52546549D01*
X62671101Y-52729579D01*
X62903496Y-52869969D01*
X62952467Y-52887683D01*
X62843957Y-52932629D01*
X62617114Y-53084201D01*
X62424201Y-53277114D01*
X62272629Y-53503957D01*
X62168225Y-53756011D01*
X62115000Y-54023589D01*
X62115000Y-54296411D01*
X62168225Y-54563989D01*
X62272629Y-54816043D01*
X62424201Y-55042886D01*
X62617114Y-55235799D01*
X62843957Y-55387371D01*
X62946873Y-55430000D01*
X62843957Y-55472629D01*
X62617114Y-55624201D01*
X62424201Y-55817114D01*
X62272629Y-56043957D01*
X62168225Y-56296011D01*
X62115000Y-56563589D01*
X62115000Y-56836411D01*
X62168225Y-57103989D01*
X62272629Y-57356043D01*
X62424201Y-57582886D01*
X62617114Y-57775799D01*
X62740000Y-57857909D01*
X62740001Y-62435197D01*
X62435199Y-62740000D01*
X52127000Y-62740000D01*
X52127000Y-55552606D01*
X53052606Y-54627000D01*
X59000000Y-54627000D01*
X59024776Y-54624560D01*
X59048601Y-54617333D01*
X59070557Y-54605597D01*
X59089803Y-54589803D01*
X62246210Y-51433396D01*
X62280344Y-51493000D01*
X63373000Y-51493000D01*
X63373000Y-51473000D01*
X63627000Y-51473000D01*
X63627000Y-51493000D01*
X64719656Y-51493000D01*
X64842318Y-51278815D01*
X64805653Y-51157930D01*
X64690420Y-50912088D01*
X64529440Y-50693451D01*
X64456631Y-50627000D01*
X67454020Y-50627000D01*
X70418697Y-53097564D01*
G37*
X70418697Y-53097564D02*
X70439293Y-53111551D01*
X70462222Y-53121251D01*
X70486602Y-53126291D01*
X70500000Y-53127000D01*
X91947394Y-53127000D01*
X95410197Y-56589803D01*
X95429443Y-56605597D01*
X95451399Y-56617333D01*
X95475224Y-56624560D01*
X95500000Y-56627000D01*
X98840000Y-56627000D01*
X98840001Y-76114869D01*
X98105000Y-75379869D01*
X98105000Y-75353740D01*
X98047932Y-75066842D01*
X97935990Y-74796589D01*
X97773475Y-74553368D01*
X97755000Y-74534893D01*
X97755000Y-60175752D01*
X97760491Y-60120000D01*
X97738577Y-59897501D01*
X97673676Y-59683553D01*
X97568284Y-59486377D01*
X97461989Y-59356856D01*
X97461987Y-59356854D01*
X97426449Y-59313551D01*
X97383146Y-59278013D01*
X92841996Y-54736865D01*
X92806449Y-54693551D01*
X92633623Y-54551716D01*
X92436447Y-54446324D01*
X92222499Y-54381423D01*
X92055752Y-54365000D01*
X92055751Y-54365000D01*
X92000000Y-54359509D01*
X91944249Y-54365000D01*
X91917683Y-54365000D01*
X91880537Y-54295506D01*
X91801185Y-54198815D01*
X91704494Y-54119463D01*
X91594180Y-54060498D01*
X91474482Y-54024188D01*
X91350000Y-54011928D01*
X89650000Y-54011928D01*
X89525518Y-54024188D01*
X89405820Y-54060498D01*
X89295506Y-54119463D01*
X89198815Y-54198815D01*
X89119463Y-54295506D01*
X89060498Y-54405820D01*
X89038487Y-54478380D01*
X88906632Y-54346525D01*
X88663411Y-54184010D01*
X88393158Y-54072068D01*
X88106260Y-54015000D01*
X87813740Y-54015000D01*
X87526842Y-54072068D01*
X87256589Y-54184010D01*
X87013368Y-54346525D01*
X86806525Y-54553368D01*
X86684805Y-54735534D01*
X86615178Y-54618645D01*
X86420269Y-54402412D01*
X86186920Y-54228359D01*
X85924099Y-54103175D01*
X85776890Y-54058524D01*
X85547000Y-54179845D01*
X85547000Y-55373000D01*
X85567000Y-55373000D01*
X85567000Y-55627000D01*
X85547000Y-55627000D01*
X85547000Y-56820155D01*
X85776890Y-56941476D01*
X85924099Y-56896825D01*
X86186920Y-56771641D01*
X86420269Y-56597588D01*
X86615178Y-56381355D01*
X86684805Y-56264466D01*
X86806525Y-56446632D01*
X87013368Y-56653475D01*
X87256589Y-56815990D01*
X87526842Y-56927932D01*
X87813740Y-56985000D01*
X88106260Y-56985000D01*
X88393158Y-56927932D01*
X88663411Y-56815990D01*
X88906632Y-56653475D01*
X89038487Y-56521620D01*
X89060498Y-56594180D01*
X89119463Y-56704494D01*
X89198815Y-56801185D01*
X89295506Y-56880537D01*
X89405820Y-56939502D01*
X89525518Y-56975812D01*
X89650000Y-56988072D01*
X91350000Y-56988072D01*
X91474482Y-56975812D01*
X91594180Y-56939502D01*
X91704494Y-56880537D01*
X91743442Y-56848573D01*
X92814729Y-57919861D01*
X92753793Y-57887290D01*
X92629383Y-57849550D01*
X92532419Y-57840000D01*
X92500000Y-57836807D01*
X92467581Y-57840000D01*
X78535000Y-57840000D01*
X78535000Y-57648061D01*
X78495226Y-57448102D01*
X78417205Y-57259744D01*
X78303937Y-57090226D01*
X78159774Y-56946063D01*
X77990256Y-56832795D01*
X77801898Y-56754774D01*
X77601939Y-56715000D01*
X77398061Y-56715000D01*
X77198102Y-56754774D01*
X77009744Y-56832795D01*
X76840226Y-56946063D01*
X76696063Y-57090226D01*
X76582795Y-57259744D01*
X76504774Y-57448102D01*
X76465000Y-57648061D01*
X76465000Y-57851939D01*
X76504774Y-58051898D01*
X76582795Y-58240256D01*
X76696063Y-58409774D01*
X76840226Y-58553937D01*
X77009744Y-58667205D01*
X77198102Y-58745226D01*
X77398061Y-58785000D01*
X77601939Y-58785000D01*
X77801898Y-58745226D01*
X77840001Y-58729443D01*
X77840000Y-63365000D01*
X74970132Y-63365000D01*
X67541996Y-55936865D01*
X67506449Y-55893551D01*
X67461779Y-55856891D01*
X83978519Y-55856891D01*
X84075843Y-56131252D01*
X84224822Y-56381355D01*
X84419731Y-56597588D01*
X84653080Y-56771641D01*
X84915901Y-56896825D01*
X85063110Y-56941476D01*
X85293000Y-56820155D01*
X85293000Y-55627000D01*
X84099186Y-55627000D01*
X83978519Y-55856891D01*
X67461779Y-55856891D01*
X67333623Y-55751716D01*
X67136447Y-55646324D01*
X66922499Y-55581423D01*
X66755752Y-55565000D01*
X66755751Y-55565000D01*
X66700000Y-55559509D01*
X66644249Y-55565000D01*
X64294286Y-55565000D01*
X64156043Y-55472629D01*
X64053127Y-55430000D01*
X64156043Y-55387371D01*
X64382886Y-55235799D01*
X64475576Y-55143109D01*
X83978519Y-55143109D01*
X84099186Y-55373000D01*
X85293000Y-55373000D01*
X85293000Y-54179845D01*
X85063110Y-54058524D01*
X84915901Y-54103175D01*
X84653080Y-54228359D01*
X84419731Y-54402412D01*
X84224822Y-54618645D01*
X84075843Y-54868748D01*
X83978519Y-55143109D01*
X64475576Y-55143109D01*
X64575799Y-55042886D01*
X64727371Y-54816043D01*
X64831775Y-54563989D01*
X64885000Y-54296411D01*
X64885000Y-54023589D01*
X64831775Y-53756011D01*
X64727371Y-53503957D01*
X64575799Y-53277114D01*
X64382886Y-53084201D01*
X64156043Y-52932629D01*
X64047533Y-52887683D01*
X64096504Y-52869969D01*
X64328899Y-52729579D01*
X64529440Y-52546549D01*
X64690420Y-52327912D01*
X64805653Y-52082070D01*
X64842318Y-51961185D01*
X64719656Y-51747000D01*
X63627000Y-51747000D01*
X63627000Y-51767000D01*
X63373000Y-51767000D01*
X63373000Y-51747000D01*
X62280344Y-51747000D01*
X62157682Y-51961185D01*
X62194347Y-52082070D01*
X62309580Y-52327912D01*
X62470560Y-52546549D01*
X62671101Y-52729579D01*
X62903496Y-52869969D01*
X62952467Y-52887683D01*
X62843957Y-52932629D01*
X62617114Y-53084201D01*
X62424201Y-53277114D01*
X62272629Y-53503957D01*
X62168225Y-53756011D01*
X62115000Y-54023589D01*
X62115000Y-54296411D01*
X62168225Y-54563989D01*
X62272629Y-54816043D01*
X62424201Y-55042886D01*
X62617114Y-55235799D01*
X62843957Y-55387371D01*
X62946873Y-55430000D01*
X62843957Y-55472629D01*
X62617114Y-55624201D01*
X62424201Y-55817114D01*
X62272629Y-56043957D01*
X62168225Y-56296011D01*
X62115000Y-56563589D01*
X62115000Y-56836411D01*
X62168225Y-57103989D01*
X62272629Y-57356043D01*
X62424201Y-57582886D01*
X62617114Y-57775799D01*
X62740000Y-57857909D01*
X62740001Y-62435197D01*
X62435199Y-62740000D01*
X52127000Y-62740000D01*
X52127000Y-55552606D01*
X53052606Y-54627000D01*
X59000000Y-54627000D01*
X59024776Y-54624560D01*
X59048601Y-54617333D01*
X59070557Y-54605597D01*
X59089803Y-54589803D01*
X62246210Y-51433396D01*
X62280344Y-51493000D01*
X63373000Y-51493000D01*
X63373000Y-51473000D01*
X63627000Y-51473000D01*
X63627000Y-51493000D01*
X64719656Y-51493000D01*
X64842318Y-51278815D01*
X64805653Y-51157930D01*
X64690420Y-50912088D01*
X64529440Y-50693451D01*
X64456631Y-50627000D01*
X67454020Y-50627000D01*
X70418697Y-53097564D01*
%TO.N,GNDREF*%
G36*
X98840000Y-53873000D02*
G01*
X96552606Y-53873000D01*
X94576496Y-51896890D01*
X95558524Y-51896890D01*
X95603175Y-52044099D01*
X95728359Y-52306920D01*
X95902412Y-52540269D01*
X96118645Y-52735178D01*
X96368748Y-52884157D01*
X96643109Y-52981481D01*
X96873000Y-52860814D01*
X96873000Y-51667000D01*
X97127000Y-51667000D01*
X97127000Y-52860814D01*
X97356891Y-52981481D01*
X97631252Y-52884157D01*
X97881355Y-52735178D01*
X98097588Y-52540269D01*
X98271641Y-52306920D01*
X98396825Y-52044099D01*
X98441476Y-51896890D01*
X98320155Y-51667000D01*
X97127000Y-51667000D01*
X96873000Y-51667000D01*
X95679845Y-51667000D01*
X95558524Y-51896890D01*
X94576496Y-51896890D01*
X93089803Y-50410197D01*
X93070557Y-50394403D01*
X93048601Y-50382667D01*
X93024776Y-50375440D01*
X93000000Y-50373000D01*
X80542333Y-50373000D01*
X77578334Y-48150000D01*
X95511928Y-48150000D01*
X95511928Y-49850000D01*
X95524188Y-49974482D01*
X95560498Y-50094180D01*
X95619463Y-50204494D01*
X95698815Y-50301185D01*
X95795506Y-50380537D01*
X95905820Y-50439502D01*
X95986466Y-50463966D01*
X95902412Y-50539731D01*
X95728359Y-50773080D01*
X95603175Y-51035901D01*
X95558524Y-51183110D01*
X95679845Y-51413000D01*
X96873000Y-51413000D01*
X96873000Y-51393000D01*
X97127000Y-51393000D01*
X97127000Y-51413000D01*
X98320155Y-51413000D01*
X98441476Y-51183110D01*
X98396825Y-51035901D01*
X98271641Y-50773080D01*
X98097588Y-50539731D01*
X98013534Y-50463966D01*
X98094180Y-50439502D01*
X98204494Y-50380537D01*
X98301185Y-50301185D01*
X98380537Y-50204494D01*
X98439502Y-50094180D01*
X98475812Y-49974482D01*
X98488072Y-49850000D01*
X98488072Y-48150000D01*
X98475812Y-48025518D01*
X98439502Y-47905820D01*
X98380537Y-47795506D01*
X98301185Y-47698815D01*
X98204494Y-47619463D01*
X98094180Y-47560498D01*
X97974482Y-47524188D01*
X97850000Y-47511928D01*
X96150000Y-47511928D01*
X96025518Y-47524188D01*
X95905820Y-47560498D01*
X95795506Y-47619463D01*
X95698815Y-47698815D01*
X95619463Y-47795506D01*
X95560498Y-47905820D01*
X95524188Y-48025518D01*
X95511928Y-48150000D01*
X77578334Y-48150000D01*
X76576200Y-47398400D01*
X76554915Y-47385486D01*
X76531519Y-47376973D01*
X76500000Y-47373000D01*
X64598319Y-47373000D01*
X64690420Y-47247912D01*
X64805653Y-47002070D01*
X64842318Y-46881185D01*
X64719656Y-46667000D01*
X63627000Y-46667000D01*
X63627000Y-46687000D01*
X63373000Y-46687000D01*
X63373000Y-46667000D01*
X62280344Y-46667000D01*
X62157682Y-46881185D01*
X62194347Y-47002070D01*
X62309580Y-47247912D01*
X62401681Y-47373000D01*
X61500000Y-47373000D01*
X61475224Y-47375440D01*
X61451399Y-47382667D01*
X61429443Y-47394403D01*
X61410197Y-47410197D01*
X56947394Y-51873000D01*
X55001593Y-51873000D01*
X55015748Y-51858396D01*
X55179554Y-51604751D01*
X55290729Y-51324023D01*
X55345000Y-51027000D01*
X55345000Y-50127000D01*
X53937000Y-50127000D01*
X53937000Y-50147000D01*
X53683000Y-50147000D01*
X53683000Y-50127000D01*
X52275000Y-50127000D01*
X52275000Y-51027000D01*
X52329271Y-51324023D01*
X52440446Y-51604751D01*
X52604252Y-51858396D01*
X52618407Y-51873000D01*
X51475583Y-51873000D01*
X51521008Y-51723254D01*
X51538072Y-51550000D01*
X51538072Y-48973000D01*
X52275000Y-48973000D01*
X52275000Y-49873000D01*
X53683000Y-49873000D01*
X53683000Y-47729622D01*
X53937000Y-47729622D01*
X53937000Y-49873000D01*
X55345000Y-49873000D01*
X55345000Y-48973000D01*
X55290729Y-48675977D01*
X55179554Y-48395249D01*
X55015748Y-48141604D01*
X54805606Y-47924790D01*
X54557204Y-47753138D01*
X54280087Y-47633245D01*
X54174740Y-47608964D01*
X53937000Y-47729622D01*
X53683000Y-47729622D01*
X53445260Y-47608964D01*
X53339913Y-47633245D01*
X53062796Y-47753138D01*
X52814394Y-47924790D01*
X52604252Y-48141604D01*
X52440446Y-48395249D01*
X52329271Y-48675977D01*
X52275000Y-48973000D01*
X51538072Y-48973000D01*
X51538072Y-48450000D01*
X51521008Y-48276746D01*
X51470472Y-48110150D01*
X51388405Y-47956614D01*
X51277962Y-47822038D01*
X51143386Y-47711595D01*
X50989850Y-47629528D01*
X50823254Y-47578992D01*
X50650000Y-47561928D01*
X49350000Y-47561928D01*
X49176746Y-47578992D01*
X49010150Y-47629528D01*
X48856614Y-47711595D01*
X48722038Y-47822038D01*
X48611595Y-47956614D01*
X48529528Y-48110150D01*
X48478992Y-48276746D01*
X48461928Y-48450000D01*
X48461928Y-51550000D01*
X48478992Y-51723254D01*
X48524417Y-51873000D01*
X42500000Y-51873000D01*
X42475224Y-51875440D01*
X42451399Y-51882667D01*
X42429443Y-51894403D01*
X42402436Y-51918697D01*
X39902436Y-54918697D01*
X39888449Y-54939293D01*
X39878749Y-54962222D01*
X39873709Y-54986602D01*
X39873000Y-55000000D01*
X39873000Y-70500000D01*
X39875440Y-70524776D01*
X39882667Y-70548601D01*
X39894403Y-70570557D01*
X39910197Y-70589803D01*
X41410197Y-72089803D01*
X41429443Y-72105597D01*
X41451399Y-72117333D01*
X41475224Y-72124560D01*
X41500000Y-72127000D01*
X64786322Y-72127000D01*
X64698815Y-72198815D01*
X64619463Y-72295506D01*
X64560498Y-72405820D01*
X64524188Y-72525518D01*
X64511928Y-72650000D01*
X64511928Y-74350000D01*
X64524188Y-74474482D01*
X64560498Y-74594180D01*
X64619463Y-74704494D01*
X64698815Y-74801185D01*
X64795506Y-74880537D01*
X64905820Y-74939502D01*
X64978380Y-74961513D01*
X64846525Y-75093368D01*
X64684010Y-75336589D01*
X64572068Y-75606842D01*
X64515000Y-75893740D01*
X64515000Y-76186260D01*
X64572068Y-76473158D01*
X64684010Y-76743411D01*
X64846525Y-76986632D01*
X65053368Y-77193475D01*
X65235534Y-77315195D01*
X65118645Y-77384822D01*
X64902412Y-77579731D01*
X64728359Y-77813080D01*
X64603175Y-78075901D01*
X64558524Y-78223110D01*
X64679845Y-78453000D01*
X65873000Y-78453000D01*
X65873000Y-78433000D01*
X66127000Y-78433000D01*
X66127000Y-78453000D01*
X66147000Y-78453000D01*
X66147000Y-78707000D01*
X66127000Y-78707000D01*
X66127000Y-80993000D01*
X66147000Y-80993000D01*
X66147000Y-81247000D01*
X66127000Y-81247000D01*
X66127000Y-82440814D01*
X66356891Y-82561481D01*
X66631252Y-82464157D01*
X66881355Y-82315178D01*
X67097588Y-82120269D01*
X67271641Y-81886920D01*
X67373000Y-81674119D01*
X67373000Y-82454020D01*
X64902436Y-85418697D01*
X64888449Y-85439293D01*
X64878749Y-85462222D01*
X64873709Y-85486602D01*
X64873000Y-85500000D01*
X64873000Y-88461548D01*
X63932032Y-89873000D01*
X61098319Y-89873000D01*
X61190420Y-89747912D01*
X61305653Y-89502070D01*
X61342318Y-89381185D01*
X61219656Y-89167000D01*
X60127000Y-89167000D01*
X60127000Y-89187000D01*
X59873000Y-89187000D01*
X59873000Y-89167000D01*
X58780344Y-89167000D01*
X58657682Y-89381185D01*
X58694347Y-89502070D01*
X58809580Y-89747912D01*
X58901681Y-89873000D01*
X58160000Y-89873000D01*
X58160000Y-79739815D01*
X58865001Y-80444816D01*
X58865000Y-85244498D01*
X58798815Y-85298815D01*
X58719463Y-85395506D01*
X58660498Y-85505820D01*
X58624188Y-85625518D01*
X58611928Y-85750000D01*
X58611928Y-87250000D01*
X58624188Y-87374482D01*
X58660498Y-87494180D01*
X58719463Y-87604494D01*
X58798815Y-87701185D01*
X58895506Y-87780537D01*
X59005820Y-87839502D01*
X59125518Y-87875812D01*
X59242437Y-87887327D01*
X59171101Y-87930421D01*
X58970560Y-88113451D01*
X58809580Y-88332088D01*
X58694347Y-88577930D01*
X58657682Y-88698815D01*
X58780344Y-88913000D01*
X59873000Y-88913000D01*
X59873000Y-88893000D01*
X60127000Y-88893000D01*
X60127000Y-88913000D01*
X61219656Y-88913000D01*
X61342318Y-88698815D01*
X61305653Y-88577930D01*
X61190420Y-88332088D01*
X61029440Y-88113451D01*
X60828899Y-87930421D01*
X60757563Y-87887327D01*
X60874482Y-87875812D01*
X60994180Y-87839502D01*
X61104494Y-87780537D01*
X61201185Y-87701185D01*
X61280537Y-87604494D01*
X61339502Y-87494180D01*
X61375812Y-87374482D01*
X61388072Y-87250000D01*
X61388072Y-85750000D01*
X61375812Y-85625518D01*
X61339502Y-85505820D01*
X61280537Y-85395506D01*
X61201185Y-85298815D01*
X61135000Y-85244499D01*
X61135000Y-81476890D01*
X64558524Y-81476890D01*
X64603175Y-81624099D01*
X64728359Y-81886920D01*
X64902412Y-82120269D01*
X65118645Y-82315178D01*
X65368748Y-82464157D01*
X65643109Y-82561481D01*
X65873000Y-82440814D01*
X65873000Y-81247000D01*
X64679845Y-81247000D01*
X64558524Y-81476890D01*
X61135000Y-81476890D01*
X61135000Y-80030434D01*
X61140491Y-79974682D01*
X61118577Y-79752183D01*
X61053676Y-79538235D01*
X60948284Y-79341059D01*
X60841989Y-79211538D01*
X60841987Y-79211536D01*
X60806449Y-79168233D01*
X60763146Y-79132695D01*
X60567341Y-78936890D01*
X64558524Y-78936890D01*
X64603175Y-79084099D01*
X64728359Y-79346920D01*
X64902412Y-79580269D01*
X65118645Y-79775178D01*
X65244255Y-79850000D01*
X65118645Y-79924822D01*
X64902412Y-80119731D01*
X64728359Y-80353080D01*
X64603175Y-80615901D01*
X64558524Y-80763110D01*
X64679845Y-80993000D01*
X65873000Y-80993000D01*
X65873000Y-78707000D01*
X64679845Y-78707000D01*
X64558524Y-78936890D01*
X60567341Y-78936890D01*
X55367314Y-73736865D01*
X55331767Y-73693551D01*
X55158941Y-73551716D01*
X54961765Y-73446324D01*
X54747817Y-73381423D01*
X54581070Y-73365000D01*
X54581069Y-73365000D01*
X54525318Y-73359509D01*
X54469567Y-73365000D01*
X37470132Y-73365000D01*
X36135000Y-72029869D01*
X36135000Y-54550131D01*
X38720132Y-51965000D01*
X38968037Y-51965000D01*
X39171507Y-51944960D01*
X39432581Y-51865764D01*
X39673188Y-51737157D01*
X39884081Y-51564081D01*
X40057157Y-51353188D01*
X40185764Y-51112581D01*
X40264960Y-50851507D01*
X40286284Y-50635000D01*
X45444249Y-50635000D01*
X45500000Y-50640491D01*
X45555751Y-50635000D01*
X45555752Y-50635000D01*
X45722499Y-50618577D01*
X45936447Y-50553676D01*
X46133623Y-50448284D01*
X46306449Y-50306449D01*
X46341996Y-50263135D01*
X47763140Y-48841992D01*
X47806449Y-48806449D01*
X47948284Y-48633623D01*
X48053676Y-48436447D01*
X48118577Y-48222499D01*
X48135000Y-48055752D01*
X48135000Y-48055743D01*
X48140490Y-48000001D01*
X48135000Y-47944259D01*
X48135000Y-47220131D01*
X50220132Y-45135000D01*
X62244499Y-45135000D01*
X62298815Y-45201185D01*
X62395506Y-45280537D01*
X62505820Y-45339502D01*
X62625518Y-45375812D01*
X62742437Y-45387327D01*
X62671101Y-45430421D01*
X62470560Y-45613451D01*
X62309580Y-45832088D01*
X62194347Y-46077930D01*
X62157682Y-46198815D01*
X62280344Y-46413000D01*
X63373000Y-46413000D01*
X63373000Y-46393000D01*
X63627000Y-46393000D01*
X63627000Y-46413000D01*
X64719656Y-46413000D01*
X64842318Y-46198815D01*
X64805653Y-46077930D01*
X64690420Y-45832088D01*
X64529440Y-45613451D01*
X64328899Y-45430421D01*
X64257563Y-45387327D01*
X64374482Y-45375812D01*
X64494180Y-45339502D01*
X64604494Y-45280537D01*
X64701185Y-45201185D01*
X64780537Y-45104494D01*
X64839502Y-44994180D01*
X64875812Y-44874482D01*
X64888072Y-44750000D01*
X64888072Y-43250000D01*
X64875812Y-43125518D01*
X64839502Y-43005820D01*
X64780537Y-42895506D01*
X64701185Y-42798815D01*
X64604494Y-42719463D01*
X64494180Y-42660498D01*
X64374482Y-42624188D01*
X64250000Y-42611928D01*
X62750000Y-42611928D01*
X62625518Y-42624188D01*
X62505820Y-42660498D01*
X62395506Y-42719463D01*
X62298815Y-42798815D01*
X62244499Y-42865000D01*
X49805741Y-42865000D01*
X49749999Y-42859510D01*
X49694257Y-42865000D01*
X49694248Y-42865000D01*
X49527501Y-42881423D01*
X49313553Y-42946324D01*
X49116377Y-43051716D01*
X48943551Y-43193551D01*
X48908009Y-43236859D01*
X46236860Y-45908009D01*
X46193552Y-45943551D01*
X46051717Y-46116377D01*
X45946324Y-46313553D01*
X45916157Y-46413000D01*
X45881423Y-46527502D01*
X45859509Y-46750000D01*
X45865000Y-46805751D01*
X45865000Y-47529868D01*
X45029869Y-48365000D01*
X40233049Y-48365000D01*
X40119656Y-48167000D01*
X38627000Y-48167000D01*
X38627000Y-48187000D01*
X38373000Y-48187000D01*
X38373000Y-48167000D01*
X36880344Y-48167000D01*
X36757682Y-48381185D01*
X36771827Y-48452684D01*
X36877858Y-48703868D01*
X37030855Y-48929540D01*
X37224939Y-49121028D01*
X37452651Y-49270972D01*
X37542578Y-49307514D01*
X37326812Y-49422843D01*
X37115919Y-49595919D01*
X36942843Y-49806812D01*
X36814236Y-50047419D01*
X36735040Y-50308493D01*
X36708299Y-50580000D01*
X36725027Y-50749841D01*
X34236865Y-53238004D01*
X34193551Y-53273551D01*
X34051716Y-53446377D01*
X33946325Y-53643553D01*
X33946324Y-53643554D01*
X33881423Y-53857502D01*
X33859509Y-54080000D01*
X33865000Y-54135751D01*
X33865001Y-67944258D01*
X33865000Y-72444248D01*
X33859509Y-72500000D01*
X33865000Y-72555751D01*
X33881423Y-72722498D01*
X33946324Y-72936446D01*
X34051716Y-73133623D01*
X34193551Y-73306449D01*
X34236865Y-73341996D01*
X36158009Y-75263141D01*
X36193551Y-75306449D01*
X36366377Y-75448284D01*
X36563553Y-75553676D01*
X36727705Y-75603471D01*
X36777500Y-75618577D01*
X36999999Y-75640491D01*
X37055751Y-75635000D01*
X54055187Y-75635000D01*
X56260186Y-77840000D01*
X32160000Y-77840000D01*
X32160000Y-44750000D01*
X36711928Y-44750000D01*
X36711928Y-46250000D01*
X36724188Y-46374482D01*
X36760498Y-46494180D01*
X36819463Y-46604494D01*
X36898815Y-46701185D01*
X36995506Y-46780537D01*
X37105820Y-46839502D01*
X37225518Y-46875812D01*
X37334874Y-46886582D01*
X37224939Y-46958972D01*
X37030855Y-47150460D01*
X36877858Y-47376132D01*
X36771827Y-47627316D01*
X36757682Y-47698815D01*
X36880344Y-47913000D01*
X38373000Y-47913000D01*
X38373000Y-47893000D01*
X38627000Y-47893000D01*
X38627000Y-47913000D01*
X40119656Y-47913000D01*
X40242318Y-47698815D01*
X40228173Y-47627316D01*
X40122142Y-47376132D01*
X39969145Y-47150460D01*
X39775061Y-46958972D01*
X39680781Y-46896890D01*
X42558524Y-46896890D01*
X42603175Y-47044099D01*
X42728359Y-47306920D01*
X42902412Y-47540269D01*
X43118645Y-47735178D01*
X43368748Y-47884157D01*
X43643109Y-47981481D01*
X43873000Y-47860814D01*
X43873000Y-46667000D01*
X44127000Y-46667000D01*
X44127000Y-47860814D01*
X44356891Y-47981481D01*
X44631252Y-47884157D01*
X44881355Y-47735178D01*
X45097588Y-47540269D01*
X45271641Y-47306920D01*
X45396825Y-47044099D01*
X45441476Y-46896890D01*
X45320155Y-46667000D01*
X44127000Y-46667000D01*
X43873000Y-46667000D01*
X42679845Y-46667000D01*
X42558524Y-46896890D01*
X39680781Y-46896890D01*
X39665126Y-46886582D01*
X39774482Y-46875812D01*
X39894180Y-46839502D01*
X40004494Y-46780537D01*
X40101185Y-46701185D01*
X40180537Y-46604494D01*
X40239502Y-46494180D01*
X40275812Y-46374482D01*
X40288072Y-46250000D01*
X40288072Y-44850000D01*
X42511928Y-44850000D01*
X42524188Y-44974482D01*
X42560498Y-45094180D01*
X42619463Y-45204494D01*
X42698815Y-45301185D01*
X42795506Y-45380537D01*
X42905820Y-45439502D01*
X42986466Y-45463966D01*
X42902412Y-45539731D01*
X42728359Y-45773080D01*
X42603175Y-46035901D01*
X42558524Y-46183110D01*
X42679845Y-46413000D01*
X43873000Y-46413000D01*
X43873000Y-44127000D01*
X44127000Y-44127000D01*
X44127000Y-46413000D01*
X45320155Y-46413000D01*
X45441476Y-46183110D01*
X45396825Y-46035901D01*
X45271641Y-45773080D01*
X45097588Y-45539731D01*
X45013534Y-45463966D01*
X45094180Y-45439502D01*
X45204494Y-45380537D01*
X45301185Y-45301185D01*
X45380537Y-45204494D01*
X45439502Y-45094180D01*
X45475812Y-44974482D01*
X45488072Y-44850000D01*
X45485000Y-44285750D01*
X45326250Y-44127000D01*
X44127000Y-44127000D01*
X43873000Y-44127000D01*
X42673750Y-44127000D01*
X42515000Y-44285750D01*
X42511928Y-44850000D01*
X40288072Y-44850000D01*
X40288072Y-44750000D01*
X40275812Y-44625518D01*
X40239502Y-44505820D01*
X40180537Y-44395506D01*
X40101185Y-44298815D01*
X40004494Y-44219463D01*
X39894180Y-44160498D01*
X39774482Y-44124188D01*
X39650000Y-44111928D01*
X37350000Y-44111928D01*
X37225518Y-44124188D01*
X37105820Y-44160498D01*
X36995506Y-44219463D01*
X36898815Y-44298815D01*
X36819463Y-44395506D01*
X36760498Y-44505820D01*
X36724188Y-44625518D01*
X36711928Y-44750000D01*
X32160000Y-44750000D01*
X32160000Y-43150000D01*
X42511928Y-43150000D01*
X42515000Y-43714250D01*
X42673750Y-43873000D01*
X43873000Y-43873000D01*
X43873000Y-42673750D01*
X44127000Y-42673750D01*
X44127000Y-43873000D01*
X45326250Y-43873000D01*
X45485000Y-43714250D01*
X45488072Y-43150000D01*
X45475812Y-43025518D01*
X45439502Y-42905820D01*
X45380537Y-42795506D01*
X45301185Y-42698815D01*
X45204494Y-42619463D01*
X45094180Y-42560498D01*
X44974482Y-42524188D01*
X44850000Y-42511928D01*
X44285750Y-42515000D01*
X44127000Y-42673750D01*
X43873000Y-42673750D01*
X43714250Y-42515000D01*
X43150000Y-42511928D01*
X43025518Y-42524188D01*
X42905820Y-42560498D01*
X42795506Y-42619463D01*
X42698815Y-42698815D01*
X42619463Y-42795506D01*
X42560498Y-42905820D01*
X42524188Y-43025518D01*
X42511928Y-43150000D01*
X32160000Y-43150000D01*
X32160000Y-42160000D01*
X98840000Y-42160000D01*
X98840000Y-53873000D01*
G37*
X98840000Y-53873000D02*
X96552606Y-53873000D01*
X94576496Y-51896890D01*
X95558524Y-51896890D01*
X95603175Y-52044099D01*
X95728359Y-52306920D01*
X95902412Y-52540269D01*
X96118645Y-52735178D01*
X96368748Y-52884157D01*
X96643109Y-52981481D01*
X96873000Y-52860814D01*
X96873000Y-51667000D01*
X97127000Y-51667000D01*
X97127000Y-52860814D01*
X97356891Y-52981481D01*
X97631252Y-52884157D01*
X97881355Y-52735178D01*
X98097588Y-52540269D01*
X98271641Y-52306920D01*
X98396825Y-52044099D01*
X98441476Y-51896890D01*
X98320155Y-51667000D01*
X97127000Y-51667000D01*
X96873000Y-51667000D01*
X95679845Y-51667000D01*
X95558524Y-51896890D01*
X94576496Y-51896890D01*
X93089803Y-50410197D01*
X93070557Y-50394403D01*
X93048601Y-50382667D01*
X93024776Y-50375440D01*
X93000000Y-50373000D01*
X80542333Y-50373000D01*
X77578334Y-48150000D01*
X95511928Y-48150000D01*
X95511928Y-49850000D01*
X95524188Y-49974482D01*
X95560498Y-50094180D01*
X95619463Y-50204494D01*
X95698815Y-50301185D01*
X95795506Y-50380537D01*
X95905820Y-50439502D01*
X95986466Y-50463966D01*
X95902412Y-50539731D01*
X95728359Y-50773080D01*
X95603175Y-51035901D01*
X95558524Y-51183110D01*
X95679845Y-51413000D01*
X96873000Y-51413000D01*
X96873000Y-51393000D01*
X97127000Y-51393000D01*
X97127000Y-51413000D01*
X98320155Y-51413000D01*
X98441476Y-51183110D01*
X98396825Y-51035901D01*
X98271641Y-50773080D01*
X98097588Y-50539731D01*
X98013534Y-50463966D01*
X98094180Y-50439502D01*
X98204494Y-50380537D01*
X98301185Y-50301185D01*
X98380537Y-50204494D01*
X98439502Y-50094180D01*
X98475812Y-49974482D01*
X98488072Y-49850000D01*
X98488072Y-48150000D01*
X98475812Y-48025518D01*
X98439502Y-47905820D01*
X98380537Y-47795506D01*
X98301185Y-47698815D01*
X98204494Y-47619463D01*
X98094180Y-47560498D01*
X97974482Y-47524188D01*
X97850000Y-47511928D01*
X96150000Y-47511928D01*
X96025518Y-47524188D01*
X95905820Y-47560498D01*
X95795506Y-47619463D01*
X95698815Y-47698815D01*
X95619463Y-47795506D01*
X95560498Y-47905820D01*
X95524188Y-48025518D01*
X95511928Y-48150000D01*
X77578334Y-48150000D01*
X76576200Y-47398400D01*
X76554915Y-47385486D01*
X76531519Y-47376973D01*
X76500000Y-47373000D01*
X64598319Y-47373000D01*
X64690420Y-47247912D01*
X64805653Y-47002070D01*
X64842318Y-46881185D01*
X64719656Y-46667000D01*
X63627000Y-46667000D01*
X63627000Y-46687000D01*
X63373000Y-46687000D01*
X63373000Y-46667000D01*
X62280344Y-46667000D01*
X62157682Y-46881185D01*
X62194347Y-47002070D01*
X62309580Y-47247912D01*
X62401681Y-47373000D01*
X61500000Y-47373000D01*
X61475224Y-47375440D01*
X61451399Y-47382667D01*
X61429443Y-47394403D01*
X61410197Y-47410197D01*
X56947394Y-51873000D01*
X55001593Y-51873000D01*
X55015748Y-51858396D01*
X55179554Y-51604751D01*
X55290729Y-51324023D01*
X55345000Y-51027000D01*
X55345000Y-50127000D01*
X53937000Y-50127000D01*
X53937000Y-50147000D01*
X53683000Y-50147000D01*
X53683000Y-50127000D01*
X52275000Y-50127000D01*
X52275000Y-51027000D01*
X52329271Y-51324023D01*
X52440446Y-51604751D01*
X52604252Y-51858396D01*
X52618407Y-51873000D01*
X51475583Y-51873000D01*
X51521008Y-51723254D01*
X51538072Y-51550000D01*
X51538072Y-48973000D01*
X52275000Y-48973000D01*
X52275000Y-49873000D01*
X53683000Y-49873000D01*
X53683000Y-47729622D01*
X53937000Y-47729622D01*
X53937000Y-49873000D01*
X55345000Y-49873000D01*
X55345000Y-48973000D01*
X55290729Y-48675977D01*
X55179554Y-48395249D01*
X55015748Y-48141604D01*
X54805606Y-47924790D01*
X54557204Y-47753138D01*
X54280087Y-47633245D01*
X54174740Y-47608964D01*
X53937000Y-47729622D01*
X53683000Y-47729622D01*
X53445260Y-47608964D01*
X53339913Y-47633245D01*
X53062796Y-47753138D01*
X52814394Y-47924790D01*
X52604252Y-48141604D01*
X52440446Y-48395249D01*
X52329271Y-48675977D01*
X52275000Y-48973000D01*
X51538072Y-48973000D01*
X51538072Y-48450000D01*
X51521008Y-48276746D01*
X51470472Y-48110150D01*
X51388405Y-47956614D01*
X51277962Y-47822038D01*
X51143386Y-47711595D01*
X50989850Y-47629528D01*
X50823254Y-47578992D01*
X50650000Y-47561928D01*
X49350000Y-47561928D01*
X49176746Y-47578992D01*
X49010150Y-47629528D01*
X48856614Y-47711595D01*
X48722038Y-47822038D01*
X48611595Y-47956614D01*
X48529528Y-48110150D01*
X48478992Y-48276746D01*
X48461928Y-48450000D01*
X48461928Y-51550000D01*
X48478992Y-51723254D01*
X48524417Y-51873000D01*
X42500000Y-51873000D01*
X42475224Y-51875440D01*
X42451399Y-51882667D01*
X42429443Y-51894403D01*
X42402436Y-51918697D01*
X39902436Y-54918697D01*
X39888449Y-54939293D01*
X39878749Y-54962222D01*
X39873709Y-54986602D01*
X39873000Y-55000000D01*
X39873000Y-70500000D01*
X39875440Y-70524776D01*
X39882667Y-70548601D01*
X39894403Y-70570557D01*
X39910197Y-70589803D01*
X41410197Y-72089803D01*
X41429443Y-72105597D01*
X41451399Y-72117333D01*
X41475224Y-72124560D01*
X41500000Y-72127000D01*
X64786322Y-72127000D01*
X64698815Y-72198815D01*
X64619463Y-72295506D01*
X64560498Y-72405820D01*
X64524188Y-72525518D01*
X64511928Y-72650000D01*
X64511928Y-74350000D01*
X64524188Y-74474482D01*
X64560498Y-74594180D01*
X64619463Y-74704494D01*
X64698815Y-74801185D01*
X64795506Y-74880537D01*
X64905820Y-74939502D01*
X64978380Y-74961513D01*
X64846525Y-75093368D01*
X64684010Y-75336589D01*
X64572068Y-75606842D01*
X64515000Y-75893740D01*
X64515000Y-76186260D01*
X64572068Y-76473158D01*
X64684010Y-76743411D01*
X64846525Y-76986632D01*
X65053368Y-77193475D01*
X65235534Y-77315195D01*
X65118645Y-77384822D01*
X64902412Y-77579731D01*
X64728359Y-77813080D01*
X64603175Y-78075901D01*
X64558524Y-78223110D01*
X64679845Y-78453000D01*
X65873000Y-78453000D01*
X65873000Y-78433000D01*
X66127000Y-78433000D01*
X66127000Y-78453000D01*
X66147000Y-78453000D01*
X66147000Y-78707000D01*
X66127000Y-78707000D01*
X66127000Y-80993000D01*
X66147000Y-80993000D01*
X66147000Y-81247000D01*
X66127000Y-81247000D01*
X66127000Y-82440814D01*
X66356891Y-82561481D01*
X66631252Y-82464157D01*
X66881355Y-82315178D01*
X67097588Y-82120269D01*
X67271641Y-81886920D01*
X67373000Y-81674119D01*
X67373000Y-82454020D01*
X64902436Y-85418697D01*
X64888449Y-85439293D01*
X64878749Y-85462222D01*
X64873709Y-85486602D01*
X64873000Y-85500000D01*
X64873000Y-88461548D01*
X63932032Y-89873000D01*
X61098319Y-89873000D01*
X61190420Y-89747912D01*
X61305653Y-89502070D01*
X61342318Y-89381185D01*
X61219656Y-89167000D01*
X60127000Y-89167000D01*
X60127000Y-89187000D01*
X59873000Y-89187000D01*
X59873000Y-89167000D01*
X58780344Y-89167000D01*
X58657682Y-89381185D01*
X58694347Y-89502070D01*
X58809580Y-89747912D01*
X58901681Y-89873000D01*
X58160000Y-89873000D01*
X58160000Y-79739815D01*
X58865001Y-80444816D01*
X58865000Y-85244498D01*
X58798815Y-85298815D01*
X58719463Y-85395506D01*
X58660498Y-85505820D01*
X58624188Y-85625518D01*
X58611928Y-85750000D01*
X58611928Y-87250000D01*
X58624188Y-87374482D01*
X58660498Y-87494180D01*
X58719463Y-87604494D01*
X58798815Y-87701185D01*
X58895506Y-87780537D01*
X59005820Y-87839502D01*
X59125518Y-87875812D01*
X59242437Y-87887327D01*
X59171101Y-87930421D01*
X58970560Y-88113451D01*
X58809580Y-88332088D01*
X58694347Y-88577930D01*
X58657682Y-88698815D01*
X58780344Y-88913000D01*
X59873000Y-88913000D01*
X59873000Y-88893000D01*
X60127000Y-88893000D01*
X60127000Y-88913000D01*
X61219656Y-88913000D01*
X61342318Y-88698815D01*
X61305653Y-88577930D01*
X61190420Y-88332088D01*
X61029440Y-88113451D01*
X60828899Y-87930421D01*
X60757563Y-87887327D01*
X60874482Y-87875812D01*
X60994180Y-87839502D01*
X61104494Y-87780537D01*
X61201185Y-87701185D01*
X61280537Y-87604494D01*
X61339502Y-87494180D01*
X61375812Y-87374482D01*
X61388072Y-87250000D01*
X61388072Y-85750000D01*
X61375812Y-85625518D01*
X61339502Y-85505820D01*
X61280537Y-85395506D01*
X61201185Y-85298815D01*
X61135000Y-85244499D01*
X61135000Y-81476890D01*
X64558524Y-81476890D01*
X64603175Y-81624099D01*
X64728359Y-81886920D01*
X64902412Y-82120269D01*
X65118645Y-82315178D01*
X65368748Y-82464157D01*
X65643109Y-82561481D01*
X65873000Y-82440814D01*
X65873000Y-81247000D01*
X64679845Y-81247000D01*
X64558524Y-81476890D01*
X61135000Y-81476890D01*
X61135000Y-80030434D01*
X61140491Y-79974682D01*
X61118577Y-79752183D01*
X61053676Y-79538235D01*
X60948284Y-79341059D01*
X60841989Y-79211538D01*
X60841987Y-79211536D01*
X60806449Y-79168233D01*
X60763146Y-79132695D01*
X60567341Y-78936890D01*
X64558524Y-78936890D01*
X64603175Y-79084099D01*
X64728359Y-79346920D01*
X64902412Y-79580269D01*
X65118645Y-79775178D01*
X65244255Y-79850000D01*
X65118645Y-79924822D01*
X64902412Y-80119731D01*
X64728359Y-80353080D01*
X64603175Y-80615901D01*
X64558524Y-80763110D01*
X64679845Y-80993000D01*
X65873000Y-80993000D01*
X65873000Y-78707000D01*
X64679845Y-78707000D01*
X64558524Y-78936890D01*
X60567341Y-78936890D01*
X55367314Y-73736865D01*
X55331767Y-73693551D01*
X55158941Y-73551716D01*
X54961765Y-73446324D01*
X54747817Y-73381423D01*
X54581070Y-73365000D01*
X54581069Y-73365000D01*
X54525318Y-73359509D01*
X54469567Y-73365000D01*
X37470132Y-73365000D01*
X36135000Y-72029869D01*
X36135000Y-54550131D01*
X38720132Y-51965000D01*
X38968037Y-51965000D01*
X39171507Y-51944960D01*
X39432581Y-51865764D01*
X39673188Y-51737157D01*
X39884081Y-51564081D01*
X40057157Y-51353188D01*
X40185764Y-51112581D01*
X40264960Y-50851507D01*
X40286284Y-50635000D01*
X45444249Y-50635000D01*
X45500000Y-50640491D01*
X45555751Y-50635000D01*
X45555752Y-50635000D01*
X45722499Y-50618577D01*
X45936447Y-50553676D01*
X46133623Y-50448284D01*
X46306449Y-50306449D01*
X46341996Y-50263135D01*
X47763140Y-48841992D01*
X47806449Y-48806449D01*
X47948284Y-48633623D01*
X48053676Y-48436447D01*
X48118577Y-48222499D01*
X48135000Y-48055752D01*
X48135000Y-48055743D01*
X48140490Y-48000001D01*
X48135000Y-47944259D01*
X48135000Y-47220131D01*
X50220132Y-45135000D01*
X62244499Y-45135000D01*
X62298815Y-45201185D01*
X62395506Y-45280537D01*
X62505820Y-45339502D01*
X62625518Y-45375812D01*
X62742437Y-45387327D01*
X62671101Y-45430421D01*
X62470560Y-45613451D01*
X62309580Y-45832088D01*
X62194347Y-46077930D01*
X62157682Y-46198815D01*
X62280344Y-46413000D01*
X63373000Y-46413000D01*
X63373000Y-46393000D01*
X63627000Y-46393000D01*
X63627000Y-46413000D01*
X64719656Y-46413000D01*
X64842318Y-46198815D01*
X64805653Y-46077930D01*
X64690420Y-45832088D01*
X64529440Y-45613451D01*
X64328899Y-45430421D01*
X64257563Y-45387327D01*
X64374482Y-45375812D01*
X64494180Y-45339502D01*
X64604494Y-45280537D01*
X64701185Y-45201185D01*
X64780537Y-45104494D01*
X64839502Y-44994180D01*
X64875812Y-44874482D01*
X64888072Y-44750000D01*
X64888072Y-43250000D01*
X64875812Y-43125518D01*
X64839502Y-43005820D01*
X64780537Y-42895506D01*
X64701185Y-42798815D01*
X64604494Y-42719463D01*
X64494180Y-42660498D01*
X64374482Y-42624188D01*
X64250000Y-42611928D01*
X62750000Y-42611928D01*
X62625518Y-42624188D01*
X62505820Y-42660498D01*
X62395506Y-42719463D01*
X62298815Y-42798815D01*
X62244499Y-42865000D01*
X49805741Y-42865000D01*
X49749999Y-42859510D01*
X49694257Y-42865000D01*
X49694248Y-42865000D01*
X49527501Y-42881423D01*
X49313553Y-42946324D01*
X49116377Y-43051716D01*
X48943551Y-43193551D01*
X48908009Y-43236859D01*
X46236860Y-45908009D01*
X46193552Y-45943551D01*
X46051717Y-46116377D01*
X45946324Y-46313553D01*
X45916157Y-46413000D01*
X45881423Y-46527502D01*
X45859509Y-46750000D01*
X45865000Y-46805751D01*
X45865000Y-47529868D01*
X45029869Y-48365000D01*
X40233049Y-48365000D01*
X40119656Y-48167000D01*
X38627000Y-48167000D01*
X38627000Y-48187000D01*
X38373000Y-48187000D01*
X38373000Y-48167000D01*
X36880344Y-48167000D01*
X36757682Y-48381185D01*
X36771827Y-48452684D01*
X36877858Y-48703868D01*
X37030855Y-48929540D01*
X37224939Y-49121028D01*
X37452651Y-49270972D01*
X37542578Y-49307514D01*
X37326812Y-49422843D01*
X37115919Y-49595919D01*
X36942843Y-49806812D01*
X36814236Y-50047419D01*
X36735040Y-50308493D01*
X36708299Y-50580000D01*
X36725027Y-50749841D01*
X34236865Y-53238004D01*
X34193551Y-53273551D01*
X34051716Y-53446377D01*
X33946325Y-53643553D01*
X33946324Y-53643554D01*
X33881423Y-53857502D01*
X33859509Y-54080000D01*
X33865000Y-54135751D01*
X33865001Y-67944258D01*
X33865000Y-72444248D01*
X33859509Y-72500000D01*
X33865000Y-72555751D01*
X33881423Y-72722498D01*
X33946324Y-72936446D01*
X34051716Y-73133623D01*
X34193551Y-73306449D01*
X34236865Y-73341996D01*
X36158009Y-75263141D01*
X36193551Y-75306449D01*
X36366377Y-75448284D01*
X36563553Y-75553676D01*
X36727705Y-75603471D01*
X36777500Y-75618577D01*
X36999999Y-75640491D01*
X37055751Y-75635000D01*
X54055187Y-75635000D01*
X56260186Y-77840000D01*
X32160000Y-77840000D01*
X32160000Y-44750000D01*
X36711928Y-44750000D01*
X36711928Y-46250000D01*
X36724188Y-46374482D01*
X36760498Y-46494180D01*
X36819463Y-46604494D01*
X36898815Y-46701185D01*
X36995506Y-46780537D01*
X37105820Y-46839502D01*
X37225518Y-46875812D01*
X37334874Y-46886582D01*
X37224939Y-46958972D01*
X37030855Y-47150460D01*
X36877858Y-47376132D01*
X36771827Y-47627316D01*
X36757682Y-47698815D01*
X36880344Y-47913000D01*
X38373000Y-47913000D01*
X38373000Y-47893000D01*
X38627000Y-47893000D01*
X38627000Y-47913000D01*
X40119656Y-47913000D01*
X40242318Y-47698815D01*
X40228173Y-47627316D01*
X40122142Y-47376132D01*
X39969145Y-47150460D01*
X39775061Y-46958972D01*
X39680781Y-46896890D01*
X42558524Y-46896890D01*
X42603175Y-47044099D01*
X42728359Y-47306920D01*
X42902412Y-47540269D01*
X43118645Y-47735178D01*
X43368748Y-47884157D01*
X43643109Y-47981481D01*
X43873000Y-47860814D01*
X43873000Y-46667000D01*
X44127000Y-46667000D01*
X44127000Y-47860814D01*
X44356891Y-47981481D01*
X44631252Y-47884157D01*
X44881355Y-47735178D01*
X45097588Y-47540269D01*
X45271641Y-47306920D01*
X45396825Y-47044099D01*
X45441476Y-46896890D01*
X45320155Y-46667000D01*
X44127000Y-46667000D01*
X43873000Y-46667000D01*
X42679845Y-46667000D01*
X42558524Y-46896890D01*
X39680781Y-46896890D01*
X39665126Y-46886582D01*
X39774482Y-46875812D01*
X39894180Y-46839502D01*
X40004494Y-46780537D01*
X40101185Y-46701185D01*
X40180537Y-46604494D01*
X40239502Y-46494180D01*
X40275812Y-46374482D01*
X40288072Y-46250000D01*
X40288072Y-44850000D01*
X42511928Y-44850000D01*
X42524188Y-44974482D01*
X42560498Y-45094180D01*
X42619463Y-45204494D01*
X42698815Y-45301185D01*
X42795506Y-45380537D01*
X42905820Y-45439502D01*
X42986466Y-45463966D01*
X42902412Y-45539731D01*
X42728359Y-45773080D01*
X42603175Y-46035901D01*
X42558524Y-46183110D01*
X42679845Y-46413000D01*
X43873000Y-46413000D01*
X43873000Y-44127000D01*
X44127000Y-44127000D01*
X44127000Y-46413000D01*
X45320155Y-46413000D01*
X45441476Y-46183110D01*
X45396825Y-46035901D01*
X45271641Y-45773080D01*
X45097588Y-45539731D01*
X45013534Y-45463966D01*
X45094180Y-45439502D01*
X45204494Y-45380537D01*
X45301185Y-45301185D01*
X45380537Y-45204494D01*
X45439502Y-45094180D01*
X45475812Y-44974482D01*
X45488072Y-44850000D01*
X45485000Y-44285750D01*
X45326250Y-44127000D01*
X44127000Y-44127000D01*
X43873000Y-44127000D01*
X42673750Y-44127000D01*
X42515000Y-44285750D01*
X42511928Y-44850000D01*
X40288072Y-44850000D01*
X40288072Y-44750000D01*
X40275812Y-44625518D01*
X40239502Y-44505820D01*
X40180537Y-44395506D01*
X40101185Y-44298815D01*
X40004494Y-44219463D01*
X39894180Y-44160498D01*
X39774482Y-44124188D01*
X39650000Y-44111928D01*
X37350000Y-44111928D01*
X37225518Y-44124188D01*
X37105820Y-44160498D01*
X36995506Y-44219463D01*
X36898815Y-44298815D01*
X36819463Y-44395506D01*
X36760498Y-44505820D01*
X36724188Y-44625518D01*
X36711928Y-44750000D01*
X32160000Y-44750000D01*
X32160000Y-43150000D01*
X42511928Y-43150000D01*
X42515000Y-43714250D01*
X42673750Y-43873000D01*
X43873000Y-43873000D01*
X43873000Y-42673750D01*
X44127000Y-42673750D01*
X44127000Y-43873000D01*
X45326250Y-43873000D01*
X45485000Y-43714250D01*
X45488072Y-43150000D01*
X45475812Y-43025518D01*
X45439502Y-42905820D01*
X45380537Y-42795506D01*
X45301185Y-42698815D01*
X45204494Y-42619463D01*
X45094180Y-42560498D01*
X44974482Y-42524188D01*
X44850000Y-42511928D01*
X44285750Y-42515000D01*
X44127000Y-42673750D01*
X43873000Y-42673750D01*
X43714250Y-42515000D01*
X43150000Y-42511928D01*
X43025518Y-42524188D01*
X42905820Y-42560498D01*
X42795506Y-42619463D01*
X42698815Y-42698815D01*
X42619463Y-42795506D01*
X42560498Y-42905820D01*
X42524188Y-43025518D01*
X42511928Y-43150000D01*
X32160000Y-43150000D01*
X32160000Y-42160000D01*
X98840000Y-42160000D01*
X98840000Y-53873000D01*
%TO.N,/N*%
G36*
X58970560Y-93193451D02*
G01*
X58809580Y-93412088D01*
X58694347Y-93657930D01*
X58657682Y-93778815D01*
X58780344Y-93993000D01*
X59873000Y-93993000D01*
X59873000Y-93973000D01*
X60127000Y-93973000D01*
X60127000Y-93993000D01*
X61219656Y-93993000D01*
X61342318Y-93778815D01*
X61305653Y-93657930D01*
X61190420Y-93412088D01*
X61029440Y-93193451D01*
X60956631Y-93127000D01*
X63947394Y-93127000D01*
X64873000Y-94052606D01*
X64873000Y-96500000D01*
X64875440Y-96524776D01*
X64882667Y-96548601D01*
X64894403Y-96570557D01*
X64910197Y-96589803D01*
X65810394Y-97490000D01*
X64703711Y-97490000D01*
X64659774Y-97446063D01*
X64490256Y-97332795D01*
X64301898Y-97254774D01*
X64101939Y-97215000D01*
X63898061Y-97215000D01*
X63698102Y-97254774D01*
X63509744Y-97332795D01*
X63340226Y-97446063D01*
X63196063Y-97590226D01*
X63082795Y-97759744D01*
X63004774Y-97948102D01*
X62965000Y-98148061D01*
X62965000Y-98351939D01*
X63004774Y-98551898D01*
X63082795Y-98740256D01*
X63196063Y-98909774D01*
X63340226Y-99053937D01*
X63509744Y-99167205D01*
X63698102Y-99245226D01*
X63898061Y-99285000D01*
X64101939Y-99285000D01*
X64301898Y-99245226D01*
X64490256Y-99167205D01*
X64659774Y-99053937D01*
X64703711Y-99010000D01*
X81496440Y-99010000D01*
X81504774Y-99051898D01*
X81582795Y-99240256D01*
X81696063Y-99409774D01*
X81840226Y-99553937D01*
X82009744Y-99667205D01*
X82198102Y-99745226D01*
X82398061Y-99785000D01*
X82601939Y-99785000D01*
X82801898Y-99745226D01*
X82990256Y-99667205D01*
X83159774Y-99553937D01*
X83203711Y-99510000D01*
X95095987Y-99510000D01*
X95196063Y-99659774D01*
X95340226Y-99803937D01*
X95509744Y-99917205D01*
X95698102Y-99995226D01*
X95898061Y-100035000D01*
X96101939Y-100035000D01*
X96301898Y-99995226D01*
X96490256Y-99917205D01*
X96659774Y-99803937D01*
X96803937Y-99659774D01*
X96917205Y-99490256D01*
X96995226Y-99301898D01*
X97035000Y-99101939D01*
X97035000Y-98898061D01*
X96995226Y-98698102D01*
X96917205Y-98509744D01*
X96803937Y-98340226D01*
X96659774Y-98196063D01*
X96490256Y-98082795D01*
X96301898Y-98004774D01*
X96101939Y-97965000D01*
X95898061Y-97965000D01*
X95777326Y-97989015D01*
X95750000Y-97986324D01*
X95712678Y-97990000D01*
X83203711Y-97990000D01*
X83159774Y-97946063D01*
X82990256Y-97832795D01*
X82801898Y-97754774D01*
X82601939Y-97715000D01*
X82544105Y-97715000D01*
X82540001Y-97709999D01*
X82438866Y-97627000D01*
X110447394Y-97627000D01*
X111910197Y-99089803D01*
X111929443Y-99105597D01*
X111951399Y-99117333D01*
X111975224Y-99124560D01*
X112000000Y-99127000D01*
X120840001Y-99127000D01*
X120840001Y-101772660D01*
X120693475Y-101553368D01*
X120486632Y-101346525D01*
X120243411Y-101184010D01*
X119973158Y-101072068D01*
X119686260Y-101015000D01*
X119393740Y-101015000D01*
X119106842Y-101072068D01*
X118836589Y-101184010D01*
X118593368Y-101346525D01*
X118461513Y-101478380D01*
X118439502Y-101405820D01*
X118380537Y-101295506D01*
X118301185Y-101198815D01*
X118204494Y-101119463D01*
X118094180Y-101060498D01*
X117974482Y-101024188D01*
X117850000Y-101011928D01*
X116150000Y-101011928D01*
X116025518Y-101024188D01*
X115905820Y-101060498D01*
X115795506Y-101119463D01*
X115698815Y-101198815D01*
X115619463Y-101295506D01*
X115560498Y-101405820D01*
X115524188Y-101525518D01*
X115511928Y-101650000D01*
X115511928Y-103350000D01*
X115524188Y-103474482D01*
X115560498Y-103594180D01*
X115619463Y-103704494D01*
X115698815Y-103801185D01*
X115746111Y-103840000D01*
X73685445Y-103840000D01*
X73743411Y-103815990D01*
X73986632Y-103653475D01*
X74193475Y-103446632D01*
X74355990Y-103203411D01*
X74467932Y-102933158D01*
X74525000Y-102646260D01*
X74525000Y-102353740D01*
X74467932Y-102066842D01*
X74355990Y-101796589D01*
X74193475Y-101553368D01*
X73986632Y-101346525D01*
X73743411Y-101184010D01*
X73473158Y-101072068D01*
X73186260Y-101015000D01*
X72893740Y-101015000D01*
X72606842Y-101072068D01*
X72336589Y-101184010D01*
X72093368Y-101346525D01*
X71961513Y-101478380D01*
X71939502Y-101405820D01*
X71880537Y-101295506D01*
X71801185Y-101198815D01*
X71704494Y-101119463D01*
X71594180Y-101060498D01*
X71474482Y-101024188D01*
X71350000Y-101011928D01*
X69650000Y-101011928D01*
X69525518Y-101024188D01*
X69405820Y-101060498D01*
X69295506Y-101119463D01*
X69198815Y-101198815D01*
X69119463Y-101295506D01*
X69060498Y-101405820D01*
X69024188Y-101525518D01*
X69011928Y-101650000D01*
X69011928Y-103350000D01*
X69024188Y-103474482D01*
X69060498Y-103594180D01*
X69119463Y-103704494D01*
X69198815Y-103801185D01*
X69246111Y-103840000D01*
X58160000Y-103840000D01*
X58160000Y-96523589D01*
X58615000Y-96523589D01*
X58615000Y-96796411D01*
X58668225Y-97063989D01*
X58772629Y-97316043D01*
X58924201Y-97542886D01*
X59117114Y-97735799D01*
X59343957Y-97887371D01*
X59446873Y-97930000D01*
X59343957Y-97972629D01*
X59117114Y-98124201D01*
X58924201Y-98317114D01*
X58772629Y-98543957D01*
X58668225Y-98796011D01*
X58615000Y-99063589D01*
X58615000Y-99336411D01*
X58668225Y-99603989D01*
X58772629Y-99856043D01*
X58924201Y-100082886D01*
X59117114Y-100275799D01*
X59343957Y-100427371D01*
X59596011Y-100531775D01*
X59863589Y-100585000D01*
X60136411Y-100585000D01*
X60403989Y-100531775D01*
X60656043Y-100427371D01*
X60882886Y-100275799D01*
X61075799Y-100082886D01*
X61227371Y-99856043D01*
X61331775Y-99603989D01*
X61385000Y-99336411D01*
X61385000Y-99063589D01*
X61331775Y-98796011D01*
X61227371Y-98543957D01*
X61075799Y-98317114D01*
X60882886Y-98124201D01*
X60656043Y-97972629D01*
X60553127Y-97930000D01*
X60656043Y-97887371D01*
X60882886Y-97735799D01*
X61075799Y-97542886D01*
X61227371Y-97316043D01*
X61331775Y-97063989D01*
X61385000Y-96796411D01*
X61385000Y-96523589D01*
X61331775Y-96256011D01*
X61227371Y-96003957D01*
X61075799Y-95777114D01*
X60882886Y-95584201D01*
X60656043Y-95432629D01*
X60547533Y-95387683D01*
X60596504Y-95369969D01*
X60828899Y-95229579D01*
X61029440Y-95046549D01*
X61190420Y-94827912D01*
X61305653Y-94582070D01*
X61342318Y-94461185D01*
X61219656Y-94247000D01*
X60127000Y-94247000D01*
X60127000Y-94267000D01*
X59873000Y-94267000D01*
X59873000Y-94247000D01*
X58780344Y-94247000D01*
X58657682Y-94461185D01*
X58694347Y-94582070D01*
X58809580Y-94827912D01*
X58970560Y-95046549D01*
X59171101Y-95229579D01*
X59403496Y-95369969D01*
X59452467Y-95387683D01*
X59343957Y-95432629D01*
X59117114Y-95584201D01*
X58924201Y-95777114D01*
X58772629Y-96003957D01*
X58668225Y-96256011D01*
X58615000Y-96523589D01*
X58160000Y-96523589D01*
X58160000Y-93127000D01*
X59043369Y-93127000D01*
X58970560Y-93193451D01*
G37*
X58970560Y-93193451D02*
X58809580Y-93412088D01*
X58694347Y-93657930D01*
X58657682Y-93778815D01*
X58780344Y-93993000D01*
X59873000Y-93993000D01*
X59873000Y-93973000D01*
X60127000Y-93973000D01*
X60127000Y-93993000D01*
X61219656Y-93993000D01*
X61342318Y-93778815D01*
X61305653Y-93657930D01*
X61190420Y-93412088D01*
X61029440Y-93193451D01*
X60956631Y-93127000D01*
X63947394Y-93127000D01*
X64873000Y-94052606D01*
X64873000Y-96500000D01*
X64875440Y-96524776D01*
X64882667Y-96548601D01*
X64894403Y-96570557D01*
X64910197Y-96589803D01*
X65810394Y-97490000D01*
X64703711Y-97490000D01*
X64659774Y-97446063D01*
X64490256Y-97332795D01*
X64301898Y-97254774D01*
X64101939Y-97215000D01*
X63898061Y-97215000D01*
X63698102Y-97254774D01*
X63509744Y-97332795D01*
X63340226Y-97446063D01*
X63196063Y-97590226D01*
X63082795Y-97759744D01*
X63004774Y-97948102D01*
X62965000Y-98148061D01*
X62965000Y-98351939D01*
X63004774Y-98551898D01*
X63082795Y-98740256D01*
X63196063Y-98909774D01*
X63340226Y-99053937D01*
X63509744Y-99167205D01*
X63698102Y-99245226D01*
X63898061Y-99285000D01*
X64101939Y-99285000D01*
X64301898Y-99245226D01*
X64490256Y-99167205D01*
X64659774Y-99053937D01*
X64703711Y-99010000D01*
X81496440Y-99010000D01*
X81504774Y-99051898D01*
X81582795Y-99240256D01*
X81696063Y-99409774D01*
X81840226Y-99553937D01*
X82009744Y-99667205D01*
X82198102Y-99745226D01*
X82398061Y-99785000D01*
X82601939Y-99785000D01*
X82801898Y-99745226D01*
X82990256Y-99667205D01*
X83159774Y-99553937D01*
X83203711Y-99510000D01*
X95095987Y-99510000D01*
X95196063Y-99659774D01*
X95340226Y-99803937D01*
X95509744Y-99917205D01*
X95698102Y-99995226D01*
X95898061Y-100035000D01*
X96101939Y-100035000D01*
X96301898Y-99995226D01*
X96490256Y-99917205D01*
X96659774Y-99803937D01*
X96803937Y-99659774D01*
X96917205Y-99490256D01*
X96995226Y-99301898D01*
X97035000Y-99101939D01*
X97035000Y-98898061D01*
X96995226Y-98698102D01*
X96917205Y-98509744D01*
X96803937Y-98340226D01*
X96659774Y-98196063D01*
X96490256Y-98082795D01*
X96301898Y-98004774D01*
X96101939Y-97965000D01*
X95898061Y-97965000D01*
X95777326Y-97989015D01*
X95750000Y-97986324D01*
X95712678Y-97990000D01*
X83203711Y-97990000D01*
X83159774Y-97946063D01*
X82990256Y-97832795D01*
X82801898Y-97754774D01*
X82601939Y-97715000D01*
X82544105Y-97715000D01*
X82540001Y-97709999D01*
X82438866Y-97627000D01*
X110447394Y-97627000D01*
X111910197Y-99089803D01*
X111929443Y-99105597D01*
X111951399Y-99117333D01*
X111975224Y-99124560D01*
X112000000Y-99127000D01*
X120840001Y-99127000D01*
X120840001Y-101772660D01*
X120693475Y-101553368D01*
X120486632Y-101346525D01*
X120243411Y-101184010D01*
X119973158Y-101072068D01*
X119686260Y-101015000D01*
X119393740Y-101015000D01*
X119106842Y-101072068D01*
X118836589Y-101184010D01*
X118593368Y-101346525D01*
X118461513Y-101478380D01*
X118439502Y-101405820D01*
X118380537Y-101295506D01*
X118301185Y-101198815D01*
X118204494Y-101119463D01*
X118094180Y-101060498D01*
X117974482Y-101024188D01*
X117850000Y-101011928D01*
X116150000Y-101011928D01*
X116025518Y-101024188D01*
X115905820Y-101060498D01*
X115795506Y-101119463D01*
X115698815Y-101198815D01*
X115619463Y-101295506D01*
X115560498Y-101405820D01*
X115524188Y-101525518D01*
X115511928Y-101650000D01*
X115511928Y-103350000D01*
X115524188Y-103474482D01*
X115560498Y-103594180D01*
X115619463Y-103704494D01*
X115698815Y-103801185D01*
X115746111Y-103840000D01*
X73685445Y-103840000D01*
X73743411Y-103815990D01*
X73986632Y-103653475D01*
X74193475Y-103446632D01*
X74355990Y-103203411D01*
X74467932Y-102933158D01*
X74525000Y-102646260D01*
X74525000Y-102353740D01*
X74467932Y-102066842D01*
X74355990Y-101796589D01*
X74193475Y-101553368D01*
X73986632Y-101346525D01*
X73743411Y-101184010D01*
X73473158Y-101072068D01*
X73186260Y-101015000D01*
X72893740Y-101015000D01*
X72606842Y-101072068D01*
X72336589Y-101184010D01*
X72093368Y-101346525D01*
X71961513Y-101478380D01*
X71939502Y-101405820D01*
X71880537Y-101295506D01*
X71801185Y-101198815D01*
X71704494Y-101119463D01*
X71594180Y-101060498D01*
X71474482Y-101024188D01*
X71350000Y-101011928D01*
X69650000Y-101011928D01*
X69525518Y-101024188D01*
X69405820Y-101060498D01*
X69295506Y-101119463D01*
X69198815Y-101198815D01*
X69119463Y-101295506D01*
X69060498Y-101405820D01*
X69024188Y-101525518D01*
X69011928Y-101650000D01*
X69011928Y-103350000D01*
X69024188Y-103474482D01*
X69060498Y-103594180D01*
X69119463Y-103704494D01*
X69198815Y-103801185D01*
X69246111Y-103840000D01*
X58160000Y-103840000D01*
X58160000Y-96523589D01*
X58615000Y-96523589D01*
X58615000Y-96796411D01*
X58668225Y-97063989D01*
X58772629Y-97316043D01*
X58924201Y-97542886D01*
X59117114Y-97735799D01*
X59343957Y-97887371D01*
X59446873Y-97930000D01*
X59343957Y-97972629D01*
X59117114Y-98124201D01*
X58924201Y-98317114D01*
X58772629Y-98543957D01*
X58668225Y-98796011D01*
X58615000Y-99063589D01*
X58615000Y-99336411D01*
X58668225Y-99603989D01*
X58772629Y-99856043D01*
X58924201Y-100082886D01*
X59117114Y-100275799D01*
X59343957Y-100427371D01*
X59596011Y-100531775D01*
X59863589Y-100585000D01*
X60136411Y-100585000D01*
X60403989Y-100531775D01*
X60656043Y-100427371D01*
X60882886Y-100275799D01*
X61075799Y-100082886D01*
X61227371Y-99856043D01*
X61331775Y-99603989D01*
X61385000Y-99336411D01*
X61385000Y-99063589D01*
X61331775Y-98796011D01*
X61227371Y-98543957D01*
X61075799Y-98317114D01*
X60882886Y-98124201D01*
X60656043Y-97972629D01*
X60553127Y-97930000D01*
X60656043Y-97887371D01*
X60882886Y-97735799D01*
X61075799Y-97542886D01*
X61227371Y-97316043D01*
X61331775Y-97063989D01*
X61385000Y-96796411D01*
X61385000Y-96523589D01*
X61331775Y-96256011D01*
X61227371Y-96003957D01*
X61075799Y-95777114D01*
X60882886Y-95584201D01*
X60656043Y-95432629D01*
X60547533Y-95387683D01*
X60596504Y-95369969D01*
X60828899Y-95229579D01*
X61029440Y-95046549D01*
X61190420Y-94827912D01*
X61305653Y-94582070D01*
X61342318Y-94461185D01*
X61219656Y-94247000D01*
X60127000Y-94247000D01*
X60127000Y-94267000D01*
X59873000Y-94267000D01*
X59873000Y-94247000D01*
X58780344Y-94247000D01*
X58657682Y-94461185D01*
X58694347Y-94582070D01*
X58809580Y-94827912D01*
X58970560Y-95046549D01*
X59171101Y-95229579D01*
X59403496Y-95369969D01*
X59452467Y-95387683D01*
X59343957Y-95432629D01*
X59117114Y-95584201D01*
X58924201Y-95777114D01*
X58772629Y-96003957D01*
X58668225Y-96256011D01*
X58615000Y-96523589D01*
X58160000Y-96523589D01*
X58160000Y-93127000D01*
X59043369Y-93127000D01*
X58970560Y-93193451D01*
%TD*%
M02*
