G04 #@! TF.GenerationSoftware,KiCad,Pcbnew,7.0.2-6a45011f42~172~ubuntu20.04.1*
G04 #@! TF.CreationDate,2023-06-13T08:46:41+02:00*
G04 #@! TF.ProjectId,Power,506f7765-722e-46b6-9963-61645f706362,rev?*
G04 #@! TF.SameCoordinates,Original*
G04 #@! TF.FileFunction,Legend,Bot*
G04 #@! TF.FilePolarity,Positive*
%FSLAX46Y46*%
G04 Gerber Fmt 4.6, Leading zero omitted, Abs format (unit mm)*
G04 Created by KiCad (PCBNEW 7.0.2-6a45011f42~172~ubuntu20.04.1) date 2023-06-13 08:46:41*
%MOMM*%
%LPD*%
G01*
G04 APERTURE LIST*
G04 Aperture macros list*
%AMRoundRect*
0 Rectangle with rounded corners*
0 $1 Rounding radius*
0 $2 $3 $4 $5 $6 $7 $8 $9 X,Y pos of 4 corners*
0 Add a 4 corners polygon primitive as box body*
4,1,4,$2,$3,$4,$5,$6,$7,$8,$9,$2,$3,0*
0 Add four circle primitives for the rounded corners*
1,1,$1+$1,$2,$3*
1,1,$1+$1,$4,$5*
1,1,$1+$1,$6,$7*
1,1,$1+$1,$8,$9*
0 Add four rect primitives between the rounded corners*
20,1,$1+$1,$2,$3,$4,$5,0*
20,1,$1+$1,$4,$5,$6,$7,0*
20,1,$1+$1,$6,$7,$8,$9,0*
20,1,$1+$1,$8,$9,$2,$3,0*%
%AMFreePoly0*
4,1,35,0.535355,0.785355,0.550000,0.750000,0.550000,-0.750000,0.535355,-0.785355,0.500000,-0.800000,0.000000,-0.800000,-0.012286,-0.794911,-0.071157,-0.794911,-0.085244,-0.792886,-0.221795,-0.752791,-0.234740,-0.746879,-0.354462,-0.669938,-0.365217,-0.660618,-0.458414,-0.553063,-0.466109,-0.541091,-0.525228,-0.411637,-0.529237,-0.397982,-0.549491,-0.257116,-0.550000,-0.250000,-0.550000,0.250000,
-0.549491,0.257116,-0.529237,0.397982,-0.525228,0.411637,-0.466109,0.541091,-0.458414,0.553063,-0.365217,0.660618,-0.354462,0.669938,-0.234740,0.746879,-0.221795,0.752791,-0.085244,0.792886,-0.071157,0.794911,-0.012286,0.794911,0.000000,0.800000,0.500000,0.800000,0.535355,0.785355,0.535355,0.785355,$1*%
%AMFreePoly1*
4,1,35,0.012286,0.794911,0.071157,0.794911,0.085244,0.792886,0.221795,0.752791,0.234740,0.746879,0.354462,0.669938,0.365217,0.660618,0.458414,0.553063,0.466109,0.541091,0.525228,0.411637,0.529237,0.397982,0.549491,0.257116,0.550000,0.250000,0.550000,-0.250000,0.549491,-0.257116,0.529237,-0.397982,0.525228,-0.411637,0.466109,-0.541091,0.458414,-0.553063,0.365217,-0.660618,
0.354462,-0.669938,0.234740,-0.746879,0.221795,-0.752791,0.085244,-0.792886,0.071157,-0.794911,0.012286,-0.794911,0.000000,-0.800000,-0.500000,-0.800000,-0.535355,-0.785355,-0.550000,-0.750000,-0.550000,0.750000,-0.535355,0.785355,-0.500000,0.800000,0.000000,0.800000,0.012286,0.794911,0.012286,0.794911,$1*%
G04 Aperture macros list end*
%ADD10C,0.120000*%
%ADD11C,0.100000*%
%ADD12C,1.600000*%
%ADD13C,2.100000*%
%ADD14C,3.200000*%
%ADD15RoundRect,0.050000X-1.125000X0.875000X-1.125000X-0.875000X1.125000X-0.875000X1.125000X0.875000X0*%
%ADD16O,2.350000X1.850000*%
%ADD17RoundRect,0.050000X-0.500000X-0.500000X0.500000X-0.500000X0.500000X0.500000X-0.500000X0.500000X0*%
%ADD18C,1.100000*%
%ADD19C,1.400000*%
%ADD20O,1.600000X3.100000*%
%ADD21O,2.500000X1.700000*%
%ADD22O,1.700000X2.500000*%
%ADD23RoundRect,0.050000X-0.850000X0.850000X-0.850000X-0.850000X0.850000X-0.850000X0.850000X0.850000X0*%
%ADD24O,1.800000X1.800000*%
%ADD25RoundRect,0.300000X-0.750000X0.600000X-0.750000X-0.600000X0.750000X-0.600000X0.750000X0.600000X0*%
%ADD26O,2.100000X1.800000*%
%ADD27RoundRect,0.300000X0.750000X-0.600000X0.750000X0.600000X-0.750000X0.600000X-0.750000X-0.600000X0*%
%ADD28C,0.900000*%
%ADD29RoundRect,0.050000X-1.250000X-80.000000X1.250000X-80.000000X1.250000X80.000000X-1.250000X80.000000X0*%
%ADD30RoundRect,0.050000X0.850000X0.850000X-0.850000X0.850000X-0.850000X-0.850000X0.850000X-0.850000X0*%
%ADD31C,2.200000*%
%ADD32RoundRect,0.550000X0.500000X0.500000X-0.500000X0.500000X-0.500000X-0.500000X0.500000X-0.500000X0*%
%ADD33C,1.903400*%
%ADD34O,3.100000X3.600000*%
%ADD35O,3.100000X5.100000*%
%ADD36O,2.600000X5.100000*%
%ADD37RoundRect,0.050000X-0.500000X0.500000X-0.500000X-0.500000X0.500000X-0.500000X0.500000X0.500000X0*%
%ADD38O,1.100000X1.100000*%
%ADD39FreePoly0,0.000000*%
%ADD40FreePoly1,0.000000*%
%ADD41FreePoly0,90.000000*%
%ADD42FreePoly1,90.000000*%
G04 APERTURE END LIST*
D10*
G04 #@! TO.C,J101*
X138990000Y-182120000D02*
X45010000Y-182120000D01*
X138990000Y-168150000D02*
X138990000Y-182120000D01*
X45010000Y-182120000D02*
X45010000Y-168150000D01*
X45010000Y-168150000D02*
X138990000Y-168150000D01*
G04 #@! TO.C,TH402*
X104115000Y-65090000D02*
X104115000Y-65892470D01*
X102910000Y-65090000D02*
X104115000Y-65090000D01*
X102910000Y-65090000D02*
X102910000Y-65636529D01*
X102150000Y-65090000D02*
X101390000Y-65090000D01*
X101390000Y-65090000D02*
X101390000Y-66200000D01*
X104115000Y-66507530D02*
X104115000Y-67310000D01*
X102910000Y-66763471D02*
X102910000Y-67310000D01*
X102910000Y-67310000D02*
X104115000Y-67310000D01*
G04 #@! TO.C,JP413*
X106450000Y-65500000D02*
X106450000Y-66100000D01*
X107150000Y-66800000D02*
X108550000Y-66800000D01*
X108550000Y-64800000D02*
X107150000Y-64800000D01*
X109250000Y-66100000D02*
X109250000Y-65500000D01*
X107150000Y-64800000D02*
G75*
G03*
X106450000Y-65500000I-1J-699999D01*
G01*
X106450000Y-66100000D02*
G75*
G03*
X107150000Y-66800000I699999J-1D01*
G01*
X109250000Y-65500000D02*
G75*
G03*
X108550000Y-64800000I-700000J0D01*
G01*
X108550000Y-66800000D02*
G75*
G03*
X109250000Y-66100000I0J700000D01*
G01*
G04 #@! TO.C,JP415*
X119150000Y-69800000D02*
X119750000Y-69800000D01*
X120450000Y-69100000D02*
X120450000Y-67700000D01*
X118450000Y-67700000D02*
X118450000Y-69100000D01*
X119750000Y-67000000D02*
X119150000Y-67000000D01*
X118450000Y-69100000D02*
G75*
G03*
X119150000Y-69800000I699999J-1D01*
G01*
X119750000Y-69800000D02*
G75*
G03*
X120450000Y-69100000I1J699999D01*
G01*
X119150000Y-67000000D02*
G75*
G03*
X118450000Y-67700000I0J-700000D01*
G01*
X120450000Y-67700000D02*
G75*
G03*
X119750000Y-67000000I-700000J0D01*
G01*
G04 #@! TO.C,TH401*
X100415000Y-65090000D02*
X100415000Y-65892470D01*
X99210000Y-65090000D02*
X100415000Y-65090000D01*
X99210000Y-65090000D02*
X99210000Y-65636529D01*
X98450000Y-65090000D02*
X97690000Y-65090000D01*
X97690000Y-65090000D02*
X97690000Y-66200000D01*
X100415000Y-66507530D02*
X100415000Y-67310000D01*
X99210000Y-66763471D02*
X99210000Y-67310000D01*
X99210000Y-67310000D02*
X100415000Y-67310000D01*
G04 #@! TD*
%LPC*%
D11*
X94050000Y-90900000D02*
X87250000Y-90900000D01*
X87250000Y-83900000D01*
X94050000Y-83900000D01*
X94050000Y-90900000D01*
G36*
X94050000Y-90900000D02*
G01*
X87250000Y-90900000D01*
X87250000Y-83900000D01*
X94050000Y-83900000D01*
X94050000Y-90900000D01*
G37*
X79650000Y-94700000D02*
X71850000Y-94700000D01*
X71850000Y-88600000D01*
X79650000Y-88600000D01*
X79650000Y-94700000D01*
G36*
X79650000Y-94700000D02*
G01*
X71850000Y-94700000D01*
X71850000Y-88600000D01*
X79650000Y-88600000D01*
X79650000Y-94700000D01*
G37*
X108550000Y-107300000D02*
X101150000Y-107300000D01*
X101150000Y-100900000D01*
X108550000Y-100900000D01*
X108550000Y-107300000D01*
G36*
X108550000Y-107300000D02*
G01*
X101150000Y-107300000D01*
X101150000Y-100900000D01*
X108550000Y-100900000D01*
X108550000Y-107300000D01*
G37*
X108340000Y-147900000D02*
X100940000Y-147900000D01*
X100940000Y-141500000D01*
X108340000Y-141500000D01*
X108340000Y-147900000D01*
G36*
X108340000Y-147900000D02*
G01*
X100940000Y-147900000D01*
X100940000Y-141500000D01*
X108340000Y-141500000D01*
X108340000Y-147900000D01*
G37*
X93940000Y-131300000D02*
X87140000Y-131300000D01*
X87140000Y-124300000D01*
X93940000Y-124300000D01*
X93940000Y-131300000D01*
G36*
X93940000Y-131300000D02*
G01*
X87140000Y-131300000D01*
X87140000Y-124300000D01*
X93940000Y-124300000D01*
X93940000Y-131300000D01*
G37*
X79650000Y-135400000D02*
X71750000Y-135400000D01*
X71750000Y-129300000D01*
X79650000Y-129300000D01*
X79650000Y-135400000D01*
G36*
X79650000Y-135400000D02*
G01*
X71750000Y-135400000D01*
X71750000Y-129300000D01*
X79650000Y-129300000D01*
X79650000Y-135400000D01*
G37*
D12*
G04 #@! TO.C,TP104*
X55880000Y-148400000D03*
G04 #@! TD*
D13*
G04 #@! TO.C,VOUT_GND501*
X78550000Y-42000000D03*
G04 #@! TD*
D14*
G04 #@! TO.C,H101*
X137000000Y-162000000D03*
G04 #@! TD*
D12*
G04 #@! TO.C,TP307*
X121250000Y-142100000D03*
G04 #@! TD*
G04 #@! TO.C,TP304*
X136250000Y-127460000D03*
G04 #@! TD*
D14*
G04 #@! TO.C,H107*
X47550000Y-27000000D03*
G04 #@! TD*
D12*
G04 #@! TO.C,TP305*
X121280000Y-138100000D03*
G04 #@! TD*
D14*
G04 #@! TO.C,H104*
X47000000Y-112000000D03*
G04 #@! TD*
D12*
G04 #@! TO.C,TP202*
X136250000Y-99400000D03*
G04 #@! TD*
D15*
G04 #@! TO.C,PS502*
X101657500Y-69180000D03*
D16*
X101657500Y-71720000D03*
X101657500Y-74260000D03*
X101657500Y-76800000D03*
G04 #@! TD*
D12*
G04 #@! TO.C,TP103*
X53390000Y-148400000D03*
G04 #@! TD*
D17*
G04 #@! TO.C,J404*
X91950000Y-33850000D03*
D18*
X92966000Y-35630000D03*
X93982000Y-33850000D03*
X94998000Y-35630000D03*
X96014000Y-33850000D03*
X97030000Y-35630000D03*
X98046000Y-33850000D03*
X99062000Y-35630000D03*
D19*
X88965500Y-37914000D03*
X91251500Y-37914000D03*
X99760500Y-37914000D03*
X102046500Y-37914000D03*
D20*
X85600000Y-27500000D03*
X105539000Y-27500000D03*
G04 #@! TD*
D12*
G04 #@! TO.C,TP309*
X122750000Y-159700000D03*
G04 #@! TD*
D21*
G04 #@! TO.C,U401*
X112470000Y-23440000D03*
X112470000Y-25980000D03*
X112470000Y-28520000D03*
X112470000Y-31060000D03*
X112470000Y-33600000D03*
X112470000Y-36140000D03*
X112470000Y-38680000D03*
X112470000Y-41220000D03*
X112470000Y-43760000D03*
X112470000Y-46300000D03*
X112470000Y-48840000D03*
X112470000Y-51380000D03*
X112470000Y-53920000D03*
X112470000Y-56460000D03*
X112470000Y-59000000D03*
X112470000Y-61540000D03*
X112470000Y-64080000D03*
X112470000Y-66620000D03*
X112470000Y-69160000D03*
X112470000Y-71700000D03*
X131050000Y-71700000D03*
X131050000Y-69160000D03*
X131050000Y-66620000D03*
X131050000Y-64080000D03*
X131050000Y-61540000D03*
X131050000Y-59000000D03*
X131050000Y-56460000D03*
X131050000Y-53920000D03*
X131050000Y-51380000D03*
X131050000Y-48840000D03*
X131050000Y-46300000D03*
X131050000Y-43760000D03*
X131050000Y-41220000D03*
X131050000Y-38680000D03*
X131050000Y-36140000D03*
X131050000Y-33600000D03*
X131050000Y-31060000D03*
X131050000Y-28520000D03*
X131050000Y-25980000D03*
X131050000Y-23440000D03*
D12*
X115410000Y-31060000D03*
X115410000Y-33600000D03*
X115410000Y-36140000D03*
X115410000Y-38680000D03*
X115410000Y-41220000D03*
X115410000Y-53920000D03*
X115410000Y-56460000D03*
X115410000Y-59000000D03*
X115410000Y-61540000D03*
X115410000Y-64080000D03*
X115410000Y-66620000D03*
X115410000Y-69160000D03*
D22*
X115410000Y-72100000D03*
X117950000Y-72100000D03*
X120490000Y-72100000D03*
X123030000Y-72100000D03*
X125570000Y-72100000D03*
X128110000Y-72100000D03*
D12*
X128110000Y-69160000D03*
G04 #@! TD*
D23*
G04 #@! TO.C,JP403*
X97350000Y-47400000D03*
D24*
X94810000Y-47400000D03*
G04 #@! TD*
D12*
G04 #@! TO.C,TP205*
X121150000Y-97900000D03*
G04 #@! TD*
D14*
G04 #@! TO.C,H108*
X136450000Y-27000000D03*
G04 #@! TD*
D25*
G04 #@! TO.C,J501*
X52800000Y-25400000D03*
D26*
X52800000Y-27900000D03*
G04 #@! TD*
D12*
G04 #@! TO.C,TP208*
X122550000Y-83500000D03*
G04 #@! TD*
G04 #@! TO.C,TP301*
X136250000Y-140600000D03*
G04 #@! TD*
D27*
G04 #@! TO.C,J502*
X56400000Y-27900000D03*
D26*
X56400000Y-25400000D03*
G04 #@! TD*
D15*
G04 #@! TO.C,PS501*
X94750000Y-69180000D03*
D16*
X94750000Y-71720000D03*
X94750000Y-74260000D03*
X94750000Y-76800000D03*
G04 #@! TD*
D12*
G04 #@! TO.C,TP101*
X46000000Y-118500000D03*
G04 #@! TD*
G04 #@! TO.C,TP303*
X136250000Y-130000000D03*
G04 #@! TD*
G04 #@! TO.C,TP201*
X136250000Y-101800000D03*
G04 #@! TD*
G04 #@! TO.C,TP302*
X136250000Y-138160000D03*
G04 #@! TD*
G04 #@! TO.C,TP306*
X121280000Y-140100000D03*
G04 #@! TD*
G04 #@! TO.C,TP308*
X122550000Y-123500000D03*
G04 #@! TD*
G04 #@! TO.C,TP106*
X50550000Y-159400000D03*
G04 #@! TD*
G04 #@! TO.C,TP203*
X136300000Y-91600000D03*
G04 #@! TD*
D13*
G04 #@! TO.C,GND501*
X51900000Y-59240000D03*
G04 #@! TD*
D12*
G04 #@! TO.C,TP105*
X57250000Y-121200000D03*
G04 #@! TD*
D28*
G04 #@! TO.C,N101*
X43250000Y-24500000D03*
X43250000Y-34500000D03*
X43250000Y-44500000D03*
X43250000Y-54500000D03*
X43250000Y-64500000D03*
X43250000Y-74500000D03*
X43250000Y-84500000D03*
X43250000Y-94500000D03*
D29*
X43250000Y-102000000D03*
D28*
X43250000Y-104500000D03*
X43250000Y-114500000D03*
X43250000Y-124500000D03*
X43250000Y-134500000D03*
X43250000Y-144500000D03*
X43250000Y-154500000D03*
X43250000Y-164500000D03*
X43250000Y-174500000D03*
X140750000Y-24250000D03*
X140750000Y-34250000D03*
X140750000Y-44250000D03*
X140750000Y-54250000D03*
X140750000Y-64250000D03*
X140750000Y-74250000D03*
X140750000Y-84250000D03*
X140750000Y-94250000D03*
D29*
X140750000Y-102000000D03*
D28*
X140750000Y-104250000D03*
X140750000Y-114250000D03*
X140750000Y-124250000D03*
X140750000Y-134250000D03*
X140750000Y-144250000D03*
X140750000Y-154250000D03*
X140750000Y-164250000D03*
X140750000Y-174250000D03*
G04 #@! TD*
D30*
G04 #@! TO.C,JP401*
X94260000Y-44200000D03*
D24*
X94260000Y-41660000D03*
G04 #@! TD*
D14*
G04 #@! TO.C,H106*
X137000000Y-112000000D03*
G04 #@! TD*
G04 #@! TO.C,H103*
X98000000Y-112000000D03*
G04 #@! TD*
D12*
G04 #@! TO.C,TP102*
X46000000Y-115960000D03*
G04 #@! TD*
G04 #@! TO.C,TP209*
X122550000Y-119500000D03*
G04 #@! TD*
G04 #@! TO.C,TP206*
X121150000Y-99900000D03*
G04 #@! TD*
D31*
G04 #@! TO.C,J101*
X136450000Y-179580000D03*
X47550000Y-179580000D03*
D32*
X60250000Y-174500000D03*
D33*
X65250000Y-176786000D03*
D34*
X65250000Y-169039000D03*
D35*
X70500000Y-175670001D03*
D33*
X70250000Y-168586001D03*
X75250000Y-176786001D03*
D34*
X75250000Y-169039000D03*
D35*
X80500000Y-175670001D03*
D33*
X80250000Y-168586001D03*
X85250000Y-176786001D03*
D34*
X85250000Y-169039000D03*
D35*
X90500000Y-175670001D03*
D33*
X90250000Y-168586001D03*
D32*
X95810000Y-169420000D03*
X100890000Y-174500000D03*
D33*
X106130000Y-176786000D03*
D34*
X105970000Y-169039000D03*
D33*
X111130000Y-168586001D03*
D36*
X111050000Y-175670001D03*
D33*
X116130000Y-176786001D03*
D34*
X116130000Y-169039000D03*
D35*
X121210000Y-175670001D03*
D33*
X121130000Y-168586001D03*
D32*
X126290000Y-169420000D03*
X131370000Y-174500000D03*
G04 #@! TD*
D17*
G04 #@! TO.C,J403*
X66950000Y-33850000D03*
D18*
X67966000Y-35630000D03*
X68982000Y-33850000D03*
X69998000Y-35630000D03*
X71014000Y-33850000D03*
X72030000Y-35630000D03*
X73046000Y-33850000D03*
X74062000Y-35630000D03*
D19*
X63965500Y-37914000D03*
X66251500Y-37914000D03*
X74760500Y-37914000D03*
X77046500Y-37914000D03*
D20*
X60600000Y-27500000D03*
X80539000Y-27500000D03*
G04 #@! TD*
D14*
G04 #@! TO.C,H105*
X47000000Y-162000000D03*
G04 #@! TD*
D12*
G04 #@! TO.C,TP204*
X136300000Y-89060000D03*
G04 #@! TD*
D14*
G04 #@! TO.C,H109*
X82000000Y-84000000D03*
G04 #@! TD*
D12*
G04 #@! TO.C,TP207*
X121150000Y-101900000D03*
G04 #@! TD*
D14*
G04 #@! TO.C,H102*
X98000000Y-152000000D03*
G04 #@! TD*
D30*
G04 #@! TO.C,J505*
X49050000Y-37800000D03*
D24*
X49050000Y-35260000D03*
X49050000Y-32720000D03*
G04 #@! TD*
D12*
G04 #@! TO.C,TP107*
X73050000Y-103100000D03*
G04 #@! TD*
D37*
G04 #@! TO.C,TH402*
X102150000Y-66200000D03*
D38*
X103420000Y-66200000D03*
G04 #@! TD*
D39*
G04 #@! TO.C,JP413*
X107200000Y-65800000D03*
D40*
X108500000Y-65800000D03*
G04 #@! TD*
D41*
G04 #@! TO.C,JP415*
X119450000Y-69050000D03*
D42*
X119450000Y-67750000D03*
G04 #@! TD*
D37*
G04 #@! TO.C,TH401*
X98450000Y-66200000D03*
D38*
X99720000Y-66200000D03*
G04 #@! TD*
%LPD*%
M02*
