M48
; DRILL file {KiCad 7.0.2-6a45011f42~172~ubuntu20.04.1} date lun. 12 juin 2023 16:19:40
; FORMAT={-:-/ absolute / metric / decimal}
; #@! TF.CreationDate,2023-06-12T16:19:40+02:00
; #@! TF.GenerationSoftware,Kicad,Pcbnew,7.0.2-6a45011f42~172~ubuntu20.04.1
; #@! TF.FileFunction,Plated,1,6,PTH
FMAT,2
METRIC
; #@! TA.AperFunction,Plated,PTH,ViaDrill
T1C0.400
; #@! TA.AperFunction,Plated,PTH,ComponentDrill
T2C0.400
; #@! TA.AperFunction,Plated,PTH,ComponentDrill
T3C0.650
; #@! TA.AperFunction,Plated,PTH,ComponentDrill
T4C0.700
; #@! TA.AperFunction,Plated,PTH,ComponentDrill
T5C0.762
; #@! TA.AperFunction,Plated,PTH,ComponentDrill
T6C0.900
; #@! TA.AperFunction,Plated,PTH,ComponentDrill
T7C1.000
; #@! TA.AperFunction,Plated,PTH,ComponentDrill
T8C1.075
; #@! TA.AperFunction,Plated,PTH,ComponentDrill
T9C1.200
; #@! TA.AperFunction,Plated,PTH,ComponentDrill
T10C1.295
; #@! TA.AperFunction,Plated,PTH,ComponentDrill
T11C1.500
; #@! TA.AperFunction,Plated,PTH,ComponentDrill
T12C2.000
; #@! TA.AperFunction,Plated,PTH,ComponentDrill
T13C2.700
%
G90
G05
T1
X47.0Y-153.5
X47.5Y-149.7
X47.8Y-131.7
X47.8Y-139.6
X47.8Y-142.8
X47.9Y-86.7
X47.9Y-90.1
X47.9Y-128.5
X47.925Y-98.2
X47.925Y-101.5
X48.1Y-56.34
X49.2Y-56.34
X49.2Y-86.7
X49.2Y-90.1
X49.2Y-128.5
X49.2Y-131.7
X49.2Y-139.6
X49.2Y-142.8
X49.225Y-98.2
X49.225Y-101.5
X50.4Y-56.34
X50.425Y-98.2
X50.425Y-101.5
X50.5Y-128.5
X50.5Y-131.7
X50.5Y-139.6
X50.5Y-142.8
X50.6Y-86.7
X50.6Y-90.1
X51.35Y-116.3
X51.55Y-157.275
X51.8Y-121.4
X51.85Y-161.0
X51.9Y-156.1
X52.2Y-56.34
X53.0Y-49.69
X53.4Y-56.34
X53.6Y-32.0
X53.6Y-33.1
X53.85Y-36.6
X54.0Y-49.69
X54.5Y-171.0
X54.5Y-172.8
X54.5Y-174.6
X54.5Y-177.0
X54.5Y-178.8
X54.5Y-180.6
X54.6Y-56.34
X54.6Y-149.8
X54.65Y-158.2
X54.85Y-154.5
X55.0Y-49.69
X56.05Y-75.5
X56.05Y-76.5
X56.1Y-73.2
X56.1Y-74.3
X56.25Y-36.6
X56.275Y-98.4
X56.3Y-86.7
X56.3Y-90.1
X56.3Y-128.5
X56.3Y-131.7
X56.3Y-139.6
X56.3Y-142.8
X56.3Y-171.0
X56.3Y-172.8
X56.3Y-174.6
X56.3Y-177.0
X56.3Y-178.8
X56.3Y-180.6
X56.325Y-101.1
X56.55Y-32.0
X56.55Y-33.1
X57.4Y-148.6
X57.875Y-98.4
X57.9Y-86.7
X57.9Y-90.1
X57.9Y-128.5
X57.9Y-131.7
X57.9Y-139.6
X57.9Y-142.8
X57.925Y-101.1
X58.1Y-171.0
X58.1Y-172.8
X58.1Y-174.6
X58.1Y-177.0
X58.1Y-178.8
X58.1Y-180.6
X59.475Y-98.4
X59.5Y-86.7
X59.5Y-90.1
X59.5Y-128.5
X59.5Y-131.7
X59.5Y-139.6
X59.5Y-142.8
X59.525Y-101.1
X60.2Y-117.575
X60.35Y-35.1
X61.55Y-99.3
X62.4Y-40.84
X62.4Y-41.84
X62.5Y-131.205
X62.5Y-132.205
X62.5Y-133.205
X62.5Y-134.205
X62.5Y-135.205
X62.5Y-136.205
X62.5Y-137.205
X62.6Y-92.8
X62.6Y-93.8
X62.6Y-94.8
X62.6Y-95.8
X62.6Y-89.8
X62.6Y-90.8
X62.6Y-91.8
X63.3Y-41.34
X63.5Y-159.6
X63.5Y-160.8
X63.5Y-162.0
X63.55Y-58.5
X63.55Y-155.7
X63.55Y-156.9
X63.55Y-158.1
X64.05Y-58.0
X64.05Y-59.0
X64.113Y-121.0
X64.7Y-159.6
X64.7Y-160.8
X64.7Y-162.0
X64.75Y-155.7
X64.75Y-156.9
X64.75Y-158.1
X65.2Y-76.5
X65.2Y-77.7
X65.2Y-78.9
X65.2Y-80.0
X65.3Y-73.05
X65.3Y-74.05
X65.3Y-75.05
X65.9Y-159.6
X65.9Y-160.8
X65.9Y-162.0
X65.95Y-155.7
X65.95Y-156.9
X65.95Y-158.1
X66.0Y-115.6
X66.25Y-111.0
X66.25Y-117.2
X67.2Y-41.74
X67.95Y-67.0
X68.45Y-41.74
X68.45Y-150.4
X68.9Y-62.34
X69.025Y-67.002
X69.4Y-105.7
X69.7Y-41.74
X70.0Y-59.74
X70.0Y-60.74
X70.0Y-61.84
X70.1Y-73.84
X70.8Y-117.8
X70.8Y-119.8
X70.85Y-160.4
X71.0Y-41.74
X71.2Y-103.4
X71.25Y-55.5
X71.45Y-162.2
X71.5Y-156.205
X71.541Y-115.883
X71.6Y-121.8
X71.65Y-158.4
X71.85Y-62.7
X71.85Y-73.84
X72.15Y-59.1
X72.265Y-129.968
X72.265Y-131.468
X72.265Y-132.968
X72.265Y-134.468
X72.325Y-89.475
X72.325Y-90.975
X72.325Y-92.475
X72.325Y-93.975
X73.6Y-73.84
X73.94Y-129.993
X73.94Y-131.493
X73.94Y-132.993
X73.94Y-134.493
X74.0Y-89.5
X74.0Y-91.0
X74.0Y-92.5
X74.0Y-94.0
X75.35Y-73.84
X75.44Y-129.993
X75.44Y-131.493
X75.44Y-132.993
X75.44Y-134.493
X75.5Y-89.5
X75.5Y-91.0
X75.5Y-92.5
X75.5Y-94.0
X76.94Y-129.993
X76.94Y-131.493
X76.94Y-132.993
X76.94Y-134.493
X77.0Y-89.5
X77.0Y-91.0
X77.0Y-92.5
X77.0Y-94.0
X78.44Y-129.993
X78.44Y-131.493
X78.44Y-132.993
X78.44Y-134.493
X78.5Y-89.5
X78.5Y-91.0
X78.5Y-92.5
X78.5Y-94.0
X78.6Y-119.2
X78.9Y-147.4
X78.9Y-159.8
X78.913Y-106.313
X79.05Y-58.0
X79.15Y-36.4
X79.4Y-102.888
X79.8Y-143.6
X80.0Y-119.2
X80.9Y-46.04
X81.1Y-49.24
X81.14Y-159.892
X81.344Y-64.49
X81.35Y-66.24
X81.35Y-68.09
X81.35Y-69.64
X81.74Y-149.292
X81.8Y-108.8
X82.4Y-99.0
X82.4Y-100.2
X82.4Y-139.7
X82.4Y-140.9
X83.05Y-31.2
X83.123Y-136.5
X83.123Y-137.7
X83.123Y-138.9
X83.34Y-131.292
X83.4Y-95.8
X83.4Y-96.9
X83.4Y-98.0
X83.412Y-90.812
X84.2Y-94.0
X84.7Y-45.6
X84.75Y-46.9
X84.8Y-134.6
X85.025Y-60.48
X85.025Y-64.68
X85.262Y-68.812
X85.3Y-104.1
X85.4Y-144.6
X85.5Y-148.2
X85.6Y-107.6
X85.6Y-118.2
X85.65Y-39.8
X86.25Y-45.6
X86.25Y-46.9
X86.25Y-68.8
X86.34Y-159.692
X86.84Y-150.493
X86.965Y-110.098
X87.16Y-62.129
X87.2Y-107.0
X87.25Y-37.0
X87.3Y-147.605
X87.4Y-53.2
X87.4Y-56.2
X87.4Y-97.2
X87.4Y-98.8
X87.4Y-100.4
X87.4Y-137.9
X87.4Y-139.5
X87.4Y-141.1
X87.65Y-63.0
X87.85Y-68.8
X88.04Y-150.493
X88.1Y-110.0
X88.2Y-107.0
X88.24Y-125.492
X88.24Y-126.992
X88.24Y-128.493
X88.24Y-129.993
X88.3Y-85.0
X88.3Y-86.5
X88.3Y-88.0
X88.3Y-89.5
X88.3Y-95.5
X88.3Y-136.2
X88.3Y-147.605
X88.35Y-39.7
X88.39Y-156.542
X88.45Y-116.05
X88.524Y-78.106
X88.6Y-53.2
X88.6Y-56.2
X88.624Y-75.506
X89.0Y-97.2
X89.0Y-98.8
X89.0Y-100.4
X89.0Y-137.9
X89.0Y-139.5
X89.0Y-141.1
X89.2Y-107.0
X89.3Y-147.605
X89.45Y-68.8
X89.74Y-125.492
X89.74Y-126.992
X89.74Y-128.493
X89.74Y-129.993
X89.8Y-85.0
X89.8Y-86.5
X89.8Y-88.0
X89.8Y-89.5
X89.9Y-53.2
X89.9Y-56.2
X90.15Y-44.9
X90.15Y-46.1
X90.4Y-118.6
X90.6Y-97.2
X90.6Y-98.8
X90.6Y-100.4
X90.6Y-137.9
X90.6Y-139.5
X90.6Y-141.1
X90.7Y-117.3
X90.7Y-158.1
X91.15Y-46.1
X91.24Y-125.492
X91.24Y-126.992
X91.24Y-128.493
X91.24Y-129.993
X91.3Y-53.2
X91.3Y-56.2
X91.3Y-85.0
X91.3Y-86.5
X91.3Y-88.0
X91.3Y-89.5
X92.15Y-46.1
X92.6Y-64.8
X92.74Y-125.492
X92.74Y-126.992
X92.74Y-128.493
X92.74Y-129.993
X92.8Y-85.0
X92.8Y-86.5
X92.8Y-88.0
X92.8Y-89.5
X93.21Y-63.665
X94.4Y-158.6
X95.15Y-48.9
X95.65Y-116.8
X95.85Y-43.6
X96.0Y-58.2
X96.115Y-144.692
X96.115Y-146.192
X96.115Y-147.692
X96.115Y-149.192
X96.175Y-104.2
X96.175Y-105.7
X96.175Y-107.2
X96.175Y-108.7
X96.2Y-59.2
X96.25Y-44.6
X97.615Y-144.692
X97.615Y-146.192
X97.615Y-147.692
X97.675Y-104.2
X97.675Y-105.7
X97.675Y-107.2
X97.675Y-108.7
X98.0Y-171.0
X98.0Y-172.8
X98.0Y-174.6
X98.0Y-177.0
X98.0Y-178.8
X98.0Y-180.6
X99.115Y-144.692
X99.115Y-146.192
X99.115Y-147.692
X99.115Y-149.192
X99.175Y-104.2
X99.175Y-105.7
X99.175Y-107.2
X99.175Y-108.7
X99.55Y-50.5
X99.8Y-171.0
X99.8Y-172.8
X99.8Y-177.0
X99.8Y-178.8
X99.8Y-180.6
X100.85Y-65.55
X101.141Y-45.849
X101.6Y-171.0
X101.6Y-172.8
X101.6Y-177.0
X101.6Y-178.8
X101.6Y-180.6
X102.54Y-142.392
X102.54Y-143.892
X102.54Y-145.392
X102.54Y-146.892
X102.6Y-101.9
X102.6Y-103.4
X102.6Y-104.9
X102.6Y-106.4
X102.75Y-45.7
X103.15Y-154.6
X103.15Y-158.2
X103.25Y-47.625
X103.25Y-114.5
X103.25Y-118.1
X103.9Y-101.9
X103.9Y-103.4
X103.9Y-104.9
X103.9Y-106.4
X104.04Y-142.392
X104.04Y-143.892
X104.04Y-145.392
X104.04Y-146.892
X104.45Y-154.6
X104.45Y-158.2
X104.55Y-114.5
X104.55Y-118.1
X105.0Y-66.2
X105.15Y-62.376
X105.2Y-61.0
X105.4Y-101.9
X105.4Y-103.4
X105.4Y-104.9
X105.4Y-106.4
X105.54Y-142.392
X105.54Y-143.892
X105.54Y-145.392
X105.54Y-146.892
X106.0Y-31.8
X106.8Y-40.1
X106.9Y-101.9
X106.9Y-103.4
X106.9Y-104.9
X106.9Y-106.4
X107.0Y-142.4
X107.0Y-143.9
X107.0Y-145.4
X107.0Y-146.9
X107.15Y-54.2
X108.65Y-33.6
X108.85Y-41.2
X108.85Y-42.6
X108.85Y-45.1
X108.863Y-44.088
X109.05Y-142.0
X109.05Y-143.5
X109.05Y-145.4
X109.05Y-147.0
X109.05Y-148.6
X109.05Y-149.8
X109.25Y-101.3
X109.25Y-102.8
X109.25Y-104.7
X109.25Y-106.3
X109.25Y-107.9
X109.25Y-109.5
X109.58Y-64.3
X109.6Y-32.8
X110.25Y-75.75
X110.25Y-78.65
X111.3Y-154.28
X111.3Y-155.78
X111.3Y-157.28
X111.815Y-114.062
X111.815Y-115.562
X111.815Y-117.062
X112.8Y-154.28
X112.8Y-155.78
X112.8Y-157.28
X113.315Y-114.062
X113.315Y-115.562
X113.315Y-117.062
X114.3Y-154.28
X114.3Y-155.78
X114.3Y-157.28
X114.65Y-28.6
X114.815Y-114.062
X114.815Y-115.562
X114.815Y-117.062
X115.2Y-50.2
X115.8Y-154.28
X115.8Y-155.78
X115.8Y-157.28
X116.315Y-114.062
X116.315Y-115.562
X116.315Y-117.062
X116.75Y-51.2
X117.15Y-57.8
X118.15Y-70.0
X118.2Y-58.6
X119.65Y-66.6
X120.55Y-46.6
X120.65Y-32.9
X120.85Y-69.05
X120.9Y-66.0
X121.85Y-55.7
X122.2Y-69.0
X122.8Y-56.8
X123.15Y-84.924
X123.2Y-94.2
X123.2Y-95.7
X123.85Y-124.1
X124.25Y-80.6
X124.6Y-94.2
X124.6Y-95.7
X124.659Y-116.588
X124.684Y-156.805
X124.85Y-142.0
X125.088Y-75.212
X125.25Y-67.8
X125.85Y-101.0
X126.247Y-66.8
X126.387Y-65.663
X126.515Y-90.688
X126.54Y-130.905
X127.0Y-75.05
X127.05Y-85.5
X127.25Y-125.5
X127.525Y-65.8
X127.65Y-83.3
X128.1Y-23.6
X128.1Y-33.5
X128.215Y-91.987
X128.3Y-132.112
X128.4Y-177.0
X128.4Y-178.8
X128.4Y-180.6
X128.45Y-85.5
X128.9Y-125.417
X129.0Y-171.0
X129.0Y-173.0
X129.0Y-175.0
X129.3Y-57.4
X129.35Y-28.5
X129.45Y-41.2
X129.45Y-53.9
X129.515Y-117.887
X129.515Y-119.287
X129.75Y-83.3
X130.05Y-101.0
X130.1Y-141.105
X130.2Y-177.0
X130.2Y-178.8
X130.2Y-180.6
X130.3Y-156.9
X130.85Y-75.4
X131.0Y-171.0
X131.0Y-173.0
X131.4Y-74.3
X131.65Y-93.6
X131.825Y-83.714
X131.9Y-157.017
X132.0Y-177.0
X132.0Y-178.8
X132.0Y-180.6
X132.15Y-124.0
X132.218Y-97.885
X132.29Y-138.102
X132.45Y-82.9
X132.7Y-87.35
X132.75Y-93.6
X132.95Y-127.562
X133.0Y-171.0
X133.0Y-173.0
X133.0Y-175.0
X133.65Y-83.7
X133.85Y-93.6
X133.95Y-124.0
X134.1Y-66.8
X134.35Y-134.5
X134.6Y-61.4
X135.25Y-67.6
X135.75Y-23.5
X136.05Y-61.6
X136.2Y-72.6
X136.292Y-60.019
X136.4Y-74.9
X136.55Y-95.5
X136.588Y-71.188
X136.65Y-97.2
X136.8Y-59.0
X136.85Y-31.0
X137.212Y-74.213
X137.8Y-29.8
X138.2Y-77.2
X138.4Y-78.4
T2
X43.25Y-24.5
X43.25Y-34.5
X43.25Y-44.5
X43.25Y-54.5
X43.25Y-64.5
X43.25Y-74.5
X43.25Y-84.5
X43.25Y-94.5
X43.25Y-104.5
X43.25Y-114.5
X43.25Y-124.5
X43.25Y-134.5
X43.25Y-144.5
X43.25Y-154.5
X43.25Y-164.5
X43.25Y-174.5
X140.75Y-24.25
X140.75Y-34.25
X140.75Y-44.25
X140.75Y-54.25
X140.75Y-64.25
X140.75Y-74.25
X140.75Y-84.25
X140.75Y-94.25
X140.75Y-104.25
X140.75Y-114.25
X140.75Y-124.25
X140.75Y-134.25
X140.75Y-144.25
X140.75Y-154.25
X140.75Y-164.25
X140.75Y-174.25
T3
X98.45Y-66.2
X99.72Y-66.2
X102.15Y-66.2
X103.42Y-66.2
T4
X46.0Y-115.96
X46.0Y-118.5
X50.55Y-159.4
X53.39Y-148.4
X55.88Y-148.4
X57.25Y-121.2
X66.95Y-33.85
X67.966Y-35.63
X68.982Y-33.85
X69.998Y-35.63
X71.014Y-33.85
X72.03Y-35.63
X73.046Y-33.85
X73.05Y-103.1
X74.062Y-35.63
X91.95Y-33.85
X92.966Y-35.63
X93.982Y-33.85
X94.998Y-35.63
X96.014Y-33.85
X97.03Y-35.63
X98.046Y-33.85
X99.062Y-35.63
X121.15Y-97.9
X121.15Y-99.9
X121.15Y-101.9
X121.25Y-142.1
X121.28Y-138.1
X121.28Y-140.1
X122.55Y-83.5
X122.55Y-119.5
X122.55Y-123.5
X122.75Y-159.7
X136.25Y-99.4
X136.25Y-101.8
X136.25Y-127.46
X136.25Y-130.0
X136.25Y-138.16
X136.25Y-140.6
X136.3Y-89.06
X136.3Y-91.6
T5
X43.25Y-102.0
X140.75Y-102.125
T6
X63.965Y-37.914
X66.251Y-37.914
X74.76Y-37.914
X77.046Y-37.914
X88.965Y-37.914
X91.251Y-37.914
X99.76Y-37.914
X102.046Y-37.914
T7
X49.05Y-32.72
X49.05Y-35.26
X49.05Y-37.8
X51.9Y-59.24
X52.8Y-25.4
X52.8Y-27.9
X56.4Y-25.4
X56.4Y-27.9
X78.55Y-42.0
X94.26Y-41.66
X94.26Y-44.2
X94.81Y-47.4
X97.35Y-47.4
X112.87Y-23.44
X112.87Y-25.98
X112.87Y-28.52
X112.87Y-31.06
X112.87Y-33.6
X112.87Y-36.14
X112.87Y-38.68
X112.87Y-41.22
X112.87Y-43.76
X112.87Y-46.3
X112.87Y-48.84
X112.87Y-51.38
X112.87Y-53.92
X112.87Y-56.46
X112.87Y-59.0
X112.87Y-61.54
X112.87Y-64.08
X112.87Y-66.62
X112.87Y-69.16
X112.87Y-71.7
X115.41Y-31.06
X115.41Y-33.6
X115.41Y-36.14
X115.41Y-38.68
X115.41Y-41.22
X115.41Y-53.92
X115.41Y-56.46
X115.41Y-59.0
X115.41Y-61.54
X115.41Y-64.08
X115.41Y-66.62
X115.41Y-69.16
X115.41Y-71.7
X117.95Y-71.7
X120.49Y-71.7
X123.03Y-71.7
X125.57Y-71.7
X128.11Y-69.16
X128.11Y-71.7
X130.65Y-23.44
X130.65Y-25.98
X130.65Y-28.52
X130.65Y-31.06
X130.65Y-33.6
X130.65Y-36.14
X130.65Y-38.68
X130.65Y-41.22
X130.65Y-43.76
X130.65Y-46.3
X130.65Y-48.84
X130.65Y-51.38
X130.65Y-53.92
X130.65Y-56.46
X130.65Y-59.0
X130.65Y-61.54
X130.65Y-64.08
X130.65Y-66.62
X130.65Y-69.16
X130.65Y-71.7
T8
X94.75Y-69.18
X94.75Y-71.72
X94.75Y-74.26
X94.75Y-76.8
X101.657Y-69.18
X101.657Y-71.72
X101.657Y-74.26
X101.657Y-76.8
T9
X60.25Y-174.5
X95.81Y-169.42
X100.89Y-174.5
X126.29Y-169.42
X131.37Y-174.5
T10
X65.25Y-176.786
X70.25Y-168.586
X75.25Y-176.786
X80.25Y-168.586
X85.25Y-176.786
X90.25Y-168.586
X106.13Y-176.786
X111.13Y-168.586
X116.13Y-176.786
X121.13Y-168.586
T13
X47.0Y-112.0
X47.0Y-162.0
X47.55Y-27.0
X82.0Y-84.0
X98.0Y-112.0
X98.0Y-152.0
X136.45Y-27.0
X137.0Y-112.0
X137.0Y-162.0
T7
X60.6Y-26.8G85X60.6Y-28.2
G05
X80.539Y-26.8G85X80.539Y-28.2
G05
X85.6Y-26.8G85X85.6Y-28.2
G05
X105.539Y-26.8G85X105.539Y-28.2
G05
T11
X111.05Y-176.92G85X111.05Y-174.42
G05
T12
X65.25Y-169.289G85X65.25Y-168.789
G05
X70.5Y-176.67G85X70.5Y-174.67
G05
X75.25Y-169.289G85X75.25Y-168.789
G05
X80.5Y-176.67G85X80.5Y-174.67
G05
X85.25Y-169.289G85X85.25Y-168.789
G05
X90.5Y-176.67G85X90.5Y-174.67
G05
X105.97Y-169.289G85X105.97Y-168.789
G05
X116.13Y-169.289G85X116.13Y-168.789
G05
X121.21Y-176.67G85X121.21Y-174.67
G05
T0
M30
