%TF.GenerationSoftware,KiCad,Pcbnew,5.1.6-c6e7f7d~86~ubuntu20.04.1*%
%TF.CreationDate,2020-09-07T12:10:57+02:00*%
%TF.ProjectId,Driver,44726976-6572-42e6-9b69-6361645f7063,rev?*%
%TF.SameCoordinates,Original*%
%TF.FileFunction,Copper,L2,Bot*%
%TF.FilePolarity,Positive*%
%FSLAX46Y46*%
G04 Gerber Fmt 4.6, Leading zero omitted, Abs format (unit mm)*
G04 Created by KiCad (PCBNEW 5.1.6-c6e7f7d~86~ubuntu20.04.1) date 2020-09-07 12:10:57*
%MOMM*%
%LPD*%
G01*
G04 APERTURE LIST*
%TA.AperFunction,ComponentPad*%
%ADD10O,1.700000X1.700000*%
%TD*%
%TA.AperFunction,ComponentPad*%
%ADD11R,1.700000X1.700000*%
%TD*%
%TA.AperFunction,ViaPad*%
%ADD12C,0.800000*%
%TD*%
%TA.AperFunction,Conductor*%
%ADD13C,1.000000*%
%TD*%
%TA.AperFunction,Conductor*%
%ADD14C,0.250000*%
%TD*%
%TA.AperFunction,Conductor*%
%ADD15C,0.254000*%
%TD*%
G04 APERTURE END LIST*
D10*
%TO.P,J2,8*%
%TO.N,+5VD*%
X49120000Y-138500000D03*
D11*
%TO.P,J2,9*%
%TO.N,GNDD*%
X41500000Y-138500000D03*
D10*
%TO.P,J2,3*%
%TO.N,/PWM_H1_D*%
X44040000Y-138500000D03*
%TO.P,J2,4*%
%TO.N,/PWM_L1_D*%
X46580000Y-138500000D03*
%TO.P,J2,5*%
%TO.N,/PWM_H2_D*%
X85620000Y-118500000D03*
%TO.P,J2,6*%
%TO.N,/PWM_L2_D*%
X83080000Y-118500000D03*
%TO.P,J2,9*%
%TO.N,GNDD*%
X80540000Y-118500000D03*
D11*
%TO.P,J2,8*%
%TO.N,+5VD*%
X78000000Y-118500000D03*
D10*
%TO.P,J2,7*%
%TO.N,/N_GND_cmd*%
X88160000Y-118500000D03*
%TO.P,J2,2*%
%TO.N,GNDREF*%
X63500000Y-138620000D03*
D11*
%TO.P,J2,1*%
%TO.N,+15V*%
X63500000Y-131000000D03*
D10*
%TO.P,J2,2*%
%TO.N,GNDREF*%
X63500000Y-136080000D03*
%TO.P,J2,1*%
%TO.N,+15V*%
X63500000Y-133540000D03*
%TD*%
D11*
%TO.P,J1,20*%
%TO.N,/PWM_L2*%
X93500000Y-148500000D03*
D10*
%TO.P,J1,19*%
%TO.N,GNDREF*%
X96040000Y-148500000D03*
D11*
%TO.P,J1,22*%
%TO.N,/PWM_H2*%
X80000000Y-148500000D03*
D10*
%TO.P,J1,21*%
%TO.N,/SW_Node2*%
X82540000Y-148500000D03*
D11*
%TO.P,J1,24*%
%TO.N,/PWM_L1*%
X40500000Y-115000000D03*
D10*
%TO.P,J1,23*%
%TO.N,GNDREF*%
X37960000Y-115000000D03*
D11*
%TO.P,J1,26*%
%TO.N,/PWM_H1*%
X52000000Y-115000000D03*
D10*
%TO.P,J1,25*%
%TO.N,/SW_Node1*%
X49460000Y-115000000D03*
D11*
%TO.P,J1,28*%
%TO.N,GNDREF*%
X117000000Y-138000000D03*
D10*
%TO.P,J1,27*%
%TO.N,/Neutral_GND_cmd*%
X117000000Y-140540000D03*
%TD*%
D12*
%TO.N,GNDD*%
X50500000Y-136000000D03*
X50500000Y-134500000D03*
X41000000Y-134500000D03*
X41000000Y-136000000D03*
X81000000Y-123000000D03*
X81000000Y-124500000D03*
X91000000Y-123000000D03*
X91000000Y-124500000D03*
X93000000Y-123000000D03*
X93000000Y-124500000D03*
X75500000Y-124500000D03*
X75500000Y-123000000D03*
X56500000Y-134500000D03*
X56500000Y-136000000D03*
%TO.N,GNDREF*%
X33000000Y-123500000D03*
X35000000Y-123500000D03*
X37000000Y-123500000D03*
X66000000Y-136000000D03*
X66000000Y-138500000D03*
X68000000Y-138500000D03*
X100500000Y-142000000D03*
X102500000Y-142000000D03*
X104500000Y-142000000D03*
X100500000Y-136500000D03*
X102500000Y-136500000D03*
X104500000Y-136500000D03*
X56500000Y-120500000D03*
X58500000Y-120500000D03*
X66000000Y-131500000D03*
X66000000Y-130000000D03*
%TO.N,+15V*%
X36749969Y-119349969D03*
X51400000Y-118200000D03*
X80500000Y-142700000D03*
X95900000Y-136800000D03*
X87100000Y-149100000D03*
%TO.N,/SW_Node2*%
X84099998Y-142600000D03*
%TO.N,/PWM_L1*%
X52900000Y-121800000D03*
%TO.N,/PWM_L2*%
X78100000Y-137500000D03*
%TO.N,+5VD*%
X84750000Y-126500000D03*
%TD*%
D13*
%TO.N,+15V*%
X63500000Y-133540000D02*
X63500000Y-131000000D01*
X52400000Y-118200000D02*
X51400000Y-118200000D01*
X56000000Y-121800000D02*
X52400000Y-118200000D01*
X62600000Y-121800000D02*
X56000000Y-121800000D01*
X63500000Y-122700000D02*
X62600000Y-121800000D01*
X63500000Y-131000000D02*
X63500000Y-122700000D01*
X35400000Y-118000000D02*
X36749969Y-119349969D01*
X36149970Y-112650030D02*
X35400000Y-113400000D01*
X36349970Y-112650030D02*
X36149970Y-112650030D01*
X36600000Y-112400000D02*
X36349970Y-112650030D01*
X53800000Y-112400000D02*
X36600000Y-112400000D01*
X35400000Y-113400000D02*
X35400000Y-118000000D01*
X54600000Y-113200000D02*
X53800000Y-112400000D01*
X54600000Y-116000000D02*
X54600000Y-113200000D01*
X52400000Y-118200000D02*
X54600000Y-116000000D01*
X63500000Y-133540000D02*
X67140000Y-133540000D01*
X67140000Y-133540000D02*
X72000000Y-138400000D01*
X73800000Y-138400000D02*
X73800000Y-137100000D01*
X72000000Y-138400000D02*
X73800000Y-138400000D01*
X73800000Y-137100000D02*
X75500000Y-135400000D01*
X75500000Y-135400000D02*
X95000000Y-135400000D01*
X95900000Y-136300000D02*
X95900000Y-136800000D01*
X95000000Y-135400000D02*
X95900000Y-136300000D01*
X80500000Y-142500000D02*
X80500000Y-142700000D01*
X73800000Y-138400000D02*
X76400000Y-138400000D01*
X76400000Y-138400000D02*
X78800000Y-140800000D01*
X78800000Y-140800000D02*
X80500000Y-142500000D01*
X87100000Y-142300000D02*
X87100000Y-149100000D01*
X85600000Y-140800000D02*
X87100000Y-142300000D01*
X78800000Y-140800000D02*
X85600000Y-140800000D01*
D14*
%TO.N,/SW_Node2*%
X84100000Y-142600002D02*
X84099998Y-142600000D01*
X84100000Y-143900000D02*
X84100000Y-142600002D01*
X82540000Y-145460000D02*
X84100000Y-143900000D01*
X82540000Y-148500000D02*
X82540000Y-145460000D01*
%TO.N,/PWM_L1*%
X52900000Y-121800000D02*
X49400000Y-118300000D01*
X43800000Y-118300000D02*
X40500000Y-115000000D01*
X49400000Y-118300000D02*
X43800000Y-118300000D01*
%TO.N,/PWM_L2*%
X93500000Y-144800000D02*
X93500000Y-148500000D01*
X86200000Y-137500000D02*
X93500000Y-144800000D01*
X78100000Y-137500000D02*
X86200000Y-137500000D01*
%TO.N,+5VD*%
X84750000Y-126500000D02*
X79750000Y-126500000D01*
X78000000Y-124750000D02*
X78000000Y-118500000D01*
X79750000Y-126500000D02*
X78000000Y-124750000D01*
%TD*%
D15*
%TO.N,GNDREF*%
G36*
X35516347Y-111701746D02*
G01*
X35343521Y-111843581D01*
X35307974Y-111886895D01*
X34636865Y-112558004D01*
X34593551Y-112593551D01*
X34451716Y-112766377D01*
X34346325Y-112963553D01*
X34346324Y-112963554D01*
X34281423Y-113177502D01*
X34259509Y-113400000D01*
X34265000Y-113455752D01*
X34265001Y-117944239D01*
X34259509Y-118000000D01*
X34281423Y-118222498D01*
X34346324Y-118436446D01*
X34381309Y-118501898D01*
X34451717Y-118633623D01*
X34593552Y-118806449D01*
X34636860Y-118841991D01*
X35986825Y-120191957D01*
X36116345Y-120298252D01*
X36313521Y-120403644D01*
X36527469Y-120468545D01*
X36749968Y-120490459D01*
X36972467Y-120468545D01*
X37186415Y-120403644D01*
X37383591Y-120298252D01*
X37556417Y-120156417D01*
X37698252Y-119983591D01*
X37803644Y-119786415D01*
X37868545Y-119572467D01*
X37890459Y-119349968D01*
X37868545Y-119127469D01*
X37803644Y-118913521D01*
X37698252Y-118716345D01*
X37591957Y-118586825D01*
X36535000Y-117529869D01*
X36535000Y-115403352D01*
X36615843Y-115631252D01*
X36764822Y-115881355D01*
X36959731Y-116097588D01*
X37193080Y-116271641D01*
X37455901Y-116396825D01*
X37603110Y-116441476D01*
X37833000Y-116320155D01*
X37833000Y-115127000D01*
X37813000Y-115127000D01*
X37813000Y-114873000D01*
X37833000Y-114873000D01*
X37833000Y-114853000D01*
X38087000Y-114853000D01*
X38087000Y-114873000D01*
X38107000Y-114873000D01*
X38107000Y-115127000D01*
X38087000Y-115127000D01*
X38087000Y-116320155D01*
X38316890Y-116441476D01*
X38464099Y-116396825D01*
X38726920Y-116271641D01*
X38960269Y-116097588D01*
X39036034Y-116013534D01*
X39060498Y-116094180D01*
X39119463Y-116204494D01*
X39198815Y-116301185D01*
X39295506Y-116380537D01*
X39405820Y-116439502D01*
X39525518Y-116475812D01*
X39650000Y-116488072D01*
X40913271Y-116488072D01*
X43236200Y-118811002D01*
X43259999Y-118840001D01*
X43375724Y-118934974D01*
X43507753Y-119005546D01*
X43651014Y-119049003D01*
X43762667Y-119060000D01*
X43762675Y-119060000D01*
X43800000Y-119063676D01*
X43837325Y-119060000D01*
X49085199Y-119060000D01*
X51865000Y-121839803D01*
X51865000Y-121901939D01*
X51904774Y-122101898D01*
X51982795Y-122290256D01*
X52096063Y-122459774D01*
X52240226Y-122603937D01*
X52409744Y-122717205D01*
X52598102Y-122795226D01*
X52798061Y-122835000D01*
X53001939Y-122835000D01*
X53201898Y-122795226D01*
X53390256Y-122717205D01*
X53559774Y-122603937D01*
X53703937Y-122459774D01*
X53817205Y-122290256D01*
X53895226Y-122101898D01*
X53935000Y-121901939D01*
X53935000Y-121698061D01*
X53895226Y-121498102D01*
X53817205Y-121309744D01*
X53703937Y-121140226D01*
X53559774Y-120996063D01*
X53390256Y-120882795D01*
X53201898Y-120804774D01*
X53001939Y-120765000D01*
X52939803Y-120765000D01*
X51509802Y-119335000D01*
X51929869Y-119335000D01*
X55158009Y-122563141D01*
X55193551Y-122606449D01*
X55307542Y-122699999D01*
X55366377Y-122748284D01*
X55563553Y-122853676D01*
X55777501Y-122918577D01*
X56000000Y-122940491D01*
X56055752Y-122935000D01*
X62129869Y-122935000D01*
X62365001Y-123170133D01*
X62365000Y-129582317D01*
X62295506Y-129619463D01*
X62198815Y-129698815D01*
X62119463Y-129795506D01*
X62060498Y-129905820D01*
X62024188Y-130025518D01*
X62011928Y-130150000D01*
X62011928Y-131850000D01*
X62024188Y-131974482D01*
X62060498Y-132094180D01*
X62119463Y-132204494D01*
X62198815Y-132301185D01*
X62295506Y-132380537D01*
X62365000Y-132417683D01*
X62365000Y-132574893D01*
X62346525Y-132593368D01*
X62184010Y-132836589D01*
X62072068Y-133106842D01*
X62015000Y-133393740D01*
X62015000Y-133686260D01*
X62072068Y-133973158D01*
X62184010Y-134243411D01*
X62346525Y-134486632D01*
X62553368Y-134693475D01*
X62735534Y-134815195D01*
X62618645Y-134884822D01*
X62402412Y-135079731D01*
X62228359Y-135313080D01*
X62103175Y-135575901D01*
X62058524Y-135723110D01*
X62179845Y-135953000D01*
X63373000Y-135953000D01*
X63373000Y-135933000D01*
X63627000Y-135933000D01*
X63627000Y-135953000D01*
X64820155Y-135953000D01*
X64941476Y-135723110D01*
X64896825Y-135575901D01*
X64771641Y-135313080D01*
X64597588Y-135079731D01*
X64381355Y-134884822D01*
X64264466Y-134815195D01*
X64446632Y-134693475D01*
X64465107Y-134675000D01*
X66669869Y-134675000D01*
X71158009Y-139163141D01*
X71193551Y-139206449D01*
X71366377Y-139348284D01*
X71537035Y-139439502D01*
X71563553Y-139453676D01*
X71777501Y-139518577D01*
X72000000Y-139540491D01*
X72055751Y-139535000D01*
X73744248Y-139535000D01*
X73800000Y-139540491D01*
X73855751Y-139535000D01*
X75929869Y-139535000D01*
X77958013Y-141563146D01*
X77993551Y-141606449D01*
X78036854Y-141641987D01*
X78036856Y-141641989D01*
X78036867Y-141641998D01*
X79409315Y-143014447D01*
X79446324Y-143136447D01*
X79551716Y-143333623D01*
X79693552Y-143506449D01*
X79866378Y-143648284D01*
X80063554Y-143753676D01*
X80277502Y-143818577D01*
X80500000Y-143840491D01*
X80722499Y-143818577D01*
X80936447Y-143753676D01*
X81133623Y-143648284D01*
X81306449Y-143506449D01*
X81448284Y-143333623D01*
X81553676Y-143136446D01*
X81618577Y-142922498D01*
X81635000Y-142755751D01*
X81635000Y-142555751D01*
X81640491Y-142499999D01*
X81618577Y-142277501D01*
X81553676Y-142063553D01*
X81551776Y-142059999D01*
X81484963Y-141935000D01*
X83301287Y-141935000D01*
X83296061Y-141940226D01*
X83182793Y-142109744D01*
X83104772Y-142298102D01*
X83064998Y-142498061D01*
X83064998Y-142701939D01*
X83104772Y-142901898D01*
X83182793Y-143090256D01*
X83296061Y-143259774D01*
X83340000Y-143303713D01*
X83340000Y-143585198D01*
X82028998Y-144896201D01*
X82000000Y-144919999D01*
X81976202Y-144948997D01*
X81976201Y-144948998D01*
X81905026Y-145035724D01*
X81834454Y-145167754D01*
X81790998Y-145311015D01*
X81776324Y-145460000D01*
X81780001Y-145497332D01*
X81780000Y-147221821D01*
X81593368Y-147346525D01*
X81461513Y-147478380D01*
X81439502Y-147405820D01*
X81380537Y-147295506D01*
X81301185Y-147198815D01*
X81204494Y-147119463D01*
X81094180Y-147060498D01*
X80974482Y-147024188D01*
X80850000Y-147011928D01*
X79150000Y-147011928D01*
X79025518Y-147024188D01*
X78905820Y-147060498D01*
X78795506Y-147119463D01*
X78698815Y-147198815D01*
X78619463Y-147295506D01*
X78560498Y-147405820D01*
X78524188Y-147525518D01*
X78511928Y-147650000D01*
X78511928Y-149350000D01*
X78524188Y-149474482D01*
X78560498Y-149594180D01*
X78619463Y-149704494D01*
X78698815Y-149801185D01*
X78795506Y-149880537D01*
X78905820Y-149939502D01*
X79025518Y-149975812D01*
X79150000Y-149988072D01*
X80850000Y-149988072D01*
X80974482Y-149975812D01*
X81094180Y-149939502D01*
X81204494Y-149880537D01*
X81301185Y-149801185D01*
X81380537Y-149704494D01*
X81439502Y-149594180D01*
X81461513Y-149521620D01*
X81593368Y-149653475D01*
X81836589Y-149815990D01*
X82106842Y-149927932D01*
X82393740Y-149985000D01*
X82686260Y-149985000D01*
X82973158Y-149927932D01*
X83243411Y-149815990D01*
X83486632Y-149653475D01*
X83693475Y-149446632D01*
X83855990Y-149203411D01*
X83967932Y-148933158D01*
X84025000Y-148646260D01*
X84025000Y-148353740D01*
X83967932Y-148066842D01*
X83855990Y-147796589D01*
X83693475Y-147553368D01*
X83486632Y-147346525D01*
X83300000Y-147221822D01*
X83300000Y-145774801D01*
X84611004Y-144463798D01*
X84640001Y-144440001D01*
X84692753Y-144375723D01*
X84734974Y-144324277D01*
X84805546Y-144192247D01*
X84824615Y-144129383D01*
X84849003Y-144048986D01*
X84860000Y-143937333D01*
X84860000Y-143937324D01*
X84863676Y-143900001D01*
X84860000Y-143862678D01*
X84860000Y-143303709D01*
X84903935Y-143259774D01*
X85017203Y-143090256D01*
X85095224Y-142901898D01*
X85134998Y-142701939D01*
X85134998Y-142498061D01*
X85095224Y-142298102D01*
X85017203Y-142109744D01*
X84903935Y-141940226D01*
X84898709Y-141935000D01*
X85129869Y-141935000D01*
X85965000Y-142770132D01*
X85965001Y-149155752D01*
X85981424Y-149322499D01*
X86046325Y-149536447D01*
X86151717Y-149733623D01*
X86293552Y-149906449D01*
X86466378Y-150048284D01*
X86663554Y-150153676D01*
X86877502Y-150218577D01*
X87100000Y-150240491D01*
X87322499Y-150218577D01*
X87536447Y-150153676D01*
X87733623Y-150048284D01*
X87906449Y-149906449D01*
X88048284Y-149733623D01*
X88153676Y-149536447D01*
X88218577Y-149322499D01*
X88235000Y-149155752D01*
X88235000Y-142355741D01*
X88240490Y-142299999D01*
X88235000Y-142244257D01*
X88235000Y-142244248D01*
X88218577Y-142077501D01*
X88153676Y-141863553D01*
X88048284Y-141666377D01*
X87906449Y-141493551D01*
X87863140Y-141458008D01*
X86441996Y-140036865D01*
X86406449Y-139993551D01*
X86233623Y-139851716D01*
X86036447Y-139746324D01*
X85822499Y-139681423D01*
X85655752Y-139665000D01*
X85655751Y-139665000D01*
X85600000Y-139659509D01*
X85544249Y-139665000D01*
X79270133Y-139665000D01*
X78140132Y-138535000D01*
X78201939Y-138535000D01*
X78401898Y-138495226D01*
X78590256Y-138417205D01*
X78759774Y-138303937D01*
X78803711Y-138260000D01*
X85885199Y-138260000D01*
X92740000Y-145114802D01*
X92740001Y-147011928D01*
X92650000Y-147011928D01*
X92525518Y-147024188D01*
X92405820Y-147060498D01*
X92295506Y-147119463D01*
X92198815Y-147198815D01*
X92119463Y-147295506D01*
X92060498Y-147405820D01*
X92024188Y-147525518D01*
X92011928Y-147650000D01*
X92011928Y-149350000D01*
X92024188Y-149474482D01*
X92060498Y-149594180D01*
X92119463Y-149704494D01*
X92198815Y-149801185D01*
X92295506Y-149880537D01*
X92405820Y-149939502D01*
X92525518Y-149975812D01*
X92650000Y-149988072D01*
X94350000Y-149988072D01*
X94474482Y-149975812D01*
X94594180Y-149939502D01*
X94704494Y-149880537D01*
X94801185Y-149801185D01*
X94880537Y-149704494D01*
X94939502Y-149594180D01*
X94963966Y-149513534D01*
X95039731Y-149597588D01*
X95273080Y-149771641D01*
X95535901Y-149896825D01*
X95683110Y-149941476D01*
X95913000Y-149820155D01*
X95913000Y-148627000D01*
X96167000Y-148627000D01*
X96167000Y-149820155D01*
X96396890Y-149941476D01*
X96544099Y-149896825D01*
X96806920Y-149771641D01*
X97040269Y-149597588D01*
X97235178Y-149381355D01*
X97384157Y-149131252D01*
X97481481Y-148856891D01*
X97360814Y-148627000D01*
X96167000Y-148627000D01*
X95913000Y-148627000D01*
X95893000Y-148627000D01*
X95893000Y-148373000D01*
X95913000Y-148373000D01*
X95913000Y-147179845D01*
X96167000Y-147179845D01*
X96167000Y-148373000D01*
X97360814Y-148373000D01*
X97481481Y-148143109D01*
X97384157Y-147868748D01*
X97235178Y-147618645D01*
X97040269Y-147402412D01*
X96806920Y-147228359D01*
X96544099Y-147103175D01*
X96396890Y-147058524D01*
X96167000Y-147179845D01*
X95913000Y-147179845D01*
X95683110Y-147058524D01*
X95535901Y-147103175D01*
X95273080Y-147228359D01*
X95039731Y-147402412D01*
X94963966Y-147486466D01*
X94939502Y-147405820D01*
X94880537Y-147295506D01*
X94801185Y-147198815D01*
X94704494Y-147119463D01*
X94594180Y-147060498D01*
X94474482Y-147024188D01*
X94350000Y-147011928D01*
X94260000Y-147011928D01*
X94260000Y-144837322D01*
X94263676Y-144799999D01*
X94260000Y-144762677D01*
X94260000Y-144762667D01*
X94249003Y-144651014D01*
X94205546Y-144507753D01*
X94184804Y-144468948D01*
X94134974Y-144375723D01*
X94063799Y-144288997D01*
X94040001Y-144259999D01*
X94011004Y-144236202D01*
X86763804Y-136989003D01*
X86740001Y-136959999D01*
X86624276Y-136865026D01*
X86492247Y-136794454D01*
X86348986Y-136750997D01*
X86237333Y-136740000D01*
X86237322Y-136740000D01*
X86200000Y-136736324D01*
X86162678Y-136740000D01*
X78803711Y-136740000D01*
X78759774Y-136696063D01*
X78590256Y-136582795D01*
X78474869Y-136535000D01*
X94529869Y-136535000D01*
X94765000Y-136770132D01*
X94765000Y-136855752D01*
X94781423Y-137022499D01*
X94846324Y-137236447D01*
X94951717Y-137433623D01*
X95093552Y-137606449D01*
X95266378Y-137748284D01*
X95463554Y-137853676D01*
X95677502Y-137918577D01*
X95900000Y-137940491D01*
X96122499Y-137918577D01*
X96336447Y-137853676D01*
X96533623Y-137748284D01*
X96706449Y-137606449D01*
X96848284Y-137433623D01*
X96953676Y-137236446D01*
X96979899Y-137150000D01*
X115511928Y-137150000D01*
X115515000Y-137714250D01*
X115673750Y-137873000D01*
X116873000Y-137873000D01*
X116873000Y-136673750D01*
X116714250Y-136515000D01*
X116150000Y-136511928D01*
X116025518Y-136524188D01*
X115905820Y-136560498D01*
X115795506Y-136619463D01*
X115698815Y-136698815D01*
X115619463Y-136795506D01*
X115560498Y-136905820D01*
X115524188Y-137025518D01*
X115511928Y-137150000D01*
X96979899Y-137150000D01*
X97018577Y-137022498D01*
X97035000Y-136855751D01*
X97035000Y-136355743D01*
X97040490Y-136299999D01*
X97035000Y-136244255D01*
X97035000Y-136244248D01*
X97018577Y-136077501D01*
X97009120Y-136046324D01*
X96982784Y-135959509D01*
X96953676Y-135863553D01*
X96848284Y-135666377D01*
X96823477Y-135636150D01*
X96870617Y-135650450D01*
X96967581Y-135660000D01*
X97000000Y-135663193D01*
X97032419Y-135660000D01*
X118340000Y-135660000D01*
X118340000Y-136746112D01*
X118301185Y-136698815D01*
X118204494Y-136619463D01*
X118094180Y-136560498D01*
X117974482Y-136524188D01*
X117850000Y-136511928D01*
X117285750Y-136515000D01*
X117127000Y-136673750D01*
X117127000Y-137873000D01*
X117147000Y-137873000D01*
X117147000Y-138127000D01*
X117127000Y-138127000D01*
X117127000Y-138147000D01*
X116873000Y-138147000D01*
X116873000Y-138127000D01*
X115673750Y-138127000D01*
X115515000Y-138285750D01*
X115511928Y-138850000D01*
X115524188Y-138974482D01*
X115560498Y-139094180D01*
X115619463Y-139204494D01*
X115698815Y-139301185D01*
X115795506Y-139380537D01*
X115905820Y-139439502D01*
X115978380Y-139461513D01*
X115846525Y-139593368D01*
X115684010Y-139836589D01*
X115572068Y-140106842D01*
X115515000Y-140393740D01*
X115515000Y-140686260D01*
X115572068Y-140973158D01*
X115684010Y-141243411D01*
X115846525Y-141486632D01*
X116053368Y-141693475D01*
X116296589Y-141855990D01*
X116566842Y-141967932D01*
X116853740Y-142025000D01*
X117146260Y-142025000D01*
X117433158Y-141967932D01*
X117703411Y-141855990D01*
X117946632Y-141693475D01*
X118153475Y-141486632D01*
X118315990Y-141243411D01*
X118340001Y-141185444D01*
X118340001Y-143340000D01*
X99032419Y-143340000D01*
X99000000Y-143336807D01*
X98967581Y-143340000D01*
X98870617Y-143349550D01*
X98746207Y-143387290D01*
X98631550Y-143448575D01*
X98531052Y-143531052D01*
X98448575Y-143631550D01*
X98387290Y-143746207D01*
X98349550Y-143870617D01*
X98336807Y-144000000D01*
X98340000Y-144032419D01*
X98340001Y-150340000D01*
X75660000Y-150340000D01*
X75660000Y-141032419D01*
X75663193Y-141000000D01*
X75650450Y-140870617D01*
X75612710Y-140746207D01*
X75551425Y-140631550D01*
X75468948Y-140531052D01*
X75368450Y-140448575D01*
X75253793Y-140387290D01*
X75129383Y-140349550D01*
X75032419Y-140340000D01*
X75000000Y-140336807D01*
X74967581Y-140340000D01*
X61127676Y-140340000D01*
X61127676Y-138976890D01*
X62058524Y-138976890D01*
X62103175Y-139124099D01*
X62228359Y-139386920D01*
X62402412Y-139620269D01*
X62618645Y-139815178D01*
X62868748Y-139964157D01*
X63143109Y-140061481D01*
X63373000Y-139940814D01*
X63373000Y-138747000D01*
X63627000Y-138747000D01*
X63627000Y-139940814D01*
X63856891Y-140061481D01*
X64131252Y-139964157D01*
X64381355Y-139815178D01*
X64597588Y-139620269D01*
X64771641Y-139386920D01*
X64896825Y-139124099D01*
X64941476Y-138976890D01*
X64820155Y-138747000D01*
X63627000Y-138747000D01*
X63373000Y-138747000D01*
X62179845Y-138747000D01*
X62058524Y-138976890D01*
X61127676Y-138976890D01*
X61127676Y-136436890D01*
X62058524Y-136436890D01*
X62103175Y-136584099D01*
X62228359Y-136846920D01*
X62402412Y-137080269D01*
X62618645Y-137275178D01*
X62744255Y-137350000D01*
X62618645Y-137424822D01*
X62402412Y-137619731D01*
X62228359Y-137853080D01*
X62103175Y-138115901D01*
X62058524Y-138263110D01*
X62179845Y-138493000D01*
X63373000Y-138493000D01*
X63373000Y-136207000D01*
X63627000Y-136207000D01*
X63627000Y-138493000D01*
X64820155Y-138493000D01*
X64941476Y-138263110D01*
X64896825Y-138115901D01*
X64771641Y-137853080D01*
X64597588Y-137619731D01*
X64381355Y-137424822D01*
X64255745Y-137350000D01*
X64381355Y-137275178D01*
X64597588Y-137080269D01*
X64771641Y-136846920D01*
X64896825Y-136584099D01*
X64941476Y-136436890D01*
X64820155Y-136207000D01*
X63627000Y-136207000D01*
X63373000Y-136207000D01*
X62179845Y-136207000D01*
X62058524Y-136436890D01*
X61127676Y-136436890D01*
X61127676Y-124500000D01*
X61125236Y-124475224D01*
X61118009Y-124451399D01*
X61106273Y-124429443D01*
X61090479Y-124410197D01*
X61071233Y-124394403D01*
X61049277Y-124382667D01*
X61025452Y-124375440D01*
X61000676Y-124373000D01*
X29660000Y-124373000D01*
X29660000Y-111660000D01*
X35594449Y-111660000D01*
X35516347Y-111701746D01*
G37*
X35516347Y-111701746D02*
X35343521Y-111843581D01*
X35307974Y-111886895D01*
X34636865Y-112558004D01*
X34593551Y-112593551D01*
X34451716Y-112766377D01*
X34346325Y-112963553D01*
X34346324Y-112963554D01*
X34281423Y-113177502D01*
X34259509Y-113400000D01*
X34265000Y-113455752D01*
X34265001Y-117944239D01*
X34259509Y-118000000D01*
X34281423Y-118222498D01*
X34346324Y-118436446D01*
X34381309Y-118501898D01*
X34451717Y-118633623D01*
X34593552Y-118806449D01*
X34636860Y-118841991D01*
X35986825Y-120191957D01*
X36116345Y-120298252D01*
X36313521Y-120403644D01*
X36527469Y-120468545D01*
X36749968Y-120490459D01*
X36972467Y-120468545D01*
X37186415Y-120403644D01*
X37383591Y-120298252D01*
X37556417Y-120156417D01*
X37698252Y-119983591D01*
X37803644Y-119786415D01*
X37868545Y-119572467D01*
X37890459Y-119349968D01*
X37868545Y-119127469D01*
X37803644Y-118913521D01*
X37698252Y-118716345D01*
X37591957Y-118586825D01*
X36535000Y-117529869D01*
X36535000Y-115403352D01*
X36615843Y-115631252D01*
X36764822Y-115881355D01*
X36959731Y-116097588D01*
X37193080Y-116271641D01*
X37455901Y-116396825D01*
X37603110Y-116441476D01*
X37833000Y-116320155D01*
X37833000Y-115127000D01*
X37813000Y-115127000D01*
X37813000Y-114873000D01*
X37833000Y-114873000D01*
X37833000Y-114853000D01*
X38087000Y-114853000D01*
X38087000Y-114873000D01*
X38107000Y-114873000D01*
X38107000Y-115127000D01*
X38087000Y-115127000D01*
X38087000Y-116320155D01*
X38316890Y-116441476D01*
X38464099Y-116396825D01*
X38726920Y-116271641D01*
X38960269Y-116097588D01*
X39036034Y-116013534D01*
X39060498Y-116094180D01*
X39119463Y-116204494D01*
X39198815Y-116301185D01*
X39295506Y-116380537D01*
X39405820Y-116439502D01*
X39525518Y-116475812D01*
X39650000Y-116488072D01*
X40913271Y-116488072D01*
X43236200Y-118811002D01*
X43259999Y-118840001D01*
X43375724Y-118934974D01*
X43507753Y-119005546D01*
X43651014Y-119049003D01*
X43762667Y-119060000D01*
X43762675Y-119060000D01*
X43800000Y-119063676D01*
X43837325Y-119060000D01*
X49085199Y-119060000D01*
X51865000Y-121839803D01*
X51865000Y-121901939D01*
X51904774Y-122101898D01*
X51982795Y-122290256D01*
X52096063Y-122459774D01*
X52240226Y-122603937D01*
X52409744Y-122717205D01*
X52598102Y-122795226D01*
X52798061Y-122835000D01*
X53001939Y-122835000D01*
X53201898Y-122795226D01*
X53390256Y-122717205D01*
X53559774Y-122603937D01*
X53703937Y-122459774D01*
X53817205Y-122290256D01*
X53895226Y-122101898D01*
X53935000Y-121901939D01*
X53935000Y-121698061D01*
X53895226Y-121498102D01*
X53817205Y-121309744D01*
X53703937Y-121140226D01*
X53559774Y-120996063D01*
X53390256Y-120882795D01*
X53201898Y-120804774D01*
X53001939Y-120765000D01*
X52939803Y-120765000D01*
X51509802Y-119335000D01*
X51929869Y-119335000D01*
X55158009Y-122563141D01*
X55193551Y-122606449D01*
X55307542Y-122699999D01*
X55366377Y-122748284D01*
X55563553Y-122853676D01*
X55777501Y-122918577D01*
X56000000Y-122940491D01*
X56055752Y-122935000D01*
X62129869Y-122935000D01*
X62365001Y-123170133D01*
X62365000Y-129582317D01*
X62295506Y-129619463D01*
X62198815Y-129698815D01*
X62119463Y-129795506D01*
X62060498Y-129905820D01*
X62024188Y-130025518D01*
X62011928Y-130150000D01*
X62011928Y-131850000D01*
X62024188Y-131974482D01*
X62060498Y-132094180D01*
X62119463Y-132204494D01*
X62198815Y-132301185D01*
X62295506Y-132380537D01*
X62365000Y-132417683D01*
X62365000Y-132574893D01*
X62346525Y-132593368D01*
X62184010Y-132836589D01*
X62072068Y-133106842D01*
X62015000Y-133393740D01*
X62015000Y-133686260D01*
X62072068Y-133973158D01*
X62184010Y-134243411D01*
X62346525Y-134486632D01*
X62553368Y-134693475D01*
X62735534Y-134815195D01*
X62618645Y-134884822D01*
X62402412Y-135079731D01*
X62228359Y-135313080D01*
X62103175Y-135575901D01*
X62058524Y-135723110D01*
X62179845Y-135953000D01*
X63373000Y-135953000D01*
X63373000Y-135933000D01*
X63627000Y-135933000D01*
X63627000Y-135953000D01*
X64820155Y-135953000D01*
X64941476Y-135723110D01*
X64896825Y-135575901D01*
X64771641Y-135313080D01*
X64597588Y-135079731D01*
X64381355Y-134884822D01*
X64264466Y-134815195D01*
X64446632Y-134693475D01*
X64465107Y-134675000D01*
X66669869Y-134675000D01*
X71158009Y-139163141D01*
X71193551Y-139206449D01*
X71366377Y-139348284D01*
X71537035Y-139439502D01*
X71563553Y-139453676D01*
X71777501Y-139518577D01*
X72000000Y-139540491D01*
X72055751Y-139535000D01*
X73744248Y-139535000D01*
X73800000Y-139540491D01*
X73855751Y-139535000D01*
X75929869Y-139535000D01*
X77958013Y-141563146D01*
X77993551Y-141606449D01*
X78036854Y-141641987D01*
X78036856Y-141641989D01*
X78036867Y-141641998D01*
X79409315Y-143014447D01*
X79446324Y-143136447D01*
X79551716Y-143333623D01*
X79693552Y-143506449D01*
X79866378Y-143648284D01*
X80063554Y-143753676D01*
X80277502Y-143818577D01*
X80500000Y-143840491D01*
X80722499Y-143818577D01*
X80936447Y-143753676D01*
X81133623Y-143648284D01*
X81306449Y-143506449D01*
X81448284Y-143333623D01*
X81553676Y-143136446D01*
X81618577Y-142922498D01*
X81635000Y-142755751D01*
X81635000Y-142555751D01*
X81640491Y-142499999D01*
X81618577Y-142277501D01*
X81553676Y-142063553D01*
X81551776Y-142059999D01*
X81484963Y-141935000D01*
X83301287Y-141935000D01*
X83296061Y-141940226D01*
X83182793Y-142109744D01*
X83104772Y-142298102D01*
X83064998Y-142498061D01*
X83064998Y-142701939D01*
X83104772Y-142901898D01*
X83182793Y-143090256D01*
X83296061Y-143259774D01*
X83340000Y-143303713D01*
X83340000Y-143585198D01*
X82028998Y-144896201D01*
X82000000Y-144919999D01*
X81976202Y-144948997D01*
X81976201Y-144948998D01*
X81905026Y-145035724D01*
X81834454Y-145167754D01*
X81790998Y-145311015D01*
X81776324Y-145460000D01*
X81780001Y-145497332D01*
X81780000Y-147221821D01*
X81593368Y-147346525D01*
X81461513Y-147478380D01*
X81439502Y-147405820D01*
X81380537Y-147295506D01*
X81301185Y-147198815D01*
X81204494Y-147119463D01*
X81094180Y-147060498D01*
X80974482Y-147024188D01*
X80850000Y-147011928D01*
X79150000Y-147011928D01*
X79025518Y-147024188D01*
X78905820Y-147060498D01*
X78795506Y-147119463D01*
X78698815Y-147198815D01*
X78619463Y-147295506D01*
X78560498Y-147405820D01*
X78524188Y-147525518D01*
X78511928Y-147650000D01*
X78511928Y-149350000D01*
X78524188Y-149474482D01*
X78560498Y-149594180D01*
X78619463Y-149704494D01*
X78698815Y-149801185D01*
X78795506Y-149880537D01*
X78905820Y-149939502D01*
X79025518Y-149975812D01*
X79150000Y-149988072D01*
X80850000Y-149988072D01*
X80974482Y-149975812D01*
X81094180Y-149939502D01*
X81204494Y-149880537D01*
X81301185Y-149801185D01*
X81380537Y-149704494D01*
X81439502Y-149594180D01*
X81461513Y-149521620D01*
X81593368Y-149653475D01*
X81836589Y-149815990D01*
X82106842Y-149927932D01*
X82393740Y-149985000D01*
X82686260Y-149985000D01*
X82973158Y-149927932D01*
X83243411Y-149815990D01*
X83486632Y-149653475D01*
X83693475Y-149446632D01*
X83855990Y-149203411D01*
X83967932Y-148933158D01*
X84025000Y-148646260D01*
X84025000Y-148353740D01*
X83967932Y-148066842D01*
X83855990Y-147796589D01*
X83693475Y-147553368D01*
X83486632Y-147346525D01*
X83300000Y-147221822D01*
X83300000Y-145774801D01*
X84611004Y-144463798D01*
X84640001Y-144440001D01*
X84692753Y-144375723D01*
X84734974Y-144324277D01*
X84805546Y-144192247D01*
X84824615Y-144129383D01*
X84849003Y-144048986D01*
X84860000Y-143937333D01*
X84860000Y-143937324D01*
X84863676Y-143900001D01*
X84860000Y-143862678D01*
X84860000Y-143303709D01*
X84903935Y-143259774D01*
X85017203Y-143090256D01*
X85095224Y-142901898D01*
X85134998Y-142701939D01*
X85134998Y-142498061D01*
X85095224Y-142298102D01*
X85017203Y-142109744D01*
X84903935Y-141940226D01*
X84898709Y-141935000D01*
X85129869Y-141935000D01*
X85965000Y-142770132D01*
X85965001Y-149155752D01*
X85981424Y-149322499D01*
X86046325Y-149536447D01*
X86151717Y-149733623D01*
X86293552Y-149906449D01*
X86466378Y-150048284D01*
X86663554Y-150153676D01*
X86877502Y-150218577D01*
X87100000Y-150240491D01*
X87322499Y-150218577D01*
X87536447Y-150153676D01*
X87733623Y-150048284D01*
X87906449Y-149906449D01*
X88048284Y-149733623D01*
X88153676Y-149536447D01*
X88218577Y-149322499D01*
X88235000Y-149155752D01*
X88235000Y-142355741D01*
X88240490Y-142299999D01*
X88235000Y-142244257D01*
X88235000Y-142244248D01*
X88218577Y-142077501D01*
X88153676Y-141863553D01*
X88048284Y-141666377D01*
X87906449Y-141493551D01*
X87863140Y-141458008D01*
X86441996Y-140036865D01*
X86406449Y-139993551D01*
X86233623Y-139851716D01*
X86036447Y-139746324D01*
X85822499Y-139681423D01*
X85655752Y-139665000D01*
X85655751Y-139665000D01*
X85600000Y-139659509D01*
X85544249Y-139665000D01*
X79270133Y-139665000D01*
X78140132Y-138535000D01*
X78201939Y-138535000D01*
X78401898Y-138495226D01*
X78590256Y-138417205D01*
X78759774Y-138303937D01*
X78803711Y-138260000D01*
X85885199Y-138260000D01*
X92740000Y-145114802D01*
X92740001Y-147011928D01*
X92650000Y-147011928D01*
X92525518Y-147024188D01*
X92405820Y-147060498D01*
X92295506Y-147119463D01*
X92198815Y-147198815D01*
X92119463Y-147295506D01*
X92060498Y-147405820D01*
X92024188Y-147525518D01*
X92011928Y-147650000D01*
X92011928Y-149350000D01*
X92024188Y-149474482D01*
X92060498Y-149594180D01*
X92119463Y-149704494D01*
X92198815Y-149801185D01*
X92295506Y-149880537D01*
X92405820Y-149939502D01*
X92525518Y-149975812D01*
X92650000Y-149988072D01*
X94350000Y-149988072D01*
X94474482Y-149975812D01*
X94594180Y-149939502D01*
X94704494Y-149880537D01*
X94801185Y-149801185D01*
X94880537Y-149704494D01*
X94939502Y-149594180D01*
X94963966Y-149513534D01*
X95039731Y-149597588D01*
X95273080Y-149771641D01*
X95535901Y-149896825D01*
X95683110Y-149941476D01*
X95913000Y-149820155D01*
X95913000Y-148627000D01*
X96167000Y-148627000D01*
X96167000Y-149820155D01*
X96396890Y-149941476D01*
X96544099Y-149896825D01*
X96806920Y-149771641D01*
X97040269Y-149597588D01*
X97235178Y-149381355D01*
X97384157Y-149131252D01*
X97481481Y-148856891D01*
X97360814Y-148627000D01*
X96167000Y-148627000D01*
X95913000Y-148627000D01*
X95893000Y-148627000D01*
X95893000Y-148373000D01*
X95913000Y-148373000D01*
X95913000Y-147179845D01*
X96167000Y-147179845D01*
X96167000Y-148373000D01*
X97360814Y-148373000D01*
X97481481Y-148143109D01*
X97384157Y-147868748D01*
X97235178Y-147618645D01*
X97040269Y-147402412D01*
X96806920Y-147228359D01*
X96544099Y-147103175D01*
X96396890Y-147058524D01*
X96167000Y-147179845D01*
X95913000Y-147179845D01*
X95683110Y-147058524D01*
X95535901Y-147103175D01*
X95273080Y-147228359D01*
X95039731Y-147402412D01*
X94963966Y-147486466D01*
X94939502Y-147405820D01*
X94880537Y-147295506D01*
X94801185Y-147198815D01*
X94704494Y-147119463D01*
X94594180Y-147060498D01*
X94474482Y-147024188D01*
X94350000Y-147011928D01*
X94260000Y-147011928D01*
X94260000Y-144837322D01*
X94263676Y-144799999D01*
X94260000Y-144762677D01*
X94260000Y-144762667D01*
X94249003Y-144651014D01*
X94205546Y-144507753D01*
X94184804Y-144468948D01*
X94134974Y-144375723D01*
X94063799Y-144288997D01*
X94040001Y-144259999D01*
X94011004Y-144236202D01*
X86763804Y-136989003D01*
X86740001Y-136959999D01*
X86624276Y-136865026D01*
X86492247Y-136794454D01*
X86348986Y-136750997D01*
X86237333Y-136740000D01*
X86237322Y-136740000D01*
X86200000Y-136736324D01*
X86162678Y-136740000D01*
X78803711Y-136740000D01*
X78759774Y-136696063D01*
X78590256Y-136582795D01*
X78474869Y-136535000D01*
X94529869Y-136535000D01*
X94765000Y-136770132D01*
X94765000Y-136855752D01*
X94781423Y-137022499D01*
X94846324Y-137236447D01*
X94951717Y-137433623D01*
X95093552Y-137606449D01*
X95266378Y-137748284D01*
X95463554Y-137853676D01*
X95677502Y-137918577D01*
X95900000Y-137940491D01*
X96122499Y-137918577D01*
X96336447Y-137853676D01*
X96533623Y-137748284D01*
X96706449Y-137606449D01*
X96848284Y-137433623D01*
X96953676Y-137236446D01*
X96979899Y-137150000D01*
X115511928Y-137150000D01*
X115515000Y-137714250D01*
X115673750Y-137873000D01*
X116873000Y-137873000D01*
X116873000Y-136673750D01*
X116714250Y-136515000D01*
X116150000Y-136511928D01*
X116025518Y-136524188D01*
X115905820Y-136560498D01*
X115795506Y-136619463D01*
X115698815Y-136698815D01*
X115619463Y-136795506D01*
X115560498Y-136905820D01*
X115524188Y-137025518D01*
X115511928Y-137150000D01*
X96979899Y-137150000D01*
X97018577Y-137022498D01*
X97035000Y-136855751D01*
X97035000Y-136355743D01*
X97040490Y-136299999D01*
X97035000Y-136244255D01*
X97035000Y-136244248D01*
X97018577Y-136077501D01*
X97009120Y-136046324D01*
X96982784Y-135959509D01*
X96953676Y-135863553D01*
X96848284Y-135666377D01*
X96823477Y-135636150D01*
X96870617Y-135650450D01*
X96967581Y-135660000D01*
X97000000Y-135663193D01*
X97032419Y-135660000D01*
X118340000Y-135660000D01*
X118340000Y-136746112D01*
X118301185Y-136698815D01*
X118204494Y-136619463D01*
X118094180Y-136560498D01*
X117974482Y-136524188D01*
X117850000Y-136511928D01*
X117285750Y-136515000D01*
X117127000Y-136673750D01*
X117127000Y-137873000D01*
X117147000Y-137873000D01*
X117147000Y-138127000D01*
X117127000Y-138127000D01*
X117127000Y-138147000D01*
X116873000Y-138147000D01*
X116873000Y-138127000D01*
X115673750Y-138127000D01*
X115515000Y-138285750D01*
X115511928Y-138850000D01*
X115524188Y-138974482D01*
X115560498Y-139094180D01*
X115619463Y-139204494D01*
X115698815Y-139301185D01*
X115795506Y-139380537D01*
X115905820Y-139439502D01*
X115978380Y-139461513D01*
X115846525Y-139593368D01*
X115684010Y-139836589D01*
X115572068Y-140106842D01*
X115515000Y-140393740D01*
X115515000Y-140686260D01*
X115572068Y-140973158D01*
X115684010Y-141243411D01*
X115846525Y-141486632D01*
X116053368Y-141693475D01*
X116296589Y-141855990D01*
X116566842Y-141967932D01*
X116853740Y-142025000D01*
X117146260Y-142025000D01*
X117433158Y-141967932D01*
X117703411Y-141855990D01*
X117946632Y-141693475D01*
X118153475Y-141486632D01*
X118315990Y-141243411D01*
X118340001Y-141185444D01*
X118340001Y-143340000D01*
X99032419Y-143340000D01*
X99000000Y-143336807D01*
X98967581Y-143340000D01*
X98870617Y-143349550D01*
X98746207Y-143387290D01*
X98631550Y-143448575D01*
X98531052Y-143531052D01*
X98448575Y-143631550D01*
X98387290Y-143746207D01*
X98349550Y-143870617D01*
X98336807Y-144000000D01*
X98340000Y-144032419D01*
X98340001Y-150340000D01*
X75660000Y-150340000D01*
X75660000Y-141032419D01*
X75663193Y-141000000D01*
X75650450Y-140870617D01*
X75612710Y-140746207D01*
X75551425Y-140631550D01*
X75468948Y-140531052D01*
X75368450Y-140448575D01*
X75253793Y-140387290D01*
X75129383Y-140349550D01*
X75032419Y-140340000D01*
X75000000Y-140336807D01*
X74967581Y-140340000D01*
X61127676Y-140340000D01*
X61127676Y-138976890D01*
X62058524Y-138976890D01*
X62103175Y-139124099D01*
X62228359Y-139386920D01*
X62402412Y-139620269D01*
X62618645Y-139815178D01*
X62868748Y-139964157D01*
X63143109Y-140061481D01*
X63373000Y-139940814D01*
X63373000Y-138747000D01*
X63627000Y-138747000D01*
X63627000Y-139940814D01*
X63856891Y-140061481D01*
X64131252Y-139964157D01*
X64381355Y-139815178D01*
X64597588Y-139620269D01*
X64771641Y-139386920D01*
X64896825Y-139124099D01*
X64941476Y-138976890D01*
X64820155Y-138747000D01*
X63627000Y-138747000D01*
X63373000Y-138747000D01*
X62179845Y-138747000D01*
X62058524Y-138976890D01*
X61127676Y-138976890D01*
X61127676Y-136436890D01*
X62058524Y-136436890D01*
X62103175Y-136584099D01*
X62228359Y-136846920D01*
X62402412Y-137080269D01*
X62618645Y-137275178D01*
X62744255Y-137350000D01*
X62618645Y-137424822D01*
X62402412Y-137619731D01*
X62228359Y-137853080D01*
X62103175Y-138115901D01*
X62058524Y-138263110D01*
X62179845Y-138493000D01*
X63373000Y-138493000D01*
X63373000Y-136207000D01*
X63627000Y-136207000D01*
X63627000Y-138493000D01*
X64820155Y-138493000D01*
X64941476Y-138263110D01*
X64896825Y-138115901D01*
X64771641Y-137853080D01*
X64597588Y-137619731D01*
X64381355Y-137424822D01*
X64255745Y-137350000D01*
X64381355Y-137275178D01*
X64597588Y-137080269D01*
X64771641Y-136846920D01*
X64896825Y-136584099D01*
X64941476Y-136436890D01*
X64820155Y-136207000D01*
X63627000Y-136207000D01*
X63373000Y-136207000D01*
X62179845Y-136207000D01*
X62058524Y-136436890D01*
X61127676Y-136436890D01*
X61127676Y-124500000D01*
X61125236Y-124475224D01*
X61118009Y-124451399D01*
X61106273Y-124429443D01*
X61090479Y-124410197D01*
X61071233Y-124394403D01*
X61049277Y-124382667D01*
X61025452Y-124375440D01*
X61000676Y-124373000D01*
X29660000Y-124373000D01*
X29660000Y-111660000D01*
X35594449Y-111660000D01*
X35516347Y-111701746D01*
G36*
X55340000Y-119217580D02*
G01*
X55336807Y-119250000D01*
X55349550Y-119379383D01*
X55387290Y-119503793D01*
X55448575Y-119618450D01*
X55519190Y-119704494D01*
X55531052Y-119718948D01*
X55631550Y-119801425D01*
X55746207Y-119862710D01*
X55870617Y-119900450D01*
X56000000Y-119913193D01*
X56032419Y-119910000D01*
X70717581Y-119910000D01*
X70750000Y-119913193D01*
X70782419Y-119910000D01*
X70879383Y-119900450D01*
X71003793Y-119862710D01*
X71118450Y-119801425D01*
X71218948Y-119718948D01*
X71301425Y-119618450D01*
X71362710Y-119503793D01*
X71373676Y-119467644D01*
X71373676Y-134500000D01*
X71376116Y-134524776D01*
X71383343Y-134548601D01*
X71395079Y-134570557D01*
X71410873Y-134589803D01*
X71430119Y-134605597D01*
X71452075Y-134617333D01*
X71475900Y-134624560D01*
X71500676Y-134627000D01*
X74666101Y-134627000D01*
X74658009Y-134636860D01*
X73036860Y-136258009D01*
X72993552Y-136293551D01*
X72851717Y-136466377D01*
X72746324Y-136663553D01*
X72681423Y-136877501D01*
X72681423Y-136877502D01*
X72659509Y-137100000D01*
X72665000Y-137155751D01*
X72665000Y-137265000D01*
X72470132Y-137265000D01*
X67981996Y-132776865D01*
X67946449Y-132733551D01*
X67773623Y-132591716D01*
X67576447Y-132486324D01*
X67362499Y-132421423D01*
X67195752Y-132405000D01*
X67195751Y-132405000D01*
X67140000Y-132399509D01*
X67084249Y-132405000D01*
X64658728Y-132405000D01*
X64704494Y-132380537D01*
X64801185Y-132301185D01*
X64880537Y-132204494D01*
X64939502Y-132094180D01*
X64975812Y-131974482D01*
X64988072Y-131850000D01*
X64988072Y-130150000D01*
X64975812Y-130025518D01*
X64939502Y-129905820D01*
X64880537Y-129795506D01*
X64801185Y-129698815D01*
X64704494Y-129619463D01*
X64635000Y-129582317D01*
X64635000Y-122755743D01*
X64640490Y-122699999D01*
X64635000Y-122644255D01*
X64635000Y-122644248D01*
X64618577Y-122477501D01*
X64553676Y-122263553D01*
X64448284Y-122066377D01*
X64306449Y-121893551D01*
X64263140Y-121858008D01*
X63441995Y-121036864D01*
X63406449Y-120993551D01*
X63233623Y-120851716D01*
X63036447Y-120746324D01*
X62822499Y-120681423D01*
X62655752Y-120665000D01*
X62655751Y-120665000D01*
X62600000Y-120659509D01*
X62544249Y-120665000D01*
X56470132Y-120665000D01*
X54005131Y-118200000D01*
X55340001Y-116865131D01*
X55340000Y-119217580D01*
G37*
X55340000Y-119217580D02*
X55336807Y-119250000D01*
X55349550Y-119379383D01*
X55387290Y-119503793D01*
X55448575Y-119618450D01*
X55519190Y-119704494D01*
X55531052Y-119718948D01*
X55631550Y-119801425D01*
X55746207Y-119862710D01*
X55870617Y-119900450D01*
X56000000Y-119913193D01*
X56032419Y-119910000D01*
X70717581Y-119910000D01*
X70750000Y-119913193D01*
X70782419Y-119910000D01*
X70879383Y-119900450D01*
X71003793Y-119862710D01*
X71118450Y-119801425D01*
X71218948Y-119718948D01*
X71301425Y-119618450D01*
X71362710Y-119503793D01*
X71373676Y-119467644D01*
X71373676Y-134500000D01*
X71376116Y-134524776D01*
X71383343Y-134548601D01*
X71395079Y-134570557D01*
X71410873Y-134589803D01*
X71430119Y-134605597D01*
X71452075Y-134617333D01*
X71475900Y-134624560D01*
X71500676Y-134627000D01*
X74666101Y-134627000D01*
X74658009Y-134636860D01*
X73036860Y-136258009D01*
X72993552Y-136293551D01*
X72851717Y-136466377D01*
X72746324Y-136663553D01*
X72681423Y-136877501D01*
X72681423Y-136877502D01*
X72659509Y-137100000D01*
X72665000Y-137155751D01*
X72665000Y-137265000D01*
X72470132Y-137265000D01*
X67981996Y-132776865D01*
X67946449Y-132733551D01*
X67773623Y-132591716D01*
X67576447Y-132486324D01*
X67362499Y-132421423D01*
X67195752Y-132405000D01*
X67195751Y-132405000D01*
X67140000Y-132399509D01*
X67084249Y-132405000D01*
X64658728Y-132405000D01*
X64704494Y-132380537D01*
X64801185Y-132301185D01*
X64880537Y-132204494D01*
X64939502Y-132094180D01*
X64975812Y-131974482D01*
X64988072Y-131850000D01*
X64988072Y-130150000D01*
X64975812Y-130025518D01*
X64939502Y-129905820D01*
X64880537Y-129795506D01*
X64801185Y-129698815D01*
X64704494Y-129619463D01*
X64635000Y-129582317D01*
X64635000Y-122755743D01*
X64640490Y-122699999D01*
X64635000Y-122644255D01*
X64635000Y-122644248D01*
X64618577Y-122477501D01*
X64553676Y-122263553D01*
X64448284Y-122066377D01*
X64306449Y-121893551D01*
X64263140Y-121858008D01*
X63441995Y-121036864D01*
X63406449Y-120993551D01*
X63233623Y-120851716D01*
X63036447Y-120746324D01*
X62822499Y-120681423D01*
X62655752Y-120665000D01*
X62655751Y-120665000D01*
X62600000Y-120659509D01*
X62544249Y-120665000D01*
X56470132Y-120665000D01*
X54005131Y-118200000D01*
X55340001Y-116865131D01*
X55340000Y-119217580D01*
%TO.N,GNDD*%
G36*
X57873000Y-140340000D02*
G01*
X29660000Y-140340000D01*
X29660000Y-139350000D01*
X40011928Y-139350000D01*
X40024188Y-139474482D01*
X40060498Y-139594180D01*
X40119463Y-139704494D01*
X40198815Y-139801185D01*
X40295506Y-139880537D01*
X40405820Y-139939502D01*
X40525518Y-139975812D01*
X40650000Y-139988072D01*
X41214250Y-139985000D01*
X41373000Y-139826250D01*
X41373000Y-138627000D01*
X40173750Y-138627000D01*
X40015000Y-138785750D01*
X40011928Y-139350000D01*
X29660000Y-139350000D01*
X29660000Y-137650000D01*
X40011928Y-137650000D01*
X40015000Y-138214250D01*
X40173750Y-138373000D01*
X41373000Y-138373000D01*
X41373000Y-137173750D01*
X41627000Y-137173750D01*
X41627000Y-138373000D01*
X41647000Y-138373000D01*
X41647000Y-138627000D01*
X41627000Y-138627000D01*
X41627000Y-139826250D01*
X41785750Y-139985000D01*
X42350000Y-139988072D01*
X42474482Y-139975812D01*
X42594180Y-139939502D01*
X42704494Y-139880537D01*
X42801185Y-139801185D01*
X42880537Y-139704494D01*
X42939502Y-139594180D01*
X42961513Y-139521620D01*
X43093368Y-139653475D01*
X43336589Y-139815990D01*
X43606842Y-139927932D01*
X43893740Y-139985000D01*
X44186260Y-139985000D01*
X44473158Y-139927932D01*
X44743411Y-139815990D01*
X44986632Y-139653475D01*
X45193475Y-139446632D01*
X45310000Y-139272240D01*
X45426525Y-139446632D01*
X45633368Y-139653475D01*
X45876589Y-139815990D01*
X46146842Y-139927932D01*
X46433740Y-139985000D01*
X46726260Y-139985000D01*
X47013158Y-139927932D01*
X47283411Y-139815990D01*
X47526632Y-139653475D01*
X47733475Y-139446632D01*
X47850000Y-139272240D01*
X47966525Y-139446632D01*
X48173368Y-139653475D01*
X48416589Y-139815990D01*
X48686842Y-139927932D01*
X48973740Y-139985000D01*
X49266260Y-139985000D01*
X49553158Y-139927932D01*
X49823411Y-139815990D01*
X50066632Y-139653475D01*
X50273475Y-139446632D01*
X50435990Y-139203411D01*
X50547932Y-138933158D01*
X50605000Y-138646260D01*
X50605000Y-138353740D01*
X50547932Y-138066842D01*
X50435990Y-137796589D01*
X50273475Y-137553368D01*
X50066632Y-137346525D01*
X49823411Y-137184010D01*
X49553158Y-137072068D01*
X49266260Y-137015000D01*
X48973740Y-137015000D01*
X48686842Y-137072068D01*
X48416589Y-137184010D01*
X48173368Y-137346525D01*
X47966525Y-137553368D01*
X47850000Y-137727760D01*
X47733475Y-137553368D01*
X47526632Y-137346525D01*
X47283411Y-137184010D01*
X47013158Y-137072068D01*
X46726260Y-137015000D01*
X46433740Y-137015000D01*
X46146842Y-137072068D01*
X45876589Y-137184010D01*
X45633368Y-137346525D01*
X45426525Y-137553368D01*
X45310000Y-137727760D01*
X45193475Y-137553368D01*
X44986632Y-137346525D01*
X44743411Y-137184010D01*
X44473158Y-137072068D01*
X44186260Y-137015000D01*
X43893740Y-137015000D01*
X43606842Y-137072068D01*
X43336589Y-137184010D01*
X43093368Y-137346525D01*
X42961513Y-137478380D01*
X42939502Y-137405820D01*
X42880537Y-137295506D01*
X42801185Y-137198815D01*
X42704494Y-137119463D01*
X42594180Y-137060498D01*
X42474482Y-137024188D01*
X42350000Y-137011928D01*
X41785750Y-137015000D01*
X41627000Y-137173750D01*
X41373000Y-137173750D01*
X41214250Y-137015000D01*
X40650000Y-137011928D01*
X40525518Y-137024188D01*
X40405820Y-137060498D01*
X40295506Y-137119463D01*
X40198815Y-137198815D01*
X40119463Y-137295506D01*
X40060498Y-137405820D01*
X40024188Y-137525518D01*
X40011928Y-137650000D01*
X29660000Y-137650000D01*
X29660000Y-127627000D01*
X57873000Y-127627000D01*
X57873000Y-140340000D01*
G37*
X57873000Y-140340000D02*
X29660000Y-140340000D01*
X29660000Y-139350000D01*
X40011928Y-139350000D01*
X40024188Y-139474482D01*
X40060498Y-139594180D01*
X40119463Y-139704494D01*
X40198815Y-139801185D01*
X40295506Y-139880537D01*
X40405820Y-139939502D01*
X40525518Y-139975812D01*
X40650000Y-139988072D01*
X41214250Y-139985000D01*
X41373000Y-139826250D01*
X41373000Y-138627000D01*
X40173750Y-138627000D01*
X40015000Y-138785750D01*
X40011928Y-139350000D01*
X29660000Y-139350000D01*
X29660000Y-137650000D01*
X40011928Y-137650000D01*
X40015000Y-138214250D01*
X40173750Y-138373000D01*
X41373000Y-138373000D01*
X41373000Y-137173750D01*
X41627000Y-137173750D01*
X41627000Y-138373000D01*
X41647000Y-138373000D01*
X41647000Y-138627000D01*
X41627000Y-138627000D01*
X41627000Y-139826250D01*
X41785750Y-139985000D01*
X42350000Y-139988072D01*
X42474482Y-139975812D01*
X42594180Y-139939502D01*
X42704494Y-139880537D01*
X42801185Y-139801185D01*
X42880537Y-139704494D01*
X42939502Y-139594180D01*
X42961513Y-139521620D01*
X43093368Y-139653475D01*
X43336589Y-139815990D01*
X43606842Y-139927932D01*
X43893740Y-139985000D01*
X44186260Y-139985000D01*
X44473158Y-139927932D01*
X44743411Y-139815990D01*
X44986632Y-139653475D01*
X45193475Y-139446632D01*
X45310000Y-139272240D01*
X45426525Y-139446632D01*
X45633368Y-139653475D01*
X45876589Y-139815990D01*
X46146842Y-139927932D01*
X46433740Y-139985000D01*
X46726260Y-139985000D01*
X47013158Y-139927932D01*
X47283411Y-139815990D01*
X47526632Y-139653475D01*
X47733475Y-139446632D01*
X47850000Y-139272240D01*
X47966525Y-139446632D01*
X48173368Y-139653475D01*
X48416589Y-139815990D01*
X48686842Y-139927932D01*
X48973740Y-139985000D01*
X49266260Y-139985000D01*
X49553158Y-139927932D01*
X49823411Y-139815990D01*
X50066632Y-139653475D01*
X50273475Y-139446632D01*
X50435990Y-139203411D01*
X50547932Y-138933158D01*
X50605000Y-138646260D01*
X50605000Y-138353740D01*
X50547932Y-138066842D01*
X50435990Y-137796589D01*
X50273475Y-137553368D01*
X50066632Y-137346525D01*
X49823411Y-137184010D01*
X49553158Y-137072068D01*
X49266260Y-137015000D01*
X48973740Y-137015000D01*
X48686842Y-137072068D01*
X48416589Y-137184010D01*
X48173368Y-137346525D01*
X47966525Y-137553368D01*
X47850000Y-137727760D01*
X47733475Y-137553368D01*
X47526632Y-137346525D01*
X47283411Y-137184010D01*
X47013158Y-137072068D01*
X46726260Y-137015000D01*
X46433740Y-137015000D01*
X46146842Y-137072068D01*
X45876589Y-137184010D01*
X45633368Y-137346525D01*
X45426525Y-137553368D01*
X45310000Y-137727760D01*
X45193475Y-137553368D01*
X44986632Y-137346525D01*
X44743411Y-137184010D01*
X44473158Y-137072068D01*
X44186260Y-137015000D01*
X43893740Y-137015000D01*
X43606842Y-137072068D01*
X43336589Y-137184010D01*
X43093368Y-137346525D01*
X42961513Y-137478380D01*
X42939502Y-137405820D01*
X42880537Y-137295506D01*
X42801185Y-137198815D01*
X42704494Y-137119463D01*
X42594180Y-137060498D01*
X42474482Y-137024188D01*
X42350000Y-137011928D01*
X41785750Y-137015000D01*
X41627000Y-137173750D01*
X41373000Y-137173750D01*
X41214250Y-137015000D01*
X40650000Y-137011928D01*
X40525518Y-137024188D01*
X40405820Y-137060498D01*
X40295506Y-137119463D01*
X40198815Y-137198815D01*
X40119463Y-137295506D01*
X40060498Y-137405820D01*
X40024188Y-137525518D01*
X40011928Y-137650000D01*
X29660000Y-137650000D01*
X29660000Y-127627000D01*
X57873000Y-127627000D01*
X57873000Y-140340000D01*
G36*
X96340001Y-131873000D02*
G01*
X74127000Y-131873000D01*
X74127000Y-117650000D01*
X76511928Y-117650000D01*
X76511928Y-119350000D01*
X76524188Y-119474482D01*
X76560498Y-119594180D01*
X76619463Y-119704494D01*
X76698815Y-119801185D01*
X76795506Y-119880537D01*
X76905820Y-119939502D01*
X77025518Y-119975812D01*
X77150000Y-119988072D01*
X77240001Y-119988072D01*
X77240000Y-124712677D01*
X77236324Y-124750000D01*
X77240000Y-124787322D01*
X77240000Y-124787332D01*
X77250997Y-124898985D01*
X77294454Y-125042246D01*
X77365026Y-125174276D01*
X77404871Y-125222826D01*
X77459999Y-125290001D01*
X77489003Y-125313804D01*
X79186201Y-127011003D01*
X79209999Y-127040001D01*
X79325724Y-127134974D01*
X79457753Y-127205546D01*
X79601014Y-127249003D01*
X79712667Y-127260000D01*
X79712675Y-127260000D01*
X79750000Y-127263676D01*
X79787325Y-127260000D01*
X84046289Y-127260000D01*
X84090226Y-127303937D01*
X84259744Y-127417205D01*
X84448102Y-127495226D01*
X84648061Y-127535000D01*
X84851939Y-127535000D01*
X85051898Y-127495226D01*
X85240256Y-127417205D01*
X85409774Y-127303937D01*
X85553937Y-127159774D01*
X85667205Y-126990256D01*
X85745226Y-126801898D01*
X85785000Y-126601939D01*
X85785000Y-126398061D01*
X85745226Y-126198102D01*
X85667205Y-126009744D01*
X85553937Y-125840226D01*
X85409774Y-125696063D01*
X85240256Y-125582795D01*
X85051898Y-125504774D01*
X84851939Y-125465000D01*
X84648061Y-125465000D01*
X84448102Y-125504774D01*
X84259744Y-125582795D01*
X84090226Y-125696063D01*
X84046289Y-125740000D01*
X80064802Y-125740000D01*
X78760000Y-124435199D01*
X78760000Y-119988072D01*
X78850000Y-119988072D01*
X78974482Y-119975812D01*
X79094180Y-119939502D01*
X79204494Y-119880537D01*
X79301185Y-119801185D01*
X79380537Y-119704494D01*
X79439502Y-119594180D01*
X79463966Y-119513534D01*
X79539731Y-119597588D01*
X79773080Y-119771641D01*
X80035901Y-119896825D01*
X80183110Y-119941476D01*
X80413000Y-119820155D01*
X80413000Y-118627000D01*
X80393000Y-118627000D01*
X80393000Y-118373000D01*
X80413000Y-118373000D01*
X80413000Y-117179845D01*
X80667000Y-117179845D01*
X80667000Y-118373000D01*
X80687000Y-118373000D01*
X80687000Y-118627000D01*
X80667000Y-118627000D01*
X80667000Y-119820155D01*
X80896890Y-119941476D01*
X81044099Y-119896825D01*
X81306920Y-119771641D01*
X81540269Y-119597588D01*
X81735178Y-119381355D01*
X81804805Y-119264466D01*
X81926525Y-119446632D01*
X82133368Y-119653475D01*
X82376589Y-119815990D01*
X82646842Y-119927932D01*
X82933740Y-119985000D01*
X83226260Y-119985000D01*
X83513158Y-119927932D01*
X83783411Y-119815990D01*
X84026632Y-119653475D01*
X84233475Y-119446632D01*
X84350000Y-119272240D01*
X84466525Y-119446632D01*
X84673368Y-119653475D01*
X84916589Y-119815990D01*
X85186842Y-119927932D01*
X85473740Y-119985000D01*
X85766260Y-119985000D01*
X86053158Y-119927932D01*
X86323411Y-119815990D01*
X86566632Y-119653475D01*
X86773475Y-119446632D01*
X86890000Y-119272240D01*
X87006525Y-119446632D01*
X87213368Y-119653475D01*
X87456589Y-119815990D01*
X87726842Y-119927932D01*
X88013740Y-119985000D01*
X88306260Y-119985000D01*
X88593158Y-119927932D01*
X88863411Y-119815990D01*
X89106632Y-119653475D01*
X89313475Y-119446632D01*
X89475990Y-119203411D01*
X89587932Y-118933158D01*
X89645000Y-118646260D01*
X89645000Y-118353740D01*
X89587932Y-118066842D01*
X89475990Y-117796589D01*
X89313475Y-117553368D01*
X89106632Y-117346525D01*
X88863411Y-117184010D01*
X88593158Y-117072068D01*
X88306260Y-117015000D01*
X88013740Y-117015000D01*
X87726842Y-117072068D01*
X87456589Y-117184010D01*
X87213368Y-117346525D01*
X87006525Y-117553368D01*
X86890000Y-117727760D01*
X86773475Y-117553368D01*
X86566632Y-117346525D01*
X86323411Y-117184010D01*
X86053158Y-117072068D01*
X85766260Y-117015000D01*
X85473740Y-117015000D01*
X85186842Y-117072068D01*
X84916589Y-117184010D01*
X84673368Y-117346525D01*
X84466525Y-117553368D01*
X84350000Y-117727760D01*
X84233475Y-117553368D01*
X84026632Y-117346525D01*
X83783411Y-117184010D01*
X83513158Y-117072068D01*
X83226260Y-117015000D01*
X82933740Y-117015000D01*
X82646842Y-117072068D01*
X82376589Y-117184010D01*
X82133368Y-117346525D01*
X81926525Y-117553368D01*
X81804805Y-117735534D01*
X81735178Y-117618645D01*
X81540269Y-117402412D01*
X81306920Y-117228359D01*
X81044099Y-117103175D01*
X80896890Y-117058524D01*
X80667000Y-117179845D01*
X80413000Y-117179845D01*
X80183110Y-117058524D01*
X80035901Y-117103175D01*
X79773080Y-117228359D01*
X79539731Y-117402412D01*
X79463966Y-117486466D01*
X79439502Y-117405820D01*
X79380537Y-117295506D01*
X79301185Y-117198815D01*
X79204494Y-117119463D01*
X79094180Y-117060498D01*
X78974482Y-117024188D01*
X78850000Y-117011928D01*
X77150000Y-117011928D01*
X77025518Y-117024188D01*
X76905820Y-117060498D01*
X76795506Y-117119463D01*
X76698815Y-117198815D01*
X76619463Y-117295506D01*
X76560498Y-117405820D01*
X76524188Y-117525518D01*
X76511928Y-117650000D01*
X74127000Y-117650000D01*
X74127000Y-116660000D01*
X96340000Y-116660000D01*
X96340001Y-131873000D01*
G37*
X96340001Y-131873000D02*
X74127000Y-131873000D01*
X74127000Y-117650000D01*
X76511928Y-117650000D01*
X76511928Y-119350000D01*
X76524188Y-119474482D01*
X76560498Y-119594180D01*
X76619463Y-119704494D01*
X76698815Y-119801185D01*
X76795506Y-119880537D01*
X76905820Y-119939502D01*
X77025518Y-119975812D01*
X77150000Y-119988072D01*
X77240001Y-119988072D01*
X77240000Y-124712677D01*
X77236324Y-124750000D01*
X77240000Y-124787322D01*
X77240000Y-124787332D01*
X77250997Y-124898985D01*
X77294454Y-125042246D01*
X77365026Y-125174276D01*
X77404871Y-125222826D01*
X77459999Y-125290001D01*
X77489003Y-125313804D01*
X79186201Y-127011003D01*
X79209999Y-127040001D01*
X79325724Y-127134974D01*
X79457753Y-127205546D01*
X79601014Y-127249003D01*
X79712667Y-127260000D01*
X79712675Y-127260000D01*
X79750000Y-127263676D01*
X79787325Y-127260000D01*
X84046289Y-127260000D01*
X84090226Y-127303937D01*
X84259744Y-127417205D01*
X84448102Y-127495226D01*
X84648061Y-127535000D01*
X84851939Y-127535000D01*
X85051898Y-127495226D01*
X85240256Y-127417205D01*
X85409774Y-127303937D01*
X85553937Y-127159774D01*
X85667205Y-126990256D01*
X85745226Y-126801898D01*
X85785000Y-126601939D01*
X85785000Y-126398061D01*
X85745226Y-126198102D01*
X85667205Y-126009744D01*
X85553937Y-125840226D01*
X85409774Y-125696063D01*
X85240256Y-125582795D01*
X85051898Y-125504774D01*
X84851939Y-125465000D01*
X84648061Y-125465000D01*
X84448102Y-125504774D01*
X84259744Y-125582795D01*
X84090226Y-125696063D01*
X84046289Y-125740000D01*
X80064802Y-125740000D01*
X78760000Y-124435199D01*
X78760000Y-119988072D01*
X78850000Y-119988072D01*
X78974482Y-119975812D01*
X79094180Y-119939502D01*
X79204494Y-119880537D01*
X79301185Y-119801185D01*
X79380537Y-119704494D01*
X79439502Y-119594180D01*
X79463966Y-119513534D01*
X79539731Y-119597588D01*
X79773080Y-119771641D01*
X80035901Y-119896825D01*
X80183110Y-119941476D01*
X80413000Y-119820155D01*
X80413000Y-118627000D01*
X80393000Y-118627000D01*
X80393000Y-118373000D01*
X80413000Y-118373000D01*
X80413000Y-117179845D01*
X80667000Y-117179845D01*
X80667000Y-118373000D01*
X80687000Y-118373000D01*
X80687000Y-118627000D01*
X80667000Y-118627000D01*
X80667000Y-119820155D01*
X80896890Y-119941476D01*
X81044099Y-119896825D01*
X81306920Y-119771641D01*
X81540269Y-119597588D01*
X81735178Y-119381355D01*
X81804805Y-119264466D01*
X81926525Y-119446632D01*
X82133368Y-119653475D01*
X82376589Y-119815990D01*
X82646842Y-119927932D01*
X82933740Y-119985000D01*
X83226260Y-119985000D01*
X83513158Y-119927932D01*
X83783411Y-119815990D01*
X84026632Y-119653475D01*
X84233475Y-119446632D01*
X84350000Y-119272240D01*
X84466525Y-119446632D01*
X84673368Y-119653475D01*
X84916589Y-119815990D01*
X85186842Y-119927932D01*
X85473740Y-119985000D01*
X85766260Y-119985000D01*
X86053158Y-119927932D01*
X86323411Y-119815990D01*
X86566632Y-119653475D01*
X86773475Y-119446632D01*
X86890000Y-119272240D01*
X87006525Y-119446632D01*
X87213368Y-119653475D01*
X87456589Y-119815990D01*
X87726842Y-119927932D01*
X88013740Y-119985000D01*
X88306260Y-119985000D01*
X88593158Y-119927932D01*
X88863411Y-119815990D01*
X89106632Y-119653475D01*
X89313475Y-119446632D01*
X89475990Y-119203411D01*
X89587932Y-118933158D01*
X89645000Y-118646260D01*
X89645000Y-118353740D01*
X89587932Y-118066842D01*
X89475990Y-117796589D01*
X89313475Y-117553368D01*
X89106632Y-117346525D01*
X88863411Y-117184010D01*
X88593158Y-117072068D01*
X88306260Y-117015000D01*
X88013740Y-117015000D01*
X87726842Y-117072068D01*
X87456589Y-117184010D01*
X87213368Y-117346525D01*
X87006525Y-117553368D01*
X86890000Y-117727760D01*
X86773475Y-117553368D01*
X86566632Y-117346525D01*
X86323411Y-117184010D01*
X86053158Y-117072068D01*
X85766260Y-117015000D01*
X85473740Y-117015000D01*
X85186842Y-117072068D01*
X84916589Y-117184010D01*
X84673368Y-117346525D01*
X84466525Y-117553368D01*
X84350000Y-117727760D01*
X84233475Y-117553368D01*
X84026632Y-117346525D01*
X83783411Y-117184010D01*
X83513158Y-117072068D01*
X83226260Y-117015000D01*
X82933740Y-117015000D01*
X82646842Y-117072068D01*
X82376589Y-117184010D01*
X82133368Y-117346525D01*
X81926525Y-117553368D01*
X81804805Y-117735534D01*
X81735178Y-117618645D01*
X81540269Y-117402412D01*
X81306920Y-117228359D01*
X81044099Y-117103175D01*
X80896890Y-117058524D01*
X80667000Y-117179845D01*
X80413000Y-117179845D01*
X80183110Y-117058524D01*
X80035901Y-117103175D01*
X79773080Y-117228359D01*
X79539731Y-117402412D01*
X79463966Y-117486466D01*
X79439502Y-117405820D01*
X79380537Y-117295506D01*
X79301185Y-117198815D01*
X79204494Y-117119463D01*
X79094180Y-117060498D01*
X78974482Y-117024188D01*
X78850000Y-117011928D01*
X77150000Y-117011928D01*
X77025518Y-117024188D01*
X76905820Y-117060498D01*
X76795506Y-117119463D01*
X76698815Y-117198815D01*
X76619463Y-117295506D01*
X76560498Y-117405820D01*
X76524188Y-117525518D01*
X76511928Y-117650000D01*
X74127000Y-117650000D01*
X74127000Y-116660000D01*
X96340000Y-116660000D01*
X96340001Y-131873000D01*
%TD*%
M02*
