M48
INCH,TZ
T1C0.0157
T2C0.0394
%
G90
G05
T1
X12992Y-48622
X13780Y-48622
X14468Y-46988
X14567Y-48622
X16142Y-52953
X16142Y-53543
X19882Y-52953
X19882Y-53543
X20236Y-46535
X20827Y-47953
X22244Y-47441
X22244Y-52953
X22244Y-53543
X23031Y-47441
X25984Y-51181
X25984Y-51772
X25984Y-53543
X25984Y-54528
X26772Y-54528
X29724Y-48425
X29724Y-49016
X30748Y-54134
X31693Y-56181
X31890Y-48425
X31890Y-49016
X33110Y-56142
X33366Y-49803
X34291Y-58701
X35827Y-48425
X35827Y-49016
X36614Y-48425
X36614Y-49016
X37756Y-53858
X39567Y-53740
X39567Y-55906
X40354Y-53740
X40354Y-55906
X41142Y-53740
X41142Y-55906
T2
X16339Y-54528
X17339Y-54528
X18339Y-54528
X19339Y-54528
X25000Y-51575
X25000Y-52575
X25000Y-53575
X25000Y-54575
X30709Y-46654
X31709Y-46654
X32709Y-46654
X33709Y-46654
X34709Y-46654
X14945Y-45276
X15945Y-45276
X19472Y-45276
X20472Y-45276
X31496Y-58465
X32496Y-58465
X36811Y-58465
X37811Y-58465
X46063Y-54331
X46063Y-55331
T0
M30
