%TF.GenerationSoftware,KiCad,Pcbnew,5.1.6-c6e7f7d~86~ubuntu20.04.1*%
%TF.CreationDate,2020-09-07T12:10:57+02:00*%
%TF.ProjectId,Driver,44726976-6572-42e6-9b69-6361645f7063,rev?*%
%TF.SameCoordinates,Original*%
%TF.FileFunction,Soldermask,Top*%
%TF.FilePolarity,Negative*%
%FSLAX46Y46*%
G04 Gerber Fmt 4.6, Leading zero omitted, Abs format (unit mm)*
G04 Created by KiCad (PCBNEW 5.1.6-c6e7f7d~86~ubuntu20.04.1) date 2020-09-07 12:10:57*
%MOMM*%
%LPD*%
G01*
G04 APERTURE LIST*
%ADD10R,2.600000X2.400000*%
%ADD11R,2.400000X2.600000*%
%ADD12O,1.800000X1.800000*%
%ADD13R,1.800000X1.800000*%
%ADD14R,1.700000X1.700000*%
G04 APERTURE END LIST*
D10*
%TO.C,D_boot2*%
X91300000Y-144000000D03*
X87000000Y-144000000D03*
%TD*%
D11*
%TO.C,D_boot1*%
X42500000Y-122650000D03*
X42500000Y-118350000D03*
%TD*%
D12*
%TO.C,J2*%
X49120000Y-138500000D03*
D13*
X41500000Y-138500000D03*
D12*
X44040000Y-138500000D03*
X46580000Y-138500000D03*
X85620000Y-118500000D03*
X83080000Y-118500000D03*
X80540000Y-118500000D03*
D13*
X78000000Y-118500000D03*
D12*
X88160000Y-118500000D03*
X63500000Y-138620000D03*
D13*
X63500000Y-131000000D03*
D12*
X63500000Y-136080000D03*
X63500000Y-133540000D03*
%TD*%
D13*
%TO.C,J1*%
X93500000Y-148500000D03*
D12*
X96040000Y-148500000D03*
D13*
X80000000Y-148500000D03*
D12*
X82540000Y-148500000D03*
D13*
X40500000Y-115000000D03*
D12*
X37960000Y-115000000D03*
D13*
X52000000Y-115000000D03*
D12*
X49460000Y-115000000D03*
D13*
X117000000Y-138000000D03*
D12*
X117000000Y-140540000D03*
%TD*%
D14*
%TO.C,U12*%
X93270000Y-136810000D03*
X90730000Y-129190000D03*
X90730000Y-136810000D03*
X93270000Y-129190000D03*
%TD*%
%TO.C,U4*%
G36*
G01*
X85830000Y-134755000D02*
X86180000Y-134755000D01*
G75*
G02*
X86355000Y-134930000I0J-175000D01*
G01*
X86355000Y-136630000D01*
G75*
G02*
X86180000Y-136805000I-175000J0D01*
G01*
X85830000Y-136805000D01*
G75*
G02*
X85655000Y-136630000I0J175000D01*
G01*
X85655000Y-134930000D01*
G75*
G02*
X85830000Y-134755000I175000J0D01*
G01*
G37*
G36*
G01*
X84560000Y-134755000D02*
X84910000Y-134755000D01*
G75*
G02*
X85085000Y-134930000I0J-175000D01*
G01*
X85085000Y-136630000D01*
G75*
G02*
X84910000Y-136805000I-175000J0D01*
G01*
X84560000Y-136805000D01*
G75*
G02*
X84385000Y-136630000I0J175000D01*
G01*
X84385000Y-134930000D01*
G75*
G02*
X84560000Y-134755000I175000J0D01*
G01*
G37*
G36*
G01*
X83290000Y-134755000D02*
X83640000Y-134755000D01*
G75*
G02*
X83815000Y-134930000I0J-175000D01*
G01*
X83815000Y-136630000D01*
G75*
G02*
X83640000Y-136805000I-175000J0D01*
G01*
X83290000Y-136805000D01*
G75*
G02*
X83115000Y-136630000I0J175000D01*
G01*
X83115000Y-134930000D01*
G75*
G02*
X83290000Y-134755000I175000J0D01*
G01*
G37*
G36*
G01*
X82020000Y-134755000D02*
X82370000Y-134755000D01*
G75*
G02*
X82545000Y-134930000I0J-175000D01*
G01*
X82545000Y-136630000D01*
G75*
G02*
X82370000Y-136805000I-175000J0D01*
G01*
X82020000Y-136805000D01*
G75*
G02*
X81845000Y-136630000I0J175000D01*
G01*
X81845000Y-134930000D01*
G75*
G02*
X82020000Y-134755000I175000J0D01*
G01*
G37*
G36*
G01*
X80750000Y-134755000D02*
X81100000Y-134755000D01*
G75*
G02*
X81275000Y-134930000I0J-175000D01*
G01*
X81275000Y-136630000D01*
G75*
G02*
X81100000Y-136805000I-175000J0D01*
G01*
X80750000Y-136805000D01*
G75*
G02*
X80575000Y-136630000I0J175000D01*
G01*
X80575000Y-134930000D01*
G75*
G02*
X80750000Y-134755000I175000J0D01*
G01*
G37*
G36*
G01*
X79480000Y-134755000D02*
X79830000Y-134755000D01*
G75*
G02*
X80005000Y-134930000I0J-175000D01*
G01*
X80005000Y-136630000D01*
G75*
G02*
X79830000Y-136805000I-175000J0D01*
G01*
X79480000Y-136805000D01*
G75*
G02*
X79305000Y-136630000I0J175000D01*
G01*
X79305000Y-134930000D01*
G75*
G02*
X79480000Y-134755000I175000J0D01*
G01*
G37*
G36*
G01*
X78210000Y-134755000D02*
X78560000Y-134755000D01*
G75*
G02*
X78735000Y-134930000I0J-175000D01*
G01*
X78735000Y-136630000D01*
G75*
G02*
X78560000Y-136805000I-175000J0D01*
G01*
X78210000Y-136805000D01*
G75*
G02*
X78035000Y-136630000I0J175000D01*
G01*
X78035000Y-134930000D01*
G75*
G02*
X78210000Y-134755000I175000J0D01*
G01*
G37*
G36*
G01*
X76940000Y-134755000D02*
X77290000Y-134755000D01*
G75*
G02*
X77465000Y-134930000I0J-175000D01*
G01*
X77465000Y-136630000D01*
G75*
G02*
X77290000Y-136805000I-175000J0D01*
G01*
X76940000Y-136805000D01*
G75*
G02*
X76765000Y-136630000I0J175000D01*
G01*
X76765000Y-134930000D01*
G75*
G02*
X76940000Y-134755000I175000J0D01*
G01*
G37*
G36*
G01*
X76940000Y-129805000D02*
X77290000Y-129805000D01*
G75*
G02*
X77465000Y-129980000I0J-175000D01*
G01*
X77465000Y-131680000D01*
G75*
G02*
X77290000Y-131855000I-175000J0D01*
G01*
X76940000Y-131855000D01*
G75*
G02*
X76765000Y-131680000I0J175000D01*
G01*
X76765000Y-129980000D01*
G75*
G02*
X76940000Y-129805000I175000J0D01*
G01*
G37*
G36*
G01*
X78210000Y-129805000D02*
X78560000Y-129805000D01*
G75*
G02*
X78735000Y-129980000I0J-175000D01*
G01*
X78735000Y-131680000D01*
G75*
G02*
X78560000Y-131855000I-175000J0D01*
G01*
X78210000Y-131855000D01*
G75*
G02*
X78035000Y-131680000I0J175000D01*
G01*
X78035000Y-129980000D01*
G75*
G02*
X78210000Y-129805000I175000J0D01*
G01*
G37*
G36*
G01*
X79480000Y-129805000D02*
X79830000Y-129805000D01*
G75*
G02*
X80005000Y-129980000I0J-175000D01*
G01*
X80005000Y-131680000D01*
G75*
G02*
X79830000Y-131855000I-175000J0D01*
G01*
X79480000Y-131855000D01*
G75*
G02*
X79305000Y-131680000I0J175000D01*
G01*
X79305000Y-129980000D01*
G75*
G02*
X79480000Y-129805000I175000J0D01*
G01*
G37*
G36*
G01*
X80750000Y-129805000D02*
X81100000Y-129805000D01*
G75*
G02*
X81275000Y-129980000I0J-175000D01*
G01*
X81275000Y-131680000D01*
G75*
G02*
X81100000Y-131855000I-175000J0D01*
G01*
X80750000Y-131855000D01*
G75*
G02*
X80575000Y-131680000I0J175000D01*
G01*
X80575000Y-129980000D01*
G75*
G02*
X80750000Y-129805000I175000J0D01*
G01*
G37*
G36*
G01*
X82020000Y-129805000D02*
X82370000Y-129805000D01*
G75*
G02*
X82545000Y-129980000I0J-175000D01*
G01*
X82545000Y-131680000D01*
G75*
G02*
X82370000Y-131855000I-175000J0D01*
G01*
X82020000Y-131855000D01*
G75*
G02*
X81845000Y-131680000I0J175000D01*
G01*
X81845000Y-129980000D01*
G75*
G02*
X82020000Y-129805000I175000J0D01*
G01*
G37*
G36*
G01*
X83290000Y-129805000D02*
X83640000Y-129805000D01*
G75*
G02*
X83815000Y-129980000I0J-175000D01*
G01*
X83815000Y-131680000D01*
G75*
G02*
X83640000Y-131855000I-175000J0D01*
G01*
X83290000Y-131855000D01*
G75*
G02*
X83115000Y-131680000I0J175000D01*
G01*
X83115000Y-129980000D01*
G75*
G02*
X83290000Y-129805000I175000J0D01*
G01*
G37*
G36*
G01*
X84560000Y-129805000D02*
X84910000Y-129805000D01*
G75*
G02*
X85085000Y-129980000I0J-175000D01*
G01*
X85085000Y-131680000D01*
G75*
G02*
X84910000Y-131855000I-175000J0D01*
G01*
X84560000Y-131855000D01*
G75*
G02*
X84385000Y-131680000I0J175000D01*
G01*
X84385000Y-129980000D01*
G75*
G02*
X84560000Y-129805000I175000J0D01*
G01*
G37*
G36*
G01*
X85830000Y-129805000D02*
X86180000Y-129805000D01*
G75*
G02*
X86355000Y-129980000I0J-175000D01*
G01*
X86355000Y-131680000D01*
G75*
G02*
X86180000Y-131855000I-175000J0D01*
G01*
X85830000Y-131855000D01*
G75*
G02*
X85655000Y-131680000I0J175000D01*
G01*
X85655000Y-129980000D01*
G75*
G02*
X85830000Y-129805000I175000J0D01*
G01*
G37*
%TD*%
%TO.C,U3*%
G36*
G01*
X45730000Y-124550000D02*
X45380000Y-124550000D01*
G75*
G02*
X45205000Y-124375000I0J175000D01*
G01*
X45205000Y-122675000D01*
G75*
G02*
X45380000Y-122500000I175000J0D01*
G01*
X45730000Y-122500000D01*
G75*
G02*
X45905000Y-122675000I0J-175000D01*
G01*
X45905000Y-124375000D01*
G75*
G02*
X45730000Y-124550000I-175000J0D01*
G01*
G37*
G36*
G01*
X47000000Y-124550000D02*
X46650000Y-124550000D01*
G75*
G02*
X46475000Y-124375000I0J175000D01*
G01*
X46475000Y-122675000D01*
G75*
G02*
X46650000Y-122500000I175000J0D01*
G01*
X47000000Y-122500000D01*
G75*
G02*
X47175000Y-122675000I0J-175000D01*
G01*
X47175000Y-124375000D01*
G75*
G02*
X47000000Y-124550000I-175000J0D01*
G01*
G37*
G36*
G01*
X48270000Y-124550000D02*
X47920000Y-124550000D01*
G75*
G02*
X47745000Y-124375000I0J175000D01*
G01*
X47745000Y-122675000D01*
G75*
G02*
X47920000Y-122500000I175000J0D01*
G01*
X48270000Y-122500000D01*
G75*
G02*
X48445000Y-122675000I0J-175000D01*
G01*
X48445000Y-124375000D01*
G75*
G02*
X48270000Y-124550000I-175000J0D01*
G01*
G37*
G36*
G01*
X49540000Y-124550000D02*
X49190000Y-124550000D01*
G75*
G02*
X49015000Y-124375000I0J175000D01*
G01*
X49015000Y-122675000D01*
G75*
G02*
X49190000Y-122500000I175000J0D01*
G01*
X49540000Y-122500000D01*
G75*
G02*
X49715000Y-122675000I0J-175000D01*
G01*
X49715000Y-124375000D01*
G75*
G02*
X49540000Y-124550000I-175000J0D01*
G01*
G37*
G36*
G01*
X50810000Y-124550000D02*
X50460000Y-124550000D01*
G75*
G02*
X50285000Y-124375000I0J175000D01*
G01*
X50285000Y-122675000D01*
G75*
G02*
X50460000Y-122500000I175000J0D01*
G01*
X50810000Y-122500000D01*
G75*
G02*
X50985000Y-122675000I0J-175000D01*
G01*
X50985000Y-124375000D01*
G75*
G02*
X50810000Y-124550000I-175000J0D01*
G01*
G37*
G36*
G01*
X52080000Y-124550000D02*
X51730000Y-124550000D01*
G75*
G02*
X51555000Y-124375000I0J175000D01*
G01*
X51555000Y-122675000D01*
G75*
G02*
X51730000Y-122500000I175000J0D01*
G01*
X52080000Y-122500000D01*
G75*
G02*
X52255000Y-122675000I0J-175000D01*
G01*
X52255000Y-124375000D01*
G75*
G02*
X52080000Y-124550000I-175000J0D01*
G01*
G37*
G36*
G01*
X53350000Y-124550000D02*
X53000000Y-124550000D01*
G75*
G02*
X52825000Y-124375000I0J175000D01*
G01*
X52825000Y-122675000D01*
G75*
G02*
X53000000Y-122500000I175000J0D01*
G01*
X53350000Y-122500000D01*
G75*
G02*
X53525000Y-122675000I0J-175000D01*
G01*
X53525000Y-124375000D01*
G75*
G02*
X53350000Y-124550000I-175000J0D01*
G01*
G37*
G36*
G01*
X54620000Y-124550000D02*
X54270000Y-124550000D01*
G75*
G02*
X54095000Y-124375000I0J175000D01*
G01*
X54095000Y-122675000D01*
G75*
G02*
X54270000Y-122500000I175000J0D01*
G01*
X54620000Y-122500000D01*
G75*
G02*
X54795000Y-122675000I0J-175000D01*
G01*
X54795000Y-124375000D01*
G75*
G02*
X54620000Y-124550000I-175000J0D01*
G01*
G37*
G36*
G01*
X54620000Y-129500000D02*
X54270000Y-129500000D01*
G75*
G02*
X54095000Y-129325000I0J175000D01*
G01*
X54095000Y-127625000D01*
G75*
G02*
X54270000Y-127450000I175000J0D01*
G01*
X54620000Y-127450000D01*
G75*
G02*
X54795000Y-127625000I0J-175000D01*
G01*
X54795000Y-129325000D01*
G75*
G02*
X54620000Y-129500000I-175000J0D01*
G01*
G37*
G36*
G01*
X53350000Y-129500000D02*
X53000000Y-129500000D01*
G75*
G02*
X52825000Y-129325000I0J175000D01*
G01*
X52825000Y-127625000D01*
G75*
G02*
X53000000Y-127450000I175000J0D01*
G01*
X53350000Y-127450000D01*
G75*
G02*
X53525000Y-127625000I0J-175000D01*
G01*
X53525000Y-129325000D01*
G75*
G02*
X53350000Y-129500000I-175000J0D01*
G01*
G37*
G36*
G01*
X52080000Y-129500000D02*
X51730000Y-129500000D01*
G75*
G02*
X51555000Y-129325000I0J175000D01*
G01*
X51555000Y-127625000D01*
G75*
G02*
X51730000Y-127450000I175000J0D01*
G01*
X52080000Y-127450000D01*
G75*
G02*
X52255000Y-127625000I0J-175000D01*
G01*
X52255000Y-129325000D01*
G75*
G02*
X52080000Y-129500000I-175000J0D01*
G01*
G37*
G36*
G01*
X50810000Y-129500000D02*
X50460000Y-129500000D01*
G75*
G02*
X50285000Y-129325000I0J175000D01*
G01*
X50285000Y-127625000D01*
G75*
G02*
X50460000Y-127450000I175000J0D01*
G01*
X50810000Y-127450000D01*
G75*
G02*
X50985000Y-127625000I0J-175000D01*
G01*
X50985000Y-129325000D01*
G75*
G02*
X50810000Y-129500000I-175000J0D01*
G01*
G37*
G36*
G01*
X49540000Y-129500000D02*
X49190000Y-129500000D01*
G75*
G02*
X49015000Y-129325000I0J175000D01*
G01*
X49015000Y-127625000D01*
G75*
G02*
X49190000Y-127450000I175000J0D01*
G01*
X49540000Y-127450000D01*
G75*
G02*
X49715000Y-127625000I0J-175000D01*
G01*
X49715000Y-129325000D01*
G75*
G02*
X49540000Y-129500000I-175000J0D01*
G01*
G37*
G36*
G01*
X48270000Y-129500000D02*
X47920000Y-129500000D01*
G75*
G02*
X47745000Y-129325000I0J175000D01*
G01*
X47745000Y-127625000D01*
G75*
G02*
X47920000Y-127450000I175000J0D01*
G01*
X48270000Y-127450000D01*
G75*
G02*
X48445000Y-127625000I0J-175000D01*
G01*
X48445000Y-129325000D01*
G75*
G02*
X48270000Y-129500000I-175000J0D01*
G01*
G37*
G36*
G01*
X47000000Y-129500000D02*
X46650000Y-129500000D01*
G75*
G02*
X46475000Y-129325000I0J175000D01*
G01*
X46475000Y-127625000D01*
G75*
G02*
X46650000Y-127450000I175000J0D01*
G01*
X47000000Y-127450000D01*
G75*
G02*
X47175000Y-127625000I0J-175000D01*
G01*
X47175000Y-129325000D01*
G75*
G02*
X47000000Y-129500000I-175000J0D01*
G01*
G37*
G36*
G01*
X45730000Y-129500000D02*
X45380000Y-129500000D01*
G75*
G02*
X45205000Y-129325000I0J175000D01*
G01*
X45205000Y-127625000D01*
G75*
G02*
X45380000Y-127450000I175000J0D01*
G01*
X45730000Y-127450000D01*
G75*
G02*
X45905000Y-127625000I0J-175000D01*
G01*
X45905000Y-129325000D01*
G75*
G02*
X45730000Y-129500000I-175000J0D01*
G01*
G37*
%TD*%
%TO.C,RBoot2*%
G36*
G01*
X87662500Y-147018750D02*
X87662500Y-147981250D01*
G75*
G02*
X87393750Y-148250000I-268750J0D01*
G01*
X86856250Y-148250000D01*
G75*
G02*
X86587500Y-147981250I0J268750D01*
G01*
X86587500Y-147018750D01*
G75*
G02*
X86856250Y-146750000I268750J0D01*
G01*
X87393750Y-146750000D01*
G75*
G02*
X87662500Y-147018750I0J-268750D01*
G01*
G37*
G36*
G01*
X89537500Y-147018750D02*
X89537500Y-147981250D01*
G75*
G02*
X89268750Y-148250000I-268750J0D01*
G01*
X88731250Y-148250000D01*
G75*
G02*
X88462500Y-147981250I0J268750D01*
G01*
X88462500Y-147018750D01*
G75*
G02*
X88731250Y-146750000I268750J0D01*
G01*
X89268750Y-146750000D01*
G75*
G02*
X89537500Y-147018750I0J-268750D01*
G01*
G37*
%TD*%
%TO.C,RBoot1*%
G36*
G01*
X38981250Y-120100000D02*
X38018750Y-120100000D01*
G75*
G02*
X37750000Y-119831250I0J268750D01*
G01*
X37750000Y-119293750D01*
G75*
G02*
X38018750Y-119025000I268750J0D01*
G01*
X38981250Y-119025000D01*
G75*
G02*
X39250000Y-119293750I0J-268750D01*
G01*
X39250000Y-119831250D01*
G75*
G02*
X38981250Y-120100000I-268750J0D01*
G01*
G37*
G36*
G01*
X38981250Y-121975000D02*
X38018750Y-121975000D01*
G75*
G02*
X37750000Y-121706250I0J268750D01*
G01*
X37750000Y-121168750D01*
G75*
G02*
X38018750Y-120900000I268750J0D01*
G01*
X38981250Y-120900000D01*
G75*
G02*
X39250000Y-121168750I0J-268750D01*
G01*
X39250000Y-121706250D01*
G75*
G02*
X38981250Y-121975000I-268750J0D01*
G01*
G37*
%TD*%
%TO.C,R8*%
G36*
G01*
X79597500Y-127823750D02*
X79597500Y-128786250D01*
G75*
G02*
X79328750Y-129055000I-268750J0D01*
G01*
X78791250Y-129055000D01*
G75*
G02*
X78522500Y-128786250I0J268750D01*
G01*
X78522500Y-127823750D01*
G75*
G02*
X78791250Y-127555000I268750J0D01*
G01*
X79328750Y-127555000D01*
G75*
G02*
X79597500Y-127823750I0J-268750D01*
G01*
G37*
G36*
G01*
X81472500Y-127823750D02*
X81472500Y-128786250D01*
G75*
G02*
X81203750Y-129055000I-268750J0D01*
G01*
X80666250Y-129055000D01*
G75*
G02*
X80397500Y-128786250I0J268750D01*
G01*
X80397500Y-127823750D01*
G75*
G02*
X80666250Y-127555000I268750J0D01*
G01*
X81203750Y-127555000D01*
G75*
G02*
X81472500Y-127823750I0J-268750D01*
G01*
G37*
%TD*%
%TO.C,R7*%
G36*
G01*
X84578750Y-124205000D02*
X85541250Y-124205000D01*
G75*
G02*
X85810000Y-124473750I0J-268750D01*
G01*
X85810000Y-125011250D01*
G75*
G02*
X85541250Y-125280000I-268750J0D01*
G01*
X84578750Y-125280000D01*
G75*
G02*
X84310000Y-125011250I0J268750D01*
G01*
X84310000Y-124473750D01*
G75*
G02*
X84578750Y-124205000I268750J0D01*
G01*
G37*
G36*
G01*
X84578750Y-122330000D02*
X85541250Y-122330000D01*
G75*
G02*
X85810000Y-122598750I0J-268750D01*
G01*
X85810000Y-123136250D01*
G75*
G02*
X85541250Y-123405000I-268750J0D01*
G01*
X84578750Y-123405000D01*
G75*
G02*
X84310000Y-123136250I0J268750D01*
G01*
X84310000Y-122598750D01*
G75*
G02*
X84578750Y-122330000I268750J0D01*
G01*
G37*
%TD*%
%TO.C,R6*%
G36*
G01*
X86578750Y-124205000D02*
X87541250Y-124205000D01*
G75*
G02*
X87810000Y-124473750I0J-268750D01*
G01*
X87810000Y-125011250D01*
G75*
G02*
X87541250Y-125280000I-268750J0D01*
G01*
X86578750Y-125280000D01*
G75*
G02*
X86310000Y-125011250I0J268750D01*
G01*
X86310000Y-124473750D01*
G75*
G02*
X86578750Y-124205000I268750J0D01*
G01*
G37*
G36*
G01*
X86578750Y-122330000D02*
X87541250Y-122330000D01*
G75*
G02*
X87810000Y-122598750I0J-268750D01*
G01*
X87810000Y-123136250D01*
G75*
G02*
X87541250Y-123405000I-268750J0D01*
G01*
X86578750Y-123405000D01*
G75*
G02*
X86310000Y-123136250I0J268750D01*
G01*
X86310000Y-122598750D01*
G75*
G02*
X86578750Y-122330000I268750J0D01*
G01*
G37*
%TD*%
%TO.C,R5*%
G36*
G01*
X94900000Y-139981250D02*
X94900000Y-139018750D01*
G75*
G02*
X95168750Y-138750000I268750J0D01*
G01*
X95706250Y-138750000D01*
G75*
G02*
X95975000Y-139018750I0J-268750D01*
G01*
X95975000Y-139981250D01*
G75*
G02*
X95706250Y-140250000I-268750J0D01*
G01*
X95168750Y-140250000D01*
G75*
G02*
X94900000Y-139981250I0J268750D01*
G01*
G37*
G36*
G01*
X93025000Y-139981250D02*
X93025000Y-139018750D01*
G75*
G02*
X93293750Y-138750000I268750J0D01*
G01*
X93831250Y-138750000D01*
G75*
G02*
X94100000Y-139018750I0J-268750D01*
G01*
X94100000Y-139981250D01*
G75*
G02*
X93831250Y-140250000I-268750J0D01*
G01*
X93293750Y-140250000D01*
G75*
G02*
X93025000Y-139981250I0J268750D01*
G01*
G37*
%TD*%
%TO.C,R4*%
G36*
G01*
X92400000Y-126981250D02*
X92400000Y-126018750D01*
G75*
G02*
X92668750Y-125750000I268750J0D01*
G01*
X93206250Y-125750000D01*
G75*
G02*
X93475000Y-126018750I0J-268750D01*
G01*
X93475000Y-126981250D01*
G75*
G02*
X93206250Y-127250000I-268750J0D01*
G01*
X92668750Y-127250000D01*
G75*
G02*
X92400000Y-126981250I0J268750D01*
G01*
G37*
G36*
G01*
X90525000Y-126981250D02*
X90525000Y-126018750D01*
G75*
G02*
X90793750Y-125750000I268750J0D01*
G01*
X91331250Y-125750000D01*
G75*
G02*
X91600000Y-126018750I0J-268750D01*
G01*
X91600000Y-126981250D01*
G75*
G02*
X91331250Y-127250000I-268750J0D01*
G01*
X90793750Y-127250000D01*
G75*
G02*
X90525000Y-126981250I0J268750D01*
G01*
G37*
%TD*%
%TO.C,R3*%
G36*
G01*
X52062500Y-131546250D02*
X52062500Y-130583750D01*
G75*
G02*
X52331250Y-130315000I268750J0D01*
G01*
X52868750Y-130315000D01*
G75*
G02*
X53137500Y-130583750I0J-268750D01*
G01*
X53137500Y-131546250D01*
G75*
G02*
X52868750Y-131815000I-268750J0D01*
G01*
X52331250Y-131815000D01*
G75*
G02*
X52062500Y-131546250I0J268750D01*
G01*
G37*
G36*
G01*
X50187500Y-131546250D02*
X50187500Y-130583750D01*
G75*
G02*
X50456250Y-130315000I268750J0D01*
G01*
X50993750Y-130315000D01*
G75*
G02*
X51262500Y-130583750I0J-268750D01*
G01*
X51262500Y-131546250D01*
G75*
G02*
X50993750Y-131815000I-268750J0D01*
G01*
X50456250Y-131815000D01*
G75*
G02*
X50187500Y-131546250I0J268750D01*
G01*
G37*
%TD*%
%TO.C,R2*%
G36*
G01*
X47306250Y-133380000D02*
X46343750Y-133380000D01*
G75*
G02*
X46075000Y-133111250I0J268750D01*
G01*
X46075000Y-132573750D01*
G75*
G02*
X46343750Y-132305000I268750J0D01*
G01*
X47306250Y-132305000D01*
G75*
G02*
X47575000Y-132573750I0J-268750D01*
G01*
X47575000Y-133111250D01*
G75*
G02*
X47306250Y-133380000I-268750J0D01*
G01*
G37*
G36*
G01*
X47306250Y-135255000D02*
X46343750Y-135255000D01*
G75*
G02*
X46075000Y-134986250I0J268750D01*
G01*
X46075000Y-134448750D01*
G75*
G02*
X46343750Y-134180000I268750J0D01*
G01*
X47306250Y-134180000D01*
G75*
G02*
X47575000Y-134448750I0J-268750D01*
G01*
X47575000Y-134986250D01*
G75*
G02*
X47306250Y-135255000I-268750J0D01*
G01*
G37*
%TD*%
%TO.C,R1*%
G36*
G01*
X45306250Y-133380000D02*
X44343750Y-133380000D01*
G75*
G02*
X44075000Y-133111250I0J268750D01*
G01*
X44075000Y-132573750D01*
G75*
G02*
X44343750Y-132305000I268750J0D01*
G01*
X45306250Y-132305000D01*
G75*
G02*
X45575000Y-132573750I0J-268750D01*
G01*
X45575000Y-133111250D01*
G75*
G02*
X45306250Y-133380000I-268750J0D01*
G01*
G37*
G36*
G01*
X45306250Y-135255000D02*
X44343750Y-135255000D01*
G75*
G02*
X44075000Y-134986250I0J268750D01*
G01*
X44075000Y-134448750D01*
G75*
G02*
X44343750Y-134180000I268750J0D01*
G01*
X45306250Y-134180000D01*
G75*
G02*
X45575000Y-134448750I0J-268750D01*
G01*
X45575000Y-134986250D01*
G75*
G02*
X45306250Y-135255000I-268750J0D01*
G01*
G37*
%TD*%
%TO.C,CBoot4*%
G36*
G01*
X84597500Y-140323750D02*
X84597500Y-141286250D01*
G75*
G02*
X84328750Y-141555000I-268750J0D01*
G01*
X83791250Y-141555000D01*
G75*
G02*
X83522500Y-141286250I0J268750D01*
G01*
X83522500Y-140323750D01*
G75*
G02*
X83791250Y-140055000I268750J0D01*
G01*
X84328750Y-140055000D01*
G75*
G02*
X84597500Y-140323750I0J-268750D01*
G01*
G37*
G36*
G01*
X86472500Y-140323750D02*
X86472500Y-141286250D01*
G75*
G02*
X86203750Y-141555000I-268750J0D01*
G01*
X85666250Y-141555000D01*
G75*
G02*
X85397500Y-141286250I0J268750D01*
G01*
X85397500Y-140323750D01*
G75*
G02*
X85666250Y-140055000I268750J0D01*
G01*
X86203750Y-140055000D01*
G75*
G02*
X86472500Y-140323750I0J-268750D01*
G01*
G37*
%TD*%
%TO.C,CBoot3*%
G36*
G01*
X84597500Y-138323750D02*
X84597500Y-139286250D01*
G75*
G02*
X84328750Y-139555000I-268750J0D01*
G01*
X83791250Y-139555000D01*
G75*
G02*
X83522500Y-139286250I0J268750D01*
G01*
X83522500Y-138323750D01*
G75*
G02*
X83791250Y-138055000I268750J0D01*
G01*
X84328750Y-138055000D01*
G75*
G02*
X84597500Y-138323750I0J-268750D01*
G01*
G37*
G36*
G01*
X86472500Y-138323750D02*
X86472500Y-139286250D01*
G75*
G02*
X86203750Y-139555000I-268750J0D01*
G01*
X85666250Y-139555000D01*
G75*
G02*
X85397500Y-139286250I0J268750D01*
G01*
X85397500Y-138323750D01*
G75*
G02*
X85666250Y-138055000I268750J0D01*
G01*
X86203750Y-138055000D01*
G75*
G02*
X86472500Y-138323750I0J-268750D01*
G01*
G37*
%TD*%
%TO.C,CBoot2*%
G36*
G01*
X47000000Y-119046250D02*
X47000000Y-118083750D01*
G75*
G02*
X47268750Y-117815000I268750J0D01*
G01*
X47806250Y-117815000D01*
G75*
G02*
X48075000Y-118083750I0J-268750D01*
G01*
X48075000Y-119046250D01*
G75*
G02*
X47806250Y-119315000I-268750J0D01*
G01*
X47268750Y-119315000D01*
G75*
G02*
X47000000Y-119046250I0J268750D01*
G01*
G37*
G36*
G01*
X45125000Y-119046250D02*
X45125000Y-118083750D01*
G75*
G02*
X45393750Y-117815000I268750J0D01*
G01*
X45931250Y-117815000D01*
G75*
G02*
X46200000Y-118083750I0J-268750D01*
G01*
X46200000Y-119046250D01*
G75*
G02*
X45931250Y-119315000I-268750J0D01*
G01*
X45393750Y-119315000D01*
G75*
G02*
X45125000Y-119046250I0J268750D01*
G01*
G37*
%TD*%
%TO.C,CBoot1*%
G36*
G01*
X47000000Y-121546250D02*
X47000000Y-120583750D01*
G75*
G02*
X47268750Y-120315000I268750J0D01*
G01*
X47806250Y-120315000D01*
G75*
G02*
X48075000Y-120583750I0J-268750D01*
G01*
X48075000Y-121546250D01*
G75*
G02*
X47806250Y-121815000I-268750J0D01*
G01*
X47268750Y-121815000D01*
G75*
G02*
X47000000Y-121546250I0J268750D01*
G01*
G37*
G36*
G01*
X45125000Y-121546250D02*
X45125000Y-120583750D01*
G75*
G02*
X45393750Y-120315000I268750J0D01*
G01*
X45931250Y-120315000D01*
G75*
G02*
X46200000Y-120583750I0J-268750D01*
G01*
X46200000Y-121546250D01*
G75*
G02*
X45931250Y-121815000I-268750J0D01*
G01*
X45393750Y-121815000D01*
G75*
G02*
X45125000Y-121546250I0J268750D01*
G01*
G37*
%TD*%
%TO.C,C_VDDB4*%
G36*
G01*
X77435000Y-138200000D02*
X77435000Y-140410000D01*
G75*
G02*
X77165000Y-140680000I-270000J0D01*
G01*
X76355000Y-140680000D01*
G75*
G02*
X76085000Y-140410000I0J270000D01*
G01*
X76085000Y-138200000D01*
G75*
G02*
X76355000Y-137930000I270000J0D01*
G01*
X77165000Y-137930000D01*
G75*
G02*
X77435000Y-138200000I0J-270000D01*
G01*
G37*
G36*
G01*
X80235000Y-138200000D02*
X80235000Y-140410000D01*
G75*
G02*
X79965000Y-140680000I-270000J0D01*
G01*
X79155000Y-140680000D01*
G75*
G02*
X78885000Y-140410000I0J270000D01*
G01*
X78885000Y-138200000D01*
G75*
G02*
X79155000Y-137930000I270000J0D01*
G01*
X79965000Y-137930000D01*
G75*
G02*
X80235000Y-138200000I0J-270000D01*
G01*
G37*
%TD*%
%TO.C,C_VDDB3*%
G36*
G01*
X77660000Y-141823750D02*
X77660000Y-142786250D01*
G75*
G02*
X77391250Y-143055000I-268750J0D01*
G01*
X76853750Y-143055000D01*
G75*
G02*
X76585000Y-142786250I0J268750D01*
G01*
X76585000Y-141823750D01*
G75*
G02*
X76853750Y-141555000I268750J0D01*
G01*
X77391250Y-141555000D01*
G75*
G02*
X77660000Y-141823750I0J-268750D01*
G01*
G37*
G36*
G01*
X79535000Y-141823750D02*
X79535000Y-142786250D01*
G75*
G02*
X79266250Y-143055000I-268750J0D01*
G01*
X78728750Y-143055000D01*
G75*
G02*
X78460000Y-142786250I0J268750D01*
G01*
X78460000Y-141823750D01*
G75*
G02*
X78728750Y-141555000I268750J0D01*
G01*
X79266250Y-141555000D01*
G75*
G02*
X79535000Y-141823750I0J-268750D01*
G01*
G37*
%TD*%
%TO.C,C_VDDB2*%
G36*
G01*
X53625000Y-121605000D02*
X53625000Y-119395000D01*
G75*
G02*
X53895000Y-119125000I270000J0D01*
G01*
X54705000Y-119125000D01*
G75*
G02*
X54975000Y-119395000I0J-270000D01*
G01*
X54975000Y-121605000D01*
G75*
G02*
X54705000Y-121875000I-270000J0D01*
G01*
X53895000Y-121875000D01*
G75*
G02*
X53625000Y-121605000I0J270000D01*
G01*
G37*
G36*
G01*
X50825000Y-121605000D02*
X50825000Y-119395000D01*
G75*
G02*
X51095000Y-119125000I270000J0D01*
G01*
X51905000Y-119125000D01*
G75*
G02*
X52175000Y-119395000I0J-270000D01*
G01*
X52175000Y-121605000D01*
G75*
G02*
X51905000Y-121875000I-270000J0D01*
G01*
X51095000Y-121875000D01*
G75*
G02*
X50825000Y-121605000I0J270000D01*
G01*
G37*
%TD*%
%TO.C,C_VDDB1*%
G36*
G01*
X53837500Y-118481250D02*
X53837500Y-117518750D01*
G75*
G02*
X54106250Y-117250000I268750J0D01*
G01*
X54643750Y-117250000D01*
G75*
G02*
X54912500Y-117518750I0J-268750D01*
G01*
X54912500Y-118481250D01*
G75*
G02*
X54643750Y-118750000I-268750J0D01*
G01*
X54106250Y-118750000D01*
G75*
G02*
X53837500Y-118481250I0J268750D01*
G01*
G37*
G36*
G01*
X51962500Y-118481250D02*
X51962500Y-117518750D01*
G75*
G02*
X52231250Y-117250000I268750J0D01*
G01*
X52768750Y-117250000D01*
G75*
G02*
X53037500Y-117518750I0J-268750D01*
G01*
X53037500Y-118481250D01*
G75*
G02*
X52768750Y-118750000I-268750J0D01*
G01*
X52231250Y-118750000D01*
G75*
G02*
X51962500Y-118481250I0J268750D01*
G01*
G37*
%TD*%
%TO.C,C12*%
G36*
G01*
X82578750Y-127767500D02*
X83541250Y-127767500D01*
G75*
G02*
X83810000Y-128036250I0J-268750D01*
G01*
X83810000Y-128573750D01*
G75*
G02*
X83541250Y-128842500I-268750J0D01*
G01*
X82578750Y-128842500D01*
G75*
G02*
X82310000Y-128573750I0J268750D01*
G01*
X82310000Y-128036250D01*
G75*
G02*
X82578750Y-127767500I268750J0D01*
G01*
G37*
G36*
G01*
X82578750Y-125892500D02*
X83541250Y-125892500D01*
G75*
G02*
X83810000Y-126161250I0J-268750D01*
G01*
X83810000Y-126698750D01*
G75*
G02*
X83541250Y-126967500I-268750J0D01*
G01*
X82578750Y-126967500D01*
G75*
G02*
X82310000Y-126698750I0J268750D01*
G01*
X82310000Y-126161250D01*
G75*
G02*
X82578750Y-125892500I268750J0D01*
G01*
G37*
%TD*%
%TO.C,C11*%
G36*
G01*
X80397500Y-126786250D02*
X80397500Y-125823750D01*
G75*
G02*
X80666250Y-125555000I268750J0D01*
G01*
X81203750Y-125555000D01*
G75*
G02*
X81472500Y-125823750I0J-268750D01*
G01*
X81472500Y-126786250D01*
G75*
G02*
X81203750Y-127055000I-268750J0D01*
G01*
X80666250Y-127055000D01*
G75*
G02*
X80397500Y-126786250I0J268750D01*
G01*
G37*
G36*
G01*
X78522500Y-126786250D02*
X78522500Y-125823750D01*
G75*
G02*
X78791250Y-125555000I268750J0D01*
G01*
X79328750Y-125555000D01*
G75*
G02*
X79597500Y-125823750I0J-268750D01*
G01*
X79597500Y-126786250D01*
G75*
G02*
X79328750Y-127055000I-268750J0D01*
G01*
X78791250Y-127055000D01*
G75*
G02*
X78522500Y-126786250I0J268750D01*
G01*
G37*
%TD*%
%TO.C,C10*%
G36*
G01*
X76960000Y-126786250D02*
X76960000Y-125823750D01*
G75*
G02*
X77228750Y-125555000I268750J0D01*
G01*
X77766250Y-125555000D01*
G75*
G02*
X78035000Y-125823750I0J-268750D01*
G01*
X78035000Y-126786250D01*
G75*
G02*
X77766250Y-127055000I-268750J0D01*
G01*
X77228750Y-127055000D01*
G75*
G02*
X76960000Y-126786250I0J268750D01*
G01*
G37*
G36*
G01*
X75085000Y-126786250D02*
X75085000Y-125823750D01*
G75*
G02*
X75353750Y-125555000I268750J0D01*
G01*
X75891250Y-125555000D01*
G75*
G02*
X76160000Y-125823750I0J-268750D01*
G01*
X76160000Y-126786250D01*
G75*
G02*
X75891250Y-127055000I-268750J0D01*
G01*
X75353750Y-127055000D01*
G75*
G02*
X75085000Y-126786250I0J268750D01*
G01*
G37*
%TD*%
%TO.C,C9*%
G36*
G01*
X76960000Y-128786250D02*
X76960000Y-127823750D01*
G75*
G02*
X77228750Y-127555000I268750J0D01*
G01*
X77766250Y-127555000D01*
G75*
G02*
X78035000Y-127823750I0J-268750D01*
G01*
X78035000Y-128786250D01*
G75*
G02*
X77766250Y-129055000I-268750J0D01*
G01*
X77228750Y-129055000D01*
G75*
G02*
X76960000Y-128786250I0J268750D01*
G01*
G37*
G36*
G01*
X75085000Y-128786250D02*
X75085000Y-127823750D01*
G75*
G02*
X75353750Y-127555000I268750J0D01*
G01*
X75891250Y-127555000D01*
G75*
G02*
X76160000Y-127823750I0J-268750D01*
G01*
X76160000Y-128786250D01*
G75*
G02*
X75891250Y-129055000I-268750J0D01*
G01*
X75353750Y-129055000D01*
G75*
G02*
X75085000Y-128786250I0J268750D01*
G01*
G37*
%TD*%
%TO.C,C8*%
G36*
G01*
X83541250Y-123405000D02*
X82578750Y-123405000D01*
G75*
G02*
X82310000Y-123136250I0J268750D01*
G01*
X82310000Y-122598750D01*
G75*
G02*
X82578750Y-122330000I268750J0D01*
G01*
X83541250Y-122330000D01*
G75*
G02*
X83810000Y-122598750I0J-268750D01*
G01*
X83810000Y-123136250D01*
G75*
G02*
X83541250Y-123405000I-268750J0D01*
G01*
G37*
G36*
G01*
X83541250Y-125280000D02*
X82578750Y-125280000D01*
G75*
G02*
X82310000Y-125011250I0J268750D01*
G01*
X82310000Y-124473750D01*
G75*
G02*
X82578750Y-124205000I268750J0D01*
G01*
X83541250Y-124205000D01*
G75*
G02*
X83810000Y-124473750I0J-268750D01*
G01*
X83810000Y-125011250D01*
G75*
G02*
X83541250Y-125280000I-268750J0D01*
G01*
G37*
%TD*%
%TO.C,C7*%
G36*
G01*
X88578750Y-124205000D02*
X89541250Y-124205000D01*
G75*
G02*
X89810000Y-124473750I0J-268750D01*
G01*
X89810000Y-125011250D01*
G75*
G02*
X89541250Y-125280000I-268750J0D01*
G01*
X88578750Y-125280000D01*
G75*
G02*
X88310000Y-125011250I0J268750D01*
G01*
X88310000Y-124473750D01*
G75*
G02*
X88578750Y-124205000I268750J0D01*
G01*
G37*
G36*
G01*
X88578750Y-122330000D02*
X89541250Y-122330000D01*
G75*
G02*
X89810000Y-122598750I0J-268750D01*
G01*
X89810000Y-123136250D01*
G75*
G02*
X89541250Y-123405000I-268750J0D01*
G01*
X88578750Y-123405000D01*
G75*
G02*
X88310000Y-123136250I0J268750D01*
G01*
X88310000Y-122598750D01*
G75*
G02*
X88578750Y-122330000I268750J0D01*
G01*
G37*
%TD*%
%TO.C,C6*%
G36*
G01*
X47662500Y-130518750D02*
X47662500Y-131481250D01*
G75*
G02*
X47393750Y-131750000I-268750J0D01*
G01*
X46856250Y-131750000D01*
G75*
G02*
X46587500Y-131481250I0J268750D01*
G01*
X46587500Y-130518750D01*
G75*
G02*
X46856250Y-130250000I268750J0D01*
G01*
X47393750Y-130250000D01*
G75*
G02*
X47662500Y-130518750I0J-268750D01*
G01*
G37*
G36*
G01*
X49537500Y-130518750D02*
X49537500Y-131481250D01*
G75*
G02*
X49268750Y-131750000I-268750J0D01*
G01*
X48731250Y-131750000D01*
G75*
G02*
X48462500Y-131481250I0J268750D01*
G01*
X48462500Y-130518750D01*
G75*
G02*
X48731250Y-130250000I268750J0D01*
G01*
X49268750Y-130250000D01*
G75*
G02*
X49537500Y-130518750I0J-268750D01*
G01*
G37*
%TD*%
%TO.C,C5*%
G36*
G01*
X51262500Y-132583750D02*
X51262500Y-133546250D01*
G75*
G02*
X50993750Y-133815000I-268750J0D01*
G01*
X50456250Y-133815000D01*
G75*
G02*
X50187500Y-133546250I0J268750D01*
G01*
X50187500Y-132583750D01*
G75*
G02*
X50456250Y-132315000I268750J0D01*
G01*
X50993750Y-132315000D01*
G75*
G02*
X51262500Y-132583750I0J-268750D01*
G01*
G37*
G36*
G01*
X53137500Y-132583750D02*
X53137500Y-133546250D01*
G75*
G02*
X52868750Y-133815000I-268750J0D01*
G01*
X52331250Y-133815000D01*
G75*
G02*
X52062500Y-133546250I0J268750D01*
G01*
X52062500Y-132583750D01*
G75*
G02*
X52331250Y-132315000I268750J0D01*
G01*
X52868750Y-132315000D01*
G75*
G02*
X53137500Y-132583750I0J-268750D01*
G01*
G37*
%TD*%
%TO.C,C4*%
G36*
G01*
X55100000Y-132518750D02*
X55100000Y-133481250D01*
G75*
G02*
X54831250Y-133750000I-268750J0D01*
G01*
X54293750Y-133750000D01*
G75*
G02*
X54025000Y-133481250I0J268750D01*
G01*
X54025000Y-132518750D01*
G75*
G02*
X54293750Y-132250000I268750J0D01*
G01*
X54831250Y-132250000D01*
G75*
G02*
X55100000Y-132518750I0J-268750D01*
G01*
G37*
G36*
G01*
X56975000Y-132518750D02*
X56975000Y-133481250D01*
G75*
G02*
X56706250Y-133750000I-268750J0D01*
G01*
X56168750Y-133750000D01*
G75*
G02*
X55900000Y-133481250I0J268750D01*
G01*
X55900000Y-132518750D01*
G75*
G02*
X56168750Y-132250000I268750J0D01*
G01*
X56706250Y-132250000D01*
G75*
G02*
X56975000Y-132518750I0J-268750D01*
G01*
G37*
%TD*%
%TO.C,C3*%
G36*
G01*
X55137500Y-130518750D02*
X55137500Y-131481250D01*
G75*
G02*
X54868750Y-131750000I-268750J0D01*
G01*
X54331250Y-131750000D01*
G75*
G02*
X54062500Y-131481250I0J268750D01*
G01*
X54062500Y-130518750D01*
G75*
G02*
X54331250Y-130250000I268750J0D01*
G01*
X54868750Y-130250000D01*
G75*
G02*
X55137500Y-130518750I0J-268750D01*
G01*
G37*
G36*
G01*
X57012500Y-130518750D02*
X57012500Y-131481250D01*
G75*
G02*
X56743750Y-131750000I-268750J0D01*
G01*
X56206250Y-131750000D01*
G75*
G02*
X55937500Y-131481250I0J268750D01*
G01*
X55937500Y-130518750D01*
G75*
G02*
X56206250Y-130250000I268750J0D01*
G01*
X56743750Y-130250000D01*
G75*
G02*
X57012500Y-130518750I0J-268750D01*
G01*
G37*
%TD*%
%TO.C,C2*%
G36*
G01*
X48343750Y-134180000D02*
X49306250Y-134180000D01*
G75*
G02*
X49575000Y-134448750I0J-268750D01*
G01*
X49575000Y-134986250D01*
G75*
G02*
X49306250Y-135255000I-268750J0D01*
G01*
X48343750Y-135255000D01*
G75*
G02*
X48075000Y-134986250I0J268750D01*
G01*
X48075000Y-134448750D01*
G75*
G02*
X48343750Y-134180000I268750J0D01*
G01*
G37*
G36*
G01*
X48343750Y-132305000D02*
X49306250Y-132305000D01*
G75*
G02*
X49575000Y-132573750I0J-268750D01*
G01*
X49575000Y-133111250D01*
G75*
G02*
X49306250Y-133380000I-268750J0D01*
G01*
X48343750Y-133380000D01*
G75*
G02*
X48075000Y-133111250I0J268750D01*
G01*
X48075000Y-132573750D01*
G75*
G02*
X48343750Y-132305000I268750J0D01*
G01*
G37*
%TD*%
%TO.C,C1*%
G36*
G01*
X43306250Y-133380000D02*
X42343750Y-133380000D01*
G75*
G02*
X42075000Y-133111250I0J268750D01*
G01*
X42075000Y-132573750D01*
G75*
G02*
X42343750Y-132305000I268750J0D01*
G01*
X43306250Y-132305000D01*
G75*
G02*
X43575000Y-132573750I0J-268750D01*
G01*
X43575000Y-133111250D01*
G75*
G02*
X43306250Y-133380000I-268750J0D01*
G01*
G37*
G36*
G01*
X43306250Y-135255000D02*
X42343750Y-135255000D01*
G75*
G02*
X42075000Y-134986250I0J268750D01*
G01*
X42075000Y-134448750D01*
G75*
G02*
X42343750Y-134180000I268750J0D01*
G01*
X43306250Y-134180000D01*
G75*
G02*
X43575000Y-134448750I0J-268750D01*
G01*
X43575000Y-134986250D01*
G75*
G02*
X43306250Y-135255000I-268750J0D01*
G01*
G37*
%TD*%
M02*
