%TF.GenerationSoftware,KiCad,Pcbnew,5.1.6-c6e7f7d~86~ubuntu20.04.1*%
%TF.CreationDate,2020-09-07T12:10:57+02:00*%
%TF.ProjectId,Driver,44726976-6572-42e6-9b69-6361645f7063,rev?*%
%TF.SameCoordinates,Original*%
%TF.FileFunction,Copper,L1,Top*%
%TF.FilePolarity,Positive*%
%FSLAX46Y46*%
G04 Gerber Fmt 4.6, Leading zero omitted, Abs format (unit mm)*
G04 Created by KiCad (PCBNEW 5.1.6-c6e7f7d~86~ubuntu20.04.1) date 2020-09-07 12:10:57*
%MOMM*%
%LPD*%
G01*
G04 APERTURE LIST*
%TA.AperFunction,SMDPad,CuDef*%
%ADD10R,2.500000X2.300000*%
%TD*%
%TA.AperFunction,SMDPad,CuDef*%
%ADD11R,2.300000X2.500000*%
%TD*%
%TA.AperFunction,ComponentPad*%
%ADD12O,1.700000X1.700000*%
%TD*%
%TA.AperFunction,ComponentPad*%
%ADD13R,1.700000X1.700000*%
%TD*%
%TA.AperFunction,SMDPad,CuDef*%
%ADD14R,1.600000X1.600000*%
%TD*%
%TA.AperFunction,ViaPad*%
%ADD15C,0.800000*%
%TD*%
%TA.AperFunction,Conductor*%
%ADD16C,0.250000*%
%TD*%
%TA.AperFunction,Conductor*%
%ADD17C,1.000000*%
%TD*%
%TA.AperFunction,Conductor*%
%ADD18C,0.254000*%
%TD*%
G04 APERTURE END LIST*
D10*
%TO.P,D_boot2,2*%
%TO.N,Net-(D_boot2-Pad2)*%
X91300000Y-144000000D03*
%TO.P,D_boot2,1*%
%TO.N,Net-(CBoot3-Pad1)*%
X87000000Y-144000000D03*
%TD*%
D11*
%TO.P,D_boot1,2*%
%TO.N,Net-(D_boot1-Pad2)*%
X42500000Y-122650000D03*
%TO.P,D_boot1,1*%
%TO.N,Net-(CBoot1-Pad1)*%
X42500000Y-118350000D03*
%TD*%
D12*
%TO.P,J2,8*%
%TO.N,+5VD*%
X49120000Y-138500000D03*
D13*
%TO.P,J2,9*%
%TO.N,GNDD*%
X41500000Y-138500000D03*
D12*
%TO.P,J2,3*%
%TO.N,/PWM_H1_D*%
X44040000Y-138500000D03*
%TO.P,J2,4*%
%TO.N,/PWM_L1_D*%
X46580000Y-138500000D03*
%TO.P,J2,5*%
%TO.N,/PWM_H2_D*%
X85620000Y-118500000D03*
%TO.P,J2,6*%
%TO.N,/PWM_L2_D*%
X83080000Y-118500000D03*
%TO.P,J2,9*%
%TO.N,GNDD*%
X80540000Y-118500000D03*
D13*
%TO.P,J2,8*%
%TO.N,+5VD*%
X78000000Y-118500000D03*
D12*
%TO.P,J2,7*%
%TO.N,/N_GND_cmd*%
X88160000Y-118500000D03*
%TO.P,J2,2*%
%TO.N,GNDREF*%
X63500000Y-138620000D03*
D13*
%TO.P,J2,1*%
%TO.N,+15V*%
X63500000Y-131000000D03*
D12*
%TO.P,J2,2*%
%TO.N,GNDREF*%
X63500000Y-136080000D03*
%TO.P,J2,1*%
%TO.N,+15V*%
X63500000Y-133540000D03*
%TD*%
D13*
%TO.P,J1,20*%
%TO.N,/PWM_L2*%
X93500000Y-148500000D03*
D12*
%TO.P,J1,19*%
%TO.N,GNDREF*%
X96040000Y-148500000D03*
D13*
%TO.P,J1,22*%
%TO.N,/PWM_H2*%
X80000000Y-148500000D03*
D12*
%TO.P,J1,21*%
%TO.N,/SW_Node2*%
X82540000Y-148500000D03*
D13*
%TO.P,J1,24*%
%TO.N,/PWM_L1*%
X40500000Y-115000000D03*
D12*
%TO.P,J1,23*%
%TO.N,GNDREF*%
X37960000Y-115000000D03*
D13*
%TO.P,J1,26*%
%TO.N,/PWM_H1*%
X52000000Y-115000000D03*
D12*
%TO.P,J1,25*%
%TO.N,/SW_Node1*%
X49460000Y-115000000D03*
D13*
%TO.P,J1,28*%
%TO.N,GNDREF*%
X117000000Y-138000000D03*
D12*
%TO.P,J1,27*%
%TO.N,/Neutral_GND_cmd*%
X117000000Y-140540000D03*
%TD*%
D14*
%TO.P,U12,4*%
%TO.N,+15V*%
X93270000Y-136810000D03*
%TO.P,U12,2*%
%TO.N,Net-(R4-Pad1)*%
X90730000Y-129190000D03*
%TO.P,U12,3*%
%TO.N,/Neutral_GND_cmd*%
X90730000Y-136810000D03*
%TO.P,U12,1*%
%TO.N,/N_GND_cmd*%
X93270000Y-129190000D03*
%TD*%
%TO.P,U4,16*%
%TO.N,Net-(CBoot3-Pad1)*%
%TA.AperFunction,SMDPad,CuDef*%
G36*
G01*
X85855000Y-134805000D02*
X86155000Y-134805000D01*
G75*
G02*
X86305000Y-134955000I0J-150000D01*
G01*
X86305000Y-136605000D01*
G75*
G02*
X86155000Y-136755000I-150000J0D01*
G01*
X85855000Y-136755000D01*
G75*
G02*
X85705000Y-136605000I0J150000D01*
G01*
X85705000Y-134955000D01*
G75*
G02*
X85855000Y-134805000I150000J0D01*
G01*
G37*
%TD.AperFunction*%
%TO.P,U4,15*%
%TO.N,/PWM_H2*%
%TA.AperFunction,SMDPad,CuDef*%
G36*
G01*
X84585000Y-134805000D02*
X84885000Y-134805000D01*
G75*
G02*
X85035000Y-134955000I0J-150000D01*
G01*
X85035000Y-136605000D01*
G75*
G02*
X84885000Y-136755000I-150000J0D01*
G01*
X84585000Y-136755000D01*
G75*
G02*
X84435000Y-136605000I0J150000D01*
G01*
X84435000Y-134955000D01*
G75*
G02*
X84585000Y-134805000I150000J0D01*
G01*
G37*
%TD.AperFunction*%
%TO.P,U4,14*%
%TO.N,/SW_Node2*%
%TA.AperFunction,SMDPad,CuDef*%
G36*
G01*
X83315000Y-134805000D02*
X83615000Y-134805000D01*
G75*
G02*
X83765000Y-134955000I0J-150000D01*
G01*
X83765000Y-136605000D01*
G75*
G02*
X83615000Y-136755000I-150000J0D01*
G01*
X83315000Y-136755000D01*
G75*
G02*
X83165000Y-136605000I0J150000D01*
G01*
X83165000Y-134955000D01*
G75*
G02*
X83315000Y-134805000I150000J0D01*
G01*
G37*
%TD.AperFunction*%
%TO.P,U4,13*%
%TO.N,Net-(U4-Pad13)*%
%TA.AperFunction,SMDPad,CuDef*%
G36*
G01*
X82045000Y-134805000D02*
X82345000Y-134805000D01*
G75*
G02*
X82495000Y-134955000I0J-150000D01*
G01*
X82495000Y-136605000D01*
G75*
G02*
X82345000Y-136755000I-150000J0D01*
G01*
X82045000Y-136755000D01*
G75*
G02*
X81895000Y-136605000I0J150000D01*
G01*
X81895000Y-134955000D01*
G75*
G02*
X82045000Y-134805000I150000J0D01*
G01*
G37*
%TD.AperFunction*%
%TO.P,U4,12*%
%TO.N,Net-(U4-Pad12)*%
%TA.AperFunction,SMDPad,CuDef*%
G36*
G01*
X80775000Y-134805000D02*
X81075000Y-134805000D01*
G75*
G02*
X81225000Y-134955000I0J-150000D01*
G01*
X81225000Y-136605000D01*
G75*
G02*
X81075000Y-136755000I-150000J0D01*
G01*
X80775000Y-136755000D01*
G75*
G02*
X80625000Y-136605000I0J150000D01*
G01*
X80625000Y-134955000D01*
G75*
G02*
X80775000Y-134805000I150000J0D01*
G01*
G37*
%TD.AperFunction*%
%TO.P,U4,11*%
%TO.N,+15V*%
%TA.AperFunction,SMDPad,CuDef*%
G36*
G01*
X79505000Y-134805000D02*
X79805000Y-134805000D01*
G75*
G02*
X79955000Y-134955000I0J-150000D01*
G01*
X79955000Y-136605000D01*
G75*
G02*
X79805000Y-136755000I-150000J0D01*
G01*
X79505000Y-136755000D01*
G75*
G02*
X79355000Y-136605000I0J150000D01*
G01*
X79355000Y-134955000D01*
G75*
G02*
X79505000Y-134805000I150000J0D01*
G01*
G37*
%TD.AperFunction*%
%TO.P,U4,10*%
%TO.N,/PWM_L2*%
%TA.AperFunction,SMDPad,CuDef*%
G36*
G01*
X78235000Y-134805000D02*
X78535000Y-134805000D01*
G75*
G02*
X78685000Y-134955000I0J-150000D01*
G01*
X78685000Y-136605000D01*
G75*
G02*
X78535000Y-136755000I-150000J0D01*
G01*
X78235000Y-136755000D01*
G75*
G02*
X78085000Y-136605000I0J150000D01*
G01*
X78085000Y-134955000D01*
G75*
G02*
X78235000Y-134805000I150000J0D01*
G01*
G37*
%TD.AperFunction*%
%TO.P,U4,9*%
%TO.N,GNDREF*%
%TA.AperFunction,SMDPad,CuDef*%
G36*
G01*
X76965000Y-134805000D02*
X77265000Y-134805000D01*
G75*
G02*
X77415000Y-134955000I0J-150000D01*
G01*
X77415000Y-136605000D01*
G75*
G02*
X77265000Y-136755000I-150000J0D01*
G01*
X76965000Y-136755000D01*
G75*
G02*
X76815000Y-136605000I0J150000D01*
G01*
X76815000Y-134955000D01*
G75*
G02*
X76965000Y-134805000I150000J0D01*
G01*
G37*
%TD.AperFunction*%
%TO.P,U4,8*%
%TO.N,+5VD*%
%TA.AperFunction,SMDPad,CuDef*%
G36*
G01*
X76965000Y-129855000D02*
X77265000Y-129855000D01*
G75*
G02*
X77415000Y-130005000I0J-150000D01*
G01*
X77415000Y-131655000D01*
G75*
G02*
X77265000Y-131805000I-150000J0D01*
G01*
X76965000Y-131805000D01*
G75*
G02*
X76815000Y-131655000I0J150000D01*
G01*
X76815000Y-130005000D01*
G75*
G02*
X76965000Y-129855000I150000J0D01*
G01*
G37*
%TD.AperFunction*%
%TO.P,U4,7*%
%TO.N,Net-(U4-Pad7)*%
%TA.AperFunction,SMDPad,CuDef*%
G36*
G01*
X78235000Y-129855000D02*
X78535000Y-129855000D01*
G75*
G02*
X78685000Y-130005000I0J-150000D01*
G01*
X78685000Y-131655000D01*
G75*
G02*
X78535000Y-131805000I-150000J0D01*
G01*
X78235000Y-131805000D01*
G75*
G02*
X78085000Y-131655000I0J150000D01*
G01*
X78085000Y-130005000D01*
G75*
G02*
X78235000Y-129855000I150000J0D01*
G01*
G37*
%TD.AperFunction*%
%TO.P,U4,6*%
%TO.N,Net-(C11-Pad1)*%
%TA.AperFunction,SMDPad,CuDef*%
G36*
G01*
X79505000Y-129855000D02*
X79805000Y-129855000D01*
G75*
G02*
X79955000Y-130005000I0J-150000D01*
G01*
X79955000Y-131655000D01*
G75*
G02*
X79805000Y-131805000I-150000J0D01*
G01*
X79505000Y-131805000D01*
G75*
G02*
X79355000Y-131655000I0J150000D01*
G01*
X79355000Y-130005000D01*
G75*
G02*
X79505000Y-129855000I150000J0D01*
G01*
G37*
%TD.AperFunction*%
%TO.P,U4,5*%
%TO.N,GNDD*%
%TA.AperFunction,SMDPad,CuDef*%
G36*
G01*
X80775000Y-129855000D02*
X81075000Y-129855000D01*
G75*
G02*
X81225000Y-130005000I0J-150000D01*
G01*
X81225000Y-131655000D01*
G75*
G02*
X81075000Y-131805000I-150000J0D01*
G01*
X80775000Y-131805000D01*
G75*
G02*
X80625000Y-131655000I0J150000D01*
G01*
X80625000Y-130005000D01*
G75*
G02*
X80775000Y-129855000I150000J0D01*
G01*
G37*
%TD.AperFunction*%
%TO.P,U4,4*%
%TA.AperFunction,SMDPad,CuDef*%
G36*
G01*
X82045000Y-129855000D02*
X82345000Y-129855000D01*
G75*
G02*
X82495000Y-130005000I0J-150000D01*
G01*
X82495000Y-131655000D01*
G75*
G02*
X82345000Y-131805000I-150000J0D01*
G01*
X82045000Y-131805000D01*
G75*
G02*
X81895000Y-131655000I0J150000D01*
G01*
X81895000Y-130005000D01*
G75*
G02*
X82045000Y-129855000I150000J0D01*
G01*
G37*
%TD.AperFunction*%
%TO.P,U4,3*%
%TO.N,+5VD*%
%TA.AperFunction,SMDPad,CuDef*%
G36*
G01*
X83315000Y-129855000D02*
X83615000Y-129855000D01*
G75*
G02*
X83765000Y-130005000I0J-150000D01*
G01*
X83765000Y-131655000D01*
G75*
G02*
X83615000Y-131805000I-150000J0D01*
G01*
X83315000Y-131805000D01*
G75*
G02*
X83165000Y-131655000I0J150000D01*
G01*
X83165000Y-130005000D01*
G75*
G02*
X83315000Y-129855000I150000J0D01*
G01*
G37*
%TD.AperFunction*%
%TO.P,U4,2*%
%TO.N,Net-(C8-Pad1)*%
%TA.AperFunction,SMDPad,CuDef*%
G36*
G01*
X84585000Y-129855000D02*
X84885000Y-129855000D01*
G75*
G02*
X85035000Y-130005000I0J-150000D01*
G01*
X85035000Y-131655000D01*
G75*
G02*
X84885000Y-131805000I-150000J0D01*
G01*
X84585000Y-131805000D01*
G75*
G02*
X84435000Y-131655000I0J150000D01*
G01*
X84435000Y-130005000D01*
G75*
G02*
X84585000Y-129855000I150000J0D01*
G01*
G37*
%TD.AperFunction*%
%TO.P,U4,1*%
%TO.N,Net-(C7-Pad2)*%
%TA.AperFunction,SMDPad,CuDef*%
G36*
G01*
X85855000Y-129855000D02*
X86155000Y-129855000D01*
G75*
G02*
X86305000Y-130005000I0J-150000D01*
G01*
X86305000Y-131655000D01*
G75*
G02*
X86155000Y-131805000I-150000J0D01*
G01*
X85855000Y-131805000D01*
G75*
G02*
X85705000Y-131655000I0J150000D01*
G01*
X85705000Y-130005000D01*
G75*
G02*
X85855000Y-129855000I150000J0D01*
G01*
G37*
%TD.AperFunction*%
%TD*%
%TO.P,U3,16*%
%TO.N,Net-(CBoot1-Pad1)*%
%TA.AperFunction,SMDPad,CuDef*%
G36*
G01*
X45705000Y-124500000D02*
X45405000Y-124500000D01*
G75*
G02*
X45255000Y-124350000I0J150000D01*
G01*
X45255000Y-122700000D01*
G75*
G02*
X45405000Y-122550000I150000J0D01*
G01*
X45705000Y-122550000D01*
G75*
G02*
X45855000Y-122700000I0J-150000D01*
G01*
X45855000Y-124350000D01*
G75*
G02*
X45705000Y-124500000I-150000J0D01*
G01*
G37*
%TD.AperFunction*%
%TO.P,U3,15*%
%TO.N,/PWM_H1*%
%TA.AperFunction,SMDPad,CuDef*%
G36*
G01*
X46975000Y-124500000D02*
X46675000Y-124500000D01*
G75*
G02*
X46525000Y-124350000I0J150000D01*
G01*
X46525000Y-122700000D01*
G75*
G02*
X46675000Y-122550000I150000J0D01*
G01*
X46975000Y-122550000D01*
G75*
G02*
X47125000Y-122700000I0J-150000D01*
G01*
X47125000Y-124350000D01*
G75*
G02*
X46975000Y-124500000I-150000J0D01*
G01*
G37*
%TD.AperFunction*%
%TO.P,U3,14*%
%TO.N,/SW_Node1*%
%TA.AperFunction,SMDPad,CuDef*%
G36*
G01*
X48245000Y-124500000D02*
X47945000Y-124500000D01*
G75*
G02*
X47795000Y-124350000I0J150000D01*
G01*
X47795000Y-122700000D01*
G75*
G02*
X47945000Y-122550000I150000J0D01*
G01*
X48245000Y-122550000D01*
G75*
G02*
X48395000Y-122700000I0J-150000D01*
G01*
X48395000Y-124350000D01*
G75*
G02*
X48245000Y-124500000I-150000J0D01*
G01*
G37*
%TD.AperFunction*%
%TO.P,U3,13*%
%TO.N,Net-(U3-Pad13)*%
%TA.AperFunction,SMDPad,CuDef*%
G36*
G01*
X49515000Y-124500000D02*
X49215000Y-124500000D01*
G75*
G02*
X49065000Y-124350000I0J150000D01*
G01*
X49065000Y-122700000D01*
G75*
G02*
X49215000Y-122550000I150000J0D01*
G01*
X49515000Y-122550000D01*
G75*
G02*
X49665000Y-122700000I0J-150000D01*
G01*
X49665000Y-124350000D01*
G75*
G02*
X49515000Y-124500000I-150000J0D01*
G01*
G37*
%TD.AperFunction*%
%TO.P,U3,12*%
%TO.N,Net-(U3-Pad12)*%
%TA.AperFunction,SMDPad,CuDef*%
G36*
G01*
X50785000Y-124500000D02*
X50485000Y-124500000D01*
G75*
G02*
X50335000Y-124350000I0J150000D01*
G01*
X50335000Y-122700000D01*
G75*
G02*
X50485000Y-122550000I150000J0D01*
G01*
X50785000Y-122550000D01*
G75*
G02*
X50935000Y-122700000I0J-150000D01*
G01*
X50935000Y-124350000D01*
G75*
G02*
X50785000Y-124500000I-150000J0D01*
G01*
G37*
%TD.AperFunction*%
%TO.P,U3,11*%
%TO.N,+15V*%
%TA.AperFunction,SMDPad,CuDef*%
G36*
G01*
X52055000Y-124500000D02*
X51755000Y-124500000D01*
G75*
G02*
X51605000Y-124350000I0J150000D01*
G01*
X51605000Y-122700000D01*
G75*
G02*
X51755000Y-122550000I150000J0D01*
G01*
X52055000Y-122550000D01*
G75*
G02*
X52205000Y-122700000I0J-150000D01*
G01*
X52205000Y-124350000D01*
G75*
G02*
X52055000Y-124500000I-150000J0D01*
G01*
G37*
%TD.AperFunction*%
%TO.P,U3,10*%
%TO.N,/PWM_L1*%
%TA.AperFunction,SMDPad,CuDef*%
G36*
G01*
X53325000Y-124500000D02*
X53025000Y-124500000D01*
G75*
G02*
X52875000Y-124350000I0J150000D01*
G01*
X52875000Y-122700000D01*
G75*
G02*
X53025000Y-122550000I150000J0D01*
G01*
X53325000Y-122550000D01*
G75*
G02*
X53475000Y-122700000I0J-150000D01*
G01*
X53475000Y-124350000D01*
G75*
G02*
X53325000Y-124500000I-150000J0D01*
G01*
G37*
%TD.AperFunction*%
%TO.P,U3,9*%
%TO.N,GNDREF*%
%TA.AperFunction,SMDPad,CuDef*%
G36*
G01*
X54595000Y-124500000D02*
X54295000Y-124500000D01*
G75*
G02*
X54145000Y-124350000I0J150000D01*
G01*
X54145000Y-122700000D01*
G75*
G02*
X54295000Y-122550000I150000J0D01*
G01*
X54595000Y-122550000D01*
G75*
G02*
X54745000Y-122700000I0J-150000D01*
G01*
X54745000Y-124350000D01*
G75*
G02*
X54595000Y-124500000I-150000J0D01*
G01*
G37*
%TD.AperFunction*%
%TO.P,U3,8*%
%TO.N,+5VD*%
%TA.AperFunction,SMDPad,CuDef*%
G36*
G01*
X54595000Y-129450000D02*
X54295000Y-129450000D01*
G75*
G02*
X54145000Y-129300000I0J150000D01*
G01*
X54145000Y-127650000D01*
G75*
G02*
X54295000Y-127500000I150000J0D01*
G01*
X54595000Y-127500000D01*
G75*
G02*
X54745000Y-127650000I0J-150000D01*
G01*
X54745000Y-129300000D01*
G75*
G02*
X54595000Y-129450000I-150000J0D01*
G01*
G37*
%TD.AperFunction*%
%TO.P,U3,7*%
%TO.N,Net-(U3-Pad7)*%
%TA.AperFunction,SMDPad,CuDef*%
G36*
G01*
X53325000Y-129450000D02*
X53025000Y-129450000D01*
G75*
G02*
X52875000Y-129300000I0J150000D01*
G01*
X52875000Y-127650000D01*
G75*
G02*
X53025000Y-127500000I150000J0D01*
G01*
X53325000Y-127500000D01*
G75*
G02*
X53475000Y-127650000I0J-150000D01*
G01*
X53475000Y-129300000D01*
G75*
G02*
X53325000Y-129450000I-150000J0D01*
G01*
G37*
%TD.AperFunction*%
%TO.P,U3,6*%
%TO.N,Net-(C5-Pad1)*%
%TA.AperFunction,SMDPad,CuDef*%
G36*
G01*
X52055000Y-129450000D02*
X51755000Y-129450000D01*
G75*
G02*
X51605000Y-129300000I0J150000D01*
G01*
X51605000Y-127650000D01*
G75*
G02*
X51755000Y-127500000I150000J0D01*
G01*
X52055000Y-127500000D01*
G75*
G02*
X52205000Y-127650000I0J-150000D01*
G01*
X52205000Y-129300000D01*
G75*
G02*
X52055000Y-129450000I-150000J0D01*
G01*
G37*
%TD.AperFunction*%
%TO.P,U3,5*%
%TO.N,GNDD*%
%TA.AperFunction,SMDPad,CuDef*%
G36*
G01*
X50785000Y-129450000D02*
X50485000Y-129450000D01*
G75*
G02*
X50335000Y-129300000I0J150000D01*
G01*
X50335000Y-127650000D01*
G75*
G02*
X50485000Y-127500000I150000J0D01*
G01*
X50785000Y-127500000D01*
G75*
G02*
X50935000Y-127650000I0J-150000D01*
G01*
X50935000Y-129300000D01*
G75*
G02*
X50785000Y-129450000I-150000J0D01*
G01*
G37*
%TD.AperFunction*%
%TO.P,U3,4*%
%TA.AperFunction,SMDPad,CuDef*%
G36*
G01*
X49515000Y-129450000D02*
X49215000Y-129450000D01*
G75*
G02*
X49065000Y-129300000I0J150000D01*
G01*
X49065000Y-127650000D01*
G75*
G02*
X49215000Y-127500000I150000J0D01*
G01*
X49515000Y-127500000D01*
G75*
G02*
X49665000Y-127650000I0J-150000D01*
G01*
X49665000Y-129300000D01*
G75*
G02*
X49515000Y-129450000I-150000J0D01*
G01*
G37*
%TD.AperFunction*%
%TO.P,U3,3*%
%TO.N,+5VD*%
%TA.AperFunction,SMDPad,CuDef*%
G36*
G01*
X48245000Y-129450000D02*
X47945000Y-129450000D01*
G75*
G02*
X47795000Y-129300000I0J150000D01*
G01*
X47795000Y-127650000D01*
G75*
G02*
X47945000Y-127500000I150000J0D01*
G01*
X48245000Y-127500000D01*
G75*
G02*
X48395000Y-127650000I0J-150000D01*
G01*
X48395000Y-129300000D01*
G75*
G02*
X48245000Y-129450000I-150000J0D01*
G01*
G37*
%TD.AperFunction*%
%TO.P,U3,2*%
%TO.N,Net-(C2-Pad1)*%
%TA.AperFunction,SMDPad,CuDef*%
G36*
G01*
X46975000Y-129450000D02*
X46675000Y-129450000D01*
G75*
G02*
X46525000Y-129300000I0J150000D01*
G01*
X46525000Y-127650000D01*
G75*
G02*
X46675000Y-127500000I150000J0D01*
G01*
X46975000Y-127500000D01*
G75*
G02*
X47125000Y-127650000I0J-150000D01*
G01*
X47125000Y-129300000D01*
G75*
G02*
X46975000Y-129450000I-150000J0D01*
G01*
G37*
%TD.AperFunction*%
%TO.P,U3,1*%
%TO.N,Net-(C1-Pad2)*%
%TA.AperFunction,SMDPad,CuDef*%
G36*
G01*
X45705000Y-129450000D02*
X45405000Y-129450000D01*
G75*
G02*
X45255000Y-129300000I0J150000D01*
G01*
X45255000Y-127650000D01*
G75*
G02*
X45405000Y-127500000I150000J0D01*
G01*
X45705000Y-127500000D01*
G75*
G02*
X45855000Y-127650000I0J-150000D01*
G01*
X45855000Y-129300000D01*
G75*
G02*
X45705000Y-129450000I-150000J0D01*
G01*
G37*
%TD.AperFunction*%
%TD*%
%TO.P,RBoot2,2*%
%TO.N,+15V*%
%TA.AperFunction,SMDPad,CuDef*%
G36*
G01*
X87612500Y-147043750D02*
X87612500Y-147956250D01*
G75*
G02*
X87368750Y-148200000I-243750J0D01*
G01*
X86881250Y-148200000D01*
G75*
G02*
X86637500Y-147956250I0J243750D01*
G01*
X86637500Y-147043750D01*
G75*
G02*
X86881250Y-146800000I243750J0D01*
G01*
X87368750Y-146800000D01*
G75*
G02*
X87612500Y-147043750I0J-243750D01*
G01*
G37*
%TD.AperFunction*%
%TO.P,RBoot2,1*%
%TO.N,Net-(D_boot2-Pad2)*%
%TA.AperFunction,SMDPad,CuDef*%
G36*
G01*
X89487500Y-147043750D02*
X89487500Y-147956250D01*
G75*
G02*
X89243750Y-148200000I-243750J0D01*
G01*
X88756250Y-148200000D01*
G75*
G02*
X88512500Y-147956250I0J243750D01*
G01*
X88512500Y-147043750D01*
G75*
G02*
X88756250Y-146800000I243750J0D01*
G01*
X89243750Y-146800000D01*
G75*
G02*
X89487500Y-147043750I0J-243750D01*
G01*
G37*
%TD.AperFunction*%
%TD*%
%TO.P,RBoot1,2*%
%TO.N,+15V*%
%TA.AperFunction,SMDPad,CuDef*%
G36*
G01*
X38956250Y-120050000D02*
X38043750Y-120050000D01*
G75*
G02*
X37800000Y-119806250I0J243750D01*
G01*
X37800000Y-119318750D01*
G75*
G02*
X38043750Y-119075000I243750J0D01*
G01*
X38956250Y-119075000D01*
G75*
G02*
X39200000Y-119318750I0J-243750D01*
G01*
X39200000Y-119806250D01*
G75*
G02*
X38956250Y-120050000I-243750J0D01*
G01*
G37*
%TD.AperFunction*%
%TO.P,RBoot1,1*%
%TO.N,Net-(D_boot1-Pad2)*%
%TA.AperFunction,SMDPad,CuDef*%
G36*
G01*
X38956250Y-121925000D02*
X38043750Y-121925000D01*
G75*
G02*
X37800000Y-121681250I0J243750D01*
G01*
X37800000Y-121193750D01*
G75*
G02*
X38043750Y-120950000I243750J0D01*
G01*
X38956250Y-120950000D01*
G75*
G02*
X39200000Y-121193750I0J-243750D01*
G01*
X39200000Y-121681250D01*
G75*
G02*
X38956250Y-121925000I-243750J0D01*
G01*
G37*
%TD.AperFunction*%
%TD*%
%TO.P,R8,2*%
%TO.N,Net-(C11-Pad1)*%
%TA.AperFunction,SMDPad,CuDef*%
G36*
G01*
X79547500Y-127848750D02*
X79547500Y-128761250D01*
G75*
G02*
X79303750Y-129005000I-243750J0D01*
G01*
X78816250Y-129005000D01*
G75*
G02*
X78572500Y-128761250I0J243750D01*
G01*
X78572500Y-127848750D01*
G75*
G02*
X78816250Y-127605000I243750J0D01*
G01*
X79303750Y-127605000D01*
G75*
G02*
X79547500Y-127848750I0J-243750D01*
G01*
G37*
%TD.AperFunction*%
%TO.P,R8,1*%
%TO.N,GNDD*%
%TA.AperFunction,SMDPad,CuDef*%
G36*
G01*
X81422500Y-127848750D02*
X81422500Y-128761250D01*
G75*
G02*
X81178750Y-129005000I-243750J0D01*
G01*
X80691250Y-129005000D01*
G75*
G02*
X80447500Y-128761250I0J243750D01*
G01*
X80447500Y-127848750D01*
G75*
G02*
X80691250Y-127605000I243750J0D01*
G01*
X81178750Y-127605000D01*
G75*
G02*
X81422500Y-127848750I0J-243750D01*
G01*
G37*
%TD.AperFunction*%
%TD*%
%TO.P,R7,2*%
%TO.N,Net-(C8-Pad1)*%
%TA.AperFunction,SMDPad,CuDef*%
G36*
G01*
X84603750Y-124255000D02*
X85516250Y-124255000D01*
G75*
G02*
X85760000Y-124498750I0J-243750D01*
G01*
X85760000Y-124986250D01*
G75*
G02*
X85516250Y-125230000I-243750J0D01*
G01*
X84603750Y-125230000D01*
G75*
G02*
X84360000Y-124986250I0J243750D01*
G01*
X84360000Y-124498750D01*
G75*
G02*
X84603750Y-124255000I243750J0D01*
G01*
G37*
%TD.AperFunction*%
%TO.P,R7,1*%
%TO.N,/PWM_L2_D*%
%TA.AperFunction,SMDPad,CuDef*%
G36*
G01*
X84603750Y-122380000D02*
X85516250Y-122380000D01*
G75*
G02*
X85760000Y-122623750I0J-243750D01*
G01*
X85760000Y-123111250D01*
G75*
G02*
X85516250Y-123355000I-243750J0D01*
G01*
X84603750Y-123355000D01*
G75*
G02*
X84360000Y-123111250I0J243750D01*
G01*
X84360000Y-122623750D01*
G75*
G02*
X84603750Y-122380000I243750J0D01*
G01*
G37*
%TD.AperFunction*%
%TD*%
%TO.P,R6,2*%
%TO.N,Net-(C7-Pad2)*%
%TA.AperFunction,SMDPad,CuDef*%
G36*
G01*
X86603750Y-124255000D02*
X87516250Y-124255000D01*
G75*
G02*
X87760000Y-124498750I0J-243750D01*
G01*
X87760000Y-124986250D01*
G75*
G02*
X87516250Y-125230000I-243750J0D01*
G01*
X86603750Y-125230000D01*
G75*
G02*
X86360000Y-124986250I0J243750D01*
G01*
X86360000Y-124498750D01*
G75*
G02*
X86603750Y-124255000I243750J0D01*
G01*
G37*
%TD.AperFunction*%
%TO.P,R6,1*%
%TO.N,/PWM_H2_D*%
%TA.AperFunction,SMDPad,CuDef*%
G36*
G01*
X86603750Y-122380000D02*
X87516250Y-122380000D01*
G75*
G02*
X87760000Y-122623750I0J-243750D01*
G01*
X87760000Y-123111250D01*
G75*
G02*
X87516250Y-123355000I-243750J0D01*
G01*
X86603750Y-123355000D01*
G75*
G02*
X86360000Y-123111250I0J243750D01*
G01*
X86360000Y-122623750D01*
G75*
G02*
X86603750Y-122380000I243750J0D01*
G01*
G37*
%TD.AperFunction*%
%TD*%
%TO.P,R5,2*%
%TO.N,GNDREF*%
%TA.AperFunction,SMDPad,CuDef*%
G36*
G01*
X94950000Y-139956250D02*
X94950000Y-139043750D01*
G75*
G02*
X95193750Y-138800000I243750J0D01*
G01*
X95681250Y-138800000D01*
G75*
G02*
X95925000Y-139043750I0J-243750D01*
G01*
X95925000Y-139956250D01*
G75*
G02*
X95681250Y-140200000I-243750J0D01*
G01*
X95193750Y-140200000D01*
G75*
G02*
X94950000Y-139956250I0J243750D01*
G01*
G37*
%TD.AperFunction*%
%TO.P,R5,1*%
%TO.N,/Neutral_GND_cmd*%
%TA.AperFunction,SMDPad,CuDef*%
G36*
G01*
X93075000Y-139956250D02*
X93075000Y-139043750D01*
G75*
G02*
X93318750Y-138800000I243750J0D01*
G01*
X93806250Y-138800000D01*
G75*
G02*
X94050000Y-139043750I0J-243750D01*
G01*
X94050000Y-139956250D01*
G75*
G02*
X93806250Y-140200000I-243750J0D01*
G01*
X93318750Y-140200000D01*
G75*
G02*
X93075000Y-139956250I0J243750D01*
G01*
G37*
%TD.AperFunction*%
%TD*%
%TO.P,R4,2*%
%TO.N,GNDD*%
%TA.AperFunction,SMDPad,CuDef*%
G36*
G01*
X92450000Y-126956250D02*
X92450000Y-126043750D01*
G75*
G02*
X92693750Y-125800000I243750J0D01*
G01*
X93181250Y-125800000D01*
G75*
G02*
X93425000Y-126043750I0J-243750D01*
G01*
X93425000Y-126956250D01*
G75*
G02*
X93181250Y-127200000I-243750J0D01*
G01*
X92693750Y-127200000D01*
G75*
G02*
X92450000Y-126956250I0J243750D01*
G01*
G37*
%TD.AperFunction*%
%TO.P,R4,1*%
%TO.N,Net-(R4-Pad1)*%
%TA.AperFunction,SMDPad,CuDef*%
G36*
G01*
X90575000Y-126956250D02*
X90575000Y-126043750D01*
G75*
G02*
X90818750Y-125800000I243750J0D01*
G01*
X91306250Y-125800000D01*
G75*
G02*
X91550000Y-126043750I0J-243750D01*
G01*
X91550000Y-126956250D01*
G75*
G02*
X91306250Y-127200000I-243750J0D01*
G01*
X90818750Y-127200000D01*
G75*
G02*
X90575000Y-126956250I0J243750D01*
G01*
G37*
%TD.AperFunction*%
%TD*%
%TO.P,R3,2*%
%TO.N,Net-(C5-Pad1)*%
%TA.AperFunction,SMDPad,CuDef*%
G36*
G01*
X52112500Y-131521250D02*
X52112500Y-130608750D01*
G75*
G02*
X52356250Y-130365000I243750J0D01*
G01*
X52843750Y-130365000D01*
G75*
G02*
X53087500Y-130608750I0J-243750D01*
G01*
X53087500Y-131521250D01*
G75*
G02*
X52843750Y-131765000I-243750J0D01*
G01*
X52356250Y-131765000D01*
G75*
G02*
X52112500Y-131521250I0J243750D01*
G01*
G37*
%TD.AperFunction*%
%TO.P,R3,1*%
%TO.N,GNDD*%
%TA.AperFunction,SMDPad,CuDef*%
G36*
G01*
X50237500Y-131521250D02*
X50237500Y-130608750D01*
G75*
G02*
X50481250Y-130365000I243750J0D01*
G01*
X50968750Y-130365000D01*
G75*
G02*
X51212500Y-130608750I0J-243750D01*
G01*
X51212500Y-131521250D01*
G75*
G02*
X50968750Y-131765000I-243750J0D01*
G01*
X50481250Y-131765000D01*
G75*
G02*
X50237500Y-131521250I0J243750D01*
G01*
G37*
%TD.AperFunction*%
%TD*%
%TO.P,R2,2*%
%TO.N,Net-(C2-Pad1)*%
%TA.AperFunction,SMDPad,CuDef*%
G36*
G01*
X47281250Y-133330000D02*
X46368750Y-133330000D01*
G75*
G02*
X46125000Y-133086250I0J243750D01*
G01*
X46125000Y-132598750D01*
G75*
G02*
X46368750Y-132355000I243750J0D01*
G01*
X47281250Y-132355000D01*
G75*
G02*
X47525000Y-132598750I0J-243750D01*
G01*
X47525000Y-133086250D01*
G75*
G02*
X47281250Y-133330000I-243750J0D01*
G01*
G37*
%TD.AperFunction*%
%TO.P,R2,1*%
%TO.N,/PWM_L1_D*%
%TA.AperFunction,SMDPad,CuDef*%
G36*
G01*
X47281250Y-135205000D02*
X46368750Y-135205000D01*
G75*
G02*
X46125000Y-134961250I0J243750D01*
G01*
X46125000Y-134473750D01*
G75*
G02*
X46368750Y-134230000I243750J0D01*
G01*
X47281250Y-134230000D01*
G75*
G02*
X47525000Y-134473750I0J-243750D01*
G01*
X47525000Y-134961250D01*
G75*
G02*
X47281250Y-135205000I-243750J0D01*
G01*
G37*
%TD.AperFunction*%
%TD*%
%TO.P,R1,2*%
%TO.N,Net-(C1-Pad2)*%
%TA.AperFunction,SMDPad,CuDef*%
G36*
G01*
X45281250Y-133330000D02*
X44368750Y-133330000D01*
G75*
G02*
X44125000Y-133086250I0J243750D01*
G01*
X44125000Y-132598750D01*
G75*
G02*
X44368750Y-132355000I243750J0D01*
G01*
X45281250Y-132355000D01*
G75*
G02*
X45525000Y-132598750I0J-243750D01*
G01*
X45525000Y-133086250D01*
G75*
G02*
X45281250Y-133330000I-243750J0D01*
G01*
G37*
%TD.AperFunction*%
%TO.P,R1,1*%
%TO.N,/PWM_H1_D*%
%TA.AperFunction,SMDPad,CuDef*%
G36*
G01*
X45281250Y-135205000D02*
X44368750Y-135205000D01*
G75*
G02*
X44125000Y-134961250I0J243750D01*
G01*
X44125000Y-134473750D01*
G75*
G02*
X44368750Y-134230000I243750J0D01*
G01*
X45281250Y-134230000D01*
G75*
G02*
X45525000Y-134473750I0J-243750D01*
G01*
X45525000Y-134961250D01*
G75*
G02*
X45281250Y-135205000I-243750J0D01*
G01*
G37*
%TD.AperFunction*%
%TD*%
%TO.P,CBoot4,2*%
%TO.N,/SW_Node2*%
%TA.AperFunction,SMDPad,CuDef*%
G36*
G01*
X84547500Y-140348750D02*
X84547500Y-141261250D01*
G75*
G02*
X84303750Y-141505000I-243750J0D01*
G01*
X83816250Y-141505000D01*
G75*
G02*
X83572500Y-141261250I0J243750D01*
G01*
X83572500Y-140348750D01*
G75*
G02*
X83816250Y-140105000I243750J0D01*
G01*
X84303750Y-140105000D01*
G75*
G02*
X84547500Y-140348750I0J-243750D01*
G01*
G37*
%TD.AperFunction*%
%TO.P,CBoot4,1*%
%TO.N,Net-(CBoot3-Pad1)*%
%TA.AperFunction,SMDPad,CuDef*%
G36*
G01*
X86422500Y-140348750D02*
X86422500Y-141261250D01*
G75*
G02*
X86178750Y-141505000I-243750J0D01*
G01*
X85691250Y-141505000D01*
G75*
G02*
X85447500Y-141261250I0J243750D01*
G01*
X85447500Y-140348750D01*
G75*
G02*
X85691250Y-140105000I243750J0D01*
G01*
X86178750Y-140105000D01*
G75*
G02*
X86422500Y-140348750I0J-243750D01*
G01*
G37*
%TD.AperFunction*%
%TD*%
%TO.P,CBoot3,2*%
%TO.N,/SW_Node2*%
%TA.AperFunction,SMDPad,CuDef*%
G36*
G01*
X84547500Y-138348750D02*
X84547500Y-139261250D01*
G75*
G02*
X84303750Y-139505000I-243750J0D01*
G01*
X83816250Y-139505000D01*
G75*
G02*
X83572500Y-139261250I0J243750D01*
G01*
X83572500Y-138348750D01*
G75*
G02*
X83816250Y-138105000I243750J0D01*
G01*
X84303750Y-138105000D01*
G75*
G02*
X84547500Y-138348750I0J-243750D01*
G01*
G37*
%TD.AperFunction*%
%TO.P,CBoot3,1*%
%TO.N,Net-(CBoot3-Pad1)*%
%TA.AperFunction,SMDPad,CuDef*%
G36*
G01*
X86422500Y-138348750D02*
X86422500Y-139261250D01*
G75*
G02*
X86178750Y-139505000I-243750J0D01*
G01*
X85691250Y-139505000D01*
G75*
G02*
X85447500Y-139261250I0J243750D01*
G01*
X85447500Y-138348750D01*
G75*
G02*
X85691250Y-138105000I243750J0D01*
G01*
X86178750Y-138105000D01*
G75*
G02*
X86422500Y-138348750I0J-243750D01*
G01*
G37*
%TD.AperFunction*%
%TD*%
%TO.P,CBoot2,2*%
%TO.N,/SW_Node1*%
%TA.AperFunction,SMDPad,CuDef*%
G36*
G01*
X47050000Y-119021250D02*
X47050000Y-118108750D01*
G75*
G02*
X47293750Y-117865000I243750J0D01*
G01*
X47781250Y-117865000D01*
G75*
G02*
X48025000Y-118108750I0J-243750D01*
G01*
X48025000Y-119021250D01*
G75*
G02*
X47781250Y-119265000I-243750J0D01*
G01*
X47293750Y-119265000D01*
G75*
G02*
X47050000Y-119021250I0J243750D01*
G01*
G37*
%TD.AperFunction*%
%TO.P,CBoot2,1*%
%TO.N,Net-(CBoot1-Pad1)*%
%TA.AperFunction,SMDPad,CuDef*%
G36*
G01*
X45175000Y-119021250D02*
X45175000Y-118108750D01*
G75*
G02*
X45418750Y-117865000I243750J0D01*
G01*
X45906250Y-117865000D01*
G75*
G02*
X46150000Y-118108750I0J-243750D01*
G01*
X46150000Y-119021250D01*
G75*
G02*
X45906250Y-119265000I-243750J0D01*
G01*
X45418750Y-119265000D01*
G75*
G02*
X45175000Y-119021250I0J243750D01*
G01*
G37*
%TD.AperFunction*%
%TD*%
%TO.P,CBoot1,2*%
%TO.N,/SW_Node1*%
%TA.AperFunction,SMDPad,CuDef*%
G36*
G01*
X47050000Y-121521250D02*
X47050000Y-120608750D01*
G75*
G02*
X47293750Y-120365000I243750J0D01*
G01*
X47781250Y-120365000D01*
G75*
G02*
X48025000Y-120608750I0J-243750D01*
G01*
X48025000Y-121521250D01*
G75*
G02*
X47781250Y-121765000I-243750J0D01*
G01*
X47293750Y-121765000D01*
G75*
G02*
X47050000Y-121521250I0J243750D01*
G01*
G37*
%TD.AperFunction*%
%TO.P,CBoot1,1*%
%TO.N,Net-(CBoot1-Pad1)*%
%TA.AperFunction,SMDPad,CuDef*%
G36*
G01*
X45175000Y-121521250D02*
X45175000Y-120608750D01*
G75*
G02*
X45418750Y-120365000I243750J0D01*
G01*
X45906250Y-120365000D01*
G75*
G02*
X46150000Y-120608750I0J-243750D01*
G01*
X46150000Y-121521250D01*
G75*
G02*
X45906250Y-121765000I-243750J0D01*
G01*
X45418750Y-121765000D01*
G75*
G02*
X45175000Y-121521250I0J243750D01*
G01*
G37*
%TD.AperFunction*%
%TD*%
%TO.P,C_VDDB4,2*%
%TO.N,GNDREF*%
%TA.AperFunction,SMDPad,CuDef*%
G36*
G01*
X77385000Y-138230000D02*
X77385000Y-140380000D01*
G75*
G02*
X77135000Y-140630000I-250000J0D01*
G01*
X76385000Y-140630000D01*
G75*
G02*
X76135000Y-140380000I0J250000D01*
G01*
X76135000Y-138230000D01*
G75*
G02*
X76385000Y-137980000I250000J0D01*
G01*
X77135000Y-137980000D01*
G75*
G02*
X77385000Y-138230000I0J-250000D01*
G01*
G37*
%TD.AperFunction*%
%TO.P,C_VDDB4,1*%
%TO.N,+15V*%
%TA.AperFunction,SMDPad,CuDef*%
G36*
G01*
X80185000Y-138230000D02*
X80185000Y-140380000D01*
G75*
G02*
X79935000Y-140630000I-250000J0D01*
G01*
X79185000Y-140630000D01*
G75*
G02*
X78935000Y-140380000I0J250000D01*
G01*
X78935000Y-138230000D01*
G75*
G02*
X79185000Y-137980000I250000J0D01*
G01*
X79935000Y-137980000D01*
G75*
G02*
X80185000Y-138230000I0J-250000D01*
G01*
G37*
%TD.AperFunction*%
%TD*%
%TO.P,C_VDDB3,2*%
%TO.N,GNDREF*%
%TA.AperFunction,SMDPad,CuDef*%
G36*
G01*
X77610000Y-141848750D02*
X77610000Y-142761250D01*
G75*
G02*
X77366250Y-143005000I-243750J0D01*
G01*
X76878750Y-143005000D01*
G75*
G02*
X76635000Y-142761250I0J243750D01*
G01*
X76635000Y-141848750D01*
G75*
G02*
X76878750Y-141605000I243750J0D01*
G01*
X77366250Y-141605000D01*
G75*
G02*
X77610000Y-141848750I0J-243750D01*
G01*
G37*
%TD.AperFunction*%
%TO.P,C_VDDB3,1*%
%TO.N,+15V*%
%TA.AperFunction,SMDPad,CuDef*%
G36*
G01*
X79485000Y-141848750D02*
X79485000Y-142761250D01*
G75*
G02*
X79241250Y-143005000I-243750J0D01*
G01*
X78753750Y-143005000D01*
G75*
G02*
X78510000Y-142761250I0J243750D01*
G01*
X78510000Y-141848750D01*
G75*
G02*
X78753750Y-141605000I243750J0D01*
G01*
X79241250Y-141605000D01*
G75*
G02*
X79485000Y-141848750I0J-243750D01*
G01*
G37*
%TD.AperFunction*%
%TD*%
%TO.P,C_VDDB2,2*%
%TO.N,GNDREF*%
%TA.AperFunction,SMDPad,CuDef*%
G36*
G01*
X53675000Y-121575000D02*
X53675000Y-119425000D01*
G75*
G02*
X53925000Y-119175000I250000J0D01*
G01*
X54675000Y-119175000D01*
G75*
G02*
X54925000Y-119425000I0J-250000D01*
G01*
X54925000Y-121575000D01*
G75*
G02*
X54675000Y-121825000I-250000J0D01*
G01*
X53925000Y-121825000D01*
G75*
G02*
X53675000Y-121575000I0J250000D01*
G01*
G37*
%TD.AperFunction*%
%TO.P,C_VDDB2,1*%
%TO.N,+15V*%
%TA.AperFunction,SMDPad,CuDef*%
G36*
G01*
X50875000Y-121575000D02*
X50875000Y-119425000D01*
G75*
G02*
X51125000Y-119175000I250000J0D01*
G01*
X51875000Y-119175000D01*
G75*
G02*
X52125000Y-119425000I0J-250000D01*
G01*
X52125000Y-121575000D01*
G75*
G02*
X51875000Y-121825000I-250000J0D01*
G01*
X51125000Y-121825000D01*
G75*
G02*
X50875000Y-121575000I0J250000D01*
G01*
G37*
%TD.AperFunction*%
%TD*%
%TO.P,C_VDDB1,2*%
%TO.N,GNDREF*%
%TA.AperFunction,SMDPad,CuDef*%
G36*
G01*
X53887500Y-118456250D02*
X53887500Y-117543750D01*
G75*
G02*
X54131250Y-117300000I243750J0D01*
G01*
X54618750Y-117300000D01*
G75*
G02*
X54862500Y-117543750I0J-243750D01*
G01*
X54862500Y-118456250D01*
G75*
G02*
X54618750Y-118700000I-243750J0D01*
G01*
X54131250Y-118700000D01*
G75*
G02*
X53887500Y-118456250I0J243750D01*
G01*
G37*
%TD.AperFunction*%
%TO.P,C_VDDB1,1*%
%TO.N,+15V*%
%TA.AperFunction,SMDPad,CuDef*%
G36*
G01*
X52012500Y-118456250D02*
X52012500Y-117543750D01*
G75*
G02*
X52256250Y-117300000I243750J0D01*
G01*
X52743750Y-117300000D01*
G75*
G02*
X52987500Y-117543750I0J-243750D01*
G01*
X52987500Y-118456250D01*
G75*
G02*
X52743750Y-118700000I-243750J0D01*
G01*
X52256250Y-118700000D01*
G75*
G02*
X52012500Y-118456250I0J243750D01*
G01*
G37*
%TD.AperFunction*%
%TD*%
%TO.P,C12,2*%
%TO.N,+5VD*%
%TA.AperFunction,SMDPad,CuDef*%
G36*
G01*
X82603750Y-127817500D02*
X83516250Y-127817500D01*
G75*
G02*
X83760000Y-128061250I0J-243750D01*
G01*
X83760000Y-128548750D01*
G75*
G02*
X83516250Y-128792500I-243750J0D01*
G01*
X82603750Y-128792500D01*
G75*
G02*
X82360000Y-128548750I0J243750D01*
G01*
X82360000Y-128061250D01*
G75*
G02*
X82603750Y-127817500I243750J0D01*
G01*
G37*
%TD.AperFunction*%
%TO.P,C12,1*%
%TO.N,GNDD*%
%TA.AperFunction,SMDPad,CuDef*%
G36*
G01*
X82603750Y-125942500D02*
X83516250Y-125942500D01*
G75*
G02*
X83760000Y-126186250I0J-243750D01*
G01*
X83760000Y-126673750D01*
G75*
G02*
X83516250Y-126917500I-243750J0D01*
G01*
X82603750Y-126917500D01*
G75*
G02*
X82360000Y-126673750I0J243750D01*
G01*
X82360000Y-126186250D01*
G75*
G02*
X82603750Y-125942500I243750J0D01*
G01*
G37*
%TD.AperFunction*%
%TD*%
%TO.P,C11,2*%
%TO.N,GNDD*%
%TA.AperFunction,SMDPad,CuDef*%
G36*
G01*
X80447500Y-126761250D02*
X80447500Y-125848750D01*
G75*
G02*
X80691250Y-125605000I243750J0D01*
G01*
X81178750Y-125605000D01*
G75*
G02*
X81422500Y-125848750I0J-243750D01*
G01*
X81422500Y-126761250D01*
G75*
G02*
X81178750Y-127005000I-243750J0D01*
G01*
X80691250Y-127005000D01*
G75*
G02*
X80447500Y-126761250I0J243750D01*
G01*
G37*
%TD.AperFunction*%
%TO.P,C11,1*%
%TO.N,Net-(C11-Pad1)*%
%TA.AperFunction,SMDPad,CuDef*%
G36*
G01*
X78572500Y-126761250D02*
X78572500Y-125848750D01*
G75*
G02*
X78816250Y-125605000I243750J0D01*
G01*
X79303750Y-125605000D01*
G75*
G02*
X79547500Y-125848750I0J-243750D01*
G01*
X79547500Y-126761250D01*
G75*
G02*
X79303750Y-127005000I-243750J0D01*
G01*
X78816250Y-127005000D01*
G75*
G02*
X78572500Y-126761250I0J243750D01*
G01*
G37*
%TD.AperFunction*%
%TD*%
%TO.P,C10,2*%
%TO.N,+5VD*%
%TA.AperFunction,SMDPad,CuDef*%
G36*
G01*
X77010000Y-126761250D02*
X77010000Y-125848750D01*
G75*
G02*
X77253750Y-125605000I243750J0D01*
G01*
X77741250Y-125605000D01*
G75*
G02*
X77985000Y-125848750I0J-243750D01*
G01*
X77985000Y-126761250D01*
G75*
G02*
X77741250Y-127005000I-243750J0D01*
G01*
X77253750Y-127005000D01*
G75*
G02*
X77010000Y-126761250I0J243750D01*
G01*
G37*
%TD.AperFunction*%
%TO.P,C10,1*%
%TO.N,GNDD*%
%TA.AperFunction,SMDPad,CuDef*%
G36*
G01*
X75135000Y-126761250D02*
X75135000Y-125848750D01*
G75*
G02*
X75378750Y-125605000I243750J0D01*
G01*
X75866250Y-125605000D01*
G75*
G02*
X76110000Y-125848750I0J-243750D01*
G01*
X76110000Y-126761250D01*
G75*
G02*
X75866250Y-127005000I-243750J0D01*
G01*
X75378750Y-127005000D01*
G75*
G02*
X75135000Y-126761250I0J243750D01*
G01*
G37*
%TD.AperFunction*%
%TD*%
%TO.P,C9,2*%
%TO.N,+5VD*%
%TA.AperFunction,SMDPad,CuDef*%
G36*
G01*
X77010000Y-128761250D02*
X77010000Y-127848750D01*
G75*
G02*
X77253750Y-127605000I243750J0D01*
G01*
X77741250Y-127605000D01*
G75*
G02*
X77985000Y-127848750I0J-243750D01*
G01*
X77985000Y-128761250D01*
G75*
G02*
X77741250Y-129005000I-243750J0D01*
G01*
X77253750Y-129005000D01*
G75*
G02*
X77010000Y-128761250I0J243750D01*
G01*
G37*
%TD.AperFunction*%
%TO.P,C9,1*%
%TO.N,GNDD*%
%TA.AperFunction,SMDPad,CuDef*%
G36*
G01*
X75135000Y-128761250D02*
X75135000Y-127848750D01*
G75*
G02*
X75378750Y-127605000I243750J0D01*
G01*
X75866250Y-127605000D01*
G75*
G02*
X76110000Y-127848750I0J-243750D01*
G01*
X76110000Y-128761250D01*
G75*
G02*
X75866250Y-129005000I-243750J0D01*
G01*
X75378750Y-129005000D01*
G75*
G02*
X75135000Y-128761250I0J243750D01*
G01*
G37*
%TD.AperFunction*%
%TD*%
%TO.P,C8,2*%
%TO.N,GNDD*%
%TA.AperFunction,SMDPad,CuDef*%
G36*
G01*
X83516250Y-123355000D02*
X82603750Y-123355000D01*
G75*
G02*
X82360000Y-123111250I0J243750D01*
G01*
X82360000Y-122623750D01*
G75*
G02*
X82603750Y-122380000I243750J0D01*
G01*
X83516250Y-122380000D01*
G75*
G02*
X83760000Y-122623750I0J-243750D01*
G01*
X83760000Y-123111250D01*
G75*
G02*
X83516250Y-123355000I-243750J0D01*
G01*
G37*
%TD.AperFunction*%
%TO.P,C8,1*%
%TO.N,Net-(C8-Pad1)*%
%TA.AperFunction,SMDPad,CuDef*%
G36*
G01*
X83516250Y-125230000D02*
X82603750Y-125230000D01*
G75*
G02*
X82360000Y-124986250I0J243750D01*
G01*
X82360000Y-124498750D01*
G75*
G02*
X82603750Y-124255000I243750J0D01*
G01*
X83516250Y-124255000D01*
G75*
G02*
X83760000Y-124498750I0J-243750D01*
G01*
X83760000Y-124986250D01*
G75*
G02*
X83516250Y-125230000I-243750J0D01*
G01*
G37*
%TD.AperFunction*%
%TD*%
%TO.P,C7,2*%
%TO.N,Net-(C7-Pad2)*%
%TA.AperFunction,SMDPad,CuDef*%
G36*
G01*
X88603750Y-124255000D02*
X89516250Y-124255000D01*
G75*
G02*
X89760000Y-124498750I0J-243750D01*
G01*
X89760000Y-124986250D01*
G75*
G02*
X89516250Y-125230000I-243750J0D01*
G01*
X88603750Y-125230000D01*
G75*
G02*
X88360000Y-124986250I0J243750D01*
G01*
X88360000Y-124498750D01*
G75*
G02*
X88603750Y-124255000I243750J0D01*
G01*
G37*
%TD.AperFunction*%
%TO.P,C7,1*%
%TO.N,GNDD*%
%TA.AperFunction,SMDPad,CuDef*%
G36*
G01*
X88603750Y-122380000D02*
X89516250Y-122380000D01*
G75*
G02*
X89760000Y-122623750I0J-243750D01*
G01*
X89760000Y-123111250D01*
G75*
G02*
X89516250Y-123355000I-243750J0D01*
G01*
X88603750Y-123355000D01*
G75*
G02*
X88360000Y-123111250I0J243750D01*
G01*
X88360000Y-122623750D01*
G75*
G02*
X88603750Y-122380000I243750J0D01*
G01*
G37*
%TD.AperFunction*%
%TD*%
%TO.P,C6,2*%
%TO.N,+5VD*%
%TA.AperFunction,SMDPad,CuDef*%
G36*
G01*
X47612500Y-130543750D02*
X47612500Y-131456250D01*
G75*
G02*
X47368750Y-131700000I-243750J0D01*
G01*
X46881250Y-131700000D01*
G75*
G02*
X46637500Y-131456250I0J243750D01*
G01*
X46637500Y-130543750D01*
G75*
G02*
X46881250Y-130300000I243750J0D01*
G01*
X47368750Y-130300000D01*
G75*
G02*
X47612500Y-130543750I0J-243750D01*
G01*
G37*
%TD.AperFunction*%
%TO.P,C6,1*%
%TO.N,GNDD*%
%TA.AperFunction,SMDPad,CuDef*%
G36*
G01*
X49487500Y-130543750D02*
X49487500Y-131456250D01*
G75*
G02*
X49243750Y-131700000I-243750J0D01*
G01*
X48756250Y-131700000D01*
G75*
G02*
X48512500Y-131456250I0J243750D01*
G01*
X48512500Y-130543750D01*
G75*
G02*
X48756250Y-130300000I243750J0D01*
G01*
X49243750Y-130300000D01*
G75*
G02*
X49487500Y-130543750I0J-243750D01*
G01*
G37*
%TD.AperFunction*%
%TD*%
%TO.P,C5,2*%
%TO.N,GNDD*%
%TA.AperFunction,SMDPad,CuDef*%
G36*
G01*
X51212500Y-132608750D02*
X51212500Y-133521250D01*
G75*
G02*
X50968750Y-133765000I-243750J0D01*
G01*
X50481250Y-133765000D01*
G75*
G02*
X50237500Y-133521250I0J243750D01*
G01*
X50237500Y-132608750D01*
G75*
G02*
X50481250Y-132365000I243750J0D01*
G01*
X50968750Y-132365000D01*
G75*
G02*
X51212500Y-132608750I0J-243750D01*
G01*
G37*
%TD.AperFunction*%
%TO.P,C5,1*%
%TO.N,Net-(C5-Pad1)*%
%TA.AperFunction,SMDPad,CuDef*%
G36*
G01*
X53087500Y-132608750D02*
X53087500Y-133521250D01*
G75*
G02*
X52843750Y-133765000I-243750J0D01*
G01*
X52356250Y-133765000D01*
G75*
G02*
X52112500Y-133521250I0J243750D01*
G01*
X52112500Y-132608750D01*
G75*
G02*
X52356250Y-132365000I243750J0D01*
G01*
X52843750Y-132365000D01*
G75*
G02*
X53087500Y-132608750I0J-243750D01*
G01*
G37*
%TD.AperFunction*%
%TD*%
%TO.P,C4,2*%
%TO.N,+5VD*%
%TA.AperFunction,SMDPad,CuDef*%
G36*
G01*
X55050000Y-132543750D02*
X55050000Y-133456250D01*
G75*
G02*
X54806250Y-133700000I-243750J0D01*
G01*
X54318750Y-133700000D01*
G75*
G02*
X54075000Y-133456250I0J243750D01*
G01*
X54075000Y-132543750D01*
G75*
G02*
X54318750Y-132300000I243750J0D01*
G01*
X54806250Y-132300000D01*
G75*
G02*
X55050000Y-132543750I0J-243750D01*
G01*
G37*
%TD.AperFunction*%
%TO.P,C4,1*%
%TO.N,GNDD*%
%TA.AperFunction,SMDPad,CuDef*%
G36*
G01*
X56925000Y-132543750D02*
X56925000Y-133456250D01*
G75*
G02*
X56681250Y-133700000I-243750J0D01*
G01*
X56193750Y-133700000D01*
G75*
G02*
X55950000Y-133456250I0J243750D01*
G01*
X55950000Y-132543750D01*
G75*
G02*
X56193750Y-132300000I243750J0D01*
G01*
X56681250Y-132300000D01*
G75*
G02*
X56925000Y-132543750I0J-243750D01*
G01*
G37*
%TD.AperFunction*%
%TD*%
%TO.P,C3,2*%
%TO.N,+5VD*%
%TA.AperFunction,SMDPad,CuDef*%
G36*
G01*
X55087500Y-130543750D02*
X55087500Y-131456250D01*
G75*
G02*
X54843750Y-131700000I-243750J0D01*
G01*
X54356250Y-131700000D01*
G75*
G02*
X54112500Y-131456250I0J243750D01*
G01*
X54112500Y-130543750D01*
G75*
G02*
X54356250Y-130300000I243750J0D01*
G01*
X54843750Y-130300000D01*
G75*
G02*
X55087500Y-130543750I0J-243750D01*
G01*
G37*
%TD.AperFunction*%
%TO.P,C3,1*%
%TO.N,GNDD*%
%TA.AperFunction,SMDPad,CuDef*%
G36*
G01*
X56962500Y-130543750D02*
X56962500Y-131456250D01*
G75*
G02*
X56718750Y-131700000I-243750J0D01*
G01*
X56231250Y-131700000D01*
G75*
G02*
X55987500Y-131456250I0J243750D01*
G01*
X55987500Y-130543750D01*
G75*
G02*
X56231250Y-130300000I243750J0D01*
G01*
X56718750Y-130300000D01*
G75*
G02*
X56962500Y-130543750I0J-243750D01*
G01*
G37*
%TD.AperFunction*%
%TD*%
%TO.P,C2,2*%
%TO.N,GNDD*%
%TA.AperFunction,SMDPad,CuDef*%
G36*
G01*
X48368750Y-134230000D02*
X49281250Y-134230000D01*
G75*
G02*
X49525000Y-134473750I0J-243750D01*
G01*
X49525000Y-134961250D01*
G75*
G02*
X49281250Y-135205000I-243750J0D01*
G01*
X48368750Y-135205000D01*
G75*
G02*
X48125000Y-134961250I0J243750D01*
G01*
X48125000Y-134473750D01*
G75*
G02*
X48368750Y-134230000I243750J0D01*
G01*
G37*
%TD.AperFunction*%
%TO.P,C2,1*%
%TO.N,Net-(C2-Pad1)*%
%TA.AperFunction,SMDPad,CuDef*%
G36*
G01*
X48368750Y-132355000D02*
X49281250Y-132355000D01*
G75*
G02*
X49525000Y-132598750I0J-243750D01*
G01*
X49525000Y-133086250D01*
G75*
G02*
X49281250Y-133330000I-243750J0D01*
G01*
X48368750Y-133330000D01*
G75*
G02*
X48125000Y-133086250I0J243750D01*
G01*
X48125000Y-132598750D01*
G75*
G02*
X48368750Y-132355000I243750J0D01*
G01*
G37*
%TD.AperFunction*%
%TD*%
%TO.P,C1,2*%
%TO.N,Net-(C1-Pad2)*%
%TA.AperFunction,SMDPad,CuDef*%
G36*
G01*
X43281250Y-133330000D02*
X42368750Y-133330000D01*
G75*
G02*
X42125000Y-133086250I0J243750D01*
G01*
X42125000Y-132598750D01*
G75*
G02*
X42368750Y-132355000I243750J0D01*
G01*
X43281250Y-132355000D01*
G75*
G02*
X43525000Y-132598750I0J-243750D01*
G01*
X43525000Y-133086250D01*
G75*
G02*
X43281250Y-133330000I-243750J0D01*
G01*
G37*
%TD.AperFunction*%
%TO.P,C1,1*%
%TO.N,GNDD*%
%TA.AperFunction,SMDPad,CuDef*%
G36*
G01*
X43281250Y-135205000D02*
X42368750Y-135205000D01*
G75*
G02*
X42125000Y-134961250I0J243750D01*
G01*
X42125000Y-134473750D01*
G75*
G02*
X42368750Y-134230000I243750J0D01*
G01*
X43281250Y-134230000D01*
G75*
G02*
X43525000Y-134473750I0J-243750D01*
G01*
X43525000Y-134961250D01*
G75*
G02*
X43281250Y-135205000I-243750J0D01*
G01*
G37*
%TD.AperFunction*%
%TD*%
D15*
%TO.N,GNDD*%
X50500000Y-136000000D03*
X50500000Y-134500000D03*
X41000000Y-134500000D03*
X41000000Y-136000000D03*
X81000000Y-123000000D03*
X81000000Y-124500000D03*
X91000000Y-123000000D03*
X91000000Y-124500000D03*
X93000000Y-123000000D03*
X93000000Y-124500000D03*
X75500000Y-124500000D03*
X75500000Y-123000000D03*
X56500000Y-134500000D03*
X56500000Y-136000000D03*
%TO.N,GNDREF*%
X33000000Y-123500000D03*
X35000000Y-123500000D03*
X37000000Y-123500000D03*
X66000000Y-136000000D03*
X66000000Y-138500000D03*
X68000000Y-138500000D03*
X100500000Y-142000000D03*
X102500000Y-142000000D03*
X104500000Y-142000000D03*
X100500000Y-136500000D03*
X102500000Y-136500000D03*
X104500000Y-136500000D03*
X56500000Y-120500000D03*
X58500000Y-120500000D03*
X66000000Y-131500000D03*
X66000000Y-130000000D03*
%TO.N,+15V*%
X36749969Y-119349969D03*
X51400000Y-118200000D03*
X80500000Y-142700000D03*
X95900000Y-136800000D03*
X87100000Y-149100000D03*
%TO.N,/SW_Node2*%
X84099998Y-142600000D03*
%TO.N,/PWM_L1*%
X52900000Y-121800000D03*
%TO.N,/PWM_L2*%
X78100000Y-137500000D03*
%TO.N,+5VD*%
X84750000Y-126500000D03*
%TD*%
D16*
%TO.N,Net-(C1-Pad2)*%
X44825000Y-132842500D02*
X44825000Y-130675000D01*
X45555000Y-129945000D02*
X45555000Y-128475000D01*
X44825000Y-130675000D02*
X45555000Y-129945000D01*
X42825000Y-132842500D02*
X44825000Y-132842500D01*
%TO.N,Net-(C2-Pad1)*%
X46825000Y-132842500D02*
X46000000Y-132017500D01*
X46825000Y-129450000D02*
X46825000Y-128475000D01*
X46000000Y-130275000D02*
X46825000Y-129450000D01*
X46000000Y-132017500D02*
X46000000Y-130275000D01*
X46825000Y-132842500D02*
X48825000Y-132842500D01*
%TO.N,Net-(C5-Pad1)*%
X52600000Y-133065000D02*
X52600000Y-131065000D01*
X51905000Y-130370000D02*
X51905000Y-128475000D01*
X52600000Y-131065000D02*
X51905000Y-130370000D01*
%TO.N,Net-(C7-Pad2)*%
X89060000Y-124742500D02*
X87060000Y-124742500D01*
X87060000Y-124742500D02*
X87060000Y-126440000D01*
X86005000Y-127495000D02*
X86005000Y-130830000D01*
X87060000Y-126440000D02*
X86005000Y-127495000D01*
%TO.N,Net-(C8-Pad1)*%
X85060000Y-124742500D02*
X83060000Y-124742500D01*
X84750000Y-130815000D02*
X84735000Y-130830000D01*
X84750000Y-128250000D02*
X84750000Y-130815000D01*
X85500000Y-127500000D02*
X84750000Y-128250000D01*
X85500000Y-125182500D02*
X85500000Y-127500000D01*
X85060000Y-124742500D02*
X85500000Y-125182500D01*
%TO.N,Net-(C11-Pad1)*%
X79060000Y-126305000D02*
X79060000Y-128305000D01*
X79060000Y-128305000D02*
X79060000Y-129060000D01*
X79655000Y-129655000D02*
X79655000Y-130830000D01*
X79060000Y-129060000D02*
X79655000Y-129655000D01*
D17*
%TO.N,GNDREF*%
X54375000Y-120425000D02*
X54300000Y-120500000D01*
X54375000Y-118000000D02*
X54375000Y-120425000D01*
X76760000Y-141942500D02*
X77122500Y-142305000D01*
X76760000Y-139305000D02*
X76760000Y-141942500D01*
X77122500Y-142305000D02*
X76300000Y-143127500D01*
D16*
%TO.N,+15V*%
X78997500Y-142305000D02*
X79500000Y-141802500D01*
X79500000Y-139365000D02*
X79560000Y-139305000D01*
X79500000Y-141802500D02*
X79500000Y-139365000D01*
X79655000Y-139210000D02*
X79560000Y-139305000D01*
X79655000Y-135780000D02*
X79655000Y-139210000D01*
X52500000Y-119500000D02*
X51500000Y-120500000D01*
X52500000Y-118000000D02*
X52500000Y-119500000D01*
X51500000Y-120500000D02*
X51500000Y-121500000D01*
X51905000Y-121905000D02*
X51905000Y-123525000D01*
X51500000Y-121500000D02*
X51905000Y-121905000D01*
D17*
X38500000Y-119562500D02*
X36962500Y-119562500D01*
X36962500Y-119562500D02*
X36749969Y-119349969D01*
X51500000Y-118300000D02*
X51400000Y-118200000D01*
X51500000Y-120500000D02*
X51500000Y-118300000D01*
X79392500Y-142700000D02*
X78997500Y-142305000D01*
X80500000Y-142700000D02*
X79392500Y-142700000D01*
X93280000Y-136800000D02*
X93270000Y-136810000D01*
X95900000Y-136800000D02*
X93280000Y-136800000D01*
X87125000Y-149075000D02*
X87100000Y-149100000D01*
X87125000Y-147500000D02*
X87125000Y-149075000D01*
D16*
%TO.N,Net-(CBoot1-Pad1)*%
X45662500Y-118565000D02*
X45662500Y-121065000D01*
X45662500Y-123417500D02*
X45555000Y-123525000D01*
X45662500Y-121065000D02*
X45662500Y-123417500D01*
X45527500Y-118700000D02*
X45662500Y-118565000D01*
X42000000Y-118700000D02*
X45527500Y-118700000D01*
%TO.N,Net-(CBoot3-Pad1)*%
X86005000Y-140735000D02*
X85935000Y-140805000D01*
X86005000Y-135780000D02*
X86005000Y-140735000D01*
X85935000Y-140805000D02*
X85935000Y-144000000D01*
%TO.N,/N_GND_cmd*%
X88160000Y-118500000D02*
X94250000Y-118500000D01*
X94250000Y-118500000D02*
X94750000Y-119000000D01*
X94750000Y-127710000D02*
X93270000Y-129190000D01*
X94750000Y-119000000D02*
X94750000Y-127710000D01*
%TO.N,Net-(R4-Pad1)*%
X91062500Y-128857500D02*
X90730000Y-129190000D01*
X91062500Y-126500000D02*
X91062500Y-128857500D01*
%TO.N,/SW_Node1*%
X47537500Y-118565000D02*
X47537500Y-121065000D01*
X47537500Y-121065000D02*
X48250000Y-121777500D01*
X48250000Y-123370000D02*
X48095000Y-123525000D01*
X48250000Y-121777500D02*
X48250000Y-123370000D01*
X49460000Y-115000000D02*
X47500000Y-116960000D01*
X47500000Y-118527500D02*
X47537500Y-118565000D01*
X47500000Y-116960000D02*
X47500000Y-118527500D01*
%TO.N,/SW_Node2*%
X84060000Y-140805000D02*
X84060000Y-138805000D01*
X84060000Y-138805000D02*
X84060000Y-138060000D01*
X83465000Y-137465000D02*
X83465000Y-135780000D01*
X84060000Y-138060000D02*
X83465000Y-137465000D01*
X84060000Y-140805000D02*
X84060000Y-142560002D01*
X84060000Y-142560002D02*
X84099998Y-142600000D01*
%TO.N,/Neutral_GND_cmd*%
X90730000Y-136810000D02*
X90730000Y-138480000D01*
X91750000Y-139500000D02*
X93562500Y-139500000D01*
X90730000Y-138480000D02*
X91750000Y-139500000D01*
X93562500Y-139500000D02*
X94812500Y-138250000D01*
X94812500Y-138250000D02*
X111250000Y-138250000D01*
X113540000Y-140540000D02*
X117000000Y-140540000D01*
X111250000Y-138250000D02*
X113540000Y-140540000D01*
%TO.N,/PWM_H1*%
X50500000Y-113500000D02*
X52000000Y-115000000D01*
X48000000Y-113500000D02*
X50500000Y-113500000D01*
X46600000Y-114900000D02*
X48000000Y-113500000D01*
X46600000Y-123300000D02*
X46600000Y-114900000D01*
X46825000Y-123525000D02*
X46600000Y-123300000D01*
%TO.N,/PWM_L1*%
X53175000Y-123525000D02*
X53175000Y-122075000D01*
X53175000Y-122075000D02*
X52900000Y-121800000D01*
%TO.N,/PWM_H2*%
X80000000Y-148000000D02*
X80000000Y-148500000D01*
X85000000Y-143000000D02*
X80000000Y-148000000D01*
X85000000Y-136045000D02*
X85000000Y-143000000D01*
X84735000Y-135780000D02*
X85000000Y-136045000D01*
%TO.N,/PWM_L2*%
X78385000Y-135780000D02*
X78385000Y-137215000D01*
X78385000Y-137215000D02*
X78100000Y-137500000D01*
%TO.N,/PWM_H1_D*%
X44040000Y-138500000D02*
X44040000Y-136710000D01*
X44825000Y-135925000D02*
X44825000Y-134717500D01*
X44040000Y-136710000D02*
X44825000Y-135925000D01*
%TO.N,/PWM_L1_D*%
X46580000Y-138500000D02*
X46580000Y-136170000D01*
X46825000Y-135925000D02*
X46825000Y-134717500D01*
X46580000Y-136170000D02*
X46825000Y-135925000D01*
%TO.N,/PWM_L2_D*%
X85100000Y-122827500D02*
X85060000Y-122867500D01*
X85100000Y-120520000D02*
X85100000Y-122827500D01*
X83080000Y-118500000D02*
X85100000Y-120520000D01*
%TO.N,/PWM_H2_D*%
X86700000Y-122507500D02*
X87060000Y-122867500D01*
X86700000Y-120900000D02*
X86700000Y-122507500D01*
X85620000Y-119820000D02*
X86700000Y-120900000D01*
X85620000Y-118500000D02*
X85620000Y-119820000D01*
%TO.N,+5VD*%
X47125000Y-131000000D02*
X47125000Y-130375000D01*
X48095000Y-129405000D02*
X48095000Y-128475000D01*
X47125000Y-130375000D02*
X48095000Y-129405000D01*
X54562500Y-128592500D02*
X54445000Y-128475000D01*
X54562500Y-133000000D02*
X54562500Y-128592500D01*
X83060000Y-128305000D02*
X83060000Y-129060000D01*
X83465000Y-129465000D02*
X83465000Y-130830000D01*
X83060000Y-129060000D02*
X83465000Y-129465000D01*
X77497500Y-126305000D02*
X77497500Y-128305000D01*
X77497500Y-128305000D02*
X77497500Y-129252500D01*
X77115000Y-129635000D02*
X77115000Y-130830000D01*
X77497500Y-129252500D02*
X77115000Y-129635000D01*
X78000000Y-118500000D02*
X78000000Y-124250000D01*
X77497500Y-124752500D02*
X77497500Y-126305000D01*
X78000000Y-124250000D02*
X77497500Y-124752500D01*
X84750000Y-126500000D02*
X84750000Y-127250000D01*
X83695000Y-128305000D02*
X83060000Y-128305000D01*
X84750000Y-127250000D02*
X83695000Y-128305000D01*
X54445000Y-128475000D02*
X54445000Y-127545000D01*
X48095000Y-127500000D02*
X48095000Y-128475000D01*
X48420010Y-127174990D02*
X48095000Y-127500000D01*
X54074990Y-127174990D02*
X48420010Y-127174990D01*
X54445000Y-127545000D02*
X54074990Y-127174990D01*
X53500000Y-138500000D02*
X49120000Y-138500000D01*
X54562500Y-137437500D02*
X53500000Y-138500000D01*
X54562500Y-133000000D02*
X54562500Y-137437500D01*
%TO.N,Net-(D_boot1-Pad2)*%
X38500000Y-121437500D02*
X38500000Y-122500000D01*
X39000000Y-123000000D02*
X42000000Y-123000000D01*
X38500000Y-122500000D02*
X39000000Y-123000000D01*
%TO.N,Net-(D_boot2-Pad2)*%
X89700000Y-146800000D02*
X89000000Y-147500000D01*
X89700000Y-145400000D02*
X89700000Y-146800000D01*
X91000000Y-144100000D02*
X89700000Y-145400000D01*
%TD*%
D18*
%TO.N,GNDD*%
G36*
X44616928Y-127650000D02*
G01*
X44616928Y-129300000D01*
X44632071Y-129453745D01*
X44676916Y-129601582D01*
X44728016Y-129697183D01*
X44313998Y-130111201D01*
X44285000Y-130134999D01*
X44261202Y-130163997D01*
X44261201Y-130163998D01*
X44190026Y-130250724D01*
X44119454Y-130382754D01*
X44105115Y-130430026D01*
X44076614Y-130523985D01*
X44075998Y-130526015D01*
X44061324Y-130675000D01*
X44065001Y-130712332D01*
X44065000Y-131773827D01*
X44031291Y-131784053D01*
X43878836Y-131865542D01*
X43825000Y-131909724D01*
X43771164Y-131865542D01*
X43618709Y-131784053D01*
X43453285Y-131733872D01*
X43281250Y-131716928D01*
X42368750Y-131716928D01*
X42196715Y-131733872D01*
X42031291Y-131784053D01*
X41878836Y-131865542D01*
X41745208Y-131975208D01*
X41635542Y-132108836D01*
X41554053Y-132261291D01*
X41503872Y-132426715D01*
X41486928Y-132598750D01*
X41486928Y-133086250D01*
X41503872Y-133258285D01*
X41554053Y-133423709D01*
X41635542Y-133576164D01*
X41745208Y-133709792D01*
X41751564Y-133715008D01*
X41673815Y-133778815D01*
X41594463Y-133875506D01*
X41535498Y-133985820D01*
X41499188Y-134105518D01*
X41486928Y-134230000D01*
X41490000Y-134431750D01*
X41648750Y-134590500D01*
X42698000Y-134590500D01*
X42698000Y-134570500D01*
X42952000Y-134570500D01*
X42952000Y-134590500D01*
X42972000Y-134590500D01*
X42972000Y-134844500D01*
X42952000Y-134844500D01*
X42952000Y-135681250D01*
X43110750Y-135840000D01*
X43525000Y-135843072D01*
X43649482Y-135830812D01*
X43769180Y-135794502D01*
X43879494Y-135735537D01*
X43909547Y-135710873D01*
X43945244Y-135729954D01*
X43528998Y-136146201D01*
X43500000Y-136169999D01*
X43476202Y-136198997D01*
X43476201Y-136198998D01*
X43405026Y-136285724D01*
X43334454Y-136417754D01*
X43304180Y-136517558D01*
X43291314Y-136559974D01*
X43290998Y-136561015D01*
X43276324Y-136710000D01*
X43280001Y-136747332D01*
X43280001Y-137221821D01*
X43093368Y-137346525D01*
X42961513Y-137478380D01*
X42939502Y-137405820D01*
X42880537Y-137295506D01*
X42801185Y-137198815D01*
X42704494Y-137119463D01*
X42594180Y-137060498D01*
X42474482Y-137024188D01*
X42350000Y-137011928D01*
X41785750Y-137015000D01*
X41627000Y-137173750D01*
X41627000Y-138373000D01*
X41647000Y-138373000D01*
X41647000Y-138627000D01*
X41627000Y-138627000D01*
X41627000Y-139826250D01*
X41785750Y-139985000D01*
X42350000Y-139988072D01*
X42474482Y-139975812D01*
X42594180Y-139939502D01*
X42704494Y-139880537D01*
X42801185Y-139801185D01*
X42880537Y-139704494D01*
X42939502Y-139594180D01*
X42961513Y-139521620D01*
X43093368Y-139653475D01*
X43336589Y-139815990D01*
X43606842Y-139927932D01*
X43893740Y-139985000D01*
X44186260Y-139985000D01*
X44473158Y-139927932D01*
X44743411Y-139815990D01*
X44986632Y-139653475D01*
X45193475Y-139446632D01*
X45310000Y-139272240D01*
X45426525Y-139446632D01*
X45633368Y-139653475D01*
X45876589Y-139815990D01*
X46146842Y-139927932D01*
X46433740Y-139985000D01*
X46726260Y-139985000D01*
X47013158Y-139927932D01*
X47283411Y-139815990D01*
X47526632Y-139653475D01*
X47733475Y-139446632D01*
X47850000Y-139272240D01*
X47966525Y-139446632D01*
X48173368Y-139653475D01*
X48416589Y-139815990D01*
X48686842Y-139927932D01*
X48973740Y-139985000D01*
X49266260Y-139985000D01*
X49553158Y-139927932D01*
X49823411Y-139815990D01*
X50066632Y-139653475D01*
X50273475Y-139446632D01*
X50398178Y-139260000D01*
X53462678Y-139260000D01*
X53500000Y-139263676D01*
X53537322Y-139260000D01*
X53537333Y-139260000D01*
X53648986Y-139249003D01*
X53792247Y-139205546D01*
X53924276Y-139134974D01*
X54040001Y-139040001D01*
X54063804Y-139010998D01*
X55073503Y-138001299D01*
X55102501Y-137977501D01*
X55128832Y-137945417D01*
X55197474Y-137861777D01*
X55268046Y-137729747D01*
X55311503Y-137586486D01*
X55322500Y-137474833D01*
X55322500Y-137474823D01*
X55326176Y-137437500D01*
X55322500Y-137400177D01*
X55322500Y-134167845D01*
X55429792Y-134079792D01*
X55435008Y-134073436D01*
X55498815Y-134151185D01*
X55595506Y-134230537D01*
X55705820Y-134289502D01*
X55825518Y-134325812D01*
X55950000Y-134338072D01*
X56151750Y-134335000D01*
X56310500Y-134176250D01*
X56310500Y-133127000D01*
X56564500Y-133127000D01*
X56564500Y-134176250D01*
X56723250Y-134335000D01*
X56925000Y-134338072D01*
X57049482Y-134325812D01*
X57169180Y-134289502D01*
X57279494Y-134230537D01*
X57376185Y-134151185D01*
X57455537Y-134054494D01*
X57514502Y-133944180D01*
X57550812Y-133824482D01*
X57563072Y-133700000D01*
X57560000Y-133285750D01*
X57401250Y-133127000D01*
X56564500Y-133127000D01*
X56310500Y-133127000D01*
X56290500Y-133127000D01*
X56290500Y-132873000D01*
X56310500Y-132873000D01*
X56310500Y-132213750D01*
X56348000Y-132176250D01*
X56348000Y-131823750D01*
X56564500Y-131823750D01*
X56564500Y-132873000D01*
X57401250Y-132873000D01*
X57560000Y-132714250D01*
X57563072Y-132300000D01*
X57550812Y-132175518D01*
X57514502Y-132055820D01*
X57503415Y-132035078D01*
X57552002Y-131944180D01*
X57588312Y-131824482D01*
X57600572Y-131700000D01*
X57597500Y-131285750D01*
X57438750Y-131127000D01*
X56602000Y-131127000D01*
X56602000Y-131786250D01*
X56564500Y-131823750D01*
X56348000Y-131823750D01*
X56348000Y-131127000D01*
X56328000Y-131127000D01*
X56328000Y-130873000D01*
X56348000Y-130873000D01*
X56348000Y-129823750D01*
X56602000Y-129823750D01*
X56602000Y-130873000D01*
X57438750Y-130873000D01*
X57597500Y-130714250D01*
X57600572Y-130300000D01*
X57588312Y-130175518D01*
X57552002Y-130055820D01*
X57493037Y-129945506D01*
X57413685Y-129848815D01*
X57316994Y-129769463D01*
X57206680Y-129710498D01*
X57086982Y-129674188D01*
X56962500Y-129661928D01*
X56760750Y-129665000D01*
X56602000Y-129823750D01*
X56348000Y-129823750D01*
X56189250Y-129665000D01*
X55987500Y-129661928D01*
X55863018Y-129674188D01*
X55743320Y-129710498D01*
X55633006Y-129769463D01*
X55536315Y-129848815D01*
X55472508Y-129926564D01*
X55467292Y-129920208D01*
X55333664Y-129810542D01*
X55322500Y-129804575D01*
X55322500Y-129602675D01*
X55323084Y-129601582D01*
X55367929Y-129453745D01*
X55383072Y-129300000D01*
X55383072Y-127650000D01*
X55380807Y-127627000D01*
X57873000Y-127627000D01*
X57873000Y-140340000D01*
X29660000Y-140340000D01*
X29660000Y-139350000D01*
X40011928Y-139350000D01*
X40024188Y-139474482D01*
X40060498Y-139594180D01*
X40119463Y-139704494D01*
X40198815Y-139801185D01*
X40295506Y-139880537D01*
X40405820Y-139939502D01*
X40525518Y-139975812D01*
X40650000Y-139988072D01*
X41214250Y-139985000D01*
X41373000Y-139826250D01*
X41373000Y-138627000D01*
X40173750Y-138627000D01*
X40015000Y-138785750D01*
X40011928Y-139350000D01*
X29660000Y-139350000D01*
X29660000Y-137650000D01*
X40011928Y-137650000D01*
X40015000Y-138214250D01*
X40173750Y-138373000D01*
X41373000Y-138373000D01*
X41373000Y-137173750D01*
X41214250Y-137015000D01*
X40650000Y-137011928D01*
X40525518Y-137024188D01*
X40405820Y-137060498D01*
X40295506Y-137119463D01*
X40198815Y-137198815D01*
X40119463Y-137295506D01*
X40060498Y-137405820D01*
X40024188Y-137525518D01*
X40011928Y-137650000D01*
X29660000Y-137650000D01*
X29660000Y-135205000D01*
X41486928Y-135205000D01*
X41499188Y-135329482D01*
X41535498Y-135449180D01*
X41594463Y-135559494D01*
X41673815Y-135656185D01*
X41770506Y-135735537D01*
X41880820Y-135794502D01*
X42000518Y-135830812D01*
X42125000Y-135843072D01*
X42539250Y-135840000D01*
X42698000Y-135681250D01*
X42698000Y-134844500D01*
X41648750Y-134844500D01*
X41490000Y-135003250D01*
X41486928Y-135205000D01*
X29660000Y-135205000D01*
X29660000Y-127627000D01*
X44619193Y-127627000D01*
X44616928Y-127650000D01*
G37*
X44616928Y-127650000D02*
X44616928Y-129300000D01*
X44632071Y-129453745D01*
X44676916Y-129601582D01*
X44728016Y-129697183D01*
X44313998Y-130111201D01*
X44285000Y-130134999D01*
X44261202Y-130163997D01*
X44261201Y-130163998D01*
X44190026Y-130250724D01*
X44119454Y-130382754D01*
X44105115Y-130430026D01*
X44076614Y-130523985D01*
X44075998Y-130526015D01*
X44061324Y-130675000D01*
X44065001Y-130712332D01*
X44065000Y-131773827D01*
X44031291Y-131784053D01*
X43878836Y-131865542D01*
X43825000Y-131909724D01*
X43771164Y-131865542D01*
X43618709Y-131784053D01*
X43453285Y-131733872D01*
X43281250Y-131716928D01*
X42368750Y-131716928D01*
X42196715Y-131733872D01*
X42031291Y-131784053D01*
X41878836Y-131865542D01*
X41745208Y-131975208D01*
X41635542Y-132108836D01*
X41554053Y-132261291D01*
X41503872Y-132426715D01*
X41486928Y-132598750D01*
X41486928Y-133086250D01*
X41503872Y-133258285D01*
X41554053Y-133423709D01*
X41635542Y-133576164D01*
X41745208Y-133709792D01*
X41751564Y-133715008D01*
X41673815Y-133778815D01*
X41594463Y-133875506D01*
X41535498Y-133985820D01*
X41499188Y-134105518D01*
X41486928Y-134230000D01*
X41490000Y-134431750D01*
X41648750Y-134590500D01*
X42698000Y-134590500D01*
X42698000Y-134570500D01*
X42952000Y-134570500D01*
X42952000Y-134590500D01*
X42972000Y-134590500D01*
X42972000Y-134844500D01*
X42952000Y-134844500D01*
X42952000Y-135681250D01*
X43110750Y-135840000D01*
X43525000Y-135843072D01*
X43649482Y-135830812D01*
X43769180Y-135794502D01*
X43879494Y-135735537D01*
X43909547Y-135710873D01*
X43945244Y-135729954D01*
X43528998Y-136146201D01*
X43500000Y-136169999D01*
X43476202Y-136198997D01*
X43476201Y-136198998D01*
X43405026Y-136285724D01*
X43334454Y-136417754D01*
X43304180Y-136517558D01*
X43291314Y-136559974D01*
X43290998Y-136561015D01*
X43276324Y-136710000D01*
X43280001Y-136747332D01*
X43280001Y-137221821D01*
X43093368Y-137346525D01*
X42961513Y-137478380D01*
X42939502Y-137405820D01*
X42880537Y-137295506D01*
X42801185Y-137198815D01*
X42704494Y-137119463D01*
X42594180Y-137060498D01*
X42474482Y-137024188D01*
X42350000Y-137011928D01*
X41785750Y-137015000D01*
X41627000Y-137173750D01*
X41627000Y-138373000D01*
X41647000Y-138373000D01*
X41647000Y-138627000D01*
X41627000Y-138627000D01*
X41627000Y-139826250D01*
X41785750Y-139985000D01*
X42350000Y-139988072D01*
X42474482Y-139975812D01*
X42594180Y-139939502D01*
X42704494Y-139880537D01*
X42801185Y-139801185D01*
X42880537Y-139704494D01*
X42939502Y-139594180D01*
X42961513Y-139521620D01*
X43093368Y-139653475D01*
X43336589Y-139815990D01*
X43606842Y-139927932D01*
X43893740Y-139985000D01*
X44186260Y-139985000D01*
X44473158Y-139927932D01*
X44743411Y-139815990D01*
X44986632Y-139653475D01*
X45193475Y-139446632D01*
X45310000Y-139272240D01*
X45426525Y-139446632D01*
X45633368Y-139653475D01*
X45876589Y-139815990D01*
X46146842Y-139927932D01*
X46433740Y-139985000D01*
X46726260Y-139985000D01*
X47013158Y-139927932D01*
X47283411Y-139815990D01*
X47526632Y-139653475D01*
X47733475Y-139446632D01*
X47850000Y-139272240D01*
X47966525Y-139446632D01*
X48173368Y-139653475D01*
X48416589Y-139815990D01*
X48686842Y-139927932D01*
X48973740Y-139985000D01*
X49266260Y-139985000D01*
X49553158Y-139927932D01*
X49823411Y-139815990D01*
X50066632Y-139653475D01*
X50273475Y-139446632D01*
X50398178Y-139260000D01*
X53462678Y-139260000D01*
X53500000Y-139263676D01*
X53537322Y-139260000D01*
X53537333Y-139260000D01*
X53648986Y-139249003D01*
X53792247Y-139205546D01*
X53924276Y-139134974D01*
X54040001Y-139040001D01*
X54063804Y-139010998D01*
X55073503Y-138001299D01*
X55102501Y-137977501D01*
X55128832Y-137945417D01*
X55197474Y-137861777D01*
X55268046Y-137729747D01*
X55311503Y-137586486D01*
X55322500Y-137474833D01*
X55322500Y-137474823D01*
X55326176Y-137437500D01*
X55322500Y-137400177D01*
X55322500Y-134167845D01*
X55429792Y-134079792D01*
X55435008Y-134073436D01*
X55498815Y-134151185D01*
X55595506Y-134230537D01*
X55705820Y-134289502D01*
X55825518Y-134325812D01*
X55950000Y-134338072D01*
X56151750Y-134335000D01*
X56310500Y-134176250D01*
X56310500Y-133127000D01*
X56564500Y-133127000D01*
X56564500Y-134176250D01*
X56723250Y-134335000D01*
X56925000Y-134338072D01*
X57049482Y-134325812D01*
X57169180Y-134289502D01*
X57279494Y-134230537D01*
X57376185Y-134151185D01*
X57455537Y-134054494D01*
X57514502Y-133944180D01*
X57550812Y-133824482D01*
X57563072Y-133700000D01*
X57560000Y-133285750D01*
X57401250Y-133127000D01*
X56564500Y-133127000D01*
X56310500Y-133127000D01*
X56290500Y-133127000D01*
X56290500Y-132873000D01*
X56310500Y-132873000D01*
X56310500Y-132213750D01*
X56348000Y-132176250D01*
X56348000Y-131823750D01*
X56564500Y-131823750D01*
X56564500Y-132873000D01*
X57401250Y-132873000D01*
X57560000Y-132714250D01*
X57563072Y-132300000D01*
X57550812Y-132175518D01*
X57514502Y-132055820D01*
X57503415Y-132035078D01*
X57552002Y-131944180D01*
X57588312Y-131824482D01*
X57600572Y-131700000D01*
X57597500Y-131285750D01*
X57438750Y-131127000D01*
X56602000Y-131127000D01*
X56602000Y-131786250D01*
X56564500Y-131823750D01*
X56348000Y-131823750D01*
X56348000Y-131127000D01*
X56328000Y-131127000D01*
X56328000Y-130873000D01*
X56348000Y-130873000D01*
X56348000Y-129823750D01*
X56602000Y-129823750D01*
X56602000Y-130873000D01*
X57438750Y-130873000D01*
X57597500Y-130714250D01*
X57600572Y-130300000D01*
X57588312Y-130175518D01*
X57552002Y-130055820D01*
X57493037Y-129945506D01*
X57413685Y-129848815D01*
X57316994Y-129769463D01*
X57206680Y-129710498D01*
X57086982Y-129674188D01*
X56962500Y-129661928D01*
X56760750Y-129665000D01*
X56602000Y-129823750D01*
X56348000Y-129823750D01*
X56189250Y-129665000D01*
X55987500Y-129661928D01*
X55863018Y-129674188D01*
X55743320Y-129710498D01*
X55633006Y-129769463D01*
X55536315Y-129848815D01*
X55472508Y-129926564D01*
X55467292Y-129920208D01*
X55333664Y-129810542D01*
X55322500Y-129804575D01*
X55322500Y-129602675D01*
X55323084Y-129601582D01*
X55367929Y-129453745D01*
X55383072Y-129300000D01*
X55383072Y-127650000D01*
X55380807Y-127627000D01*
X57873000Y-127627000D01*
X57873000Y-140340000D01*
X29660000Y-140340000D01*
X29660000Y-139350000D01*
X40011928Y-139350000D01*
X40024188Y-139474482D01*
X40060498Y-139594180D01*
X40119463Y-139704494D01*
X40198815Y-139801185D01*
X40295506Y-139880537D01*
X40405820Y-139939502D01*
X40525518Y-139975812D01*
X40650000Y-139988072D01*
X41214250Y-139985000D01*
X41373000Y-139826250D01*
X41373000Y-138627000D01*
X40173750Y-138627000D01*
X40015000Y-138785750D01*
X40011928Y-139350000D01*
X29660000Y-139350000D01*
X29660000Y-137650000D01*
X40011928Y-137650000D01*
X40015000Y-138214250D01*
X40173750Y-138373000D01*
X41373000Y-138373000D01*
X41373000Y-137173750D01*
X41214250Y-137015000D01*
X40650000Y-137011928D01*
X40525518Y-137024188D01*
X40405820Y-137060498D01*
X40295506Y-137119463D01*
X40198815Y-137198815D01*
X40119463Y-137295506D01*
X40060498Y-137405820D01*
X40024188Y-137525518D01*
X40011928Y-137650000D01*
X29660000Y-137650000D01*
X29660000Y-135205000D01*
X41486928Y-135205000D01*
X41499188Y-135329482D01*
X41535498Y-135449180D01*
X41594463Y-135559494D01*
X41673815Y-135656185D01*
X41770506Y-135735537D01*
X41880820Y-135794502D01*
X42000518Y-135830812D01*
X42125000Y-135843072D01*
X42539250Y-135840000D01*
X42698000Y-135681250D01*
X42698000Y-134844500D01*
X41648750Y-134844500D01*
X41490000Y-135003250D01*
X41486928Y-135205000D01*
X29660000Y-135205000D01*
X29660000Y-127627000D01*
X44619193Y-127627000D01*
X44616928Y-127650000D01*
G36*
X49492000Y-128348000D02*
G01*
X50508000Y-128348000D01*
X50508000Y-128328000D01*
X50762000Y-128328000D01*
X50762000Y-128348000D01*
X50782000Y-128348000D01*
X50782000Y-128602000D01*
X50762000Y-128602000D01*
X50762000Y-129926250D01*
X50852000Y-130016250D01*
X50852000Y-130938000D01*
X50872000Y-130938000D01*
X50872000Y-131192000D01*
X50852000Y-131192000D01*
X50852000Y-132938000D01*
X50872000Y-132938000D01*
X50872000Y-133192000D01*
X50852000Y-133192000D01*
X50852000Y-134241250D01*
X51010750Y-134400000D01*
X51212500Y-134403072D01*
X51336982Y-134390812D01*
X51456680Y-134354502D01*
X51566994Y-134295537D01*
X51663685Y-134216185D01*
X51727492Y-134138436D01*
X51732708Y-134144792D01*
X51866336Y-134254458D01*
X52018791Y-134335947D01*
X52184215Y-134386128D01*
X52356250Y-134403072D01*
X52843750Y-134403072D01*
X53015785Y-134386128D01*
X53181209Y-134335947D01*
X53333664Y-134254458D01*
X53467292Y-134144792D01*
X53576958Y-134011164D01*
X53601384Y-133965467D01*
X53695208Y-134079792D01*
X53802500Y-134167845D01*
X53802501Y-137122697D01*
X53185199Y-137740000D01*
X50398178Y-137740000D01*
X50273475Y-137553368D01*
X50066632Y-137346525D01*
X49823411Y-137184010D01*
X49553158Y-137072068D01*
X49266260Y-137015000D01*
X48973740Y-137015000D01*
X48686842Y-137072068D01*
X48416589Y-137184010D01*
X48173368Y-137346525D01*
X47966525Y-137553368D01*
X47850000Y-137727760D01*
X47733475Y-137553368D01*
X47526632Y-137346525D01*
X47340000Y-137221822D01*
X47340000Y-136485519D01*
X47365001Y-136465001D01*
X47459974Y-136349276D01*
X47530546Y-136217247D01*
X47574003Y-136073986D01*
X47585000Y-135962333D01*
X47585000Y-135962324D01*
X47588676Y-135925001D01*
X47585000Y-135887678D01*
X47585000Y-135786173D01*
X47618709Y-135775947D01*
X47740453Y-135710873D01*
X47770506Y-135735537D01*
X47880820Y-135794502D01*
X48000518Y-135830812D01*
X48125000Y-135843072D01*
X48539250Y-135840000D01*
X48698000Y-135681250D01*
X48698000Y-134844500D01*
X48952000Y-134844500D01*
X48952000Y-135681250D01*
X49110750Y-135840000D01*
X49525000Y-135843072D01*
X49649482Y-135830812D01*
X49769180Y-135794502D01*
X49879494Y-135735537D01*
X49976185Y-135656185D01*
X50055537Y-135559494D01*
X50114502Y-135449180D01*
X50150812Y-135329482D01*
X50163072Y-135205000D01*
X50160000Y-135003250D01*
X50001250Y-134844500D01*
X48952000Y-134844500D01*
X48698000Y-134844500D01*
X48678000Y-134844500D01*
X48678000Y-134590500D01*
X48698000Y-134590500D01*
X48698000Y-134570500D01*
X48952000Y-134570500D01*
X48952000Y-134590500D01*
X50001250Y-134590500D01*
X50160000Y-134431750D01*
X50160552Y-134395494D01*
X50237500Y-134403072D01*
X50439250Y-134400000D01*
X50598000Y-134241250D01*
X50598000Y-133192000D01*
X50578000Y-133192000D01*
X50578000Y-132938000D01*
X50598000Y-132938000D01*
X50598000Y-131192000D01*
X50028750Y-131192000D01*
X49963750Y-131127000D01*
X49127000Y-131127000D01*
X49127000Y-131147000D01*
X48873000Y-131147000D01*
X48873000Y-131127000D01*
X48853000Y-131127000D01*
X48853000Y-130873000D01*
X48873000Y-130873000D01*
X48873000Y-130853000D01*
X49127000Y-130853000D01*
X49127000Y-130873000D01*
X49696250Y-130873000D01*
X49761250Y-130938000D01*
X50598000Y-130938000D01*
X50598000Y-129888750D01*
X50508000Y-129798750D01*
X50508000Y-128602000D01*
X49492000Y-128602000D01*
X49492000Y-128622000D01*
X49238000Y-128622000D01*
X49238000Y-128602000D01*
X49218000Y-128602000D01*
X49218000Y-128348000D01*
X49238000Y-128348000D01*
X49238000Y-128328000D01*
X49492000Y-128328000D01*
X49492000Y-128348000D01*
G37*
X49492000Y-128348000D02*
X50508000Y-128348000D01*
X50508000Y-128328000D01*
X50762000Y-128328000D01*
X50762000Y-128348000D01*
X50782000Y-128348000D01*
X50782000Y-128602000D01*
X50762000Y-128602000D01*
X50762000Y-129926250D01*
X50852000Y-130016250D01*
X50852000Y-130938000D01*
X50872000Y-130938000D01*
X50872000Y-131192000D01*
X50852000Y-131192000D01*
X50852000Y-132938000D01*
X50872000Y-132938000D01*
X50872000Y-133192000D01*
X50852000Y-133192000D01*
X50852000Y-134241250D01*
X51010750Y-134400000D01*
X51212500Y-134403072D01*
X51336982Y-134390812D01*
X51456680Y-134354502D01*
X51566994Y-134295537D01*
X51663685Y-134216185D01*
X51727492Y-134138436D01*
X51732708Y-134144792D01*
X51866336Y-134254458D01*
X52018791Y-134335947D01*
X52184215Y-134386128D01*
X52356250Y-134403072D01*
X52843750Y-134403072D01*
X53015785Y-134386128D01*
X53181209Y-134335947D01*
X53333664Y-134254458D01*
X53467292Y-134144792D01*
X53576958Y-134011164D01*
X53601384Y-133965467D01*
X53695208Y-134079792D01*
X53802500Y-134167845D01*
X53802501Y-137122697D01*
X53185199Y-137740000D01*
X50398178Y-137740000D01*
X50273475Y-137553368D01*
X50066632Y-137346525D01*
X49823411Y-137184010D01*
X49553158Y-137072068D01*
X49266260Y-137015000D01*
X48973740Y-137015000D01*
X48686842Y-137072068D01*
X48416589Y-137184010D01*
X48173368Y-137346525D01*
X47966525Y-137553368D01*
X47850000Y-137727760D01*
X47733475Y-137553368D01*
X47526632Y-137346525D01*
X47340000Y-137221822D01*
X47340000Y-136485519D01*
X47365001Y-136465001D01*
X47459974Y-136349276D01*
X47530546Y-136217247D01*
X47574003Y-136073986D01*
X47585000Y-135962333D01*
X47585000Y-135962324D01*
X47588676Y-135925001D01*
X47585000Y-135887678D01*
X47585000Y-135786173D01*
X47618709Y-135775947D01*
X47740453Y-135710873D01*
X47770506Y-135735537D01*
X47880820Y-135794502D01*
X48000518Y-135830812D01*
X48125000Y-135843072D01*
X48539250Y-135840000D01*
X48698000Y-135681250D01*
X48698000Y-134844500D01*
X48952000Y-134844500D01*
X48952000Y-135681250D01*
X49110750Y-135840000D01*
X49525000Y-135843072D01*
X49649482Y-135830812D01*
X49769180Y-135794502D01*
X49879494Y-135735537D01*
X49976185Y-135656185D01*
X50055537Y-135559494D01*
X50114502Y-135449180D01*
X50150812Y-135329482D01*
X50163072Y-135205000D01*
X50160000Y-135003250D01*
X50001250Y-134844500D01*
X48952000Y-134844500D01*
X48698000Y-134844500D01*
X48678000Y-134844500D01*
X48678000Y-134590500D01*
X48698000Y-134590500D01*
X48698000Y-134570500D01*
X48952000Y-134570500D01*
X48952000Y-134590500D01*
X50001250Y-134590500D01*
X50160000Y-134431750D01*
X50160552Y-134395494D01*
X50237500Y-134403072D01*
X50439250Y-134400000D01*
X50598000Y-134241250D01*
X50598000Y-133192000D01*
X50578000Y-133192000D01*
X50578000Y-132938000D01*
X50598000Y-132938000D01*
X50598000Y-131192000D01*
X50028750Y-131192000D01*
X49963750Y-131127000D01*
X49127000Y-131127000D01*
X49127000Y-131147000D01*
X48873000Y-131147000D01*
X48873000Y-131127000D01*
X48853000Y-131127000D01*
X48853000Y-130873000D01*
X48873000Y-130873000D01*
X48873000Y-130853000D01*
X49127000Y-130853000D01*
X49127000Y-130873000D01*
X49696250Y-130873000D01*
X49761250Y-130938000D01*
X50598000Y-130938000D01*
X50598000Y-129888750D01*
X50508000Y-129798750D01*
X50508000Y-128602000D01*
X49492000Y-128602000D01*
X49492000Y-128622000D01*
X49238000Y-128622000D01*
X49238000Y-128602000D01*
X49218000Y-128602000D01*
X49218000Y-128348000D01*
X49238000Y-128348000D01*
X49238000Y-128328000D01*
X49492000Y-128328000D01*
X49492000Y-128348000D01*
G36*
X96340001Y-131873000D02*
G01*
X86908438Y-131873000D01*
X86927929Y-131808745D01*
X86943072Y-131655000D01*
X86943072Y-130005000D01*
X86927929Y-129851255D01*
X86883084Y-129703418D01*
X86810258Y-129567171D01*
X86765000Y-129512024D01*
X86765000Y-127809801D01*
X87571003Y-127003799D01*
X87600001Y-126980001D01*
X87694974Y-126864276D01*
X87765546Y-126732247D01*
X87809003Y-126588986D01*
X87820000Y-126477333D01*
X87820000Y-126477324D01*
X87823676Y-126440001D01*
X87820000Y-126402678D01*
X87820000Y-125811173D01*
X87853709Y-125800947D01*
X88006164Y-125719458D01*
X88060000Y-125675276D01*
X88113836Y-125719458D01*
X88266291Y-125800947D01*
X88431715Y-125851128D01*
X88603750Y-125868072D01*
X89516250Y-125868072D01*
X89688285Y-125851128D01*
X89853709Y-125800947D01*
X89998877Y-125723353D01*
X89953872Y-125871715D01*
X89936928Y-126043750D01*
X89936928Y-126956250D01*
X89953872Y-127128285D01*
X90004053Y-127293709D01*
X90085542Y-127446164D01*
X90195208Y-127579792D01*
X90302500Y-127667845D01*
X90302501Y-127751928D01*
X89930000Y-127751928D01*
X89805518Y-127764188D01*
X89685820Y-127800498D01*
X89575506Y-127859463D01*
X89478815Y-127938815D01*
X89399463Y-128035506D01*
X89340498Y-128145820D01*
X89304188Y-128265518D01*
X89291928Y-128390000D01*
X89291928Y-129990000D01*
X89304188Y-130114482D01*
X89340498Y-130234180D01*
X89399463Y-130344494D01*
X89478815Y-130441185D01*
X89575506Y-130520537D01*
X89685820Y-130579502D01*
X89805518Y-130615812D01*
X89930000Y-130628072D01*
X91530000Y-130628072D01*
X91654482Y-130615812D01*
X91774180Y-130579502D01*
X91884494Y-130520537D01*
X91981185Y-130441185D01*
X92000000Y-130418259D01*
X92018815Y-130441185D01*
X92115506Y-130520537D01*
X92225820Y-130579502D01*
X92345518Y-130615812D01*
X92470000Y-130628072D01*
X94070000Y-130628072D01*
X94194482Y-130615812D01*
X94314180Y-130579502D01*
X94424494Y-130520537D01*
X94521185Y-130441185D01*
X94600537Y-130344494D01*
X94659502Y-130234180D01*
X94695812Y-130114482D01*
X94708072Y-129990000D01*
X94708072Y-128826730D01*
X95261003Y-128273799D01*
X95290001Y-128250001D01*
X95349091Y-128178000D01*
X95384974Y-128134277D01*
X95455546Y-128002247D01*
X95456530Y-127999003D01*
X95499003Y-127858986D01*
X95510000Y-127747333D01*
X95510000Y-127747324D01*
X95513676Y-127710001D01*
X95510000Y-127672678D01*
X95510000Y-119037325D01*
X95513676Y-119000000D01*
X95510000Y-118962675D01*
X95510000Y-118962667D01*
X95499003Y-118851014D01*
X95455546Y-118707753D01*
X95384974Y-118575724D01*
X95290001Y-118459999D01*
X95260998Y-118436197D01*
X94813804Y-117989003D01*
X94790001Y-117959999D01*
X94674276Y-117865026D01*
X94542247Y-117794454D01*
X94398986Y-117750997D01*
X94287333Y-117740000D01*
X94287322Y-117740000D01*
X94250000Y-117736324D01*
X94212678Y-117740000D01*
X89438178Y-117740000D01*
X89313475Y-117553368D01*
X89106632Y-117346525D01*
X88863411Y-117184010D01*
X88593158Y-117072068D01*
X88306260Y-117015000D01*
X88013740Y-117015000D01*
X87726842Y-117072068D01*
X87456589Y-117184010D01*
X87213368Y-117346525D01*
X87006525Y-117553368D01*
X86890000Y-117727760D01*
X86773475Y-117553368D01*
X86566632Y-117346525D01*
X86323411Y-117184010D01*
X86053158Y-117072068D01*
X85766260Y-117015000D01*
X85473740Y-117015000D01*
X85186842Y-117072068D01*
X84916589Y-117184010D01*
X84673368Y-117346525D01*
X84466525Y-117553368D01*
X84350000Y-117727760D01*
X84233475Y-117553368D01*
X84026632Y-117346525D01*
X83783411Y-117184010D01*
X83513158Y-117072068D01*
X83226260Y-117015000D01*
X82933740Y-117015000D01*
X82646842Y-117072068D01*
X82376589Y-117184010D01*
X82133368Y-117346525D01*
X81926525Y-117553368D01*
X81804805Y-117735534D01*
X81735178Y-117618645D01*
X81540269Y-117402412D01*
X81306920Y-117228359D01*
X81044099Y-117103175D01*
X80896890Y-117058524D01*
X80667000Y-117179845D01*
X80667000Y-118373000D01*
X80687000Y-118373000D01*
X80687000Y-118627000D01*
X80667000Y-118627000D01*
X80667000Y-119820155D01*
X80896890Y-119941476D01*
X81044099Y-119896825D01*
X81306920Y-119771641D01*
X81540269Y-119597588D01*
X81735178Y-119381355D01*
X81804805Y-119264466D01*
X81926525Y-119446632D01*
X82133368Y-119653475D01*
X82376589Y-119815990D01*
X82646842Y-119927932D01*
X82933740Y-119985000D01*
X83226260Y-119985000D01*
X83446408Y-119941210D01*
X84340000Y-120834803D01*
X84340001Y-121786693D01*
X84266291Y-121809053D01*
X84144547Y-121874127D01*
X84114494Y-121849463D01*
X84004180Y-121790498D01*
X83884482Y-121754188D01*
X83760000Y-121741928D01*
X83345750Y-121745000D01*
X83187000Y-121903750D01*
X83187000Y-122740500D01*
X83207000Y-122740500D01*
X83207000Y-122994500D01*
X83187000Y-122994500D01*
X83187000Y-123014500D01*
X82933000Y-123014500D01*
X82933000Y-122994500D01*
X81883750Y-122994500D01*
X81725000Y-123153250D01*
X81721928Y-123355000D01*
X81734188Y-123479482D01*
X81770498Y-123599180D01*
X81829463Y-123709494D01*
X81908815Y-123806185D01*
X81986564Y-123869992D01*
X81980208Y-123875208D01*
X81870542Y-124008836D01*
X81789053Y-124161291D01*
X81738872Y-124326715D01*
X81721928Y-124498750D01*
X81721928Y-124986250D01*
X81728039Y-125048296D01*
X81666680Y-125015498D01*
X81546982Y-124979188D01*
X81422500Y-124966928D01*
X81220750Y-124970000D01*
X81062000Y-125128750D01*
X81062000Y-126178000D01*
X81758750Y-126178000D01*
X81883750Y-126303000D01*
X82933000Y-126303000D01*
X82933000Y-126283000D01*
X83187000Y-126283000D01*
X83187000Y-126303000D01*
X83207000Y-126303000D01*
X83207000Y-126557000D01*
X83187000Y-126557000D01*
X83187000Y-126577000D01*
X82933000Y-126577000D01*
X82933000Y-126557000D01*
X82023750Y-126557000D01*
X81898750Y-126432000D01*
X81062000Y-126432000D01*
X81062000Y-128178000D01*
X81082000Y-128178000D01*
X81082000Y-128432000D01*
X81062000Y-128432000D01*
X81062000Y-129368750D01*
X81052000Y-129378750D01*
X81052000Y-130703000D01*
X82068000Y-130703000D01*
X82068000Y-130683000D01*
X82322000Y-130683000D01*
X82322000Y-130703000D01*
X82342000Y-130703000D01*
X82342000Y-130957000D01*
X82322000Y-130957000D01*
X82322000Y-130977000D01*
X82068000Y-130977000D01*
X82068000Y-130957000D01*
X81052000Y-130957000D01*
X81052000Y-130977000D01*
X80798000Y-130977000D01*
X80798000Y-130957000D01*
X80778000Y-130957000D01*
X80778000Y-130703000D01*
X80798000Y-130703000D01*
X80798000Y-129491250D01*
X80808000Y-129481250D01*
X80808000Y-128432000D01*
X80788000Y-128432000D01*
X80788000Y-128178000D01*
X80808000Y-128178000D01*
X80808000Y-126432000D01*
X80788000Y-126432000D01*
X80788000Y-126178000D01*
X80808000Y-126178000D01*
X80808000Y-125128750D01*
X80649250Y-124970000D01*
X80447500Y-124966928D01*
X80323018Y-124979188D01*
X80203320Y-125015498D01*
X80093006Y-125074463D01*
X79996315Y-125153815D01*
X79932508Y-125231564D01*
X79927292Y-125225208D01*
X79793664Y-125115542D01*
X79641209Y-125034053D01*
X79475785Y-124983872D01*
X79303750Y-124966928D01*
X78816250Y-124966928D01*
X78644215Y-124983872D01*
X78478791Y-125034053D01*
X78326336Y-125115542D01*
X78278750Y-125154595D01*
X78257500Y-125137155D01*
X78257500Y-125067301D01*
X78510997Y-124813804D01*
X78540001Y-124790001D01*
X78634974Y-124674276D01*
X78705546Y-124542247D01*
X78749003Y-124398986D01*
X78760000Y-124287333D01*
X78760000Y-124287324D01*
X78763676Y-124250001D01*
X78760000Y-124212678D01*
X78760000Y-122380000D01*
X81721928Y-122380000D01*
X81725000Y-122581750D01*
X81883750Y-122740500D01*
X82933000Y-122740500D01*
X82933000Y-121903750D01*
X82774250Y-121745000D01*
X82360000Y-121741928D01*
X82235518Y-121754188D01*
X82115820Y-121790498D01*
X82005506Y-121849463D01*
X81908815Y-121928815D01*
X81829463Y-122025506D01*
X81770498Y-122135820D01*
X81734188Y-122255518D01*
X81721928Y-122380000D01*
X78760000Y-122380000D01*
X78760000Y-119988072D01*
X78850000Y-119988072D01*
X78974482Y-119975812D01*
X79094180Y-119939502D01*
X79204494Y-119880537D01*
X79301185Y-119801185D01*
X79380537Y-119704494D01*
X79439502Y-119594180D01*
X79463966Y-119513534D01*
X79539731Y-119597588D01*
X79773080Y-119771641D01*
X80035901Y-119896825D01*
X80183110Y-119941476D01*
X80413000Y-119820155D01*
X80413000Y-118627000D01*
X80393000Y-118627000D01*
X80393000Y-118373000D01*
X80413000Y-118373000D01*
X80413000Y-117179845D01*
X80183110Y-117058524D01*
X80035901Y-117103175D01*
X79773080Y-117228359D01*
X79539731Y-117402412D01*
X79463966Y-117486466D01*
X79439502Y-117405820D01*
X79380537Y-117295506D01*
X79301185Y-117198815D01*
X79204494Y-117119463D01*
X79094180Y-117060498D01*
X78974482Y-117024188D01*
X78850000Y-117011928D01*
X77150000Y-117011928D01*
X77025518Y-117024188D01*
X76905820Y-117060498D01*
X76795506Y-117119463D01*
X76698815Y-117198815D01*
X76619463Y-117295506D01*
X76560498Y-117405820D01*
X76524188Y-117525518D01*
X76511928Y-117650000D01*
X76511928Y-119350000D01*
X76524188Y-119474482D01*
X76560498Y-119594180D01*
X76619463Y-119704494D01*
X76698815Y-119801185D01*
X76795506Y-119880537D01*
X76905820Y-119939502D01*
X77025518Y-119975812D01*
X77150000Y-119988072D01*
X77240000Y-119988072D01*
X77240001Y-123935198D01*
X76986503Y-124188696D01*
X76957499Y-124212499D01*
X76902371Y-124279674D01*
X76862526Y-124328224D01*
X76806256Y-124433497D01*
X76791954Y-124460254D01*
X76748497Y-124603515D01*
X76737500Y-124715168D01*
X76737500Y-124715178D01*
X76733824Y-124752500D01*
X76737500Y-124789823D01*
X76737500Y-125137155D01*
X76630208Y-125225208D01*
X76624992Y-125231564D01*
X76561185Y-125153815D01*
X76464494Y-125074463D01*
X76354180Y-125015498D01*
X76234482Y-124979188D01*
X76110000Y-124966928D01*
X75908250Y-124970000D01*
X75749500Y-125128750D01*
X75749500Y-126178000D01*
X75769500Y-126178000D01*
X75769500Y-126432000D01*
X75749500Y-126432000D01*
X75749500Y-128178000D01*
X75769500Y-128178000D01*
X75769500Y-128432000D01*
X75749500Y-128432000D01*
X75749500Y-129481250D01*
X75908250Y-129640000D01*
X76110000Y-129643072D01*
X76234482Y-129630812D01*
X76283706Y-129615880D01*
X76236916Y-129703418D01*
X76192071Y-129851255D01*
X76176928Y-130005000D01*
X76176928Y-131655000D01*
X76192071Y-131808745D01*
X76211562Y-131873000D01*
X74127000Y-131873000D01*
X74127000Y-129005000D01*
X74496928Y-129005000D01*
X74509188Y-129129482D01*
X74545498Y-129249180D01*
X74604463Y-129359494D01*
X74683815Y-129456185D01*
X74780506Y-129535537D01*
X74890820Y-129594502D01*
X75010518Y-129630812D01*
X75135000Y-129643072D01*
X75336750Y-129640000D01*
X75495500Y-129481250D01*
X75495500Y-128432000D01*
X74658750Y-128432000D01*
X74500000Y-128590750D01*
X74496928Y-129005000D01*
X74127000Y-129005000D01*
X74127000Y-127005000D01*
X74496928Y-127005000D01*
X74509188Y-127129482D01*
X74545498Y-127249180D01*
X74575335Y-127305000D01*
X74545498Y-127360820D01*
X74509188Y-127480518D01*
X74496928Y-127605000D01*
X74500000Y-128019250D01*
X74658750Y-128178000D01*
X75495500Y-128178000D01*
X75495500Y-126432000D01*
X74658750Y-126432000D01*
X74500000Y-126590750D01*
X74496928Y-127005000D01*
X74127000Y-127005000D01*
X74127000Y-125605000D01*
X74496928Y-125605000D01*
X74500000Y-126019250D01*
X74658750Y-126178000D01*
X75495500Y-126178000D01*
X75495500Y-125128750D01*
X75336750Y-124970000D01*
X75135000Y-124966928D01*
X75010518Y-124979188D01*
X74890820Y-125015498D01*
X74780506Y-125074463D01*
X74683815Y-125153815D01*
X74604463Y-125250506D01*
X74545498Y-125360820D01*
X74509188Y-125480518D01*
X74496928Y-125605000D01*
X74127000Y-125605000D01*
X74127000Y-116660000D01*
X96340000Y-116660000D01*
X96340001Y-131873000D01*
G37*
X96340001Y-131873000D02*
X86908438Y-131873000D01*
X86927929Y-131808745D01*
X86943072Y-131655000D01*
X86943072Y-130005000D01*
X86927929Y-129851255D01*
X86883084Y-129703418D01*
X86810258Y-129567171D01*
X86765000Y-129512024D01*
X86765000Y-127809801D01*
X87571003Y-127003799D01*
X87600001Y-126980001D01*
X87694974Y-126864276D01*
X87765546Y-126732247D01*
X87809003Y-126588986D01*
X87820000Y-126477333D01*
X87820000Y-126477324D01*
X87823676Y-126440001D01*
X87820000Y-126402678D01*
X87820000Y-125811173D01*
X87853709Y-125800947D01*
X88006164Y-125719458D01*
X88060000Y-125675276D01*
X88113836Y-125719458D01*
X88266291Y-125800947D01*
X88431715Y-125851128D01*
X88603750Y-125868072D01*
X89516250Y-125868072D01*
X89688285Y-125851128D01*
X89853709Y-125800947D01*
X89998877Y-125723353D01*
X89953872Y-125871715D01*
X89936928Y-126043750D01*
X89936928Y-126956250D01*
X89953872Y-127128285D01*
X90004053Y-127293709D01*
X90085542Y-127446164D01*
X90195208Y-127579792D01*
X90302500Y-127667845D01*
X90302501Y-127751928D01*
X89930000Y-127751928D01*
X89805518Y-127764188D01*
X89685820Y-127800498D01*
X89575506Y-127859463D01*
X89478815Y-127938815D01*
X89399463Y-128035506D01*
X89340498Y-128145820D01*
X89304188Y-128265518D01*
X89291928Y-128390000D01*
X89291928Y-129990000D01*
X89304188Y-130114482D01*
X89340498Y-130234180D01*
X89399463Y-130344494D01*
X89478815Y-130441185D01*
X89575506Y-130520537D01*
X89685820Y-130579502D01*
X89805518Y-130615812D01*
X89930000Y-130628072D01*
X91530000Y-130628072D01*
X91654482Y-130615812D01*
X91774180Y-130579502D01*
X91884494Y-130520537D01*
X91981185Y-130441185D01*
X92000000Y-130418259D01*
X92018815Y-130441185D01*
X92115506Y-130520537D01*
X92225820Y-130579502D01*
X92345518Y-130615812D01*
X92470000Y-130628072D01*
X94070000Y-130628072D01*
X94194482Y-130615812D01*
X94314180Y-130579502D01*
X94424494Y-130520537D01*
X94521185Y-130441185D01*
X94600537Y-130344494D01*
X94659502Y-130234180D01*
X94695812Y-130114482D01*
X94708072Y-129990000D01*
X94708072Y-128826730D01*
X95261003Y-128273799D01*
X95290001Y-128250001D01*
X95349091Y-128178000D01*
X95384974Y-128134277D01*
X95455546Y-128002247D01*
X95456530Y-127999003D01*
X95499003Y-127858986D01*
X95510000Y-127747333D01*
X95510000Y-127747324D01*
X95513676Y-127710001D01*
X95510000Y-127672678D01*
X95510000Y-119037325D01*
X95513676Y-119000000D01*
X95510000Y-118962675D01*
X95510000Y-118962667D01*
X95499003Y-118851014D01*
X95455546Y-118707753D01*
X95384974Y-118575724D01*
X95290001Y-118459999D01*
X95260998Y-118436197D01*
X94813804Y-117989003D01*
X94790001Y-117959999D01*
X94674276Y-117865026D01*
X94542247Y-117794454D01*
X94398986Y-117750997D01*
X94287333Y-117740000D01*
X94287322Y-117740000D01*
X94250000Y-117736324D01*
X94212678Y-117740000D01*
X89438178Y-117740000D01*
X89313475Y-117553368D01*
X89106632Y-117346525D01*
X88863411Y-117184010D01*
X88593158Y-117072068D01*
X88306260Y-117015000D01*
X88013740Y-117015000D01*
X87726842Y-117072068D01*
X87456589Y-117184010D01*
X87213368Y-117346525D01*
X87006525Y-117553368D01*
X86890000Y-117727760D01*
X86773475Y-117553368D01*
X86566632Y-117346525D01*
X86323411Y-117184010D01*
X86053158Y-117072068D01*
X85766260Y-117015000D01*
X85473740Y-117015000D01*
X85186842Y-117072068D01*
X84916589Y-117184010D01*
X84673368Y-117346525D01*
X84466525Y-117553368D01*
X84350000Y-117727760D01*
X84233475Y-117553368D01*
X84026632Y-117346525D01*
X83783411Y-117184010D01*
X83513158Y-117072068D01*
X83226260Y-117015000D01*
X82933740Y-117015000D01*
X82646842Y-117072068D01*
X82376589Y-117184010D01*
X82133368Y-117346525D01*
X81926525Y-117553368D01*
X81804805Y-117735534D01*
X81735178Y-117618645D01*
X81540269Y-117402412D01*
X81306920Y-117228359D01*
X81044099Y-117103175D01*
X80896890Y-117058524D01*
X80667000Y-117179845D01*
X80667000Y-118373000D01*
X80687000Y-118373000D01*
X80687000Y-118627000D01*
X80667000Y-118627000D01*
X80667000Y-119820155D01*
X80896890Y-119941476D01*
X81044099Y-119896825D01*
X81306920Y-119771641D01*
X81540269Y-119597588D01*
X81735178Y-119381355D01*
X81804805Y-119264466D01*
X81926525Y-119446632D01*
X82133368Y-119653475D01*
X82376589Y-119815990D01*
X82646842Y-119927932D01*
X82933740Y-119985000D01*
X83226260Y-119985000D01*
X83446408Y-119941210D01*
X84340000Y-120834803D01*
X84340001Y-121786693D01*
X84266291Y-121809053D01*
X84144547Y-121874127D01*
X84114494Y-121849463D01*
X84004180Y-121790498D01*
X83884482Y-121754188D01*
X83760000Y-121741928D01*
X83345750Y-121745000D01*
X83187000Y-121903750D01*
X83187000Y-122740500D01*
X83207000Y-122740500D01*
X83207000Y-122994500D01*
X83187000Y-122994500D01*
X83187000Y-123014500D01*
X82933000Y-123014500D01*
X82933000Y-122994500D01*
X81883750Y-122994500D01*
X81725000Y-123153250D01*
X81721928Y-123355000D01*
X81734188Y-123479482D01*
X81770498Y-123599180D01*
X81829463Y-123709494D01*
X81908815Y-123806185D01*
X81986564Y-123869992D01*
X81980208Y-123875208D01*
X81870542Y-124008836D01*
X81789053Y-124161291D01*
X81738872Y-124326715D01*
X81721928Y-124498750D01*
X81721928Y-124986250D01*
X81728039Y-125048296D01*
X81666680Y-125015498D01*
X81546982Y-124979188D01*
X81422500Y-124966928D01*
X81220750Y-124970000D01*
X81062000Y-125128750D01*
X81062000Y-126178000D01*
X81758750Y-126178000D01*
X81883750Y-126303000D01*
X82933000Y-126303000D01*
X82933000Y-126283000D01*
X83187000Y-126283000D01*
X83187000Y-126303000D01*
X83207000Y-126303000D01*
X83207000Y-126557000D01*
X83187000Y-126557000D01*
X83187000Y-126577000D01*
X82933000Y-126577000D01*
X82933000Y-126557000D01*
X82023750Y-126557000D01*
X81898750Y-126432000D01*
X81062000Y-126432000D01*
X81062000Y-128178000D01*
X81082000Y-128178000D01*
X81082000Y-128432000D01*
X81062000Y-128432000D01*
X81062000Y-129368750D01*
X81052000Y-129378750D01*
X81052000Y-130703000D01*
X82068000Y-130703000D01*
X82068000Y-130683000D01*
X82322000Y-130683000D01*
X82322000Y-130703000D01*
X82342000Y-130703000D01*
X82342000Y-130957000D01*
X82322000Y-130957000D01*
X82322000Y-130977000D01*
X82068000Y-130977000D01*
X82068000Y-130957000D01*
X81052000Y-130957000D01*
X81052000Y-130977000D01*
X80798000Y-130977000D01*
X80798000Y-130957000D01*
X80778000Y-130957000D01*
X80778000Y-130703000D01*
X80798000Y-130703000D01*
X80798000Y-129491250D01*
X80808000Y-129481250D01*
X80808000Y-128432000D01*
X80788000Y-128432000D01*
X80788000Y-128178000D01*
X80808000Y-128178000D01*
X80808000Y-126432000D01*
X80788000Y-126432000D01*
X80788000Y-126178000D01*
X80808000Y-126178000D01*
X80808000Y-125128750D01*
X80649250Y-124970000D01*
X80447500Y-124966928D01*
X80323018Y-124979188D01*
X80203320Y-125015498D01*
X80093006Y-125074463D01*
X79996315Y-125153815D01*
X79932508Y-125231564D01*
X79927292Y-125225208D01*
X79793664Y-125115542D01*
X79641209Y-125034053D01*
X79475785Y-124983872D01*
X79303750Y-124966928D01*
X78816250Y-124966928D01*
X78644215Y-124983872D01*
X78478791Y-125034053D01*
X78326336Y-125115542D01*
X78278750Y-125154595D01*
X78257500Y-125137155D01*
X78257500Y-125067301D01*
X78510997Y-124813804D01*
X78540001Y-124790001D01*
X78634974Y-124674276D01*
X78705546Y-124542247D01*
X78749003Y-124398986D01*
X78760000Y-124287333D01*
X78760000Y-124287324D01*
X78763676Y-124250001D01*
X78760000Y-124212678D01*
X78760000Y-122380000D01*
X81721928Y-122380000D01*
X81725000Y-122581750D01*
X81883750Y-122740500D01*
X82933000Y-122740500D01*
X82933000Y-121903750D01*
X82774250Y-121745000D01*
X82360000Y-121741928D01*
X82235518Y-121754188D01*
X82115820Y-121790498D01*
X82005506Y-121849463D01*
X81908815Y-121928815D01*
X81829463Y-122025506D01*
X81770498Y-122135820D01*
X81734188Y-122255518D01*
X81721928Y-122380000D01*
X78760000Y-122380000D01*
X78760000Y-119988072D01*
X78850000Y-119988072D01*
X78974482Y-119975812D01*
X79094180Y-119939502D01*
X79204494Y-119880537D01*
X79301185Y-119801185D01*
X79380537Y-119704494D01*
X79439502Y-119594180D01*
X79463966Y-119513534D01*
X79539731Y-119597588D01*
X79773080Y-119771641D01*
X80035901Y-119896825D01*
X80183110Y-119941476D01*
X80413000Y-119820155D01*
X80413000Y-118627000D01*
X80393000Y-118627000D01*
X80393000Y-118373000D01*
X80413000Y-118373000D01*
X80413000Y-117179845D01*
X80183110Y-117058524D01*
X80035901Y-117103175D01*
X79773080Y-117228359D01*
X79539731Y-117402412D01*
X79463966Y-117486466D01*
X79439502Y-117405820D01*
X79380537Y-117295506D01*
X79301185Y-117198815D01*
X79204494Y-117119463D01*
X79094180Y-117060498D01*
X78974482Y-117024188D01*
X78850000Y-117011928D01*
X77150000Y-117011928D01*
X77025518Y-117024188D01*
X76905820Y-117060498D01*
X76795506Y-117119463D01*
X76698815Y-117198815D01*
X76619463Y-117295506D01*
X76560498Y-117405820D01*
X76524188Y-117525518D01*
X76511928Y-117650000D01*
X76511928Y-119350000D01*
X76524188Y-119474482D01*
X76560498Y-119594180D01*
X76619463Y-119704494D01*
X76698815Y-119801185D01*
X76795506Y-119880537D01*
X76905820Y-119939502D01*
X77025518Y-119975812D01*
X77150000Y-119988072D01*
X77240000Y-119988072D01*
X77240001Y-123935198D01*
X76986503Y-124188696D01*
X76957499Y-124212499D01*
X76902371Y-124279674D01*
X76862526Y-124328224D01*
X76806256Y-124433497D01*
X76791954Y-124460254D01*
X76748497Y-124603515D01*
X76737500Y-124715168D01*
X76737500Y-124715178D01*
X76733824Y-124752500D01*
X76737500Y-124789823D01*
X76737500Y-125137155D01*
X76630208Y-125225208D01*
X76624992Y-125231564D01*
X76561185Y-125153815D01*
X76464494Y-125074463D01*
X76354180Y-125015498D01*
X76234482Y-124979188D01*
X76110000Y-124966928D01*
X75908250Y-124970000D01*
X75749500Y-125128750D01*
X75749500Y-126178000D01*
X75769500Y-126178000D01*
X75769500Y-126432000D01*
X75749500Y-126432000D01*
X75749500Y-128178000D01*
X75769500Y-128178000D01*
X75769500Y-128432000D01*
X75749500Y-128432000D01*
X75749500Y-129481250D01*
X75908250Y-129640000D01*
X76110000Y-129643072D01*
X76234482Y-129630812D01*
X76283706Y-129615880D01*
X76236916Y-129703418D01*
X76192071Y-129851255D01*
X76176928Y-130005000D01*
X76176928Y-131655000D01*
X76192071Y-131808745D01*
X76211562Y-131873000D01*
X74127000Y-131873000D01*
X74127000Y-129005000D01*
X74496928Y-129005000D01*
X74509188Y-129129482D01*
X74545498Y-129249180D01*
X74604463Y-129359494D01*
X74683815Y-129456185D01*
X74780506Y-129535537D01*
X74890820Y-129594502D01*
X75010518Y-129630812D01*
X75135000Y-129643072D01*
X75336750Y-129640000D01*
X75495500Y-129481250D01*
X75495500Y-128432000D01*
X74658750Y-128432000D01*
X74500000Y-128590750D01*
X74496928Y-129005000D01*
X74127000Y-129005000D01*
X74127000Y-127005000D01*
X74496928Y-127005000D01*
X74509188Y-127129482D01*
X74545498Y-127249180D01*
X74575335Y-127305000D01*
X74545498Y-127360820D01*
X74509188Y-127480518D01*
X74496928Y-127605000D01*
X74500000Y-128019250D01*
X74658750Y-128178000D01*
X75495500Y-128178000D01*
X75495500Y-126432000D01*
X74658750Y-126432000D01*
X74500000Y-126590750D01*
X74496928Y-127005000D01*
X74127000Y-127005000D01*
X74127000Y-125605000D01*
X74496928Y-125605000D01*
X74500000Y-126019250D01*
X74658750Y-126178000D01*
X75495500Y-126178000D01*
X75495500Y-125128750D01*
X75336750Y-124970000D01*
X75135000Y-124966928D01*
X75010518Y-124979188D01*
X74890820Y-125015498D01*
X74780506Y-125074463D01*
X74683815Y-125153815D01*
X74604463Y-125250506D01*
X74545498Y-125360820D01*
X74509188Y-125480518D01*
X74496928Y-125605000D01*
X74127000Y-125605000D01*
X74127000Y-116660000D01*
X96340000Y-116660000D01*
X96340001Y-131873000D01*
G36*
X93990000Y-119314801D02*
G01*
X93990001Y-125509982D01*
X93955537Y-125445506D01*
X93876185Y-125348815D01*
X93779494Y-125269463D01*
X93669180Y-125210498D01*
X93549482Y-125174188D01*
X93425000Y-125161928D01*
X93223250Y-125165000D01*
X93064500Y-125323750D01*
X93064500Y-126373000D01*
X93084500Y-126373000D01*
X93084500Y-126627000D01*
X93064500Y-126627000D01*
X93064500Y-126647000D01*
X92810500Y-126647000D01*
X92810500Y-126627000D01*
X92790500Y-126627000D01*
X92790500Y-126373000D01*
X92810500Y-126373000D01*
X92810500Y-125323750D01*
X92651750Y-125165000D01*
X92450000Y-125161928D01*
X92325518Y-125174188D01*
X92205820Y-125210498D01*
X92095506Y-125269463D01*
X91998815Y-125348815D01*
X91935008Y-125426564D01*
X91929792Y-125420208D01*
X91796164Y-125310542D01*
X91643709Y-125229053D01*
X91478285Y-125178872D01*
X91306250Y-125161928D01*
X90818750Y-125161928D01*
X90646715Y-125178872D01*
X90481291Y-125229053D01*
X90336123Y-125306647D01*
X90381128Y-125158285D01*
X90398072Y-124986250D01*
X90398072Y-124498750D01*
X90381128Y-124326715D01*
X90330947Y-124161291D01*
X90249458Y-124008836D01*
X90139792Y-123875208D01*
X90133436Y-123869992D01*
X90211185Y-123806185D01*
X90290537Y-123709494D01*
X90349502Y-123599180D01*
X90385812Y-123479482D01*
X90398072Y-123355000D01*
X90395000Y-123153250D01*
X90236250Y-122994500D01*
X89187000Y-122994500D01*
X89187000Y-123014500D01*
X88933000Y-123014500D01*
X88933000Y-122994500D01*
X88913000Y-122994500D01*
X88913000Y-122740500D01*
X88933000Y-122740500D01*
X88933000Y-121903750D01*
X89187000Y-121903750D01*
X89187000Y-122740500D01*
X90236250Y-122740500D01*
X90395000Y-122581750D01*
X90398072Y-122380000D01*
X90385812Y-122255518D01*
X90349502Y-122135820D01*
X90290537Y-122025506D01*
X90211185Y-121928815D01*
X90114494Y-121849463D01*
X90004180Y-121790498D01*
X89884482Y-121754188D01*
X89760000Y-121741928D01*
X89345750Y-121745000D01*
X89187000Y-121903750D01*
X88933000Y-121903750D01*
X88774250Y-121745000D01*
X88360000Y-121741928D01*
X88235518Y-121754188D01*
X88115820Y-121790498D01*
X88005506Y-121849463D01*
X87975453Y-121874127D01*
X87853709Y-121809053D01*
X87688285Y-121758872D01*
X87516250Y-121741928D01*
X87460000Y-121741928D01*
X87460000Y-120937325D01*
X87463676Y-120900000D01*
X87460000Y-120862675D01*
X87460000Y-120862667D01*
X87449003Y-120751014D01*
X87405546Y-120607753D01*
X87334974Y-120475724D01*
X87240001Y-120359999D01*
X87211004Y-120336202D01*
X86543639Y-119668838D01*
X86566632Y-119653475D01*
X86773475Y-119446632D01*
X86890000Y-119272240D01*
X87006525Y-119446632D01*
X87213368Y-119653475D01*
X87456589Y-119815990D01*
X87726842Y-119927932D01*
X88013740Y-119985000D01*
X88306260Y-119985000D01*
X88593158Y-119927932D01*
X88863411Y-119815990D01*
X89106632Y-119653475D01*
X89313475Y-119446632D01*
X89438178Y-119260000D01*
X93935199Y-119260000D01*
X93990000Y-119314801D01*
G37*
X93990000Y-119314801D02*
X93990001Y-125509982D01*
X93955537Y-125445506D01*
X93876185Y-125348815D01*
X93779494Y-125269463D01*
X93669180Y-125210498D01*
X93549482Y-125174188D01*
X93425000Y-125161928D01*
X93223250Y-125165000D01*
X93064500Y-125323750D01*
X93064500Y-126373000D01*
X93084500Y-126373000D01*
X93084500Y-126627000D01*
X93064500Y-126627000D01*
X93064500Y-126647000D01*
X92810500Y-126647000D01*
X92810500Y-126627000D01*
X92790500Y-126627000D01*
X92790500Y-126373000D01*
X92810500Y-126373000D01*
X92810500Y-125323750D01*
X92651750Y-125165000D01*
X92450000Y-125161928D01*
X92325518Y-125174188D01*
X92205820Y-125210498D01*
X92095506Y-125269463D01*
X91998815Y-125348815D01*
X91935008Y-125426564D01*
X91929792Y-125420208D01*
X91796164Y-125310542D01*
X91643709Y-125229053D01*
X91478285Y-125178872D01*
X91306250Y-125161928D01*
X90818750Y-125161928D01*
X90646715Y-125178872D01*
X90481291Y-125229053D01*
X90336123Y-125306647D01*
X90381128Y-125158285D01*
X90398072Y-124986250D01*
X90398072Y-124498750D01*
X90381128Y-124326715D01*
X90330947Y-124161291D01*
X90249458Y-124008836D01*
X90139792Y-123875208D01*
X90133436Y-123869992D01*
X90211185Y-123806185D01*
X90290537Y-123709494D01*
X90349502Y-123599180D01*
X90385812Y-123479482D01*
X90398072Y-123355000D01*
X90395000Y-123153250D01*
X90236250Y-122994500D01*
X89187000Y-122994500D01*
X89187000Y-123014500D01*
X88933000Y-123014500D01*
X88933000Y-122994500D01*
X88913000Y-122994500D01*
X88913000Y-122740500D01*
X88933000Y-122740500D01*
X88933000Y-121903750D01*
X89187000Y-121903750D01*
X89187000Y-122740500D01*
X90236250Y-122740500D01*
X90395000Y-122581750D01*
X90398072Y-122380000D01*
X90385812Y-122255518D01*
X90349502Y-122135820D01*
X90290537Y-122025506D01*
X90211185Y-121928815D01*
X90114494Y-121849463D01*
X90004180Y-121790498D01*
X89884482Y-121754188D01*
X89760000Y-121741928D01*
X89345750Y-121745000D01*
X89187000Y-121903750D01*
X88933000Y-121903750D01*
X88774250Y-121745000D01*
X88360000Y-121741928D01*
X88235518Y-121754188D01*
X88115820Y-121790498D01*
X88005506Y-121849463D01*
X87975453Y-121874127D01*
X87853709Y-121809053D01*
X87688285Y-121758872D01*
X87516250Y-121741928D01*
X87460000Y-121741928D01*
X87460000Y-120937325D01*
X87463676Y-120900000D01*
X87460000Y-120862675D01*
X87460000Y-120862667D01*
X87449003Y-120751014D01*
X87405546Y-120607753D01*
X87334974Y-120475724D01*
X87240001Y-120359999D01*
X87211004Y-120336202D01*
X86543639Y-119668838D01*
X86566632Y-119653475D01*
X86773475Y-119446632D01*
X86890000Y-119272240D01*
X87006525Y-119446632D01*
X87213368Y-119653475D01*
X87456589Y-119815990D01*
X87726842Y-119927932D01*
X88013740Y-119985000D01*
X88306260Y-119985000D01*
X88593158Y-119927932D01*
X88863411Y-119815990D01*
X89106632Y-119653475D01*
X89313475Y-119446632D01*
X89438178Y-119260000D01*
X93935199Y-119260000D01*
X93990000Y-119314801D01*
%TO.N,GNDREF*%
G36*
X89478815Y-138061185D02*
G01*
X89575506Y-138140537D01*
X89685820Y-138199502D01*
X89805518Y-138235812D01*
X89930000Y-138248072D01*
X89970001Y-138248072D01*
X89970001Y-138442668D01*
X89966324Y-138480000D01*
X89970001Y-138517333D01*
X89975684Y-138575027D01*
X89980998Y-138628985D01*
X90024454Y-138772246D01*
X90095026Y-138904276D01*
X90166201Y-138991002D01*
X90190000Y-139020001D01*
X90218998Y-139043799D01*
X91186201Y-140011003D01*
X91209999Y-140040001D01*
X91325724Y-140134974D01*
X91457753Y-140205546D01*
X91601014Y-140249003D01*
X91712667Y-140260000D01*
X91712677Y-140260000D01*
X91750000Y-140263676D01*
X91787323Y-140260000D01*
X92493827Y-140260000D01*
X92504053Y-140293709D01*
X92585542Y-140446164D01*
X92695208Y-140579792D01*
X92828836Y-140689458D01*
X92981291Y-140770947D01*
X93146715Y-140821128D01*
X93318750Y-140838072D01*
X93806250Y-140838072D01*
X93978285Y-140821128D01*
X94143709Y-140770947D01*
X94296164Y-140689458D01*
X94429792Y-140579792D01*
X94435008Y-140573436D01*
X94498815Y-140651185D01*
X94595506Y-140730537D01*
X94705820Y-140789502D01*
X94825518Y-140825812D01*
X94950000Y-140838072D01*
X95151750Y-140835000D01*
X95310500Y-140676250D01*
X95310500Y-139627000D01*
X95564500Y-139627000D01*
X95564500Y-140676250D01*
X95723250Y-140835000D01*
X95925000Y-140838072D01*
X96049482Y-140825812D01*
X96169180Y-140789502D01*
X96279494Y-140730537D01*
X96376185Y-140651185D01*
X96455537Y-140554494D01*
X96514502Y-140444180D01*
X96550812Y-140324482D01*
X96563072Y-140200000D01*
X96560000Y-139785750D01*
X96401250Y-139627000D01*
X95564500Y-139627000D01*
X95310500Y-139627000D01*
X95290500Y-139627000D01*
X95290500Y-139373000D01*
X95310500Y-139373000D01*
X95310500Y-139353000D01*
X95564500Y-139353000D01*
X95564500Y-139373000D01*
X96401250Y-139373000D01*
X96560000Y-139214250D01*
X96561515Y-139010000D01*
X110935199Y-139010000D01*
X112976201Y-141051003D01*
X112999999Y-141080001D01*
X113028997Y-141103799D01*
X113115723Y-141174974D01*
X113217314Y-141229276D01*
X113247753Y-141245546D01*
X113391014Y-141289003D01*
X113502667Y-141300000D01*
X113502676Y-141300000D01*
X113539999Y-141303676D01*
X113577322Y-141300000D01*
X115721822Y-141300000D01*
X115846525Y-141486632D01*
X116053368Y-141693475D01*
X116296589Y-141855990D01*
X116566842Y-141967932D01*
X116853740Y-142025000D01*
X117146260Y-142025000D01*
X117433158Y-141967932D01*
X117703411Y-141855990D01*
X117946632Y-141693475D01*
X118153475Y-141486632D01*
X118315990Y-141243411D01*
X118340001Y-141185444D01*
X118340001Y-143340000D01*
X99032419Y-143340000D01*
X99000000Y-143336807D01*
X98967581Y-143340000D01*
X98870617Y-143349550D01*
X98746207Y-143387290D01*
X98631550Y-143448575D01*
X98531052Y-143531052D01*
X98448575Y-143631550D01*
X98387290Y-143746207D01*
X98349550Y-143870617D01*
X98336807Y-144000000D01*
X98340000Y-144032419D01*
X98340001Y-150340000D01*
X75660000Y-150340000D01*
X75660000Y-143005000D01*
X75996928Y-143005000D01*
X76009188Y-143129482D01*
X76045498Y-143249180D01*
X76104463Y-143359494D01*
X76183815Y-143456185D01*
X76280506Y-143535537D01*
X76390820Y-143594502D01*
X76510518Y-143630812D01*
X76635000Y-143643072D01*
X76836750Y-143640000D01*
X76995500Y-143481250D01*
X76995500Y-142432000D01*
X76158750Y-142432000D01*
X76000000Y-142590750D01*
X75996928Y-143005000D01*
X75660000Y-143005000D01*
X75660000Y-141052166D01*
X75683815Y-141081185D01*
X75780506Y-141160537D01*
X75890820Y-141219502D01*
X76010518Y-141255812D01*
X76097070Y-141264336D01*
X76045498Y-141360820D01*
X76009188Y-141480518D01*
X75996928Y-141605000D01*
X76000000Y-142019250D01*
X76158750Y-142178000D01*
X76995500Y-142178000D01*
X76995500Y-142158000D01*
X77249500Y-142158000D01*
X77249500Y-142178000D01*
X77269500Y-142178000D01*
X77269500Y-142432000D01*
X77249500Y-142432000D01*
X77249500Y-143481250D01*
X77408250Y-143640000D01*
X77610000Y-143643072D01*
X77734482Y-143630812D01*
X77854180Y-143594502D01*
X77964494Y-143535537D01*
X78061185Y-143456185D01*
X78124992Y-143378436D01*
X78130208Y-143384792D01*
X78263836Y-143494458D01*
X78416291Y-143575947D01*
X78581715Y-143626128D01*
X78752359Y-143642935D01*
X78758877Y-143648284D01*
X78956053Y-143753676D01*
X79170001Y-143818577D01*
X79336748Y-143835000D01*
X79336757Y-143835000D01*
X79392499Y-143840490D01*
X79448241Y-143835000D01*
X79973000Y-143835000D01*
X79973000Y-146952199D01*
X79913271Y-147011928D01*
X79150000Y-147011928D01*
X79025518Y-147024188D01*
X78905820Y-147060498D01*
X78795506Y-147119463D01*
X78698815Y-147198815D01*
X78619463Y-147295506D01*
X78560498Y-147405820D01*
X78524188Y-147525518D01*
X78511928Y-147650000D01*
X78511928Y-149350000D01*
X78524188Y-149474482D01*
X78560498Y-149594180D01*
X78619463Y-149704494D01*
X78698815Y-149801185D01*
X78795506Y-149880537D01*
X78905820Y-149939502D01*
X79025518Y-149975812D01*
X79150000Y-149988072D01*
X80850000Y-149988072D01*
X80974482Y-149975812D01*
X81094180Y-149939502D01*
X81204494Y-149880537D01*
X81301185Y-149801185D01*
X81380537Y-149704494D01*
X81439502Y-149594180D01*
X81461513Y-149521620D01*
X81593368Y-149653475D01*
X81836589Y-149815990D01*
X82106842Y-149927932D01*
X82393740Y-149985000D01*
X82686260Y-149985000D01*
X82973158Y-149927932D01*
X83243411Y-149815990D01*
X83486632Y-149653475D01*
X83693475Y-149446632D01*
X83855990Y-149203411D01*
X83967932Y-148933158D01*
X84025000Y-148646260D01*
X84025000Y-148353740D01*
X83967932Y-148066842D01*
X83855990Y-147796589D01*
X83693475Y-147553368D01*
X83486632Y-147346525D01*
X83443813Y-147317914D01*
X85999428Y-147310970D01*
X85999428Y-147348524D01*
X85990000Y-147444249D01*
X85990000Y-148849228D01*
X85981423Y-148877502D01*
X85959509Y-149100000D01*
X85981423Y-149322498D01*
X86046324Y-149536446D01*
X86151717Y-149733622D01*
X86293552Y-149906448D01*
X86466378Y-150048283D01*
X86663554Y-150153676D01*
X86877502Y-150218577D01*
X87100000Y-150240491D01*
X87322498Y-150218577D01*
X87536446Y-150153676D01*
X87733622Y-150048283D01*
X87863143Y-149941988D01*
X87888135Y-149916996D01*
X87931449Y-149881449D01*
X88073284Y-149708623D01*
X88178676Y-149511447D01*
X88243577Y-149297499D01*
X88260000Y-149130752D01*
X88260000Y-149130742D01*
X88265490Y-149075001D01*
X88260000Y-149019259D01*
X88260000Y-148684258D01*
X88266336Y-148689458D01*
X88418791Y-148770947D01*
X88584215Y-148821128D01*
X88756250Y-148838072D01*
X89243750Y-148838072D01*
X89415785Y-148821128D01*
X89581209Y-148770947D01*
X89733664Y-148689458D01*
X89867292Y-148579792D01*
X89976958Y-148446164D01*
X90058447Y-148293709D01*
X90108628Y-148128285D01*
X90125572Y-147956250D01*
X90125572Y-147650000D01*
X92011928Y-147650000D01*
X92011928Y-149350000D01*
X92024188Y-149474482D01*
X92060498Y-149594180D01*
X92119463Y-149704494D01*
X92198815Y-149801185D01*
X92295506Y-149880537D01*
X92405820Y-149939502D01*
X92525518Y-149975812D01*
X92650000Y-149988072D01*
X94350000Y-149988072D01*
X94474482Y-149975812D01*
X94594180Y-149939502D01*
X94704494Y-149880537D01*
X94801185Y-149801185D01*
X94880537Y-149704494D01*
X94939502Y-149594180D01*
X94963966Y-149513534D01*
X95039731Y-149597588D01*
X95273080Y-149771641D01*
X95535901Y-149896825D01*
X95683110Y-149941476D01*
X95913000Y-149820155D01*
X95913000Y-148627000D01*
X96167000Y-148627000D01*
X96167000Y-149820155D01*
X96396890Y-149941476D01*
X96544099Y-149896825D01*
X96806920Y-149771641D01*
X97040269Y-149597588D01*
X97235178Y-149381355D01*
X97384157Y-149131252D01*
X97481481Y-148856891D01*
X97360814Y-148627000D01*
X96167000Y-148627000D01*
X95913000Y-148627000D01*
X95893000Y-148627000D01*
X95893000Y-148373000D01*
X95913000Y-148373000D01*
X95913000Y-147179845D01*
X96167000Y-147179845D01*
X96167000Y-148373000D01*
X97360814Y-148373000D01*
X97481481Y-148143109D01*
X97384157Y-147868748D01*
X97235178Y-147618645D01*
X97040269Y-147402412D01*
X96806920Y-147228359D01*
X96544099Y-147103175D01*
X96396890Y-147058524D01*
X96167000Y-147179845D01*
X95913000Y-147179845D01*
X95683110Y-147058524D01*
X95535901Y-147103175D01*
X95273080Y-147228359D01*
X95039731Y-147402412D01*
X94963966Y-147486466D01*
X94939502Y-147405820D01*
X94880537Y-147295506D01*
X94801185Y-147198815D01*
X94704494Y-147119463D01*
X94594180Y-147060498D01*
X94474482Y-147024188D01*
X94350000Y-147011928D01*
X92650000Y-147011928D01*
X92525518Y-147024188D01*
X92405820Y-147060498D01*
X92295506Y-147119463D01*
X92198815Y-147198815D01*
X92119463Y-147295506D01*
X92060498Y-147405820D01*
X92024188Y-147525518D01*
X92011928Y-147650000D01*
X90125572Y-147650000D01*
X90125572Y-147449231D01*
X90211008Y-147363795D01*
X90240001Y-147340001D01*
X90263795Y-147311008D01*
X90263799Y-147311004D01*
X90334973Y-147224277D01*
X90334974Y-147224276D01*
X90405546Y-147092247D01*
X90449003Y-146948986D01*
X90460000Y-146837333D01*
X90460000Y-146837324D01*
X90463676Y-146800001D01*
X90460000Y-146762678D01*
X90460000Y-145788072D01*
X92550000Y-145788072D01*
X92674482Y-145775812D01*
X92794180Y-145739502D01*
X92904494Y-145680537D01*
X93001185Y-145601185D01*
X93080537Y-145504494D01*
X93139502Y-145394180D01*
X93175812Y-145274482D01*
X93188072Y-145150000D01*
X93188072Y-142850000D01*
X93175812Y-142725518D01*
X93139502Y-142605820D01*
X93080537Y-142495506D01*
X93001185Y-142398815D01*
X92904494Y-142319463D01*
X92794180Y-142260498D01*
X92674482Y-142224188D01*
X92550000Y-142211928D01*
X90050000Y-142211928D01*
X89925518Y-142224188D01*
X89805820Y-142260498D01*
X89695506Y-142319463D01*
X89598815Y-142398815D01*
X89519463Y-142495506D01*
X89460498Y-142605820D01*
X89427000Y-142716248D01*
X89427000Y-137998048D01*
X89478815Y-138061185D01*
G37*
X89478815Y-138061185D02*
X89575506Y-138140537D01*
X89685820Y-138199502D01*
X89805518Y-138235812D01*
X89930000Y-138248072D01*
X89970001Y-138248072D01*
X89970001Y-138442668D01*
X89966324Y-138480000D01*
X89970001Y-138517333D01*
X89975684Y-138575027D01*
X89980998Y-138628985D01*
X90024454Y-138772246D01*
X90095026Y-138904276D01*
X90166201Y-138991002D01*
X90190000Y-139020001D01*
X90218998Y-139043799D01*
X91186201Y-140011003D01*
X91209999Y-140040001D01*
X91325724Y-140134974D01*
X91457753Y-140205546D01*
X91601014Y-140249003D01*
X91712667Y-140260000D01*
X91712677Y-140260000D01*
X91750000Y-140263676D01*
X91787323Y-140260000D01*
X92493827Y-140260000D01*
X92504053Y-140293709D01*
X92585542Y-140446164D01*
X92695208Y-140579792D01*
X92828836Y-140689458D01*
X92981291Y-140770947D01*
X93146715Y-140821128D01*
X93318750Y-140838072D01*
X93806250Y-140838072D01*
X93978285Y-140821128D01*
X94143709Y-140770947D01*
X94296164Y-140689458D01*
X94429792Y-140579792D01*
X94435008Y-140573436D01*
X94498815Y-140651185D01*
X94595506Y-140730537D01*
X94705820Y-140789502D01*
X94825518Y-140825812D01*
X94950000Y-140838072D01*
X95151750Y-140835000D01*
X95310500Y-140676250D01*
X95310500Y-139627000D01*
X95564500Y-139627000D01*
X95564500Y-140676250D01*
X95723250Y-140835000D01*
X95925000Y-140838072D01*
X96049482Y-140825812D01*
X96169180Y-140789502D01*
X96279494Y-140730537D01*
X96376185Y-140651185D01*
X96455537Y-140554494D01*
X96514502Y-140444180D01*
X96550812Y-140324482D01*
X96563072Y-140200000D01*
X96560000Y-139785750D01*
X96401250Y-139627000D01*
X95564500Y-139627000D01*
X95310500Y-139627000D01*
X95290500Y-139627000D01*
X95290500Y-139373000D01*
X95310500Y-139373000D01*
X95310500Y-139353000D01*
X95564500Y-139353000D01*
X95564500Y-139373000D01*
X96401250Y-139373000D01*
X96560000Y-139214250D01*
X96561515Y-139010000D01*
X110935199Y-139010000D01*
X112976201Y-141051003D01*
X112999999Y-141080001D01*
X113028997Y-141103799D01*
X113115723Y-141174974D01*
X113217314Y-141229276D01*
X113247753Y-141245546D01*
X113391014Y-141289003D01*
X113502667Y-141300000D01*
X113502676Y-141300000D01*
X113539999Y-141303676D01*
X113577322Y-141300000D01*
X115721822Y-141300000D01*
X115846525Y-141486632D01*
X116053368Y-141693475D01*
X116296589Y-141855990D01*
X116566842Y-141967932D01*
X116853740Y-142025000D01*
X117146260Y-142025000D01*
X117433158Y-141967932D01*
X117703411Y-141855990D01*
X117946632Y-141693475D01*
X118153475Y-141486632D01*
X118315990Y-141243411D01*
X118340001Y-141185444D01*
X118340001Y-143340000D01*
X99032419Y-143340000D01*
X99000000Y-143336807D01*
X98967581Y-143340000D01*
X98870617Y-143349550D01*
X98746207Y-143387290D01*
X98631550Y-143448575D01*
X98531052Y-143531052D01*
X98448575Y-143631550D01*
X98387290Y-143746207D01*
X98349550Y-143870617D01*
X98336807Y-144000000D01*
X98340000Y-144032419D01*
X98340001Y-150340000D01*
X75660000Y-150340000D01*
X75660000Y-143005000D01*
X75996928Y-143005000D01*
X76009188Y-143129482D01*
X76045498Y-143249180D01*
X76104463Y-143359494D01*
X76183815Y-143456185D01*
X76280506Y-143535537D01*
X76390820Y-143594502D01*
X76510518Y-143630812D01*
X76635000Y-143643072D01*
X76836750Y-143640000D01*
X76995500Y-143481250D01*
X76995500Y-142432000D01*
X76158750Y-142432000D01*
X76000000Y-142590750D01*
X75996928Y-143005000D01*
X75660000Y-143005000D01*
X75660000Y-141052166D01*
X75683815Y-141081185D01*
X75780506Y-141160537D01*
X75890820Y-141219502D01*
X76010518Y-141255812D01*
X76097070Y-141264336D01*
X76045498Y-141360820D01*
X76009188Y-141480518D01*
X75996928Y-141605000D01*
X76000000Y-142019250D01*
X76158750Y-142178000D01*
X76995500Y-142178000D01*
X76995500Y-142158000D01*
X77249500Y-142158000D01*
X77249500Y-142178000D01*
X77269500Y-142178000D01*
X77269500Y-142432000D01*
X77249500Y-142432000D01*
X77249500Y-143481250D01*
X77408250Y-143640000D01*
X77610000Y-143643072D01*
X77734482Y-143630812D01*
X77854180Y-143594502D01*
X77964494Y-143535537D01*
X78061185Y-143456185D01*
X78124992Y-143378436D01*
X78130208Y-143384792D01*
X78263836Y-143494458D01*
X78416291Y-143575947D01*
X78581715Y-143626128D01*
X78752359Y-143642935D01*
X78758877Y-143648284D01*
X78956053Y-143753676D01*
X79170001Y-143818577D01*
X79336748Y-143835000D01*
X79336757Y-143835000D01*
X79392499Y-143840490D01*
X79448241Y-143835000D01*
X79973000Y-143835000D01*
X79973000Y-146952199D01*
X79913271Y-147011928D01*
X79150000Y-147011928D01*
X79025518Y-147024188D01*
X78905820Y-147060498D01*
X78795506Y-147119463D01*
X78698815Y-147198815D01*
X78619463Y-147295506D01*
X78560498Y-147405820D01*
X78524188Y-147525518D01*
X78511928Y-147650000D01*
X78511928Y-149350000D01*
X78524188Y-149474482D01*
X78560498Y-149594180D01*
X78619463Y-149704494D01*
X78698815Y-149801185D01*
X78795506Y-149880537D01*
X78905820Y-149939502D01*
X79025518Y-149975812D01*
X79150000Y-149988072D01*
X80850000Y-149988072D01*
X80974482Y-149975812D01*
X81094180Y-149939502D01*
X81204494Y-149880537D01*
X81301185Y-149801185D01*
X81380537Y-149704494D01*
X81439502Y-149594180D01*
X81461513Y-149521620D01*
X81593368Y-149653475D01*
X81836589Y-149815990D01*
X82106842Y-149927932D01*
X82393740Y-149985000D01*
X82686260Y-149985000D01*
X82973158Y-149927932D01*
X83243411Y-149815990D01*
X83486632Y-149653475D01*
X83693475Y-149446632D01*
X83855990Y-149203411D01*
X83967932Y-148933158D01*
X84025000Y-148646260D01*
X84025000Y-148353740D01*
X83967932Y-148066842D01*
X83855990Y-147796589D01*
X83693475Y-147553368D01*
X83486632Y-147346525D01*
X83443813Y-147317914D01*
X85999428Y-147310970D01*
X85999428Y-147348524D01*
X85990000Y-147444249D01*
X85990000Y-148849228D01*
X85981423Y-148877502D01*
X85959509Y-149100000D01*
X85981423Y-149322498D01*
X86046324Y-149536446D01*
X86151717Y-149733622D01*
X86293552Y-149906448D01*
X86466378Y-150048283D01*
X86663554Y-150153676D01*
X86877502Y-150218577D01*
X87100000Y-150240491D01*
X87322498Y-150218577D01*
X87536446Y-150153676D01*
X87733622Y-150048283D01*
X87863143Y-149941988D01*
X87888135Y-149916996D01*
X87931449Y-149881449D01*
X88073284Y-149708623D01*
X88178676Y-149511447D01*
X88243577Y-149297499D01*
X88260000Y-149130752D01*
X88260000Y-149130742D01*
X88265490Y-149075001D01*
X88260000Y-149019259D01*
X88260000Y-148684258D01*
X88266336Y-148689458D01*
X88418791Y-148770947D01*
X88584215Y-148821128D01*
X88756250Y-148838072D01*
X89243750Y-148838072D01*
X89415785Y-148821128D01*
X89581209Y-148770947D01*
X89733664Y-148689458D01*
X89867292Y-148579792D01*
X89976958Y-148446164D01*
X90058447Y-148293709D01*
X90108628Y-148128285D01*
X90125572Y-147956250D01*
X90125572Y-147650000D01*
X92011928Y-147650000D01*
X92011928Y-149350000D01*
X92024188Y-149474482D01*
X92060498Y-149594180D01*
X92119463Y-149704494D01*
X92198815Y-149801185D01*
X92295506Y-149880537D01*
X92405820Y-149939502D01*
X92525518Y-149975812D01*
X92650000Y-149988072D01*
X94350000Y-149988072D01*
X94474482Y-149975812D01*
X94594180Y-149939502D01*
X94704494Y-149880537D01*
X94801185Y-149801185D01*
X94880537Y-149704494D01*
X94939502Y-149594180D01*
X94963966Y-149513534D01*
X95039731Y-149597588D01*
X95273080Y-149771641D01*
X95535901Y-149896825D01*
X95683110Y-149941476D01*
X95913000Y-149820155D01*
X95913000Y-148627000D01*
X96167000Y-148627000D01*
X96167000Y-149820155D01*
X96396890Y-149941476D01*
X96544099Y-149896825D01*
X96806920Y-149771641D01*
X97040269Y-149597588D01*
X97235178Y-149381355D01*
X97384157Y-149131252D01*
X97481481Y-148856891D01*
X97360814Y-148627000D01*
X96167000Y-148627000D01*
X95913000Y-148627000D01*
X95893000Y-148627000D01*
X95893000Y-148373000D01*
X95913000Y-148373000D01*
X95913000Y-147179845D01*
X96167000Y-147179845D01*
X96167000Y-148373000D01*
X97360814Y-148373000D01*
X97481481Y-148143109D01*
X97384157Y-147868748D01*
X97235178Y-147618645D01*
X97040269Y-147402412D01*
X96806920Y-147228359D01*
X96544099Y-147103175D01*
X96396890Y-147058524D01*
X96167000Y-147179845D01*
X95913000Y-147179845D01*
X95683110Y-147058524D01*
X95535901Y-147103175D01*
X95273080Y-147228359D01*
X95039731Y-147402412D01*
X94963966Y-147486466D01*
X94939502Y-147405820D01*
X94880537Y-147295506D01*
X94801185Y-147198815D01*
X94704494Y-147119463D01*
X94594180Y-147060498D01*
X94474482Y-147024188D01*
X94350000Y-147011928D01*
X92650000Y-147011928D01*
X92525518Y-147024188D01*
X92405820Y-147060498D01*
X92295506Y-147119463D01*
X92198815Y-147198815D01*
X92119463Y-147295506D01*
X92060498Y-147405820D01*
X92024188Y-147525518D01*
X92011928Y-147650000D01*
X90125572Y-147650000D01*
X90125572Y-147449231D01*
X90211008Y-147363795D01*
X90240001Y-147340001D01*
X90263795Y-147311008D01*
X90263799Y-147311004D01*
X90334973Y-147224277D01*
X90334974Y-147224276D01*
X90405546Y-147092247D01*
X90449003Y-146948986D01*
X90460000Y-146837333D01*
X90460000Y-146837324D01*
X90463676Y-146800001D01*
X90460000Y-146762678D01*
X90460000Y-145788072D01*
X92550000Y-145788072D01*
X92674482Y-145775812D01*
X92794180Y-145739502D01*
X92904494Y-145680537D01*
X93001185Y-145601185D01*
X93080537Y-145504494D01*
X93139502Y-145394180D01*
X93175812Y-145274482D01*
X93188072Y-145150000D01*
X93188072Y-142850000D01*
X93175812Y-142725518D01*
X93139502Y-142605820D01*
X93080537Y-142495506D01*
X93001185Y-142398815D01*
X92904494Y-142319463D01*
X92794180Y-142260498D01*
X92674482Y-142224188D01*
X92550000Y-142211928D01*
X90050000Y-142211928D01*
X89925518Y-142224188D01*
X89805820Y-142260498D01*
X89695506Y-142319463D01*
X89598815Y-142398815D01*
X89519463Y-142495506D01*
X89460498Y-142605820D01*
X89427000Y-142716248D01*
X89427000Y-137998048D01*
X89478815Y-138061185D01*
G36*
X55340001Y-115967581D02*
G01*
X55340001Y-116880881D01*
X55313685Y-116848815D01*
X55216994Y-116769463D01*
X55106680Y-116710498D01*
X54986982Y-116674188D01*
X54862500Y-116661928D01*
X54660750Y-116665000D01*
X54502000Y-116823750D01*
X54502000Y-117873000D01*
X54522000Y-117873000D01*
X54522000Y-118127000D01*
X54502000Y-118127000D01*
X54502000Y-118623750D01*
X54427000Y-118698750D01*
X54427000Y-120373000D01*
X55401250Y-120373000D01*
X55560000Y-120214250D01*
X55561391Y-119743846D01*
X55631550Y-119801425D01*
X55746207Y-119862710D01*
X55870617Y-119900450D01*
X56000000Y-119913193D01*
X56032419Y-119910000D01*
X70717581Y-119910000D01*
X70750000Y-119913193D01*
X70782419Y-119910000D01*
X70879383Y-119900450D01*
X71003793Y-119862710D01*
X71118450Y-119801425D01*
X71218948Y-119718948D01*
X71301425Y-119618450D01*
X71362710Y-119503793D01*
X71373000Y-119469872D01*
X71373000Y-134500000D01*
X71375440Y-134524776D01*
X71382667Y-134548601D01*
X71394403Y-134570557D01*
X71410197Y-134589803D01*
X71429443Y-134605597D01*
X71451399Y-134617333D01*
X71475224Y-134624560D01*
X71500000Y-134627000D01*
X76205423Y-134627000D01*
X76189188Y-134680518D01*
X76176928Y-134805000D01*
X76180000Y-135494250D01*
X76338750Y-135653000D01*
X76988000Y-135653000D01*
X76988000Y-135633000D01*
X77242000Y-135633000D01*
X77242000Y-135653000D01*
X77262000Y-135653000D01*
X77262000Y-135907000D01*
X77242000Y-135907000D01*
X77242000Y-135927000D01*
X76988000Y-135927000D01*
X76988000Y-135907000D01*
X76338750Y-135907000D01*
X76180000Y-136065750D01*
X76176928Y-136755000D01*
X76189188Y-136879482D01*
X76225498Y-136999180D01*
X76284463Y-137109494D01*
X76363815Y-137206185D01*
X76460506Y-137285537D01*
X76570820Y-137344502D01*
X76632998Y-137363363D01*
X76632998Y-137503748D01*
X76474250Y-137345000D01*
X76135000Y-137341928D01*
X76010518Y-137354188D01*
X75890820Y-137390498D01*
X75780506Y-137449463D01*
X75683815Y-137528815D01*
X75604463Y-137625506D01*
X75545498Y-137735820D01*
X75509188Y-137855518D01*
X75496928Y-137980000D01*
X75500000Y-139019250D01*
X75658750Y-139178000D01*
X76633000Y-139178000D01*
X76633000Y-139158000D01*
X76887000Y-139158000D01*
X76887000Y-139178000D01*
X77861250Y-139178000D01*
X78020000Y-139019250D01*
X78021431Y-138535000D01*
X78201939Y-138535000D01*
X78296928Y-138516106D01*
X78296928Y-140380000D01*
X78313992Y-140553254D01*
X78364528Y-140719850D01*
X78446595Y-140873386D01*
X78546127Y-140994667D01*
X78416291Y-141034053D01*
X78263836Y-141115542D01*
X78130208Y-141225208D01*
X78124992Y-141231564D01*
X78061185Y-141153815D01*
X77964494Y-141074463D01*
X77879143Y-141028841D01*
X77915537Y-140984494D01*
X77974502Y-140874180D01*
X78010812Y-140754482D01*
X78023072Y-140630000D01*
X78020000Y-139590750D01*
X77861250Y-139432000D01*
X76887000Y-139432000D01*
X76887000Y-139452000D01*
X76633000Y-139452000D01*
X76633000Y-139432000D01*
X75658750Y-139432000D01*
X75500000Y-139590750D01*
X75497119Y-140565378D01*
X75468948Y-140531052D01*
X75368450Y-140448575D01*
X75253793Y-140387290D01*
X75129383Y-140349550D01*
X75032419Y-140340000D01*
X75000000Y-140336807D01*
X74967581Y-140340000D01*
X61127000Y-140340000D01*
X61127000Y-138976890D01*
X62058524Y-138976890D01*
X62103175Y-139124099D01*
X62228359Y-139386920D01*
X62402412Y-139620269D01*
X62618645Y-139815178D01*
X62868748Y-139964157D01*
X63143109Y-140061481D01*
X63373000Y-139940814D01*
X63373000Y-138747000D01*
X63627000Y-138747000D01*
X63627000Y-139940814D01*
X63856891Y-140061481D01*
X64131252Y-139964157D01*
X64381355Y-139815178D01*
X64597588Y-139620269D01*
X64771641Y-139386920D01*
X64896825Y-139124099D01*
X64941476Y-138976890D01*
X64820155Y-138747000D01*
X63627000Y-138747000D01*
X63373000Y-138747000D01*
X62179845Y-138747000D01*
X62058524Y-138976890D01*
X61127000Y-138976890D01*
X61127000Y-136436890D01*
X62058524Y-136436890D01*
X62103175Y-136584099D01*
X62228359Y-136846920D01*
X62402412Y-137080269D01*
X62618645Y-137275178D01*
X62744255Y-137350000D01*
X62618645Y-137424822D01*
X62402412Y-137619731D01*
X62228359Y-137853080D01*
X62103175Y-138115901D01*
X62058524Y-138263110D01*
X62179845Y-138493000D01*
X63373000Y-138493000D01*
X63373000Y-136207000D01*
X63627000Y-136207000D01*
X63627000Y-138493000D01*
X64820155Y-138493000D01*
X64941476Y-138263110D01*
X64896825Y-138115901D01*
X64771641Y-137853080D01*
X64597588Y-137619731D01*
X64381355Y-137424822D01*
X64255745Y-137350000D01*
X64381355Y-137275178D01*
X64597588Y-137080269D01*
X64771641Y-136846920D01*
X64896825Y-136584099D01*
X64941476Y-136436890D01*
X64820155Y-136207000D01*
X63627000Y-136207000D01*
X63373000Y-136207000D01*
X62179845Y-136207000D01*
X62058524Y-136436890D01*
X61127000Y-136436890D01*
X61127000Y-130150000D01*
X62011928Y-130150000D01*
X62011928Y-131850000D01*
X62024188Y-131974482D01*
X62060498Y-132094180D01*
X62119463Y-132204494D01*
X62198815Y-132301185D01*
X62295506Y-132380537D01*
X62405820Y-132439502D01*
X62478380Y-132461513D01*
X62346525Y-132593368D01*
X62184010Y-132836589D01*
X62072068Y-133106842D01*
X62015000Y-133393740D01*
X62015000Y-133686260D01*
X62072068Y-133973158D01*
X62184010Y-134243411D01*
X62346525Y-134486632D01*
X62553368Y-134693475D01*
X62735534Y-134815195D01*
X62618645Y-134884822D01*
X62402412Y-135079731D01*
X62228359Y-135313080D01*
X62103175Y-135575901D01*
X62058524Y-135723110D01*
X62179845Y-135953000D01*
X63373000Y-135953000D01*
X63373000Y-135933000D01*
X63627000Y-135933000D01*
X63627000Y-135953000D01*
X64820155Y-135953000D01*
X64941476Y-135723110D01*
X64896825Y-135575901D01*
X64771641Y-135313080D01*
X64597588Y-135079731D01*
X64381355Y-134884822D01*
X64264466Y-134815195D01*
X64446632Y-134693475D01*
X64653475Y-134486632D01*
X64815990Y-134243411D01*
X64927932Y-133973158D01*
X64985000Y-133686260D01*
X64985000Y-133393740D01*
X64927932Y-133106842D01*
X64815990Y-132836589D01*
X64653475Y-132593368D01*
X64521620Y-132461513D01*
X64594180Y-132439502D01*
X64704494Y-132380537D01*
X64801185Y-132301185D01*
X64880537Y-132204494D01*
X64939502Y-132094180D01*
X64975812Y-131974482D01*
X64988072Y-131850000D01*
X64988072Y-130150000D01*
X64975812Y-130025518D01*
X64939502Y-129905820D01*
X64880537Y-129795506D01*
X64801185Y-129698815D01*
X64704494Y-129619463D01*
X64594180Y-129560498D01*
X64474482Y-129524188D01*
X64350000Y-129511928D01*
X62650000Y-129511928D01*
X62525518Y-129524188D01*
X62405820Y-129560498D01*
X62295506Y-129619463D01*
X62198815Y-129698815D01*
X62119463Y-129795506D01*
X62060498Y-129905820D01*
X62024188Y-130025518D01*
X62011928Y-130150000D01*
X61127000Y-130150000D01*
X61127000Y-124500000D01*
X61124560Y-124475224D01*
X61117333Y-124451399D01*
X61105597Y-124429443D01*
X61089803Y-124410197D01*
X61070557Y-124394403D01*
X61048601Y-124382667D01*
X61024776Y-124375440D01*
X61000000Y-124373000D01*
X55382506Y-124373000D01*
X55380000Y-123810750D01*
X55221250Y-123652000D01*
X54572000Y-123652000D01*
X54572000Y-123672000D01*
X54318000Y-123672000D01*
X54318000Y-123652000D01*
X54298000Y-123652000D01*
X54298000Y-123398000D01*
X54318000Y-123398000D01*
X54318000Y-123378000D01*
X54572000Y-123378000D01*
X54572000Y-123398000D01*
X55221250Y-123398000D01*
X55380000Y-123239250D01*
X55383072Y-122550000D01*
X55370812Y-122425518D01*
X55335613Y-122309482D01*
X55376185Y-122276185D01*
X55455537Y-122179494D01*
X55514502Y-122069180D01*
X55550812Y-121949482D01*
X55563072Y-121825000D01*
X55560000Y-120785750D01*
X55401250Y-120627000D01*
X54427000Y-120627000D01*
X54427000Y-120647000D01*
X54173000Y-120647000D01*
X54173000Y-120627000D01*
X53198750Y-120627000D01*
X53050993Y-120774757D01*
X53001939Y-120765000D01*
X52798061Y-120765000D01*
X52763072Y-120771960D01*
X52763072Y-120311730D01*
X53011003Y-120063799D01*
X53039486Y-120040424D01*
X53040000Y-120214250D01*
X53198750Y-120373000D01*
X54173000Y-120373000D01*
X54173000Y-119251250D01*
X54248000Y-119176250D01*
X54248000Y-118127000D01*
X54228000Y-118127000D01*
X54228000Y-117873000D01*
X54248000Y-117873000D01*
X54248000Y-116823750D01*
X54089250Y-116665000D01*
X53887500Y-116661928D01*
X53763018Y-116674188D01*
X53643320Y-116710498D01*
X53533006Y-116769463D01*
X53436315Y-116848815D01*
X53372508Y-116926564D01*
X53367292Y-116920208D01*
X53233664Y-116810542D01*
X53081209Y-116729053D01*
X52915785Y-116678872D01*
X52743750Y-116661928D01*
X52256250Y-116661928D01*
X52084215Y-116678872D01*
X51918791Y-116729053D01*
X51766336Y-116810542D01*
X51632708Y-116920208D01*
X51523042Y-117053836D01*
X51514008Y-117070738D01*
X51427000Y-117062168D01*
X51427000Y-116488072D01*
X52850000Y-116488072D01*
X52974482Y-116475812D01*
X53094180Y-116439502D01*
X53204494Y-116380537D01*
X53301185Y-116301185D01*
X53380537Y-116204494D01*
X53439502Y-116094180D01*
X53475812Y-115974482D01*
X53488072Y-115850000D01*
X53488072Y-114150000D01*
X53475812Y-114025518D01*
X53439502Y-113905820D01*
X53380537Y-113795506D01*
X53301185Y-113698815D01*
X53204494Y-113619463D01*
X53094180Y-113560498D01*
X52974482Y-113524188D01*
X52850000Y-113511928D01*
X51586729Y-113511928D01*
X51063804Y-112989003D01*
X51040001Y-112959999D01*
X50924276Y-112865026D01*
X50792247Y-112794454D01*
X50648986Y-112750997D01*
X50537333Y-112740000D01*
X50537322Y-112740000D01*
X50500000Y-112736324D01*
X50462678Y-112740000D01*
X48037322Y-112740000D01*
X48000000Y-112736324D01*
X47962677Y-112740000D01*
X47962667Y-112740000D01*
X47851014Y-112750997D01*
X47707753Y-112794454D01*
X47575723Y-112865026D01*
X47492083Y-112933668D01*
X47459999Y-112959999D01*
X47436201Y-112988997D01*
X46088998Y-114336201D01*
X46060000Y-114359999D01*
X46036202Y-114388997D01*
X46036201Y-114388998D01*
X45965026Y-114475724D01*
X45894454Y-114607754D01*
X45850998Y-114751015D01*
X45836324Y-114900000D01*
X45840001Y-114937332D01*
X45840001Y-115966329D01*
X44999496Y-115973000D01*
X41975958Y-115973000D01*
X41988072Y-115850000D01*
X41988072Y-114150000D01*
X41975812Y-114025518D01*
X41939502Y-113905820D01*
X41880537Y-113795506D01*
X41801185Y-113698815D01*
X41704494Y-113619463D01*
X41594180Y-113560498D01*
X41474482Y-113524188D01*
X41350000Y-113511928D01*
X39650000Y-113511928D01*
X39525518Y-113524188D01*
X39405820Y-113560498D01*
X39295506Y-113619463D01*
X39198815Y-113698815D01*
X39119463Y-113795506D01*
X39060498Y-113905820D01*
X39036034Y-113986466D01*
X38960269Y-113902412D01*
X38726920Y-113728359D01*
X38464099Y-113603175D01*
X38316890Y-113558524D01*
X38087000Y-113679845D01*
X38087000Y-114873000D01*
X38107000Y-114873000D01*
X38107000Y-115127000D01*
X38087000Y-115127000D01*
X38087000Y-116320155D01*
X38316890Y-116441476D01*
X38464099Y-116396825D01*
X38726920Y-116271641D01*
X38960269Y-116097588D01*
X39036034Y-116013534D01*
X39060498Y-116094180D01*
X39119463Y-116204494D01*
X39198815Y-116301185D01*
X39295506Y-116380537D01*
X39405820Y-116439502D01*
X39525518Y-116475812D01*
X39650000Y-116488072D01*
X39769467Y-116488072D01*
X39747205Y-118936872D01*
X39689458Y-118828836D01*
X39579792Y-118695208D01*
X39446164Y-118585542D01*
X39293709Y-118504053D01*
X39128285Y-118453872D01*
X38956250Y-118436928D01*
X38651477Y-118436928D01*
X38555752Y-118427500D01*
X37415045Y-118427500D01*
X37383591Y-118401686D01*
X37186415Y-118296293D01*
X36972467Y-118231392D01*
X36749969Y-118209478D01*
X36527471Y-118231392D01*
X36313523Y-118296293D01*
X36116347Y-118401686D01*
X35943521Y-118543521D01*
X35801686Y-118716347D01*
X35696293Y-118913523D01*
X35631392Y-119127471D01*
X35609478Y-119349969D01*
X35631392Y-119572467D01*
X35696293Y-119786415D01*
X35801686Y-119983591D01*
X35907981Y-120113112D01*
X36120504Y-120325635D01*
X36156051Y-120368949D01*
X36328877Y-120510784D01*
X36526053Y-120616176D01*
X36740001Y-120681077D01*
X36906748Y-120697500D01*
X36906755Y-120697500D01*
X36962499Y-120702990D01*
X37018243Y-120697500D01*
X37315742Y-120697500D01*
X37310542Y-120703836D01*
X37229053Y-120856291D01*
X37178872Y-121021715D01*
X37161928Y-121193750D01*
X37161928Y-121681250D01*
X37178872Y-121853285D01*
X37229053Y-122018709D01*
X37310542Y-122171164D01*
X37420208Y-122304792D01*
X37553836Y-122414458D01*
X37706291Y-122495947D01*
X37736837Y-122505213D01*
X37740001Y-122537333D01*
X37748513Y-122623750D01*
X37750998Y-122648985D01*
X37794454Y-122792246D01*
X37865026Y-122924276D01*
X37936201Y-123011002D01*
X37960000Y-123040001D01*
X37988998Y-123063799D01*
X38436196Y-123510997D01*
X38459999Y-123540001D01*
X38575724Y-123634974D01*
X38707753Y-123705546D01*
X38851014Y-123749003D01*
X38962667Y-123760000D01*
X38962675Y-123760000D01*
X39000000Y-123763676D01*
X39037325Y-123760000D01*
X40711928Y-123760000D01*
X40711928Y-123900000D01*
X40724188Y-124024482D01*
X40760498Y-124144180D01*
X40819463Y-124254494D01*
X40898815Y-124351185D01*
X40925397Y-124373000D01*
X29660000Y-124373000D01*
X29660000Y-115356891D01*
X36518519Y-115356891D01*
X36615843Y-115631252D01*
X36764822Y-115881355D01*
X36959731Y-116097588D01*
X37193080Y-116271641D01*
X37455901Y-116396825D01*
X37603110Y-116441476D01*
X37833000Y-116320155D01*
X37833000Y-115127000D01*
X36639186Y-115127000D01*
X36518519Y-115356891D01*
X29660000Y-115356891D01*
X29660000Y-114643109D01*
X36518519Y-114643109D01*
X36639186Y-114873000D01*
X37833000Y-114873000D01*
X37833000Y-113679845D01*
X37603110Y-113558524D01*
X37455901Y-113603175D01*
X37193080Y-113728359D01*
X36959731Y-113902412D01*
X36764822Y-114118645D01*
X36615843Y-114368748D01*
X36518519Y-114643109D01*
X29660000Y-114643109D01*
X29660000Y-111660000D01*
X55340000Y-111660000D01*
X55340001Y-115967581D01*
G37*
X55340001Y-115967581D02*
X55340001Y-116880881D01*
X55313685Y-116848815D01*
X55216994Y-116769463D01*
X55106680Y-116710498D01*
X54986982Y-116674188D01*
X54862500Y-116661928D01*
X54660750Y-116665000D01*
X54502000Y-116823750D01*
X54502000Y-117873000D01*
X54522000Y-117873000D01*
X54522000Y-118127000D01*
X54502000Y-118127000D01*
X54502000Y-118623750D01*
X54427000Y-118698750D01*
X54427000Y-120373000D01*
X55401250Y-120373000D01*
X55560000Y-120214250D01*
X55561391Y-119743846D01*
X55631550Y-119801425D01*
X55746207Y-119862710D01*
X55870617Y-119900450D01*
X56000000Y-119913193D01*
X56032419Y-119910000D01*
X70717581Y-119910000D01*
X70750000Y-119913193D01*
X70782419Y-119910000D01*
X70879383Y-119900450D01*
X71003793Y-119862710D01*
X71118450Y-119801425D01*
X71218948Y-119718948D01*
X71301425Y-119618450D01*
X71362710Y-119503793D01*
X71373000Y-119469872D01*
X71373000Y-134500000D01*
X71375440Y-134524776D01*
X71382667Y-134548601D01*
X71394403Y-134570557D01*
X71410197Y-134589803D01*
X71429443Y-134605597D01*
X71451399Y-134617333D01*
X71475224Y-134624560D01*
X71500000Y-134627000D01*
X76205423Y-134627000D01*
X76189188Y-134680518D01*
X76176928Y-134805000D01*
X76180000Y-135494250D01*
X76338750Y-135653000D01*
X76988000Y-135653000D01*
X76988000Y-135633000D01*
X77242000Y-135633000D01*
X77242000Y-135653000D01*
X77262000Y-135653000D01*
X77262000Y-135907000D01*
X77242000Y-135907000D01*
X77242000Y-135927000D01*
X76988000Y-135927000D01*
X76988000Y-135907000D01*
X76338750Y-135907000D01*
X76180000Y-136065750D01*
X76176928Y-136755000D01*
X76189188Y-136879482D01*
X76225498Y-136999180D01*
X76284463Y-137109494D01*
X76363815Y-137206185D01*
X76460506Y-137285537D01*
X76570820Y-137344502D01*
X76632998Y-137363363D01*
X76632998Y-137503748D01*
X76474250Y-137345000D01*
X76135000Y-137341928D01*
X76010518Y-137354188D01*
X75890820Y-137390498D01*
X75780506Y-137449463D01*
X75683815Y-137528815D01*
X75604463Y-137625506D01*
X75545498Y-137735820D01*
X75509188Y-137855518D01*
X75496928Y-137980000D01*
X75500000Y-139019250D01*
X75658750Y-139178000D01*
X76633000Y-139178000D01*
X76633000Y-139158000D01*
X76887000Y-139158000D01*
X76887000Y-139178000D01*
X77861250Y-139178000D01*
X78020000Y-139019250D01*
X78021431Y-138535000D01*
X78201939Y-138535000D01*
X78296928Y-138516106D01*
X78296928Y-140380000D01*
X78313992Y-140553254D01*
X78364528Y-140719850D01*
X78446595Y-140873386D01*
X78546127Y-140994667D01*
X78416291Y-141034053D01*
X78263836Y-141115542D01*
X78130208Y-141225208D01*
X78124992Y-141231564D01*
X78061185Y-141153815D01*
X77964494Y-141074463D01*
X77879143Y-141028841D01*
X77915537Y-140984494D01*
X77974502Y-140874180D01*
X78010812Y-140754482D01*
X78023072Y-140630000D01*
X78020000Y-139590750D01*
X77861250Y-139432000D01*
X76887000Y-139432000D01*
X76887000Y-139452000D01*
X76633000Y-139452000D01*
X76633000Y-139432000D01*
X75658750Y-139432000D01*
X75500000Y-139590750D01*
X75497119Y-140565378D01*
X75468948Y-140531052D01*
X75368450Y-140448575D01*
X75253793Y-140387290D01*
X75129383Y-140349550D01*
X75032419Y-140340000D01*
X75000000Y-140336807D01*
X74967581Y-140340000D01*
X61127000Y-140340000D01*
X61127000Y-138976890D01*
X62058524Y-138976890D01*
X62103175Y-139124099D01*
X62228359Y-139386920D01*
X62402412Y-139620269D01*
X62618645Y-139815178D01*
X62868748Y-139964157D01*
X63143109Y-140061481D01*
X63373000Y-139940814D01*
X63373000Y-138747000D01*
X63627000Y-138747000D01*
X63627000Y-139940814D01*
X63856891Y-140061481D01*
X64131252Y-139964157D01*
X64381355Y-139815178D01*
X64597588Y-139620269D01*
X64771641Y-139386920D01*
X64896825Y-139124099D01*
X64941476Y-138976890D01*
X64820155Y-138747000D01*
X63627000Y-138747000D01*
X63373000Y-138747000D01*
X62179845Y-138747000D01*
X62058524Y-138976890D01*
X61127000Y-138976890D01*
X61127000Y-136436890D01*
X62058524Y-136436890D01*
X62103175Y-136584099D01*
X62228359Y-136846920D01*
X62402412Y-137080269D01*
X62618645Y-137275178D01*
X62744255Y-137350000D01*
X62618645Y-137424822D01*
X62402412Y-137619731D01*
X62228359Y-137853080D01*
X62103175Y-138115901D01*
X62058524Y-138263110D01*
X62179845Y-138493000D01*
X63373000Y-138493000D01*
X63373000Y-136207000D01*
X63627000Y-136207000D01*
X63627000Y-138493000D01*
X64820155Y-138493000D01*
X64941476Y-138263110D01*
X64896825Y-138115901D01*
X64771641Y-137853080D01*
X64597588Y-137619731D01*
X64381355Y-137424822D01*
X64255745Y-137350000D01*
X64381355Y-137275178D01*
X64597588Y-137080269D01*
X64771641Y-136846920D01*
X64896825Y-136584099D01*
X64941476Y-136436890D01*
X64820155Y-136207000D01*
X63627000Y-136207000D01*
X63373000Y-136207000D01*
X62179845Y-136207000D01*
X62058524Y-136436890D01*
X61127000Y-136436890D01*
X61127000Y-130150000D01*
X62011928Y-130150000D01*
X62011928Y-131850000D01*
X62024188Y-131974482D01*
X62060498Y-132094180D01*
X62119463Y-132204494D01*
X62198815Y-132301185D01*
X62295506Y-132380537D01*
X62405820Y-132439502D01*
X62478380Y-132461513D01*
X62346525Y-132593368D01*
X62184010Y-132836589D01*
X62072068Y-133106842D01*
X62015000Y-133393740D01*
X62015000Y-133686260D01*
X62072068Y-133973158D01*
X62184010Y-134243411D01*
X62346525Y-134486632D01*
X62553368Y-134693475D01*
X62735534Y-134815195D01*
X62618645Y-134884822D01*
X62402412Y-135079731D01*
X62228359Y-135313080D01*
X62103175Y-135575901D01*
X62058524Y-135723110D01*
X62179845Y-135953000D01*
X63373000Y-135953000D01*
X63373000Y-135933000D01*
X63627000Y-135933000D01*
X63627000Y-135953000D01*
X64820155Y-135953000D01*
X64941476Y-135723110D01*
X64896825Y-135575901D01*
X64771641Y-135313080D01*
X64597588Y-135079731D01*
X64381355Y-134884822D01*
X64264466Y-134815195D01*
X64446632Y-134693475D01*
X64653475Y-134486632D01*
X64815990Y-134243411D01*
X64927932Y-133973158D01*
X64985000Y-133686260D01*
X64985000Y-133393740D01*
X64927932Y-133106842D01*
X64815990Y-132836589D01*
X64653475Y-132593368D01*
X64521620Y-132461513D01*
X64594180Y-132439502D01*
X64704494Y-132380537D01*
X64801185Y-132301185D01*
X64880537Y-132204494D01*
X64939502Y-132094180D01*
X64975812Y-131974482D01*
X64988072Y-131850000D01*
X64988072Y-130150000D01*
X64975812Y-130025518D01*
X64939502Y-129905820D01*
X64880537Y-129795506D01*
X64801185Y-129698815D01*
X64704494Y-129619463D01*
X64594180Y-129560498D01*
X64474482Y-129524188D01*
X64350000Y-129511928D01*
X62650000Y-129511928D01*
X62525518Y-129524188D01*
X62405820Y-129560498D01*
X62295506Y-129619463D01*
X62198815Y-129698815D01*
X62119463Y-129795506D01*
X62060498Y-129905820D01*
X62024188Y-130025518D01*
X62011928Y-130150000D01*
X61127000Y-130150000D01*
X61127000Y-124500000D01*
X61124560Y-124475224D01*
X61117333Y-124451399D01*
X61105597Y-124429443D01*
X61089803Y-124410197D01*
X61070557Y-124394403D01*
X61048601Y-124382667D01*
X61024776Y-124375440D01*
X61000000Y-124373000D01*
X55382506Y-124373000D01*
X55380000Y-123810750D01*
X55221250Y-123652000D01*
X54572000Y-123652000D01*
X54572000Y-123672000D01*
X54318000Y-123672000D01*
X54318000Y-123652000D01*
X54298000Y-123652000D01*
X54298000Y-123398000D01*
X54318000Y-123398000D01*
X54318000Y-123378000D01*
X54572000Y-123378000D01*
X54572000Y-123398000D01*
X55221250Y-123398000D01*
X55380000Y-123239250D01*
X55383072Y-122550000D01*
X55370812Y-122425518D01*
X55335613Y-122309482D01*
X55376185Y-122276185D01*
X55455537Y-122179494D01*
X55514502Y-122069180D01*
X55550812Y-121949482D01*
X55563072Y-121825000D01*
X55560000Y-120785750D01*
X55401250Y-120627000D01*
X54427000Y-120627000D01*
X54427000Y-120647000D01*
X54173000Y-120647000D01*
X54173000Y-120627000D01*
X53198750Y-120627000D01*
X53050993Y-120774757D01*
X53001939Y-120765000D01*
X52798061Y-120765000D01*
X52763072Y-120771960D01*
X52763072Y-120311730D01*
X53011003Y-120063799D01*
X53039486Y-120040424D01*
X53040000Y-120214250D01*
X53198750Y-120373000D01*
X54173000Y-120373000D01*
X54173000Y-119251250D01*
X54248000Y-119176250D01*
X54248000Y-118127000D01*
X54228000Y-118127000D01*
X54228000Y-117873000D01*
X54248000Y-117873000D01*
X54248000Y-116823750D01*
X54089250Y-116665000D01*
X53887500Y-116661928D01*
X53763018Y-116674188D01*
X53643320Y-116710498D01*
X53533006Y-116769463D01*
X53436315Y-116848815D01*
X53372508Y-116926564D01*
X53367292Y-116920208D01*
X53233664Y-116810542D01*
X53081209Y-116729053D01*
X52915785Y-116678872D01*
X52743750Y-116661928D01*
X52256250Y-116661928D01*
X52084215Y-116678872D01*
X51918791Y-116729053D01*
X51766336Y-116810542D01*
X51632708Y-116920208D01*
X51523042Y-117053836D01*
X51514008Y-117070738D01*
X51427000Y-117062168D01*
X51427000Y-116488072D01*
X52850000Y-116488072D01*
X52974482Y-116475812D01*
X53094180Y-116439502D01*
X53204494Y-116380537D01*
X53301185Y-116301185D01*
X53380537Y-116204494D01*
X53439502Y-116094180D01*
X53475812Y-115974482D01*
X53488072Y-115850000D01*
X53488072Y-114150000D01*
X53475812Y-114025518D01*
X53439502Y-113905820D01*
X53380537Y-113795506D01*
X53301185Y-113698815D01*
X53204494Y-113619463D01*
X53094180Y-113560498D01*
X52974482Y-113524188D01*
X52850000Y-113511928D01*
X51586729Y-113511928D01*
X51063804Y-112989003D01*
X51040001Y-112959999D01*
X50924276Y-112865026D01*
X50792247Y-112794454D01*
X50648986Y-112750997D01*
X50537333Y-112740000D01*
X50537322Y-112740000D01*
X50500000Y-112736324D01*
X50462678Y-112740000D01*
X48037322Y-112740000D01*
X48000000Y-112736324D01*
X47962677Y-112740000D01*
X47962667Y-112740000D01*
X47851014Y-112750997D01*
X47707753Y-112794454D01*
X47575723Y-112865026D01*
X47492083Y-112933668D01*
X47459999Y-112959999D01*
X47436201Y-112988997D01*
X46088998Y-114336201D01*
X46060000Y-114359999D01*
X46036202Y-114388997D01*
X46036201Y-114388998D01*
X45965026Y-114475724D01*
X45894454Y-114607754D01*
X45850998Y-114751015D01*
X45836324Y-114900000D01*
X45840001Y-114937332D01*
X45840001Y-115966329D01*
X44999496Y-115973000D01*
X41975958Y-115973000D01*
X41988072Y-115850000D01*
X41988072Y-114150000D01*
X41975812Y-114025518D01*
X41939502Y-113905820D01*
X41880537Y-113795506D01*
X41801185Y-113698815D01*
X41704494Y-113619463D01*
X41594180Y-113560498D01*
X41474482Y-113524188D01*
X41350000Y-113511928D01*
X39650000Y-113511928D01*
X39525518Y-113524188D01*
X39405820Y-113560498D01*
X39295506Y-113619463D01*
X39198815Y-113698815D01*
X39119463Y-113795506D01*
X39060498Y-113905820D01*
X39036034Y-113986466D01*
X38960269Y-113902412D01*
X38726920Y-113728359D01*
X38464099Y-113603175D01*
X38316890Y-113558524D01*
X38087000Y-113679845D01*
X38087000Y-114873000D01*
X38107000Y-114873000D01*
X38107000Y-115127000D01*
X38087000Y-115127000D01*
X38087000Y-116320155D01*
X38316890Y-116441476D01*
X38464099Y-116396825D01*
X38726920Y-116271641D01*
X38960269Y-116097588D01*
X39036034Y-116013534D01*
X39060498Y-116094180D01*
X39119463Y-116204494D01*
X39198815Y-116301185D01*
X39295506Y-116380537D01*
X39405820Y-116439502D01*
X39525518Y-116475812D01*
X39650000Y-116488072D01*
X39769467Y-116488072D01*
X39747205Y-118936872D01*
X39689458Y-118828836D01*
X39579792Y-118695208D01*
X39446164Y-118585542D01*
X39293709Y-118504053D01*
X39128285Y-118453872D01*
X38956250Y-118436928D01*
X38651477Y-118436928D01*
X38555752Y-118427500D01*
X37415045Y-118427500D01*
X37383591Y-118401686D01*
X37186415Y-118296293D01*
X36972467Y-118231392D01*
X36749969Y-118209478D01*
X36527471Y-118231392D01*
X36313523Y-118296293D01*
X36116347Y-118401686D01*
X35943521Y-118543521D01*
X35801686Y-118716347D01*
X35696293Y-118913523D01*
X35631392Y-119127471D01*
X35609478Y-119349969D01*
X35631392Y-119572467D01*
X35696293Y-119786415D01*
X35801686Y-119983591D01*
X35907981Y-120113112D01*
X36120504Y-120325635D01*
X36156051Y-120368949D01*
X36328877Y-120510784D01*
X36526053Y-120616176D01*
X36740001Y-120681077D01*
X36906748Y-120697500D01*
X36906755Y-120697500D01*
X36962499Y-120702990D01*
X37018243Y-120697500D01*
X37315742Y-120697500D01*
X37310542Y-120703836D01*
X37229053Y-120856291D01*
X37178872Y-121021715D01*
X37161928Y-121193750D01*
X37161928Y-121681250D01*
X37178872Y-121853285D01*
X37229053Y-122018709D01*
X37310542Y-122171164D01*
X37420208Y-122304792D01*
X37553836Y-122414458D01*
X37706291Y-122495947D01*
X37736837Y-122505213D01*
X37740001Y-122537333D01*
X37748513Y-122623750D01*
X37750998Y-122648985D01*
X37794454Y-122792246D01*
X37865026Y-122924276D01*
X37936201Y-123011002D01*
X37960000Y-123040001D01*
X37988998Y-123063799D01*
X38436196Y-123510997D01*
X38459999Y-123540001D01*
X38575724Y-123634974D01*
X38707753Y-123705546D01*
X38851014Y-123749003D01*
X38962667Y-123760000D01*
X38962675Y-123760000D01*
X39000000Y-123763676D01*
X39037325Y-123760000D01*
X40711928Y-123760000D01*
X40711928Y-123900000D01*
X40724188Y-124024482D01*
X40760498Y-124144180D01*
X40819463Y-124254494D01*
X40898815Y-124351185D01*
X40925397Y-124373000D01*
X29660000Y-124373000D01*
X29660000Y-115356891D01*
X36518519Y-115356891D01*
X36615843Y-115631252D01*
X36764822Y-115881355D01*
X36959731Y-116097588D01*
X37193080Y-116271641D01*
X37455901Y-116396825D01*
X37603110Y-116441476D01*
X37833000Y-116320155D01*
X37833000Y-115127000D01*
X36639186Y-115127000D01*
X36518519Y-115356891D01*
X29660000Y-115356891D01*
X29660000Y-114643109D01*
X36518519Y-114643109D01*
X36639186Y-114873000D01*
X37833000Y-114873000D01*
X37833000Y-113679845D01*
X37603110Y-113558524D01*
X37455901Y-113603175D01*
X37193080Y-113728359D01*
X36959731Y-113902412D01*
X36764822Y-114118645D01*
X36615843Y-114368748D01*
X36518519Y-114643109D01*
X29660000Y-114643109D01*
X29660000Y-111660000D01*
X55340000Y-111660000D01*
X55340001Y-115967581D01*
G36*
X96340001Y-134967571D02*
G01*
X96336807Y-135000000D01*
X96349550Y-135129383D01*
X96387290Y-135253793D01*
X96448575Y-135368450D01*
X96531052Y-135468948D01*
X96631550Y-135551425D01*
X96746207Y-135612710D01*
X96870617Y-135650450D01*
X96967581Y-135660000D01*
X97000000Y-135663193D01*
X97032419Y-135660000D01*
X118340000Y-135660000D01*
X118340000Y-136746112D01*
X118301185Y-136698815D01*
X118204494Y-136619463D01*
X118094180Y-136560498D01*
X117974482Y-136524188D01*
X117850000Y-136511928D01*
X117285750Y-136515000D01*
X117127000Y-136673750D01*
X117127000Y-137873000D01*
X117147000Y-137873000D01*
X117147000Y-138127000D01*
X117127000Y-138127000D01*
X117127000Y-138147000D01*
X116873000Y-138147000D01*
X116873000Y-138127000D01*
X115673750Y-138127000D01*
X115515000Y-138285750D01*
X115511928Y-138850000D01*
X115524188Y-138974482D01*
X115560498Y-139094180D01*
X115619463Y-139204494D01*
X115698815Y-139301185D01*
X115795506Y-139380537D01*
X115905820Y-139439502D01*
X115978380Y-139461513D01*
X115846525Y-139593368D01*
X115721822Y-139780000D01*
X113854802Y-139780000D01*
X111813804Y-137739003D01*
X111790001Y-137709999D01*
X111674276Y-137615026D01*
X111542247Y-137544454D01*
X111398986Y-137500997D01*
X111287333Y-137490000D01*
X111287322Y-137490000D01*
X111250000Y-137486324D01*
X111212678Y-137490000D01*
X96802016Y-137490000D01*
X96848284Y-137433623D01*
X96953676Y-137236447D01*
X96979899Y-137150000D01*
X115511928Y-137150000D01*
X115515000Y-137714250D01*
X115673750Y-137873000D01*
X116873000Y-137873000D01*
X116873000Y-136673750D01*
X116714250Y-136515000D01*
X116150000Y-136511928D01*
X116025518Y-136524188D01*
X115905820Y-136560498D01*
X115795506Y-136619463D01*
X115698815Y-136698815D01*
X115619463Y-136795506D01*
X115560498Y-136905820D01*
X115524188Y-137025518D01*
X115511928Y-137150000D01*
X96979899Y-137150000D01*
X97018577Y-137022499D01*
X97040491Y-136800000D01*
X97018577Y-136577501D01*
X96953676Y-136363553D01*
X96848284Y-136166377D01*
X96706449Y-135993551D01*
X96533623Y-135851716D01*
X96336447Y-135746324D01*
X96122499Y-135681423D01*
X95955752Y-135665000D01*
X94605612Y-135665000D01*
X94600537Y-135655506D01*
X94521185Y-135558815D01*
X94424494Y-135479463D01*
X94314180Y-135420498D01*
X94194482Y-135384188D01*
X94070000Y-135371928D01*
X92470000Y-135371928D01*
X92345518Y-135384188D01*
X92225820Y-135420498D01*
X92115506Y-135479463D01*
X92018815Y-135558815D01*
X92000000Y-135581741D01*
X91981185Y-135558815D01*
X91884494Y-135479463D01*
X91774180Y-135420498D01*
X91654482Y-135384188D01*
X91530000Y-135371928D01*
X89930000Y-135371928D01*
X89805518Y-135384188D01*
X89685820Y-135420498D01*
X89575506Y-135479463D01*
X89478815Y-135558815D01*
X89399463Y-135655506D01*
X89340498Y-135765820D01*
X89304188Y-135885518D01*
X89291928Y-136010000D01*
X89291928Y-136898061D01*
X86877116Y-136917747D01*
X86883084Y-136906582D01*
X86927929Y-136758745D01*
X86943072Y-136605000D01*
X86943072Y-134955000D01*
X86927929Y-134801255D01*
X86883084Y-134653418D01*
X86868963Y-134627000D01*
X96340001Y-134627000D01*
X96340001Y-134967571D01*
G37*
X96340001Y-134967571D02*
X96336807Y-135000000D01*
X96349550Y-135129383D01*
X96387290Y-135253793D01*
X96448575Y-135368450D01*
X96531052Y-135468948D01*
X96631550Y-135551425D01*
X96746207Y-135612710D01*
X96870617Y-135650450D01*
X96967581Y-135660000D01*
X97000000Y-135663193D01*
X97032419Y-135660000D01*
X118340000Y-135660000D01*
X118340000Y-136746112D01*
X118301185Y-136698815D01*
X118204494Y-136619463D01*
X118094180Y-136560498D01*
X117974482Y-136524188D01*
X117850000Y-136511928D01*
X117285750Y-136515000D01*
X117127000Y-136673750D01*
X117127000Y-137873000D01*
X117147000Y-137873000D01*
X117147000Y-138127000D01*
X117127000Y-138127000D01*
X117127000Y-138147000D01*
X116873000Y-138147000D01*
X116873000Y-138127000D01*
X115673750Y-138127000D01*
X115515000Y-138285750D01*
X115511928Y-138850000D01*
X115524188Y-138974482D01*
X115560498Y-139094180D01*
X115619463Y-139204494D01*
X115698815Y-139301185D01*
X115795506Y-139380537D01*
X115905820Y-139439502D01*
X115978380Y-139461513D01*
X115846525Y-139593368D01*
X115721822Y-139780000D01*
X113854802Y-139780000D01*
X111813804Y-137739003D01*
X111790001Y-137709999D01*
X111674276Y-137615026D01*
X111542247Y-137544454D01*
X111398986Y-137500997D01*
X111287333Y-137490000D01*
X111287322Y-137490000D01*
X111250000Y-137486324D01*
X111212678Y-137490000D01*
X96802016Y-137490000D01*
X96848284Y-137433623D01*
X96953676Y-137236447D01*
X96979899Y-137150000D01*
X115511928Y-137150000D01*
X115515000Y-137714250D01*
X115673750Y-137873000D01*
X116873000Y-137873000D01*
X116873000Y-136673750D01*
X116714250Y-136515000D01*
X116150000Y-136511928D01*
X116025518Y-136524188D01*
X115905820Y-136560498D01*
X115795506Y-136619463D01*
X115698815Y-136698815D01*
X115619463Y-136795506D01*
X115560498Y-136905820D01*
X115524188Y-137025518D01*
X115511928Y-137150000D01*
X96979899Y-137150000D01*
X97018577Y-137022499D01*
X97040491Y-136800000D01*
X97018577Y-136577501D01*
X96953676Y-136363553D01*
X96848284Y-136166377D01*
X96706449Y-135993551D01*
X96533623Y-135851716D01*
X96336447Y-135746324D01*
X96122499Y-135681423D01*
X95955752Y-135665000D01*
X94605612Y-135665000D01*
X94600537Y-135655506D01*
X94521185Y-135558815D01*
X94424494Y-135479463D01*
X94314180Y-135420498D01*
X94194482Y-135384188D01*
X94070000Y-135371928D01*
X92470000Y-135371928D01*
X92345518Y-135384188D01*
X92225820Y-135420498D01*
X92115506Y-135479463D01*
X92018815Y-135558815D01*
X92000000Y-135581741D01*
X91981185Y-135558815D01*
X91884494Y-135479463D01*
X91774180Y-135420498D01*
X91654482Y-135384188D01*
X91530000Y-135371928D01*
X89930000Y-135371928D01*
X89805518Y-135384188D01*
X89685820Y-135420498D01*
X89575506Y-135479463D01*
X89478815Y-135558815D01*
X89399463Y-135655506D01*
X89340498Y-135765820D01*
X89304188Y-135885518D01*
X89291928Y-136010000D01*
X89291928Y-136898061D01*
X86877116Y-136917747D01*
X86883084Y-136906582D01*
X86927929Y-136758745D01*
X86943072Y-136605000D01*
X86943072Y-134955000D01*
X86927929Y-134801255D01*
X86883084Y-134653418D01*
X86868963Y-134627000D01*
X96340001Y-134627000D01*
X96340001Y-134967571D01*
%TD*%
M02*
